<svg xmlns="http://www.w3.org/2000/svg" xmlns:rdkit="http://www.rdkit.org/xml" xmlns:xlink="http://www.w3.org/1999/xlink" version="1.1" baseProfile="full" xml:space="preserve" width="2000px" height="400px" viewBox="0 0 2000 400">
<!-- END OF HEADER -->
<rect style="opacity:1.0;fill:#FFFFFF;stroke:none" width="2000.0" height="400.0" x="0.0" y="0.0"> </rect>
<path class="bond-0 atom-0 atom-1" d="M 94.9,178.1 L 128.3,222.4" style="fill:none;fill-rule:evenodd;stroke:#000000;stroke-width:2.0px;stroke-linecap:butt;stroke-linejoin:miter;stroke-opacity:1"/>
<path class="bond-0 atom-0 atom-1" d="M 91.1,191.4 L 114.4,222.4" style="fill:none;fill-rule:evenodd;stroke:#000000;stroke-width:2.0px;stroke-linecap:butt;stroke-linejoin:miter;stroke-opacity:1"/>
<path class="bond-1 atom-1 atom-2" d="M 128.3,222.4 L 183.3,215.6" style="fill:none;fill-rule:evenodd;stroke:#000000;stroke-width:2.0px;stroke-linecap:butt;stroke-linejoin:miter;stroke-opacity:1"/>
<path class="bond-2 atom-2 atom-3" d="M 183.3,215.6 L 216.7,259.9" style="fill:none;fill-rule:evenodd;stroke:#000000;stroke-width:2.0px;stroke-linecap:butt;stroke-linejoin:miter;stroke-opacity:1"/>
<path class="bond-2 atom-2 atom-3" d="M 197.2,215.6 L 220.5,246.6" style="fill:none;fill-rule:evenodd;stroke:#000000;stroke-width:2.0px;stroke-linecap:butt;stroke-linejoin:miter;stroke-opacity:1"/>
<path class="bond-3 atom-3 atom-4" d="M 216.7,259.9 L 271.7,253.2" style="fill:none;fill-rule:evenodd;stroke:#000000;stroke-width:2.0px;stroke-linecap:butt;stroke-linejoin:miter;stroke-opacity:1"/>
<path class="bond-4 atom-4 atom-5" d="M 271.7,253.2 L 305.1,297.5" style="fill:none;fill-rule:evenodd;stroke:#000000;stroke-width:2.0px;stroke-linecap:butt;stroke-linejoin:miter;stroke-opacity:1"/>
<path class="bond-4 atom-4 atom-5" d="M 285.6,253.2 L 308.9,284.2" style="fill:none;fill-rule:evenodd;stroke:#000000;stroke-width:2.0px;stroke-linecap:butt;stroke-linejoin:miter;stroke-opacity:1"/>
<path class="bond-5 atom-5 atom-6" d="M 305.1,297.5 L 360.1,290.8" style="fill:none;fill-rule:evenodd;stroke:#000000;stroke-width:2.0px;stroke-linecap:butt;stroke-linejoin:miter;stroke-opacity:1"/>
<path class="bond-6 atom-6 atom-7" d="M 360.1,290.8 L 381.8,239.7" style="fill:none;fill-rule:evenodd;stroke:#000000;stroke-width:2.0px;stroke-linecap:butt;stroke-linejoin:miter;stroke-opacity:1"/>
<path class="bond-6 atom-6 atom-7" d="M 353.2,278.8 L 368.4,243.0" style="fill:none;fill-rule:evenodd;stroke:#000000;stroke-width:2.0px;stroke-linecap:butt;stroke-linejoin:miter;stroke-opacity:1"/>
<path class="bond-7 atom-7 atom-8" d="M 381.8,239.7 L 348.5,195.4" style="fill:none;fill-rule:evenodd;stroke:#000000;stroke-width:2.0px;stroke-linecap:butt;stroke-linejoin:miter;stroke-opacity:1"/>
<path class="bond-8 atom-8 atom-9" d="M 348.5,195.4 L 293.4,202.2" style="fill:none;fill-rule:evenodd;stroke:#000000;stroke-width:2.0px;stroke-linecap:butt;stroke-linejoin:miter;stroke-opacity:1"/>
<path class="bond-8 atom-8 atom-9" d="M 341.5,207.4 L 303.0,212.1" style="fill:none;fill-rule:evenodd;stroke:#000000;stroke-width:2.0px;stroke-linecap:butt;stroke-linejoin:miter;stroke-opacity:1"/>
<path class="bond-9 atom-9 atom-10" d="M 293.4,202.2 L 260.1,157.8" style="fill:none;fill-rule:evenodd;stroke:#000000;stroke-width:2.0px;stroke-linecap:butt;stroke-linejoin:miter;stroke-opacity:1"/>
<path class="bond-10 atom-10 atom-11" d="M 260.1,157.8 L 281.7,106.8" style="fill:none;fill-rule:evenodd;stroke:#000000;stroke-width:2.0px;stroke-linecap:butt;stroke-linejoin:miter;stroke-opacity:1"/>
<path class="bond-10 atom-10 atom-11" d="M 253.1,145.9 L 268.3,110.1" style="fill:none;fill-rule:evenodd;stroke:#000000;stroke-width:2.0px;stroke-linecap:butt;stroke-linejoin:miter;stroke-opacity:1"/>
<path class="bond-11 atom-11 atom-12" d="M 281.7,106.8 L 248.4,62.5" style="fill:none;fill-rule:evenodd;stroke:#000000;stroke-width:2.0px;stroke-linecap:butt;stroke-linejoin:miter;stroke-opacity:1"/>
<path class="bond-12 atom-12 atom-13" d="M 248.4,62.5 L 193.3,69.2" style="fill:none;fill-rule:evenodd;stroke:#000000;stroke-width:2.0px;stroke-linecap:butt;stroke-linejoin:miter;stroke-opacity:1"/>
<path class="bond-12 atom-12 atom-13" d="M 241.5,74.5 L 202.9,79.2" style="fill:none;fill-rule:evenodd;stroke:#000000;stroke-width:2.0px;stroke-linecap:butt;stroke-linejoin:miter;stroke-opacity:1"/>
<path class="bond-13 atom-13 atom-14" d="M 193.3,69.2 L 171.6,120.3" style="fill:none;fill-rule:evenodd;stroke:#000000;stroke-width:2.0px;stroke-linecap:butt;stroke-linejoin:miter;stroke-opacity:1"/>
<path class="bond-14 atom-14 atom-15" d="M 171.6,120.3 L 205.0,164.6" style="fill:none;fill-rule:evenodd;stroke:#000000;stroke-width:2.0px;stroke-linecap:butt;stroke-linejoin:miter;stroke-opacity:1"/>
<path class="bond-14 atom-14 atom-15" d="M 185.5,120.3 L 208.9,151.3" style="fill:none;fill-rule:evenodd;stroke:#000000;stroke-width:2.0px;stroke-linecap:butt;stroke-linejoin:miter;stroke-opacity:1"/>
<path class="bond-15 atom-1 atom-16" d="M 128.3,222.4 L 106.6,273.4" style="fill:none;fill-rule:evenodd;stroke:#000000;stroke-width:2.0px;stroke-linecap:butt;stroke-linejoin:miter;stroke-opacity:1"/>
<path class="bond-16 atom-16 atom-17" d="M 106.6,273.4 L 51.5,280.2" style="fill:none;fill-rule:evenodd;stroke:#000000;stroke-width:2.0px;stroke-linecap:butt;stroke-linejoin:miter;stroke-opacity:1"/>
<path class="bond-17 atom-17 atom-18" d="M 51.5,280.2 L 18.2,235.9" style="fill:none;fill-rule:evenodd;stroke:#000000;stroke-width:2.0px;stroke-linecap:butt;stroke-linejoin:miter;stroke-opacity:1"/>
<path class="bond-18 atom-18 atom-19" d="M 18.2,235.9 L 39.9,184.8" style="fill:none;fill-rule:evenodd;stroke:#000000;stroke-width:2.0px;stroke-linecap:butt;stroke-linejoin:miter;stroke-opacity:1"/>
<path class="bond-19 atom-19 atom-0" d="M 39.9,184.8 L 94.9,178.1" style="fill:none;fill-rule:evenodd;stroke:#000000;stroke-width:2.0px;stroke-linecap:butt;stroke-linejoin:miter;stroke-opacity:1"/>
<path class="bond-20 atom-15 atom-2" d="M 205.0,164.6 L 183.3,215.6" style="fill:none;fill-rule:evenodd;stroke:#000000;stroke-width:2.0px;stroke-linecap:butt;stroke-linejoin:miter;stroke-opacity:1"/>
<path class="bond-21 atom-9 atom-4" d="M 293.4,202.2 L 271.7,253.2" style="fill:none;fill-rule:evenodd;stroke:#000000;stroke-width:2.0px;stroke-linecap:butt;stroke-linejoin:miter;stroke-opacity:1"/>
<path class="bond-22 atom-15 atom-10" d="M 205.0,164.6 L 260.1,157.8" style="fill:none;fill-rule:evenodd;stroke:#000000;stroke-width:2.0px;stroke-linecap:butt;stroke-linejoin:miter;stroke-opacity:1"/>
<path class="legend" d="M 167.6 365.4 L 167.7 366.5 Q 168.6 365.3, 170.0 365.3 Q 170.5 365.3, 171.1 365.4 L 170.8 366.8 Q 170.1 366.6, 169.8 366.6 Q 169.1 366.6, 168.6 366.9 Q 168.2 367.1, 167.8 367.8 L 167.8 373.6 L 166.3 373.6 L 166.3 365.4 L 167.6 365.4 " fill="#000000"/>
<path class="legend" d="M 171.3 369.5 Q 171.3 367.5, 172.3 366.4 Q 173.3 365.3, 175.2 365.3 Q 177.0 365.3, 177.8 366.4 Q 178.6 367.4, 178.6 369.5 L 178.6 369.7 L 172.8 369.7 Q 172.9 371.1, 173.5 371.8 Q 174.1 372.6, 175.3 372.6 Q 175.9 372.6, 176.5 372.4 Q 177.1 372.3, 177.8 372.0 L 178.3 373.0 Q 177.4 373.4, 176.7 373.6 Q 176.0 373.8, 175.2 373.8 Q 173.4 373.8, 172.3 372.6 Q 171.3 371.5, 171.3 369.5 M 175.2 366.4 Q 174.2 366.4, 173.6 367.0 Q 173.1 367.5, 172.9 368.6 L 177.0 368.6 Q 176.9 367.5, 176.4 367.0 Q 176.0 366.4, 175.2 366.4 " fill="#000000"/>
<path class="legend" d="M 179.2 371.4 Q 179.2 370.1, 180.2 369.4 Q 181.3 368.7, 183.2 368.7 L 184.5 368.7 L 184.5 368.3 Q 184.5 367.3, 184.0 366.9 Q 183.6 366.4, 182.6 366.4 Q 181.9 366.4, 181.4 366.6 Q 180.9 366.7, 180.1 367.0 L 179.7 366.0 Q 181.2 365.3, 182.6 365.3 Q 184.4 365.3, 185.2 366.0 Q 186.0 366.8, 186.0 368.4 L 186.0 373.6 L 184.8 373.6 Q 184.8 373.6, 184.7 373.3 Q 184.7 373.1, 184.6 372.7 Q 183.4 373.8, 181.9 373.8 Q 180.7 373.8, 179.9 373.2 Q 179.2 372.5, 179.2 371.4 M 180.7 371.4 Q 180.7 372.0, 181.1 372.3 Q 181.5 372.6, 182.2 372.6 Q 182.8 372.6, 183.4 372.4 Q 184.0 372.0, 184.5 371.5 L 184.5 369.8 L 183.3 369.8 Q 182.0 369.8, 181.4 370.2 Q 180.7 370.6, 180.7 371.4 " fill="#000000"/>
<path class="legend" d="M 187.2 369.5 Q 187.2 367.5, 188.2 366.4 Q 189.2 365.3, 191.1 365.3 Q 193.0 365.3, 194.0 366.6 L 193.0 367.4 Q 192.6 366.9, 192.1 366.7 Q 191.7 366.4, 191.1 366.4 Q 190.0 366.4, 189.4 367.2 Q 188.7 368.0, 188.7 369.5 Q 188.7 371.0, 189.4 371.8 Q 190.0 372.6, 191.2 372.6 Q 191.9 372.6, 192.4 372.4 Q 192.8 372.3, 193.4 372.0 L 193.8 373.0 Q 192.6 373.7, 191.1 373.7 Q 189.2 373.7, 188.2 372.6 Q 187.2 371.5, 187.2 369.5 " fill="#000000"/>
<path class="legend" d="M 194.4 366.6 L 194.4 365.4 L 195.9 365.4 L 196.2 363.0 L 197.3 363.0 L 197.3 365.4 L 199.8 365.4 L 199.8 366.6 L 197.3 366.6 L 197.3 371.1 Q 197.3 372.5, 198.5 372.5 Q 199.0 372.5, 199.7 372.3 L 199.9 373.4 Q 199.1 373.7, 198.2 373.7 Q 197.2 373.7, 196.5 373.1 Q 195.8 372.4, 195.8 371.2 L 195.8 366.6 L 194.4 366.6 " fill="#000000"/>
<path class="legend" d="M 208.5 374.4 L 208.5 375.7 L 200.3 375.7 L 200.3 374.4 L 208.5 374.4 " fill="#000000"/>
<path class="legend" d="M 213.9 367.7 Q 215.0 368.0, 215.6 368.7 Q 216.1 369.4, 216.1 370.5 Q 216.1 371.5, 215.6 372.2 Q 215.2 373.0, 214.3 373.4 Q 213.4 373.8, 212.2 373.8 Q 211.0 373.8, 210.1 373.4 Q 209.2 372.9, 208.5 372.1 L 209.4 371.2 Q 210.1 371.9, 210.7 372.2 Q 211.3 372.5, 212.2 372.5 Q 213.3 372.5, 213.9 372.0 Q 214.5 371.4, 214.5 370.5 Q 214.5 369.4, 213.9 368.8 Q 213.2 368.3, 211.8 368.3 L 211.0 368.3 L 211.0 367.2 L 211.7 367.2 Q 213.0 367.2, 213.6 366.6 Q 214.3 366.1, 214.3 365.1 Q 214.3 364.3, 213.7 363.9 Q 213.2 363.5, 212.3 363.5 Q 211.3 363.5, 210.7 363.8 Q 210.2 364.1, 209.7 365.0 L 208.6 364.4 Q 209.0 363.4, 210.0 362.8 Q 210.9 362.2, 212.3 362.2 Q 213.9 362.2, 214.9 363.0 Q 215.9 363.7, 215.9 365.1 Q 215.9 366.0, 215.4 366.6 Q 214.9 367.3, 213.9 367.7 " fill="#000000"/>
<path class="legend" d="M 217.1 364.4 Q 217.5 363.4, 218.5 362.8 Q 219.5 362.2, 220.9 362.2 Q 222.6 362.2, 223.5 363.1 Q 224.5 364.0, 224.5 365.7 Q 224.5 367.4, 223.3 368.9 Q 222.0 370.5, 219.5 372.4 L 224.7 372.4 L 224.7 373.6 L 217.1 373.6 L 217.1 372.6 Q 219.2 371.1, 220.4 369.9 Q 221.7 368.8, 222.3 367.8 Q 222.9 366.8, 222.9 365.8 Q 222.9 364.7, 222.4 364.1 Q 221.8 363.5, 220.9 363.5 Q 220.0 363.5, 219.4 363.8 Q 218.7 364.2, 218.3 365.0 L 217.1 364.4 " fill="#000000"/>
<path class="legend" d="M 231.4 367.6 Q 232.5 368.1, 233.1 368.8 Q 233.7 369.4, 233.7 370.5 Q 233.7 371.5, 233.2 372.2 Q 232.7 373.0, 231.8 373.4 Q 230.9 373.8, 229.7 373.8 Q 227.8 373.8, 226.7 372.9 Q 225.7 372.0, 225.7 370.5 Q 225.7 369.6, 226.1 368.9 Q 226.6 368.2, 227.6 367.7 Q 226.9 367.3, 226.5 366.7 Q 226.1 366.0, 226.1 365.1 Q 226.1 363.7, 227.0 363.0 Q 228.0 362.2, 229.7 362.2 Q 231.3 362.2, 232.3 363.0 Q 233.2 363.7, 233.2 365.1 Q 233.2 365.9, 232.8 366.5 Q 232.3 367.1, 231.4 367.6 M 229.7 363.4 Q 228.7 363.4, 228.2 363.8 Q 227.7 364.3, 227.7 365.1 Q 227.7 365.7, 228.0 366.1 Q 228.4 366.4, 228.9 366.7 Q 229.4 366.9, 230.4 367.2 Q 231.0 366.8, 231.3 366.2 Q 231.6 365.7, 231.6 365.1 Q 231.6 364.3, 231.1 363.8 Q 230.6 363.4, 229.7 363.4 M 229.7 372.6 Q 230.8 372.6, 231.4 372.0 Q 232.1 371.5, 232.1 370.5 Q 232.1 369.9, 231.7 369.5 Q 231.4 369.1, 230.9 368.9 Q 230.4 368.7, 229.5 368.4 L 228.8 368.2 Q 228.0 368.6, 227.6 369.2 Q 227.3 369.8, 227.3 370.5 Q 227.3 371.5, 227.9 372.0 Q 228.6 372.6, 229.7 372.6 " fill="#000000"/>
<path class="legend" d="M 136.9 383.8 Q 136.9 381.8, 137.9 380.7 Q 138.9 379.5, 140.9 379.5 Q 142.7 379.5, 143.7 380.9 L 142.7 381.6 Q 142.3 381.2, 141.9 380.9 Q 141.4 380.7, 140.9 380.7 Q 139.7 380.7, 139.1 381.5 Q 138.5 382.3, 138.5 383.8 Q 138.5 385.3, 139.1 386.1 Q 139.8 386.8, 141.0 386.8 Q 141.6 386.8, 142.1 386.7 Q 142.6 386.5, 143.1 386.3 L 143.6 387.3 Q 142.4 388.0, 140.9 388.0 Q 138.9 388.0, 137.9 386.9 Q 136.9 385.7, 136.9 383.8 " fill="#000000"/>
<path class="legend" d="M 144.1 383.8 Q 144.1 381.7, 145.1 380.6 Q 146.1 379.5, 148.0 379.5 Q 149.8 379.5, 150.6 380.6 Q 151.4 381.7, 151.4 383.7 L 151.4 384.0 L 145.6 384.0 Q 145.7 385.4, 146.3 386.1 Q 146.9 386.8, 148.1 386.8 Q 148.7 386.8, 149.3 386.7 Q 149.9 386.5, 150.6 386.2 L 151.1 387.2 Q 150.2 387.6, 149.5 387.8 Q 148.8 388.0, 148.0 388.0 Q 146.1 388.0, 145.1 386.9 Q 144.1 385.8, 144.1 383.8 M 148.0 380.7 Q 147.0 380.7, 146.4 381.2 Q 145.9 381.8, 145.7 382.8 L 149.8 382.8 Q 149.7 381.7, 149.2 381.2 Q 148.8 380.7, 148.0 380.7 " fill="#000000"/>
<path class="legend" d="M 156.3 379.5 Q 157.6 379.5, 158.3 380.3 Q 159.0 381.0, 159.0 382.4 L 159.0 387.9 L 157.5 387.9 L 157.5 382.6 Q 157.5 381.6, 157.1 381.2 Q 156.7 380.7, 155.9 380.7 Q 155.1 380.7, 154.5 381.1 Q 153.9 381.4, 153.5 382.0 L 153.5 387.9 L 152.0 387.9 L 152.0 379.7 L 153.2 379.7 L 153.4 380.8 Q 154.5 379.5, 156.3 379.5 " fill="#000000"/>
<path class="legend" d="M 160.2 380.8 L 160.2 379.7 L 161.8 379.7 L 162.0 377.3 L 163.2 377.3 L 163.2 379.7 L 165.7 379.7 L 165.7 380.8 L 163.2 380.8 L 163.2 385.4 Q 163.2 386.8, 164.4 386.8 Q 164.8 386.8, 165.5 386.6 L 165.8 387.6 Q 164.9 388.0, 164.1 388.0 Q 163.0 388.0, 162.3 387.3 Q 161.7 386.7, 161.7 385.4 L 161.7 380.8 L 160.2 380.8 " fill="#000000"/>
<path class="legend" d="M 174.4 388.7 L 174.4 390.0 L 166.2 390.0 L 166.2 388.7 L 174.4 388.7 " fill="#000000"/>
<path class="legend" d="M 181.8 375.7 L 181.8 387.9 L 180.6 387.9 L 180.4 386.9 Q 179.5 388.0, 178.0 388.0 Q 176.3 388.0, 175.3 387.0 Q 174.4 385.9, 174.4 383.9 Q 174.4 381.8, 175.5 380.7 Q 176.6 379.5, 178.6 379.5 Q 179.4 379.5, 180.3 379.7 L 180.3 375.7 L 181.8 375.7 M 178.1 386.8 Q 178.9 386.8, 179.5 386.4 Q 180.1 385.9, 180.3 385.1 L 180.3 380.9 Q 179.5 380.7, 178.6 380.7 Q 177.3 380.7, 176.6 381.6 Q 175.9 382.4, 175.9 383.9 Q 175.9 385.3, 176.5 386.1 Q 177.0 386.8, 178.1 386.8 " fill="#000000"/>
<path class="legend" d="M 183.1 376.6 L 184.6 376.6 L 184.6 378.0 L 183.1 378.0 L 183.1 376.6 M 183.1 379.7 L 184.6 379.7 L 184.6 387.9 L 183.1 387.9 L 183.1 379.7 " fill="#000000"/>
<path class="legend" d="M 186.4 386.2 Q 187.1 386.5, 187.7 386.6 Q 188.2 386.8, 188.7 386.8 Q 189.5 386.8, 189.9 386.5 Q 190.3 386.2, 190.3 385.6 Q 190.3 385.2, 190.1 385.0 Q 189.8 384.8, 189.6 384.6 Q 189.3 384.5, 188.6 384.3 Q 188.5 384.3, 187.7 384.0 Q 187.0 383.7, 186.6 383.2 Q 186.2 382.7, 186.2 381.9 Q 186.2 380.9, 187.0 380.2 Q 187.8 379.5, 189.3 379.5 Q 189.9 379.5, 190.4 379.7 Q 191.0 379.8, 191.6 380.0 L 191.2 381.2 Q 190.7 381.0, 190.2 380.9 Q 189.7 380.8, 189.3 380.8 Q 188.5 380.8, 188.1 381.1 Q 187.7 381.4, 187.7 381.8 Q 187.7 382.3, 188.0 382.5 Q 188.3 382.7, 189.0 383.0 Q 189.2 383.0, 189.3 383.1 L 189.7 383.2 Q 190.4 383.4, 190.8 383.7 Q 191.2 383.9, 191.5 384.4 Q 191.8 384.8, 191.8 385.6 Q 191.8 386.7, 190.9 387.4 Q 190.1 388.0, 188.8 388.0 Q 188.0 388.0, 187.3 387.9 Q 186.6 387.7, 186.0 387.4 L 186.4 386.2 " fill="#000000"/>
<path class="legend" d="M 192.6 380.8 L 192.6 379.7 L 194.2 379.7 L 194.5 377.3 L 195.6 377.3 L 195.6 379.7 L 198.1 379.7 L 198.1 380.8 L 195.6 380.8 L 195.6 385.4 Q 195.6 386.8, 196.8 386.8 Q 197.3 386.8, 198.0 386.6 L 198.2 387.6 Q 197.3 388.0, 196.5 388.0 Q 195.4 388.0, 194.7 387.3 Q 194.1 386.7, 194.1 385.4 L 194.1 380.8 L 192.6 380.8 " fill="#000000"/>
<path class="legend" d="" fill="#000000"/>
<path class="legend" d="M 203.9 380.9 L 211.3 380.9 L 211.3 382.1 L 203.9 382.1 L 203.9 380.9 M 203.9 384.4 L 211.3 384.4 L 211.3 385.5 L 203.9 385.5 L 203.9 384.4 " fill="#000000"/>
<path class="legend" d="" fill="#000000"/>
<path class="legend" d="M 222.2 388.0 Q 220.1 388.0, 219.1 386.5 Q 218.1 384.9, 218.1 382.2 Q 218.1 379.5, 219.1 378.0 Q 220.1 376.4, 222.2 376.4 Q 224.3 376.4, 225.3 378.0 Q 226.3 379.5, 226.3 382.2 Q 226.3 384.9, 225.3 386.5 Q 224.3 388.0, 222.2 388.0 M 222.2 386.7 Q 223.4 386.7, 224.1 385.6 Q 224.7 384.4, 224.7 382.2 Q 224.7 380.0, 224.1 378.8 Q 223.4 377.7, 222.2 377.7 Q 221.0 377.7, 220.3 378.8 Q 219.7 380.0, 219.7 382.2 Q 219.7 384.4, 220.3 385.6 Q 221.0 386.7, 222.2 386.7 " fill="#000000"/>
<path class="legend" d="M 227.4 386.3 L 229.0 386.3 L 229.0 387.9 L 227.4 387.9 L 227.4 386.3 " fill="#000000"/>
<path class="legend" d="M 234.1 380.8 Q 235.1 380.8, 235.9 381.2 Q 236.8 381.6, 237.2 382.4 Q 237.7 383.2, 237.7 384.3 Q 237.7 385.5, 237.1 386.3 Q 236.6 387.2, 235.6 387.6 Q 234.7 388.0, 233.6 388.0 Q 232.6 388.0, 231.6 387.6 Q 230.7 387.2, 230.0 386.5 L 231.0 385.5 Q 231.5 386.1, 232.2 386.4 Q 233.0 386.7, 233.7 386.7 Q 234.7 386.7, 235.4 386.1 Q 236.1 385.5, 236.1 384.3 Q 236.1 383.1, 235.4 382.6 Q 234.7 382.0, 233.6 382.0 Q 232.6 382.0, 231.5 382.4 L 230.6 382.0 L 231.2 376.6 L 237.0 376.6 L 236.8 377.8 L 232.5 377.8 L 232.1 381.2 Q 233.1 380.8, 234.1 380.8 " fill="#000000"/>
<path class="legend" d="M 244.4 377.8 L 238.5 377.8 L 238.5 376.6 L 246.0 376.6 L 246.0 377.7 L 241.4 387.9 L 239.9 387.9 L 244.4 377.8 " fill="#000000"/>
<path class="legend" d="M 252.2 381.9 Q 253.3 382.3, 253.9 383.0 Q 254.4 383.7, 254.4 384.8 Q 254.4 385.7, 253.9 386.5 Q 253.5 387.2, 252.6 387.6 Q 251.7 388.0, 250.5 388.0 Q 248.6 388.0, 247.5 387.2 Q 246.4 386.3, 246.4 384.8 Q 246.4 383.9, 246.9 383.2 Q 247.4 382.5, 248.4 381.9 Q 247.7 381.5, 247.3 380.9 Q 246.9 380.3, 246.9 379.3 Q 246.9 378.0, 247.8 377.2 Q 248.8 376.4, 250.4 376.4 Q 252.1 376.4, 253.1 377.2 Q 254.0 378.0, 254.0 379.3 Q 254.0 380.2, 253.6 380.8 Q 253.1 381.4, 252.2 381.9 M 250.4 377.6 Q 249.5 377.6, 249.0 378.1 Q 248.5 378.5, 248.5 379.3 Q 248.5 379.9, 248.8 380.3 Q 249.2 380.7, 249.7 380.9 Q 250.2 381.2, 251.1 381.5 Q 251.8 381.0, 252.1 380.5 Q 252.4 380.0, 252.4 379.3 Q 252.4 378.5, 251.9 378.1 Q 251.4 377.6, 250.4 377.6 M 250.5 386.8 Q 251.6 386.8, 252.2 386.3 Q 252.8 385.7, 252.8 384.8 Q 252.8 384.2, 252.5 383.8 Q 252.2 383.4, 251.7 383.2 Q 251.2 382.9, 250.3 382.7 L 249.5 382.4 Q 248.7 382.9, 248.4 383.5 Q 248.0 384.0, 248.0 384.8 Q 248.0 385.7, 248.7 386.3 Q 249.4 386.8, 250.5 386.8 " fill="#000000"/>
<path class="legend" d="M 260.9 381.9 Q 262.0 382.2, 262.5 383.0 Q 263.1 383.7, 263.1 384.8 Q 263.1 385.7, 262.6 386.5 Q 262.1 387.2, 261.2 387.6 Q 260.3 388.0, 259.2 388.0 Q 258.0 388.0, 257.1 387.6 Q 256.2 387.2, 255.5 386.3 L 256.4 385.4 Q 257.1 386.2, 257.7 386.5 Q 258.3 386.8, 259.2 386.8 Q 260.2 386.8, 260.8 386.2 Q 261.5 385.7, 261.5 384.8 Q 261.5 383.6, 260.8 383.1 Q 260.2 382.6, 258.8 382.6 L 258.0 382.6 L 258.0 381.4 L 258.7 381.4 Q 259.9 381.4, 260.6 380.9 Q 261.2 380.3, 261.2 379.3 Q 261.2 378.6, 260.7 378.2 Q 260.1 377.7, 259.2 377.7 Q 258.3 377.7, 257.7 378.0 Q 257.1 378.4, 256.7 379.2 L 255.5 378.6 Q 255.9 377.7, 256.9 377.1 Q 257.9 376.4, 259.2 376.4 Q 260.9 376.4, 261.9 377.2 Q 262.8 378.0, 262.8 379.3 Q 262.8 380.2, 262.3 380.9 Q 261.8 381.6, 260.9 381.9 " fill="#000000"/>
<path class="bond-0 atom-0 atom-1" d="M 548.3,130.0 L 556.8,184.8" style="fill:none;fill-rule:evenodd;stroke:#000000;stroke-width:2.0px;stroke-linecap:butt;stroke-linejoin:miter;stroke-opacity:1"/>
<path class="bond-0 atom-0 atom-1" d="M 538.6,139.9 L 544.6,178.3" style="fill:none;fill-rule:evenodd;stroke:#000000;stroke-width:2.0px;stroke-linecap:butt;stroke-linejoin:miter;stroke-opacity:1"/>
<path class="bond-1 atom-1 atom-2" d="M 556.8,184.8 L 608.5,204.8" style="fill:none;fill-rule:evenodd;stroke:#000000;stroke-width:2.0px;stroke-linecap:butt;stroke-linejoin:miter;stroke-opacity:1"/>
<path class="bond-2 atom-2 atom-3" d="M 608.5,204.8 L 617.1,259.6" style="fill:none;fill-rule:evenodd;stroke:#000000;stroke-width:2.0px;stroke-linecap:butt;stroke-linejoin:miter;stroke-opacity:1"/>
<path class="bond-2 atom-2 atom-3" d="M 620.8,211.3 L 626.8,249.7" style="fill:none;fill-rule:evenodd;stroke:#000000;stroke-width:2.0px;stroke-linecap:butt;stroke-linejoin:miter;stroke-opacity:1"/>
<path class="bond-3 atom-3 atom-4" d="M 617.1,259.6 L 668.8,279.6" style="fill:none;fill-rule:evenodd;stroke:#000000;stroke-width:2.0px;stroke-linecap:butt;stroke-linejoin:miter;stroke-opacity:1"/>
<path class="bond-4 atom-4 atom-5" d="M 668.8,279.6 L 712.0,244.8" style="fill:none;fill-rule:evenodd;stroke:#000000;stroke-width:2.0px;stroke-linecap:butt;stroke-linejoin:miter;stroke-opacity:1"/>
<path class="bond-4 atom-4 atom-5" d="M 668.3,265.7 L 698.6,241.4" style="fill:none;fill-rule:evenodd;stroke:#000000;stroke-width:2.0px;stroke-linecap:butt;stroke-linejoin:miter;stroke-opacity:1"/>
<path class="bond-5 atom-5 atom-6" d="M 712.0,244.8 L 703.5,190.0" style="fill:none;fill-rule:evenodd;stroke:#000000;stroke-width:2.0px;stroke-linecap:butt;stroke-linejoin:miter;stroke-opacity:1"/>
<path class="bond-6 atom-6 atom-7" d="M 703.5,190.0 L 746.6,155.2" style="fill:none;fill-rule:evenodd;stroke:#000000;stroke-width:2.0px;stroke-linecap:butt;stroke-linejoin:miter;stroke-opacity:1"/>
<path class="bond-6 atom-6 atom-7" d="M 703.0,176.1 L 733.2,151.8" style="fill:none;fill-rule:evenodd;stroke:#000000;stroke-width:2.0px;stroke-linecap:butt;stroke-linejoin:miter;stroke-opacity:1"/>
<path class="bond-7 atom-7 atom-8" d="M 746.6,155.2 L 738.1,100.4" style="fill:none;fill-rule:evenodd;stroke:#000000;stroke-width:2.0px;stroke-linecap:butt;stroke-linejoin:miter;stroke-opacity:1"/>
<path class="bond-8 atom-8 atom-9" d="M 738.1,100.4 L 686.4,80.4" style="fill:none;fill-rule:evenodd;stroke:#000000;stroke-width:2.0px;stroke-linecap:butt;stroke-linejoin:miter;stroke-opacity:1"/>
<path class="bond-8 atom-8 atom-9" d="M 726.3,107.8 L 690.1,93.8" style="fill:none;fill-rule:evenodd;stroke:#000000;stroke-width:2.0px;stroke-linecap:butt;stroke-linejoin:miter;stroke-opacity:1"/>
<path class="bond-9 atom-9 atom-10" d="M 686.4,80.4 L 643.2,115.2" style="fill:none;fill-rule:evenodd;stroke:#000000;stroke-width:2.0px;stroke-linecap:butt;stroke-linejoin:miter;stroke-opacity:1"/>
<path class="bond-10 atom-10 atom-11" d="M 643.2,115.2 L 651.7,170.0" style="fill:none;fill-rule:evenodd;stroke:#000000;stroke-width:2.0px;stroke-linecap:butt;stroke-linejoin:miter;stroke-opacity:1"/>
<path class="bond-10 atom-10 atom-11" d="M 655.4,121.7 L 661.4,160.1" style="fill:none;fill-rule:evenodd;stroke:#000000;stroke-width:2.0px;stroke-linecap:butt;stroke-linejoin:miter;stroke-opacity:1"/>
<path class="bond-11 atom-1 atom-12" d="M 556.8,184.8 L 513.6,219.6" style="fill:none;fill-rule:evenodd;stroke:#000000;stroke-width:2.0px;stroke-linecap:butt;stroke-linejoin:miter;stroke-opacity:1"/>
<path class="bond-12 atom-12 atom-13" d="M 513.6,219.6 L 461.9,199.6" style="fill:none;fill-rule:evenodd;stroke:#000000;stroke-width:2.0px;stroke-linecap:butt;stroke-linejoin:miter;stroke-opacity:1"/>
<path class="bond-13 atom-13 atom-14" d="M 461.9,199.6 L 453.4,144.8" style="fill:none;fill-rule:evenodd;stroke:#000000;stroke-width:2.0px;stroke-linecap:butt;stroke-linejoin:miter;stroke-opacity:1"/>
<path class="bond-14 atom-14 atom-15" d="M 453.4,144.8 L 496.5,110.0" style="fill:none;fill-rule:evenodd;stroke:#000000;stroke-width:2.0px;stroke-linecap:butt;stroke-linejoin:miter;stroke-opacity:1"/>
<path class="bond-15 atom-15 atom-0" d="M 496.5,110.0 L 548.3,130.0" style="fill:none;fill-rule:evenodd;stroke:#000000;stroke-width:2.0px;stroke-linecap:butt;stroke-linejoin:miter;stroke-opacity:1"/>
<path class="bond-16 atom-11 atom-2" d="M 651.7,170.0 L 608.5,204.8" style="fill:none;fill-rule:evenodd;stroke:#000000;stroke-width:2.0px;stroke-linecap:butt;stroke-linejoin:miter;stroke-opacity:1"/>
<path class="bond-17 atom-11 atom-6" d="M 651.7,170.0 L 703.5,190.0" style="fill:none;fill-rule:evenodd;stroke:#000000;stroke-width:2.0px;stroke-linecap:butt;stroke-linejoin:miter;stroke-opacity:1"/>
<path class="legend" d="M 567.8 365.4 L 568.0 366.5 Q 568.8 365.3, 570.2 365.3 Q 570.7 365.3, 571.3 365.4 L 571.1 366.8 Q 570.4 366.6, 570.0 366.6 Q 569.3 366.6, 568.9 366.9 Q 568.4 367.1, 568.1 367.8 L 568.1 373.6 L 566.6 373.6 L 566.6 365.4 L 567.8 365.4 " fill="#000000"/>
<path class="legend" d="M 571.5 369.5 Q 571.5 367.5, 572.6 366.4 Q 573.6 365.3, 575.4 365.3 Q 577.2 365.3, 578.0 366.4 Q 578.8 367.4, 578.8 369.5 L 578.8 369.7 L 573.1 369.7 Q 573.1 371.1, 573.7 371.8 Q 574.4 372.6, 575.5 372.6 Q 576.2 372.6, 576.8 372.4 Q 577.4 372.3, 578.1 372.0 L 578.5 373.0 Q 577.7 373.4, 577.0 373.6 Q 576.2 373.8, 575.4 373.8 Q 573.6 373.8, 572.6 372.6 Q 571.5 371.5, 571.5 369.5 M 575.4 366.4 Q 574.5 366.4, 573.9 367.0 Q 573.3 367.5, 573.1 368.6 L 577.2 368.6 Q 577.1 367.5, 576.7 367.0 Q 576.2 366.4, 575.4 366.4 " fill="#000000"/>
<path class="legend" d="M 579.4 371.4 Q 579.4 370.1, 580.5 369.4 Q 581.5 368.7, 583.5 368.7 L 584.7 368.7 L 584.7 368.3 Q 584.7 367.3, 584.3 366.9 Q 583.8 366.4, 582.8 366.4 Q 582.2 366.4, 581.7 366.6 Q 581.1 366.7, 580.3 367.0 L 579.9 366.0 Q 581.4 365.3, 582.9 365.3 Q 584.6 365.3, 585.4 366.0 Q 586.2 366.8, 586.2 368.4 L 586.2 373.6 L 585.0 373.6 Q 585.0 373.6, 585.0 373.3 Q 584.9 373.1, 584.8 372.7 Q 583.7 373.8, 582.1 373.8 Q 580.9 373.8, 580.2 373.2 Q 579.4 372.5, 579.4 371.4 M 580.9 371.4 Q 580.9 372.0, 581.3 372.3 Q 581.7 372.6, 582.4 372.6 Q 583.1 372.6, 583.7 372.4 Q 584.3 372.0, 584.7 371.5 L 584.7 369.8 L 583.6 369.8 Q 582.3 369.8, 581.6 370.2 Q 580.9 370.6, 580.9 371.4 " fill="#000000"/>
<path class="legend" d="M 587.4 369.5 Q 587.4 367.5, 588.4 366.4 Q 589.4 365.3, 591.4 365.3 Q 593.2 365.3, 594.2 366.6 L 593.2 367.4 Q 592.8 366.9, 592.4 366.7 Q 591.9 366.4, 591.4 366.4 Q 590.2 366.4, 589.6 367.2 Q 589.0 368.0, 589.0 369.5 Q 589.0 371.0, 589.6 371.8 Q 590.3 372.6, 591.5 372.6 Q 592.1 372.6, 592.6 372.4 Q 593.1 372.3, 593.6 372.0 L 594.1 373.0 Q 592.9 373.7, 591.4 373.7 Q 589.4 373.7, 588.4 372.6 Q 587.4 371.5, 587.4 369.5 " fill="#000000"/>
<path class="legend" d="M 594.6 366.6 L 594.6 365.4 L 596.2 365.4 L 596.4 363.0 L 597.5 363.0 L 597.5 365.4 L 600.1 365.4 L 600.1 366.6 L 597.5 366.6 L 597.5 371.1 Q 597.5 372.5, 598.7 372.5 Q 599.2 372.5, 599.9 372.3 L 600.2 373.4 Q 599.3 373.7, 598.5 373.7 Q 597.4 373.7, 596.7 373.1 Q 596.0 372.4, 596.0 371.2 L 596.0 366.6 L 594.6 366.6 " fill="#000000"/>
<path class="legend" d="M 608.7 374.4 L 608.7 375.7 L 600.6 375.7 L 600.6 374.4 L 608.7 374.4 " fill="#000000"/>
<path class="legend" d="M 614.2 367.7 Q 615.3 368.0, 615.8 368.7 Q 616.4 369.4, 616.4 370.5 Q 616.4 371.5, 615.9 372.2 Q 615.4 373.0, 614.5 373.4 Q 613.6 373.8, 612.5 373.8 Q 611.3 373.8, 610.4 373.4 Q 609.5 372.9, 608.7 372.1 L 609.7 371.2 Q 610.4 371.9, 611.0 372.2 Q 611.5 372.5, 612.5 372.5 Q 613.5 372.5, 614.1 372.0 Q 614.8 371.4, 614.8 370.5 Q 614.8 369.4, 614.1 368.8 Q 613.5 368.3, 612.1 368.3 L 611.3 368.3 L 611.3 367.2 L 612.0 367.2 Q 613.2 367.2, 613.9 366.6 Q 614.5 366.1, 614.5 365.1 Q 614.5 364.3, 614.0 363.9 Q 613.4 363.5, 612.5 363.5 Q 611.6 363.5, 611.0 363.8 Q 610.4 364.1, 609.9 365.0 L 608.8 364.4 Q 609.2 363.4, 610.2 362.8 Q 611.2 362.2, 612.5 362.2 Q 614.2 362.2, 615.1 363.0 Q 616.1 363.7, 616.1 365.1 Q 616.1 366.0, 615.6 366.6 Q 615.1 367.3, 614.2 367.7 " fill="#000000"/>
<path class="legend" d="M 617.3 364.4 Q 617.8 363.4, 618.7 362.8 Q 619.7 362.2, 621.1 362.2 Q 622.8 362.2, 623.8 363.1 Q 624.7 364.0, 624.7 365.7 Q 624.7 367.4, 623.5 368.9 Q 622.3 370.5, 619.7 372.4 L 624.9 372.4 L 624.9 373.6 L 617.3 373.6 L 617.3 372.6 Q 619.4 371.1, 620.7 369.9 Q 621.9 368.8, 622.5 367.8 Q 623.1 366.8, 623.1 365.8 Q 623.1 364.7, 622.6 364.1 Q 622.1 363.5, 621.1 363.5 Q 620.2 363.5, 619.6 363.8 Q 619.0 364.2, 618.6 365.0 L 617.3 364.4 " fill="#000000"/>
<path class="legend" d="M 631.8 363.6 L 625.9 363.6 L 625.9 362.3 L 633.4 362.3 L 633.4 363.4 L 628.8 373.6 L 627.3 373.6 L 631.8 363.6 " fill="#000000"/>
<path class="legend" d="M 536.1 383.8 Q 536.1 381.8, 537.1 380.7 Q 538.1 379.5, 540.0 379.5 Q 541.9 379.5, 542.9 380.9 L 541.9 381.6 Q 541.5 381.2, 541.0 380.9 Q 540.6 380.7, 540.0 380.7 Q 538.9 380.7, 538.3 381.5 Q 537.6 382.3, 537.6 383.8 Q 537.6 385.3, 538.3 386.1 Q 538.9 386.8, 540.1 386.8 Q 540.8 386.8, 541.3 386.7 Q 541.7 386.5, 542.3 386.3 L 542.7 387.3 Q 541.5 388.0, 540.0 388.0 Q 538.1 388.0, 537.1 386.9 Q 536.1 385.7, 536.1 383.8 " fill="#000000"/>
<path class="legend" d="M 543.3 383.8 Q 543.3 381.7, 544.3 380.6 Q 545.3 379.5, 547.1 379.5 Q 548.9 379.5, 549.7 380.6 Q 550.5 381.7, 550.5 383.7 L 550.5 384.0 L 544.8 384.0 Q 544.8 385.4, 545.5 386.1 Q 546.1 386.8, 547.3 386.8 Q 547.9 386.8, 548.5 386.7 Q 549.1 386.5, 549.8 386.2 L 550.2 387.2 Q 549.4 387.6, 548.7 387.8 Q 547.9 388.0, 547.2 388.0 Q 545.3 388.0, 544.3 386.9 Q 543.3 385.8, 543.3 383.8 M 547.1 380.7 Q 546.2 380.7, 545.6 381.2 Q 545.0 381.8, 544.9 382.8 L 549.0 382.8 Q 548.9 381.7, 548.4 381.2 Q 548.0 380.7, 547.1 380.7 " fill="#000000"/>
<path class="legend" d="M 555.4 379.5 Q 556.8 379.5, 557.4 380.3 Q 558.1 381.0, 558.1 382.4 L 558.1 387.9 L 556.6 387.9 L 556.6 382.6 Q 556.6 381.6, 556.3 381.2 Q 555.9 380.7, 555.1 380.7 Q 554.3 380.7, 553.7 381.1 Q 553.1 381.4, 552.7 382.0 L 552.7 387.9 L 551.2 387.9 L 551.2 379.7 L 552.4 379.7 L 552.6 380.8 Q 553.7 379.5, 555.4 379.5 " fill="#000000"/>
<path class="legend" d="M 559.4 380.8 L 559.4 379.7 L 560.9 379.7 L 561.2 377.3 L 562.3 377.3 L 562.3 379.7 L 564.8 379.7 L 564.8 380.8 L 562.3 380.8 L 562.3 385.4 Q 562.3 386.8, 563.5 386.8 Q 564.0 386.8, 564.7 386.6 L 565.0 387.6 Q 564.1 388.0, 563.3 388.0 Q 562.2 388.0, 561.5 387.3 Q 560.8 386.7, 560.8 385.4 L 560.8 380.8 L 559.4 380.8 " fill="#000000"/>
<path class="legend" d="M 573.5 388.7 L 573.5 390.0 L 565.4 390.0 L 565.4 388.7 L 573.5 388.7 " fill="#000000"/>
<path class="legend" d="M 581.0 375.7 L 581.0 387.9 L 579.8 387.9 L 579.6 386.9 Q 578.7 388.0, 577.1 388.0 Q 575.4 388.0, 574.5 387.0 Q 573.5 385.9, 573.5 383.9 Q 573.5 381.8, 574.6 380.7 Q 575.8 379.5, 577.7 379.5 Q 578.6 379.5, 579.5 379.7 L 579.5 375.7 L 581.0 375.7 M 577.2 386.8 Q 578.1 386.8, 578.7 386.4 Q 579.3 385.9, 579.5 385.1 L 579.5 380.9 Q 578.7 380.7, 577.8 380.7 Q 576.5 380.7, 575.8 381.6 Q 575.1 382.4, 575.1 383.9 Q 575.1 385.3, 575.6 386.1 Q 576.2 386.8, 577.2 386.8 " fill="#000000"/>
<path class="legend" d="M 582.3 376.6 L 583.7 376.6 L 583.7 378.0 L 582.3 378.0 L 582.3 376.6 M 582.3 379.7 L 583.7 379.7 L 583.7 387.9 L 582.3 387.9 L 582.3 379.7 " fill="#000000"/>
<path class="legend" d="M 585.6 386.2 Q 586.3 386.5, 586.8 386.6 Q 587.3 386.8, 587.9 386.8 Q 588.6 386.8, 589.0 386.5 Q 589.4 386.2, 589.4 385.6 Q 589.4 385.2, 589.2 385.0 Q 589.0 384.8, 588.7 384.6 Q 588.5 384.5, 587.8 384.3 Q 587.7 384.3, 586.9 384.0 Q 586.2 383.7, 585.8 383.2 Q 585.4 382.7, 585.4 381.9 Q 585.4 380.9, 586.2 380.2 Q 586.9 379.5, 588.4 379.5 Q 589.0 379.5, 589.6 379.7 Q 590.1 379.8, 590.8 380.0 L 590.4 381.2 Q 589.8 381.0, 589.4 380.9 Q 588.9 380.8, 588.4 380.8 Q 587.7 380.8, 587.3 381.1 Q 586.9 381.4, 586.9 381.8 Q 586.9 382.3, 587.2 382.5 Q 587.5 382.7, 588.2 383.0 Q 588.4 383.0, 588.5 383.1 L 588.9 383.2 Q 589.6 383.4, 590.0 383.7 Q 590.4 383.9, 590.7 384.4 Q 590.9 384.8, 590.9 385.6 Q 590.9 386.7, 590.1 387.4 Q 589.3 388.0, 587.9 388.0 Q 587.1 388.0, 586.5 387.9 Q 585.8 387.7, 585.1 387.4 L 585.6 386.2 " fill="#000000"/>
<path class="legend" d="M 591.8 380.8 L 591.8 379.7 L 593.4 379.7 L 593.6 377.3 L 594.7 377.3 L 594.7 379.7 L 597.3 379.7 L 597.3 380.8 L 594.7 380.8 L 594.7 385.4 Q 594.7 386.8, 595.9 386.8 Q 596.4 386.8, 597.1 386.6 L 597.4 387.6 Q 596.5 388.0, 595.7 388.0 Q 594.6 388.0, 593.9 387.3 Q 593.2 386.7, 593.2 385.4 L 593.2 380.8 L 591.8 380.8 " fill="#000000"/>
<path class="legend" d="" fill="#000000"/>
<path class="legend" d="M 603.1 380.9 L 610.4 380.9 L 610.4 382.1 L 603.1 382.1 L 603.1 380.9 M 603.1 384.4 L 610.4 384.4 L 610.4 385.5 L 603.1 385.5 L 603.1 384.4 " fill="#000000"/>
<path class="legend" d="" fill="#000000"/>
<path class="legend" d="M 621.4 388.0 Q 619.3 388.0, 618.3 386.5 Q 617.2 384.9, 617.2 382.2 Q 617.2 379.5, 618.3 378.0 Q 619.3 376.4, 621.4 376.4 Q 623.5 376.4, 624.5 378.0 Q 625.5 379.5, 625.5 382.2 Q 625.5 384.9, 624.5 386.5 Q 623.5 388.0, 621.4 388.0 M 621.4 386.7 Q 622.6 386.7, 623.3 385.6 Q 623.9 384.4, 623.9 382.2 Q 623.9 380.0, 623.3 378.8 Q 622.6 377.7, 621.4 377.7 Q 620.2 377.7, 619.5 378.8 Q 618.8 380.0, 618.8 382.2 Q 618.8 384.4, 619.5 385.6 Q 620.2 386.7, 621.4 386.7 " fill="#000000"/>
<path class="legend" d="M 626.6 386.3 L 628.2 386.3 L 628.2 387.9 L 626.6 387.9 L 626.6 386.3 " fill="#000000"/>
<path class="legend" d="M 635.0 381.9 Q 636.0 382.3, 636.6 383.0 Q 637.2 383.7, 637.2 384.8 Q 637.2 385.7, 636.7 386.5 Q 636.2 387.2, 635.3 387.6 Q 634.4 388.0, 633.3 388.0 Q 631.4 388.0, 630.3 387.2 Q 629.2 386.3, 629.2 384.8 Q 629.2 383.9, 629.7 383.2 Q 630.2 382.5, 631.1 381.9 Q 630.4 381.5, 630.0 380.9 Q 629.6 380.3, 629.6 379.3 Q 629.6 378.0, 630.6 377.2 Q 631.5 376.4, 633.2 376.4 Q 634.8 376.4, 635.8 377.2 Q 636.8 378.0, 636.8 379.3 Q 636.8 380.2, 636.3 380.8 Q 635.9 381.4, 635.0 381.9 M 633.2 377.6 Q 632.3 377.6, 631.7 378.1 Q 631.2 378.5, 631.2 379.3 Q 631.2 379.9, 631.6 380.3 Q 631.9 380.7, 632.4 380.9 Q 632.9 381.2, 633.9 381.5 Q 634.6 381.0, 634.9 380.5 Q 635.2 380.0, 635.2 379.3 Q 635.2 378.5, 634.7 378.1 Q 634.1 377.6, 633.2 377.6 M 633.3 386.8 Q 634.3 386.8, 635.0 386.3 Q 635.6 385.7, 635.6 384.8 Q 635.6 384.2, 635.3 383.8 Q 634.9 383.4, 634.4 383.2 Q 633.9 382.9, 633.0 382.7 L 632.3 382.4 Q 631.5 382.9, 631.1 383.5 Q 630.8 384.0, 630.8 384.8 Q 630.8 385.7, 631.5 386.3 Q 632.1 386.8, 633.3 386.8 " fill="#000000"/>
<path class="legend" d="M 642.6 380.8 Q 643.6 380.8, 644.4 381.2 Q 645.2 381.7, 645.6 382.5 Q 646.1 383.2, 646.1 384.2 Q 646.1 385.3, 645.6 386.2 Q 645.1 387.1, 644.2 387.5 Q 643.4 388.0, 642.3 388.0 Q 640.2 388.0, 639.2 386.7 Q 638.2 385.3, 638.2 382.6 Q 638.2 379.6, 639.5 378.0 Q 640.7 376.4, 643.1 376.4 Q 643.8 376.4, 644.4 376.6 Q 645.0 376.8, 645.6 377.1 L 645.0 378.2 Q 644.2 377.7, 643.1 377.7 Q 641.5 377.7, 640.7 378.8 Q 639.9 379.8, 639.8 381.9 Q 640.4 381.4, 641.1 381.1 Q 641.9 380.8, 642.6 380.8 M 642.3 386.7 Q 642.9 386.7, 643.4 386.4 Q 643.9 386.1, 644.2 385.5 Q 644.5 384.9, 644.5 384.3 Q 644.5 383.2, 643.9 382.7 Q 643.3 382.1, 642.3 382.1 Q 641.7 382.1, 641.0 382.4 Q 640.3 382.7, 639.8 383.1 Q 639.9 385.0, 640.5 385.9 Q 641.1 386.7, 642.3 386.7 " fill="#000000"/>
<path class="legend" d="M 651.1 388.0 Q 649.0 388.0, 648.0 386.5 Q 646.9 384.9, 646.9 382.2 Q 646.9 379.5, 648.0 378.0 Q 649.0 376.4, 651.1 376.4 Q 653.2 376.4, 654.2 378.0 Q 655.2 379.5, 655.2 382.2 Q 655.2 384.9, 654.2 386.5 Q 653.2 388.0, 651.1 388.0 M 651.1 386.7 Q 652.3 386.7, 653.0 385.6 Q 653.6 384.4, 653.6 382.2 Q 653.6 380.0, 653.0 378.8 Q 652.3 377.7, 651.1 377.7 Q 649.9 377.7, 649.2 378.8 Q 648.5 380.0, 648.5 382.2 Q 648.5 384.4, 649.2 385.6 Q 649.9 386.7, 651.1 386.7 " fill="#000000"/>
<path class="legend" d="M 656.3 378.7 Q 656.7 377.6, 657.7 377.0 Q 658.7 376.4, 660.1 376.4 Q 661.8 376.4, 662.7 377.4 Q 663.7 378.3, 663.7 379.9 Q 663.7 381.6, 662.5 383.2 Q 661.2 384.8, 658.7 386.6 L 663.9 386.6 L 663.9 387.9 L 656.3 387.9 L 656.3 386.8 Q 658.4 385.3, 659.6 384.2 Q 660.9 383.1, 661.5 382.1 Q 662.1 381.1, 662.1 380.0 Q 662.1 378.9, 661.6 378.3 Q 661.0 377.7, 660.1 377.7 Q 659.2 377.7, 658.6 378.1 Q 657.9 378.4, 657.5 379.3 L 656.3 378.7 " fill="#000000"/>
<path class="bond-0 atom-0 atom-1" d="M 853.3,301.1 L 905.2,281.6" style="fill:none;fill-rule:evenodd;stroke:#000000;stroke-width:2.0px;stroke-linecap:butt;stroke-linejoin:miter;stroke-opacity:1"/>
<path class="bond-1 atom-1 atom-2" d="M 905.2,281.6 L 914.3,226.9" style="fill:none;fill-rule:evenodd;stroke:#000000;stroke-width:2.0px;stroke-linecap:butt;stroke-linejoin:miter;stroke-opacity:1"/>
<path class="bond-2 atom-2 atom-3" d="M 914.3,226.9 L 871.4,191.7" style="fill:none;fill-rule:evenodd;stroke:#000000;stroke-width:2.0px;stroke-linecap:butt;stroke-linejoin:miter;stroke-opacity:1"/>
<path class="bond-2 atom-2 atom-3" d="M 914.9,213.0 L 884.9,188.4" style="fill:none;fill-rule:evenodd;stroke:#000000;stroke-width:2.0px;stroke-linecap:butt;stroke-linejoin:miter;stroke-opacity:1"/>
<path class="bond-3 atom-3 atom-4" d="M 871.4,191.7 L 875.1,169.4" style="fill:none;fill-rule:evenodd;stroke:#000000;stroke-width:2.0px;stroke-linecap:butt;stroke-linejoin:miter;stroke-opacity:1"/>
<path class="bond-3 atom-3 atom-4" d="M 875.1,169.4 L 878.8,147.0" style="fill:none;fill-rule:evenodd;stroke:#FF0000;stroke-width:2.0px;stroke-linecap:butt;stroke-linejoin:miter;stroke-opacity:1"/>
<path class="bond-4 atom-4 atom-5" d="M 889.5,133.6 L 910.9,125.5" style="fill:none;fill-rule:evenodd;stroke:#FF0000;stroke-width:2.0px;stroke-linecap:butt;stroke-linejoin:miter;stroke-opacity:1"/>
<path class="bond-4 atom-4 atom-5" d="M 910.9,125.5 L 932.3,117.5" style="fill:none;fill-rule:evenodd;stroke:#000000;stroke-width:2.0px;stroke-linecap:butt;stroke-linejoin:miter;stroke-opacity:1"/>
<path class="bond-5 atom-5 atom-6" d="M 932.3,117.5 L 975.2,152.6" style="fill:none;fill-rule:evenodd;stroke:#000000;stroke-width:2.0px;stroke-linecap:butt;stroke-linejoin:miter;stroke-opacity:1"/>
<path class="bond-6 atom-6 atom-7" d="M 975.2,152.6 L 966.2,207.4" style="fill:none;fill-rule:evenodd;stroke:#000000;stroke-width:2.0px;stroke-linecap:butt;stroke-linejoin:miter;stroke-opacity:1"/>
<path class="bond-6 atom-6 atom-7" d="M 984.8,162.7 L 978.5,201.0" style="fill:none;fill-rule:evenodd;stroke:#000000;stroke-width:2.0px;stroke-linecap:butt;stroke-linejoin:miter;stroke-opacity:1"/>
<path class="bond-7 atom-7 atom-8" d="M 966.2,207.4 L 1009.0,242.5" style="fill:none;fill-rule:evenodd;stroke:#000000;stroke-width:2.0px;stroke-linecap:butt;stroke-linejoin:miter;stroke-opacity:1"/>
<path class="bond-8 atom-8 atom-9" d="M 1009.0,242.5 L 1060.9,223.0" style="fill:none;fill-rule:evenodd;stroke:#000000;stroke-width:2.0px;stroke-linecap:butt;stroke-linejoin:miter;stroke-opacity:1"/>
<path class="bond-8 atom-8 atom-9" d="M 1012.9,229.2 L 1049.2,215.6" style="fill:none;fill-rule:evenodd;stroke:#000000;stroke-width:2.0px;stroke-linecap:butt;stroke-linejoin:miter;stroke-opacity:1"/>
<path class="bond-9 atom-9 atom-10" d="M 1060.9,223.0 L 1095.4,251.3" style="fill:none;fill-rule:evenodd;stroke:#000000;stroke-width:2.0px;stroke-linecap:butt;stroke-linejoin:miter;stroke-opacity:1"/>
<path class="bond-10 atom-10 atom-11" d="M 1095.5,268.3 L 1068.6,301.1" style="fill:none;fill-rule:evenodd;stroke:#000000;stroke-width:2.0px;stroke-linecap:butt;stroke-linejoin:miter;stroke-opacity:1"/>
<path class="bond-11 atom-10 atom-12" d="M 1111.8,248.5 L 1139.0,215.3" style="fill:none;fill-rule:evenodd;stroke:#000000;stroke-width:2.0px;stroke-linecap:butt;stroke-linejoin:miter;stroke-opacity:1"/>
<path class="bond-12 atom-10 atom-13" d="M 1112.2,265.1 L 1146.7,293.4" style="fill:none;fill-rule:evenodd;stroke:#000000;stroke-width:2.0px;stroke-linecap:butt;stroke-linejoin:miter;stroke-opacity:1"/>
<path class="bond-13 atom-9 atom-14" d="M 1060.9,223.0 L 1064.7,200.5" style="fill:none;fill-rule:evenodd;stroke:#000000;stroke-width:2.0px;stroke-linecap:butt;stroke-linejoin:miter;stroke-opacity:1"/>
<path class="bond-13 atom-9 atom-14" d="M 1064.7,200.5 L 1068.4,178.0" style="fill:none;fill-rule:evenodd;stroke:#0000FF;stroke-width:2.0px;stroke-linecap:butt;stroke-linejoin:miter;stroke-opacity:1"/>
<path class="bond-14 atom-14 atom-15" d="M 1062.2,161.9 L 1044.6,147.5" style="fill:none;fill-rule:evenodd;stroke:#0000FF;stroke-width:2.0px;stroke-linecap:butt;stroke-linejoin:miter;stroke-opacity:1"/>
<path class="bond-14 atom-14 atom-15" d="M 1044.6,147.5 L 1027.1,133.1" style="fill:none;fill-rule:evenodd;stroke:#000000;stroke-width:2.0px;stroke-linecap:butt;stroke-linejoin:miter;stroke-opacity:1"/>
<path class="bond-14 atom-14 atom-15" d="M 1049.9,166.2 L 1037.6,156.1" style="fill:none;fill-rule:evenodd;stroke:#0000FF;stroke-width:2.0px;stroke-linecap:butt;stroke-linejoin:miter;stroke-opacity:1"/>
<path class="bond-14 atom-14 atom-15" d="M 1037.6,156.1 L 1025.3,146.0" style="fill:none;fill-rule:evenodd;stroke:#000000;stroke-width:2.0px;stroke-linecap:butt;stroke-linejoin:miter;stroke-opacity:1"/>
<path class="bond-15 atom-15 atom-16" d="M 1027.1,133.1 L 1030.8,110.8" style="fill:none;fill-rule:evenodd;stroke:#000000;stroke-width:2.0px;stroke-linecap:butt;stroke-linejoin:miter;stroke-opacity:1"/>
<path class="bond-15 atom-15 atom-16" d="M 1030.8,110.8 L 1034.5,88.4" style="fill:none;fill-rule:evenodd;stroke:#FF0000;stroke-width:2.0px;stroke-linecap:butt;stroke-linejoin:miter;stroke-opacity:1"/>
<path class="bond-16 atom-16 atom-17" d="M 1045.2,75.0 L 1066.6,66.9" style="fill:none;fill-rule:evenodd;stroke:#FF0000;stroke-width:2.0px;stroke-linecap:butt;stroke-linejoin:miter;stroke-opacity:1"/>
<path class="bond-16 atom-16 atom-17" d="M 1066.6,66.9 L 1088.0,58.9" style="fill:none;fill-rule:evenodd;stroke:#000000;stroke-width:2.0px;stroke-linecap:butt;stroke-linejoin:miter;stroke-opacity:1"/>
<path class="bond-17 atom-7 atom-2" d="M 966.2,207.4 L 914.3,226.9" style="fill:none;fill-rule:evenodd;stroke:#000000;stroke-width:2.0px;stroke-linecap:butt;stroke-linejoin:miter;stroke-opacity:1"/>
<path class="bond-18 atom-15 atom-6" d="M 1027.1,133.1 L 975.2,152.6" style="fill:none;fill-rule:evenodd;stroke:#000000;stroke-width:2.0px;stroke-linecap:butt;stroke-linejoin:miter;stroke-opacity:1"/>
<path class="atom-4" d="M 873.2 137.0 Q 873.2 133.3, 875.1 131.2 Q 876.9 129.1, 880.4 129.1 Q 883.9 129.1, 885.8 131.2 Q 887.6 133.3, 887.6 137.0 Q 887.6 140.9, 885.8 143.0 Q 883.9 145.2, 880.4 145.2 Q 877.0 145.2, 875.1 143.0 Q 873.2 140.9, 873.2 137.0 M 880.4 143.4 Q 882.8 143.4, 884.1 141.8 Q 885.4 140.2, 885.4 137.0 Q 885.4 134.0, 884.1 132.4 Q 882.8 130.8, 880.4 130.8 Q 878.0 130.8, 876.7 132.4 Q 875.4 133.9, 875.4 137.0 Q 875.4 140.2, 876.7 141.8 Q 878.0 143.4, 880.4 143.4 " fill="#FF0000"/>
<path class="atom-10" d="M 1097.8 263.6 Q 1098.0 263.7, 1098.7 264.0 Q 1099.5 264.3, 1100.3 264.5 Q 1101.1 264.7, 1101.9 264.7 Q 1103.4 264.7, 1104.2 264.0 Q 1105.1 263.2, 1105.1 262.0 Q 1105.1 261.1, 1104.7 260.6 Q 1104.2 260.0, 1103.6 259.7 Q 1102.9 259.5, 1101.8 259.1 Q 1100.4 258.7, 1099.6 258.3 Q 1098.7 257.9, 1098.1 257.1 Q 1097.6 256.2, 1097.6 254.8 Q 1097.6 252.8, 1098.9 251.6 Q 1100.2 250.4, 1102.9 250.4 Q 1104.7 250.4, 1106.8 251.2 L 1106.3 253.0 Q 1104.4 252.2, 1103.0 252.2 Q 1101.4 252.2, 1100.6 252.8 Q 1099.8 253.4, 1099.8 254.5 Q 1099.8 255.4, 1100.2 255.9 Q 1100.6 256.4, 1101.3 256.7 Q 1101.9 257.0, 1103.0 257.3 Q 1104.4 257.7, 1105.2 258.2 Q 1106.1 258.6, 1106.7 259.5 Q 1107.3 260.4, 1107.3 262.0 Q 1107.3 264.1, 1105.8 265.3 Q 1104.4 266.5, 1102.0 266.5 Q 1100.6 266.5, 1099.5 266.1 Q 1098.5 265.9, 1097.2 265.4 L 1097.8 263.6 " fill="#000000"/>
<path class="atom-10" d="M 1108.3 250.3 L 1110.4 250.3 L 1110.4 252.3 L 1108.3 252.3 L 1108.3 250.3 M 1108.3 254.6 L 1110.4 254.6 L 1110.4 266.0 L 1108.3 266.0 L 1108.3 254.6 " fill="#000000"/>
<path class="atom-14" d="M 1066.5 160.4 L 1071.6 168.8 Q 1072.2 169.6, 1073.0 171.1 Q 1073.8 172.5, 1073.8 172.6 L 1073.8 160.4 L 1075.9 160.4 L 1075.9 176.1 L 1073.8 176.1 L 1068.3 167.0 Q 1067.6 166.0, 1066.9 164.8 Q 1066.3 163.5, 1066.1 163.2 L 1066.1 176.1 L 1064.0 176.1 L 1064.0 160.4 L 1066.5 160.4 " fill="#0000FF"/>
<path class="atom-16" d="M 1028.9 78.4 Q 1028.9 74.7, 1030.8 72.6 Q 1032.7 70.4, 1036.1 70.4 Q 1039.6 70.4, 1041.5 72.6 Q 1043.3 74.7, 1043.3 78.4 Q 1043.3 82.3, 1041.5 84.4 Q 1039.6 86.6, 1036.1 86.6 Q 1032.7 86.6, 1030.8 84.4 Q 1028.9 82.3, 1028.9 78.4 M 1036.1 84.8 Q 1038.5 84.8, 1039.8 83.2 Q 1041.1 81.6, 1041.1 78.4 Q 1041.1 75.4, 1039.8 73.8 Q 1038.5 72.2, 1036.1 72.2 Q 1033.7 72.2, 1032.4 73.8 Q 1031.1 75.3, 1031.1 78.4 Q 1031.1 81.6, 1032.4 83.2 Q 1033.7 84.8, 1036.1 84.8 " fill="#FF0000"/>
<path class="legend" d="M 967.5 365.4 L 967.7 366.5 Q 968.5 365.3, 969.9 365.3 Q 970.4 365.3, 971.0 365.4 L 970.8 366.8 Q 970.1 366.6, 969.7 366.6 Q 969.0 366.6, 968.6 366.9 Q 968.1 367.1, 967.8 367.8 L 967.8 373.6 L 966.3 373.6 L 966.3 365.4 L 967.5 365.4 " fill="#000000"/>
<path class="legend" d="M 971.2 369.5 Q 971.2 367.5, 972.2 366.4 Q 973.2 365.3, 975.1 365.3 Q 976.9 365.3, 977.7 366.4 Q 978.5 367.4, 978.5 369.5 L 978.5 369.7 L 972.8 369.7 Q 972.8 371.1, 973.4 371.8 Q 974.0 372.6, 975.2 372.6 Q 975.9 372.6, 976.4 372.4 Q 977.0 372.3, 977.8 372.0 L 978.2 373.0 Q 977.4 373.4, 976.6 373.6 Q 975.9 373.8, 975.1 373.8 Q 973.3 373.8, 972.3 372.6 Q 971.2 371.5, 971.2 369.5 M 975.1 366.4 Q 974.1 366.4, 973.6 367.0 Q 973.0 367.5, 972.8 368.6 L 976.9 368.6 Q 976.8 367.5, 976.4 367.0 Q 975.9 366.4, 975.1 366.4 " fill="#000000"/>
<path class="legend" d="M 979.1 371.4 Q 979.1 370.1, 980.2 369.4 Q 981.2 368.7, 983.2 368.7 L 984.4 368.7 L 984.4 368.3 Q 984.4 367.3, 984.0 366.9 Q 983.5 366.4, 982.5 366.4 Q 981.9 366.4, 981.3 366.6 Q 980.8 366.7, 980.0 367.0 L 979.6 366.0 Q 981.1 365.3, 982.5 365.3 Q 984.3 365.3, 985.1 366.0 Q 985.9 366.8, 985.9 368.4 L 985.9 373.6 L 984.7 373.6 Q 984.7 373.6, 984.7 373.3 Q 984.6 373.1, 984.5 372.7 Q 983.4 373.8, 981.8 373.8 Q 980.6 373.8, 979.9 373.2 Q 979.1 372.5, 979.1 371.4 M 980.6 371.4 Q 980.6 372.0, 981.0 372.3 Q 981.4 372.6, 982.1 372.6 Q 982.8 372.6, 983.4 372.4 Q 984.0 372.0, 984.4 371.5 L 984.4 369.8 L 983.3 369.8 Q 982.0 369.8, 981.3 370.2 Q 980.6 370.6, 980.6 371.4 " fill="#000000"/>
<path class="legend" d="M 987.1 369.5 Q 987.1 367.5, 988.1 366.4 Q 989.1 365.3, 991.1 365.3 Q 992.9 365.3, 993.9 366.6 L 992.9 367.4 Q 992.5 366.9, 992.1 366.7 Q 991.6 366.4, 991.1 366.4 Q 989.9 366.4, 989.3 367.2 Q 988.7 368.0, 988.7 369.5 Q 988.7 371.0, 989.3 371.8 Q 990.0 372.6, 991.2 372.6 Q 991.8 372.6, 992.3 372.4 Q 992.8 372.3, 993.3 372.0 L 993.7 373.0 Q 992.6 373.7, 991.0 373.7 Q 989.1 373.7, 988.1 372.6 Q 987.1 371.5, 987.1 369.5 " fill="#000000"/>
<path class="legend" d="M 994.3 366.6 L 994.3 365.4 L 995.9 365.4 L 996.1 363.0 L 997.2 363.0 L 997.2 365.4 L 999.7 365.4 L 999.7 366.6 L 997.2 366.6 L 997.2 371.1 Q 997.2 372.5, 998.4 372.5 Q 998.9 372.5, 999.6 372.3 L 999.9 373.4 Q 999.0 373.7, 998.2 373.7 Q 997.1 373.7, 996.4 373.1 Q 995.7 372.4, 995.7 371.2 L 995.7 366.6 L 994.3 366.6 " fill="#000000"/>
<path class="legend" d="M 1008.4 374.4 L 1008.4 375.7 L 1000.3 375.7 L 1000.3 374.4 L 1008.4 374.4 " fill="#000000"/>
<path class="legend" d="M 1015.8 369.7 L 1017.2 369.7 L 1017.2 371.0 L 1015.8 371.0 L 1015.8 373.6 L 1014.3 373.6 L 1014.3 371.0 L 1008.4 371.0 L 1008.4 370.0 L 1013.4 362.3 L 1015.8 362.3 L 1015.8 369.7 M 1010.3 369.7 L 1014.3 369.7 L 1014.3 363.3 L 1010.3 369.7 " fill="#000000"/>
<path class="legend" d="M 1018.6 372.4 L 1021.0 372.4 L 1021.0 363.9 L 1018.3 364.7 L 1017.9 363.8 L 1021.4 362.2 L 1022.5 362.4 L 1022.5 372.4 L 1024.8 372.4 L 1024.8 373.6 L 1018.6 373.6 L 1018.6 372.4 " fill="#000000"/>
<path class="legend" d="M 1029.6 373.8 Q 1027.5 373.8, 1026.5 372.2 Q 1025.4 370.7, 1025.4 368.0 Q 1025.4 365.2, 1026.5 363.7 Q 1027.5 362.2, 1029.6 362.2 Q 1031.7 362.2, 1032.7 363.7 Q 1033.7 365.2, 1033.7 368.0 Q 1033.7 370.7, 1032.7 372.2 Q 1031.7 373.8, 1029.6 373.8 M 1029.6 372.5 Q 1030.8 372.5, 1031.5 371.3 Q 1032.1 370.2, 1032.1 368.0 Q 1032.1 365.7, 1031.5 364.6 Q 1030.8 363.5, 1029.6 363.5 Q 1028.4 363.5, 1027.7 364.6 Q 1027.0 365.7, 1027.0 368.0 Q 1027.0 370.2, 1027.7 371.3 Q 1028.4 372.5, 1029.6 372.5 " fill="#000000"/>
<path class="legend" d="M 937.4 383.8 Q 937.4 381.8, 938.4 380.7 Q 939.4 379.5, 941.4 379.5 Q 943.2 379.5, 944.2 380.9 L 943.2 381.6 Q 942.8 381.2, 942.4 380.9 Q 941.9 380.7, 941.4 380.7 Q 940.2 380.7, 939.6 381.5 Q 939.0 382.3, 939.0 383.8 Q 939.0 385.3, 939.6 386.1 Q 940.3 386.8, 941.5 386.8 Q 942.1 386.8, 942.6 386.7 Q 943.1 386.5, 943.6 386.3 L 944.1 387.3 Q 942.9 388.0, 941.4 388.0 Q 939.4 388.0, 938.4 386.9 Q 937.4 385.7, 937.4 383.8 " fill="#000000"/>
<path class="legend" d="M 944.6 383.8 Q 944.6 381.7, 945.6 380.6 Q 946.6 379.5, 948.5 379.5 Q 950.3 379.5, 951.1 380.6 Q 951.9 381.7, 951.9 383.7 L 951.9 384.0 L 946.1 384.0 Q 946.2 385.4, 946.8 386.1 Q 947.4 386.8, 948.6 386.8 Q 949.2 386.8, 949.8 386.7 Q 950.4 386.5, 951.1 386.2 L 951.6 387.2 Q 950.7 387.6, 950.0 387.8 Q 949.3 388.0, 948.5 388.0 Q 946.7 388.0, 945.6 386.9 Q 944.6 385.8, 944.6 383.8 M 948.5 380.7 Q 947.5 380.7, 946.9 381.2 Q 946.4 381.8, 946.2 382.8 L 950.3 382.8 Q 950.2 381.7, 949.7 381.2 Q 949.3 380.7, 948.5 380.7 " fill="#000000"/>
<path class="legend" d="M 956.8 379.5 Q 958.1 379.5, 958.8 380.3 Q 959.5 381.0, 959.5 382.4 L 959.5 387.9 L 958.0 387.9 L 958.0 382.6 Q 958.0 381.6, 957.6 381.2 Q 957.2 380.7, 956.4 380.7 Q 955.6 380.7, 955.0 381.1 Q 954.4 381.4, 954.0 382.0 L 954.0 387.9 L 952.5 387.9 L 952.5 379.7 L 953.7 379.7 L 953.9 380.8 Q 955.0 379.5, 956.8 379.5 " fill="#000000"/>
<path class="legend" d="M 960.7 380.8 L 960.7 379.7 L 962.3 379.7 L 962.5 377.3 L 963.7 377.3 L 963.7 379.7 L 966.2 379.7 L 966.2 380.8 L 963.7 380.8 L 963.7 385.4 Q 963.7 386.8, 964.9 386.8 Q 965.3 386.8, 966.0 386.6 L 966.3 387.6 Q 965.4 388.0, 964.6 388.0 Q 963.5 388.0, 962.8 387.3 Q 962.2 386.7, 962.2 385.4 L 962.2 380.8 L 960.7 380.8 " fill="#000000"/>
<path class="legend" d="M 974.9 388.7 L 974.9 390.0 L 966.7 390.0 L 966.7 388.7 L 974.9 388.7 " fill="#000000"/>
<path class="legend" d="M 982.3 375.7 L 982.3 387.9 L 981.1 387.9 L 980.9 386.9 Q 980.0 388.0, 978.5 388.0 Q 976.8 388.0, 975.8 387.0 Q 974.9 385.9, 974.9 383.9 Q 974.9 381.8, 976.0 380.7 Q 977.1 379.5, 979.1 379.5 Q 979.9 379.5, 980.8 379.7 L 980.8 375.7 L 982.3 375.7 M 978.6 386.8 Q 979.4 386.8, 980.0 386.4 Q 980.6 385.9, 980.8 385.1 L 980.8 380.9 Q 980.0 380.7, 979.1 380.7 Q 977.8 380.7, 977.1 381.6 Q 976.4 382.4, 976.4 383.9 Q 976.4 385.3, 977.0 386.1 Q 977.5 386.8, 978.6 386.8 " fill="#000000"/>
<path class="legend" d="M 983.6 376.6 L 985.1 376.6 L 985.1 378.0 L 983.6 378.0 L 983.6 376.6 M 983.6 379.7 L 985.1 379.7 L 985.1 387.9 L 983.6 387.9 L 983.6 379.7 " fill="#000000"/>
<path class="legend" d="M 986.9 386.2 Q 987.6 386.5, 988.2 386.6 Q 988.7 386.8, 989.2 386.8 Q 990.0 386.8, 990.4 386.5 Q 990.8 386.2, 990.8 385.6 Q 990.8 385.2, 990.6 385.0 Q 990.3 384.8, 990.1 384.6 Q 989.8 384.5, 989.1 384.3 Q 989.0 384.3, 988.3 384.0 Q 987.5 383.7, 987.1 383.2 Q 986.7 382.7, 986.7 381.9 Q 986.7 380.9, 987.5 380.2 Q 988.3 379.5, 989.8 379.5 Q 990.4 379.5, 990.9 379.7 Q 991.5 379.8, 992.1 380.0 L 991.7 381.2 Q 991.2 381.0, 990.7 380.9 Q 990.3 380.8, 989.8 380.8 Q 989.0 380.8, 988.6 381.1 Q 988.2 381.4, 988.2 381.8 Q 988.2 382.3, 988.5 382.5 Q 988.8 382.7, 989.5 383.0 Q 989.7 383.0, 989.8 383.1 L 990.2 383.2 Q 990.9 383.4, 991.3 383.7 Q 991.7 383.9, 992.0 384.4 Q 992.3 384.8, 992.3 385.6 Q 992.3 386.7, 991.4 387.4 Q 990.6 388.0, 989.3 388.0 Q 988.5 388.0, 987.8 387.9 Q 987.1 387.7, 986.5 387.4 L 986.9 386.2 " fill="#000000"/>
<path class="legend" d="M 993.1 380.8 L 993.1 379.7 L 994.7 379.7 L 995.0 377.3 L 996.1 377.3 L 996.1 379.7 L 998.6 379.7 L 998.6 380.8 L 996.1 380.8 L 996.1 385.4 Q 996.1 386.8, 997.3 386.8 Q 997.8 386.8, 998.5 386.6 L 998.7 387.6 Q 997.8 388.0, 997.0 388.0 Q 995.9 388.0, 995.2 387.3 Q 994.6 386.7, 994.6 385.4 L 994.6 380.8 L 993.1 380.8 " fill="#000000"/>
<path class="legend" d="" fill="#000000"/>
<path class="legend" d="M 1004.4 380.9 L 1011.8 380.9 L 1011.8 382.1 L 1004.4 382.1 L 1004.4 380.9 M 1004.4 384.4 L 1011.8 384.4 L 1011.8 385.5 L 1004.4 385.5 L 1004.4 384.4 " fill="#000000"/>
<path class="legend" d="" fill="#000000"/>
<path class="legend" d="M 1019.2 386.6 L 1021.7 386.6 L 1021.7 378.1 L 1018.9 379.0 L 1018.6 378.0 L 1022.0 376.5 L 1023.2 376.7 L 1023.2 386.6 L 1025.4 386.6 L 1025.4 387.9 L 1019.2 387.9 L 1019.2 386.6 " fill="#000000"/>
<path class="legend" d="M 1026.1 386.3 L 1027.7 386.3 L 1027.7 387.9 L 1026.1 387.9 L 1026.1 386.3 " fill="#000000"/>
<path class="legend" d="M 1029.3 386.6 L 1031.8 386.6 L 1031.8 378.1 L 1029.1 379.0 L 1028.7 378.0 L 1032.2 376.5 L 1033.3 376.7 L 1033.3 386.6 L 1035.5 386.6 L 1035.5 387.9 L 1029.3 387.9 L 1029.3 386.6 " fill="#000000"/>
<path class="legend" d="M 1040.4 388.0 Q 1038.3 388.0, 1037.2 386.5 Q 1036.2 384.9, 1036.2 382.2 Q 1036.2 379.5, 1037.2 378.0 Q 1038.3 376.4, 1040.4 376.4 Q 1042.5 376.4, 1043.5 378.0 Q 1044.5 379.5, 1044.5 382.2 Q 1044.5 384.9, 1043.5 386.5 Q 1042.4 388.0, 1040.4 388.0 M 1040.4 386.7 Q 1041.6 386.7, 1042.2 385.6 Q 1042.9 384.4, 1042.9 382.2 Q 1042.9 380.0, 1042.2 378.8 Q 1041.6 377.7, 1040.4 377.7 Q 1039.1 377.7, 1038.5 378.8 Q 1037.8 380.0, 1037.8 382.2 Q 1037.8 384.4, 1038.5 385.6 Q 1039.1 386.7, 1040.4 386.7 " fill="#000000"/>
<path class="legend" d="M 1050.0 380.8 Q 1051.0 380.8, 1051.7 381.2 Q 1052.5 381.7, 1053.0 382.5 Q 1053.4 383.2, 1053.4 384.2 Q 1053.4 385.3, 1052.9 386.2 Q 1052.4 387.1, 1051.6 387.5 Q 1050.7 388.0, 1049.6 388.0 Q 1047.6 388.0, 1046.5 386.7 Q 1045.5 385.3, 1045.5 382.6 Q 1045.5 379.6, 1046.8 378.0 Q 1048.1 376.4, 1050.5 376.4 Q 1051.2 376.4, 1051.8 376.6 Q 1052.4 376.8, 1052.9 377.1 L 1052.3 378.2 Q 1051.5 377.7, 1050.5 377.7 Q 1048.9 377.7, 1048.1 378.8 Q 1047.3 379.8, 1047.2 381.9 Q 1047.7 381.4, 1048.5 381.1 Q 1049.2 380.8, 1050.0 380.8 M 1049.6 386.7 Q 1050.2 386.7, 1050.7 386.4 Q 1051.2 386.1, 1051.5 385.5 Q 1051.8 384.9, 1051.8 384.3 Q 1051.8 383.2, 1051.2 382.7 Q 1050.7 382.1, 1049.7 382.1 Q 1049.0 382.1, 1048.3 382.4 Q 1047.6 382.7, 1047.2 383.1 Q 1047.2 385.0, 1047.8 385.9 Q 1048.4 386.7, 1049.6 386.7 " fill="#000000"/>
<path class="legend" d="M 1058.4 388.0 Q 1056.3 388.0, 1055.3 386.5 Q 1054.3 384.9, 1054.3 382.2 Q 1054.3 379.5, 1055.3 378.0 Q 1056.3 376.4, 1058.4 376.4 Q 1060.5 376.4, 1061.5 378.0 Q 1062.6 379.5, 1062.6 382.2 Q 1062.6 384.9, 1061.5 386.5 Q 1060.5 388.0, 1058.4 388.0 M 1058.4 386.7 Q 1059.7 386.7, 1060.3 385.6 Q 1061.0 384.4, 1061.0 382.2 Q 1061.0 380.0, 1060.3 378.8 Q 1059.7 377.7, 1058.4 377.7 Q 1057.2 377.7, 1056.5 378.8 Q 1055.9 380.0, 1055.9 382.2 Q 1055.9 384.4, 1056.5 385.6 Q 1057.2 386.7, 1058.4 386.7 " fill="#000000"/>
</svg>