<svg xmlns="http://www.w3.org/2000/svg" xmlns:rdkit="http://www.rdkit.org/xml" xmlns:xlink="http://www.w3.org/1999/xlink" version="1.1" baseProfile="full" xml:space="preserve" width="2000px" height="400px" viewBox="0 0 2000 400">
<!-- END OF HEADER -->
<rect style="opacity:1.0;fill:#FFFFFF;stroke:none" width="2000.0" height="400.0" x="0.0" y="0.0"> </rect>
<path class="bond-0 atom-0 atom-1" d="M 37.8,220.3 L 65.9,210.5" style="fill:none;fill-rule:evenodd;stroke:#00CC00;stroke-width:2.0px;stroke-linecap:butt;stroke-linejoin:miter;stroke-opacity:1"/>
<path class="bond-0 atom-0 atom-1" d="M 65.9,210.5 L 93.9,200.7" style="fill:none;fill-rule:evenodd;stroke:#000000;stroke-width:2.0px;stroke-linecap:butt;stroke-linejoin:miter;stroke-opacity:1"/>
<path class="bond-1 atom-1 atom-2" d="M 93.9,200.7 L 105.7,139.0" style="fill:none;fill-rule:evenodd;stroke:#000000;stroke-width:2.0px;stroke-linecap:butt;stroke-linejoin:miter;stroke-opacity:1"/>
<path class="bond-1 atom-1 atom-2" d="M 108.0,193.8 L 116.2,150.6" style="fill:none;fill-rule:evenodd;stroke:#000000;stroke-width:2.0px;stroke-linecap:butt;stroke-linejoin:miter;stroke-opacity:1"/>
<path class="bond-2 atom-2 atom-3" d="M 105.7,139.0 L 165.0,118.3" style="fill:none;fill-rule:evenodd;stroke:#000000;stroke-width:2.0px;stroke-linecap:butt;stroke-linejoin:miter;stroke-opacity:1"/>
<path class="bond-3 atom-3 atom-4" d="M 165.0,118.3 L 212.6,159.3" style="fill:none;fill-rule:evenodd;stroke:#000000;stroke-width:2.0px;stroke-linecap:butt;stroke-linejoin:miter;stroke-opacity:1"/>
<path class="bond-3 atom-3 atom-4" d="M 163.9,133.9 L 197.3,162.6" style="fill:none;fill-rule:evenodd;stroke:#000000;stroke-width:2.0px;stroke-linecap:butt;stroke-linejoin:miter;stroke-opacity:1"/>
<path class="bond-4 atom-4 atom-5" d="M 212.6,159.3 L 271.9,138.6" style="fill:none;fill-rule:evenodd;stroke:#000000;stroke-width:2.0px;stroke-linecap:butt;stroke-linejoin:miter;stroke-opacity:1"/>
<path class="bond-5 atom-5 atom-6" d="M 271.9,138.6 L 319.5,179.6" style="fill:none;fill-rule:evenodd;stroke:#000000;stroke-width:2.0px;stroke-linecap:butt;stroke-linejoin:miter;stroke-opacity:1"/>
<path class="bond-5 atom-5 atom-6" d="M 270.9,154.2 L 304.2,182.9" style="fill:none;fill-rule:evenodd;stroke:#000000;stroke-width:2.0px;stroke-linecap:butt;stroke-linejoin:miter;stroke-opacity:1"/>
<path class="bond-6 atom-6 atom-7" d="M 319.5,179.6 L 381.3,191.3" style="fill:none;fill-rule:evenodd;stroke:#000000;stroke-width:2.0px;stroke-linecap:butt;stroke-linejoin:miter;stroke-opacity:1"/>
<path class="bond-7 atom-7 atom-8" d="M 381.3,191.3 L 340.3,238.9" style="fill:none;fill-rule:evenodd;stroke:#000000;stroke-width:2.0px;stroke-linecap:butt;stroke-linejoin:miter;stroke-opacity:1"/>
<path class="bond-8 atom-4 atom-9" d="M 212.6,159.3 L 200.9,221.0" style="fill:none;fill-rule:evenodd;stroke:#000000;stroke-width:2.0px;stroke-linecap:butt;stroke-linejoin:miter;stroke-opacity:1"/>
<path class="bond-9 atom-9 atom-10" d="M 200.9,221.0 L 141.5,241.7" style="fill:none;fill-rule:evenodd;stroke:#000000;stroke-width:2.0px;stroke-linecap:butt;stroke-linejoin:miter;stroke-opacity:1"/>
<path class="bond-9 atom-9 atom-10" d="M 187.8,212.3 L 146.3,226.8" style="fill:none;fill-rule:evenodd;stroke:#000000;stroke-width:2.0px;stroke-linecap:butt;stroke-linejoin:miter;stroke-opacity:1"/>
<path class="bond-10 atom-10 atom-1" d="M 141.5,241.7 L 93.9,200.7" style="fill:none;fill-rule:evenodd;stroke:#000000;stroke-width:2.0px;stroke-linecap:butt;stroke-linejoin:miter;stroke-opacity:1"/>
<path class="bond-11 atom-8 atom-6" d="M 340.3,238.9 L 319.5,179.6" style="fill:none;fill-rule:evenodd;stroke:#000000;stroke-width:2.0px;stroke-linecap:butt;stroke-linejoin:miter;stroke-opacity:1"/>
<path class="atom-0" d="M 18.7 222.1 Q 18.7 217.6, 20.8 215.3 Q 22.9 213.0, 26.8 213.0 Q 30.5 213.0, 32.4 215.6 L 30.8 216.9 Q 29.3 215.0, 26.8 215.0 Q 24.1 215.0, 22.7 216.9 Q 21.3 218.6, 21.3 222.1 Q 21.3 225.6, 22.7 227.4 Q 24.2 229.2, 27.1 229.2 Q 29.0 229.2, 31.3 228.0 L 32.0 229.9 Q 31.1 230.5, 29.7 230.9 Q 28.3 231.2, 26.7 231.2 Q 22.9 231.2, 20.8 228.8 Q 18.7 226.5, 18.7 222.1 " fill="#00CC00"/>
<path class="atom-0" d="M 33.4 211.9 L 35.8 211.9 L 35.8 231.0 L 33.4 231.0 L 33.4 211.9 " fill="#00CC00"/>
<path class="legend" d="M 167.7 365.4 L 167.9 366.5 Q 168.7 365.3, 170.2 365.3 Q 170.6 365.3, 171.2 365.4 L 171.0 366.8 Q 170.3 366.6, 169.9 366.6 Q 169.2 366.6, 168.8 366.9 Q 168.3 367.1, 168.0 367.8 L 168.0 373.6 L 166.5 373.6 L 166.5 365.4 L 167.7 365.4 " fill="#000000"/>
<path class="legend" d="M 171.4 369.5 Q 171.4 367.5, 172.5 366.4 Q 173.5 365.3, 175.3 365.3 Q 177.1 365.3, 177.9 366.4 Q 178.7 367.4, 178.7 369.5 L 178.7 369.7 L 173.0 369.7 Q 173.0 371.1, 173.6 371.8 Q 174.3 372.6, 175.4 372.6 Q 176.1 372.6, 176.7 372.4 Q 177.3 372.3, 178.0 372.0 L 178.4 373.0 Q 177.6 373.4, 176.9 373.6 Q 176.1 373.8, 175.4 373.8 Q 173.5 373.8, 172.5 372.6 Q 171.4 371.5, 171.4 369.5 M 175.3 366.4 Q 174.4 366.4, 173.8 367.0 Q 173.2 367.5, 173.0 368.6 L 177.1 368.6 Q 177.0 367.5, 176.6 367.0 Q 176.1 366.4, 175.3 366.4 " fill="#000000"/>
<path class="legend" d="M 179.3 371.4 Q 179.3 370.1, 180.4 369.4 Q 181.4 368.7, 183.4 368.7 L 184.6 368.7 L 184.6 368.3 Q 184.6 367.3, 184.2 366.9 Q 183.8 366.4, 182.7 366.4 Q 182.1 366.4, 181.6 366.6 Q 181.0 366.7, 180.2 367.0 L 179.8 366.0 Q 181.3 365.3, 182.8 365.3 Q 184.5 365.3, 185.3 366.0 Q 186.1 366.8, 186.1 368.4 L 186.1 373.6 L 184.9 373.6 Q 184.9 373.6, 184.9 373.3 Q 184.8 373.1, 184.7 372.7 Q 183.6 373.8, 182.0 373.8 Q 180.8 373.8, 180.1 373.2 Q 179.3 372.5, 179.3 371.4 M 180.8 371.4 Q 180.8 372.0, 181.2 372.3 Q 181.6 372.6, 182.3 372.6 Q 183.0 372.6, 183.6 372.4 Q 184.2 372.0, 184.6 371.5 L 184.6 369.8 L 183.5 369.8 Q 182.2 369.8, 181.5 370.2 Q 180.8 370.6, 180.8 371.4 " fill="#000000"/>
<path class="legend" d="M 187.3 369.5 Q 187.3 367.5, 188.3 366.4 Q 189.3 365.3, 191.3 365.3 Q 193.1 365.3, 194.1 366.6 L 193.1 367.4 Q 192.7 366.9, 192.3 366.7 Q 191.8 366.4, 191.3 366.4 Q 190.1 366.4, 189.5 367.2 Q 188.9 368.0, 188.9 369.5 Q 188.9 371.0, 189.5 371.8 Q 190.2 372.6, 191.4 372.6 Q 192.0 372.6, 192.5 372.4 Q 193.0 372.3, 193.5 372.0 L 194.0 373.0 Q 192.8 373.7, 191.3 373.7 Q 189.3 373.7, 188.3 372.6 Q 187.3 371.5, 187.3 369.5 " fill="#000000"/>
<path class="legend" d="M 194.5 366.6 L 194.5 365.4 L 196.1 365.4 L 196.3 363.0 L 197.4 363.0 L 197.4 365.4 L 200.0 365.4 L 200.0 366.6 L 197.4 366.6 L 197.4 371.1 Q 197.4 372.5, 198.6 372.5 Q 199.1 372.5, 199.8 372.3 L 200.1 373.4 Q 199.2 373.7, 198.4 373.7 Q 197.3 373.7, 196.6 373.1 Q 195.9 372.4, 195.9 371.2 L 195.9 366.6 L 194.5 366.6 " fill="#000000"/>
<path class="legend" d="M 208.6 374.4 L 208.6 375.7 L 200.5 375.7 L 200.5 374.4 L 208.6 374.4 " fill="#000000"/>
<path class="legend" d="M 208.7 364.4 Q 209.1 363.4, 210.1 362.8 Q 211.1 362.2, 212.5 362.2 Q 214.2 362.2, 215.1 363.1 Q 216.1 364.0, 216.1 365.7 Q 216.1 367.4, 214.8 368.9 Q 213.6 370.5, 211.0 372.4 L 216.3 372.4 L 216.3 373.6 L 208.6 373.6 L 208.6 372.6 Q 210.8 371.1, 212.0 369.9 Q 213.3 368.8, 213.9 367.8 Q 214.5 366.8, 214.5 365.8 Q 214.5 364.7, 213.9 364.1 Q 213.4 363.5, 212.5 363.5 Q 211.5 363.5, 210.9 363.8 Q 210.3 364.2, 209.9 365.0 L 208.7 364.4 " fill="#000000"/>
<path class="legend" d="M 223.2 363.6 L 217.2 363.6 L 217.2 362.3 L 224.8 362.3 L 224.8 363.4 L 220.2 373.6 L 218.6 373.6 L 223.2 363.6 " fill="#000000"/>
<path class="legend" d="M 229.4 373.8 Q 227.3 373.8, 226.2 372.2 Q 225.2 370.7, 225.2 368.0 Q 225.2 365.2, 226.2 363.7 Q 227.3 362.2, 229.4 362.2 Q 231.5 362.2, 232.5 363.7 Q 233.5 365.2, 233.5 368.0 Q 233.5 370.7, 232.5 372.2 Q 231.4 373.8, 229.4 373.8 M 229.4 372.5 Q 230.6 372.5, 231.3 371.3 Q 231.9 370.2, 231.9 368.0 Q 231.9 365.7, 231.3 364.6 Q 230.6 363.5, 229.4 363.5 Q 228.2 363.5, 227.5 364.6 Q 226.8 365.7, 226.8 368.0 Q 226.8 370.2, 227.5 371.3 Q 228.2 372.5, 229.4 372.5 " fill="#000000"/>
<path class="legend" d="M 136.7 383.8 Q 136.7 381.8, 137.7 380.7 Q 138.7 379.5, 140.6 379.5 Q 142.5 379.5, 143.5 380.9 L 142.4 381.6 Q 142.1 381.2, 141.6 380.9 Q 141.2 380.7, 140.6 380.7 Q 139.5 380.7, 138.8 381.5 Q 138.2 382.3, 138.2 383.8 Q 138.2 385.3, 138.8 386.1 Q 139.5 386.8, 140.7 386.8 Q 141.4 386.8, 141.8 386.7 Q 142.3 386.5, 142.9 386.3 L 143.3 387.3 Q 142.1 388.0, 140.6 388.0 Q 138.7 388.0, 137.7 386.9 Q 136.7 385.7, 136.7 383.8 " fill="#000000"/>
<path class="legend" d="M 143.8 383.8 Q 143.8 381.7, 144.8 380.6 Q 145.9 379.5, 147.7 379.5 Q 149.5 379.5, 150.3 380.6 Q 151.1 381.7, 151.1 383.7 L 151.1 384.0 L 145.4 384.0 Q 145.4 385.4, 146.0 386.1 Q 146.7 386.8, 147.8 386.8 Q 148.5 386.8, 149.1 386.7 Q 149.6 386.5, 150.4 386.2 L 150.8 387.2 Q 150.0 387.6, 149.2 387.8 Q 148.5 388.0, 147.7 388.0 Q 145.9 388.0, 144.9 386.9 Q 143.8 385.8, 143.8 383.8 M 147.7 380.7 Q 146.7 380.7, 146.2 381.2 Q 145.6 381.8, 145.4 382.8 L 149.5 382.8 Q 149.4 381.7, 149.0 381.2 Q 148.5 380.7, 147.7 380.7 " fill="#000000"/>
<path class="legend" d="M 156.0 379.5 Q 157.3 379.5, 158.0 380.3 Q 158.7 381.0, 158.7 382.4 L 158.7 387.9 L 157.2 387.9 L 157.2 382.6 Q 157.2 381.6, 156.8 381.2 Q 156.5 380.7, 155.6 380.7 Q 154.9 380.7, 154.3 381.1 Q 153.6 381.4, 153.2 382.0 L 153.2 387.9 L 151.7 387.9 L 151.7 379.7 L 153.0 379.7 L 153.1 380.8 Q 154.2 379.5, 156.0 379.5 " fill="#000000"/>
<path class="legend" d="M 159.9 380.8 L 159.9 379.7 L 161.5 379.7 L 161.8 377.3 L 162.9 377.3 L 162.9 379.7 L 165.4 379.7 L 165.4 380.8 L 162.9 380.8 L 162.9 385.4 Q 162.9 386.8, 164.1 386.8 Q 164.6 386.8, 165.3 386.6 L 165.5 387.6 Q 164.7 388.0, 163.8 388.0 Q 162.7 388.0, 162.1 387.3 Q 161.4 386.7, 161.4 385.4 L 161.4 380.8 L 159.9 380.8 " fill="#000000"/>
<path class="legend" d="M 174.1 388.7 L 174.1 390.0 L 165.9 390.0 L 165.9 388.7 L 174.1 388.7 " fill="#000000"/>
<path class="legend" d="M 181.6 375.7 L 181.6 387.9 L 180.3 387.9 L 180.1 386.9 Q 179.2 388.0, 177.7 388.0 Q 176.0 388.0, 175.0 387.0 Q 174.1 385.9, 174.1 383.9 Q 174.1 381.8, 175.2 380.7 Q 176.3 379.5, 178.3 379.5 Q 179.2 379.5, 180.1 379.7 L 180.1 375.7 L 181.6 375.7 M 177.8 386.8 Q 178.6 386.8, 179.2 386.4 Q 179.8 385.9, 180.1 385.1 L 180.1 380.9 Q 179.2 380.7, 178.3 380.7 Q 177.1 380.7, 176.3 381.6 Q 175.6 382.4, 175.6 383.9 Q 175.6 385.3, 176.2 386.1 Q 176.8 386.8, 177.8 386.8 " fill="#000000"/>
<path class="legend" d="M 182.8 376.6 L 184.3 376.6 L 184.3 378.0 L 182.8 378.0 L 182.8 376.6 M 182.8 379.7 L 184.3 379.7 L 184.3 387.9 L 182.8 387.9 L 182.8 379.7 " fill="#000000"/>
<path class="legend" d="M 186.2 386.2 Q 186.9 386.5, 187.4 386.6 Q 187.9 386.8, 188.5 386.8 Q 189.2 386.8, 189.6 386.5 Q 190.0 386.2, 190.0 385.6 Q 190.0 385.2, 189.8 385.0 Q 189.6 384.8, 189.3 384.6 Q 189.1 384.5, 188.3 384.3 Q 188.2 384.3, 187.5 384.0 Q 186.7 383.7, 186.3 383.2 Q 186.0 382.7, 186.0 381.9 Q 186.0 380.9, 186.7 380.2 Q 187.5 379.5, 189.0 379.5 Q 189.6 379.5, 190.2 379.7 Q 190.7 379.8, 191.3 380.0 L 190.9 381.2 Q 190.4 381.0, 189.9 380.9 Q 189.5 380.8, 189.0 380.8 Q 188.2 380.8, 187.9 381.1 Q 187.5 381.4, 187.5 381.8 Q 187.5 382.3, 187.8 382.5 Q 188.1 382.7, 188.7 383.0 Q 188.9 383.0, 189.1 383.1 L 189.5 383.2 Q 190.1 383.4, 190.5 383.7 Q 190.9 383.9, 191.2 384.4 Q 191.5 384.8, 191.5 385.6 Q 191.5 386.7, 190.7 387.4 Q 189.8 388.0, 188.5 388.0 Q 187.7 388.0, 187.0 387.9 Q 186.4 387.7, 185.7 387.4 L 186.2 386.2 " fill="#000000"/>
<path class="legend" d="M 192.4 380.8 L 192.4 379.7 L 193.9 379.7 L 194.2 377.3 L 195.3 377.3 L 195.3 379.7 L 197.8 379.7 L 197.8 380.8 L 195.3 380.8 L 195.3 385.4 Q 195.3 386.8, 196.5 386.8 Q 197.0 386.8, 197.7 386.6 L 197.9 387.6 Q 197.1 388.0, 196.2 388.0 Q 195.2 388.0, 194.5 387.3 Q 193.8 386.7, 193.8 385.4 L 193.8 380.8 L 192.4 380.8 " fill="#000000"/>
<path class="legend" d="" fill="#000000"/>
<path class="legend" d="M 203.7 380.9 L 211.0 380.9 L 211.0 382.1 L 203.7 382.1 L 203.7 380.9 M 203.7 384.4 L 211.0 384.4 L 211.0 385.5 L 203.7 385.5 L 203.7 384.4 " fill="#000000"/>
<path class="legend" d="" fill="#000000"/>
<path class="legend" d="M 221.9 388.0 Q 219.9 388.0, 218.8 386.5 Q 217.8 384.9, 217.8 382.2 Q 217.8 379.5, 218.8 378.0 Q 219.8 376.4, 221.9 376.4 Q 224.0 376.4, 225.1 378.0 Q 226.1 379.5, 226.1 382.2 Q 226.1 384.9, 225.0 386.5 Q 224.0 388.0, 221.9 388.0 M 221.9 386.7 Q 223.2 386.7, 223.8 385.6 Q 224.5 384.4, 224.5 382.2 Q 224.5 380.0, 223.8 378.8 Q 223.2 377.7, 221.9 377.7 Q 220.7 377.7, 220.1 378.8 Q 219.4 380.0, 219.4 382.2 Q 219.4 384.4, 220.1 385.6 Q 220.7 386.7, 221.9 386.7 " fill="#000000"/>
<path class="legend" d="M 227.1 386.3 L 228.7 386.3 L 228.7 387.9 L 227.1 387.9 L 227.1 386.3 " fill="#000000"/>
<path class="legend" d="M 235.2 381.9 Q 236.3 382.2, 236.8 383.0 Q 237.4 383.7, 237.4 384.8 Q 237.4 385.7, 236.9 386.5 Q 236.4 387.2, 235.5 387.6 Q 234.7 388.0, 233.5 388.0 Q 232.3 388.0, 231.4 387.6 Q 230.5 387.2, 229.8 386.3 L 230.7 385.4 Q 231.4 386.2, 232.0 386.5 Q 232.6 386.8, 233.5 386.8 Q 234.5 386.8, 235.2 386.2 Q 235.8 385.7, 235.8 384.8 Q 235.8 383.6, 235.1 383.1 Q 234.5 382.6, 233.1 382.6 L 232.3 382.6 L 232.3 381.4 L 233.0 381.4 Q 234.2 381.4, 234.9 380.9 Q 235.5 380.3, 235.5 379.3 Q 235.5 378.6, 235.0 378.2 Q 234.5 377.7, 233.5 377.7 Q 232.6 377.7, 232.0 378.0 Q 231.4 378.4, 231.0 379.2 L 229.9 378.6 Q 230.3 377.7, 231.2 377.1 Q 232.2 376.4, 233.5 376.4 Q 235.2 376.4, 236.2 377.2 Q 237.1 378.0, 237.1 379.3 Q 237.1 380.2, 236.6 380.9 Q 236.1 381.6, 235.2 381.9 " fill="#000000"/>
<path class="legend" d="M 245.7 384.0 L 247.0 384.0 L 247.0 385.3 L 245.7 385.3 L 245.7 387.9 L 244.2 387.9 L 244.2 385.3 L 238.3 385.3 L 238.3 384.3 L 243.3 376.6 L 245.7 376.6 L 245.7 384.0 M 240.2 384.0 L 244.2 384.0 L 244.2 377.6 L 240.2 384.0 " fill="#000000"/>
<path class="legend" d="M 253.8 377.8 L 247.8 377.8 L 247.8 376.6 L 255.3 376.6 L 255.3 377.7 L 250.8 387.9 L 249.2 387.9 L 253.8 377.8 " fill="#000000"/>
<path class="legend" d="M 261.7 377.8 L 255.8 377.8 L 255.8 376.6 L 263.3 376.6 L 263.3 377.7 L 258.8 387.9 L 257.2 387.9 L 261.7 377.8 " fill="#000000"/>
<path class="bond-0 atom-0 atom-1" d="M 440.9,219.4 L 467.7,210.1" style="fill:none;fill-rule:evenodd;stroke:#7F4C19;stroke-width:2.0px;stroke-linecap:butt;stroke-linejoin:miter;stroke-opacity:1"/>
<path class="bond-0 atom-0 atom-1" d="M 467.7,210.1 L 494.5,200.7" style="fill:none;fill-rule:evenodd;stroke:#000000;stroke-width:2.0px;stroke-linecap:butt;stroke-linejoin:miter;stroke-opacity:1"/>
<path class="bond-1 atom-1 atom-2" d="M 494.5,200.7 L 506.2,139.0" style="fill:none;fill-rule:evenodd;stroke:#000000;stroke-width:2.0px;stroke-linecap:butt;stroke-linejoin:miter;stroke-opacity:1"/>
<path class="bond-1 atom-1 atom-2" d="M 508.6,193.8 L 516.8,150.6" style="fill:none;fill-rule:evenodd;stroke:#000000;stroke-width:2.0px;stroke-linecap:butt;stroke-linejoin:miter;stroke-opacity:1"/>
<path class="bond-2 atom-2 atom-3" d="M 506.2,139.0 L 565.5,118.3" style="fill:none;fill-rule:evenodd;stroke:#000000;stroke-width:2.0px;stroke-linecap:butt;stroke-linejoin:miter;stroke-opacity:1"/>
<path class="bond-3 atom-3 atom-4" d="M 565.5,118.3 L 613.1,159.3" style="fill:none;fill-rule:evenodd;stroke:#000000;stroke-width:2.0px;stroke-linecap:butt;stroke-linejoin:miter;stroke-opacity:1"/>
<path class="bond-3 atom-3 atom-4" d="M 564.5,133.9 L 597.8,162.6" style="fill:none;fill-rule:evenodd;stroke:#000000;stroke-width:2.0px;stroke-linecap:butt;stroke-linejoin:miter;stroke-opacity:1"/>
<path class="bond-4 atom-4 atom-5" d="M 613.1,159.3 L 672.5,138.6" style="fill:none;fill-rule:evenodd;stroke:#000000;stroke-width:2.0px;stroke-linecap:butt;stroke-linejoin:miter;stroke-opacity:1"/>
<path class="bond-5 atom-5 atom-6" d="M 672.5,138.6 L 720.1,179.6" style="fill:none;fill-rule:evenodd;stroke:#000000;stroke-width:2.0px;stroke-linecap:butt;stroke-linejoin:miter;stroke-opacity:1"/>
<path class="bond-5 atom-5 atom-6" d="M 671.4,154.2 L 704.7,182.9" style="fill:none;fill-rule:evenodd;stroke:#000000;stroke-width:2.0px;stroke-linecap:butt;stroke-linejoin:miter;stroke-opacity:1"/>
<path class="bond-6 atom-6 atom-7" d="M 720.1,179.6 L 781.8,191.3" style="fill:none;fill-rule:evenodd;stroke:#000000;stroke-width:2.0px;stroke-linecap:butt;stroke-linejoin:miter;stroke-opacity:1"/>
<path class="bond-7 atom-7 atom-8" d="M 781.8,191.3 L 740.8,238.9" style="fill:none;fill-rule:evenodd;stroke:#000000;stroke-width:2.0px;stroke-linecap:butt;stroke-linejoin:miter;stroke-opacity:1"/>
<path class="bond-8 atom-4 atom-9" d="M 613.1,159.3 L 601.4,221.0" style="fill:none;fill-rule:evenodd;stroke:#000000;stroke-width:2.0px;stroke-linecap:butt;stroke-linejoin:miter;stroke-opacity:1"/>
<path class="bond-9 atom-9 atom-10" d="M 601.4,221.0 L 542.1,241.7" style="fill:none;fill-rule:evenodd;stroke:#000000;stroke-width:2.0px;stroke-linecap:butt;stroke-linejoin:miter;stroke-opacity:1"/>
<path class="bond-9 atom-9 atom-10" d="M 588.4,212.3 L 546.8,226.8" style="fill:none;fill-rule:evenodd;stroke:#000000;stroke-width:2.0px;stroke-linecap:butt;stroke-linejoin:miter;stroke-opacity:1"/>
<path class="bond-10 atom-10 atom-1" d="M 542.1,241.7 L 494.5,200.7" style="fill:none;fill-rule:evenodd;stroke:#000000;stroke-width:2.0px;stroke-linecap:butt;stroke-linejoin:miter;stroke-opacity:1"/>
<path class="bond-11 atom-8 atom-6" d="M 740.8,238.9 L 720.1,179.6" style="fill:none;fill-rule:evenodd;stroke:#000000;stroke-width:2.0px;stroke-linecap:butt;stroke-linejoin:miter;stroke-opacity:1"/>
<path class="atom-0" d="M 426.8 221.0 Q 428.5 221.5, 429.4 222.5 Q 430.3 223.6, 430.3 225.1 Q 430.3 227.6, 428.7 229.0 Q 427.1 230.3, 424.2 230.3 L 418.2 230.3 L 418.2 212.5 L 423.4 212.5 Q 426.5 212.5, 428.0 213.8 Q 429.5 215.0, 429.5 217.3 Q 429.5 220.0, 426.8 221.0 M 420.6 214.6 L 420.6 220.1 L 423.4 220.1 Q 425.2 220.1, 426.1 219.4 Q 427.0 218.7, 427.0 217.3 Q 427.0 214.6, 423.4 214.6 L 420.6 214.6 M 424.2 228.3 Q 425.9 228.3, 426.8 227.5 Q 427.8 226.7, 427.8 225.1 Q 427.8 223.6, 426.7 222.9 Q 425.7 222.1, 423.8 222.1 L 420.6 222.1 L 420.6 228.3 L 424.2 228.3 " fill="#7F4C19"/>
<path class="atom-0" d="M 433.3 217.4 L 433.6 219.2 Q 435.0 217.2, 437.2 217.2 Q 437.9 217.2, 438.8 217.4 L 438.5 219.6 Q 437.4 219.3, 436.8 219.3 Q 435.7 219.3, 435.0 219.7 Q 434.3 220.1, 433.8 221.1 L 433.8 230.3 L 431.4 230.3 L 431.4 217.4 L 433.3 217.4 " fill="#7F4C19"/>
<path class="legend" d="M 567.5 365.4 L 567.7 366.5 Q 568.6 365.3, 570.0 365.3 Q 570.4 365.3, 571.0 365.4 L 570.8 366.8 Q 570.1 366.6, 569.7 366.6 Q 569.1 366.6, 568.6 366.9 Q 568.2 367.1, 567.8 367.8 L 567.8 373.6 L 566.3 373.6 L 566.3 365.4 L 567.5 365.4 " fill="#000000"/>
<path class="legend" d="M 571.3 369.5 Q 571.3 367.5, 572.3 366.4 Q 573.3 365.3, 575.1 365.3 Q 577.0 365.3, 577.8 366.4 Q 578.6 367.4, 578.6 369.5 L 578.6 369.7 L 572.8 369.7 Q 572.9 371.1, 573.5 371.8 Q 574.1 372.6, 575.3 372.6 Q 575.9 372.6, 576.5 372.4 Q 577.1 372.3, 577.8 372.0 L 578.2 373.0 Q 577.4 373.4, 576.7 373.6 Q 576.0 373.8, 575.2 373.8 Q 573.3 373.8, 572.3 372.6 Q 571.3 371.5, 571.3 369.5 M 575.1 366.4 Q 574.2 366.4, 573.6 367.0 Q 573.1 367.5, 572.9 368.6 L 577.0 368.6 Q 576.9 367.5, 576.4 367.0 Q 576.0 366.4, 575.1 366.4 " fill="#000000"/>
<path class="legend" d="M 579.2 371.4 Q 579.2 370.1, 580.2 369.4 Q 581.3 368.7, 583.2 368.7 L 584.4 368.7 L 584.4 368.3 Q 584.4 367.3, 584.0 366.9 Q 583.6 366.4, 582.6 366.4 Q 581.9 366.4, 581.4 366.6 Q 580.9 366.7, 580.1 367.0 L 579.6 366.0 Q 581.1 365.3, 582.6 365.3 Q 584.3 365.3, 585.1 366.0 Q 585.9 366.8, 585.9 368.4 L 585.9 373.6 L 584.8 373.6 Q 584.8 373.6, 584.7 373.3 Q 584.7 373.1, 584.6 372.7 Q 583.4 373.8, 581.9 373.8 Q 580.6 373.8, 579.9 373.2 Q 579.2 372.5, 579.2 371.4 M 580.7 371.4 Q 580.7 372.0, 581.1 372.3 Q 581.4 372.6, 582.2 372.6 Q 582.8 372.6, 583.4 372.4 Q 584.0 372.0, 584.4 371.5 L 584.4 369.8 L 583.3 369.8 Q 582.0 369.8, 581.3 370.2 Q 580.7 370.6, 580.7 371.4 " fill="#000000"/>
<path class="legend" d="M 587.2 369.5 Q 587.2 367.5, 588.2 366.4 Q 589.2 365.3, 591.1 365.3 Q 593.0 365.3, 594.0 366.6 L 593.0 367.4 Q 592.6 366.9, 592.1 366.7 Q 591.7 366.4, 591.1 366.4 Q 590.0 366.4, 589.3 367.2 Q 588.7 368.0, 588.7 369.5 Q 588.7 371.0, 589.4 371.8 Q 590.0 372.6, 591.2 372.6 Q 591.9 372.6, 592.3 372.4 Q 592.8 372.3, 593.4 372.0 L 593.8 373.0 Q 592.6 373.7, 591.1 373.7 Q 589.2 373.7, 588.2 372.6 Q 587.2 371.5, 587.2 369.5 " fill="#000000"/>
<path class="legend" d="M 594.3 366.6 L 594.3 365.4 L 595.9 365.4 L 596.2 363.0 L 597.3 363.0 L 597.3 365.4 L 599.8 365.4 L 599.8 366.6 L 597.3 366.6 L 597.3 371.1 Q 597.3 372.5, 598.5 372.5 Q 599.0 372.5, 599.7 372.3 L 599.9 373.4 Q 599.0 373.7, 598.2 373.7 Q 597.1 373.7, 596.5 373.1 Q 595.8 372.4, 595.8 371.2 L 595.8 366.6 L 594.3 366.6 " fill="#000000"/>
<path class="legend" d="M 608.5 374.4 L 608.5 375.7 L 600.3 375.7 L 600.3 374.4 L 608.5 374.4 " fill="#000000"/>
<path class="legend" d="M 608.5 364.4 Q 608.9 363.4, 609.9 362.8 Q 610.9 362.2, 612.3 362.2 Q 614.0 362.2, 615.0 363.1 Q 615.9 364.0, 615.9 365.7 Q 615.9 367.4, 614.7 368.9 Q 613.4 370.5, 610.9 372.4 L 616.1 372.4 L 616.1 373.6 L 608.5 373.6 L 608.5 372.6 Q 610.6 371.1, 611.8 369.9 Q 613.1 368.8, 613.7 367.8 Q 614.3 366.8, 614.3 365.8 Q 614.3 364.7, 613.8 364.1 Q 613.2 363.5, 612.3 363.5 Q 611.4 363.5, 610.8 363.8 Q 610.2 364.2, 609.7 365.0 L 608.5 364.4 " fill="#000000"/>
<path class="legend" d="M 621.5 366.6 Q 622.5 366.6, 623.3 367.0 Q 624.1 367.4, 624.5 368.2 Q 624.9 369.0, 624.9 370.0 Q 624.9 371.1, 624.4 372.0 Q 624.0 372.8, 623.1 373.3 Q 622.2 373.8, 621.1 373.8 Q 619.1 373.8, 618.1 372.4 Q 617.1 371.0, 617.1 368.3 Q 617.1 365.3, 618.3 363.7 Q 619.6 362.2, 622.0 362.2 Q 622.7 362.2, 623.3 362.3 Q 623.9 362.5, 624.5 362.8 L 623.9 363.9 Q 623.0 363.5, 622.0 363.5 Q 620.4 363.5, 619.6 364.5 Q 618.8 365.5, 618.7 367.6 Q 619.3 367.1, 620.0 366.8 Q 620.7 366.6, 621.5 366.6 M 621.1 372.4 Q 621.8 372.4, 622.2 372.1 Q 622.8 371.8, 623.0 371.2 Q 623.3 370.7, 623.3 370.0 Q 623.3 369.0, 622.8 368.4 Q 622.2 367.8, 621.2 367.8 Q 620.5 367.8, 619.8 368.1 Q 619.2 368.4, 618.7 368.9 Q 618.8 370.8, 619.4 371.6 Q 619.9 372.4, 621.1 372.4 " fill="#000000"/>
<path class="legend" d="M 629.6 362.2 Q 631.6 362.2, 632.6 363.6 Q 633.7 364.9, 633.7 367.6 Q 633.7 370.6, 632.4 372.2 Q 631.2 373.8, 628.7 373.8 Q 628.0 373.8, 627.4 373.6 Q 626.8 373.4, 626.3 373.1 L 626.9 372.0 Q 627.7 372.5, 628.7 372.5 Q 630.3 372.5, 631.1 371.5 Q 632.0 370.4, 632.1 368.3 Q 631.5 368.8, 630.7 369.1 Q 630.0 369.4, 629.2 369.4 Q 628.2 369.4, 627.5 368.9 Q 626.7 368.5, 626.2 367.7 Q 625.8 366.9, 625.8 366.0 Q 625.8 364.8, 626.3 364.0 Q 626.8 363.1, 627.7 362.7 Q 628.5 362.2, 629.6 362.2 M 627.4 365.9 Q 627.4 366.9, 628.0 367.5 Q 628.5 368.1, 629.5 368.1 Q 630.2 368.1, 630.9 367.8 Q 631.6 367.5, 632.1 367.1 Q 632.0 365.2, 631.4 364.3 Q 630.8 363.5, 629.6 363.5 Q 629.0 363.5, 628.5 363.8 Q 628.0 364.1, 627.7 364.7 Q 627.4 365.2, 627.4 365.9 " fill="#000000"/>
<path class="legend" d="M 536.7 383.8 Q 536.7 381.8, 537.7 380.7 Q 538.7 379.5, 540.6 379.5 Q 542.5 379.5, 543.5 380.9 L 542.4 381.6 Q 542.1 381.2, 541.6 380.9 Q 541.2 380.7, 540.6 380.7 Q 539.5 380.7, 538.8 381.5 Q 538.2 382.3, 538.2 383.8 Q 538.2 385.3, 538.8 386.1 Q 539.5 386.8, 540.7 386.8 Q 541.4 386.8, 541.8 386.7 Q 542.3 386.5, 542.9 386.3 L 543.3 387.3 Q 542.1 388.0, 540.6 388.0 Q 538.7 388.0, 537.7 386.9 Q 536.7 385.7, 536.7 383.8 " fill="#000000"/>
<path class="legend" d="M 543.8 383.8 Q 543.8 381.7, 544.8 380.6 Q 545.9 379.5, 547.7 379.5 Q 549.5 379.5, 550.3 380.6 Q 551.1 381.7, 551.1 383.7 L 551.1 384.0 L 545.4 384.0 Q 545.4 385.4, 546.0 386.1 Q 546.7 386.8, 547.8 386.8 Q 548.5 386.8, 549.1 386.7 Q 549.6 386.5, 550.4 386.2 L 550.8 387.2 Q 550.0 387.6, 549.2 387.8 Q 548.5 388.0, 547.7 388.0 Q 545.9 388.0, 544.9 386.9 Q 543.8 385.8, 543.8 383.8 M 547.7 380.7 Q 546.7 380.7, 546.2 381.2 Q 545.6 381.8, 545.4 382.8 L 549.5 382.8 Q 549.4 381.7, 549.0 381.2 Q 548.5 380.7, 547.7 380.7 " fill="#000000"/>
<path class="legend" d="M 556.0 379.5 Q 557.3 379.5, 558.0 380.3 Q 558.7 381.0, 558.7 382.4 L 558.7 387.9 L 557.2 387.9 L 557.2 382.6 Q 557.2 381.6, 556.8 381.2 Q 556.5 380.7, 555.6 380.7 Q 554.9 380.7, 554.3 381.1 Q 553.6 381.4, 553.2 382.0 L 553.2 387.9 L 551.7 387.9 L 551.7 379.7 L 553.0 379.7 L 553.1 380.8 Q 554.2 379.5, 556.0 379.5 " fill="#000000"/>
<path class="legend" d="M 559.9 380.8 L 559.9 379.7 L 561.5 379.7 L 561.8 377.3 L 562.9 377.3 L 562.9 379.7 L 565.4 379.7 L 565.4 380.8 L 562.9 380.8 L 562.9 385.4 Q 562.9 386.8, 564.1 386.8 Q 564.6 386.8, 565.3 386.6 L 565.5 387.6 Q 564.7 388.0, 563.8 388.0 Q 562.7 388.0, 562.1 387.3 Q 561.4 386.7, 561.4 385.4 L 561.4 380.8 L 559.9 380.8 " fill="#000000"/>
<path class="legend" d="M 574.1 388.7 L 574.1 390.0 L 565.9 390.0 L 565.9 388.7 L 574.1 388.7 " fill="#000000"/>
<path class="legend" d="M 581.6 375.7 L 581.6 387.9 L 580.3 387.9 L 580.1 386.9 Q 579.2 388.0, 577.7 388.0 Q 576.0 388.0, 575.0 387.0 Q 574.1 385.9, 574.1 383.9 Q 574.1 381.8, 575.2 380.7 Q 576.3 379.5, 578.3 379.5 Q 579.2 379.5, 580.1 379.7 L 580.1 375.7 L 581.6 375.7 M 577.8 386.8 Q 578.6 386.8, 579.2 386.4 Q 579.8 385.9, 580.1 385.1 L 580.1 380.9 Q 579.2 380.7, 578.3 380.7 Q 577.1 380.7, 576.3 381.6 Q 575.6 382.4, 575.6 383.9 Q 575.6 385.3, 576.2 386.1 Q 576.8 386.8, 577.8 386.8 " fill="#000000"/>
<path class="legend" d="M 582.8 376.6 L 584.3 376.6 L 584.3 378.0 L 582.8 378.0 L 582.8 376.6 M 582.8 379.7 L 584.3 379.7 L 584.3 387.9 L 582.8 387.9 L 582.8 379.7 " fill="#000000"/>
<path class="legend" d="M 586.2 386.2 Q 586.9 386.5, 587.4 386.6 Q 587.9 386.8, 588.5 386.8 Q 589.2 386.8, 589.6 386.5 Q 590.0 386.2, 590.0 385.6 Q 590.0 385.2, 589.8 385.0 Q 589.6 384.8, 589.3 384.6 Q 589.1 384.5, 588.3 384.3 Q 588.2 384.3, 587.5 384.0 Q 586.7 383.7, 586.3 383.2 Q 586.0 382.7, 586.0 381.9 Q 586.0 380.9, 586.7 380.2 Q 587.5 379.5, 589.0 379.5 Q 589.6 379.5, 590.2 379.7 Q 590.7 379.8, 591.3 380.0 L 590.9 381.2 Q 590.4 381.0, 589.9 380.9 Q 589.5 380.8, 589.0 380.8 Q 588.2 380.8, 587.9 381.1 Q 587.5 381.4, 587.5 381.8 Q 587.5 382.3, 587.8 382.5 Q 588.1 382.7, 588.7 383.0 Q 588.9 383.0, 589.1 383.1 L 589.5 383.2 Q 590.1 383.4, 590.5 383.7 Q 590.9 383.9, 591.2 384.4 Q 591.5 384.8, 591.5 385.6 Q 591.5 386.7, 590.7 387.4 Q 589.8 388.0, 588.5 388.0 Q 587.7 388.0, 587.0 387.9 Q 586.4 387.7, 585.7 387.4 L 586.2 386.2 " fill="#000000"/>
<path class="legend" d="M 592.4 380.8 L 592.4 379.7 L 593.9 379.7 L 594.2 377.3 L 595.3 377.3 L 595.3 379.7 L 597.8 379.7 L 597.8 380.8 L 595.3 380.8 L 595.3 385.4 Q 595.3 386.8, 596.5 386.8 Q 597.0 386.8, 597.7 386.6 L 597.9 387.6 Q 597.1 388.0, 596.2 388.0 Q 595.2 388.0, 594.5 387.3 Q 593.8 386.7, 593.8 385.4 L 593.8 380.8 L 592.4 380.8 " fill="#000000"/>
<path class="legend" d="" fill="#000000"/>
<path class="legend" d="M 603.7 380.9 L 611.0 380.9 L 611.0 382.1 L 603.7 382.1 L 603.7 380.9 M 603.7 384.4 L 611.0 384.4 L 611.0 385.5 L 603.7 385.5 L 603.7 384.4 " fill="#000000"/>
<path class="legend" d="" fill="#000000"/>
<path class="legend" d="M 621.9 388.0 Q 619.9 388.0, 618.8 386.5 Q 617.8 384.9, 617.8 382.2 Q 617.8 379.5, 618.8 378.0 Q 619.8 376.4, 621.9 376.4 Q 624.0 376.4, 625.1 378.0 Q 626.1 379.5, 626.1 382.2 Q 626.1 384.9, 625.0 386.5 Q 624.0 388.0, 621.9 388.0 M 621.9 386.7 Q 623.2 386.7, 623.8 385.6 Q 624.5 384.4, 624.5 382.2 Q 624.5 380.0, 623.8 378.8 Q 623.2 377.7, 621.9 377.7 Q 620.7 377.7, 620.1 378.8 Q 619.4 380.0, 619.4 382.2 Q 619.4 384.4, 620.1 385.6 Q 620.7 386.7, 621.9 386.7 " fill="#000000"/>
<path class="legend" d="M 627.1 386.3 L 628.7 386.3 L 628.7 387.9 L 627.1 387.9 L 627.1 386.3 " fill="#000000"/>
<path class="legend" d="M 635.2 381.9 Q 636.3 382.2, 636.8 383.0 Q 637.4 383.7, 637.4 384.8 Q 637.4 385.7, 636.9 386.5 Q 636.4 387.2, 635.5 387.6 Q 634.7 388.0, 633.5 388.0 Q 632.3 388.0, 631.4 387.6 Q 630.5 387.2, 629.8 386.3 L 630.7 385.4 Q 631.4 386.2, 632.0 386.5 Q 632.6 386.8, 633.5 386.8 Q 634.5 386.8, 635.2 386.2 Q 635.8 385.7, 635.8 384.8 Q 635.8 383.6, 635.1 383.1 Q 634.5 382.6, 633.1 382.6 L 632.3 382.6 L 632.3 381.4 L 633.0 381.4 Q 634.2 381.4, 634.9 380.9 Q 635.5 380.3, 635.5 379.3 Q 635.5 378.6, 635.0 378.2 Q 634.5 377.7, 633.5 377.7 Q 632.6 377.7, 632.0 378.0 Q 631.4 378.4, 631.0 379.2 L 629.9 378.6 Q 630.3 377.7, 631.2 377.1 Q 632.2 376.4, 633.5 376.4 Q 635.2 376.4, 636.2 377.2 Q 637.1 378.0, 637.1 379.3 Q 637.1 380.2, 636.6 380.9 Q 636.1 381.6, 635.2 381.9 " fill="#000000"/>
<path class="legend" d="M 645.7 384.0 L 647.0 384.0 L 647.0 385.3 L 645.7 385.3 L 645.7 387.9 L 644.2 387.9 L 644.2 385.3 L 638.3 385.3 L 638.3 384.3 L 643.3 376.6 L 645.7 376.6 L 645.7 384.0 M 640.2 384.0 L 644.2 384.0 L 644.2 377.6 L 640.2 384.0 " fill="#000000"/>
<path class="legend" d="M 653.8 377.8 L 647.8 377.8 L 647.8 376.6 L 655.3 376.6 L 655.3 377.7 L 650.8 387.9 L 649.2 387.9 L 653.8 377.8 " fill="#000000"/>
<path class="legend" d="M 661.7 377.8 L 655.8 377.8 L 655.8 376.6 L 663.3 376.6 L 663.3 377.7 L 658.8 387.9 L 657.2 387.9 L 661.7 377.8 " fill="#000000"/>
</svg>