<svg xmlns="http://www.w3.org/2000/svg" xmlns:rdkit="http://www.rdkit.org/xml" xmlns:xlink="http://www.w3.org/1999/xlink" version="1.1" baseProfile="full" xml:space="preserve" width="2000px" height="400px" viewBox="0 0 2000 400">
<!-- END OF HEADER -->
<rect style="opacity:1.0;fill:#FFFFFF;stroke:none" width="2000.0" height="400.0" x="0.0" y="0.0"> </rect>
<path class="bond-0 atom-0 atom-1" d="M 66.2,205.4 L 77.6,210.1" style="fill:none;fill-rule:evenodd;stroke:#000000;stroke-width:2.0px;stroke-linecap:butt;stroke-linejoin:miter;stroke-opacity:1"/>
<path class="bond-0 atom-0 atom-1" d="M 77.6,210.1 L 89.0,214.7" style="fill:none;fill-rule:evenodd;stroke:#FF0000;stroke-width:2.0px;stroke-linecap:butt;stroke-linejoin:miter;stroke-opacity:1"/>
<path class="bond-1 atom-1 atom-2" d="M 98.8,212.9 L 108.1,205.6" style="fill:none;fill-rule:evenodd;stroke:#FF0000;stroke-width:2.0px;stroke-linecap:butt;stroke-linejoin:miter;stroke-opacity:1"/>
<path class="bond-1 atom-1 atom-2" d="M 108.1,205.6 L 117.5,198.3" style="fill:none;fill-rule:evenodd;stroke:#000000;stroke-width:2.0px;stroke-linecap:butt;stroke-linejoin:miter;stroke-opacity:1"/>
<path class="bond-2 atom-2 atom-3" d="M 117.5,198.3 L 113.4,168.7" style="fill:none;fill-rule:evenodd;stroke:#000000;stroke-width:2.0px;stroke-linecap:butt;stroke-linejoin:miter;stroke-opacity:1"/>
<path class="bond-2 atom-2 atom-3" d="M 122.8,193.1 L 120.0,172.4" style="fill:none;fill-rule:evenodd;stroke:#000000;stroke-width:2.0px;stroke-linecap:butt;stroke-linejoin:miter;stroke-opacity:1"/>
<path class="bond-3 atom-3 atom-4" d="M 113.4,168.7 L 85.7,157.5" style="fill:none;fill-rule:evenodd;stroke:#000000;stroke-width:2.0px;stroke-linecap:butt;stroke-linejoin:miter;stroke-opacity:1"/>
<path class="bond-4 atom-3 atom-5" d="M 113.4,168.7 L 137.0,150.4" style="fill:none;fill-rule:evenodd;stroke:#000000;stroke-width:2.0px;stroke-linecap:butt;stroke-linejoin:miter;stroke-opacity:1"/>
<path class="bond-5 atom-5 atom-6" d="M 137.0,150.4 L 132.9,120.8" style="fill:none;fill-rule:evenodd;stroke:#000000;stroke-width:2.0px;stroke-linecap:butt;stroke-linejoin:miter;stroke-opacity:1"/>
<path class="bond-6 atom-5 atom-7" d="M 137.0,150.4 L 164.7,161.7" style="fill:none;fill-rule:evenodd;stroke:#000000;stroke-width:2.0px;stroke-linecap:butt;stroke-linejoin:miter;stroke-opacity:1"/>
<path class="bond-6 atom-5 atom-7" d="M 138.9,157.6 L 158.3,165.5" style="fill:none;fill-rule:evenodd;stroke:#000000;stroke-width:2.0px;stroke-linecap:butt;stroke-linejoin:miter;stroke-opacity:1"/>
<path class="bond-7 atom-7 atom-8" d="M 164.7,161.7 L 174.1,154.4" style="fill:none;fill-rule:evenodd;stroke:#000000;stroke-width:2.0px;stroke-linecap:butt;stroke-linejoin:miter;stroke-opacity:1"/>
<path class="bond-7 atom-7 atom-8" d="M 174.1,154.4 L 183.4,147.1" style="fill:none;fill-rule:evenodd;stroke:#FF0000;stroke-width:2.0px;stroke-linecap:butt;stroke-linejoin:miter;stroke-opacity:1"/>
<path class="bond-8 atom-8 atom-9" d="M 193.2,145.3 L 204.6,149.9" style="fill:none;fill-rule:evenodd;stroke:#FF0000;stroke-width:2.0px;stroke-linecap:butt;stroke-linejoin:miter;stroke-opacity:1"/>
<path class="bond-8 atom-8 atom-9" d="M 204.6,149.9 L 216.0,154.6" style="fill:none;fill-rule:evenodd;stroke:#000000;stroke-width:2.0px;stroke-linecap:butt;stroke-linejoin:miter;stroke-opacity:1"/>
<path class="bond-9 atom-7 atom-10" d="M 164.7,161.7 L 168.8,191.3" style="fill:none;fill-rule:evenodd;stroke:#000000;stroke-width:2.0px;stroke-linecap:butt;stroke-linejoin:miter;stroke-opacity:1"/>
<path class="bond-10 atom-10 atom-11" d="M 168.8,191.3 L 196.5,202.5" style="fill:none;fill-rule:evenodd;stroke:#000000;stroke-width:2.0px;stroke-linecap:butt;stroke-linejoin:miter;stroke-opacity:1"/>
<path class="bond-11 atom-11 atom-12" d="M 196.5,202.5 L 220.1,184.2" style="fill:none;fill-rule:evenodd;stroke:#000000;stroke-width:2.0px;stroke-linecap:butt;stroke-linejoin:miter;stroke-opacity:1"/>
<path class="bond-12 atom-12 atom-13" d="M 220.1,184.2 L 247.8,195.5" style="fill:none;fill-rule:evenodd;stroke:#000000;stroke-width:2.0px;stroke-linecap:butt;stroke-linejoin:miter;stroke-opacity:1"/>
<path class="bond-13 atom-13 atom-14" d="M 247.8,195.5 L 251.9,225.1" style="fill:none;fill-rule:evenodd;stroke:#000000;stroke-width:2.0px;stroke-linecap:butt;stroke-linejoin:miter;stroke-opacity:1"/>
<path class="bond-14 atom-13 atom-15" d="M 247.8,195.5 L 271.4,177.1" style="fill:none;fill-rule:evenodd;stroke:#000000;stroke-width:2.0px;stroke-linecap:butt;stroke-linejoin:miter;stroke-opacity:1"/>
<path class="bond-14 atom-13 atom-15" d="M 247.6,188.0 L 264.2,175.2" style="fill:none;fill-rule:evenodd;stroke:#000000;stroke-width:2.0px;stroke-linecap:butt;stroke-linejoin:miter;stroke-opacity:1"/>
<path class="bond-15 atom-15 atom-16" d="M 271.4,177.1 L 299.1,188.4" style="fill:none;fill-rule:evenodd;stroke:#000000;stroke-width:2.0px;stroke-linecap:butt;stroke-linejoin:miter;stroke-opacity:1"/>
<path class="bond-16 atom-16 atom-17" d="M 299.1,188.4 L 308.4,181.1" style="fill:none;fill-rule:evenodd;stroke:#000000;stroke-width:2.0px;stroke-linecap:butt;stroke-linejoin:miter;stroke-opacity:1"/>
<path class="bond-16 atom-16 atom-17" d="M 308.4,181.1 L 317.8,173.8" style="fill:none;fill-rule:evenodd;stroke:#FF0000;stroke-width:2.0px;stroke-linecap:butt;stroke-linejoin:miter;stroke-opacity:1"/>
<path class="bond-17 atom-10 atom-18" d="M 168.8,191.3 L 145.2,209.6" style="fill:none;fill-rule:evenodd;stroke:#000000;stroke-width:2.0px;stroke-linecap:butt;stroke-linejoin:miter;stroke-opacity:1"/>
<path class="bond-17 atom-10 atom-18" d="M 161.6,189.3 L 145.1,202.1" style="fill:none;fill-rule:evenodd;stroke:#000000;stroke-width:2.0px;stroke-linecap:butt;stroke-linejoin:miter;stroke-opacity:1"/>
<path class="bond-18 atom-18 atom-19" d="M 145.2,209.6 L 149.3,239.2" style="fill:none;fill-rule:evenodd;stroke:#000000;stroke-width:2.0px;stroke-linecap:butt;stroke-linejoin:miter;stroke-opacity:1"/>
<path class="bond-19 atom-18 atom-2" d="M 145.2,209.6 L 117.5,198.3" style="fill:none;fill-rule:evenodd;stroke:#000000;stroke-width:2.0px;stroke-linecap:butt;stroke-linejoin:miter;stroke-opacity:1"/>
<path class="atom-1" d="M 90.0 216.7 Q 90.0 214.7, 91.0 213.5 Q 92.0 212.4, 93.9 212.4 Q 95.8 212.4, 96.8 213.5 Q 97.8 214.7, 97.8 216.7 Q 97.8 218.8, 96.8 219.9 Q 95.8 221.1, 93.9 221.1 Q 92.0 221.1, 91.0 219.9 Q 90.0 218.8, 90.0 216.7 M 93.9 220.1 Q 95.2 220.1, 95.9 219.3 Q 96.6 218.4, 96.6 216.7 Q 96.6 215.0, 95.9 214.2 Q 95.2 213.4, 93.9 213.4 Q 92.6 213.4, 91.9 214.2 Q 91.2 215.0, 91.2 216.7 Q 91.2 218.4, 91.9 219.3 Q 92.6 220.1, 93.9 220.1 " fill="#FF0000"/>
<path class="atom-8" d="M 184.4 143.3 Q 184.4 141.3, 185.4 140.2 Q 186.4 139.0, 188.3 139.0 Q 190.2 139.0, 191.2 140.2 Q 192.2 141.3, 192.2 143.3 Q 192.2 145.4, 191.2 146.6 Q 190.2 147.7, 188.3 147.7 Q 186.5 147.7, 185.4 146.6 Q 184.4 145.4, 184.4 143.3 M 188.3 146.8 Q 189.6 146.8, 190.3 145.9 Q 191.0 145.0, 191.0 143.3 Q 191.0 141.7, 190.3 140.8 Q 189.6 140.0, 188.3 140.0 Q 187.0 140.0, 186.3 140.8 Q 185.6 141.7, 185.6 143.3 Q 185.6 145.0, 186.3 145.9 Q 187.0 146.8, 188.3 146.8 " fill="#FF0000"/>
<path class="atom-17" d="M 318.8 170.1 Q 318.8 168.0, 319.8 166.9 Q 320.8 165.8, 322.7 165.8 Q 324.5 165.8, 325.5 166.9 Q 326.6 168.0, 326.6 170.1 Q 326.6 172.1, 325.5 173.3 Q 324.5 174.5, 322.7 174.5 Q 320.8 174.5, 319.8 173.3 Q 318.8 172.1, 318.8 170.1 M 322.7 173.5 Q 324.0 173.5, 324.7 172.6 Q 325.4 171.8, 325.4 170.1 Q 325.4 168.4, 324.7 167.6 Q 324.0 166.7, 322.7 166.7 Q 321.4 166.7, 320.7 167.6 Q 320.0 168.4, 320.0 170.1 Q 320.0 171.8, 320.7 172.6 Q 321.4 173.5, 322.7 173.5 " fill="#FF0000"/>
<path class="atom-17" d="M 327.1 165.9 L 328.3 165.9 L 328.3 169.5 L 332.6 169.5 L 332.6 165.9 L 333.8 165.9 L 333.8 174.3 L 332.6 174.3 L 332.6 170.4 L 328.3 170.4 L 328.3 174.3 L 327.1 174.3 L 327.1 165.9 " fill="#FF0000"/>
<path class="legend" d="M 167.3 365.4 L 167.4 366.5 Q 168.3 365.3, 169.7 365.3 Q 170.2 365.3, 170.8 365.4 L 170.5 366.8 Q 169.8 366.6, 169.5 366.6 Q 168.8 366.6, 168.3 366.9 Q 167.9 367.1, 167.6 367.8 L 167.6 373.6 L 166.1 373.6 L 166.1 365.4 L 167.3 365.4 " fill="#000000"/>
<path class="legend" d="M 171.0 369.5 Q 171.0 367.5, 172.0 366.4 Q 173.0 365.3, 174.9 365.3 Q 176.7 365.3, 177.5 366.4 Q 178.3 367.4, 178.3 369.5 L 178.3 369.7 L 172.6 369.7 Q 172.6 371.1, 173.2 371.8 Q 173.8 372.6, 175.0 372.6 Q 175.6 372.6, 176.2 372.4 Q 176.8 372.3, 177.5 372.0 L 178.0 373.0 Q 177.2 373.4, 176.4 373.6 Q 175.7 373.8, 174.9 373.8 Q 173.1 373.8, 172.0 372.6 Q 171.0 371.5, 171.0 369.5 M 174.9 366.4 Q 173.9 366.4, 173.4 367.0 Q 172.8 367.5, 172.6 368.6 L 176.7 368.6 Q 176.6 367.5, 176.2 367.0 Q 175.7 366.4, 174.9 366.4 " fill="#000000"/>
<path class="legend" d="M 178.9 371.4 Q 178.9 370.1, 180.0 369.4 Q 181.0 368.7, 183.0 368.7 L 184.2 368.7 L 184.2 368.3 Q 184.2 367.3, 183.7 366.9 Q 183.3 366.4, 182.3 366.4 Q 181.6 366.4, 181.1 366.6 Q 180.6 366.7, 179.8 367.0 L 179.4 366.0 Q 180.9 365.3, 182.3 365.3 Q 184.1 365.3, 184.9 366.0 Q 185.7 366.8, 185.7 368.4 L 185.7 373.6 L 184.5 373.6 Q 184.5 373.6, 184.4 373.3 Q 184.4 373.1, 184.3 372.7 Q 183.1 373.8, 181.6 373.8 Q 180.4 373.8, 179.6 373.2 Q 178.9 372.5, 178.9 371.4 M 180.4 371.4 Q 180.4 372.0, 180.8 372.3 Q 181.2 372.6, 181.9 372.6 Q 182.5 372.6, 183.1 372.4 Q 183.8 372.0, 184.2 371.5 L 184.2 369.8 L 183.0 369.8 Q 181.7 369.8, 181.1 370.2 Q 180.4 370.6, 180.4 371.4 " fill="#000000"/>
<path class="legend" d="M 186.9 369.5 Q 186.9 367.5, 187.9 366.4 Q 188.9 365.3, 190.8 365.3 Q 192.7 365.3, 193.7 366.6 L 192.7 367.4 Q 192.3 366.9, 191.8 366.7 Q 191.4 366.4, 190.8 366.4 Q 189.7 366.4, 189.1 367.2 Q 188.4 368.0, 188.4 369.5 Q 188.4 371.0, 189.1 371.8 Q 189.7 372.6, 190.9 372.6 Q 191.6 372.6, 192.1 372.4 Q 192.5 372.3, 193.1 372.0 L 193.5 373.0 Q 192.3 373.7, 190.8 373.7 Q 188.9 373.7, 187.9 372.6 Q 186.9 371.5, 186.9 369.5 " fill="#000000"/>
<path class="legend" d="M 194.1 366.6 L 194.1 365.4 L 195.6 365.4 L 195.9 363.0 L 197.0 363.0 L 197.0 365.4 L 199.5 365.4 L 199.5 366.6 L 197.0 366.6 L 197.0 371.1 Q 197.0 372.5, 198.2 372.5 Q 198.7 372.5, 199.4 372.3 L 199.7 373.4 Q 198.8 373.7, 197.9 373.7 Q 196.9 373.7, 196.2 373.1 Q 195.5 372.4, 195.5 371.2 L 195.5 366.6 L 194.1 366.6 " fill="#000000"/>
<path class="legend" d="M 208.2 374.4 L 208.2 375.7 L 200.1 375.7 L 200.1 374.4 L 208.2 374.4 " fill="#000000"/>
<path class="legend" d="M 215.6 369.7 L 216.9 369.7 L 216.9 371.0 L 215.6 371.0 L 215.6 373.6 L 214.1 373.6 L 214.1 371.0 L 208.2 371.0 L 208.2 370.0 L 213.2 362.3 L 215.6 362.3 L 215.6 369.7 M 210.1 369.7 L 214.1 369.7 L 214.1 363.3 L 210.1 369.7 " fill="#000000"/>
<path class="legend" d="M 217.8 364.4 Q 218.2 363.4, 219.2 362.8 Q 220.2 362.2, 221.5 362.2 Q 223.2 362.2, 224.2 363.1 Q 225.2 364.0, 225.2 365.7 Q 225.2 367.4, 223.9 368.9 Q 222.7 370.5, 220.1 372.4 L 225.4 372.4 L 225.4 373.6 L 217.7 373.6 L 217.7 372.6 Q 219.8 371.1, 221.1 369.9 Q 222.3 368.8, 223.0 367.8 Q 223.6 366.8, 223.6 365.8 Q 223.6 364.7, 223.0 364.1 Q 222.5 363.5, 221.5 363.5 Q 220.6 363.5, 220.0 363.8 Q 219.4 364.2, 219.0 365.0 L 217.8 364.4 " fill="#000000"/>
<path class="legend" d="M 226.3 364.4 Q 226.8 363.4, 227.8 362.8 Q 228.7 362.2, 230.1 362.2 Q 231.8 362.2, 232.8 363.1 Q 233.8 364.0, 233.8 365.7 Q 233.8 367.4, 232.5 368.9 Q 231.3 370.5, 228.7 372.4 L 233.9 372.4 L 233.9 373.6 L 226.3 373.6 L 226.3 372.6 Q 228.4 371.1, 229.7 369.9 Q 230.9 368.8, 231.5 367.8 Q 232.2 366.8, 232.2 365.8 Q 232.2 364.7, 231.6 364.1 Q 231.1 363.5, 230.1 363.5 Q 229.2 363.5, 228.6 363.8 Q 228.0 364.2, 227.6 365.0 L 226.3 364.4 " fill="#000000"/>
<path class="legend" d="M 136.6 383.8 Q 136.6 381.8, 137.6 380.7 Q 138.6 379.5, 140.6 379.5 Q 142.4 379.5, 143.4 380.9 L 142.4 381.6 Q 142.0 381.2, 141.6 380.9 Q 141.1 380.7, 140.6 380.7 Q 139.4 380.7, 138.8 381.5 Q 138.2 382.3, 138.2 383.8 Q 138.2 385.3, 138.8 386.1 Q 139.5 386.8, 140.7 386.8 Q 141.3 386.8, 141.8 386.7 Q 142.3 386.5, 142.8 386.3 L 143.2 387.3 Q 142.1 388.0, 140.5 388.0 Q 138.6 388.0, 137.6 386.9 Q 136.6 385.7, 136.6 383.8 " fill="#000000"/>
<path class="legend" d="M 143.8 383.8 Q 143.8 381.7, 144.8 380.6 Q 145.8 379.5, 147.6 379.5 Q 149.5 379.5, 150.3 380.6 Q 151.1 381.7, 151.1 383.7 L 151.1 384.0 L 145.3 384.0 Q 145.4 385.4, 146.0 386.1 Q 146.6 386.8, 147.8 386.8 Q 148.4 386.8, 149.0 386.7 Q 149.6 386.5, 150.3 386.2 L 150.7 387.2 Q 149.9 387.6, 149.2 387.8 Q 148.5 388.0, 147.7 388.0 Q 145.8 388.0, 144.8 386.9 Q 143.8 385.8, 143.8 383.8 M 147.6 380.7 Q 146.7 380.7, 146.1 381.2 Q 145.6 381.8, 145.4 382.8 L 149.5 382.8 Q 149.4 381.7, 148.9 381.2 Q 148.5 380.7, 147.6 380.7 " fill="#000000"/>
<path class="legend" d="M 156.0 379.5 Q 157.3 379.5, 158.0 380.3 Q 158.7 381.0, 158.7 382.4 L 158.7 387.9 L 157.2 387.9 L 157.2 382.6 Q 157.2 381.6, 156.8 381.2 Q 156.4 380.7, 155.6 380.7 Q 154.8 380.7, 154.2 381.1 Q 153.6 381.4, 153.2 382.0 L 153.2 387.9 L 151.7 387.9 L 151.7 379.7 L 152.9 379.7 L 153.1 380.8 Q 154.2 379.5, 156.0 379.5 " fill="#000000"/>
<path class="legend" d="M 159.9 380.8 L 159.9 379.7 L 161.5 379.7 L 161.7 377.3 L 162.8 377.3 L 162.8 379.7 L 165.4 379.7 L 165.4 380.8 L 162.8 380.8 L 162.8 385.4 Q 162.8 386.8, 164.0 386.8 Q 164.5 386.8, 165.2 386.6 L 165.5 387.6 Q 164.6 388.0, 163.8 388.0 Q 162.7 388.0, 162.0 387.3 Q 161.3 386.7, 161.3 385.4 L 161.3 380.8 L 159.9 380.8 " fill="#000000"/>
<path class="legend" d="M 174.0 388.7 L 174.0 390.0 L 165.9 390.0 L 165.9 388.7 L 174.0 388.7 " fill="#000000"/>
<path class="legend" d="M 181.5 375.7 L 181.5 387.9 L 180.3 387.9 L 180.1 386.9 Q 179.2 388.0, 177.7 388.0 Q 175.9 388.0, 175.0 387.0 Q 174.0 385.9, 174.0 383.9 Q 174.0 381.8, 175.2 380.7 Q 176.3 379.5, 178.3 379.5 Q 179.1 379.5, 180.0 379.7 L 180.0 375.7 L 181.5 375.7 M 177.8 386.8 Q 178.6 386.8, 179.2 386.4 Q 179.8 385.9, 180.0 385.1 L 180.0 380.9 Q 179.2 380.7, 178.3 380.7 Q 177.0 380.7, 176.3 381.6 Q 175.6 382.4, 175.6 383.9 Q 175.6 385.3, 176.1 386.1 Q 176.7 386.8, 177.8 386.8 " fill="#000000"/>
<path class="legend" d="M 182.8 376.6 L 184.3 376.6 L 184.3 378.0 L 182.8 378.0 L 182.8 376.6 M 182.8 379.7 L 184.3 379.7 L 184.3 387.9 L 182.8 387.9 L 182.8 379.7 " fill="#000000"/>
<path class="legend" d="M 186.1 386.2 Q 186.8 386.5, 187.3 386.6 Q 187.9 386.8, 188.4 386.8 Q 189.1 386.8, 189.5 386.5 Q 190.0 386.2, 190.0 385.6 Q 190.0 385.2, 189.7 385.0 Q 189.5 384.8, 189.3 384.6 Q 189.0 384.5, 188.3 384.3 Q 188.2 384.3, 187.4 384.0 Q 186.7 383.7, 186.3 383.2 Q 185.9 382.7, 185.9 381.9 Q 185.9 380.9, 186.7 380.2 Q 187.5 379.5, 188.9 379.5 Q 189.6 379.5, 190.1 379.7 Q 190.7 379.8, 191.3 380.0 L 190.9 381.2 Q 190.3 381.0, 189.9 380.9 Q 189.4 380.8, 188.9 380.8 Q 188.2 380.8, 187.8 381.1 Q 187.4 381.4, 187.4 381.8 Q 187.4 382.3, 187.7 382.5 Q 188.0 382.7, 188.7 383.0 Q 188.9 383.0, 189.0 383.1 L 189.4 383.2 Q 190.1 383.4, 190.5 383.7 Q 190.9 383.9, 191.2 384.4 Q 191.5 384.8, 191.5 385.6 Q 191.5 386.7, 190.6 387.4 Q 189.8 388.0, 188.4 388.0 Q 187.7 388.0, 187.0 387.9 Q 186.3 387.7, 185.6 387.4 L 186.1 386.2 " fill="#000000"/>
<path class="legend" d="M 192.3 380.8 L 192.3 379.7 L 193.9 379.7 L 194.1 377.3 L 195.3 377.3 L 195.3 379.7 L 197.8 379.7 L 197.8 380.8 L 195.3 380.8 L 195.3 385.4 Q 195.3 386.8, 196.5 386.8 Q 196.9 386.8, 197.6 386.6 L 197.9 387.6 Q 197.0 388.0, 196.2 388.0 Q 195.1 388.0, 194.4 387.3 Q 193.8 386.7, 193.8 385.4 L 193.8 380.8 L 192.3 380.8 " fill="#000000"/>
<path class="legend" d="" fill="#000000"/>
<path class="legend" d="M 203.6 380.9 L 211.0 380.9 L 211.0 382.1 L 203.6 382.1 L 203.6 380.9 M 203.6 384.4 L 211.0 384.4 L 211.0 385.5 L 203.6 385.5 L 203.6 384.4 " fill="#000000"/>
<path class="legend" d="" fill="#000000"/>
<path class="legend" d="M 221.9 388.0 Q 219.8 388.0, 218.8 386.5 Q 217.7 384.9, 217.7 382.2 Q 217.7 379.5, 218.8 378.0 Q 219.8 376.4, 221.9 376.4 Q 224.0 376.4, 225.0 378.0 Q 226.0 379.5, 226.0 382.2 Q 226.0 384.9, 225.0 386.5 Q 224.0 388.0, 221.9 388.0 M 221.9 386.7 Q 223.1 386.7, 223.8 385.6 Q 224.4 384.4, 224.4 382.2 Q 224.4 380.0, 223.8 378.8 Q 223.1 377.7, 221.9 377.7 Q 220.7 377.7, 220.0 378.8 Q 219.3 380.0, 219.3 382.2 Q 219.3 384.4, 220.0 385.6 Q 220.7 386.7, 221.9 386.7 " fill="#000000"/>
<path class="legend" d="M 227.1 386.3 L 228.7 386.3 L 228.7 387.9 L 227.1 387.9 L 227.1 386.3 " fill="#000000"/>
<path class="legend" d="M 233.8 380.8 Q 234.8 380.8, 235.6 381.2 Q 236.5 381.6, 236.9 382.4 Q 237.4 383.2, 237.4 384.3 Q 237.4 385.5, 236.8 386.3 Q 236.2 387.2, 235.3 387.6 Q 234.4 388.0, 233.3 388.0 Q 232.3 388.0, 231.3 387.6 Q 230.4 387.2, 229.7 386.5 L 230.7 385.5 Q 231.2 386.1, 231.9 386.4 Q 232.6 386.7, 233.4 386.7 Q 234.4 386.7, 235.1 386.1 Q 235.8 385.5, 235.8 384.3 Q 235.8 383.1, 235.1 382.6 Q 234.4 382.0, 233.3 382.0 Q 232.3 382.0, 231.2 382.4 L 230.3 382.0 L 230.9 376.6 L 236.7 376.6 L 236.5 377.8 L 232.2 377.8 L 231.8 381.2 Q 232.8 380.8, 233.8 380.8 " fill="#000000"/>
<path class="legend" d="M 243.9 381.9 Q 245.0 382.3, 245.6 383.0 Q 246.1 383.7, 246.1 384.8 Q 246.1 385.7, 245.7 386.5 Q 245.2 387.2, 244.3 387.6 Q 243.4 388.0, 242.2 388.0 Q 240.3 388.0, 239.2 387.2 Q 238.1 386.3, 238.1 384.8 Q 238.1 383.9, 238.6 383.2 Q 239.1 382.5, 240.1 381.9 Q 239.4 381.5, 239.0 380.9 Q 238.6 380.3, 238.6 379.3 Q 238.6 378.0, 239.5 377.2 Q 240.5 376.4, 242.1 376.4 Q 243.8 376.4, 244.8 377.2 Q 245.7 378.0, 245.7 379.3 Q 245.7 380.2, 245.3 380.8 Q 244.8 381.4, 243.9 381.9 M 242.1 377.6 Q 241.2 377.6, 240.7 378.1 Q 240.2 378.5, 240.2 379.3 Q 240.2 379.9, 240.5 380.3 Q 240.9 380.7, 241.4 380.9 Q 241.9 381.2, 242.9 381.5 Q 243.5 381.0, 243.8 380.5 Q 244.1 380.0, 244.1 379.3 Q 244.1 378.5, 243.6 378.1 Q 243.1 377.6, 242.1 377.6 M 242.2 386.8 Q 243.3 386.8, 243.9 386.3 Q 244.5 385.7, 244.5 384.8 Q 244.5 384.2, 244.2 383.8 Q 243.9 383.4, 243.4 383.2 Q 242.9 382.9, 242.0 382.7 L 241.3 382.4 Q 240.5 382.9, 240.1 383.5 Q 239.7 384.0, 239.7 384.8 Q 239.7 385.7, 240.4 386.3 Q 241.1 386.8, 242.2 386.8 " fill="#000000"/>
<path class="legend" d="M 247.2 378.7 Q 247.6 377.6, 248.6 377.0 Q 249.6 376.4, 251.0 376.4 Q 252.7 376.4, 253.6 377.4 Q 254.6 378.3, 254.6 379.9 Q 254.6 381.6, 253.3 383.2 Q 252.1 384.8, 249.6 386.6 L 254.8 386.6 L 254.8 387.9 L 247.2 387.9 L 247.2 386.8 Q 249.3 385.3, 250.5 384.2 Q 251.8 383.1, 252.4 382.1 Q 253.0 381.1, 253.0 380.0 Q 253.0 378.9, 252.5 378.3 Q 251.9 377.7, 251.0 377.7 Q 250.1 377.7, 249.4 378.1 Q 248.8 378.4, 248.4 379.3 L 247.2 378.7 " fill="#000000"/>
<path class="legend" d="M 255.8 378.7 Q 256.2 377.6, 257.2 377.0 Q 258.2 376.4, 259.6 376.4 Q 261.3 376.4, 262.2 377.4 Q 263.2 378.3, 263.2 379.9 Q 263.2 381.6, 261.9 383.2 Q 260.7 384.8, 258.1 386.6 L 263.4 386.6 L 263.4 387.9 L 255.7 387.9 L 255.7 386.8 Q 257.9 385.3, 259.1 384.2 Q 260.4 383.1, 261.0 382.1 Q 261.6 381.1, 261.6 380.0 Q 261.6 378.9, 261.0 378.3 Q 260.5 377.7, 259.6 377.7 Q 258.6 377.7, 258.0 378.1 Q 257.4 378.4, 257.0 379.3 L 255.8 378.7 " fill="#000000"/>
<path class="bond-0 atom-0 atom-1" d="M 418.2,152.7 L 442.7,169.9" style="fill:none;fill-rule:evenodd;stroke:#000000;stroke-width:2.0px;stroke-linecap:butt;stroke-linejoin:miter;stroke-opacity:1"/>
<path class="bond-1 atom-1 atom-2" d="M 442.7,169.9 L 453.8,164.7" style="fill:none;fill-rule:evenodd;stroke:#000000;stroke-width:2.0px;stroke-linecap:butt;stroke-linejoin:miter;stroke-opacity:1"/>
<path class="bond-1 atom-1 atom-2" d="M 453.8,164.7 L 464.9,159.6" style="fill:none;fill-rule:evenodd;stroke:#FF0000;stroke-width:2.0px;stroke-linecap:butt;stroke-linejoin:miter;stroke-opacity:1"/>
<path class="bond-2 atom-2 atom-3" d="M 474.6,160.7 L 484.4,167.6" style="fill:none;fill-rule:evenodd;stroke:#FF0000;stroke-width:2.0px;stroke-linecap:butt;stroke-linejoin:miter;stroke-opacity:1"/>
<path class="bond-2 atom-2 atom-3" d="M 484.4,167.6 L 494.2,174.5" style="fill:none;fill-rule:evenodd;stroke:#000000;stroke-width:2.0px;stroke-linecap:butt;stroke-linejoin:miter;stroke-opacity:1"/>
<path class="bond-3 atom-3 atom-4" d="M 497.2,174.7 L 496.1,187.0" style="fill:none;fill-rule:evenodd;stroke:#000000;stroke-width:2.0px;stroke-linecap:butt;stroke-linejoin:miter;stroke-opacity:1"/>
<path class="bond-3 atom-3 atom-4" d="M 496.1,187.0 L 495.0,199.2" style="fill:none;fill-rule:evenodd;stroke:#FF0000;stroke-width:2.0px;stroke-linecap:butt;stroke-linejoin:miter;stroke-opacity:1"/>
<path class="bond-3 atom-3 atom-4" d="M 491.2,174.2 L 490.2,186.4" style="fill:none;fill-rule:evenodd;stroke:#000000;stroke-width:2.0px;stroke-linecap:butt;stroke-linejoin:miter;stroke-opacity:1"/>
<path class="bond-3 atom-3 atom-4" d="M 490.2,186.4 L 489.1,198.7" style="fill:none;fill-rule:evenodd;stroke:#FF0000;stroke-width:2.0px;stroke-linecap:butt;stroke-linejoin:miter;stroke-opacity:1"/>
<path class="bond-4 atom-3 atom-5" d="M 494.2,174.5 L 521.3,161.8" style="fill:none;fill-rule:evenodd;stroke:#000000;stroke-width:2.0px;stroke-linecap:butt;stroke-linejoin:miter;stroke-opacity:1"/>
<path class="bond-5 atom-5 atom-6" d="M 521.3,161.8 L 545.8,179.0" style="fill:none;fill-rule:evenodd;stroke:#000000;stroke-width:2.0px;stroke-linecap:butt;stroke-linejoin:miter;stroke-opacity:1"/>
<path class="bond-5 atom-5 atom-6" d="M 521.6,169.3 L 538.7,181.3" style="fill:none;fill-rule:evenodd;stroke:#000000;stroke-width:2.0px;stroke-linecap:butt;stroke-linejoin:miter;stroke-opacity:1"/>
<path class="bond-6 atom-6 atom-7" d="M 545.8,179.0 L 543.2,208.8" style="fill:none;fill-rule:evenodd;stroke:#000000;stroke-width:2.0px;stroke-linecap:butt;stroke-linejoin:miter;stroke-opacity:1"/>
<path class="bond-7 atom-6 atom-8" d="M 545.8,179.0 L 572.9,166.4" style="fill:none;fill-rule:evenodd;stroke:#000000;stroke-width:2.0px;stroke-linecap:butt;stroke-linejoin:miter;stroke-opacity:1"/>
<path class="bond-8 atom-8 atom-9" d="M 572.9,166.4 L 597.4,183.6" style="fill:none;fill-rule:evenodd;stroke:#000000;stroke-width:2.0px;stroke-linecap:butt;stroke-linejoin:miter;stroke-opacity:1"/>
<path class="bond-9 atom-9 atom-10" d="M 597.4,183.6 L 608.8,178.2" style="fill:none;fill-rule:evenodd;stroke:#000000;stroke-width:2.0px;stroke-linecap:butt;stroke-linejoin:miter;stroke-opacity:1"/>
<path class="bond-9 atom-9 atom-10" d="M 608.8,178.2 L 620.3,172.9" style="fill:none;fill-rule:evenodd;stroke:#0000FF;stroke-width:2.0px;stroke-linecap:butt;stroke-linejoin:miter;stroke-opacity:1"/>
<path class="bond-10 atom-10 atom-11" d="M 628.7,173.9 L 638.8,181.0" style="fill:none;fill-rule:evenodd;stroke:#0000FF;stroke-width:2.0px;stroke-linecap:butt;stroke-linejoin:miter;stroke-opacity:1"/>
<path class="bond-10 atom-10 atom-11" d="M 638.8,181.0 L 648.9,188.1" style="fill:none;fill-rule:evenodd;stroke:#000000;stroke-width:2.0px;stroke-linecap:butt;stroke-linejoin:miter;stroke-opacity:1"/>
<path class="bond-11 atom-11 atom-12" d="M 651.9,188.4 L 650.8,200.6" style="fill:none;fill-rule:evenodd;stroke:#000000;stroke-width:2.0px;stroke-linecap:butt;stroke-linejoin:miter;stroke-opacity:1"/>
<path class="bond-11 atom-11 atom-12" d="M 650.8,200.6 L 649.8,212.9" style="fill:none;fill-rule:evenodd;stroke:#FF0000;stroke-width:2.0px;stroke-linecap:butt;stroke-linejoin:miter;stroke-opacity:1"/>
<path class="bond-11 atom-11 atom-12" d="M 646.0,187.9 L 644.9,200.1" style="fill:none;fill-rule:evenodd;stroke:#000000;stroke-width:2.0px;stroke-linecap:butt;stroke-linejoin:miter;stroke-opacity:1"/>
<path class="bond-11 atom-11 atom-12" d="M 644.9,200.1 L 643.8,212.4" style="fill:none;fill-rule:evenodd;stroke:#FF0000;stroke-width:2.0px;stroke-linecap:butt;stroke-linejoin:miter;stroke-opacity:1"/>
<path class="bond-12 atom-11 atom-13" d="M 648.9,188.1 L 660.1,183.0" style="fill:none;fill-rule:evenodd;stroke:#000000;stroke-width:2.0px;stroke-linecap:butt;stroke-linejoin:miter;stroke-opacity:1"/>
<path class="bond-12 atom-11 atom-13" d="M 660.1,183.0 L 671.2,177.8" style="fill:none;fill-rule:evenodd;stroke:#FF0000;stroke-width:2.0px;stroke-linecap:butt;stroke-linejoin:miter;stroke-opacity:1"/>
<path class="bond-13 atom-13 atom-14" d="M 680.9,178.9 L 690.7,185.8" style="fill:none;fill-rule:evenodd;stroke:#FF0000;stroke-width:2.0px;stroke-linecap:butt;stroke-linejoin:miter;stroke-opacity:1"/>
<path class="bond-13 atom-13 atom-14" d="M 690.7,185.8 L 700.5,192.7" style="fill:none;fill-rule:evenodd;stroke:#000000;stroke-width:2.0px;stroke-linecap:butt;stroke-linejoin:miter;stroke-opacity:1"/>
<path class="bond-14 atom-14 atom-15" d="M 700.5,192.7 L 727.6,180.1" style="fill:none;fill-rule:evenodd;stroke:#000000;stroke-width:2.0px;stroke-linecap:butt;stroke-linejoin:miter;stroke-opacity:1"/>
<path class="bond-15 atom-15 atom-16" d="M 727.6,180.1 L 730.2,150.3" style="fill:none;fill-rule:evenodd;stroke:#000000;stroke-width:2.0px;stroke-linecap:butt;stroke-linejoin:miter;stroke-opacity:1"/>
<path class="bond-15 atom-15 atom-16" d="M 734.0,176.1 L 735.8,155.3" style="fill:none;fill-rule:evenodd;stroke:#000000;stroke-width:2.0px;stroke-linecap:butt;stroke-linejoin:miter;stroke-opacity:1"/>
<path class="bond-16 atom-16 atom-17" d="M 730.2,150.3 L 757.3,137.7" style="fill:none;fill-rule:evenodd;stroke:#000000;stroke-width:2.0px;stroke-linecap:butt;stroke-linejoin:miter;stroke-opacity:1"/>
<path class="bond-17 atom-17 atom-18" d="M 757.3,137.7 L 781.8,154.9" style="fill:none;fill-rule:evenodd;stroke:#000000;stroke-width:2.0px;stroke-linecap:butt;stroke-linejoin:miter;stroke-opacity:1"/>
<path class="bond-17 atom-17 atom-18" d="M 757.6,145.2 L 774.7,157.2" style="fill:none;fill-rule:evenodd;stroke:#000000;stroke-width:2.0px;stroke-linecap:butt;stroke-linejoin:miter;stroke-opacity:1"/>
<path class="bond-18 atom-18 atom-19" d="M 781.8,154.9 L 779.2,184.6" style="fill:none;fill-rule:evenodd;stroke:#000000;stroke-width:2.0px;stroke-linecap:butt;stroke-linejoin:miter;stroke-opacity:1"/>
<path class="bond-19 atom-19 atom-20" d="M 779.2,184.6 L 752.1,197.2" style="fill:none;fill-rule:evenodd;stroke:#000000;stroke-width:2.0px;stroke-linecap:butt;stroke-linejoin:miter;stroke-opacity:1"/>
<path class="bond-19 atom-19 atom-20" d="M 772.6,181.1 L 753.6,189.9" style="fill:none;fill-rule:evenodd;stroke:#000000;stroke-width:2.0px;stroke-linecap:butt;stroke-linejoin:miter;stroke-opacity:1"/>
<path class="bond-20 atom-20 atom-15" d="M 752.1,197.2 L 727.6,180.1" style="fill:none;fill-rule:evenodd;stroke:#000000;stroke-width:2.0px;stroke-linecap:butt;stroke-linejoin:miter;stroke-opacity:1"/>
<path class="atom-2" d="M 465.9 157.3 Q 465.9 155.3, 466.9 154.1 Q 467.9 153.0, 469.8 153.0 Q 471.6 153.0, 472.6 154.1 Q 473.6 155.3, 473.6 157.3 Q 473.6 159.4, 472.6 160.5 Q 471.6 161.7, 469.8 161.7 Q 467.9 161.7, 466.9 160.5 Q 465.9 159.4, 465.9 157.3 M 469.8 160.7 Q 471.0 160.7, 471.7 159.9 Q 472.4 159.0, 472.4 157.3 Q 472.4 155.6, 471.7 154.8 Q 471.0 154.0, 469.8 154.0 Q 468.5 154.0, 467.8 154.8 Q 467.1 155.6, 467.1 157.3 Q 467.1 159.0, 467.8 159.9 Q 468.5 160.7, 469.8 160.7 " fill="#FF0000"/>
<path class="atom-4" d="M 487.7 204.3 Q 487.7 202.2, 488.7 201.1 Q 489.7 199.9, 491.6 199.9 Q 493.5 199.9, 494.5 201.1 Q 495.5 202.2, 495.5 204.3 Q 495.5 206.3, 494.5 207.5 Q 493.4 208.6, 491.6 208.6 Q 489.7 208.6, 488.7 207.5 Q 487.7 206.3, 487.7 204.3 M 491.6 207.7 Q 492.9 207.7, 493.6 206.8 Q 494.3 205.9, 494.3 204.3 Q 494.3 202.6, 493.6 201.8 Q 492.9 200.9, 491.6 200.9 Q 490.3 200.9, 489.6 201.7 Q 488.9 202.6, 488.9 204.3 Q 488.9 206.0, 489.6 206.8 Q 490.3 207.7, 491.6 207.7 " fill="#FF0000"/>
<path class="atom-10" d="M 622.6 166.7 L 625.4 171.2 Q 625.6 171.7, 626.1 172.5 Q 626.5 173.3, 626.6 173.3 L 626.6 166.7 L 627.7 166.7 L 627.7 175.2 L 626.5 175.2 L 623.5 170.3 Q 623.2 169.7, 622.8 169.1 Q 622.5 168.4, 622.4 168.2 L 622.4 175.2 L 621.3 175.2 L 621.3 166.7 L 622.6 166.7 " fill="#0000FF"/>
<path class="atom-10" d="M 621.2 157.4 L 622.3 157.4 L 622.3 161.0 L 626.6 161.0 L 626.6 157.4 L 627.8 157.4 L 627.8 165.9 L 626.6 165.9 L 626.6 162.0 L 622.3 162.0 L 622.3 165.9 L 621.2 165.9 L 621.2 157.4 " fill="#0000FF"/>
<path class="atom-12" d="M 642.4 217.9 Q 642.4 215.9, 643.4 214.8 Q 644.4 213.6, 646.3 213.6 Q 648.2 213.6, 649.2 214.8 Q 650.2 215.9, 650.2 217.9 Q 650.2 220.0, 649.2 221.2 Q 648.2 222.3, 646.3 222.3 Q 644.4 222.3, 643.4 221.2 Q 642.4 220.0, 642.4 217.9 M 646.3 221.4 Q 647.6 221.4, 648.3 220.5 Q 649.0 219.6, 649.0 217.9 Q 649.0 216.3, 648.3 215.4 Q 647.6 214.6, 646.3 214.6 Q 645.0 214.6, 644.3 215.4 Q 643.6 216.2, 643.6 217.9 Q 643.6 219.6, 644.3 220.5 Q 645.0 221.4, 646.3 221.4 " fill="#FF0000"/>
<path class="atom-13" d="M 672.2 175.5 Q 672.2 173.5, 673.2 172.4 Q 674.2 171.2, 676.0 171.2 Q 677.9 171.2, 678.9 172.4 Q 679.9 173.5, 679.9 175.5 Q 679.9 177.6, 678.9 178.8 Q 677.9 179.9, 676.0 179.9 Q 674.2 179.9, 673.2 178.8 Q 672.2 177.6, 672.2 175.5 M 676.0 179.0 Q 677.3 179.0, 678.0 178.1 Q 678.7 177.2, 678.7 175.5 Q 678.7 173.9, 678.0 173.0 Q 677.3 172.2, 676.0 172.2 Q 674.8 172.2, 674.0 173.0 Q 673.4 173.9, 673.4 175.5 Q 673.4 177.2, 674.0 178.1 Q 674.8 179.0, 676.0 179.0 " fill="#FF0000"/>
<path class="legend" d="M 567.6 365.4 L 567.7 366.5 Q 568.6 365.3, 570.0 365.3 Q 570.5 365.3, 571.1 365.4 L 570.8 366.8 Q 570.1 366.6, 569.8 366.6 Q 569.1 366.6, 568.6 366.9 Q 568.2 367.1, 567.8 367.8 L 567.8 373.6 L 566.3 373.6 L 566.3 365.4 L 567.6 365.4 " fill="#000000"/>
<path class="legend" d="M 571.3 369.5 Q 571.3 367.5, 572.3 366.4 Q 573.3 365.3, 575.2 365.3 Q 577.0 365.3, 577.8 366.4 Q 578.6 367.4, 578.6 369.5 L 578.6 369.7 L 572.8 369.7 Q 572.9 371.1, 573.5 371.8 Q 574.1 372.6, 575.3 372.6 Q 575.9 372.6, 576.5 372.4 Q 577.1 372.3, 577.8 372.0 L 578.3 373.0 Q 577.4 373.4, 576.7 373.6 Q 576.0 373.8, 575.2 373.8 Q 573.4 373.8, 572.3 372.6 Q 571.3 371.5, 571.3 369.5 M 575.2 366.4 Q 574.2 366.4, 573.6 367.0 Q 573.1 367.5, 572.9 368.6 L 577.0 368.6 Q 576.9 367.5, 576.4 367.0 Q 576.0 366.4, 575.2 366.4 " fill="#000000"/>
<path class="legend" d="M 579.2 371.4 Q 579.2 370.1, 580.2 369.4 Q 581.3 368.7, 583.2 368.7 L 584.5 368.7 L 584.5 368.3 Q 584.5 367.3, 584.0 366.9 Q 583.6 366.4, 582.6 366.4 Q 581.9 366.4, 581.4 366.6 Q 580.9 366.7, 580.1 367.0 L 579.7 366.0 Q 581.2 365.3, 582.6 365.3 Q 584.4 365.3, 585.2 366.0 Q 586.0 366.8, 586.0 368.4 L 586.0 373.6 L 584.8 373.6 Q 584.8 373.6, 584.7 373.3 Q 584.7 373.1, 584.6 372.7 Q 583.4 373.8, 581.9 373.8 Q 580.7 373.8, 579.9 373.2 Q 579.2 372.5, 579.2 371.4 M 580.7 371.4 Q 580.7 372.0, 581.1 372.3 Q 581.5 372.6, 582.2 372.6 Q 582.8 372.6, 583.4 372.4 Q 584.0 372.0, 584.5 371.5 L 584.5 369.8 L 583.3 369.8 Q 582.0 369.8, 581.4 370.2 Q 580.7 370.6, 580.7 371.4 " fill="#000000"/>
<path class="legend" d="M 587.2 369.5 Q 587.2 367.5, 588.2 366.4 Q 589.2 365.3, 591.1 365.3 Q 593.0 365.3, 594.0 366.6 L 593.0 367.4 Q 592.6 366.9, 592.1 366.7 Q 591.7 366.4, 591.1 366.4 Q 590.0 366.4, 589.4 367.2 Q 588.7 368.0, 588.7 369.5 Q 588.7 371.0, 589.4 371.8 Q 590.0 372.6, 591.2 372.6 Q 591.9 372.6, 592.4 372.4 Q 592.8 372.3, 593.4 372.0 L 593.8 373.0 Q 592.6 373.7, 591.1 373.7 Q 589.2 373.7, 588.2 372.6 Q 587.2 371.5, 587.2 369.5 " fill="#000000"/>
<path class="legend" d="M 594.4 366.6 L 594.4 365.4 L 595.9 365.4 L 596.2 363.0 L 597.3 363.0 L 597.3 365.4 L 599.8 365.4 L 599.8 366.6 L 597.3 366.6 L 597.3 371.1 Q 597.3 372.5, 598.5 372.5 Q 599.0 372.5, 599.7 372.3 L 599.9 373.4 Q 599.1 373.7, 598.2 373.7 Q 597.2 373.7, 596.5 373.1 Q 595.8 372.4, 595.8 371.2 L 595.8 366.6 L 594.4 366.6 " fill="#000000"/>
<path class="legend" d="M 608.5 374.4 L 608.5 375.7 L 600.3 375.7 L 600.3 374.4 L 608.5 374.4 " fill="#000000"/>
<path class="legend" d="M 612.6 366.5 Q 613.6 366.5, 614.4 367.0 Q 615.2 367.4, 615.7 368.2 Q 616.2 369.0, 616.2 370.0 Q 616.2 371.2, 615.6 372.1 Q 615.0 372.9, 614.1 373.3 Q 613.2 373.8, 612.1 373.8 Q 611.1 373.8, 610.1 373.4 Q 609.2 373.0, 608.5 372.3 L 609.5 371.3 Q 610.0 371.8, 610.7 372.2 Q 611.4 372.5, 612.2 372.5 Q 613.2 372.5, 613.9 371.8 Q 614.6 371.2, 614.6 370.1 Q 614.6 368.9, 613.9 368.3 Q 613.2 367.7, 612.1 367.7 Q 611.1 367.7, 610.0 368.2 L 609.1 367.8 L 609.6 362.3 L 615.5 362.3 L 615.3 363.6 L 611.0 363.6 L 610.6 366.9 Q 611.6 366.5, 612.6 366.5 " fill="#000000"/>
<path class="legend" d="M 621.0 366.5 Q 622.0 366.5, 622.9 367.0 Q 623.7 367.4, 624.1 368.2 Q 624.6 369.0, 624.6 370.0 Q 624.6 371.2, 624.0 372.1 Q 623.5 372.9, 622.5 373.3 Q 621.6 373.8, 620.6 373.8 Q 619.5 373.8, 618.6 373.4 Q 617.6 373.0, 616.9 372.3 L 617.9 371.3 Q 618.4 371.8, 619.1 372.2 Q 619.9 372.5, 620.6 372.5 Q 621.6 372.5, 622.3 371.8 Q 623.0 371.2, 623.0 370.1 Q 623.0 368.9, 622.3 368.3 Q 621.6 367.7, 620.5 367.7 Q 619.5 367.7, 618.4 368.2 L 617.5 367.8 L 618.1 362.3 L 623.9 362.3 L 623.7 363.6 L 619.4 363.6 L 619.0 366.9 Q 620.1 366.5, 621.0 366.5 " fill="#000000"/>
<path class="legend" d="M 629.5 373.8 Q 627.4 373.8, 626.4 372.2 Q 625.4 370.7, 625.4 368.0 Q 625.4 365.2, 626.4 363.7 Q 627.4 362.2, 629.5 362.2 Q 631.6 362.2, 632.6 363.7 Q 633.7 365.2, 633.7 368.0 Q 633.7 370.7, 632.6 372.2 Q 631.6 373.8, 629.5 373.8 M 629.5 372.5 Q 630.7 372.5, 631.4 371.3 Q 632.1 370.2, 632.1 368.0 Q 632.1 365.7, 631.4 364.6 Q 630.7 363.5, 629.5 363.5 Q 628.3 363.5, 627.6 364.6 Q 627.0 365.7, 627.0 368.0 Q 627.0 370.2, 627.6 371.3 Q 628.3 372.5, 629.5 372.5 " fill="#000000"/>
<path class="legend" d="M 536.1 383.8 Q 536.1 381.8, 537.0 380.7 Q 538.0 379.5, 540.0 379.5 Q 541.9 379.5, 542.8 380.9 L 541.8 381.6 Q 541.4 381.2, 541.0 380.9 Q 540.6 380.7, 540.0 380.7 Q 538.9 380.7, 538.2 381.5 Q 537.6 382.3, 537.6 383.8 Q 537.6 385.3, 538.2 386.1 Q 538.9 386.8, 540.1 386.8 Q 540.8 386.8, 541.2 386.7 Q 541.7 386.5, 542.3 386.3 L 542.7 387.3 Q 541.5 388.0, 540.0 388.0 Q 538.0 388.0, 537.0 386.9 Q 536.1 385.7, 536.1 383.8 " fill="#000000"/>
<path class="legend" d="M 543.2 383.8 Q 543.2 381.7, 544.2 380.6 Q 545.2 379.5, 547.1 379.5 Q 548.9 379.5, 549.7 380.6 Q 550.5 381.7, 550.5 383.7 L 550.5 384.0 L 544.8 384.0 Q 544.8 385.4, 545.4 386.1 Q 546.0 386.8, 547.2 386.8 Q 547.8 386.8, 548.4 386.7 Q 549.0 386.5, 549.7 386.2 L 550.2 387.2 Q 549.4 387.6, 548.6 387.8 Q 547.9 388.0, 547.1 388.0 Q 545.3 388.0, 544.2 386.9 Q 543.2 385.8, 543.2 383.8 M 547.1 380.7 Q 546.1 380.7, 545.6 381.2 Q 545.0 381.8, 544.8 382.8 L 548.9 382.8 Q 548.8 381.7, 548.4 381.2 Q 547.9 380.7, 547.1 380.7 " fill="#000000"/>
<path class="legend" d="M 555.4 379.5 Q 556.7 379.5, 557.4 380.3 Q 558.1 381.0, 558.1 382.4 L 558.1 387.9 L 556.6 387.9 L 556.6 382.6 Q 556.6 381.6, 556.2 381.2 Q 555.8 380.7, 555.0 380.7 Q 554.3 380.7, 553.6 381.1 Q 553.0 381.4, 552.6 382.0 L 552.6 387.9 L 551.1 387.9 L 551.1 379.7 L 552.3 379.7 L 552.5 380.8 Q 553.6 379.5, 555.4 379.5 " fill="#000000"/>
<path class="legend" d="M 559.3 380.8 L 559.3 379.7 L 560.9 379.7 L 561.2 377.3 L 562.3 377.3 L 562.3 379.7 L 564.8 379.7 L 564.8 380.8 L 562.3 380.8 L 562.3 385.4 Q 562.3 386.8, 563.5 386.8 Q 564.0 386.8, 564.7 386.6 L 564.9 387.6 Q 564.0 388.0, 563.2 388.0 Q 562.1 388.0, 561.4 387.3 Q 560.8 386.7, 560.8 385.4 L 560.8 380.8 L 559.3 380.8 " fill="#000000"/>
<path class="legend" d="M 573.5 388.7 L 573.5 390.0 L 565.3 390.0 L 565.3 388.7 L 573.5 388.7 " fill="#000000"/>
<path class="legend" d="M 580.9 375.7 L 580.9 387.9 L 579.7 387.9 L 579.5 386.9 Q 578.6 388.0, 577.1 388.0 Q 575.4 388.0, 574.4 387.0 Q 573.5 385.9, 573.5 383.9 Q 573.5 381.8, 574.6 380.7 Q 575.7 379.5, 577.7 379.5 Q 578.5 379.5, 579.4 379.7 L 579.4 375.7 L 580.9 375.7 M 577.2 386.8 Q 578.0 386.8, 578.6 386.4 Q 579.2 385.9, 579.4 385.1 L 579.4 380.9 Q 578.6 380.7, 577.7 380.7 Q 576.5 380.7, 575.7 381.6 Q 575.0 382.4, 575.0 383.9 Q 575.0 385.3, 575.6 386.1 Q 576.1 386.8, 577.2 386.8 " fill="#000000"/>
<path class="legend" d="M 582.2 376.6 L 583.7 376.6 L 583.7 378.0 L 582.2 378.0 L 582.2 376.6 M 582.2 379.7 L 583.7 379.7 L 583.7 387.9 L 582.2 387.9 L 582.2 379.7 " fill="#000000"/>
<path class="legend" d="M 585.5 386.2 Q 586.3 386.5, 586.8 386.6 Q 587.3 386.8, 587.9 386.8 Q 588.6 386.8, 589.0 386.5 Q 589.4 386.2, 589.4 385.6 Q 589.4 385.2, 589.2 385.0 Q 589.0 384.8, 588.7 384.6 Q 588.4 384.5, 587.7 384.3 Q 587.6 384.3, 586.9 384.0 Q 586.1 383.7, 585.7 383.2 Q 585.3 382.7, 585.3 381.9 Q 585.3 380.9, 586.1 380.2 Q 586.9 379.5, 588.4 379.5 Q 589.0 379.5, 589.5 379.7 Q 590.1 379.8, 590.7 380.0 L 590.3 381.2 Q 589.8 381.0, 589.3 380.9 Q 588.9 380.8, 588.4 380.8 Q 587.6 380.8, 587.2 381.1 Q 586.9 381.4, 586.9 381.8 Q 586.9 382.3, 587.2 382.5 Q 587.5 382.7, 588.1 383.0 Q 588.3 383.0, 588.5 383.1 L 588.8 383.2 Q 589.5 383.4, 589.9 383.7 Q 590.3 383.9, 590.6 384.4 Q 590.9 384.8, 590.9 385.6 Q 590.9 386.7, 590.1 387.4 Q 589.2 388.0, 587.9 388.0 Q 587.1 388.0, 586.4 387.9 Q 585.7 387.7, 585.1 387.4 L 585.5 386.2 " fill="#000000"/>
<path class="legend" d="M 591.7 380.8 L 591.7 379.7 L 593.3 379.7 L 593.6 377.3 L 594.7 377.3 L 594.7 379.7 L 597.2 379.7 L 597.2 380.8 L 594.7 380.8 L 594.7 385.4 Q 594.7 386.8, 595.9 386.8 Q 596.4 386.8, 597.1 386.6 L 597.3 387.6 Q 596.5 388.0, 595.6 388.0 Q 594.5 388.0, 593.9 387.3 Q 593.2 386.7, 593.2 385.4 L 593.2 380.8 L 591.7 380.8 " fill="#000000"/>
<path class="legend" d="" fill="#000000"/>
<path class="legend" d="M 603.1 380.9 L 610.4 380.9 L 610.4 382.1 L 603.1 382.1 L 603.1 380.9 M 603.1 384.4 L 610.4 384.4 L 610.4 385.5 L 603.1 385.5 L 603.1 384.4 " fill="#000000"/>
<path class="legend" d="" fill="#000000"/>
<path class="legend" d="M 621.3 388.0 Q 619.2 388.0, 618.2 386.5 Q 617.2 384.9, 617.2 382.2 Q 617.2 379.5, 618.2 378.0 Q 619.2 376.4, 621.3 376.4 Q 623.4 376.4, 624.4 378.0 Q 625.5 379.5, 625.5 382.2 Q 625.5 384.9, 624.4 386.5 Q 623.4 388.0, 621.3 388.0 M 621.3 386.7 Q 622.6 386.7, 623.2 385.6 Q 623.9 384.4, 623.9 382.2 Q 623.9 380.0, 623.2 378.8 Q 622.6 377.7, 621.3 377.7 Q 620.1 377.7, 619.4 378.8 Q 618.8 380.0, 618.8 382.2 Q 618.8 384.4, 619.4 385.6 Q 620.1 386.7, 621.3 386.7 " fill="#000000"/>
<path class="legend" d="M 626.5 386.3 L 628.1 386.3 L 628.1 387.9 L 626.5 387.9 L 626.5 386.3 " fill="#000000"/>
<path class="legend" d="M 635.1 377.8 L 629.1 377.8 L 629.1 376.6 L 636.7 376.6 L 636.7 377.7 L 632.1 387.9 L 630.6 387.9 L 635.1 377.8 " fill="#000000"/>
<path class="legend" d="M 644.5 384.0 L 645.9 384.0 L 645.9 385.3 L 644.5 385.3 L 644.5 387.9 L 643.0 387.9 L 643.0 385.3 L 637.1 385.3 L 637.1 384.3 L 642.1 376.6 L 644.5 376.6 L 644.5 384.0 M 639.0 384.0 L 643.0 384.0 L 643.0 377.6 L 639.0 384.0 " fill="#000000"/>
<path class="legend" d="M 646.7 378.7 Q 647.1 377.6, 648.1 377.0 Q 649.1 376.4, 650.4 376.4 Q 652.2 376.4, 653.1 377.4 Q 654.1 378.3, 654.1 379.9 Q 654.1 381.6, 652.8 383.2 Q 651.6 384.8, 649.0 386.6 L 654.3 386.6 L 654.3 387.9 L 646.6 387.9 L 646.6 386.8 Q 648.7 385.3, 650.0 384.2 Q 651.3 383.1, 651.9 382.1 Q 652.5 381.1, 652.5 380.0 Q 652.5 378.9, 651.9 378.3 Q 651.4 377.7, 650.4 377.7 Q 649.5 377.7, 648.9 378.1 Q 648.3 378.4, 647.9 379.3 L 646.7 378.7 " fill="#000000"/>
<path class="legend" d="M 662.6 384.0 L 663.9 384.0 L 663.9 385.3 L 662.6 385.3 L 662.6 387.9 L 661.1 387.9 L 661.1 385.3 L 655.2 385.3 L 655.2 384.3 L 660.2 376.6 L 662.6 376.6 L 662.6 384.0 M 657.1 384.0 L 661.1 384.0 L 661.1 377.6 L 657.1 384.0 " fill="#000000"/>
<path class="bond-0 atom-0 atom-1" d="M 856.3,183.3 L 883.3,170.4" style="fill:none;fill-rule:evenodd;stroke:#000000;stroke-width:2.0px;stroke-linecap:butt;stroke-linejoin:miter;stroke-opacity:1"/>
<path class="bond-1 atom-1 atom-2" d="M 883.3,170.4 L 907.9,187.3" style="fill:none;fill-rule:evenodd;stroke:#000000;stroke-width:2.0px;stroke-linecap:butt;stroke-linejoin:miter;stroke-opacity:1"/>
<path class="bond-2 atom-2 atom-3" d="M 907.9,187.3 L 934.9,174.4" style="fill:none;fill-rule:evenodd;stroke:#000000;stroke-width:2.0px;stroke-linecap:butt;stroke-linejoin:miter;stroke-opacity:1"/>
<path class="bond-3 atom-3 atom-4" d="M 934.9,174.4 L 959.6,191.3" style="fill:none;fill-rule:evenodd;stroke:#000000;stroke-width:2.0px;stroke-linecap:butt;stroke-linejoin:miter;stroke-opacity:1"/>
<path class="bond-4 atom-4 atom-5" d="M 959.6,191.3 L 986.5,178.4" style="fill:none;fill-rule:evenodd;stroke:#000000;stroke-width:2.0px;stroke-linecap:butt;stroke-linejoin:miter;stroke-opacity:1"/>
<path class="bond-5 atom-5 atom-6" d="M 986.5,178.4 L 988.8,148.6" style="fill:none;fill-rule:evenodd;stroke:#000000;stroke-width:2.0px;stroke-linecap:butt;stroke-linejoin:miter;stroke-opacity:1"/>
<path class="bond-6 atom-5 atom-7" d="M 986.5,178.4 L 1011.2,195.3" style="fill:none;fill-rule:evenodd;stroke:#000000;stroke-width:2.0px;stroke-linecap:butt;stroke-linejoin:miter;stroke-opacity:1"/>
<path class="bond-6 atom-5 atom-7" d="M 986.8,185.9 L 1004.1,197.7" style="fill:none;fill-rule:evenodd;stroke:#000000;stroke-width:2.0px;stroke-linecap:butt;stroke-linejoin:miter;stroke-opacity:1"/>
<path class="bond-7 atom-7 atom-8" d="M 1011.2,195.3 L 1038.1,182.4" style="fill:none;fill-rule:evenodd;stroke:#000000;stroke-width:2.0px;stroke-linecap:butt;stroke-linejoin:miter;stroke-opacity:1"/>
<path class="bond-8 atom-8 atom-9" d="M 1038.1,182.4 L 1048.0,189.2" style="fill:none;fill-rule:evenodd;stroke:#000000;stroke-width:2.0px;stroke-linecap:butt;stroke-linejoin:miter;stroke-opacity:1"/>
<path class="bond-8 atom-8 atom-9" d="M 1048.0,189.2 L 1057.9,196.0" style="fill:none;fill-rule:evenodd;stroke:#FF0000;stroke-width:2.0px;stroke-linecap:butt;stroke-linejoin:miter;stroke-opacity:1"/>
<path class="bond-9 atom-9 atom-10" d="M 1067.7,197.0 L 1076.4,192.8" style="fill:none;fill-rule:evenodd;stroke:#FF0000;stroke-width:2.0px;stroke-linecap:butt;stroke-linejoin:miter;stroke-opacity:1"/>
<path class="bond-9 atom-9 atom-10" d="M 1076.4,192.8 L 1085.2,188.6" style="fill:none;fill-rule:evenodd;stroke:#000000;stroke-width:2.0px;stroke-linecap:butt;stroke-linejoin:miter;stroke-opacity:1"/>
<path class="bond-10 atom-10 atom-11" d="M 1092.4,191.9 L 1102.7,213.4" style="fill:none;fill-rule:evenodd;stroke:#000000;stroke-width:2.0px;stroke-linecap:butt;stroke-linejoin:miter;stroke-opacity:1"/>
<path class="bond-11 atom-10 atom-12" d="M 1087.3,181.3 L 1076.9,159.5" style="fill:none;fill-rule:evenodd;stroke:#000000;stroke-width:2.0px;stroke-linecap:butt;stroke-linejoin:miter;stroke-opacity:1"/>
<path class="bond-12 atom-10 atom-13" d="M 1094.3,184.3 L 1116.7,173.6" style="fill:none;fill-rule:evenodd;stroke:#000000;stroke-width:2.0px;stroke-linecap:butt;stroke-linejoin:miter;stroke-opacity:1"/>
<path class="bond-13 atom-13 atom-14" d="M 1116.7,173.6 L 1103.8,146.6" style="fill:none;fill-rule:evenodd;stroke:#000000;stroke-width:2.0px;stroke-linecap:butt;stroke-linejoin:miter;stroke-opacity:1"/>
<path class="bond-14 atom-13 atom-15" d="M 1116.7,173.6 L 1129.6,200.5" style="fill:none;fill-rule:evenodd;stroke:#000000;stroke-width:2.0px;stroke-linecap:butt;stroke-linejoin:miter;stroke-opacity:1"/>
<path class="bond-15 atom-13 atom-16" d="M 1116.7,173.6 L 1143.7,160.7" style="fill:none;fill-rule:evenodd;stroke:#000000;stroke-width:2.0px;stroke-linecap:butt;stroke-linejoin:miter;stroke-opacity:1"/>
<path class="atom-9" d="M 1058.9 199.4 Q 1058.9 197.3, 1059.9 196.2 Q 1060.9 195.1, 1062.8 195.1 Q 1064.7 195.1, 1065.7 196.2 Q 1066.7 197.3, 1066.7 199.4 Q 1066.7 201.4, 1065.7 202.6 Q 1064.6 203.8, 1062.8 203.8 Q 1060.9 203.8, 1059.9 202.6 Q 1058.9 201.4, 1058.9 199.4 M 1062.8 202.8 Q 1064.1 202.8, 1064.8 201.9 Q 1065.5 201.1, 1065.5 199.4 Q 1065.5 197.7, 1064.8 196.9 Q 1064.1 196.0, 1062.8 196.0 Q 1061.5 196.0, 1060.8 196.9 Q 1060.1 197.7, 1060.1 199.4 Q 1060.1 201.1, 1060.8 201.9 Q 1061.5 202.8, 1062.8 202.8 " fill="#FF0000"/>
<path class="atom-10" d="M 1086.5 189.4 Q 1086.6 189.4, 1087.0 189.6 Q 1087.4 189.7, 1087.8 189.8 Q 1088.3 189.9, 1088.7 189.9 Q 1089.5 189.9, 1090.0 189.6 Q 1090.5 189.2, 1090.5 188.5 Q 1090.5 188.0, 1090.2 187.7 Q 1090.0 187.4, 1089.6 187.3 Q 1089.3 187.1, 1088.7 187.0 Q 1087.9 186.7, 1087.5 186.5 Q 1087.0 186.3, 1086.7 185.8 Q 1086.4 185.4, 1086.4 184.6 Q 1086.4 183.6, 1087.1 182.9 Q 1087.8 182.2, 1089.3 182.2 Q 1090.2 182.2, 1091.4 182.7 L 1091.1 183.6 Q 1090.1 183.2, 1089.3 183.2 Q 1088.5 183.2, 1088.0 183.6 Q 1087.6 183.9, 1087.6 184.5 Q 1087.6 184.9, 1087.8 185.2 Q 1088.0 185.5, 1088.4 185.6 Q 1088.7 185.8, 1089.3 186.0 Q 1090.1 186.2, 1090.5 186.4 Q 1091.0 186.7, 1091.3 187.2 Q 1091.6 187.7, 1091.6 188.5 Q 1091.6 189.7, 1090.8 190.3 Q 1090.1 190.9, 1088.8 190.9 Q 1088.0 190.9, 1087.4 190.7 Q 1086.9 190.6, 1086.2 190.3 L 1086.5 189.4 " fill="#000000"/>
<path class="atom-10" d="M 1092.2 182.2 L 1093.3 182.2 L 1093.3 183.3 L 1092.2 183.3 L 1092.2 182.2 M 1092.2 184.5 L 1093.3 184.5 L 1093.3 190.7 L 1092.2 190.7 L 1092.2 184.5 " fill="#000000"/>
<path class="legend" d="M 967.8 365.4 L 968.0 366.5 Q 968.9 365.3, 970.3 365.3 Q 970.7 365.3, 971.3 365.4 L 971.1 366.8 Q 970.4 366.6, 970.0 366.6 Q 969.3 366.6, 968.9 366.9 Q 968.5 367.1, 968.1 367.8 L 968.1 373.6 L 966.6 373.6 L 966.6 365.4 L 967.8 365.4 " fill="#000000"/>
<path class="legend" d="M 971.6 369.5 Q 971.6 367.5, 972.6 366.4 Q 973.6 365.3, 975.4 365.3 Q 977.2 365.3, 978.0 366.4 Q 978.8 367.4, 978.8 369.5 L 978.8 369.7 L 973.1 369.7 Q 973.1 371.1, 973.8 371.8 Q 974.4 372.6, 975.6 372.6 Q 976.2 372.6, 976.8 372.4 Q 977.4 372.3, 978.1 372.0 L 978.5 373.0 Q 977.7 373.4, 977.0 373.6 Q 976.2 373.8, 975.5 373.8 Q 973.6 373.8, 972.6 372.6 Q 971.6 371.5, 971.6 369.5 M 975.4 366.4 Q 974.5 366.4, 973.9 367.0 Q 973.3 367.5, 973.2 368.6 L 977.3 368.6 Q 977.2 367.5, 976.7 367.0 Q 976.3 366.4, 975.4 366.4 " fill="#000000"/>
<path class="legend" d="M 979.5 371.4 Q 979.5 370.1, 980.5 369.4 Q 981.6 368.7, 983.5 368.7 L 984.7 368.7 L 984.7 368.3 Q 984.7 367.3, 984.3 366.9 Q 983.9 366.4, 982.8 366.4 Q 982.2 366.4, 981.7 366.6 Q 981.2 366.7, 980.4 367.0 L 979.9 366.0 Q 981.4 365.3, 982.9 365.3 Q 984.6 365.3, 985.4 366.0 Q 986.2 366.8, 986.2 368.4 L 986.2 373.6 L 985.1 373.6 Q 985.0 373.6, 985.0 373.3 Q 984.9 373.1, 984.8 372.7 Q 983.7 373.8, 982.2 373.8 Q 980.9 373.8, 980.2 373.2 Q 979.5 372.5, 979.5 371.4 M 981.0 371.4 Q 981.0 372.0, 981.3 372.3 Q 981.7 372.6, 982.4 372.6 Q 983.1 372.6, 983.7 372.4 Q 984.3 372.0, 984.7 371.5 L 984.7 369.8 L 983.6 369.8 Q 982.3 369.8, 981.6 370.2 Q 981.0 370.6, 981.0 371.4 " fill="#000000"/>
<path class="legend" d="M 987.5 369.5 Q 987.5 367.5, 988.4 366.4 Q 989.4 365.3, 991.4 365.3 Q 993.3 365.3, 994.2 366.6 L 993.2 367.4 Q 992.8 366.9, 992.4 366.7 Q 992.0 366.4, 991.4 366.4 Q 990.3 366.4, 989.6 367.2 Q 989.0 368.0, 989.0 369.5 Q 989.0 371.0, 989.6 371.8 Q 990.3 372.6, 991.5 372.6 Q 992.2 372.6, 992.6 372.4 Q 993.1 372.3, 993.7 372.0 L 994.1 373.0 Q 992.9 373.7, 991.4 373.7 Q 989.4 373.7, 988.4 372.6 Q 987.5 371.5, 987.5 369.5 " fill="#000000"/>
<path class="legend" d="M 994.6 366.6 L 994.6 365.4 L 996.2 365.4 L 996.4 363.0 L 997.6 363.0 L 997.6 365.4 L 1000.1 365.4 L 1000.1 366.6 L 997.6 366.6 L 997.6 371.1 Q 997.6 372.5, 998.8 372.5 Q 999.2 372.5, 1000.0 372.3 L 1000.2 373.4 Q 999.3 373.7, 998.5 373.7 Q 997.4 373.7, 996.7 373.1 Q 996.1 372.4, 996.1 371.2 L 996.1 366.6 L 994.6 366.6 " fill="#000000"/>
<path class="legend" d="M 1008.8 374.4 L 1008.8 375.7 L 1000.6 375.7 L 1000.6 374.4 L 1008.8 374.4 " fill="#000000"/>
<path class="legend" d="M 1016.1 369.7 L 1017.5 369.7 L 1017.5 371.0 L 1016.1 371.0 L 1016.1 373.6 L 1014.6 373.6 L 1014.6 371.0 L 1008.8 371.0 L 1008.8 370.0 L 1013.7 362.3 L 1016.1 362.3 L 1016.1 369.7 M 1010.6 369.7 L 1014.6 369.7 L 1014.6 363.3 L 1010.6 369.7 " fill="#000000"/>
<path class="legend" d="M 1018.9 372.4 L 1021.4 372.4 L 1021.4 363.9 L 1018.6 364.7 L 1018.3 363.8 L 1021.7 362.2 L 1022.9 362.4 L 1022.9 372.4 L 1025.1 372.4 L 1025.1 373.6 L 1018.9 373.6 L 1018.9 372.4 " fill="#000000"/>
<path class="legend" d="M 1031.2 367.7 Q 1032.3 368.0, 1032.8 368.7 Q 1033.4 369.4, 1033.4 370.5 Q 1033.4 371.5, 1032.9 372.2 Q 1032.4 373.0, 1031.6 373.4 Q 1030.7 373.8, 1029.5 373.8 Q 1028.3 373.8, 1027.4 373.4 Q 1026.5 372.9, 1025.8 372.1 L 1026.7 371.2 Q 1027.4 371.9, 1028.0 372.2 Q 1028.6 372.5, 1029.5 372.5 Q 1030.5 372.5, 1031.2 372.0 Q 1031.8 371.4, 1031.8 370.5 Q 1031.8 369.4, 1031.1 368.8 Q 1030.5 368.3, 1029.1 368.3 L 1028.3 368.3 L 1028.3 367.2 L 1029.0 367.2 Q 1030.2 367.2, 1030.9 366.6 Q 1031.6 366.1, 1031.6 365.1 Q 1031.6 364.3, 1031.0 363.9 Q 1030.5 363.5, 1029.5 363.5 Q 1028.6 363.5, 1028.0 363.8 Q 1027.4 364.1, 1027.0 365.0 L 1025.9 364.4 Q 1026.3 363.4, 1027.2 362.8 Q 1028.2 362.2, 1029.5 362.2 Q 1031.2 362.2, 1032.2 363.0 Q 1033.2 363.7, 1033.2 365.1 Q 1033.2 366.0, 1032.7 366.6 Q 1032.2 367.3, 1031.2 367.7 " fill="#000000"/>
<path class="legend" d="M 936.6 383.8 Q 936.6 381.8, 937.6 380.7 Q 938.6 379.5, 940.6 379.5 Q 942.4 379.5, 943.4 380.9 L 942.4 381.6 Q 942.0 381.2, 941.6 380.9 Q 941.1 380.7, 940.6 380.7 Q 939.4 380.7, 938.8 381.5 Q 938.2 382.3, 938.2 383.8 Q 938.2 385.3, 938.8 386.1 Q 939.5 386.8, 940.7 386.8 Q 941.3 386.8, 941.8 386.7 Q 942.3 386.5, 942.8 386.3 L 943.3 387.3 Q 942.1 388.0, 940.6 388.0 Q 938.6 388.0, 937.6 386.9 Q 936.6 385.7, 936.6 383.8 " fill="#000000"/>
<path class="legend" d="M 943.8 383.8 Q 943.8 381.7, 944.8 380.6 Q 945.8 379.5, 947.7 379.5 Q 949.5 379.5, 950.3 380.6 Q 951.1 381.7, 951.1 383.7 L 951.1 384.0 L 945.3 384.0 Q 945.4 385.4, 946.0 386.1 Q 946.6 386.8, 947.8 386.8 Q 948.4 386.8, 949.0 386.7 Q 949.6 386.5, 950.3 386.2 L 950.8 387.2 Q 949.9 387.6, 949.2 387.8 Q 948.5 388.0, 947.7 388.0 Q 945.9 388.0, 944.8 386.9 Q 943.8 385.8, 943.8 383.8 M 947.7 380.7 Q 946.7 380.7, 946.1 381.2 Q 945.6 381.8, 945.4 382.8 L 949.5 382.8 Q 949.4 381.7, 948.9 381.2 Q 948.5 380.7, 947.7 380.7 " fill="#000000"/>
<path class="legend" d="M 956.0 379.5 Q 957.3 379.5, 958.0 380.3 Q 958.7 381.0, 958.7 382.4 L 958.7 387.9 L 957.2 387.9 L 957.2 382.6 Q 957.2 381.6, 956.8 381.2 Q 956.4 380.7, 955.6 380.7 Q 954.8 380.7, 954.2 381.1 Q 953.6 381.4, 953.2 382.0 L 953.2 387.9 L 951.7 387.9 L 951.7 379.7 L 952.9 379.7 L 953.1 380.8 Q 954.2 379.5, 956.0 379.5 " fill="#000000"/>
<path class="legend" d="M 959.9 380.8 L 959.9 379.7 L 961.5 379.7 L 961.7 377.3 L 962.9 377.3 L 962.9 379.7 L 965.4 379.7 L 965.4 380.8 L 962.9 380.8 L 962.9 385.4 Q 962.9 386.8, 964.1 386.8 Q 964.5 386.8, 965.2 386.6 L 965.5 387.6 Q 964.6 388.0, 963.8 388.0 Q 962.7 388.0, 962.0 387.3 Q 961.4 386.7, 961.4 385.4 L 961.4 380.8 L 959.9 380.8 " fill="#000000"/>
<path class="legend" d="M 974.1 388.7 L 974.1 390.0 L 965.9 390.0 L 965.9 388.7 L 974.1 388.7 " fill="#000000"/>
<path class="legend" d="M 981.5 375.7 L 981.5 387.9 L 980.3 387.9 L 980.1 386.9 Q 979.2 388.0, 977.7 388.0 Q 976.0 388.0, 975.0 387.0 Q 974.1 385.9, 974.1 383.9 Q 974.1 381.8, 975.2 380.7 Q 976.3 379.5, 978.3 379.5 Q 979.1 379.5, 980.0 379.7 L 980.0 375.7 L 981.5 375.7 M 977.8 386.8 Q 978.6 386.8, 979.2 386.4 Q 979.8 385.9, 980.0 385.1 L 980.0 380.9 Q 979.2 380.7, 978.3 380.7 Q 977.0 380.7, 976.3 381.6 Q 975.6 382.4, 975.6 383.9 Q 975.6 385.3, 976.2 386.1 Q 976.7 386.8, 977.8 386.8 " fill="#000000"/>
<path class="legend" d="M 982.8 376.6 L 984.3 376.6 L 984.3 378.0 L 982.8 378.0 L 982.8 376.6 M 982.8 379.7 L 984.3 379.7 L 984.3 387.9 L 982.8 387.9 L 982.8 379.7 " fill="#000000"/>
<path class="legend" d="M 986.1 386.2 Q 986.8 386.5, 987.4 386.6 Q 987.9 386.8, 988.4 386.8 Q 989.2 386.8, 989.6 386.5 Q 990.0 386.2, 990.0 385.6 Q 990.0 385.2, 989.8 385.0 Q 989.5 384.8, 989.3 384.6 Q 989.0 384.5, 988.3 384.3 Q 988.2 384.3, 987.5 384.0 Q 986.7 383.7, 986.3 383.2 Q 985.9 382.7, 985.9 381.9 Q 985.9 380.9, 986.7 380.2 Q 987.5 379.5, 989.0 379.5 Q 989.6 379.5, 990.1 379.7 Q 990.7 379.8, 991.3 380.0 L 990.9 381.2 Q 990.4 381.0, 989.9 380.9 Q 989.5 380.8, 989.0 380.8 Q 988.2 380.8, 987.8 381.1 Q 987.4 381.4, 987.4 381.8 Q 987.4 382.3, 987.7 382.5 Q 988.0 382.7, 988.7 383.0 Q 988.9 383.0, 989.0 383.1 L 989.4 383.2 Q 990.1 383.4, 990.5 383.7 Q 990.9 383.9, 991.2 384.4 Q 991.5 384.8, 991.5 385.6 Q 991.5 386.7, 990.6 387.4 Q 989.8 388.0, 988.5 388.0 Q 987.7 388.0, 987.0 387.9 Q 986.3 387.7, 985.7 387.4 L 986.1 386.2 " fill="#000000"/>
<path class="legend" d="M 992.3 380.8 L 992.3 379.7 L 993.9 379.7 L 994.2 377.3 L 995.3 377.3 L 995.3 379.7 L 997.8 379.7 L 997.8 380.8 L 995.3 380.8 L 995.3 385.4 Q 995.3 386.8, 996.5 386.8 Q 997.0 386.8, 997.7 386.6 L 997.9 387.6 Q 997.0 388.0, 996.2 388.0 Q 995.1 388.0, 994.4 387.3 Q 993.8 386.7, 993.8 385.4 L 993.8 380.8 L 992.3 380.8 " fill="#000000"/>
<path class="legend" d="" fill="#000000"/>
<path class="legend" d="M 1003.6 380.9 L 1011.0 380.9 L 1011.0 382.1 L 1003.6 382.1 L 1003.6 380.9 M 1003.6 384.4 L 1011.0 384.4 L 1011.0 385.5 L 1003.6 385.5 L 1003.6 384.4 " fill="#000000"/>
<path class="legend" d="" fill="#000000"/>
<path class="legend" d="M 1021.9 388.0 Q 1019.8 388.0, 1018.8 386.5 Q 1017.8 384.9, 1017.8 382.2 Q 1017.8 379.5, 1018.8 378.0 Q 1019.8 376.4, 1021.9 376.4 Q 1024.0 376.4, 1025.0 378.0 Q 1026.1 379.5, 1026.1 382.2 Q 1026.1 384.9, 1025.0 386.5 Q 1024.0 388.0, 1021.9 388.0 M 1021.9 386.7 Q 1023.1 386.7, 1023.8 385.6 Q 1024.5 384.4, 1024.5 382.2 Q 1024.5 380.0, 1023.8 378.8 Q 1023.1 377.7, 1021.9 377.7 Q 1020.7 377.7, 1020.0 378.8 Q 1019.4 380.0, 1019.4 382.2 Q 1019.4 384.4, 1020.0 385.6 Q 1020.7 386.7, 1021.9 386.7 " fill="#000000"/>
<path class="legend" d="M 1027.1 386.3 L 1028.7 386.3 L 1028.7 387.9 L 1027.1 387.9 L 1027.1 386.3 " fill="#000000"/>
<path class="legend" d="M 1035.5 381.9 Q 1036.5 382.3, 1037.1 383.0 Q 1037.7 383.7, 1037.7 384.8 Q 1037.7 385.7, 1037.2 386.5 Q 1036.7 387.2, 1035.8 387.6 Q 1035.0 388.0, 1033.8 388.0 Q 1031.9 388.0, 1030.8 387.2 Q 1029.7 386.3, 1029.7 384.8 Q 1029.7 383.9, 1030.2 383.2 Q 1030.7 382.5, 1031.7 381.9 Q 1030.9 381.5, 1030.5 380.9 Q 1030.1 380.3, 1030.1 379.3 Q 1030.1 378.0, 1031.1 377.2 Q 1032.1 376.4, 1033.7 376.4 Q 1035.4 376.4, 1036.3 377.2 Q 1037.3 378.0, 1037.3 379.3 Q 1037.3 380.2, 1036.9 380.8 Q 1036.4 381.4, 1035.5 381.9 M 1033.7 377.6 Q 1032.8 377.6, 1032.3 378.1 Q 1031.7 378.5, 1031.7 379.3 Q 1031.7 379.9, 1032.1 380.3 Q 1032.5 380.7, 1032.9 380.9 Q 1033.5 381.2, 1034.4 381.5 Q 1035.1 381.0, 1035.4 380.5 Q 1035.7 380.0, 1035.7 379.3 Q 1035.7 378.5, 1035.2 378.1 Q 1034.7 377.6, 1033.7 377.6 M 1033.8 386.8 Q 1034.9 386.8, 1035.5 386.3 Q 1036.1 385.7, 1036.1 384.8 Q 1036.1 384.2, 1035.8 383.8 Q 1035.5 383.4, 1034.9 383.2 Q 1034.5 382.9, 1033.6 382.7 L 1032.8 382.4 Q 1032.0 382.9, 1031.7 383.5 Q 1031.3 384.0, 1031.3 384.8 Q 1031.3 385.7, 1032.0 386.3 Q 1032.7 386.8, 1033.8 386.8 " fill="#000000"/>
<path class="legend" d="M 1044.2 381.9 Q 1045.3 382.2, 1045.8 383.0 Q 1046.4 383.7, 1046.4 384.8 Q 1046.4 385.7, 1045.9 386.5 Q 1045.4 387.2, 1044.5 387.6 Q 1043.6 388.0, 1042.5 388.0 Q 1041.3 388.0, 1040.4 387.6 Q 1039.5 387.2, 1038.7 386.3 L 1039.7 385.4 Q 1040.4 386.2, 1040.9 386.5 Q 1041.5 386.8, 1042.5 386.8 Q 1043.5 386.8, 1044.1 386.2 Q 1044.8 385.7, 1044.8 384.8 Q 1044.8 383.6, 1044.1 383.1 Q 1043.5 382.6, 1042.1 382.6 L 1041.3 382.6 L 1041.3 381.4 L 1042.0 381.4 Q 1043.2 381.4, 1043.9 380.9 Q 1044.5 380.3, 1044.5 379.3 Q 1044.5 378.6, 1044.0 378.2 Q 1043.4 377.7, 1042.5 377.7 Q 1041.6 377.7, 1041.0 378.0 Q 1040.4 378.4, 1039.9 379.2 L 1038.8 378.6 Q 1039.2 377.7, 1040.2 377.1 Q 1041.2 376.4, 1042.5 376.4 Q 1044.2 376.4, 1045.1 377.2 Q 1046.1 378.0, 1046.1 379.3 Q 1046.1 380.2, 1045.6 380.9 Q 1045.1 381.6, 1044.2 381.9 " fill="#000000"/>
<path class="legend" d="M 1051.4 380.8 Q 1052.4 380.8, 1053.2 381.2 Q 1054.0 381.6, 1054.5 382.4 Q 1055.0 383.2, 1055.0 384.3 Q 1055.0 385.5, 1054.4 386.3 Q 1053.8 387.2, 1052.9 387.6 Q 1052.0 388.0, 1050.9 388.0 Q 1049.9 388.0, 1048.9 387.6 Q 1048.0 387.2, 1047.3 386.5 L 1048.3 385.5 Q 1048.8 386.1, 1049.5 386.4 Q 1050.2 386.7, 1051.0 386.7 Q 1052.0 386.7, 1052.7 386.1 Q 1053.4 385.5, 1053.4 384.3 Q 1053.4 383.1, 1052.7 382.6 Q 1052.0 382.0, 1050.9 382.0 Q 1049.9 382.0, 1048.8 382.4 L 1047.9 382.0 L 1048.4 376.6 L 1054.3 376.6 L 1054.1 377.8 L 1049.7 377.8 L 1049.4 381.2 Q 1050.4 380.8, 1051.4 380.8 " fill="#000000"/>
<path class="legend" d="M 1055.8 378.7 Q 1056.2 377.6, 1057.2 377.0 Q 1058.2 376.4, 1059.5 376.4 Q 1061.3 376.4, 1062.2 377.4 Q 1063.2 378.3, 1063.2 379.9 Q 1063.2 381.6, 1061.9 383.2 Q 1060.7 384.8, 1058.1 386.6 L 1063.4 386.6 L 1063.4 387.9 L 1055.7 387.9 L 1055.7 386.8 Q 1057.8 385.3, 1059.1 384.2 Q 1060.4 383.1, 1061.0 382.1 Q 1061.6 381.1, 1061.6 380.0 Q 1061.6 378.9, 1061.0 378.3 Q 1060.5 377.7, 1059.5 377.7 Q 1058.6 377.7, 1058.0 378.1 Q 1057.4 378.4, 1057.0 379.3 L 1055.8 378.7 " fill="#000000"/>
</svg>