<svg xmlns="http://www.w3.org/2000/svg" xmlns:rdkit="http://www.rdkit.org/xml" xmlns:xlink="http://www.w3.org/1999/xlink" version="1.1" baseProfile="full" xml:space="preserve" width="2000px" height="400px" viewBox="0 0 2000 400">
<!-- END OF HEADER -->
<rect style="opacity:1.0;fill:#FFFFFF;stroke:none" width="2000.0" height="400.0" x="0.0" y="0.0"> </rect>
<path class="bond-0 atom-0 atom-1" d="M 289.5,283.8 L 291.7,265.1" style="fill:none;fill-rule:evenodd;stroke:#FF0000;stroke-width:2.0px;stroke-linecap:butt;stroke-linejoin:miter;stroke-opacity:1"/>
<path class="bond-0 atom-0 atom-1" d="M 291.7,265.1 L 293.9,246.5" style="fill:none;fill-rule:evenodd;stroke:#000000;stroke-width:2.0px;stroke-linecap:butt;stroke-linejoin:miter;stroke-opacity:1"/>
<path class="bond-0 atom-0 atom-1" d="M 298.5,284.9 L 300.8,266.2" style="fill:none;fill-rule:evenodd;stroke:#FF0000;stroke-width:2.0px;stroke-linecap:butt;stroke-linejoin:miter;stroke-opacity:1"/>
<path class="bond-0 atom-0 atom-1" d="M 300.8,266.2 L 303.0,247.6" style="fill:none;fill-rule:evenodd;stroke:#000000;stroke-width:2.0px;stroke-linecap:butt;stroke-linejoin:miter;stroke-opacity:1"/>
<path class="bond-1 atom-1 atom-2" d="M 298.4,247.0 L 314.6,238.0" style="fill:none;fill-rule:evenodd;stroke:#000000;stroke-width:2.0px;stroke-linecap:butt;stroke-linejoin:miter;stroke-opacity:1"/>
<path class="bond-1 atom-1 atom-2" d="M 314.6,238.0 L 330.9,228.9" style="fill:none;fill-rule:evenodd;stroke:#FF0000;stroke-width:2.0px;stroke-linecap:butt;stroke-linejoin:miter;stroke-opacity:1"/>
<path class="bond-2 atom-2 atom-3" d="M 336.7,216.7 L 333.1,198.4" style="fill:none;fill-rule:evenodd;stroke:#FF0000;stroke-width:2.0px;stroke-linecap:butt;stroke-linejoin:miter;stroke-opacity:1"/>
<path class="bond-2 atom-2 atom-3" d="M 333.1,198.4 L 329.4,180.0" style="fill:none;fill-rule:evenodd;stroke:#000000;stroke-width:2.0px;stroke-linecap:butt;stroke-linejoin:miter;stroke-opacity:1"/>
<path class="bond-3 atom-3 atom-4" d="M 329.4,180.0 L 284.1,174.6" style="fill:none;fill-rule:evenodd;stroke:#000000;stroke-width:2.0px;stroke-linecap:butt;stroke-linejoin:miter;stroke-opacity:1"/>
<path class="bond-4 atom-4 atom-5" d="M 284.1,174.6 L 276.4,191.3" style="fill:none;fill-rule:evenodd;stroke:#000000;stroke-width:2.0px;stroke-linecap:butt;stroke-linejoin:miter;stroke-opacity:1"/>
<path class="bond-4 atom-4 atom-5" d="M 276.4,191.3 L 268.6,208.0" style="fill:none;fill-rule:evenodd;stroke:#0000FF;stroke-width:2.0px;stroke-linecap:butt;stroke-linejoin:miter;stroke-opacity:1"/>
<path class="bond-5 atom-5 atom-6" d="M 258.5,217.3 L 239.4,221.1" style="fill:none;fill-rule:evenodd;stroke:#0000FF;stroke-width:2.0px;stroke-linecap:butt;stroke-linejoin:miter;stroke-opacity:1"/>
<path class="bond-5 atom-5 atom-6" d="M 239.4,221.1 L 220.2,224.9" style="fill:none;fill-rule:evenodd;stroke:#000000;stroke-width:2.0px;stroke-linecap:butt;stroke-linejoin:miter;stroke-opacity:1"/>
<path class="bond-6 atom-6 atom-7" d="M 220.2,224.9 L 190.1,190.5" style="fill:none;fill-rule:evenodd;stroke:#000000;stroke-width:2.0px;stroke-linecap:butt;stroke-linejoin:miter;stroke-opacity:1"/>
<path class="bond-6 atom-6 atom-7" d="M 222.5,213.7 L 201.5,189.7" style="fill:none;fill-rule:evenodd;stroke:#000000;stroke-width:2.0px;stroke-linecap:butt;stroke-linejoin:miter;stroke-opacity:1"/>
<path class="bond-7 atom-7 atom-8" d="M 190.1,190.5 L 204.8,147.3" style="fill:none;fill-rule:evenodd;stroke:#000000;stroke-width:2.0px;stroke-linecap:butt;stroke-linejoin:miter;stroke-opacity:1"/>
<path class="bond-8 atom-8 atom-9" d="M 204.8,147.3 L 249.6,138.5" style="fill:none;fill-rule:evenodd;stroke:#000000;stroke-width:2.0px;stroke-linecap:butt;stroke-linejoin:miter;stroke-opacity:1"/>
<path class="bond-8 atom-8 atom-9" d="M 209.8,137.0 L 241.1,130.8" style="fill:none;fill-rule:evenodd;stroke:#000000;stroke-width:2.0px;stroke-linecap:butt;stroke-linejoin:miter;stroke-opacity:1"/>
<path class="bond-9 atom-9 atom-10" d="M 249.6,138.5 L 264.3,95.2" style="fill:none;fill-rule:evenodd;stroke:#000000;stroke-width:2.0px;stroke-linecap:butt;stroke-linejoin:miter;stroke-opacity:1"/>
<path class="bond-10 atom-10 atom-11" d="M 264.3,95.2 L 234.3,60.9" style="fill:none;fill-rule:evenodd;stroke:#000000;stroke-width:2.0px;stroke-linecap:butt;stroke-linejoin:miter;stroke-opacity:1"/>
<path class="bond-10 atom-10 atom-11" d="M 252.9,96.1 L 231.9,72.1" style="fill:none;fill-rule:evenodd;stroke:#000000;stroke-width:2.0px;stroke-linecap:butt;stroke-linejoin:miter;stroke-opacity:1"/>
<path class="bond-11 atom-11 atom-12" d="M 234.3,60.9 L 189.5,69.8" style="fill:none;fill-rule:evenodd;stroke:#000000;stroke-width:2.0px;stroke-linecap:butt;stroke-linejoin:miter;stroke-opacity:1"/>
<path class="bond-12 atom-12 atom-13" d="M 189.5,69.8 L 174.8,113.0" style="fill:none;fill-rule:evenodd;stroke:#000000;stroke-width:2.0px;stroke-linecap:butt;stroke-linejoin:miter;stroke-opacity:1"/>
<path class="bond-12 atom-12 atom-13" d="M 195.9,79.2 L 185.6,109.4" style="fill:none;fill-rule:evenodd;stroke:#000000;stroke-width:2.0px;stroke-linecap:butt;stroke-linejoin:miter;stroke-opacity:1"/>
<path class="bond-13 atom-7 atom-14" d="M 190.1,190.5 L 145.3,199.4" style="fill:none;fill-rule:evenodd;stroke:#000000;stroke-width:2.0px;stroke-linecap:butt;stroke-linejoin:miter;stroke-opacity:1"/>
<path class="bond-14 atom-14 atom-15" d="M 145.3,199.4 L 115.3,165.0" style="fill:none;fill-rule:evenodd;stroke:#000000;stroke-width:2.0px;stroke-linecap:butt;stroke-linejoin:miter;stroke-opacity:1"/>
<path class="bond-15 atom-15 atom-16" d="M 115.3,165.0 L 70.5,173.9" style="fill:none;fill-rule:evenodd;stroke:#000000;stroke-width:2.0px;stroke-linecap:butt;stroke-linejoin:miter;stroke-opacity:1"/>
<path class="bond-16 atom-16 atom-17" d="M 70.5,173.9 L 55.8,217.1" style="fill:none;fill-rule:evenodd;stroke:#000000;stroke-width:2.0px;stroke-linecap:butt;stroke-linejoin:miter;stroke-opacity:1"/>
<path class="bond-17 atom-17 atom-18" d="M 55.8,217.1 L 85.8,251.5" style="fill:none;fill-rule:evenodd;stroke:#000000;stroke-width:2.0px;stroke-linecap:butt;stroke-linejoin:miter;stroke-opacity:1"/>
<path class="bond-18 atom-18 atom-19" d="M 85.8,251.5 L 130.6,242.6" style="fill:none;fill-rule:evenodd;stroke:#000000;stroke-width:2.0px;stroke-linecap:butt;stroke-linejoin:miter;stroke-opacity:1"/>
<path class="bond-19 atom-5 atom-1" d="M 271.4,222.0 L 284.9,234.5" style="fill:none;fill-rule:evenodd;stroke:#0000FF;stroke-width:2.0px;stroke-linecap:butt;stroke-linejoin:miter;stroke-opacity:1"/>
<path class="bond-19 atom-5 atom-1" d="M 284.9,234.5 L 298.4,247.0" style="fill:none;fill-rule:evenodd;stroke:#000000;stroke-width:2.0px;stroke-linecap:butt;stroke-linejoin:miter;stroke-opacity:1"/>
<path class="bond-20 atom-13 atom-8" d="M 174.8,113.0 L 204.8,147.3" style="fill:none;fill-rule:evenodd;stroke:#000000;stroke-width:2.0px;stroke-linecap:butt;stroke-linejoin:miter;stroke-opacity:1"/>
<path class="bond-21 atom-19 atom-14" d="M 130.6,242.6 L 145.3,199.4" style="fill:none;fill-rule:evenodd;stroke:#000000;stroke-width:2.0px;stroke-linecap:butt;stroke-linejoin:miter;stroke-opacity:1"/>
<path class="atom-0" d="M 287.1 292.4 Q 287.1 289.3, 288.6 287.6 Q 290.2 285.8, 293.0 285.8 Q 295.9 285.8, 297.4 287.6 Q 299.0 289.3, 299.0 292.4 Q 299.0 295.5, 297.4 297.3 Q 295.9 299.1, 293.0 299.1 Q 290.2 299.1, 288.6 297.3 Q 287.1 295.6, 287.1 292.4 M 293.0 297.6 Q 295.0 297.6, 296.1 296.3 Q 297.1 295.0, 297.1 292.4 Q 297.1 289.9, 296.1 288.6 Q 295.0 287.3, 293.0 287.3 Q 291.1 287.3, 290.0 288.6 Q 288.9 289.8, 288.9 292.4 Q 288.9 295.0, 290.0 296.3 Q 291.1 297.6, 293.0 297.6 " fill="#FF0000"/>
<path class="atom-2" d="M 332.4 224.8 Q 332.4 221.7, 333.9 220.0 Q 335.4 218.2, 338.3 218.2 Q 341.2 218.2, 342.7 220.0 Q 344.2 221.7, 344.2 224.8 Q 344.2 227.9, 342.7 229.7 Q 341.1 231.5, 338.3 231.5 Q 335.4 231.5, 333.9 229.7 Q 332.4 228.0, 332.4 224.8 M 338.3 230.0 Q 340.3 230.0, 341.3 228.7 Q 342.4 227.4, 342.4 224.8 Q 342.4 222.3, 341.3 221.0 Q 340.3 219.7, 338.3 219.7 Q 336.3 219.7, 335.2 221.0 Q 334.2 222.2, 334.2 224.8 Q 334.2 227.4, 335.2 228.7 Q 336.3 230.0, 338.3 230.0 " fill="#FF0000"/>
<path class="atom-5" d="M 262.1 209.6 L 266.3 216.4 Q 266.8 217.1, 267.4 218.3 Q 268.1 219.5, 268.1 219.6 L 268.1 209.6 L 269.9 209.6 L 269.9 222.5 L 268.1 222.5 L 263.5 215.0 Q 263.0 214.1, 262.4 213.1 Q 261.9 212.1, 261.7 211.8 L 261.7 222.5 L 260.1 222.5 L 260.1 209.6 L 262.1 209.6 " fill="#0000FF"/>
<path class="legend" d="M 167.4 365.4 L 167.6 366.5 Q 168.5 365.3, 169.9 365.3 Q 170.3 365.3, 170.9 365.4 L 170.7 366.8 Q 170.0 366.6, 169.6 366.6 Q 168.9 366.6, 168.5 366.9 Q 168.1 367.1, 167.7 367.8 L 167.7 373.6 L 166.2 373.6 L 166.2 365.4 L 167.4 365.4 " fill="#000000"/>
<path class="legend" d="M 171.2 369.5 Q 171.2 367.5, 172.2 366.4 Q 173.2 365.3, 175.0 365.3 Q 176.8 365.3, 177.6 366.4 Q 178.4 367.4, 178.4 369.5 L 178.4 369.7 L 172.7 369.7 Q 172.7 371.1, 173.4 371.8 Q 174.0 372.6, 175.1 372.6 Q 175.8 372.6, 176.4 372.4 Q 177.0 372.3, 177.7 372.0 L 178.1 373.0 Q 177.3 373.4, 176.6 373.6 Q 175.8 373.8, 175.1 373.8 Q 173.2 373.8, 172.2 372.6 Q 171.2 371.5, 171.2 369.5 M 175.0 366.4 Q 174.1 366.4, 173.5 367.0 Q 172.9 367.5, 172.8 368.6 L 176.9 368.6 Q 176.7 367.5, 176.3 367.0 Q 175.8 366.4, 175.0 366.4 " fill="#000000"/>
<path class="legend" d="M 179.0 371.4 Q 179.0 370.1, 180.1 369.4 Q 181.2 368.7, 183.1 368.7 L 184.3 368.7 L 184.3 368.3 Q 184.3 367.3, 183.9 366.9 Q 183.5 366.4, 182.4 366.4 Q 181.8 366.4, 181.3 366.6 Q 180.8 366.7, 180.0 367.0 L 179.5 366.0 Q 181.0 365.3, 182.5 365.3 Q 184.2 365.3, 185.0 366.0 Q 185.8 366.8, 185.8 368.4 L 185.8 373.6 L 184.6 373.6 Q 184.6 373.6, 184.6 373.3 Q 184.5 373.1, 184.4 372.7 Q 183.3 373.8, 181.8 373.8 Q 180.5 373.8, 179.8 373.2 Q 179.0 372.5, 179.0 371.4 M 180.6 371.4 Q 180.6 372.0, 180.9 372.3 Q 181.3 372.6, 182.0 372.6 Q 182.7 372.6, 183.3 372.4 Q 183.9 372.0, 184.3 371.5 L 184.3 369.8 L 183.2 369.8 Q 181.9 369.8, 181.2 370.2 Q 180.6 370.6, 180.6 371.4 " fill="#000000"/>
<path class="legend" d="M 187.0 369.5 Q 187.0 367.5, 188.0 366.4 Q 189.0 365.3, 191.0 365.3 Q 192.9 365.3, 193.8 366.6 L 192.8 367.4 Q 192.4 366.9, 192.0 366.7 Q 191.6 366.4, 191.0 366.4 Q 189.8 366.4, 189.2 367.2 Q 188.6 368.0, 188.6 369.5 Q 188.6 371.0, 189.2 371.8 Q 189.9 372.6, 191.1 372.6 Q 191.8 372.6, 192.2 372.4 Q 192.7 372.3, 193.3 372.0 L 193.7 373.0 Q 192.5 373.7, 191.0 373.7 Q 189.0 373.7, 188.0 372.6 Q 187.0 371.5, 187.0 369.5 " fill="#000000"/>
<path class="legend" d="M 194.2 366.6 L 194.2 365.4 L 195.8 365.4 L 196.0 363.0 L 197.2 363.0 L 197.2 365.4 L 199.7 365.4 L 199.7 366.6 L 197.2 366.6 L 197.2 371.1 Q 197.2 372.5, 198.4 372.5 Q 198.8 372.5, 199.5 372.3 L 199.8 373.4 Q 198.9 373.7, 198.1 373.7 Q 197.0 373.7, 196.3 373.1 Q 195.7 372.4, 195.7 371.2 L 195.7 366.6 L 194.2 366.6 " fill="#000000"/>
<path class="legend" d="M 208.4 374.4 L 208.4 375.7 L 200.2 375.7 L 200.2 374.4 L 208.4 374.4 " fill="#000000"/>
<path class="legend" d="M 214.3 363.6 L 208.4 363.6 L 208.4 362.3 L 215.9 362.3 L 215.9 363.4 L 211.3 373.6 L 209.8 373.6 L 214.3 363.6 " fill="#000000"/>
<path class="legend" d="M 220.8 366.6 Q 221.8 366.6, 222.6 367.0 Q 223.3 367.4, 223.8 368.2 Q 224.2 369.0, 224.2 370.0 Q 224.2 371.1, 223.7 372.0 Q 223.2 372.8, 222.4 373.3 Q 221.5 373.8, 220.4 373.8 Q 218.4 373.8, 217.4 372.4 Q 216.3 371.0, 216.3 368.3 Q 216.3 365.3, 217.6 363.7 Q 218.9 362.2, 221.3 362.2 Q 222.0 362.2, 222.6 362.3 Q 223.2 362.5, 223.8 362.8 L 223.1 363.9 Q 222.3 363.5, 221.3 363.5 Q 219.7 363.5, 218.9 364.5 Q 218.1 365.5, 218.0 367.6 Q 218.5 367.1, 219.3 366.8 Q 220.0 366.6, 220.8 366.6 M 220.4 372.4 Q 221.0 372.4, 221.5 372.1 Q 222.0 371.8, 222.3 371.2 Q 222.6 370.7, 222.6 370.0 Q 222.6 369.0, 222.0 368.4 Q 221.5 367.8, 220.5 367.8 Q 219.8 367.8, 219.1 368.1 Q 218.4 368.4, 218.0 368.9 Q 218.0 370.8, 218.6 371.6 Q 219.2 372.4, 220.4 372.4 " fill="#000000"/>
<path class="legend" d="M 232.4 369.7 L 233.8 369.7 L 233.8 371.0 L 232.4 371.0 L 232.4 373.6 L 230.9 373.6 L 230.9 371.0 L 225.1 371.0 L 225.1 370.0 L 230.0 362.3 L 232.4 362.3 L 232.4 369.7 M 226.9 369.7 L 230.9 369.7 L 230.9 363.3 L 226.9 369.7 " fill="#000000"/>
<path class="legend" d="M 136.9 383.8 Q 136.9 381.8, 137.9 380.7 Q 138.9 379.5, 140.8 379.5 Q 142.7 379.5, 143.7 380.9 L 142.7 381.6 Q 142.3 381.2, 141.8 380.9 Q 141.4 380.7, 140.8 380.7 Q 139.7 380.7, 139.1 381.5 Q 138.4 382.3, 138.4 383.8 Q 138.4 385.3, 139.1 386.1 Q 139.7 386.8, 140.9 386.8 Q 141.6 386.8, 142.1 386.7 Q 142.5 386.5, 143.1 386.3 L 143.5 387.3 Q 142.3 388.0, 140.8 388.0 Q 138.9 388.0, 137.9 386.9 Q 136.9 385.7, 136.9 383.8 " fill="#000000"/>
<path class="legend" d="M 144.1 383.8 Q 144.1 381.7, 145.1 380.6 Q 146.1 379.5, 147.9 379.5 Q 149.7 379.5, 150.5 380.6 Q 151.3 381.7, 151.3 383.7 L 151.3 384.0 L 145.6 384.0 Q 145.6 385.4, 146.3 386.1 Q 146.9 386.8, 148.0 386.8 Q 148.7 386.8, 149.3 386.7 Q 149.9 386.5, 150.6 386.2 L 151.0 387.2 Q 150.2 387.6, 149.5 387.8 Q 148.7 388.0, 148.0 388.0 Q 146.1 388.0, 145.1 386.9 Q 144.1 385.8, 144.1 383.8 M 147.9 380.7 Q 147.0 380.7, 146.4 381.2 Q 145.8 381.8, 145.7 382.8 L 149.8 382.8 Q 149.6 381.7, 149.2 381.2 Q 148.7 380.7, 147.9 380.7 " fill="#000000"/>
<path class="legend" d="M 156.2 379.5 Q 157.5 379.5, 158.2 380.3 Q 158.9 381.0, 158.9 382.4 L 158.9 387.9 L 157.4 387.9 L 157.4 382.6 Q 157.4 381.6, 157.1 381.2 Q 156.7 380.7, 155.9 380.7 Q 155.1 380.7, 154.5 381.1 Q 153.9 381.4, 153.5 382.0 L 153.5 387.9 L 151.9 387.9 L 151.9 379.7 L 153.2 379.7 L 153.4 380.8 Q 154.5 379.5, 156.2 379.5 " fill="#000000"/>
<path class="legend" d="M 160.2 380.8 L 160.2 379.7 L 161.7 379.7 L 162.0 377.3 L 163.1 377.3 L 163.1 379.7 L 165.6 379.7 L 165.6 380.8 L 163.1 380.8 L 163.1 385.4 Q 163.1 386.8, 164.3 386.8 Q 164.8 386.8, 165.5 386.6 L 165.8 387.6 Q 164.9 388.0, 164.0 388.0 Q 163.0 388.0, 162.3 387.3 Q 161.6 386.7, 161.6 385.4 L 161.6 380.8 L 160.2 380.8 " fill="#000000"/>
<path class="legend" d="M 174.3 388.7 L 174.3 390.0 L 166.2 390.0 L 166.2 388.7 L 174.3 388.7 " fill="#000000"/>
<path class="legend" d="M 181.8 375.7 L 181.8 387.9 L 180.6 387.9 L 180.4 386.9 Q 179.5 388.0, 177.9 388.0 Q 176.2 388.0, 175.3 387.0 Q 174.3 385.9, 174.3 383.9 Q 174.3 381.8, 175.4 380.7 Q 176.6 379.5, 178.5 379.5 Q 179.4 379.5, 180.3 379.7 L 180.3 375.7 L 181.8 375.7 M 178.0 386.8 Q 178.9 386.8, 179.5 386.4 Q 180.1 385.9, 180.3 385.1 L 180.3 380.9 Q 179.5 380.7, 178.6 380.7 Q 177.3 380.7, 176.6 381.6 Q 175.9 382.4, 175.9 383.9 Q 175.9 385.3, 176.4 386.1 Q 177.0 386.8, 178.0 386.8 " fill="#000000"/>
<path class="legend" d="M 183.1 376.6 L 184.5 376.6 L 184.5 378.0 L 183.1 378.0 L 183.1 376.6 M 183.1 379.7 L 184.5 379.7 L 184.5 387.9 L 183.1 387.9 L 183.1 379.7 " fill="#000000"/>
<path class="legend" d="M 186.4 386.2 Q 187.1 386.5, 187.6 386.6 Q 188.1 386.8, 188.7 386.8 Q 189.4 386.8, 189.8 386.5 Q 190.2 386.2, 190.2 385.6 Q 190.2 385.2, 190.0 385.0 Q 189.8 384.8, 189.5 384.6 Q 189.3 384.5, 188.6 384.3 Q 188.4 384.3, 187.7 384.0 Q 187.0 383.7, 186.6 383.2 Q 186.2 382.7, 186.2 381.9 Q 186.2 380.9, 187.0 380.2 Q 187.7 379.5, 189.2 379.5 Q 189.8 379.5, 190.4 379.7 Q 190.9 379.8, 191.5 380.0 L 191.1 381.2 Q 190.6 381.0, 190.2 380.9 Q 189.7 380.8, 189.2 380.8 Q 188.5 380.8, 188.1 381.1 Q 187.7 381.4, 187.7 381.8 Q 187.7 382.3, 188.0 382.5 Q 188.3 382.7, 189.0 383.0 Q 189.1 383.0, 189.3 383.1 L 189.7 383.2 Q 190.3 383.4, 190.7 383.7 Q 191.2 383.9, 191.5 384.4 Q 191.7 384.8, 191.7 385.6 Q 191.7 386.7, 190.9 387.4 Q 190.1 388.0, 188.7 388.0 Q 187.9 388.0, 187.3 387.9 Q 186.6 387.7, 185.9 387.4 L 186.4 386.2 " fill="#000000"/>
<path class="legend" d="M 192.6 380.8 L 192.6 379.7 L 194.2 379.7 L 194.4 377.3 L 195.5 377.3 L 195.5 379.7 L 198.0 379.7 L 198.0 380.8 L 195.5 380.8 L 195.5 385.4 Q 195.5 386.8, 196.7 386.8 Q 197.2 386.8, 197.9 386.6 L 198.2 387.6 Q 197.3 388.0, 196.5 388.0 Q 195.4 388.0, 194.7 387.3 Q 194.0 386.7, 194.0 385.4 L 194.0 380.8 L 192.6 380.8 " fill="#000000"/>
<path class="legend" d="" fill="#000000"/>
<path class="legend" d="M 203.9 380.9 L 211.2 380.9 L 211.2 382.1 L 203.9 382.1 L 203.9 380.9 M 203.9 384.4 L 211.2 384.4 L 211.2 385.5 L 203.9 385.5 L 203.9 384.4 " fill="#000000"/>
<path class="legend" d="" fill="#000000"/>
<path class="legend" d="M 222.2 388.0 Q 220.1 388.0, 219.0 386.5 Q 218.0 384.9, 218.0 382.2 Q 218.0 379.5, 219.0 378.0 Q 220.1 376.4, 222.2 376.4 Q 224.3 376.4, 225.3 378.0 Q 226.3 379.5, 226.3 382.2 Q 226.3 384.9, 225.3 386.5 Q 224.2 388.0, 222.2 388.0 M 222.2 386.7 Q 223.4 386.7, 224.1 385.6 Q 224.7 384.4, 224.7 382.2 Q 224.7 380.0, 224.1 378.8 Q 223.4 377.7, 222.2 377.7 Q 220.9 377.7, 220.3 378.8 Q 219.6 380.0, 219.6 382.2 Q 219.6 384.4, 220.3 385.6 Q 220.9 386.7, 222.2 386.7 " fill="#000000"/>
<path class="legend" d="M 227.3 386.3 L 228.9 386.3 L 228.9 387.9 L 227.3 387.9 L 227.3 386.3 " fill="#000000"/>
<path class="legend" d="M 234.4 380.8 Q 235.4 380.8, 236.2 381.2 Q 237.0 381.7, 237.4 382.5 Q 237.8 383.2, 237.8 384.2 Q 237.8 385.3, 237.3 386.2 Q 236.9 387.1, 236.0 387.5 Q 235.1 388.0, 234.0 388.0 Q 232.0 388.0, 231.0 386.7 Q 230.0 385.3, 230.0 382.6 Q 230.0 379.6, 231.2 378.0 Q 232.5 376.4, 234.9 376.4 Q 235.6 376.4, 236.2 376.6 Q 236.8 376.8, 237.4 377.1 L 236.8 378.2 Q 235.9 377.7, 234.9 377.7 Q 233.3 377.7, 232.5 378.8 Q 231.7 379.8, 231.6 381.9 Q 232.2 381.4, 232.9 381.1 Q 233.6 380.8, 234.4 380.8 M 234.1 386.7 Q 234.7 386.7, 235.2 386.4 Q 235.7 386.1, 236.0 385.5 Q 236.2 384.9, 236.2 384.3 Q 236.2 383.2, 235.7 382.7 Q 235.1 382.1, 234.1 382.1 Q 233.4 382.1, 232.8 382.4 Q 232.1 382.7, 231.6 383.1 Q 231.7 385.0, 232.3 385.9 Q 232.9 386.7, 234.1 386.7 " fill="#000000"/>
<path class="legend" d="M 238.8 378.7 Q 239.2 377.6, 240.2 377.0 Q 241.2 376.4, 242.5 376.4 Q 244.2 376.4, 245.2 377.4 Q 246.2 378.3, 246.2 379.9 Q 246.2 381.6, 244.9 383.2 Q 243.7 384.8, 241.1 386.6 L 246.4 386.6 L 246.4 387.9 L 238.7 387.9 L 238.7 386.8 Q 240.8 385.3, 242.1 384.2 Q 243.3 383.1, 244.0 382.1 Q 244.6 381.1, 244.6 380.0 Q 244.6 378.9, 244.0 378.3 Q 243.5 377.7, 242.5 377.7 Q 241.6 377.7, 241.0 378.1 Q 240.4 378.4, 240.0 379.3 L 238.8 378.7 " fill="#000000"/>
<path class="legend" d="M 247.9 386.6 L 250.4 386.6 L 250.4 378.1 L 247.7 379.0 L 247.3 378.0 L 250.8 376.5 L 251.9 376.7 L 251.9 386.6 L 254.1 386.6 L 254.1 387.9 L 247.9 387.9 L 247.9 386.6 " fill="#000000"/>
<path class="legend" d="M 259.0 388.0 Q 256.9 388.0, 255.8 386.5 Q 254.8 384.9, 254.8 382.2 Q 254.8 379.5, 255.8 378.0 Q 256.9 376.4, 259.0 376.4 Q 261.1 376.4, 262.1 378.0 Q 263.1 379.5, 263.1 382.2 Q 263.1 384.9, 262.1 386.5 Q 261.0 388.0, 259.0 388.0 M 259.0 386.7 Q 260.2 386.7, 260.9 385.6 Q 261.5 384.4, 261.5 382.2 Q 261.5 380.0, 260.9 378.8 Q 260.2 377.7, 259.0 377.7 Q 257.7 377.7, 257.1 378.8 Q 256.4 380.0, 256.4 382.2 Q 256.4 384.4, 257.1 385.6 Q 257.7 386.7, 259.0 386.7 " fill="#000000"/>
<path class="bond-0 atom-0 atom-1" d="M 688.5,280.8 L 688.8,262.0" style="fill:none;fill-rule:evenodd;stroke:#FF0000;stroke-width:2.0px;stroke-linecap:butt;stroke-linejoin:miter;stroke-opacity:1"/>
<path class="bond-0 atom-0 atom-1" d="M 688.8,262.0 L 689.2,243.2" style="fill:none;fill-rule:evenodd;stroke:#000000;stroke-width:2.0px;stroke-linecap:butt;stroke-linejoin:miter;stroke-opacity:1"/>
<path class="bond-0 atom-0 atom-1" d="M 697.6,280.9 L 698.0,262.1" style="fill:none;fill-rule:evenodd;stroke:#FF0000;stroke-width:2.0px;stroke-linecap:butt;stroke-linejoin:miter;stroke-opacity:1"/>
<path class="bond-0 atom-0 atom-1" d="M 698.0,262.1 L 698.3,243.3" style="fill:none;fill-rule:evenodd;stroke:#000000;stroke-width:2.0px;stroke-linecap:butt;stroke-linejoin:miter;stroke-opacity:1"/>
<path class="bond-1 atom-1 atom-2" d="M 693.8,243.2 L 708.8,232.8" style="fill:none;fill-rule:evenodd;stroke:#000000;stroke-width:2.0px;stroke-linecap:butt;stroke-linejoin:miter;stroke-opacity:1"/>
<path class="bond-1 atom-1 atom-2" d="M 708.8,232.8 L 723.8,222.3" style="fill:none;fill-rule:evenodd;stroke:#FF0000;stroke-width:2.0px;stroke-linecap:butt;stroke-linejoin:miter;stroke-opacity:1"/>
<path class="bond-2 atom-2 atom-3" d="M 728.8,209.1 L 723.4,191.3" style="fill:none;fill-rule:evenodd;stroke:#FF0000;stroke-width:2.0px;stroke-linecap:butt;stroke-linejoin:miter;stroke-opacity:1"/>
<path class="bond-2 atom-2 atom-3" d="M 723.4,191.3 L 718.0,173.5" style="fill:none;fill-rule:evenodd;stroke:#000000;stroke-width:2.0px;stroke-linecap:butt;stroke-linejoin:miter;stroke-opacity:1"/>
<path class="bond-3 atom-3 atom-4" d="M 718.0,173.5 L 672.3,172.6" style="fill:none;fill-rule:evenodd;stroke:#000000;stroke-width:2.0px;stroke-linecap:butt;stroke-linejoin:miter;stroke-opacity:1"/>
<path class="bond-4 atom-4 atom-5" d="M 672.3,172.6 L 666.2,190.1" style="fill:none;fill-rule:evenodd;stroke:#000000;stroke-width:2.0px;stroke-linecap:butt;stroke-linejoin:miter;stroke-opacity:1"/>
<path class="bond-4 atom-4 atom-5" d="M 666.2,190.1 L 660.1,207.7" style="fill:none;fill-rule:evenodd;stroke:#0000FF;stroke-width:2.0px;stroke-linecap:butt;stroke-linejoin:miter;stroke-opacity:1"/>
<path class="bond-5 atom-5 atom-6" d="M 651.0,217.6 L 632.3,223.3" style="fill:none;fill-rule:evenodd;stroke:#0000FF;stroke-width:2.0px;stroke-linecap:butt;stroke-linejoin:miter;stroke-opacity:1"/>
<path class="bond-5 atom-5 atom-6" d="M 632.3,223.3 L 613.7,228.9" style="fill:none;fill-rule:evenodd;stroke:#000000;stroke-width:2.0px;stroke-linecap:butt;stroke-linejoin:miter;stroke-opacity:1"/>
<path class="bond-6 atom-6 atom-7" d="M 613.7,228.9 L 580.4,197.7" style="fill:none;fill-rule:evenodd;stroke:#000000;stroke-width:2.0px;stroke-linecap:butt;stroke-linejoin:miter;stroke-opacity:1"/>
<path class="bond-6 atom-6 atom-7" d="M 614.9,217.6 L 591.6,195.8" style="fill:none;fill-rule:evenodd;stroke:#000000;stroke-width:2.0px;stroke-linecap:butt;stroke-linejoin:miter;stroke-opacity:1"/>
<path class="bond-7 atom-7 atom-8" d="M 580.4,197.7 L 590.7,153.3" style="fill:none;fill-rule:evenodd;stroke:#000000;stroke-width:2.0px;stroke-linecap:butt;stroke-linejoin:miter;stroke-opacity:1"/>
<path class="bond-8 atom-8 atom-9" d="M 590.7,153.3 L 634.4,140.0" style="fill:none;fill-rule:evenodd;stroke:#000000;stroke-width:2.0px;stroke-linecap:butt;stroke-linejoin:miter;stroke-opacity:1"/>
<path class="bond-8 atom-8 atom-9" d="M 594.6,142.6 L 625.2,133.3" style="fill:none;fill-rule:evenodd;stroke:#000000;stroke-width:2.0px;stroke-linecap:butt;stroke-linejoin:miter;stroke-opacity:1"/>
<path class="bond-9 atom-9 atom-10" d="M 634.4,140.0 L 644.8,95.6" style="fill:none;fill-rule:evenodd;stroke:#000000;stroke-width:2.0px;stroke-linecap:butt;stroke-linejoin:miter;stroke-opacity:1"/>
<path class="bond-10 atom-10 atom-11" d="M 644.8,95.6 L 611.5,64.4" style="fill:none;fill-rule:evenodd;stroke:#000000;stroke-width:2.0px;stroke-linecap:butt;stroke-linejoin:miter;stroke-opacity:1"/>
<path class="bond-10 atom-10 atom-11" d="M 633.5,97.6 L 610.2,75.7" style="fill:none;fill-rule:evenodd;stroke:#000000;stroke-width:2.0px;stroke-linecap:butt;stroke-linejoin:miter;stroke-opacity:1"/>
<path class="bond-11 atom-11 atom-12" d="M 611.5,64.4 L 567.8,77.6" style="fill:none;fill-rule:evenodd;stroke:#000000;stroke-width:2.0px;stroke-linecap:butt;stroke-linejoin:miter;stroke-opacity:1"/>
<path class="bond-12 atom-12 atom-13" d="M 567.8,77.6 L 557.4,122.1" style="fill:none;fill-rule:evenodd;stroke:#000000;stroke-width:2.0px;stroke-linecap:butt;stroke-linejoin:miter;stroke-opacity:1"/>
<path class="bond-12 atom-12 atom-13" d="M 575.1,86.4 L 567.9,117.5" style="fill:none;fill-rule:evenodd;stroke:#000000;stroke-width:2.0px;stroke-linecap:butt;stroke-linejoin:miter;stroke-opacity:1"/>
<path class="bond-13 atom-7 atom-14" d="M 580.4,197.7 L 536.7,211.0" style="fill:none;fill-rule:evenodd;stroke:#000000;stroke-width:2.0px;stroke-linecap:butt;stroke-linejoin:miter;stroke-opacity:1"/>
<path class="bond-14 atom-14 atom-15" d="M 536.7,211.0 L 521.7,254.1" style="fill:none;fill-rule:evenodd;stroke:#000000;stroke-width:2.0px;stroke-linecap:butt;stroke-linejoin:miter;stroke-opacity:1"/>
<path class="bond-14 atom-14 atom-15" d="M 525.8,214.5 L 515.4,244.7" style="fill:none;fill-rule:evenodd;stroke:#000000;stroke-width:2.0px;stroke-linecap:butt;stroke-linejoin:miter;stroke-opacity:1"/>
<path class="bond-15 atom-15 atom-16" d="M 521.7,254.1 L 476.1,253.2" style="fill:none;fill-rule:evenodd;stroke:#000000;stroke-width:2.0px;stroke-linecap:butt;stroke-linejoin:miter;stroke-opacity:1"/>
<path class="bond-16 atom-16 atom-17" d="M 476.1,253.2 L 462.8,209.5" style="fill:none;fill-rule:evenodd;stroke:#000000;stroke-width:2.0px;stroke-linecap:butt;stroke-linejoin:miter;stroke-opacity:1"/>
<path class="bond-16 atom-16 atom-17" d="M 482.8,244.0 L 473.6,213.4" style="fill:none;fill-rule:evenodd;stroke:#000000;stroke-width:2.0px;stroke-linecap:butt;stroke-linejoin:miter;stroke-opacity:1"/>
<path class="bond-17 atom-17 atom-18" d="M 462.8,209.5 L 478.7,198.5" style="fill:none;fill-rule:evenodd;stroke:#000000;stroke-width:2.0px;stroke-linecap:butt;stroke-linejoin:miter;stroke-opacity:1"/>
<path class="bond-17 atom-17 atom-18" d="M 478.7,198.5 L 494.6,187.4" style="fill:none;fill-rule:evenodd;stroke:#CCCC00;stroke-width:2.0px;stroke-linecap:butt;stroke-linejoin:miter;stroke-opacity:1"/>
<path class="bond-18 atom-5 atom-1" d="M 663.8,220.5 L 678.8,231.9" style="fill:none;fill-rule:evenodd;stroke:#0000FF;stroke-width:2.0px;stroke-linecap:butt;stroke-linejoin:miter;stroke-opacity:1"/>
<path class="bond-18 atom-5 atom-1" d="M 678.8,231.9 L 693.8,243.2" style="fill:none;fill-rule:evenodd;stroke:#000000;stroke-width:2.0px;stroke-linecap:butt;stroke-linejoin:miter;stroke-opacity:1"/>
<path class="bond-19 atom-13 atom-8" d="M 557.4,122.1 L 590.7,153.3" style="fill:none;fill-rule:evenodd;stroke:#000000;stroke-width:2.0px;stroke-linecap:butt;stroke-linejoin:miter;stroke-opacity:1"/>
<path class="bond-20 atom-18 atom-14" d="M 505.9,187.7 L 521.3,199.4" style="fill:none;fill-rule:evenodd;stroke:#CCCC00;stroke-width:2.0px;stroke-linecap:butt;stroke-linejoin:miter;stroke-opacity:1"/>
<path class="bond-20 atom-18 atom-14" d="M 521.3,199.4 L 536.7,211.0" style="fill:none;fill-rule:evenodd;stroke:#000000;stroke-width:2.0px;stroke-linecap:butt;stroke-linejoin:miter;stroke-opacity:1"/>
<path class="atom-0" d="M 686.9 288.9 Q 686.9 285.8, 688.5 284.1 Q 690.0 282.3, 692.9 282.3 Q 695.7 282.3, 697.3 284.1 Q 698.8 285.8, 698.8 288.9 Q 698.8 292.1, 697.3 293.9 Q 695.7 295.6, 692.9 295.6 Q 690.0 295.6, 688.5 293.9 Q 686.9 292.1, 686.9 288.9 M 692.9 294.2 Q 694.8 294.2, 695.9 292.8 Q 697.0 291.5, 697.0 288.9 Q 697.0 286.4, 695.9 285.1 Q 694.8 283.8, 692.9 283.8 Q 690.9 283.8, 689.8 285.1 Q 688.8 286.4, 688.8 288.9 Q 688.8 291.5, 689.8 292.8 Q 690.9 294.2, 692.9 294.2 " fill="#FF0000"/>
<path class="atom-2" d="M 725.3 217.2 Q 725.3 214.1, 726.8 212.3 Q 728.4 210.6, 731.2 210.6 Q 734.1 210.6, 735.6 212.3 Q 737.2 214.1, 737.2 217.2 Q 737.2 220.3, 735.6 222.1 Q 734.0 223.9, 731.2 223.9 Q 728.4 223.9, 726.8 222.1 Q 725.3 220.3, 725.3 217.2 M 731.2 222.4 Q 733.2 222.4, 734.3 221.1 Q 735.3 219.8, 735.3 217.2 Q 735.3 214.6, 734.3 213.4 Q 733.2 212.1, 731.2 212.1 Q 729.2 212.1, 728.2 213.3 Q 727.1 214.6, 727.1 217.2 Q 727.1 219.8, 728.2 221.1 Q 729.2 222.4, 731.2 222.4 " fill="#FF0000"/>
<path class="atom-5" d="M 654.5 209.2 L 658.8 216.1 Q 659.2 216.8, 659.8 218.0 Q 660.5 219.2, 660.6 219.3 L 660.6 209.2 L 662.3 209.2 L 662.3 222.2 L 660.5 222.2 L 656.0 214.7 Q 655.4 213.8, 654.9 212.8 Q 654.3 211.8, 654.2 211.5 L 654.2 222.2 L 652.5 222.2 L 652.5 209.2 L 654.5 209.2 " fill="#0000FF"/>
<path class="atom-18" d="M 496.6 187.9 Q 496.8 187.9, 497.4 188.2 Q 498.0 188.4, 498.7 188.6 Q 499.3 188.8, 500.0 188.8 Q 501.2 188.8, 501.9 188.2 Q 502.6 187.6, 502.6 186.5 Q 502.6 185.8, 502.3 185.4 Q 501.9 184.9, 501.4 184.7 Q 500.8 184.5, 499.9 184.2 Q 498.8 183.8, 498.1 183.5 Q 497.4 183.2, 496.9 182.5 Q 496.4 181.8, 496.4 180.6 Q 496.4 179.0, 497.5 178.0 Q 498.6 177.0, 500.8 177.0 Q 502.3 177.0, 504.0 177.7 L 503.6 179.1 Q 502.0 178.5, 500.9 178.5 Q 499.6 178.5, 498.9 179.0 Q 498.2 179.5, 498.3 180.4 Q 498.3 181.1, 498.6 181.5 Q 499.0 181.9, 499.5 182.2 Q 500.0 182.4, 500.9 182.7 Q 502.0 183.1, 502.7 183.4 Q 503.4 183.8, 503.9 184.5 Q 504.4 185.3, 504.4 186.5 Q 504.4 188.3, 503.2 189.3 Q 502.0 190.2, 500.1 190.2 Q 498.9 190.2, 498.0 190.0 Q 497.2 189.7, 496.2 189.3 L 496.6 187.9 " fill="#CCCC00"/>
<path class="legend" d="M 568.0 365.4 L 568.2 366.5 Q 569.0 365.3, 570.4 365.3 Q 570.9 365.3, 571.5 365.4 L 571.3 366.8 Q 570.6 366.6, 570.2 366.6 Q 569.5 366.6, 569.1 366.9 Q 568.6 367.1, 568.3 367.8 L 568.3 373.6 L 566.8 373.6 L 566.8 365.4 L 568.0 365.4 " fill="#000000"/>
<path class="legend" d="M 571.7 369.5 Q 571.7 367.5, 572.8 366.4 Q 573.8 365.3, 575.6 365.3 Q 577.4 365.3, 578.2 366.4 Q 579.0 367.4, 579.0 369.5 L 579.0 369.7 L 573.3 369.7 Q 573.3 371.1, 573.9 371.8 Q 574.6 372.6, 575.7 372.6 Q 576.4 372.6, 577.0 372.4 Q 577.6 372.3, 578.3 372.0 L 578.7 373.0 Q 577.9 373.4, 577.2 373.6 Q 576.4 373.8, 575.6 373.8 Q 573.8 373.8, 572.8 372.6 Q 571.7 371.5, 571.7 369.5 M 575.6 366.4 Q 574.7 366.4, 574.1 367.0 Q 573.5 367.5, 573.3 368.6 L 577.4 368.6 Q 577.3 367.5, 576.9 367.0 Q 576.4 366.4, 575.6 366.4 " fill="#000000"/>
<path class="legend" d="M 579.6 371.4 Q 579.6 370.1, 580.7 369.4 Q 581.7 368.7, 583.7 368.7 L 584.9 368.7 L 584.9 368.3 Q 584.9 367.3, 584.5 366.9 Q 584.0 366.4, 583.0 366.4 Q 582.4 366.4, 581.9 366.6 Q 581.3 366.7, 580.5 367.0 L 580.1 366.0 Q 581.6 365.3, 583.1 365.3 Q 584.8 365.3, 585.6 366.0 Q 586.4 366.8, 586.4 368.4 L 586.4 373.6 L 585.2 373.6 Q 585.2 373.6, 585.2 373.3 Q 585.1 373.1, 585.0 372.7 Q 583.9 373.8, 582.3 373.8 Q 581.1 373.8, 580.4 373.2 Q 579.6 372.5, 579.6 371.4 M 581.1 371.4 Q 581.1 372.0, 581.5 372.3 Q 581.9 372.6, 582.6 372.6 Q 583.3 372.6, 583.9 372.4 Q 584.5 372.0, 584.9 371.5 L 584.9 369.8 L 583.8 369.8 Q 582.5 369.8, 581.8 370.2 Q 581.1 370.6, 581.1 371.4 " fill="#000000"/>
<path class="legend" d="M 587.6 369.5 Q 587.6 367.5, 588.6 366.4 Q 589.6 365.3, 591.6 365.3 Q 593.4 365.3, 594.4 366.6 L 593.4 367.4 Q 593.0 366.9, 592.6 366.7 Q 592.1 366.4, 591.6 366.4 Q 590.4 366.4, 589.8 367.2 Q 589.2 368.0, 589.2 369.5 Q 589.2 371.0, 589.8 371.8 Q 590.5 372.6, 591.7 372.6 Q 592.3 372.6, 592.8 372.4 Q 593.3 372.3, 593.8 372.0 L 594.3 373.0 Q 593.1 373.7, 591.6 373.7 Q 589.6 373.7, 588.6 372.6 Q 587.6 371.5, 587.6 369.5 " fill="#000000"/>
<path class="legend" d="M 594.8 366.6 L 594.8 365.4 L 596.4 365.4 L 596.6 363.0 L 597.7 363.0 L 597.7 365.4 L 600.3 365.4 L 600.3 366.6 L 597.7 366.6 L 597.7 371.1 Q 597.7 372.5, 598.9 372.5 Q 599.4 372.5, 600.1 372.3 L 600.4 373.4 Q 599.5 373.7, 598.7 373.7 Q 597.6 373.7, 596.9 373.1 Q 596.2 372.4, 596.2 371.2 L 596.2 366.6 L 594.8 366.6 " fill="#000000"/>
<path class="legend" d="M 608.9 374.4 L 608.9 375.7 L 600.8 375.7 L 600.8 374.4 L 608.9 374.4 " fill="#000000"/>
<path class="legend" d="M 614.9 363.6 L 608.9 363.6 L 608.9 362.3 L 616.5 362.3 L 616.5 363.4 L 611.9 373.6 L 610.4 373.6 L 614.9 363.6 " fill="#000000"/>
<path class="legend" d="M 621.0 366.5 Q 622.0 366.5, 622.8 367.0 Q 623.7 367.4, 624.1 368.2 Q 624.6 369.0, 624.6 370.0 Q 624.6 371.2, 624.0 372.1 Q 623.5 372.9, 622.5 373.3 Q 621.6 373.8, 620.5 373.8 Q 619.5 373.8, 618.5 373.4 Q 617.6 373.0, 616.9 372.3 L 617.9 371.3 Q 618.4 371.8, 619.1 372.2 Q 619.9 372.5, 620.6 372.5 Q 621.6 372.5, 622.3 371.8 Q 623.0 371.2, 623.0 370.1 Q 623.0 368.9, 622.3 368.3 Q 621.6 367.7, 620.5 367.7 Q 619.5 367.7, 618.4 368.2 L 617.5 367.8 L 618.1 362.3 L 623.9 362.3 L 623.7 363.6 L 619.4 363.6 L 619.0 366.9 Q 620.0 366.5, 621.0 366.5 " fill="#000000"/>
<path class="legend" d="M 629.8 366.6 Q 630.8 366.6, 631.6 367.0 Q 632.4 367.4, 632.8 368.2 Q 633.2 369.0, 633.2 370.0 Q 633.2 371.1, 632.7 372.0 Q 632.2 372.8, 631.4 373.3 Q 630.5 373.8, 629.4 373.8 Q 627.4 373.8, 626.4 372.4 Q 625.4 371.0, 625.4 368.3 Q 625.4 365.3, 626.6 363.7 Q 627.9 362.2, 630.3 362.2 Q 631.0 362.2, 631.6 362.3 Q 632.2 362.5, 632.8 362.8 L 632.1 363.9 Q 631.3 363.5, 630.3 363.5 Q 628.7 363.5, 627.9 364.5 Q 627.1 365.5, 627.0 367.6 Q 627.6 367.1, 628.3 366.8 Q 629.0 366.6, 629.8 366.6 M 629.4 372.4 Q 630.0 372.4, 630.5 372.1 Q 631.0 371.8, 631.3 371.2 Q 631.6 370.7, 631.6 370.0 Q 631.6 369.0, 631.1 368.4 Q 630.5 367.8, 629.5 367.8 Q 628.8 367.8, 628.1 368.1 Q 627.5 368.4, 627.0 368.9 Q 627.0 370.8, 627.6 371.6 Q 628.2 372.4, 629.4 372.4 " fill="#000000"/>
<path class="legend" d="M 536.7 383.8 Q 536.7 381.8, 537.7 380.7 Q 538.7 379.5, 540.7 379.5 Q 542.5 379.5, 543.5 380.9 L 542.5 381.6 Q 542.1 381.2, 541.7 380.9 Q 541.3 380.7, 540.7 380.7 Q 539.5 380.7, 538.9 381.5 Q 538.3 382.3, 538.3 383.8 Q 538.3 385.3, 538.9 386.1 Q 539.6 386.8, 540.8 386.8 Q 541.4 386.8, 541.9 386.7 Q 542.4 386.5, 542.9 386.3 L 543.4 387.3 Q 542.2 388.0, 540.7 388.0 Q 538.7 388.0, 537.7 386.9 Q 536.7 385.7, 536.7 383.8 " fill="#000000"/>
<path class="legend" d="M 543.9 383.8 Q 543.9 381.7, 544.9 380.6 Q 545.9 379.5, 547.8 379.5 Q 549.6 379.5, 550.4 380.6 Q 551.2 381.7, 551.2 383.7 L 551.2 384.0 L 545.4 384.0 Q 545.5 385.4, 546.1 386.1 Q 546.7 386.8, 547.9 386.8 Q 548.5 386.8, 549.1 386.7 Q 549.7 386.5, 550.4 386.2 L 550.9 387.2 Q 550.1 387.6, 549.3 387.8 Q 548.6 388.0, 547.8 388.0 Q 546.0 388.0, 544.9 386.9 Q 543.9 385.8, 543.9 383.8 M 547.8 380.7 Q 546.8 380.7, 546.2 381.2 Q 545.7 381.8, 545.5 382.8 L 549.6 382.8 Q 549.5 381.7, 549.0 381.2 Q 548.6 380.7, 547.8 380.7 " fill="#000000"/>
<path class="legend" d="M 556.1 379.5 Q 557.4 379.5, 558.1 380.3 Q 558.8 381.0, 558.8 382.4 L 558.8 387.9 L 557.3 387.9 L 557.3 382.6 Q 557.3 381.6, 556.9 381.2 Q 556.5 380.7, 555.7 380.7 Q 554.9 380.7, 554.3 381.1 Q 553.7 381.4, 553.3 382.0 L 553.3 387.9 L 551.8 387.9 L 551.8 379.7 L 553.0 379.7 L 553.2 380.8 Q 554.3 379.5, 556.1 379.5 " fill="#000000"/>
<path class="legend" d="M 560.0 380.8 L 560.0 379.7 L 561.6 379.7 L 561.8 377.3 L 563.0 377.3 L 563.0 379.7 L 565.5 379.7 L 565.5 380.8 L 563.0 380.8 L 563.0 385.4 Q 563.0 386.8, 564.2 386.8 Q 564.6 386.8, 565.3 386.6 L 565.6 387.6 Q 564.7 388.0, 563.9 388.0 Q 562.8 388.0, 562.1 387.3 Q 561.5 386.7, 561.5 385.4 L 561.5 380.8 L 560.0 380.8 " fill="#000000"/>
<path class="legend" d="M 574.2 388.7 L 574.2 390.0 L 566.0 390.0 L 566.0 388.7 L 574.2 388.7 " fill="#000000"/>
<path class="legend" d="M 581.6 375.7 L 581.6 387.9 L 580.4 387.9 L 580.2 386.9 Q 579.3 388.0, 577.8 388.0 Q 576.1 388.0, 575.1 387.0 Q 574.2 385.9, 574.2 383.9 Q 574.2 381.8, 575.3 380.7 Q 576.4 379.5, 578.4 379.5 Q 579.2 379.5, 580.1 379.7 L 580.1 375.7 L 581.6 375.7 M 577.9 386.8 Q 578.7 386.8, 579.3 386.4 Q 579.9 385.9, 580.1 385.1 L 580.1 380.9 Q 579.3 380.7, 578.4 380.7 Q 577.1 380.7, 576.4 381.6 Q 575.7 382.4, 575.7 383.9 Q 575.7 385.3, 576.3 386.1 Q 576.8 386.8, 577.9 386.8 " fill="#000000"/>
<path class="legend" d="M 582.9 376.6 L 584.4 376.6 L 584.4 378.0 L 582.9 378.0 L 582.9 376.6 M 582.9 379.7 L 584.4 379.7 L 584.4 387.9 L 582.9 387.9 L 582.9 379.7 " fill="#000000"/>
<path class="legend" d="M 586.2 386.2 Q 586.9 386.5, 587.5 386.6 Q 588.0 386.8, 588.5 386.8 Q 589.3 386.8, 589.7 386.5 Q 590.1 386.2, 590.1 385.6 Q 590.1 385.2, 589.9 385.0 Q 589.7 384.8, 589.4 384.6 Q 589.1 384.5, 588.4 384.3 Q 588.3 384.3, 587.6 384.0 Q 586.8 383.7, 586.4 383.2 Q 586.0 382.7, 586.0 381.9 Q 586.0 380.9, 586.8 380.2 Q 587.6 379.5, 589.1 379.5 Q 589.7 379.5, 590.2 379.7 Q 590.8 379.8, 591.4 380.0 L 591.0 381.2 Q 590.5 381.0, 590.0 380.9 Q 589.6 380.8, 589.1 380.8 Q 588.3 380.8, 587.9 381.1 Q 587.5 381.4, 587.5 381.8 Q 587.5 382.3, 587.8 382.5 Q 588.1 382.7, 588.8 383.0 Q 589.0 383.0, 589.1 383.1 L 589.5 383.2 Q 590.2 383.4, 590.6 383.7 Q 591.0 383.9, 591.3 384.4 Q 591.6 384.8, 591.6 385.6 Q 591.6 386.7, 590.7 387.4 Q 589.9 388.0, 588.6 388.0 Q 587.8 388.0, 587.1 387.9 Q 586.4 387.7, 585.8 387.4 L 586.2 386.2 " fill="#000000"/>
<path class="legend" d="M 592.4 380.8 L 592.4 379.7 L 594.0 379.7 L 594.3 377.3 L 595.4 377.3 L 595.4 379.7 L 597.9 379.7 L 597.9 380.8 L 595.4 380.8 L 595.4 385.4 Q 595.4 386.8, 596.6 386.8 Q 597.1 386.8, 597.8 386.6 L 598.0 387.6 Q 597.1 388.0, 596.3 388.0 Q 595.2 388.0, 594.5 387.3 Q 593.9 386.7, 593.9 385.4 L 593.9 380.8 L 592.4 380.8 " fill="#000000"/>
<path class="legend" d="" fill="#000000"/>
<path class="legend" d="M 603.8 380.9 L 611.1 380.9 L 611.1 382.1 L 603.8 382.1 L 603.8 380.9 M 603.8 384.4 L 611.1 384.4 L 611.1 385.5 L 603.8 385.5 L 603.8 384.4 " fill="#000000"/>
<path class="legend" d="" fill="#000000"/>
<path class="legend" d="M 622.0 388.0 Q 619.9 388.0, 618.9 386.5 Q 617.9 384.9, 617.9 382.2 Q 617.9 379.5, 618.9 378.0 Q 619.9 376.4, 622.0 376.4 Q 624.1 376.4, 625.1 378.0 Q 626.2 379.5, 626.2 382.2 Q 626.2 384.9, 625.1 386.5 Q 624.1 388.0, 622.0 388.0 M 622.0 386.7 Q 623.2 386.7, 623.9 385.6 Q 624.6 384.4, 624.6 382.2 Q 624.6 380.0, 623.9 378.8 Q 623.2 377.7, 622.0 377.7 Q 620.8 377.7, 620.1 378.8 Q 619.5 380.0, 619.5 382.2 Q 619.5 384.4, 620.1 385.6 Q 620.8 386.7, 622.0 386.7 " fill="#000000"/>
<path class="legend" d="M 627.2 386.3 L 628.8 386.3 L 628.8 387.9 L 627.2 387.9 L 627.2 386.3 " fill="#000000"/>
<path class="legend" d="M 635.8 377.8 L 629.8 377.8 L 629.8 376.6 L 637.4 376.6 L 637.4 377.7 L 632.8 387.9 L 631.2 387.9 L 635.8 377.8 " fill="#000000"/>
<path class="legend" d="M 642.3 380.8 Q 643.2 380.8, 644.0 381.2 Q 644.8 381.7, 645.2 382.5 Q 645.7 383.2, 645.7 384.2 Q 645.7 385.3, 645.2 386.2 Q 644.7 387.1, 643.8 387.5 Q 643.0 388.0, 641.9 388.0 Q 639.9 388.0, 638.8 386.7 Q 637.8 385.3, 637.8 382.6 Q 637.8 379.6, 639.1 378.0 Q 640.3 376.4, 642.7 376.4 Q 643.5 376.4, 644.0 376.6 Q 644.7 376.8, 645.2 377.1 L 644.6 378.2 Q 643.8 377.7, 642.8 377.7 Q 641.2 377.7, 640.3 378.8 Q 639.5 379.8, 639.4 381.9 Q 640.0 381.4, 640.7 381.1 Q 641.5 380.8, 642.3 380.8 M 641.9 386.7 Q 642.5 386.7, 643.0 386.4 Q 643.5 386.1, 643.8 385.5 Q 644.1 384.9, 644.1 384.3 Q 644.1 383.2, 643.5 382.7 Q 643.0 382.1, 642.0 382.1 Q 641.3 382.1, 640.6 382.4 Q 639.9 382.7, 639.4 383.1 Q 639.5 385.0, 640.1 385.9 Q 640.7 386.7, 641.9 386.7 " fill="#000000"/>
<path class="legend" d="M 652.5 377.8 L 646.6 377.8 L 646.6 376.6 L 654.1 376.6 L 654.1 377.7 L 649.5 387.9 L 648.0 387.9 L 652.5 377.8 " fill="#000000"/>
<path class="legend" d="M 661.9 384.0 L 663.3 384.0 L 663.3 385.3 L 661.9 385.3 L 661.9 387.9 L 660.4 387.9 L 660.4 385.3 L 654.5 385.3 L 654.5 384.3 L 659.5 376.6 L 661.9 376.6 L 661.9 384.0 M 656.4 384.0 L 660.4 384.0 L 660.4 377.6 L 656.4 384.0 " fill="#000000"/>
<path class="bond-0 atom-0 atom-1" d="M 1042.7,261.1 L 1024.4,219.3" style="fill:none;fill-rule:evenodd;stroke:#000000;stroke-width:2.0px;stroke-linecap:butt;stroke-linejoin:miter;stroke-opacity:1"/>
<path class="bond-1 atom-1 atom-2" d="M 1024.4,219.3 L 979.0,214.2" style="fill:none;fill-rule:evenodd;stroke:#000000;stroke-width:2.0px;stroke-linecap:butt;stroke-linejoin:miter;stroke-opacity:1"/>
<path class="bond-1 atom-1 atom-2" d="M 1016.6,227.6 L 984.8,224.1" style="fill:none;fill-rule:evenodd;stroke:#000000;stroke-width:2.0px;stroke-linecap:butt;stroke-linejoin:miter;stroke-opacity:1"/>
<path class="bond-2 atom-2 atom-3" d="M 979.0,214.2 L 971.6,197.3" style="fill:none;fill-rule:evenodd;stroke:#000000;stroke-width:2.0px;stroke-linecap:butt;stroke-linejoin:miter;stroke-opacity:1"/>
<path class="bond-2 atom-2 atom-3" d="M 971.6,197.3 L 964.2,180.4" style="fill:none;fill-rule:evenodd;stroke:#0000FF;stroke-width:2.0px;stroke-linecap:butt;stroke-linejoin:miter;stroke-opacity:1"/>
<path class="bond-3 atom-3 atom-4" d="M 965.4,164.4 L 974.6,148.7" style="fill:none;fill-rule:evenodd;stroke:#0000FF;stroke-width:2.0px;stroke-linecap:butt;stroke-linejoin:miter;stroke-opacity:1"/>
<path class="bond-3 atom-3 atom-4" d="M 974.6,148.7 L 983.8,133.0" style="fill:none;fill-rule:evenodd;stroke:#000000;stroke-width:2.0px;stroke-linecap:butt;stroke-linejoin:miter;stroke-opacity:1"/>
<path class="bond-4 atom-4 atom-5" d="M 983.8,133.0 L 953.5,98.9" style="fill:none;fill-rule:evenodd;stroke:#000000;stroke-width:2.0px;stroke-linecap:butt;stroke-linejoin:miter;stroke-opacity:1"/>
<path class="bond-5 atom-5 atom-6" d="M 953.5,98.9 L 936.3,106.4" style="fill:none;fill-rule:evenodd;stroke:#000000;stroke-width:2.0px;stroke-linecap:butt;stroke-linejoin:miter;stroke-opacity:1"/>
<path class="bond-5 atom-5 atom-6" d="M 936.3,106.4 L 919.1,113.9" style="fill:none;fill-rule:evenodd;stroke:#FF0000;stroke-width:2.0px;stroke-linecap:butt;stroke-linejoin:miter;stroke-opacity:1"/>
<path class="bond-6 atom-6 atom-7" d="M 912.5,125.4 L 914.3,144.0" style="fill:none;fill-rule:evenodd;stroke:#FF0000;stroke-width:2.0px;stroke-linecap:butt;stroke-linejoin:miter;stroke-opacity:1"/>
<path class="bond-6 atom-6 atom-7" d="M 914.3,144.0 L 916.1,162.6" style="fill:none;fill-rule:evenodd;stroke:#000000;stroke-width:2.0px;stroke-linecap:butt;stroke-linejoin:miter;stroke-opacity:1"/>
<path class="bond-7 atom-7 atom-8" d="M 919.2,166.0 L 905.8,177.9" style="fill:none;fill-rule:evenodd;stroke:#000000;stroke-width:2.0px;stroke-linecap:butt;stroke-linejoin:miter;stroke-opacity:1"/>
<path class="bond-7 atom-7 atom-8" d="M 905.8,177.9 L 892.5,189.7" style="fill:none;fill-rule:evenodd;stroke:#FF0000;stroke-width:2.0px;stroke-linecap:butt;stroke-linejoin:miter;stroke-opacity:1"/>
<path class="bond-7 atom-7 atom-8" d="M 913.1,159.2 L 899.8,171.1" style="fill:none;fill-rule:evenodd;stroke:#000000;stroke-width:2.0px;stroke-linecap:butt;stroke-linejoin:miter;stroke-opacity:1"/>
<path class="bond-7 atom-7 atom-8" d="M 899.8,171.1 L 886.4,182.9" style="fill:none;fill-rule:evenodd;stroke:#FF0000;stroke-width:2.0px;stroke-linecap:butt;stroke-linejoin:miter;stroke-opacity:1"/>
<path class="bond-8 atom-1 atom-9" d="M 1024.4,219.3 L 1051.5,182.5" style="fill:none;fill-rule:evenodd;stroke:#000000;stroke-width:2.0px;stroke-linecap:butt;stroke-linejoin:miter;stroke-opacity:1"/>
<path class="bond-9 atom-9 atom-10" d="M 1051.5,182.5 L 1096.8,187.6" style="fill:none;fill-rule:evenodd;stroke:#000000;stroke-width:2.0px;stroke-linecap:butt;stroke-linejoin:miter;stroke-opacity:1"/>
<path class="bond-9 atom-9 atom-10" d="M 1059.3,174.2 L 1091.0,177.8" style="fill:none;fill-rule:evenodd;stroke:#000000;stroke-width:2.0px;stroke-linecap:butt;stroke-linejoin:miter;stroke-opacity:1"/>
<path class="bond-10 atom-10 atom-11" d="M 1096.8,187.6 L 1123.9,150.8" style="fill:none;fill-rule:evenodd;stroke:#000000;stroke-width:2.0px;stroke-linecap:butt;stroke-linejoin:miter;stroke-opacity:1"/>
<path class="bond-11 atom-11 atom-12" d="M 1123.9,150.8 L 1105.6,109.0" style="fill:none;fill-rule:evenodd;stroke:#000000;stroke-width:2.0px;stroke-linecap:butt;stroke-linejoin:miter;stroke-opacity:1"/>
<path class="bond-11 atom-11 atom-12" d="M 1112.8,148.2 L 1100.0,118.9" style="fill:none;fill-rule:evenodd;stroke:#000000;stroke-width:2.0px;stroke-linecap:butt;stroke-linejoin:miter;stroke-opacity:1"/>
<path class="bond-12 atom-12 atom-13" d="M 1105.6,109.0 L 1060.2,103.9" style="fill:none;fill-rule:evenodd;stroke:#000000;stroke-width:2.0px;stroke-linecap:butt;stroke-linejoin:miter;stroke-opacity:1"/>
<path class="bond-13 atom-13 atom-14" d="M 1060.2,103.9 L 1033.2,140.7" style="fill:none;fill-rule:evenodd;stroke:#000000;stroke-width:2.0px;stroke-linecap:butt;stroke-linejoin:miter;stroke-opacity:1"/>
<path class="bond-13 atom-13 atom-14" d="M 1063.5,114.9 L 1044.6,140.6" style="fill:none;fill-rule:evenodd;stroke:#000000;stroke-width:2.0px;stroke-linecap:butt;stroke-linejoin:miter;stroke-opacity:1"/>
<path class="bond-14 atom-7 atom-3" d="M 916.1,162.6 L 935.2,166.8" style="fill:none;fill-rule:evenodd;stroke:#000000;stroke-width:2.0px;stroke-linecap:butt;stroke-linejoin:miter;stroke-opacity:1"/>
<path class="bond-14 atom-7 atom-3" d="M 935.2,166.8 L 954.3,171.0" style="fill:none;fill-rule:evenodd;stroke:#0000FF;stroke-width:2.0px;stroke-linecap:butt;stroke-linejoin:miter;stroke-opacity:1"/>
<path class="bond-15 atom-14 atom-9" d="M 1033.2,140.7 L 1051.5,182.5" style="fill:none;fill-rule:evenodd;stroke:#000000;stroke-width:2.0px;stroke-linecap:butt;stroke-linejoin:miter;stroke-opacity:1"/>
<path class="atom-3" d="M 957.9 165.9 L 962.1 172.8 Q 962.5 173.5, 963.2 174.7 Q 963.9 175.9, 963.9 176.0 L 963.9 165.9 L 965.6 165.9 L 965.6 178.9 L 963.9 178.9 L 959.3 171.4 Q 958.8 170.5, 958.2 169.5 Q 957.7 168.5, 957.5 168.2 L 957.5 178.9 L 955.8 178.9 L 955.8 165.9 L 957.9 165.9 " fill="#0000FF"/>
<path class="atom-6" d="M 905.7 117.2 Q 905.7 114.1, 907.3 112.4 Q 908.8 110.7, 911.7 110.7 Q 914.5 110.7, 916.1 112.4 Q 917.6 114.1, 917.6 117.2 Q 917.6 120.4, 916.1 122.2 Q 914.5 123.9, 911.7 123.9 Q 908.8 123.9, 907.3 122.2 Q 905.7 120.4, 905.7 117.2 M 911.7 122.5 Q 913.6 122.5, 914.7 121.2 Q 915.8 119.8, 915.8 117.2 Q 915.8 114.7, 914.7 113.4 Q 913.6 112.1, 911.7 112.1 Q 909.7 112.1, 908.6 113.4 Q 907.6 114.7, 907.6 117.2 Q 907.6 119.8, 908.6 121.2 Q 909.7 122.5, 911.7 122.5 " fill="#FF0000"/>
<path class="atom-8" d="M 876.1 193.0 Q 876.1 189.9, 877.6 188.1 Q 879.2 186.4, 882.0 186.4 Q 884.9 186.4, 886.4 188.1 Q 888.0 189.9, 888.0 193.0 Q 888.0 196.1, 886.4 197.9 Q 884.9 199.7, 882.0 199.7 Q 879.2 199.7, 877.6 197.9 Q 876.1 196.1, 876.1 193.0 M 882.0 198.2 Q 884.0 198.2, 885.1 196.9 Q 886.1 195.6, 886.1 193.0 Q 886.1 190.4, 885.1 189.2 Q 884.0 187.9, 882.0 187.9 Q 880.1 187.9, 879.0 189.2 Q 877.9 190.4, 877.9 193.0 Q 877.9 195.6, 879.0 196.9 Q 880.1 198.2, 882.0 198.2 " fill="#FF0000"/>
<path class="legend" d="M 967.6 365.4 L 967.7 366.5 Q 968.6 365.3, 970.0 365.3 Q 970.5 365.3, 971.1 365.4 L 970.8 366.8 Q 970.1 366.6, 969.8 366.6 Q 969.1 366.6, 968.6 366.9 Q 968.2 367.1, 967.9 367.8 L 967.9 373.6 L 966.4 373.6 L 966.4 365.4 L 967.6 365.4 " fill="#000000"/>
<path class="legend" d="M 971.3 369.5 Q 971.3 367.5, 972.3 366.4 Q 973.3 365.3, 975.2 365.3 Q 977.0 365.3, 977.8 366.4 Q 978.6 367.4, 978.6 369.5 L 978.6 369.7 L 972.8 369.7 Q 972.9 371.1, 973.5 371.8 Q 974.1 372.6, 975.3 372.6 Q 975.9 372.6, 976.5 372.4 Q 977.1 372.3, 977.8 372.0 L 978.3 373.0 Q 977.5 373.4, 976.7 373.6 Q 976.0 373.8, 975.2 373.8 Q 973.4 373.8, 972.3 372.6 Q 971.3 371.5, 971.3 369.5 M 975.2 366.4 Q 974.2 366.4, 973.6 367.0 Q 973.1 367.5, 972.9 368.6 L 977.0 368.6 Q 976.9 367.5, 976.4 367.0 Q 976.0 366.4, 975.2 366.4 " fill="#000000"/>
<path class="legend" d="M 979.2 371.4 Q 979.2 370.1, 980.3 369.4 Q 981.3 368.7, 983.2 368.7 L 984.5 368.7 L 984.5 368.3 Q 984.5 367.3, 984.0 366.9 Q 983.6 366.4, 982.6 366.4 Q 981.9 366.4, 981.4 366.6 Q 980.9 366.7, 980.1 367.0 L 979.7 366.0 Q 981.2 365.3, 982.6 365.3 Q 984.4 365.3, 985.2 366.0 Q 986.0 366.8, 986.0 368.4 L 986.0 373.6 L 984.8 373.6 Q 984.8 373.6, 984.7 373.3 Q 984.7 373.1, 984.6 372.7 Q 983.4 373.8, 981.9 373.8 Q 980.7 373.8, 979.9 373.2 Q 979.2 372.5, 979.2 371.4 M 980.7 371.4 Q 980.7 372.0, 981.1 372.3 Q 981.5 372.6, 982.2 372.6 Q 982.8 372.6, 983.4 372.4 Q 984.0 372.0, 984.5 371.5 L 984.5 369.8 L 983.3 369.8 Q 982.0 369.8, 981.4 370.2 Q 980.7 370.6, 980.7 371.4 " fill="#000000"/>
<path class="legend" d="M 987.2 369.5 Q 987.2 367.5, 988.2 366.4 Q 989.2 365.3, 991.1 365.3 Q 993.0 365.3, 994.0 366.6 L 993.0 367.4 Q 992.6 366.9, 992.1 366.7 Q 991.7 366.4, 991.1 366.4 Q 990.0 366.4, 989.4 367.2 Q 988.7 368.0, 988.7 369.5 Q 988.7 371.0, 989.4 371.8 Q 990.0 372.6, 991.2 372.6 Q 991.9 372.6, 992.4 372.4 Q 992.8 372.3, 993.4 372.0 L 993.8 373.0 Q 992.6 373.7, 991.1 373.7 Q 989.2 373.7, 988.2 372.6 Q 987.2 371.5, 987.2 369.5 " fill="#000000"/>
<path class="legend" d="M 994.4 366.6 L 994.4 365.4 L 995.9 365.4 L 996.2 363.0 L 997.3 363.0 L 997.3 365.4 L 999.8 365.4 L 999.8 366.6 L 997.3 366.6 L 997.3 371.1 Q 997.3 372.5, 998.5 372.5 Q 999.0 372.5, 999.7 372.3 L 1000.0 373.4 Q 999.1 373.7, 998.2 373.7 Q 997.2 373.7, 996.5 373.1 Q 995.8 372.4, 995.8 371.2 L 995.8 366.6 L 994.4 366.6 " fill="#000000"/>
<path class="legend" d="M 1008.5 374.4 L 1008.5 375.7 L 1000.4 375.7 L 1000.4 374.4 L 1008.5 374.4 " fill="#000000"/>
<path class="legend" d="M 1014.4 363.6 L 1008.5 363.6 L 1008.5 362.3 L 1016.0 362.3 L 1016.0 363.4 L 1011.5 373.6 L 1009.9 373.6 L 1014.4 363.6 " fill="#000000"/>
<path class="legend" d="M 1020.6 366.5 Q 1021.6 366.5, 1022.4 367.0 Q 1023.2 367.4, 1023.7 368.2 Q 1024.2 369.0, 1024.2 370.0 Q 1024.2 371.2, 1023.6 372.1 Q 1023.0 372.9, 1022.1 373.3 Q 1021.2 373.8, 1020.1 373.8 Q 1019.1 373.8, 1018.1 373.4 Q 1017.2 373.0, 1016.5 372.3 L 1017.5 371.3 Q 1018.0 371.8, 1018.7 372.2 Q 1019.4 372.5, 1020.2 372.5 Q 1021.2 372.5, 1021.9 371.8 Q 1022.6 371.2, 1022.6 370.1 Q 1022.6 368.9, 1021.9 368.3 Q 1021.2 367.7, 1020.1 367.7 Q 1019.1 367.7, 1018.0 368.2 L 1017.1 367.8 L 1017.6 362.3 L 1023.5 362.3 L 1023.3 363.6 L 1018.9 363.6 L 1018.6 366.9 Q 1019.6 366.5, 1020.6 366.5 " fill="#000000"/>
<path class="legend" d="M 1032.3 369.7 L 1033.6 369.7 L 1033.6 371.0 L 1032.3 371.0 L 1032.3 373.6 L 1030.8 373.6 L 1030.8 371.0 L 1024.9 371.0 L 1024.9 370.0 L 1029.9 362.3 L 1032.3 362.3 L 1032.3 369.7 M 1026.8 369.7 L 1030.8 369.7 L 1030.8 363.3 L 1026.8 369.7 " fill="#000000"/>
<path class="legend" d="M 936.6 383.8 Q 936.6 381.8, 937.5 380.7 Q 938.5 379.5, 940.5 379.5 Q 942.4 379.5, 943.3 380.9 L 942.3 381.6 Q 941.9 381.2, 941.5 380.9 Q 941.1 380.7, 940.5 380.7 Q 939.4 380.7, 938.7 381.5 Q 938.1 382.3, 938.1 383.8 Q 938.1 385.3, 938.7 386.1 Q 939.4 386.8, 940.6 386.8 Q 941.3 386.8, 941.7 386.7 Q 942.2 386.5, 942.8 386.3 L 943.2 387.3 Q 942.0 388.0, 940.5 388.0 Q 938.5 388.0, 937.5 386.9 Q 936.6 385.7, 936.6 383.8 " fill="#000000"/>
<path class="legend" d="M 943.7 383.8 Q 943.7 381.7, 944.7 380.6 Q 945.7 379.5, 947.6 379.5 Q 949.4 379.5, 950.2 380.6 Q 951.0 381.7, 951.0 383.7 L 951.0 384.0 L 945.3 384.0 Q 945.3 385.4, 945.9 386.1 Q 946.5 386.8, 947.7 386.8 Q 948.3 386.8, 948.9 386.7 Q 949.5 386.5, 950.3 386.2 L 950.7 387.2 Q 949.9 387.6, 949.1 387.8 Q 948.4 388.0, 947.6 388.0 Q 945.8 388.0, 944.7 386.9 Q 943.7 385.8, 943.7 383.8 M 947.6 380.7 Q 946.6 380.7, 946.1 381.2 Q 945.5 381.8, 945.3 382.8 L 949.4 382.8 Q 949.3 381.7, 948.9 381.2 Q 948.4 380.7, 947.6 380.7 " fill="#000000"/>
<path class="legend" d="M 955.9 379.5 Q 957.2 379.5, 957.9 380.3 Q 958.6 381.0, 958.6 382.4 L 958.6 387.9 L 957.1 387.9 L 957.1 382.6 Q 957.1 381.6, 956.7 381.2 Q 956.3 380.7, 955.5 380.7 Q 954.8 380.7, 954.1 381.1 Q 953.5 381.4, 953.1 382.0 L 953.1 387.9 L 951.6 387.9 L 951.6 379.7 L 952.8 379.7 L 953.0 380.8 Q 954.1 379.5, 955.9 379.5 " fill="#000000"/>
<path class="legend" d="M 959.8 380.8 L 959.8 379.7 L 961.4 379.7 L 961.7 377.3 L 962.8 377.3 L 962.8 379.7 L 965.3 379.7 L 965.3 380.8 L 962.8 380.8 L 962.8 385.4 Q 962.8 386.8, 964.0 386.8 Q 964.5 386.8, 965.2 386.6 L 965.4 387.6 Q 964.5 388.0, 963.7 388.0 Q 962.6 388.0, 961.9 387.3 Q 961.3 386.7, 961.3 385.4 L 961.3 380.8 L 959.8 380.8 " fill="#000000"/>
<path class="legend" d="M 974.0 388.7 L 974.0 390.0 L 965.8 390.0 L 965.8 388.7 L 974.0 388.7 " fill="#000000"/>
<path class="legend" d="M 981.5 375.7 L 981.5 387.9 L 980.2 387.9 L 980.0 386.9 Q 979.1 388.0, 977.6 388.0 Q 975.9 388.0, 974.9 387.0 Q 974.0 385.9, 974.0 383.9 Q 974.0 381.8, 975.1 380.7 Q 976.2 379.5, 978.2 379.5 Q 979.1 379.5, 979.9 379.7 L 979.9 375.7 L 981.5 375.7 M 977.7 386.8 Q 978.5 386.8, 979.1 386.4 Q 979.7 385.9, 979.9 385.1 L 979.9 380.9 Q 979.1 380.7, 978.2 380.7 Q 977.0 380.7, 976.2 381.6 Q 975.5 382.4, 975.5 383.9 Q 975.5 385.3, 976.1 386.1 Q 976.7 386.8, 977.7 386.8 " fill="#000000"/>
<path class="legend" d="M 982.7 376.6 L 984.2 376.6 L 984.2 378.0 L 982.7 378.0 L 982.7 376.6 M 982.7 379.7 L 984.2 379.7 L 984.2 387.9 L 982.7 387.9 L 982.7 379.7 " fill="#000000"/>
<path class="legend" d="M 986.0 386.2 Q 986.8 386.5, 987.3 386.6 Q 987.8 386.8, 988.4 386.8 Q 989.1 386.8, 989.5 386.5 Q 989.9 386.2, 989.9 385.6 Q 989.9 385.2, 989.7 385.0 Q 989.5 384.8, 989.2 384.6 Q 988.9 384.5, 988.2 384.3 Q 988.1 384.3, 987.4 384.0 Q 986.6 383.7, 986.2 383.2 Q 985.9 382.7, 985.9 381.9 Q 985.9 380.9, 986.6 380.2 Q 987.4 379.5, 988.9 379.5 Q 989.5 379.5, 990.0 379.7 Q 990.6 379.8, 991.2 380.0 L 990.8 381.2 Q 990.3 381.0, 989.8 380.9 Q 989.4 380.8, 988.9 380.8 Q 988.1 380.8, 987.7 381.1 Q 987.4 381.4, 987.4 381.8 Q 987.4 382.3, 987.7 382.5 Q 988.0 382.7, 988.6 383.0 Q 988.8 383.0, 989.0 383.1 L 989.3 383.2 Q 990.0 383.4, 990.4 383.7 Q 990.8 383.9, 991.1 384.4 Q 991.4 384.8, 991.4 385.6 Q 991.4 386.7, 990.6 387.4 Q 989.7 388.0, 988.4 388.0 Q 987.6 388.0, 986.9 387.9 Q 986.3 387.7, 985.6 387.4 L 986.0 386.2 " fill="#000000"/>
<path class="legend" d="M 992.3 380.8 L 992.3 379.7 L 993.8 379.7 L 994.1 377.3 L 995.2 377.3 L 995.2 379.7 L 997.7 379.7 L 997.7 380.8 L 995.2 380.8 L 995.2 385.4 Q 995.2 386.8, 996.4 386.8 Q 996.9 386.8, 997.6 386.6 L 997.8 387.6 Q 997.0 388.0, 996.1 388.0 Q 995.1 388.0, 994.4 387.3 Q 993.7 386.7, 993.7 385.4 L 993.7 380.8 L 992.3 380.8 " fill="#000000"/>
<path class="legend" d="" fill="#000000"/>
<path class="legend" d="M 1003.6 380.9 L 1010.9 380.9 L 1010.9 382.1 L 1003.6 382.1 L 1003.6 380.9 M 1003.6 384.4 L 1010.9 384.4 L 1010.9 385.5 L 1003.6 385.5 L 1003.6 384.4 " fill="#000000"/>
<path class="legend" d="" fill="#000000"/>
<path class="legend" d="M 1021.8 388.0 Q 1019.7 388.0, 1018.7 386.5 Q 1017.7 384.9, 1017.7 382.2 Q 1017.7 379.5, 1018.7 378.0 Q 1019.7 376.4, 1021.8 376.4 Q 1023.9 376.4, 1024.9 378.0 Q 1026.0 379.5, 1026.0 382.2 Q 1026.0 384.9, 1024.9 386.5 Q 1023.9 388.0, 1021.8 388.0 M 1021.8 386.7 Q 1023.1 386.7, 1023.7 385.6 Q 1024.4 384.4, 1024.4 382.2 Q 1024.4 380.0, 1023.7 378.8 Q 1023.1 377.7, 1021.8 377.7 Q 1020.6 377.7, 1019.9 378.8 Q 1019.3 380.0, 1019.3 382.2 Q 1019.3 384.4, 1019.9 385.6 Q 1020.6 386.7, 1021.8 386.7 " fill="#000000"/>
<path class="legend" d="M 1027.0 386.3 L 1028.6 386.3 L 1028.6 387.9 L 1027.0 387.9 L 1027.0 386.3 " fill="#000000"/>
<path class="legend" d="M 1033.5 376.4 Q 1035.5 376.4, 1036.5 377.8 Q 1037.5 379.2, 1037.5 381.9 Q 1037.5 384.9, 1036.2 386.5 Q 1035.0 388.0, 1032.6 388.0 Q 1031.9 388.0, 1031.3 387.9 Q 1030.7 387.7, 1030.1 387.4 L 1030.7 386.3 Q 1031.6 386.7, 1032.6 386.7 Q 1034.2 386.7, 1035.0 385.7 Q 1035.8 384.7, 1035.9 382.5 Q 1035.3 383.1, 1034.6 383.4 Q 1033.9 383.6, 1033.1 383.6 Q 1032.1 383.6, 1031.3 383.2 Q 1030.5 382.8, 1030.1 382.0 Q 1029.7 381.2, 1029.7 380.2 Q 1029.7 379.1, 1030.1 378.3 Q 1030.6 377.4, 1031.5 376.9 Q 1032.4 376.4, 1033.5 376.4 M 1031.3 380.2 Q 1031.3 381.2, 1031.8 381.8 Q 1032.4 382.4, 1033.4 382.4 Q 1034.1 382.4, 1034.7 382.1 Q 1035.4 381.8, 1035.9 381.3 Q 1035.8 379.4, 1035.2 378.6 Q 1034.6 377.7, 1033.4 377.7 Q 1032.8 377.7, 1032.3 378.1 Q 1031.8 378.4, 1031.5 378.9 Q 1031.3 379.5, 1031.3 380.2 " fill="#000000"/>
<path class="legend" d="M 1044.0 381.9 Q 1045.1 382.2, 1045.7 383.0 Q 1046.2 383.7, 1046.2 384.8 Q 1046.2 385.7, 1045.7 386.5 Q 1045.3 387.2, 1044.4 387.6 Q 1043.5 388.0, 1042.3 388.0 Q 1041.1 388.0, 1040.2 387.6 Q 1039.3 387.2, 1038.6 386.3 L 1039.5 385.4 Q 1040.2 386.2, 1040.8 386.5 Q 1041.4 386.8, 1042.3 386.8 Q 1043.4 386.8, 1044.0 386.2 Q 1044.6 385.7, 1044.6 384.8 Q 1044.6 383.6, 1044.0 383.1 Q 1043.3 382.6, 1041.9 382.6 L 1041.1 382.6 L 1041.1 381.4 L 1041.8 381.4 Q 1043.1 381.4, 1043.7 380.9 Q 1044.4 380.3, 1044.4 379.3 Q 1044.4 378.6, 1043.8 378.2 Q 1043.3 377.7, 1042.4 377.7 Q 1041.4 377.7, 1040.8 378.0 Q 1040.2 378.4, 1039.8 379.2 L 1038.7 378.6 Q 1039.1 377.7, 1040.1 377.1 Q 1041.0 376.4, 1042.4 376.4 Q 1044.0 376.4, 1045.0 377.2 Q 1046.0 378.0, 1046.0 379.3 Q 1046.0 380.2, 1045.5 380.9 Q 1045.0 381.6, 1044.0 381.9 " fill="#000000"/>
<path class="legend" d="M 1051.3 380.8 Q 1052.3 380.8, 1053.1 381.2 Q 1053.9 381.6, 1054.4 382.4 Q 1054.8 383.2, 1054.8 384.3 Q 1054.8 385.5, 1054.2 386.3 Q 1053.7 387.2, 1052.8 387.6 Q 1051.8 388.0, 1050.8 388.0 Q 1049.7 388.0, 1048.8 387.6 Q 1047.8 387.2, 1047.2 386.5 L 1048.1 385.5 Q 1048.6 386.1, 1049.4 386.4 Q 1050.1 386.7, 1050.8 386.7 Q 1051.8 386.7, 1052.5 386.1 Q 1053.2 385.5, 1053.2 384.3 Q 1053.2 383.1, 1052.5 382.6 Q 1051.8 382.0, 1050.7 382.0 Q 1049.7 382.0, 1048.6 382.4 L 1047.7 382.0 L 1048.3 376.6 L 1054.1 376.6 L 1054.0 377.8 L 1049.6 377.8 L 1049.3 381.2 Q 1050.3 380.8, 1051.3 380.8 " fill="#000000"/>
<path class="legend" d="M 1060.0 380.8 Q 1061.0 380.8, 1061.8 381.2 Q 1062.6 381.7, 1063.0 382.5 Q 1063.4 383.2, 1063.4 384.2 Q 1063.4 385.3, 1062.9 386.2 Q 1062.5 387.1, 1061.6 387.5 Q 1060.7 388.0, 1059.6 388.0 Q 1057.6 388.0, 1056.6 386.7 Q 1055.6 385.3, 1055.6 382.6 Q 1055.6 379.6, 1056.8 378.0 Q 1058.1 376.4, 1060.5 376.4 Q 1061.2 376.4, 1061.8 376.6 Q 1062.4 376.8, 1063.0 377.1 L 1062.4 378.2 Q 1061.5 377.7, 1060.5 377.7 Q 1058.9 377.7, 1058.1 378.8 Q 1057.3 379.8, 1057.2 381.9 Q 1057.8 381.4, 1058.5 381.1 Q 1059.2 380.8, 1060.0 380.8 M 1059.7 386.7 Q 1060.3 386.7, 1060.8 386.4 Q 1061.3 386.1, 1061.6 385.5 Q 1061.8 384.9, 1061.8 384.3 Q 1061.8 383.2, 1061.3 382.7 Q 1060.7 382.1, 1059.7 382.1 Q 1059.0 382.1, 1058.4 382.4 Q 1057.7 382.7, 1057.2 383.1 Q 1057.3 385.0, 1057.9 385.9 Q 1058.5 386.7, 1059.7 386.7 " fill="#000000"/>
<path class="bond-0 atom-0 atom-1" d="M 1263.2,284.5 L 1261.2,265.8" style="fill:none;fill-rule:evenodd;stroke:#FF0000;stroke-width:2.0px;stroke-linecap:butt;stroke-linejoin:miter;stroke-opacity:1"/>
<path class="bond-0 atom-0 atom-1" d="M 1261.2,265.8 L 1259.2,247.2" style="fill:none;fill-rule:evenodd;stroke:#000000;stroke-width:2.0px;stroke-linecap:butt;stroke-linejoin:miter;stroke-opacity:1"/>
<path class="bond-0 atom-0 atom-1" d="M 1272.3,283.5 L 1270.3,264.8" style="fill:none;fill-rule:evenodd;stroke:#FF0000;stroke-width:2.0px;stroke-linecap:butt;stroke-linejoin:miter;stroke-opacity:1"/>
<path class="bond-0 atom-0 atom-1" d="M 1270.3,264.8 L 1268.3,246.2" style="fill:none;fill-rule:evenodd;stroke:#000000;stroke-width:2.0px;stroke-linecap:butt;stroke-linejoin:miter;stroke-opacity:1"/>
<path class="bond-1 atom-1 atom-2" d="M 1263.7,246.7 L 1247.6,237.4" style="fill:none;fill-rule:evenodd;stroke:#000000;stroke-width:2.0px;stroke-linecap:butt;stroke-linejoin:miter;stroke-opacity:1"/>
<path class="bond-1 atom-1 atom-2" d="M 1247.6,237.4 L 1231.6,228.2" style="fill:none;fill-rule:evenodd;stroke:#FF0000;stroke-width:2.0px;stroke-linecap:butt;stroke-linejoin:miter;stroke-opacity:1"/>
<path class="bond-2 atom-2 atom-3" d="M 1225.8,215.9 L 1229.6,197.6" style="fill:none;fill-rule:evenodd;stroke:#FF0000;stroke-width:2.0px;stroke-linecap:butt;stroke-linejoin:miter;stroke-opacity:1"/>
<path class="bond-2 atom-2 atom-3" d="M 1229.6,197.6 L 1233.5,179.3" style="fill:none;fill-rule:evenodd;stroke:#000000;stroke-width:2.0px;stroke-linecap:butt;stroke-linejoin:miter;stroke-opacity:1"/>
<path class="bond-3 atom-3 atom-4" d="M 1233.5,179.3 L 1278.8,174.4" style="fill:none;fill-rule:evenodd;stroke:#000000;stroke-width:2.0px;stroke-linecap:butt;stroke-linejoin:miter;stroke-opacity:1"/>
<path class="bond-4 atom-4 atom-5" d="M 1278.8,174.4 L 1286.4,191.2" style="fill:none;fill-rule:evenodd;stroke:#000000;stroke-width:2.0px;stroke-linecap:butt;stroke-linejoin:miter;stroke-opacity:1"/>
<path class="bond-4 atom-4 atom-5" d="M 1286.4,191.2 L 1294.0,208.0" style="fill:none;fill-rule:evenodd;stroke:#0000FF;stroke-width:2.0px;stroke-linecap:butt;stroke-linejoin:miter;stroke-opacity:1"/>
<path class="bond-5 atom-5 atom-6" d="M 1304.0,217.3 L 1323.1,221.3" style="fill:none;fill-rule:evenodd;stroke:#0000FF;stroke-width:2.0px;stroke-linecap:butt;stroke-linejoin:miter;stroke-opacity:1"/>
<path class="bond-5 atom-5 atom-6" d="M 1323.1,221.3 L 1342.2,225.3" style="fill:none;fill-rule:evenodd;stroke:#000000;stroke-width:2.0px;stroke-linecap:butt;stroke-linejoin:miter;stroke-opacity:1"/>
<path class="bond-6 atom-6 atom-7" d="M 1342.2,225.3 L 1372.7,191.3" style="fill:none;fill-rule:evenodd;stroke:#000000;stroke-width:2.0px;stroke-linecap:butt;stroke-linejoin:miter;stroke-opacity:1"/>
<path class="bond-6 atom-6 atom-7" d="M 1340.0,214.2 L 1361.3,190.3" style="fill:none;fill-rule:evenodd;stroke:#000000;stroke-width:2.0px;stroke-linecap:butt;stroke-linejoin:miter;stroke-opacity:1"/>
<path class="bond-7 atom-7 atom-8" d="M 1372.7,191.3 L 1358.4,148.0" style="fill:none;fill-rule:evenodd;stroke:#000000;stroke-width:2.0px;stroke-linecap:butt;stroke-linejoin:miter;stroke-opacity:1"/>
<path class="bond-8 atom-8 atom-9" d="M 1358.4,148.0 L 1388.8,113.9" style="fill:none;fill-rule:evenodd;stroke:#000000;stroke-width:2.0px;stroke-linecap:butt;stroke-linejoin:miter;stroke-opacity:1"/>
<path class="bond-8 atom-8 atom-9" d="M 1356.2,136.8 L 1377.5,113.0" style="fill:none;fill-rule:evenodd;stroke:#000000;stroke-width:2.0px;stroke-linecap:butt;stroke-linejoin:miter;stroke-opacity:1"/>
<path class="bond-9 atom-9 atom-10" d="M 1388.8,113.9 L 1374.6,70.6" style="fill:none;fill-rule:evenodd;stroke:#000000;stroke-width:2.0px;stroke-linecap:butt;stroke-linejoin:miter;stroke-opacity:1"/>
<path class="bond-10 atom-10 atom-11" d="M 1374.6,70.6 L 1329.9,61.2" style="fill:none;fill-rule:evenodd;stroke:#000000;stroke-width:2.0px;stroke-linecap:butt;stroke-linejoin:miter;stroke-opacity:1"/>
<path class="bond-10 atom-10 atom-11" d="M 1366.0,78.1 L 1334.7,71.6" style="fill:none;fill-rule:evenodd;stroke:#000000;stroke-width:2.0px;stroke-linecap:butt;stroke-linejoin:miter;stroke-opacity:1"/>
<path class="bond-11 atom-11 atom-12" d="M 1329.9,61.2 L 1299.5,95.2" style="fill:none;fill-rule:evenodd;stroke:#000000;stroke-width:2.0px;stroke-linecap:butt;stroke-linejoin:miter;stroke-opacity:1"/>
<path class="bond-12 atom-12 atom-13" d="M 1299.5,95.2 L 1313.7,138.6" style="fill:none;fill-rule:evenodd;stroke:#000000;stroke-width:2.0px;stroke-linecap:butt;stroke-linejoin:miter;stroke-opacity:1"/>
<path class="bond-12 atom-12 atom-13" d="M 1310.3,98.9 L 1320.3,129.3" style="fill:none;fill-rule:evenodd;stroke:#000000;stroke-width:2.0px;stroke-linecap:butt;stroke-linejoin:miter;stroke-opacity:1"/>
<path class="bond-13 atom-7 atom-14" d="M 1372.7,191.3 L 1417.3,200.7" style="fill:none;fill-rule:evenodd;stroke:#000000;stroke-width:2.0px;stroke-linecap:butt;stroke-linejoin:miter;stroke-opacity:1"/>
<path class="bond-14 atom-14 atom-15" d="M 1417.3,200.7 L 1431.6,244.0" style="fill:none;fill-rule:evenodd;stroke:#000000;stroke-width:2.0px;stroke-linecap:butt;stroke-linejoin:miter;stroke-opacity:1"/>
<path class="bond-14 atom-14 atom-15" d="M 1428.2,204.3 L 1438.1,234.7" style="fill:none;fill-rule:evenodd;stroke:#000000;stroke-width:2.0px;stroke-linecap:butt;stroke-linejoin:miter;stroke-opacity:1"/>
<path class="bond-15 atom-15 atom-16" d="M 1431.6,244.0 L 1476.3,253.4" style="fill:none;fill-rule:evenodd;stroke:#000000;stroke-width:2.0px;stroke-linecap:butt;stroke-linejoin:miter;stroke-opacity:1"/>
<path class="bond-16 atom-16 atom-17" d="M 1476.3,253.4 L 1506.7,219.4" style="fill:none;fill-rule:evenodd;stroke:#000000;stroke-width:2.0px;stroke-linecap:butt;stroke-linejoin:miter;stroke-opacity:1"/>
<path class="bond-16 atom-16 atom-17" d="M 1474.0,242.2 L 1495.3,218.4" style="fill:none;fill-rule:evenodd;stroke:#000000;stroke-width:2.0px;stroke-linecap:butt;stroke-linejoin:miter;stroke-opacity:1"/>
<path class="bond-17 atom-17 atom-18" d="M 1506.7,219.4 L 1551.4,228.7" style="fill:none;fill-rule:evenodd;stroke:#000000;stroke-width:2.0px;stroke-linecap:butt;stroke-linejoin:miter;stroke-opacity:1"/>
<path class="bond-18 atom-18 atom-19" d="M 1551.4,228.7 L 1581.8,194.7" style="fill:none;fill-rule:evenodd;stroke:#000000;stroke-width:2.0px;stroke-linecap:butt;stroke-linejoin:miter;stroke-opacity:1"/>
<path class="bond-18 atom-18 atom-19" d="M 1549.1,217.5 L 1570.4,193.7" style="fill:none;fill-rule:evenodd;stroke:#000000;stroke-width:2.0px;stroke-linecap:butt;stroke-linejoin:miter;stroke-opacity:1"/>
<path class="bond-19 atom-19 atom-20" d="M 1581.8,194.7 L 1567.6,151.3" style="fill:none;fill-rule:evenodd;stroke:#000000;stroke-width:2.0px;stroke-linecap:butt;stroke-linejoin:miter;stroke-opacity:1"/>
<path class="bond-20 atom-20 atom-21" d="M 1567.6,151.3 L 1522.9,142.0" style="fill:none;fill-rule:evenodd;stroke:#000000;stroke-width:2.0px;stroke-linecap:butt;stroke-linejoin:miter;stroke-opacity:1"/>
<path class="bond-20 atom-20 atom-21" d="M 1559.0,158.8 L 1527.7,152.3" style="fill:none;fill-rule:evenodd;stroke:#000000;stroke-width:2.0px;stroke-linecap:butt;stroke-linejoin:miter;stroke-opacity:1"/>
<path class="bond-21 atom-21 atom-22" d="M 1522.9,142.0 L 1492.5,176.0" style="fill:none;fill-rule:evenodd;stroke:#000000;stroke-width:2.0px;stroke-linecap:butt;stroke-linejoin:miter;stroke-opacity:1"/>
<path class="bond-22 atom-22 atom-23" d="M 1492.5,176.0 L 1447.8,166.6" style="fill:none;fill-rule:evenodd;stroke:#000000;stroke-width:2.0px;stroke-linecap:butt;stroke-linejoin:miter;stroke-opacity:1"/>
<path class="bond-22 atom-22 atom-23" d="M 1483.9,183.5 L 1452.6,177.0" style="fill:none;fill-rule:evenodd;stroke:#000000;stroke-width:2.0px;stroke-linecap:butt;stroke-linejoin:miter;stroke-opacity:1"/>
<path class="bond-23 atom-5 atom-1" d="M 1291.1,221.8 L 1277.4,234.2" style="fill:none;fill-rule:evenodd;stroke:#0000FF;stroke-width:2.0px;stroke-linecap:butt;stroke-linejoin:miter;stroke-opacity:1"/>
<path class="bond-23 atom-5 atom-1" d="M 1277.4,234.2 L 1263.7,246.7" style="fill:none;fill-rule:evenodd;stroke:#000000;stroke-width:2.0px;stroke-linecap:butt;stroke-linejoin:miter;stroke-opacity:1"/>
<path class="bond-24 atom-13 atom-8" d="M 1313.7,138.6 L 1358.4,148.0" style="fill:none;fill-rule:evenodd;stroke:#000000;stroke-width:2.0px;stroke-linecap:butt;stroke-linejoin:miter;stroke-opacity:1"/>
<path class="bond-25 atom-23 atom-14" d="M 1447.8,166.6 L 1417.3,200.7" style="fill:none;fill-rule:evenodd;stroke:#000000;stroke-width:2.0px;stroke-linecap:butt;stroke-linejoin:miter;stroke-opacity:1"/>
<path class="bond-26 atom-22 atom-17" d="M 1492.5,176.0 L 1506.7,219.4" style="fill:none;fill-rule:evenodd;stroke:#000000;stroke-width:2.0px;stroke-linecap:butt;stroke-linejoin:miter;stroke-opacity:1"/>
<path class="atom-0" d="M 1262.7 292.1 Q 1262.7 289.0, 1264.2 287.2 Q 1265.8 285.5, 1268.6 285.5 Q 1271.5 285.5, 1273.0 287.2 Q 1274.6 289.0, 1274.6 292.1 Q 1274.6 295.2, 1273.0 297.0 Q 1271.5 298.8, 1268.6 298.8 Q 1265.8 298.8, 1264.2 297.0 Q 1262.7 295.2, 1262.7 292.1 M 1268.6 297.3 Q 1270.6 297.3, 1271.7 296.0 Q 1272.8 294.7, 1272.8 292.1 Q 1272.8 289.5, 1271.7 288.3 Q 1270.6 287.0, 1268.6 287.0 Q 1266.7 287.0, 1265.6 288.2 Q 1264.5 289.5, 1264.5 292.1 Q 1264.5 294.7, 1265.6 296.0 Q 1266.7 297.3, 1268.6 297.3 " fill="#FF0000"/>
<path class="atom-2" d="M 1218.2 224.0 Q 1218.2 220.9, 1219.7 219.2 Q 1221.2 217.4, 1224.1 217.4 Q 1227.0 217.4, 1228.5 219.2 Q 1230.1 220.9, 1230.1 224.0 Q 1230.1 227.1, 1228.5 228.9 Q 1226.9 230.7, 1224.1 230.7 Q 1221.3 230.7, 1219.7 228.9 Q 1218.2 227.2, 1218.2 224.0 M 1224.1 229.2 Q 1226.1 229.2, 1227.1 227.9 Q 1228.2 226.6, 1228.2 224.0 Q 1228.2 221.5, 1227.1 220.2 Q 1226.1 218.9, 1224.1 218.9 Q 1222.1 218.9, 1221.1 220.2 Q 1220.0 221.4, 1220.0 224.0 Q 1220.0 226.6, 1221.1 227.9 Q 1222.1 229.2, 1224.1 229.2 " fill="#FF0000"/>
<path class="atom-5" d="M 1294.7 209.5 L 1298.9 216.4 Q 1299.3 217.1, 1300.0 218.3 Q 1300.7 219.5, 1300.7 219.6 L 1300.7 209.5 L 1302.4 209.5 L 1302.4 222.5 L 1300.7 222.5 L 1296.1 215.0 Q 1295.6 214.1, 1295.0 213.1 Q 1294.5 212.1, 1294.3 211.8 L 1294.3 222.5 L 1292.6 222.5 L 1292.6 209.5 L 1294.7 209.5 " fill="#0000FF"/>
<path class="legend" d="M 1368.0 365.4 L 1368.1 366.5 Q 1369.0 365.3, 1370.4 365.3 Q 1370.9 365.3, 1371.5 365.4 L 1371.2 366.8 Q 1370.5 366.6, 1370.2 366.6 Q 1369.5 366.6, 1369.0 366.9 Q 1368.6 367.1, 1368.3 367.8 L 1368.3 373.6 L 1366.8 373.6 L 1366.8 365.4 L 1368.0 365.4 " fill="#000000"/>
<path class="legend" d="M 1371.7 369.5 Q 1371.7 367.5, 1372.7 366.4 Q 1373.7 365.3, 1375.6 365.3 Q 1377.4 365.3, 1378.2 366.4 Q 1379.0 367.4, 1379.0 369.5 L 1379.0 369.7 L 1373.2 369.7 Q 1373.3 371.1, 1373.9 371.8 Q 1374.5 372.6, 1375.7 372.6 Q 1376.3 372.6, 1376.9 372.4 Q 1377.5 372.3, 1378.2 372.0 L 1378.7 373.0 Q 1377.9 373.4, 1377.1 373.6 Q 1376.4 373.8, 1375.6 373.8 Q 1373.8 373.8, 1372.7 372.6 Q 1371.7 371.5, 1371.7 369.5 M 1375.6 366.4 Q 1374.6 366.4, 1374.0 367.0 Q 1373.5 367.5, 1373.3 368.6 L 1377.4 368.6 Q 1377.3 367.5, 1376.8 367.0 Q 1376.4 366.4, 1375.6 366.4 " fill="#000000"/>
<path class="legend" d="M 1379.6 371.4 Q 1379.6 370.1, 1380.7 369.4 Q 1381.7 368.7, 1383.6 368.7 L 1384.9 368.7 L 1384.9 368.3 Q 1384.9 367.3, 1384.4 366.9 Q 1384.0 366.4, 1383.0 366.4 Q 1382.3 366.4, 1381.8 366.6 Q 1381.3 366.7, 1380.5 367.0 L 1380.1 366.0 Q 1381.6 365.3, 1383.0 365.3 Q 1384.8 365.3, 1385.6 366.0 Q 1386.4 366.8, 1386.4 368.4 L 1386.4 373.6 L 1385.2 373.6 Q 1385.2 373.6, 1385.1 373.3 Q 1385.1 373.1, 1385.0 372.7 Q 1383.8 373.8, 1382.3 373.8 Q 1381.1 373.8, 1380.3 373.2 Q 1379.6 372.5, 1379.6 371.4 M 1381.1 371.4 Q 1381.1 372.0, 1381.5 372.3 Q 1381.9 372.6, 1382.6 372.6 Q 1383.2 372.6, 1383.8 372.4 Q 1384.4 372.0, 1384.9 371.5 L 1384.9 369.8 L 1383.7 369.8 Q 1382.4 369.8, 1381.8 370.2 Q 1381.1 370.6, 1381.1 371.4 " fill="#000000"/>
<path class="legend" d="M 1387.6 369.5 Q 1387.6 367.5, 1388.6 366.4 Q 1389.6 365.3, 1391.5 365.3 Q 1393.4 365.3, 1394.4 366.6 L 1393.4 367.4 Q 1393.0 366.9, 1392.5 366.7 Q 1392.1 366.4, 1391.5 366.4 Q 1390.4 366.4, 1389.8 367.2 Q 1389.1 368.0, 1389.1 369.5 Q 1389.1 371.0, 1389.8 371.8 Q 1390.4 372.6, 1391.6 372.6 Q 1392.3 372.6, 1392.8 372.4 Q 1393.2 372.3, 1393.8 372.0 L 1394.2 373.0 Q 1393.0 373.7, 1391.5 373.7 Q 1389.6 373.7, 1388.6 372.6 Q 1387.6 371.5, 1387.6 369.5 " fill="#000000"/>
<path class="legend" d="M 1394.8 366.6 L 1394.8 365.4 L 1396.3 365.4 L 1396.6 363.0 L 1397.7 363.0 L 1397.7 365.4 L 1400.2 365.4 L 1400.2 366.6 L 1397.7 366.6 L 1397.7 371.1 Q 1397.7 372.5, 1398.9 372.5 Q 1399.4 372.5, 1400.1 372.3 L 1400.4 373.4 Q 1399.5 373.7, 1398.6 373.7 Q 1397.6 373.7, 1396.9 373.1 Q 1396.2 372.4, 1396.2 371.2 L 1396.2 366.6 L 1394.8 366.6 " fill="#000000"/>
<path class="legend" d="M 1408.9 374.4 L 1408.9 375.7 L 1400.8 375.7 L 1400.8 374.4 L 1408.9 374.4 " fill="#000000"/>
<path class="legend" d="M 1414.8 363.6 L 1408.9 363.6 L 1408.9 362.3 L 1416.4 362.3 L 1416.4 363.4 L 1411.9 373.6 L 1410.3 373.6 L 1414.8 363.6 " fill="#000000"/>
<path class="legend" d="M 1421.3 366.6 Q 1422.3 366.6, 1423.1 367.0 Q 1423.9 367.4, 1424.3 368.2 Q 1424.8 369.0, 1424.8 370.0 Q 1424.8 371.1, 1424.3 372.0 Q 1423.8 372.8, 1422.9 373.3 Q 1422.0 373.8, 1420.9 373.8 Q 1418.9 373.8, 1417.9 372.4 Q 1416.9 371.0, 1416.9 368.3 Q 1416.9 365.3, 1418.1 363.7 Q 1419.4 362.2, 1421.8 362.2 Q 1422.5 362.2, 1423.1 362.3 Q 1423.7 362.5, 1424.3 362.8 L 1423.7 363.9 Q 1422.8 363.5, 1421.8 363.5 Q 1420.2 363.5, 1419.4 364.5 Q 1418.6 365.5, 1418.5 367.6 Q 1419.1 367.1, 1419.8 366.8 Q 1420.5 366.6, 1421.3 366.6 M 1421.0 372.4 Q 1421.6 372.4, 1422.1 372.1 Q 1422.6 371.8, 1422.9 371.2 Q 1423.2 370.7, 1423.2 370.0 Q 1423.2 369.0, 1422.6 368.4 Q 1422.0 367.8, 1421.0 367.8 Q 1420.4 367.8, 1419.7 368.1 Q 1419.0 368.4, 1418.5 368.9 Q 1418.6 370.8, 1419.2 371.6 Q 1419.8 372.4, 1421.0 372.4 " fill="#000000"/>
<path class="legend" d="M 1431.1 367.7 Q 1432.2 368.0, 1432.7 368.7 Q 1433.2 369.4, 1433.2 370.5 Q 1433.2 371.5, 1432.8 372.2 Q 1432.3 373.0, 1431.4 373.4 Q 1430.5 373.8, 1429.4 373.8 Q 1428.2 373.8, 1427.2 373.4 Q 1426.4 372.9, 1425.6 372.1 L 1426.5 371.2 Q 1427.2 371.9, 1427.8 372.2 Q 1428.4 372.5, 1429.4 372.5 Q 1430.4 372.5, 1431.0 372.0 Q 1431.6 371.4, 1431.6 370.5 Q 1431.6 369.4, 1431.0 368.8 Q 1430.4 368.3, 1429.0 368.3 L 1428.1 368.3 L 1428.1 367.2 L 1428.9 367.2 Q 1430.1 367.2, 1430.8 366.6 Q 1431.4 366.1, 1431.4 365.1 Q 1431.4 364.3, 1430.9 363.9 Q 1430.3 363.5, 1429.4 363.5 Q 1428.4 363.5, 1427.9 363.8 Q 1427.3 364.1, 1426.8 365.0 L 1425.7 364.4 Q 1426.1 363.4, 1427.1 362.8 Q 1428.0 362.2, 1429.4 362.2 Q 1431.1 362.2, 1432.0 363.0 Q 1433.0 363.7, 1433.0 365.1 Q 1433.0 366.0, 1432.5 366.6 Q 1432.0 367.3, 1431.1 367.7 " fill="#000000"/>
<path class="legend" d="M 1336.9 383.8 Q 1336.9 381.8, 1337.9 380.7 Q 1338.9 379.5, 1340.8 379.5 Q 1342.7 379.5, 1343.7 380.9 L 1342.7 381.6 Q 1342.3 381.2, 1341.8 380.9 Q 1341.4 380.7, 1340.8 380.7 Q 1339.7 380.7, 1339.0 381.5 Q 1338.4 382.3, 1338.4 383.8 Q 1338.4 385.3, 1339.1 386.1 Q 1339.7 386.8, 1340.9 386.8 Q 1341.6 386.8, 1342.1 386.7 Q 1342.5 386.5, 1343.1 386.3 L 1343.5 387.3 Q 1342.3 388.0, 1340.8 388.0 Q 1338.9 388.0, 1337.9 386.9 Q 1336.9 385.7, 1336.9 383.8 " fill="#000000"/>
<path class="legend" d="M 1344.1 383.8 Q 1344.1 381.7, 1345.1 380.6 Q 1346.1 379.5, 1347.9 379.5 Q 1349.7 379.5, 1350.5 380.6 Q 1351.3 381.7, 1351.3 383.7 L 1351.3 384.0 L 1345.6 384.0 Q 1345.6 385.4, 1346.2 386.1 Q 1346.9 386.8, 1348.0 386.8 Q 1348.7 386.8, 1349.3 386.7 Q 1349.9 386.5, 1350.6 386.2 L 1351.0 387.2 Q 1350.2 387.6, 1349.5 387.8 Q 1348.7 388.0, 1348.0 388.0 Q 1346.1 388.0, 1345.1 386.9 Q 1344.1 385.8, 1344.1 383.8 M 1347.9 380.7 Q 1347.0 380.7, 1346.4 381.2 Q 1345.8 381.8, 1345.7 382.8 L 1349.7 382.8 Q 1349.6 381.7, 1349.2 381.2 Q 1348.7 380.7, 1347.9 380.7 " fill="#000000"/>
<path class="legend" d="M 1356.2 379.5 Q 1357.5 379.5, 1358.2 380.3 Q 1358.9 381.0, 1358.9 382.4 L 1358.9 387.9 L 1357.4 387.9 L 1357.4 382.6 Q 1357.4 381.6, 1357.0 381.2 Q 1356.7 380.7, 1355.8 380.7 Q 1355.1 380.7, 1354.5 381.1 Q 1353.8 381.4, 1353.4 382.0 L 1353.4 387.9 L 1351.9 387.9 L 1351.9 379.7 L 1353.2 379.7 L 1353.3 380.8 Q 1354.5 379.5, 1356.2 379.5 " fill="#000000"/>
<path class="legend" d="M 1360.2 380.8 L 1360.2 379.7 L 1361.7 379.7 L 1362.0 377.3 L 1363.1 377.3 L 1363.1 379.7 L 1365.6 379.7 L 1365.6 380.8 L 1363.1 380.8 L 1363.1 385.4 Q 1363.1 386.8, 1364.3 386.8 Q 1364.8 386.8, 1365.5 386.6 L 1365.7 387.6 Q 1364.9 388.0, 1364.0 388.0 Q 1363.0 388.0, 1362.3 387.3 Q 1361.6 386.7, 1361.6 385.4 L 1361.6 380.8 L 1360.2 380.8 " fill="#000000"/>
<path class="legend" d="M 1374.3 388.7 L 1374.3 390.0 L 1366.1 390.0 L 1366.1 388.7 L 1374.3 388.7 " fill="#000000"/>
<path class="legend" d="M 1381.8 375.7 L 1381.8 387.9 L 1380.6 387.9 L 1380.4 386.9 Q 1379.4 388.0, 1377.9 388.0 Q 1376.2 388.0, 1375.3 387.0 Q 1374.3 385.9, 1374.3 383.9 Q 1374.3 381.8, 1375.4 380.7 Q 1376.6 379.5, 1378.5 379.5 Q 1379.4 379.5, 1380.3 379.7 L 1380.3 375.7 L 1381.8 375.7 M 1378.0 386.8 Q 1378.9 386.8, 1379.4 386.4 Q 1380.1 385.9, 1380.3 385.1 L 1380.3 380.9 Q 1379.5 380.7, 1378.5 380.7 Q 1377.3 380.7, 1376.6 381.6 Q 1375.8 382.4, 1375.8 383.9 Q 1375.8 385.3, 1376.4 386.1 Q 1377.0 386.8, 1378.0 386.8 " fill="#000000"/>
<path class="legend" d="M 1383.1 376.6 L 1384.5 376.6 L 1384.5 378.0 L 1383.1 378.0 L 1383.1 376.6 M 1383.1 379.7 L 1384.5 379.7 L 1384.5 387.9 L 1383.1 387.9 L 1383.1 379.7 " fill="#000000"/>
<path class="legend" d="M 1386.4 386.2 Q 1387.1 386.5, 1387.6 386.6 Q 1388.1 386.8, 1388.7 386.8 Q 1389.4 386.8, 1389.8 386.5 Q 1390.2 386.2, 1390.2 385.6 Q 1390.2 385.2, 1390.0 385.0 Q 1389.8 384.8, 1389.5 384.6 Q 1389.3 384.5, 1388.5 384.3 Q 1388.4 384.3, 1387.7 384.0 Q 1387.0 383.7, 1386.6 383.2 Q 1386.2 382.7, 1386.2 381.9 Q 1386.2 380.9, 1386.9 380.2 Q 1387.7 379.5, 1389.2 379.5 Q 1389.8 379.5, 1390.4 379.7 Q 1390.9 379.8, 1391.5 380.0 L 1391.1 381.2 Q 1390.6 381.0, 1390.1 380.9 Q 1389.7 380.8, 1389.2 380.8 Q 1388.5 380.8, 1388.1 381.1 Q 1387.7 381.4, 1387.7 381.8 Q 1387.7 382.3, 1388.0 382.5 Q 1388.3 382.7, 1389.0 383.0 Q 1389.1 383.0, 1389.3 383.1 L 1389.7 383.2 Q 1390.3 383.4, 1390.7 383.7 Q 1391.2 383.9, 1391.4 384.4 Q 1391.7 384.8, 1391.7 385.6 Q 1391.7 386.7, 1390.9 387.4 Q 1390.1 388.0, 1388.7 388.0 Q 1387.9 388.0, 1387.3 387.9 Q 1386.6 387.7, 1385.9 387.4 L 1386.4 386.2 " fill="#000000"/>
<path class="legend" d="M 1392.6 380.8 L 1392.6 379.7 L 1394.1 379.7 L 1394.4 377.3 L 1395.5 377.3 L 1395.5 379.7 L 1398.0 379.7 L 1398.0 380.8 L 1395.5 380.8 L 1395.5 385.4 Q 1395.5 386.8, 1396.7 386.8 Q 1397.2 386.8, 1397.9 386.6 L 1398.2 387.6 Q 1397.3 388.0, 1396.5 388.0 Q 1395.4 388.0, 1394.7 387.3 Q 1394.0 386.7, 1394.0 385.4 L 1394.0 380.8 L 1392.6 380.8 " fill="#000000"/>
<path class="legend" d="" fill="#000000"/>
<path class="legend" d="M 1403.9 380.9 L 1411.2 380.9 L 1411.2 382.1 L 1403.9 382.1 L 1403.9 380.9 M 1403.9 384.4 L 1411.2 384.4 L 1411.2 385.5 L 1403.9 385.5 L 1403.9 384.4 " fill="#000000"/>
<path class="legend" d="" fill="#000000"/>
<path class="legend" d="M 1418.6 386.6 L 1421.1 386.6 L 1421.1 378.1 L 1418.4 379.0 L 1418.0 378.0 L 1421.5 376.5 L 1422.6 376.7 L 1422.6 386.6 L 1424.8 386.6 L 1424.8 387.9 L 1418.6 387.9 L 1418.6 386.6 " fill="#000000"/>
<path class="legend" d="M 1425.5 386.3 L 1427.1 386.3 L 1427.1 387.9 L 1425.5 387.9 L 1425.5 386.3 " fill="#000000"/>
<path class="legend" d="M 1432.3 388.0 Q 1430.2 388.0, 1429.2 386.5 Q 1428.2 384.9, 1428.2 382.2 Q 1428.2 379.5, 1429.2 378.0 Q 1430.2 376.4, 1432.3 376.4 Q 1434.4 376.4, 1435.4 378.0 Q 1436.4 379.5, 1436.4 382.2 Q 1436.4 384.9, 1435.4 386.5 Q 1434.4 388.0, 1432.3 388.0 M 1432.3 386.7 Q 1433.5 386.7, 1434.2 385.6 Q 1434.8 384.4, 1434.8 382.2 Q 1434.8 380.0, 1434.2 378.8 Q 1433.5 377.7, 1432.3 377.7 Q 1431.1 377.7, 1430.4 378.8 Q 1429.8 380.0, 1429.8 382.2 Q 1429.8 384.4, 1430.4 385.6 Q 1431.1 386.7, 1432.3 386.7 " fill="#000000"/>
<path class="legend" d="M 1443.3 381.9 Q 1444.3 382.3, 1444.9 383.0 Q 1445.5 383.7, 1445.5 384.8 Q 1445.5 385.7, 1445.0 386.5 Q 1444.5 387.2, 1443.6 387.6 Q 1442.7 388.0, 1441.5 388.0 Q 1439.7 388.0, 1438.6 387.2 Q 1437.5 386.3, 1437.5 384.8 Q 1437.5 383.9, 1438.0 383.2 Q 1438.4 382.5, 1439.4 381.9 Q 1438.7 381.5, 1438.3 380.9 Q 1437.9 380.3, 1437.9 379.3 Q 1437.9 378.0, 1438.9 377.2 Q 1439.8 376.4, 1441.5 376.4 Q 1443.1 376.4, 1444.1 377.2 Q 1445.1 378.0, 1445.1 379.3 Q 1445.1 380.2, 1444.6 380.8 Q 1444.2 381.4, 1443.3 381.9 M 1441.5 377.6 Q 1440.5 377.6, 1440.0 378.1 Q 1439.5 378.5, 1439.5 379.3 Q 1439.5 379.9, 1439.9 380.3 Q 1440.2 380.7, 1440.7 380.9 Q 1441.2 381.2, 1442.2 381.5 Q 1442.9 381.0, 1443.2 380.5 Q 1443.5 380.0, 1443.5 379.3 Q 1443.5 378.5, 1442.9 378.1 Q 1442.4 377.6, 1441.5 377.6 M 1441.5 386.8 Q 1442.6 386.8, 1443.2 386.3 Q 1443.9 385.7, 1443.9 384.8 Q 1443.9 384.2, 1443.5 383.8 Q 1443.2 383.4, 1442.7 383.2 Q 1442.2 382.9, 1441.3 382.7 L 1440.6 382.4 Q 1439.8 382.9, 1439.4 383.5 Q 1439.1 384.0, 1439.1 384.8 Q 1439.1 385.7, 1439.8 386.3 Q 1440.4 386.8, 1441.5 386.8 " fill="#000000"/>
<path class="legend" d="M 1452.3 381.9 Q 1453.3 382.3, 1453.9 383.0 Q 1454.5 383.7, 1454.5 384.8 Q 1454.5 385.7, 1454.0 386.5 Q 1453.5 387.2, 1452.6 387.6 Q 1451.7 388.0, 1450.6 388.0 Q 1448.7 388.0, 1447.6 387.2 Q 1446.5 386.3, 1446.5 384.8 Q 1446.5 383.9, 1447.0 383.2 Q 1447.5 382.5, 1448.4 381.9 Q 1447.7 381.5, 1447.3 380.9 Q 1446.9 380.3, 1446.9 379.3 Q 1446.9 378.0, 1447.9 377.2 Q 1448.8 376.4, 1450.5 376.4 Q 1452.1 376.4, 1453.1 377.2 Q 1454.1 378.0, 1454.1 379.3 Q 1454.1 380.2, 1453.6 380.8 Q 1453.2 381.4, 1452.3 381.9 M 1450.5 377.6 Q 1449.5 377.6, 1449.0 378.1 Q 1448.5 378.5, 1448.5 379.3 Q 1448.5 379.9, 1448.9 380.3 Q 1449.2 380.7, 1449.7 380.9 Q 1450.2 381.2, 1451.2 381.5 Q 1451.9 381.0, 1452.2 380.5 Q 1452.5 380.0, 1452.5 379.3 Q 1452.5 378.5, 1451.9 378.1 Q 1451.4 377.6, 1450.5 377.6 M 1450.6 386.8 Q 1451.6 386.8, 1452.3 386.3 Q 1452.9 385.7, 1452.9 384.8 Q 1452.9 384.2, 1452.6 383.8 Q 1452.2 383.4, 1451.7 383.2 Q 1451.2 382.9, 1450.3 382.7 L 1449.6 382.4 Q 1448.8 382.9, 1448.4 383.5 Q 1448.1 384.0, 1448.1 384.8 Q 1448.1 385.7, 1448.8 386.3 Q 1449.4 386.8, 1450.6 386.8 " fill="#000000"/>
<path class="legend" d="M 1460.9 381.9 Q 1462.0 382.2, 1462.6 383.0 Q 1463.1 383.7, 1463.1 384.8 Q 1463.1 385.7, 1462.6 386.5 Q 1462.2 387.2, 1461.3 387.6 Q 1460.4 388.0, 1459.2 388.0 Q 1458.0 388.0, 1457.1 387.6 Q 1456.2 387.2, 1455.5 386.3 L 1456.4 385.4 Q 1457.1 386.2, 1457.7 386.5 Q 1458.3 386.8, 1459.2 386.8 Q 1460.3 386.8, 1460.9 386.2 Q 1461.5 385.7, 1461.5 384.8 Q 1461.5 383.6, 1460.9 383.1 Q 1460.2 382.6, 1458.8 382.6 L 1458.0 382.6 L 1458.0 381.4 L 1458.7 381.4 Q 1460.0 381.4, 1460.6 380.9 Q 1461.3 380.3, 1461.3 379.3 Q 1461.3 378.6, 1460.7 378.2 Q 1460.2 377.7, 1459.3 377.7 Q 1458.3 377.7, 1457.7 378.0 Q 1457.1 378.4, 1456.7 379.2 L 1455.6 378.6 Q 1456.0 377.7, 1457.0 377.1 Q 1457.9 376.4, 1459.3 376.4 Q 1460.9 376.4, 1461.9 377.2 Q 1462.9 378.0, 1462.9 379.3 Q 1462.9 380.2, 1462.4 380.9 Q 1461.9 381.6, 1460.9 381.9 " fill="#000000"/>
</svg>