<svg xmlns="http://www.w3.org/2000/svg" xmlns:rdkit="http://www.rdkit.org/xml" xmlns:xlink="http://www.w3.org/1999/xlink" version="1.1" baseProfile="full" xml:space="preserve" width="2000px" height="400px" viewBox="0 0 2000 400">
<!-- END OF HEADER -->
<rect style="opacity:1.0;fill:#FFFFFF;stroke:none" width="2000.0" height="400.0" x="0.0" y="0.0"> </rect>
<path class="bond-0 atom-0 atom-1" d="M 18.2,155.6 L 40.3,172.0" style="fill:none;fill-rule:evenodd;stroke:#000000;stroke-width:2.0px;stroke-linecap:butt;stroke-linejoin:miter;stroke-opacity:1"/>
<path class="bond-1 atom-1 atom-2" d="M 40.3,172.0 L 50.7,167.5" style="fill:none;fill-rule:evenodd;stroke:#000000;stroke-width:2.0px;stroke-linecap:butt;stroke-linejoin:miter;stroke-opacity:1"/>
<path class="bond-1 atom-1 atom-2" d="M 50.7,167.5 L 61.1,163.0" style="fill:none;fill-rule:evenodd;stroke:#FF0000;stroke-width:2.0px;stroke-linecap:butt;stroke-linejoin:miter;stroke-opacity:1"/>
<path class="bond-2 atom-2 atom-3" d="M 70.0,164.4 L 78.9,170.9" style="fill:none;fill-rule:evenodd;stroke:#FF0000;stroke-width:2.0px;stroke-linecap:butt;stroke-linejoin:miter;stroke-opacity:1"/>
<path class="bond-2 atom-2 atom-3" d="M 78.9,170.9 L 87.7,177.5" style="fill:none;fill-rule:evenodd;stroke:#000000;stroke-width:2.0px;stroke-linecap:butt;stroke-linejoin:miter;stroke-opacity:1"/>
<path class="bond-3 atom-3 atom-4" d="M 90.4,177.8 L 89.1,189.0" style="fill:none;fill-rule:evenodd;stroke:#000000;stroke-width:2.0px;stroke-linecap:butt;stroke-linejoin:miter;stroke-opacity:1"/>
<path class="bond-3 atom-3 atom-4" d="M 89.1,189.0 L 87.8,200.3" style="fill:none;fill-rule:evenodd;stroke:#FF0000;stroke-width:2.0px;stroke-linecap:butt;stroke-linejoin:miter;stroke-opacity:1"/>
<path class="bond-3 atom-3 atom-4" d="M 84.9,177.1 L 83.7,188.4" style="fill:none;fill-rule:evenodd;stroke:#000000;stroke-width:2.0px;stroke-linecap:butt;stroke-linejoin:miter;stroke-opacity:1"/>
<path class="bond-3 atom-3 atom-4" d="M 83.7,188.4 L 82.4,199.6" style="fill:none;fill-rule:evenodd;stroke:#FF0000;stroke-width:2.0px;stroke-linecap:butt;stroke-linejoin:miter;stroke-opacity:1"/>
<path class="bond-4 atom-3 atom-5" d="M 87.7,177.5 L 112.9,166.5" style="fill:none;fill-rule:evenodd;stroke:#000000;stroke-width:2.0px;stroke-linecap:butt;stroke-linejoin:miter;stroke-opacity:1"/>
<path class="bond-5 atom-5 atom-6" d="M 112.9,166.5 L 135.1,182.9" style="fill:none;fill-rule:evenodd;stroke:#000000;stroke-width:2.0px;stroke-linecap:butt;stroke-linejoin:miter;stroke-opacity:1"/>
<path class="bond-5 atom-5 atom-6" d="M 113.0,173.4 L 128.5,184.9" style="fill:none;fill-rule:evenodd;stroke:#000000;stroke-width:2.0px;stroke-linecap:butt;stroke-linejoin:miter;stroke-opacity:1"/>
<path class="bond-6 atom-6 atom-7" d="M 135.1,182.9 L 131.9,210.2" style="fill:none;fill-rule:evenodd;stroke:#000000;stroke-width:2.0px;stroke-linecap:butt;stroke-linejoin:miter;stroke-opacity:1"/>
<path class="bond-7 atom-6 atom-8" d="M 135.1,182.9 L 160.3,171.9" style="fill:none;fill-rule:evenodd;stroke:#000000;stroke-width:2.0px;stroke-linecap:butt;stroke-linejoin:miter;stroke-opacity:1"/>
<path class="bond-8 atom-8 atom-9" d="M 160.3,171.9 L 182.4,188.3" style="fill:none;fill-rule:evenodd;stroke:#000000;stroke-width:2.0px;stroke-linecap:butt;stroke-linejoin:miter;stroke-opacity:1"/>
<path class="bond-8 atom-8 atom-9" d="M 160.4,178.8 L 175.8,190.3" style="fill:none;fill-rule:evenodd;stroke:#000000;stroke-width:2.0px;stroke-linecap:butt;stroke-linejoin:miter;stroke-opacity:1"/>
<path class="bond-9 atom-9 atom-10" d="M 182.4,188.3 L 207.7,177.4" style="fill:none;fill-rule:evenodd;stroke:#000000;stroke-width:2.0px;stroke-linecap:butt;stroke-linejoin:miter;stroke-opacity:1"/>
<path class="bond-10 atom-10 atom-11" d="M 207.7,177.4 L 229.8,193.8" style="fill:none;fill-rule:evenodd;stroke:#000000;stroke-width:2.0px;stroke-linecap:butt;stroke-linejoin:miter;stroke-opacity:1"/>
<path class="bond-10 atom-10 atom-11" d="M 207.7,184.3 L 223.2,195.7" style="fill:none;fill-rule:evenodd;stroke:#000000;stroke-width:2.0px;stroke-linecap:butt;stroke-linejoin:miter;stroke-opacity:1"/>
<path class="bond-11 atom-11 atom-12" d="M 229.8,193.8 L 226.7,221.1" style="fill:none;fill-rule:evenodd;stroke:#000000;stroke-width:2.0px;stroke-linecap:butt;stroke-linejoin:miter;stroke-opacity:1"/>
<path class="bond-12 atom-11 atom-13" d="M 229.8,193.8 L 255.1,182.8" style="fill:none;fill-rule:evenodd;stroke:#000000;stroke-width:2.0px;stroke-linecap:butt;stroke-linejoin:miter;stroke-opacity:1"/>
<path class="bond-13 atom-13 atom-14" d="M 255.1,182.8 L 277.2,199.2" style="fill:none;fill-rule:evenodd;stroke:#000000;stroke-width:2.0px;stroke-linecap:butt;stroke-linejoin:miter;stroke-opacity:1"/>
<path class="bond-13 atom-13 atom-14" d="M 255.1,189.7 L 270.6,201.2" style="fill:none;fill-rule:evenodd;stroke:#000000;stroke-width:2.0px;stroke-linecap:butt;stroke-linejoin:miter;stroke-opacity:1"/>
<path class="bond-14 atom-14 atom-15" d="M 277.2,199.2 L 302.5,188.2" style="fill:none;fill-rule:evenodd;stroke:#000000;stroke-width:2.0px;stroke-linecap:butt;stroke-linejoin:miter;stroke-opacity:1"/>
<path class="bond-15 atom-15 atom-16" d="M 302.5,188.2 L 305.6,160.9" style="fill:none;fill-rule:evenodd;stroke:#000000;stroke-width:2.0px;stroke-linecap:butt;stroke-linejoin:miter;stroke-opacity:1"/>
<path class="bond-15 atom-15 atom-16" d="M 308.4,184.8 L 310.6,165.6" style="fill:none;fill-rule:evenodd;stroke:#000000;stroke-width:2.0px;stroke-linecap:butt;stroke-linejoin:miter;stroke-opacity:1"/>
<path class="bond-16 atom-16 atom-17" d="M 305.6,160.9 L 283.5,144.5" style="fill:none;fill-rule:evenodd;stroke:#000000;stroke-width:2.0px;stroke-linecap:butt;stroke-linejoin:miter;stroke-opacity:1"/>
<path class="bond-17 atom-16 atom-18" d="M 305.6,160.9 L 330.9,149.9" style="fill:none;fill-rule:evenodd;stroke:#000000;stroke-width:2.0px;stroke-linecap:butt;stroke-linejoin:miter;stroke-opacity:1"/>
<path class="bond-18 atom-18 atom-19" d="M 330.9,149.9 L 353.0,166.3" style="fill:none;fill-rule:evenodd;stroke:#000000;stroke-width:2.0px;stroke-linecap:butt;stroke-linejoin:miter;stroke-opacity:1"/>
<path class="bond-18 atom-18 atom-19" d="M 330.9,156.8 L 346.4,168.3" style="fill:none;fill-rule:evenodd;stroke:#000000;stroke-width:2.0px;stroke-linecap:butt;stroke-linejoin:miter;stroke-opacity:1"/>
<path class="bond-19 atom-19 atom-20" d="M 353.0,166.3 L 363.4,161.8" style="fill:none;fill-rule:evenodd;stroke:#000000;stroke-width:2.0px;stroke-linecap:butt;stroke-linejoin:miter;stroke-opacity:1"/>
<path class="bond-19 atom-19 atom-20" d="M 363.4,161.8 L 373.8,157.3" style="fill:none;fill-rule:evenodd;stroke:#FF0000;stroke-width:2.0px;stroke-linecap:butt;stroke-linejoin:miter;stroke-opacity:1"/>
<path class="bond-20 atom-20 atom-21" d="M 378.8,150.5 L 380.1,139.3" style="fill:none;fill-rule:evenodd;stroke:#FF0000;stroke-width:2.0px;stroke-linecap:butt;stroke-linejoin:miter;stroke-opacity:1"/>
<path class="bond-20 atom-20 atom-21" d="M 380.1,139.3 L 381.4,128.0" style="fill:none;fill-rule:evenodd;stroke:#000000;stroke-width:2.0px;stroke-linecap:butt;stroke-linejoin:miter;stroke-opacity:1"/>
<path class="bond-21 atom-19 atom-22" d="M 353.0,166.3 L 349.8,193.7" style="fill:none;fill-rule:evenodd;stroke:#000000;stroke-width:2.0px;stroke-linecap:butt;stroke-linejoin:miter;stroke-opacity:1"/>
<path class="bond-22 atom-22 atom-23" d="M 349.8,193.7 L 372.0,210.1" style="fill:none;fill-rule:evenodd;stroke:#000000;stroke-width:2.0px;stroke-linecap:butt;stroke-linejoin:miter;stroke-opacity:1"/>
<path class="bond-23 atom-22 atom-24" d="M 349.8,193.7 L 324.6,204.6" style="fill:none;fill-rule:evenodd;stroke:#000000;stroke-width:2.0px;stroke-linecap:butt;stroke-linejoin:miter;stroke-opacity:1"/>
<path class="bond-23 atom-22 atom-24" d="M 343.9,190.3 L 326.2,197.9" style="fill:none;fill-rule:evenodd;stroke:#000000;stroke-width:2.0px;stroke-linecap:butt;stroke-linejoin:miter;stroke-opacity:1"/>
<path class="bond-24 atom-24 atom-25" d="M 324.6,204.6 L 321.4,232.0" style="fill:none;fill-rule:evenodd;stroke:#000000;stroke-width:2.0px;stroke-linecap:butt;stroke-linejoin:miter;stroke-opacity:1"/>
<path class="bond-25 atom-24 atom-15" d="M 324.6,204.6 L 302.5,188.2" style="fill:none;fill-rule:evenodd;stroke:#000000;stroke-width:2.0px;stroke-linecap:butt;stroke-linejoin:miter;stroke-opacity:1"/>
<path class="atom-2" d="M 62.0 161.1 Q 62.0 159.2, 62.9 158.2 Q 63.8 157.1, 65.6 157.1 Q 67.3 157.1, 68.2 158.2 Q 69.1 159.2, 69.1 161.1 Q 69.1 163.0, 68.2 164.1 Q 67.3 165.1, 65.6 165.1 Q 63.8 165.1, 62.9 164.1 Q 62.0 163.0, 62.0 161.1 M 65.6 164.2 Q 66.8 164.2, 67.4 163.5 Q 68.0 162.6, 68.0 161.1 Q 68.0 159.6, 67.4 158.8 Q 66.8 158.0, 65.6 158.0 Q 64.4 158.0, 63.7 158.8 Q 63.1 159.5, 63.1 161.1 Q 63.1 162.7, 63.7 163.5 Q 64.4 164.2, 65.6 164.2 " fill="#FF0000"/>
<path class="atom-4" d="M 81.0 204.8 Q 81.0 203.0, 81.9 201.9 Q 82.8 200.9, 84.5 200.9 Q 86.3 200.9, 87.2 201.9 Q 88.1 203.0, 88.1 204.8 Q 88.1 206.7, 87.2 207.8 Q 86.3 208.9, 84.5 208.9 Q 82.8 208.9, 81.9 207.8 Q 81.0 206.7, 81.0 204.8 M 84.5 208.0 Q 85.7 208.0, 86.4 207.2 Q 87.0 206.4, 87.0 204.8 Q 87.0 203.3, 86.4 202.5 Q 85.7 201.7, 84.5 201.7 Q 83.4 201.7, 82.7 202.5 Q 82.1 203.3, 82.1 204.8 Q 82.1 206.4, 82.7 207.2 Q 83.4 208.0, 84.5 208.0 " fill="#FF0000"/>
<path class="atom-20" d="M 374.7 155.4 Q 374.7 153.5, 375.6 152.5 Q 376.5 151.4, 378.2 151.4 Q 380.0 151.4, 380.9 152.5 Q 381.8 153.5, 381.8 155.4 Q 381.8 157.3, 380.9 158.4 Q 379.9 159.4, 378.2 159.4 Q 376.5 159.4, 375.6 158.4 Q 374.7 157.3, 374.7 155.4 M 378.2 158.5 Q 379.4 158.5, 380.1 157.8 Q 380.7 156.9, 380.7 155.4 Q 380.7 153.9, 380.1 153.1 Q 379.4 152.3, 378.2 152.3 Q 377.0 152.3, 376.4 153.1 Q 375.8 153.8, 375.8 155.4 Q 375.8 157.0, 376.4 157.8 Q 377.0 158.5, 378.2 158.5 " fill="#FF0000"/>
<path class="legend" d="M 168.1 365.4 L 168.3 366.5 Q 169.1 365.3, 170.5 365.3 Q 171.0 365.3, 171.6 365.4 L 171.4 366.8 Q 170.7 366.6, 170.3 366.6 Q 169.6 366.6, 169.2 366.9 Q 168.7 367.1, 168.4 367.8 L 168.4 373.6 L 166.9 373.6 L 166.9 365.4 L 168.1 365.4 " fill="#000000"/>
<path class="legend" d="M 171.8 369.5 Q 171.8 367.5, 172.8 366.4 Q 173.8 365.3, 175.7 365.3 Q 177.5 365.3, 178.3 366.4 Q 179.1 367.4, 179.1 369.5 L 179.1 369.7 L 173.4 369.7 Q 173.4 371.1, 174.0 371.8 Q 174.6 372.6, 175.8 372.6 Q 176.5 372.6, 177.0 372.4 Q 177.6 372.3, 178.4 372.0 L 178.8 373.0 Q 178.0 373.4, 177.2 373.6 Q 176.5 373.8, 175.7 373.8 Q 173.9 373.8, 172.9 372.6 Q 171.8 371.5, 171.8 369.5 M 175.7 366.4 Q 174.7 366.4, 174.2 367.0 Q 173.6 367.5, 173.4 368.6 L 177.5 368.6 Q 177.4 367.5, 177.0 367.0 Q 176.5 366.4, 175.7 366.4 " fill="#000000"/>
<path class="legend" d="M 179.7 371.4 Q 179.7 370.1, 180.8 369.4 Q 181.8 368.7, 183.8 368.7 L 185.0 368.7 L 185.0 368.3 Q 185.0 367.3, 184.6 366.9 Q 184.1 366.4, 183.1 366.4 Q 182.5 366.4, 181.9 366.6 Q 181.4 366.7, 180.6 367.0 L 180.2 366.0 Q 181.7 365.3, 183.1 365.3 Q 184.9 365.3, 185.7 366.0 Q 186.5 366.8, 186.5 368.4 L 186.5 373.6 L 185.3 373.6 Q 185.3 373.6, 185.3 373.3 Q 185.2 373.1, 185.1 372.7 Q 184.0 373.8, 182.4 373.8 Q 181.2 373.8, 180.5 373.2 Q 179.7 372.5, 179.7 371.4 M 181.2 371.4 Q 181.2 372.0, 181.6 372.3 Q 182.0 372.6, 182.7 372.6 Q 183.4 372.6, 184.0 372.4 Q 184.6 372.0, 185.0 371.5 L 185.0 369.8 L 183.9 369.8 Q 182.6 369.8, 181.9 370.2 Q 181.2 370.6, 181.2 371.4 " fill="#000000"/>
<path class="legend" d="M 187.7 369.5 Q 187.7 367.5, 188.7 366.4 Q 189.7 365.3, 191.7 365.3 Q 193.5 365.3, 194.5 366.6 L 193.5 367.4 Q 193.1 366.9, 192.7 366.7 Q 192.2 366.4, 191.7 366.4 Q 190.5 366.4, 189.9 367.2 Q 189.3 368.0, 189.3 369.5 Q 189.3 371.0, 189.9 371.8 Q 190.6 372.6, 191.8 372.6 Q 192.4 372.6, 192.9 372.4 Q 193.4 372.3, 193.9 372.0 L 194.3 373.0 Q 193.2 373.7, 191.6 373.7 Q 189.7 373.7, 188.7 372.6 Q 187.7 371.5, 187.7 369.5 " fill="#000000"/>
<path class="legend" d="M 194.9 366.6 L 194.9 365.4 L 196.5 365.4 L 196.7 363.0 L 197.8 363.0 L 197.8 365.4 L 200.3 365.4 L 200.3 366.6 L 197.8 366.6 L 197.8 371.1 Q 197.8 372.5, 199.0 372.5 Q 199.5 372.5, 200.2 372.3 L 200.5 373.4 Q 199.6 373.7, 198.8 373.7 Q 197.7 373.7, 197.0 373.1 Q 196.3 372.4, 196.3 371.2 L 196.3 366.6 L 194.9 366.6 " fill="#000000"/>
<path class="legend" d="M 209.0 374.4 L 209.0 375.7 L 200.9 375.7 L 200.9 374.4 L 209.0 374.4 " fill="#000000"/>
<path class="legend" d="M 213.5 366.6 Q 214.5 366.6, 215.2 367.0 Q 216.0 367.4, 216.5 368.2 Q 216.9 369.0, 216.9 370.0 Q 216.9 371.1, 216.4 372.0 Q 215.9 372.8, 215.0 373.3 Q 214.2 373.8, 213.1 373.8 Q 211.1 373.8, 210.0 372.4 Q 209.0 371.0, 209.0 368.3 Q 209.0 365.3, 210.3 363.7 Q 211.5 362.2, 214.0 362.2 Q 214.7 362.2, 215.3 362.3 Q 215.9 362.5, 216.4 362.8 L 215.8 363.9 Q 215.0 363.5, 214.0 363.5 Q 212.4 363.5, 211.6 364.5 Q 210.7 365.5, 210.6 367.6 Q 211.2 367.1, 211.9 366.8 Q 212.7 366.6, 213.5 366.6 M 213.1 372.4 Q 213.7 372.4, 214.2 372.1 Q 214.7 371.8, 215.0 371.2 Q 215.3 370.7, 215.3 370.0 Q 215.3 369.0, 214.7 368.4 Q 214.2 367.8, 213.2 367.8 Q 212.5 367.8, 211.8 368.1 Q 211.1 368.4, 210.6 368.9 Q 210.7 370.8, 211.3 371.6 Q 211.9 372.4, 213.1 372.4 " fill="#000000"/>
<path class="legend" d="M 218.4 372.4 L 220.9 372.4 L 220.9 363.9 L 218.1 364.7 L 217.8 363.8 L 221.2 362.2 L 222.4 362.4 L 222.4 372.4 L 224.6 372.4 L 224.6 373.6 L 218.4 373.6 L 218.4 372.4 " fill="#000000"/>
<path class="legend" d="M 229.7 366.6 Q 230.7 366.6, 231.5 367.0 Q 232.3 367.4, 232.7 368.2 Q 233.1 369.0, 233.1 370.0 Q 233.1 371.1, 232.6 372.0 Q 232.2 372.8, 231.3 373.3 Q 230.4 373.8, 229.3 373.8 Q 227.3 373.8, 226.3 372.4 Q 225.3 371.0, 225.3 368.3 Q 225.3 365.3, 226.5 363.7 Q 227.8 362.2, 230.2 362.2 Q 230.9 362.2, 231.5 362.3 Q 232.1 362.5, 232.7 362.8 L 232.1 363.9 Q 231.2 363.5, 230.2 363.5 Q 228.6 363.5, 227.8 364.5 Q 227.0 365.5, 226.9 367.6 Q 227.5 367.1, 228.2 366.8 Q 228.9 366.6, 229.7 366.6 M 229.3 372.4 Q 229.9 372.4, 230.4 372.1 Q 231.0 371.8, 231.2 371.2 Q 231.5 370.7, 231.5 370.0 Q 231.5 369.0, 231.0 368.4 Q 230.4 367.8, 229.4 367.8 Q 228.7 367.8, 228.0 368.1 Q 227.4 368.4, 226.9 368.9 Q 227.0 370.8, 227.5 371.6 Q 228.1 372.4, 229.3 372.4 " fill="#000000"/>
<path class="legend" d="M 135.3 383.8 Q 135.3 381.8, 136.3 380.7 Q 137.3 379.5, 139.3 379.5 Q 141.1 379.5, 142.1 380.9 L 141.1 381.6 Q 140.7 381.2, 140.3 380.9 Q 139.8 380.7, 139.3 380.7 Q 138.1 380.7, 137.5 381.5 Q 136.9 382.3, 136.9 383.8 Q 136.9 385.3, 137.5 386.1 Q 138.1 386.8, 139.3 386.8 Q 140.0 386.8, 140.5 386.7 Q 140.9 386.5, 141.5 386.3 L 141.9 387.3 Q 140.8 388.0, 139.2 388.0 Q 137.3 388.0, 136.3 386.9 Q 135.3 385.7, 135.3 383.8 " fill="#000000"/>
<path class="legend" d="M 142.5 383.8 Q 142.5 381.7, 143.5 380.6 Q 144.5 379.5, 146.3 379.5 Q 148.1 379.5, 148.9 380.6 Q 149.8 381.7, 149.8 383.7 L 149.8 384.0 L 144.0 384.0 Q 144.1 385.4, 144.7 386.1 Q 145.3 386.8, 146.5 386.8 Q 147.1 386.8, 147.7 386.7 Q 148.3 386.5, 149.0 386.2 L 149.4 387.2 Q 148.6 387.6, 147.9 387.8 Q 147.2 388.0, 146.4 388.0 Q 144.5 388.0, 143.5 386.9 Q 142.5 385.8, 142.5 383.8 M 146.3 380.7 Q 145.4 380.7, 144.8 381.2 Q 144.3 381.8, 144.1 382.8 L 148.2 382.8 Q 148.1 381.7, 147.6 381.2 Q 147.2 380.7, 146.3 380.7 " fill="#000000"/>
<path class="legend" d="M 154.7 379.5 Q 156.0 379.5, 156.7 380.3 Q 157.4 381.0, 157.4 382.4 L 157.4 387.9 L 155.9 387.9 L 155.9 382.6 Q 155.9 381.6, 155.5 381.2 Q 155.1 380.7, 154.3 380.7 Q 153.5 380.7, 152.9 381.1 Q 152.3 381.4, 151.9 382.0 L 151.9 387.9 L 150.4 387.9 L 150.4 379.7 L 151.6 379.7 L 151.8 380.8 Q 152.9 379.5, 154.7 379.5 " fill="#000000"/>
<path class="legend" d="M 158.6 380.8 L 158.6 379.7 L 160.2 379.7 L 160.4 377.3 L 161.5 377.3 L 161.5 379.7 L 164.1 379.7 L 164.1 380.8 L 161.5 380.8 L 161.5 385.4 Q 161.5 386.8, 162.7 386.8 Q 163.2 386.8, 163.9 386.6 L 164.2 387.6 Q 163.3 388.0, 162.5 388.0 Q 161.4 388.0, 160.7 387.3 Q 160.0 386.7, 160.0 385.4 L 160.0 380.8 L 158.6 380.8 " fill="#000000"/>
<path class="legend" d="M 172.7 388.7 L 172.7 390.0 L 164.6 390.0 L 164.6 388.7 L 172.7 388.7 " fill="#000000"/>
<path class="legend" d="M 180.2 375.7 L 180.2 387.9 L 179.0 387.9 L 178.8 386.9 Q 177.9 388.0, 176.4 388.0 Q 174.6 388.0, 173.7 387.0 Q 172.7 385.9, 172.7 383.9 Q 172.7 381.8, 173.9 380.7 Q 175.0 379.5, 177.0 379.5 Q 177.8 379.5, 178.7 379.7 L 178.7 375.7 L 180.2 375.7 M 176.5 386.8 Q 177.3 386.8, 177.9 386.4 Q 178.5 385.9, 178.7 385.1 L 178.7 380.9 Q 177.9 380.7, 177.0 380.7 Q 175.7 380.7, 175.0 381.6 Q 174.3 382.4, 174.3 383.9 Q 174.3 385.3, 174.8 386.1 Q 175.4 386.8, 176.5 386.8 " fill="#000000"/>
<path class="legend" d="M 181.5 376.6 L 183.0 376.6 L 183.0 378.0 L 181.5 378.0 L 181.5 376.6 M 181.5 379.7 L 183.0 379.7 L 183.0 387.9 L 181.5 387.9 L 181.5 379.7 " fill="#000000"/>
<path class="legend" d="M 184.8 386.2 Q 185.5 386.5, 186.0 386.6 Q 186.6 386.8, 187.1 386.8 Q 187.8 386.8, 188.2 386.5 Q 188.7 386.2, 188.7 385.6 Q 188.7 385.2, 188.4 385.0 Q 188.2 384.8, 188.0 384.6 Q 187.7 384.5, 187.0 384.3 Q 186.9 384.3, 186.1 384.0 Q 185.4 383.7, 185.0 383.2 Q 184.6 382.7, 184.6 381.9 Q 184.6 380.9, 185.4 380.2 Q 186.1 379.5, 187.6 379.5 Q 188.3 379.5, 188.8 379.7 Q 189.4 379.8, 190.0 380.0 L 189.6 381.2 Q 189.0 381.0, 188.6 380.9 Q 188.1 380.8, 187.6 380.8 Q 186.9 380.8, 186.5 381.1 Q 186.1 381.4, 186.1 381.8 Q 186.1 382.3, 186.4 382.5 Q 186.7 382.7, 187.4 383.0 Q 187.6 383.0, 187.7 383.1 L 188.1 383.2 Q 188.8 383.4, 189.2 383.7 Q 189.6 383.9, 189.9 384.4 Q 190.2 384.8, 190.2 385.6 Q 190.2 386.7, 189.3 387.4 Q 188.5 388.0, 187.1 388.0 Q 186.4 388.0, 185.7 387.9 Q 185.0 387.7, 184.3 387.4 L 184.8 386.2 " fill="#000000"/>
<path class="legend" d="M 191.0 380.8 L 191.0 379.7 L 192.6 379.7 L 192.8 377.3 L 194.0 377.3 L 194.0 379.7 L 196.5 379.7 L 196.5 380.8 L 194.0 380.8 L 194.0 385.4 Q 194.0 386.8, 195.2 386.8 Q 195.6 386.8, 196.3 386.6 L 196.6 387.6 Q 195.7 388.0, 194.9 388.0 Q 193.8 388.0, 193.1 387.3 Q 192.5 386.7, 192.5 385.4 L 192.5 380.8 L 191.0 380.8 " fill="#000000"/>
<path class="legend" d="" fill="#000000"/>
<path class="legend" d="M 202.3 380.9 L 209.7 380.9 L 209.7 382.1 L 202.3 382.1 L 202.3 380.9 M 202.3 384.4 L 209.7 384.4 L 209.7 385.5 L 202.3 385.5 L 202.3 384.4 " fill="#000000"/>
<path class="legend" d="" fill="#000000"/>
<path class="legend" d="M 220.6 388.0 Q 218.5 388.0, 217.5 386.5 Q 216.4 384.9, 216.4 382.2 Q 216.4 379.5, 217.5 378.0 Q 218.5 376.4, 220.6 376.4 Q 222.7 376.4, 223.7 378.0 Q 224.7 379.5, 224.7 382.2 Q 224.7 384.9, 223.7 386.5 Q 222.7 388.0, 220.6 388.0 M 220.6 386.7 Q 221.8 386.7, 222.5 385.6 Q 223.1 384.4, 223.1 382.2 Q 223.1 380.0, 222.5 378.8 Q 221.8 377.7, 220.6 377.7 Q 219.4 377.7, 218.7 378.8 Q 218.0 380.0, 218.0 382.2 Q 218.0 384.4, 218.7 385.6 Q 219.4 386.7, 220.6 386.7 " fill="#000000"/>
<path class="legend" d="M 225.8 386.3 L 227.4 386.3 L 227.4 387.9 L 225.8 387.9 L 225.8 386.3 " fill="#000000"/>
<path class="legend" d="M 232.6 388.0 Q 230.5 388.0, 229.4 386.5 Q 228.4 384.9, 228.4 382.2 Q 228.4 379.5, 229.4 378.0 Q 230.5 376.4, 232.6 376.4 Q 234.7 376.4, 235.7 378.0 Q 236.7 379.5, 236.7 382.2 Q 236.7 384.9, 235.7 386.5 Q 234.6 388.0, 232.6 388.0 M 232.6 386.7 Q 233.8 386.7, 234.4 385.6 Q 235.1 384.4, 235.1 382.2 Q 235.1 380.0, 234.4 378.8 Q 233.8 377.7, 232.6 377.7 Q 231.3 377.7, 230.7 378.8 Q 230.0 380.0, 230.0 382.2 Q 230.0 384.4, 230.7 385.6 Q 231.3 386.7, 232.6 386.7 " fill="#000000"/>
<path class="legend" d="M 241.9 388.0 Q 239.8 388.0, 238.8 386.5 Q 237.7 384.9, 237.7 382.2 Q 237.7 379.5, 238.8 378.0 Q 239.8 376.4, 241.9 376.4 Q 244.0 376.4, 245.0 378.0 Q 246.0 379.5, 246.0 382.2 Q 246.0 384.9, 245.0 386.5 Q 244.0 388.0, 241.9 388.0 M 241.9 386.7 Q 243.1 386.7, 243.8 385.6 Q 244.4 384.4, 244.4 382.2 Q 244.4 380.0, 243.8 378.8 Q 243.1 377.7, 241.9 377.7 Q 240.7 377.7, 240.0 378.8 Q 239.3 380.0, 239.3 382.2 Q 239.3 384.4, 240.0 385.6 Q 240.7 386.7, 241.9 386.7 " fill="#000000"/>
<path class="legend" d="M 251.2 388.0 Q 249.1 388.0, 248.1 386.5 Q 247.1 384.9, 247.1 382.2 Q 247.1 379.5, 248.1 378.0 Q 249.1 376.4, 251.2 376.4 Q 253.3 376.4, 254.3 378.0 Q 255.4 379.5, 255.4 382.2 Q 255.4 384.9, 254.3 386.5 Q 253.3 388.0, 251.2 388.0 M 251.2 386.7 Q 252.4 386.7, 253.1 385.6 Q 253.8 384.4, 253.8 382.2 Q 253.8 380.0, 253.1 378.8 Q 252.4 377.7, 251.2 377.7 Q 250.0 377.7, 249.3 378.8 Q 248.7 380.0, 248.7 382.2 Q 248.7 384.4, 249.3 385.6 Q 250.0 386.7, 251.2 386.7 " fill="#000000"/>
<path class="legend" d="M 260.5 388.0 Q 258.5 388.0, 257.4 386.5 Q 256.4 384.9, 256.4 382.2 Q 256.4 379.5, 257.4 378.0 Q 258.4 376.4, 260.5 376.4 Q 262.6 376.4, 263.7 378.0 Q 264.7 379.5, 264.7 382.2 Q 264.7 384.9, 263.6 386.5 Q 262.6 388.0, 260.5 388.0 M 260.5 386.7 Q 261.8 386.7, 262.4 385.6 Q 263.1 384.4, 263.1 382.2 Q 263.1 380.0, 262.4 378.8 Q 261.8 377.7, 260.5 377.7 Q 259.3 377.7, 258.7 378.8 Q 258.0 380.0, 258.0 382.2 Q 258.0 384.4, 258.7 385.6 Q 259.3 386.7, 260.5 386.7 " fill="#000000"/>
</svg>