<svg xmlns="http://www.w3.org/2000/svg" xmlns:rdkit="http://www.rdkit.org/xml" xmlns:xlink="http://www.w3.org/1999/xlink" version="1.1" baseProfile="full" xml:space="preserve" width="2000px" height="400px" viewBox="0 0 2000 400">
<!-- END OF HEADER -->
<rect style="opacity:1.0;fill:#FFFFFF;stroke:none" width="2000.0" height="400.0" x="0.0" y="0.0"> </rect>
<path class="bond-0 atom-0 atom-1" d="M 92.6,273.1 L 114.8,249.0" style="fill:none;fill-rule:evenodd;stroke:#000000;stroke-width:2.0px;stroke-linecap:butt;stroke-linejoin:miter;stroke-opacity:1"/>
<path class="bond-0 atom-0 atom-1" d="M 97.4,277.6 L 119.7,253.5" style="fill:none;fill-rule:evenodd;stroke:#000000;stroke-width:2.0px;stroke-linecap:butt;stroke-linejoin:miter;stroke-opacity:1"/>
<path class="bond-1 atom-1 atom-2" d="M 117.2,251.2 L 149.2,258.5" style="fill:none;fill-rule:evenodd;stroke:#000000;stroke-width:2.0px;stroke-linecap:butt;stroke-linejoin:miter;stroke-opacity:1"/>
<path class="bond-2 atom-2 atom-3" d="M 149.2,258.5 L 171.5,234.3" style="fill:none;fill-rule:evenodd;stroke:#000000;stroke-width:2.0px;stroke-linecap:butt;stroke-linejoin:miter;stroke-opacity:1"/>
<path class="bond-3 atom-3 atom-4" d="M 171.5,234.3 L 161.7,203.0" style="fill:none;fill-rule:evenodd;stroke:#000000;stroke-width:2.0px;stroke-linecap:butt;stroke-linejoin:miter;stroke-opacity:1"/>
<path class="bond-3 atom-3 atom-4" d="M 176.3,227.7 L 169.5,205.8" style="fill:none;fill-rule:evenodd;stroke:#000000;stroke-width:2.0px;stroke-linecap:butt;stroke-linejoin:miter;stroke-opacity:1"/>
<path class="bond-4 atom-4 atom-5" d="M 161.7,203.0 L 148.0,199.9" style="fill:none;fill-rule:evenodd;stroke:#000000;stroke-width:2.0px;stroke-linecap:butt;stroke-linejoin:miter;stroke-opacity:1"/>
<path class="bond-4 atom-4 atom-5" d="M 148.0,199.9 L 134.3,196.8" style="fill:none;fill-rule:evenodd;stroke:#0000FF;stroke-width:2.0px;stroke-linecap:butt;stroke-linejoin:miter;stroke-opacity:1"/>
<path class="bond-5 atom-5 atom-6" d="M 128.0,190.1 L 124.0,177.3" style="fill:none;fill-rule:evenodd;stroke:#0000FF;stroke-width:2.0px;stroke-linecap:butt;stroke-linejoin:miter;stroke-opacity:1"/>
<path class="bond-5 atom-5 atom-6" d="M 124.0,177.3 L 120.0,164.5" style="fill:none;fill-rule:evenodd;stroke:#000000;stroke-width:2.0px;stroke-linecap:butt;stroke-linejoin:miter;stroke-opacity:1"/>
<path class="bond-6 atom-6 atom-7" d="M 117.6,162.3 L 126.0,153.1" style="fill:none;fill-rule:evenodd;stroke:#000000;stroke-width:2.0px;stroke-linecap:butt;stroke-linejoin:miter;stroke-opacity:1"/>
<path class="bond-6 atom-6 atom-7" d="M 126.0,153.1 L 134.5,143.9" style="fill:none;fill-rule:evenodd;stroke:#FF0000;stroke-width:2.0px;stroke-linecap:butt;stroke-linejoin:miter;stroke-opacity:1"/>
<path class="bond-6 atom-6 atom-7" d="M 122.4,166.7 L 130.8,157.5" style="fill:none;fill-rule:evenodd;stroke:#000000;stroke-width:2.0px;stroke-linecap:butt;stroke-linejoin:miter;stroke-opacity:1"/>
<path class="bond-6 atom-6 atom-7" d="M 130.8,157.5 L 139.3,148.4" style="fill:none;fill-rule:evenodd;stroke:#FF0000;stroke-width:2.0px;stroke-linecap:butt;stroke-linejoin:miter;stroke-opacity:1"/>
<path class="bond-7 atom-6 atom-8" d="M 120.0,164.5 L 88.0,157.3" style="fill:none;fill-rule:evenodd;stroke:#000000;stroke-width:2.0px;stroke-linecap:butt;stroke-linejoin:miter;stroke-opacity:1"/>
<path class="bond-8 atom-8 atom-9" d="M 88.0,157.3 L 78.2,125.9" style="fill:none;fill-rule:evenodd;stroke:#000000;stroke-width:2.0px;stroke-linecap:butt;stroke-linejoin:miter;stroke-opacity:1"/>
<path class="bond-8 atom-8 atom-9" d="M 80.2,154.5 L 73.4,132.6" style="fill:none;fill-rule:evenodd;stroke:#000000;stroke-width:2.0px;stroke-linecap:butt;stroke-linejoin:miter;stroke-opacity:1"/>
<path class="bond-9 atom-9 atom-10" d="M 78.2,125.9 L 46.2,118.7" style="fill:none;fill-rule:evenodd;stroke:#000000;stroke-width:2.0px;stroke-linecap:butt;stroke-linejoin:miter;stroke-opacity:1"/>
<path class="bond-10 atom-10 atom-11" d="M 46.2,118.7 L 24.0,142.8" style="fill:none;fill-rule:evenodd;stroke:#000000;stroke-width:2.0px;stroke-linecap:butt;stroke-linejoin:miter;stroke-opacity:1"/>
<path class="bond-10 atom-10 atom-11" d="M 47.7,126.8 L 32.1,143.7" style="fill:none;fill-rule:evenodd;stroke:#000000;stroke-width:2.0px;stroke-linecap:butt;stroke-linejoin:miter;stroke-opacity:1"/>
<path class="bond-11 atom-11 atom-12" d="M 24.0,142.8 L 33.7,174.2" style="fill:none;fill-rule:evenodd;stroke:#000000;stroke-width:2.0px;stroke-linecap:butt;stroke-linejoin:miter;stroke-opacity:1"/>
<path class="bond-12 atom-12 atom-13" d="M 33.7,174.2 L 65.7,181.4" style="fill:none;fill-rule:evenodd;stroke:#000000;stroke-width:2.0px;stroke-linecap:butt;stroke-linejoin:miter;stroke-opacity:1"/>
<path class="bond-12 atom-12 atom-13" d="M 40.0,168.8 L 62.4,173.9" style="fill:none;fill-rule:evenodd;stroke:#000000;stroke-width:2.0px;stroke-linecap:butt;stroke-linejoin:miter;stroke-opacity:1"/>
<path class="bond-13 atom-4 atom-14" d="M 161.7,203.0 L 184.0,178.9" style="fill:none;fill-rule:evenodd;stroke:#000000;stroke-width:2.0px;stroke-linecap:butt;stroke-linejoin:miter;stroke-opacity:1"/>
<path class="bond-14 atom-14 atom-15" d="M 184.0,178.9 L 216.0,186.1" style="fill:none;fill-rule:evenodd;stroke:#000000;stroke-width:2.0px;stroke-linecap:butt;stroke-linejoin:miter;stroke-opacity:1"/>
<path class="bond-14 atom-14 atom-15" d="M 187.4,186.4 L 209.8,191.4" style="fill:none;fill-rule:evenodd;stroke:#000000;stroke-width:2.0px;stroke-linecap:butt;stroke-linejoin:miter;stroke-opacity:1"/>
<path class="bond-15 atom-15 atom-16" d="M 216.0,186.1 L 224.5,177.0" style="fill:none;fill-rule:evenodd;stroke:#000000;stroke-width:2.0px;stroke-linecap:butt;stroke-linejoin:miter;stroke-opacity:1"/>
<path class="bond-15 atom-15 atom-16" d="M 224.5,177.0 L 232.9,167.8" style="fill:none;fill-rule:evenodd;stroke:#FF0000;stroke-width:2.0px;stroke-linecap:butt;stroke-linejoin:miter;stroke-opacity:1"/>
<path class="bond-16 atom-16 atom-17" d="M 236.5,156.2 L 232.5,143.5" style="fill:none;fill-rule:evenodd;stroke:#FF0000;stroke-width:2.0px;stroke-linecap:butt;stroke-linejoin:miter;stroke-opacity:1"/>
<path class="bond-16 atom-16 atom-17" d="M 232.5,143.5 L 228.5,130.7" style="fill:none;fill-rule:evenodd;stroke:#000000;stroke-width:2.0px;stroke-linecap:butt;stroke-linejoin:miter;stroke-opacity:1"/>
<path class="bond-17 atom-17 atom-18" d="M 228.5,130.7 L 250.8,106.6" style="fill:none;fill-rule:evenodd;stroke:#000000;stroke-width:2.0px;stroke-linecap:butt;stroke-linejoin:miter;stroke-opacity:1"/>
<path class="bond-18 atom-18 atom-19" d="M 250.8,106.6 L 282.8,113.8" style="fill:none;fill-rule:evenodd;stroke:#000000;stroke-width:2.0px;stroke-linecap:butt;stroke-linejoin:miter;stroke-opacity:1"/>
<path class="bond-18 atom-18 atom-19" d="M 257.0,101.3 L 279.4,106.3" style="fill:none;fill-rule:evenodd;stroke:#000000;stroke-width:2.0px;stroke-linecap:butt;stroke-linejoin:miter;stroke-opacity:1"/>
<path class="bond-19 atom-19 atom-20" d="M 282.8,113.8 L 305.0,89.7" style="fill:none;fill-rule:evenodd;stroke:#000000;stroke-width:2.0px;stroke-linecap:butt;stroke-linejoin:miter;stroke-opacity:1"/>
<path class="bond-20 atom-20 atom-21" d="M 305.0,89.7 L 295.3,58.4" style="fill:none;fill-rule:evenodd;stroke:#000000;stroke-width:2.0px;stroke-linecap:butt;stroke-linejoin:miter;stroke-opacity:1"/>
<path class="bond-20 atom-20 atom-21" d="M 297.3,86.9 L 290.5,65.0" style="fill:none;fill-rule:evenodd;stroke:#000000;stroke-width:2.0px;stroke-linecap:butt;stroke-linejoin:miter;stroke-opacity:1"/>
<path class="bond-21 atom-21 atom-22" d="M 295.3,58.4 L 263.3,51.1" style="fill:none;fill-rule:evenodd;stroke:#000000;stroke-width:2.0px;stroke-linecap:butt;stroke-linejoin:miter;stroke-opacity:1"/>
<path class="bond-22 atom-22 atom-23" d="M 263.3,51.1 L 241.0,75.3" style="fill:none;fill-rule:evenodd;stroke:#000000;stroke-width:2.0px;stroke-linecap:butt;stroke-linejoin:miter;stroke-opacity:1"/>
<path class="bond-22 atom-22 atom-23" d="M 264.7,59.2 L 249.2,76.1" style="fill:none;fill-rule:evenodd;stroke:#000000;stroke-width:2.0px;stroke-linecap:butt;stroke-linejoin:miter;stroke-opacity:1"/>
<path class="bond-23 atom-15 atom-24" d="M 216.0,186.1 L 225.8,217.5" style="fill:none;fill-rule:evenodd;stroke:#000000;stroke-width:2.0px;stroke-linecap:butt;stroke-linejoin:miter;stroke-opacity:1"/>
<path class="bond-24 atom-24 atom-25" d="M 225.8,217.5 L 239.5,220.5" style="fill:none;fill-rule:evenodd;stroke:#000000;stroke-width:2.0px;stroke-linecap:butt;stroke-linejoin:miter;stroke-opacity:1"/>
<path class="bond-24 atom-24 atom-25" d="M 239.5,220.5 L 253.2,223.6" style="fill:none;fill-rule:evenodd;stroke:#0000FF;stroke-width:2.0px;stroke-linecap:butt;stroke-linejoin:miter;stroke-opacity:1"/>
<path class="bond-25 atom-25 atom-26" d="M 262.4,219.7 L 271.2,210.1" style="fill:none;fill-rule:evenodd;stroke:#0000FF;stroke-width:2.0px;stroke-linecap:butt;stroke-linejoin:miter;stroke-opacity:1"/>
<path class="bond-25 atom-25 atom-26" d="M 271.2,210.1 L 280.0,200.6" style="fill:none;fill-rule:evenodd;stroke:#000000;stroke-width:2.0px;stroke-linecap:butt;stroke-linejoin:miter;stroke-opacity:1"/>
<path class="bond-26 atom-26 atom-27" d="M 276.9,201.5 L 272.9,188.8" style="fill:none;fill-rule:evenodd;stroke:#000000;stroke-width:2.0px;stroke-linecap:butt;stroke-linejoin:miter;stroke-opacity:1"/>
<path class="bond-26 atom-26 atom-27" d="M 272.9,188.8 L 269.0,176.1" style="fill:none;fill-rule:evenodd;stroke:#FF0000;stroke-width:2.0px;stroke-linecap:butt;stroke-linejoin:miter;stroke-opacity:1"/>
<path class="bond-26 atom-26 atom-27" d="M 283.1,199.6 L 279.2,186.9" style="fill:none;fill-rule:evenodd;stroke:#000000;stroke-width:2.0px;stroke-linecap:butt;stroke-linejoin:miter;stroke-opacity:1"/>
<path class="bond-26 atom-26 atom-27" d="M 279.2,186.9 L 275.2,174.2" style="fill:none;fill-rule:evenodd;stroke:#FF0000;stroke-width:2.0px;stroke-linecap:butt;stroke-linejoin:miter;stroke-opacity:1"/>
<path class="bond-27 atom-26 atom-28" d="M 280.0,200.6 L 312.0,207.8" style="fill:none;fill-rule:evenodd;stroke:#000000;stroke-width:2.0px;stroke-linecap:butt;stroke-linejoin:miter;stroke-opacity:1"/>
<path class="bond-28 atom-28 atom-29" d="M 312.0,207.8 L 321.8,239.1" style="fill:none;fill-rule:evenodd;stroke:#000000;stroke-width:2.0px;stroke-linecap:butt;stroke-linejoin:miter;stroke-opacity:1"/>
<path class="bond-28 atom-28 atom-29" d="M 319.8,210.5 L 326.6,232.4" style="fill:none;fill-rule:evenodd;stroke:#000000;stroke-width:2.0px;stroke-linecap:butt;stroke-linejoin:miter;stroke-opacity:1"/>
<path class="bond-29 atom-29 atom-30" d="M 321.8,239.1 L 353.8,246.3" style="fill:none;fill-rule:evenodd;stroke:#000000;stroke-width:2.0px;stroke-linecap:butt;stroke-linejoin:miter;stroke-opacity:1"/>
<path class="bond-30 atom-30 atom-31" d="M 353.8,246.3 L 376.0,222.2" style="fill:none;fill-rule:evenodd;stroke:#000000;stroke-width:2.0px;stroke-linecap:butt;stroke-linejoin:miter;stroke-opacity:1"/>
<path class="bond-30 atom-30 atom-31" d="M 352.3,238.2 L 367.9,221.4" style="fill:none;fill-rule:evenodd;stroke:#000000;stroke-width:2.0px;stroke-linecap:butt;stroke-linejoin:miter;stroke-opacity:1"/>
<path class="bond-31 atom-31 atom-32" d="M 376.0,222.2 L 366.3,190.9" style="fill:none;fill-rule:evenodd;stroke:#000000;stroke-width:2.0px;stroke-linecap:butt;stroke-linejoin:miter;stroke-opacity:1"/>
<path class="bond-32 atom-32 atom-33" d="M 366.3,190.9 L 334.3,183.7" style="fill:none;fill-rule:evenodd;stroke:#000000;stroke-width:2.0px;stroke-linecap:butt;stroke-linejoin:miter;stroke-opacity:1"/>
<path class="bond-32 atom-32 atom-33" d="M 360.0,196.2 L 337.6,191.1" style="fill:none;fill-rule:evenodd;stroke:#000000;stroke-width:2.0px;stroke-linecap:butt;stroke-linejoin:miter;stroke-opacity:1"/>
<path class="bond-33 atom-24 atom-34" d="M 225.8,217.5 L 203.5,241.6" style="fill:none;fill-rule:evenodd;stroke:#000000;stroke-width:2.0px;stroke-linecap:butt;stroke-linejoin:miter;stroke-opacity:1"/>
<path class="bond-33 atom-24 atom-34" d="M 217.6,216.6 L 202.0,233.5" style="fill:none;fill-rule:evenodd;stroke:#000000;stroke-width:2.0px;stroke-linecap:butt;stroke-linejoin:miter;stroke-opacity:1"/>
<path class="bond-34 atom-34 atom-35" d="M 203.5,241.6 L 213.3,272.9" style="fill:none;fill-rule:evenodd;stroke:#000000;stroke-width:2.0px;stroke-linecap:butt;stroke-linejoin:miter;stroke-opacity:1"/>
<path class="bond-35 atom-35 atom-36" d="M 213.3,272.9 L 217.2,285.7" style="fill:none;fill-rule:evenodd;stroke:#000000;stroke-width:2.0px;stroke-linecap:butt;stroke-linejoin:miter;stroke-opacity:1"/>
<path class="bond-35 atom-35 atom-36" d="M 217.2,285.7 L 221.2,298.5" style="fill:none;fill-rule:evenodd;stroke:#0000FF;stroke-width:2.0px;stroke-linecap:butt;stroke-linejoin:miter;stroke-opacity:1"/>
<path class="bond-35 atom-35 atom-36" d="M 220.7,274.8 L 224.1,285.7" style="fill:none;fill-rule:evenodd;stroke:#000000;stroke-width:2.0px;stroke-linecap:butt;stroke-linejoin:miter;stroke-opacity:1"/>
<path class="bond-35 atom-35 atom-36" d="M 224.1,285.7 L 227.5,296.5" style="fill:none;fill-rule:evenodd;stroke:#0000FF;stroke-width:2.0px;stroke-linecap:butt;stroke-linejoin:miter;stroke-opacity:1"/>
<path class="bond-35 atom-35 atom-36" d="M 208.2,278.7 L 211.6,289.6" style="fill:none;fill-rule:evenodd;stroke:#000000;stroke-width:2.0px;stroke-linecap:butt;stroke-linejoin:miter;stroke-opacity:1"/>
<path class="bond-35 atom-35 atom-36" d="M 211.6,289.6 L 215.0,300.4" style="fill:none;fill-rule:evenodd;stroke:#0000FF;stroke-width:2.0px;stroke-linecap:butt;stroke-linejoin:miter;stroke-opacity:1"/>
<path class="bond-36 atom-34 atom-3" d="M 203.5,241.6 L 171.5,234.3" style="fill:none;fill-rule:evenodd;stroke:#000000;stroke-width:2.0px;stroke-linecap:butt;stroke-linejoin:miter;stroke-opacity:1"/>
<path class="bond-37 atom-13 atom-8" d="M 65.7,181.4 L 88.0,157.3" style="fill:none;fill-rule:evenodd;stroke:#000000;stroke-width:2.0px;stroke-linecap:butt;stroke-linejoin:miter;stroke-opacity:1"/>
<path class="bond-38 atom-23 atom-18" d="M 241.0,75.3 L 250.8,106.6" style="fill:none;fill-rule:evenodd;stroke:#000000;stroke-width:2.0px;stroke-linecap:butt;stroke-linejoin:miter;stroke-opacity:1"/>
<path class="bond-39 atom-33 atom-28" d="M 334.3,183.7 L 312.0,207.8" style="fill:none;fill-rule:evenodd;stroke:#000000;stroke-width:2.0px;stroke-linecap:butt;stroke-linejoin:miter;stroke-opacity:1"/>
<path class="atom-5" d="M 117.8 191.2 L 119.1 191.2 L 119.1 195.1 L 123.8 195.1 L 123.8 191.2 L 125.1 191.2 L 125.1 200.4 L 123.8 200.4 L 123.8 196.2 L 119.1 196.2 L 119.1 200.4 L 117.8 200.4 L 117.8 191.2 " fill="#0000FF"/>
<path class="atom-5" d="M 127.7 191.2 L 130.7 196.1 Q 131.0 196.6, 131.5 197.4 Q 132.0 198.3, 132.0 198.4 L 132.0 191.2 L 133.3 191.2 L 133.3 200.4 L 132.0 200.4 L 128.7 195.1 Q 128.3 194.4, 127.9 193.7 Q 127.5 193.0, 127.4 192.8 L 127.4 200.4 L 126.2 200.4 L 126.2 191.2 L 127.7 191.2 " fill="#0000FF"/>
<path class="atom-7" d="M 138.0 140.4 Q 138.0 138.2, 139.1 136.9 Q 140.2 135.7, 142.2 135.7 Q 144.3 135.7, 145.4 136.9 Q 146.5 138.2, 146.5 140.4 Q 146.5 142.6, 145.4 143.9 Q 144.3 145.2, 142.2 145.2 Q 140.2 145.2, 139.1 143.9 Q 138.0 142.7, 138.0 140.4 M 142.2 144.2 Q 143.7 144.2, 144.4 143.2 Q 145.2 142.3, 145.2 140.4 Q 145.2 138.6, 144.4 137.6 Q 143.7 136.7, 142.2 136.7 Q 140.8 136.7, 140.0 137.6 Q 139.3 138.6, 139.3 140.4 Q 139.3 142.3, 140.0 143.2 Q 140.8 144.2, 142.2 144.2 " fill="#FF0000"/>
<path class="atom-16" d="M 234.0 162.0 Q 234.0 159.8, 235.1 158.6 Q 236.2 157.3, 238.3 157.3 Q 240.3 157.3, 241.4 158.6 Q 242.5 159.8, 242.5 162.0 Q 242.5 164.3, 241.4 165.6 Q 240.3 166.9, 238.3 166.9 Q 236.2 166.9, 235.1 165.6 Q 234.0 164.3, 234.0 162.0 M 238.3 165.8 Q 239.7 165.8, 240.4 164.9 Q 241.2 163.9, 241.2 162.0 Q 241.2 160.2, 240.4 159.3 Q 239.7 158.4, 238.3 158.4 Q 236.8 158.4, 236.1 159.3 Q 235.3 160.2, 235.3 162.0 Q 235.3 163.9, 236.1 164.9 Q 236.8 165.8, 238.3 165.8 " fill="#FF0000"/>
<path class="atom-25" d="M 255.7 220.0 L 258.8 224.9 Q 259.1 225.4, 259.5 226.3 Q 260.0 227.2, 260.1 227.2 L 260.1 220.0 L 261.3 220.0 L 261.3 229.3 L 260.0 229.3 L 256.7 223.9 Q 256.4 223.3, 256.0 222.6 Q 255.6 221.9, 255.4 221.6 L 255.4 229.3 L 254.2 229.3 L 254.2 220.0 L 255.7 220.0 " fill="#0000FF"/>
<path class="atom-25" d="M 254.1 230.2 L 255.4 230.2 L 255.4 234.2 L 260.1 234.2 L 260.1 230.2 L 261.4 230.2 L 261.4 239.5 L 260.1 239.5 L 260.1 235.2 L 255.4 235.2 L 255.4 239.5 L 254.1 239.5 L 254.1 230.2 " fill="#0000FF"/>
<path class="atom-27" d="M 266.0 169.3 Q 266.0 167.0, 267.1 165.8 Q 268.2 164.5, 270.3 164.5 Q 272.3 164.5, 273.4 165.8 Q 274.5 167.0, 274.5 169.3 Q 274.5 171.5, 273.4 172.8 Q 272.3 174.1, 270.3 174.1 Q 268.2 174.1, 267.1 172.8 Q 266.0 171.5, 266.0 169.3 M 270.3 173.0 Q 271.7 173.0, 272.4 172.1 Q 273.2 171.1, 273.2 169.3 Q 273.2 167.4, 272.4 166.5 Q 271.7 165.6, 270.3 165.6 Q 268.8 165.6, 268.1 166.5 Q 267.3 167.4, 267.3 169.3 Q 267.3 171.1, 268.1 172.1 Q 268.8 173.0, 270.3 173.0 " fill="#FF0000"/>
<path class="atom-36" d="M 221.0 299.6 L 224.0 304.5 Q 224.3 305.0, 224.8 305.9 Q 225.3 306.7, 225.3 306.8 L 225.3 299.6 L 226.5 299.6 L 226.5 308.9 L 225.3 308.9 L 222.0 303.5 Q 221.6 302.8, 221.2 302.1 Q 220.8 301.4, 220.7 301.2 L 220.7 308.9 L 219.5 308.9 L 219.5 299.6 L 221.0 299.6 " fill="#0000FF"/>
<path class="legend" d="M 168.2 365.4 L 168.4 366.5 Q 169.2 365.3, 170.7 365.3 Q 171.1 365.3, 171.7 365.4 L 171.5 366.8 Q 170.8 366.6, 170.4 366.6 Q 169.7 366.6, 169.3 366.9 Q 168.8 367.1, 168.5 367.8 L 168.5 373.6 L 167.0 373.6 L 167.0 365.4 L 168.2 365.4 " fill="#000000"/>
<path class="legend" d="M 172.0 369.5 Q 172.0 367.5, 173.0 366.4 Q 174.0 365.3, 175.8 365.3 Q 177.6 365.3, 178.4 366.4 Q 179.2 367.4, 179.2 369.5 L 179.2 369.7 L 173.5 369.7 Q 173.5 371.1, 174.1 371.8 Q 174.8 372.6, 175.9 372.6 Q 176.6 372.6, 177.2 372.4 Q 177.8 372.3, 178.5 372.0 L 178.9 373.0 Q 178.1 373.4, 177.4 373.6 Q 176.6 373.8, 175.9 373.8 Q 174.0 373.8, 173.0 372.6 Q 172.0 371.5, 172.0 369.5 M 175.8 366.4 Q 174.9 366.4, 174.3 367.0 Q 173.7 367.5, 173.6 368.6 L 177.6 368.6 Q 177.5 367.5, 177.1 367.0 Q 176.6 366.4, 175.8 366.4 " fill="#000000"/>
<path class="legend" d="M 179.8 371.4 Q 179.8 370.1, 180.9 369.4 Q 182.0 368.7, 183.9 368.7 L 185.1 368.7 L 185.1 368.3 Q 185.1 367.3, 184.7 366.9 Q 184.3 366.4, 183.2 366.4 Q 182.6 366.4, 182.1 366.6 Q 181.6 366.7, 180.8 367.0 L 180.3 366.0 Q 181.8 365.3, 183.3 365.3 Q 185.0 365.3, 185.8 366.0 Q 186.6 366.8, 186.6 368.4 L 186.6 373.6 L 185.4 373.6 Q 185.4 373.6, 185.4 373.3 Q 185.3 373.1, 185.2 372.7 Q 184.1 373.8, 182.5 373.8 Q 181.3 373.8, 180.6 373.2 Q 179.8 372.5, 179.8 371.4 M 181.3 371.4 Q 181.3 372.0, 181.7 372.3 Q 182.1 372.6, 182.8 372.6 Q 183.5 372.6, 184.1 372.4 Q 184.7 372.0, 185.1 371.5 L 185.1 369.8 L 184.0 369.8 Q 182.7 369.8, 182.0 370.2 Q 181.3 370.6, 181.3 371.4 " fill="#000000"/>
<path class="legend" d="M 187.8 369.5 Q 187.8 367.5, 188.8 366.4 Q 189.8 365.3, 191.8 365.3 Q 193.6 365.3, 194.6 366.6 L 193.6 367.4 Q 193.2 366.9, 192.8 366.7 Q 192.4 366.4, 191.8 366.4 Q 190.6 366.4, 190.0 367.2 Q 189.4 368.0, 189.4 369.5 Q 189.4 371.0, 190.0 371.8 Q 190.7 372.6, 191.9 372.6 Q 192.5 372.6, 193.0 372.4 Q 193.5 372.3, 194.0 372.0 L 194.5 373.0 Q 193.3 373.7, 191.8 373.7 Q 189.8 373.7, 188.8 372.6 Q 187.8 371.5, 187.8 369.5 " fill="#000000"/>
<path class="legend" d="M 195.0 366.6 L 195.0 365.4 L 196.6 365.4 L 196.8 363.0 L 198.0 363.0 L 198.0 365.4 L 200.5 365.4 L 200.5 366.6 L 198.0 366.6 L 198.0 371.1 Q 198.0 372.5, 199.2 372.5 Q 199.6 372.5, 200.3 372.3 L 200.6 373.4 Q 199.7 373.7, 198.9 373.7 Q 197.8 373.7, 197.1 373.1 Q 196.4 372.4, 196.4 371.2 L 196.4 366.6 L 195.0 366.6 " fill="#000000"/>
<path class="legend" d="M 209.2 374.4 L 209.2 375.7 L 201.0 375.7 L 201.0 374.4 L 209.2 374.4 " fill="#000000"/>
<path class="legend" d="M 209.2 364.4 Q 209.6 363.4, 210.6 362.8 Q 211.6 362.2, 213.0 362.2 Q 214.7 362.2, 215.6 363.1 Q 216.6 364.0, 216.6 365.7 Q 216.6 367.4, 215.3 368.9 Q 214.1 370.5, 211.6 372.4 L 216.8 372.4 L 216.8 373.6 L 209.2 373.6 L 209.2 372.6 Q 211.3 371.1, 212.5 369.9 Q 213.8 368.8, 214.4 367.8 Q 215.0 366.8, 215.0 365.8 Q 215.0 364.7, 214.4 364.1 Q 213.9 363.5, 213.0 363.5 Q 212.0 363.5, 211.4 363.8 Q 210.8 364.2, 210.4 365.0 L 209.2 364.4 " fill="#000000"/>
<path class="legend" d="M 221.9 366.5 Q 222.8 366.5, 223.7 367.0 Q 224.5 367.4, 224.9 368.2 Q 225.4 369.0, 225.4 370.0 Q 225.4 371.2, 224.8 372.1 Q 224.3 372.9, 223.3 373.3 Q 222.4 373.8, 221.4 373.8 Q 220.3 373.8, 219.4 373.4 Q 218.4 373.0, 217.7 372.3 L 218.7 371.3 Q 219.2 371.8, 220.0 372.2 Q 220.7 372.5, 221.4 372.5 Q 222.4 372.5, 223.1 371.8 Q 223.8 371.2, 223.8 370.1 Q 223.8 368.9, 223.1 368.3 Q 222.4 367.7, 221.3 367.7 Q 220.3 367.7, 219.2 368.2 L 218.3 367.8 L 218.9 362.3 L 224.7 362.3 L 224.5 363.6 L 220.2 363.6 L 219.9 366.9 Q 220.9 366.5, 221.9 366.5 " fill="#000000"/>
<path class="legend" d="M 226.8 372.4 L 229.3 372.4 L 229.3 363.9 L 226.5 364.7 L 226.2 363.8 L 229.6 362.2 L 230.8 362.4 L 230.8 372.4 L 233.0 372.4 L 233.0 373.6 L 226.8 373.6 L 226.8 372.4 " fill="#000000"/>
<path class="legend" d="M 136.6 383.8 Q 136.6 381.8, 137.6 380.7 Q 138.6 379.5, 140.6 379.5 Q 142.4 379.5, 143.4 380.9 L 142.4 381.6 Q 142.0 381.2, 141.6 380.9 Q 141.1 380.7, 140.6 380.7 Q 139.4 380.7, 138.8 381.5 Q 138.2 382.3, 138.2 383.8 Q 138.2 385.3, 138.8 386.1 Q 139.5 386.8, 140.7 386.8 Q 141.3 386.8, 141.8 386.7 Q 142.3 386.5, 142.8 386.3 L 143.2 387.3 Q 142.1 388.0, 140.5 388.0 Q 138.6 388.0, 137.6 386.9 Q 136.6 385.7, 136.6 383.8 " fill="#000000"/>
<path class="legend" d="M 143.8 383.8 Q 143.8 381.7, 144.8 380.6 Q 145.8 379.5, 147.6 379.5 Q 149.5 379.5, 150.3 380.6 Q 151.1 381.7, 151.1 383.7 L 151.1 384.0 L 145.3 384.0 Q 145.4 385.4, 146.0 386.1 Q 146.6 386.8, 147.8 386.8 Q 148.4 386.8, 149.0 386.7 Q 149.6 386.5, 150.3 386.2 L 150.7 387.2 Q 149.9 387.6, 149.2 387.8 Q 148.5 388.0, 147.7 388.0 Q 145.8 388.0, 144.8 386.9 Q 143.8 385.8, 143.8 383.8 M 147.6 380.7 Q 146.7 380.7, 146.1 381.2 Q 145.6 381.8, 145.4 382.8 L 149.5 382.8 Q 149.4 381.7, 148.9 381.2 Q 148.5 380.7, 147.6 380.7 " fill="#000000"/>
<path class="legend" d="M 156.0 379.5 Q 157.3 379.5, 158.0 380.3 Q 158.7 381.0, 158.7 382.4 L 158.7 387.9 L 157.2 387.9 L 157.2 382.6 Q 157.2 381.6, 156.8 381.2 Q 156.4 380.7, 155.6 380.7 Q 154.8 380.7, 154.2 381.1 Q 153.6 381.4, 153.2 382.0 L 153.2 387.9 L 151.7 387.9 L 151.7 379.7 L 152.9 379.7 L 153.1 380.8 Q 154.2 379.5, 156.0 379.5 " fill="#000000"/>
<path class="legend" d="M 159.9 380.8 L 159.9 379.7 L 161.5 379.7 L 161.7 377.3 L 162.8 377.3 L 162.8 379.7 L 165.4 379.7 L 165.4 380.8 L 162.8 380.8 L 162.8 385.4 Q 162.8 386.8, 164.0 386.8 Q 164.5 386.8, 165.2 386.6 L 165.5 387.6 Q 164.6 388.0, 163.8 388.0 Q 162.7 388.0, 162.0 387.3 Q 161.3 386.7, 161.3 385.4 L 161.3 380.8 L 159.9 380.8 " fill="#000000"/>
<path class="legend" d="M 174.0 388.7 L 174.0 390.0 L 165.9 390.0 L 165.9 388.7 L 174.0 388.7 " fill="#000000"/>
<path class="legend" d="M 181.5 375.7 L 181.5 387.9 L 180.3 387.9 L 180.1 386.9 Q 179.2 388.0, 177.7 388.0 Q 175.9 388.0, 175.0 387.0 Q 174.0 385.9, 174.0 383.9 Q 174.0 381.8, 175.2 380.7 Q 176.3 379.5, 178.3 379.5 Q 179.1 379.5, 180.0 379.7 L 180.0 375.7 L 181.5 375.7 M 177.8 386.8 Q 178.6 386.8, 179.2 386.4 Q 179.8 385.9, 180.0 385.1 L 180.0 380.9 Q 179.2 380.7, 178.3 380.7 Q 177.0 380.7, 176.3 381.6 Q 175.6 382.4, 175.6 383.9 Q 175.6 385.3, 176.1 386.1 Q 176.7 386.8, 177.8 386.8 " fill="#000000"/>
<path class="legend" d="M 182.8 376.6 L 184.3 376.6 L 184.3 378.0 L 182.8 378.0 L 182.8 376.6 M 182.8 379.7 L 184.3 379.7 L 184.3 387.9 L 182.8 387.9 L 182.8 379.7 " fill="#000000"/>
<path class="legend" d="M 186.1 386.2 Q 186.8 386.5, 187.3 386.6 Q 187.9 386.8, 188.4 386.8 Q 189.1 386.8, 189.5 386.5 Q 190.0 386.2, 190.0 385.6 Q 190.0 385.2, 189.7 385.0 Q 189.5 384.8, 189.3 384.6 Q 189.0 384.5, 188.3 384.3 Q 188.2 384.3, 187.4 384.0 Q 186.7 383.7, 186.3 383.2 Q 185.9 382.7, 185.9 381.9 Q 185.9 380.9, 186.7 380.2 Q 187.5 379.5, 188.9 379.5 Q 189.6 379.5, 190.1 379.7 Q 190.7 379.8, 191.3 380.0 L 190.9 381.2 Q 190.3 381.0, 189.9 380.9 Q 189.4 380.8, 188.9 380.8 Q 188.2 380.8, 187.8 381.1 Q 187.4 381.4, 187.4 381.8 Q 187.4 382.3, 187.7 382.5 Q 188.0 382.7, 188.7 383.0 Q 188.9 383.0, 189.0 383.1 L 189.4 383.2 Q 190.1 383.4, 190.5 383.7 Q 190.9 383.9, 191.2 384.4 Q 191.5 384.8, 191.5 385.6 Q 191.5 386.7, 190.6 387.4 Q 189.8 388.0, 188.4 388.0 Q 187.7 388.0, 187.0 387.9 Q 186.3 387.7, 185.6 387.4 L 186.1 386.2 " fill="#000000"/>
<path class="legend" d="M 192.3 380.8 L 192.3 379.7 L 193.9 379.7 L 194.1 377.3 L 195.3 377.3 L 195.3 379.7 L 197.8 379.7 L 197.8 380.8 L 195.3 380.8 L 195.3 385.4 Q 195.3 386.8, 196.5 386.8 Q 196.9 386.8, 197.6 386.6 L 197.9 387.6 Q 197.0 388.0, 196.2 388.0 Q 195.1 388.0, 194.4 387.3 Q 193.8 386.7, 193.8 385.4 L 193.8 380.8 L 192.3 380.8 " fill="#000000"/>
<path class="legend" d="" fill="#000000"/>
<path class="legend" d="M 203.6 380.9 L 211.0 380.9 L 211.0 382.1 L 203.6 382.1 L 203.6 380.9 M 203.6 384.4 L 211.0 384.4 L 211.0 385.5 L 203.6 385.5 L 203.6 384.4 " fill="#000000"/>
<path class="legend" d="" fill="#000000"/>
<path class="legend" d="M 221.9 388.0 Q 219.8 388.0, 218.8 386.5 Q 217.7 384.9, 217.7 382.2 Q 217.7 379.5, 218.8 378.0 Q 219.8 376.4, 221.9 376.4 Q 224.0 376.4, 225.0 378.0 Q 226.0 379.5, 226.0 382.2 Q 226.0 384.9, 225.0 386.5 Q 224.0 388.0, 221.9 388.0 M 221.9 386.7 Q 223.1 386.7, 223.8 385.6 Q 224.4 384.4, 224.4 382.2 Q 224.4 380.0, 223.8 378.8 Q 223.1 377.7, 221.9 377.7 Q 220.7 377.7, 220.0 378.8 Q 219.3 380.0, 219.3 382.2 Q 219.3 384.4, 220.0 385.6 Q 220.7 386.7, 221.9 386.7 " fill="#000000"/>
<path class="legend" d="M 227.1 386.3 L 228.7 386.3 L 228.7 387.9 L 227.1 387.9 L 227.1 386.3 " fill="#000000"/>
<path class="legend" d="M 235.2 381.9 Q 236.3 382.2, 236.8 383.0 Q 237.3 383.7, 237.3 384.8 Q 237.3 385.7, 236.9 386.5 Q 236.4 387.2, 235.5 387.6 Q 234.6 388.0, 233.5 388.0 Q 232.2 388.0, 231.3 387.6 Q 230.4 387.2, 229.7 386.3 L 230.6 385.4 Q 231.3 386.2, 231.9 386.5 Q 232.5 386.8, 233.5 386.8 Q 234.5 386.8, 235.1 386.2 Q 235.7 385.7, 235.7 384.8 Q 235.7 383.6, 235.1 383.1 Q 234.4 382.6, 233.0 382.6 L 232.2 382.6 L 232.2 381.4 L 232.9 381.4 Q 234.2 381.4, 234.8 380.9 Q 235.5 380.3, 235.5 379.3 Q 235.5 378.6, 234.9 378.2 Q 234.4 377.7, 233.5 377.7 Q 232.5 377.7, 231.9 378.0 Q 231.4 378.4, 230.9 379.2 L 229.8 378.6 Q 230.2 377.7, 231.2 377.1 Q 232.1 376.4, 233.5 376.4 Q 235.1 376.4, 236.1 377.2 Q 237.1 378.0, 237.1 379.3 Q 237.1 380.2, 236.6 380.9 Q 236.1 381.6, 235.2 381.9 " fill="#000000"/>
<path class="legend" d="M 242.1 376.4 Q 244.1 376.4, 245.1 377.8 Q 246.1 379.2, 246.1 381.9 Q 246.1 384.9, 244.9 386.5 Q 243.6 388.0, 241.2 388.0 Q 240.5 388.0, 239.9 387.9 Q 239.3 387.7, 238.7 387.4 L 239.3 386.3 Q 240.2 386.7, 241.2 386.7 Q 242.8 386.7, 243.6 385.7 Q 244.4 384.7, 244.5 382.5 Q 243.9 383.1, 243.2 383.4 Q 242.5 383.6, 241.7 383.6 Q 240.7 383.6, 239.9 383.2 Q 239.1 382.8, 238.7 382.0 Q 238.3 381.2, 238.3 380.2 Q 238.3 379.1, 238.8 378.3 Q 239.3 377.4, 240.1 376.9 Q 241.0 376.4, 242.1 376.4 M 239.9 380.2 Q 239.9 381.2, 240.4 381.8 Q 241.0 382.4, 242.0 382.4 Q 242.7 382.4, 243.3 382.1 Q 244.0 381.8, 244.5 381.3 Q 244.5 379.4, 243.9 378.6 Q 243.3 377.7, 242.1 377.7 Q 241.5 377.7, 240.9 378.1 Q 240.5 378.4, 240.2 378.9 Q 239.9 379.5, 239.9 380.2 " fill="#000000"/>
<path class="legend" d="M 251.4 388.0 Q 249.3 388.0, 248.2 386.5 Q 247.2 384.9, 247.2 382.2 Q 247.2 379.5, 248.2 378.0 Q 249.3 376.4, 251.4 376.4 Q 253.5 376.4, 254.5 378.0 Q 255.5 379.5, 255.5 382.2 Q 255.5 384.9, 254.5 386.5 Q 253.4 388.0, 251.4 388.0 M 251.4 386.7 Q 252.6 386.7, 253.3 385.6 Q 253.9 384.4, 253.9 382.2 Q 253.9 380.0, 253.3 378.8 Q 252.6 377.7, 251.4 377.7 Q 250.1 377.7, 249.5 378.8 Q 248.8 380.0, 248.8 382.2 Q 248.8 384.4, 249.5 385.6 Q 250.1 386.7, 251.4 386.7 " fill="#000000"/>
<path class="legend" d="M 257.2 386.6 L 259.7 386.6 L 259.7 378.1 L 256.9 379.0 L 256.5 378.0 L 260.0 376.5 L 261.2 376.7 L 261.2 386.6 L 263.4 386.6 L 263.4 387.9 L 257.2 387.9 L 257.2 386.6 " fill="#000000"/>
<path class="bond-0 atom-0 atom-1" d="M 520.2,309.8 L 534.9,280.5" style="fill:none;fill-rule:evenodd;stroke:#000000;stroke-width:2.0px;stroke-linecap:butt;stroke-linejoin:miter;stroke-opacity:1"/>
<path class="bond-0 atom-0 atom-1" d="M 526.1,312.7 L 540.8,283.4" style="fill:none;fill-rule:evenodd;stroke:#000000;stroke-width:2.0px;stroke-linecap:butt;stroke-linejoin:miter;stroke-opacity:1"/>
<path class="bond-1 atom-1 atom-2" d="M 537.9,281.9 L 570.6,280.0" style="fill:none;fill-rule:evenodd;stroke:#000000;stroke-width:2.0px;stroke-linecap:butt;stroke-linejoin:miter;stroke-opacity:1"/>
<path class="bond-2 atom-2 atom-3" d="M 570.6,280.0 L 585.3,250.7" style="fill:none;fill-rule:evenodd;stroke:#000000;stroke-width:2.0px;stroke-linecap:butt;stroke-linejoin:miter;stroke-opacity:1"/>
<path class="bond-3 atom-3 atom-4" d="M 585.3,250.7 L 567.2,223.3" style="fill:none;fill-rule:evenodd;stroke:#000000;stroke-width:2.0px;stroke-linecap:butt;stroke-linejoin:miter;stroke-opacity:1"/>
<path class="bond-3 atom-3 atom-4" d="M 588.1,242.9 L 575.4,223.8" style="fill:none;fill-rule:evenodd;stroke:#000000;stroke-width:2.0px;stroke-linecap:butt;stroke-linejoin:miter;stroke-opacity:1"/>
<path class="bond-4 atom-4 atom-5" d="M 567.2,223.3 L 553.2,224.1" style="fill:none;fill-rule:evenodd;stroke:#000000;stroke-width:2.0px;stroke-linecap:butt;stroke-linejoin:miter;stroke-opacity:1"/>
<path class="bond-4 atom-4 atom-5" d="M 553.2,224.1 L 539.1,224.9" style="fill:none;fill-rule:evenodd;stroke:#0000FF;stroke-width:2.0px;stroke-linecap:butt;stroke-linejoin:miter;stroke-opacity:1"/>
<path class="bond-5 atom-5 atom-6" d="M 531.6,230.9 L 525.7,242.7" style="fill:none;fill-rule:evenodd;stroke:#0000FF;stroke-width:2.0px;stroke-linecap:butt;stroke-linejoin:miter;stroke-opacity:1"/>
<path class="bond-5 atom-5 atom-6" d="M 525.7,242.7 L 519.8,254.5" style="fill:none;fill-rule:evenodd;stroke:#000000;stroke-width:2.0px;stroke-linecap:butt;stroke-linejoin:miter;stroke-opacity:1"/>
<path class="bond-6 atom-5 atom-7" d="M 530.7,219.5 L 523.6,208.6" style="fill:none;fill-rule:evenodd;stroke:#0000FF;stroke-width:2.0px;stroke-linecap:butt;stroke-linejoin:miter;stroke-opacity:1"/>
<path class="bond-6 atom-5 atom-7" d="M 523.6,208.6 L 516.4,197.8" style="fill:none;fill-rule:evenodd;stroke:#000000;stroke-width:2.0px;stroke-linecap:butt;stroke-linejoin:miter;stroke-opacity:1"/>
<path class="bond-7 atom-7 atom-8" d="M 513.5,196.3 L 519.4,184.6" style="fill:none;fill-rule:evenodd;stroke:#000000;stroke-width:2.0px;stroke-linecap:butt;stroke-linejoin:miter;stroke-opacity:1"/>
<path class="bond-7 atom-7 atom-8" d="M 519.4,184.6 L 525.2,172.9" style="fill:none;fill-rule:evenodd;stroke:#FF0000;stroke-width:2.0px;stroke-linecap:butt;stroke-linejoin:miter;stroke-opacity:1"/>
<path class="bond-7 atom-7 atom-8" d="M 519.4,199.3 L 525.2,187.6" style="fill:none;fill-rule:evenodd;stroke:#000000;stroke-width:2.0px;stroke-linecap:butt;stroke-linejoin:miter;stroke-opacity:1"/>
<path class="bond-7 atom-7 atom-8" d="M 525.2,187.6 L 531.1,175.9" style="fill:none;fill-rule:evenodd;stroke:#FF0000;stroke-width:2.0px;stroke-linecap:butt;stroke-linejoin:miter;stroke-opacity:1"/>
<path class="bond-8 atom-7 atom-9" d="M 516.4,197.8 L 483.7,199.7" style="fill:none;fill-rule:evenodd;stroke:#000000;stroke-width:2.0px;stroke-linecap:butt;stroke-linejoin:miter;stroke-opacity:1"/>
<path class="bond-9 atom-9 atom-10" d="M 483.7,199.7 L 469.0,229.1" style="fill:none;fill-rule:evenodd;stroke:#000000;stroke-width:2.0px;stroke-linecap:butt;stroke-linejoin:miter;stroke-opacity:1"/>
<path class="bond-9 atom-9 atom-10" d="M 475.6,201.2 L 465.3,221.7" style="fill:none;fill-rule:evenodd;stroke:#000000;stroke-width:2.0px;stroke-linecap:butt;stroke-linejoin:miter;stroke-opacity:1"/>
<path class="bond-10 atom-10 atom-11" d="M 469.0,229.1 L 436.2,231.0" style="fill:none;fill-rule:evenodd;stroke:#000000;stroke-width:2.0px;stroke-linecap:butt;stroke-linejoin:miter;stroke-opacity:1"/>
<path class="bond-11 atom-11 atom-12" d="M 436.2,231.0 L 418.2,203.6" style="fill:none;fill-rule:evenodd;stroke:#000000;stroke-width:2.0px;stroke-linecap:butt;stroke-linejoin:miter;stroke-opacity:1"/>
<path class="bond-11 atom-11 atom-12" d="M 439.0,223.3 L 426.4,204.1" style="fill:none;fill-rule:evenodd;stroke:#000000;stroke-width:2.0px;stroke-linecap:butt;stroke-linejoin:miter;stroke-opacity:1"/>
<path class="bond-12 atom-12 atom-13" d="M 418.2,203.6 L 432.9,174.3" style="fill:none;fill-rule:evenodd;stroke:#000000;stroke-width:2.0px;stroke-linecap:butt;stroke-linejoin:miter;stroke-opacity:1"/>
<path class="bond-13 atom-13 atom-14" d="M 432.9,174.3 L 465.6,172.4" style="fill:none;fill-rule:evenodd;stroke:#000000;stroke-width:2.0px;stroke-linecap:butt;stroke-linejoin:miter;stroke-opacity:1"/>
<path class="bond-13 atom-13 atom-14" d="M 438.2,180.6 L 461.1,179.2" style="fill:none;fill-rule:evenodd;stroke:#000000;stroke-width:2.0px;stroke-linecap:butt;stroke-linejoin:miter;stroke-opacity:1"/>
<path class="bond-14 atom-4 atom-15" d="M 567.2,223.3 L 581.9,193.9" style="fill:none;fill-rule:evenodd;stroke:#000000;stroke-width:2.0px;stroke-linecap:butt;stroke-linejoin:miter;stroke-opacity:1"/>
<path class="bond-15 atom-15 atom-16" d="M 581.9,193.9 L 614.7,192.0" style="fill:none;fill-rule:evenodd;stroke:#000000;stroke-width:2.0px;stroke-linecap:butt;stroke-linejoin:miter;stroke-opacity:1"/>
<path class="bond-15 atom-15 atom-16" d="M 587.2,200.2 L 610.2,198.8" style="fill:none;fill-rule:evenodd;stroke:#000000;stroke-width:2.0px;stroke-linecap:butt;stroke-linejoin:miter;stroke-opacity:1"/>
<path class="bond-16 atom-16 atom-17" d="M 614.7,192.0 L 620.6,180.3" style="fill:none;fill-rule:evenodd;stroke:#000000;stroke-width:2.0px;stroke-linecap:butt;stroke-linejoin:miter;stroke-opacity:1"/>
<path class="bond-16 atom-16 atom-17" d="M 620.6,180.3 L 626.4,168.6" style="fill:none;fill-rule:evenodd;stroke:#FF0000;stroke-width:2.0px;stroke-linecap:butt;stroke-linejoin:miter;stroke-opacity:1"/>
<path class="bond-17 atom-17 atom-18" d="M 625.6,156.9 L 618.5,146.1" style="fill:none;fill-rule:evenodd;stroke:#FF0000;stroke-width:2.0px;stroke-linecap:butt;stroke-linejoin:miter;stroke-opacity:1"/>
<path class="bond-17 atom-17 atom-18" d="M 618.5,146.1 L 611.3,135.3" style="fill:none;fill-rule:evenodd;stroke:#000000;stroke-width:2.0px;stroke-linecap:butt;stroke-linejoin:miter;stroke-opacity:1"/>
<path class="bond-18 atom-18 atom-19" d="M 611.3,135.3 L 626.0,105.9" style="fill:none;fill-rule:evenodd;stroke:#000000;stroke-width:2.0px;stroke-linecap:butt;stroke-linejoin:miter;stroke-opacity:1"/>
<path class="bond-19 atom-19 atom-20" d="M 626.0,105.9 L 658.8,104.0" style="fill:none;fill-rule:evenodd;stroke:#000000;stroke-width:2.0px;stroke-linecap:butt;stroke-linejoin:miter;stroke-opacity:1"/>
<path class="bond-19 atom-19 atom-20" d="M 630.6,99.1 L 653.5,97.7" style="fill:none;fill-rule:evenodd;stroke:#000000;stroke-width:2.0px;stroke-linecap:butt;stroke-linejoin:miter;stroke-opacity:1"/>
<path class="bond-20 atom-20 atom-21" d="M 658.8,104.0 L 673.5,74.7" style="fill:none;fill-rule:evenodd;stroke:#000000;stroke-width:2.0px;stroke-linecap:butt;stroke-linejoin:miter;stroke-opacity:1"/>
<path class="bond-21 atom-21 atom-22" d="M 673.5,74.7 L 655.4,47.3" style="fill:none;fill-rule:evenodd;stroke:#000000;stroke-width:2.0px;stroke-linecap:butt;stroke-linejoin:miter;stroke-opacity:1"/>
<path class="bond-21 atom-21 atom-22" d="M 665.3,74.2 L 652.7,55.0" style="fill:none;fill-rule:evenodd;stroke:#000000;stroke-width:2.0px;stroke-linecap:butt;stroke-linejoin:miter;stroke-opacity:1"/>
<path class="bond-22 atom-22 atom-23" d="M 655.4,47.3 L 622.7,49.2" style="fill:none;fill-rule:evenodd;stroke:#000000;stroke-width:2.0px;stroke-linecap:butt;stroke-linejoin:miter;stroke-opacity:1"/>
<path class="bond-23 atom-23 atom-24" d="M 622.7,49.2 L 608.0,78.5" style="fill:none;fill-rule:evenodd;stroke:#000000;stroke-width:2.0px;stroke-linecap:butt;stroke-linejoin:miter;stroke-opacity:1"/>
<path class="bond-23 atom-23 atom-24" d="M 626.3,56.5 L 616.1,77.1" style="fill:none;fill-rule:evenodd;stroke:#000000;stroke-width:2.0px;stroke-linecap:butt;stroke-linejoin:miter;stroke-opacity:1"/>
<path class="bond-24 atom-16 atom-25" d="M 614.7,192.0 L 632.8,219.4" style="fill:none;fill-rule:evenodd;stroke:#000000;stroke-width:2.0px;stroke-linecap:butt;stroke-linejoin:miter;stroke-opacity:1"/>
<path class="bond-25 atom-25 atom-26" d="M 632.8,219.4 L 646.8,218.6" style="fill:none;fill-rule:evenodd;stroke:#000000;stroke-width:2.0px;stroke-linecap:butt;stroke-linejoin:miter;stroke-opacity:1"/>
<path class="bond-25 atom-25 atom-26" d="M 646.8,218.6 L 660.9,217.7" style="fill:none;fill-rule:evenodd;stroke:#0000FF;stroke-width:2.0px;stroke-linecap:butt;stroke-linejoin:miter;stroke-opacity:1"/>
<path class="bond-26 atom-26 atom-27" d="M 668.4,211.7 L 674.3,199.9" style="fill:none;fill-rule:evenodd;stroke:#0000FF;stroke-width:2.0px;stroke-linecap:butt;stroke-linejoin:miter;stroke-opacity:1"/>
<path class="bond-26 atom-26 atom-27" d="M 674.3,199.9 L 680.2,188.1" style="fill:none;fill-rule:evenodd;stroke:#000000;stroke-width:2.0px;stroke-linecap:butt;stroke-linejoin:miter;stroke-opacity:1"/>
<path class="bond-27 atom-26 atom-28" d="M 669.3,223.2 L 676.4,234.0" style="fill:none;fill-rule:evenodd;stroke:#0000FF;stroke-width:2.0px;stroke-linecap:butt;stroke-linejoin:miter;stroke-opacity:1"/>
<path class="bond-27 atom-26 atom-28" d="M 676.4,234.0 L 683.6,244.8" style="fill:none;fill-rule:evenodd;stroke:#000000;stroke-width:2.0px;stroke-linecap:butt;stroke-linejoin:miter;stroke-opacity:1"/>
<path class="bond-28 atom-28 atom-29" d="M 686.5,246.3 L 680.6,258.1" style="fill:none;fill-rule:evenodd;stroke:#000000;stroke-width:2.0px;stroke-linecap:butt;stroke-linejoin:miter;stroke-opacity:1"/>
<path class="bond-28 atom-28 atom-29" d="M 680.6,258.1 L 674.7,269.9" style="fill:none;fill-rule:evenodd;stroke:#FF0000;stroke-width:2.0px;stroke-linecap:butt;stroke-linejoin:miter;stroke-opacity:1"/>
<path class="bond-28 atom-28 atom-29" d="M 680.6,243.4 L 674.7,255.2" style="fill:none;fill-rule:evenodd;stroke:#000000;stroke-width:2.0px;stroke-linecap:butt;stroke-linejoin:miter;stroke-opacity:1"/>
<path class="bond-28 atom-28 atom-29" d="M 674.7,255.2 L 668.8,266.9" style="fill:none;fill-rule:evenodd;stroke:#FF0000;stroke-width:2.0px;stroke-linecap:butt;stroke-linejoin:miter;stroke-opacity:1"/>
<path class="bond-29 atom-28 atom-30" d="M 683.6,244.8 L 716.3,242.9" style="fill:none;fill-rule:evenodd;stroke:#000000;stroke-width:2.0px;stroke-linecap:butt;stroke-linejoin:miter;stroke-opacity:1"/>
<path class="bond-30 atom-30 atom-31" d="M 716.3,242.9 L 734.4,270.3" style="fill:none;fill-rule:evenodd;stroke:#000000;stroke-width:2.0px;stroke-linecap:butt;stroke-linejoin:miter;stroke-opacity:1"/>
<path class="bond-30 atom-30 atom-31" d="M 724.5,243.4 L 737.1,262.6" style="fill:none;fill-rule:evenodd;stroke:#000000;stroke-width:2.0px;stroke-linecap:butt;stroke-linejoin:miter;stroke-opacity:1"/>
<path class="bond-31 atom-31 atom-32" d="M 734.4,270.3 L 767.1,268.4" style="fill:none;fill-rule:evenodd;stroke:#000000;stroke-width:2.0px;stroke-linecap:butt;stroke-linejoin:miter;stroke-opacity:1"/>
<path class="bond-32 atom-32 atom-33" d="M 767.1,268.4 L 781.8,239.0" style="fill:none;fill-rule:evenodd;stroke:#000000;stroke-width:2.0px;stroke-linecap:butt;stroke-linejoin:miter;stroke-opacity:1"/>
<path class="bond-32 atom-32 atom-33" d="M 763.5,261.0 L 773.7,240.5" style="fill:none;fill-rule:evenodd;stroke:#000000;stroke-width:2.0px;stroke-linecap:butt;stroke-linejoin:miter;stroke-opacity:1"/>
<path class="bond-33 atom-33 atom-34" d="M 781.8,239.0 L 763.8,211.6" style="fill:none;fill-rule:evenodd;stroke:#000000;stroke-width:2.0px;stroke-linecap:butt;stroke-linejoin:miter;stroke-opacity:1"/>
<path class="bond-34 atom-34 atom-35" d="M 763.8,211.6 L 731.0,213.6" style="fill:none;fill-rule:evenodd;stroke:#000000;stroke-width:2.0px;stroke-linecap:butt;stroke-linejoin:miter;stroke-opacity:1"/>
<path class="bond-34 atom-34 atom-35" d="M 759.2,218.5 L 736.3,219.8" style="fill:none;fill-rule:evenodd;stroke:#000000;stroke-width:2.0px;stroke-linecap:butt;stroke-linejoin:miter;stroke-opacity:1"/>
<path class="bond-35 atom-25 atom-36" d="M 632.8,219.4 L 618.1,248.7" style="fill:none;fill-rule:evenodd;stroke:#000000;stroke-width:2.0px;stroke-linecap:butt;stroke-linejoin:miter;stroke-opacity:1"/>
<path class="bond-35 atom-25 atom-36" d="M 624.7,220.8 L 614.4,241.4" style="fill:none;fill-rule:evenodd;stroke:#000000;stroke-width:2.0px;stroke-linecap:butt;stroke-linejoin:miter;stroke-opacity:1"/>
<path class="bond-36 atom-36 atom-37" d="M 618.1,248.7 L 636.1,276.1" style="fill:none;fill-rule:evenodd;stroke:#000000;stroke-width:2.0px;stroke-linecap:butt;stroke-linejoin:miter;stroke-opacity:1"/>
<path class="bond-37 atom-37 atom-38" d="M 636.1,276.1 L 643.3,287.0" style="fill:none;fill-rule:evenodd;stroke:#000000;stroke-width:2.0px;stroke-linecap:butt;stroke-linejoin:miter;stroke-opacity:1"/>
<path class="bond-37 atom-37 atom-38" d="M 643.3,287.0 L 650.4,297.8" style="fill:none;fill-rule:evenodd;stroke:#0000FF;stroke-width:2.0px;stroke-linecap:butt;stroke-linejoin:miter;stroke-opacity:1"/>
<path class="bond-37 atom-37 atom-38" d="M 643.7,275.8 L 649.8,285.0" style="fill:none;fill-rule:evenodd;stroke:#000000;stroke-width:2.0px;stroke-linecap:butt;stroke-linejoin:miter;stroke-opacity:1"/>
<path class="bond-37 atom-37 atom-38" d="M 649.8,285.0 L 655.9,294.2" style="fill:none;fill-rule:evenodd;stroke:#0000FF;stroke-width:2.0px;stroke-linecap:butt;stroke-linejoin:miter;stroke-opacity:1"/>
<path class="bond-37 atom-37 atom-38" d="M 632.8,283.0 L 638.8,292.2" style="fill:none;fill-rule:evenodd;stroke:#000000;stroke-width:2.0px;stroke-linecap:butt;stroke-linejoin:miter;stroke-opacity:1"/>
<path class="bond-37 atom-37 atom-38" d="M 638.8,292.2 L 644.9,301.4" style="fill:none;fill-rule:evenodd;stroke:#0000FF;stroke-width:2.0px;stroke-linecap:butt;stroke-linejoin:miter;stroke-opacity:1"/>
<path class="bond-38 atom-36 atom-3" d="M 618.1,248.7 L 585.3,250.7" style="fill:none;fill-rule:evenodd;stroke:#000000;stroke-width:2.0px;stroke-linecap:butt;stroke-linejoin:miter;stroke-opacity:1"/>
<path class="bond-39 atom-14 atom-9" d="M 465.6,172.4 L 483.7,199.7" style="fill:none;fill-rule:evenodd;stroke:#000000;stroke-width:2.0px;stroke-linecap:butt;stroke-linejoin:miter;stroke-opacity:1"/>
<path class="bond-40 atom-24 atom-19" d="M 608.0,78.5 L 626.0,105.9" style="fill:none;fill-rule:evenodd;stroke:#000000;stroke-width:2.0px;stroke-linecap:butt;stroke-linejoin:miter;stroke-opacity:1"/>
<path class="bond-41 atom-35 atom-30" d="M 731.0,213.6 L 716.3,242.9" style="fill:none;fill-rule:evenodd;stroke:#000000;stroke-width:2.0px;stroke-linecap:butt;stroke-linejoin:miter;stroke-opacity:1"/>
<path class="atom-5" d="M 532.4 220.6 L 535.5 225.5 Q 535.8 226.0, 536.3 226.8 Q 536.8 227.7, 536.8 227.8 L 536.8 220.6 L 538.0 220.6 L 538.0 229.9 L 536.7 229.9 L 533.5 224.5 Q 533.1 223.8, 532.7 223.1 Q 532.3 222.4, 532.2 222.2 L 532.2 229.9 L 531.0 229.9 L 531.0 220.6 L 532.4 220.6 " fill="#0000FF"/>
<path class="atom-8" d="M 526.9 168.5 Q 526.9 166.3, 528.0 165.0 Q 529.1 163.8, 531.1 163.8 Q 533.2 163.8, 534.3 165.0 Q 535.4 166.3, 535.4 168.5 Q 535.4 170.8, 534.3 172.0 Q 533.2 173.3, 531.1 173.3 Q 529.1 173.3, 528.0 172.0 Q 526.9 170.8, 526.9 168.5 M 531.1 172.3 Q 532.6 172.3, 533.3 171.3 Q 534.1 170.4, 534.1 168.5 Q 534.1 166.7, 533.3 165.8 Q 532.6 164.8, 531.1 164.8 Q 529.7 164.8, 528.9 165.7 Q 528.2 166.7, 528.2 168.5 Q 528.2 170.4, 528.9 171.3 Q 529.7 172.3, 531.1 172.3 " fill="#FF0000"/>
<path class="atom-17" d="M 625.1 162.7 Q 625.1 160.5, 626.2 159.2 Q 627.3 158.0, 629.4 158.0 Q 631.5 158.0, 632.6 159.2 Q 633.7 160.5, 633.7 162.7 Q 633.7 164.9, 632.5 166.2 Q 631.4 167.5, 629.4 167.5 Q 627.3 167.5, 626.2 166.2 Q 625.1 165.0, 625.1 162.7 M 629.4 166.5 Q 630.8 166.5, 631.6 165.5 Q 632.3 164.5, 632.3 162.7 Q 632.3 160.9, 631.6 159.9 Q 630.8 159.0, 629.4 159.0 Q 628.0 159.0, 627.2 159.9 Q 626.4 160.8, 626.4 162.7 Q 626.4 164.6, 627.2 165.5 Q 628.0 166.5, 629.4 166.5 " fill="#FF0000"/>
<path class="atom-26" d="M 663.5 212.8 L 666.5 217.7 Q 666.8 218.2, 667.3 219.1 Q 667.8 220.0, 667.8 220.0 L 667.8 212.8 L 669.0 212.8 L 669.0 222.1 L 667.8 222.1 L 664.5 216.7 Q 664.1 216.1, 663.7 215.4 Q 663.3 214.6, 663.2 214.4 L 663.2 222.1 L 662.0 222.1 L 662.0 212.8 L 663.5 212.8 " fill="#0000FF"/>
<path class="atom-29" d="M 664.6 274.2 Q 664.6 272.0, 665.7 270.7 Q 666.8 269.5, 668.9 269.5 Q 670.9 269.5, 672.0 270.7 Q 673.1 272.0, 673.1 274.2 Q 673.1 276.5, 672.0 277.7 Q 670.9 279.0, 668.9 279.0 Q 666.8 279.0, 665.7 277.7 Q 664.6 276.5, 664.6 274.2 M 668.9 278.0 Q 670.3 278.0, 671.0 277.0 Q 671.8 276.1, 671.8 274.2 Q 671.8 272.4, 671.0 271.5 Q 670.3 270.5, 668.9 270.5 Q 667.4 270.5, 666.7 271.4 Q 665.9 272.4, 665.9 274.2 Q 665.9 276.1, 666.7 277.0 Q 667.4 278.0, 668.9 278.0 " fill="#FF0000"/>
<path class="atom-38" d="M 652.1 298.9 L 655.2 303.8 Q 655.5 304.3, 655.9 305.2 Q 656.4 306.0, 656.5 306.1 L 656.5 298.9 L 657.7 298.9 L 657.7 308.2 L 656.4 308.2 L 653.1 302.8 Q 652.8 302.1, 652.4 301.4 Q 652.0 300.7, 651.9 300.5 L 651.9 308.2 L 650.6 308.2 L 650.6 298.9 L 652.1 298.9 " fill="#0000FF"/>
<path class="legend" d="M 567.8 365.4 L 568.0 366.5 Q 568.8 365.3, 570.3 365.3 Q 570.7 365.3, 571.3 365.4 L 571.1 366.8 Q 570.4 366.6, 570.0 366.6 Q 569.3 366.6, 568.9 366.9 Q 568.4 367.1, 568.1 367.8 L 568.1 373.6 L 566.6 373.6 L 566.6 365.4 L 567.8 365.4 " fill="#000000"/>
<path class="legend" d="M 571.6 369.5 Q 571.6 367.5, 572.6 366.4 Q 573.6 365.3, 575.4 365.3 Q 577.2 365.3, 578.0 366.4 Q 578.8 367.4, 578.8 369.5 L 578.8 369.7 L 573.1 369.7 Q 573.1 371.1, 573.7 371.8 Q 574.4 372.6, 575.5 372.6 Q 576.2 372.6, 576.8 372.4 Q 577.4 372.3, 578.1 372.0 L 578.5 373.0 Q 577.7 373.4, 577.0 373.6 Q 576.2 373.8, 575.5 373.8 Q 573.6 373.8, 572.6 372.6 Q 571.6 371.5, 571.6 369.5 M 575.4 366.4 Q 574.5 366.4, 573.9 367.0 Q 573.3 367.5, 573.2 368.6 L 577.2 368.6 Q 577.1 367.5, 576.7 367.0 Q 576.2 366.4, 575.4 366.4 " fill="#000000"/>
<path class="legend" d="M 579.4 371.4 Q 579.4 370.1, 580.5 369.4 Q 581.6 368.7, 583.5 368.7 L 584.7 368.7 L 584.7 368.3 Q 584.7 367.3, 584.3 366.9 Q 583.9 366.4, 582.8 366.4 Q 582.2 366.4, 581.7 366.6 Q 581.2 366.7, 580.4 367.0 L 579.9 366.0 Q 581.4 365.3, 582.9 365.3 Q 584.6 365.3, 585.4 366.0 Q 586.2 366.8, 586.2 368.4 L 586.2 373.6 L 585.0 373.6 Q 585.0 373.6, 585.0 373.3 Q 584.9 373.1, 584.8 372.7 Q 583.7 373.8, 582.1 373.8 Q 580.9 373.8, 580.2 373.2 Q 579.4 372.5, 579.4 371.4 M 580.9 371.4 Q 580.9 372.0, 581.3 372.3 Q 581.7 372.6, 582.4 372.6 Q 583.1 372.6, 583.7 372.4 Q 584.3 372.0, 584.7 371.5 L 584.7 369.8 L 583.6 369.8 Q 582.3 369.8, 581.6 370.2 Q 580.9 370.6, 580.9 371.4 " fill="#000000"/>
<path class="legend" d="M 587.4 369.5 Q 587.4 367.5, 588.4 366.4 Q 589.4 365.3, 591.4 365.3 Q 593.2 365.3, 594.2 366.6 L 593.2 367.4 Q 592.8 366.9, 592.4 366.7 Q 592.0 366.4, 591.4 366.4 Q 590.2 366.4, 589.6 367.2 Q 589.0 368.0, 589.0 369.5 Q 589.0 371.0, 589.6 371.8 Q 590.3 372.6, 591.5 372.6 Q 592.1 372.6, 592.6 372.4 Q 593.1 372.3, 593.6 372.0 L 594.1 373.0 Q 592.9 373.7, 591.4 373.7 Q 589.4 373.7, 588.4 372.6 Q 587.4 371.5, 587.4 369.5 " fill="#000000"/>
<path class="legend" d="M 594.6 366.6 L 594.6 365.4 L 596.2 365.4 L 596.4 363.0 L 597.6 363.0 L 597.6 365.4 L 600.1 365.4 L 600.1 366.6 L 597.6 366.6 L 597.6 371.1 Q 597.6 372.5, 598.8 372.5 Q 599.2 372.5, 599.9 372.3 L 600.2 373.4 Q 599.3 373.7, 598.5 373.7 Q 597.4 373.7, 596.7 373.1 Q 596.0 372.4, 596.0 371.2 L 596.0 366.6 L 594.6 366.6 " fill="#000000"/>
<path class="legend" d="M 608.8 374.4 L 608.8 375.7 L 600.6 375.7 L 600.6 374.4 L 608.8 374.4 " fill="#000000"/>
<path class="legend" d="M 608.8 364.4 Q 609.2 363.4, 610.2 362.8 Q 611.2 362.2, 612.6 362.2 Q 614.3 362.2, 615.2 363.1 Q 616.2 364.0, 616.2 365.7 Q 616.2 367.4, 614.9 368.9 Q 613.7 370.5, 611.2 372.4 L 616.4 372.4 L 616.4 373.6 L 608.8 373.6 L 608.8 372.6 Q 610.9 371.1, 612.1 369.9 Q 613.4 368.8, 614.0 367.8 Q 614.6 366.8, 614.6 365.8 Q 614.6 364.7, 614.0 364.1 Q 613.5 363.5, 612.6 363.5 Q 611.6 363.5, 611.0 363.8 Q 610.4 364.2, 610.0 365.0 L 608.8 364.4 " fill="#000000"/>
<path class="legend" d="M 621.5 366.5 Q 622.4 366.5, 623.3 367.0 Q 624.1 367.4, 624.5 368.2 Q 625.0 369.0, 625.0 370.0 Q 625.0 371.2, 624.4 372.1 Q 623.9 372.9, 622.9 373.3 Q 622.0 373.8, 621.0 373.8 Q 619.9 373.8, 619.0 373.4 Q 618.0 373.0, 617.3 372.3 L 618.3 371.3 Q 618.8 371.8, 619.6 372.2 Q 620.3 372.5, 621.0 372.5 Q 622.0 372.5, 622.7 371.8 Q 623.4 371.2, 623.4 370.1 Q 623.4 368.9, 622.7 368.3 Q 622.0 367.7, 620.9 367.7 Q 619.9 367.7, 618.8 368.2 L 617.9 367.8 L 618.5 362.3 L 624.3 362.3 L 624.1 363.6 L 619.8 363.6 L 619.5 366.9 Q 620.5 366.5, 621.5 366.5 " fill="#000000"/>
<path class="legend" d="M 625.8 364.4 Q 626.2 363.4, 627.2 362.8 Q 628.2 362.2, 629.6 362.2 Q 631.3 362.2, 632.3 363.1 Q 633.2 364.0, 633.2 365.7 Q 633.2 367.4, 632.0 368.9 Q 630.7 370.5, 628.2 372.4 L 633.4 372.4 L 633.4 373.6 L 625.8 373.6 L 625.8 372.6 Q 627.9 371.1, 629.1 369.9 Q 630.4 368.8, 631.0 367.8 Q 631.6 366.8, 631.6 365.8 Q 631.6 364.7, 631.1 364.1 Q 630.5 363.5, 629.6 363.5 Q 628.7 363.5, 628.1 363.8 Q 627.5 364.2, 627.0 365.0 L 625.8 364.4 " fill="#000000"/>
<path class="legend" d="M 536.7 383.8 Q 536.7 381.8, 537.7 380.7 Q 538.7 379.5, 540.6 379.5 Q 542.5 379.5, 543.5 380.9 L 542.5 381.6 Q 542.1 381.2, 541.6 380.9 Q 541.2 380.7, 540.6 380.7 Q 539.5 380.7, 538.8 381.5 Q 538.2 382.3, 538.2 383.8 Q 538.2 385.3, 538.9 386.1 Q 539.5 386.8, 540.7 386.8 Q 541.4 386.8, 541.9 386.7 Q 542.3 386.5, 542.9 386.3 L 543.3 387.3 Q 542.1 388.0, 540.6 388.0 Q 538.7 388.0, 537.7 386.9 Q 536.7 385.7, 536.7 383.8 " fill="#000000"/>
<path class="legend" d="M 543.9 383.8 Q 543.9 381.7, 544.9 380.6 Q 545.9 379.5, 547.7 379.5 Q 549.5 379.5, 550.3 380.6 Q 551.1 381.7, 551.1 383.7 L 551.1 384.0 L 545.4 384.0 Q 545.4 385.4, 546.0 386.1 Q 546.7 386.8, 547.8 386.8 Q 548.5 386.8, 549.1 386.7 Q 549.7 386.5, 550.4 386.2 L 550.8 387.2 Q 550.0 387.6, 549.3 387.8 Q 548.5 388.0, 547.8 388.0 Q 545.9 388.0, 544.9 386.9 Q 543.9 385.8, 543.9 383.8 M 547.7 380.7 Q 546.8 380.7, 546.2 381.2 Q 545.6 381.8, 545.5 382.8 L 549.5 382.8 Q 549.4 381.7, 549.0 381.2 Q 548.5 380.7, 547.7 380.7 " fill="#000000"/>
<path class="legend" d="M 556.0 379.5 Q 557.3 379.5, 558.0 380.3 Q 558.7 381.0, 558.7 382.4 L 558.7 387.9 L 557.2 387.9 L 557.2 382.6 Q 557.2 381.6, 556.8 381.2 Q 556.5 380.7, 555.6 380.7 Q 554.9 380.7, 554.3 381.1 Q 553.6 381.4, 553.2 382.0 L 553.2 387.9 L 551.7 387.9 L 551.7 379.7 L 553.0 379.7 L 553.1 380.8 Q 554.3 379.5, 556.0 379.5 " fill="#000000"/>
<path class="legend" d="M 560.0 380.8 L 560.0 379.7 L 561.5 379.7 L 561.8 377.3 L 562.9 377.3 L 562.9 379.7 L 565.4 379.7 L 565.4 380.8 L 562.9 380.8 L 562.9 385.4 Q 562.9 386.8, 564.1 386.8 Q 564.6 386.8, 565.3 386.6 L 565.5 387.6 Q 564.7 388.0, 563.8 388.0 Q 562.8 388.0, 562.1 387.3 Q 561.4 386.7, 561.4 385.4 L 561.4 380.8 L 560.0 380.8 " fill="#000000"/>
<path class="legend" d="M 574.1 388.7 L 574.1 390.0 L 565.9 390.0 L 565.9 388.7 L 574.1 388.7 " fill="#000000"/>
<path class="legend" d="M 581.6 375.7 L 581.6 387.9 L 580.4 387.9 L 580.2 386.9 Q 579.2 388.0, 577.7 388.0 Q 576.0 388.0, 575.1 387.0 Q 574.1 385.9, 574.1 383.9 Q 574.1 381.8, 575.2 380.7 Q 576.4 379.5, 578.3 379.5 Q 579.2 379.5, 580.1 379.7 L 580.1 375.7 L 581.6 375.7 M 577.8 386.8 Q 578.7 386.8, 579.2 386.4 Q 579.9 385.9, 580.1 385.1 L 580.1 380.9 Q 579.3 380.7, 578.3 380.7 Q 577.1 380.7, 576.4 381.6 Q 575.6 382.4, 575.6 383.9 Q 575.6 385.3, 576.2 386.1 Q 576.8 386.8, 577.8 386.8 " fill="#000000"/>
<path class="legend" d="M 582.9 376.6 L 584.3 376.6 L 584.3 378.0 L 582.9 378.0 L 582.9 376.6 M 582.9 379.7 L 584.3 379.7 L 584.3 387.9 L 582.9 387.9 L 582.9 379.7 " fill="#000000"/>
<path class="legend" d="M 586.2 386.2 Q 586.9 386.5, 587.4 386.6 Q 587.9 386.8, 588.5 386.8 Q 589.2 386.8, 589.6 386.5 Q 590.0 386.2, 590.0 385.6 Q 590.0 385.2, 589.8 385.0 Q 589.6 384.8, 589.3 384.6 Q 589.1 384.5, 588.3 384.3 Q 588.2 384.3, 587.5 384.0 Q 586.8 383.7, 586.4 383.2 Q 586.0 382.7, 586.0 381.9 Q 586.0 380.9, 586.7 380.2 Q 587.5 379.5, 589.0 379.5 Q 589.6 379.5, 590.2 379.7 Q 590.7 379.8, 591.3 380.0 L 590.9 381.2 Q 590.4 381.0, 589.9 380.9 Q 589.5 380.8, 589.0 380.8 Q 588.3 380.8, 587.9 381.1 Q 587.5 381.4, 587.5 381.8 Q 587.5 382.3, 587.8 382.5 Q 588.1 382.7, 588.8 383.0 Q 588.9 383.0, 589.1 383.1 L 589.5 383.2 Q 590.1 383.4, 590.5 383.7 Q 591.0 383.9, 591.2 384.4 Q 591.5 384.8, 591.5 385.6 Q 591.5 386.7, 590.7 387.4 Q 589.9 388.0, 588.5 388.0 Q 587.7 388.0, 587.1 387.9 Q 586.4 387.7, 585.7 387.4 L 586.2 386.2 " fill="#000000"/>
<path class="legend" d="M 592.4 380.8 L 592.4 379.7 L 593.9 379.7 L 594.2 377.3 L 595.3 377.3 L 595.3 379.7 L 597.8 379.7 L 597.8 380.8 L 595.3 380.8 L 595.3 385.4 Q 595.3 386.8, 596.5 386.8 Q 597.0 386.8, 597.7 386.6 L 598.0 387.6 Q 597.1 388.0, 596.3 388.0 Q 595.2 388.0, 594.5 387.3 Q 593.8 386.7, 593.8 385.4 L 593.8 380.8 L 592.4 380.8 " fill="#000000"/>
<path class="legend" d="" fill="#000000"/>
<path class="legend" d="M 603.7 380.9 L 611.0 380.9 L 611.0 382.1 L 603.7 382.1 L 603.7 380.9 M 603.7 384.4 L 611.0 384.4 L 611.0 385.5 L 603.7 385.5 L 603.7 384.4 " fill="#000000"/>
<path class="legend" d="" fill="#000000"/>
<path class="legend" d="M 622.0 388.0 Q 619.9 388.0, 618.8 386.5 Q 617.8 384.9, 617.8 382.2 Q 617.8 379.5, 618.8 378.0 Q 619.9 376.4, 622.0 376.4 Q 624.1 376.4, 625.1 378.0 Q 626.1 379.5, 626.1 382.2 Q 626.1 384.9, 625.1 386.5 Q 624.0 388.0, 622.0 388.0 M 622.0 386.7 Q 623.2 386.7, 623.8 385.6 Q 624.5 384.4, 624.5 382.2 Q 624.5 380.0, 623.8 378.8 Q 623.2 377.7, 622.0 377.7 Q 620.7 377.7, 620.1 378.8 Q 619.4 380.0, 619.4 382.2 Q 619.4 384.4, 620.1 385.6 Q 620.7 386.7, 622.0 386.7 " fill="#000000"/>
<path class="legend" d="M 627.1 386.3 L 628.7 386.3 L 628.7 387.9 L 627.1 387.9 L 627.1 386.3 " fill="#000000"/>
<path class="legend" d="M 633.9 380.8 Q 634.9 380.8, 635.7 381.2 Q 636.5 381.6, 637.0 382.4 Q 637.4 383.2, 637.4 384.3 Q 637.4 385.5, 636.9 386.3 Q 636.3 387.2, 635.4 387.6 Q 634.5 388.0, 633.4 388.0 Q 632.4 388.0, 631.4 387.6 Q 630.4 387.2, 629.8 386.5 L 630.7 385.5 Q 631.3 386.1, 632.0 386.4 Q 632.7 386.7, 633.4 386.7 Q 634.5 386.7, 635.1 386.1 Q 635.8 385.5, 635.8 384.3 Q 635.8 383.1, 635.1 382.6 Q 634.5 382.0, 633.3 382.0 Q 632.4 382.0, 631.3 382.4 L 630.4 382.0 L 630.9 376.6 L 636.7 376.6 L 636.6 377.8 L 632.2 377.8 L 631.9 381.2 Q 632.9 380.8, 633.9 380.8 " fill="#000000"/>
<path class="legend" d="M 642.4 388.0 Q 640.3 388.0, 639.2 386.5 Q 638.2 384.9, 638.2 382.2 Q 638.2 379.5, 639.2 378.0 Q 640.3 376.4, 642.4 376.4 Q 644.5 376.4, 645.5 378.0 Q 646.5 379.5, 646.5 382.2 Q 646.5 384.9, 645.5 386.5 Q 644.4 388.0, 642.4 388.0 M 642.4 386.7 Q 643.6 386.7, 644.2 385.6 Q 644.9 384.4, 644.9 382.2 Q 644.9 380.0, 644.2 378.8 Q 643.6 377.7, 642.4 377.7 Q 641.1 377.7, 640.5 378.8 Q 639.8 380.0, 639.8 382.2 Q 639.8 384.4, 640.5 385.6 Q 641.1 386.7, 642.4 386.7 " fill="#000000"/>
<path class="legend" d="M 651.3 376.4 Q 653.4 376.4, 654.4 377.8 Q 655.4 379.2, 655.4 381.9 Q 655.4 384.9, 654.1 386.5 Q 652.9 388.0, 650.5 388.0 Q 649.8 388.0, 649.2 387.9 Q 648.6 387.7, 648.0 387.4 L 648.6 386.3 Q 649.4 386.7, 650.5 386.7 Q 652.1 386.7, 652.9 385.7 Q 653.7 384.7, 653.8 382.5 Q 653.2 383.1, 652.5 383.4 Q 651.7 383.6, 651.0 383.6 Q 650.0 383.6, 649.2 383.2 Q 648.4 382.8, 648.0 382.0 Q 647.5 381.2, 647.5 380.2 Q 647.5 379.1, 648.0 378.3 Q 648.5 377.4, 649.4 376.9 Q 650.2 376.4, 651.3 376.4 M 649.1 380.2 Q 649.1 381.2, 649.7 381.8 Q 650.3 382.4, 651.3 382.4 Q 651.9 382.4, 652.6 382.1 Q 653.3 381.8, 653.8 381.3 Q 653.7 379.4, 653.1 378.6 Q 652.5 377.7, 651.3 377.7 Q 650.7 377.7, 650.2 378.1 Q 649.7 378.4, 649.4 378.9 Q 649.1 379.5, 649.1 380.2 " fill="#000000"/>
<path class="legend" d="M 657.1 386.6 L 659.6 386.6 L 659.6 378.1 L 656.9 379.0 L 656.5 378.0 L 660.0 376.5 L 661.1 376.7 L 661.1 386.6 L 663.3 386.6 L 663.3 387.9 L 657.1 387.9 L 657.1 386.6 " fill="#000000"/>
<path class="bond-0 atom-0 atom-1" d="M 873.5,249.8 L 899.1,229.3" style="fill:none;fill-rule:evenodd;stroke:#000000;stroke-width:2.0px;stroke-linecap:butt;stroke-linejoin:miter;stroke-opacity:1"/>
<path class="bond-0 atom-0 atom-1" d="M 877.6,254.9 L 903.2,234.4" style="fill:none;fill-rule:evenodd;stroke:#000000;stroke-width:2.0px;stroke-linecap:butt;stroke-linejoin:miter;stroke-opacity:1"/>
<path class="bond-1 atom-1 atom-2" d="M 901.1,231.8 L 931.7,243.7" style="fill:none;fill-rule:evenodd;stroke:#000000;stroke-width:2.0px;stroke-linecap:butt;stroke-linejoin:miter;stroke-opacity:1"/>
<path class="bond-2 atom-2 atom-3" d="M 931.7,243.7 L 957.3,223.1" style="fill:none;fill-rule:evenodd;stroke:#000000;stroke-width:2.0px;stroke-linecap:butt;stroke-linejoin:miter;stroke-opacity:1"/>
<path class="bond-3 atom-3 atom-4" d="M 957.3,223.1 L 952.3,190.7" style="fill:none;fill-rule:evenodd;stroke:#000000;stroke-width:2.0px;stroke-linecap:butt;stroke-linejoin:miter;stroke-opacity:1"/>
<path class="bond-3 atom-3 atom-4" d="M 963.0,217.3 L 959.5,194.6" style="fill:none;fill-rule:evenodd;stroke:#000000;stroke-width:2.0px;stroke-linecap:butt;stroke-linejoin:miter;stroke-opacity:1"/>
<path class="bond-4 atom-4 atom-5" d="M 952.3,190.7 L 939.3,185.7" style="fill:none;fill-rule:evenodd;stroke:#000000;stroke-width:2.0px;stroke-linecap:butt;stroke-linejoin:miter;stroke-opacity:1"/>
<path class="bond-4 atom-4 atom-5" d="M 939.3,185.7 L 926.3,180.6" style="fill:none;fill-rule:evenodd;stroke:#0000FF;stroke-width:2.0px;stroke-linecap:butt;stroke-linejoin:miter;stroke-opacity:1"/>
<path class="bond-5 atom-5 atom-6" d="M 920.8,173.1 L 918.7,159.8" style="fill:none;fill-rule:evenodd;stroke:#0000FF;stroke-width:2.0px;stroke-linecap:butt;stroke-linejoin:miter;stroke-opacity:1"/>
<path class="bond-5 atom-5 atom-6" d="M 918.7,159.8 L 916.7,146.4" style="fill:none;fill-rule:evenodd;stroke:#000000;stroke-width:2.0px;stroke-linecap:butt;stroke-linejoin:miter;stroke-opacity:1"/>
<path class="bond-6 atom-6 atom-7" d="M 914.6,143.9 L 924.7,135.7" style="fill:none;fill-rule:evenodd;stroke:#000000;stroke-width:2.0px;stroke-linecap:butt;stroke-linejoin:miter;stroke-opacity:1"/>
<path class="bond-6 atom-6 atom-7" d="M 924.7,135.7 L 934.8,127.6" style="fill:none;fill-rule:evenodd;stroke:#FF0000;stroke-width:2.0px;stroke-linecap:butt;stroke-linejoin:miter;stroke-opacity:1"/>
<path class="bond-6 atom-6 atom-7" d="M 918.7,149.0 L 928.8,140.9" style="fill:none;fill-rule:evenodd;stroke:#000000;stroke-width:2.0px;stroke-linecap:butt;stroke-linejoin:miter;stroke-opacity:1"/>
<path class="bond-6 atom-6 atom-7" d="M 928.8,140.9 L 939.0,132.7" style="fill:none;fill-rule:evenodd;stroke:#FF0000;stroke-width:2.0px;stroke-linecap:butt;stroke-linejoin:miter;stroke-opacity:1"/>
<path class="bond-7 atom-6 atom-8" d="M 916.7,146.4 L 904.1,141.5" style="fill:none;fill-rule:evenodd;stroke:#000000;stroke-width:2.0px;stroke-linecap:butt;stroke-linejoin:miter;stroke-opacity:1"/>
<path class="bond-7 atom-6 atom-8" d="M 904.1,141.5 L 891.4,136.6" style="fill:none;fill-rule:evenodd;stroke:#FF0000;stroke-width:2.0px;stroke-linecap:butt;stroke-linejoin:miter;stroke-opacity:1"/>
<path class="bond-8 atom-8 atom-9" d="M 885.2,128.8 L 883.1,115.5" style="fill:none;fill-rule:evenodd;stroke:#FF0000;stroke-width:2.0px;stroke-linecap:butt;stroke-linejoin:miter;stroke-opacity:1"/>
<path class="bond-8 atom-8 atom-9" d="M 883.1,115.5 L 881.1,102.1" style="fill:none;fill-rule:evenodd;stroke:#000000;stroke-width:2.0px;stroke-linecap:butt;stroke-linejoin:miter;stroke-opacity:1"/>
<path class="bond-9 atom-9 atom-10" d="M 881.1,102.1 L 848.6,107.2" style="fill:none;fill-rule:evenodd;stroke:#000000;stroke-width:2.0px;stroke-linecap:butt;stroke-linejoin:miter;stroke-opacity:1"/>
<path class="bond-10 atom-9 atom-11" d="M 881.1,102.1 L 913.5,97.1" style="fill:none;fill-rule:evenodd;stroke:#000000;stroke-width:2.0px;stroke-linecap:butt;stroke-linejoin:miter;stroke-opacity:1"/>
<path class="bond-11 atom-9 atom-12" d="M 881.1,102.1 L 876.1,69.7" style="fill:none;fill-rule:evenodd;stroke:#000000;stroke-width:2.0px;stroke-linecap:butt;stroke-linejoin:miter;stroke-opacity:1"/>
<path class="bond-12 atom-4 atom-13" d="M 952.3,190.7 L 977.9,170.2" style="fill:none;fill-rule:evenodd;stroke:#000000;stroke-width:2.0px;stroke-linecap:butt;stroke-linejoin:miter;stroke-opacity:1"/>
<path class="bond-13 atom-13 atom-14" d="M 977.9,170.2 L 1008.4,182.0" style="fill:none;fill-rule:evenodd;stroke:#000000;stroke-width:2.0px;stroke-linecap:butt;stroke-linejoin:miter;stroke-opacity:1"/>
<path class="bond-13 atom-13 atom-14" d="M 980.1,178.1 L 1001.5,186.4" style="fill:none;fill-rule:evenodd;stroke:#000000;stroke-width:2.0px;stroke-linecap:butt;stroke-linejoin:miter;stroke-opacity:1"/>
<path class="bond-14 atom-14 atom-15" d="M 1008.4,182.0 L 1018.6,173.9" style="fill:none;fill-rule:evenodd;stroke:#000000;stroke-width:2.0px;stroke-linecap:butt;stroke-linejoin:miter;stroke-opacity:1"/>
<path class="bond-14 atom-14 atom-15" d="M 1018.6,173.9 L 1028.7,165.8" style="fill:none;fill-rule:evenodd;stroke:#FF0000;stroke-width:2.0px;stroke-linecap:butt;stroke-linejoin:miter;stroke-opacity:1"/>
<path class="bond-15 atom-15 atom-16" d="M 1033.1,155.7 L 1031.1,142.4" style="fill:none;fill-rule:evenodd;stroke:#FF0000;stroke-width:2.0px;stroke-linecap:butt;stroke-linejoin:miter;stroke-opacity:1"/>
<path class="bond-15 atom-15 atom-16" d="M 1031.1,142.4 L 1029.0,129.0" style="fill:none;fill-rule:evenodd;stroke:#000000;stroke-width:2.0px;stroke-linecap:butt;stroke-linejoin:miter;stroke-opacity:1"/>
<path class="bond-16 atom-16 atom-17" d="M 1029.0,129.0 L 1054.6,108.5" style="fill:none;fill-rule:evenodd;stroke:#000000;stroke-width:2.0px;stroke-linecap:butt;stroke-linejoin:miter;stroke-opacity:1"/>
<path class="bond-17 atom-17 atom-18" d="M 1054.6,108.5 L 1085.2,120.3" style="fill:none;fill-rule:evenodd;stroke:#000000;stroke-width:2.0px;stroke-linecap:butt;stroke-linejoin:miter;stroke-opacity:1"/>
<path class="bond-17 atom-17 atom-18" d="M 1061.5,104.1 L 1082.9,112.5" style="fill:none;fill-rule:evenodd;stroke:#000000;stroke-width:2.0px;stroke-linecap:butt;stroke-linejoin:miter;stroke-opacity:1"/>
<path class="bond-18 atom-18 atom-19" d="M 1085.2,120.3 L 1110.7,99.8" style="fill:none;fill-rule:evenodd;stroke:#000000;stroke-width:2.0px;stroke-linecap:butt;stroke-linejoin:miter;stroke-opacity:1"/>
<path class="bond-19 atom-19 atom-20" d="M 1110.7,99.8 L 1105.7,67.4" style="fill:none;fill-rule:evenodd;stroke:#000000;stroke-width:2.0px;stroke-linecap:butt;stroke-linejoin:miter;stroke-opacity:1"/>
<path class="bond-19 atom-19 atom-20" d="M 1103.5,95.9 L 1100.0,73.2" style="fill:none;fill-rule:evenodd;stroke:#000000;stroke-width:2.0px;stroke-linecap:butt;stroke-linejoin:miter;stroke-opacity:1"/>
<path class="bond-20 atom-20 atom-21" d="M 1105.7,67.4 L 1075.1,55.5" style="fill:none;fill-rule:evenodd;stroke:#000000;stroke-width:2.0px;stroke-linecap:butt;stroke-linejoin:miter;stroke-opacity:1"/>
<path class="bond-21 atom-21 atom-22" d="M 1075.1,55.5 L 1049.6,76.1" style="fill:none;fill-rule:evenodd;stroke:#000000;stroke-width:2.0px;stroke-linecap:butt;stroke-linejoin:miter;stroke-opacity:1"/>
<path class="bond-21 atom-21 atom-22" d="M 1075.4,63.7 L 1057.5,78.1" style="fill:none;fill-rule:evenodd;stroke:#000000;stroke-width:2.0px;stroke-linecap:butt;stroke-linejoin:miter;stroke-opacity:1"/>
<path class="bond-22 atom-14 atom-23" d="M 1008.4,182.0 L 1013.5,214.4" style="fill:none;fill-rule:evenodd;stroke:#000000;stroke-width:2.0px;stroke-linecap:butt;stroke-linejoin:miter;stroke-opacity:1"/>
<path class="bond-23 atom-23 atom-24" d="M 1013.5,214.4 L 1026.5,219.5" style="fill:none;fill-rule:evenodd;stroke:#000000;stroke-width:2.0px;stroke-linecap:butt;stroke-linejoin:miter;stroke-opacity:1"/>
<path class="bond-23 atom-23 atom-24" d="M 1026.5,219.5 L 1039.4,224.5" style="fill:none;fill-rule:evenodd;stroke:#0000FF;stroke-width:2.0px;stroke-linecap:butt;stroke-linejoin:miter;stroke-opacity:1"/>
<path class="bond-24 atom-24 atom-25" d="M 1048.7,222.6 L 1059.1,214.2" style="fill:none;fill-rule:evenodd;stroke:#0000FF;stroke-width:2.0px;stroke-linecap:butt;stroke-linejoin:miter;stroke-opacity:1"/>
<path class="bond-24 atom-24 atom-25" d="M 1059.1,214.2 L 1069.6,205.8" style="fill:none;fill-rule:evenodd;stroke:#000000;stroke-width:2.0px;stroke-linecap:butt;stroke-linejoin:miter;stroke-opacity:1"/>
<path class="bond-25 atom-25 atom-26" d="M 1066.4,206.3 L 1064.3,193.0" style="fill:none;fill-rule:evenodd;stroke:#000000;stroke-width:2.0px;stroke-linecap:butt;stroke-linejoin:miter;stroke-opacity:1"/>
<path class="bond-25 atom-25 atom-26" d="M 1064.3,193.0 L 1062.3,179.8" style="fill:none;fill-rule:evenodd;stroke:#FF0000;stroke-width:2.0px;stroke-linecap:butt;stroke-linejoin:miter;stroke-opacity:1"/>
<path class="bond-25 atom-25 atom-26" d="M 1072.9,205.3 L 1070.8,192.0" style="fill:none;fill-rule:evenodd;stroke:#000000;stroke-width:2.0px;stroke-linecap:butt;stroke-linejoin:miter;stroke-opacity:1"/>
<path class="bond-25 atom-25 atom-26" d="M 1070.8,192.0 L 1068.8,178.8" style="fill:none;fill-rule:evenodd;stroke:#FF0000;stroke-width:2.0px;stroke-linecap:butt;stroke-linejoin:miter;stroke-opacity:1"/>
<path class="bond-26 atom-25 atom-27" d="M 1069.6,205.8 L 1082.2,210.7" style="fill:none;fill-rule:evenodd;stroke:#000000;stroke-width:2.0px;stroke-linecap:butt;stroke-linejoin:miter;stroke-opacity:1"/>
<path class="bond-26 atom-25 atom-27" d="M 1082.2,210.7 L 1094.9,215.5" style="fill:none;fill-rule:evenodd;stroke:#FF0000;stroke-width:2.0px;stroke-linecap:butt;stroke-linejoin:miter;stroke-opacity:1"/>
<path class="bond-27 atom-27 atom-28" d="M 1105.6,213.3 L 1115.7,205.2" style="fill:none;fill-rule:evenodd;stroke:#FF0000;stroke-width:2.0px;stroke-linecap:butt;stroke-linejoin:miter;stroke-opacity:1"/>
<path class="bond-27 atom-27 atom-28" d="M 1115.7,205.2 L 1125.8,197.1" style="fill:none;fill-rule:evenodd;stroke:#000000;stroke-width:2.0px;stroke-linecap:butt;stroke-linejoin:miter;stroke-opacity:1"/>
<path class="bond-28 atom-28 atom-29" d="M 1125.8,197.1 L 1146.3,222.6" style="fill:none;fill-rule:evenodd;stroke:#000000;stroke-width:2.0px;stroke-linecap:butt;stroke-linejoin:miter;stroke-opacity:1"/>
<path class="bond-29 atom-28 atom-30" d="M 1125.8,197.1 L 1105.2,171.5" style="fill:none;fill-rule:evenodd;stroke:#000000;stroke-width:2.0px;stroke-linecap:butt;stroke-linejoin:miter;stroke-opacity:1"/>
<path class="bond-30 atom-28 atom-31" d="M 1125.8,197.1 L 1151.4,176.5" style="fill:none;fill-rule:evenodd;stroke:#000000;stroke-width:2.0px;stroke-linecap:butt;stroke-linejoin:miter;stroke-opacity:1"/>
<path class="bond-31 atom-23 atom-32" d="M 1013.5,214.4 L 987.9,235.0" style="fill:none;fill-rule:evenodd;stroke:#000000;stroke-width:2.0px;stroke-linecap:butt;stroke-linejoin:miter;stroke-opacity:1"/>
<path class="bond-31 atom-23 atom-32" d="M 1005.5,212.4 L 987.6,226.8" style="fill:none;fill-rule:evenodd;stroke:#000000;stroke-width:2.0px;stroke-linecap:butt;stroke-linejoin:miter;stroke-opacity:1"/>
<path class="bond-32 atom-32 atom-33" d="M 987.9,235.0 L 992.9,267.4" style="fill:none;fill-rule:evenodd;stroke:#000000;stroke-width:2.0px;stroke-linecap:butt;stroke-linejoin:miter;stroke-opacity:1"/>
<path class="bond-33 atom-33 atom-34" d="M 992.9,267.4 L 995.0,280.8" style="fill:none;fill-rule:evenodd;stroke:#000000;stroke-width:2.0px;stroke-linecap:butt;stroke-linejoin:miter;stroke-opacity:1"/>
<path class="bond-33 atom-33 atom-34" d="M 995.0,280.8 L 997.0,294.1" style="fill:none;fill-rule:evenodd;stroke:#0000FF;stroke-width:2.0px;stroke-linecap:butt;stroke-linejoin:miter;stroke-opacity:1"/>
<path class="bond-33 atom-33 atom-34" d="M 1000.0,270.4 L 1001.8,281.8" style="fill:none;fill-rule:evenodd;stroke:#000000;stroke-width:2.0px;stroke-linecap:butt;stroke-linejoin:miter;stroke-opacity:1"/>
<path class="bond-33 atom-33 atom-34" d="M 1001.8,281.8 L 1003.5,293.1" style="fill:none;fill-rule:evenodd;stroke:#0000FF;stroke-width:2.0px;stroke-linecap:butt;stroke-linejoin:miter;stroke-opacity:1"/>
<path class="bond-33 atom-33 atom-34" d="M 987.0,272.4 L 988.8,283.8" style="fill:none;fill-rule:evenodd;stroke:#000000;stroke-width:2.0px;stroke-linecap:butt;stroke-linejoin:miter;stroke-opacity:1"/>
<path class="bond-33 atom-33 atom-34" d="M 988.8,283.8 L 990.6,295.1" style="fill:none;fill-rule:evenodd;stroke:#0000FF;stroke-width:2.0px;stroke-linecap:butt;stroke-linejoin:miter;stroke-opacity:1"/>
<path class="bond-34 atom-32 atom-3" d="M 987.9,235.0 L 957.3,223.1" style="fill:none;fill-rule:evenodd;stroke:#000000;stroke-width:2.0px;stroke-linecap:butt;stroke-linejoin:miter;stroke-opacity:1"/>
<path class="bond-35 atom-22 atom-17" d="M 1049.6,76.1 L 1054.6,108.5" style="fill:none;fill-rule:evenodd;stroke:#000000;stroke-width:2.0px;stroke-linecap:butt;stroke-linejoin:miter;stroke-opacity:1"/>
<path class="atom-5" d="M 909.8 174.2 L 911.0 174.2 L 911.0 178.2 L 915.8 178.2 L 915.8 174.2 L 917.1 174.2 L 917.1 183.5 L 915.8 183.5 L 915.8 179.2 L 911.0 179.2 L 911.0 183.5 L 909.8 183.5 L 909.8 174.2 " fill="#0000FF"/>
<path class="atom-5" d="M 919.6 174.2 L 922.7 179.1 Q 923.0 179.6, 923.5 180.5 Q 924.0 181.4, 924.0 181.4 L 924.0 174.2 L 925.2 174.2 L 925.2 183.5 L 923.9 183.5 L 920.7 178.1 Q 920.3 177.5, 919.9 176.8 Q 919.5 176.0, 919.4 175.8 L 919.4 183.5 L 918.2 183.5 L 918.2 174.2 L 919.6 174.2 " fill="#0000FF"/>
<path class="atom-7" d="M 938.0 125.9 Q 938.0 123.7, 939.1 122.4 Q 940.2 121.2, 942.2 121.2 Q 944.3 121.2, 945.4 122.4 Q 946.5 123.7, 946.5 125.9 Q 946.5 128.2, 945.4 129.4 Q 944.3 130.7, 942.2 130.7 Q 940.2 130.7, 939.1 129.4 Q 938.0 128.2, 938.0 125.9 M 942.2 129.7 Q 943.7 129.7, 944.4 128.7 Q 945.2 127.8, 945.2 125.9 Q 945.2 124.1, 944.4 123.1 Q 943.7 122.2, 942.2 122.2 Q 940.8 122.2, 940.1 123.1 Q 939.3 124.1, 939.3 125.9 Q 939.3 127.8, 940.1 128.7 Q 940.8 129.7, 942.2 129.7 " fill="#FF0000"/>
<path class="atom-8" d="M 881.8 134.6 Q 881.8 132.4, 882.9 131.1 Q 884.0 129.9, 886.1 129.9 Q 888.1 129.9, 889.3 131.1 Q 890.4 132.4, 890.4 134.6 Q 890.4 136.8, 889.2 138.1 Q 888.1 139.4, 886.1 139.4 Q 884.0 139.4, 882.9 138.1 Q 881.8 136.9, 881.8 134.6 M 886.1 138.4 Q 887.5 138.4, 888.3 137.4 Q 889.0 136.4, 889.0 134.6 Q 889.0 132.8, 888.3 131.8 Q 887.5 130.9, 886.1 130.9 Q 884.7 130.9, 883.9 131.8 Q 883.1 132.7, 883.1 134.6 Q 883.1 136.5, 883.9 137.4 Q 884.7 138.4, 886.1 138.4 " fill="#FF0000"/>
<path class="atom-15" d="M 1029.8 161.5 Q 1029.8 159.3, 1030.9 158.0 Q 1032.0 156.8, 1034.0 156.8 Q 1036.1 156.8, 1037.2 158.0 Q 1038.3 159.3, 1038.3 161.5 Q 1038.3 163.7, 1037.2 165.0 Q 1036.0 166.3, 1034.0 166.3 Q 1032.0 166.3, 1030.9 165.0 Q 1029.8 163.8, 1029.8 161.5 M 1034.0 165.3 Q 1035.4 165.3, 1036.2 164.3 Q 1037.0 163.4, 1037.0 161.5 Q 1037.0 159.7, 1036.2 158.7 Q 1035.4 157.8, 1034.0 157.8 Q 1032.6 157.8, 1031.8 158.7 Q 1031.1 159.7, 1031.1 161.5 Q 1031.1 163.4, 1031.8 164.3 Q 1032.6 165.3, 1034.0 165.3 " fill="#FF0000"/>
<path class="atom-24" d="M 1042.0 221.7 L 1045.0 226.6 Q 1045.3 227.1, 1045.8 228.0 Q 1046.3 228.8, 1046.3 228.9 L 1046.3 221.7 L 1047.6 221.7 L 1047.6 231.0 L 1046.3 231.0 L 1043.0 225.6 Q 1042.7 224.9, 1042.2 224.2 Q 1041.9 223.5, 1041.7 223.3 L 1041.7 231.0 L 1040.5 231.0 L 1040.5 221.7 L 1042.0 221.7 " fill="#0000FF"/>
<path class="atom-24" d="M 1040.4 231.9 L 1041.7 231.9 L 1041.7 235.8 L 1046.4 235.8 L 1046.4 231.9 L 1047.7 231.9 L 1047.7 241.2 L 1046.4 241.2 L 1046.4 236.9 L 1041.7 236.9 L 1041.7 241.2 L 1040.4 241.2 L 1040.4 231.9 " fill="#0000FF"/>
<path class="atom-26" d="M 1060.3 173.4 Q 1060.3 171.1, 1061.4 169.9 Q 1062.5 168.6, 1064.6 168.6 Q 1066.7 168.6, 1067.8 169.9 Q 1068.9 171.1, 1068.9 173.4 Q 1068.9 175.6, 1067.8 176.9 Q 1066.6 178.2, 1064.6 178.2 Q 1062.6 178.2, 1061.4 176.9 Q 1060.3 175.6, 1060.3 173.4 M 1064.6 177.1 Q 1066.0 177.1, 1066.8 176.2 Q 1067.6 175.2, 1067.6 173.4 Q 1067.6 171.5, 1066.8 170.6 Q 1066.0 169.7, 1064.6 169.7 Q 1063.2 169.7, 1062.4 170.6 Q 1061.7 171.5, 1061.7 173.4 Q 1061.7 175.2, 1062.4 176.2 Q 1063.2 177.1, 1064.6 177.1 " fill="#FF0000"/>
<path class="atom-27" d="M 1095.9 217.6 Q 1095.9 215.4, 1097.0 214.2 Q 1098.2 212.9, 1100.2 212.9 Q 1102.3 212.9, 1103.4 214.2 Q 1104.5 215.4, 1104.5 217.6 Q 1104.5 219.9, 1103.4 221.2 Q 1102.2 222.5, 1100.2 222.5 Q 1098.2 222.5, 1097.0 221.2 Q 1095.9 219.9, 1095.9 217.6 M 1100.2 221.4 Q 1101.6 221.4, 1102.4 220.5 Q 1103.2 219.5, 1103.2 217.6 Q 1103.2 215.8, 1102.4 214.9 Q 1101.6 214.0, 1100.2 214.0 Q 1098.8 214.0, 1098.0 214.9 Q 1097.3 215.8, 1097.3 217.6 Q 1097.3 219.5, 1098.0 220.5 Q 1098.8 221.4, 1100.2 221.4 " fill="#FF0000"/>
<path class="atom-34" d="M 995.9 295.2 L 998.9 300.1 Q 999.2 300.6, 999.7 301.5 Q 1000.2 302.4, 1000.2 302.4 L 1000.2 295.2 L 1001.5 295.2 L 1001.5 304.5 L 1000.2 304.5 L 996.9 299.1 Q 996.5 298.5, 996.1 297.8 Q 995.7 297.0, 995.6 296.8 L 995.6 304.5 L 994.4 304.5 L 994.4 295.2 L 995.9 295.2 " fill="#0000FF"/>
<path class="legend" d="M 967.5 365.4 L 967.7 366.5 Q 968.5 365.3, 969.9 365.3 Q 970.4 365.3, 971.0 365.4 L 970.7 366.8 Q 970.1 366.6, 969.7 366.6 Q 969.0 366.6, 968.6 366.9 Q 968.1 367.1, 967.8 367.8 L 967.8 373.6 L 966.3 373.6 L 966.3 365.4 L 967.5 365.4 " fill="#000000"/>
<path class="legend" d="M 971.2 369.5 Q 971.2 367.5, 972.2 366.4 Q 973.2 365.3, 975.1 365.3 Q 976.9 365.3, 977.7 366.4 Q 978.5 367.4, 978.5 369.5 L 978.5 369.7 L 972.8 369.7 Q 972.8 371.1, 973.4 371.8 Q 974.0 372.6, 975.2 372.6 Q 975.8 372.6, 976.4 372.4 Q 977.0 372.3, 977.8 372.0 L 978.2 373.0 Q 977.4 373.4, 976.6 373.6 Q 975.9 373.8, 975.1 373.8 Q 973.3 373.8, 972.2 372.6 Q 971.2 371.5, 971.2 369.5 M 975.1 366.4 Q 974.1 366.4, 973.6 367.0 Q 973.0 367.5, 972.8 368.6 L 976.9 368.6 Q 976.8 367.5, 976.4 367.0 Q 975.9 366.4, 975.1 366.4 " fill="#000000"/>
<path class="legend" d="M 979.1 371.4 Q 979.1 370.1, 980.2 369.4 Q 981.2 368.7, 983.2 368.7 L 984.4 368.7 L 984.4 368.3 Q 984.4 367.3, 983.9 366.9 Q 983.5 366.4, 982.5 366.4 Q 981.8 366.4, 981.3 366.6 Q 980.8 366.7, 980.0 367.0 L 979.6 366.0 Q 981.1 365.3, 982.5 365.3 Q 984.3 365.3, 985.1 366.0 Q 985.9 366.8, 985.9 368.4 L 985.9 373.6 L 984.7 373.6 Q 984.7 373.6, 984.6 373.3 Q 984.6 373.1, 984.5 372.7 Q 983.4 373.8, 981.8 373.8 Q 980.6 373.8, 979.8 373.2 Q 979.1 372.5, 979.1 371.4 M 980.6 371.4 Q 980.6 372.0, 981.0 372.3 Q 981.4 372.6, 982.1 372.6 Q 982.7 372.6, 983.4 372.4 Q 984.0 372.0, 984.4 371.5 L 984.4 369.8 L 983.3 369.8 Q 981.9 369.8, 981.3 370.2 Q 980.6 370.6, 980.6 371.4 " fill="#000000"/>
<path class="legend" d="M 987.1 369.5 Q 987.1 367.5, 988.1 366.4 Q 989.1 365.3, 991.0 365.3 Q 992.9 365.3, 993.9 366.6 L 992.9 367.4 Q 992.5 366.9, 992.1 366.7 Q 991.6 366.4, 991.0 366.4 Q 989.9 366.4, 989.3 367.2 Q 988.6 368.0, 988.6 369.5 Q 988.6 371.0, 989.3 371.8 Q 989.9 372.6, 991.1 372.6 Q 991.8 372.6, 992.3 372.4 Q 992.7 372.3, 993.3 372.0 L 993.7 373.0 Q 992.6 373.7, 991.0 373.7 Q 989.1 373.7, 988.1 372.6 Q 987.1 371.5, 987.1 369.5 " fill="#000000"/>
<path class="legend" d="M 994.3 366.6 L 994.3 365.4 L 995.8 365.4 L 996.1 363.0 L 997.2 363.0 L 997.2 365.4 L 999.7 365.4 L 999.7 366.6 L 997.2 366.6 L 997.2 371.1 Q 997.2 372.5, 998.4 372.5 Q 998.9 372.5, 999.6 372.3 L 999.9 373.4 Q 999.0 373.7, 998.2 373.7 Q 997.1 373.7, 996.4 373.1 Q 995.7 372.4, 995.7 371.2 L 995.7 366.6 L 994.3 366.6 " fill="#000000"/>
<path class="legend" d="M 1008.4 374.4 L 1008.4 375.7 L 1000.3 375.7 L 1000.3 374.4 L 1008.4 374.4 " fill="#000000"/>
<path class="legend" d="M 1008.5 364.4 Q 1008.9 363.4, 1009.9 362.8 Q 1010.9 362.2, 1012.2 362.2 Q 1013.9 362.2, 1014.9 363.1 Q 1015.9 364.0, 1015.9 365.7 Q 1015.9 367.4, 1014.6 368.9 Q 1013.4 370.5, 1010.8 372.4 L 1016.1 372.4 L 1016.1 373.6 L 1008.4 373.6 L 1008.4 372.6 Q 1010.5 371.1, 1011.8 369.9 Q 1013.0 368.8, 1013.7 367.8 Q 1014.3 366.8, 1014.3 365.8 Q 1014.3 364.7, 1013.7 364.1 Q 1013.2 363.5, 1012.2 363.5 Q 1011.3 363.5, 1010.7 363.8 Q 1010.1 364.2, 1009.7 365.0 L 1008.5 364.4 " fill="#000000"/>
<path class="legend" d="M 1021.1 366.5 Q 1022.1 366.5, 1022.9 367.0 Q 1023.8 367.4, 1024.2 368.2 Q 1024.7 369.0, 1024.7 370.0 Q 1024.7 371.2, 1024.1 372.1 Q 1023.5 372.9, 1022.6 373.3 Q 1021.7 373.8, 1020.6 373.8 Q 1019.6 373.8, 1018.6 373.4 Q 1017.7 373.0, 1017.0 372.3 L 1018.0 371.3 Q 1018.5 371.8, 1019.2 372.2 Q 1019.9 372.5, 1020.7 372.5 Q 1021.7 372.5, 1022.4 371.8 Q 1023.1 371.2, 1023.1 370.1 Q 1023.1 368.9, 1022.4 368.3 Q 1021.7 367.7, 1020.6 367.7 Q 1019.6 367.7, 1018.5 368.2 L 1017.6 367.8 L 1018.2 362.3 L 1024.0 362.3 L 1023.8 363.6 L 1019.5 363.6 L 1019.1 366.9 Q 1020.1 366.5, 1021.1 366.5 " fill="#000000"/>
<path class="legend" d="M 1029.6 373.8 Q 1027.5 373.8, 1026.5 372.2 Q 1025.4 370.7, 1025.4 368.0 Q 1025.4 365.2, 1026.5 363.7 Q 1027.5 362.2, 1029.6 362.2 Q 1031.7 362.2, 1032.7 363.7 Q 1033.7 365.2, 1033.7 368.0 Q 1033.7 370.7, 1032.7 372.2 Q 1031.7 373.8, 1029.6 373.8 M 1029.6 372.5 Q 1030.8 372.5, 1031.5 371.3 Q 1032.1 370.2, 1032.1 368.0 Q 1032.1 365.7, 1031.5 364.6 Q 1030.8 363.5, 1029.6 363.5 Q 1028.4 363.5, 1027.7 364.6 Q 1027.0 365.7, 1027.0 368.0 Q 1027.0 370.2, 1027.7 371.3 Q 1028.4 372.5, 1029.6 372.5 " fill="#000000"/>
<path class="legend" d="M 937.3 383.8 Q 937.3 381.8, 938.3 380.7 Q 939.3 379.5, 941.2 379.5 Q 943.1 379.5, 944.1 380.9 L 943.1 381.6 Q 942.7 381.2, 942.3 380.9 Q 941.8 380.7, 941.2 380.7 Q 940.1 380.7, 939.5 381.5 Q 938.8 382.3, 938.8 383.8 Q 938.8 385.3, 939.5 386.1 Q 940.1 386.8, 941.3 386.8 Q 942.0 386.8, 942.5 386.7 Q 942.9 386.5, 943.5 386.3 L 943.9 387.3 Q 942.7 388.0, 941.2 388.0 Q 939.3 388.0, 938.3 386.9 Q 937.3 385.7, 937.3 383.8 " fill="#000000"/>
<path class="legend" d="M 944.5 383.8 Q 944.5 381.7, 945.5 380.6 Q 946.5 379.5, 948.3 379.5 Q 950.1 379.5, 950.9 380.6 Q 951.8 381.7, 951.8 383.7 L 951.8 384.0 L 946.0 384.0 Q 946.0 385.4, 946.7 386.1 Q 947.3 386.8, 948.5 386.8 Q 949.1 386.8, 949.7 386.7 Q 950.3 386.5, 951.0 386.2 L 951.4 387.2 Q 950.6 387.6, 949.9 387.8 Q 949.1 388.0, 948.4 388.0 Q 946.5 388.0, 945.5 386.9 Q 944.5 385.8, 944.5 383.8 M 948.3 380.7 Q 947.4 380.7, 946.8 381.2 Q 946.3 381.8, 946.1 382.8 L 950.2 382.8 Q 950.1 381.7, 949.6 381.2 Q 949.2 380.7, 948.3 380.7 " fill="#000000"/>
<path class="legend" d="M 956.7 379.5 Q 958.0 379.5, 958.7 380.3 Q 959.4 381.0, 959.4 382.4 L 959.4 387.9 L 957.9 387.9 L 957.9 382.6 Q 957.9 381.6, 957.5 381.2 Q 957.1 380.7, 956.3 380.7 Q 955.5 380.7, 954.9 381.1 Q 954.3 381.4, 953.9 382.0 L 953.9 387.9 L 952.4 387.9 L 952.4 379.7 L 953.6 379.7 L 953.8 380.8 Q 954.9 379.5, 956.7 379.5 " fill="#000000"/>
<path class="legend" d="M 960.6 380.8 L 960.6 379.7 L 962.2 379.7 L 962.4 377.3 L 963.5 377.3 L 963.5 379.7 L 966.0 379.7 L 966.0 380.8 L 963.5 380.8 L 963.5 385.4 Q 963.5 386.8, 964.7 386.8 Q 965.2 386.8, 965.9 386.6 L 966.2 387.6 Q 965.3 388.0, 964.5 388.0 Q 963.4 388.0, 962.7 387.3 Q 962.0 386.7, 962.0 385.4 L 962.0 380.8 L 960.6 380.8 " fill="#000000"/>
<path class="legend" d="M 974.7 388.7 L 974.7 390.0 L 966.6 390.0 L 966.6 388.7 L 974.7 388.7 " fill="#000000"/>
<path class="legend" d="M 982.2 375.7 L 982.2 387.9 L 981.0 387.9 L 980.8 386.9 Q 979.9 388.0, 978.3 388.0 Q 976.6 388.0, 975.7 387.0 Q 974.7 385.9, 974.7 383.9 Q 974.7 381.8, 975.9 380.7 Q 977.0 379.5, 979.0 379.5 Q 979.8 379.5, 980.7 379.7 L 980.7 375.7 L 982.2 375.7 M 978.4 386.8 Q 979.3 386.8, 979.9 386.4 Q 980.5 385.9, 980.7 385.1 L 980.7 380.9 Q 979.9 380.7, 979.0 380.7 Q 977.7 380.7, 977.0 381.6 Q 976.3 382.4, 976.3 383.9 Q 976.3 385.3, 976.8 386.1 Q 977.4 386.8, 978.4 386.8 " fill="#000000"/>
<path class="legend" d="M 983.5 376.6 L 985.0 376.6 L 985.0 378.0 L 983.5 378.0 L 983.5 376.6 M 983.5 379.7 L 985.0 379.7 L 985.0 387.9 L 983.5 387.9 L 983.5 379.7 " fill="#000000"/>
<path class="legend" d="M 986.8 386.2 Q 987.5 386.5, 988.0 386.6 Q 988.6 386.8, 989.1 386.8 Q 989.8 386.8, 990.2 386.5 Q 990.7 386.2, 990.7 385.6 Q 990.7 385.2, 990.4 385.0 Q 990.2 384.8, 989.9 384.6 Q 989.7 384.5, 989.0 384.3 Q 988.9 384.3, 988.1 384.0 Q 987.4 383.7, 987.0 383.2 Q 986.6 382.7, 986.6 381.9 Q 986.6 380.9, 987.4 380.2 Q 988.1 379.5, 989.6 379.5 Q 990.3 379.5, 990.8 379.7 Q 991.4 379.8, 992.0 380.0 L 991.6 381.2 Q 991.0 381.0, 990.6 380.9 Q 990.1 380.8, 989.6 380.8 Q 988.9 380.8, 988.5 381.1 Q 988.1 381.4, 988.1 381.8 Q 988.1 382.3, 988.4 382.5 Q 988.7 382.7, 989.4 383.0 Q 989.6 383.0, 989.7 383.1 L 990.1 383.2 Q 990.8 383.4, 991.2 383.7 Q 991.6 383.9, 991.9 384.4 Q 992.2 384.8, 992.2 385.6 Q 992.2 386.7, 991.3 387.4 Q 990.5 388.0, 989.1 388.0 Q 988.3 388.0, 987.7 387.9 Q 987.0 387.7, 986.3 387.4 L 986.8 386.2 " fill="#000000"/>
<path class="legend" d="M 993.0 380.8 L 993.0 379.7 L 994.6 379.7 L 994.8 377.3 L 995.9 377.3 L 995.9 379.7 L 998.5 379.7 L 998.5 380.8 L 995.9 380.8 L 995.9 385.4 Q 995.9 386.8, 997.1 386.8 Q 997.6 386.8, 998.3 386.6 L 998.6 387.6 Q 997.7 388.0, 996.9 388.0 Q 995.8 388.0, 995.1 387.3 Q 994.4 386.7, 994.4 385.4 L 994.4 380.8 L 993.0 380.8 " fill="#000000"/>
<path class="legend" d="" fill="#000000"/>
<path class="legend" d="M 1004.3 380.9 L 1011.6 380.9 L 1011.6 382.1 L 1004.3 382.1 L 1004.3 380.9 M 1004.3 384.4 L 1011.6 384.4 L 1011.6 385.5 L 1004.3 385.5 L 1004.3 384.4 " fill="#000000"/>
<path class="legend" d="" fill="#000000"/>
<path class="legend" d="M 1022.6 388.0 Q 1020.5 388.0, 1019.5 386.5 Q 1018.4 384.9, 1018.4 382.2 Q 1018.4 379.5, 1019.5 378.0 Q 1020.5 376.4, 1022.6 376.4 Q 1024.7 376.4, 1025.7 378.0 Q 1026.7 379.5, 1026.7 382.2 Q 1026.7 384.9, 1025.7 386.5 Q 1024.7 388.0, 1022.6 388.0 M 1022.6 386.7 Q 1023.8 386.7, 1024.5 385.6 Q 1025.1 384.4, 1025.1 382.2 Q 1025.1 380.0, 1024.5 378.8 Q 1023.8 377.7, 1022.6 377.7 Q 1021.4 377.7, 1020.7 378.8 Q 1020.0 380.0, 1020.0 382.2 Q 1020.0 384.4, 1020.7 385.6 Q 1021.4 386.7, 1022.6 386.7 " fill="#000000"/>
<path class="legend" d="M 1027.8 386.3 L 1029.4 386.3 L 1029.4 387.9 L 1027.8 387.9 L 1027.8 386.3 " fill="#000000"/>
<path class="legend" d="M 1034.8 380.8 Q 1035.8 380.8, 1036.6 381.2 Q 1037.4 381.7, 1037.8 382.5 Q 1038.3 383.2, 1038.3 384.2 Q 1038.3 385.3, 1037.8 386.2 Q 1037.3 387.1, 1036.4 387.5 Q 1035.6 388.0, 1034.5 388.0 Q 1032.4 388.0, 1031.4 386.7 Q 1030.4 385.3, 1030.4 382.6 Q 1030.4 379.6, 1031.7 378.0 Q 1032.9 376.4, 1035.3 376.4 Q 1036.0 376.4, 1036.6 376.6 Q 1037.2 376.8, 1037.8 377.1 L 1037.2 378.2 Q 1036.4 377.7, 1035.3 377.7 Q 1033.7 377.7, 1032.9 378.8 Q 1032.1 379.8, 1032.0 381.9 Q 1032.6 381.4, 1033.3 381.1 Q 1034.1 380.8, 1034.8 380.8 M 1034.5 386.7 Q 1035.1 386.7, 1035.6 386.4 Q 1036.1 386.1, 1036.4 385.5 Q 1036.7 384.9, 1036.7 384.3 Q 1036.7 383.2, 1036.1 382.7 Q 1035.5 382.1, 1034.5 382.1 Q 1033.9 382.1, 1033.2 382.4 Q 1032.5 382.7, 1032.0 383.1 Q 1032.1 385.0, 1032.7 385.9 Q 1033.3 386.7, 1034.5 386.7 " fill="#000000"/>
<path class="legend" d="M 1039.8 386.6 L 1042.2 386.6 L 1042.2 378.1 L 1039.5 379.0 L 1039.1 378.0 L 1042.6 376.5 L 1043.7 376.7 L 1043.7 386.6 L 1046.0 386.6 L 1046.0 387.9 L 1039.8 387.9 L 1039.8 386.6 " fill="#000000"/>
<path class="legend" d="M 1050.8 380.8 Q 1051.7 380.8, 1052.6 381.2 Q 1053.4 381.6, 1053.8 382.4 Q 1054.3 383.2, 1054.3 384.3 Q 1054.3 385.5, 1053.7 386.3 Q 1053.2 387.2, 1052.2 387.6 Q 1051.3 388.0, 1050.3 388.0 Q 1049.2 388.0, 1048.3 387.6 Q 1047.3 387.2, 1046.6 386.5 L 1047.6 385.5 Q 1048.1 386.1, 1048.9 386.4 Q 1049.6 386.7, 1050.3 386.7 Q 1051.3 386.7, 1052.0 386.1 Q 1052.7 385.5, 1052.7 384.3 Q 1052.7 383.1, 1052.0 382.6 Q 1051.3 382.0, 1050.2 382.0 Q 1049.2 382.0, 1048.1 382.4 L 1047.2 382.0 L 1047.8 376.6 L 1053.6 376.6 L 1053.4 377.8 L 1049.1 377.8 L 1048.8 381.2 Q 1049.8 380.8, 1050.8 380.8 " fill="#000000"/>
<path class="legend" d="M 1060.5 381.9 Q 1061.6 382.2, 1062.1 383.0 Q 1062.7 383.7, 1062.7 384.8 Q 1062.7 385.7, 1062.2 386.5 Q 1061.7 387.2, 1060.9 387.6 Q 1060.0 388.0, 1058.8 388.0 Q 1057.6 388.0, 1056.7 387.6 Q 1055.8 387.2, 1055.1 386.3 L 1056.0 385.4 Q 1056.7 386.2, 1057.3 386.5 Q 1057.9 386.8, 1058.8 386.8 Q 1059.8 386.8, 1060.5 386.2 Q 1061.1 385.7, 1061.1 384.8 Q 1061.1 383.6, 1060.4 383.1 Q 1059.8 382.6, 1058.4 382.6 L 1057.6 382.6 L 1057.6 381.4 L 1058.3 381.4 Q 1059.5 381.4, 1060.2 380.9 Q 1060.9 380.3, 1060.9 379.3 Q 1060.9 378.6, 1060.3 378.2 Q 1059.8 377.7, 1058.8 377.7 Q 1057.9 377.7, 1057.3 378.0 Q 1056.7 378.4, 1056.3 379.2 L 1055.2 378.6 Q 1055.6 377.7, 1056.5 377.1 Q 1057.5 376.4, 1058.8 376.4 Q 1060.5 376.4, 1061.5 377.2 Q 1062.5 378.0, 1062.5 379.3 Q 1062.5 380.2, 1062.0 380.9 Q 1061.5 381.6, 1060.5 381.9 " fill="#000000"/>
</svg>