<svg xmlns="http://www.w3.org/2000/svg" xmlns:rdkit="http://www.rdkit.org/xml" xmlns:xlink="http://www.w3.org/1999/xlink" version="1.1" baseProfile="full" xml:space="preserve" width="2000px" height="400px" viewBox="0 0 2000 400">
<!-- END OF HEADER -->
<rect style="opacity:1.0;fill:#FFFFFF;stroke:none" width="2000.0" height="400.0" x="0.0" y="0.0"> </rect>
<path class="bond-0 atom-0 atom-1" d="M 70.5,145.5 L 72.9,195.3" style="fill:none;fill-rule:evenodd;stroke:#000000;stroke-width:2.0px;stroke-linecap:butt;stroke-linejoin:miter;stroke-opacity:1"/>
<path class="bond-0 atom-0 atom-1" d="M 60.5,146.0 L 63.0,195.8" style="fill:none;fill-rule:evenodd;stroke:#000000;stroke-width:2.0px;stroke-linecap:butt;stroke-linejoin:miter;stroke-opacity:1"/>
<path class="bond-1 atom-1 atom-2" d="M 68.0,195.5 L 112.3,218.3" style="fill:none;fill-rule:evenodd;stroke:#000000;stroke-width:2.0px;stroke-linecap:butt;stroke-linejoin:miter;stroke-opacity:1"/>
<path class="bond-2 atom-2 atom-3" d="M 112.3,218.3 L 119.9,267.5" style="fill:none;fill-rule:evenodd;stroke:#000000;stroke-width:2.0px;stroke-linecap:butt;stroke-linejoin:miter;stroke-opacity:1"/>
<path class="bond-2 atom-2 atom-3" d="M 123.3,224.1 L 128.6,258.6" style="fill:none;fill-rule:evenodd;stroke:#000000;stroke-width:2.0px;stroke-linecap:butt;stroke-linejoin:miter;stroke-opacity:1"/>
<path class="bond-3 atom-3 atom-4" d="M 119.9,267.5 L 169.1,275.4" style="fill:none;fill-rule:evenodd;stroke:#000000;stroke-width:2.0px;stroke-linecap:butt;stroke-linejoin:miter;stroke-opacity:1"/>
<path class="bond-4 atom-4 atom-5" d="M 169.1,275.4 L 191.8,231.1" style="fill:none;fill-rule:evenodd;stroke:#000000;stroke-width:2.0px;stroke-linecap:butt;stroke-linejoin:miter;stroke-opacity:1"/>
<path class="bond-4 atom-4 atom-5" d="M 163.6,264.2 L 179.6,233.2" style="fill:none;fill-rule:evenodd;stroke:#000000;stroke-width:2.0px;stroke-linecap:butt;stroke-linejoin:miter;stroke-opacity:1"/>
<path class="bond-5 atom-5 atom-6" d="M 191.8,231.1 L 241.1,223.4" style="fill:none;fill-rule:evenodd;stroke:#000000;stroke-width:2.0px;stroke-linecap:butt;stroke-linejoin:miter;stroke-opacity:1"/>
<path class="bond-6 atom-6 atom-7" d="M 241.1,223.4 L 272.3,262.2" style="fill:none;fill-rule:evenodd;stroke:#000000;stroke-width:2.0px;stroke-linecap:butt;stroke-linejoin:miter;stroke-opacity:1"/>
<path class="bond-6 atom-6 atom-7" d="M 253.5,223.0 L 275.4,250.2" style="fill:none;fill-rule:evenodd;stroke:#000000;stroke-width:2.0px;stroke-linecap:butt;stroke-linejoin:miter;stroke-opacity:1"/>
<path class="bond-7 atom-7 atom-8" d="M 272.3,262.2 L 321.5,254.6" style="fill:none;fill-rule:evenodd;stroke:#000000;stroke-width:2.0px;stroke-linecap:butt;stroke-linejoin:miter;stroke-opacity:1"/>
<path class="bond-8 atom-8 atom-9" d="M 321.5,254.6 L 339.5,208.1" style="fill:none;fill-rule:evenodd;stroke:#000000;stroke-width:2.0px;stroke-linecap:butt;stroke-linejoin:miter;stroke-opacity:1"/>
<path class="bond-8 atom-8 atom-9" d="M 314.9,244.0 L 327.5,211.5" style="fill:none;fill-rule:evenodd;stroke:#000000;stroke-width:2.0px;stroke-linecap:butt;stroke-linejoin:miter;stroke-opacity:1"/>
<path class="bond-9 atom-9 atom-10" d="M 339.5,208.1 L 308.3,169.3" style="fill:none;fill-rule:evenodd;stroke:#000000;stroke-width:2.0px;stroke-linecap:butt;stroke-linejoin:miter;stroke-opacity:1"/>
<path class="bond-10 atom-10 atom-11" d="M 308.3,169.3 L 259.0,177.0" style="fill:none;fill-rule:evenodd;stroke:#000000;stroke-width:2.0px;stroke-linecap:butt;stroke-linejoin:miter;stroke-opacity:1"/>
<path class="bond-10 atom-10 atom-11" d="M 302.4,180.3 L 267.9,185.7" style="fill:none;fill-rule:evenodd;stroke:#000000;stroke-width:2.0px;stroke-linecap:butt;stroke-linejoin:miter;stroke-opacity:1"/>
<path class="bond-11 atom-11 atom-12" d="M 259.0,177.0 L 227.8,138.2" style="fill:none;fill-rule:evenodd;stroke:#000000;stroke-width:2.0px;stroke-linecap:butt;stroke-linejoin:miter;stroke-opacity:1"/>
<path class="bond-12 atom-12 atom-13" d="M 227.8,138.2 L 235.0,119.5" style="fill:none;fill-rule:evenodd;stroke:#000000;stroke-width:2.0px;stroke-linecap:butt;stroke-linejoin:miter;stroke-opacity:1"/>
<path class="bond-12 atom-12 atom-13" d="M 235.0,119.5 L 242.3,100.7" style="fill:none;fill-rule:evenodd;stroke:#FF0000;stroke-width:2.0px;stroke-linecap:butt;stroke-linejoin:miter;stroke-opacity:1"/>
<path class="bond-13 atom-5 atom-14" d="M 191.8,231.1 L 178.3,217.5" style="fill:none;fill-rule:evenodd;stroke:#000000;stroke-width:2.0px;stroke-linecap:butt;stroke-linejoin:miter;stroke-opacity:1"/>
<path class="bond-13 atom-5 atom-14" d="M 178.3,217.5 L 164.8,203.9" style="fill:none;fill-rule:evenodd;stroke:#FF0000;stroke-width:2.0px;stroke-linecap:butt;stroke-linejoin:miter;stroke-opacity:1"/>
<path class="bond-14 atom-14 atom-2" d="M 148.6,199.9 L 130.4,209.1" style="fill:none;fill-rule:evenodd;stroke:#FF0000;stroke-width:2.0px;stroke-linecap:butt;stroke-linejoin:miter;stroke-opacity:1"/>
<path class="bond-14 atom-14 atom-2" d="M 130.4,209.1 L 112.3,218.3" style="fill:none;fill-rule:evenodd;stroke:#000000;stroke-width:2.0px;stroke-linecap:butt;stroke-linejoin:miter;stroke-opacity:1"/>
<path class="bond-15 atom-11 atom-6" d="M 259.0,177.0 L 241.1,223.4" style="fill:none;fill-rule:evenodd;stroke:#000000;stroke-width:2.0px;stroke-linecap:butt;stroke-linejoin:miter;stroke-opacity:1"/>
<path class="atom-13" d="M 239.3 91.8 Q 239.3 88.4, 241.0 86.5 Q 242.6 84.6, 245.8 84.6 Q 248.9 84.6, 250.6 86.5 Q 252.3 88.4, 252.3 91.8 Q 252.3 95.2, 250.6 97.2 Q 248.9 99.1, 245.8 99.1 Q 242.7 99.1, 241.0 97.2 Q 239.3 95.2, 239.3 91.8 M 245.8 97.5 Q 247.9 97.5, 249.1 96.1 Q 250.3 94.6, 250.3 91.8 Q 250.3 89.0, 249.1 87.6 Q 247.9 86.2, 245.8 86.2 Q 243.6 86.2, 242.5 87.6 Q 241.3 89.0, 241.3 91.8 Q 241.3 94.6, 242.5 96.1 Q 243.6 97.5, 245.8 97.5 " fill="#FF0000"/>
<path class="atom-13" d="M 253.2 84.8 L 255.2 84.8 L 255.2 90.8 L 262.4 90.8 L 262.4 84.8 L 264.3 84.8 L 264.3 98.9 L 262.4 98.9 L 262.4 92.4 L 255.2 92.4 L 255.2 98.9 L 253.2 98.9 L 253.2 84.8 " fill="#FF0000"/>
<path class="atom-14" d="M 150.2 195.8 Q 150.2 192.4, 151.9 190.5 Q 153.6 188.6, 156.7 188.6 Q 159.8 188.6, 161.5 190.5 Q 163.2 192.4, 163.2 195.8 Q 163.2 199.2, 161.5 201.2 Q 159.8 203.1, 156.7 203.1 Q 153.6 203.1, 151.9 201.2 Q 150.2 199.3, 150.2 195.8 M 156.7 201.5 Q 158.9 201.5, 160.0 200.1 Q 161.2 198.6, 161.2 195.8 Q 161.2 193.0, 160.0 191.6 Q 158.9 190.2, 156.7 190.2 Q 154.6 190.2, 153.4 191.6 Q 152.2 193.0, 152.2 195.8 Q 152.2 198.7, 153.4 200.1 Q 154.6 201.5, 156.7 201.5 " fill="#FF0000"/>
<path class="legend" d="M 171.3 365.4 L 171.5 366.5 Q 172.3 365.3, 173.8 365.3 Q 174.2 365.3, 174.8 365.4 L 174.6 366.8 Q 173.9 366.6, 173.5 366.6 Q 172.8 366.6, 172.4 366.9 Q 171.9 367.1, 171.6 367.8 L 171.6 373.6 L 170.1 373.6 L 170.1 365.4 L 171.3 365.4 " fill="#000000"/>
<path class="legend" d="M 175.0 369.5 Q 175.0 367.5, 176.1 366.4 Q 177.1 365.3, 178.9 365.3 Q 180.7 365.3, 181.5 366.4 Q 182.3 367.4, 182.3 369.5 L 182.3 369.7 L 176.6 369.7 Q 176.6 371.1, 177.2 371.8 Q 177.9 372.6, 179.0 372.6 Q 179.7 372.6, 180.3 372.4 Q 180.9 372.3, 181.6 372.0 L 182.0 373.0 Q 181.2 373.4, 180.5 373.6 Q 179.7 373.8, 179.0 373.8 Q 177.1 373.8, 176.1 372.6 Q 175.0 371.5, 175.0 369.5 M 178.9 366.4 Q 178.0 366.4, 177.4 367.0 Q 176.8 367.5, 176.6 368.6 L 180.7 368.6 Q 180.6 367.5, 180.2 367.0 Q 179.7 366.4, 178.9 366.4 " fill="#000000"/>
<path class="legend" d="M 182.9 371.4 Q 182.9 370.1, 184.0 369.4 Q 185.0 368.7, 187.0 368.7 L 188.2 368.7 L 188.2 368.3 Q 188.2 367.3, 187.8 366.9 Q 187.4 366.4, 186.3 366.4 Q 185.7 366.4, 185.2 366.6 Q 184.6 366.7, 183.8 367.0 L 183.4 366.0 Q 184.9 365.3, 186.4 365.3 Q 188.1 365.3, 188.9 366.0 Q 189.7 366.8, 189.7 368.4 L 189.7 373.6 L 188.5 373.6 Q 188.5 373.6, 188.5 373.3 Q 188.4 373.1, 188.3 372.7 Q 187.2 373.8, 185.6 373.8 Q 184.4 373.8, 183.7 373.2 Q 182.9 372.5, 182.9 371.4 M 184.4 371.4 Q 184.4 372.0, 184.8 372.3 Q 185.2 372.6, 185.9 372.6 Q 186.6 372.6, 187.2 372.4 Q 187.8 372.0, 188.2 371.5 L 188.2 369.8 L 187.1 369.8 Q 185.8 369.8, 185.1 370.2 Q 184.4 370.6, 184.4 371.4 " fill="#000000"/>
<path class="legend" d="M 190.9 369.5 Q 190.9 367.5, 191.9 366.4 Q 192.9 365.3, 194.9 365.3 Q 196.7 365.3, 197.7 366.6 L 196.7 367.4 Q 196.3 366.9, 195.9 366.7 Q 195.4 366.4, 194.9 366.4 Q 193.7 366.4, 193.1 367.2 Q 192.5 368.0, 192.5 369.5 Q 192.5 371.0, 193.1 371.8 Q 193.8 372.6, 195.0 372.6 Q 195.6 372.6, 196.1 372.4 Q 196.6 372.3, 197.1 372.0 L 197.6 373.0 Q 196.4 373.7, 194.9 373.7 Q 192.9 373.7, 191.9 372.6 Q 190.9 371.5, 190.9 369.5 " fill="#000000"/>
<path class="legend" d="M 198.1 366.6 L 198.1 365.4 L 199.7 365.4 L 199.9 363.0 L 201.0 363.0 L 201.0 365.4 L 203.6 365.4 L 203.6 366.6 L 201.0 366.6 L 201.0 371.1 Q 201.0 372.5, 202.2 372.5 Q 202.7 372.5, 203.4 372.3 L 203.7 373.4 Q 202.8 373.7, 202.0 373.7 Q 200.9 373.7, 200.2 373.1 Q 199.5 372.4, 199.5 371.2 L 199.5 366.6 L 198.1 366.6 " fill="#000000"/>
<path class="legend" d="M 212.2 374.4 L 212.2 375.7 L 204.1 375.7 L 204.1 374.4 L 212.2 374.4 " fill="#000000"/>
<path class="legend" d="M 216.1 362.2 Q 218.1 362.2, 219.1 363.6 Q 220.1 364.9, 220.1 367.6 Q 220.1 370.6, 218.8 372.2 Q 217.6 373.8, 215.2 373.8 Q 214.5 373.8, 213.9 373.6 Q 213.3 373.4, 212.7 373.1 L 213.3 372.0 Q 214.2 372.5, 215.2 372.5 Q 216.8 372.5, 217.6 371.5 Q 218.4 370.4, 218.5 368.3 Q 217.9 368.8, 217.2 369.1 Q 216.5 369.4, 215.7 369.4 Q 214.7 369.4, 213.9 368.9 Q 213.1 368.5, 212.7 367.7 Q 212.2 366.9, 212.2 366.0 Q 212.2 364.8, 212.7 364.0 Q 213.2 363.1, 214.1 362.7 Q 215.0 362.2, 216.1 362.2 M 213.8 365.9 Q 213.8 366.9, 214.4 367.5 Q 215.0 368.1, 216.0 368.1 Q 216.6 368.1, 217.3 367.8 Q 218.0 367.5, 218.5 367.1 Q 218.4 365.2, 217.8 364.3 Q 217.2 363.5, 216.0 363.5 Q 215.4 363.5, 214.9 363.8 Q 214.4 364.1, 214.1 364.7 Q 213.8 365.2, 213.8 365.9 " fill="#000000"/>
<path class="legend" d="M 228.6 369.7 L 229.9 369.7 L 229.9 371.0 L 228.6 371.0 L 228.6 373.6 L 227.0 373.6 L 227.0 371.0 L 221.2 371.0 L 221.2 370.0 L 226.2 362.3 L 228.6 362.3 L 228.6 369.7 M 223.0 369.7 L 227.0 369.7 L 227.0 363.3 L 223.0 369.7 " fill="#000000"/>
<path class="legend" d="M 136.4 383.8 Q 136.4 381.8, 137.4 380.7 Q 138.4 379.5, 140.3 379.5 Q 142.2 379.5, 143.2 380.9 L 142.1 381.6 Q 141.8 381.2, 141.3 380.9 Q 140.9 380.7, 140.3 380.7 Q 139.2 380.7, 138.5 381.5 Q 137.9 382.3, 137.9 383.8 Q 137.9 385.3, 138.5 386.1 Q 139.2 386.8, 140.4 386.8 Q 141.1 386.8, 141.5 386.7 Q 142.0 386.5, 142.6 386.3 L 143.0 387.3 Q 141.8 388.0, 140.3 388.0 Q 138.4 388.0, 137.4 386.9 Q 136.4 385.7, 136.4 383.8 " fill="#000000"/>
<path class="legend" d="M 143.5 383.8 Q 143.5 381.7, 144.5 380.6 Q 145.6 379.5, 147.4 379.5 Q 149.2 379.5, 150.0 380.6 Q 150.8 381.7, 150.8 383.7 L 150.8 384.0 L 145.1 384.0 Q 145.1 385.4, 145.7 386.1 Q 146.4 386.8, 147.5 386.8 Q 148.2 386.8, 148.8 386.7 Q 149.3 386.5, 150.1 386.2 L 150.5 387.2 Q 149.7 387.6, 148.9 387.8 Q 148.2 388.0, 147.4 388.0 Q 145.6 388.0, 144.6 386.9 Q 143.5 385.8, 143.5 383.8 M 147.4 380.7 Q 146.5 380.7, 145.9 381.2 Q 145.3 381.8, 145.1 382.8 L 149.2 382.8 Q 149.1 381.7, 148.7 381.2 Q 148.2 380.7, 147.4 380.7 " fill="#000000"/>
<path class="legend" d="M 155.7 379.5 Q 157.0 379.5, 157.7 380.3 Q 158.4 381.0, 158.4 382.4 L 158.4 387.9 L 156.9 387.9 L 156.9 382.6 Q 156.9 381.6, 156.5 381.2 Q 156.2 380.7, 155.3 380.7 Q 154.6 380.7, 154.0 381.1 Q 153.3 381.4, 152.9 382.0 L 152.9 387.9 L 151.4 387.9 L 151.4 379.7 L 152.7 379.7 L 152.8 380.8 Q 153.9 379.5, 155.7 379.5 " fill="#000000"/>
<path class="legend" d="M 159.7 380.8 L 159.7 379.7 L 161.2 379.7 L 161.5 377.3 L 162.6 377.3 L 162.6 379.7 L 165.1 379.7 L 165.1 380.8 L 162.6 380.8 L 162.6 385.4 Q 162.6 386.8, 163.8 386.8 Q 164.3 386.8, 165.0 386.6 L 165.2 387.6 Q 164.4 388.0, 163.5 388.0 Q 162.5 388.0, 161.8 387.3 Q 161.1 386.7, 161.1 385.4 L 161.1 380.8 L 159.7 380.8 " fill="#000000"/>
<path class="legend" d="M 173.8 388.7 L 173.8 390.0 L 165.6 390.0 L 165.6 388.7 L 173.8 388.7 " fill="#000000"/>
<path class="legend" d="M 181.3 375.7 L 181.3 387.9 L 180.1 387.9 L 179.8 386.9 Q 178.9 388.0, 177.4 388.0 Q 175.7 388.0, 174.7 387.0 Q 173.8 385.9, 173.8 383.9 Q 173.8 381.8, 174.9 380.7 Q 176.1 379.5, 178.0 379.5 Q 178.9 379.5, 179.8 379.7 L 179.8 375.7 L 181.3 375.7 M 177.5 386.8 Q 178.3 386.8, 178.9 386.4 Q 179.5 385.9, 179.8 385.1 L 179.8 380.9 Q 178.9 380.7, 178.0 380.7 Q 176.8 380.7, 176.1 381.6 Q 175.3 382.4, 175.3 383.9 Q 175.3 385.3, 175.9 386.1 Q 176.5 386.8, 177.5 386.8 " fill="#000000"/>
<path class="legend" d="M 182.5 376.6 L 184.0 376.6 L 184.0 378.0 L 182.5 378.0 L 182.5 376.6 M 182.5 379.7 L 184.0 379.7 L 184.0 387.9 L 182.5 387.9 L 182.5 379.7 " fill="#000000"/>
<path class="legend" d="M 185.9 386.2 Q 186.6 386.5, 187.1 386.6 Q 187.6 386.8, 188.2 386.8 Q 188.9 386.8, 189.3 386.5 Q 189.7 386.2, 189.7 385.6 Q 189.7 385.2, 189.5 385.0 Q 189.3 384.8, 189.0 384.6 Q 188.8 384.5, 188.0 384.3 Q 187.9 384.3, 187.2 384.0 Q 186.5 383.7, 186.1 383.2 Q 185.7 382.7, 185.7 381.9 Q 185.7 380.9, 186.4 380.2 Q 187.2 379.5, 188.7 379.5 Q 189.3 379.5, 189.9 379.7 Q 190.4 379.8, 191.0 380.0 L 190.6 381.2 Q 190.1 381.0, 189.6 380.9 Q 189.2 380.8, 188.7 380.8 Q 187.9 380.8, 187.6 381.1 Q 187.2 381.4, 187.2 381.8 Q 187.2 382.3, 187.5 382.5 Q 187.8 382.7, 188.5 383.0 Q 188.6 383.0, 188.8 383.1 L 189.2 383.2 Q 189.8 383.4, 190.2 383.7 Q 190.6 383.9, 190.9 384.4 Q 191.2 384.8, 191.2 385.6 Q 191.2 386.7, 190.4 387.4 Q 189.5 388.0, 188.2 388.0 Q 187.4 388.0, 186.7 387.9 Q 186.1 387.7, 185.4 387.4 L 185.9 386.2 " fill="#000000"/>
<path class="legend" d="M 192.1 380.8 L 192.1 379.7 L 193.6 379.7 L 193.9 377.3 L 195.0 377.3 L 195.0 379.7 L 197.5 379.7 L 197.5 380.8 L 195.0 380.8 L 195.0 385.4 Q 195.0 386.8, 196.2 386.8 Q 196.7 386.8, 197.4 386.6 L 197.7 387.6 Q 196.8 388.0, 195.9 388.0 Q 194.9 388.0, 194.2 387.3 Q 193.5 386.7, 193.5 385.4 L 193.5 380.8 L 192.1 380.8 " fill="#000000"/>
<path class="legend" d="" fill="#000000"/>
<path class="legend" d="M 203.4 380.9 L 210.7 380.9 L 210.7 382.1 L 203.4 382.1 L 203.4 380.9 M 203.4 384.4 L 210.7 384.4 L 210.7 385.5 L 203.4 385.5 L 203.4 384.4 " fill="#000000"/>
<path class="legend" d="" fill="#000000"/>
<path class="legend" d="M 221.6 388.0 Q 219.6 388.0, 218.5 386.5 Q 217.5 384.9, 217.5 382.2 Q 217.5 379.5, 218.5 378.0 Q 219.5 376.4, 221.6 376.4 Q 223.7 376.4, 224.8 378.0 Q 225.8 379.5, 225.8 382.2 Q 225.8 384.9, 224.7 386.5 Q 223.7 388.0, 221.6 388.0 M 221.6 386.7 Q 222.9 386.7, 223.5 385.6 Q 224.2 384.4, 224.2 382.2 Q 224.2 380.0, 223.5 378.8 Q 222.9 377.7, 221.6 377.7 Q 220.4 377.7, 219.8 378.8 Q 219.1 380.0, 219.1 382.2 Q 219.1 384.4, 219.8 385.6 Q 220.4 386.7, 221.6 386.7 " fill="#000000"/>
<path class="legend" d="M 226.8 386.3 L 228.4 386.3 L 228.4 387.9 L 226.8 387.9 L 226.8 386.3 " fill="#000000"/>
<path class="legend" d="M 234.9 381.9 Q 236.0 382.2, 236.5 383.0 Q 237.1 383.7, 237.1 384.8 Q 237.1 385.7, 236.6 386.5 Q 236.1 387.2, 235.2 387.6 Q 234.4 388.0, 233.2 388.0 Q 232.0 388.0, 231.1 387.6 Q 230.2 387.2, 229.5 386.3 L 230.4 385.4 Q 231.1 386.2, 231.7 386.5 Q 232.3 386.8, 233.2 386.8 Q 234.2 386.8, 234.9 386.2 Q 235.5 385.7, 235.5 384.8 Q 235.5 383.6, 234.8 383.1 Q 234.2 382.6, 232.8 382.6 L 232.0 382.6 L 232.0 381.4 L 232.7 381.4 Q 233.9 381.4, 234.6 380.9 Q 235.2 380.3, 235.2 379.3 Q 235.2 378.6, 234.7 378.2 Q 234.2 377.7, 233.2 377.7 Q 232.3 377.7, 231.7 378.0 Q 231.1 378.4, 230.7 379.2 L 229.6 378.6 Q 230.0 377.7, 230.9 377.1 Q 231.9 376.4, 233.2 376.4 Q 234.9 376.4, 235.9 377.2 Q 236.8 378.0, 236.8 379.3 Q 236.8 380.2, 236.3 380.9 Q 235.9 381.6, 234.9 381.9 " fill="#000000"/>
<path class="legend" d="M 243.8 381.9 Q 244.8 382.3, 245.4 383.0 Q 246.0 383.7, 246.0 384.8 Q 246.0 385.7, 245.5 386.5 Q 245.0 387.2, 244.1 387.6 Q 243.3 388.0, 242.1 388.0 Q 240.2 388.0, 239.1 387.2 Q 238.0 386.3, 238.0 384.8 Q 238.0 383.9, 238.5 383.2 Q 239.0 382.5, 240.0 381.9 Q 239.2 381.5, 238.8 380.9 Q 238.4 380.3, 238.4 379.3 Q 238.4 378.0, 239.4 377.2 Q 240.4 376.4, 242.0 376.4 Q 243.7 376.4, 244.6 377.2 Q 245.6 378.0, 245.6 379.3 Q 245.6 380.2, 245.1 380.8 Q 244.7 381.4, 243.8 381.9 M 242.0 377.6 Q 241.1 377.6, 240.6 378.1 Q 240.0 378.5, 240.0 379.3 Q 240.0 379.9, 240.4 380.3 Q 240.7 380.7, 241.2 380.9 Q 241.8 381.2, 242.7 381.5 Q 243.4 381.0, 243.7 380.5 Q 244.0 380.0, 244.0 379.3 Q 244.0 378.5, 243.5 378.1 Q 243.0 377.6, 242.0 377.6 M 242.1 386.8 Q 243.1 386.8, 243.8 386.3 Q 244.4 385.7, 244.4 384.8 Q 244.4 384.2, 244.1 383.8 Q 243.8 383.4, 243.2 383.2 Q 242.7 382.9, 241.9 382.7 L 241.1 382.4 Q 240.3 382.9, 240.0 383.5 Q 239.6 384.0, 239.6 384.8 Q 239.6 385.7, 240.3 386.3 Q 241.0 386.8, 242.1 386.8 " fill="#000000"/>
<path class="legend" d="M 251.5 380.8 Q 252.5 380.8, 253.2 381.2 Q 254.0 381.7, 254.5 382.5 Q 254.9 383.2, 254.9 384.2 Q 254.9 385.3, 254.4 386.2 Q 253.9 387.1, 253.1 387.5 Q 252.2 388.0, 251.1 388.0 Q 249.1 388.0, 248.0 386.7 Q 247.0 385.3, 247.0 382.6 Q 247.0 379.6, 248.3 378.0 Q 249.5 376.4, 252.0 376.4 Q 252.7 376.4, 253.3 376.6 Q 253.9 376.8, 254.4 377.1 L 253.8 378.2 Q 253.0 377.7, 252.0 377.7 Q 250.4 377.7, 249.6 378.8 Q 248.7 379.8, 248.7 381.9 Q 249.2 381.4, 249.9 381.1 Q 250.7 380.8, 251.5 380.8 M 251.1 386.7 Q 251.7 386.7, 252.2 386.4 Q 252.7 386.1, 253.0 385.5 Q 253.3 384.9, 253.3 384.3 Q 253.3 383.2, 252.7 382.7 Q 252.2 382.1, 251.2 382.1 Q 250.5 382.1, 249.8 382.4 Q 249.1 382.7, 248.7 383.1 Q 248.7 385.0, 249.3 385.9 Q 249.9 386.7, 251.1 386.7 " fill="#000000"/>
<path class="legend" d="M 259.6 376.4 Q 261.6 376.4, 262.6 377.8 Q 263.6 379.2, 263.6 381.9 Q 263.6 384.9, 262.4 386.5 Q 261.1 388.0, 258.7 388.0 Q 258.0 388.0, 257.4 387.9 Q 256.8 387.7, 256.2 387.4 L 256.8 386.3 Q 257.7 386.7, 258.7 386.7 Q 260.3 386.7, 261.1 385.7 Q 261.9 384.7, 262.0 382.5 Q 261.4 383.1, 260.7 383.4 Q 260.0 383.6, 259.2 383.6 Q 258.2 383.6, 257.4 383.2 Q 256.6 382.8, 256.2 382.0 Q 255.8 381.2, 255.8 380.2 Q 255.8 379.1, 256.3 378.3 Q 256.7 377.4, 257.6 376.9 Q 258.5 376.4, 259.6 376.4 M 257.4 380.2 Q 257.4 381.2, 257.9 381.8 Q 258.5 382.4, 259.5 382.4 Q 260.2 382.4, 260.8 382.1 Q 261.5 381.8, 262.0 381.3 Q 261.9 379.4, 261.4 378.6 Q 260.8 377.7, 259.6 377.7 Q 259.0 377.7, 258.4 378.1 Q 257.9 378.4, 257.7 378.9 Q 257.4 379.5, 257.4 380.2 " fill="#000000"/>
<path class="bond-0 atom-0 atom-1" d="M 428.1,125.6 L 433.0,175.2" style="fill:none;fill-rule:evenodd;stroke:#000000;stroke-width:2.0px;stroke-linecap:butt;stroke-linejoin:miter;stroke-opacity:1"/>
<path class="bond-0 atom-0 atom-1" d="M 418.2,126.6 L 423.1,176.2" style="fill:none;fill-rule:evenodd;stroke:#000000;stroke-width:2.0px;stroke-linecap:butt;stroke-linejoin:miter;stroke-opacity:1"/>
<path class="bond-1 atom-1 atom-2" d="M 428.1,175.7 L 473.5,196.2" style="fill:none;fill-rule:evenodd;stroke:#000000;stroke-width:2.0px;stroke-linecap:butt;stroke-linejoin:miter;stroke-opacity:1"/>
<path class="bond-2 atom-2 atom-3" d="M 473.5,196.2 L 483.6,244.9" style="fill:none;fill-rule:evenodd;stroke:#000000;stroke-width:2.0px;stroke-linecap:butt;stroke-linejoin:miter;stroke-opacity:1"/>
<path class="bond-2 atom-2 atom-3" d="M 484.8,201.5 L 491.8,235.6" style="fill:none;fill-rule:evenodd;stroke:#000000;stroke-width:2.0px;stroke-linecap:butt;stroke-linejoin:miter;stroke-opacity:1"/>
<path class="bond-3 atom-3 atom-4" d="M 483.6,244.9 L 533.1,250.4" style="fill:none;fill-rule:evenodd;stroke:#000000;stroke-width:2.0px;stroke-linecap:butt;stroke-linejoin:miter;stroke-opacity:1"/>
<path class="bond-4 atom-4 atom-5" d="M 533.1,250.4 L 553.6,205.0" style="fill:none;fill-rule:evenodd;stroke:#000000;stroke-width:2.0px;stroke-linecap:butt;stroke-linejoin:miter;stroke-opacity:1"/>
<path class="bond-4 atom-4 atom-5" d="M 527.1,239.5 L 541.4,207.7" style="fill:none;fill-rule:evenodd;stroke:#000000;stroke-width:2.0px;stroke-linecap:butt;stroke-linejoin:miter;stroke-opacity:1"/>
<path class="bond-5 atom-5 atom-6" d="M 553.6,205.0 L 602.4,194.9" style="fill:none;fill-rule:evenodd;stroke:#000000;stroke-width:2.0px;stroke-linecap:butt;stroke-linejoin:miter;stroke-opacity:1"/>
<path class="bond-6 atom-6 atom-7" d="M 602.4,194.9 L 635.5,232.1" style="fill:none;fill-rule:evenodd;stroke:#000000;stroke-width:2.0px;stroke-linecap:butt;stroke-linejoin:miter;stroke-opacity:1"/>
<path class="bond-6 atom-6 atom-7" d="M 614.8,193.9 L 638.0,219.9" style="fill:none;fill-rule:evenodd;stroke:#000000;stroke-width:2.0px;stroke-linecap:butt;stroke-linejoin:miter;stroke-opacity:1"/>
<path class="bond-7 atom-7 atom-8" d="M 635.5,232.1 L 619.9,279.4" style="fill:none;fill-rule:evenodd;stroke:#000000;stroke-width:2.0px;stroke-linecap:butt;stroke-linejoin:miter;stroke-opacity:1"/>
<path class="bond-8 atom-8 atom-9" d="M 619.9,279.4 L 599.5,283.6" style="fill:none;fill-rule:evenodd;stroke:#000000;stroke-width:2.0px;stroke-linecap:butt;stroke-linejoin:miter;stroke-opacity:1"/>
<path class="bond-8 atom-8 atom-9" d="M 599.5,283.6 L 579.2,287.8" style="fill:none;fill-rule:evenodd;stroke:#FF0000;stroke-width:2.0px;stroke-linecap:butt;stroke-linejoin:miter;stroke-opacity:1"/>
<path class="bond-9 atom-7 atom-10" d="M 635.5,232.1 L 684.3,222.0" style="fill:none;fill-rule:evenodd;stroke:#000000;stroke-width:2.0px;stroke-linecap:butt;stroke-linejoin:miter;stroke-opacity:1"/>
<path class="bond-10 atom-10 atom-11" d="M 684.3,222.0 L 699.9,174.7" style="fill:none;fill-rule:evenodd;stroke:#000000;stroke-width:2.0px;stroke-linecap:butt;stroke-linejoin:miter;stroke-opacity:1"/>
<path class="bond-10 atom-10 atom-11" d="M 677.2,211.8 L 688.1,178.7" style="fill:none;fill-rule:evenodd;stroke:#000000;stroke-width:2.0px;stroke-linecap:butt;stroke-linejoin:miter;stroke-opacity:1"/>
<path class="bond-11 atom-11 atom-12" d="M 699.9,174.7 L 720.2,170.5" style="fill:none;fill-rule:evenodd;stroke:#000000;stroke-width:2.0px;stroke-linecap:butt;stroke-linejoin:miter;stroke-opacity:1"/>
<path class="bond-11 atom-11 atom-12" d="M 720.2,170.5 L 740.6,166.3" style="fill:none;fill-rule:evenodd;stroke:#FF0000;stroke-width:2.0px;stroke-linecap:butt;stroke-linejoin:miter;stroke-opacity:1"/>
<path class="bond-12 atom-12 atom-13" d="M 756.7,173.6 L 769.3,187.7" style="fill:none;fill-rule:evenodd;stroke:#FF0000;stroke-width:2.0px;stroke-linecap:butt;stroke-linejoin:miter;stroke-opacity:1"/>
<path class="bond-12 atom-12 atom-13" d="M 769.3,187.7 L 781.8,201.8" style="fill:none;fill-rule:evenodd;stroke:#000000;stroke-width:2.0px;stroke-linecap:butt;stroke-linejoin:miter;stroke-opacity:1"/>
<path class="bond-13 atom-11 atom-14" d="M 699.9,174.7 L 666.8,137.5" style="fill:none;fill-rule:evenodd;stroke:#000000;stroke-width:2.0px;stroke-linecap:butt;stroke-linejoin:miter;stroke-opacity:1"/>
<path class="bond-14 atom-14 atom-15" d="M 666.8,137.5 L 618.0,147.6" style="fill:none;fill-rule:evenodd;stroke:#000000;stroke-width:2.0px;stroke-linecap:butt;stroke-linejoin:miter;stroke-opacity:1"/>
<path class="bond-14 atom-14 atom-15" d="M 661.5,148.8 L 627.3,155.9" style="fill:none;fill-rule:evenodd;stroke:#000000;stroke-width:2.0px;stroke-linecap:butt;stroke-linejoin:miter;stroke-opacity:1"/>
<path class="bond-15 atom-15 atom-16" d="M 618.0,147.6 L 605.4,133.5" style="fill:none;fill-rule:evenodd;stroke:#000000;stroke-width:2.0px;stroke-linecap:butt;stroke-linejoin:miter;stroke-opacity:1"/>
<path class="bond-15 atom-15 atom-16" d="M 605.4,133.5 L 592.9,119.4" style="fill:none;fill-rule:evenodd;stroke:#FF0000;stroke-width:2.0px;stroke-linecap:butt;stroke-linejoin:miter;stroke-opacity:1"/>
<path class="bond-16 atom-16 atom-17" d="M 587.8,101.7 L 594.1,82.4" style="fill:none;fill-rule:evenodd;stroke:#FF0000;stroke-width:2.0px;stroke-linecap:butt;stroke-linejoin:miter;stroke-opacity:1"/>
<path class="bond-16 atom-16 atom-17" d="M 594.1,82.4 L 600.5,63.1" style="fill:none;fill-rule:evenodd;stroke:#000000;stroke-width:2.0px;stroke-linecap:butt;stroke-linejoin:miter;stroke-opacity:1"/>
<path class="bond-17 atom-5 atom-18" d="M 553.6,205.0 L 539.2,192.0" style="fill:none;fill-rule:evenodd;stroke:#000000;stroke-width:2.0px;stroke-linecap:butt;stroke-linejoin:miter;stroke-opacity:1"/>
<path class="bond-17 atom-5 atom-18" d="M 539.2,192.0 L 524.9,178.9" style="fill:none;fill-rule:evenodd;stroke:#FF0000;stroke-width:2.0px;stroke-linecap:butt;stroke-linejoin:miter;stroke-opacity:1"/>
<path class="bond-18 atom-18 atom-2" d="M 508.6,176.1 L 491.1,186.2" style="fill:none;fill-rule:evenodd;stroke:#FF0000;stroke-width:2.0px;stroke-linecap:butt;stroke-linejoin:miter;stroke-opacity:1"/>
<path class="bond-18 atom-18 atom-2" d="M 491.1,186.2 L 473.5,196.2" style="fill:none;fill-rule:evenodd;stroke:#000000;stroke-width:2.0px;stroke-linecap:butt;stroke-linejoin:miter;stroke-opacity:1"/>
<path class="bond-19 atom-15 atom-6" d="M 618.0,147.6 L 602.4,194.9" style="fill:none;fill-rule:evenodd;stroke:#000000;stroke-width:2.0px;stroke-linecap:butt;stroke-linejoin:miter;stroke-opacity:1"/>
<path class="atom-9" d="M 551.9 282.5 L 553.8 282.5 L 553.8 288.5 L 561.0 288.5 L 561.0 282.5 L 562.9 282.5 L 562.9 296.6 L 561.0 296.6 L 561.0 290.1 L 553.8 290.1 L 553.8 296.6 L 551.9 296.6 L 551.9 282.5 " fill="#FF0000"/>
<path class="atom-9" d="M 564.6 289.5 Q 564.6 286.2, 566.3 284.3 Q 568.0 282.4, 571.1 282.4 Q 574.2 282.4, 575.9 284.3 Q 577.6 286.2, 577.6 289.5 Q 577.6 293.0, 575.9 294.9 Q 574.2 296.9, 571.1 296.9 Q 568.0 296.9, 566.3 294.9 Q 564.6 293.0, 564.6 289.5 M 571.1 295.3 Q 573.2 295.3, 574.4 293.8 Q 575.6 292.4, 575.6 289.5 Q 575.6 286.8, 574.4 285.4 Q 573.2 284.0, 571.1 284.0 Q 568.9 284.0, 567.8 285.4 Q 566.6 286.7, 566.6 289.5 Q 566.6 292.4, 567.8 293.8 Q 568.9 295.3, 571.1 295.3 " fill="#FF0000"/>
<path class="atom-12" d="M 742.2 164.7 Q 742.2 161.3, 743.9 159.4 Q 745.6 157.5, 748.7 157.5 Q 751.8 157.5, 753.5 159.4 Q 755.2 161.3, 755.2 164.7 Q 755.2 168.1, 753.5 170.0 Q 751.8 172.0, 748.7 172.0 Q 745.6 172.0, 743.9 170.0 Q 742.2 168.1, 742.2 164.7 M 748.7 170.4 Q 750.8 170.4, 752.0 168.9 Q 753.2 167.5, 753.2 164.7 Q 753.2 161.9, 752.0 160.5 Q 750.8 159.1, 748.7 159.1 Q 746.5 159.1, 745.4 160.5 Q 744.2 161.9, 744.2 164.7 Q 744.2 167.5, 745.4 168.9 Q 746.5 170.4, 748.7 170.4 " fill="#FF0000"/>
<path class="atom-16" d="M 578.4 110.5 Q 578.4 107.1, 580.1 105.2 Q 581.7 103.3, 584.9 103.3 Q 588.0 103.3, 589.7 105.2 Q 591.3 107.1, 591.3 110.5 Q 591.3 113.9, 589.6 115.9 Q 588.0 117.8, 584.9 117.8 Q 581.8 117.8, 580.1 115.9 Q 578.4 113.9, 578.4 110.5 M 584.9 116.2 Q 587.0 116.2, 588.2 114.8 Q 589.4 113.3, 589.4 110.5 Q 589.4 107.7, 588.2 106.3 Q 587.0 104.9, 584.9 104.9 Q 582.7 104.9, 581.5 106.3 Q 580.4 107.7, 580.4 110.5 Q 580.4 113.3, 581.5 114.8 Q 582.7 116.2, 584.9 116.2 " fill="#FF0000"/>
<path class="atom-18" d="M 510.3 171.5 Q 510.3 168.1, 511.9 166.3 Q 513.6 164.4, 516.7 164.4 Q 519.9 164.4, 521.5 166.3 Q 523.2 168.1, 523.2 171.5 Q 523.2 175.0, 521.5 176.9 Q 519.8 178.8, 516.7 178.8 Q 513.6 178.8, 511.9 176.9 Q 510.3 175.0, 510.3 171.5 M 516.7 177.3 Q 518.9 177.3, 520.1 175.8 Q 521.2 174.4, 521.2 171.5 Q 521.2 168.8, 520.1 167.4 Q 518.9 166.0, 516.7 166.0 Q 514.6 166.0, 513.4 167.4 Q 512.3 168.7, 512.3 171.5 Q 512.3 174.4, 513.4 175.8 Q 514.6 177.3, 516.7 177.3 " fill="#FF0000"/>
<path class="legend" d="M 571.7 365.4 L 571.9 366.5 Q 572.8 365.3, 574.2 365.3 Q 574.6 365.3, 575.2 365.4 L 575.0 366.8 Q 574.3 366.6, 573.9 366.6 Q 573.3 366.6, 572.8 366.9 Q 572.4 367.1, 572.0 367.8 L 572.0 373.6 L 570.5 373.6 L 570.5 365.4 L 571.7 365.4 " fill="#000000"/>
<path class="legend" d="M 575.5 369.5 Q 575.5 367.5, 576.5 366.4 Q 577.5 365.3, 579.3 365.3 Q 581.1 365.3, 581.9 366.4 Q 582.8 367.4, 582.8 369.5 L 582.8 369.7 L 577.0 369.7 Q 577.0 371.1, 577.7 371.8 Q 578.3 372.6, 579.5 372.6 Q 580.1 372.6, 580.7 372.4 Q 581.3 372.3, 582.0 372.0 L 582.4 373.0 Q 581.6 373.4, 580.9 373.6 Q 580.2 373.8, 579.4 373.8 Q 577.5 373.8, 576.5 372.6 Q 575.5 371.5, 575.5 369.5 M 579.3 366.4 Q 578.4 366.4, 577.8 367.0 Q 577.3 367.5, 577.1 368.6 L 581.2 368.6 Q 581.1 367.5, 580.6 367.0 Q 580.2 366.4, 579.3 366.4 " fill="#000000"/>
<path class="legend" d="M 583.4 371.4 Q 583.4 370.1, 584.4 369.4 Q 585.5 368.7, 587.4 368.7 L 588.6 368.7 L 588.6 368.3 Q 588.6 367.3, 588.2 366.9 Q 587.8 366.4, 586.8 366.4 Q 586.1 366.4, 585.6 366.6 Q 585.1 366.7, 584.3 367.0 L 583.8 366.0 Q 585.3 365.3, 586.8 365.3 Q 588.5 365.3, 589.3 366.0 Q 590.1 366.8, 590.1 368.4 L 590.1 373.6 L 589.0 373.6 Q 589.0 373.6, 588.9 373.3 Q 588.9 373.1, 588.8 372.7 Q 587.6 373.8, 586.1 373.8 Q 584.8 373.8, 584.1 373.2 Q 583.4 372.5, 583.4 371.4 M 584.9 371.4 Q 584.9 372.0, 585.3 372.3 Q 585.6 372.6, 586.4 372.6 Q 587.0 372.6, 587.6 372.4 Q 588.2 372.0, 588.6 371.5 L 588.6 369.8 L 587.5 369.8 Q 586.2 369.8, 585.5 370.2 Q 584.9 370.6, 584.9 371.4 " fill="#000000"/>
<path class="legend" d="M 591.4 369.5 Q 591.4 367.5, 592.4 366.4 Q 593.4 365.3, 595.3 365.3 Q 597.2 365.3, 598.2 366.6 L 597.1 367.4 Q 596.8 366.9, 596.3 366.7 Q 595.9 366.4, 595.3 366.4 Q 594.2 366.4, 593.5 367.2 Q 592.9 368.0, 592.9 369.5 Q 592.9 371.0, 593.5 371.8 Q 594.2 372.6, 595.4 372.6 Q 596.1 372.6, 596.5 372.4 Q 597.0 372.3, 597.6 372.0 L 598.0 373.0 Q 596.8 373.7, 595.3 373.7 Q 593.4 373.7, 592.4 372.6 Q 591.4 371.5, 591.4 369.5 " fill="#000000"/>
<path class="legend" d="M 598.5 366.6 L 598.5 365.4 L 600.1 365.4 L 600.4 363.0 L 601.5 363.0 L 601.5 365.4 L 604.0 365.4 L 604.0 366.6 L 601.5 366.6 L 601.5 371.1 Q 601.5 372.5, 602.7 372.5 Q 603.2 372.5, 603.9 372.3 L 604.1 373.4 Q 603.2 373.7, 602.4 373.7 Q 601.3 373.7, 600.6 373.1 Q 600.0 372.4, 600.0 371.2 L 600.0 366.6 L 598.5 366.6 " fill="#000000"/>
<path class="legend" d="M 612.7 374.4 L 612.7 375.7 L 604.5 375.7 L 604.5 374.4 L 612.7 374.4 " fill="#000000"/>
<path class="legend" d="M 616.5 362.2 Q 618.5 362.2, 619.5 363.6 Q 620.5 364.9, 620.5 367.6 Q 620.5 370.6, 619.3 372.2 Q 618.0 373.8, 615.6 373.8 Q 614.9 373.8, 614.3 373.6 Q 613.7 373.4, 613.1 373.1 L 613.8 372.0 Q 614.6 372.5, 615.6 372.5 Q 617.2 372.5, 618.0 371.5 Q 618.8 370.4, 618.9 368.3 Q 618.3 368.8, 617.6 369.1 Q 616.9 369.4, 616.1 369.4 Q 615.1 369.4, 614.3 368.9 Q 613.5 368.5, 613.1 367.7 Q 612.7 366.9, 612.7 366.0 Q 612.7 364.8, 613.2 364.0 Q 613.7 363.1, 614.5 362.7 Q 615.4 362.2, 616.5 362.2 M 614.3 365.9 Q 614.3 366.9, 614.8 367.5 Q 615.4 368.1, 616.4 368.1 Q 617.1 368.1, 617.8 367.8 Q 618.4 367.5, 618.9 367.1 Q 618.9 365.2, 618.3 364.3 Q 617.7 363.5, 616.5 363.5 Q 615.9 363.5, 615.4 363.8 Q 614.9 364.1, 614.6 364.7 Q 614.3 365.2, 614.3 365.9 " fill="#000000"/>
<path class="legend" d="M 626.1 366.6 Q 627.0 366.6, 627.8 367.0 Q 628.6 367.4, 629.0 368.2 Q 629.5 369.0, 629.5 370.0 Q 629.5 371.1, 629.0 372.0 Q 628.5 372.8, 627.6 373.3 Q 626.8 373.8, 625.7 373.8 Q 623.7 373.8, 622.6 372.4 Q 621.6 371.0, 621.6 368.3 Q 621.6 365.3, 622.9 363.7 Q 624.1 362.2, 626.6 362.2 Q 627.3 362.2, 627.8 362.3 Q 628.5 362.5, 629.0 362.8 L 628.4 363.9 Q 627.6 363.5, 626.6 363.5 Q 625.0 363.5, 624.2 364.5 Q 623.3 365.5, 623.2 367.6 Q 623.8 367.1, 624.5 366.8 Q 625.3 366.6, 626.1 366.6 M 625.7 372.4 Q 626.3 372.4, 626.8 372.1 Q 627.3 371.8, 627.6 371.2 Q 627.9 370.7, 627.9 370.0 Q 627.9 369.0, 627.3 368.4 Q 626.8 367.8, 625.8 367.8 Q 625.1 367.8, 624.4 368.1 Q 623.7 368.4, 623.2 368.9 Q 623.3 370.8, 623.9 371.6 Q 624.5 372.4, 625.7 372.4 " fill="#000000"/>
<path class="legend" d="M 536.4 383.8 Q 536.4 381.8, 537.4 380.7 Q 538.4 379.5, 540.3 379.5 Q 542.2 379.5, 543.2 380.9 L 542.1 381.6 Q 541.8 381.2, 541.3 380.9 Q 540.9 380.7, 540.3 380.7 Q 539.2 380.7, 538.5 381.5 Q 537.9 382.3, 537.9 383.8 Q 537.9 385.3, 538.5 386.1 Q 539.2 386.8, 540.4 386.8 Q 541.1 386.8, 541.5 386.7 Q 542.0 386.5, 542.6 386.3 L 543.0 387.3 Q 541.8 388.0, 540.3 388.0 Q 538.4 388.0, 537.4 386.9 Q 536.4 385.7, 536.4 383.8 " fill="#000000"/>
<path class="legend" d="M 543.5 383.8 Q 543.5 381.7, 544.5 380.6 Q 545.6 379.5, 547.4 379.5 Q 549.2 379.5, 550.0 380.6 Q 550.8 381.7, 550.8 383.7 L 550.8 384.0 L 545.1 384.0 Q 545.1 385.4, 545.7 386.1 Q 546.4 386.8, 547.5 386.8 Q 548.2 386.8, 548.8 386.7 Q 549.3 386.5, 550.1 386.2 L 550.5 387.2 Q 549.7 387.6, 548.9 387.8 Q 548.2 388.0, 547.4 388.0 Q 545.6 388.0, 544.6 386.9 Q 543.5 385.8, 543.5 383.8 M 547.4 380.7 Q 546.5 380.7, 545.9 381.2 Q 545.3 381.8, 545.1 382.8 L 549.2 382.8 Q 549.1 381.7, 548.7 381.2 Q 548.2 380.7, 547.4 380.7 " fill="#000000"/>
<path class="legend" d="M 555.7 379.5 Q 557.0 379.5, 557.7 380.3 Q 558.4 381.0, 558.4 382.4 L 558.4 387.9 L 556.9 387.9 L 556.9 382.6 Q 556.9 381.6, 556.5 381.2 Q 556.2 380.7, 555.3 380.7 Q 554.6 380.7, 554.0 381.1 Q 553.3 381.4, 552.9 382.0 L 552.9 387.9 L 551.4 387.9 L 551.4 379.7 L 552.7 379.7 L 552.8 380.8 Q 553.9 379.5, 555.7 379.5 " fill="#000000"/>
<path class="legend" d="M 559.7 380.8 L 559.7 379.7 L 561.2 379.7 L 561.5 377.3 L 562.6 377.3 L 562.6 379.7 L 565.1 379.7 L 565.1 380.8 L 562.6 380.8 L 562.6 385.4 Q 562.6 386.8, 563.8 386.8 Q 564.3 386.8, 565.0 386.6 L 565.2 387.6 Q 564.4 388.0, 563.5 388.0 Q 562.5 388.0, 561.8 387.3 Q 561.1 386.7, 561.1 385.4 L 561.1 380.8 L 559.7 380.8 " fill="#000000"/>
<path class="legend" d="M 573.8 388.7 L 573.8 390.0 L 565.6 390.0 L 565.6 388.7 L 573.8 388.7 " fill="#000000"/>
<path class="legend" d="M 581.3 375.7 L 581.3 387.9 L 580.1 387.9 L 579.8 386.9 Q 578.9 388.0, 577.4 388.0 Q 575.7 388.0, 574.7 387.0 Q 573.8 385.9, 573.8 383.9 Q 573.8 381.8, 574.9 380.7 Q 576.1 379.5, 578.0 379.5 Q 578.9 379.5, 579.8 379.7 L 579.8 375.7 L 581.3 375.7 M 577.5 386.8 Q 578.3 386.8, 578.9 386.4 Q 579.5 385.9, 579.8 385.1 L 579.8 380.9 Q 578.9 380.7, 578.0 380.7 Q 576.8 380.7, 576.1 381.6 Q 575.3 382.4, 575.3 383.9 Q 575.3 385.3, 575.9 386.1 Q 576.5 386.8, 577.5 386.8 " fill="#000000"/>
<path class="legend" d="M 582.5 376.6 L 584.0 376.6 L 584.0 378.0 L 582.5 378.0 L 582.5 376.6 M 582.5 379.7 L 584.0 379.7 L 584.0 387.9 L 582.5 387.9 L 582.5 379.7 " fill="#000000"/>
<path class="legend" d="M 585.9 386.2 Q 586.6 386.5, 587.1 386.6 Q 587.6 386.8, 588.2 386.8 Q 588.9 386.8, 589.3 386.5 Q 589.7 386.2, 589.7 385.6 Q 589.7 385.2, 589.5 385.0 Q 589.3 384.8, 589.0 384.6 Q 588.8 384.5, 588.0 384.3 Q 587.9 384.3, 587.2 384.0 Q 586.5 383.7, 586.1 383.2 Q 585.7 382.7, 585.7 381.9 Q 585.7 380.9, 586.4 380.2 Q 587.2 379.5, 588.7 379.5 Q 589.3 379.5, 589.9 379.7 Q 590.4 379.8, 591.0 380.0 L 590.6 381.2 Q 590.1 381.0, 589.6 380.9 Q 589.2 380.8, 588.7 380.8 Q 587.9 380.8, 587.6 381.1 Q 587.2 381.4, 587.2 381.8 Q 587.2 382.3, 587.5 382.5 Q 587.8 382.7, 588.5 383.0 Q 588.6 383.0, 588.8 383.1 L 589.2 383.2 Q 589.8 383.4, 590.2 383.7 Q 590.6 383.9, 590.9 384.4 Q 591.2 384.8, 591.2 385.6 Q 591.2 386.7, 590.4 387.4 Q 589.5 388.0, 588.2 388.0 Q 587.4 388.0, 586.7 387.9 Q 586.1 387.7, 585.4 387.4 L 585.9 386.2 " fill="#000000"/>
<path class="legend" d="M 592.1 380.8 L 592.1 379.7 L 593.6 379.7 L 593.9 377.3 L 595.0 377.3 L 595.0 379.7 L 597.5 379.7 L 597.5 380.8 L 595.0 380.8 L 595.0 385.4 Q 595.0 386.8, 596.2 386.8 Q 596.7 386.8, 597.4 386.6 L 597.7 387.6 Q 596.8 388.0, 595.9 388.0 Q 594.9 388.0, 594.2 387.3 Q 593.5 386.7, 593.5 385.4 L 593.5 380.8 L 592.1 380.8 " fill="#000000"/>
<path class="legend" d="" fill="#000000"/>
<path class="legend" d="M 603.4 380.9 L 610.7 380.9 L 610.7 382.1 L 603.4 382.1 L 603.4 380.9 M 603.4 384.4 L 610.7 384.4 L 610.7 385.5 L 603.4 385.5 L 603.4 384.4 " fill="#000000"/>
<path class="legend" d="" fill="#000000"/>
<path class="legend" d="M 621.6 388.0 Q 619.6 388.0, 618.5 386.5 Q 617.5 384.9, 617.5 382.2 Q 617.5 379.5, 618.5 378.0 Q 619.5 376.4, 621.6 376.4 Q 623.7 376.4, 624.8 378.0 Q 625.8 379.5, 625.8 382.2 Q 625.8 384.9, 624.7 386.5 Q 623.7 388.0, 621.6 388.0 M 621.6 386.7 Q 622.9 386.7, 623.5 385.6 Q 624.2 384.4, 624.2 382.2 Q 624.2 380.0, 623.5 378.8 Q 622.9 377.7, 621.6 377.7 Q 620.4 377.7, 619.8 378.8 Q 619.1 380.0, 619.1 382.2 Q 619.1 384.4, 619.8 385.6 Q 620.4 386.7, 621.6 386.7 " fill="#000000"/>
<path class="legend" d="M 626.8 386.3 L 628.4 386.3 L 628.4 387.9 L 626.8 387.9 L 626.8 386.3 " fill="#000000"/>
<path class="legend" d="M 634.9 381.9 Q 636.0 382.2, 636.5 383.0 Q 637.1 383.7, 637.1 384.8 Q 637.1 385.7, 636.6 386.5 Q 636.1 387.2, 635.2 387.6 Q 634.4 388.0, 633.2 388.0 Q 632.0 388.0, 631.1 387.6 Q 630.2 387.2, 629.5 386.3 L 630.4 385.4 Q 631.1 386.2, 631.7 386.5 Q 632.3 386.8, 633.2 386.8 Q 634.2 386.8, 634.9 386.2 Q 635.5 385.7, 635.5 384.8 Q 635.5 383.6, 634.8 383.1 Q 634.2 382.6, 632.8 382.6 L 632.0 382.6 L 632.0 381.4 L 632.7 381.4 Q 633.9 381.4, 634.6 380.9 Q 635.2 380.3, 635.2 379.3 Q 635.2 378.6, 634.7 378.2 Q 634.2 377.7, 633.2 377.7 Q 632.3 377.7, 631.7 378.0 Q 631.1 378.4, 630.7 379.2 L 629.6 378.6 Q 630.0 377.7, 630.9 377.1 Q 631.9 376.4, 633.2 376.4 Q 634.9 376.4, 635.9 377.2 Q 636.8 378.0, 636.8 379.3 Q 636.8 380.2, 636.3 380.9 Q 635.9 381.6, 634.9 381.9 " fill="#000000"/>
<path class="legend" d="M 643.8 381.9 Q 644.8 382.3, 645.4 383.0 Q 646.0 383.7, 646.0 384.8 Q 646.0 385.7, 645.5 386.5 Q 645.0 387.2, 644.1 387.6 Q 643.3 388.0, 642.1 388.0 Q 640.2 388.0, 639.1 387.2 Q 638.0 386.3, 638.0 384.8 Q 638.0 383.9, 638.5 383.2 Q 639.0 382.5, 640.0 381.9 Q 639.2 381.5, 638.8 380.9 Q 638.4 380.3, 638.4 379.3 Q 638.4 378.0, 639.4 377.2 Q 640.4 376.4, 642.0 376.4 Q 643.7 376.4, 644.6 377.2 Q 645.6 378.0, 645.6 379.3 Q 645.6 380.2, 645.1 380.8 Q 644.7 381.4, 643.8 381.9 M 642.0 377.6 Q 641.1 377.6, 640.6 378.1 Q 640.0 378.5, 640.0 379.3 Q 640.0 379.9, 640.4 380.3 Q 640.7 380.7, 641.2 380.9 Q 641.8 381.2, 642.7 381.5 Q 643.4 381.0, 643.7 380.5 Q 644.0 380.0, 644.0 379.3 Q 644.0 378.5, 643.5 378.1 Q 643.0 377.6, 642.0 377.6 M 642.1 386.8 Q 643.1 386.8, 643.8 386.3 Q 644.4 385.7, 644.4 384.8 Q 644.4 384.2, 644.1 383.8 Q 643.8 383.4, 643.2 383.2 Q 642.7 382.9, 641.9 382.7 L 641.1 382.4 Q 640.3 382.9, 640.0 383.5 Q 639.6 384.0, 639.6 384.8 Q 639.6 385.7, 640.3 386.3 Q 641.0 386.8, 642.1 386.8 " fill="#000000"/>
<path class="legend" d="M 651.5 380.8 Q 652.5 380.8, 653.2 381.2 Q 654.0 381.7, 654.5 382.5 Q 654.9 383.2, 654.9 384.2 Q 654.9 385.3, 654.4 386.2 Q 653.9 387.1, 653.1 387.5 Q 652.2 388.0, 651.1 388.0 Q 649.1 388.0, 648.0 386.7 Q 647.0 385.3, 647.0 382.6 Q 647.0 379.6, 648.3 378.0 Q 649.5 376.4, 652.0 376.4 Q 652.7 376.4, 653.3 376.6 Q 653.9 376.8, 654.4 377.1 L 653.8 378.2 Q 653.0 377.7, 652.0 377.7 Q 650.4 377.7, 649.6 378.8 Q 648.7 379.8, 648.7 381.9 Q 649.2 381.4, 649.9 381.1 Q 650.7 380.8, 651.5 380.8 M 651.1 386.7 Q 651.7 386.7, 652.2 386.4 Q 652.7 386.1, 653.0 385.5 Q 653.3 384.9, 653.3 384.3 Q 653.3 383.2, 652.7 382.7 Q 652.2 382.1, 651.2 382.1 Q 650.5 382.1, 649.8 382.4 Q 649.1 382.7, 648.7 383.1 Q 648.7 385.0, 649.3 385.9 Q 649.9 386.7, 651.1 386.7 " fill="#000000"/>
<path class="legend" d="M 659.6 376.4 Q 661.6 376.4, 662.6 377.8 Q 663.6 379.2, 663.6 381.9 Q 663.6 384.9, 662.4 386.5 Q 661.1 388.0, 658.7 388.0 Q 658.0 388.0, 657.4 387.9 Q 656.8 387.7, 656.2 387.4 L 656.8 386.3 Q 657.7 386.7, 658.7 386.7 Q 660.3 386.7, 661.1 385.7 Q 661.9 384.7, 662.0 382.5 Q 661.4 383.1, 660.7 383.4 Q 660.0 383.6, 659.2 383.6 Q 658.2 383.6, 657.4 383.2 Q 656.6 382.8, 656.2 382.0 Q 655.8 381.2, 655.8 380.2 Q 655.8 379.1, 656.3 378.3 Q 656.7 377.4, 657.6 376.9 Q 658.5 376.4, 659.6 376.4 M 657.4 380.2 Q 657.4 381.2, 657.9 381.8 Q 658.5 382.4, 659.5 382.4 Q 660.2 382.4, 660.8 382.1 Q 661.5 381.8, 662.0 381.3 Q 661.9 379.4, 661.4 378.6 Q 660.8 377.7, 659.6 377.7 Q 659.0 377.7, 658.4 378.1 Q 657.9 378.4, 657.7 378.9 Q 657.4 379.5, 657.4 380.2 " fill="#000000"/>
</svg>