<svg xmlns="http://www.w3.org/2000/svg" xmlns:rdkit="http://www.rdkit.org/xml" xmlns:xlink="http://www.w3.org/1999/xlink" version="1.1" baseProfile="full" xml:space="preserve" width="2000px" height="400px" viewBox="0 0 2000 400">
<!-- END OF HEADER -->
<rect style="opacity:1.0;fill:#FFFFFF;stroke:none" width="2000.0" height="400.0" x="0.0" y="0.0"> </rect>
<path class="bond-0 atom-0 atom-1" d="M 56.4,183.5 L 75.5,172.6" style="fill:none;fill-rule:evenodd;stroke:#000000;stroke-width:2.0px;stroke-linecap:butt;stroke-linejoin:miter;stroke-opacity:1"/>
<path class="bond-0 atom-0 atom-1" d="M 58.5,187.4 L 77.7,176.5" style="fill:none;fill-rule:evenodd;stroke:#000000;stroke-width:2.0px;stroke-linecap:butt;stroke-linejoin:miter;stroke-opacity:1"/>
<path class="bond-1 atom-1 atom-2" d="M 76.6,174.6 L 95.6,185.7" style="fill:none;fill-rule:evenodd;stroke:#000000;stroke-width:2.0px;stroke-linecap:butt;stroke-linejoin:miter;stroke-opacity:1"/>
<path class="bond-2 atom-2 atom-3" d="M 95.6,185.7 L 114.7,174.8" style="fill:none;fill-rule:evenodd;stroke:#000000;stroke-width:2.0px;stroke-linecap:butt;stroke-linejoin:miter;stroke-opacity:1"/>
<path class="bond-3 atom-3 atom-4" d="M 114.7,174.8 L 133.7,186.0" style="fill:none;fill-rule:evenodd;stroke:#000000;stroke-width:2.0px;stroke-linecap:butt;stroke-linejoin:miter;stroke-opacity:1"/>
<path class="bond-4 atom-4 atom-5" d="M 133.7,186.0 L 152.9,175.1" style="fill:none;fill-rule:evenodd;stroke:#000000;stroke-width:2.0px;stroke-linecap:butt;stroke-linejoin:miter;stroke-opacity:1"/>
<path class="bond-5 atom-5 atom-6" d="M 152.9,175.1 L 171.9,186.2" style="fill:none;fill-rule:evenodd;stroke:#000000;stroke-width:2.0px;stroke-linecap:butt;stroke-linejoin:miter;stroke-opacity:1"/>
<path class="bond-6 atom-6 atom-7" d="M 171.9,186.2 L 191.0,175.3" style="fill:none;fill-rule:evenodd;stroke:#000000;stroke-width:2.0px;stroke-linecap:butt;stroke-linejoin:miter;stroke-opacity:1"/>
<path class="bond-7 atom-7 atom-8" d="M 191.0,175.3 L 210.0,186.5" style="fill:none;fill-rule:evenodd;stroke:#000000;stroke-width:2.0px;stroke-linecap:butt;stroke-linejoin:miter;stroke-opacity:1"/>
<path class="bond-8 atom-8 atom-9" d="M 210.0,186.5 L 229.2,175.6" style="fill:none;fill-rule:evenodd;stroke:#000000;stroke-width:2.0px;stroke-linecap:butt;stroke-linejoin:miter;stroke-opacity:1"/>
<path class="bond-9 atom-9 atom-10" d="M 229.2,175.6 L 248.2,186.7" style="fill:none;fill-rule:evenodd;stroke:#000000;stroke-width:2.0px;stroke-linecap:butt;stroke-linejoin:miter;stroke-opacity:1"/>
<path class="bond-10 atom-10 atom-11" d="M 248.2,186.7 L 267.3,175.9" style="fill:none;fill-rule:evenodd;stroke:#000000;stroke-width:2.0px;stroke-linecap:butt;stroke-linejoin:miter;stroke-opacity:1"/>
<path class="bond-11 atom-11 atom-12" d="M 267.3,175.9 L 286.3,187.0" style="fill:none;fill-rule:evenodd;stroke:#000000;stroke-width:2.0px;stroke-linecap:butt;stroke-linejoin:miter;stroke-opacity:1"/>
<path class="bond-12 atom-12 atom-13" d="M 286.3,187.0 L 305.5,176.1" style="fill:none;fill-rule:evenodd;stroke:#000000;stroke-width:2.0px;stroke-linecap:butt;stroke-linejoin:miter;stroke-opacity:1"/>
<path class="bond-13 atom-13 atom-14" d="M 305.5,176.1 L 324.5,187.3" style="fill:none;fill-rule:evenodd;stroke:#000000;stroke-width:2.0px;stroke-linecap:butt;stroke-linejoin:miter;stroke-opacity:1"/>
<path class="bond-14 atom-14 atom-15" d="M 324.5,187.3 L 343.6,176.4" style="fill:none;fill-rule:evenodd;stroke:#000000;stroke-width:2.0px;stroke-linecap:butt;stroke-linejoin:miter;stroke-opacity:1"/>
<path class="legend" d="M 167.5 365.4 L 167.7 366.5 Q 168.5 365.3, 169.9 365.3 Q 170.4 365.3, 171.0 365.4 L 170.7 366.8 Q 170.1 366.6, 169.7 366.6 Q 169.0 366.6, 168.6 366.9 Q 168.1 367.1, 167.8 367.8 L 167.8 373.6 L 166.3 373.6 L 166.3 365.4 L 167.5 365.4 " fill="#000000"/>
<path class="legend" d="M 171.2 369.5 Q 171.2 367.5, 172.2 366.4 Q 173.2 365.3, 175.1 365.3 Q 176.9 365.3, 177.7 366.4 Q 178.5 367.4, 178.5 369.5 L 178.5 369.7 L 172.8 369.7 Q 172.8 371.1, 173.4 371.8 Q 174.0 372.6, 175.2 372.6 Q 175.8 372.6, 176.4 372.4 Q 177.0 372.3, 177.8 372.0 L 178.2 373.0 Q 177.4 373.4, 176.6 373.6 Q 175.9 373.8, 175.1 373.8 Q 173.3 373.8, 172.2 372.6 Q 171.2 371.5, 171.2 369.5 M 175.1 366.4 Q 174.1 366.4, 173.6 367.0 Q 173.0 367.5, 172.8 368.6 L 176.9 368.6 Q 176.8 367.5, 176.4 367.0 Q 175.9 366.4, 175.1 366.4 " fill="#000000"/>
<path class="legend" d="M 179.1 371.4 Q 179.1 370.1, 180.2 369.4 Q 181.2 368.7, 183.2 368.7 L 184.4 368.7 L 184.4 368.3 Q 184.4 367.3, 183.9 366.9 Q 183.5 366.4, 182.5 366.4 Q 181.8 366.4, 181.3 366.6 Q 180.8 366.7, 180.0 367.0 L 179.6 366.0 Q 181.1 365.3, 182.5 365.3 Q 184.3 365.3, 185.1 366.0 Q 185.9 366.8, 185.9 368.4 L 185.9 373.6 L 184.7 373.6 Q 184.7 373.6, 184.6 373.3 Q 184.6 373.1, 184.5 372.7 Q 183.4 373.8, 181.8 373.8 Q 180.6 373.8, 179.8 373.2 Q 179.1 372.5, 179.1 371.4 M 180.6 371.4 Q 180.6 372.0, 181.0 372.3 Q 181.4 372.6, 182.1 372.6 Q 182.7 372.6, 183.4 372.4 Q 184.0 372.0, 184.4 371.5 L 184.4 369.8 L 183.3 369.8 Q 181.9 369.8, 181.3 370.2 Q 180.6 370.6, 180.6 371.4 " fill="#000000"/>
<path class="legend" d="M 187.1 369.5 Q 187.1 367.5, 188.1 366.4 Q 189.1 365.3, 191.0 365.3 Q 192.9 365.3, 193.9 366.6 L 192.9 367.4 Q 192.5 366.9, 192.1 366.7 Q 191.6 366.4, 191.0 366.4 Q 189.9 366.4, 189.3 367.2 Q 188.6 368.0, 188.6 369.5 Q 188.6 371.0, 189.3 371.8 Q 189.9 372.6, 191.1 372.6 Q 191.8 372.6, 192.3 372.4 Q 192.7 372.3, 193.3 372.0 L 193.7 373.0 Q 192.6 373.7, 191.0 373.7 Q 189.1 373.7, 188.1 372.6 Q 187.1 371.5, 187.1 369.5 " fill="#000000"/>
<path class="legend" d="M 194.3 366.6 L 194.3 365.4 L 195.8 365.4 L 196.1 363.0 L 197.2 363.0 L 197.2 365.4 L 199.7 365.4 L 199.7 366.6 L 197.2 366.6 L 197.2 371.1 Q 197.2 372.5, 198.4 372.5 Q 198.9 372.5, 199.6 372.3 L 199.9 373.4 Q 199.0 373.7, 198.2 373.7 Q 197.1 373.7, 196.4 373.1 Q 195.7 372.4, 195.7 371.2 L 195.7 366.6 L 194.3 366.6 " fill="#000000"/>
<path class="legend" d="M 208.4 374.4 L 208.4 375.7 L 200.3 375.7 L 200.3 374.4 L 208.4 374.4 " fill="#000000"/>
<path class="legend" d="M 212.5 366.5 Q 213.5 366.5, 214.3 367.0 Q 215.2 367.4, 215.6 368.2 Q 216.1 369.0, 216.1 370.0 Q 216.1 371.2, 215.5 372.1 Q 215.0 372.9, 214.0 373.3 Q 213.1 373.8, 212.0 373.8 Q 211.0 373.8, 210.0 373.4 Q 209.1 373.0, 208.4 372.3 L 209.4 371.3 Q 209.9 371.8, 210.6 372.2 Q 211.4 372.5, 212.1 372.5 Q 213.1 372.5, 213.8 371.8 Q 214.5 371.2, 214.5 370.1 Q 214.5 368.9, 213.8 368.3 Q 213.1 367.7, 212.0 367.7 Q 211.0 367.7, 209.9 368.2 L 209.0 367.8 L 209.6 362.3 L 215.4 362.3 L 215.2 363.6 L 210.9 363.6 L 210.5 366.9 Q 211.5 366.5, 212.5 366.5 " fill="#000000"/>
<path class="legend" d="M 216.9 364.4 Q 217.3 363.4, 218.3 362.8 Q 219.3 362.2, 220.7 362.2 Q 222.4 362.2, 223.3 363.1 Q 224.3 364.0, 224.3 365.7 Q 224.3 367.4, 223.0 368.9 Q 221.8 370.5, 219.3 372.4 L 224.5 372.4 L 224.5 373.6 L 216.9 373.6 L 216.9 372.6 Q 219.0 371.1, 220.2 369.9 Q 221.5 368.8, 222.1 367.8 Q 222.7 366.8, 222.7 365.8 Q 222.7 364.7, 222.2 364.1 Q 221.6 363.5, 220.7 363.5 Q 219.8 363.5, 219.1 363.8 Q 218.5 364.2, 218.1 365.0 L 216.9 364.4 " fill="#000000"/>
<path class="legend" d="M 229.6 373.8 Q 227.5 373.8, 226.5 372.2 Q 225.4 370.7, 225.4 368.0 Q 225.4 365.2, 226.5 363.7 Q 227.5 362.2, 229.6 362.2 Q 231.7 362.2, 232.7 363.7 Q 233.7 365.2, 233.7 368.0 Q 233.7 370.7, 232.7 372.2 Q 231.7 373.8, 229.6 373.8 M 229.6 372.5 Q 230.8 372.5, 231.5 371.3 Q 232.1 370.2, 232.1 368.0 Q 232.1 365.7, 231.5 364.6 Q 230.8 363.5, 229.6 363.5 Q 228.4 363.5, 227.7 364.6 Q 227.0 365.7, 227.0 368.0 Q 227.0 370.2, 227.7 371.3 Q 228.4 372.5, 229.6 372.5 " fill="#000000"/>
<path class="legend" d="M 137.2 383.8 Q 137.2 381.8, 138.2 380.7 Q 139.2 379.5, 141.1 379.5 Q 143.0 379.5, 144.0 380.9 L 143.0 381.6 Q 142.6 381.2, 142.1 380.9 Q 141.7 380.7, 141.1 380.7 Q 140.0 380.7, 139.3 381.5 Q 138.7 382.3, 138.7 383.8 Q 138.7 385.3, 139.4 386.1 Q 140.0 386.8, 141.2 386.8 Q 141.9 386.8, 142.4 386.7 Q 142.8 386.5, 143.4 386.3 L 143.8 387.3 Q 142.6 388.0, 141.1 388.0 Q 139.2 388.0, 138.2 386.9 Q 137.2 385.7, 137.2 383.8 " fill="#000000"/>
<path class="legend" d="M 144.4 383.8 Q 144.4 381.7, 145.4 380.6 Q 146.4 379.5, 148.2 379.5 Q 150.0 379.5, 150.8 380.6 Q 151.6 381.7, 151.6 383.7 L 151.6 384.0 L 145.9 384.0 Q 145.9 385.4, 146.5 386.1 Q 147.2 386.8, 148.3 386.8 Q 149.0 386.8, 149.6 386.7 Q 150.2 386.5, 150.9 386.2 L 151.3 387.2 Q 150.5 387.6, 149.8 387.8 Q 149.0 388.0, 148.3 388.0 Q 146.4 388.0, 145.4 386.9 Q 144.4 385.8, 144.4 383.8 M 148.2 380.7 Q 147.3 380.7, 146.7 381.2 Q 146.1 381.8, 146.0 382.8 L 150.1 382.8 Q 149.9 381.7, 149.5 381.2 Q 149.0 380.7, 148.2 380.7 " fill="#000000"/>
<path class="legend" d="M 156.5 379.5 Q 157.8 379.5, 158.5 380.3 Q 159.2 381.0, 159.2 382.4 L 159.2 387.9 L 157.7 387.9 L 157.7 382.6 Q 157.7 381.6, 157.3 381.2 Q 157.0 380.7, 156.1 380.7 Q 155.4 380.7, 154.8 381.1 Q 154.1 381.4, 153.7 382.0 L 153.7 387.9 L 152.2 387.9 L 152.2 379.7 L 153.5 379.7 L 153.7 380.8 Q 154.8 379.5, 156.5 379.5 " fill="#000000"/>
<path class="legend" d="M 160.5 380.8 L 160.5 379.7 L 162.0 379.7 L 162.3 377.3 L 163.4 377.3 L 163.4 379.7 L 165.9 379.7 L 165.9 380.8 L 163.4 380.8 L 163.4 385.4 Q 163.4 386.8, 164.6 386.8 Q 165.1 386.8, 165.8 386.6 L 166.1 387.6 Q 165.2 388.0, 164.3 388.0 Q 163.3 388.0, 162.6 387.3 Q 161.9 386.7, 161.9 385.4 L 161.9 380.8 L 160.5 380.8 " fill="#000000"/>
<path class="legend" d="M 174.6 388.7 L 174.6 390.0 L 166.5 390.0 L 166.5 388.7 L 174.6 388.7 " fill="#000000"/>
<path class="legend" d="M 182.1 375.7 L 182.1 387.9 L 180.9 387.9 L 180.7 386.9 Q 179.7 388.0, 178.2 388.0 Q 176.5 388.0, 175.6 387.0 Q 174.6 385.9, 174.6 383.9 Q 174.6 381.8, 175.7 380.7 Q 176.9 379.5, 178.8 379.5 Q 179.7 379.5, 180.6 379.7 L 180.6 375.7 L 182.1 375.7 M 178.3 386.8 Q 179.2 386.8, 179.7 386.4 Q 180.4 385.9, 180.6 385.1 L 180.6 380.9 Q 179.8 380.7, 178.9 380.7 Q 177.6 380.7, 176.9 381.6 Q 176.1 382.4, 176.1 383.9 Q 176.1 385.3, 176.7 386.1 Q 177.3 386.8, 178.3 386.8 " fill="#000000"/>
<path class="legend" d="M 183.4 376.6 L 184.8 376.6 L 184.8 378.0 L 183.4 378.0 L 183.4 376.6 M 183.4 379.7 L 184.8 379.7 L 184.8 387.9 L 183.4 387.9 L 183.4 379.7 " fill="#000000"/>
<path class="legend" d="M 186.7 386.2 Q 187.4 386.5, 187.9 386.6 Q 188.4 386.8, 189.0 386.8 Q 189.7 386.8, 190.1 386.5 Q 190.5 386.2, 190.5 385.6 Q 190.5 385.2, 190.3 385.0 Q 190.1 384.8, 189.8 384.6 Q 189.6 384.5, 188.9 384.3 Q 188.7 384.3, 188.0 384.0 Q 187.3 383.7, 186.9 383.2 Q 186.5 382.7, 186.5 381.9 Q 186.5 380.9, 187.3 380.2 Q 188.0 379.5, 189.5 379.5 Q 190.1 379.5, 190.7 379.7 Q 191.2 379.8, 191.8 380.0 L 191.4 381.2 Q 190.9 381.0, 190.5 380.9 Q 190.0 380.8, 189.5 380.8 Q 188.8 380.8, 188.4 381.1 Q 188.0 381.4, 188.0 381.8 Q 188.0 382.3, 188.3 382.5 Q 188.6 382.7, 189.3 383.0 Q 189.4 383.0, 189.6 383.1 L 190.0 383.2 Q 190.6 383.4, 191.0 383.7 Q 191.5 383.9, 191.7 384.4 Q 192.0 384.8, 192.0 385.6 Q 192.0 386.7, 191.2 387.4 Q 190.4 388.0, 189.0 388.0 Q 188.2 388.0, 187.6 387.9 Q 186.9 387.7, 186.2 387.4 L 186.7 386.2 " fill="#000000"/>
<path class="legend" d="M 192.9 380.8 L 192.9 379.7 L 194.5 379.7 L 194.7 377.3 L 195.8 377.3 L 195.8 379.7 L 198.3 379.7 L 198.3 380.8 L 195.8 380.8 L 195.8 385.4 Q 195.8 386.8, 197.0 386.8 Q 197.5 386.8, 198.2 386.6 L 198.5 387.6 Q 197.6 388.0, 196.8 388.0 Q 195.7 388.0, 195.0 387.3 Q 194.3 386.7, 194.3 385.4 L 194.3 380.8 L 192.9 380.8 " fill="#000000"/>
<path class="legend" d="" fill="#000000"/>
<path class="legend" d="M 204.2 380.9 L 211.5 380.9 L 211.5 382.1 L 204.2 382.1 L 204.2 380.9 M 204.2 384.4 L 211.5 384.4 L 211.5 385.5 L 204.2 385.5 L 204.2 384.4 " fill="#000000"/>
<path class="legend" d="" fill="#000000"/>
<path class="legend" d="M 222.5 388.0 Q 220.4 388.0, 219.3 386.5 Q 218.3 384.9, 218.3 382.2 Q 218.3 379.5, 219.3 378.0 Q 220.4 376.4, 222.5 376.4 Q 224.6 376.4, 225.6 378.0 Q 226.6 379.5, 226.6 382.2 Q 226.6 384.9, 225.6 386.5 Q 224.5 388.0, 222.5 388.0 M 222.5 386.7 Q 223.7 386.7, 224.3 385.6 Q 225.0 384.4, 225.0 382.2 Q 225.0 380.0, 224.3 378.8 Q 223.7 377.7, 222.5 377.7 Q 221.2 377.7, 220.6 378.8 Q 219.9 380.0, 219.9 382.2 Q 219.9 384.4, 220.6 385.6 Q 221.2 386.7, 222.5 386.7 " fill="#000000"/>
<path class="legend" d="M 227.6 386.3 L 229.2 386.3 L 229.2 387.9 L 227.6 387.9 L 227.6 386.3 " fill="#000000"/>
<path class="legend" d="M 235.7 381.9 Q 236.8 382.2, 237.4 383.0 Q 237.9 383.7, 237.9 384.8 Q 237.9 385.7, 237.4 386.5 Q 236.9 387.2, 236.1 387.6 Q 235.2 388.0, 234.0 388.0 Q 232.8 388.0, 231.9 387.6 Q 231.0 387.2, 230.3 386.3 L 231.2 385.4 Q 231.9 386.2, 232.5 386.5 Q 233.1 386.8, 234.0 386.8 Q 235.1 386.8, 235.7 386.2 Q 236.3 385.7, 236.3 384.8 Q 236.3 383.6, 235.6 383.1 Q 235.0 382.6, 233.6 382.6 L 232.8 382.6 L 232.8 381.4 L 233.5 381.4 Q 234.7 381.4, 235.4 380.9 Q 236.1 380.3, 236.1 379.3 Q 236.1 378.6, 235.5 378.2 Q 235.0 377.7, 234.0 377.7 Q 233.1 377.7, 232.5 378.0 Q 231.9 378.4, 231.5 379.2 L 230.4 378.6 Q 230.8 377.7, 231.7 377.1 Q 232.7 376.4, 234.0 376.4 Q 235.7 376.4, 236.7 377.2 Q 237.7 378.0, 237.7 379.3 Q 237.7 380.2, 237.2 380.9 Q 236.7 381.6, 235.7 381.9 " fill="#000000"/>
<path class="legend" d="M 239.5 386.6 L 241.9 386.6 L 241.9 378.1 L 239.2 379.0 L 238.8 378.0 L 242.3 376.5 L 243.5 376.7 L 243.5 386.6 L 245.7 386.6 L 245.7 387.9 L 239.5 387.9 L 239.5 386.6 " fill="#000000"/>
<path class="legend" d="M 250.2 376.4 Q 252.2 376.4, 253.2 377.8 Q 254.2 379.2, 254.2 381.9 Q 254.2 384.9, 252.9 386.5 Q 251.7 388.0, 249.3 388.0 Q 248.6 388.0, 248.0 387.9 Q 247.4 387.7, 246.8 387.4 L 247.4 386.3 Q 248.3 386.7, 249.3 386.7 Q 250.9 386.7, 251.7 385.7 Q 252.5 384.7, 252.6 382.5 Q 252.0 383.1, 251.3 383.4 Q 250.6 383.6, 249.8 383.6 Q 248.8 383.6, 248.0 383.2 Q 247.2 382.8, 246.8 382.0 Q 246.3 381.2, 246.3 380.2 Q 246.3 379.1, 246.8 378.3 Q 247.3 377.4, 248.2 376.9 Q 249.1 376.4, 250.2 376.4 M 247.9 380.2 Q 247.9 381.2, 248.5 381.8 Q 249.1 382.4, 250.1 382.4 Q 250.7 382.4, 251.4 382.1 Q 252.1 381.8, 252.6 381.3 Q 252.5 379.4, 251.9 378.6 Q 251.3 377.7, 250.1 377.7 Q 249.5 377.7, 249.0 378.1 Q 248.5 378.4, 248.2 378.9 Q 247.9 379.5, 247.9 380.2 " fill="#000000"/>
<path class="legend" d="M 261.2 377.8 L 255.3 377.8 L 255.3 376.6 L 262.8 376.6 L 262.8 377.7 L 258.2 387.9 L 256.7 387.9 L 261.2 377.8 " fill="#000000"/>
<path class="bond-0 atom-0 atom-1" d="M 475.4,183.4 L 494.6,172.6" style="fill:none;fill-rule:evenodd;stroke:#000000;stroke-width:2.0px;stroke-linecap:butt;stroke-linejoin:miter;stroke-opacity:1"/>
<path class="bond-0 atom-0 atom-1" d="M 477.6,187.3 L 496.8,176.4" style="fill:none;fill-rule:evenodd;stroke:#000000;stroke-width:2.0px;stroke-linecap:butt;stroke-linejoin:miter;stroke-opacity:1"/>
<path class="bond-1 atom-1 atom-2" d="M 495.7,174.5 L 514.7,185.7" style="fill:none;fill-rule:evenodd;stroke:#000000;stroke-width:2.0px;stroke-linecap:butt;stroke-linejoin:miter;stroke-opacity:1"/>
<path class="bond-2 atom-2 atom-3" d="M 514.7,185.7 L 533.8,174.9" style="fill:none;fill-rule:evenodd;stroke:#000000;stroke-width:2.0px;stroke-linecap:butt;stroke-linejoin:miter;stroke-opacity:1"/>
<path class="bond-3 atom-3 atom-4" d="M 533.8,174.9 L 552.8,186.0" style="fill:none;fill-rule:evenodd;stroke:#000000;stroke-width:2.0px;stroke-linecap:butt;stroke-linejoin:miter;stroke-opacity:1"/>
<path class="bond-4 atom-4 atom-5" d="M 552.8,186.0 L 572.0,175.2" style="fill:none;fill-rule:evenodd;stroke:#000000;stroke-width:2.0px;stroke-linecap:butt;stroke-linejoin:miter;stroke-opacity:1"/>
<path class="bond-5 atom-5 atom-6" d="M 572.0,175.2 L 591.0,186.4" style="fill:none;fill-rule:evenodd;stroke:#000000;stroke-width:2.0px;stroke-linecap:butt;stroke-linejoin:miter;stroke-opacity:1"/>
<path class="bond-6 atom-6 atom-7" d="M 591.0,186.4 L 610.1,175.5" style="fill:none;fill-rule:evenodd;stroke:#000000;stroke-width:2.0px;stroke-linecap:butt;stroke-linejoin:miter;stroke-opacity:1"/>
<path class="bond-7 atom-7 atom-8" d="M 610.1,175.5 L 629.1,186.7" style="fill:none;fill-rule:evenodd;stroke:#000000;stroke-width:2.0px;stroke-linecap:butt;stroke-linejoin:miter;stroke-opacity:1"/>
<path class="bond-8 atom-8 atom-9" d="M 629.1,186.7 L 648.3,175.9" style="fill:none;fill-rule:evenodd;stroke:#000000;stroke-width:2.0px;stroke-linecap:butt;stroke-linejoin:miter;stroke-opacity:1"/>
<path class="bond-9 atom-9 atom-10" d="M 648.3,175.9 L 667.3,187.1" style="fill:none;fill-rule:evenodd;stroke:#000000;stroke-width:2.0px;stroke-linecap:butt;stroke-linejoin:miter;stroke-opacity:1"/>
<path class="bond-10 atom-10 atom-11" d="M 667.3,187.1 L 686.4,176.2" style="fill:none;fill-rule:evenodd;stroke:#000000;stroke-width:2.0px;stroke-linecap:butt;stroke-linejoin:miter;stroke-opacity:1"/>
<path class="bond-11 atom-11 atom-12" d="M 686.4,176.2 L 705.4,187.4" style="fill:none;fill-rule:evenodd;stroke:#000000;stroke-width:2.0px;stroke-linecap:butt;stroke-linejoin:miter;stroke-opacity:1"/>
<path class="bond-12 atom-12 atom-13" d="M 705.4,187.4 L 724.6,176.6" style="fill:none;fill-rule:evenodd;stroke:#000000;stroke-width:2.0px;stroke-linecap:butt;stroke-linejoin:miter;stroke-opacity:1"/>
<path class="legend" d="M 568.2 365.4 L 568.4 366.5 Q 569.2 365.3, 570.7 365.3 Q 571.1 365.3, 571.7 365.4 L 571.5 366.8 Q 570.8 366.6, 570.4 366.6 Q 569.7 366.6, 569.3 366.9 Q 568.8 367.1, 568.5 367.8 L 568.5 373.6 L 567.0 373.6 L 567.0 365.4 L 568.2 365.4 " fill="#000000"/>
<path class="legend" d="M 572.0 369.5 Q 572.0 367.5, 573.0 366.4 Q 574.0 365.3, 575.8 365.3 Q 577.6 365.3, 578.4 366.4 Q 579.2 367.4, 579.2 369.5 L 579.2 369.7 L 573.5 369.7 Q 573.5 371.1, 574.1 371.8 Q 574.8 372.6, 575.9 372.6 Q 576.6 372.6, 577.2 372.4 Q 577.8 372.3, 578.5 372.0 L 578.9 373.0 Q 578.1 373.4, 577.4 373.6 Q 576.6 373.8, 575.9 373.8 Q 574.0 373.8, 573.0 372.6 Q 572.0 371.5, 572.0 369.5 M 575.8 366.4 Q 574.9 366.4, 574.3 367.0 Q 573.7 367.5, 573.6 368.6 L 577.6 368.6 Q 577.5 367.5, 577.1 367.0 Q 576.6 366.4, 575.8 366.4 " fill="#000000"/>
<path class="legend" d="M 579.8 371.4 Q 579.8 370.1, 580.9 369.4 Q 582.0 368.7, 583.9 368.7 L 585.1 368.7 L 585.1 368.3 Q 585.1 367.3, 584.7 366.9 Q 584.3 366.4, 583.2 366.4 Q 582.6 366.4, 582.1 366.6 Q 581.6 366.7, 580.8 367.0 L 580.3 366.0 Q 581.8 365.3, 583.3 365.3 Q 585.0 365.3, 585.8 366.0 Q 586.6 366.8, 586.6 368.4 L 586.6 373.6 L 585.4 373.6 Q 585.4 373.6, 585.4 373.3 Q 585.3 373.1, 585.2 372.7 Q 584.1 373.8, 582.5 373.8 Q 581.3 373.8, 580.6 373.2 Q 579.8 372.5, 579.8 371.4 M 581.3 371.4 Q 581.3 372.0, 581.7 372.3 Q 582.1 372.6, 582.8 372.6 Q 583.5 372.6, 584.1 372.4 Q 584.7 372.0, 585.1 371.5 L 585.1 369.8 L 584.0 369.8 Q 582.7 369.8, 582.0 370.2 Q 581.3 370.6, 581.3 371.4 " fill="#000000"/>
<path class="legend" d="M 587.8 369.5 Q 587.8 367.5, 588.8 366.4 Q 589.8 365.3, 591.8 365.3 Q 593.6 365.3, 594.6 366.6 L 593.6 367.4 Q 593.2 366.9, 592.8 366.7 Q 592.4 366.4, 591.8 366.4 Q 590.6 366.4, 590.0 367.2 Q 589.4 368.0, 589.4 369.5 Q 589.4 371.0, 590.0 371.8 Q 590.7 372.6, 591.9 372.6 Q 592.5 372.6, 593.0 372.4 Q 593.5 372.3, 594.0 372.0 L 594.5 373.0 Q 593.3 373.7, 591.8 373.7 Q 589.8 373.7, 588.8 372.6 Q 587.8 371.5, 587.8 369.5 " fill="#000000"/>
<path class="legend" d="M 595.0 366.6 L 595.0 365.4 L 596.6 365.4 L 596.8 363.0 L 598.0 363.0 L 598.0 365.4 L 600.5 365.4 L 600.5 366.6 L 598.0 366.6 L 598.0 371.1 Q 598.0 372.5, 599.2 372.5 Q 599.6 372.5, 600.3 372.3 L 600.6 373.4 Q 599.7 373.7, 598.9 373.7 Q 597.8 373.7, 597.1 373.1 Q 596.4 372.4, 596.4 371.2 L 596.4 366.6 L 595.0 366.6 " fill="#000000"/>
<path class="legend" d="M 609.2 374.4 L 609.2 375.7 L 601.0 375.7 L 601.0 374.4 L 609.2 374.4 " fill="#000000"/>
<path class="legend" d="M 613.3 366.5 Q 614.3 366.5, 615.1 367.0 Q 615.9 367.4, 616.4 368.2 Q 616.8 369.0, 616.8 370.0 Q 616.8 371.2, 616.2 372.1 Q 615.7 372.9, 614.8 373.3 Q 613.8 373.8, 612.8 373.8 Q 611.7 373.8, 610.8 373.4 Q 609.8 373.0, 609.2 372.3 L 610.1 371.3 Q 610.6 371.8, 611.4 372.2 Q 612.1 372.5, 612.8 372.5 Q 613.8 372.5, 614.5 371.8 Q 615.2 371.2, 615.2 370.1 Q 615.2 368.9, 614.5 368.3 Q 613.8 367.7, 612.7 367.7 Q 611.7 367.7, 610.6 368.2 L 609.7 367.8 L 610.3 362.3 L 616.1 362.3 L 616.0 363.6 L 611.6 363.6 L 611.3 366.9 Q 612.3 366.5, 613.3 366.5 " fill="#000000"/>
<path class="legend" d="M 617.6 364.4 Q 618.0 363.4, 619.0 362.8 Q 620.0 362.2, 621.4 362.2 Q 623.1 362.2, 624.1 363.1 Q 625.0 364.0, 625.0 365.7 Q 625.0 367.4, 623.8 368.9 Q 622.5 370.5, 620.0 372.4 L 625.2 372.4 L 625.2 373.6 L 617.6 373.6 L 617.6 372.6 Q 619.7 371.1, 620.9 369.9 Q 622.2 368.8, 622.8 367.8 Q 623.4 366.8, 623.4 365.8 Q 623.4 364.7, 622.9 364.1 Q 622.3 363.5, 621.4 363.5 Q 620.5 363.5, 619.9 363.8 Q 619.3 364.2, 618.8 365.0 L 617.6 364.4 " fill="#000000"/>
<path class="legend" d="M 626.8 372.4 L 629.3 372.4 L 629.3 363.9 L 626.5 364.7 L 626.2 363.8 L 629.6 362.2 L 630.8 362.4 L 630.8 372.4 L 633.0 372.4 L 633.0 373.6 L 626.8 373.6 L 626.8 372.4 " fill="#000000"/>
<path class="legend" d="M 536.6 383.8 Q 536.6 381.8, 537.6 380.7 Q 538.5 379.5, 540.5 379.5 Q 542.4 379.5, 543.3 380.9 L 542.3 381.6 Q 542.0 381.2, 541.5 380.9 Q 541.1 380.7, 540.5 380.7 Q 539.4 380.7, 538.7 381.5 Q 538.1 382.3, 538.1 383.8 Q 538.1 385.3, 538.7 386.1 Q 539.4 386.8, 540.6 386.8 Q 541.3 386.8, 541.7 386.7 Q 542.2 386.5, 542.8 386.3 L 543.2 387.3 Q 542.0 388.0, 540.5 388.0 Q 538.5 388.0, 537.6 386.9 Q 536.6 385.7, 536.6 383.8 " fill="#000000"/>
<path class="legend" d="M 543.7 383.8 Q 543.7 381.7, 544.7 380.6 Q 545.7 379.5, 547.6 379.5 Q 549.4 379.5, 550.2 380.6 Q 551.0 381.7, 551.0 383.7 L 551.0 384.0 L 545.3 384.0 Q 545.3 385.4, 545.9 386.1 Q 546.5 386.8, 547.7 386.8 Q 548.4 386.8, 548.9 386.7 Q 549.5 386.5, 550.3 386.2 L 550.7 387.2 Q 549.9 387.6, 549.1 387.8 Q 548.4 388.0, 547.6 388.0 Q 545.8 388.0, 544.8 386.9 Q 543.7 385.8, 543.7 383.8 M 547.6 380.7 Q 546.6 380.7, 546.1 381.2 Q 545.5 381.8, 545.3 382.8 L 549.4 382.8 Q 549.3 381.7, 548.9 381.2 Q 548.4 380.7, 547.6 380.7 " fill="#000000"/>
<path class="legend" d="M 555.9 379.5 Q 557.2 379.5, 557.9 380.3 Q 558.6 381.0, 558.6 382.4 L 558.6 387.9 L 557.1 387.9 L 557.1 382.6 Q 557.1 381.6, 556.7 381.2 Q 556.4 380.7, 555.5 380.7 Q 554.8 380.7, 554.1 381.1 Q 553.5 381.4, 553.1 382.0 L 553.1 387.9 L 551.6 387.9 L 551.6 379.7 L 552.9 379.7 L 553.0 380.8 Q 554.1 379.5, 555.9 379.5 " fill="#000000"/>
<path class="legend" d="M 559.8 380.8 L 559.8 379.7 L 561.4 379.7 L 561.7 377.3 L 562.8 377.3 L 562.8 379.7 L 565.3 379.7 L 565.3 380.8 L 562.8 380.8 L 562.8 385.4 Q 562.8 386.8, 564.0 386.8 Q 564.5 386.8, 565.2 386.6 L 565.4 387.6 Q 564.5 388.0, 563.7 388.0 Q 562.6 388.0, 562.0 387.3 Q 561.3 386.7, 561.3 385.4 L 561.3 380.8 L 559.8 380.8 " fill="#000000"/>
<path class="legend" d="M 574.0 388.7 L 574.0 390.0 L 565.8 390.0 L 565.8 388.7 L 574.0 388.7 " fill="#000000"/>
<path class="legend" d="M 581.5 375.7 L 581.5 387.9 L 580.2 387.9 L 580.0 386.9 Q 579.1 388.0, 577.6 388.0 Q 575.9 388.0, 574.9 387.0 Q 574.0 385.9, 574.0 383.9 Q 574.0 381.8, 575.1 380.7 Q 576.2 379.5, 578.2 379.5 Q 579.1 379.5, 580.0 379.7 L 580.0 375.7 L 581.5 375.7 M 577.7 386.8 Q 578.5 386.8, 579.1 386.4 Q 579.7 385.9, 580.0 385.1 L 580.0 380.9 Q 579.1 380.7, 578.2 380.7 Q 577.0 380.7, 576.2 381.6 Q 575.5 382.4, 575.5 383.9 Q 575.5 385.3, 576.1 386.1 Q 576.7 386.8, 577.7 386.8 " fill="#000000"/>
<path class="legend" d="M 582.7 376.6 L 584.2 376.6 L 584.2 378.0 L 582.7 378.0 L 582.7 376.6 M 582.7 379.7 L 584.2 379.7 L 584.2 387.9 L 582.7 387.9 L 582.7 379.7 " fill="#000000"/>
<path class="legend" d="M 586.1 386.2 Q 586.8 386.5, 587.3 386.6 Q 587.8 386.8, 588.4 386.8 Q 589.1 386.8, 589.5 386.5 Q 589.9 386.2, 589.9 385.6 Q 589.9 385.2, 589.7 385.0 Q 589.5 384.8, 589.2 384.6 Q 588.9 384.5, 588.2 384.3 Q 588.1 384.3, 587.4 384.0 Q 586.6 383.7, 586.2 383.2 Q 585.9 382.7, 585.9 381.9 Q 585.9 380.9, 586.6 380.2 Q 587.4 379.5, 588.9 379.5 Q 589.5 379.5, 590.1 379.7 Q 590.6 379.8, 591.2 380.0 L 590.8 381.2 Q 590.3 381.0, 589.8 380.9 Q 589.4 380.8, 588.9 380.8 Q 588.1 380.8, 587.7 381.1 Q 587.4 381.4, 587.4 381.8 Q 587.4 382.3, 587.7 382.5 Q 588.0 382.7, 588.6 383.0 Q 588.8 383.0, 589.0 383.1 L 589.3 383.2 Q 590.0 383.4, 590.4 383.7 Q 590.8 383.9, 591.1 384.4 Q 591.4 384.8, 591.4 385.6 Q 591.4 386.7, 590.6 387.4 Q 589.7 388.0, 588.4 388.0 Q 587.6 388.0, 586.9 387.9 Q 586.3 387.7, 585.6 387.4 L 586.1 386.2 " fill="#000000"/>
<path class="legend" d="M 592.3 380.8 L 592.3 379.7 L 593.8 379.7 L 594.1 377.3 L 595.2 377.3 L 595.2 379.7 L 597.7 379.7 L 597.7 380.8 L 595.2 380.8 L 595.2 385.4 Q 595.2 386.8, 596.4 386.8 Q 596.9 386.8, 597.6 386.6 L 597.8 387.6 Q 597.0 388.0, 596.1 388.0 Q 595.1 388.0, 594.4 387.3 Q 593.7 386.7, 593.7 385.4 L 593.7 380.8 L 592.3 380.8 " fill="#000000"/>
<path class="legend" d="" fill="#000000"/>
<path class="legend" d="M 603.6 380.9 L 610.9 380.9 L 610.9 382.1 L 603.6 382.1 L 603.6 380.9 M 603.6 384.4 L 610.9 384.4 L 610.9 385.5 L 603.6 385.5 L 603.6 384.4 " fill="#000000"/>
<path class="legend" d="" fill="#000000"/>
<path class="legend" d="M 621.8 388.0 Q 619.8 388.0, 618.7 386.5 Q 617.7 384.9, 617.7 382.2 Q 617.7 379.5, 618.7 378.0 Q 619.7 376.4, 621.8 376.4 Q 623.9 376.4, 625.0 378.0 Q 626.0 379.5, 626.0 382.2 Q 626.0 384.9, 624.9 386.5 Q 623.9 388.0, 621.8 388.0 M 621.8 386.7 Q 623.1 386.7, 623.7 385.6 Q 624.4 384.4, 624.4 382.2 Q 624.4 380.0, 623.7 378.8 Q 623.1 377.7, 621.8 377.7 Q 620.6 377.7, 619.9 378.8 Q 619.3 380.0, 619.3 382.2 Q 619.3 384.4, 619.9 385.6 Q 620.6 386.7, 621.8 386.7 " fill="#000000"/>
<path class="legend" d="M 627.0 386.3 L 628.6 386.3 L 628.6 387.9 L 627.0 387.9 L 627.0 386.3 " fill="#000000"/>
<path class="legend" d="M 633.8 380.8 Q 634.8 380.8, 635.6 381.2 Q 636.4 381.6, 636.9 382.4 Q 637.3 383.2, 637.3 384.3 Q 637.3 385.5, 636.7 386.3 Q 636.2 387.2, 635.3 387.6 Q 634.3 388.0, 633.3 388.0 Q 632.2 388.0, 631.3 387.6 Q 630.3 387.2, 629.7 386.5 L 630.6 385.5 Q 631.1 386.1, 631.9 386.4 Q 632.6 386.7, 633.3 386.7 Q 634.3 386.7, 635.0 386.1 Q 635.7 385.5, 635.7 384.3 Q 635.7 383.1, 635.0 382.6 Q 634.3 382.0, 633.2 382.0 Q 632.2 382.0, 631.1 382.4 L 630.3 382.0 L 630.8 376.6 L 636.6 376.6 L 636.5 377.8 L 632.1 377.8 L 631.8 381.2 Q 632.8 380.8, 633.8 380.8 " fill="#000000"/>
<path class="legend" d="M 644.0 377.8 L 638.1 377.8 L 638.1 376.6 L 645.6 376.6 L 645.6 377.7 L 641.0 387.9 L 639.5 387.9 L 644.0 377.8 " fill="#000000"/>
<path class="legend" d="M 653.4 384.0 L 654.8 384.0 L 654.8 385.3 L 653.4 385.3 L 653.4 387.9 L 651.9 387.9 L 651.9 385.3 L 646.1 385.3 L 646.1 384.3 L 651.0 376.6 L 653.4 376.6 L 653.4 384.0 M 647.9 384.0 L 651.9 384.0 L 651.9 377.6 L 647.9 384.0 " fill="#000000"/>
<path class="legend" d="M 660.0 380.8 Q 661.0 380.8, 661.8 381.2 Q 662.6 381.7, 663.0 382.5 Q 663.4 383.2, 663.4 384.2 Q 663.4 385.3, 662.9 386.2 Q 662.5 387.1, 661.6 387.5 Q 660.7 388.0, 659.6 388.0 Q 657.6 388.0, 656.6 386.7 Q 655.6 385.3, 655.6 382.6 Q 655.6 379.6, 656.8 378.0 Q 658.1 376.4, 660.5 376.4 Q 661.2 376.4, 661.8 376.6 Q 662.4 376.8, 663.0 377.1 L 662.4 378.2 Q 661.5 377.7, 660.5 377.7 Q 658.9 377.7, 658.1 378.8 Q 657.3 379.8, 657.2 381.9 Q 657.8 381.4, 658.5 381.1 Q 659.2 380.8, 660.0 380.8 M 659.6 386.7 Q 660.3 386.7, 660.7 386.4 Q 661.3 386.1, 661.5 385.5 Q 661.8 384.9, 661.8 384.3 Q 661.8 383.2, 661.3 382.7 Q 660.7 382.1, 659.7 382.1 Q 659.0 382.1, 658.3 382.4 Q 657.7 382.7, 657.2 383.1 Q 657.3 385.0, 657.9 385.9 Q 658.4 386.7, 659.6 386.7 " fill="#000000"/>
<path class="bond-0 atom-0 atom-1" d="M 883.5,182.6 L 903.0,172.3" style="fill:none;fill-rule:evenodd;stroke:#000000;stroke-width:2.0px;stroke-linecap:butt;stroke-linejoin:miter;stroke-opacity:1"/>
<path class="bond-0 atom-0 atom-1" d="M 885.6,186.5 L 905.1,176.2" style="fill:none;fill-rule:evenodd;stroke:#000000;stroke-width:2.0px;stroke-linecap:butt;stroke-linejoin:miter;stroke-opacity:1"/>
<path class="bond-1 atom-1 atom-2" d="M 904.0,174.2 L 922.7,186.0" style="fill:none;fill-rule:evenodd;stroke:#000000;stroke-width:2.0px;stroke-linecap:butt;stroke-linejoin:miter;stroke-opacity:1"/>
<path class="bond-2 atom-2 atom-3" d="M 922.7,186.0 L 942.1,175.7" style="fill:none;fill-rule:evenodd;stroke:#000000;stroke-width:2.0px;stroke-linecap:butt;stroke-linejoin:miter;stroke-opacity:1"/>
<path class="bond-3 atom-3 atom-4" d="M 942.1,175.7 L 960.8,187.4" style="fill:none;fill-rule:evenodd;stroke:#000000;stroke-width:2.0px;stroke-linecap:butt;stroke-linejoin:miter;stroke-opacity:1"/>
<path class="bond-4 atom-4 atom-5" d="M 960.8,187.4 L 980.3,177.2" style="fill:none;fill-rule:evenodd;stroke:#000000;stroke-width:2.0px;stroke-linecap:butt;stroke-linejoin:miter;stroke-opacity:1"/>
<path class="bond-5 atom-5 atom-6" d="M 980.3,177.2 L 998.9,188.9" style="fill:none;fill-rule:evenodd;stroke:#000000;stroke-width:2.0px;stroke-linecap:butt;stroke-linejoin:miter;stroke-opacity:1"/>
<path class="bond-6 atom-6 atom-7" d="M 998.9,188.9 L 1018.4,178.6" style="fill:none;fill-rule:evenodd;stroke:#000000;stroke-width:2.0px;stroke-linecap:butt;stroke-linejoin:miter;stroke-opacity:1"/>
<path class="bond-7 atom-7 atom-8" d="M 1018.4,178.6 L 1037.0,190.4" style="fill:none;fill-rule:evenodd;stroke:#000000;stroke-width:2.0px;stroke-linecap:butt;stroke-linejoin:miter;stroke-opacity:1"/>
<path class="bond-8 atom-8 atom-9" d="M 1037.0,190.4 L 1056.5,180.1" style="fill:none;fill-rule:evenodd;stroke:#000000;stroke-width:2.0px;stroke-linecap:butt;stroke-linejoin:miter;stroke-opacity:1"/>
<path class="bond-9 atom-9 atom-10" d="M 1056.5,180.1 L 1075.2,191.8" style="fill:none;fill-rule:evenodd;stroke:#000000;stroke-width:2.0px;stroke-linecap:butt;stroke-linejoin:miter;stroke-opacity:1"/>
<path class="bond-10 atom-10 atom-11" d="M 1075.2,191.8 L 1094.6,181.6" style="fill:none;fill-rule:evenodd;stroke:#000000;stroke-width:2.0px;stroke-linecap:butt;stroke-linejoin:miter;stroke-opacity:1"/>
<path class="bond-11 atom-11 atom-12" d="M 1094.6,181.6 L 1102.8,177.2" style="fill:none;fill-rule:evenodd;stroke:#000000;stroke-width:2.0px;stroke-linecap:butt;stroke-linejoin:miter;stroke-opacity:1"/>
<path class="bond-11 atom-11 atom-12" d="M 1102.8,177.2 L 1111.0,172.9" style="fill:none;fill-rule:evenodd;stroke:#0000FF;stroke-width:2.0px;stroke-linecap:butt;stroke-linejoin:miter;stroke-opacity:1"/>
<path class="bond-11 atom-11 atom-12" d="M 1095.0,176.4 L 1102.0,172.7" style="fill:none;fill-rule:evenodd;stroke:#000000;stroke-width:2.0px;stroke-linecap:butt;stroke-linejoin:miter;stroke-opacity:1"/>
<path class="bond-11 atom-11 atom-12" d="M 1102.0,172.7 L 1109.0,169.0" style="fill:none;fill-rule:evenodd;stroke:#0000FF;stroke-width:2.0px;stroke-linecap:butt;stroke-linejoin:miter;stroke-opacity:1"/>
<path class="bond-11 atom-11 atom-12" d="M 1099.2,184.2 L 1106.1,180.5" style="fill:none;fill-rule:evenodd;stroke:#000000;stroke-width:2.0px;stroke-linecap:butt;stroke-linejoin:miter;stroke-opacity:1"/>
<path class="bond-11 atom-11 atom-12" d="M 1106.1,180.5 L 1113.1,176.8" style="fill:none;fill-rule:evenodd;stroke:#0000FF;stroke-width:2.0px;stroke-linecap:butt;stroke-linejoin:miter;stroke-opacity:1"/>
<path class="atom-12" d="M 1112.7 168.2 L 1114.8 171.5 Q 1115.0 171.8, 1115.3 172.4 Q 1115.6 173.0, 1115.7 173.0 L 1115.7 168.2 L 1116.5 168.2 L 1116.5 174.4 L 1115.6 174.4 L 1113.4 170.8 Q 1113.2 170.4, 1112.9 169.9 Q 1112.6 169.4, 1112.6 169.3 L 1112.6 174.4 L 1111.8 174.4 L 1111.8 168.2 L 1112.7 168.2 " fill="#0000FF"/>
<path class="legend" d="M 971.7 365.4 L 971.9 366.5 Q 972.7 365.3, 974.1 365.3 Q 974.6 365.3, 975.2 365.4 L 975.0 366.8 Q 974.3 366.6, 973.9 366.6 Q 973.2 366.6, 972.8 366.9 Q 972.3 367.1, 972.0 367.8 L 972.0 373.6 L 970.5 373.6 L 970.5 365.4 L 971.7 365.4 " fill="#000000"/>
<path class="legend" d="M 975.4 369.5 Q 975.4 367.5, 976.4 366.4 Q 977.5 365.3, 979.3 365.3 Q 981.1 365.3, 981.9 366.4 Q 982.7 367.4, 982.7 369.5 L 982.7 369.7 L 977.0 369.7 Q 977.0 371.1, 977.6 371.8 Q 978.3 372.6, 979.4 372.6 Q 980.1 372.6, 980.7 372.4 Q 981.2 372.3, 982.0 372.0 L 982.4 373.0 Q 981.6 373.4, 980.8 373.6 Q 980.1 373.8, 979.3 373.8 Q 977.5 373.8, 976.5 372.6 Q 975.4 371.5, 975.4 369.5 M 979.3 366.4 Q 978.4 366.4, 977.8 367.0 Q 977.2 367.5, 977.0 368.6 L 981.1 368.6 Q 981.0 367.5, 980.6 367.0 Q 980.1 366.4, 979.3 366.4 " fill="#000000"/>
<path class="legend" d="M 983.3 371.4 Q 983.3 370.1, 984.4 369.4 Q 985.4 368.7, 987.4 368.7 L 988.6 368.7 L 988.6 368.3 Q 988.6 367.3, 988.2 366.9 Q 987.7 366.4, 986.7 366.4 Q 986.1 366.4, 985.6 366.6 Q 985.0 366.7, 984.2 367.0 L 983.8 366.0 Q 985.3 365.3, 986.8 365.3 Q 988.5 365.3, 989.3 366.0 Q 990.1 366.8, 990.1 368.4 L 990.1 373.6 L 988.9 373.6 Q 988.9 373.6, 988.9 373.3 Q 988.8 373.1, 988.7 372.7 Q 987.6 373.8, 986.0 373.8 Q 984.8 373.8, 984.1 373.2 Q 983.3 372.5, 983.3 371.4 M 984.8 371.4 Q 984.8 372.0, 985.2 372.3 Q 985.6 372.6, 986.3 372.6 Q 987.0 372.6, 987.6 372.4 Q 988.2 372.0, 988.6 371.5 L 988.6 369.8 L 987.5 369.8 Q 986.2 369.8, 985.5 370.2 Q 984.8 370.6, 984.8 371.4 " fill="#000000"/>
<path class="legend" d="M 991.3 369.5 Q 991.3 367.5, 992.3 366.4 Q 993.3 365.3, 995.3 365.3 Q 997.1 365.3, 998.1 366.6 L 997.1 367.4 Q 996.7 366.9, 996.3 366.7 Q 995.8 366.4, 995.3 366.4 Q 994.1 366.4, 993.5 367.2 Q 992.9 368.0, 992.9 369.5 Q 992.9 371.0, 993.5 371.8 Q 994.2 372.6, 995.4 372.6 Q 996.0 372.6, 996.5 372.4 Q 997.0 372.3, 997.5 372.0 L 998.0 373.0 Q 996.8 373.7, 995.2 373.7 Q 993.3 373.7, 992.3 372.6 Q 991.3 371.5, 991.3 369.5 " fill="#000000"/>
<path class="legend" d="M 998.5 366.6 L 998.5 365.4 L 1000.1 365.4 L 1000.3 363.0 L 1001.4 363.0 L 1001.4 365.4 L 1004.0 365.4 L 1004.0 366.6 L 1001.4 366.6 L 1001.4 371.1 Q 1001.4 372.5, 1002.6 372.5 Q 1003.1 372.5, 1003.8 372.3 L 1004.1 373.4 Q 1003.2 373.7, 1002.4 373.7 Q 1001.3 373.7, 1000.6 373.1 Q 999.9 372.4, 999.9 371.2 L 999.9 366.6 L 998.5 366.6 " fill="#000000"/>
<path class="legend" d="M 1012.6 374.4 L 1012.6 375.7 L 1004.5 375.7 L 1004.5 374.4 L 1012.6 374.4 " fill="#000000"/>
<path class="legend" d="M 1012.7 364.4 Q 1013.1 363.4, 1014.1 362.8 Q 1015.1 362.2, 1016.4 362.2 Q 1018.2 362.2, 1019.1 363.1 Q 1020.1 364.0, 1020.1 365.7 Q 1020.1 367.4, 1018.8 368.9 Q 1017.6 370.5, 1015.0 372.4 L 1020.3 372.4 L 1020.3 373.6 L 1012.6 373.6 L 1012.6 372.6 Q 1014.8 371.1, 1016.0 369.9 Q 1017.3 368.8, 1017.9 367.8 Q 1018.5 366.8, 1018.5 365.8 Q 1018.5 364.7, 1017.9 364.1 Q 1017.4 363.5, 1016.4 363.5 Q 1015.5 363.5, 1014.9 363.8 Q 1014.3 364.2, 1013.9 365.0 L 1012.7 364.4 " fill="#000000"/>
<path class="legend" d="M 1025.4 373.8 Q 1023.3 373.8, 1022.3 372.2 Q 1021.2 370.7, 1021.2 368.0 Q 1021.2 365.2, 1022.3 363.7 Q 1023.3 362.2, 1025.4 362.2 Q 1027.5 362.2, 1028.5 363.7 Q 1029.5 365.2, 1029.5 368.0 Q 1029.5 370.7, 1028.5 372.2 Q 1027.5 373.8, 1025.4 373.8 M 1025.4 372.5 Q 1026.6 372.5, 1027.3 371.3 Q 1027.9 370.2, 1027.9 368.0 Q 1027.9 365.7, 1027.3 364.6 Q 1026.6 363.5, 1025.4 363.5 Q 1024.2 363.5, 1023.5 364.6 Q 1022.8 365.7, 1022.8 368.0 Q 1022.8 370.2, 1023.5 371.3 Q 1024.2 372.5, 1025.4 372.5 " fill="#000000"/>
<path class="legend" d="M 935.7 383.8 Q 935.7 381.8, 936.7 380.7 Q 937.7 379.5, 939.6 379.5 Q 941.5 379.5, 942.5 380.9 L 941.5 381.6 Q 941.1 381.2, 940.6 380.9 Q 940.2 380.7, 939.6 380.7 Q 938.5 380.7, 937.8 381.5 Q 937.2 382.3, 937.2 383.8 Q 937.2 385.3, 937.9 386.1 Q 938.5 386.8, 939.7 386.8 Q 940.4 386.8, 940.9 386.7 Q 941.3 386.5, 941.9 386.3 L 942.3 387.3 Q 941.1 388.0, 939.6 388.0 Q 937.7 388.0, 936.7 386.9 Q 935.7 385.7, 935.7 383.8 " fill="#000000"/>
<path class="legend" d="M 942.9 383.8 Q 942.9 381.7, 943.9 380.6 Q 944.9 379.5, 946.7 379.5 Q 948.5 379.5, 949.3 380.6 Q 950.1 381.7, 950.1 383.7 L 950.1 384.0 L 944.4 384.0 Q 944.4 385.4, 945.0 386.1 Q 945.7 386.8, 946.8 386.8 Q 947.5 386.8, 948.1 386.7 Q 948.7 386.5, 949.4 386.2 L 949.8 387.2 Q 949.0 387.6, 948.3 387.8 Q 947.5 388.0, 946.8 388.0 Q 944.9 388.0, 943.9 386.9 Q 942.9 385.8, 942.9 383.8 M 946.7 380.7 Q 945.8 380.7, 945.2 381.2 Q 944.6 381.8, 944.5 382.8 L 948.5 382.8 Q 948.4 381.7, 948.0 381.2 Q 947.5 380.7, 946.7 380.7 " fill="#000000"/>
<path class="legend" d="M 955.0 379.5 Q 956.3 379.5, 957.0 380.3 Q 957.7 381.0, 957.7 382.4 L 957.7 387.9 L 956.2 387.9 L 956.2 382.6 Q 956.2 381.6, 955.8 381.2 Q 955.5 380.7, 954.6 380.7 Q 953.9 380.7, 953.3 381.1 Q 952.6 381.4, 952.2 382.0 L 952.2 387.9 L 950.7 387.9 L 950.7 379.7 L 952.0 379.7 L 952.1 380.8 Q 953.3 379.5, 955.0 379.5 " fill="#000000"/>
<path class="legend" d="M 959.0 380.8 L 959.0 379.7 L 960.5 379.7 L 960.8 377.3 L 961.9 377.3 L 961.9 379.7 L 964.4 379.7 L 964.4 380.8 L 961.9 380.8 L 961.9 385.4 Q 961.9 386.8, 963.1 386.8 Q 963.6 386.8, 964.3 386.6 L 964.5 387.6 Q 963.7 388.0, 962.8 388.0 Q 961.8 388.0, 961.1 387.3 Q 960.4 386.7, 960.4 385.4 L 960.4 380.8 L 959.0 380.8 " fill="#000000"/>
<path class="legend" d="M 973.1 388.7 L 973.1 390.0 L 964.9 390.0 L 964.9 388.7 L 973.1 388.7 " fill="#000000"/>
<path class="legend" d="M 980.6 375.7 L 980.6 387.9 L 979.4 387.9 L 979.2 386.9 Q 978.2 388.0, 976.7 388.0 Q 975.0 388.0, 974.1 387.0 Q 973.1 385.9, 973.1 383.9 Q 973.1 381.8, 974.2 380.7 Q 975.4 379.5, 977.3 379.5 Q 978.2 379.5, 979.1 379.7 L 979.1 375.7 L 980.6 375.7 M 976.8 386.8 Q 977.7 386.8, 978.2 386.4 Q 978.9 385.9, 979.1 385.1 L 979.1 380.9 Q 978.3 380.7, 977.3 380.7 Q 976.1 380.7, 975.4 381.6 Q 974.6 382.4, 974.6 383.9 Q 974.6 385.3, 975.2 386.1 Q 975.8 386.8, 976.8 386.8 " fill="#000000"/>
<path class="legend" d="M 981.9 376.6 L 983.3 376.6 L 983.3 378.0 L 981.9 378.0 L 981.9 376.6 M 981.9 379.7 L 983.3 379.7 L 983.3 387.9 L 981.9 387.9 L 981.9 379.7 " fill="#000000"/>
<path class="legend" d="M 985.2 386.2 Q 985.9 386.5, 986.4 386.6 Q 986.9 386.8, 987.5 386.8 Q 988.2 386.8, 988.6 386.5 Q 989.0 386.2, 989.0 385.6 Q 989.0 385.2, 988.8 385.0 Q 988.6 384.8, 988.3 384.6 Q 988.1 384.5, 987.3 384.3 Q 987.2 384.3, 986.5 384.0 Q 985.8 383.7, 985.4 383.2 Q 985.0 382.7, 985.0 381.9 Q 985.0 380.9, 985.7 380.2 Q 986.5 379.5, 988.0 379.5 Q 988.6 379.5, 989.2 379.7 Q 989.7 379.8, 990.3 380.0 L 989.9 381.2 Q 989.4 381.0, 988.9 380.9 Q 988.5 380.8, 988.0 380.8 Q 987.3 380.8, 986.9 381.1 Q 986.5 381.4, 986.5 381.8 Q 986.5 382.3, 986.8 382.5 Q 987.1 382.7, 987.8 383.0 Q 987.9 383.0, 988.1 383.1 L 988.5 383.2 Q 989.1 383.4, 989.5 383.7 Q 990.0 383.9, 990.2 384.4 Q 990.5 384.8, 990.5 385.6 Q 990.5 386.7, 989.7 387.4 Q 988.9 388.0, 987.5 388.0 Q 986.7 388.0, 986.1 387.9 Q 985.4 387.7, 984.7 387.4 L 985.2 386.2 " fill="#000000"/>
<path class="legend" d="M 991.4 380.8 L 991.4 379.7 L 992.9 379.7 L 993.2 377.3 L 994.3 377.3 L 994.3 379.7 L 996.8 379.7 L 996.8 380.8 L 994.3 380.8 L 994.3 385.4 Q 994.3 386.8, 995.5 386.8 Q 996.0 386.8, 996.7 386.6 L 997.0 387.6 Q 996.1 388.0, 995.3 388.0 Q 994.2 388.0, 993.5 387.3 Q 992.8 386.7, 992.8 385.4 L 992.8 380.8 L 991.4 380.8 " fill="#000000"/>
<path class="legend" d="" fill="#000000"/>
<path class="legend" d="M 1002.7 380.9 L 1010.0 380.9 L 1010.0 382.1 L 1002.7 382.1 L 1002.7 380.9 M 1002.7 384.4 L 1010.0 384.4 L 1010.0 385.5 L 1002.7 385.5 L 1002.7 384.4 " fill="#000000"/>
<path class="legend" d="" fill="#000000"/>
<path class="legend" d="M 1021.0 388.0 Q 1018.9 388.0, 1017.8 386.5 Q 1016.8 384.9, 1016.8 382.2 Q 1016.8 379.5, 1017.8 378.0 Q 1018.9 376.4, 1021.0 376.4 Q 1023.1 376.4, 1024.1 378.0 Q 1025.1 379.5, 1025.1 382.2 Q 1025.1 384.9, 1024.1 386.5 Q 1023.0 388.0, 1021.0 388.0 M 1021.0 386.7 Q 1022.2 386.7, 1022.8 385.6 Q 1023.5 384.4, 1023.5 382.2 Q 1023.5 380.0, 1022.8 378.8 Q 1022.2 377.7, 1021.0 377.7 Q 1019.7 377.7, 1019.1 378.8 Q 1018.4 380.0, 1018.4 382.2 Q 1018.4 384.4, 1019.1 385.6 Q 1019.7 386.7, 1021.0 386.7 " fill="#000000"/>
<path class="legend" d="M 1026.1 386.3 L 1027.7 386.3 L 1027.7 387.9 L 1026.1 387.9 L 1026.1 386.3 " fill="#000000"/>
<path class="legend" d="M 1033.2 380.8 Q 1034.2 380.8, 1035.0 381.2 Q 1035.8 381.7, 1036.2 382.5 Q 1036.6 383.2, 1036.6 384.2 Q 1036.6 385.3, 1036.1 386.2 Q 1035.7 387.1, 1034.8 387.5 Q 1033.9 388.0, 1032.8 388.0 Q 1030.8 388.0, 1029.8 386.7 Q 1028.8 385.3, 1028.8 382.6 Q 1028.8 379.6, 1030.0 378.0 Q 1031.3 376.4, 1033.7 376.4 Q 1034.4 376.4, 1035.0 376.6 Q 1035.6 376.8, 1036.2 377.1 L 1035.6 378.2 Q 1034.7 377.7, 1033.7 377.7 Q 1032.1 377.7, 1031.3 378.8 Q 1030.5 379.8, 1030.4 381.9 Q 1031.0 381.4, 1031.7 381.1 Q 1032.4 380.8, 1033.2 380.8 M 1032.8 386.7 Q 1033.5 386.7, 1033.9 386.4 Q 1034.5 386.1, 1034.7 385.5 Q 1035.0 384.9, 1035.0 384.3 Q 1035.0 383.2, 1034.5 382.7 Q 1033.9 382.1, 1032.9 382.1 Q 1032.2 382.1, 1031.5 382.4 Q 1030.9 382.7, 1030.4 383.1 Q 1030.5 385.0, 1031.1 385.9 Q 1031.6 386.7, 1032.8 386.7 " fill="#000000"/>
<path class="legend" d="M 1044.9 384.0 L 1046.2 384.0 L 1046.2 385.3 L 1044.9 385.3 L 1044.9 387.9 L 1043.4 387.9 L 1043.4 385.3 L 1037.5 385.3 L 1037.5 384.3 L 1042.5 376.6 L 1044.9 376.6 L 1044.9 384.0 M 1039.4 384.0 L 1043.4 384.0 L 1043.4 377.6 L 1039.4 384.0 " fill="#000000"/>
<path class="legend" d="M 1052.8 381.9 Q 1053.8 382.3, 1054.4 383.0 Q 1055.0 383.7, 1055.0 384.8 Q 1055.0 385.7, 1054.5 386.5 Q 1054.0 387.2, 1053.1 387.6 Q 1052.3 388.0, 1051.1 388.0 Q 1049.2 388.0, 1048.1 387.2 Q 1047.0 386.3, 1047.0 384.8 Q 1047.0 383.9, 1047.5 383.2 Q 1048.0 382.5, 1049.0 381.9 Q 1048.2 381.5, 1047.8 380.9 Q 1047.4 380.3, 1047.4 379.3 Q 1047.4 378.0, 1048.4 377.2 Q 1049.4 376.4, 1051.0 376.4 Q 1052.7 376.4, 1053.6 377.2 Q 1054.6 378.0, 1054.6 379.3 Q 1054.6 380.2, 1054.1 380.8 Q 1053.7 381.4, 1052.8 381.9 M 1051.0 377.6 Q 1050.1 377.6, 1049.5 378.1 Q 1049.0 378.5, 1049.0 379.3 Q 1049.0 379.9, 1049.4 380.3 Q 1049.7 380.7, 1050.2 380.9 Q 1050.7 381.2, 1051.7 381.5 Q 1052.4 381.0, 1052.7 380.5 Q 1053.0 380.0, 1053.0 379.3 Q 1053.0 378.5, 1052.5 378.1 Q 1052.0 377.6, 1051.0 377.6 M 1051.1 386.8 Q 1052.1 386.8, 1052.8 386.3 Q 1053.4 385.7, 1053.4 384.8 Q 1053.4 384.2, 1053.1 383.8 Q 1052.7 383.4, 1052.2 383.2 Q 1051.7 382.9, 1050.8 382.7 L 1050.1 382.4 Q 1049.3 382.9, 1049.0 383.5 Q 1048.6 384.0, 1048.6 384.8 Q 1048.6 385.7, 1049.3 386.3 Q 1050.0 386.8, 1051.1 386.8 " fill="#000000"/>
<path class="legend" d="M 1060.2 388.0 Q 1058.1 388.0, 1057.1 386.5 Q 1056.0 384.9, 1056.0 382.2 Q 1056.0 379.5, 1057.1 378.0 Q 1058.1 376.4, 1060.2 376.4 Q 1062.3 376.4, 1063.3 378.0 Q 1064.3 379.5, 1064.3 382.2 Q 1064.3 384.9, 1063.3 386.5 Q 1062.3 388.0, 1060.2 388.0 M 1060.2 386.7 Q 1061.4 386.7, 1062.1 385.6 Q 1062.7 384.4, 1062.7 382.2 Q 1062.7 380.0, 1062.1 378.8 Q 1061.4 377.7, 1060.2 377.7 Q 1059.0 377.7, 1058.3 378.8 Q 1057.6 380.0, 1057.6 382.2 Q 1057.6 384.4, 1058.3 385.6 Q 1059.0 386.7, 1060.2 386.7 " fill="#000000"/>
<path class="bond-0 atom-0 atom-1" d="M 1218.2,188.4 L 1237.5,177.7" style="fill:none;fill-rule:evenodd;stroke:#000000;stroke-width:2.0px;stroke-linecap:butt;stroke-linejoin:miter;stroke-opacity:1"/>
<path class="bond-0 atom-0 atom-1" d="M 1220.3,192.2 L 1239.6,181.6" style="fill:none;fill-rule:evenodd;stroke:#000000;stroke-width:2.0px;stroke-linecap:butt;stroke-linejoin:miter;stroke-opacity:1"/>
<path class="bond-1 atom-1 atom-2" d="M 1238.5,179.7 L 1257.4,191.0" style="fill:none;fill-rule:evenodd;stroke:#000000;stroke-width:2.0px;stroke-linecap:butt;stroke-linejoin:miter;stroke-opacity:1"/>
<path class="bond-2 atom-2 atom-3" d="M 1257.4,191.0 L 1276.7,180.4" style="fill:none;fill-rule:evenodd;stroke:#000000;stroke-width:2.0px;stroke-linecap:butt;stroke-linejoin:miter;stroke-opacity:1"/>
<path class="bond-3 atom-3 atom-4" d="M 1276.7,180.4 L 1295.5,191.7" style="fill:none;fill-rule:evenodd;stroke:#000000;stroke-width:2.0px;stroke-linecap:butt;stroke-linejoin:miter;stroke-opacity:1"/>
<path class="bond-4 atom-4 atom-5" d="M 1295.5,191.7 L 1314.8,181.1" style="fill:none;fill-rule:evenodd;stroke:#000000;stroke-width:2.0px;stroke-linecap:butt;stroke-linejoin:miter;stroke-opacity:1"/>
<path class="bond-5 atom-5 atom-6" d="M 1314.8,181.1 L 1333.7,192.4" style="fill:none;fill-rule:evenodd;stroke:#000000;stroke-width:2.0px;stroke-linecap:butt;stroke-linejoin:miter;stroke-opacity:1"/>
<path class="bond-6 atom-6 atom-7" d="M 1333.7,192.4 L 1353.0,181.8" style="fill:none;fill-rule:evenodd;stroke:#000000;stroke-width:2.0px;stroke-linecap:butt;stroke-linejoin:miter;stroke-opacity:1"/>
<path class="bond-7 atom-7 atom-8" d="M 1353.0,181.8 L 1371.8,193.1" style="fill:none;fill-rule:evenodd;stroke:#000000;stroke-width:2.0px;stroke-linecap:butt;stroke-linejoin:miter;stroke-opacity:1"/>
<path class="bond-8 atom-8 atom-9" d="M 1371.8,193.1 L 1391.1,182.5" style="fill:none;fill-rule:evenodd;stroke:#000000;stroke-width:2.0px;stroke-linecap:butt;stroke-linejoin:miter;stroke-opacity:1"/>
<path class="bond-9 atom-9 atom-10" d="M 1391.1,182.5 L 1410.0,193.8" style="fill:none;fill-rule:evenodd;stroke:#000000;stroke-width:2.0px;stroke-linecap:butt;stroke-linejoin:miter;stroke-opacity:1"/>
<path class="bond-10 atom-10 atom-11" d="M 1410.0,193.8 L 1429.2,183.2" style="fill:none;fill-rule:evenodd;stroke:#000000;stroke-width:2.0px;stroke-linecap:butt;stroke-linejoin:miter;stroke-opacity:1"/>
<path class="bond-11 atom-11 atom-12" d="M 1429.2,183.2 L 1448.1,194.5" style="fill:none;fill-rule:evenodd;stroke:#000000;stroke-width:2.0px;stroke-linecap:butt;stroke-linejoin:miter;stroke-opacity:1"/>
<path class="bond-12 atom-12 atom-13" d="M 1448.1,194.5 L 1467.4,183.9" style="fill:none;fill-rule:evenodd;stroke:#000000;stroke-width:2.0px;stroke-linecap:butt;stroke-linejoin:miter;stroke-opacity:1"/>
<path class="bond-13 atom-13 atom-14" d="M 1467.4,183.9 L 1486.3,195.2" style="fill:none;fill-rule:evenodd;stroke:#000000;stroke-width:2.0px;stroke-linecap:butt;stroke-linejoin:miter;stroke-opacity:1"/>
<path class="bond-14 atom-14 atom-15" d="M 1486.3,195.2 L 1505.5,184.6" style="fill:none;fill-rule:evenodd;stroke:#000000;stroke-width:2.0px;stroke-linecap:butt;stroke-linejoin:miter;stroke-opacity:1"/>
<path class="bond-15 atom-15 atom-16" d="M 1505.5,184.6 L 1524.4,195.9" style="fill:none;fill-rule:evenodd;stroke:#000000;stroke-width:2.0px;stroke-linecap:butt;stroke-linejoin:miter;stroke-opacity:1"/>
<path class="bond-16 atom-16 atom-17" d="M 1524.4,195.9 L 1543.7,185.3" style="fill:none;fill-rule:evenodd;stroke:#000000;stroke-width:2.0px;stroke-linecap:butt;stroke-linejoin:miter;stroke-opacity:1"/>
<path class="bond-17 atom-17 atom-18" d="M 1541.5,185.2 L 1541.6,176.2" style="fill:none;fill-rule:evenodd;stroke:#000000;stroke-width:2.0px;stroke-linecap:butt;stroke-linejoin:miter;stroke-opacity:1"/>
<path class="bond-17 atom-17 atom-18" d="M 1541.6,176.2 L 1541.8,167.2" style="fill:none;fill-rule:evenodd;stroke:#FF0000;stroke-width:2.0px;stroke-linecap:butt;stroke-linejoin:miter;stroke-opacity:1"/>
<path class="bond-17 atom-17 atom-18" d="M 1545.9,185.3 L 1546.0,176.3" style="fill:none;fill-rule:evenodd;stroke:#000000;stroke-width:2.0px;stroke-linecap:butt;stroke-linejoin:miter;stroke-opacity:1"/>
<path class="bond-17 atom-17 atom-18" d="M 1546.0,176.3 L 1546.2,167.3" style="fill:none;fill-rule:evenodd;stroke:#FF0000;stroke-width:2.0px;stroke-linecap:butt;stroke-linejoin:miter;stroke-opacity:1"/>
<path class="bond-18 atom-17 atom-19" d="M 1543.7,185.3 L 1551.3,189.9" style="fill:none;fill-rule:evenodd;stroke:#000000;stroke-width:2.0px;stroke-linecap:butt;stroke-linejoin:miter;stroke-opacity:1"/>
<path class="bond-18 atom-17 atom-19" d="M 1551.3,189.9 L 1559.0,194.5" style="fill:none;fill-rule:evenodd;stroke:#FF0000;stroke-width:2.0px;stroke-linecap:butt;stroke-linejoin:miter;stroke-opacity:1"/>
<path class="bond-19 atom-19 atom-20" d="M 1566.1,194.7 L 1574.0,190.3" style="fill:none;fill-rule:evenodd;stroke:#FF0000;stroke-width:2.0px;stroke-linecap:butt;stroke-linejoin:miter;stroke-opacity:1"/>
<path class="bond-19 atom-19 atom-20" d="M 1574.0,190.3 L 1581.8,186.0" style="fill:none;fill-rule:evenodd;stroke:#000000;stroke-width:2.0px;stroke-linecap:butt;stroke-linejoin:miter;stroke-opacity:1"/>
<path class="atom-18" d="M 1541.2 163.3 Q 1541.2 161.8, 1542.0 160.9 Q 1542.7 160.1, 1544.1 160.1 Q 1545.5 160.1, 1546.2 160.9 Q 1546.9 161.8, 1546.9 163.3 Q 1546.9 164.8, 1546.2 165.7 Q 1545.4 166.5, 1544.1 166.5 Q 1542.7 166.5, 1542.0 165.7 Q 1541.2 164.8, 1541.2 163.3 M 1544.1 165.8 Q 1545.0 165.8, 1545.5 165.2 Q 1546.1 164.5, 1546.1 163.3 Q 1546.1 162.1, 1545.5 161.4 Q 1545.0 160.8, 1544.1 160.8 Q 1543.1 160.8, 1542.6 161.4 Q 1542.1 162.0, 1542.1 163.3 Q 1542.1 164.5, 1542.6 165.2 Q 1543.1 165.8, 1544.1 165.8 " fill="#FF0000"/>
<path class="atom-19" d="M 1559.7 196.7 Q 1559.7 195.2, 1560.4 194.3 Q 1561.2 193.5, 1562.5 193.5 Q 1563.9 193.5, 1564.7 194.3 Q 1565.4 195.2, 1565.4 196.7 Q 1565.4 198.2, 1564.7 199.0 Q 1563.9 199.9, 1562.5 199.9 Q 1561.2 199.9, 1560.4 199.0 Q 1559.7 198.2, 1559.7 196.7 M 1562.5 199.2 Q 1563.5 199.2, 1564.0 198.6 Q 1564.5 197.9, 1564.5 196.7 Q 1564.5 195.4, 1564.0 194.8 Q 1563.5 194.2, 1562.5 194.2 Q 1561.6 194.2, 1561.1 194.8 Q 1560.6 195.4, 1560.6 196.7 Q 1560.6 197.9, 1561.1 198.6 Q 1561.6 199.2, 1562.5 199.2 " fill="#FF0000"/>
<path class="legend" d="M 1371.9 365.4 L 1372.1 366.5 Q 1373.0 365.3, 1374.4 365.3 Q 1374.8 365.3, 1375.4 365.4 L 1375.2 366.8 Q 1374.5 366.6, 1374.1 366.6 Q 1373.4 366.6, 1373.0 366.9 Q 1372.6 367.1, 1372.2 367.8 L 1372.2 373.6 L 1370.7 373.6 L 1370.7 365.4 L 1371.9 365.4 " fill="#000000"/>
<path class="legend" d="M 1375.7 369.5 Q 1375.7 367.5, 1376.7 366.4 Q 1377.7 365.3, 1379.5 365.3 Q 1381.3 365.3, 1382.1 366.4 Q 1382.9 367.4, 1382.9 369.5 L 1382.9 369.7 L 1377.2 369.7 Q 1377.2 371.1, 1377.8 371.8 Q 1378.5 372.6, 1379.6 372.6 Q 1380.3 372.6, 1380.9 372.4 Q 1381.5 372.3, 1382.2 372.0 L 1382.6 373.0 Q 1381.8 373.4, 1381.1 373.6 Q 1380.3 373.8, 1379.6 373.8 Q 1377.7 373.8, 1376.7 372.6 Q 1375.7 371.5, 1375.7 369.5 M 1379.5 366.4 Q 1378.6 366.4, 1378.0 367.0 Q 1377.4 367.5, 1377.3 368.6 L 1381.4 368.6 Q 1381.2 367.5, 1380.8 367.0 Q 1380.3 366.4, 1379.5 366.4 " fill="#000000"/>
<path class="legend" d="M 1383.5 371.4 Q 1383.5 370.1, 1384.6 369.4 Q 1385.7 368.7, 1387.6 368.7 L 1388.8 368.7 L 1388.8 368.3 Q 1388.8 367.3, 1388.4 366.9 Q 1388.0 366.4, 1386.9 366.4 Q 1386.3 366.4, 1385.8 366.6 Q 1385.3 366.7, 1384.5 367.0 L 1384.0 366.0 Q 1385.5 365.3, 1387.0 365.3 Q 1388.7 365.3, 1389.5 366.0 Q 1390.3 366.8, 1390.3 368.4 L 1390.3 373.6 L 1389.1 373.6 Q 1389.1 373.6, 1389.1 373.3 Q 1389.0 373.1, 1388.9 372.7 Q 1387.8 373.8, 1386.2 373.8 Q 1385.0 373.8, 1384.3 373.2 Q 1383.5 372.5, 1383.5 371.4 M 1385.0 371.4 Q 1385.0 372.0, 1385.4 372.3 Q 1385.8 372.6, 1386.5 372.6 Q 1387.2 372.6, 1387.8 372.4 Q 1388.4 372.0, 1388.8 371.5 L 1388.8 369.8 L 1387.7 369.8 Q 1386.4 369.8, 1385.7 370.2 Q 1385.0 370.6, 1385.0 371.4 " fill="#000000"/>
<path class="legend" d="M 1391.5 369.5 Q 1391.5 367.5, 1392.5 366.4 Q 1393.5 365.3, 1395.5 365.3 Q 1397.4 365.3, 1398.3 366.6 L 1397.3 367.4 Q 1396.9 366.9, 1396.5 366.7 Q 1396.1 366.4, 1395.5 366.4 Q 1394.3 366.4, 1393.7 367.2 Q 1393.1 368.0, 1393.1 369.5 Q 1393.1 371.0, 1393.7 371.8 Q 1394.4 372.6, 1395.6 372.6 Q 1396.2 372.6, 1396.7 372.4 Q 1397.2 372.3, 1397.8 372.0 L 1398.2 373.0 Q 1397.0 373.7, 1395.5 373.7 Q 1393.5 373.7, 1392.5 372.6 Q 1391.5 371.5, 1391.5 369.5 " fill="#000000"/>
<path class="legend" d="M 1398.7 366.6 L 1398.7 365.4 L 1400.3 365.4 L 1400.5 363.0 L 1401.7 363.0 L 1401.7 365.4 L 1404.2 365.4 L 1404.2 366.6 L 1401.7 366.6 L 1401.7 371.1 Q 1401.7 372.5, 1402.9 372.5 Q 1403.3 372.5, 1404.0 372.3 L 1404.3 373.4 Q 1403.4 373.7, 1402.6 373.7 Q 1401.5 373.7, 1400.8 373.1 Q 1400.2 372.4, 1400.2 371.2 L 1400.2 366.6 L 1398.7 366.6 " fill="#000000"/>
<path class="legend" d="M 1412.9 374.4 L 1412.9 375.7 L 1404.7 375.7 L 1404.7 374.4 L 1412.9 374.4 " fill="#000000"/>
<path class="legend" d="M 1412.9 364.4 Q 1413.3 363.4, 1414.3 362.8 Q 1415.3 362.2, 1416.7 362.2 Q 1418.4 362.2, 1419.3 363.1 Q 1420.3 364.0, 1420.3 365.7 Q 1420.3 367.4, 1419.0 368.9 Q 1417.8 370.5, 1415.3 372.4 L 1420.5 372.4 L 1420.5 373.6 L 1412.9 373.6 L 1412.9 372.6 Q 1415.0 371.1, 1416.2 369.9 Q 1417.5 368.8, 1418.1 367.8 Q 1418.7 366.8, 1418.7 365.8 Q 1418.7 364.7, 1418.2 364.1 Q 1417.6 363.5, 1416.7 363.5 Q 1415.8 363.5, 1415.1 363.8 Q 1414.5 364.2, 1414.1 365.0 L 1412.9 364.4 " fill="#000000"/>
<path class="legend" d="M 1425.3 362.2 Q 1427.3 362.2, 1428.3 363.6 Q 1429.3 364.9, 1429.3 367.6 Q 1429.3 370.6, 1428.0 372.2 Q 1426.8 373.8, 1424.4 373.8 Q 1423.7 373.8, 1423.1 373.6 Q 1422.5 373.4, 1421.9 373.1 L 1422.5 372.0 Q 1423.4 372.5, 1424.4 372.5 Q 1426.0 372.5, 1426.8 371.5 Q 1427.6 370.4, 1427.7 368.3 Q 1427.1 368.8, 1426.4 369.1 Q 1425.7 369.4, 1424.9 369.4 Q 1423.9 369.4, 1423.1 368.9 Q 1422.3 368.5, 1421.9 367.7 Q 1421.4 366.9, 1421.4 366.0 Q 1421.4 364.8, 1421.9 364.0 Q 1422.4 363.1, 1423.3 362.7 Q 1424.2 362.2, 1425.3 362.2 M 1423.0 365.9 Q 1423.0 366.9, 1423.6 367.5 Q 1424.2 368.1, 1425.2 368.1 Q 1425.8 368.1, 1426.5 367.8 Q 1427.2 367.5, 1427.7 367.1 Q 1427.6 365.2, 1427.0 364.3 Q 1426.4 363.5, 1425.2 363.5 Q 1424.6 363.5, 1424.1 363.8 Q 1423.6 364.1, 1423.3 364.7 Q 1423.0 365.2, 1423.0 365.9 " fill="#000000"/>
<path class="legend" d="M 1336.9 383.8 Q 1336.9 381.8, 1337.9 380.7 Q 1338.9 379.5, 1340.8 379.5 Q 1342.7 379.5, 1343.7 380.9 L 1342.7 381.6 Q 1342.3 381.2, 1341.9 380.9 Q 1341.4 380.7, 1340.8 380.7 Q 1339.7 380.7, 1339.1 381.5 Q 1338.4 382.3, 1338.4 383.8 Q 1338.4 385.3, 1339.1 386.1 Q 1339.7 386.8, 1340.9 386.8 Q 1341.6 386.8, 1342.1 386.7 Q 1342.5 386.5, 1343.1 386.3 L 1343.5 387.3 Q 1342.3 388.0, 1340.8 388.0 Q 1338.9 388.0, 1337.9 386.9 Q 1336.9 385.7, 1336.9 383.8 " fill="#000000"/>
<path class="legend" d="M 1344.1 383.8 Q 1344.1 381.7, 1345.1 380.6 Q 1346.1 379.5, 1347.9 379.5 Q 1349.7 379.5, 1350.5 380.6 Q 1351.4 381.7, 1351.4 383.7 L 1351.4 384.0 L 1345.6 384.0 Q 1345.6 385.4, 1346.3 386.1 Q 1346.9 386.8, 1348.1 386.8 Q 1348.7 386.8, 1349.3 386.7 Q 1349.9 386.5, 1350.6 386.2 L 1351.0 387.2 Q 1350.2 387.6, 1349.5 387.8 Q 1348.7 388.0, 1348.0 388.0 Q 1346.1 388.0, 1345.1 386.9 Q 1344.1 385.8, 1344.1 383.8 M 1347.9 380.7 Q 1347.0 380.7, 1346.4 381.2 Q 1345.9 381.8, 1345.7 382.8 L 1349.8 382.8 Q 1349.7 381.7, 1349.2 381.2 Q 1348.8 380.7, 1347.9 380.7 " fill="#000000"/>
<path class="legend" d="M 1356.3 379.5 Q 1357.6 379.5, 1358.3 380.3 Q 1359.0 381.0, 1359.0 382.4 L 1359.0 387.9 L 1357.5 387.9 L 1357.5 382.6 Q 1357.5 381.6, 1357.1 381.2 Q 1356.7 380.7, 1355.9 380.7 Q 1355.1 380.7, 1354.5 381.1 Q 1353.9 381.4, 1353.5 382.0 L 1353.5 387.9 L 1352.0 387.9 L 1352.0 379.7 L 1353.2 379.7 L 1353.4 380.8 Q 1354.5 379.5, 1356.3 379.5 " fill="#000000"/>
<path class="legend" d="M 1360.2 380.8 L 1360.2 379.7 L 1361.8 379.7 L 1362.0 377.3 L 1363.1 377.3 L 1363.1 379.7 L 1365.6 379.7 L 1365.6 380.8 L 1363.1 380.8 L 1363.1 385.4 Q 1363.1 386.8, 1364.3 386.8 Q 1364.8 386.8, 1365.5 386.6 L 1365.8 387.6 Q 1364.9 388.0, 1364.1 388.0 Q 1363.0 388.0, 1362.3 387.3 Q 1361.6 386.7, 1361.6 385.4 L 1361.6 380.8 L 1360.2 380.8 " fill="#000000"/>
<path class="legend" d="M 1374.3 388.7 L 1374.3 390.0 L 1366.2 390.0 L 1366.2 388.7 L 1374.3 388.7 " fill="#000000"/>
<path class="legend" d="M 1381.8 375.7 L 1381.8 387.9 L 1380.6 387.9 L 1380.4 386.9 Q 1379.5 388.0, 1377.9 388.0 Q 1376.2 388.0, 1375.3 387.0 Q 1374.3 385.9, 1374.3 383.9 Q 1374.3 381.8, 1375.5 380.7 Q 1376.6 379.5, 1378.6 379.5 Q 1379.4 379.5, 1380.3 379.7 L 1380.3 375.7 L 1381.8 375.7 M 1378.0 386.8 Q 1378.9 386.8, 1379.5 386.4 Q 1380.1 385.9, 1380.3 385.1 L 1380.3 380.9 Q 1379.5 380.7, 1378.6 380.7 Q 1377.3 380.7, 1376.6 381.6 Q 1375.9 382.4, 1375.9 383.9 Q 1375.9 385.3, 1376.4 386.1 Q 1377.0 386.8, 1378.0 386.8 " fill="#000000"/>
<path class="legend" d="M 1383.1 376.6 L 1384.6 376.6 L 1384.6 378.0 L 1383.1 378.0 L 1383.1 376.6 M 1383.1 379.7 L 1384.6 379.7 L 1384.6 387.9 L 1383.1 387.9 L 1383.1 379.7 " fill="#000000"/>
<path class="legend" d="M 1386.4 386.2 Q 1387.1 386.5, 1387.6 386.6 Q 1388.2 386.8, 1388.7 386.8 Q 1389.4 386.8, 1389.8 386.5 Q 1390.3 386.2, 1390.3 385.6 Q 1390.3 385.2, 1390.0 385.0 Q 1389.8 384.8, 1389.5 384.6 Q 1389.3 384.5, 1388.6 384.3 Q 1388.5 384.3, 1387.7 384.0 Q 1387.0 383.7, 1386.6 383.2 Q 1386.2 382.7, 1386.2 381.9 Q 1386.2 380.9, 1387.0 380.2 Q 1387.7 379.5, 1389.2 379.5 Q 1389.9 379.5, 1390.4 379.7 Q 1391.0 379.8, 1391.6 380.0 L 1391.2 381.2 Q 1390.6 381.0, 1390.2 380.9 Q 1389.7 380.8, 1389.2 380.8 Q 1388.5 380.8, 1388.1 381.1 Q 1387.7 381.4, 1387.7 381.8 Q 1387.7 382.3, 1388.0 382.5 Q 1388.3 382.7, 1389.0 383.0 Q 1389.2 383.0, 1389.3 383.1 L 1389.7 383.2 Q 1390.4 383.4, 1390.8 383.7 Q 1391.2 383.9, 1391.5 384.4 Q 1391.8 384.8, 1391.8 385.6 Q 1391.8 386.7, 1390.9 387.4 Q 1390.1 388.0, 1388.7 388.0 Q 1387.9 388.0, 1387.3 387.9 Q 1386.6 387.7, 1385.9 387.4 L 1386.4 386.2 " fill="#000000"/>
<path class="legend" d="M 1392.6 380.8 L 1392.6 379.7 L 1394.2 379.7 L 1394.4 377.3 L 1395.5 377.3 L 1395.5 379.7 L 1398.1 379.7 L 1398.1 380.8 L 1395.5 380.8 L 1395.5 385.4 Q 1395.5 386.8, 1396.7 386.8 Q 1397.2 386.8, 1397.9 386.6 L 1398.2 387.6 Q 1397.3 388.0, 1396.5 388.0 Q 1395.4 388.0, 1394.7 387.3 Q 1394.0 386.7, 1394.0 385.4 L 1394.0 380.8 L 1392.6 380.8 " fill="#000000"/>
<path class="legend" d="" fill="#000000"/>
<path class="legend" d="M 1403.9 380.9 L 1411.2 380.9 L 1411.2 382.1 L 1403.9 382.1 L 1403.9 380.9 M 1403.9 384.4 L 1411.2 384.4 L 1411.2 385.5 L 1403.9 385.5 L 1403.9 384.4 " fill="#000000"/>
<path class="legend" d="" fill="#000000"/>
<path class="legend" d="M 1422.2 388.0 Q 1420.1 388.0, 1419.1 386.5 Q 1418.0 384.9, 1418.0 382.2 Q 1418.0 379.5, 1419.1 378.0 Q 1420.1 376.4, 1422.2 376.4 Q 1424.3 376.4, 1425.3 378.0 Q 1426.3 379.5, 1426.3 382.2 Q 1426.3 384.9, 1425.3 386.5 Q 1424.3 388.0, 1422.2 388.0 M 1422.2 386.7 Q 1423.4 386.7, 1424.1 385.6 Q 1424.7 384.4, 1424.7 382.2 Q 1424.7 380.0, 1424.1 378.8 Q 1423.4 377.7, 1422.2 377.7 Q 1421.0 377.7, 1420.3 378.8 Q 1419.6 380.0, 1419.6 382.2 Q 1419.6 384.4, 1420.3 385.6 Q 1421.0 386.7, 1422.2 386.7 " fill="#000000"/>
<path class="legend" d="M 1427.4 386.3 L 1429.0 386.3 L 1429.0 387.9 L 1427.4 387.9 L 1427.4 386.3 " fill="#000000"/>
<path class="legend" d="M 1435.9 377.8 L 1430.0 377.8 L 1430.0 376.6 L 1437.5 376.6 L 1437.5 377.7 L 1432.9 387.9 L 1431.4 387.9 L 1435.9 377.8 " fill="#000000"/>
<path class="legend" d="M 1443.9 377.8 L 1438.0 377.8 L 1438.0 376.6 L 1445.5 376.6 L 1445.5 377.7 L 1440.9 387.9 L 1439.4 387.9 L 1443.9 377.8 " fill="#000000"/>
<path class="legend" d="M 1453.3 384.0 L 1454.7 384.0 L 1454.7 385.3 L 1453.3 385.3 L 1453.3 387.9 L 1451.8 387.9 L 1451.8 385.3 L 1446.0 385.3 L 1446.0 384.3 L 1450.9 376.6 L 1453.3 376.6 L 1453.3 384.0 M 1447.8 384.0 L 1451.8 384.0 L 1451.8 377.6 L 1447.8 384.0 " fill="#000000"/>
<path class="legend" d="M 1460.9 381.9 Q 1462.0 382.2, 1462.5 383.0 Q 1463.1 383.7, 1463.1 384.8 Q 1463.1 385.7, 1462.6 386.5 Q 1462.1 387.2, 1461.3 387.6 Q 1460.4 388.0, 1459.2 388.0 Q 1458.0 388.0, 1457.1 387.6 Q 1456.2 387.2, 1455.5 386.3 L 1456.4 385.4 Q 1457.1 386.2, 1457.7 386.5 Q 1458.3 386.8, 1459.2 386.8 Q 1460.2 386.8, 1460.9 386.2 Q 1461.5 385.7, 1461.5 384.8 Q 1461.5 383.6, 1460.8 383.1 Q 1460.2 382.6, 1458.8 382.6 L 1458.0 382.6 L 1458.0 381.4 L 1458.7 381.4 Q 1459.9 381.4, 1460.6 380.9 Q 1461.3 380.3, 1461.3 379.3 Q 1461.3 378.6, 1460.7 378.2 Q 1460.2 377.7, 1459.2 377.7 Q 1458.3 377.7, 1457.7 378.0 Q 1457.1 378.4, 1456.7 379.2 L 1455.6 378.6 Q 1456.0 377.7, 1456.9 377.1 Q 1457.9 376.4, 1459.2 376.4 Q 1460.9 376.4, 1461.9 377.2 Q 1462.9 378.0, 1462.9 379.3 Q 1462.9 380.2, 1462.4 380.9 Q 1461.9 381.6, 1460.9 381.9 " fill="#000000"/>
<path class="bond-0 atom-0 atom-1" d="M 1636.6,189.7 L 1656.4,180.1" style="fill:none;fill-rule:evenodd;stroke:#000000;stroke-width:2.0px;stroke-linecap:butt;stroke-linejoin:miter;stroke-opacity:1"/>
<path class="bond-0 atom-0 atom-1" d="M 1638.5,193.6 L 1658.4,184.0" style="fill:none;fill-rule:evenodd;stroke:#000000;stroke-width:2.0px;stroke-linecap:butt;stroke-linejoin:miter;stroke-opacity:1"/>
<path class="bond-1 atom-1 atom-2" d="M 1657.4,182.0 L 1675.6,194.4" style="fill:none;fill-rule:evenodd;stroke:#000000;stroke-width:2.0px;stroke-linecap:butt;stroke-linejoin:miter;stroke-opacity:1"/>
<path class="bond-2 atom-2 atom-3" d="M 1675.6,194.4 L 1695.4,184.8" style="fill:none;fill-rule:evenodd;stroke:#000000;stroke-width:2.0px;stroke-linecap:butt;stroke-linejoin:miter;stroke-opacity:1"/>
<path class="bond-3 atom-3 atom-4" d="M 1695.4,184.8 L 1715.3,175.2" style="fill:none;fill-rule:evenodd;stroke:#000000;stroke-width:2.0px;stroke-linecap:butt;stroke-linejoin:miter;stroke-opacity:1"/>
<path class="bond-3 atom-3 atom-4" d="M 1696.5,179.4 L 1710.4,172.7" style="fill:none;fill-rule:evenodd;stroke:#000000;stroke-width:2.0px;stroke-linecap:butt;stroke-linejoin:miter;stroke-opacity:1"/>
<path class="bond-3 atom-3 atom-4" d="M 1700.3,187.3 L 1714.2,180.6" style="fill:none;fill-rule:evenodd;stroke:#000000;stroke-width:2.0px;stroke-linecap:butt;stroke-linejoin:miter;stroke-opacity:1"/>
<path class="bond-4 atom-4 atom-5" d="M 1715.3,175.2 L 1735.1,165.6" style="fill:none;fill-rule:evenodd;stroke:#000000;stroke-width:2.0px;stroke-linecap:butt;stroke-linejoin:miter;stroke-opacity:1"/>
<path class="bond-5 atom-5 atom-6" d="M 1735.1,165.6 L 1753.3,178.0" style="fill:none;fill-rule:evenodd;stroke:#000000;stroke-width:2.0px;stroke-linecap:butt;stroke-linejoin:miter;stroke-opacity:1"/>
<path class="bond-6 atom-6 atom-7" d="M 1753.3,178.0 L 1773.1,168.4" style="fill:none;fill-rule:evenodd;stroke:#000000;stroke-width:2.0px;stroke-linecap:butt;stroke-linejoin:miter;stroke-opacity:1"/>
<path class="bond-7 atom-7 atom-8" d="M 1773.1,168.4 L 1791.4,180.7" style="fill:none;fill-rule:evenodd;stroke:#000000;stroke-width:2.0px;stroke-linecap:butt;stroke-linejoin:miter;stroke-opacity:1"/>
<path class="bond-8 atom-8 atom-9" d="M 1791.4,180.7 L 1811.2,171.1" style="fill:none;fill-rule:evenodd;stroke:#000000;stroke-width:2.0px;stroke-linecap:butt;stroke-linejoin:miter;stroke-opacity:1"/>
<path class="bond-9 atom-9 atom-10" d="M 1811.2,171.1 L 1829.4,183.5" style="fill:none;fill-rule:evenodd;stroke:#000000;stroke-width:2.0px;stroke-linecap:butt;stroke-linejoin:miter;stroke-opacity:1"/>
<path class="bond-10 atom-10 atom-11" d="M 1829.4,183.5 L 1849.2,173.9" style="fill:none;fill-rule:evenodd;stroke:#000000;stroke-width:2.0px;stroke-linecap:butt;stroke-linejoin:miter;stroke-opacity:1"/>
<path class="bond-11 atom-11 atom-12" d="M 1849.2,173.9 L 1867.5,186.2" style="fill:none;fill-rule:evenodd;stroke:#000000;stroke-width:2.0px;stroke-linecap:butt;stroke-linejoin:miter;stroke-opacity:1"/>
<path class="bond-12 atom-12 atom-13" d="M 1867.5,186.2 L 1887.3,176.6" style="fill:none;fill-rule:evenodd;stroke:#000000;stroke-width:2.0px;stroke-linecap:butt;stroke-linejoin:miter;stroke-opacity:1"/>
<path class="bond-13 atom-13 atom-14" d="M 1887.3,176.6 L 1905.5,189.0" style="fill:none;fill-rule:evenodd;stroke:#000000;stroke-width:2.0px;stroke-linecap:butt;stroke-linejoin:miter;stroke-opacity:1"/>
<path class="bond-14 atom-14 atom-15" d="M 1905.5,189.0 L 1925.3,179.4" style="fill:none;fill-rule:evenodd;stroke:#000000;stroke-width:2.0px;stroke-linecap:butt;stroke-linejoin:miter;stroke-opacity:1"/>
<path class="bond-15 atom-15 atom-16" d="M 1925.3,179.4 L 1943.6,191.8" style="fill:none;fill-rule:evenodd;stroke:#000000;stroke-width:2.0px;stroke-linecap:butt;stroke-linejoin:miter;stroke-opacity:1"/>
<path class="bond-16 atom-16 atom-17" d="M 1943.6,191.8 L 1963.4,182.2" style="fill:none;fill-rule:evenodd;stroke:#000000;stroke-width:2.0px;stroke-linecap:butt;stroke-linejoin:miter;stroke-opacity:1"/>
<path class="legend" d="M 1767.3 365.4 L 1767.5 366.5 Q 1768.4 365.3, 1769.8 365.3 Q 1770.2 365.3, 1770.8 365.4 L 1770.6 366.8 Q 1769.9 366.6, 1769.5 366.6 Q 1768.8 366.6, 1768.4 366.9 Q 1768.0 367.1, 1767.6 367.8 L 1767.6 373.6 L 1766.1 373.6 L 1766.1 365.4 L 1767.3 365.4 " fill="#000000"/>
<path class="legend" d="M 1771.1 369.5 Q 1771.1 367.5, 1772.1 366.4 Q 1773.1 365.3, 1774.9 365.3 Q 1776.7 365.3, 1777.5 366.4 Q 1778.4 367.4, 1778.4 369.5 L 1778.4 369.7 L 1772.6 369.7 Q 1772.6 371.1, 1773.3 371.8 Q 1773.9 372.6, 1775.1 372.6 Q 1775.7 372.6, 1776.3 372.4 Q 1776.9 372.3, 1777.6 372.0 L 1778.0 373.0 Q 1777.2 373.4, 1776.5 373.6 Q 1775.7 373.8, 1775.0 373.8 Q 1773.1 373.8, 1772.1 372.6 Q 1771.1 371.5, 1771.1 369.5 M 1774.9 366.4 Q 1774.0 366.4, 1773.4 367.0 Q 1772.8 367.5, 1772.7 368.6 L 1776.8 368.6 Q 1776.7 367.5, 1776.2 367.0 Q 1775.8 366.4, 1774.9 366.4 " fill="#000000"/>
<path class="legend" d="M 1779.0 371.4 Q 1779.0 370.1, 1780.0 369.4 Q 1781.1 368.7, 1783.0 368.7 L 1784.2 368.7 L 1784.2 368.3 Q 1784.2 367.3, 1783.8 366.9 Q 1783.4 366.4, 1782.4 366.4 Q 1781.7 366.4, 1781.2 366.6 Q 1780.7 366.7, 1779.9 367.0 L 1779.4 366.0 Q 1780.9 365.3, 1782.4 365.3 Q 1784.1 365.3, 1784.9 366.0 Q 1785.7 366.8, 1785.7 368.4 L 1785.7 373.6 L 1784.6 373.6 Q 1784.5 373.6, 1784.5 373.3 Q 1784.4 373.1, 1784.4 372.7 Q 1783.2 373.8, 1781.7 373.8 Q 1780.4 373.8, 1779.7 373.2 Q 1779.0 372.5, 1779.0 371.4 M 1780.5 371.4 Q 1780.5 372.0, 1780.8 372.3 Q 1781.2 372.6, 1782.0 372.6 Q 1782.6 372.6, 1783.2 372.4 Q 1783.8 372.0, 1784.2 371.5 L 1784.2 369.8 L 1783.1 369.8 Q 1781.8 369.8, 1781.1 370.2 Q 1780.5 370.6, 1780.5 371.4 " fill="#000000"/>
<path class="legend" d="M 1787.0 369.5 Q 1787.0 367.5, 1788.0 366.4 Q 1788.9 365.3, 1790.9 365.3 Q 1792.8 365.3, 1793.7 366.6 L 1792.7 367.4 Q 1792.4 366.9, 1791.9 366.7 Q 1791.5 366.4, 1790.9 366.4 Q 1789.8 366.4, 1789.1 367.2 Q 1788.5 368.0, 1788.5 369.5 Q 1788.5 371.0, 1789.1 371.8 Q 1789.8 372.6, 1791.0 372.6 Q 1791.7 372.6, 1792.1 372.4 Q 1792.6 372.3, 1793.2 372.0 L 1793.6 373.0 Q 1792.4 373.7, 1790.9 373.7 Q 1788.9 373.7, 1788.0 372.6 Q 1787.0 371.5, 1787.0 369.5 " fill="#000000"/>
<path class="legend" d="M 1794.1 366.6 L 1794.1 365.4 L 1795.7 365.4 L 1796.0 363.0 L 1797.1 363.0 L 1797.1 365.4 L 1799.6 365.4 L 1799.6 366.6 L 1797.1 366.6 L 1797.1 371.1 Q 1797.1 372.5, 1798.3 372.5 Q 1798.8 372.5, 1799.5 372.3 L 1799.7 373.4 Q 1798.8 373.7, 1798.0 373.7 Q 1796.9 373.7, 1796.2 373.1 Q 1795.6 372.4, 1795.6 371.2 L 1795.6 366.6 L 1794.1 366.6 " fill="#000000"/>
<path class="legend" d="M 1808.3 374.4 L 1808.3 375.7 L 1800.1 375.7 L 1800.1 374.4 L 1808.3 374.4 " fill="#000000"/>
<path class="legend" d="M 1808.3 364.4 Q 1808.7 363.4, 1809.7 362.8 Q 1810.7 362.2, 1812.1 362.2 Q 1813.8 362.2, 1814.8 363.1 Q 1815.7 364.0, 1815.7 365.7 Q 1815.7 367.4, 1814.5 368.9 Q 1813.2 370.5, 1810.7 372.4 L 1815.9 372.4 L 1815.9 373.6 L 1808.3 373.6 L 1808.3 372.6 Q 1810.4 371.1, 1811.6 369.9 Q 1812.9 368.8, 1813.5 367.8 Q 1814.1 366.8, 1814.1 365.8 Q 1814.1 364.7, 1813.6 364.1 Q 1813.0 363.5, 1812.1 363.5 Q 1811.2 363.5, 1810.6 363.8 Q 1810.0 364.2, 1809.5 365.0 L 1808.3 364.4 " fill="#000000"/>
<path class="legend" d="M 1824.2 369.7 L 1825.6 369.7 L 1825.6 371.0 L 1824.2 371.0 L 1824.2 373.6 L 1822.7 373.6 L 1822.7 371.0 L 1816.9 371.0 L 1816.9 370.0 L 1821.8 362.3 L 1824.2 362.3 L 1824.2 369.7 M 1818.7 369.7 L 1822.7 369.7 L 1822.7 363.3 L 1818.7 369.7 " fill="#000000"/>
<path class="legend" d="M 1832.3 363.6 L 1826.4 363.6 L 1826.4 362.3 L 1833.9 362.3 L 1833.9 363.4 L 1829.3 373.6 L 1827.8 373.6 L 1832.3 363.6 " fill="#000000"/>
<path class="legend" d="M 1737.4 383.8 Q 1737.4 381.8, 1738.4 380.7 Q 1739.4 379.5, 1741.4 379.5 Q 1743.3 379.5, 1744.2 380.9 L 1743.2 381.6 Q 1742.8 381.2, 1742.4 380.9 Q 1742.0 380.7, 1741.4 380.7 Q 1740.2 380.7, 1739.6 381.5 Q 1739.0 382.3, 1739.0 383.8 Q 1739.0 385.3, 1739.6 386.1 Q 1740.3 386.8, 1741.5 386.8 Q 1742.1 386.8, 1742.6 386.7 Q 1743.1 386.5, 1743.7 386.3 L 1744.1 387.3 Q 1742.9 388.0, 1741.4 388.0 Q 1739.4 388.0, 1738.4 386.9 Q 1737.4 385.7, 1737.4 383.8 " fill="#000000"/>
<path class="legend" d="M 1744.6 383.8 Q 1744.6 381.7, 1745.6 380.6 Q 1746.6 379.5, 1748.5 379.5 Q 1750.3 379.5, 1751.1 380.6 Q 1751.9 381.7, 1751.9 383.7 L 1751.9 384.0 L 1746.1 384.0 Q 1746.2 385.4, 1746.8 386.1 Q 1747.4 386.8, 1748.6 386.8 Q 1749.2 386.8, 1749.8 386.7 Q 1750.4 386.5, 1751.1 386.2 L 1751.6 387.2 Q 1750.8 387.6, 1750.0 387.8 Q 1749.3 388.0, 1748.5 388.0 Q 1746.7 388.0, 1745.6 386.9 Q 1744.6 385.8, 1744.6 383.8 M 1748.5 380.7 Q 1747.5 380.7, 1746.9 381.2 Q 1746.4 381.8, 1746.2 382.8 L 1750.3 382.8 Q 1750.2 381.7, 1749.7 381.2 Q 1749.3 380.7, 1748.5 380.7 " fill="#000000"/>
<path class="legend" d="M 1756.8 379.5 Q 1758.1 379.5, 1758.8 380.3 Q 1759.5 381.0, 1759.5 382.4 L 1759.5 387.9 L 1758.0 387.9 L 1758.0 382.6 Q 1758.0 381.6, 1757.6 381.2 Q 1757.2 380.7, 1756.4 380.7 Q 1755.7 380.7, 1755.0 381.1 Q 1754.4 381.4, 1754.0 382.0 L 1754.0 387.9 L 1752.5 387.9 L 1752.5 379.7 L 1753.7 379.7 L 1753.9 380.8 Q 1755.0 379.5, 1756.8 379.5 " fill="#000000"/>
<path class="legend" d="M 1760.7 380.8 L 1760.7 379.7 L 1762.3 379.7 L 1762.5 377.3 L 1763.7 377.3 L 1763.7 379.7 L 1766.2 379.7 L 1766.2 380.8 L 1763.7 380.8 L 1763.7 385.4 Q 1763.7 386.8, 1764.9 386.8 Q 1765.3 386.8, 1766.1 386.6 L 1766.3 387.6 Q 1765.4 388.0, 1764.6 388.0 Q 1763.5 388.0, 1762.8 387.3 Q 1762.2 386.7, 1762.2 385.4 L 1762.2 380.8 L 1760.7 380.8 " fill="#000000"/>
<path class="legend" d="M 1774.9 388.7 L 1774.9 390.0 L 1766.7 390.0 L 1766.7 388.7 L 1774.9 388.7 " fill="#000000"/>
<path class="legend" d="M 1782.3 375.7 L 1782.3 387.9 L 1781.1 387.9 L 1780.9 386.9 Q 1780.0 388.0, 1778.5 388.0 Q 1776.8 388.0, 1775.8 387.0 Q 1774.9 385.9, 1774.9 383.9 Q 1774.9 381.8, 1776.0 380.7 Q 1777.1 379.5, 1779.1 379.5 Q 1779.9 379.5, 1780.8 379.7 L 1780.8 375.7 L 1782.3 375.7 M 1778.6 386.8 Q 1779.4 386.8, 1780.0 386.4 Q 1780.6 385.9, 1780.8 385.1 L 1780.8 380.9 Q 1780.0 380.7, 1779.1 380.7 Q 1777.8 380.7, 1777.1 381.6 Q 1776.4 382.4, 1776.4 383.9 Q 1776.4 385.3, 1777.0 386.1 Q 1777.5 386.8, 1778.6 386.8 " fill="#000000"/>
<path class="legend" d="M 1783.6 376.6 L 1785.1 376.6 L 1785.1 378.0 L 1783.6 378.0 L 1783.6 376.6 M 1783.6 379.7 L 1785.1 379.7 L 1785.1 387.9 L 1783.6 387.9 L 1783.6 379.7 " fill="#000000"/>
<path class="legend" d="M 1786.9 386.2 Q 1787.7 386.5, 1788.2 386.6 Q 1788.7 386.8, 1789.3 386.8 Q 1790.0 386.8, 1790.4 386.5 Q 1790.8 386.2, 1790.8 385.6 Q 1790.8 385.2, 1790.6 385.0 Q 1790.4 384.8, 1790.1 384.6 Q 1789.8 384.5, 1789.1 384.3 Q 1789.0 384.3, 1788.3 384.0 Q 1787.5 383.7, 1787.1 383.2 Q 1786.7 382.7, 1786.7 381.9 Q 1786.7 380.9, 1787.5 380.2 Q 1788.3 379.5, 1789.8 379.5 Q 1790.4 379.5, 1790.9 379.7 Q 1791.5 379.8, 1792.1 380.0 L 1791.7 381.2 Q 1791.2 381.0, 1790.7 380.9 Q 1790.3 380.8, 1789.8 380.8 Q 1789.0 380.8, 1788.6 381.1 Q 1788.2 381.4, 1788.2 381.8 Q 1788.2 382.3, 1788.5 382.5 Q 1788.9 382.7, 1789.5 383.0 Q 1789.7 383.0, 1789.8 383.1 L 1790.2 383.2 Q 1790.9 383.4, 1791.3 383.7 Q 1791.7 383.9, 1792.0 384.4 Q 1792.3 384.8, 1792.3 385.6 Q 1792.3 386.7, 1791.4 387.4 Q 1790.6 388.0, 1789.3 388.0 Q 1788.5 388.0, 1787.8 387.9 Q 1787.1 387.7, 1786.5 387.4 L 1786.9 386.2 " fill="#000000"/>
<path class="legend" d="M 1793.1 380.8 L 1793.1 379.7 L 1794.7 379.7 L 1795.0 377.3 L 1796.1 377.3 L 1796.1 379.7 L 1798.6 379.7 L 1798.6 380.8 L 1796.1 380.8 L 1796.1 385.4 Q 1796.1 386.8, 1797.3 386.8 Q 1797.8 386.8, 1798.5 386.6 L 1798.7 387.6 Q 1797.8 388.0, 1797.0 388.0 Q 1795.9 388.0, 1795.3 387.3 Q 1794.6 386.7, 1794.6 385.4 L 1794.6 380.8 L 1793.1 380.8 " fill="#000000"/>
<path class="legend" d="" fill="#000000"/>
<path class="legend" d="M 1804.5 380.9 L 1811.8 380.9 L 1811.8 382.1 L 1804.5 382.1 L 1804.5 380.9 M 1804.5 384.4 L 1811.8 384.4 L 1811.8 385.5 L 1804.5 385.5 L 1804.5 384.4 " fill="#000000"/>
<path class="legend" d="" fill="#000000"/>
<path class="legend" d="M 1822.7 388.0 Q 1820.6 388.0, 1819.6 386.5 Q 1818.6 384.9, 1818.6 382.2 Q 1818.6 379.5, 1819.6 378.0 Q 1820.6 376.4, 1822.7 376.4 Q 1824.8 376.4, 1825.8 378.0 Q 1826.9 379.5, 1826.9 382.2 Q 1826.9 384.9, 1825.8 386.5 Q 1824.8 388.0, 1822.7 388.0 M 1822.7 386.7 Q 1823.9 386.7, 1824.6 385.6 Q 1825.3 384.4, 1825.3 382.2 Q 1825.3 380.0, 1824.6 378.8 Q 1823.9 377.7, 1822.7 377.7 Q 1821.5 377.7, 1820.8 378.8 Q 1820.2 380.0, 1820.2 382.2 Q 1820.2 384.4, 1820.8 385.6 Q 1821.5 386.7, 1822.7 386.7 " fill="#000000"/>
<path class="legend" d="M 1827.9 386.3 L 1829.5 386.3 L 1829.5 387.9 L 1827.9 387.9 L 1827.9 386.3 " fill="#000000"/>
<path class="legend" d="M 1836.3 381.9 Q 1837.4 382.3, 1837.9 383.0 Q 1838.5 383.7, 1838.5 384.8 Q 1838.5 385.7, 1838.0 386.5 Q 1837.5 387.2, 1836.7 387.6 Q 1835.8 388.0, 1834.6 388.0 Q 1832.7 388.0, 1831.6 387.2 Q 1830.5 386.3, 1830.5 384.8 Q 1830.5 383.9, 1831.0 383.2 Q 1831.5 382.5, 1832.5 381.9 Q 1831.8 381.5, 1831.4 380.9 Q 1831.0 380.3, 1831.0 379.3 Q 1831.0 378.0, 1831.9 377.2 Q 1832.9 376.4, 1834.5 376.4 Q 1836.2 376.4, 1837.1 377.2 Q 1838.1 378.0, 1838.1 379.3 Q 1838.1 380.2, 1837.7 380.8 Q 1837.2 381.4, 1836.3 381.9 M 1834.5 377.6 Q 1833.6 377.6, 1833.1 378.1 Q 1832.6 378.5, 1832.6 379.3 Q 1832.6 379.9, 1832.9 380.3 Q 1833.3 380.7, 1833.8 380.9 Q 1834.3 381.2, 1835.2 381.5 Q 1835.9 381.0, 1836.2 380.5 Q 1836.5 380.0, 1836.5 379.3 Q 1836.5 378.5, 1836.0 378.1 Q 1835.5 377.6, 1834.5 377.6 M 1834.6 386.8 Q 1835.7 386.8, 1836.3 386.3 Q 1836.9 385.7, 1836.9 384.8 Q 1836.9 384.2, 1836.6 383.8 Q 1836.3 383.4, 1835.8 383.2 Q 1835.3 382.9, 1834.4 382.7 L 1833.6 382.4 Q 1832.8 382.9, 1832.5 383.5 Q 1832.1 384.0, 1832.1 384.8 Q 1832.1 385.7, 1832.8 386.3 Q 1833.5 386.8, 1834.6 386.8 " fill="#000000"/>
<path class="legend" d="M 1845.5 377.8 L 1839.5 377.8 L 1839.5 376.6 L 1847.1 376.6 L 1847.1 377.7 L 1842.5 387.9 L 1841.0 387.9 L 1845.5 377.8 " fill="#000000"/>
<path class="legend" d="M 1848.2 386.6 L 1850.6 386.6 L 1850.6 378.1 L 1847.9 379.0 L 1847.5 378.0 L 1851.0 376.5 L 1852.1 376.7 L 1852.1 386.6 L 1854.4 386.6 L 1854.4 387.9 L 1848.2 387.9 L 1848.2 386.6 " fill="#000000"/>
<path class="legend" d="M 1861.0 377.8 L 1855.0 377.8 L 1855.0 376.6 L 1862.6 376.6 L 1862.6 377.7 L 1858.0 387.9 L 1856.4 387.9 L 1861.0 377.8 " fill="#000000"/>
</svg>