<svg xmlns="http://www.w3.org/2000/svg" xmlns:rdkit="http://www.rdkit.org/xml" xmlns:xlink="http://www.w3.org/1999/xlink" version="1.1" baseProfile="full" xml:space="preserve" width="2000px" height="400px" viewBox="0 0 2000 400">
<!-- END OF HEADER -->
<rect style="opacity:1.0;fill:#FFFFFF;stroke:none" width="2000.0" height="400.0" x="0.0" y="0.0"> </rect>
<path class="bond-0 atom-0 atom-1" d="M 109.1,114.4 L 169.7,114.4" style="fill:none;fill-rule:evenodd;stroke:#000000;stroke-width:2.0px;stroke-linecap:butt;stroke-linejoin:miter;stroke-opacity:1"/>
<path class="bond-0 atom-0 atom-1" d="M 109.1,126.5 L 169.7,126.5" style="fill:none;fill-rule:evenodd;stroke:#000000;stroke-width:2.0px;stroke-linecap:butt;stroke-linejoin:miter;stroke-opacity:1"/>
<path class="bond-1 atom-1 atom-2" d="M 169.7,120.5 L 193.9,162.4" style="fill:none;fill-rule:evenodd;stroke:#000000;stroke-width:2.0px;stroke-linecap:butt;stroke-linejoin:miter;stroke-opacity:1"/>
<path class="bond-2 atom-2 atom-3" d="M 209.2,167.7 L 252.5,142.7" style="fill:none;fill-rule:evenodd;stroke:#000000;stroke-width:2.0px;stroke-linecap:butt;stroke-linejoin:miter;stroke-opacity:1"/>
<path class="bond-3 atom-3 atom-4" d="M 252.5,142.7 L 305.0,173.0" style="fill:none;fill-rule:evenodd;stroke:#000000;stroke-width:2.0px;stroke-linecap:butt;stroke-linejoin:miter;stroke-opacity:1"/>
<path class="bond-4 atom-3 atom-5" d="M 252.5,142.7 L 252.5,82.0" style="fill:none;fill-rule:evenodd;stroke:#000000;stroke-width:2.0px;stroke-linecap:butt;stroke-linejoin:miter;stroke-opacity:1"/>
<path class="bond-5 atom-2 atom-6" d="M 190.8,178.3 L 147.5,203.3" style="fill:none;fill-rule:evenodd;stroke:#000000;stroke-width:2.0px;stroke-linecap:butt;stroke-linejoin:miter;stroke-opacity:1"/>
<path class="bond-6 atom-6 atom-7" d="M 147.5,203.3 L 147.5,263.9" style="fill:none;fill-rule:evenodd;stroke:#000000;stroke-width:2.0px;stroke-linecap:butt;stroke-linejoin:miter;stroke-opacity:1"/>
<path class="bond-7 atom-6 atom-8" d="M 147.5,203.3 L 95.0,173.0" style="fill:none;fill-rule:evenodd;stroke:#000000;stroke-width:2.0px;stroke-linecap:butt;stroke-linejoin:miter;stroke-opacity:1"/>
<path class="bond-8 atom-2 atom-9" d="M 206.1,183.6 L 230.3,225.5" style="fill:none;fill-rule:evenodd;stroke:#000000;stroke-width:2.0px;stroke-linecap:butt;stroke-linejoin:miter;stroke-opacity:1"/>
<path class="bond-9 atom-9 atom-10" d="M 230.3,225.5 L 200.0,278.0" style="fill:none;fill-rule:evenodd;stroke:#000000;stroke-width:2.0px;stroke-linecap:butt;stroke-linejoin:miter;stroke-opacity:1"/>
<path class="bond-10 atom-9 atom-11" d="M 230.3,225.5 L 290.9,225.5" style="fill:none;fill-rule:evenodd;stroke:#000000;stroke-width:2.0px;stroke-linecap:butt;stroke-linejoin:miter;stroke-opacity:1"/>
<path class="atom-2" d="M 193.5 178.9 Q 193.7 179.0, 194.5 179.3 Q 195.3 179.6, 196.1 179.9 Q 197.0 180.0, 197.9 180.0 Q 199.5 180.0, 200.5 179.3 Q 201.4 178.5, 201.4 177.1 Q 201.4 176.1, 200.9 175.6 Q 200.5 175.0, 199.7 174.7 Q 199.0 174.3, 197.8 174.0 Q 196.3 173.5, 195.4 173.1 Q 194.5 172.7, 193.8 171.7 Q 193.2 170.8, 193.2 169.3 Q 193.2 167.1, 194.6 165.8 Q 196.1 164.4, 199.0 164.4 Q 201.0 164.4, 203.3 165.4 L 202.7 167.2 Q 200.6 166.4, 199.1 166.4 Q 197.4 166.4, 196.5 167.1 Q 195.6 167.8, 195.6 169.0 Q 195.6 169.9, 196.1 170.4 Q 196.5 171.0, 197.2 171.3 Q 197.9 171.6, 199.1 172.0 Q 200.6 172.5, 201.6 173.0 Q 202.5 173.5, 203.1 174.4 Q 203.8 175.4, 203.8 177.1 Q 203.8 179.5, 202.2 180.8 Q 200.6 182.0, 198.0 182.0 Q 196.5 182.0, 195.3 181.7 Q 194.2 181.4, 192.8 180.8 L 193.5 178.9 " fill="#000000"/>
<path class="atom-2" d="M 205.0 164.4 L 207.2 164.4 L 207.2 166.5 L 205.0 166.5 L 205.0 164.4 M 205.0 169.1 L 207.2 169.1 L 207.2 181.6 L 205.0 181.6 L 205.0 169.1 " fill="#000000"/>
<path class="legend" d="M 168.3 365.4 L 168.5 366.5 Q 169.4 365.3, 170.8 365.3 Q 171.2 365.3, 171.8 365.4 L 171.6 366.8 Q 170.9 366.6, 170.5 366.6 Q 169.8 366.6, 169.4 366.9 Q 169.0 367.1, 168.6 367.8 L 168.6 373.6 L 167.1 373.6 L 167.1 365.4 L 168.3 365.4 " fill="#000000"/>
<path class="legend" d="M 172.1 369.5 Q 172.1 367.5, 173.1 366.4 Q 174.1 365.3, 175.9 365.3 Q 177.7 365.3, 178.5 366.4 Q 179.4 367.4, 179.4 369.5 L 179.4 369.7 L 173.6 369.7 Q 173.6 371.1, 174.3 371.8 Q 174.9 372.6, 176.1 372.6 Q 176.7 372.6, 177.3 372.4 Q 177.9 372.3, 178.6 372.0 L 179.0 373.0 Q 178.2 373.4, 177.5 373.6 Q 176.7 373.8, 176.0 373.8 Q 174.1 373.8, 173.1 372.6 Q 172.1 371.5, 172.1 369.5 M 175.9 366.4 Q 175.0 366.4, 174.4 367.0 Q 173.8 367.5, 173.7 368.6 L 177.8 368.6 Q 177.7 367.5, 177.2 367.0 Q 176.8 366.4, 175.9 366.4 " fill="#000000"/>
<path class="legend" d="M 180.0 371.4 Q 180.0 370.1, 181.0 369.4 Q 182.1 368.7, 184.0 368.7 L 185.2 368.7 L 185.2 368.3 Q 185.2 367.3, 184.8 366.9 Q 184.4 366.4, 183.4 366.4 Q 182.7 366.4, 182.2 366.6 Q 181.7 366.7, 180.9 367.0 L 180.4 366.0 Q 181.9 365.3, 183.4 365.3 Q 185.1 365.3, 185.9 366.0 Q 186.7 366.8, 186.7 368.4 L 186.7 373.6 L 185.6 373.6 Q 185.5 373.6, 185.5 373.3 Q 185.4 373.1, 185.4 372.7 Q 184.2 373.8, 182.7 373.8 Q 181.4 373.8, 180.7 373.2 Q 180.0 372.5, 180.0 371.4 M 181.5 371.4 Q 181.5 372.0, 181.8 372.3 Q 182.2 372.6, 183.0 372.6 Q 183.6 372.6, 184.2 372.4 Q 184.8 372.0, 185.2 371.5 L 185.2 369.8 L 184.1 369.8 Q 182.8 369.8, 182.1 370.2 Q 181.5 370.6, 181.5 371.4 " fill="#000000"/>
<path class="legend" d="M 188.0 369.5 Q 188.0 367.5, 189.0 366.4 Q 189.9 365.3, 191.9 365.3 Q 193.8 365.3, 194.7 366.6 L 193.7 367.4 Q 193.4 366.9, 192.9 366.7 Q 192.5 366.4, 191.9 366.4 Q 190.8 366.4, 190.1 367.2 Q 189.5 368.0, 189.5 369.5 Q 189.5 371.0, 190.1 371.8 Q 190.8 372.6, 192.0 372.6 Q 192.7 372.6, 193.1 372.4 Q 193.6 372.3, 194.2 372.0 L 194.6 373.0 Q 193.4 373.7, 191.9 373.7 Q 189.9 373.7, 189.0 372.6 Q 188.0 371.5, 188.0 369.5 " fill="#000000"/>
<path class="legend" d="M 195.1 366.6 L 195.1 365.4 L 196.7 365.4 L 197.0 363.0 L 198.1 363.0 L 198.1 365.4 L 200.6 365.4 L 200.6 366.6 L 198.1 366.6 L 198.1 371.1 Q 198.1 372.5, 199.3 372.5 Q 199.8 372.5, 200.5 372.3 L 200.7 373.4 Q 199.8 373.7, 199.0 373.7 Q 197.9 373.7, 197.2 373.1 Q 196.6 372.4, 196.6 371.2 L 196.6 366.6 L 195.1 366.6 " fill="#000000"/>
<path class="legend" d="M 209.3 374.4 L 209.3 375.7 L 201.1 375.7 L 201.1 374.4 L 209.3 374.4 " fill="#000000"/>
<path class="legend" d="M 209.3 364.4 Q 209.7 363.4, 210.7 362.8 Q 211.7 362.2, 213.1 362.2 Q 214.8 362.2, 215.8 363.1 Q 216.7 364.0, 216.7 365.7 Q 216.7 367.4, 215.5 368.9 Q 214.2 370.5, 211.7 372.4 L 216.9 372.4 L 216.9 373.6 L 209.3 373.6 L 209.3 372.6 Q 211.4 371.1, 212.6 369.9 Q 213.9 368.8, 214.5 367.8 Q 215.1 366.8, 215.1 365.8 Q 215.1 364.7, 214.6 364.1 Q 214.0 363.5, 213.1 363.5 Q 212.2 363.5, 211.6 363.8 Q 211.0 364.2, 210.5 365.0 L 209.3 364.4 " fill="#000000"/>
<path class="legend" d="M 218.5 372.4 L 221.0 372.4 L 221.0 363.9 L 218.2 364.7 L 217.9 363.8 L 221.3 362.2 L 222.5 362.4 L 222.5 372.4 L 224.7 372.4 L 224.7 373.6 L 218.5 373.6 L 218.5 372.4 " fill="#000000"/>
<path class="legend" d="M 231.3 363.6 L 225.4 363.6 L 225.4 362.3 L 232.9 362.3 L 232.9 363.4 L 228.3 373.6 L 226.8 373.6 L 231.3 363.6 " fill="#000000"/>
<path class="legend" d="M 136.8 383.8 Q 136.8 381.8, 137.8 380.7 Q 138.8 379.5, 140.7 379.5 Q 142.6 379.5, 143.6 380.9 L 142.6 381.6 Q 142.2 381.2, 141.7 380.9 Q 141.3 380.7, 140.7 380.7 Q 139.6 380.7, 138.9 381.5 Q 138.3 382.3, 138.3 383.8 Q 138.3 385.3, 139.0 386.1 Q 139.6 386.8, 140.8 386.8 Q 141.5 386.8, 142.0 386.7 Q 142.4 386.5, 143.0 386.3 L 143.4 387.3 Q 142.2 388.0, 140.7 388.0 Q 138.8 388.0, 137.8 386.9 Q 136.8 385.7, 136.8 383.8 " fill="#000000"/>
<path class="legend" d="M 144.0 383.8 Q 144.0 381.7, 145.0 380.6 Q 146.0 379.5, 147.8 379.5 Q 149.6 379.5, 150.4 380.6 Q 151.2 381.7, 151.2 383.7 L 151.2 384.0 L 145.5 384.0 Q 145.5 385.4, 146.1 386.1 Q 146.8 386.8, 147.9 386.8 Q 148.6 386.8, 149.2 386.7 Q 149.8 386.5, 150.5 386.2 L 150.9 387.2 Q 150.1 387.6, 149.4 387.8 Q 148.6 388.0, 147.9 388.0 Q 146.0 388.0, 145.0 386.9 Q 144.0 385.8, 144.0 383.8 M 147.8 380.7 Q 146.9 380.7, 146.3 381.2 Q 145.7 381.8, 145.6 382.8 L 149.7 382.8 Q 149.5 381.7, 149.1 381.2 Q 148.6 380.7, 147.8 380.7 " fill="#000000"/>
<path class="legend" d="M 156.1 379.5 Q 157.4 379.5, 158.1 380.3 Q 158.8 381.0, 158.8 382.4 L 158.8 387.9 L 157.3 387.9 L 157.3 382.6 Q 157.3 381.6, 156.9 381.2 Q 156.6 380.7, 155.7 380.7 Q 155.0 380.7, 154.4 381.1 Q 153.7 381.4, 153.3 382.0 L 153.3 387.9 L 151.8 387.9 L 151.8 379.7 L 153.1 379.7 L 153.3 380.8 Q 154.4 379.5, 156.1 379.5 " fill="#000000"/>
<path class="legend" d="M 160.1 380.8 L 160.1 379.7 L 161.6 379.7 L 161.9 377.3 L 163.0 377.3 L 163.0 379.7 L 165.5 379.7 L 165.5 380.8 L 163.0 380.8 L 163.0 385.4 Q 163.0 386.8, 164.2 386.8 Q 164.7 386.8, 165.4 386.6 L 165.7 387.6 Q 164.8 388.0, 163.9 388.0 Q 162.9 388.0, 162.2 387.3 Q 161.5 386.7, 161.5 385.4 L 161.5 380.8 L 160.1 380.8 " fill="#000000"/>
<path class="legend" d="M 174.2 388.7 L 174.2 390.0 L 166.1 390.0 L 166.1 388.7 L 174.2 388.7 " fill="#000000"/>
<path class="legend" d="M 181.7 375.7 L 181.7 387.9 L 180.5 387.9 L 180.3 386.9 Q 179.3 388.0, 177.8 388.0 Q 176.1 388.0, 175.2 387.0 Q 174.2 385.9, 174.2 383.9 Q 174.2 381.8, 175.3 380.7 Q 176.5 379.5, 178.4 379.5 Q 179.3 379.5, 180.2 379.7 L 180.2 375.7 L 181.7 375.7 M 177.9 386.8 Q 178.8 386.8, 179.3 386.4 Q 180.0 385.9, 180.2 385.1 L 180.2 380.9 Q 179.4 380.7, 178.5 380.7 Q 177.2 380.7, 176.5 381.6 Q 175.7 382.4, 175.7 383.9 Q 175.7 385.3, 176.3 386.1 Q 176.9 386.8, 177.9 386.8 " fill="#000000"/>
<path class="legend" d="M 183.0 376.6 L 184.4 376.6 L 184.4 378.0 L 183.0 378.0 L 183.0 376.6 M 183.0 379.7 L 184.4 379.7 L 184.4 387.9 L 183.0 387.9 L 183.0 379.7 " fill="#000000"/>
<path class="legend" d="M 186.3 386.2 Q 187.0 386.5, 187.5 386.6 Q 188.0 386.8, 188.6 386.8 Q 189.3 386.8, 189.7 386.5 Q 190.1 386.2, 190.1 385.6 Q 190.1 385.2, 189.9 385.0 Q 189.7 384.8, 189.4 384.6 Q 189.2 384.5, 188.5 384.3 Q 188.3 384.3, 187.6 384.0 Q 186.9 383.7, 186.5 383.2 Q 186.1 382.7, 186.1 381.9 Q 186.1 380.9, 186.9 380.2 Q 187.6 379.5, 189.1 379.5 Q 189.7 379.5, 190.3 379.7 Q 190.8 379.8, 191.4 380.0 L 191.0 381.2 Q 190.5 381.0, 190.1 380.9 Q 189.6 380.8, 189.1 380.8 Q 188.4 380.8, 188.0 381.1 Q 187.6 381.4, 187.6 381.8 Q 187.6 382.3, 187.9 382.5 Q 188.2 382.7, 188.9 383.0 Q 189.0 383.0, 189.2 383.1 L 189.6 383.2 Q 190.2 383.4, 190.6 383.7 Q 191.1 383.9, 191.3 384.4 Q 191.6 384.8, 191.6 385.6 Q 191.6 386.7, 190.8 387.4 Q 190.0 388.0, 188.6 388.0 Q 187.8 388.0, 187.2 387.9 Q 186.5 387.7, 185.8 387.4 L 186.3 386.2 " fill="#000000"/>
<path class="legend" d="M 192.5 380.8 L 192.5 379.7 L 194.1 379.7 L 194.3 377.3 L 195.4 377.3 L 195.4 379.7 L 197.9 379.7 L 197.9 380.8 L 195.4 380.8 L 195.4 385.4 Q 195.4 386.8, 196.6 386.8 Q 197.1 386.8, 197.8 386.6 L 198.1 387.6 Q 197.2 388.0, 196.4 388.0 Q 195.3 388.0, 194.6 387.3 Q 193.9 386.7, 193.9 385.4 L 193.9 380.8 L 192.5 380.8 " fill="#000000"/>
<path class="legend" d="" fill="#000000"/>
<path class="legend" d="M 203.8 380.9 L 211.1 380.9 L 211.1 382.1 L 203.8 382.1 L 203.8 380.9 M 203.8 384.4 L 211.1 384.4 L 211.1 385.5 L 203.8 385.5 L 203.8 384.4 " fill="#000000"/>
<path class="legend" d="" fill="#000000"/>
<path class="legend" d="M 222.1 388.0 Q 220.0 388.0, 218.9 386.5 Q 217.9 384.9, 217.9 382.2 Q 217.9 379.5, 218.9 378.0 Q 220.0 376.4, 222.1 376.4 Q 224.2 376.4, 225.2 378.0 Q 226.2 379.5, 226.2 382.2 Q 226.2 384.9, 225.2 386.5 Q 224.1 388.0, 222.1 388.0 M 222.1 386.7 Q 223.3 386.7, 223.9 385.6 Q 224.6 384.4, 224.6 382.2 Q 224.6 380.0, 223.9 378.8 Q 223.3 377.7, 222.1 377.7 Q 220.8 377.7, 220.2 378.8 Q 219.5 380.0, 219.5 382.2 Q 219.5 384.4, 220.2 385.6 Q 220.8 386.7, 222.1 386.7 " fill="#000000"/>
<path class="legend" d="M 227.2 386.3 L 228.8 386.3 L 228.8 387.9 L 227.2 387.9 L 227.2 386.3 " fill="#000000"/>
<path class="legend" d="M 235.3 381.9 Q 236.4 382.2, 237.0 383.0 Q 237.5 383.7, 237.5 384.8 Q 237.5 385.7, 237.0 386.5 Q 236.5 387.2, 235.7 387.6 Q 234.8 388.0, 233.6 388.0 Q 232.4 388.0, 231.5 387.6 Q 230.6 387.2, 229.9 386.3 L 230.8 385.4 Q 231.5 386.2, 232.1 386.5 Q 232.7 386.8, 233.6 386.8 Q 234.7 386.8, 235.3 386.2 Q 235.9 385.7, 235.9 384.8 Q 235.9 383.6, 235.2 383.1 Q 234.6 382.6, 233.2 382.6 L 232.4 382.6 L 232.4 381.4 L 233.1 381.4 Q 234.3 381.4, 235.0 380.9 Q 235.7 380.3, 235.7 379.3 Q 235.7 378.6, 235.1 378.2 Q 234.6 377.7, 233.6 377.7 Q 232.7 377.7, 232.1 378.0 Q 231.5 378.4, 231.1 379.2 L 230.0 378.6 Q 230.4 377.7, 231.3 377.1 Q 232.3 376.4, 233.6 376.4 Q 235.3 376.4, 236.3 377.2 Q 237.3 378.0, 237.3 379.3 Q 237.3 380.2, 236.8 380.9 Q 236.3 381.6, 235.3 381.9 " fill="#000000"/>
<path class="legend" d="M 243.9 381.9 Q 245.0 382.2, 245.5 383.0 Q 246.1 383.7, 246.1 384.8 Q 246.1 385.7, 245.6 386.5 Q 245.1 387.2, 244.2 387.6 Q 243.3 388.0, 242.2 388.0 Q 241.0 388.0, 240.1 387.6 Q 239.2 387.2, 238.4 386.3 L 239.4 385.4 Q 240.1 386.2, 240.7 386.5 Q 241.2 386.8, 242.2 386.8 Q 243.2 386.8, 243.8 386.2 Q 244.5 385.7, 244.5 384.8 Q 244.5 383.6, 243.8 383.1 Q 243.2 382.6, 241.8 382.6 L 241.0 382.6 L 241.0 381.4 L 241.7 381.4 Q 242.9 381.4, 243.6 380.9 Q 244.2 380.3, 244.2 379.3 Q 244.2 378.6, 243.7 378.2 Q 243.1 377.7, 242.2 377.7 Q 241.3 377.7, 240.7 378.0 Q 240.1 378.4, 239.6 379.2 L 238.5 378.6 Q 238.9 377.7, 239.9 377.1 Q 240.9 376.4, 242.2 376.4 Q 243.9 376.4, 244.8 377.2 Q 245.8 378.0, 245.8 379.3 Q 245.8 380.2, 245.3 380.9 Q 244.8 381.6, 243.9 381.9 " fill="#000000"/>
<path class="legend" d="M 247.0 378.7 Q 247.5 377.6, 248.4 377.0 Q 249.4 376.4, 250.8 376.4 Q 252.5 376.4, 253.5 377.4 Q 254.4 378.3, 254.4 379.9 Q 254.4 381.6, 253.2 383.2 Q 252.0 384.8, 249.4 386.6 L 254.6 386.6 L 254.6 387.9 L 247.0 387.9 L 247.0 386.8 Q 249.1 385.3, 250.4 384.2 Q 251.6 383.1, 252.2 382.1 Q 252.8 381.1, 252.8 380.0 Q 252.8 378.9, 252.3 378.3 Q 251.8 377.7, 250.8 377.7 Q 249.9 377.7, 249.3 378.1 Q 248.7 378.4, 248.3 379.3 L 247.0 378.7 " fill="#000000"/>
<path class="legend" d="M 261.0 381.9 Q 262.1 382.2, 262.7 383.0 Q 263.2 383.7, 263.2 384.8 Q 263.2 385.7, 262.7 386.5 Q 262.3 387.2, 261.4 387.6 Q 260.5 388.0, 259.3 388.0 Q 258.1 388.0, 257.2 387.6 Q 256.3 387.2, 255.6 386.3 L 256.5 385.4 Q 257.2 386.2, 257.8 386.5 Q 258.4 386.8, 259.3 386.8 Q 260.4 386.8, 261.0 386.2 Q 261.6 385.7, 261.6 384.8 Q 261.6 383.6, 261.0 383.1 Q 260.3 382.6, 258.9 382.6 L 258.1 382.6 L 258.1 381.4 L 258.8 381.4 Q 260.1 381.4, 260.7 380.9 Q 261.4 380.3, 261.4 379.3 Q 261.4 378.6, 260.8 378.2 Q 260.3 377.7, 259.4 377.7 Q 258.4 377.7, 257.8 378.0 Q 257.2 378.4, 256.8 379.2 L 255.7 378.6 Q 256.1 377.7, 257.1 377.1 Q 258.0 376.4, 259.4 376.4 Q 261.0 376.4, 262.0 377.2 Q 263.0 378.0, 263.0 379.3 Q 263.0 380.2, 262.5 380.9 Q 262.0 381.6, 261.0 381.9 " fill="#000000"/>
<path class="bond-0 atom-0 atom-1" d="M 547.9,102.3 L 601.2,131.2" style="fill:none;fill-rule:evenodd;stroke:#000000;stroke-width:2.0px;stroke-linecap:butt;stroke-linejoin:miter;stroke-opacity:1"/>
<path class="bond-0 atom-0 atom-1" d="M 542.1,113.0 L 595.5,141.8" style="fill:none;fill-rule:evenodd;stroke:#000000;stroke-width:2.0px;stroke-linecap:butt;stroke-linejoin:miter;stroke-opacity:1"/>
<path class="bond-1 atom-1 atom-2" d="M 598.3,136.5 L 599.7,186.6" style="fill:none;fill-rule:evenodd;stroke:#000000;stroke-width:2.0px;stroke-linecap:butt;stroke-linejoin:miter;stroke-opacity:1"/>
<path class="bond-2 atom-2 atom-3" d="M 600.3,208.1 L 601.7,257.7" style="fill:none;fill-rule:evenodd;stroke:#000000;stroke-width:2.0px;stroke-linecap:butt;stroke-linejoin:miter;stroke-opacity:1"/>
<path class="bond-3 atom-2 atom-4" d="M 609.2,196.9 L 660.6,195.4" style="fill:none;fill-rule:evenodd;stroke:#000000;stroke-width:2.0px;stroke-linecap:butt;stroke-linejoin:miter;stroke-opacity:1"/>
<path class="bond-4 atom-4 atom-5" d="M 660.6,195.4 L 692.3,247.1" style="fill:none;fill-rule:evenodd;stroke:#000000;stroke-width:2.0px;stroke-linecap:butt;stroke-linejoin:miter;stroke-opacity:1"/>
<path class="bond-4 atom-4 atom-5" d="M 675.7,196.8 L 697.9,233.0" style="fill:none;fill-rule:evenodd;stroke:#000000;stroke-width:2.0px;stroke-linecap:butt;stroke-linejoin:miter;stroke-opacity:1"/>
<path class="bond-5 atom-5 atom-6" d="M 692.3,247.1 L 752.9,245.5" style="fill:none;fill-rule:evenodd;stroke:#000000;stroke-width:2.0px;stroke-linecap:butt;stroke-linejoin:miter;stroke-opacity:1"/>
<path class="bond-6 atom-6 atom-7" d="M 752.9,245.5 L 781.8,192.1" style="fill:none;fill-rule:evenodd;stroke:#000000;stroke-width:2.0px;stroke-linecap:butt;stroke-linejoin:miter;stroke-opacity:1"/>
<path class="bond-6 atom-6 atom-7" d="M 746.6,231.7 L 766.8,194.4" style="fill:none;fill-rule:evenodd;stroke:#000000;stroke-width:2.0px;stroke-linecap:butt;stroke-linejoin:miter;stroke-opacity:1"/>
<path class="bond-7 atom-7 atom-8" d="M 781.8,192.1 L 750.1,140.5" style="fill:none;fill-rule:evenodd;stroke:#000000;stroke-width:2.0px;stroke-linecap:butt;stroke-linejoin:miter;stroke-opacity:1"/>
<path class="bond-8 atom-8 atom-9" d="M 750.1,140.5 L 689.5,142.1" style="fill:none;fill-rule:evenodd;stroke:#000000;stroke-width:2.0px;stroke-linecap:butt;stroke-linejoin:miter;stroke-opacity:1"/>
<path class="bond-8 atom-8 atom-9" d="M 741.3,152.8 L 698.9,154.0" style="fill:none;fill-rule:evenodd;stroke:#000000;stroke-width:2.0px;stroke-linecap:butt;stroke-linejoin:miter;stroke-opacity:1"/>
<path class="bond-9 atom-2 atom-10" d="M 590.8,197.4 L 539.4,198.8" style="fill:none;fill-rule:evenodd;stroke:#000000;stroke-width:2.0px;stroke-linecap:butt;stroke-linejoin:miter;stroke-opacity:1"/>
<path class="bond-10 atom-10 atom-11" d="M 539.4,198.8 L 507.7,147.1" style="fill:none;fill-rule:evenodd;stroke:#000000;stroke-width:2.0px;stroke-linecap:butt;stroke-linejoin:miter;stroke-opacity:1"/>
<path class="bond-10 atom-10 atom-11" d="M 524.3,197.4 L 502.1,161.2" style="fill:none;fill-rule:evenodd;stroke:#000000;stroke-width:2.0px;stroke-linecap:butt;stroke-linejoin:miter;stroke-opacity:1"/>
<path class="bond-11 atom-11 atom-12" d="M 507.7,147.1 L 447.1,148.7" style="fill:none;fill-rule:evenodd;stroke:#000000;stroke-width:2.0px;stroke-linecap:butt;stroke-linejoin:miter;stroke-opacity:1"/>
<path class="bond-12 atom-12 atom-13" d="M 447.1,148.7 L 418.2,202.1" style="fill:none;fill-rule:evenodd;stroke:#000000;stroke-width:2.0px;stroke-linecap:butt;stroke-linejoin:miter;stroke-opacity:1"/>
<path class="bond-12 atom-12 atom-13" d="M 453.4,162.5 L 433.2,199.8" style="fill:none;fill-rule:evenodd;stroke:#000000;stroke-width:2.0px;stroke-linecap:butt;stroke-linejoin:miter;stroke-opacity:1"/>
<path class="bond-13 atom-13 atom-14" d="M 418.2,202.1 L 449.9,253.7" style="fill:none;fill-rule:evenodd;stroke:#000000;stroke-width:2.0px;stroke-linecap:butt;stroke-linejoin:miter;stroke-opacity:1"/>
<path class="bond-14 atom-14 atom-15" d="M 449.9,253.7 L 510.5,252.1" style="fill:none;fill-rule:evenodd;stroke:#000000;stroke-width:2.0px;stroke-linecap:butt;stroke-linejoin:miter;stroke-opacity:1"/>
<path class="bond-14 atom-14 atom-15" d="M 458.7,241.4 L 501.1,240.2" style="fill:none;fill-rule:evenodd;stroke:#000000;stroke-width:2.0px;stroke-linecap:butt;stroke-linejoin:miter;stroke-opacity:1"/>
<path class="bond-15 atom-9 atom-4" d="M 689.5,142.1 L 660.6,195.4" style="fill:none;fill-rule:evenodd;stroke:#000000;stroke-width:2.0px;stroke-linecap:butt;stroke-linejoin:miter;stroke-opacity:1"/>
<path class="bond-16 atom-15 atom-10" d="M 510.5,252.1 L 539.4,198.8" style="fill:none;fill-rule:evenodd;stroke:#000000;stroke-width:2.0px;stroke-linecap:butt;stroke-linejoin:miter;stroke-opacity:1"/>
<path class="atom-2" d="M 593.5 203.0 Q 593.7 203.1, 594.5 203.4 Q 595.3 203.8, 596.1 204.0 Q 597.0 204.2, 597.9 204.2 Q 599.5 204.2, 600.5 203.4 Q 601.4 202.6, 601.4 201.2 Q 601.4 200.3, 600.9 199.7 Q 600.5 199.1, 599.7 198.8 Q 599.0 198.5, 597.8 198.1 Q 596.3 197.7, 595.4 197.2 Q 594.5 196.8, 593.8 195.9 Q 593.2 194.9, 593.2 193.4 Q 593.2 191.2, 594.6 189.9 Q 596.1 188.6, 599.0 188.6 Q 601.0 188.6, 603.3 189.5 L 602.7 191.4 Q 600.6 190.5, 599.1 190.5 Q 597.4 190.5, 596.5 191.2 Q 595.6 191.9, 595.6 193.1 Q 595.6 194.0, 596.1 194.6 Q 596.5 195.1, 597.2 195.5 Q 597.9 195.8, 599.1 196.1 Q 600.6 196.6, 601.6 197.1 Q 602.5 197.6, 603.1 198.6 Q 603.8 199.6, 603.8 201.2 Q 603.8 203.6, 602.2 204.9 Q 600.6 206.1, 598.0 206.1 Q 596.5 206.1, 595.3 205.8 Q 594.2 205.5, 592.8 204.9 L 593.5 203.0 " fill="#000000"/>
<path class="atom-2" d="M 605.0 188.5 L 607.2 188.5 L 607.2 190.6 L 605.0 190.6 L 605.0 188.5 M 605.0 193.2 L 607.2 193.2 L 607.2 205.7 L 605.0 205.7 L 605.0 193.2 " fill="#000000"/>
<path class="legend" d="M 567.6 365.4 L 567.7 366.5 Q 568.6 365.3, 570.0 365.3 Q 570.5 365.3, 571.1 365.4 L 570.8 366.8 Q 570.1 366.6, 569.8 366.6 Q 569.1 366.6, 568.6 366.9 Q 568.2 367.1, 567.8 367.8 L 567.8 373.6 L 566.3 373.6 L 566.3 365.4 L 567.6 365.4 " fill="#000000"/>
<path class="legend" d="M 571.3 369.5 Q 571.3 367.5, 572.3 366.4 Q 573.3 365.3, 575.2 365.3 Q 577.0 365.3, 577.8 366.4 Q 578.6 367.4, 578.6 369.5 L 578.6 369.7 L 572.8 369.7 Q 572.9 371.1, 573.5 371.8 Q 574.1 372.6, 575.3 372.6 Q 575.9 372.6, 576.5 372.4 Q 577.1 372.3, 577.8 372.0 L 578.3 373.0 Q 577.4 373.4, 576.7 373.6 Q 576.0 373.8, 575.2 373.8 Q 573.4 373.8, 572.3 372.6 Q 571.3 371.5, 571.3 369.5 M 575.2 366.4 Q 574.2 366.4, 573.6 367.0 Q 573.1 367.5, 572.9 368.6 L 577.0 368.6 Q 576.9 367.5, 576.4 367.0 Q 576.0 366.4, 575.2 366.4 " fill="#000000"/>
<path class="legend" d="M 579.2 371.4 Q 579.2 370.1, 580.2 369.4 Q 581.3 368.7, 583.2 368.7 L 584.5 368.7 L 584.5 368.3 Q 584.5 367.3, 584.0 366.9 Q 583.6 366.4, 582.6 366.4 Q 581.9 366.4, 581.4 366.6 Q 580.9 366.7, 580.1 367.0 L 579.7 366.0 Q 581.2 365.3, 582.6 365.3 Q 584.4 365.3, 585.2 366.0 Q 586.0 366.8, 586.0 368.4 L 586.0 373.6 L 584.8 373.6 Q 584.8 373.6, 584.7 373.3 Q 584.7 373.1, 584.6 372.7 Q 583.4 373.8, 581.9 373.8 Q 580.7 373.8, 579.9 373.2 Q 579.2 372.5, 579.2 371.4 M 580.7 371.4 Q 580.7 372.0, 581.1 372.3 Q 581.5 372.6, 582.2 372.6 Q 582.8 372.6, 583.4 372.4 Q 584.0 372.0, 584.5 371.5 L 584.5 369.8 L 583.3 369.8 Q 582.0 369.8, 581.4 370.2 Q 580.7 370.6, 580.7 371.4 " fill="#000000"/>
<path class="legend" d="M 587.2 369.5 Q 587.2 367.5, 588.2 366.4 Q 589.2 365.3, 591.1 365.3 Q 593.0 365.3, 594.0 366.6 L 593.0 367.4 Q 592.6 366.9, 592.1 366.7 Q 591.7 366.4, 591.1 366.4 Q 590.0 366.4, 589.4 367.2 Q 588.7 368.0, 588.7 369.5 Q 588.7 371.0, 589.4 371.8 Q 590.0 372.6, 591.2 372.6 Q 591.9 372.6, 592.4 372.4 Q 592.8 372.3, 593.4 372.0 L 593.8 373.0 Q 592.6 373.7, 591.1 373.7 Q 589.2 373.7, 588.2 372.6 Q 587.2 371.5, 587.2 369.5 " fill="#000000"/>
<path class="legend" d="M 594.4 366.6 L 594.4 365.4 L 595.9 365.4 L 596.2 363.0 L 597.3 363.0 L 597.3 365.4 L 599.8 365.4 L 599.8 366.6 L 597.3 366.6 L 597.3 371.1 Q 597.3 372.5, 598.5 372.5 Q 599.0 372.5, 599.7 372.3 L 599.9 373.4 Q 599.1 373.7, 598.2 373.7 Q 597.2 373.7, 596.5 373.1 Q 595.8 372.4, 595.8 371.2 L 595.8 366.6 L 594.4 366.6 " fill="#000000"/>
<path class="legend" d="M 608.5 374.4 L 608.5 375.7 L 600.3 375.7 L 600.3 374.4 L 608.5 374.4 " fill="#000000"/>
<path class="legend" d="M 608.5 364.4 Q 609.0 363.4, 609.9 362.8 Q 610.9 362.2, 612.3 362.2 Q 614.0 362.2, 615.0 363.1 Q 615.9 364.0, 615.9 365.7 Q 615.9 367.4, 614.7 368.9 Q 613.5 370.5, 610.9 372.4 L 616.1 372.4 L 616.1 373.6 L 608.5 373.6 L 608.5 372.6 Q 610.6 371.1, 611.9 369.9 Q 613.1 368.8, 613.7 367.8 Q 614.3 366.8, 614.3 365.8 Q 614.3 364.7, 613.8 364.1 Q 613.3 363.5, 612.3 363.5 Q 611.4 363.5, 610.8 363.8 Q 610.2 364.2, 609.8 365.0 L 608.5 364.4 " fill="#000000"/>
<path class="legend" d="M 622.5 367.7 Q 623.6 368.0, 624.2 368.7 Q 624.7 369.4, 624.7 370.5 Q 624.7 371.5, 624.2 372.2 Q 623.8 373.0, 622.9 373.4 Q 622.0 373.8, 620.8 373.8 Q 619.6 373.8, 618.7 373.4 Q 617.8 372.9, 617.1 372.1 L 618.0 371.2 Q 618.7 371.9, 619.3 372.2 Q 619.9 372.5, 620.8 372.5 Q 621.9 372.5, 622.5 372.0 Q 623.1 371.4, 623.1 370.5 Q 623.1 369.4, 622.5 368.8 Q 621.8 368.3, 620.4 368.3 L 619.6 368.3 L 619.6 367.2 L 620.3 367.2 Q 621.6 367.2, 622.2 366.6 Q 622.9 366.1, 622.9 365.1 Q 622.9 364.3, 622.3 363.9 Q 621.8 363.5, 620.9 363.5 Q 619.9 363.5, 619.3 363.8 Q 618.7 364.1, 618.3 365.0 L 617.2 364.4 Q 617.6 363.4, 618.6 362.8 Q 619.5 362.2, 620.9 362.2 Q 622.5 362.2, 623.5 363.0 Q 624.5 363.7, 624.5 365.1 Q 624.5 366.0, 624.0 366.6 Q 623.5 367.3, 622.5 367.7 " fill="#000000"/>
<path class="legend" d="M 631.4 367.6 Q 632.5 368.1, 633.1 368.8 Q 633.7 369.4, 633.7 370.5 Q 633.7 371.5, 633.2 372.2 Q 632.7 373.0, 631.8 373.4 Q 630.9 373.8, 629.7 373.8 Q 627.8 373.8, 626.7 372.9 Q 625.7 372.0, 625.7 370.5 Q 625.7 369.6, 626.1 368.9 Q 626.6 368.2, 627.6 367.7 Q 626.9 367.3, 626.5 366.7 Q 626.1 366.0, 626.1 365.1 Q 626.1 363.7, 627.0 363.0 Q 628.0 362.2, 629.7 362.2 Q 631.3 362.2, 632.3 363.0 Q 633.2 363.7, 633.2 365.1 Q 633.2 365.9, 632.8 366.5 Q 632.3 367.1, 631.4 367.6 M 629.7 363.4 Q 628.7 363.4, 628.2 363.8 Q 627.7 364.3, 627.7 365.1 Q 627.7 365.7, 628.0 366.1 Q 628.4 366.4, 628.9 366.7 Q 629.4 366.9, 630.4 367.2 Q 631.0 366.8, 631.3 366.2 Q 631.6 365.7, 631.6 365.1 Q 631.6 364.3, 631.1 363.8 Q 630.6 363.4, 629.7 363.4 M 629.7 372.6 Q 630.8 372.6, 631.4 372.0 Q 632.1 371.5, 632.1 370.5 Q 632.1 369.9, 631.7 369.5 Q 631.4 369.1, 630.9 368.9 Q 630.4 368.7, 629.5 368.4 L 628.8 368.2 Q 628.0 368.6, 627.6 369.2 Q 627.3 369.8, 627.3 370.5 Q 627.3 371.5, 627.9 372.0 Q 628.6 372.6, 629.7 372.6 " fill="#000000"/>
<path class="legend" d="M 536.3 383.8 Q 536.3 381.8, 537.3 380.7 Q 538.3 379.5, 540.2 379.5 Q 542.1 379.5, 543.1 380.9 L 542.1 381.6 Q 541.7 381.2, 541.2 380.9 Q 540.8 380.7, 540.2 380.7 Q 539.1 380.7, 538.4 381.5 Q 537.8 382.3, 537.8 383.8 Q 537.8 385.3, 538.5 386.1 Q 539.1 386.8, 540.3 386.8 Q 541.0 386.8, 541.4 386.7 Q 541.9 386.5, 542.5 386.3 L 542.9 387.3 Q 541.7 388.0, 540.2 388.0 Q 538.3 388.0, 537.3 386.9 Q 536.3 385.7, 536.3 383.8 " fill="#000000"/>
<path class="legend" d="M 543.4 383.8 Q 543.4 381.7, 544.5 380.6 Q 545.5 379.5, 547.3 379.5 Q 549.1 379.5, 549.9 380.6 Q 550.7 381.7, 550.7 383.7 L 550.7 384.0 L 545.0 384.0 Q 545.0 385.4, 545.6 386.1 Q 546.3 386.8, 547.4 386.8 Q 548.1 386.8, 548.7 386.7 Q 549.3 386.5, 550.0 386.2 L 550.4 387.2 Q 549.6 387.6, 548.9 387.8 Q 548.1 388.0, 547.3 388.0 Q 545.5 388.0, 544.5 386.9 Q 543.4 385.8, 543.4 383.8 M 547.3 380.7 Q 546.4 380.7, 545.8 381.2 Q 545.2 381.8, 545.0 382.8 L 549.1 382.8 Q 549.0 381.7, 548.6 381.2 Q 548.1 380.7, 547.3 380.7 " fill="#000000"/>
<path class="legend" d="M 555.6 379.5 Q 556.9 379.5, 557.6 380.3 Q 558.3 381.0, 558.3 382.4 L 558.3 387.9 L 556.8 387.9 L 556.8 382.6 Q 556.8 381.6, 556.4 381.2 Q 556.1 380.7, 555.2 380.7 Q 554.5 380.7, 553.9 381.1 Q 553.2 381.4, 552.8 382.0 L 552.8 387.9 L 551.3 387.9 L 551.3 379.7 L 552.6 379.7 L 552.7 380.8 Q 553.8 379.5, 555.6 379.5 " fill="#000000"/>
<path class="legend" d="M 559.6 380.8 L 559.6 379.7 L 561.1 379.7 L 561.4 377.3 L 562.5 377.3 L 562.5 379.7 L 565.0 379.7 L 565.0 380.8 L 562.5 380.8 L 562.5 385.4 Q 562.5 386.8, 563.7 386.8 Q 564.2 386.8, 564.9 386.6 L 565.1 387.6 Q 564.3 388.0, 563.4 388.0 Q 562.4 388.0, 561.7 387.3 Q 561.0 386.7, 561.0 385.4 L 561.0 380.8 L 559.6 380.8 " fill="#000000"/>
<path class="legend" d="M 573.7 388.7 L 573.7 390.0 L 565.5 390.0 L 565.5 388.7 L 573.7 388.7 " fill="#000000"/>
<path class="legend" d="M 581.2 375.7 L 581.2 387.9 L 580.0 387.9 L 579.7 386.9 Q 578.8 388.0, 577.3 388.0 Q 575.6 388.0, 574.6 387.0 Q 573.7 385.9, 573.7 383.9 Q 573.7 381.8, 574.8 380.7 Q 576.0 379.5, 577.9 379.5 Q 578.8 379.5, 579.7 379.7 L 579.7 375.7 L 581.2 375.7 M 577.4 386.8 Q 578.2 386.8, 578.8 386.4 Q 579.4 385.9, 579.7 385.1 L 579.7 380.9 Q 578.9 380.7, 577.9 380.7 Q 576.7 380.7, 576.0 381.6 Q 575.2 382.4, 575.2 383.9 Q 575.2 385.3, 575.8 386.1 Q 576.4 386.8, 577.4 386.8 " fill="#000000"/>
<path class="legend" d="M 582.5 376.6 L 583.9 376.6 L 583.9 378.0 L 582.5 378.0 L 582.5 376.6 M 582.5 379.7 L 583.9 379.7 L 583.9 387.9 L 582.5 387.9 L 582.5 379.7 " fill="#000000"/>
<path class="legend" d="M 585.8 386.2 Q 586.5 386.5, 587.0 386.6 Q 587.5 386.8, 588.1 386.8 Q 588.8 386.8, 589.2 386.5 Q 589.6 386.2, 589.6 385.6 Q 589.6 385.2, 589.4 385.0 Q 589.2 384.8, 588.9 384.6 Q 588.7 384.5, 587.9 384.3 Q 587.8 384.3, 587.1 384.0 Q 586.4 383.7, 586.0 383.2 Q 585.6 382.7, 585.6 381.9 Q 585.6 380.9, 586.3 380.2 Q 587.1 379.5, 588.6 379.5 Q 589.2 379.5, 589.8 379.7 Q 590.3 379.8, 590.9 380.0 L 590.5 381.2 Q 590.0 381.0, 589.5 380.9 Q 589.1 380.8, 588.6 380.8 Q 587.8 380.8, 587.5 381.1 Q 587.1 381.4, 587.1 381.8 Q 587.1 382.3, 587.4 382.5 Q 587.7 382.7, 588.4 383.0 Q 588.5 383.0, 588.7 383.1 L 589.1 383.2 Q 589.7 383.4, 590.1 383.7 Q 590.5 383.9, 590.8 384.4 Q 591.1 384.8, 591.1 385.6 Q 591.1 386.7, 590.3 387.4 Q 589.4 388.0, 588.1 388.0 Q 587.3 388.0, 586.6 387.9 Q 586.0 387.7, 585.3 387.4 L 585.8 386.2 " fill="#000000"/>
<path class="legend" d="M 592.0 380.8 L 592.0 379.7 L 593.5 379.7 L 593.8 377.3 L 594.9 377.3 L 594.9 379.7 L 597.4 379.7 L 597.4 380.8 L 594.9 380.8 L 594.9 385.4 Q 594.9 386.8, 596.1 386.8 Q 596.6 386.8, 597.3 386.6 L 597.6 387.6 Q 596.7 388.0, 595.8 388.0 Q 594.8 388.0, 594.1 387.3 Q 593.4 386.7, 593.4 385.4 L 593.4 380.8 L 592.0 380.8 " fill="#000000"/>
<path class="legend" d="" fill="#000000"/>
<path class="legend" d="M 603.3 380.9 L 610.6 380.9 L 610.6 382.1 L 603.3 382.1 L 603.3 380.9 M 603.3 384.4 L 610.6 384.4 L 610.6 385.5 L 603.3 385.5 L 603.3 384.4 " fill="#000000"/>
<path class="legend" d="" fill="#000000"/>
<path class="legend" d="M 621.5 388.0 Q 619.5 388.0, 618.4 386.5 Q 617.4 384.9, 617.4 382.2 Q 617.4 379.5, 618.4 378.0 Q 619.5 376.4, 621.5 376.4 Q 623.6 376.4, 624.7 378.0 Q 625.7 379.5, 625.7 382.2 Q 625.7 384.9, 624.7 386.5 Q 623.6 388.0, 621.5 388.0 M 621.5 386.7 Q 622.8 386.7, 623.4 385.6 Q 624.1 384.4, 624.1 382.2 Q 624.1 380.0, 623.4 378.8 Q 622.8 377.7, 621.5 377.7 Q 620.3 377.7, 619.7 378.8 Q 619.0 380.0, 619.0 382.2 Q 619.0 384.4, 619.7 385.6 Q 620.3 386.7, 621.5 386.7 " fill="#000000"/>
<path class="legend" d="M 626.7 386.3 L 628.3 386.3 L 628.3 387.9 L 626.7 387.9 L 626.7 386.3 " fill="#000000"/>
<path class="legend" d="M 636.7 384.0 L 638.1 384.0 L 638.1 385.3 L 636.7 385.3 L 636.7 387.9 L 635.2 387.9 L 635.2 385.3 L 629.4 385.3 L 629.4 384.3 L 634.3 376.6 L 636.7 376.6 L 636.7 384.0 M 631.2 384.0 L 635.2 384.0 L 635.2 377.6 L 631.2 384.0 " fill="#000000"/>
<path class="legend" d="M 643.0 380.8 Q 644.0 380.8, 644.8 381.2 Q 645.6 381.6, 646.1 382.4 Q 646.5 383.2, 646.5 384.3 Q 646.5 385.5, 646.0 386.3 Q 645.4 387.2, 644.5 387.6 Q 643.5 388.0, 642.5 388.0 Q 641.5 388.0, 640.5 387.6 Q 639.5 387.2, 638.9 386.5 L 639.8 385.5 Q 640.4 386.1, 641.1 386.4 Q 641.8 386.7, 642.5 386.7 Q 643.5 386.7, 644.2 386.1 Q 644.9 385.5, 644.9 384.3 Q 644.9 383.1, 644.2 382.6 Q 643.5 382.0, 642.4 382.0 Q 641.5 382.0, 640.3 382.4 L 639.5 382.0 L 640.0 376.6 L 645.8 376.6 L 645.7 377.8 L 641.3 377.8 L 641.0 381.2 Q 642.0 380.8, 643.0 380.8 " fill="#000000"/>
<path class="legend" d="M 652.7 381.9 Q 653.9 382.2, 654.4 383.0 Q 654.9 383.7, 654.9 384.8 Q 654.9 385.7, 654.4 386.5 Q 654.0 387.2, 653.1 387.6 Q 652.2 388.0, 651.1 388.0 Q 649.8 388.0, 648.9 387.6 Q 648.0 387.2, 647.3 386.3 L 648.2 385.4 Q 648.9 386.2, 649.5 386.5 Q 650.1 386.8, 651.1 386.8 Q 652.1 386.8, 652.7 386.2 Q 653.3 385.7, 653.3 384.8 Q 653.3 383.6, 652.7 383.1 Q 652.0 382.6, 650.6 382.6 L 649.8 382.6 L 649.8 381.4 L 650.5 381.4 Q 651.8 381.4, 652.4 380.9 Q 653.1 380.3, 653.1 379.3 Q 653.1 378.6, 652.5 378.2 Q 652.0 377.7, 651.1 377.7 Q 650.1 377.7, 649.5 378.0 Q 649.0 378.4, 648.5 379.2 L 647.4 378.6 Q 647.8 377.7, 648.8 377.1 Q 649.7 376.4, 651.1 376.4 Q 652.7 376.4, 653.7 377.2 Q 654.7 378.0, 654.7 379.3 Q 654.7 380.2, 654.2 380.9 Q 653.7 381.6, 652.7 381.9 " fill="#000000"/>
<path class="legend" d="M 659.7 376.4 Q 661.7 376.4, 662.7 377.8 Q 663.7 379.2, 663.7 381.9 Q 663.7 384.9, 662.5 386.5 Q 661.2 388.0, 658.8 388.0 Q 658.1 388.0, 657.5 387.9 Q 656.9 387.7, 656.3 387.4 L 656.9 386.3 Q 657.8 386.7, 658.8 386.7 Q 660.4 386.7, 661.2 385.7 Q 662.0 384.7, 662.1 382.5 Q 661.5 383.1, 660.8 383.4 Q 660.1 383.6, 659.3 383.6 Q 658.3 383.6, 657.5 383.2 Q 656.7 382.8, 656.3 382.0 Q 655.9 381.2, 655.9 380.2 Q 655.9 379.1, 656.3 378.3 Q 656.8 377.4, 657.7 376.9 Q 658.6 376.4, 659.7 376.4 M 657.5 380.2 Q 657.5 381.2, 658.0 381.8 Q 658.6 382.4, 659.6 382.4 Q 660.3 382.4, 660.9 382.1 Q 661.6 381.8, 662.1 381.3 Q 662.0 379.4, 661.5 378.6 Q 660.9 377.7, 659.7 377.7 Q 659.1 377.7, 658.5 378.1 Q 658.0 378.4, 657.8 378.9 Q 657.5 379.5, 657.5 380.2 " fill="#000000"/>
<path class="bond-0 atom-0 atom-1" d="M 897.8,120.6 L 956.3,104.9" style="fill:none;fill-rule:evenodd;stroke:#000000;stroke-width:2.0px;stroke-linecap:butt;stroke-linejoin:miter;stroke-opacity:1"/>
<path class="bond-0 atom-0 atom-1" d="M 900.9,132.3 L 959.5,116.6" style="fill:none;fill-rule:evenodd;stroke:#000000;stroke-width:2.0px;stroke-linecap:butt;stroke-linejoin:miter;stroke-opacity:1"/>
<path class="bond-1 atom-1 atom-2" d="M 957.9,110.8 L 991.6,144.5" style="fill:none;fill-rule:evenodd;stroke:#000000;stroke-width:2.0px;stroke-linecap:butt;stroke-linejoin:miter;stroke-opacity:1"/>
<path class="bond-2 atom-2 atom-3" d="M 1010.0,144.5 L 1043.7,110.8" style="fill:none;fill-rule:evenodd;stroke:#000000;stroke-width:2.0px;stroke-linecap:butt;stroke-linejoin:miter;stroke-opacity:1"/>
<path class="bond-3 atom-3 atom-4" d="M 1043.7,110.8 L 1102.2,126.5" style="fill:none;fill-rule:evenodd;stroke:#000000;stroke-width:2.0px;stroke-linecap:butt;stroke-linejoin:miter;stroke-opacity:1"/>
<path class="bond-4 atom-2 atom-5" d="M 991.6,162.8 L 957.9,196.5" style="fill:none;fill-rule:evenodd;stroke:#000000;stroke-width:2.0px;stroke-linecap:butt;stroke-linejoin:miter;stroke-opacity:1"/>
<path class="bond-5 atom-5 atom-6" d="M 957.9,196.5 L 973.6,255.1" style="fill:none;fill-rule:evenodd;stroke:#000000;stroke-width:2.0px;stroke-linecap:butt;stroke-linejoin:miter;stroke-opacity:1"/>
<path class="bond-6 atom-2 atom-7" d="M 1010.0,162.8 L 1043.7,196.5" style="fill:none;fill-rule:evenodd;stroke:#000000;stroke-width:2.0px;stroke-linecap:butt;stroke-linejoin:miter;stroke-opacity:1"/>
<path class="bond-7 atom-7 atom-8" d="M 1043.7,196.5 L 1028.0,255.1" style="fill:none;fill-rule:evenodd;stroke:#000000;stroke-width:2.0px;stroke-linecap:butt;stroke-linejoin:miter;stroke-opacity:1"/>
<path class="atom-2" d="M 994.2 159.6 Q 994.4 159.6, 995.2 160.0 Q 996.0 160.3, 996.9 160.5 Q 997.8 160.7, 998.7 160.7 Q 1000.3 160.7, 1001.3 160.0 Q 1002.2 159.2, 1002.2 157.8 Q 1002.2 156.8, 1001.7 156.2 Q 1001.3 155.7, 1000.5 155.3 Q 999.8 155.0, 998.6 154.7 Q 997.1 154.2, 996.1 153.8 Q 995.2 153.3, 994.6 152.4 Q 994.0 151.5, 994.0 149.9 Q 994.0 147.8, 995.4 146.4 Q 996.9 145.1, 999.8 145.1 Q 1001.8 145.1, 1004.0 146.1 L 1003.5 147.9 Q 1001.4 147.1, 999.9 147.1 Q 998.2 147.1, 997.3 147.8 Q 996.4 148.5, 996.4 149.6 Q 996.4 150.6, 996.8 151.1 Q 997.3 151.7, 998.0 152.0 Q 998.7 152.3, 999.9 152.7 Q 1001.4 153.2, 1002.3 153.6 Q 1003.3 154.1, 1003.9 155.1 Q 1004.6 156.1, 1004.6 157.8 Q 1004.6 160.1, 1003.0 161.4 Q 1001.4 162.7, 998.8 162.7 Q 997.3 162.7, 996.1 162.4 Q 995.0 162.0, 993.6 161.5 L 994.2 159.6 " fill="#000000"/>
<path class="atom-2" d="M 1005.7 145.1 L 1008.0 145.1 L 1008.0 147.2 L 1005.7 147.2 L 1005.7 145.1 M 1005.7 149.8 L 1008.0 149.8 L 1008.0 162.2 L 1005.7 162.2 L 1005.7 149.8 " fill="#000000"/>
<path class="legend" d="M 968.1 365.4 L 968.3 366.5 Q 969.1 365.3, 970.5 365.3 Q 971.0 365.3, 971.6 365.4 L 971.4 366.8 Q 970.7 366.6, 970.3 366.6 Q 969.6 366.6, 969.2 366.9 Q 968.7 367.1, 968.4 367.8 L 968.4 373.6 L 966.9 373.6 L 966.9 365.4 L 968.1 365.4 " fill="#000000"/>
<path class="legend" d="M 971.8 369.5 Q 971.8 367.5, 972.8 366.4 Q 973.9 365.3, 975.7 365.3 Q 977.5 365.3, 978.3 366.4 Q 979.1 367.4, 979.1 369.5 L 979.1 369.7 L 973.4 369.7 Q 973.4 371.1, 974.0 371.8 Q 974.7 372.6, 975.8 372.6 Q 976.5 372.6, 977.1 372.4 Q 977.6 372.3, 978.4 372.0 L 978.8 373.0 Q 978.0 373.4, 977.2 373.6 Q 976.5 373.8, 975.7 373.8 Q 973.9 373.8, 972.9 372.6 Q 971.8 371.5, 971.8 369.5 M 975.7 366.4 Q 974.8 366.4, 974.2 367.0 Q 973.6 367.5, 973.4 368.6 L 977.5 368.6 Q 977.4 367.5, 977.0 367.0 Q 976.5 366.4, 975.7 366.4 " fill="#000000"/>
<path class="legend" d="M 979.7 371.4 Q 979.7 370.1, 980.8 369.4 Q 981.8 368.7, 983.8 368.7 L 985.0 368.7 L 985.0 368.3 Q 985.0 367.3, 984.6 366.9 Q 984.1 366.4, 983.1 366.4 Q 982.5 366.4, 982.0 366.6 Q 981.4 366.7, 980.6 367.0 L 980.2 366.0 Q 981.7 365.3, 983.2 365.3 Q 984.9 365.3, 985.7 366.0 Q 986.5 366.8, 986.5 368.4 L 986.5 373.6 L 985.3 373.6 Q 985.3 373.6, 985.3 373.3 Q 985.2 373.1, 985.1 372.7 Q 984.0 373.8, 982.4 373.8 Q 981.2 373.8, 980.5 373.2 Q 979.7 372.5, 979.7 371.4 M 981.2 371.4 Q 981.2 372.0, 981.6 372.3 Q 982.0 372.6, 982.7 372.6 Q 983.4 372.6, 984.0 372.4 Q 984.6 372.0, 985.0 371.5 L 985.0 369.8 L 983.9 369.8 Q 982.6 369.8, 981.9 370.2 Q 981.2 370.6, 981.2 371.4 " fill="#000000"/>
<path class="legend" d="M 987.7 369.5 Q 987.7 367.5, 988.7 366.4 Q 989.7 365.3, 991.7 365.3 Q 993.5 365.3, 994.5 366.6 L 993.5 367.4 Q 993.1 366.9, 992.7 366.7 Q 992.2 366.4, 991.7 366.4 Q 990.5 366.4, 989.9 367.2 Q 989.3 368.0, 989.3 369.5 Q 989.3 371.0, 989.9 371.8 Q 990.6 372.6, 991.8 372.6 Q 992.4 372.6, 992.9 372.4 Q 993.4 372.3, 993.9 372.0 L 994.4 373.0 Q 993.2 373.7, 991.6 373.7 Q 989.7 373.7, 988.7 372.6 Q 987.7 371.5, 987.7 369.5 " fill="#000000"/>
<path class="legend" d="M 994.9 366.6 L 994.9 365.4 L 996.5 365.4 L 996.7 363.0 L 997.8 363.0 L 997.8 365.4 L 1000.4 365.4 L 1000.4 366.6 L 997.8 366.6 L 997.8 371.1 Q 997.8 372.5, 999.0 372.5 Q 999.5 372.5, 1000.2 372.3 L 1000.5 373.4 Q 999.6 373.7, 998.8 373.7 Q 997.7 373.7, 997.0 373.1 Q 996.3 372.4, 996.3 371.2 L 996.3 366.6 L 994.9 366.6 " fill="#000000"/>
<path class="legend" d="M 1009.0 374.4 L 1009.0 375.7 L 1000.9 375.7 L 1000.9 374.4 L 1009.0 374.4 " fill="#000000"/>
<path class="legend" d="M 1009.7 372.4 L 1012.1 372.4 L 1012.1 363.9 L 1009.4 364.7 L 1009.0 363.8 L 1012.5 362.2 L 1013.6 362.4 L 1013.6 372.4 L 1015.9 372.4 L 1015.9 373.6 L 1009.7 373.6 L 1009.7 372.4 " fill="#000000"/>
<path class="legend" d="M 1020.4 362.2 Q 1022.4 362.2, 1023.4 363.6 Q 1024.4 364.9, 1024.4 367.6 Q 1024.4 370.6, 1023.1 372.2 Q 1021.9 373.8, 1019.5 373.8 Q 1018.8 373.8, 1018.2 373.6 Q 1017.6 373.4, 1017.0 373.1 L 1017.6 372.0 Q 1018.4 372.5, 1019.5 372.5 Q 1021.1 372.5, 1021.9 371.5 Q 1022.7 370.4, 1022.8 368.3 Q 1022.2 368.8, 1021.5 369.1 Q 1020.8 369.4, 1020.0 369.4 Q 1019.0 369.4, 1018.2 368.9 Q 1017.4 368.5, 1017.0 367.7 Q 1016.5 366.9, 1016.5 366.0 Q 1016.5 364.8, 1017.0 364.0 Q 1017.5 363.1, 1018.4 362.7 Q 1019.2 362.2, 1020.4 362.2 M 1018.1 365.9 Q 1018.1 366.9, 1018.7 367.5 Q 1019.3 368.1, 1020.3 368.1 Q 1020.9 368.1, 1021.6 367.8 Q 1022.3 367.5, 1022.8 367.1 Q 1022.7 365.2, 1022.1 364.3 Q 1021.5 363.5, 1020.3 363.5 Q 1019.7 363.5, 1019.2 363.8 Q 1018.7 364.1, 1018.4 364.7 Q 1018.1 365.2, 1018.1 365.9 " fill="#000000"/>
<path class="legend" d="M 1025.5 364.4 Q 1025.9 363.4, 1026.9 362.8 Q 1027.9 362.2, 1029.3 362.2 Q 1031.0 362.2, 1032.0 363.1 Q 1032.9 364.0, 1032.9 365.7 Q 1032.9 367.4, 1031.7 368.9 Q 1030.4 370.5, 1027.9 372.4 L 1033.1 372.4 L 1033.1 373.6 L 1025.5 373.6 L 1025.5 372.6 Q 1027.6 371.1, 1028.8 369.9 Q 1030.1 368.8, 1030.7 367.8 Q 1031.3 366.8, 1031.3 365.8 Q 1031.3 364.7, 1030.8 364.1 Q 1030.2 363.5, 1029.3 363.5 Q 1028.4 363.5, 1027.8 363.8 Q 1027.2 364.2, 1026.7 365.0 L 1025.5 364.4 " fill="#000000"/>
<path class="legend" d="M 935.8 383.8 Q 935.8 381.8, 936.8 380.7 Q 937.8 379.5, 939.7 379.5 Q 941.6 379.5, 942.6 380.9 L 941.5 381.6 Q 941.2 381.2, 940.7 380.9 Q 940.3 380.7, 939.7 380.7 Q 938.6 380.7, 937.9 381.5 Q 937.3 382.3, 937.3 383.8 Q 937.3 385.3, 937.9 386.1 Q 938.6 386.8, 939.8 386.8 Q 940.5 386.8, 940.9 386.7 Q 941.4 386.5, 942.0 386.3 L 942.4 387.3 Q 941.2 388.0, 939.7 388.0 Q 937.8 388.0, 936.8 386.9 Q 935.8 385.7, 935.8 383.8 " fill="#000000"/>
<path class="legend" d="M 942.9 383.8 Q 942.9 381.7, 943.9 380.6 Q 945.0 379.5, 946.8 379.5 Q 948.6 379.5, 949.4 380.6 Q 950.2 381.7, 950.2 383.7 L 950.2 384.0 L 944.5 384.0 Q 944.5 385.4, 945.1 386.1 Q 945.8 386.8, 946.9 386.8 Q 947.6 386.8, 948.2 386.7 Q 948.7 386.5, 949.5 386.2 L 949.9 387.2 Q 949.1 387.6, 948.3 387.8 Q 947.6 388.0, 946.8 388.0 Q 945.0 388.0, 944.0 386.9 Q 942.9 385.8, 942.9 383.8 M 946.8 380.7 Q 945.9 380.7, 945.3 381.2 Q 944.7 381.8, 944.5 382.8 L 948.6 382.8 Q 948.5 381.7, 948.1 381.2 Q 947.6 380.7, 946.8 380.7 " fill="#000000"/>
<path class="legend" d="M 955.1 379.5 Q 956.4 379.5, 957.1 380.3 Q 957.8 381.0, 957.8 382.4 L 957.8 387.9 L 956.3 387.9 L 956.3 382.6 Q 956.3 381.6, 955.9 381.2 Q 955.6 380.7, 954.7 380.7 Q 954.0 380.7, 953.4 381.1 Q 952.7 381.4, 952.3 382.0 L 952.3 387.9 L 950.8 387.9 L 950.8 379.7 L 952.1 379.7 L 952.2 380.8 Q 953.3 379.5, 955.1 379.5 " fill="#000000"/>
<path class="legend" d="M 959.1 380.8 L 959.1 379.7 L 960.6 379.7 L 960.9 377.3 L 962.0 377.3 L 962.0 379.7 L 964.5 379.7 L 964.5 380.8 L 962.0 380.8 L 962.0 385.4 Q 962.0 386.8, 963.2 386.8 Q 963.7 386.8, 964.4 386.6 L 964.6 387.6 Q 963.8 388.0, 962.9 388.0 Q 961.9 388.0, 961.2 387.3 Q 960.5 386.7, 960.5 385.4 L 960.5 380.8 L 959.1 380.8 " fill="#000000"/>
<path class="legend" d="M 973.2 388.7 L 973.2 390.0 L 965.0 390.0 L 965.0 388.7 L 973.2 388.7 " fill="#000000"/>
<path class="legend" d="M 980.7 375.7 L 980.7 387.9 L 979.5 387.9 L 979.2 386.9 Q 978.3 388.0, 976.8 388.0 Q 975.1 388.0, 974.1 387.0 Q 973.2 385.9, 973.2 383.9 Q 973.2 381.8, 974.3 380.7 Q 975.5 379.5, 977.4 379.5 Q 978.3 379.5, 979.2 379.7 L 979.2 375.7 L 980.7 375.7 M 976.9 386.8 Q 977.7 386.8, 978.3 386.4 Q 978.9 385.9, 979.2 385.1 L 979.2 380.9 Q 978.3 380.7, 977.4 380.7 Q 976.2 380.7, 975.5 381.6 Q 974.7 382.4, 974.7 383.9 Q 974.7 385.3, 975.3 386.1 Q 975.9 386.8, 976.9 386.8 " fill="#000000"/>
<path class="legend" d="M 981.9 376.6 L 983.4 376.6 L 983.4 378.0 L 981.9 378.0 L 981.9 376.6 M 981.9 379.7 L 983.4 379.7 L 983.4 387.9 L 981.9 387.9 L 981.9 379.7 " fill="#000000"/>
<path class="legend" d="M 985.3 386.2 Q 986.0 386.5, 986.5 386.6 Q 987.0 386.8, 987.6 386.8 Q 988.3 386.8, 988.7 386.5 Q 989.1 386.2, 989.1 385.6 Q 989.1 385.2, 988.9 385.0 Q 988.7 384.8, 988.4 384.6 Q 988.2 384.5, 987.4 384.3 Q 987.3 384.3, 986.6 384.0 Q 985.9 383.7, 985.5 383.2 Q 985.1 382.7, 985.1 381.9 Q 985.1 380.9, 985.8 380.2 Q 986.6 379.5, 988.1 379.5 Q 988.7 379.5, 989.3 379.7 Q 989.8 379.8, 990.4 380.0 L 990.0 381.2 Q 989.5 381.0, 989.0 380.9 Q 988.6 380.8, 988.1 380.8 Q 987.3 380.8, 987.0 381.1 Q 986.6 381.4, 986.6 381.8 Q 986.6 382.3, 986.9 382.5 Q 987.2 382.7, 987.9 383.0 Q 988.0 383.0, 988.2 383.1 L 988.6 383.2 Q 989.2 383.4, 989.6 383.7 Q 990.0 383.9, 990.3 384.4 Q 990.6 384.8, 990.6 385.6 Q 990.6 386.7, 989.8 387.4 Q 988.9 388.0, 987.6 388.0 Q 986.8 388.0, 986.1 387.9 Q 985.5 387.7, 984.8 387.4 L 985.3 386.2 " fill="#000000"/>
<path class="legend" d="M 991.5 380.8 L 991.5 379.7 L 993.0 379.7 L 993.3 377.3 L 994.4 377.3 L 994.4 379.7 L 996.9 379.7 L 996.9 380.8 L 994.4 380.8 L 994.4 385.4 Q 994.4 386.8, 995.6 386.8 Q 996.1 386.8, 996.8 386.6 L 997.1 387.6 Q 996.2 388.0, 995.3 388.0 Q 994.3 388.0, 993.6 387.3 Q 992.9 386.7, 992.9 385.4 L 992.9 380.8 L 991.5 380.8 " fill="#000000"/>
<path class="legend" d="" fill="#000000"/>
<path class="legend" d="M 1002.8 380.9 L 1010.1 380.9 L 1010.1 382.1 L 1002.8 382.1 L 1002.8 380.9 M 1002.8 384.4 L 1010.1 384.4 L 1010.1 385.5 L 1002.8 385.5 L 1002.8 384.4 " fill="#000000"/>
<path class="legend" d="" fill="#000000"/>
<path class="legend" d="M 1021.0 388.0 Q 1019.0 388.0, 1017.9 386.5 Q 1016.9 384.9, 1016.9 382.2 Q 1016.9 379.5, 1017.9 378.0 Q 1018.9 376.4, 1021.0 376.4 Q 1023.1 376.4, 1024.2 378.0 Q 1025.2 379.5, 1025.2 382.2 Q 1025.2 384.9, 1024.1 386.5 Q 1023.1 388.0, 1021.0 388.0 M 1021.0 386.7 Q 1022.3 386.7, 1022.9 385.6 Q 1023.6 384.4, 1023.6 382.2 Q 1023.6 380.0, 1022.9 378.8 Q 1022.3 377.7, 1021.0 377.7 Q 1019.8 377.7, 1019.2 378.8 Q 1018.5 380.0, 1018.5 382.2 Q 1018.5 384.4, 1019.2 385.6 Q 1019.8 386.7, 1021.0 386.7 " fill="#000000"/>
<path class="legend" d="M 1026.2 386.3 L 1027.8 386.3 L 1027.8 387.9 L 1026.2 387.9 L 1026.2 386.3 " fill="#000000"/>
<path class="legend" d="M 1036.2 384.0 L 1037.6 384.0 L 1037.6 385.3 L 1036.2 385.3 L 1036.2 387.9 L 1034.7 387.9 L 1034.7 385.3 L 1028.9 385.3 L 1028.9 384.3 L 1033.8 376.6 L 1036.2 376.6 L 1036.2 384.0 M 1030.7 384.0 L 1034.7 384.0 L 1034.7 377.6 L 1030.7 384.0 " fill="#000000"/>
<path class="legend" d="M 1042.8 380.8 Q 1043.8 380.8, 1044.6 381.2 Q 1045.4 381.7, 1045.8 382.5 Q 1046.2 383.2, 1046.2 384.2 Q 1046.2 385.3, 1045.7 386.2 Q 1045.3 387.1, 1044.4 387.5 Q 1043.5 388.0, 1042.4 388.0 Q 1040.4 388.0, 1039.4 386.7 Q 1038.4 385.3, 1038.4 382.6 Q 1038.4 379.6, 1039.6 378.0 Q 1040.9 376.4, 1043.3 376.4 Q 1044.0 376.4, 1044.6 376.6 Q 1045.2 376.8, 1045.8 377.1 L 1045.2 378.2 Q 1044.3 377.7, 1043.3 377.7 Q 1041.7 377.7, 1040.9 378.8 Q 1040.1 379.8, 1040.0 381.9 Q 1040.6 381.4, 1041.3 381.1 Q 1042.0 380.8, 1042.8 380.8 M 1042.4 386.7 Q 1043.0 386.7, 1043.5 386.4 Q 1044.1 386.1, 1044.3 385.5 Q 1044.6 384.9, 1044.6 384.3 Q 1044.6 383.2, 1044.1 382.7 Q 1043.5 382.1, 1042.5 382.1 Q 1041.8 382.1, 1041.1 382.4 Q 1040.5 382.7, 1040.0 383.1 Q 1040.1 385.0, 1040.6 385.9 Q 1041.2 386.7, 1042.4 386.7 " fill="#000000"/>
<path class="legend" d="M 1054.5 384.0 L 1055.8 384.0 L 1055.8 385.3 L 1054.5 385.3 L 1054.5 387.9 L 1053.0 387.9 L 1053.0 385.3 L 1047.1 385.3 L 1047.1 384.3 L 1052.1 376.6 L 1054.5 376.6 L 1054.5 384.0 M 1049.0 384.0 L 1053.0 384.0 L 1053.0 377.6 L 1049.0 384.0 " fill="#000000"/>
<path class="legend" d="M 1062.1 381.9 Q 1063.2 382.2, 1063.7 383.0 Q 1064.2 383.7, 1064.2 384.8 Q 1064.2 385.7, 1063.7 386.5 Q 1063.3 387.2, 1062.4 387.6 Q 1061.5 388.0, 1060.4 388.0 Q 1059.1 388.0, 1058.2 387.6 Q 1057.3 387.2, 1056.6 386.3 L 1057.5 385.4 Q 1058.2 386.2, 1058.8 386.5 Q 1059.4 386.8, 1060.4 386.8 Q 1061.4 386.8, 1062.0 386.2 Q 1062.6 385.7, 1062.6 384.8 Q 1062.6 383.6, 1062.0 383.1 Q 1061.3 382.6, 1059.9 382.6 L 1059.1 382.6 L 1059.1 381.4 L 1059.8 381.4 Q 1061.1 381.4, 1061.7 380.9 Q 1062.4 380.3, 1062.4 379.3 Q 1062.4 378.6, 1061.8 378.2 Q 1061.3 377.7, 1060.4 377.7 Q 1059.4 377.7, 1058.8 378.0 Q 1058.3 378.4, 1057.8 379.2 L 1056.7 378.6 Q 1057.1 377.7, 1058.1 377.1 Q 1059.0 376.4, 1060.4 376.4 Q 1062.0 376.4, 1063.0 377.2 Q 1064.0 378.0, 1064.0 379.3 Q 1064.0 380.2, 1063.5 380.9 Q 1063.0 381.6, 1062.1 381.9 " fill="#000000"/>
<path class="bond-0 atom-0 atom-1" d="M 1319.7,174.7 L 1372.2,144.4" style="fill:none;fill-rule:evenodd;stroke:#000000;stroke-width:2.0px;stroke-linecap:butt;stroke-linejoin:miter;stroke-opacity:1"/>
<path class="bond-0 atom-0 atom-1" d="M 1325.8,185.3 L 1378.3,154.9" style="fill:none;fill-rule:evenodd;stroke:#000000;stroke-width:2.0px;stroke-linecap:butt;stroke-linejoin:miter;stroke-opacity:1"/>
<path class="bond-1 atom-1 atom-2" d="M 1375.3,149.7 L 1418.6,174.7" style="fill:none;fill-rule:evenodd;stroke:#000000;stroke-width:2.0px;stroke-linecap:butt;stroke-linejoin:miter;stroke-opacity:1"/>
<path class="bond-2 atom-2 atom-3" d="M 1433.9,169.4 L 1458.1,127.5" style="fill:none;fill-rule:evenodd;stroke:#000000;stroke-width:2.0px;stroke-linecap:butt;stroke-linejoin:miter;stroke-opacity:1"/>
<path class="bond-3 atom-2 atom-4" d="M 1421.4,191.0 L 1397.5,232.5" style="fill:none;fill-rule:evenodd;stroke:#000000;stroke-width:2.0px;stroke-linecap:butt;stroke-linejoin:miter;stroke-opacity:1"/>
<path class="bond-4 atom-2 atom-5" d="M 1437.0,185.3 L 1480.3,210.3" style="fill:none;fill-rule:evenodd;stroke:#000000;stroke-width:2.0px;stroke-linecap:butt;stroke-linejoin:miter;stroke-opacity:1"/>
<path class="atom-2" d="M 1421.2 185.9 Q 1421.4 186.0, 1422.2 186.3 Q 1423.0 186.7, 1423.9 186.9 Q 1424.8 187.1, 1425.7 187.1 Q 1427.3 187.1, 1428.2 186.3 Q 1429.2 185.5, 1429.2 184.1 Q 1429.2 183.2, 1428.7 182.6 Q 1428.2 182.0, 1427.5 181.7 Q 1426.8 181.4, 1425.6 181.0 Q 1424.0 180.6, 1423.1 180.1 Q 1422.2 179.7, 1421.6 178.8 Q 1420.9 177.8, 1420.9 176.3 Q 1420.9 174.1, 1422.4 172.8 Q 1423.9 171.5, 1426.8 171.5 Q 1428.8 171.5, 1431.0 172.4 L 1430.5 174.3 Q 1428.4 173.4, 1426.9 173.4 Q 1425.2 173.4, 1424.3 174.1 Q 1423.3 174.8, 1423.4 176.0 Q 1423.4 176.9, 1423.8 177.5 Q 1424.3 178.0, 1425.0 178.4 Q 1425.7 178.7, 1426.9 179.0 Q 1428.4 179.5, 1429.3 180.0 Q 1430.3 180.5, 1430.9 181.5 Q 1431.6 182.4, 1431.6 184.1 Q 1431.6 186.5, 1430.0 187.8 Q 1428.4 189.0, 1425.8 189.0 Q 1424.2 189.0, 1423.1 188.7 Q 1421.9 188.4, 1420.6 187.8 L 1421.2 185.9 " fill="#000000"/>
<path class="atom-2" d="M 1432.7 171.4 L 1435.0 171.4 L 1435.0 173.5 L 1432.7 173.5 L 1432.7 171.4 M 1432.7 176.1 L 1435.0 176.1 L 1435.0 188.6 L 1432.7 188.6 L 1432.7 176.1 " fill="#000000"/>
<path class="legend" d="M 1368.0 365.4 L 1368.1 366.5 Q 1369.0 365.3, 1370.4 365.3 Q 1370.8 365.3, 1371.5 365.4 L 1371.2 366.8 Q 1370.5 366.6, 1370.1 366.6 Q 1369.5 366.6, 1369.0 366.9 Q 1368.6 367.1, 1368.2 367.8 L 1368.2 373.6 L 1366.7 373.6 L 1366.7 365.4 L 1368.0 365.4 " fill="#000000"/>
<path class="legend" d="M 1371.7 369.5 Q 1371.7 367.5, 1372.7 366.4 Q 1373.7 365.3, 1375.6 365.3 Q 1377.4 365.3, 1378.2 366.4 Q 1379.0 367.4, 1379.0 369.5 L 1379.0 369.7 L 1373.2 369.7 Q 1373.3 371.1, 1373.9 371.8 Q 1374.5 372.6, 1375.7 372.6 Q 1376.3 372.6, 1376.9 372.4 Q 1377.5 372.3, 1378.2 372.0 L 1378.7 373.0 Q 1377.8 373.4, 1377.1 373.6 Q 1376.4 373.8, 1375.6 373.8 Q 1373.7 373.8, 1372.7 372.6 Q 1371.7 371.5, 1371.7 369.5 M 1375.6 366.4 Q 1374.6 366.4, 1374.0 367.0 Q 1373.5 367.5, 1373.3 368.6 L 1377.4 368.6 Q 1377.3 367.5, 1376.8 367.0 Q 1376.4 366.4, 1375.6 366.4 " fill="#000000"/>
<path class="legend" d="M 1379.6 371.4 Q 1379.6 370.1, 1380.6 369.4 Q 1381.7 368.7, 1383.6 368.7 L 1384.8 368.7 L 1384.8 368.3 Q 1384.8 367.3, 1384.4 366.9 Q 1384.0 366.4, 1383.0 366.4 Q 1382.3 366.4, 1381.8 366.6 Q 1381.3 366.7, 1380.5 367.0 L 1380.0 366.0 Q 1381.6 365.3, 1383.0 365.3 Q 1384.8 365.3, 1385.6 366.0 Q 1386.4 366.8, 1386.4 368.4 L 1386.4 373.6 L 1385.2 373.6 Q 1385.2 373.6, 1385.1 373.3 Q 1385.1 373.1, 1385.0 372.7 Q 1383.8 373.8, 1382.3 373.8 Q 1381.1 373.8, 1380.3 373.2 Q 1379.6 372.5, 1379.6 371.4 M 1381.1 371.4 Q 1381.1 372.0, 1381.5 372.3 Q 1381.9 372.6, 1382.6 372.6 Q 1383.2 372.6, 1383.8 372.4 Q 1384.4 372.0, 1384.8 371.5 L 1384.8 369.8 L 1383.7 369.8 Q 1382.4 369.8, 1381.7 370.2 Q 1381.1 370.6, 1381.1 371.4 " fill="#000000"/>
<path class="legend" d="M 1387.6 369.5 Q 1387.6 367.5, 1388.6 366.4 Q 1389.6 365.3, 1391.5 365.3 Q 1393.4 365.3, 1394.4 366.6 L 1393.4 367.4 Q 1393.0 366.9, 1392.5 366.7 Q 1392.1 366.4, 1391.5 366.4 Q 1390.4 366.4, 1389.7 367.2 Q 1389.1 368.0, 1389.1 369.5 Q 1389.1 371.0, 1389.8 371.8 Q 1390.4 372.6, 1391.6 372.6 Q 1392.3 372.6, 1392.8 372.4 Q 1393.2 372.3, 1393.8 372.0 L 1394.2 373.0 Q 1393.0 373.7, 1391.5 373.7 Q 1389.6 373.7, 1388.6 372.6 Q 1387.6 371.5, 1387.6 369.5 " fill="#000000"/>
<path class="legend" d="M 1394.8 366.6 L 1394.8 365.4 L 1396.3 365.4 L 1396.6 363.0 L 1397.7 363.0 L 1397.7 365.4 L 1400.2 365.4 L 1400.2 366.6 L 1397.7 366.6 L 1397.7 371.1 Q 1397.7 372.5, 1398.9 372.5 Q 1399.4 372.5, 1400.1 372.3 L 1400.3 373.4 Q 1399.5 373.7, 1398.6 373.7 Q 1397.6 373.7, 1396.9 373.1 Q 1396.2 372.4, 1396.2 371.2 L 1396.2 366.6 L 1394.8 366.6 " fill="#000000"/>
<path class="legend" d="M 1408.9 374.4 L 1408.9 375.7 L 1400.7 375.7 L 1400.7 374.4 L 1408.9 374.4 " fill="#000000"/>
<path class="legend" d="M 1409.5 372.4 L 1412.0 372.4 L 1412.0 363.9 L 1409.3 364.7 L 1408.9 363.8 L 1412.4 362.2 L 1413.5 362.4 L 1413.5 372.4 L 1415.7 372.4 L 1415.7 373.6 L 1409.5 373.6 L 1409.5 372.4 " fill="#000000"/>
<path class="legend" d="M 1422.2 367.6 Q 1423.2 368.1, 1423.8 368.8 Q 1424.4 369.4, 1424.4 370.5 Q 1424.4 371.5, 1423.9 372.2 Q 1423.4 373.0, 1422.5 373.4 Q 1421.6 373.8, 1420.5 373.8 Q 1418.6 373.8, 1417.5 372.9 Q 1416.4 372.0, 1416.4 370.5 Q 1416.4 369.6, 1416.9 368.9 Q 1417.4 368.2, 1418.4 367.7 Q 1417.6 367.3, 1417.2 366.7 Q 1416.8 366.0, 1416.8 365.1 Q 1416.8 363.7, 1417.8 363.0 Q 1418.8 362.2, 1420.4 362.2 Q 1422.0 362.2, 1423.0 363.0 Q 1424.0 363.7, 1424.0 365.1 Q 1424.0 365.9, 1423.5 366.5 Q 1423.1 367.1, 1422.2 367.6 M 1420.4 363.4 Q 1419.5 363.4, 1418.9 363.8 Q 1418.4 364.3, 1418.4 365.1 Q 1418.4 365.7, 1418.8 366.1 Q 1419.1 366.4, 1419.6 366.7 Q 1420.1 366.9, 1421.1 367.2 Q 1421.8 366.8, 1422.1 366.2 Q 1422.4 365.7, 1422.4 365.1 Q 1422.4 364.3, 1421.9 363.8 Q 1421.3 363.4, 1420.4 363.4 M 1420.5 372.6 Q 1421.5 372.6, 1422.2 372.0 Q 1422.8 371.5, 1422.8 370.5 Q 1422.8 369.9, 1422.5 369.5 Q 1422.1 369.1, 1421.6 368.9 Q 1421.1 368.7, 1420.2 368.4 L 1419.5 368.2 Q 1418.7 368.6, 1418.4 369.2 Q 1418.0 369.8, 1418.0 370.5 Q 1418.0 371.5, 1418.7 372.0 Q 1419.3 372.6, 1420.5 372.6 " fill="#000000"/>
<path class="legend" d="M 1429.8 366.6 Q 1430.8 366.6, 1431.6 367.0 Q 1432.4 367.4, 1432.8 368.2 Q 1433.3 369.0, 1433.3 370.0 Q 1433.3 371.1, 1432.8 372.0 Q 1432.3 372.8, 1431.4 373.3 Q 1430.6 373.8, 1429.5 373.8 Q 1427.4 373.8, 1426.4 372.4 Q 1425.4 371.0, 1425.4 368.3 Q 1425.4 365.3, 1426.7 363.7 Q 1427.9 362.2, 1430.3 362.2 Q 1431.0 362.2, 1431.6 362.3 Q 1432.2 362.5, 1432.8 362.8 L 1432.2 363.9 Q 1431.4 363.5, 1430.4 363.5 Q 1428.8 363.5, 1427.9 364.5 Q 1427.1 365.5, 1427.0 367.6 Q 1427.6 367.1, 1428.3 366.8 Q 1429.1 366.6, 1429.8 366.6 M 1429.5 372.4 Q 1430.1 372.4, 1430.6 372.1 Q 1431.1 371.8, 1431.4 371.2 Q 1431.7 370.7, 1431.7 370.0 Q 1431.7 369.0, 1431.1 368.4 Q 1430.5 367.8, 1429.6 367.8 Q 1428.9 367.8, 1428.2 368.1 Q 1427.5 368.4, 1427.0 368.9 Q 1427.1 370.8, 1427.7 371.6 Q 1428.3 372.4, 1429.5 372.4 " fill="#000000"/>
<path class="legend" d="M 1336.9 383.8 Q 1336.9 381.8, 1337.9 380.7 Q 1338.9 379.5, 1340.9 379.5 Q 1342.8 379.5, 1343.7 380.9 L 1342.7 381.6 Q 1342.3 381.2, 1341.9 380.9 Q 1341.5 380.7, 1340.9 380.7 Q 1339.7 380.7, 1339.1 381.5 Q 1338.5 382.3, 1338.5 383.8 Q 1338.5 385.3, 1339.1 386.1 Q 1339.8 386.8, 1341.0 386.8 Q 1341.7 386.8, 1342.1 386.7 Q 1342.6 386.5, 1343.2 386.3 L 1343.6 387.3 Q 1342.4 388.0, 1340.9 388.0 Q 1338.9 388.0, 1337.9 386.9 Q 1336.9 385.7, 1336.9 383.8 " fill="#000000"/>
<path class="legend" d="M 1344.1 383.8 Q 1344.1 381.7, 1345.1 380.6 Q 1346.1 379.5, 1348.0 379.5 Q 1349.8 379.5, 1350.6 380.6 Q 1351.4 381.7, 1351.4 383.7 L 1351.4 384.0 L 1345.7 384.0 Q 1345.7 385.4, 1346.3 386.1 Q 1346.9 386.8, 1348.1 386.8 Q 1348.7 386.8, 1349.3 386.7 Q 1349.9 386.5, 1350.6 386.2 L 1351.1 387.2 Q 1350.3 387.6, 1349.5 387.8 Q 1348.8 388.0, 1348.0 388.0 Q 1346.2 388.0, 1345.1 386.9 Q 1344.1 385.8, 1344.1 383.8 M 1348.0 380.7 Q 1347.0 380.7, 1346.5 381.2 Q 1345.9 381.8, 1345.7 382.8 L 1349.8 382.8 Q 1349.7 381.7, 1349.3 381.2 Q 1348.8 380.7, 1348.0 380.7 " fill="#000000"/>
<path class="legend" d="M 1356.3 379.5 Q 1357.6 379.5, 1358.3 380.3 Q 1359.0 381.0, 1359.0 382.4 L 1359.0 387.9 L 1357.5 387.9 L 1357.5 382.6 Q 1357.5 381.6, 1357.1 381.2 Q 1356.7 380.7, 1355.9 380.7 Q 1355.2 380.7, 1354.5 381.1 Q 1353.9 381.4, 1353.5 382.0 L 1353.5 387.9 L 1352.0 387.9 L 1352.0 379.7 L 1353.2 379.7 L 1353.4 380.8 Q 1354.5 379.5, 1356.3 379.5 " fill="#000000"/>
<path class="legend" d="M 1360.2 380.8 L 1360.2 379.7 L 1361.8 379.7 L 1362.1 377.3 L 1363.2 377.3 L 1363.2 379.7 L 1365.7 379.7 L 1365.7 380.8 L 1363.2 380.8 L 1363.2 385.4 Q 1363.2 386.8, 1364.4 386.8 Q 1364.9 386.8, 1365.6 386.6 L 1365.8 387.6 Q 1364.9 388.0, 1364.1 388.0 Q 1363.0 388.0, 1362.3 387.3 Q 1361.7 386.7, 1361.7 385.4 L 1361.7 380.8 L 1360.2 380.8 " fill="#000000"/>
<path class="legend" d="M 1374.4 388.7 L 1374.4 390.0 L 1366.2 390.0 L 1366.2 388.7 L 1374.4 388.7 " fill="#000000"/>
<path class="legend" d="M 1381.8 375.7 L 1381.8 387.9 L 1380.6 387.9 L 1380.4 386.9 Q 1379.5 388.0, 1378.0 388.0 Q 1376.3 388.0, 1375.3 387.0 Q 1374.4 385.9, 1374.4 383.9 Q 1374.4 381.8, 1375.5 380.7 Q 1376.6 379.5, 1378.6 379.5 Q 1379.4 379.5, 1380.3 379.7 L 1380.3 375.7 L 1381.8 375.7 M 1378.1 386.8 Q 1378.9 386.8, 1379.5 386.4 Q 1380.1 385.9, 1380.3 385.1 L 1380.3 380.9 Q 1379.5 380.7, 1378.6 380.7 Q 1377.3 380.7, 1376.6 381.6 Q 1375.9 382.4, 1375.9 383.9 Q 1375.9 385.3, 1376.5 386.1 Q 1377.0 386.8, 1378.1 386.8 " fill="#000000"/>
<path class="legend" d="M 1383.1 376.6 L 1384.6 376.6 L 1384.6 378.0 L 1383.1 378.0 L 1383.1 376.6 M 1383.1 379.7 L 1384.6 379.7 L 1384.6 387.9 L 1383.1 387.9 L 1383.1 379.7 " fill="#000000"/>
<path class="legend" d="M 1386.4 386.2 Q 1387.2 386.5, 1387.7 386.6 Q 1388.2 386.8, 1388.8 386.8 Q 1389.5 386.8, 1389.9 386.5 Q 1390.3 386.2, 1390.3 385.6 Q 1390.3 385.2, 1390.1 385.0 Q 1389.9 384.8, 1389.6 384.6 Q 1389.3 384.5, 1388.6 384.3 Q 1388.5 384.3, 1387.8 384.0 Q 1387.0 383.7, 1386.6 383.2 Q 1386.2 382.7, 1386.2 381.9 Q 1386.2 380.9, 1387.0 380.2 Q 1387.8 379.5, 1389.3 379.5 Q 1389.9 379.5, 1390.4 379.7 Q 1391.0 379.8, 1391.6 380.0 L 1391.2 381.2 Q 1390.7 381.0, 1390.2 380.9 Q 1389.8 380.8, 1389.3 380.8 Q 1388.5 380.8, 1388.1 381.1 Q 1387.7 381.4, 1387.7 381.8 Q 1387.7 382.3, 1388.1 382.5 Q 1388.4 382.7, 1389.0 383.0 Q 1389.2 383.0, 1389.3 383.1 L 1389.7 383.2 Q 1390.4 383.4, 1390.8 383.7 Q 1391.2 383.9, 1391.5 384.4 Q 1391.8 384.8, 1391.8 385.6 Q 1391.8 386.7, 1390.9 387.4 Q 1390.1 388.0, 1388.8 388.0 Q 1388.0 388.0, 1387.3 387.9 Q 1386.6 387.7, 1386.0 387.4 L 1386.4 386.2 " fill="#000000"/>
<path class="legend" d="M 1392.6 380.8 L 1392.6 379.7 L 1394.2 379.7 L 1394.5 377.3 L 1395.6 377.3 L 1395.6 379.7 L 1398.1 379.7 L 1398.1 380.8 L 1395.6 380.8 L 1395.6 385.4 Q 1395.6 386.8, 1396.8 386.8 Q 1397.3 386.8, 1398.0 386.6 L 1398.2 387.6 Q 1397.3 388.0, 1396.5 388.0 Q 1395.4 388.0, 1394.8 387.3 Q 1394.1 386.7, 1394.1 385.4 L 1394.1 380.8 L 1392.6 380.8 " fill="#000000"/>
<path class="legend" d="" fill="#000000"/>
<path class="legend" d="M 1404.0 380.9 L 1411.3 380.9 L 1411.3 382.1 L 1404.0 382.1 L 1404.0 380.9 M 1404.0 384.4 L 1411.3 384.4 L 1411.3 385.5 L 1404.0 385.5 L 1404.0 384.4 " fill="#000000"/>
<path class="legend" d="" fill="#000000"/>
<path class="legend" d="M 1422.2 388.0 Q 1420.1 388.0, 1419.1 386.5 Q 1418.1 384.9, 1418.1 382.2 Q 1418.1 379.5, 1419.1 378.0 Q 1420.1 376.4, 1422.2 376.4 Q 1424.3 376.4, 1425.3 378.0 Q 1426.4 379.5, 1426.4 382.2 Q 1426.4 384.9, 1425.3 386.5 Q 1424.3 388.0, 1422.2 388.0 M 1422.2 386.7 Q 1423.5 386.7, 1424.1 385.6 Q 1424.8 384.4, 1424.8 382.2 Q 1424.8 380.0, 1424.1 378.8 Q 1423.5 377.7, 1422.2 377.7 Q 1421.0 377.7, 1420.3 378.8 Q 1419.7 380.0, 1419.7 382.2 Q 1419.7 384.4, 1420.3 385.6 Q 1421.0 386.7, 1422.2 386.7 " fill="#000000"/>
<path class="legend" d="M 1427.4 386.3 L 1429.0 386.3 L 1429.0 387.9 L 1427.4 387.9 L 1427.4 386.3 " fill="#000000"/>
<path class="legend" d="M 1436.0 377.8 L 1430.0 377.8 L 1430.0 376.6 L 1437.6 376.6 L 1437.6 377.7 L 1433.0 387.9 L 1431.5 387.9 L 1436.0 377.8 " fill="#000000"/>
<path class="legend" d="M 1438.1 378.7 Q 1438.5 377.6, 1439.5 377.0 Q 1440.5 376.4, 1441.8 376.4 Q 1443.5 376.4, 1444.5 377.4 Q 1445.5 378.3, 1445.5 379.9 Q 1445.5 381.6, 1444.2 383.2 Q 1443.0 384.8, 1440.4 386.6 L 1445.7 386.6 L 1445.7 387.9 L 1438.0 387.9 L 1438.0 386.8 Q 1440.1 385.3, 1441.4 384.2 Q 1442.7 383.1, 1443.3 382.1 Q 1443.9 381.1, 1443.9 380.0 Q 1443.9 378.9, 1443.3 378.3 Q 1442.8 377.7, 1441.8 377.7 Q 1440.9 377.7, 1440.3 378.1 Q 1439.7 378.4, 1439.3 379.3 L 1438.1 378.7 " fill="#000000"/>
<path class="legend" d="M 1450.7 380.8 Q 1451.7 380.8, 1452.5 381.2 Q 1453.4 381.6, 1453.8 382.4 Q 1454.3 383.2, 1454.3 384.3 Q 1454.3 385.5, 1453.7 386.3 Q 1453.1 387.2, 1452.2 387.6 Q 1451.3 388.0, 1450.2 388.0 Q 1449.2 388.0, 1448.2 387.6 Q 1447.3 387.2, 1446.6 386.5 L 1447.6 385.5 Q 1448.1 386.1, 1448.8 386.4 Q 1449.5 386.7, 1450.3 386.7 Q 1451.3 386.7, 1452.0 386.1 Q 1452.7 385.5, 1452.7 384.3 Q 1452.7 383.1, 1452.0 382.6 Q 1451.3 382.0, 1450.2 382.0 Q 1449.2 382.0, 1448.1 382.4 L 1447.2 382.0 L 1447.8 376.6 L 1453.6 376.6 L 1453.4 377.8 L 1449.1 377.8 L 1448.7 381.2 Q 1449.7 380.8, 1450.7 380.8 " fill="#000000"/>
<path class="legend" d="M 1460.8 381.9 Q 1461.9 382.3, 1462.5 383.0 Q 1463.1 383.7, 1463.1 384.8 Q 1463.1 385.7, 1462.6 386.5 Q 1462.1 387.2, 1461.2 387.6 Q 1460.3 388.0, 1459.1 388.0 Q 1457.2 388.0, 1456.1 387.2 Q 1455.1 386.3, 1455.1 384.8 Q 1455.1 383.9, 1455.5 383.2 Q 1456.0 382.5, 1457.0 381.9 Q 1456.3 381.5, 1455.9 380.9 Q 1455.5 380.3, 1455.5 379.3 Q 1455.5 378.0, 1456.4 377.2 Q 1457.4 376.4, 1459.1 376.4 Q 1460.7 376.4, 1461.7 377.2 Q 1462.6 378.0, 1462.6 379.3 Q 1462.6 380.2, 1462.2 380.8 Q 1461.7 381.4, 1460.8 381.9 M 1459.1 377.6 Q 1458.1 377.6, 1457.6 378.1 Q 1457.1 378.5, 1457.1 379.3 Q 1457.1 379.9, 1457.4 380.3 Q 1457.8 380.7, 1458.3 380.9 Q 1458.8 381.2, 1459.8 381.5 Q 1460.4 381.0, 1460.7 380.5 Q 1461.0 380.0, 1461.0 379.3 Q 1461.0 378.5, 1460.5 378.1 Q 1460.0 377.6, 1459.1 377.6 M 1459.1 386.8 Q 1460.2 386.8, 1460.8 386.3 Q 1461.5 385.7, 1461.5 384.8 Q 1461.5 384.2, 1461.1 383.8 Q 1460.8 383.4, 1460.3 383.2 Q 1459.8 382.9, 1458.9 382.7 L 1458.2 382.4 Q 1457.4 382.9, 1457.0 383.5 Q 1456.7 384.0, 1456.7 384.8 Q 1456.7 385.7, 1457.3 386.3 Q 1458.0 386.8, 1459.1 386.8 " fill="#000000"/>
<path class="bond-0 atom-0 atom-1" d="M 1855.6,317.1 L 1801.3,290.3" style="fill:none;fill-rule:evenodd;stroke:#000000;stroke-width:2.0px;stroke-linecap:butt;stroke-linejoin:miter;stroke-opacity:1"/>
<path class="bond-0 atom-0 atom-1" d="M 1861.0,306.3 L 1806.6,279.4" style="fill:none;fill-rule:evenodd;stroke:#000000;stroke-width:2.0px;stroke-linecap:butt;stroke-linejoin:miter;stroke-opacity:1"/>
<path class="bond-1 atom-1 atom-2" d="M 1804.0,284.9 L 1800.7,235.4" style="fill:none;fill-rule:evenodd;stroke:#000000;stroke-width:2.0px;stroke-linecap:butt;stroke-linejoin:miter;stroke-opacity:1"/>
<path class="bond-2 atom-2 atom-3" d="M 1799.3,213.8 L 1796.0,163.9" style="fill:none;fill-rule:evenodd;stroke:#000000;stroke-width:2.0px;stroke-linecap:butt;stroke-linejoin:miter;stroke-opacity:1"/>
<path class="bond-3 atom-3 atom-4" d="M 1796.0,163.9 L 1846.5,130.2" style="fill:none;fill-rule:evenodd;stroke:#000000;stroke-width:2.0px;stroke-linecap:butt;stroke-linejoin:miter;stroke-opacity:1"/>
<path class="bond-3 atom-3 atom-4" d="M 1796.9,148.7 L 1832.2,125.2" style="fill:none;fill-rule:evenodd;stroke:#000000;stroke-width:2.0px;stroke-linecap:butt;stroke-linejoin:miter;stroke-opacity:1"/>
<path class="bond-4 atom-4 atom-5" d="M 1846.5,130.2 L 1842.5,69.7" style="fill:none;fill-rule:evenodd;stroke:#000000;stroke-width:2.0px;stroke-linecap:butt;stroke-linejoin:miter;stroke-opacity:1"/>
<path class="bond-5 atom-5 atom-6" d="M 1842.5,69.7 L 1788.1,42.9" style="fill:none;fill-rule:evenodd;stroke:#000000;stroke-width:2.0px;stroke-linecap:butt;stroke-linejoin:miter;stroke-opacity:1"/>
<path class="bond-5 atom-5 atom-6" d="M 1829.0,76.5 L 1790.9,57.8" style="fill:none;fill-rule:evenodd;stroke:#000000;stroke-width:2.0px;stroke-linecap:butt;stroke-linejoin:miter;stroke-opacity:1"/>
<path class="bond-6 atom-6 atom-7" d="M 1788.1,42.9 L 1737.7,76.5" style="fill:none;fill-rule:evenodd;stroke:#000000;stroke-width:2.0px;stroke-linecap:butt;stroke-linejoin:miter;stroke-opacity:1"/>
<path class="bond-7 atom-7 atom-8" d="M 1737.7,76.5 L 1741.7,137.0" style="fill:none;fill-rule:evenodd;stroke:#000000;stroke-width:2.0px;stroke-linecap:butt;stroke-linejoin:miter;stroke-opacity:1"/>
<path class="bond-7 atom-7 atom-8" d="M 1750.4,84.8 L 1753.2,127.2" style="fill:none;fill-rule:evenodd;stroke:#000000;stroke-width:2.0px;stroke-linecap:butt;stroke-linejoin:miter;stroke-opacity:1"/>
<path class="bond-8 atom-2 atom-9" d="M 1809.2,223.8 L 1860.5,220.4" style="fill:none;fill-rule:evenodd;stroke:#000000;stroke-width:2.0px;stroke-linecap:butt;stroke-linejoin:miter;stroke-opacity:1"/>
<path class="bond-9 atom-9 atom-10" d="M 1860.5,220.4 L 1894.2,270.8" style="fill:none;fill-rule:evenodd;stroke:#000000;stroke-width:2.0px;stroke-linecap:butt;stroke-linejoin:miter;stroke-opacity:1"/>
<path class="bond-9 atom-9 atom-10" d="M 1875.6,221.2 L 1899.2,256.5" style="fill:none;fill-rule:evenodd;stroke:#000000;stroke-width:2.0px;stroke-linecap:butt;stroke-linejoin:miter;stroke-opacity:1"/>
<path class="bond-10 atom-10 atom-11" d="M 1894.2,270.8 L 1954.7,266.9" style="fill:none;fill-rule:evenodd;stroke:#000000;stroke-width:2.0px;stroke-linecap:butt;stroke-linejoin:miter;stroke-opacity:1"/>
<path class="bond-11 atom-11 atom-12" d="M 1954.7,266.9 L 1981.5,212.5" style="fill:none;fill-rule:evenodd;stroke:#000000;stroke-width:2.0px;stroke-linecap:butt;stroke-linejoin:miter;stroke-opacity:1"/>
<path class="bond-11 atom-11 atom-12" d="M 1947.8,253.4 L 1966.6,215.3" style="fill:none;fill-rule:evenodd;stroke:#000000;stroke-width:2.0px;stroke-linecap:butt;stroke-linejoin:miter;stroke-opacity:1"/>
<path class="bond-12 atom-12 atom-13" d="M 1981.5,212.5 L 1947.8,162.1" style="fill:none;fill-rule:evenodd;stroke:#000000;stroke-width:2.0px;stroke-linecap:butt;stroke-linejoin:miter;stroke-opacity:1"/>
<path class="bond-13 atom-13 atom-14" d="M 1947.8,162.1 L 1887.3,166.0" style="fill:none;fill-rule:evenodd;stroke:#000000;stroke-width:2.0px;stroke-linecap:butt;stroke-linejoin:miter;stroke-opacity:1"/>
<path class="bond-13 atom-13 atom-14" d="M 1939.5,174.8 L 1897.2,177.6" style="fill:none;fill-rule:evenodd;stroke:#000000;stroke-width:2.0px;stroke-linecap:butt;stroke-linejoin:miter;stroke-opacity:1"/>
<path class="bond-14 atom-2 atom-15" d="M 1790.8,225.0 L 1739.5,228.3" style="fill:none;fill-rule:evenodd;stroke:#000000;stroke-width:2.0px;stroke-linecap:butt;stroke-linejoin:miter;stroke-opacity:1"/>
<path class="bond-15 atom-15 atom-16" d="M 1739.5,228.3 L 1705.8,177.9" style="fill:none;fill-rule:evenodd;stroke:#000000;stroke-width:2.0px;stroke-linecap:butt;stroke-linejoin:miter;stroke-opacity:1"/>
<path class="bond-15 atom-15 atom-16" d="M 1724.4,227.5 L 1700.8,192.2" style="fill:none;fill-rule:evenodd;stroke:#000000;stroke-width:2.0px;stroke-linecap:butt;stroke-linejoin:miter;stroke-opacity:1"/>
<path class="bond-16 atom-16 atom-17" d="M 1705.8,177.9 L 1645.3,181.9" style="fill:none;fill-rule:evenodd;stroke:#000000;stroke-width:2.0px;stroke-linecap:butt;stroke-linejoin:miter;stroke-opacity:1"/>
<path class="bond-17 atom-17 atom-18" d="M 1645.3,181.9 L 1618.5,236.2" style="fill:none;fill-rule:evenodd;stroke:#000000;stroke-width:2.0px;stroke-linecap:butt;stroke-linejoin:miter;stroke-opacity:1"/>
<path class="bond-17 atom-17 atom-18" d="M 1652.2,195.4 L 1633.4,233.4" style="fill:none;fill-rule:evenodd;stroke:#000000;stroke-width:2.0px;stroke-linecap:butt;stroke-linejoin:miter;stroke-opacity:1"/>
<path class="bond-18 atom-18 atom-19" d="M 1618.5,236.2 L 1652.2,286.6" style="fill:none;fill-rule:evenodd;stroke:#000000;stroke-width:2.0px;stroke-linecap:butt;stroke-linejoin:miter;stroke-opacity:1"/>
<path class="bond-19 atom-19 atom-20" d="M 1652.2,286.6 L 1712.7,282.7" style="fill:none;fill-rule:evenodd;stroke:#000000;stroke-width:2.0px;stroke-linecap:butt;stroke-linejoin:miter;stroke-opacity:1"/>
<path class="bond-19 atom-19 atom-20" d="M 1660.5,274.0 L 1702.8,271.2" style="fill:none;fill-rule:evenodd;stroke:#000000;stroke-width:2.0px;stroke-linecap:butt;stroke-linejoin:miter;stroke-opacity:1"/>
<path class="bond-20 atom-8 atom-3" d="M 1741.7,137.0 L 1796.0,163.9" style="fill:none;fill-rule:evenodd;stroke:#000000;stroke-width:2.0px;stroke-linecap:butt;stroke-linejoin:miter;stroke-opacity:1"/>
<path class="bond-21 atom-14 atom-9" d="M 1887.3,166.0 L 1860.5,220.4" style="fill:none;fill-rule:evenodd;stroke:#000000;stroke-width:2.0px;stroke-linecap:butt;stroke-linejoin:miter;stroke-opacity:1"/>
<path class="bond-22 atom-20 atom-15" d="M 1712.7,282.7 L 1739.5,228.3" style="fill:none;fill-rule:evenodd;stroke:#000000;stroke-width:2.0px;stroke-linecap:butt;stroke-linejoin:miter;stroke-opacity:1"/>
<path class="atom-2" d="M 1793.5 230.3 Q 1793.7 230.4, 1794.5 230.7 Q 1795.3 231.0, 1796.1 231.3 Q 1797.0 231.4, 1797.9 231.4 Q 1799.5 231.4, 1800.5 230.7 Q 1801.4 229.9, 1801.4 228.5 Q 1801.4 227.5, 1800.9 227.0 Q 1800.5 226.4, 1799.7 226.1 Q 1799.0 225.8, 1797.8 225.4 Q 1796.3 224.9, 1795.4 224.5 Q 1794.5 224.1, 1793.8 223.1 Q 1793.2 222.2, 1793.2 220.7 Q 1793.2 218.5, 1794.6 217.2 Q 1796.1 215.8, 1799.0 215.8 Q 1801.0 215.8, 1803.3 216.8 L 1802.7 218.6 Q 1800.6 217.8, 1799.1 217.8 Q 1797.4 217.8, 1796.5 218.5 Q 1795.6 219.2, 1795.6 220.4 Q 1795.6 221.3, 1796.1 221.8 Q 1796.5 222.4, 1797.2 222.7 Q 1797.9 223.0, 1799.1 223.4 Q 1800.6 223.9, 1801.6 224.4 Q 1802.5 224.9, 1803.1 225.8 Q 1803.8 226.8, 1803.8 228.5 Q 1803.8 230.9, 1802.2 232.2 Q 1800.6 233.4, 1798.0 233.4 Q 1796.5 233.4, 1795.3 233.1 Q 1794.2 232.8, 1792.8 232.2 L 1793.5 230.3 " fill="#000000"/>
<path class="atom-2" d="M 1805.0 215.8 L 1807.2 215.8 L 1807.2 217.9 L 1805.0 217.9 L 1805.0 215.8 M 1805.0 220.5 L 1807.2 220.5 L 1807.2 233.0 L 1805.0 233.0 L 1805.0 220.5 " fill="#000000"/>
<path class="legend" d="M 1767.1 365.4 L 1767.3 366.5 Q 1768.1 365.3, 1769.5 365.3 Q 1770.0 365.3, 1770.6 365.4 L 1770.4 366.8 Q 1769.7 366.6, 1769.3 366.6 Q 1768.6 366.6, 1768.2 366.9 Q 1767.7 367.1, 1767.4 367.8 L 1767.4 373.6 L 1765.9 373.6 L 1765.9 365.4 L 1767.1 365.4 " fill="#000000"/>
<path class="legend" d="M 1770.8 369.5 Q 1770.8 367.5, 1771.8 366.4 Q 1772.8 365.3, 1774.7 365.3 Q 1776.5 365.3, 1777.3 366.4 Q 1778.1 367.4, 1778.1 369.5 L 1778.1 369.7 L 1772.4 369.7 Q 1772.4 371.1, 1773.0 371.8 Q 1773.6 372.6, 1774.8 372.6 Q 1775.5 372.6, 1776.0 372.4 Q 1776.6 372.3, 1777.4 372.0 L 1777.8 373.0 Q 1777.0 373.4, 1776.2 373.6 Q 1775.5 373.8, 1774.7 373.8 Q 1772.9 373.8, 1771.9 372.6 Q 1770.8 371.5, 1770.8 369.5 M 1774.7 366.4 Q 1773.7 366.4, 1773.2 367.0 Q 1772.6 367.5, 1772.4 368.6 L 1776.5 368.6 Q 1776.4 367.5, 1776.0 367.0 Q 1775.5 366.4, 1774.7 366.4 " fill="#000000"/>
<path class="legend" d="M 1778.7 371.4 Q 1778.7 370.1, 1779.8 369.4 Q 1780.8 368.7, 1782.8 368.7 L 1784.0 368.7 L 1784.0 368.3 Q 1784.0 367.3, 1783.6 366.9 Q 1783.1 366.4, 1782.1 366.4 Q 1781.5 366.4, 1780.9 366.6 Q 1780.4 366.7, 1779.6 367.0 L 1779.2 366.0 Q 1780.7 365.3, 1782.1 365.3 Q 1783.9 365.3, 1784.7 366.0 Q 1785.5 366.8, 1785.5 368.4 L 1785.5 373.6 L 1784.3 373.6 Q 1784.3 373.6, 1784.3 373.3 Q 1784.2 373.1, 1784.1 372.7 Q 1783.0 373.8, 1781.4 373.8 Q 1780.2 373.8, 1779.5 373.2 Q 1778.7 372.5, 1778.7 371.4 M 1780.2 371.4 Q 1780.2 372.0, 1780.6 372.3 Q 1781.0 372.6, 1781.7 372.6 Q 1782.4 372.6, 1783.0 372.4 Q 1783.6 372.0, 1784.0 371.5 L 1784.0 369.8 L 1782.9 369.8 Q 1781.6 369.8, 1780.9 370.2 Q 1780.2 370.6, 1780.2 371.4 " fill="#000000"/>
<path class="legend" d="M 1786.7 369.5 Q 1786.7 367.5, 1787.7 366.4 Q 1788.7 365.3, 1790.7 365.3 Q 1792.5 365.3, 1793.5 366.6 L 1792.5 367.4 Q 1792.1 366.9, 1791.7 366.7 Q 1791.2 366.4, 1790.7 366.4 Q 1789.5 366.4, 1788.9 367.2 Q 1788.3 368.0, 1788.3 369.5 Q 1788.3 371.0, 1788.9 371.8 Q 1789.6 372.6, 1790.8 372.6 Q 1791.4 372.6, 1791.9 372.4 Q 1792.4 372.3, 1792.9 372.0 L 1793.3 373.0 Q 1792.2 373.7, 1790.6 373.7 Q 1788.7 373.7, 1787.7 372.6 Q 1786.7 371.5, 1786.7 369.5 " fill="#000000"/>
<path class="legend" d="M 1793.9 366.6 L 1793.9 365.4 L 1795.5 365.4 L 1795.7 363.0 L 1796.8 363.0 L 1796.8 365.4 L 1799.3 365.4 L 1799.3 366.6 L 1796.8 366.6 L 1796.8 371.1 Q 1796.8 372.5, 1798.0 372.5 Q 1798.5 372.5, 1799.2 372.3 L 1799.5 373.4 Q 1798.6 373.7, 1797.8 373.7 Q 1796.7 373.7, 1796.0 373.1 Q 1795.3 372.4, 1795.3 371.2 L 1795.3 366.6 L 1793.9 366.6 " fill="#000000"/>
<path class="legend" d="M 1808.0 374.4 L 1808.0 375.7 L 1799.9 375.7 L 1799.9 374.4 L 1808.0 374.4 " fill="#000000"/>
<path class="legend" d="M 1808.1 364.4 Q 1808.5 363.4, 1809.5 362.8 Q 1810.5 362.2, 1811.8 362.2 Q 1813.6 362.2, 1814.5 363.1 Q 1815.5 364.0, 1815.5 365.7 Q 1815.5 367.4, 1814.2 368.9 Q 1813.0 370.5, 1810.4 372.4 L 1815.7 372.4 L 1815.7 373.6 L 1808.0 373.6 L 1808.0 372.6 Q 1810.1 371.1, 1811.4 369.9 Q 1812.7 368.8, 1813.3 367.8 Q 1813.9 366.8, 1813.9 365.8 Q 1813.9 364.7, 1813.3 364.1 Q 1812.8 363.5, 1811.8 363.5 Q 1810.9 363.5, 1810.3 363.8 Q 1809.7 364.2, 1809.3 365.0 L 1808.1 364.4 " fill="#000000"/>
<path class="legend" d="M 1824.0 369.7 L 1825.3 369.7 L 1825.3 371.0 L 1824.0 371.0 L 1824.0 373.6 L 1822.5 373.6 L 1822.5 371.0 L 1816.6 371.0 L 1816.6 370.0 L 1821.6 362.3 L 1824.0 362.3 L 1824.0 369.7 M 1818.5 369.7 L 1822.5 369.7 L 1822.5 363.3 L 1818.5 369.7 " fill="#000000"/>
<path class="legend" d="M 1831.9 367.6 Q 1832.9 368.1, 1833.5 368.8 Q 1834.1 369.4, 1834.1 370.5 Q 1834.1 371.5, 1833.6 372.2 Q 1833.1 373.0, 1832.2 373.4 Q 1831.4 373.8, 1830.2 373.8 Q 1828.3 373.8, 1827.2 372.9 Q 1826.1 372.0, 1826.1 370.5 Q 1826.1 369.6, 1826.6 368.9 Q 1827.1 368.2, 1828.1 367.7 Q 1827.3 367.3, 1826.9 366.7 Q 1826.5 366.0, 1826.5 365.1 Q 1826.5 363.7, 1827.5 363.0 Q 1828.5 362.2, 1830.1 362.2 Q 1831.8 362.2, 1832.7 363.0 Q 1833.7 363.7, 1833.7 365.1 Q 1833.7 365.9, 1833.2 366.5 Q 1832.8 367.1, 1831.9 367.6 M 1830.1 363.4 Q 1829.2 363.4, 1828.7 363.8 Q 1828.1 364.3, 1828.1 365.1 Q 1828.1 365.7, 1828.5 366.1 Q 1828.8 366.4, 1829.3 366.7 Q 1829.9 366.9, 1830.8 367.2 Q 1831.5 366.8, 1831.8 366.2 Q 1832.1 365.7, 1832.1 365.1 Q 1832.1 364.3, 1831.6 363.8 Q 1831.1 363.4, 1830.1 363.4 M 1830.2 372.6 Q 1831.2 372.6, 1831.9 372.0 Q 1832.5 371.5, 1832.5 370.5 Q 1832.5 369.9, 1832.2 369.5 Q 1831.9 369.1, 1831.3 368.9 Q 1830.8 368.7, 1830.0 368.4 L 1829.2 368.2 Q 1828.4 368.6, 1828.1 369.2 Q 1827.7 369.8, 1827.7 370.5 Q 1827.7 371.5, 1828.4 372.0 Q 1829.1 372.6, 1830.2 372.6 " fill="#000000"/>
<path class="legend" d="M 1735.9 383.8 Q 1735.9 381.8, 1736.9 380.7 Q 1737.9 379.5, 1739.9 379.5 Q 1741.7 379.5, 1742.7 380.9 L 1741.7 381.6 Q 1741.3 381.2, 1740.9 380.9 Q 1740.4 380.7, 1739.9 380.7 Q 1738.7 380.7, 1738.1 381.5 Q 1737.5 382.3, 1737.5 383.8 Q 1737.5 385.3, 1738.1 386.1 Q 1738.8 386.8, 1740.0 386.8 Q 1740.6 386.8, 1741.1 386.7 Q 1741.6 386.5, 1742.1 386.3 L 1742.6 387.3 Q 1741.4 388.0, 1739.9 388.0 Q 1737.9 388.0, 1736.9 386.9 Q 1735.9 385.7, 1735.9 383.8 " fill="#000000"/>
<path class="legend" d="M 1743.1 383.8 Q 1743.1 381.7, 1744.1 380.6 Q 1745.1 379.5, 1747.0 379.5 Q 1748.8 379.5, 1749.6 380.6 Q 1750.4 381.7, 1750.4 383.7 L 1750.4 384.0 L 1744.6 384.0 Q 1744.7 385.4, 1745.3 386.1 Q 1745.9 386.8, 1747.1 386.8 Q 1747.7 386.8, 1748.3 386.7 Q 1748.9 386.5, 1749.6 386.2 L 1750.1 387.2 Q 1749.2 387.6, 1748.5 387.8 Q 1747.8 388.0, 1747.0 388.0 Q 1745.1 388.0, 1744.1 386.9 Q 1743.1 385.8, 1743.1 383.8 M 1747.0 380.7 Q 1746.0 380.7, 1745.4 381.2 Q 1744.9 381.8, 1744.7 382.8 L 1748.8 382.8 Q 1748.7 381.7, 1748.2 381.2 Q 1747.8 380.7, 1747.0 380.7 " fill="#000000"/>
<path class="legend" d="M 1755.3 379.5 Q 1756.6 379.5, 1757.3 380.3 Q 1758.0 381.0, 1758.0 382.4 L 1758.0 387.9 L 1756.5 387.9 L 1756.5 382.6 Q 1756.5 381.6, 1756.1 381.2 Q 1755.7 380.7, 1754.9 380.7 Q 1754.1 380.7, 1753.5 381.1 Q 1752.9 381.4, 1752.5 382.0 L 1752.5 387.9 L 1751.0 387.9 L 1751.0 379.7 L 1752.2 379.7 L 1752.4 380.8 Q 1753.5 379.5, 1755.3 379.5 " fill="#000000"/>
<path class="legend" d="M 1759.2 380.8 L 1759.2 379.7 L 1760.8 379.7 L 1761.0 377.3 L 1762.2 377.3 L 1762.2 379.7 L 1764.7 379.7 L 1764.7 380.8 L 1762.2 380.8 L 1762.2 385.4 Q 1762.2 386.8, 1763.4 386.8 Q 1763.8 386.8, 1764.5 386.6 L 1764.8 387.6 Q 1763.9 388.0, 1763.1 388.0 Q 1762.0 388.0, 1761.3 387.3 Q 1760.7 386.7, 1760.7 385.4 L 1760.7 380.8 L 1759.2 380.8 " fill="#000000"/>
<path class="legend" d="M 1773.4 388.7 L 1773.4 390.0 L 1765.2 390.0 L 1765.2 388.7 L 1773.4 388.7 " fill="#000000"/>
<path class="legend" d="M 1780.8 375.7 L 1780.8 387.9 L 1779.6 387.9 L 1779.4 386.9 Q 1778.5 388.0, 1777.0 388.0 Q 1775.3 388.0, 1774.3 387.0 Q 1773.4 385.9, 1773.4 383.9 Q 1773.4 381.8, 1774.5 380.7 Q 1775.6 379.5, 1777.6 379.5 Q 1778.4 379.5, 1779.3 379.7 L 1779.3 375.7 L 1780.8 375.7 M 1777.1 386.8 Q 1777.9 386.8, 1778.5 386.4 Q 1779.1 385.9, 1779.3 385.1 L 1779.3 380.9 Q 1778.5 380.7, 1777.6 380.7 Q 1776.3 380.7, 1775.6 381.6 Q 1774.9 382.4, 1774.9 383.9 Q 1774.9 385.3, 1775.5 386.1 Q 1776.0 386.8, 1777.1 386.8 " fill="#000000"/>
<path class="legend" d="M 1782.1 376.6 L 1783.6 376.6 L 1783.6 378.0 L 1782.1 378.0 L 1782.1 376.6 M 1782.1 379.7 L 1783.6 379.7 L 1783.6 387.9 L 1782.1 387.9 L 1782.1 379.7 " fill="#000000"/>
<path class="legend" d="M 1785.4 386.2 Q 1786.1 386.5, 1786.7 386.6 Q 1787.2 386.8, 1787.7 386.8 Q 1788.5 386.8, 1788.9 386.5 Q 1789.3 386.2, 1789.3 385.6 Q 1789.3 385.2, 1789.1 385.0 Q 1788.8 384.8, 1788.6 384.6 Q 1788.3 384.5, 1787.6 384.3 Q 1787.5 384.3, 1786.7 384.0 Q 1786.0 383.7, 1785.6 383.2 Q 1785.2 382.7, 1785.2 381.9 Q 1785.2 380.9, 1786.0 380.2 Q 1786.8 379.5, 1788.3 379.5 Q 1788.9 379.5, 1789.4 379.7 Q 1790.0 379.8, 1790.6 380.0 L 1790.2 381.2 Q 1789.7 381.0, 1789.2 380.9 Q 1788.7 380.8, 1788.3 380.8 Q 1787.5 380.8, 1787.1 381.1 Q 1786.7 381.4, 1786.7 381.8 Q 1786.7 382.3, 1787.0 382.5 Q 1787.3 382.7, 1788.0 383.0 Q 1788.2 383.0, 1788.3 383.1 L 1788.7 383.2 Q 1789.4 383.4, 1789.8 383.7 Q 1790.2 383.9, 1790.5 384.4 Q 1790.8 384.8, 1790.8 385.6 Q 1790.8 386.7, 1789.9 387.4 Q 1789.1 388.0, 1787.8 388.0 Q 1787.0 388.0, 1786.3 387.9 Q 1785.6 387.7, 1785.0 387.4 L 1785.4 386.2 " fill="#000000"/>
<path class="legend" d="M 1791.6 380.8 L 1791.6 379.7 L 1793.2 379.7 L 1793.5 377.3 L 1794.6 377.3 L 1794.6 379.7 L 1797.1 379.7 L 1797.1 380.8 L 1794.6 380.8 L 1794.6 385.4 Q 1794.6 386.8, 1795.8 386.8 Q 1796.3 386.8, 1797.0 386.6 L 1797.2 387.6 Q 1796.3 388.0, 1795.5 388.0 Q 1794.4 388.0, 1793.7 387.3 Q 1793.1 386.7, 1793.1 385.4 L 1793.1 380.8 L 1791.6 380.8 " fill="#000000"/>
<path class="legend" d="" fill="#000000"/>
<path class="legend" d="M 1802.9 380.9 L 1810.3 380.9 L 1810.3 382.1 L 1802.9 382.1 L 1802.9 380.9 M 1802.9 384.4 L 1810.3 384.4 L 1810.3 385.5 L 1802.9 385.5 L 1802.9 384.4 " fill="#000000"/>
<path class="legend" d="" fill="#000000"/>
<path class="legend" d="M 1821.2 388.0 Q 1819.1 388.0, 1818.1 386.5 Q 1817.1 384.9, 1817.1 382.2 Q 1817.1 379.5, 1818.1 378.0 Q 1819.1 376.4, 1821.2 376.4 Q 1823.3 376.4, 1824.3 378.0 Q 1825.3 379.5, 1825.3 382.2 Q 1825.3 384.9, 1824.3 386.5 Q 1823.3 388.0, 1821.2 388.0 M 1821.2 386.7 Q 1822.4 386.7, 1823.1 385.6 Q 1823.7 384.4, 1823.7 382.2 Q 1823.7 380.0, 1823.1 378.8 Q 1822.4 377.7, 1821.2 377.7 Q 1820.0 377.7, 1819.3 378.8 Q 1818.7 380.0, 1818.7 382.2 Q 1818.7 384.4, 1819.3 385.6 Q 1820.0 386.7, 1821.2 386.7 " fill="#000000"/>
<path class="legend" d="M 1826.4 386.3 L 1828.0 386.3 L 1828.0 387.9 L 1826.4 387.9 L 1826.4 386.3 " fill="#000000"/>
<path class="legend" d="M 1832.8 376.4 Q 1834.9 376.4, 1835.9 377.8 Q 1836.9 379.2, 1836.9 381.9 Q 1836.9 384.9, 1835.6 386.5 Q 1834.4 388.0, 1832.0 388.0 Q 1831.3 388.0, 1830.6 387.9 Q 1830.1 387.7, 1829.5 387.4 L 1830.1 386.3 Q 1830.9 386.7, 1831.9 386.7 Q 1833.5 386.7, 1834.4 385.7 Q 1835.2 384.7, 1835.3 382.5 Q 1834.7 383.1, 1834.0 383.4 Q 1833.2 383.6, 1832.5 383.6 Q 1831.5 383.6, 1830.7 383.2 Q 1829.9 382.8, 1829.5 382.0 Q 1829.0 381.2, 1829.0 380.2 Q 1829.0 379.1, 1829.5 378.3 Q 1830.0 377.4, 1830.9 376.9 Q 1831.7 376.4, 1832.8 376.4 M 1830.6 380.2 Q 1830.6 381.2, 1831.2 381.8 Q 1831.7 382.4, 1832.7 382.4 Q 1833.4 382.4, 1834.1 382.1 Q 1834.8 381.8, 1835.3 381.3 Q 1835.2 379.4, 1834.6 378.6 Q 1834.0 377.7, 1832.8 377.7 Q 1832.2 377.7, 1831.7 378.1 Q 1831.2 378.4, 1830.9 378.9 Q 1830.6 379.5, 1830.6 380.2 " fill="#000000"/>
<path class="legend" d="M 1842.4 380.8 Q 1843.4 380.8, 1844.2 381.2 Q 1845.0 381.7, 1845.4 382.5 Q 1845.8 383.2, 1845.8 384.2 Q 1845.8 385.3, 1845.3 386.2 Q 1844.9 387.1, 1844.0 387.5 Q 1843.1 388.0, 1842.0 388.0 Q 1840.0 388.0, 1839.0 386.7 Q 1838.0 385.3, 1838.0 382.6 Q 1838.0 379.6, 1839.2 378.0 Q 1840.5 376.4, 1842.9 376.4 Q 1843.6 376.4, 1844.2 376.6 Q 1844.8 376.8, 1845.4 377.1 L 1844.8 378.2 Q 1843.9 377.7, 1842.9 377.7 Q 1841.3 377.7, 1840.5 378.8 Q 1839.7 379.8, 1839.6 381.9 Q 1840.2 381.4, 1840.9 381.1 Q 1841.6 380.8, 1842.4 380.8 M 1842.0 386.7 Q 1842.6 386.7, 1843.1 386.4 Q 1843.7 386.1, 1843.9 385.5 Q 1844.2 384.9, 1844.2 384.3 Q 1844.2 383.2, 1843.7 382.7 Q 1843.1 382.1, 1842.1 382.1 Q 1841.4 382.1, 1840.7 382.4 Q 1840.1 382.7, 1839.6 383.1 Q 1839.7 385.0, 1840.2 385.9 Q 1840.8 386.7, 1842.0 386.7 " fill="#000000"/>
<path class="legend" d="M 1854.1 384.0 L 1855.4 384.0 L 1855.4 385.3 L 1854.1 385.3 L 1854.1 387.9 L 1852.6 387.9 L 1852.6 385.3 L 1846.7 385.3 L 1846.7 384.3 L 1851.7 376.6 L 1854.1 376.6 L 1854.1 384.0 M 1848.6 384.0 L 1852.6 384.0 L 1852.6 377.6 L 1848.6 384.0 " fill="#000000"/>
<path class="legend" d="M 1860.6 380.8 Q 1861.6 380.8, 1862.4 381.2 Q 1863.2 381.7, 1863.6 382.5 Q 1864.1 383.2, 1864.1 384.2 Q 1864.1 385.3, 1863.6 386.2 Q 1863.1 387.1, 1862.2 387.5 Q 1861.4 388.0, 1860.3 388.0 Q 1858.2 388.0, 1857.2 386.7 Q 1856.2 385.3, 1856.2 382.6 Q 1856.2 379.6, 1857.5 378.0 Q 1858.7 376.4, 1861.1 376.4 Q 1861.8 376.4, 1862.4 376.6 Q 1863.0 376.8, 1863.6 377.1 L 1863.0 378.2 Q 1862.2 377.7, 1861.2 377.7 Q 1859.6 377.7, 1858.7 378.8 Q 1857.9 379.8, 1857.8 381.9 Q 1858.4 381.4, 1859.1 381.1 Q 1859.9 380.8, 1860.6 380.8 M 1860.3 386.7 Q 1860.9 386.7, 1861.4 386.4 Q 1861.9 386.1, 1862.2 385.5 Q 1862.5 384.9, 1862.5 384.3 Q 1862.5 383.2, 1861.9 382.7 Q 1861.3 382.1, 1860.4 382.1 Q 1859.7 382.1, 1859.0 382.4 Q 1858.3 382.7, 1857.8 383.1 Q 1857.9 385.0, 1858.5 385.9 Q 1859.1 386.7, 1860.3 386.7 " fill="#000000"/>
</svg>