<svg xmlns="http://www.w3.org/2000/svg" xmlns:rdkit="http://www.rdkit.org/xml" xmlns:xlink="http://www.w3.org/1999/xlink" version="1.1" baseProfile="full" xml:space="preserve" width="2000px" height="400px" viewBox="0 0 2000 400">
<!-- END OF HEADER -->
<rect style="opacity:1.0;fill:#FFFFFF;stroke:none" width="2000.0" height="400.0" x="0.0" y="0.0"> </rect>
<path class="bond-0 atom-0 atom-1" d="M 26.5,137.8 L 134.7,75.3" style="fill:none;fill-rule:evenodd;stroke:#000000;stroke-width:2.0px;stroke-linecap:butt;stroke-linejoin:miter;stroke-opacity:1"/>
<path class="bond-0 atom-0 atom-1" d="M 39.0,159.4 L 147.2,97.0" style="fill:none;fill-rule:evenodd;stroke:#000000;stroke-width:2.0px;stroke-linecap:butt;stroke-linejoin:miter;stroke-opacity:1"/>
<path class="bond-1 atom-1 atom-2" d="M 140.9,86.1 L 249.1,148.6" style="fill:none;fill-rule:evenodd;stroke:#000000;stroke-width:2.0px;stroke-linecap:butt;stroke-linejoin:miter;stroke-opacity:1"/>
<path class="bond-2 atom-2 atom-3" d="M 249.1,148.6 L 295.7,121.7" style="fill:none;fill-rule:evenodd;stroke:#000000;stroke-width:2.0px;stroke-linecap:butt;stroke-linejoin:miter;stroke-opacity:1"/>
<path class="bond-2 atom-2 atom-3" d="M 295.7,121.7 L 342.2,94.8" style="fill:none;fill-rule:evenodd;stroke:#00CC00;stroke-width:2.0px;stroke-linecap:butt;stroke-linejoin:miter;stroke-opacity:1"/>
<path class="bond-3 atom-2 atom-4" d="M 249.1,148.6 L 249.1,202.3" style="fill:none;fill-rule:evenodd;stroke:#000000;stroke-width:2.0px;stroke-linecap:butt;stroke-linejoin:miter;stroke-opacity:1"/>
<path class="bond-3 atom-2 atom-4" d="M 249.1,202.3 L 249.1,255.9" style="fill:none;fill-rule:evenodd;stroke:#00CC00;stroke-width:2.0px;stroke-linecap:butt;stroke-linejoin:miter;stroke-opacity:1"/>
<path class="atom-3" d="M 346.4 87.1 Q 346.4 80.1, 349.6 76.4 Q 353.0 72.7, 359.2 72.7 Q 365.1 72.7, 368.2 76.8 L 365.6 79.0 Q 363.3 76.0, 359.2 76.0 Q 355.0 76.0, 352.7 78.8 Q 350.4 81.7, 350.4 87.1 Q 350.4 92.7, 352.8 95.6 Q 355.1 98.5, 359.7 98.5 Q 362.8 98.5, 366.4 96.6 L 367.6 99.6 Q 366.1 100.6, 363.8 101.1 Q 361.6 101.7, 359.1 101.7 Q 353.0 101.7, 349.6 97.9 Q 346.4 94.2, 346.4 87.1 " fill="#00CC00"/>
<path class="atom-3" d="M 369.8 71.0 L 373.5 71.0 L 373.5 101.3 L 369.8 101.3 L 369.8 71.0 " fill="#00CC00"/>
<path class="atom-4" d="M 238.2 274.5 Q 238.2 267.4, 241.5 263.8 Q 244.8 260.0, 251.1 260.0 Q 256.9 260.0, 260.0 264.2 L 257.4 266.3 Q 255.1 263.3, 251.1 263.3 Q 246.8 263.3, 244.5 266.2 Q 242.3 269.0, 242.3 274.5 Q 242.3 280.1, 244.6 283.0 Q 246.9 285.8, 251.5 285.8 Q 254.6 285.8, 258.3 284.0 L 259.4 287.0 Q 257.9 287.9, 255.7 288.5 Q 253.4 289.0, 250.9 289.0 Q 244.8 289.0, 241.5 285.3 Q 238.2 281.5, 238.2 274.5 " fill="#00CC00"/>
<path class="atom-4" d="M 261.6 258.3 L 265.3 258.3 L 265.3 288.7 L 261.6 288.7 L 261.6 258.3 " fill="#00CC00"/>
<path class="legend" d="M 167.7 365.4 L 167.9 366.5 Q 168.8 365.3, 170.2 365.3 Q 170.6 365.3, 171.2 365.4 L 171.0 366.8 Q 170.3 366.6, 169.9 366.6 Q 169.3 366.6, 168.8 366.9 Q 168.4 367.1, 168.0 367.8 L 168.0 373.6 L 166.5 373.6 L 166.5 365.4 L 167.7 365.4 " fill="#000000"/>
<path class="legend" d="M 171.5 369.5 Q 171.5 367.5, 172.5 366.4 Q 173.5 365.3, 175.3 365.3 Q 177.1 365.3, 177.9 366.4 Q 178.8 367.4, 178.8 369.5 L 178.8 369.7 L 173.0 369.7 Q 173.0 371.1, 173.7 371.8 Q 174.3 372.6, 175.5 372.6 Q 176.1 372.6, 176.7 372.4 Q 177.3 372.3, 178.0 372.0 L 178.4 373.0 Q 177.6 373.4, 176.9 373.6 Q 176.2 373.8, 175.4 373.8 Q 173.5 373.8, 172.5 372.6 Q 171.5 371.5, 171.5 369.5 M 175.3 366.4 Q 174.4 366.4, 173.8 367.0 Q 173.3 367.5, 173.1 368.6 L 177.2 368.6 Q 177.1 367.5, 176.6 367.0 Q 176.2 366.4, 175.3 366.4 " fill="#000000"/>
<path class="legend" d="M 179.4 371.4 Q 179.4 370.1, 180.4 369.4 Q 181.5 368.7, 183.4 368.7 L 184.6 368.7 L 184.6 368.3 Q 184.6 367.3, 184.2 366.9 Q 183.8 366.4, 182.8 366.4 Q 182.1 366.4, 181.6 366.6 Q 181.1 366.7, 180.3 367.0 L 179.8 366.0 Q 181.3 365.3, 182.8 365.3 Q 184.5 365.3, 185.3 366.0 Q 186.1 366.8, 186.1 368.4 L 186.1 373.6 L 185.0 373.6 Q 185.0 373.6, 184.9 373.3 Q 184.9 373.1, 184.8 372.7 Q 183.6 373.8, 182.1 373.8 Q 180.8 373.8, 180.1 373.2 Q 179.4 372.5, 179.4 371.4 M 180.9 371.4 Q 180.9 372.0, 181.3 372.3 Q 181.6 372.6, 182.4 372.6 Q 183.0 372.6, 183.6 372.4 Q 184.2 372.0, 184.6 371.5 L 184.6 369.8 L 183.5 369.8 Q 182.2 369.8, 181.5 370.2 Q 180.9 370.6, 180.9 371.4 " fill="#000000"/>
<path class="legend" d="M 187.4 369.5 Q 187.4 367.5, 188.4 366.4 Q 189.4 365.3, 191.3 365.3 Q 193.2 365.3, 194.2 366.6 L 193.1 367.4 Q 192.8 366.9, 192.3 366.7 Q 191.9 366.4, 191.3 366.4 Q 190.2 366.4, 189.5 367.2 Q 188.9 368.0, 188.9 369.5 Q 188.9 371.0, 189.5 371.8 Q 190.2 372.6, 191.4 372.6 Q 192.1 372.6, 192.5 372.4 Q 193.0 372.3, 193.6 372.0 L 194.0 373.0 Q 192.8 373.7, 191.3 373.7 Q 189.4 373.7, 188.4 372.6 Q 187.4 371.5, 187.4 369.5 " fill="#000000"/>
<path class="legend" d="M 194.5 366.6 L 194.5 365.4 L 196.1 365.4 L 196.4 363.0 L 197.5 363.0 L 197.5 365.4 L 200.0 365.4 L 200.0 366.6 L 197.5 366.6 L 197.5 371.1 Q 197.5 372.5, 198.7 372.5 Q 199.2 372.5, 199.9 372.3 L 200.1 373.4 Q 199.2 373.7, 198.4 373.7 Q 197.3 373.7, 196.6 373.1 Q 196.0 372.4, 196.0 371.2 L 196.0 366.6 L 194.5 366.6 " fill="#000000"/>
<path class="legend" d="M 208.7 374.4 L 208.7 375.7 L 200.5 375.7 L 200.5 374.4 L 208.7 374.4 " fill="#000000"/>
<path class="legend" d="M 209.3 372.4 L 211.8 372.4 L 211.8 363.9 L 209.0 364.7 L 208.7 363.8 L 212.2 362.2 L 213.3 362.4 L 213.3 372.4 L 215.5 372.4 L 215.5 373.6 L 209.3 373.6 L 209.3 372.4 " fill="#000000"/>
<path class="legend" d="M 222.0 367.6 Q 223.0 368.1, 223.6 368.8 Q 224.2 369.4, 224.2 370.5 Q 224.2 371.5, 223.7 372.2 Q 223.2 373.0, 222.3 373.4 Q 221.4 373.8, 220.2 373.8 Q 218.4 373.8, 217.3 372.9 Q 216.2 372.0, 216.2 370.5 Q 216.2 369.6, 216.7 368.9 Q 217.1 368.2, 218.1 367.7 Q 217.4 367.3, 217.0 366.7 Q 216.6 366.0, 216.6 365.1 Q 216.6 363.7, 217.6 363.0 Q 218.5 362.2, 220.2 362.2 Q 221.8 362.2, 222.8 363.0 Q 223.8 363.7, 223.8 365.1 Q 223.8 365.9, 223.3 366.5 Q 222.9 367.1, 222.0 367.6 M 220.2 363.4 Q 219.2 363.4, 218.7 363.8 Q 218.2 364.3, 218.2 365.1 Q 218.2 365.7, 218.6 366.1 Q 218.9 366.4, 219.4 366.7 Q 219.9 366.9, 220.9 367.2 Q 221.6 366.8, 221.9 366.2 Q 222.2 365.7, 222.2 365.1 Q 222.2 364.3, 221.6 363.8 Q 221.1 363.4, 220.2 363.4 M 220.2 372.6 Q 221.3 372.6, 221.9 372.0 Q 222.6 371.5, 222.6 370.5 Q 222.6 369.9, 222.2 369.5 Q 221.9 369.1, 221.4 368.9 Q 220.9 368.7, 220.0 368.4 L 219.3 368.2 Q 218.5 368.6, 218.1 369.2 Q 217.8 369.8, 217.8 370.5 Q 217.8 371.5, 218.5 372.0 Q 219.1 372.6, 220.2 372.6 " fill="#000000"/>
<path class="legend" d="M 229.3 373.8 Q 227.3 373.8, 226.2 372.2 Q 225.2 370.7, 225.2 368.0 Q 225.2 365.2, 226.2 363.7 Q 227.2 362.2, 229.3 362.2 Q 231.4 362.2, 232.5 363.7 Q 233.5 365.2, 233.5 368.0 Q 233.5 370.7, 232.4 372.2 Q 231.4 373.8, 229.3 373.8 M 229.3 372.5 Q 230.6 372.5, 231.2 371.3 Q 231.9 370.2, 231.9 368.0 Q 231.9 365.7, 231.2 364.6 Q 230.6 363.5, 229.3 363.5 Q 228.1 363.5, 227.4 364.6 Q 226.8 365.7, 226.8 368.0 Q 226.8 370.2, 227.4 371.3 Q 228.1 372.5, 229.3 372.5 " fill="#000000"/>
<path class="legend" d="M 136.0 383.8 Q 136.0 381.8, 137.0 380.7 Q 138.0 379.5, 139.9 379.5 Q 141.8 379.5, 142.8 380.9 L 141.7 381.6 Q 141.4 381.2, 140.9 380.9 Q 140.5 380.7, 139.9 380.7 Q 138.8 380.7, 138.1 381.5 Q 137.5 382.3, 137.5 383.8 Q 137.5 385.3, 138.1 386.1 Q 138.8 386.8, 140.0 386.8 Q 140.7 386.8, 141.1 386.7 Q 141.6 386.5, 142.2 386.3 L 142.6 387.3 Q 141.4 388.0, 139.9 388.0 Q 138.0 388.0, 137.0 386.9 Q 136.0 385.7, 136.0 383.8 " fill="#000000"/>
<path class="legend" d="M 143.1 383.8 Q 143.1 381.7, 144.1 380.6 Q 145.2 379.5, 147.0 379.5 Q 148.8 379.5, 149.6 380.6 Q 150.4 381.7, 150.4 383.7 L 150.4 384.0 L 144.7 384.0 Q 144.7 385.4, 145.3 386.1 Q 146.0 386.8, 147.1 386.8 Q 147.8 386.8, 148.4 386.7 Q 148.9 386.5, 149.7 386.2 L 150.1 387.2 Q 149.3 387.6, 148.5 387.8 Q 147.8 388.0, 147.0 388.0 Q 145.2 388.0, 144.2 386.9 Q 143.1 385.8, 143.1 383.8 M 147.0 380.7 Q 146.1 380.7, 145.5 381.2 Q 144.9 381.8, 144.7 382.8 L 148.8 382.8 Q 148.7 381.7, 148.3 381.2 Q 147.8 380.7, 147.0 380.7 " fill="#000000"/>
<path class="legend" d="M 155.3 379.5 Q 156.6 379.5, 157.3 380.3 Q 158.0 381.0, 158.0 382.4 L 158.0 387.9 L 156.5 387.9 L 156.5 382.6 Q 156.5 381.6, 156.1 381.2 Q 155.8 380.7, 154.9 380.7 Q 154.2 380.7, 153.6 381.1 Q 152.9 381.4, 152.5 382.0 L 152.5 387.9 L 151.0 387.9 L 151.0 379.7 L 152.3 379.7 L 152.4 380.8 Q 153.5 379.5, 155.3 379.5 " fill="#000000"/>
<path class="legend" d="M 159.3 380.8 L 159.3 379.7 L 160.8 379.7 L 161.1 377.3 L 162.2 377.3 L 162.2 379.7 L 164.7 379.7 L 164.7 380.8 L 162.2 380.8 L 162.2 385.4 Q 162.2 386.8, 163.4 386.8 Q 163.9 386.8, 164.6 386.6 L 164.8 387.6 Q 164.0 388.0, 163.1 388.0 Q 162.1 388.0, 161.4 387.3 Q 160.7 386.7, 160.7 385.4 L 160.7 380.8 L 159.3 380.8 " fill="#000000"/>
<path class="legend" d="M 173.4 388.7 L 173.4 390.0 L 165.2 390.0 L 165.2 388.7 L 173.4 388.7 " fill="#000000"/>
<path class="legend" d="M 180.9 375.7 L 180.9 387.9 L 179.7 387.9 L 179.4 386.9 Q 178.5 388.0, 177.0 388.0 Q 175.3 388.0, 174.3 387.0 Q 173.4 385.9, 173.4 383.9 Q 173.4 381.8, 174.5 380.7 Q 175.7 379.5, 177.6 379.5 Q 178.5 379.5, 179.4 379.7 L 179.4 375.7 L 180.9 375.7 M 177.1 386.8 Q 177.9 386.8, 178.5 386.4 Q 179.1 385.9, 179.4 385.1 L 179.4 380.9 Q 178.5 380.7, 177.6 380.7 Q 176.4 380.7, 175.7 381.6 Q 174.9 382.4, 174.9 383.9 Q 174.9 385.3, 175.5 386.1 Q 176.1 386.8, 177.1 386.8 " fill="#000000"/>
<path class="legend" d="M 182.1 376.6 L 183.6 376.6 L 183.6 378.0 L 182.1 378.0 L 182.1 376.6 M 182.1 379.7 L 183.6 379.7 L 183.6 387.9 L 182.1 387.9 L 182.1 379.7 " fill="#000000"/>
<path class="legend" d="M 185.5 386.2 Q 186.2 386.5, 186.7 386.6 Q 187.2 386.8, 187.8 386.8 Q 188.5 386.8, 188.9 386.5 Q 189.3 386.2, 189.3 385.6 Q 189.3 385.2, 189.1 385.0 Q 188.9 384.8, 188.6 384.6 Q 188.4 384.5, 187.6 384.3 Q 187.5 384.3, 186.8 384.0 Q 186.1 383.7, 185.7 383.2 Q 185.3 382.7, 185.3 381.9 Q 185.3 380.9, 186.0 380.2 Q 186.8 379.5, 188.3 379.5 Q 188.9 379.5, 189.5 379.7 Q 190.0 379.8, 190.6 380.0 L 190.2 381.2 Q 189.7 381.0, 189.2 380.9 Q 188.8 380.8, 188.3 380.8 Q 187.5 380.8, 187.2 381.1 Q 186.8 381.4, 186.8 381.8 Q 186.8 382.3, 187.1 382.5 Q 187.4 382.7, 188.1 383.0 Q 188.2 383.0, 188.4 383.1 L 188.8 383.2 Q 189.4 383.4, 189.8 383.7 Q 190.2 383.9, 190.5 384.4 Q 190.8 384.8, 190.8 385.6 Q 190.8 386.7, 190.0 387.4 Q 189.1 388.0, 187.8 388.0 Q 187.0 388.0, 186.3 387.9 Q 185.7 387.7, 185.0 387.4 L 185.5 386.2 " fill="#000000"/>
<path class="legend" d="M 191.7 380.8 L 191.7 379.7 L 193.2 379.7 L 193.5 377.3 L 194.6 377.3 L 194.6 379.7 L 197.1 379.7 L 197.1 380.8 L 194.6 380.8 L 194.6 385.4 Q 194.6 386.8, 195.8 386.8 Q 196.3 386.8, 197.0 386.6 L 197.3 387.6 Q 196.4 388.0, 195.5 388.0 Q 194.5 388.0, 193.8 387.3 Q 193.1 386.7, 193.1 385.4 L 193.1 380.8 L 191.7 380.8 " fill="#000000"/>
<path class="legend" d="" fill="#000000"/>
<path class="legend" d="M 203.0 380.9 L 210.3 380.9 L 210.3 382.1 L 203.0 382.1 L 203.0 380.9 M 203.0 384.4 L 210.3 384.4 L 210.3 385.5 L 203.0 385.5 L 203.0 384.4 " fill="#000000"/>
<path class="legend" d="" fill="#000000"/>
<path class="legend" d="M 221.2 388.0 Q 219.2 388.0, 218.1 386.5 Q 217.1 384.9, 217.1 382.2 Q 217.1 379.5, 218.1 378.0 Q 219.1 376.4, 221.2 376.4 Q 223.3 376.4, 224.4 378.0 Q 225.4 379.5, 225.4 382.2 Q 225.4 384.9, 224.3 386.5 Q 223.3 388.0, 221.2 388.0 M 221.2 386.7 Q 222.5 386.7, 223.1 385.6 Q 223.8 384.4, 223.8 382.2 Q 223.8 380.0, 223.1 378.8 Q 222.5 377.7, 221.2 377.7 Q 220.0 377.7, 219.4 378.8 Q 218.7 380.0, 218.7 382.2 Q 218.7 384.4, 219.4 385.6 Q 220.0 386.7, 221.2 386.7 " fill="#000000"/>
<path class="legend" d="M 226.4 386.3 L 228.0 386.3 L 228.0 387.9 L 226.4 387.9 L 226.4 386.3 " fill="#000000"/>
<path class="legend" d="M 233.2 380.8 Q 234.2 380.8, 235.0 381.2 Q 235.8 381.6, 236.3 382.4 Q 236.7 383.2, 236.7 384.3 Q 236.7 385.5, 236.2 386.3 Q 235.6 387.2, 234.7 387.6 Q 233.7 388.0, 232.7 388.0 Q 231.6 388.0, 230.7 387.6 Q 229.7 387.2, 229.1 386.5 L 230.0 385.5 Q 230.6 386.1, 231.3 386.4 Q 232.0 386.7, 232.7 386.7 Q 233.7 386.7, 234.4 386.1 Q 235.1 385.5, 235.1 384.3 Q 235.1 383.1, 234.4 382.6 Q 233.7 382.0, 232.6 382.0 Q 231.6 382.0, 230.5 382.4 L 229.7 382.0 L 230.2 376.6 L 236.0 376.6 L 235.9 377.8 L 231.5 377.8 L 231.2 381.2 Q 232.2 380.8, 233.2 380.8 " fill="#000000"/>
<path class="legend" d="M 244.9 384.0 L 246.2 384.0 L 246.2 385.3 L 244.9 385.3 L 244.9 387.9 L 243.4 387.9 L 243.4 385.3 L 237.5 385.3 L 237.5 384.3 L 242.5 376.6 L 244.9 376.6 L 244.9 384.0 M 239.4 384.0 L 243.4 384.0 L 243.4 377.6 L 239.4 384.0 " fill="#000000"/>
<path class="legend" d="M 251.4 380.8 Q 252.4 380.8, 253.2 381.2 Q 254.0 381.7, 254.4 382.5 Q 254.9 383.2, 254.9 384.2 Q 254.9 385.3, 254.4 386.2 Q 253.9 387.1, 253.0 387.5 Q 252.2 388.0, 251.1 388.0 Q 249.0 388.0, 248.0 386.7 Q 247.0 385.3, 247.0 382.6 Q 247.0 379.6, 248.3 378.0 Q 249.5 376.4, 251.9 376.4 Q 252.6 376.4, 253.2 376.6 Q 253.8 376.8, 254.4 377.1 L 253.8 378.2 Q 253.0 377.7, 251.9 377.7 Q 250.3 377.7, 249.5 378.8 Q 248.7 379.8, 248.6 381.9 Q 249.2 381.4, 249.9 381.1 Q 250.7 380.8, 251.4 380.8 M 251.1 386.7 Q 251.7 386.7, 252.2 386.4 Q 252.7 386.1, 253.0 385.5 Q 253.3 384.9, 253.3 384.3 Q 253.3 383.2, 252.7 382.7 Q 252.1 382.1, 251.1 382.1 Q 250.5 382.1, 249.8 382.4 Q 249.1 382.7, 248.6 383.1 Q 248.7 385.0, 249.3 385.9 Q 249.9 386.7, 251.1 386.7 " fill="#000000"/>
<path class="legend" d="M 259.9 388.0 Q 257.8 388.0, 256.8 386.5 Q 255.7 384.9, 255.7 382.2 Q 255.7 379.5, 256.8 378.0 Q 257.8 376.4, 259.9 376.4 Q 262.0 376.4, 263.0 378.0 Q 264.0 379.5, 264.0 382.2 Q 264.0 384.9, 263.0 386.5 Q 262.0 388.0, 259.9 388.0 M 259.9 386.7 Q 261.1 386.7, 261.8 385.6 Q 262.4 384.4, 262.4 382.2 Q 262.4 380.0, 261.8 378.8 Q 261.1 377.7, 259.9 377.7 Q 258.7 377.7, 258.0 378.8 Q 257.3 380.0, 257.3 382.2 Q 257.3 384.4, 258.0 385.6 Q 258.7 386.7, 259.9 386.7 " fill="#000000"/>
<path class="bond-0 atom-0 atom-1" d="M 421.1,185.6 L 536.0,136.7" style="fill:none;fill-rule:evenodd;stroke:#000000;stroke-width:2.0px;stroke-linecap:butt;stroke-linejoin:miter;stroke-opacity:1"/>
<path class="bond-0 atom-0 atom-1" d="M 430.9,208.6 L 545.8,159.7" style="fill:none;fill-rule:evenodd;stroke:#000000;stroke-width:2.0px;stroke-linecap:butt;stroke-linejoin:miter;stroke-opacity:1"/>
<path class="bond-1 atom-1 atom-2" d="M 540.9,148.2 L 640.7,223.3" style="fill:none;fill-rule:evenodd;stroke:#000000;stroke-width:2.0px;stroke-linecap:butt;stroke-linejoin:miter;stroke-opacity:1"/>
<path class="bond-2 atom-2 atom-3" d="M 640.7,223.3 L 691.3,201.8" style="fill:none;fill-rule:evenodd;stroke:#000000;stroke-width:2.0px;stroke-linecap:butt;stroke-linejoin:miter;stroke-opacity:1"/>
<path class="bond-2 atom-2 atom-3" d="M 691.3,201.8 L 741.9,180.2" style="fill:none;fill-rule:evenodd;stroke:#7F4C19;stroke-width:2.0px;stroke-linecap:butt;stroke-linejoin:miter;stroke-opacity:1"/>
<path class="atom-3" d="M 759.8 173.7 Q 762.5 174.4, 763.9 176.1 Q 765.3 177.7, 765.3 180.2 Q 765.3 184.1, 762.8 186.3 Q 760.3 188.5, 755.6 188.5 L 746.0 188.5 L 746.0 160.2 L 754.4 160.2 Q 759.2 160.2, 761.7 162.2 Q 764.1 164.1, 764.1 167.7 Q 764.1 172.0, 759.8 173.7 M 749.8 163.4 L 749.8 172.3 L 754.4 172.3 Q 757.2 172.3, 758.6 171.2 Q 760.1 170.0, 760.1 167.7 Q 760.1 163.4, 754.4 163.4 L 749.8 163.4 M 755.6 185.3 Q 758.3 185.3, 759.8 184.0 Q 761.3 182.7, 761.3 180.2 Q 761.3 177.9, 759.6 176.7 Q 758.0 175.5, 755.0 175.5 L 749.8 175.5 L 749.8 185.3 L 755.6 185.3 " fill="#7F4C19"/>
<path class="atom-3" d="M 770.2 168.0 L 770.6 170.8 Q 772.8 167.6, 776.3 167.6 Q 777.4 167.6, 778.9 168.0 L 778.3 171.4 Q 776.6 171.0, 775.6 171.0 Q 774.0 171.0, 772.8 171.7 Q 771.8 172.3, 770.9 173.9 L 770.9 188.5 L 767.1 188.5 L 767.1 168.0 L 770.2 168.0 " fill="#7F4C19"/>
<path class="legend" d="M 568.5 365.4 L 568.6 366.5 Q 569.5 365.3, 570.9 365.3 Q 571.4 365.3, 572.0 365.4 L 571.7 366.8 Q 571.0 366.6, 570.7 366.6 Q 570.0 366.6, 569.5 366.9 Q 569.1 367.1, 568.8 367.8 L 568.8 373.6 L 567.2 373.6 L 567.2 365.4 L 568.5 365.4 " fill="#000000"/>
<path class="legend" d="M 572.2 369.5 Q 572.2 367.5, 573.2 366.4 Q 574.2 365.3, 576.1 365.3 Q 577.9 365.3, 578.7 366.4 Q 579.5 367.4, 579.5 369.5 L 579.5 369.7 L 573.7 369.7 Q 573.8 371.1, 574.4 371.8 Q 575.0 372.6, 576.2 372.6 Q 576.8 372.6, 577.4 372.4 Q 578.0 372.3, 578.7 372.0 L 579.2 373.0 Q 578.4 373.4, 577.6 373.6 Q 576.9 373.8, 576.1 373.8 Q 574.3 373.8, 573.2 372.6 Q 572.2 371.5, 572.2 369.5 M 576.1 366.4 Q 575.1 366.4, 574.5 367.0 Q 574.0 367.5, 573.8 368.6 L 577.9 368.6 Q 577.8 367.5, 577.3 367.0 Q 576.9 366.4, 576.1 366.4 " fill="#000000"/>
<path class="legend" d="M 580.1 371.4 Q 580.1 370.1, 581.2 369.4 Q 582.2 368.7, 584.1 368.7 L 585.4 368.7 L 585.4 368.3 Q 585.4 367.3, 584.9 366.9 Q 584.5 366.4, 583.5 366.4 Q 582.8 366.4, 582.3 366.6 Q 581.8 366.7, 581.0 367.0 L 580.6 366.0 Q 582.1 365.3, 583.5 365.3 Q 585.3 365.3, 586.1 366.0 Q 586.9 366.8, 586.9 368.4 L 586.9 373.6 L 585.7 373.6 Q 585.7 373.6, 585.6 373.3 Q 585.6 373.1, 585.5 372.7 Q 584.3 373.8, 582.8 373.8 Q 581.6 373.8, 580.8 373.2 Q 580.1 372.5, 580.1 371.4 M 581.6 371.4 Q 581.6 372.0, 582.0 372.3 Q 582.4 372.6, 583.1 372.6 Q 583.7 372.6, 584.3 372.4 Q 584.9 372.0, 585.4 371.5 L 585.4 369.8 L 584.2 369.8 Q 582.9 369.8, 582.3 370.2 Q 581.6 370.6, 581.6 371.4 " fill="#000000"/>
<path class="legend" d="M 588.1 369.5 Q 588.1 367.5, 589.1 366.4 Q 590.1 365.3, 592.0 365.3 Q 593.9 365.3, 594.9 366.6 L 593.9 367.4 Q 593.5 366.9, 593.0 366.7 Q 592.6 366.4, 592.0 366.4 Q 590.9 366.4, 590.3 367.2 Q 589.6 368.0, 589.6 369.5 Q 589.6 371.0, 590.3 371.8 Q 590.9 372.6, 592.1 372.6 Q 592.8 372.6, 593.3 372.4 Q 593.7 372.3, 594.3 372.0 L 594.7 373.0 Q 593.5 373.7, 592.0 373.7 Q 590.1 373.7, 589.1 372.6 Q 588.1 371.5, 588.1 369.5 " fill="#000000"/>
<path class="legend" d="M 595.3 366.6 L 595.3 365.4 L 596.8 365.4 L 597.1 363.0 L 598.2 363.0 L 598.2 365.4 L 600.7 365.4 L 600.7 366.6 L 598.2 366.6 L 598.2 371.1 Q 598.2 372.5, 599.4 372.5 Q 599.9 372.5, 600.6 372.3 L 600.8 373.4 Q 600.0 373.7, 599.1 373.7 Q 598.1 373.7, 597.4 373.1 Q 596.7 372.4, 596.7 371.2 L 596.7 366.6 L 595.3 366.6 " fill="#000000"/>
<path class="legend" d="M 609.4 374.4 L 609.4 375.7 L 601.2 375.7 L 601.2 374.4 L 609.4 374.4 " fill="#000000"/>
<path class="legend" d="M 610.0 372.4 L 612.5 372.4 L 612.5 363.9 L 609.8 364.7 L 609.4 363.8 L 612.9 362.2 L 614.0 362.4 L 614.0 372.4 L 616.2 372.4 L 616.2 373.6 L 610.0 373.6 L 610.0 372.4 " fill="#000000"/>
<path class="legend" d="M 622.8 363.6 L 616.9 363.6 L 616.9 362.3 L 624.4 362.3 L 624.4 363.4 L 619.9 373.6 L 618.3 373.6 L 622.8 363.6 " fill="#000000"/>
<path class="legend" d="M 628.7 362.2 Q 630.7 362.2, 631.7 363.6 Q 632.8 364.9, 632.8 367.6 Q 632.8 370.6, 631.5 372.2 Q 630.2 373.8, 627.8 373.8 Q 627.1 373.8, 626.5 373.6 Q 625.9 373.4, 625.3 373.1 L 626.0 372.0 Q 626.8 372.5, 627.8 372.5 Q 629.4 372.5, 630.2 371.5 Q 631.0 370.4, 631.1 368.3 Q 630.6 368.8, 629.8 369.1 Q 629.1 369.4, 628.3 369.4 Q 627.3 369.4, 626.5 368.9 Q 625.8 368.5, 625.3 367.7 Q 624.9 366.9, 624.9 366.0 Q 624.9 364.8, 625.4 364.0 Q 625.9 363.1, 626.7 362.7 Q 627.6 362.2, 628.7 362.2 M 626.5 365.9 Q 626.5 366.9, 627.1 367.5 Q 627.6 368.1, 628.6 368.1 Q 629.3 368.1, 630.0 367.8 Q 630.7 367.5, 631.1 367.1 Q 631.1 365.2, 630.5 364.3 Q 629.9 363.5, 628.7 363.5 Q 628.1 363.5, 627.6 363.8 Q 627.1 364.1, 626.8 364.7 Q 626.5 365.2, 626.5 365.9 " fill="#000000"/>
<path class="legend" d="M 536.6 383.8 Q 536.6 381.8, 537.6 380.7 Q 538.5 379.5, 540.5 379.5 Q 542.4 379.5, 543.3 380.9 L 542.3 381.6 Q 542.0 381.2, 541.5 380.9 Q 541.1 380.7, 540.5 380.7 Q 539.4 380.7, 538.7 381.5 Q 538.1 382.3, 538.1 383.8 Q 538.1 385.3, 538.7 386.1 Q 539.4 386.8, 540.6 386.8 Q 541.3 386.8, 541.7 386.7 Q 542.2 386.5, 542.8 386.3 L 543.2 387.3 Q 542.0 388.0, 540.5 388.0 Q 538.5 388.0, 537.6 386.9 Q 536.6 385.7, 536.6 383.8 " fill="#000000"/>
<path class="legend" d="M 543.7 383.8 Q 543.7 381.7, 544.7 380.6 Q 545.7 379.5, 547.6 379.5 Q 549.4 379.5, 550.2 380.6 Q 551.0 381.7, 551.0 383.7 L 551.0 384.0 L 545.3 384.0 Q 545.3 385.4, 545.9 386.1 Q 546.5 386.8, 547.7 386.8 Q 548.4 386.8, 548.9 386.7 Q 549.5 386.5, 550.3 386.2 L 550.7 387.2 Q 549.9 387.6, 549.1 387.8 Q 548.4 388.0, 547.6 388.0 Q 545.8 388.0, 544.8 386.9 Q 543.7 385.8, 543.7 383.8 M 547.6 380.7 Q 546.6 380.7, 546.1 381.2 Q 545.5 381.8, 545.3 382.8 L 549.4 382.8 Q 549.3 381.7, 548.9 381.2 Q 548.4 380.7, 547.6 380.7 " fill="#000000"/>
<path class="legend" d="M 555.9 379.5 Q 557.2 379.5, 557.9 380.3 Q 558.6 381.0, 558.6 382.4 L 558.6 387.9 L 557.1 387.9 L 557.1 382.6 Q 557.1 381.6, 556.7 381.2 Q 556.4 380.7, 555.5 380.7 Q 554.8 380.7, 554.1 381.1 Q 553.5 381.4, 553.1 382.0 L 553.1 387.9 L 551.6 387.9 L 551.6 379.7 L 552.9 379.7 L 553.0 380.8 Q 554.1 379.5, 555.9 379.5 " fill="#000000"/>
<path class="legend" d="M 559.8 380.8 L 559.8 379.7 L 561.4 379.7 L 561.7 377.3 L 562.8 377.3 L 562.8 379.7 L 565.3 379.7 L 565.3 380.8 L 562.8 380.8 L 562.8 385.4 Q 562.8 386.8, 564.0 386.8 Q 564.5 386.8, 565.2 386.6 L 565.4 387.6 Q 564.5 388.0, 563.7 388.0 Q 562.6 388.0, 562.0 387.3 Q 561.3 386.7, 561.3 385.4 L 561.3 380.8 L 559.8 380.8 " fill="#000000"/>
<path class="legend" d="M 574.0 388.7 L 574.0 390.0 L 565.8 390.0 L 565.8 388.7 L 574.0 388.7 " fill="#000000"/>
<path class="legend" d="M 581.5 375.7 L 581.5 387.9 L 580.2 387.9 L 580.0 386.9 Q 579.1 388.0, 577.6 388.0 Q 575.9 388.0, 574.9 387.0 Q 574.0 385.9, 574.0 383.9 Q 574.0 381.8, 575.1 380.7 Q 576.2 379.5, 578.2 379.5 Q 579.1 379.5, 580.0 379.7 L 580.0 375.7 L 581.5 375.7 M 577.7 386.8 Q 578.5 386.8, 579.1 386.4 Q 579.7 385.9, 580.0 385.1 L 580.0 380.9 Q 579.1 380.7, 578.2 380.7 Q 577.0 380.7, 576.2 381.6 Q 575.5 382.4, 575.5 383.9 Q 575.5 385.3, 576.1 386.1 Q 576.7 386.8, 577.7 386.8 " fill="#000000"/>
<path class="legend" d="M 582.7 376.6 L 584.2 376.6 L 584.2 378.0 L 582.7 378.0 L 582.7 376.6 M 582.7 379.7 L 584.2 379.7 L 584.2 387.9 L 582.7 387.9 L 582.7 379.7 " fill="#000000"/>
<path class="legend" d="M 586.1 386.2 Q 586.8 386.5, 587.3 386.6 Q 587.8 386.8, 588.4 386.8 Q 589.1 386.8, 589.5 386.5 Q 589.9 386.2, 589.9 385.6 Q 589.9 385.2, 589.7 385.0 Q 589.5 384.8, 589.2 384.6 Q 588.9 384.5, 588.2 384.3 Q 588.1 384.3, 587.4 384.0 Q 586.6 383.7, 586.2 383.2 Q 585.9 382.7, 585.9 381.9 Q 585.9 380.9, 586.6 380.2 Q 587.4 379.5, 588.9 379.5 Q 589.5 379.5, 590.1 379.7 Q 590.6 379.8, 591.2 380.0 L 590.8 381.2 Q 590.3 381.0, 589.8 380.9 Q 589.4 380.8, 588.9 380.8 Q 588.1 380.8, 587.7 381.1 Q 587.4 381.4, 587.4 381.8 Q 587.4 382.3, 587.7 382.5 Q 588.0 382.7, 588.6 383.0 Q 588.8 383.0, 589.0 383.1 L 589.3 383.2 Q 590.0 383.4, 590.4 383.7 Q 590.8 383.9, 591.1 384.4 Q 591.4 384.8, 591.4 385.6 Q 591.4 386.7, 590.6 387.4 Q 589.7 388.0, 588.4 388.0 Q 587.6 388.0, 586.9 387.9 Q 586.3 387.7, 585.6 387.4 L 586.1 386.2 " fill="#000000"/>
<path class="legend" d="M 592.3 380.8 L 592.3 379.7 L 593.8 379.7 L 594.1 377.3 L 595.2 377.3 L 595.2 379.7 L 597.7 379.7 L 597.7 380.8 L 595.2 380.8 L 595.2 385.4 Q 595.2 386.8, 596.4 386.8 Q 596.9 386.8, 597.6 386.6 L 597.8 387.6 Q 597.0 388.0, 596.1 388.0 Q 595.1 388.0, 594.4 387.3 Q 593.7 386.7, 593.7 385.4 L 593.7 380.8 L 592.3 380.8 " fill="#000000"/>
<path class="legend" d="" fill="#000000"/>
<path class="legend" d="M 603.6 380.9 L 610.9 380.9 L 610.9 382.1 L 603.6 382.1 L 603.6 380.9 M 603.6 384.4 L 610.9 384.4 L 610.9 385.5 L 603.6 385.5 L 603.6 384.4 " fill="#000000"/>
<path class="legend" d="" fill="#000000"/>
<path class="legend" d="M 621.8 388.0 Q 619.8 388.0, 618.7 386.5 Q 617.7 384.9, 617.7 382.2 Q 617.7 379.5, 618.7 378.0 Q 619.7 376.4, 621.8 376.4 Q 623.9 376.4, 625.0 378.0 Q 626.0 379.5, 626.0 382.2 Q 626.0 384.9, 624.9 386.5 Q 623.9 388.0, 621.8 388.0 M 621.8 386.7 Q 623.1 386.7, 623.7 385.6 Q 624.4 384.4, 624.4 382.2 Q 624.4 380.0, 623.7 378.8 Q 623.1 377.7, 621.8 377.7 Q 620.6 377.7, 619.9 378.8 Q 619.3 380.0, 619.3 382.2 Q 619.3 384.4, 619.9 385.6 Q 620.6 386.7, 621.8 386.7 " fill="#000000"/>
<path class="legend" d="M 627.0 386.3 L 628.6 386.3 L 628.6 387.9 L 627.0 387.9 L 627.0 386.3 " fill="#000000"/>
<path class="legend" d="M 633.8 380.8 Q 634.8 380.8, 635.6 381.2 Q 636.4 381.6, 636.9 382.4 Q 637.3 383.2, 637.3 384.3 Q 637.3 385.5, 636.7 386.3 Q 636.2 387.2, 635.3 387.6 Q 634.3 388.0, 633.3 388.0 Q 632.2 388.0, 631.3 387.6 Q 630.3 387.2, 629.7 386.5 L 630.6 385.5 Q 631.1 386.1, 631.9 386.4 Q 632.6 386.7, 633.3 386.7 Q 634.3 386.7, 635.0 386.1 Q 635.7 385.5, 635.7 384.3 Q 635.7 383.1, 635.0 382.6 Q 634.3 382.0, 633.2 382.0 Q 632.2 382.0, 631.1 382.4 L 630.3 382.0 L 630.8 376.6 L 636.6 376.6 L 636.5 377.8 L 632.1 377.8 L 631.8 381.2 Q 632.8 380.8, 633.8 380.8 " fill="#000000"/>
<path class="legend" d="M 645.5 384.0 L 646.8 384.0 L 646.8 385.3 L 645.5 385.3 L 645.5 387.9 L 643.9 387.9 L 643.9 385.3 L 638.1 385.3 L 638.1 384.3 L 643.1 376.6 L 645.5 376.6 L 645.5 384.0 M 639.9 384.0 L 643.9 384.0 L 643.9 377.6 L 639.9 384.0 " fill="#000000"/>
<path class="legend" d="M 653.5 377.8 L 647.6 377.8 L 647.6 376.6 L 655.1 376.6 L 655.1 377.7 L 650.5 387.9 L 649.0 387.9 L 653.5 377.8 " fill="#000000"/>
<path class="legend" d="M 659.4 376.4 Q 661.4 376.4, 662.4 377.8 Q 663.4 379.2, 663.4 381.9 Q 663.4 384.9, 662.2 386.5 Q 660.9 388.0, 658.5 388.0 Q 657.8 388.0, 657.2 387.9 Q 656.6 387.7, 656.0 387.4 L 656.7 386.3 Q 657.5 386.7, 658.5 386.7 Q 660.1 386.7, 660.9 385.7 Q 661.7 384.7, 661.8 382.5 Q 661.2 383.1, 660.5 383.4 Q 659.8 383.6, 659.0 383.6 Q 658.0 383.6, 657.2 383.2 Q 656.4 382.8, 656.0 382.0 Q 655.6 381.2, 655.6 380.2 Q 655.6 379.1, 656.1 378.3 Q 656.6 377.4, 657.4 376.9 Q 658.3 376.4, 659.4 376.4 M 657.2 380.2 Q 657.2 381.2, 657.7 381.8 Q 658.3 382.4, 659.3 382.4 Q 660.0 382.4, 660.7 382.1 Q 661.3 381.8, 661.8 381.3 Q 661.8 379.4, 661.2 378.6 Q 660.6 377.7, 659.4 377.7 Q 658.8 377.7, 658.3 378.1 Q 657.8 378.4, 657.5 378.9 Q 657.2 379.5, 657.2 380.2 " fill="#000000"/>
<path class="bond-0 atom-0 atom-1" d="M 826.5,169.0 L 934.7,106.5" style="fill:none;fill-rule:evenodd;stroke:#000000;stroke-width:2.0px;stroke-linecap:butt;stroke-linejoin:miter;stroke-opacity:1"/>
<path class="bond-0 atom-0 atom-1" d="M 839.0,190.6 L 947.2,128.2" style="fill:none;fill-rule:evenodd;stroke:#000000;stroke-width:2.0px;stroke-linecap:butt;stroke-linejoin:miter;stroke-opacity:1"/>
<path class="bond-1 atom-1 atom-2" d="M 940.9,117.4 L 1049.1,179.8" style="fill:none;fill-rule:evenodd;stroke:#000000;stroke-width:2.0px;stroke-linecap:butt;stroke-linejoin:miter;stroke-opacity:1"/>
<path class="bond-2 atom-2 atom-3" d="M 1049.1,179.8 L 1095.7,206.7" style="fill:none;fill-rule:evenodd;stroke:#000000;stroke-width:2.0px;stroke-linecap:butt;stroke-linejoin:miter;stroke-opacity:1"/>
<path class="bond-2 atom-2 atom-3" d="M 1095.7,206.7 L 1142.2,233.6" style="fill:none;fill-rule:evenodd;stroke:#00CC00;stroke-width:2.0px;stroke-linecap:butt;stroke-linejoin:miter;stroke-opacity:1"/>
<path class="bond-3 atom-2 atom-4" d="M 1049.1,179.8 L 1074.7,135.6" style="fill:none;fill-rule:evenodd;stroke:#000000;stroke-width:2.0px;stroke-linecap:butt;stroke-linejoin:miter;stroke-opacity:1"/>
<path class="bond-3 atom-2 atom-4" d="M 1074.7,135.6 L 1100.2,91.3" style="fill:none;fill-rule:evenodd;stroke:#00CC00;stroke-width:2.0px;stroke-linecap:butt;stroke-linejoin:miter;stroke-opacity:1"/>
<path class="bond-4 atom-2 atom-5" d="M 1049.1,179.8 L 1020.9,228.7" style="fill:none;fill-rule:evenodd;stroke:#000000;stroke-width:2.0px;stroke-linecap:butt;stroke-linejoin:miter;stroke-opacity:1"/>
<path class="bond-4 atom-2 atom-5" d="M 1020.9,228.7 L 992.6,277.7" style="fill:none;fill-rule:evenodd;stroke:#00CC00;stroke-width:2.0px;stroke-linecap:butt;stroke-linejoin:miter;stroke-opacity:1"/>
<path class="atom-3" d="M 1146.4 243.3 Q 1146.4 236.2, 1149.6 232.5 Q 1153.0 228.8, 1159.2 228.8 Q 1165.1 228.8, 1168.2 232.9 L 1165.6 235.1 Q 1163.3 232.1, 1159.2 232.1 Q 1155.0 232.1, 1152.7 235.0 Q 1150.4 237.8, 1150.4 243.3 Q 1150.4 248.9, 1152.8 251.7 Q 1155.1 254.6, 1159.7 254.6 Q 1162.8 254.6, 1166.4 252.7 L 1167.6 255.7 Q 1166.1 256.7, 1163.8 257.3 Q 1161.6 257.8, 1159.1 257.8 Q 1153.0 257.8, 1149.6 254.1 Q 1146.4 250.3, 1146.4 243.3 " fill="#00CC00"/>
<path class="atom-3" d="M 1169.8 227.1 L 1173.5 227.1 L 1173.5 257.5 L 1169.8 257.5 L 1169.8 227.1 " fill="#00CC00"/>
<path class="atom-4" d="M 1100.6 72.6 Q 1100.6 65.6, 1103.9 61.9 Q 1107.2 58.2, 1113.5 58.2 Q 1119.4 58.2, 1122.5 62.3 L 1119.8 64.5 Q 1117.6 61.5, 1113.5 61.5 Q 1109.2 61.5, 1107.0 64.3 Q 1104.7 67.2, 1104.7 72.6 Q 1104.7 78.2, 1107.0 81.1 Q 1109.4 84.0, 1114.0 84.0 Q 1117.1 84.0, 1120.7 82.1 L 1121.8 85.1 Q 1120.4 86.1, 1118.1 86.6 Q 1115.9 87.2, 1113.4 87.2 Q 1107.2 87.2, 1103.9 83.4 Q 1100.6 79.7, 1100.6 72.6 " fill="#00CC00"/>
<path class="atom-4" d="M 1124.1 56.5 L 1127.8 56.5 L 1127.8 86.8 L 1124.1 86.8 L 1124.1 56.5 " fill="#00CC00"/>
<path class="atom-5" d="M 961.4 289.0 Q 961.4 281.9, 964.7 278.3 Q 968.0 274.5, 974.3 274.5 Q 980.1 274.5, 983.2 278.7 L 980.6 280.8 Q 978.3 277.8, 974.3 277.8 Q 970.0 277.8, 967.7 280.7 Q 965.5 283.5, 965.5 289.0 Q 965.5 294.6, 967.8 297.5 Q 970.1 300.3, 974.7 300.3 Q 977.8 300.3, 981.5 298.5 L 982.6 301.5 Q 981.1 302.4, 978.9 303.0 Q 976.6 303.5, 974.1 303.5 Q 968.0 303.5, 964.7 299.8 Q 961.4 296.0, 961.4 289.0 " fill="#00CC00"/>
<path class="atom-5" d="M 984.8 272.8 L 988.5 272.8 L 988.5 303.2 L 984.8 303.2 L 984.8 272.8 " fill="#00CC00"/>
<path class="legend" d="M 968.1 365.4 L 968.2 366.5 Q 969.1 365.3, 970.5 365.3 Q 971.0 365.3, 971.6 365.4 L 971.3 366.8 Q 970.6 366.6, 970.3 366.6 Q 969.6 366.6, 969.1 366.9 Q 968.7 367.1, 968.4 367.8 L 968.4 373.6 L 966.8 373.6 L 966.8 365.4 L 968.1 365.4 " fill="#000000"/>
<path class="legend" d="M 971.8 369.5 Q 971.8 367.5, 972.8 366.4 Q 973.8 365.3, 975.7 365.3 Q 977.5 365.3, 978.3 366.4 Q 979.1 367.4, 979.1 369.5 L 979.1 369.7 L 973.3 369.7 Q 973.4 371.1, 974.0 371.8 Q 974.6 372.6, 975.8 372.6 Q 976.4 372.6, 977.0 372.4 Q 977.6 372.3, 978.3 372.0 L 978.8 373.0 Q 978.0 373.4, 977.2 373.6 Q 976.5 373.8, 975.7 373.8 Q 973.9 373.8, 972.8 372.6 Q 971.8 371.5, 971.8 369.5 M 975.7 366.4 Q 974.7 366.4, 974.1 367.0 Q 973.6 367.5, 973.4 368.6 L 977.5 368.6 Q 977.4 367.5, 976.9 367.0 Q 976.5 366.4, 975.7 366.4 " fill="#000000"/>
<path class="legend" d="M 979.7 371.4 Q 979.7 370.1, 980.8 369.4 Q 981.8 368.7, 983.7 368.7 L 985.0 368.7 L 985.0 368.3 Q 985.0 367.3, 984.5 366.9 Q 984.1 366.4, 983.1 366.4 Q 982.4 366.4, 981.9 366.6 Q 981.4 366.7, 980.6 367.0 L 980.2 366.0 Q 981.7 365.3, 983.1 365.3 Q 984.9 365.3, 985.7 366.0 Q 986.5 366.8, 986.5 368.4 L 986.5 373.6 L 985.3 373.6 Q 985.3 373.6, 985.2 373.3 Q 985.2 373.1, 985.1 372.7 Q 983.9 373.8, 982.4 373.8 Q 981.2 373.8, 980.4 373.2 Q 979.7 372.5, 979.7 371.4 M 981.2 371.4 Q 981.2 372.0, 981.6 372.3 Q 982.0 372.6, 982.7 372.6 Q 983.3 372.6, 983.9 372.4 Q 984.5 372.0, 985.0 371.5 L 985.0 369.8 L 983.8 369.8 Q 982.5 369.8, 981.9 370.2 Q 981.2 370.6, 981.2 371.4 " fill="#000000"/>
<path class="legend" d="M 987.7 369.5 Q 987.7 367.5, 988.7 366.4 Q 989.7 365.3, 991.6 365.3 Q 993.5 365.3, 994.5 366.6 L 993.5 367.4 Q 993.1 366.9, 992.6 366.7 Q 992.2 366.4, 991.6 366.4 Q 990.5 366.4, 989.9 367.2 Q 989.2 368.0, 989.2 369.5 Q 989.2 371.0, 989.9 371.8 Q 990.5 372.6, 991.7 372.6 Q 992.4 372.6, 992.9 372.4 Q 993.3 372.3, 993.9 372.0 L 994.3 373.0 Q 993.1 373.7, 991.6 373.7 Q 989.7 373.7, 988.7 372.6 Q 987.7 371.5, 987.7 369.5 " fill="#000000"/>
<path class="legend" d="M 994.9 366.6 L 994.9 365.4 L 996.4 365.4 L 996.7 363.0 L 997.8 363.0 L 997.8 365.4 L 1000.3 365.4 L 1000.3 366.6 L 997.8 366.6 L 997.8 371.1 Q 997.8 372.5, 999.0 372.5 Q 999.5 372.5, 1000.2 372.3 L 1000.4 373.4 Q 999.6 373.7, 998.7 373.7 Q 997.7 373.7, 997.0 373.1 Q 996.3 372.4, 996.3 371.2 L 996.3 366.6 L 994.9 366.6 " fill="#000000"/>
<path class="legend" d="M 1009.0 374.4 L 1009.0 375.7 L 1000.8 375.7 L 1000.8 374.4 L 1009.0 374.4 " fill="#000000"/>
<path class="legend" d="M 1009.6 372.4 L 1012.1 372.4 L 1012.1 363.9 L 1009.4 364.7 L 1009.0 363.8 L 1012.5 362.2 L 1013.6 362.4 L 1013.6 372.4 L 1015.8 372.4 L 1015.8 373.6 L 1009.6 373.6 L 1009.6 372.4 " fill="#000000"/>
<path class="legend" d="M 1022.3 367.6 Q 1023.3 368.1, 1023.9 368.8 Q 1024.5 369.4, 1024.5 370.5 Q 1024.5 371.5, 1024.0 372.2 Q 1023.5 373.0, 1022.6 373.4 Q 1021.7 373.8, 1020.6 373.8 Q 1018.7 373.8, 1017.6 372.9 Q 1016.5 372.0, 1016.5 370.5 Q 1016.5 369.6, 1017.0 368.9 Q 1017.5 368.2, 1018.5 367.7 Q 1017.7 367.3, 1017.3 366.7 Q 1016.9 366.0, 1016.9 365.1 Q 1016.9 363.7, 1017.9 363.0 Q 1018.9 362.2, 1020.5 362.2 Q 1022.2 362.2, 1023.1 363.0 Q 1024.1 363.7, 1024.1 365.1 Q 1024.1 365.9, 1023.6 366.5 Q 1023.2 367.1, 1022.3 367.6 M 1020.5 363.4 Q 1019.6 363.4, 1019.0 363.8 Q 1018.5 364.3, 1018.5 365.1 Q 1018.5 365.7, 1018.9 366.1 Q 1019.2 366.4, 1019.7 366.7 Q 1020.2 366.9, 1021.2 367.2 Q 1021.9 366.8, 1022.2 366.2 Q 1022.5 365.7, 1022.5 365.1 Q 1022.5 364.3, 1022.0 363.8 Q 1021.5 363.4, 1020.5 363.4 M 1020.6 372.6 Q 1021.6 372.6, 1022.3 372.0 Q 1022.9 371.5, 1022.9 370.5 Q 1022.9 369.9, 1022.6 369.5 Q 1022.2 369.1, 1021.7 368.9 Q 1021.2 368.7, 1020.3 368.4 L 1019.6 368.2 Q 1018.8 368.6, 1018.5 369.2 Q 1018.1 369.8, 1018.1 370.5 Q 1018.1 371.5, 1018.8 372.0 Q 1019.5 372.6, 1020.6 372.6 " fill="#000000"/>
<path class="legend" d="M 1025.6 364.4 Q 1026.0 363.4, 1027.0 362.8 Q 1028.0 362.2, 1029.3 362.2 Q 1031.0 362.2, 1032.0 363.1 Q 1033.0 364.0, 1033.0 365.7 Q 1033.0 367.4, 1031.7 368.9 Q 1030.5 370.5, 1027.9 372.4 L 1033.2 372.4 L 1033.2 373.6 L 1025.5 373.6 L 1025.5 372.6 Q 1027.6 371.1, 1028.9 369.9 Q 1030.1 368.8, 1030.8 367.8 Q 1031.4 366.8, 1031.4 365.8 Q 1031.4 364.7, 1030.8 364.1 Q 1030.3 363.5, 1029.3 363.5 Q 1028.4 363.5, 1027.8 363.8 Q 1027.2 364.2, 1026.8 365.0 L 1025.6 364.4 " fill="#000000"/>
<path class="legend" d="M 936.4 383.8 Q 936.4 381.8, 937.4 380.7 Q 938.4 379.5, 940.3 379.5 Q 942.2 379.5, 943.2 380.9 L 942.2 381.6 Q 941.8 381.2, 941.3 380.9 Q 940.9 380.7, 940.3 380.7 Q 939.2 380.7, 938.6 381.5 Q 937.9 382.3, 937.9 383.8 Q 937.9 385.3, 938.6 386.1 Q 939.2 386.8, 940.4 386.8 Q 941.1 386.8, 941.6 386.7 Q 942.0 386.5, 942.6 386.3 L 943.0 387.3 Q 941.8 388.0, 940.3 388.0 Q 938.4 388.0, 937.4 386.9 Q 936.4 385.7, 936.4 383.8 " fill="#000000"/>
<path class="legend" d="M 943.6 383.8 Q 943.6 381.7, 944.6 380.6 Q 945.6 379.5, 947.4 379.5 Q 949.2 379.5, 950.0 380.6 Q 950.8 381.7, 950.8 383.7 L 950.8 384.0 L 945.1 384.0 Q 945.1 385.4, 945.8 386.1 Q 946.4 386.8, 947.5 386.8 Q 948.2 386.8, 948.8 386.7 Q 949.4 386.5, 950.1 386.2 L 950.5 387.2 Q 949.7 387.6, 949.0 387.8 Q 948.2 388.0, 947.5 388.0 Q 945.6 388.0, 944.6 386.9 Q 943.6 385.8, 943.6 383.8 M 947.4 380.7 Q 946.5 380.7, 945.9 381.2 Q 945.3 381.8, 945.2 382.8 L 949.3 382.8 Q 949.1 381.7, 948.7 381.2 Q 948.3 380.7, 947.4 380.7 " fill="#000000"/>
<path class="legend" d="M 955.7 379.5 Q 957.1 379.5, 957.7 380.3 Q 958.4 381.0, 958.4 382.4 L 958.4 387.9 L 956.9 387.9 L 956.9 382.6 Q 956.9 381.6, 956.6 381.2 Q 956.2 380.7, 955.4 380.7 Q 954.6 380.7, 954.0 381.1 Q 953.4 381.4, 953.0 382.0 L 953.0 387.9 L 951.5 387.9 L 951.5 379.7 L 952.7 379.7 L 952.9 380.8 Q 954.0 379.5, 955.7 379.5 " fill="#000000"/>
<path class="legend" d="M 959.7 380.8 L 959.7 379.7 L 961.2 379.7 L 961.5 377.3 L 962.6 377.3 L 962.6 379.7 L 965.1 379.7 L 965.1 380.8 L 962.6 380.8 L 962.6 385.4 Q 962.6 386.8, 963.8 386.8 Q 964.3 386.8, 965.0 386.6 L 965.3 387.6 Q 964.4 388.0, 963.5 388.0 Q 962.5 388.0, 961.8 387.3 Q 961.1 386.7, 961.1 385.4 L 961.1 380.8 L 959.7 380.8 " fill="#000000"/>
<path class="legend" d="M 973.8 388.7 L 973.8 390.0 L 965.7 390.0 L 965.7 388.7 L 973.8 388.7 " fill="#000000"/>
<path class="legend" d="M 981.3 375.7 L 981.3 387.9 L 980.1 387.9 L 979.9 386.9 Q 979.0 388.0, 977.4 388.0 Q 975.7 388.0, 974.8 387.0 Q 973.8 385.9, 973.8 383.9 Q 973.8 381.8, 974.9 380.7 Q 976.1 379.5, 978.0 379.5 Q 978.9 379.5, 979.8 379.7 L 979.8 375.7 L 981.3 375.7 M 977.5 386.8 Q 978.4 386.8, 979.0 386.4 Q 979.6 385.9, 979.8 385.1 L 979.8 380.9 Q 979.0 380.7, 978.1 380.7 Q 976.8 380.7, 976.1 381.6 Q 975.4 382.4, 975.4 383.9 Q 975.4 385.3, 975.9 386.1 Q 976.5 386.8, 977.5 386.8 " fill="#000000"/>
<path class="legend" d="M 982.6 376.6 L 984.0 376.6 L 984.0 378.0 L 982.6 378.0 L 982.6 376.6 M 982.6 379.7 L 984.0 379.7 L 984.0 387.9 L 982.6 387.9 L 982.6 379.7 " fill="#000000"/>
<path class="legend" d="M 985.9 386.2 Q 986.6 386.5, 987.1 386.6 Q 987.6 386.8, 988.2 386.8 Q 988.9 386.8, 989.3 386.5 Q 989.7 386.2, 989.7 385.6 Q 989.7 385.2, 989.5 385.0 Q 989.3 384.8, 989.0 384.6 Q 988.8 384.5, 988.1 384.3 Q 987.9 384.3, 987.2 384.0 Q 986.5 383.7, 986.1 383.2 Q 985.7 382.7, 985.7 381.9 Q 985.7 380.9, 986.5 380.2 Q 987.2 379.5, 988.7 379.5 Q 989.3 379.5, 989.9 379.7 Q 990.4 379.8, 991.1 380.0 L 990.7 381.2 Q 990.1 381.0, 989.7 380.9 Q 989.2 380.8, 988.7 380.8 Q 988.0 380.8, 987.6 381.1 Q 987.2 381.4, 987.2 381.8 Q 987.2 382.3, 987.5 382.5 Q 987.8 382.7, 988.5 383.0 Q 988.7 383.0, 988.8 383.1 L 989.2 383.2 Q 989.9 383.4, 990.3 383.7 Q 990.7 383.9, 991.0 384.4 Q 991.2 384.8, 991.2 385.6 Q 991.2 386.7, 990.4 387.4 Q 989.6 388.0, 988.2 388.0 Q 987.4 388.0, 986.8 387.9 Q 986.1 387.7, 985.4 387.4 L 985.9 386.2 " fill="#000000"/>
<path class="legend" d="M 992.1 380.8 L 992.1 379.7 L 993.7 379.7 L 993.9 377.3 L 995.0 377.3 L 995.0 379.7 L 997.5 379.7 L 997.5 380.8 L 995.0 380.8 L 995.0 385.4 Q 995.0 386.8, 996.2 386.8 Q 996.7 386.8, 997.4 386.6 L 997.7 387.6 Q 996.8 388.0, 996.0 388.0 Q 994.9 388.0, 994.2 387.3 Q 993.5 386.7, 993.5 385.4 L 993.5 380.8 L 992.1 380.8 " fill="#000000"/>
<path class="legend" d="" fill="#000000"/>
<path class="legend" d="M 1003.4 380.9 L 1010.7 380.9 L 1010.7 382.1 L 1003.4 382.1 L 1003.4 380.9 M 1003.4 384.4 L 1010.7 384.4 L 1010.7 385.5 L 1003.4 385.5 L 1003.4 384.4 " fill="#000000"/>
<path class="legend" d="" fill="#000000"/>
<path class="legend" d="M 1021.7 388.0 Q 1019.6 388.0, 1018.5 386.5 Q 1017.5 384.9, 1017.5 382.2 Q 1017.5 379.5, 1018.5 378.0 Q 1019.6 376.4, 1021.7 376.4 Q 1023.8 376.4, 1024.8 378.0 Q 1025.8 379.5, 1025.8 382.2 Q 1025.8 384.9, 1024.8 386.5 Q 1023.7 388.0, 1021.7 388.0 M 1021.7 386.7 Q 1022.9 386.7, 1023.6 385.6 Q 1024.2 384.4, 1024.2 382.2 Q 1024.2 380.0, 1023.6 378.8 Q 1022.9 377.7, 1021.7 377.7 Q 1020.5 377.7, 1019.8 378.8 Q 1019.1 380.0, 1019.1 382.2 Q 1019.1 384.4, 1019.8 385.6 Q 1020.5 386.7, 1021.7 386.7 " fill="#000000"/>
<path class="legend" d="M 1026.9 386.3 L 1028.5 386.3 L 1028.5 387.9 L 1026.9 387.9 L 1026.9 386.3 " fill="#000000"/>
<path class="legend" d="M 1035.4 377.8 L 1029.5 377.8 L 1029.5 376.6 L 1037.0 376.6 L 1037.0 377.7 L 1032.4 387.9 L 1030.9 387.9 L 1035.4 377.8 " fill="#000000"/>
<path class="legend" d="M 1043.3 381.9 Q 1044.3 382.3, 1044.9 383.0 Q 1045.5 383.7, 1045.5 384.8 Q 1045.5 385.7, 1045.0 386.5 Q 1044.5 387.2, 1043.6 387.6 Q 1042.7 388.0, 1041.5 388.0 Q 1039.7 388.0, 1038.6 387.2 Q 1037.5 386.3, 1037.5 384.8 Q 1037.5 383.9, 1038.0 383.2 Q 1038.4 382.5, 1039.4 381.9 Q 1038.7 381.5, 1038.3 380.9 Q 1037.9 380.3, 1037.9 379.3 Q 1037.9 378.0, 1038.9 377.2 Q 1039.8 376.4, 1041.5 376.4 Q 1043.1 376.4, 1044.1 377.2 Q 1045.1 378.0, 1045.1 379.3 Q 1045.1 380.2, 1044.6 380.8 Q 1044.1 381.4, 1043.3 381.9 M 1041.5 377.6 Q 1040.5 377.6, 1040.0 378.1 Q 1039.5 378.5, 1039.5 379.3 Q 1039.5 379.9, 1039.8 380.3 Q 1040.2 380.7, 1040.7 380.9 Q 1041.2 381.2, 1042.2 381.5 Q 1042.9 381.0, 1043.2 380.5 Q 1043.5 380.0, 1043.5 379.3 Q 1043.5 378.5, 1042.9 378.1 Q 1042.4 377.6, 1041.5 377.6 M 1041.5 386.8 Q 1042.6 386.8, 1043.2 386.3 Q 1043.9 385.7, 1043.9 384.8 Q 1043.9 384.2, 1043.5 383.8 Q 1043.2 383.4, 1042.7 383.2 Q 1042.2 382.9, 1041.3 382.7 L 1040.6 382.4 Q 1039.8 382.9, 1039.4 383.5 Q 1039.1 384.0, 1039.1 384.8 Q 1039.1 385.7, 1039.7 386.3 Q 1040.4 386.8, 1041.5 386.8 " fill="#000000"/>
<path class="legend" d="M 1053.8 384.0 L 1055.2 384.0 L 1055.2 385.3 L 1053.8 385.3 L 1053.8 387.9 L 1052.3 387.9 L 1052.3 385.3 L 1046.5 385.3 L 1046.5 384.3 L 1051.4 376.6 L 1053.8 376.6 L 1053.8 384.0 M 1048.3 384.0 L 1052.3 384.0 L 1052.3 377.6 L 1048.3 384.0 " fill="#000000"/>
<path class="legend" d="M 1061.4 381.9 Q 1062.5 382.2, 1063.1 383.0 Q 1063.6 383.7, 1063.6 384.8 Q 1063.6 385.7, 1063.1 386.5 Q 1062.6 387.2, 1061.8 387.6 Q 1060.9 388.0, 1059.7 388.0 Q 1058.5 388.0, 1057.6 387.6 Q 1056.7 387.2, 1056.0 386.3 L 1056.9 385.4 Q 1057.6 386.2, 1058.2 386.5 Q 1058.8 386.8, 1059.7 386.8 Q 1060.8 386.8, 1061.4 386.2 Q 1062.0 385.7, 1062.0 384.8 Q 1062.0 383.6, 1061.3 383.1 Q 1060.7 382.6, 1059.3 382.6 L 1058.5 382.6 L 1058.5 381.4 L 1059.2 381.4 Q 1060.5 381.4, 1061.1 380.9 Q 1061.8 380.3, 1061.8 379.3 Q 1061.8 378.6, 1061.2 378.2 Q 1060.7 377.7, 1059.7 377.7 Q 1058.8 377.7, 1058.2 378.0 Q 1057.6 378.4, 1057.2 379.2 L 1056.1 378.6 Q 1056.5 377.7, 1057.4 377.1 Q 1058.4 376.4, 1059.7 376.4 Q 1061.4 376.4, 1062.4 377.2 Q 1063.4 378.0, 1063.4 379.3 Q 1063.4 380.2, 1062.9 380.9 Q 1062.4 381.6, 1061.4 381.9 " fill="#000000"/>
<path class="bond-0 atom-0 atom-1" d="M 1231.8,185.6 L 1346.7,136.7" style="fill:none;fill-rule:evenodd;stroke:#000000;stroke-width:2.0px;stroke-linecap:butt;stroke-linejoin:miter;stroke-opacity:1"/>
<path class="bond-0 atom-0 atom-1" d="M 1241.5,208.6 L 1356.5,159.7" style="fill:none;fill-rule:evenodd;stroke:#000000;stroke-width:2.0px;stroke-linecap:butt;stroke-linejoin:miter;stroke-opacity:1"/>
<path class="bond-1 atom-1 atom-2" d="M 1351.6,148.2 L 1451.4,223.3" style="fill:none;fill-rule:evenodd;stroke:#000000;stroke-width:2.0px;stroke-linecap:butt;stroke-linejoin:miter;stroke-opacity:1"/>
<path class="bond-2 atom-2 atom-3" d="M 1451.4,223.3 L 1505.9,200.1" style="fill:none;fill-rule:evenodd;stroke:#000000;stroke-width:2.0px;stroke-linecap:butt;stroke-linejoin:miter;stroke-opacity:1"/>
<path class="bond-2 atom-2 atom-3" d="M 1505.9,200.1 L 1560.3,176.9" style="fill:none;fill-rule:evenodd;stroke:#A01EEF;stroke-width:2.0px;stroke-linecap:butt;stroke-linejoin:miter;stroke-opacity:1"/>
<path class="atom-3" d="M 1564.4 160.2 L 1568.2 160.2 L 1568.2 188.6 L 1564.4 188.6 L 1564.4 160.2 " fill="#A01EEF"/>
<path class="legend" d="M 1371.5 365.4 L 1371.7 366.5 Q 1372.5 365.3, 1373.9 365.3 Q 1374.4 365.3, 1375.0 365.4 L 1374.8 366.8 Q 1374.1 366.6, 1373.7 366.6 Q 1373.0 366.6, 1372.6 366.9 Q 1372.1 367.1, 1371.8 367.8 L 1371.8 373.6 L 1370.3 373.6 L 1370.3 365.4 L 1371.5 365.4 " fill="#000000"/>
<path class="legend" d="M 1375.2 369.5 Q 1375.2 367.5, 1376.2 366.4 Q 1377.2 365.3, 1379.1 365.3 Q 1380.9 365.3, 1381.7 366.4 Q 1382.5 367.4, 1382.5 369.5 L 1382.5 369.7 L 1376.8 369.7 Q 1376.8 371.1, 1377.4 371.8 Q 1378.0 372.6, 1379.2 372.6 Q 1379.9 372.6, 1380.4 372.4 Q 1381.0 372.3, 1381.8 372.0 L 1382.2 373.0 Q 1381.4 373.4, 1380.6 373.6 Q 1379.9 373.8, 1379.1 373.8 Q 1377.3 373.8, 1376.3 372.6 Q 1375.2 371.5, 1375.2 369.5 M 1379.1 366.4 Q 1378.1 366.4, 1377.6 367.0 Q 1377.0 367.5, 1376.8 368.6 L 1380.9 368.6 Q 1380.8 367.5, 1380.4 367.0 Q 1379.9 366.4, 1379.1 366.4 " fill="#000000"/>
<path class="legend" d="M 1383.1 371.4 Q 1383.1 370.1, 1384.2 369.4 Q 1385.2 368.7, 1387.2 368.7 L 1388.4 368.7 L 1388.4 368.3 Q 1388.4 367.3, 1388.0 366.9 Q 1387.5 366.4, 1386.5 366.4 Q 1385.9 366.4, 1385.3 366.6 Q 1384.8 366.7, 1384.0 367.0 L 1383.6 366.0 Q 1385.1 365.3, 1386.5 365.3 Q 1388.3 365.3, 1389.1 366.0 Q 1389.9 366.8, 1389.9 368.4 L 1389.9 373.6 L 1388.7 373.6 Q 1388.7 373.6, 1388.7 373.3 Q 1388.6 373.1, 1388.5 372.7 Q 1387.4 373.8, 1385.8 373.8 Q 1384.6 373.8, 1383.9 373.2 Q 1383.1 372.5, 1383.1 371.4 M 1384.6 371.4 Q 1384.6 372.0, 1385.0 372.3 Q 1385.4 372.6, 1386.1 372.6 Q 1386.8 372.6, 1387.4 372.4 Q 1388.0 372.0, 1388.4 371.5 L 1388.4 369.8 L 1387.3 369.8 Q 1386.0 369.8, 1385.3 370.2 Q 1384.6 370.6, 1384.6 371.4 " fill="#000000"/>
<path class="legend" d="M 1391.1 369.5 Q 1391.1 367.5, 1392.1 366.4 Q 1393.1 365.3, 1395.1 365.3 Q 1396.9 365.3, 1397.9 366.6 L 1396.9 367.4 Q 1396.5 366.9, 1396.1 366.7 Q 1395.6 366.4, 1395.1 366.4 Q 1393.9 366.4, 1393.3 367.2 Q 1392.7 368.0, 1392.7 369.5 Q 1392.7 371.0, 1393.3 371.8 Q 1394.0 372.6, 1395.2 372.6 Q 1395.8 372.6, 1396.3 372.4 Q 1396.8 372.3, 1397.3 372.0 L 1397.7 373.0 Q 1396.6 373.7, 1395.0 373.7 Q 1393.1 373.7, 1392.1 372.6 Q 1391.1 371.5, 1391.1 369.5 " fill="#000000"/>
<path class="legend" d="M 1398.3 366.6 L 1398.3 365.4 L 1399.9 365.4 L 1400.1 363.0 L 1401.2 363.0 L 1401.2 365.4 L 1403.7 365.4 L 1403.7 366.6 L 1401.2 366.6 L 1401.2 371.1 Q 1401.2 372.5, 1402.4 372.5 Q 1402.9 372.5, 1403.6 372.3 L 1403.9 373.4 Q 1403.0 373.7, 1402.2 373.7 Q 1401.1 373.7, 1400.4 373.1 Q 1399.7 372.4, 1399.7 371.2 L 1399.7 366.6 L 1398.3 366.6 " fill="#000000"/>
<path class="legend" d="M 1412.4 374.4 L 1412.4 375.7 L 1404.3 375.7 L 1404.3 374.4 L 1412.4 374.4 " fill="#000000"/>
<path class="legend" d="M 1418.2 367.6 Q 1419.2 368.1, 1419.8 368.8 Q 1420.4 369.4, 1420.4 370.5 Q 1420.4 371.5, 1419.9 372.2 Q 1419.4 373.0, 1418.5 373.4 Q 1417.7 373.8, 1416.5 373.8 Q 1414.6 373.8, 1413.5 372.9 Q 1412.4 372.0, 1412.4 370.5 Q 1412.4 369.6, 1412.9 368.9 Q 1413.4 368.2, 1414.4 367.7 Q 1413.6 367.3, 1413.2 366.7 Q 1412.8 366.0, 1412.8 365.1 Q 1412.8 363.7, 1413.8 363.0 Q 1414.8 362.2, 1416.4 362.2 Q 1418.1 362.2, 1419.0 363.0 Q 1420.0 363.7, 1420.0 365.1 Q 1420.0 365.9, 1419.6 366.5 Q 1419.1 367.1, 1418.2 367.6 M 1416.4 363.4 Q 1415.5 363.4, 1415.0 363.8 Q 1414.4 364.3, 1414.4 365.1 Q 1414.4 365.7, 1414.8 366.1 Q 1415.2 366.4, 1415.6 366.7 Q 1416.2 366.9, 1417.1 367.2 Q 1417.8 366.8, 1418.1 366.2 Q 1418.4 365.7, 1418.4 365.1 Q 1418.4 364.3, 1417.9 363.8 Q 1417.4 363.4, 1416.4 363.4 M 1416.5 372.6 Q 1417.6 372.6, 1418.2 372.0 Q 1418.8 371.5, 1418.8 370.5 Q 1418.8 369.9, 1418.5 369.5 Q 1418.2 369.1, 1417.6 368.9 Q 1417.2 368.7, 1416.3 368.4 L 1415.5 368.2 Q 1414.7 368.6, 1414.4 369.2 Q 1414.0 369.8, 1414.0 370.5 Q 1414.0 371.5, 1414.7 372.0 Q 1415.4 372.6, 1416.5 372.6 " fill="#000000"/>
<path class="legend" d="M 1425.6 373.8 Q 1423.5 373.8, 1422.5 372.2 Q 1421.4 370.7, 1421.4 368.0 Q 1421.4 365.2, 1422.5 363.7 Q 1423.5 362.2, 1425.6 362.2 Q 1427.7 362.2, 1428.7 363.7 Q 1429.7 365.2, 1429.7 368.0 Q 1429.7 370.7, 1428.7 372.2 Q 1427.7 373.8, 1425.6 373.8 M 1425.6 372.5 Q 1426.8 372.5, 1427.5 371.3 Q 1428.1 370.2, 1428.1 368.0 Q 1428.1 365.7, 1427.5 364.6 Q 1426.8 363.5, 1425.6 363.5 Q 1424.4 363.5, 1423.7 364.6 Q 1423.0 365.7, 1423.0 368.0 Q 1423.0 370.2, 1423.7 371.3 Q 1424.4 372.5, 1425.6 372.5 " fill="#000000"/>
<path class="legend" d="M 1336.6 383.8 Q 1336.6 381.8, 1337.6 380.7 Q 1338.5 379.5, 1340.5 379.5 Q 1342.4 379.5, 1343.3 380.9 L 1342.3 381.6 Q 1342.0 381.2, 1341.5 380.9 Q 1341.1 380.7, 1340.5 380.7 Q 1339.4 380.7, 1338.7 381.5 Q 1338.1 382.3, 1338.1 383.8 Q 1338.1 385.3, 1338.7 386.1 Q 1339.4 386.8, 1340.6 386.8 Q 1341.3 386.8, 1341.7 386.7 Q 1342.2 386.5, 1342.8 386.3 L 1343.2 387.3 Q 1342.0 388.0, 1340.5 388.0 Q 1338.5 388.0, 1337.6 386.9 Q 1336.6 385.7, 1336.6 383.8 " fill="#000000"/>
<path class="legend" d="M 1343.7 383.8 Q 1343.7 381.7, 1344.7 380.6 Q 1345.7 379.5, 1347.6 379.5 Q 1349.4 379.5, 1350.2 380.6 Q 1351.0 381.7, 1351.0 383.7 L 1351.0 384.0 L 1345.3 384.0 Q 1345.3 385.4, 1345.9 386.1 Q 1346.5 386.8, 1347.7 386.8 Q 1348.4 386.8, 1348.9 386.7 Q 1349.5 386.5, 1350.3 386.2 L 1350.7 387.2 Q 1349.9 387.6, 1349.1 387.8 Q 1348.4 388.0, 1347.6 388.0 Q 1345.8 388.0, 1344.8 386.9 Q 1343.7 385.8, 1343.7 383.8 M 1347.6 380.7 Q 1346.6 380.7, 1346.1 381.2 Q 1345.5 381.8, 1345.3 382.8 L 1349.4 382.8 Q 1349.3 381.7, 1348.9 381.2 Q 1348.4 380.7, 1347.6 380.7 " fill="#000000"/>
<path class="legend" d="M 1355.9 379.5 Q 1357.2 379.5, 1357.9 380.3 Q 1358.6 381.0, 1358.6 382.4 L 1358.6 387.9 L 1357.1 387.9 L 1357.1 382.6 Q 1357.1 381.6, 1356.7 381.2 Q 1356.4 380.7, 1355.5 380.7 Q 1354.8 380.7, 1354.1 381.1 Q 1353.5 381.4, 1353.1 382.0 L 1353.1 387.9 L 1351.6 387.9 L 1351.6 379.7 L 1352.9 379.7 L 1353.0 380.8 Q 1354.1 379.5, 1355.9 379.5 " fill="#000000"/>
<path class="legend" d="M 1359.8 380.8 L 1359.8 379.7 L 1361.4 379.7 L 1361.7 377.3 L 1362.8 377.3 L 1362.8 379.7 L 1365.3 379.7 L 1365.3 380.8 L 1362.8 380.8 L 1362.8 385.4 Q 1362.8 386.8, 1364.0 386.8 Q 1364.5 386.8, 1365.2 386.6 L 1365.4 387.6 Q 1364.5 388.0, 1363.7 388.0 Q 1362.6 388.0, 1362.0 387.3 Q 1361.3 386.7, 1361.3 385.4 L 1361.3 380.8 L 1359.8 380.8 " fill="#000000"/>
<path class="legend" d="M 1374.0 388.7 L 1374.0 390.0 L 1365.8 390.0 L 1365.8 388.7 L 1374.0 388.7 " fill="#000000"/>
<path class="legend" d="M 1381.5 375.7 L 1381.5 387.9 L 1380.2 387.9 L 1380.0 386.9 Q 1379.1 388.0, 1377.6 388.0 Q 1375.9 388.0, 1374.9 387.0 Q 1374.0 385.9, 1374.0 383.9 Q 1374.0 381.8, 1375.1 380.7 Q 1376.2 379.5, 1378.2 379.5 Q 1379.1 379.5, 1380.0 379.7 L 1380.0 375.7 L 1381.5 375.7 M 1377.7 386.8 Q 1378.5 386.8, 1379.1 386.4 Q 1379.7 385.9, 1380.0 385.1 L 1380.0 380.9 Q 1379.1 380.7, 1378.2 380.7 Q 1377.0 380.7, 1376.2 381.6 Q 1375.5 382.4, 1375.5 383.9 Q 1375.5 385.3, 1376.1 386.1 Q 1376.7 386.8, 1377.7 386.8 " fill="#000000"/>
<path class="legend" d="M 1382.7 376.6 L 1384.2 376.6 L 1384.2 378.0 L 1382.7 378.0 L 1382.7 376.6 M 1382.7 379.7 L 1384.2 379.7 L 1384.2 387.9 L 1382.7 387.9 L 1382.7 379.7 " fill="#000000"/>
<path class="legend" d="M 1386.1 386.2 Q 1386.8 386.5, 1387.3 386.6 Q 1387.8 386.8, 1388.4 386.8 Q 1389.1 386.8, 1389.5 386.5 Q 1389.9 386.2, 1389.9 385.6 Q 1389.9 385.2, 1389.7 385.0 Q 1389.5 384.8, 1389.2 384.6 Q 1388.9 384.5, 1388.2 384.3 Q 1388.1 384.3, 1387.4 384.0 Q 1386.6 383.7, 1386.2 383.2 Q 1385.9 382.7, 1385.9 381.9 Q 1385.9 380.9, 1386.6 380.2 Q 1387.4 379.5, 1388.9 379.5 Q 1389.5 379.5, 1390.1 379.7 Q 1390.6 379.8, 1391.2 380.0 L 1390.8 381.2 Q 1390.3 381.0, 1389.8 380.9 Q 1389.4 380.8, 1388.9 380.8 Q 1388.1 380.8, 1387.7 381.1 Q 1387.4 381.4, 1387.4 381.8 Q 1387.4 382.3, 1387.7 382.5 Q 1388.0 382.7, 1388.6 383.0 Q 1388.8 383.0, 1389.0 383.1 L 1389.3 383.2 Q 1390.0 383.4, 1390.4 383.7 Q 1390.8 383.9, 1391.1 384.4 Q 1391.4 384.8, 1391.4 385.6 Q 1391.4 386.7, 1390.6 387.4 Q 1389.7 388.0, 1388.4 388.0 Q 1387.6 388.0, 1386.9 387.9 Q 1386.3 387.7, 1385.6 387.4 L 1386.1 386.2 " fill="#000000"/>
<path class="legend" d="M 1392.3 380.8 L 1392.3 379.7 L 1393.8 379.7 L 1394.1 377.3 L 1395.2 377.3 L 1395.2 379.7 L 1397.7 379.7 L 1397.7 380.8 L 1395.2 380.8 L 1395.2 385.4 Q 1395.2 386.8, 1396.4 386.8 Q 1396.9 386.8, 1397.6 386.6 L 1397.8 387.6 Q 1397.0 388.0, 1396.1 388.0 Q 1395.1 388.0, 1394.4 387.3 Q 1393.7 386.7, 1393.7 385.4 L 1393.7 380.8 L 1392.3 380.8 " fill="#000000"/>
<path class="legend" d="" fill="#000000"/>
<path class="legend" d="M 1403.6 380.9 L 1410.9 380.9 L 1410.9 382.1 L 1403.6 382.1 L 1403.6 380.9 M 1403.6 384.4 L 1410.9 384.4 L 1410.9 385.5 L 1403.6 385.5 L 1403.6 384.4 " fill="#000000"/>
<path class="legend" d="" fill="#000000"/>
<path class="legend" d="M 1421.8 388.0 Q 1419.8 388.0, 1418.7 386.5 Q 1417.7 384.9, 1417.7 382.2 Q 1417.7 379.5, 1418.7 378.0 Q 1419.7 376.4, 1421.8 376.4 Q 1423.9 376.4, 1425.0 378.0 Q 1426.0 379.5, 1426.0 382.2 Q 1426.0 384.9, 1424.9 386.5 Q 1423.9 388.0, 1421.8 388.0 M 1421.8 386.7 Q 1423.1 386.7, 1423.7 385.6 Q 1424.4 384.4, 1424.4 382.2 Q 1424.4 380.0, 1423.7 378.8 Q 1423.1 377.7, 1421.8 377.7 Q 1420.6 377.7, 1419.9 378.8 Q 1419.3 380.0, 1419.3 382.2 Q 1419.3 384.4, 1419.9 385.6 Q 1420.6 386.7, 1421.8 386.7 " fill="#000000"/>
<path class="legend" d="M 1427.0 386.3 L 1428.6 386.3 L 1428.6 387.9 L 1427.0 387.9 L 1427.0 386.3 " fill="#000000"/>
<path class="legend" d="M 1433.5 376.4 Q 1435.5 376.4, 1436.5 377.8 Q 1437.5 379.2, 1437.5 381.9 Q 1437.5 384.9, 1436.3 386.5 Q 1435.0 388.0, 1432.6 388.0 Q 1431.9 388.0, 1431.3 387.9 Q 1430.7 387.7, 1430.1 387.4 L 1430.7 386.3 Q 1431.6 386.7, 1432.6 386.7 Q 1434.2 386.7, 1435.0 385.7 Q 1435.8 384.7, 1435.9 382.5 Q 1435.3 383.1, 1434.6 383.4 Q 1433.9 383.6, 1433.1 383.6 Q 1432.1 383.6, 1431.3 383.2 Q 1430.5 382.8, 1430.1 382.0 Q 1429.7 381.2, 1429.7 380.2 Q 1429.7 379.1, 1430.1 378.3 Q 1430.6 377.4, 1431.5 376.9 Q 1432.4 376.4, 1433.5 376.4 M 1431.3 380.2 Q 1431.3 381.2, 1431.8 381.8 Q 1432.4 382.4, 1433.4 382.4 Q 1434.1 382.4, 1434.7 382.1 Q 1435.4 381.8, 1435.9 381.3 Q 1435.8 379.4, 1435.2 378.6 Q 1434.7 377.7, 1433.5 377.7 Q 1432.8 377.7, 1432.3 378.1 Q 1431.8 378.4, 1431.5 378.9 Q 1431.3 379.5, 1431.3 380.2 " fill="#000000"/>
<path class="legend" d="M 1442.7 388.0 Q 1440.7 388.0, 1439.6 386.5 Q 1438.6 384.9, 1438.6 382.2 Q 1438.6 379.5, 1439.6 378.0 Q 1440.7 376.4, 1442.7 376.4 Q 1444.8 376.4, 1445.9 378.0 Q 1446.9 379.5, 1446.9 382.2 Q 1446.9 384.9, 1445.9 386.5 Q 1444.8 388.0, 1442.7 388.0 M 1442.7 386.7 Q 1444.0 386.7, 1444.6 385.6 Q 1445.3 384.4, 1445.3 382.2 Q 1445.3 380.0, 1444.6 378.8 Q 1444.0 377.7, 1442.7 377.7 Q 1441.5 377.7, 1440.9 378.8 Q 1440.2 380.0, 1440.2 382.2 Q 1440.2 384.4, 1440.9 385.6 Q 1441.5 386.7, 1442.7 386.7 " fill="#000000"/>
<path class="legend" d="M 1453.9 377.8 L 1447.9 377.8 L 1447.9 376.6 L 1455.5 376.6 L 1455.5 377.7 L 1450.9 387.9 L 1449.3 387.9 L 1453.9 377.8 " fill="#000000"/>
<path class="legend" d="M 1461.9 377.8 L 1455.9 377.8 L 1455.9 376.6 L 1463.4 376.6 L 1463.4 377.7 L 1458.9 387.9 L 1457.3 387.9 L 1461.9 377.8 " fill="#000000"/>
</svg>