<svg xmlns="http://www.w3.org/2000/svg" xmlns:rdkit="http://www.rdkit.org/xml" xmlns:xlink="http://www.w3.org/1999/xlink" version="1.1" baseProfile="full" xml:space="preserve" width="2000px" height="400px" viewBox="0 0 2000 400">
<!-- END OF HEADER -->
<rect style="opacity:1.0;fill:#FFFFFF;stroke:none" width="2000.0" height="400.0" x="0.0" y="0.0"> </rect>
<path class="bond-0 atom-0 atom-1" d="M 181.3,80.4 L 167.4,96.6" style="fill:none;fill-rule:evenodd;stroke:#000000;stroke-width:2.0px;stroke-linecap:butt;stroke-linejoin:miter;stroke-opacity:1"/>
<path class="bond-0 atom-0 atom-1" d="M 167.4,96.6 L 153.6,112.7" style="fill:none;fill-rule:evenodd;stroke:#FF0000;stroke-width:2.0px;stroke-linecap:butt;stroke-linejoin:miter;stroke-opacity:1"/>
<path class="bond-1 atom-1 atom-2" d="M 148.7,132.5 L 156.1,153.7" style="fill:none;fill-rule:evenodd;stroke:#FF0000;stroke-width:2.0px;stroke-linecap:butt;stroke-linejoin:miter;stroke-opacity:1"/>
<path class="bond-1 atom-1 atom-2" d="M 156.1,153.7 L 163.5,174.9" style="fill:none;fill-rule:evenodd;stroke:#000000;stroke-width:2.0px;stroke-linecap:butt;stroke-linejoin:miter;stroke-opacity:1"/>
<path class="bond-2 atom-2 atom-3" d="M 163.5,174.9 L 127.4,217.0" style="fill:none;fill-rule:evenodd;stroke:#000000;stroke-width:2.0px;stroke-linecap:butt;stroke-linejoin:miter;stroke-opacity:1"/>
<path class="bond-2 atom-2 atom-3" d="M 166.5,188.4 L 141.2,217.9" style="fill:none;fill-rule:evenodd;stroke:#000000;stroke-width:2.0px;stroke-linecap:butt;stroke-linejoin:miter;stroke-opacity:1"/>
<path class="bond-3 atom-3 atom-4" d="M 127.4,217.0 L 72.8,206.7" style="fill:none;fill-rule:evenodd;stroke:#000000;stroke-width:2.0px;stroke-linecap:butt;stroke-linejoin:miter;stroke-opacity:1"/>
<path class="bond-4 atom-3 atom-5" d="M 127.4,217.0 L 145.8,269.3" style="fill:none;fill-rule:evenodd;stroke:#000000;stroke-width:2.0px;stroke-linecap:butt;stroke-linejoin:miter;stroke-opacity:1"/>
<path class="bond-5 atom-5 atom-6" d="M 145.8,269.3 L 200.3,279.6" style="fill:none;fill-rule:evenodd;stroke:#000000;stroke-width:2.0px;stroke-linecap:butt;stroke-linejoin:miter;stroke-opacity:1"/>
<path class="bond-6 atom-6 atom-7" d="M 200.3,279.6 L 236.5,237.5" style="fill:none;fill-rule:evenodd;stroke:#000000;stroke-width:2.0px;stroke-linecap:butt;stroke-linejoin:miter;stroke-opacity:1"/>
<path class="bond-7 atom-7 atom-8" d="M 236.5,237.5 L 291.0,247.8" style="fill:none;fill-rule:evenodd;stroke:#000000;stroke-width:2.0px;stroke-linecap:butt;stroke-linejoin:miter;stroke-opacity:1"/>
<path class="bond-7 atom-7 atom-8" d="M 246.7,228.1 L 284.9,235.3" style="fill:none;fill-rule:evenodd;stroke:#000000;stroke-width:2.0px;stroke-linecap:butt;stroke-linejoin:miter;stroke-opacity:1"/>
<path class="bond-8 atom-8 atom-9" d="M 291.0,247.8 L 327.2,205.7" style="fill:none;fill-rule:evenodd;stroke:#000000;stroke-width:2.0px;stroke-linecap:butt;stroke-linejoin:miter;stroke-opacity:1"/>
<path class="bond-9 atom-9 atom-10" d="M 327.2,205.7 L 308.8,153.3" style="fill:none;fill-rule:evenodd;stroke:#000000;stroke-width:2.0px;stroke-linecap:butt;stroke-linejoin:miter;stroke-opacity:1"/>
<path class="bond-9 atom-9 atom-10" d="M 313.9,201.5 L 301.1,164.8" style="fill:none;fill-rule:evenodd;stroke:#000000;stroke-width:2.0px;stroke-linecap:butt;stroke-linejoin:miter;stroke-opacity:1"/>
<path class="bond-10 atom-10 atom-11" d="M 308.8,153.3 L 254.2,143.0" style="fill:none;fill-rule:evenodd;stroke:#000000;stroke-width:2.0px;stroke-linecap:butt;stroke-linejoin:miter;stroke-opacity:1"/>
<path class="bond-11 atom-11 atom-12" d="M 254.2,143.0 L 218.1,185.1" style="fill:none;fill-rule:evenodd;stroke:#000000;stroke-width:2.0px;stroke-linecap:butt;stroke-linejoin:miter;stroke-opacity:1"/>
<path class="bond-11 atom-11 atom-12" d="M 257.2,156.6 L 231.9,186.0" style="fill:none;fill-rule:evenodd;stroke:#000000;stroke-width:2.0px;stroke-linecap:butt;stroke-linejoin:miter;stroke-opacity:1"/>
<path class="bond-12 atom-12 atom-2" d="M 218.1,185.1 L 163.5,174.9" style="fill:none;fill-rule:evenodd;stroke:#000000;stroke-width:2.0px;stroke-linecap:butt;stroke-linejoin:miter;stroke-opacity:1"/>
<path class="bond-13 atom-12 atom-7" d="M 218.1,185.1 L 236.5,237.5" style="fill:none;fill-rule:evenodd;stroke:#000000;stroke-width:2.0px;stroke-linecap:butt;stroke-linejoin:miter;stroke-opacity:1"/>
<path class="atom-1" d="M 137.9 122.6 Q 137.9 118.8, 139.8 116.7 Q 141.7 114.6, 145.2 114.6 Q 148.6 114.6, 150.5 116.7 Q 152.4 118.8, 152.4 122.6 Q 152.4 126.4, 150.5 128.5 Q 148.6 130.7, 145.2 130.7 Q 141.7 130.7, 139.8 128.5 Q 137.9 126.4, 137.9 122.6 M 145.2 128.9 Q 147.6 128.9, 148.8 127.3 Q 150.2 125.7, 150.2 122.6 Q 150.2 119.5, 148.8 117.9 Q 147.6 116.3, 145.2 116.3 Q 142.8 116.3, 141.5 117.9 Q 140.2 119.4, 140.2 122.6 Q 140.2 125.7, 141.5 127.3 Q 142.8 128.9, 145.2 128.9 " fill="#FF0000"/>
<path class="legend" d="M 167.4 365.4 L 167.5 366.5 Q 168.4 365.3, 169.8 365.3 Q 170.3 365.3, 170.9 365.4 L 170.6 366.8 Q 169.9 366.6, 169.6 366.6 Q 168.9 366.6, 168.4 366.9 Q 168.0 367.1, 167.7 367.8 L 167.7 373.6 L 166.2 373.6 L 166.2 365.4 L 167.4 365.4 " fill="#000000"/>
<path class="legend" d="M 171.1 369.5 Q 171.1 367.5, 172.1 366.4 Q 173.1 365.3, 175.0 365.3 Q 176.8 365.3, 177.6 366.4 Q 178.4 367.4, 178.4 369.5 L 178.4 369.7 L 172.6 369.7 Q 172.7 371.1, 173.3 371.8 Q 173.9 372.6, 175.1 372.6 Q 175.7 372.6, 176.3 372.4 Q 176.9 372.3, 177.6 372.0 L 178.1 373.0 Q 177.3 373.4, 176.5 373.6 Q 175.8 373.8, 175.0 373.8 Q 173.2 373.8, 172.1 372.6 Q 171.1 371.5, 171.1 369.5 M 175.0 366.4 Q 174.0 366.4, 173.4 367.0 Q 172.9 367.5, 172.7 368.6 L 176.8 368.6 Q 176.7 367.5, 176.2 367.0 Q 175.8 366.4, 175.0 366.4 " fill="#000000"/>
<path class="legend" d="M 179.0 371.4 Q 179.0 370.1, 180.1 369.4 Q 181.1 368.7, 183.0 368.7 L 184.3 368.7 L 184.3 368.3 Q 184.3 367.3, 183.8 366.9 Q 183.4 366.4, 182.4 366.4 Q 181.7 366.4, 181.2 366.6 Q 180.7 366.7, 179.9 367.0 L 179.5 366.0 Q 181.0 365.3, 182.4 365.3 Q 184.2 365.3, 185.0 366.0 Q 185.8 366.8, 185.8 368.4 L 185.8 373.6 L 184.6 373.6 Q 184.6 373.6, 184.5 373.3 Q 184.5 373.1, 184.4 372.7 Q 183.2 373.8, 181.7 373.8 Q 180.5 373.8, 179.7 373.2 Q 179.0 372.5, 179.0 371.4 M 180.5 371.4 Q 180.5 372.0, 180.9 372.3 Q 181.3 372.6, 182.0 372.6 Q 182.6 372.6, 183.2 372.4 Q 183.8 372.0, 184.3 371.5 L 184.3 369.8 L 183.1 369.8 Q 181.8 369.8, 181.2 370.2 Q 180.5 370.6, 180.5 371.4 " fill="#000000"/>
<path class="legend" d="M 187.0 369.5 Q 187.0 367.5, 188.0 366.4 Q 189.0 365.3, 190.9 365.3 Q 192.8 365.3, 193.8 366.6 L 192.8 367.4 Q 192.4 366.9, 191.9 366.7 Q 191.5 366.4, 190.9 366.4 Q 189.8 366.4, 189.2 367.2 Q 188.5 368.0, 188.5 369.5 Q 188.5 371.0, 189.2 371.8 Q 189.8 372.6, 191.0 372.6 Q 191.7 372.6, 192.2 372.4 Q 192.6 372.3, 193.2 372.0 L 193.6 373.0 Q 192.4 373.7, 190.9 373.7 Q 189.0 373.7, 188.0 372.6 Q 187.0 371.5, 187.0 369.5 " fill="#000000"/>
<path class="legend" d="M 194.2 366.6 L 194.2 365.4 L 195.7 365.4 L 196.0 363.0 L 197.1 363.0 L 197.1 365.4 L 199.6 365.4 L 199.6 366.6 L 197.1 366.6 L 197.1 371.1 Q 197.1 372.5, 198.3 372.5 Q 198.8 372.5, 199.5 372.3 L 199.8 373.4 Q 198.9 373.7, 198.0 373.7 Q 197.0 373.7, 196.3 373.1 Q 195.6 372.4, 195.6 371.2 L 195.6 366.6 L 194.2 366.6 " fill="#000000"/>
<path class="legend" d="M 208.3 374.4 L 208.3 375.7 L 200.2 375.7 L 200.2 374.4 L 208.3 374.4 " fill="#000000"/>
<path class="legend" d="M 208.3 364.4 Q 208.8 363.4, 209.8 362.8 Q 210.7 362.2, 212.1 362.2 Q 213.8 362.2, 214.8 363.1 Q 215.8 364.0, 215.8 365.7 Q 215.8 367.4, 214.5 368.9 Q 213.3 370.5, 210.7 372.4 L 215.9 372.4 L 215.9 373.6 L 208.3 373.6 L 208.3 372.6 Q 210.4 371.1, 211.7 369.9 Q 212.9 368.8, 213.5 367.8 Q 214.2 366.8, 214.2 365.8 Q 214.2 364.7, 213.6 364.1 Q 213.1 363.5, 212.1 363.5 Q 211.2 363.5, 210.6 363.8 Q 210.0 364.2, 209.6 365.0 L 208.3 364.4 " fill="#000000"/>
<path class="legend" d="M 220.7 362.2 Q 222.7 362.2, 223.7 363.6 Q 224.8 364.9, 224.8 367.6 Q 224.8 370.6, 223.5 372.2 Q 222.2 373.8, 219.8 373.8 Q 219.1 373.8, 218.5 373.6 Q 217.9 373.4, 217.4 373.1 L 218.0 372.0 Q 218.8 372.5, 219.8 372.5 Q 221.4 372.5, 222.2 371.5 Q 223.0 370.4, 223.1 368.3 Q 222.6 368.8, 221.8 369.1 Q 221.1 369.4, 220.3 369.4 Q 219.3 369.4, 218.6 368.9 Q 217.8 368.5, 217.3 367.7 Q 216.9 366.9, 216.9 366.0 Q 216.9 364.8, 217.4 364.0 Q 217.9 363.1, 218.7 362.7 Q 219.6 362.2, 220.7 362.2 M 218.5 365.9 Q 218.5 366.9, 219.1 367.5 Q 219.6 368.1, 220.6 368.1 Q 221.3 368.1, 222.0 367.8 Q 222.7 367.5, 223.1 367.1 Q 223.1 365.2, 222.5 364.3 Q 221.9 363.5, 220.7 363.5 Q 220.1 363.5, 219.6 363.8 Q 219.1 364.1, 218.8 364.7 Q 218.5 365.2, 218.5 365.9 " fill="#000000"/>
<path class="legend" d="M 231.6 367.6 Q 232.7 368.1, 233.3 368.8 Q 233.8 369.4, 233.8 370.5 Q 233.8 371.5, 233.4 372.2 Q 232.9 373.0, 232.0 373.4 Q 231.1 373.8, 229.9 373.8 Q 228.0 373.8, 226.9 372.9 Q 225.8 372.0, 225.8 370.5 Q 225.8 369.6, 226.3 368.9 Q 226.8 368.2, 227.8 367.7 Q 227.1 367.3, 226.7 366.7 Q 226.3 366.0, 226.3 365.1 Q 226.3 363.7, 227.2 363.0 Q 228.2 362.2, 229.8 362.2 Q 231.5 362.2, 232.5 363.0 Q 233.4 363.7, 233.4 365.1 Q 233.4 365.9, 233.0 366.5 Q 232.5 367.1, 231.6 367.6 M 229.8 363.4 Q 228.9 363.4, 228.4 363.8 Q 227.9 364.3, 227.9 365.1 Q 227.9 365.7, 228.2 366.1 Q 228.6 366.4, 229.1 366.7 Q 229.6 366.9, 230.6 367.2 Q 231.2 366.8, 231.5 366.2 Q 231.8 365.7, 231.8 365.1 Q 231.8 364.3, 231.3 363.8 Q 230.8 363.4, 229.8 363.4 M 229.9 372.6 Q 231.0 372.6, 231.6 372.0 Q 232.2 371.5, 232.2 370.5 Q 232.2 369.9, 231.9 369.5 Q 231.6 369.1, 231.1 368.9 Q 230.6 368.7, 229.7 368.4 L 229.0 368.2 Q 228.2 368.6, 227.8 369.2 Q 227.4 369.8, 227.4 370.5 Q 227.4 371.5, 228.1 372.0 Q 228.8 372.6, 229.9 372.6 " fill="#000000"/>
<path class="legend" d="M 136.6 383.8 Q 136.6 381.8, 137.6 380.7 Q 138.6 379.5, 140.6 379.5 Q 142.4 379.5, 143.4 380.9 L 142.4 381.6 Q 142.0 381.2, 141.6 380.9 Q 141.1 380.7, 140.6 380.7 Q 139.4 380.7, 138.8 381.5 Q 138.2 382.3, 138.2 383.8 Q 138.2 385.3, 138.8 386.1 Q 139.5 386.8, 140.7 386.8 Q 141.3 386.8, 141.8 386.7 Q 142.3 386.5, 142.8 386.3 L 143.3 387.3 Q 142.1 388.0, 140.6 388.0 Q 138.6 388.0, 137.6 386.9 Q 136.6 385.7, 136.6 383.8 " fill="#000000"/>
<path class="legend" d="M 143.8 383.8 Q 143.8 381.7, 144.8 380.6 Q 145.8 379.5, 147.7 379.5 Q 149.5 379.5, 150.3 380.6 Q 151.1 381.7, 151.1 383.7 L 151.1 384.0 L 145.3 384.0 Q 145.4 385.4, 146.0 386.1 Q 146.6 386.8, 147.8 386.8 Q 148.4 386.8, 149.0 386.7 Q 149.6 386.5, 150.3 386.2 L 150.8 387.2 Q 149.9 387.6, 149.2 387.8 Q 148.5 388.0, 147.7 388.0 Q 145.9 388.0, 144.8 386.9 Q 143.8 385.8, 143.8 383.8 M 147.7 380.7 Q 146.7 380.7, 146.1 381.2 Q 145.6 381.8, 145.4 382.8 L 149.5 382.8 Q 149.4 381.7, 148.9 381.2 Q 148.5 380.7, 147.7 380.7 " fill="#000000"/>
<path class="legend" d="M 156.0 379.5 Q 157.3 379.5, 158.0 380.3 Q 158.7 381.0, 158.7 382.4 L 158.7 387.9 L 157.2 387.9 L 157.2 382.6 Q 157.2 381.6, 156.8 381.2 Q 156.4 380.7, 155.6 380.7 Q 154.8 380.7, 154.2 381.1 Q 153.6 381.4, 153.2 382.0 L 153.2 387.9 L 151.7 387.9 L 151.7 379.7 L 152.9 379.7 L 153.1 380.8 Q 154.2 379.5, 156.0 379.5 " fill="#000000"/>
<path class="legend" d="M 159.9 380.8 L 159.9 379.7 L 161.5 379.7 L 161.7 377.3 L 162.9 377.3 L 162.9 379.7 L 165.4 379.7 L 165.4 380.8 L 162.9 380.8 L 162.9 385.4 Q 162.9 386.8, 164.1 386.8 Q 164.5 386.8, 165.2 386.6 L 165.5 387.6 Q 164.6 388.0, 163.8 388.0 Q 162.7 388.0, 162.0 387.3 Q 161.4 386.7, 161.4 385.4 L 161.4 380.8 L 159.9 380.8 " fill="#000000"/>
<path class="legend" d="M 174.1 388.7 L 174.1 390.0 L 165.9 390.0 L 165.9 388.7 L 174.1 388.7 " fill="#000000"/>
<path class="legend" d="M 181.5 375.7 L 181.5 387.9 L 180.3 387.9 L 180.1 386.9 Q 179.2 388.0, 177.7 388.0 Q 176.0 388.0, 175.0 387.0 Q 174.1 385.9, 174.1 383.9 Q 174.1 381.8, 175.2 380.7 Q 176.3 379.5, 178.3 379.5 Q 179.1 379.5, 180.0 379.7 L 180.0 375.7 L 181.5 375.7 M 177.8 386.8 Q 178.6 386.8, 179.2 386.4 Q 179.8 385.9, 180.0 385.1 L 180.0 380.9 Q 179.2 380.7, 178.3 380.7 Q 177.0 380.7, 176.3 381.6 Q 175.6 382.4, 175.6 383.9 Q 175.6 385.3, 176.2 386.1 Q 176.7 386.8, 177.8 386.8 " fill="#000000"/>
<path class="legend" d="M 182.8 376.6 L 184.3 376.6 L 184.3 378.0 L 182.8 378.0 L 182.8 376.6 M 182.8 379.7 L 184.3 379.7 L 184.3 387.9 L 182.8 387.9 L 182.8 379.7 " fill="#000000"/>
<path class="legend" d="M 186.1 386.2 Q 186.8 386.5, 187.4 386.6 Q 187.9 386.8, 188.4 386.8 Q 189.2 386.8, 189.6 386.5 Q 190.0 386.2, 190.0 385.6 Q 190.0 385.2, 189.8 385.0 Q 189.5 384.8, 189.3 384.6 Q 189.0 384.5, 188.3 384.3 Q 188.2 384.3, 187.5 384.0 Q 186.7 383.7, 186.3 383.2 Q 185.9 382.7, 185.9 381.9 Q 185.9 380.9, 186.7 380.2 Q 187.5 379.5, 189.0 379.5 Q 189.6 379.5, 190.1 379.7 Q 190.7 379.8, 191.3 380.0 L 190.9 381.2 Q 190.4 381.0, 189.9 380.9 Q 189.5 380.8, 189.0 380.8 Q 188.2 380.8, 187.8 381.1 Q 187.4 381.4, 187.4 381.8 Q 187.4 382.3, 187.7 382.5 Q 188.0 382.7, 188.7 383.0 Q 188.9 383.0, 189.0 383.1 L 189.4 383.2 Q 190.1 383.4, 190.5 383.7 Q 190.9 383.9, 191.2 384.4 Q 191.5 384.8, 191.5 385.6 Q 191.5 386.7, 190.6 387.4 Q 189.8 388.0, 188.5 388.0 Q 187.7 388.0, 187.0 387.9 Q 186.3 387.7, 185.7 387.4 L 186.1 386.2 " fill="#000000"/>
<path class="legend" d="M 192.3 380.8 L 192.3 379.7 L 193.9 379.7 L 194.2 377.3 L 195.3 377.3 L 195.3 379.7 L 197.8 379.7 L 197.8 380.8 L 195.3 380.8 L 195.3 385.4 Q 195.3 386.8, 196.5 386.8 Q 197.0 386.8, 197.7 386.6 L 197.9 387.6 Q 197.0 388.0, 196.2 388.0 Q 195.1 388.0, 194.4 387.3 Q 193.8 386.7, 193.8 385.4 L 193.8 380.8 L 192.3 380.8 " fill="#000000"/>
<path class="legend" d="" fill="#000000"/>
<path class="legend" d="M 203.6 380.9 L 211.0 380.9 L 211.0 382.1 L 203.6 382.1 L 203.6 380.9 M 203.6 384.4 L 211.0 384.4 L 211.0 385.5 L 203.6 385.5 L 203.6 384.4 " fill="#000000"/>
<path class="legend" d="" fill="#000000"/>
<path class="legend" d="M 221.9 388.0 Q 219.8 388.0, 218.8 386.5 Q 217.8 384.9, 217.8 382.2 Q 217.8 379.5, 218.8 378.0 Q 219.8 376.4, 221.9 376.4 Q 224.0 376.4, 225.0 378.0 Q 226.1 379.5, 226.1 382.2 Q 226.1 384.9, 225.0 386.5 Q 224.0 388.0, 221.9 388.0 M 221.9 386.7 Q 223.1 386.7, 223.8 385.6 Q 224.5 384.4, 224.5 382.2 Q 224.5 380.0, 223.8 378.8 Q 223.1 377.7, 221.9 377.7 Q 220.7 377.7, 220.0 378.8 Q 219.4 380.0, 219.4 382.2 Q 219.4 384.4, 220.0 385.6 Q 220.7 386.7, 221.9 386.7 " fill="#000000"/>
<path class="legend" d="M 227.1 386.3 L 228.7 386.3 L 228.7 387.9 L 227.1 387.9 L 227.1 386.3 " fill="#000000"/>
<path class="legend" d="M 233.5 376.4 Q 235.6 376.4, 236.6 377.8 Q 237.6 379.2, 237.6 381.9 Q 237.6 384.9, 236.3 386.5 Q 235.1 388.0, 232.7 388.0 Q 232.0 388.0, 231.3 387.9 Q 230.8 387.7, 230.2 387.4 L 230.8 386.3 Q 231.6 386.7, 232.6 386.7 Q 234.2 386.7, 235.1 385.7 Q 235.9 384.7, 236.0 382.5 Q 235.4 383.1, 234.7 383.4 Q 233.9 383.6, 233.2 383.6 Q 232.2 383.6, 231.4 383.2 Q 230.6 382.8, 230.2 382.0 Q 229.7 381.2, 229.7 380.2 Q 229.7 379.1, 230.2 378.3 Q 230.7 377.4, 231.6 376.9 Q 232.4 376.4, 233.5 376.4 M 231.3 380.2 Q 231.3 381.2, 231.9 381.8 Q 232.5 382.4, 233.4 382.4 Q 234.1 382.4, 234.8 382.1 Q 235.5 381.8, 236.0 381.3 Q 235.9 379.4, 235.3 378.6 Q 234.7 377.7, 233.5 377.7 Q 232.9 377.7, 232.4 378.1 Q 231.9 378.4, 231.6 378.9 Q 231.3 379.5, 231.3 380.2 " fill="#000000"/>
<path class="legend" d="M 242.8 388.0 Q 240.7 388.0, 239.7 386.5 Q 238.7 384.9, 238.7 382.2 Q 238.7 379.5, 239.7 378.0 Q 240.7 376.4, 242.8 376.4 Q 244.9 376.4, 245.9 378.0 Q 247.0 379.5, 247.0 382.2 Q 247.0 384.9, 245.9 386.5 Q 244.9 388.0, 242.8 388.0 M 242.8 386.7 Q 244.1 386.7, 244.7 385.6 Q 245.4 384.4, 245.4 382.2 Q 245.4 380.0, 244.7 378.8 Q 244.1 377.7, 242.8 377.7 Q 241.6 377.7, 240.9 378.8 Q 240.3 380.0, 240.3 382.2 Q 240.3 384.4, 240.9 385.6 Q 241.6 386.7, 242.8 386.7 " fill="#000000"/>
<path class="legend" d="M 248.6 386.6 L 251.1 386.6 L 251.1 378.1 L 248.4 379.0 L 248.0 378.0 L 251.5 376.5 L 252.6 376.7 L 252.6 386.6 L 254.8 386.6 L 254.8 387.9 L 248.6 387.9 L 248.6 386.6 " fill="#000000"/>
<path class="legend" d="M 259.9 380.8 Q 260.9 380.8, 261.7 381.2 Q 262.5 381.7, 262.9 382.5 Q 263.4 383.2, 263.4 384.2 Q 263.4 385.3, 262.9 386.2 Q 262.4 387.1, 261.5 387.5 Q 260.7 388.0, 259.6 388.0 Q 257.5 388.0, 256.5 386.7 Q 255.5 385.3, 255.5 382.6 Q 255.5 379.6, 256.8 378.0 Q 258.0 376.4, 260.4 376.4 Q 261.1 376.4, 261.7 376.6 Q 262.3 376.8, 262.9 377.1 L 262.3 378.2 Q 261.5 377.7, 260.5 377.7 Q 258.9 377.7, 258.0 378.8 Q 257.2 379.8, 257.1 381.9 Q 257.7 381.4, 258.4 381.1 Q 259.2 380.8, 259.9 380.8 M 259.6 386.7 Q 260.2 386.7, 260.7 386.4 Q 261.2 386.1, 261.5 385.5 Q 261.8 384.9, 261.8 384.3 Q 261.8 383.2, 261.2 382.7 Q 260.6 382.1, 259.7 382.1 Q 259.0 382.1, 258.3 382.4 Q 257.6 382.7, 257.1 383.1 Q 257.2 385.0, 257.8 385.9 Q 258.4 386.7, 259.6 386.7 " fill="#000000"/>
<path class="bond-0 atom-0 atom-1" d="M 473.1,181.5 L 526.8,167.3" style="fill:none;fill-rule:evenodd;stroke:#000000;stroke-width:2.0px;stroke-linecap:butt;stroke-linejoin:miter;stroke-opacity:1"/>
<path class="bond-1 atom-1 atom-2" d="M 526.8,167.3 L 565.9,206.8" style="fill:none;fill-rule:evenodd;stroke:#000000;stroke-width:2.0px;stroke-linecap:butt;stroke-linejoin:miter;stroke-opacity:1"/>
<path class="bond-1 atom-1 atom-2" d="M 540.5,165.4 L 567.9,193.0" style="fill:none;fill-rule:evenodd;stroke:#000000;stroke-width:2.0px;stroke-linecap:butt;stroke-linejoin:miter;stroke-opacity:1"/>
<path class="bond-2 atom-2 atom-3" d="M 565.9,206.8 L 551.3,260.3" style="fill:none;fill-rule:evenodd;stroke:#000000;stroke-width:2.0px;stroke-linecap:butt;stroke-linejoin:miter;stroke-opacity:1"/>
<path class="bond-3 atom-2 atom-4" d="M 565.9,206.8 L 619.5,192.7" style="fill:none;fill-rule:evenodd;stroke:#000000;stroke-width:2.0px;stroke-linecap:butt;stroke-linejoin:miter;stroke-opacity:1"/>
<path class="bond-4 atom-4 atom-5" d="M 619.5,192.7 L 658.6,232.1" style="fill:none;fill-rule:evenodd;stroke:#000000;stroke-width:2.0px;stroke-linecap:butt;stroke-linejoin:miter;stroke-opacity:1"/>
<path class="bond-4 atom-4 atom-5" d="M 633.3,190.8 L 660.6,218.3" style="fill:none;fill-rule:evenodd;stroke:#000000;stroke-width:2.0px;stroke-linecap:butt;stroke-linejoin:miter;stroke-opacity:1"/>
<path class="bond-5 atom-5 atom-6" d="M 658.6,232.1 L 712.3,218.0" style="fill:none;fill-rule:evenodd;stroke:#000000;stroke-width:2.0px;stroke-linecap:butt;stroke-linejoin:miter;stroke-opacity:1"/>
<path class="bond-6 atom-6 atom-7" d="M 712.3,218.0 L 726.9,164.4" style="fill:none;fill-rule:evenodd;stroke:#000000;stroke-width:2.0px;stroke-linecap:butt;stroke-linejoin:miter;stroke-opacity:1"/>
<path class="bond-6 atom-6 atom-7" d="M 703.7,207.0 L 714.0,169.5" style="fill:none;fill-rule:evenodd;stroke:#000000;stroke-width:2.0px;stroke-linecap:butt;stroke-linejoin:miter;stroke-opacity:1"/>
<path class="bond-7 atom-7 atom-8" d="M 726.9,164.4 L 687.8,125.0" style="fill:none;fill-rule:evenodd;stroke:#000000;stroke-width:2.0px;stroke-linecap:butt;stroke-linejoin:miter;stroke-opacity:1"/>
<path class="bond-8 atom-8 atom-9" d="M 687.8,125.0 L 634.1,139.1" style="fill:none;fill-rule:evenodd;stroke:#000000;stroke-width:2.0px;stroke-linecap:butt;stroke-linejoin:miter;stroke-opacity:1"/>
<path class="bond-8 atom-8 atom-9" d="M 682.6,137.8 L 645.0,147.7" style="fill:none;fill-rule:evenodd;stroke:#000000;stroke-width:2.0px;stroke-linecap:butt;stroke-linejoin:miter;stroke-opacity:1"/>
<path class="bond-9 atom-9 atom-10" d="M 634.1,139.1 L 595.1,99.7" style="fill:none;fill-rule:evenodd;stroke:#000000;stroke-width:2.0px;stroke-linecap:butt;stroke-linejoin:miter;stroke-opacity:1"/>
<path class="bond-10 atom-10 atom-11" d="M 595.1,99.7 L 541.4,113.8" style="fill:none;fill-rule:evenodd;stroke:#000000;stroke-width:2.0px;stroke-linecap:butt;stroke-linejoin:miter;stroke-opacity:1"/>
<path class="bond-11 atom-11 atom-1" d="M 541.4,113.8 L 526.8,167.3" style="fill:none;fill-rule:evenodd;stroke:#000000;stroke-width:2.0px;stroke-linecap:butt;stroke-linejoin:miter;stroke-opacity:1"/>
<path class="bond-12 atom-9 atom-4" d="M 634.1,139.1 L 619.5,192.7" style="fill:none;fill-rule:evenodd;stroke:#000000;stroke-width:2.0px;stroke-linecap:butt;stroke-linejoin:miter;stroke-opacity:1"/>
<path class="legend" d="M 567.5 365.4 L 567.7 366.5 Q 568.6 365.3, 570.0 365.3 Q 570.4 365.3, 571.0 365.4 L 570.8 366.8 Q 570.1 366.6, 569.7 366.6 Q 569.1 366.6, 568.6 366.9 Q 568.2 367.1, 567.8 367.8 L 567.8 373.6 L 566.3 373.6 L 566.3 365.4 L 567.5 365.4 " fill="#000000"/>
<path class="legend" d="M 571.3 369.5 Q 571.3 367.5, 572.3 366.4 Q 573.3 365.3, 575.1 365.3 Q 576.9 365.3, 577.7 366.4 Q 578.6 367.4, 578.6 369.5 L 578.6 369.7 L 572.8 369.7 Q 572.8 371.1, 573.5 371.8 Q 574.1 372.6, 575.3 372.6 Q 575.9 372.6, 576.5 372.4 Q 577.1 372.3, 577.8 372.0 L 578.2 373.0 Q 577.4 373.4, 576.7 373.6 Q 576.0 373.8, 575.2 373.8 Q 573.3 373.8, 572.3 372.6 Q 571.3 371.5, 571.3 369.5 M 575.1 366.4 Q 574.2 366.4, 573.6 367.0 Q 573.1 367.5, 572.9 368.6 L 577.0 368.6 Q 576.9 367.5, 576.4 367.0 Q 576.0 366.4, 575.1 366.4 " fill="#000000"/>
<path class="legend" d="M 579.2 371.4 Q 579.2 370.1, 580.2 369.4 Q 581.3 368.7, 583.2 368.7 L 584.4 368.7 L 584.4 368.3 Q 584.4 367.3, 584.0 366.9 Q 583.6 366.4, 582.6 366.4 Q 581.9 366.4, 581.4 366.6 Q 580.9 366.7, 580.1 367.0 L 579.6 366.0 Q 581.1 365.3, 582.6 365.3 Q 584.3 365.3, 585.1 366.0 Q 585.9 366.8, 585.9 368.4 L 585.9 373.6 L 584.8 373.6 Q 584.8 373.6, 584.7 373.3 Q 584.7 373.1, 584.6 372.7 Q 583.4 373.8, 581.9 373.8 Q 580.6 373.8, 579.9 373.2 Q 579.2 372.5, 579.2 371.4 M 580.7 371.4 Q 580.7 372.0, 581.1 372.3 Q 581.4 372.6, 582.2 372.6 Q 582.8 372.6, 583.4 372.4 Q 584.0 372.0, 584.4 371.5 L 584.4 369.8 L 583.3 369.8 Q 582.0 369.8, 581.3 370.2 Q 580.7 370.6, 580.7 371.4 " fill="#000000"/>
<path class="legend" d="M 587.2 369.5 Q 587.2 367.5, 588.2 366.4 Q 589.2 365.3, 591.1 365.3 Q 593.0 365.3, 594.0 366.6 L 592.9 367.4 Q 592.6 366.9, 592.1 366.7 Q 591.7 366.4, 591.1 366.4 Q 590.0 366.4, 589.3 367.2 Q 588.7 368.0, 588.7 369.5 Q 588.7 371.0, 589.3 371.8 Q 590.0 372.6, 591.2 372.6 Q 591.9 372.6, 592.3 372.4 Q 592.8 372.3, 593.4 372.0 L 593.8 373.0 Q 592.6 373.7, 591.1 373.7 Q 589.2 373.7, 588.2 372.6 Q 587.2 371.5, 587.2 369.5 " fill="#000000"/>
<path class="legend" d="M 594.3 366.6 L 594.3 365.4 L 595.9 365.4 L 596.2 363.0 L 597.3 363.0 L 597.3 365.4 L 599.8 365.4 L 599.8 366.6 L 597.3 366.6 L 597.3 371.1 Q 597.3 372.5, 598.5 372.5 Q 599.0 372.5, 599.7 372.3 L 599.9 373.4 Q 599.0 373.7, 598.2 373.7 Q 597.1 373.7, 596.4 373.1 Q 595.8 372.4, 595.8 371.2 L 595.8 366.6 L 594.3 366.6 " fill="#000000"/>
<path class="legend" d="M 608.5 374.4 L 608.5 375.7 L 600.3 375.7 L 600.3 374.4 L 608.5 374.4 " fill="#000000"/>
<path class="legend" d="M 608.5 364.4 Q 608.9 363.4, 609.9 362.8 Q 610.9 362.2, 612.3 362.2 Q 614.0 362.2, 615.0 363.1 Q 615.9 364.0, 615.9 365.7 Q 615.9 367.4, 614.7 368.9 Q 613.4 370.5, 610.9 372.4 L 616.1 372.4 L 616.1 373.6 L 608.5 373.6 L 608.5 372.6 Q 610.6 371.1, 611.8 369.9 Q 613.1 368.8, 613.7 367.8 Q 614.3 366.8, 614.3 365.8 Q 614.3 364.7, 613.8 364.1 Q 613.2 363.5, 612.3 363.5 Q 611.4 363.5, 610.8 363.8 Q 610.2 364.2, 609.7 365.0 L 608.5 364.4 " fill="#000000"/>
<path class="legend" d="M 620.9 362.2 Q 622.9 362.2, 623.9 363.6 Q 624.9 364.9, 624.9 367.6 Q 624.9 370.6, 623.7 372.2 Q 622.4 373.8, 620.0 373.8 Q 619.3 373.8, 618.7 373.6 Q 618.1 373.4, 617.5 373.1 L 618.1 372.0 Q 619.0 372.5, 620.0 372.5 Q 621.6 372.5, 622.4 371.5 Q 623.2 370.4, 623.3 368.3 Q 622.7 368.8, 622.0 369.1 Q 621.3 369.4, 620.5 369.4 Q 619.5 369.4, 618.7 368.9 Q 617.9 368.5, 617.5 367.7 Q 617.1 366.9, 617.1 366.0 Q 617.1 364.8, 617.6 364.0 Q 618.0 363.1, 618.9 362.7 Q 619.8 362.2, 620.9 362.2 M 618.7 365.9 Q 618.7 366.9, 619.2 367.5 Q 619.8 368.1, 620.8 368.1 Q 621.5 368.1, 622.1 367.8 Q 622.8 367.5, 623.3 367.1 Q 623.2 365.2, 622.7 364.3 Q 622.1 363.5, 620.9 363.5 Q 620.3 363.5, 619.7 363.8 Q 619.2 364.1, 619.0 364.7 Q 618.7 365.2, 618.7 365.9 " fill="#000000"/>
<path class="legend" d="M 630.1 366.5 Q 631.1 366.5, 631.9 367.0 Q 632.8 367.4, 633.2 368.2 Q 633.7 369.0, 633.7 370.0 Q 633.7 371.2, 633.1 372.1 Q 632.5 372.9, 631.6 373.3 Q 630.7 373.8, 629.6 373.8 Q 628.6 373.8, 627.6 373.4 Q 626.7 373.0, 626.0 372.3 L 627.0 371.3 Q 627.5 371.8, 628.2 372.2 Q 628.9 372.5, 629.7 372.5 Q 630.7 372.5, 631.4 371.8 Q 632.1 371.2, 632.1 370.1 Q 632.1 368.9, 631.4 368.3 Q 630.7 367.7, 629.6 367.7 Q 628.6 367.7, 627.5 368.2 L 626.6 367.8 L 627.2 362.3 L 633.0 362.3 L 632.8 363.6 L 628.5 363.6 L 628.1 366.9 Q 629.1 366.5, 630.1 366.5 " fill="#000000"/>
<path class="legend" d="M 536.2 383.8 Q 536.2 381.8, 537.2 380.7 Q 538.2 379.5, 540.1 379.5 Q 542.0 379.5, 543.0 380.9 L 542.0 381.6 Q 541.6 381.2, 541.1 380.9 Q 540.7 380.7, 540.1 380.7 Q 539.0 380.7, 538.3 381.5 Q 537.7 382.3, 537.7 383.8 Q 537.7 385.3, 538.4 386.1 Q 539.0 386.8, 540.2 386.8 Q 540.9 386.8, 541.3 386.7 Q 541.8 386.5, 542.4 386.3 L 542.8 387.3 Q 541.6 388.0, 540.1 388.0 Q 538.2 388.0, 537.2 386.9 Q 536.2 385.7, 536.2 383.8 " fill="#000000"/>
<path class="legend" d="M 543.3 383.8 Q 543.3 381.7, 544.4 380.6 Q 545.4 379.5, 547.2 379.5 Q 549.0 379.5, 549.8 380.6 Q 550.6 381.7, 550.6 383.7 L 550.6 384.0 L 544.9 384.0 Q 544.9 385.4, 545.5 386.1 Q 546.2 386.8, 547.3 386.8 Q 548.0 386.8, 548.6 386.7 Q 549.2 386.5, 549.9 386.2 L 550.3 387.2 Q 549.5 387.6, 548.8 387.8 Q 548.0 388.0, 547.3 388.0 Q 545.4 388.0, 544.4 386.9 Q 543.3 385.8, 543.3 383.8 M 547.2 380.7 Q 546.3 380.7, 545.7 381.2 Q 545.1 381.8, 544.9 382.8 L 549.0 382.8 Q 548.9 381.7, 548.5 381.2 Q 548.0 380.7, 547.2 380.7 " fill="#000000"/>
<path class="legend" d="M 555.5 379.5 Q 556.8 379.5, 557.5 380.3 Q 558.2 381.0, 558.2 382.4 L 558.2 387.9 L 556.7 387.9 L 556.7 382.6 Q 556.7 381.6, 556.3 381.2 Q 556.0 380.7, 555.1 380.7 Q 554.4 380.7, 553.8 381.1 Q 553.1 381.4, 552.7 382.0 L 552.7 387.9 L 551.2 387.9 L 551.2 379.7 L 552.5 379.7 L 552.6 380.8 Q 553.7 379.5, 555.5 379.5 " fill="#000000"/>
<path class="legend" d="M 559.5 380.8 L 559.5 379.7 L 561.0 379.7 L 561.3 377.3 L 562.4 377.3 L 562.4 379.7 L 564.9 379.7 L 564.9 380.8 L 562.4 380.8 L 562.4 385.4 Q 562.4 386.8, 563.6 386.8 Q 564.1 386.8, 564.8 386.6 L 565.0 387.6 Q 564.2 388.0, 563.3 388.0 Q 562.3 388.0, 561.6 387.3 Q 560.9 386.7, 560.9 385.4 L 560.9 380.8 L 559.5 380.8 " fill="#000000"/>
<path class="legend" d="M 573.6 388.7 L 573.6 390.0 L 565.4 390.0 L 565.4 388.7 L 573.6 388.7 " fill="#000000"/>
<path class="legend" d="M 581.1 375.7 L 581.1 387.9 L 579.9 387.9 L 579.7 386.9 Q 578.7 388.0, 577.2 388.0 Q 575.5 388.0, 574.5 387.0 Q 573.6 385.9, 573.6 383.9 Q 573.6 381.8, 574.7 380.7 Q 575.9 379.5, 577.8 379.5 Q 578.7 379.5, 579.6 379.7 L 579.6 375.7 L 581.1 375.7 M 577.3 386.8 Q 578.1 386.8, 578.7 386.4 Q 579.3 385.9, 579.6 385.1 L 579.6 380.9 Q 578.8 380.7, 577.8 380.7 Q 576.6 380.7, 575.9 381.6 Q 575.1 382.4, 575.1 383.9 Q 575.1 385.3, 575.7 386.1 Q 576.3 386.8, 577.3 386.8 " fill="#000000"/>
<path class="legend" d="M 582.4 376.6 L 583.8 376.6 L 583.8 378.0 L 582.4 378.0 L 582.4 376.6 M 582.4 379.7 L 583.8 379.7 L 583.8 387.9 L 582.4 387.9 L 582.4 379.7 " fill="#000000"/>
<path class="legend" d="M 585.7 386.2 Q 586.4 386.5, 586.9 386.6 Q 587.4 386.8, 588.0 386.8 Q 588.7 386.8, 589.1 386.5 Q 589.5 386.2, 589.5 385.6 Q 589.5 385.2, 589.3 385.0 Q 589.1 384.8, 588.8 384.6 Q 588.6 384.5, 587.8 384.3 Q 587.7 384.3, 587.0 384.0 Q 586.3 383.7, 585.9 383.2 Q 585.5 382.7, 585.5 381.9 Q 585.5 380.9, 586.2 380.2 Q 587.0 379.5, 588.5 379.5 Q 589.1 379.5, 589.7 379.7 Q 590.2 379.8, 590.8 380.0 L 590.4 381.2 Q 589.9 381.0, 589.4 380.9 Q 589.0 380.8, 588.5 380.8 Q 587.7 380.8, 587.4 381.1 Q 587.0 381.4, 587.0 381.8 Q 587.0 382.3, 587.3 382.5 Q 587.6 382.7, 588.3 383.0 Q 588.4 383.0, 588.6 383.1 L 589.0 383.2 Q 589.6 383.4, 590.0 383.7 Q 590.5 383.9, 590.7 384.4 Q 591.0 384.8, 591.0 385.6 Q 591.0 386.7, 590.2 387.4 Q 589.3 388.0, 588.0 388.0 Q 587.2 388.0, 586.5 387.9 Q 585.9 387.7, 585.2 387.4 L 585.7 386.2 " fill="#000000"/>
<path class="legend" d="M 591.9 380.8 L 591.9 379.7 L 593.4 379.7 L 593.7 377.3 L 594.8 377.3 L 594.8 379.7 L 597.3 379.7 L 597.3 380.8 L 594.8 380.8 L 594.8 385.4 Q 594.8 386.8, 596.0 386.8 Q 596.5 386.8, 597.2 386.6 L 597.5 387.6 Q 596.6 388.0, 595.7 388.0 Q 594.7 388.0, 594.0 387.3 Q 593.3 386.7, 593.3 385.4 L 593.3 380.8 L 591.9 380.8 " fill="#000000"/>
<path class="legend" d="" fill="#000000"/>
<path class="legend" d="M 603.2 380.9 L 610.5 380.9 L 610.5 382.1 L 603.2 382.1 L 603.2 380.9 M 603.2 384.4 L 610.5 384.4 L 610.5 385.5 L 603.2 385.5 L 603.2 384.4 " fill="#000000"/>
<path class="legend" d="" fill="#000000"/>
<path class="legend" d="M 621.5 388.0 Q 619.4 388.0, 618.3 386.5 Q 617.3 384.9, 617.3 382.2 Q 617.3 379.5, 618.3 378.0 Q 619.4 376.4, 621.5 376.4 Q 623.5 376.4, 624.6 378.0 Q 625.6 379.5, 625.6 382.2 Q 625.6 384.9, 624.6 386.5 Q 623.5 388.0, 621.5 388.0 M 621.5 386.7 Q 622.7 386.7, 623.3 385.6 Q 624.0 384.4, 624.0 382.2 Q 624.0 380.0, 623.3 378.8 Q 622.7 377.7, 621.5 377.7 Q 620.2 377.7, 619.6 378.8 Q 618.9 380.0, 618.9 382.2 Q 618.9 384.4, 619.6 385.6 Q 620.2 386.7, 621.5 386.7 " fill="#000000"/>
<path class="legend" d="M 626.6 386.3 L 628.2 386.3 L 628.2 387.9 L 626.6 387.9 L 626.6 386.3 " fill="#000000"/>
<path class="legend" d="M 633.1 376.4 Q 635.1 376.4, 636.1 377.8 Q 637.1 379.2, 637.1 381.9 Q 637.1 384.9, 635.9 386.5 Q 634.6 388.0, 632.2 388.0 Q 631.5 388.0, 630.9 387.9 Q 630.3 387.7, 629.7 387.4 L 630.3 386.3 Q 631.2 386.7, 632.2 386.7 Q 633.8 386.7, 634.6 385.7 Q 635.4 384.7, 635.5 382.5 Q 634.9 383.1, 634.2 383.4 Q 633.5 383.6, 632.7 383.6 Q 631.7 383.6, 630.9 383.2 Q 630.1 382.8, 629.7 382.0 Q 629.3 381.2, 629.3 380.2 Q 629.3 379.1, 629.8 378.3 Q 630.3 377.4, 631.1 376.9 Q 632.0 376.4, 633.1 376.4 M 630.9 380.2 Q 630.9 381.2, 631.4 381.8 Q 632.0 382.4, 633.0 382.4 Q 633.7 382.4, 634.3 382.1 Q 635.0 381.8, 635.5 381.3 Q 635.5 379.4, 634.9 378.6 Q 634.3 377.7, 633.1 377.7 Q 632.5 377.7, 631.9 378.1 Q 631.5 378.4, 631.2 378.9 Q 630.9 379.5, 630.9 380.2 " fill="#000000"/>
<path class="legend" d="M 644.2 377.8 L 638.2 377.8 L 638.2 376.6 L 645.7 376.6 L 645.7 377.7 L 641.2 387.9 L 639.6 387.9 L 644.2 377.8 " fill="#000000"/>
<path class="legend" d="M 650.3 388.0 Q 648.3 388.0, 647.2 386.5 Q 646.2 384.9, 646.2 382.2 Q 646.2 379.5, 647.2 378.0 Q 648.3 376.4, 650.3 376.4 Q 652.4 376.4, 653.5 378.0 Q 654.5 379.5, 654.5 382.2 Q 654.5 384.9, 653.5 386.5 Q 652.4 388.0, 650.3 388.0 M 650.3 386.7 Q 651.6 386.7, 652.2 385.6 Q 652.9 384.4, 652.9 382.2 Q 652.9 380.0, 652.2 378.8 Q 651.6 377.7, 650.3 377.7 Q 649.1 377.7, 648.5 378.8 Q 647.8 380.0, 647.8 382.2 Q 647.8 384.4, 648.5 385.6 Q 649.1 386.7, 650.3 386.7 " fill="#000000"/>
<path class="legend" d="M 659.7 388.0 Q 657.6 388.0, 656.6 386.5 Q 655.5 384.9, 655.5 382.2 Q 655.5 379.5, 656.6 378.0 Q 657.6 376.4, 659.7 376.4 Q 661.8 376.4, 662.8 378.0 Q 663.8 379.5, 663.8 382.2 Q 663.8 384.9, 662.8 386.5 Q 661.8 388.0, 659.7 388.0 M 659.7 386.7 Q 660.9 386.7, 661.6 385.6 Q 662.2 384.4, 662.2 382.2 Q 662.2 380.0, 661.6 378.8 Q 660.9 377.7, 659.7 377.7 Q 658.5 377.7, 657.8 378.8 Q 657.1 380.0, 657.1 382.2 Q 657.1 384.4, 657.8 385.6 Q 658.5 386.7, 659.7 386.7 " fill="#000000"/>
<path class="bond-0 atom-0 atom-1" d="M 998.6,101.9 L 1017.7,154.0" style="fill:none;fill-rule:evenodd;stroke:#000000;stroke-width:2.0px;stroke-linecap:butt;stroke-linejoin:miter;stroke-opacity:1"/>
<path class="bond-1 atom-1 atom-2" d="M 1017.7,154.0 L 982.3,196.6" style="fill:none;fill-rule:evenodd;stroke:#000000;stroke-width:2.0px;stroke-linecap:butt;stroke-linejoin:miter;stroke-opacity:1"/>
<path class="bond-1 atom-1 atom-2" d="M 1021.0,167.5 L 996.1,197.3" style="fill:none;fill-rule:evenodd;stroke:#000000;stroke-width:2.0px;stroke-linecap:butt;stroke-linejoin:miter;stroke-opacity:1"/>
<path class="bond-2 atom-2 atom-3" d="M 982.3,196.6 L 927.6,187.2" style="fill:none;fill-rule:evenodd;stroke:#000000;stroke-width:2.0px;stroke-linecap:butt;stroke-linejoin:miter;stroke-opacity:1"/>
<path class="bond-3 atom-3 atom-4" d="M 927.6,187.2 L 908.4,135.1" style="fill:none;fill-rule:evenodd;stroke:#000000;stroke-width:2.0px;stroke-linecap:butt;stroke-linejoin:miter;stroke-opacity:1"/>
<path class="bond-3 atom-3 atom-4" d="M 914.3,183.2 L 900.8,146.8" style="fill:none;fill-rule:evenodd;stroke:#000000;stroke-width:2.0px;stroke-linecap:butt;stroke-linejoin:miter;stroke-opacity:1"/>
<path class="bond-4 atom-4 atom-5" d="M 908.4,135.1 L 853.7,125.7" style="fill:none;fill-rule:evenodd;stroke:#000000;stroke-width:2.0px;stroke-linecap:butt;stroke-linejoin:miter;stroke-opacity:1"/>
<path class="bond-5 atom-5 atom-6" d="M 853.7,125.7 L 818.2,168.4" style="fill:none;fill-rule:evenodd;stroke:#000000;stroke-width:2.0px;stroke-linecap:butt;stroke-linejoin:miter;stroke-opacity:1"/>
<path class="bond-5 atom-5 atom-6" d="M 856.9,139.2 L 832.0,169.1" style="fill:none;fill-rule:evenodd;stroke:#000000;stroke-width:2.0px;stroke-linecap:butt;stroke-linejoin:miter;stroke-opacity:1"/>
<path class="bond-6 atom-6 atom-7" d="M 818.2,168.4 L 837.4,220.5" style="fill:none;fill-rule:evenodd;stroke:#000000;stroke-width:2.0px;stroke-linecap:butt;stroke-linejoin:miter;stroke-opacity:1"/>
<path class="bond-7 atom-7 atom-8" d="M 837.4,220.5 L 892.1,229.9" style="fill:none;fill-rule:evenodd;stroke:#000000;stroke-width:2.0px;stroke-linecap:butt;stroke-linejoin:miter;stroke-opacity:1"/>
<path class="bond-7 atom-7 atom-8" d="M 847.5,210.9 L 885.7,217.5" style="fill:none;fill-rule:evenodd;stroke:#000000;stroke-width:2.0px;stroke-linecap:butt;stroke-linejoin:miter;stroke-opacity:1"/>
<path class="bond-8 atom-2 atom-9" d="M 982.3,196.6 L 1001.4,248.7" style="fill:none;fill-rule:evenodd;stroke:#000000;stroke-width:2.0px;stroke-linecap:butt;stroke-linejoin:miter;stroke-opacity:1"/>
<path class="bond-9 atom-9 atom-10" d="M 1001.4,248.7 L 1056.1,258.1" style="fill:none;fill-rule:evenodd;stroke:#000000;stroke-width:2.0px;stroke-linecap:butt;stroke-linejoin:miter;stroke-opacity:1"/>
<path class="bond-10 atom-10 atom-11" d="M 1056.1,258.1 L 1091.6,215.4" style="fill:none;fill-rule:evenodd;stroke:#000000;stroke-width:2.0px;stroke-linecap:butt;stroke-linejoin:miter;stroke-opacity:1"/>
<path class="bond-11 atom-11 atom-12" d="M 1091.6,215.4 L 1146.3,224.9" style="fill:none;fill-rule:evenodd;stroke:#000000;stroke-width:2.0px;stroke-linecap:butt;stroke-linejoin:miter;stroke-opacity:1"/>
<path class="bond-11 atom-11 atom-12" d="M 1101.7,205.9 L 1140.0,212.5" style="fill:none;fill-rule:evenodd;stroke:#000000;stroke-width:2.0px;stroke-linecap:butt;stroke-linejoin:miter;stroke-opacity:1"/>
<path class="bond-12 atom-12 atom-13" d="M 1146.3,224.9 L 1181.8,182.2" style="fill:none;fill-rule:evenodd;stroke:#000000;stroke-width:2.0px;stroke-linecap:butt;stroke-linejoin:miter;stroke-opacity:1"/>
<path class="bond-13 atom-13 atom-14" d="M 1181.8,182.2 L 1162.6,130.1" style="fill:none;fill-rule:evenodd;stroke:#000000;stroke-width:2.0px;stroke-linecap:butt;stroke-linejoin:miter;stroke-opacity:1"/>
<path class="bond-13 atom-13 atom-14" d="M 1168.5,178.2 L 1155.1,141.8" style="fill:none;fill-rule:evenodd;stroke:#000000;stroke-width:2.0px;stroke-linecap:butt;stroke-linejoin:miter;stroke-opacity:1"/>
<path class="bond-14 atom-14 atom-15" d="M 1162.6,130.1 L 1107.9,120.7" style="fill:none;fill-rule:evenodd;stroke:#000000;stroke-width:2.0px;stroke-linecap:butt;stroke-linejoin:miter;stroke-opacity:1"/>
<path class="bond-15 atom-15 atom-16" d="M 1107.9,120.7 L 1072.4,163.4" style="fill:none;fill-rule:evenodd;stroke:#000000;stroke-width:2.0px;stroke-linecap:butt;stroke-linejoin:miter;stroke-opacity:1"/>
<path class="bond-15 atom-15 atom-16" d="M 1111.1,134.2 L 1086.3,164.1" style="fill:none;fill-rule:evenodd;stroke:#000000;stroke-width:2.0px;stroke-linecap:butt;stroke-linejoin:miter;stroke-opacity:1"/>
<path class="bond-16 atom-16 atom-1" d="M 1072.4,163.4 L 1017.7,154.0" style="fill:none;fill-rule:evenodd;stroke:#000000;stroke-width:2.0px;stroke-linecap:butt;stroke-linejoin:miter;stroke-opacity:1"/>
<path class="bond-17 atom-8 atom-3" d="M 892.1,229.9 L 927.6,187.2" style="fill:none;fill-rule:evenodd;stroke:#000000;stroke-width:2.0px;stroke-linecap:butt;stroke-linejoin:miter;stroke-opacity:1"/>
<path class="bond-18 atom-16 atom-11" d="M 1072.4,163.4 L 1091.6,215.4" style="fill:none;fill-rule:evenodd;stroke:#000000;stroke-width:2.0px;stroke-linecap:butt;stroke-linejoin:miter;stroke-opacity:1"/>
<path class="legend" d="M 967.4 365.4 L 967.6 366.5 Q 968.5 365.3, 969.9 365.3 Q 970.3 365.3, 970.9 365.4 L 970.7 366.8 Q 970.0 366.6, 969.6 366.6 Q 969.0 366.6, 968.5 366.9 Q 968.1 367.1, 967.7 367.8 L 967.7 373.6 L 966.2 373.6 L 966.2 365.4 L 967.4 365.4 " fill="#000000"/>
<path class="legend" d="M 971.2 369.5 Q 971.2 367.5, 972.2 366.4 Q 973.2 365.3, 975.0 365.3 Q 976.8 365.3, 977.6 366.4 Q 978.5 367.4, 978.5 369.5 L 978.5 369.7 L 972.7 369.7 Q 972.8 371.1, 973.4 371.8 Q 974.0 372.6, 975.2 372.6 Q 975.8 372.6, 976.4 372.4 Q 977.0 372.3, 977.7 372.0 L 978.1 373.0 Q 977.3 373.4, 976.6 373.6 Q 975.9 373.8, 975.1 373.8 Q 973.2 373.8, 972.2 372.6 Q 971.2 371.5, 971.2 369.5 M 975.0 366.4 Q 974.1 366.4, 973.5 367.0 Q 973.0 367.5, 972.8 368.6 L 976.9 368.6 Q 976.8 367.5, 976.3 367.0 Q 975.9 366.4, 975.0 366.4 " fill="#000000"/>
<path class="legend" d="M 979.1 371.4 Q 979.1 370.1, 980.1 369.4 Q 981.2 368.7, 983.1 368.7 L 984.3 368.7 L 984.3 368.3 Q 984.3 367.3, 983.9 366.9 Q 983.5 366.4, 982.5 366.4 Q 981.8 366.4, 981.3 366.6 Q 980.8 366.7, 980.0 367.0 L 979.5 366.0 Q 981.0 365.3, 982.5 365.3 Q 984.2 365.3, 985.0 366.0 Q 985.8 366.8, 985.8 368.4 L 985.8 373.6 L 984.7 373.6 Q 984.7 373.6, 984.6 373.3 Q 984.6 373.1, 984.5 372.7 Q 983.3 373.8, 981.8 373.8 Q 980.5 373.8, 979.8 373.2 Q 979.1 372.5, 979.1 371.4 M 980.6 371.4 Q 980.6 372.0, 981.0 372.3 Q 981.3 372.6, 982.1 372.6 Q 982.7 372.6, 983.3 372.4 Q 983.9 372.0, 984.3 371.5 L 984.3 369.8 L 983.2 369.8 Q 981.9 369.8, 981.2 370.2 Q 980.6 370.6, 980.6 371.4 " fill="#000000"/>
<path class="legend" d="M 987.1 369.5 Q 987.1 367.5, 988.1 366.4 Q 989.1 365.3, 991.0 365.3 Q 992.9 365.3, 993.9 366.6 L 992.8 367.4 Q 992.5 366.9, 992.0 366.7 Q 991.6 366.4, 991.0 366.4 Q 989.9 366.4, 989.2 367.2 Q 988.6 368.0, 988.6 369.5 Q 988.6 371.0, 989.2 371.8 Q 989.9 372.6, 991.1 372.6 Q 991.8 372.6, 992.2 372.4 Q 992.7 372.3, 993.3 372.0 L 993.7 373.0 Q 992.5 373.7, 991.0 373.7 Q 989.1 373.7, 988.1 372.6 Q 987.1 371.5, 987.1 369.5 " fill="#000000"/>
<path class="legend" d="M 994.2 366.6 L 994.2 365.4 L 995.8 365.4 L 996.1 363.0 L 997.2 363.0 L 997.2 365.4 L 999.7 365.4 L 999.7 366.6 L 997.2 366.6 L 997.2 371.1 Q 997.2 372.5, 998.4 372.5 Q 998.9 372.5, 999.6 372.3 L 999.8 373.4 Q 998.9 373.7, 998.1 373.7 Q 997.0 373.7, 996.4 373.1 Q 995.7 372.4, 995.7 371.2 L 995.7 366.6 L 994.2 366.6 " fill="#000000"/>
<path class="legend" d="M 1008.4 374.4 L 1008.4 375.7 L 1000.2 375.7 L 1000.2 374.4 L 1008.4 374.4 " fill="#000000"/>
<path class="legend" d="M 1008.4 364.4 Q 1008.8 363.4, 1009.8 362.8 Q 1010.8 362.2, 1012.2 362.2 Q 1013.9 362.2, 1014.9 363.1 Q 1015.8 364.0, 1015.8 365.7 Q 1015.8 367.4, 1014.6 368.9 Q 1013.3 370.5, 1010.8 372.4 L 1016.0 372.4 L 1016.0 373.6 L 1008.4 373.6 L 1008.4 372.6 Q 1010.5 371.1, 1011.7 369.9 Q 1013.0 368.8, 1013.6 367.8 Q 1014.2 366.8, 1014.2 365.8 Q 1014.2 364.7, 1013.7 364.1 Q 1013.1 363.5, 1012.2 363.5 Q 1011.3 363.5, 1010.7 363.8 Q 1010.1 364.2, 1009.6 365.0 L 1008.4 364.4 " fill="#000000"/>
<path class="legend" d="M 1020.8 362.2 Q 1022.8 362.2, 1023.8 363.6 Q 1024.8 364.9, 1024.8 367.6 Q 1024.8 370.6, 1023.6 372.2 Q 1022.3 373.8, 1019.9 373.8 Q 1019.2 373.8, 1018.6 373.6 Q 1018.0 373.4, 1017.4 373.1 L 1018.0 372.0 Q 1018.9 372.5, 1019.9 372.5 Q 1021.5 372.5, 1022.3 371.5 Q 1023.1 370.4, 1023.2 368.3 Q 1022.6 368.8, 1021.9 369.1 Q 1021.2 369.4, 1020.4 369.4 Q 1019.4 369.4, 1018.6 368.9 Q 1017.8 368.5, 1017.4 367.7 Q 1017.0 366.9, 1017.0 366.0 Q 1017.0 364.8, 1017.5 364.0 Q 1018.0 363.1, 1018.8 362.7 Q 1019.7 362.2, 1020.8 362.2 M 1018.6 365.9 Q 1018.6 366.9, 1019.1 367.5 Q 1019.7 368.1, 1020.7 368.1 Q 1021.4 368.1, 1022.0 367.8 Q 1022.7 367.5, 1023.2 367.1 Q 1023.2 365.2, 1022.6 364.3 Q 1022.0 363.5, 1020.8 363.5 Q 1020.2 363.5, 1019.6 363.8 Q 1019.2 364.1, 1018.9 364.7 Q 1018.6 365.2, 1018.6 365.9 " fill="#000000"/>
<path class="legend" d="M 1030.4 366.6 Q 1031.3 366.6, 1032.1 367.0 Q 1032.9 367.4, 1033.3 368.2 Q 1033.8 369.0, 1033.8 370.0 Q 1033.8 371.1, 1033.3 372.0 Q 1032.8 372.8, 1031.9 373.3 Q 1031.1 373.8, 1030.0 373.8 Q 1028.0 373.8, 1026.9 372.4 Q 1025.9 371.0, 1025.9 368.3 Q 1025.9 365.3, 1027.2 363.7 Q 1028.4 362.2, 1030.8 362.2 Q 1031.6 362.2, 1032.1 362.3 Q 1032.8 362.5, 1033.3 362.8 L 1032.7 363.9 Q 1031.9 363.5, 1030.9 363.5 Q 1029.3 363.5, 1028.4 364.5 Q 1027.6 365.5, 1027.5 367.6 Q 1028.1 367.1, 1028.8 366.8 Q 1029.6 366.6, 1030.4 366.6 M 1030.0 372.4 Q 1030.6 372.4, 1031.1 372.1 Q 1031.6 371.8, 1031.9 371.2 Q 1032.2 370.7, 1032.2 370.0 Q 1032.2 369.0, 1031.6 368.4 Q 1031.1 367.8, 1030.1 367.8 Q 1029.4 367.8, 1028.7 368.1 Q 1028.0 368.4, 1027.5 368.9 Q 1027.6 370.8, 1028.2 371.6 Q 1028.8 372.4, 1030.0 372.4 " fill="#000000"/>
<path class="legend" d="M 937.3 383.8 Q 937.3 381.8, 938.3 380.7 Q 939.2 379.5, 941.2 379.5 Q 943.1 379.5, 944.0 380.9 L 943.0 381.6 Q 942.7 381.2, 942.2 380.9 Q 941.8 380.7, 941.2 380.7 Q 940.1 380.7, 939.4 381.5 Q 938.8 382.3, 938.8 383.8 Q 938.8 385.3, 939.4 386.1 Q 940.1 386.8, 941.3 386.8 Q 942.0 386.8, 942.4 386.7 Q 942.9 386.5, 943.5 386.3 L 943.9 387.3 Q 942.7 388.0, 941.2 388.0 Q 939.2 388.0, 938.3 386.9 Q 937.3 385.7, 937.3 383.8 " fill="#000000"/>
<path class="legend" d="M 944.4 383.8 Q 944.4 381.7, 945.4 380.6 Q 946.4 379.5, 948.3 379.5 Q 950.1 379.5, 950.9 380.6 Q 951.7 381.7, 951.7 383.7 L 951.7 384.0 L 946.0 384.0 Q 946.0 385.4, 946.6 386.1 Q 947.2 386.8, 948.4 386.8 Q 949.1 386.8, 949.6 386.7 Q 950.2 386.5, 951.0 386.2 L 951.4 387.2 Q 950.6 387.6, 949.8 387.8 Q 949.1 388.0, 948.3 388.0 Q 946.5 388.0, 945.5 386.9 Q 944.4 385.8, 944.4 383.8 M 948.3 380.7 Q 947.3 380.7, 946.8 381.2 Q 946.2 381.8, 946.0 382.8 L 950.1 382.8 Q 950.0 381.7, 949.6 381.2 Q 949.1 380.7, 948.3 380.7 " fill="#000000"/>
<path class="legend" d="M 956.6 379.5 Q 957.9 379.5, 958.6 380.3 Q 959.3 381.0, 959.3 382.4 L 959.3 387.9 L 957.8 387.9 L 957.8 382.6 Q 957.8 381.6, 957.4 381.2 Q 957.1 380.7, 956.2 380.7 Q 955.5 380.7, 954.8 381.1 Q 954.2 381.4, 953.8 382.0 L 953.8 387.9 L 952.3 387.9 L 952.3 379.7 L 953.5 379.7 L 953.7 380.8 Q 954.8 379.5, 956.6 379.5 " fill="#000000"/>
<path class="legend" d="M 960.5 380.8 L 960.5 379.7 L 962.1 379.7 L 962.4 377.3 L 963.5 377.3 L 963.5 379.7 L 966.0 379.7 L 966.0 380.8 L 963.5 380.8 L 963.5 385.4 Q 963.5 386.8, 964.7 386.8 Q 965.2 386.8, 965.9 386.6 L 966.1 387.6 Q 965.2 388.0, 964.4 388.0 Q 963.3 388.0, 962.7 387.3 Q 962.0 386.7, 962.0 385.4 L 962.0 380.8 L 960.5 380.8 " fill="#000000"/>
<path class="legend" d="M 974.7 388.7 L 974.7 390.0 L 966.5 390.0 L 966.5 388.7 L 974.7 388.7 " fill="#000000"/>
<path class="legend" d="M 982.2 375.7 L 982.2 387.9 L 980.9 387.9 L 980.7 386.9 Q 979.8 388.0, 978.3 388.0 Q 976.6 388.0, 975.6 387.0 Q 974.7 385.9, 974.7 383.9 Q 974.7 381.8, 975.8 380.7 Q 976.9 379.5, 978.9 379.5 Q 979.8 379.5, 980.7 379.7 L 980.7 375.7 L 982.2 375.7 M 978.4 386.8 Q 979.2 386.8, 979.8 386.4 Q 980.4 385.9, 980.7 385.1 L 980.7 380.9 Q 979.8 380.7, 978.9 380.7 Q 977.7 380.7, 976.9 381.6 Q 976.2 382.4, 976.2 383.9 Q 976.2 385.3, 976.8 386.1 Q 977.4 386.8, 978.4 386.8 " fill="#000000"/>
<path class="legend" d="M 983.4 376.6 L 984.9 376.6 L 984.9 378.0 L 983.4 378.0 L 983.4 376.6 M 983.4 379.7 L 984.9 379.7 L 984.9 387.9 L 983.4 387.9 L 983.4 379.7 " fill="#000000"/>
<path class="legend" d="M 986.7 386.2 Q 987.5 386.5, 988.0 386.6 Q 988.5 386.8, 989.1 386.8 Q 989.8 386.8, 990.2 386.5 Q 990.6 386.2, 990.6 385.6 Q 990.6 385.2, 990.4 385.0 Q 990.2 384.8, 989.9 384.6 Q 989.6 384.5, 988.9 384.3 Q 988.8 384.3, 988.1 384.0 Q 987.3 383.7, 986.9 383.2 Q 986.6 382.7, 986.6 381.9 Q 986.6 380.9, 987.3 380.2 Q 988.1 379.5, 989.6 379.5 Q 990.2 379.5, 990.7 379.7 Q 991.3 379.8, 991.9 380.0 L 991.5 381.2 Q 991.0 381.0, 990.5 380.9 Q 990.1 380.8, 989.6 380.8 Q 988.8 380.8, 988.4 381.1 Q 988.1 381.4, 988.1 381.8 Q 988.1 382.3, 988.4 382.5 Q 988.7 382.7, 989.3 383.0 Q 989.5 383.0, 989.7 383.1 L 990.0 383.2 Q 990.7 383.4, 991.1 383.7 Q 991.5 383.9, 991.8 384.4 Q 992.1 384.8, 992.1 385.6 Q 992.1 386.7, 991.3 387.4 Q 990.4 388.0, 989.1 388.0 Q 988.3 388.0, 987.6 387.9 Q 987.0 387.7, 986.3 387.4 L 986.7 386.2 " fill="#000000"/>
<path class="legend" d="M 993.0 380.8 L 993.0 379.7 L 994.5 379.7 L 994.8 377.3 L 995.9 377.3 L 995.9 379.7 L 998.4 379.7 L 998.4 380.8 L 995.9 380.8 L 995.9 385.4 Q 995.9 386.8, 997.1 386.8 Q 997.6 386.8, 998.3 386.6 L 998.5 387.6 Q 997.7 388.0, 996.8 388.0 Q 995.8 388.0, 995.1 387.3 Q 994.4 386.7, 994.4 385.4 L 994.4 380.8 L 993.0 380.8 " fill="#000000"/>
<path class="legend" d="" fill="#000000"/>
<path class="legend" d="M 1004.3 380.9 L 1011.6 380.9 L 1011.6 382.1 L 1004.3 382.1 L 1004.3 380.9 M 1004.3 384.4 L 1011.6 384.4 L 1011.6 385.5 L 1004.3 385.5 L 1004.3 384.4 " fill="#000000"/>
<path class="legend" d="" fill="#000000"/>
<path class="legend" d="M 1019.0 386.6 L 1021.5 386.6 L 1021.5 378.1 L 1018.8 379.0 L 1018.4 378.0 L 1021.9 376.5 L 1023.0 376.7 L 1023.0 386.6 L 1025.2 386.6 L 1025.2 387.9 L 1019.0 387.9 L 1019.0 386.6 " fill="#000000"/>
<path class="legend" d="M 1025.9 386.3 L 1027.5 386.3 L 1027.5 387.9 L 1025.9 387.9 L 1025.9 386.3 " fill="#000000"/>
<path class="legend" d="M 1028.6 378.7 Q 1029.0 377.6, 1030.0 377.0 Q 1031.0 376.4, 1032.3 376.4 Q 1034.1 376.4, 1035.0 377.4 Q 1036.0 378.3, 1036.0 379.9 Q 1036.0 381.6, 1034.7 383.2 Q 1033.5 384.8, 1030.9 386.6 L 1036.2 386.6 L 1036.2 387.9 L 1028.5 387.9 L 1028.5 386.8 Q 1030.6 385.3, 1031.9 384.2 Q 1033.2 383.1, 1033.8 382.1 Q 1034.4 381.1, 1034.4 380.0 Q 1034.4 378.9, 1033.8 378.3 Q 1033.3 377.7, 1032.3 377.7 Q 1031.4 377.7, 1030.8 378.1 Q 1030.2 378.4, 1029.8 379.3 L 1028.6 378.7 " fill="#000000"/>
<path class="legend" d="M 1041.3 388.0 Q 1039.2 388.0, 1038.1 386.5 Q 1037.1 384.9, 1037.1 382.2 Q 1037.1 379.5, 1038.1 378.0 Q 1039.2 376.4, 1041.3 376.4 Q 1043.4 376.4, 1044.4 378.0 Q 1045.4 379.5, 1045.4 382.2 Q 1045.4 384.9, 1044.4 386.5 Q 1043.3 388.0, 1041.3 388.0 M 1041.3 386.7 Q 1042.5 386.7, 1043.2 385.6 Q 1043.8 384.4, 1043.8 382.2 Q 1043.8 380.0, 1043.2 378.8 Q 1042.5 377.7, 1041.3 377.7 Q 1040.1 377.7, 1039.4 378.8 Q 1038.7 380.0, 1038.7 382.2 Q 1038.7 384.4, 1039.4 385.6 Q 1040.1 386.7, 1041.3 386.7 " fill="#000000"/>
<path class="legend" d="M 1050.6 380.8 Q 1051.6 380.8, 1052.4 381.2 Q 1053.2 381.6, 1053.7 382.4 Q 1054.1 383.2, 1054.1 384.3 Q 1054.1 385.5, 1053.5 386.3 Q 1053.0 387.2, 1052.1 387.6 Q 1051.1 388.0, 1050.1 388.0 Q 1049.0 388.0, 1048.1 387.6 Q 1047.1 387.2, 1046.5 386.5 L 1047.4 385.5 Q 1047.9 386.1, 1048.7 386.4 Q 1049.4 386.7, 1050.1 386.7 Q 1051.1 386.7, 1051.8 386.1 Q 1052.5 385.5, 1052.5 384.3 Q 1052.5 383.1, 1051.8 382.6 Q 1051.1 382.0, 1050.0 382.0 Q 1049.0 382.0, 1047.9 382.4 L 1047.0 382.0 L 1047.6 376.6 L 1053.4 376.6 L 1053.3 377.8 L 1048.9 377.8 L 1048.6 381.2 Q 1049.6 380.8, 1050.6 380.8 " fill="#000000"/>
<path class="legend" d="M 1058.7 376.4 Q 1060.7 376.4, 1061.7 377.8 Q 1062.7 379.2, 1062.7 381.9 Q 1062.7 384.9, 1061.5 386.5 Q 1060.2 388.0, 1057.8 388.0 Q 1057.1 388.0, 1056.5 387.9 Q 1055.9 387.7, 1055.3 387.4 L 1056.0 386.3 Q 1056.8 386.7, 1057.8 386.7 Q 1059.4 386.7, 1060.2 385.7 Q 1061.0 384.7, 1061.1 382.5 Q 1060.5 383.1, 1059.8 383.4 Q 1059.1 383.6, 1058.3 383.6 Q 1057.3 383.6, 1056.5 383.2 Q 1055.7 382.8, 1055.3 382.0 Q 1054.9 381.2, 1054.9 380.2 Q 1054.9 379.1, 1055.4 378.3 Q 1055.9 377.4, 1056.7 376.9 Q 1057.6 376.4, 1058.7 376.4 M 1056.5 380.2 Q 1056.5 381.2, 1057.0 381.8 Q 1057.6 382.4, 1058.6 382.4 Q 1059.3 382.4, 1060.0 382.1 Q 1060.6 381.8, 1061.1 381.3 Q 1061.1 379.4, 1060.5 378.6 Q 1059.9 377.7, 1058.7 377.7 Q 1058.1 377.7, 1057.6 378.1 Q 1057.1 378.4, 1056.8 378.9 Q 1056.5 379.5, 1056.5 380.2 " fill="#000000"/>
<path class="bond-0 atom-0 atom-1" d="M 1408.1,103.3 L 1425.1,156.1" style="fill:none;fill-rule:evenodd;stroke:#000000;stroke-width:2.0px;stroke-linecap:butt;stroke-linejoin:miter;stroke-opacity:1"/>
<path class="bond-1 atom-1 atom-2" d="M 1425.1,156.1 L 1392.5,201.0" style="fill:none;fill-rule:evenodd;stroke:#000000;stroke-width:2.0px;stroke-linecap:butt;stroke-linejoin:miter;stroke-opacity:1"/>
<path class="bond-1 atom-1 atom-2" d="M 1429.2,169.4 L 1406.3,200.8" style="fill:none;fill-rule:evenodd;stroke:#000000;stroke-width:2.0px;stroke-linecap:butt;stroke-linejoin:miter;stroke-opacity:1"/>
<path class="bond-2 atom-2 atom-3" d="M 1392.5,201.0 L 1337.0,200.9" style="fill:none;fill-rule:evenodd;stroke:#000000;stroke-width:2.0px;stroke-linecap:butt;stroke-linejoin:miter;stroke-opacity:1"/>
<path class="bond-3 atom-3 atom-4" d="M 1337.0,200.9 L 1309.3,152.8" style="fill:none;fill-rule:evenodd;stroke:#000000;stroke-width:2.0px;stroke-linecap:butt;stroke-linejoin:miter;stroke-opacity:1"/>
<path class="bond-3 atom-3 atom-4" d="M 1323.2,199.3 L 1303.8,165.6" style="fill:none;fill-rule:evenodd;stroke:#000000;stroke-width:2.0px;stroke-linecap:butt;stroke-linejoin:miter;stroke-opacity:1"/>
<path class="bond-4 atom-4 atom-5" d="M 1309.3,152.8 L 1253.8,152.8" style="fill:none;fill-rule:evenodd;stroke:#000000;stroke-width:2.0px;stroke-linecap:butt;stroke-linejoin:miter;stroke-opacity:1"/>
<path class="bond-5 atom-5 atom-6" d="M 1253.8,152.8 L 1226.0,200.8" style="fill:none;fill-rule:evenodd;stroke:#000000;stroke-width:2.0px;stroke-linecap:butt;stroke-linejoin:miter;stroke-opacity:1"/>
<path class="bond-5 atom-5 atom-6" d="M 1259.2,165.5 L 1239.8,199.2" style="fill:none;fill-rule:evenodd;stroke:#000000;stroke-width:2.0px;stroke-linecap:butt;stroke-linejoin:miter;stroke-opacity:1"/>
<path class="bond-6 atom-6 atom-7" d="M 1226.0,200.8 L 1253.7,248.9" style="fill:none;fill-rule:evenodd;stroke:#000000;stroke-width:2.0px;stroke-linecap:butt;stroke-linejoin:miter;stroke-opacity:1"/>
<path class="bond-7 atom-7 atom-8" d="M 1253.7,248.9 L 1309.2,249.0" style="fill:none;fill-rule:evenodd;stroke:#000000;stroke-width:2.0px;stroke-linecap:butt;stroke-linejoin:miter;stroke-opacity:1"/>
<path class="bond-7 atom-7 atom-8" d="M 1262.0,237.8 L 1300.9,237.9" style="fill:none;fill-rule:evenodd;stroke:#000000;stroke-width:2.0px;stroke-linecap:butt;stroke-linejoin:miter;stroke-opacity:1"/>
<path class="bond-8 atom-2 atom-9" d="M 1392.5,201.0 L 1425.0,245.9" style="fill:none;fill-rule:evenodd;stroke:#000000;stroke-width:2.0px;stroke-linecap:butt;stroke-linejoin:miter;stroke-opacity:1"/>
<path class="bond-9 atom-9 atom-10" d="M 1425.0,245.9 L 1477.8,228.8" style="fill:none;fill-rule:evenodd;stroke:#000000;stroke-width:2.0px;stroke-linecap:butt;stroke-linejoin:miter;stroke-opacity:1"/>
<path class="bond-10 atom-10 atom-11" d="M 1477.8,228.8 L 1525.9,256.7" style="fill:none;fill-rule:evenodd;stroke:#000000;stroke-width:2.0px;stroke-linecap:butt;stroke-linejoin:miter;stroke-opacity:1"/>
<path class="bond-10 atom-10 atom-11" d="M 1490.6,223.4 L 1524.2,242.9" style="fill:none;fill-rule:evenodd;stroke:#000000;stroke-width:2.0px;stroke-linecap:butt;stroke-linejoin:miter;stroke-opacity:1"/>
<path class="bond-11 atom-11 atom-12" d="M 1525.9,256.7 L 1573.9,229.0" style="fill:none;fill-rule:evenodd;stroke:#000000;stroke-width:2.0px;stroke-linecap:butt;stroke-linejoin:miter;stroke-opacity:1"/>
<path class="bond-12 atom-12 atom-13" d="M 1573.9,229.0 L 1574.0,173.5" style="fill:none;fill-rule:evenodd;stroke:#000000;stroke-width:2.0px;stroke-linecap:butt;stroke-linejoin:miter;stroke-opacity:1"/>
<path class="bond-12 atom-12 atom-13" d="M 1562.9,220.6 L 1562.9,181.8" style="fill:none;fill-rule:evenodd;stroke:#000000;stroke-width:2.0px;stroke-linecap:butt;stroke-linejoin:miter;stroke-opacity:1"/>
<path class="bond-13 atom-13 atom-14" d="M 1574.0,173.5 L 1526.0,145.7" style="fill:none;fill-rule:evenodd;stroke:#000000;stroke-width:2.0px;stroke-linecap:butt;stroke-linejoin:miter;stroke-opacity:1"/>
<path class="bond-14 atom-14 atom-15" d="M 1526.0,145.7 L 1477.9,173.4" style="fill:none;fill-rule:evenodd;stroke:#000000;stroke-width:2.0px;stroke-linecap:butt;stroke-linejoin:miter;stroke-opacity:1"/>
<path class="bond-14 atom-14 atom-15" d="M 1524.3,159.4 L 1490.6,178.8" style="fill:none;fill-rule:evenodd;stroke:#000000;stroke-width:2.0px;stroke-linecap:butt;stroke-linejoin:miter;stroke-opacity:1"/>
<path class="bond-15 atom-15 atom-1" d="M 1477.9,173.4 L 1425.1,156.1" style="fill:none;fill-rule:evenodd;stroke:#000000;stroke-width:2.0px;stroke-linecap:butt;stroke-linejoin:miter;stroke-opacity:1"/>
<path class="bond-16 atom-8 atom-3" d="M 1309.2,249.0 L 1337.0,200.9" style="fill:none;fill-rule:evenodd;stroke:#000000;stroke-width:2.0px;stroke-linecap:butt;stroke-linejoin:miter;stroke-opacity:1"/>
<path class="bond-17 atom-15 atom-10" d="M 1477.9,173.4 L 1477.8,228.8" style="fill:none;fill-rule:evenodd;stroke:#000000;stroke-width:2.0px;stroke-linecap:butt;stroke-linejoin:miter;stroke-opacity:1"/>
<path class="legend" d="M 1367.6 365.4 L 1367.8 366.5 Q 1368.6 365.3, 1370.1 365.3 Q 1370.5 365.3, 1371.1 365.4 L 1370.9 366.8 Q 1370.2 366.6, 1369.8 366.6 Q 1369.1 366.6, 1368.7 366.9 Q 1368.2 367.1, 1367.9 367.8 L 1367.9 373.6 L 1366.4 373.6 L 1366.4 365.4 L 1367.6 365.4 " fill="#000000"/>
<path class="legend" d="M 1371.4 369.5 Q 1371.4 367.5, 1372.4 366.4 Q 1373.4 365.3, 1375.2 365.3 Q 1377.0 365.3, 1377.8 366.4 Q 1378.6 367.4, 1378.6 369.5 L 1378.6 369.7 L 1372.9 369.7 Q 1372.9 371.1, 1373.5 371.8 Q 1374.2 372.6, 1375.3 372.6 Q 1376.0 372.6, 1376.6 372.4 Q 1377.2 372.3, 1377.9 372.0 L 1378.3 373.0 Q 1377.5 373.4, 1376.8 373.6 Q 1376.0 373.8, 1375.3 373.8 Q 1373.4 373.8, 1372.4 372.6 Q 1371.4 371.5, 1371.4 369.5 M 1375.2 366.4 Q 1374.3 366.4, 1373.7 367.0 Q 1373.1 367.5, 1373.0 368.6 L 1377.0 368.6 Q 1376.9 367.5, 1376.5 367.0 Q 1376.0 366.4, 1375.2 366.4 " fill="#000000"/>
<path class="legend" d="M 1379.2 371.4 Q 1379.2 370.1, 1380.3 369.4 Q 1381.4 368.7, 1383.3 368.7 L 1384.5 368.7 L 1384.5 368.3 Q 1384.5 367.3, 1384.1 366.9 Q 1383.7 366.4, 1382.6 366.4 Q 1382.0 366.4, 1381.5 366.6 Q 1381.0 366.7, 1380.2 367.0 L 1379.7 366.0 Q 1381.2 365.3, 1382.7 365.3 Q 1384.4 365.3, 1385.2 366.0 Q 1386.0 366.8, 1386.0 368.4 L 1386.0 373.6 L 1384.8 373.6 Q 1384.8 373.6, 1384.8 373.3 Q 1384.7 373.1, 1384.6 372.7 Q 1383.5 373.8, 1381.9 373.8 Q 1380.7 373.8, 1380.0 373.2 Q 1379.2 372.5, 1379.2 371.4 M 1380.7 371.4 Q 1380.7 372.0, 1381.1 372.3 Q 1381.5 372.6, 1382.2 372.6 Q 1382.9 372.6, 1383.5 372.4 Q 1384.1 372.0, 1384.5 371.5 L 1384.5 369.8 L 1383.4 369.8 Q 1382.1 369.8, 1381.4 370.2 Q 1380.7 370.6, 1380.7 371.4 " fill="#000000"/>
<path class="legend" d="M 1387.2 369.5 Q 1387.2 367.5, 1388.2 366.4 Q 1389.2 365.3, 1391.2 365.3 Q 1393.0 365.3, 1394.0 366.6 L 1393.0 367.4 Q 1392.6 366.9, 1392.2 366.7 Q 1391.8 366.4, 1391.2 366.4 Q 1390.0 366.4, 1389.4 367.2 Q 1388.8 368.0, 1388.8 369.5 Q 1388.8 371.0, 1389.4 371.8 Q 1390.1 372.6, 1391.3 372.6 Q 1391.9 372.6, 1392.4 372.4 Q 1392.9 372.3, 1393.4 372.0 L 1393.9 373.0 Q 1392.7 373.7, 1391.2 373.7 Q 1389.2 373.7, 1388.2 372.6 Q 1387.2 371.5, 1387.2 369.5 " fill="#000000"/>
<path class="legend" d="M 1394.4 366.6 L 1394.4 365.4 L 1396.0 365.4 L 1396.2 363.0 L 1397.4 363.0 L 1397.4 365.4 L 1399.9 365.4 L 1399.9 366.6 L 1397.4 366.6 L 1397.4 371.1 Q 1397.4 372.5, 1398.6 372.5 Q 1399.0 372.5, 1399.7 372.3 L 1400.0 373.4 Q 1399.1 373.7, 1398.3 373.7 Q 1397.2 373.7, 1396.5 373.1 Q 1395.8 372.4, 1395.8 371.2 L 1395.8 366.6 L 1394.4 366.6 " fill="#000000"/>
<path class="legend" d="M 1408.6 374.4 L 1408.6 375.7 L 1400.4 375.7 L 1400.4 374.4 L 1408.6 374.4 " fill="#000000"/>
<path class="legend" d="M 1408.6 364.4 Q 1409.0 363.4, 1410.0 362.8 Q 1411.0 362.2, 1412.4 362.2 Q 1414.1 362.2, 1415.0 363.1 Q 1416.0 364.0, 1416.0 365.7 Q 1416.0 367.4, 1414.7 368.9 Q 1413.5 370.5, 1411.0 372.4 L 1416.2 372.4 L 1416.2 373.6 L 1408.6 373.6 L 1408.6 372.6 Q 1410.7 371.1, 1411.9 369.9 Q 1413.2 368.8, 1413.8 367.8 Q 1414.4 366.8, 1414.4 365.8 Q 1414.4 364.7, 1413.8 364.1 Q 1413.3 363.5, 1412.4 363.5 Q 1411.4 363.5, 1410.8 363.8 Q 1410.2 364.2, 1409.8 365.0 L 1408.6 364.4 " fill="#000000"/>
<path class="legend" d="M 1421.0 362.2 Q 1423.0 362.2, 1424.0 363.6 Q 1425.0 364.9, 1425.0 367.6 Q 1425.0 370.6, 1423.7 372.2 Q 1422.5 373.8, 1420.1 373.8 Q 1419.4 373.8, 1418.8 373.6 Q 1418.2 373.4, 1417.6 373.1 L 1418.2 372.0 Q 1419.0 372.5, 1420.1 372.5 Q 1421.7 372.5, 1422.5 371.5 Q 1423.3 370.4, 1423.4 368.3 Q 1422.8 368.8, 1422.1 369.1 Q 1421.4 369.4, 1420.6 369.4 Q 1419.6 369.4, 1418.8 368.9 Q 1418.0 368.5, 1417.6 367.7 Q 1417.1 366.9, 1417.1 366.0 Q 1417.1 364.8, 1417.6 364.0 Q 1418.1 363.1, 1419.0 362.7 Q 1419.8 362.2, 1421.0 362.2 M 1418.7 365.9 Q 1418.7 366.9, 1419.3 367.5 Q 1419.9 368.1, 1420.9 368.1 Q 1421.5 368.1, 1422.2 367.8 Q 1422.9 367.5, 1423.4 367.1 Q 1423.3 365.2, 1422.7 364.3 Q 1422.1 363.5, 1420.9 363.5 Q 1420.3 363.5, 1419.8 363.8 Q 1419.3 364.1, 1419.0 364.7 Q 1418.7 365.2, 1418.7 365.9 " fill="#000000"/>
<path class="legend" d="M 1432.0 363.6 L 1426.1 363.6 L 1426.1 362.3 L 1433.6 362.3 L 1433.6 363.4 L 1429.0 373.6 L 1427.5 373.6 L 1432.0 363.6 " fill="#000000"/>
<path class="legend" d="M 1337.0 383.8 Q 1337.0 381.8, 1338.0 380.7 Q 1339.0 379.5, 1340.9 379.5 Q 1342.8 379.5, 1343.8 380.9 L 1342.7 381.6 Q 1342.4 381.2, 1341.9 380.9 Q 1341.5 380.7, 1340.9 380.7 Q 1339.8 380.7, 1339.1 381.5 Q 1338.5 382.3, 1338.5 383.8 Q 1338.5 385.3, 1339.1 386.1 Q 1339.8 386.8, 1341.0 386.8 Q 1341.7 386.8, 1342.1 386.7 Q 1342.6 386.5, 1343.2 386.3 L 1343.6 387.3 Q 1342.4 388.0, 1340.9 388.0 Q 1339.0 388.0, 1338.0 386.9 Q 1337.0 385.7, 1337.0 383.8 " fill="#000000"/>
<path class="legend" d="M 1344.1 383.8 Q 1344.1 381.7, 1345.1 380.6 Q 1346.2 379.5, 1348.0 379.5 Q 1349.8 379.5, 1350.6 380.6 Q 1351.4 381.7, 1351.4 383.7 L 1351.4 384.0 L 1345.7 384.0 Q 1345.7 385.4, 1346.3 386.1 Q 1347.0 386.8, 1348.1 386.8 Q 1348.8 386.8, 1349.4 386.7 Q 1349.9 386.5, 1350.7 386.2 L 1351.1 387.2 Q 1350.3 387.6, 1349.5 387.8 Q 1348.8 388.0, 1348.0 388.0 Q 1346.2 388.0, 1345.2 386.9 Q 1344.1 385.8, 1344.1 383.8 M 1348.0 380.7 Q 1347.1 380.7, 1346.5 381.2 Q 1345.9 381.8, 1345.7 382.8 L 1349.8 382.8 Q 1349.7 381.7, 1349.3 381.2 Q 1348.8 380.7, 1348.0 380.7 " fill="#000000"/>
<path class="legend" d="M 1356.3 379.5 Q 1357.6 379.5, 1358.3 380.3 Q 1359.0 381.0, 1359.0 382.4 L 1359.0 387.9 L 1357.5 387.9 L 1357.5 382.6 Q 1357.5 381.6, 1357.1 381.2 Q 1356.8 380.7, 1355.9 380.7 Q 1355.2 380.7, 1354.6 381.1 Q 1353.9 381.4, 1353.5 382.0 L 1353.5 387.9 L 1352.0 387.9 L 1352.0 379.7 L 1353.3 379.7 L 1353.4 380.8 Q 1354.5 379.5, 1356.3 379.5 " fill="#000000"/>
<path class="legend" d="M 1360.3 380.8 L 1360.3 379.7 L 1361.8 379.7 L 1362.1 377.3 L 1363.2 377.3 L 1363.2 379.7 L 1365.7 379.7 L 1365.7 380.8 L 1363.2 380.8 L 1363.2 385.4 Q 1363.2 386.8, 1364.4 386.8 Q 1364.9 386.8, 1365.6 386.6 L 1365.8 387.6 Q 1365.0 388.0, 1364.1 388.0 Q 1363.1 388.0, 1362.4 387.3 Q 1361.7 386.7, 1361.7 385.4 L 1361.7 380.8 L 1360.3 380.8 " fill="#000000"/>
<path class="legend" d="M 1374.4 388.7 L 1374.4 390.0 L 1366.2 390.0 L 1366.2 388.7 L 1374.4 388.7 " fill="#000000"/>
<path class="legend" d="M 1381.9 375.7 L 1381.9 387.9 L 1380.7 387.9 L 1380.4 386.9 Q 1379.5 388.0, 1378.0 388.0 Q 1376.3 388.0, 1375.3 387.0 Q 1374.4 385.9, 1374.4 383.9 Q 1374.4 381.8, 1375.5 380.7 Q 1376.7 379.5, 1378.6 379.5 Q 1379.5 379.5, 1380.4 379.7 L 1380.4 375.7 L 1381.9 375.7 M 1378.1 386.8 Q 1378.9 386.8, 1379.5 386.4 Q 1380.1 385.9, 1380.4 385.1 L 1380.4 380.9 Q 1379.5 380.7, 1378.6 380.7 Q 1377.4 380.7, 1376.7 381.6 Q 1375.9 382.4, 1375.9 383.9 Q 1375.9 385.3, 1376.5 386.1 Q 1377.1 386.8, 1378.1 386.8 " fill="#000000"/>
<path class="legend" d="M 1383.1 376.6 L 1384.6 376.6 L 1384.6 378.0 L 1383.1 378.0 L 1383.1 376.6 M 1383.1 379.7 L 1384.6 379.7 L 1384.6 387.9 L 1383.1 387.9 L 1383.1 379.7 " fill="#000000"/>
<path class="legend" d="M 1386.5 386.2 Q 1387.2 386.5, 1387.7 386.6 Q 1388.2 386.8, 1388.8 386.8 Q 1389.5 386.8, 1389.9 386.5 Q 1390.3 386.2, 1390.3 385.6 Q 1390.3 385.2, 1390.1 385.0 Q 1389.9 384.8, 1389.6 384.6 Q 1389.4 384.5, 1388.6 384.3 Q 1388.5 384.3, 1387.8 384.0 Q 1387.1 383.7, 1386.7 383.2 Q 1386.3 382.7, 1386.3 381.9 Q 1386.3 380.9, 1387.0 380.2 Q 1387.8 379.5, 1389.3 379.5 Q 1389.9 379.5, 1390.5 379.7 Q 1391.0 379.8, 1391.6 380.0 L 1391.2 381.2 Q 1390.7 381.0, 1390.2 380.9 Q 1389.8 380.8, 1389.3 380.8 Q 1388.5 380.8, 1388.2 381.1 Q 1387.8 381.4, 1387.8 381.8 Q 1387.8 382.3, 1388.1 382.5 Q 1388.4 382.7, 1389.1 383.0 Q 1389.2 383.0, 1389.4 383.1 L 1389.8 383.2 Q 1390.4 383.4, 1390.8 383.7 Q 1391.2 383.9, 1391.5 384.4 Q 1391.8 384.8, 1391.8 385.6 Q 1391.8 386.7, 1391.0 387.4 Q 1390.1 388.0, 1388.8 388.0 Q 1388.0 388.0, 1387.3 387.9 Q 1386.7 387.7, 1386.0 387.4 L 1386.5 386.2 " fill="#000000"/>
<path class="legend" d="M 1392.7 380.8 L 1392.7 379.7 L 1394.2 379.7 L 1394.5 377.3 L 1395.6 377.3 L 1395.6 379.7 L 1398.1 379.7 L 1398.1 380.8 L 1395.6 380.8 L 1395.6 385.4 Q 1395.6 386.8, 1396.8 386.8 Q 1397.3 386.8, 1398.0 386.6 L 1398.3 387.6 Q 1397.4 388.0, 1396.5 388.0 Q 1395.5 388.0, 1394.8 387.3 Q 1394.1 386.7, 1394.1 385.4 L 1394.1 380.8 L 1392.7 380.8 " fill="#000000"/>
<path class="legend" d="" fill="#000000"/>
<path class="legend" d="M 1404.0 380.9 L 1411.3 380.9 L 1411.3 382.1 L 1404.0 382.1 L 1404.0 380.9 M 1404.0 384.4 L 1411.3 384.4 L 1411.3 385.5 L 1404.0 385.5 L 1404.0 384.4 " fill="#000000"/>
<path class="legend" d="" fill="#000000"/>
<path class="legend" d="M 1418.7 386.6 L 1421.2 386.6 L 1421.2 378.1 L 1418.5 379.0 L 1418.1 378.0 L 1421.6 376.5 L 1422.7 376.7 L 1422.7 386.6 L 1424.9 386.6 L 1424.9 387.9 L 1418.7 387.9 L 1418.7 386.6 " fill="#000000"/>
<path class="legend" d="M 1425.6 386.3 L 1427.2 386.3 L 1427.2 387.9 L 1425.6 387.9 L 1425.6 386.3 " fill="#000000"/>
<path class="legend" d="M 1433.7 381.9 Q 1434.8 382.2, 1435.3 383.0 Q 1435.9 383.7, 1435.9 384.8 Q 1435.9 385.7, 1435.4 386.5 Q 1434.9 387.2, 1434.0 387.6 Q 1433.1 388.0, 1432.0 388.0 Q 1430.8 388.0, 1429.9 387.6 Q 1429.0 387.2, 1428.2 386.3 L 1429.2 385.4 Q 1429.9 386.2, 1430.5 386.5 Q 1431.0 386.8, 1432.0 386.8 Q 1433.0 386.8, 1433.6 386.2 Q 1434.3 385.7, 1434.3 384.8 Q 1434.3 383.6, 1433.6 383.1 Q 1433.0 382.6, 1431.6 382.6 L 1430.8 382.6 L 1430.8 381.4 L 1431.5 381.4 Q 1432.7 381.4, 1433.4 380.9 Q 1434.0 380.3, 1434.0 379.3 Q 1434.0 378.6, 1433.5 378.2 Q 1432.9 377.7, 1432.0 377.7 Q 1431.1 377.7, 1430.5 378.0 Q 1429.9 378.4, 1429.4 379.2 L 1428.3 378.6 Q 1428.7 377.7, 1429.7 377.1 Q 1430.7 376.4, 1432.0 376.4 Q 1433.7 376.4, 1434.6 377.2 Q 1435.6 378.0, 1435.6 379.3 Q 1435.6 380.2, 1435.1 380.9 Q 1434.6 381.6, 1433.7 381.9 " fill="#000000"/>
<path class="legend" d="M 1444.2 384.0 L 1445.5 384.0 L 1445.5 385.3 L 1444.2 385.3 L 1444.2 387.9 L 1442.7 387.9 L 1442.7 385.3 L 1436.8 385.3 L 1436.8 384.3 L 1441.8 376.6 L 1444.2 376.6 L 1444.2 384.0 M 1438.7 384.0 L 1442.7 384.0 L 1442.7 377.6 L 1438.7 384.0 " fill="#000000"/>
<path class="legend" d="M 1450.4 380.8 Q 1451.4 380.8, 1452.2 381.2 Q 1453.0 381.6, 1453.5 382.4 Q 1454.0 383.2, 1454.0 384.3 Q 1454.0 385.5, 1453.4 386.3 Q 1452.8 387.2, 1451.9 387.6 Q 1451.0 388.0, 1449.9 388.0 Q 1448.9 388.0, 1447.9 387.6 Q 1447.0 387.2, 1446.3 386.5 L 1447.3 385.5 Q 1447.8 386.1, 1448.5 386.4 Q 1449.2 386.7, 1450.0 386.7 Q 1451.0 386.7, 1451.7 386.1 Q 1452.4 385.5, 1452.4 384.3 Q 1452.4 383.1, 1451.7 382.6 Q 1451.0 382.0, 1449.9 382.0 Q 1448.9 382.0, 1447.8 382.4 L 1446.9 382.0 L 1447.4 376.6 L 1453.3 376.6 L 1453.1 377.8 L 1448.8 377.8 L 1448.4 381.2 Q 1449.4 380.8, 1450.4 380.8 " fill="#000000"/>
<path class="legend" d="M 1458.9 388.0 Q 1456.8 388.0, 1455.8 386.5 Q 1454.7 384.9, 1454.7 382.2 Q 1454.7 379.5, 1455.8 378.0 Q 1456.8 376.4, 1458.9 376.4 Q 1461.0 376.4, 1462.0 378.0 Q 1463.0 379.5, 1463.0 382.2 Q 1463.0 384.9, 1462.0 386.5 Q 1461.0 388.0, 1458.9 388.0 M 1458.9 386.7 Q 1460.1 386.7, 1460.8 385.6 Q 1461.4 384.4, 1461.4 382.2 Q 1461.4 380.0, 1460.8 378.8 Q 1460.1 377.7, 1458.9 377.7 Q 1457.7 377.7, 1457.0 378.8 Q 1456.3 380.0, 1456.3 382.2 Q 1456.3 384.4, 1457.0 385.6 Q 1457.7 386.7, 1458.9 386.7 " fill="#000000"/>
</svg>