<svg xmlns="http://www.w3.org/2000/svg" xmlns:rdkit="http://www.rdkit.org/xml" xmlns:xlink="http://www.w3.org/1999/xlink" version="1.1" baseProfile="full" xml:space="preserve" width="2000px" height="400px" viewBox="0 0 2000 400">
<!-- END OF HEADER -->
<rect style="opacity:1.0;fill:#FFFFFF;stroke:none" width="2000.0" height="400.0" x="0.0" y="0.0"> </rect>
<path class="bond-0 atom-0 atom-1" d="M 171.0,117.7 L 209.4,140.2" style="fill:none;fill-rule:evenodd;stroke:#000000;stroke-width:2.0px;stroke-linecap:butt;stroke-linejoin:miter;stroke-opacity:1"/>
<path class="bond-1 atom-1 atom-2" d="M 209.4,140.2 L 213.8,184.6" style="fill:none;fill-rule:evenodd;stroke:#000000;stroke-width:2.0px;stroke-linecap:butt;stroke-linejoin:miter;stroke-opacity:1"/>
<path class="bond-1 atom-1 atom-2" d="M 218.9,146.0 L 222.0,177.0" style="fill:none;fill-rule:evenodd;stroke:#000000;stroke-width:2.0px;stroke-linecap:butt;stroke-linejoin:miter;stroke-opacity:1"/>
<path class="bond-2 atom-2 atom-3" d="M 213.8,184.6 L 200.7,196.1" style="fill:none;fill-rule:evenodd;stroke:#000000;stroke-width:2.0px;stroke-linecap:butt;stroke-linejoin:miter;stroke-opacity:1"/>
<path class="bond-2 atom-2 atom-3" d="M 200.7,196.1 L 187.7,207.7" style="fill:none;fill-rule:evenodd;stroke:#FF0000;stroke-width:2.0px;stroke-linecap:butt;stroke-linejoin:miter;stroke-opacity:1"/>
<path class="bond-3 atom-3 atom-4" d="M 173.2,211.7 L 159.0,207.0" style="fill:none;fill-rule:evenodd;stroke:#FF0000;stroke-width:2.0px;stroke-linecap:butt;stroke-linejoin:miter;stroke-opacity:1"/>
<path class="bond-3 atom-3 atom-4" d="M 159.0,207.0 L 144.9,202.3" style="fill:none;fill-rule:evenodd;stroke:#000000;stroke-width:2.0px;stroke-linecap:butt;stroke-linejoin:miter;stroke-opacity:1"/>
<path class="bond-4 atom-4 atom-5" d="M 135.5,208.2 L 124.1,242.3" style="fill:none;fill-rule:evenodd;stroke:#000000;stroke-width:2.0px;stroke-linecap:butt;stroke-linejoin:miter;stroke-opacity:1"/>
<path class="bond-5 atom-4 atom-6" d="M 140.7,192.3 L 152.2,157.8" style="fill:none;fill-rule:evenodd;stroke:#000000;stroke-width:2.0px;stroke-linecap:butt;stroke-linejoin:miter;stroke-opacity:1"/>
<path class="bond-6 atom-4 atom-7" d="M 131.4,197.8 L 95.9,186.0" style="fill:none;fill-rule:evenodd;stroke:#000000;stroke-width:2.0px;stroke-linecap:butt;stroke-linejoin:miter;stroke-opacity:1"/>
<path class="bond-7 atom-7 atom-8" d="M 95.9,186.0 L 110.0,143.7" style="fill:none;fill-rule:evenodd;stroke:#000000;stroke-width:2.0px;stroke-linecap:butt;stroke-linejoin:miter;stroke-opacity:1"/>
<path class="bond-8 atom-7 atom-9" d="M 95.9,186.0 L 81.8,228.3" style="fill:none;fill-rule:evenodd;stroke:#000000;stroke-width:2.0px;stroke-linecap:butt;stroke-linejoin:miter;stroke-opacity:1"/>
<path class="bond-9 atom-7 atom-10" d="M 95.9,186.0 L 53.6,171.9" style="fill:none;fill-rule:evenodd;stroke:#000000;stroke-width:2.0px;stroke-linecap:butt;stroke-linejoin:miter;stroke-opacity:1"/>
<path class="bond-10 atom-2 atom-11" d="M 213.8,184.6 L 257.3,194.1" style="fill:none;fill-rule:evenodd;stroke:#000000;stroke-width:2.0px;stroke-linecap:butt;stroke-linejoin:miter;stroke-opacity:1"/>
<path class="bond-11 atom-11 atom-12" d="M 257.3,194.1 L 279.3,232.9" style="fill:none;fill-rule:evenodd;stroke:#000000;stroke-width:2.0px;stroke-linecap:butt;stroke-linejoin:miter;stroke-opacity:1"/>
<path class="bond-11 atom-11 atom-12" d="M 268.3,195.6 L 283.7,222.7" style="fill:none;fill-rule:evenodd;stroke:#000000;stroke-width:2.0px;stroke-linecap:butt;stroke-linejoin:miter;stroke-opacity:1"/>
<path class="bond-12 atom-12 atom-13" d="M 279.3,232.9 L 323.8,233.2" style="fill:none;fill-rule:evenodd;stroke:#000000;stroke-width:2.0px;stroke-linecap:butt;stroke-linejoin:miter;stroke-opacity:1"/>
<path class="bond-13 atom-13 atom-14" d="M 323.8,233.2 L 346.4,194.8" style="fill:none;fill-rule:evenodd;stroke:#000000;stroke-width:2.0px;stroke-linecap:butt;stroke-linejoin:miter;stroke-opacity:1"/>
<path class="bond-13 atom-13 atom-14" d="M 319.5,222.9 L 335.3,196.0" style="fill:none;fill-rule:evenodd;stroke:#000000;stroke-width:2.0px;stroke-linecap:butt;stroke-linejoin:miter;stroke-opacity:1"/>
<path class="bond-14 atom-14 atom-15" d="M 346.4,194.8 L 324.4,156.0" style="fill:none;fill-rule:evenodd;stroke:#000000;stroke-width:2.0px;stroke-linecap:butt;stroke-linejoin:miter;stroke-opacity:1"/>
<path class="bond-15 atom-15 atom-16" d="M 324.4,156.0 L 279.8,155.7" style="fill:none;fill-rule:evenodd;stroke:#000000;stroke-width:2.0px;stroke-linecap:butt;stroke-linejoin:miter;stroke-opacity:1"/>
<path class="bond-15 atom-15 atom-16" d="M 317.6,164.9 L 286.5,164.7" style="fill:none;fill-rule:evenodd;stroke:#000000;stroke-width:2.0px;stroke-linecap:butt;stroke-linejoin:miter;stroke-opacity:1"/>
<path class="bond-16 atom-16 atom-17" d="M 279.8,155.7 L 250.3,122.4" style="fill:none;fill-rule:evenodd;stroke:#000000;stroke-width:2.0px;stroke-linecap:butt;stroke-linejoin:miter;stroke-opacity:1"/>
<path class="bond-17 atom-17 atom-1" d="M 250.3,122.4 L 209.4,140.2" style="fill:none;fill-rule:evenodd;stroke:#000000;stroke-width:2.0px;stroke-linecap:butt;stroke-linejoin:miter;stroke-opacity:1"/>
<path class="bond-18 atom-16 atom-11" d="M 279.8,155.7 L 257.3,194.1" style="fill:none;fill-rule:evenodd;stroke:#000000;stroke-width:2.0px;stroke-linecap:butt;stroke-linejoin:miter;stroke-opacity:1"/>
<path class="atom-3" d="M 174.6 214.2 Q 174.6 211.1, 176.1 209.5 Q 177.6 207.8, 180.4 207.8 Q 183.2 207.8, 184.7 209.5 Q 186.2 211.1, 186.2 214.2 Q 186.2 217.2, 184.7 219.0 Q 183.2 220.7, 180.4 220.7 Q 177.7 220.7, 176.1 219.0 Q 174.6 217.3, 174.6 214.2 M 180.4 219.3 Q 182.4 219.3, 183.4 218.0 Q 184.4 216.7, 184.4 214.2 Q 184.4 211.7, 183.4 210.5 Q 182.4 209.2, 180.4 209.2 Q 178.5 209.2, 177.5 210.4 Q 176.4 211.7, 176.4 214.2 Q 176.4 216.7, 177.5 218.0 Q 178.5 219.3, 180.4 219.3 " fill="#FF0000"/>
<path class="atom-4" d="M 133.4 204.4 Q 133.5 204.5, 134.1 204.7 Q 134.7 205.0, 135.3 205.1 Q 136.0 205.3, 136.6 205.3 Q 137.8 205.3, 138.5 204.7 Q 139.2 204.1, 139.2 203.1 Q 139.2 202.4, 138.8 202.0 Q 138.5 201.5, 138.0 201.3 Q 137.4 201.1, 136.5 200.8 Q 135.4 200.5, 134.7 200.2 Q 134.1 199.8, 133.6 199.2 Q 133.1 198.5, 133.1 197.3 Q 133.1 195.8, 134.2 194.8 Q 135.3 193.8, 137.4 193.8 Q 138.9 193.8, 140.6 194.5 L 140.1 195.9 Q 138.6 195.2, 137.5 195.2 Q 136.3 195.2, 135.6 195.8 Q 134.9 196.2, 134.9 197.1 Q 134.9 197.8, 135.3 198.2 Q 135.6 198.6, 136.1 198.9 Q 136.6 199.1, 137.5 199.4 Q 138.6 199.7, 139.3 200.1 Q 140.0 200.4, 140.5 201.2 Q 141.0 201.9, 141.0 203.1 Q 141.0 204.8, 139.8 205.8 Q 138.6 206.7, 136.7 206.7 Q 135.6 206.7, 134.7 206.5 Q 133.9 206.2, 132.9 205.8 L 133.4 204.4 " fill="#000000"/>
<path class="atom-4" d="M 141.8 193.8 L 143.4 193.8 L 143.4 195.3 L 141.8 195.3 L 141.8 193.8 M 141.8 197.2 L 143.4 197.2 L 143.4 206.4 L 141.8 206.4 L 141.8 197.2 " fill="#000000"/>
<path class="legend" d="M 167.8 365.4 L 168.0 366.5 Q 168.8 365.3, 170.2 365.3 Q 170.7 365.3, 171.3 365.4 L 171.0 366.8 Q 170.4 366.6, 170.0 366.6 Q 169.3 366.6, 168.8 366.9 Q 168.4 367.1, 168.1 367.8 L 168.1 373.6 L 166.6 373.6 L 166.6 365.4 L 167.8 365.4 " fill="#000000"/>
<path class="legend" d="M 171.5 369.5 Q 171.5 367.5, 172.5 366.4 Q 173.5 365.3, 175.4 365.3 Q 177.2 365.3, 178.0 366.4 Q 178.8 367.4, 178.8 369.5 L 178.8 369.7 L 173.1 369.7 Q 173.1 371.1, 173.7 371.8 Q 174.3 372.6, 175.5 372.6 Q 176.1 372.6, 176.7 372.4 Q 177.3 372.3, 178.0 372.0 L 178.5 373.0 Q 177.7 373.4, 176.9 373.6 Q 176.2 373.8, 175.4 373.8 Q 173.6 373.8, 172.5 372.6 Q 171.5 371.5, 171.5 369.5 M 175.4 366.4 Q 174.4 366.4, 173.9 367.0 Q 173.3 367.5, 173.1 368.6 L 177.2 368.6 Q 177.1 367.5, 176.7 367.0 Q 176.2 366.4, 175.4 366.4 " fill="#000000"/>
<path class="legend" d="M 179.4 371.4 Q 179.4 370.1, 180.5 369.4 Q 181.5 368.7, 183.5 368.7 L 184.7 368.7 L 184.7 368.3 Q 184.7 367.3, 184.2 366.9 Q 183.8 366.4, 182.8 366.4 Q 182.1 366.4, 181.6 366.6 Q 181.1 366.7, 180.3 367.0 L 179.9 366.0 Q 181.4 365.3, 182.8 365.3 Q 184.6 365.3, 185.4 366.0 Q 186.2 366.8, 186.2 368.4 L 186.2 373.6 L 185.0 373.6 Q 185.0 373.6, 184.9 373.3 Q 184.9 373.1, 184.8 372.7 Q 183.6 373.8, 182.1 373.8 Q 180.9 373.8, 180.1 373.2 Q 179.4 372.5, 179.4 371.4 M 180.9 371.4 Q 180.9 372.0, 181.3 372.3 Q 181.7 372.6, 182.4 372.6 Q 183.0 372.6, 183.6 372.4 Q 184.3 372.0, 184.7 371.5 L 184.7 369.8 L 183.6 369.8 Q 182.2 369.8, 181.6 370.2 Q 180.9 370.6, 180.9 371.4 " fill="#000000"/>
<path class="legend" d="M 187.4 369.5 Q 187.4 367.5, 188.4 366.4 Q 189.4 365.3, 191.3 365.3 Q 193.2 365.3, 194.2 366.6 L 193.2 367.4 Q 192.8 366.9, 192.4 366.7 Q 191.9 366.4, 191.3 366.4 Q 190.2 366.4, 189.6 367.2 Q 188.9 368.0, 188.9 369.5 Q 188.9 371.0, 189.6 371.8 Q 190.2 372.6, 191.4 372.6 Q 192.1 372.6, 192.6 372.4 Q 193.0 372.3, 193.6 372.0 L 194.0 373.0 Q 192.8 373.7, 191.3 373.7 Q 189.4 373.7, 188.4 372.6 Q 187.4 371.5, 187.4 369.5 " fill="#000000"/>
<path class="legend" d="M 194.6 366.6 L 194.6 365.4 L 196.1 365.4 L 196.4 363.0 L 197.5 363.0 L 197.5 365.4 L 200.0 365.4 L 200.0 366.6 L 197.5 366.6 L 197.5 371.1 Q 197.5 372.5, 198.7 372.5 Q 199.2 372.5, 199.9 372.3 L 200.2 373.4 Q 199.3 373.7, 198.4 373.7 Q 197.4 373.7, 196.7 373.1 Q 196.0 372.4, 196.0 371.2 L 196.0 366.6 L 194.6 366.6 " fill="#000000"/>
<path class="legend" d="M 208.7 374.4 L 208.7 375.7 L 200.6 375.7 L 200.6 374.4 L 208.7 374.4 " fill="#000000"/>
<path class="legend" d="M 214.2 367.7 Q 215.3 368.0, 215.8 368.7 Q 216.3 369.4, 216.3 370.5 Q 216.3 371.5, 215.9 372.2 Q 215.4 373.0, 214.5 373.4 Q 213.6 373.8, 212.5 373.8 Q 211.2 373.8, 210.3 373.4 Q 209.4 372.9, 208.7 372.1 L 209.6 371.2 Q 210.3 371.9, 210.9 372.2 Q 211.5 372.5, 212.5 372.5 Q 213.5 372.5, 214.1 372.0 Q 214.7 371.4, 214.7 370.5 Q 214.7 369.4, 214.1 368.8 Q 213.4 368.3, 212.0 368.3 L 211.2 368.3 L 211.2 367.2 L 212.0 367.2 Q 213.2 367.2, 213.8 366.6 Q 214.5 366.1, 214.5 365.1 Q 214.5 364.3, 214.0 363.9 Q 213.4 363.5, 212.5 363.5 Q 211.5 363.5, 210.9 363.8 Q 210.4 364.1, 209.9 365.0 L 208.8 364.4 Q 209.2 363.4, 210.2 362.8 Q 211.1 362.2, 212.5 362.2 Q 214.1 362.2, 215.1 363.0 Q 216.1 363.7, 216.1 365.1 Q 216.1 366.0, 215.6 366.6 Q 215.1 367.3, 214.2 367.7 " fill="#000000"/>
<path class="legend" d="M 221.4 373.8 Q 219.3 373.8, 218.3 372.2 Q 217.3 370.7, 217.3 368.0 Q 217.3 365.2, 218.3 363.7 Q 219.3 362.2, 221.4 362.2 Q 223.5 362.2, 224.5 363.7 Q 225.6 365.2, 225.6 368.0 Q 225.6 370.7, 224.5 372.2 Q 223.5 373.8, 221.4 373.8 M 221.4 372.5 Q 222.7 372.5, 223.3 371.3 Q 224.0 370.2, 224.0 368.0 Q 224.0 365.7, 223.3 364.6 Q 222.7 363.5, 221.4 363.5 Q 220.2 363.5, 219.5 364.6 Q 218.9 365.7, 218.9 368.0 Q 218.9 370.2, 219.5 371.3 Q 220.2 372.5, 221.4 372.5 " fill="#000000"/>
<path class="legend" d="M 227.2 372.4 L 229.7 372.4 L 229.7 363.9 L 227.0 364.7 L 226.6 363.8 L 230.1 362.2 L 231.2 362.4 L 231.2 372.4 L 233.4 372.4 L 233.4 373.6 L 227.2 373.6 L 227.2 372.4 " fill="#000000"/>
<path class="legend" d="M 138.5 383.8 Q 138.5 381.8, 139.5 380.7 Q 140.5 379.5, 142.4 379.5 Q 144.3 379.5, 145.3 380.9 L 144.3 381.6 Q 143.9 381.2, 143.4 380.9 Q 143.0 380.7, 142.4 380.7 Q 141.3 380.7, 140.6 381.5 Q 140.0 382.3, 140.0 383.8 Q 140.0 385.3, 140.7 386.1 Q 141.3 386.8, 142.5 386.8 Q 143.2 386.8, 143.6 386.7 Q 144.1 386.5, 144.7 386.3 L 145.1 387.3 Q 143.9 388.0, 142.4 388.0 Q 140.5 388.0, 139.5 386.9 Q 138.5 385.7, 138.5 383.8 " fill="#000000"/>
<path class="legend" d="M 145.6 383.8 Q 145.6 381.7, 146.7 380.6 Q 147.7 379.5, 149.5 379.5 Q 151.3 379.5, 152.1 380.6 Q 152.9 381.7, 152.9 383.7 L 152.9 384.0 L 147.2 384.0 Q 147.2 385.4, 147.8 386.1 Q 148.5 386.8, 149.6 386.8 Q 150.3 386.8, 150.9 386.7 Q 151.5 386.5, 152.2 386.2 L 152.6 387.2 Q 151.8 387.6, 151.1 387.8 Q 150.3 388.0, 149.5 388.0 Q 147.7 388.0, 146.7 386.9 Q 145.6 385.8, 145.6 383.8 M 149.5 380.7 Q 148.6 380.7, 148.0 381.2 Q 147.4 381.8, 147.2 382.8 L 151.3 382.8 Q 151.2 381.7, 150.8 381.2 Q 150.3 380.7, 149.5 380.7 " fill="#000000"/>
<path class="legend" d="M 157.8 379.5 Q 159.1 379.5, 159.8 380.3 Q 160.5 381.0, 160.5 382.4 L 160.5 387.9 L 159.0 387.9 L 159.0 382.6 Q 159.0 381.6, 158.6 381.2 Q 158.3 380.7, 157.4 380.7 Q 156.7 380.7, 156.1 381.1 Q 155.4 381.4, 155.0 382.0 L 155.0 387.9 L 153.5 387.9 L 153.5 379.7 L 154.8 379.7 L 154.9 380.8 Q 156.0 379.5, 157.8 379.5 " fill="#000000"/>
<path class="legend" d="M 161.8 380.8 L 161.8 379.7 L 163.3 379.7 L 163.6 377.3 L 164.7 377.3 L 164.7 379.7 L 167.2 379.7 L 167.2 380.8 L 164.7 380.8 L 164.7 385.4 Q 164.7 386.8, 165.9 386.8 Q 166.4 386.8, 167.1 386.6 L 167.3 387.6 Q 166.5 388.0, 165.6 388.0 Q 164.6 388.0, 163.9 387.3 Q 163.2 386.7, 163.2 385.4 L 163.2 380.8 L 161.8 380.8 " fill="#000000"/>
<path class="legend" d="M 175.9 388.7 L 175.9 390.0 L 167.7 390.0 L 167.7 388.7 L 175.9 388.7 " fill="#000000"/>
<path class="legend" d="M 183.4 375.7 L 183.4 387.9 L 182.2 387.9 L 181.9 386.9 Q 181.0 388.0, 179.5 388.0 Q 177.8 388.0, 176.8 387.0 Q 175.9 385.9, 175.9 383.9 Q 175.9 381.8, 177.0 380.7 Q 178.2 379.5, 180.1 379.5 Q 181.0 379.5, 181.9 379.7 L 181.9 375.7 L 183.4 375.7 M 179.6 386.8 Q 180.4 386.8, 181.0 386.4 Q 181.6 385.9, 181.9 385.1 L 181.9 380.9 Q 181.1 380.7, 180.1 380.7 Q 178.9 380.7, 178.2 381.6 Q 177.4 382.4, 177.4 383.9 Q 177.4 385.3, 178.0 386.1 Q 178.6 386.8, 179.6 386.8 " fill="#000000"/>
<path class="legend" d="M 184.7 376.6 L 186.1 376.6 L 186.1 378.0 L 184.7 378.0 L 184.7 376.6 M 184.7 379.7 L 186.1 379.7 L 186.1 387.9 L 184.7 387.9 L 184.7 379.7 " fill="#000000"/>
<path class="legend" d="M 188.0 386.2 Q 188.7 386.5, 189.2 386.6 Q 189.7 386.8, 190.3 386.8 Q 191.0 386.8, 191.4 386.5 Q 191.8 386.2, 191.8 385.6 Q 191.8 385.2, 191.6 385.0 Q 191.4 384.8, 191.1 384.6 Q 190.9 384.5, 190.1 384.3 Q 190.0 384.3, 189.3 384.0 Q 188.6 383.7, 188.2 383.2 Q 187.8 382.7, 187.8 381.9 Q 187.8 380.9, 188.5 380.2 Q 189.3 379.5, 190.8 379.5 Q 191.4 379.5, 192.0 379.7 Q 192.5 379.8, 193.1 380.0 L 192.7 381.2 Q 192.2 381.0, 191.7 380.9 Q 191.3 380.8, 190.8 380.8 Q 190.0 380.8, 189.7 381.1 Q 189.3 381.4, 189.3 381.8 Q 189.3 382.3, 189.6 382.5 Q 189.9 382.7, 190.6 383.0 Q 190.7 383.0, 190.9 383.1 L 191.3 383.2 Q 191.9 383.4, 192.3 383.7 Q 192.7 383.9, 193.0 384.4 Q 193.3 384.8, 193.3 385.6 Q 193.3 386.7, 192.5 387.4 Q 191.6 388.0, 190.3 388.0 Q 189.5 388.0, 188.8 387.9 Q 188.2 387.7, 187.5 387.4 L 188.0 386.2 " fill="#000000"/>
<path class="legend" d="M 194.2 380.8 L 194.2 379.7 L 195.7 379.7 L 196.0 377.3 L 197.1 377.3 L 197.1 379.7 L 199.6 379.7 L 199.6 380.8 L 197.1 380.8 L 197.1 385.4 Q 197.1 386.8, 198.3 386.8 Q 198.8 386.8, 199.5 386.6 L 199.8 387.6 Q 198.9 388.0, 198.0 388.0 Q 197.0 388.0, 196.3 387.3 Q 195.6 386.7, 195.6 385.4 L 195.6 380.8 L 194.2 380.8 " fill="#000000"/>
<path class="legend" d="" fill="#000000"/>
<path class="legend" d="M 205.5 380.9 L 212.8 380.9 L 212.8 382.1 L 205.5 382.1 L 205.5 380.9 M 205.5 384.4 L 212.8 384.4 L 212.8 385.5 L 205.5 385.5 L 205.5 384.4 " fill="#000000"/>
<path class="legend" d="" fill="#000000"/>
<path class="legend" d="M 220.2 386.6 L 222.7 386.6 L 222.7 378.1 L 220.0 379.0 L 219.6 378.0 L 223.1 376.5 L 224.2 376.7 L 224.2 386.6 L 226.4 386.6 L 226.4 387.9 L 220.2 387.9 L 220.2 386.6 " fill="#000000"/>
<path class="legend" d="M 227.1 386.3 L 228.7 386.3 L 228.7 387.9 L 227.1 387.9 L 227.1 386.3 " fill="#000000"/>
<path class="legend" d="M 230.4 386.6 L 232.9 386.6 L 232.9 378.1 L 230.1 379.0 L 229.7 378.0 L 233.2 376.5 L 234.4 376.7 L 234.4 386.6 L 236.6 386.6 L 236.6 387.9 L 230.4 387.9 L 230.4 386.6 " fill="#000000"/>
<path class="legend" d="M 241.4 380.8 Q 242.4 380.8, 243.2 381.2 Q 244.0 381.6, 244.5 382.4 Q 244.9 383.2, 244.9 384.3 Q 244.9 385.5, 244.3 386.3 Q 243.8 387.2, 242.9 387.6 Q 241.9 388.0, 240.9 388.0 Q 239.8 388.0, 238.9 387.6 Q 237.9 387.2, 237.3 386.5 L 238.2 385.5 Q 238.7 386.1, 239.5 386.4 Q 240.2 386.7, 240.9 386.7 Q 241.9 386.7, 242.6 386.1 Q 243.3 385.5, 243.3 384.3 Q 243.3 383.1, 242.6 382.6 Q 241.9 382.0, 240.8 382.0 Q 239.8 382.0, 238.7 382.4 L 237.8 382.0 L 238.4 376.6 L 244.2 376.6 L 244.1 377.8 L 239.7 377.8 L 239.4 381.2 Q 240.4 380.8, 241.4 380.8 " fill="#000000"/>
<path class="legend" d="M 251.6 377.8 L 245.7 377.8 L 245.7 376.6 L 253.2 376.6 L 253.2 377.7 L 248.6 387.9 L 247.1 387.9 L 251.6 377.8 " fill="#000000"/>
<path class="legend" d="M 257.5 376.4 Q 259.5 376.4, 260.5 377.8 Q 261.5 379.2, 261.5 381.9 Q 261.5 384.9, 260.3 386.5 Q 259.0 388.0, 256.6 388.0 Q 255.9 388.0, 255.3 387.9 Q 254.7 387.7, 254.1 387.4 L 254.7 386.3 Q 255.6 386.7, 256.6 386.7 Q 258.2 386.7, 259.0 385.7 Q 259.8 384.7, 259.9 382.5 Q 259.3 383.1, 258.6 383.4 Q 257.9 383.6, 257.1 383.6 Q 256.1 383.6, 255.3 383.2 Q 254.5 382.8, 254.1 382.0 Q 253.7 381.2, 253.7 380.2 Q 253.7 379.1, 254.1 378.3 Q 254.6 377.4, 255.5 376.9 Q 256.4 376.4, 257.5 376.4 M 255.3 380.2 Q 255.3 381.2, 255.8 381.8 Q 256.4 382.4, 257.4 382.4 Q 258.1 382.4, 258.7 382.1 Q 259.4 381.8, 259.9 381.3 Q 259.8 379.4, 259.3 378.6 Q 258.7 377.7, 257.5 377.7 Q 256.9 377.7, 256.3 378.1 Q 255.8 378.4, 255.6 378.9 Q 255.3 379.5, 255.3 380.2 " fill="#000000"/>
<path class="bond-0 atom-0 atom-1" d="M 718.0,152.6 L 704.0,110.3" style="fill:none;fill-rule:evenodd;stroke:#000000;stroke-width:2.0px;stroke-linecap:butt;stroke-linejoin:miter;stroke-opacity:1"/>
<path class="bond-1 atom-1 atom-2" d="M 704.0,110.3 L 690.1,68.0" style="fill:none;fill-rule:evenodd;stroke:#000000;stroke-width:2.0px;stroke-linecap:butt;stroke-linejoin:miter;stroke-opacity:1"/>
<path class="bond-2 atom-1 atom-3" d="M 704.0,110.3 L 746.4,96.4" style="fill:none;fill-rule:evenodd;stroke:#000000;stroke-width:2.0px;stroke-linecap:butt;stroke-linejoin:miter;stroke-opacity:1"/>
<path class="bond-3 atom-1 atom-4" d="M 704.0,110.3 L 668.5,122.0" style="fill:none;fill-rule:evenodd;stroke:#000000;stroke-width:2.0px;stroke-linecap:butt;stroke-linejoin:miter;stroke-opacity:1"/>
<path class="bond-4 atom-4 atom-5" d="M 659.2,116.5 L 647.8,81.9" style="fill:none;fill-rule:evenodd;stroke:#000000;stroke-width:2.0px;stroke-linecap:butt;stroke-linejoin:miter;stroke-opacity:1"/>
<path class="bond-5 atom-4 atom-6" d="M 664.4,132.4 L 675.7,166.6" style="fill:none;fill-rule:evenodd;stroke:#000000;stroke-width:2.0px;stroke-linecap:butt;stroke-linejoin:miter;stroke-opacity:1"/>
<path class="bond-6 atom-4 atom-7" d="M 655.0,126.5 L 640.8,131.2" style="fill:none;fill-rule:evenodd;stroke:#000000;stroke-width:2.0px;stroke-linecap:butt;stroke-linejoin:miter;stroke-opacity:1"/>
<path class="bond-6 atom-4 atom-7" d="M 640.8,131.2 L 626.7,135.8" style="fill:none;fill-rule:evenodd;stroke:#FF0000;stroke-width:2.0px;stroke-linecap:butt;stroke-linejoin:miter;stroke-opacity:1"/>
<path class="bond-7 atom-7 atom-8" d="M 617.7,146.3 L 614.0,164.0" style="fill:none;fill-rule:evenodd;stroke:#FF0000;stroke-width:2.0px;stroke-linecap:butt;stroke-linejoin:miter;stroke-opacity:1"/>
<path class="bond-7 atom-7 atom-8" d="M 614.0,164.0 L 610.3,181.8" style="fill:none;fill-rule:evenodd;stroke:#000000;stroke-width:2.0px;stroke-linecap:butt;stroke-linejoin:miter;stroke-opacity:1"/>
<path class="bond-8 atom-8 atom-9" d="M 610.3,181.8 L 569.7,200.1" style="fill:none;fill-rule:evenodd;stroke:#000000;stroke-width:2.0px;stroke-linecap:butt;stroke-linejoin:miter;stroke-opacity:1"/>
<path class="bond-8 atom-8 atom-9" d="M 607.9,192.7 L 579.4,205.5" style="fill:none;fill-rule:evenodd;stroke:#000000;stroke-width:2.0px;stroke-linecap:butt;stroke-linejoin:miter;stroke-opacity:1"/>
<path class="bond-9 atom-9 atom-10" d="M 569.7,200.1 L 531.0,178.0" style="fill:none;fill-rule:evenodd;stroke:#000000;stroke-width:2.0px;stroke-linecap:butt;stroke-linejoin:miter;stroke-opacity:1"/>
<path class="bond-10 atom-10 atom-11" d="M 531.0,178.0 L 530.8,133.4" style="fill:none;fill-rule:evenodd;stroke:#000000;stroke-width:2.0px;stroke-linecap:butt;stroke-linejoin:miter;stroke-opacity:1"/>
<path class="bond-10 atom-10 atom-11" d="M 522.1,171.3 L 521.9,140.1" style="fill:none;fill-rule:evenodd;stroke:#000000;stroke-width:2.0px;stroke-linecap:butt;stroke-linejoin:miter;stroke-opacity:1"/>
<path class="bond-11 atom-11 atom-12" d="M 530.8,133.4 L 492.1,111.3" style="fill:none;fill-rule:evenodd;stroke:#000000;stroke-width:2.0px;stroke-linecap:butt;stroke-linejoin:miter;stroke-opacity:1"/>
<path class="bond-12 atom-12 atom-13" d="M 492.1,111.3 L 453.6,133.7" style="fill:none;fill-rule:evenodd;stroke:#000000;stroke-width:2.0px;stroke-linecap:butt;stroke-linejoin:miter;stroke-opacity:1"/>
<path class="bond-12 atom-12 atom-13" d="M 490.9,122.4 L 463.9,138.1" style="fill:none;fill-rule:evenodd;stroke:#000000;stroke-width:2.0px;stroke-linecap:butt;stroke-linejoin:miter;stroke-opacity:1"/>
<path class="bond-13 atom-13 atom-14" d="M 453.6,133.7 L 453.8,178.3" style="fill:none;fill-rule:evenodd;stroke:#000000;stroke-width:2.0px;stroke-linecap:butt;stroke-linejoin:miter;stroke-opacity:1"/>
<path class="bond-14 atom-14 atom-15" d="M 453.8,178.3 L 492.5,200.4" style="fill:none;fill-rule:evenodd;stroke:#000000;stroke-width:2.0px;stroke-linecap:butt;stroke-linejoin:miter;stroke-opacity:1"/>
<path class="bond-14 atom-14 atom-15" d="M 464.0,173.9 L 491.1,189.4" style="fill:none;fill-rule:evenodd;stroke:#000000;stroke-width:2.0px;stroke-linecap:butt;stroke-linejoin:miter;stroke-opacity:1"/>
<path class="bond-15 atom-9 atom-16" d="M 569.7,200.1 L 574.5,244.4" style="fill:none;fill-rule:evenodd;stroke:#000000;stroke-width:2.0px;stroke-linecap:butt;stroke-linejoin:miter;stroke-opacity:1"/>
<path class="bond-16 atom-16 atom-17" d="M 574.5,244.4 L 618.1,253.5" style="fill:none;fill-rule:evenodd;stroke:#000000;stroke-width:2.0px;stroke-linecap:butt;stroke-linejoin:miter;stroke-opacity:1"/>
<path class="bond-17 atom-17 atom-18" d="M 618.1,253.5 L 640.6,292.0" style="fill:none;fill-rule:evenodd;stroke:#000000;stroke-width:2.0px;stroke-linecap:butt;stroke-linejoin:miter;stroke-opacity:1"/>
<path class="bond-17 atom-17 atom-18" d="M 629.2,254.8 L 644.9,281.7" style="fill:none;fill-rule:evenodd;stroke:#000000;stroke-width:2.0px;stroke-linecap:butt;stroke-linejoin:miter;stroke-opacity:1"/>
<path class="bond-18 atom-18 atom-19" d="M 640.6,292.0 L 685.1,291.8" style="fill:none;fill-rule:evenodd;stroke:#000000;stroke-width:2.0px;stroke-linecap:butt;stroke-linejoin:miter;stroke-opacity:1"/>
<path class="bond-19 atom-19 atom-20" d="M 685.1,291.8 L 707.2,253.1" style="fill:none;fill-rule:evenodd;stroke:#000000;stroke-width:2.0px;stroke-linecap:butt;stroke-linejoin:miter;stroke-opacity:1"/>
<path class="bond-19 atom-19 atom-20" d="M 680.7,281.6 L 696.2,254.5" style="fill:none;fill-rule:evenodd;stroke:#000000;stroke-width:2.0px;stroke-linecap:butt;stroke-linejoin:miter;stroke-opacity:1"/>
<path class="bond-20 atom-20 atom-21" d="M 707.2,253.1 L 684.8,214.6" style="fill:none;fill-rule:evenodd;stroke:#000000;stroke-width:2.0px;stroke-linecap:butt;stroke-linejoin:miter;stroke-opacity:1"/>
<path class="bond-21 atom-21 atom-22" d="M 684.8,214.6 L 640.3,214.8" style="fill:none;fill-rule:evenodd;stroke:#000000;stroke-width:2.0px;stroke-linecap:butt;stroke-linejoin:miter;stroke-opacity:1"/>
<path class="bond-21 atom-21 atom-22" d="M 678.2,223.6 L 647.0,223.7" style="fill:none;fill-rule:evenodd;stroke:#000000;stroke-width:2.0px;stroke-linecap:butt;stroke-linejoin:miter;stroke-opacity:1"/>
<path class="bond-22 atom-22 atom-8" d="M 640.3,214.8 L 610.3,181.8" style="fill:none;fill-rule:evenodd;stroke:#000000;stroke-width:2.0px;stroke-linecap:butt;stroke-linejoin:miter;stroke-opacity:1"/>
<path class="bond-23 atom-15 atom-10" d="M 492.5,200.4 L 531.0,178.0" style="fill:none;fill-rule:evenodd;stroke:#000000;stroke-width:2.0px;stroke-linecap:butt;stroke-linejoin:miter;stroke-opacity:1"/>
<path class="bond-24 atom-22 atom-17" d="M 640.3,214.8 L 618.1,253.5" style="fill:none;fill-rule:evenodd;stroke:#000000;stroke-width:2.0px;stroke-linecap:butt;stroke-linejoin:miter;stroke-opacity:1"/>
<path class="atom-4" d="M 656.9 128.6 Q 657.1 128.7, 657.6 128.9 Q 658.2 129.2, 658.9 129.3 Q 659.5 129.5, 660.2 129.5 Q 661.4 129.5, 662.1 128.9 Q 662.8 128.3, 662.8 127.3 Q 662.8 126.6, 662.4 126.2 Q 662.1 125.7, 661.5 125.5 Q 661.0 125.3, 660.1 125.0 Q 659.0 124.7, 658.3 124.4 Q 657.6 124.0, 657.2 123.4 Q 656.7 122.7, 656.7 121.5 Q 656.7 120.0, 657.8 119.0 Q 658.9 118.0, 661.0 118.0 Q 662.5 118.0, 664.1 118.7 L 663.7 120.1 Q 662.2 119.4, 661.0 119.4 Q 659.8 119.4, 659.1 120.0 Q 658.5 120.5, 658.5 121.3 Q 658.5 122.0, 658.8 122.4 Q 659.2 122.8, 659.7 123.1 Q 660.2 123.3, 661.0 123.6 Q 662.2 123.9, 662.9 124.3 Q 663.5 124.6, 664.0 125.4 Q 664.5 126.1, 664.5 127.3 Q 664.5 129.0, 663.3 130.0 Q 662.2 130.9, 660.2 130.9 Q 659.1 130.9, 658.3 130.7 Q 657.4 130.4, 656.4 130.0 L 656.9 128.6 " fill="#000000"/>
<path class="atom-4" d="M 665.4 118.0 L 667.0 118.0 L 667.0 119.5 L 665.4 119.5 L 665.4 118.0 M 665.4 121.4 L 667.0 121.4 L 667.0 130.6 L 665.4 130.6 L 665.4 121.4 " fill="#000000"/>
<path class="atom-7" d="M 613.6 138.2 Q 613.6 135.2, 615.1 133.5 Q 616.6 131.8, 619.4 131.8 Q 622.2 131.8, 623.7 133.5 Q 625.2 135.2, 625.2 138.2 Q 625.2 141.3, 623.7 143.1 Q 622.2 144.8, 619.4 144.8 Q 616.6 144.8, 615.1 143.1 Q 613.6 141.3, 613.6 138.2 M 619.4 143.4 Q 621.3 143.4, 622.4 142.1 Q 623.4 140.8, 623.4 138.2 Q 623.4 135.8, 622.4 134.5 Q 621.3 133.2, 619.4 133.2 Q 617.5 133.2, 616.4 134.5 Q 615.4 135.7, 615.4 138.2 Q 615.4 140.8, 616.4 142.1 Q 617.5 143.4, 619.4 143.4 " fill="#FF0000"/>
<path class="legend" d="M 567.4 365.4 L 567.6 366.5 Q 568.4 365.3, 569.8 365.3 Q 570.3 365.3, 570.9 365.4 L 570.6 366.8 Q 570.0 366.6, 569.6 366.6 Q 568.9 366.6, 568.4 366.9 Q 568.0 367.1, 567.7 367.8 L 567.7 373.6 L 566.2 373.6 L 566.2 365.4 L 567.4 365.4 " fill="#000000"/>
<path class="legend" d="M 571.1 369.5 Q 571.1 367.5, 572.1 366.4 Q 573.1 365.3, 575.0 365.3 Q 576.8 365.3, 577.6 366.4 Q 578.4 367.4, 578.4 369.5 L 578.4 369.7 L 572.7 369.7 Q 572.7 371.1, 573.3 371.8 Q 573.9 372.6, 575.1 372.6 Q 575.7 372.6, 576.3 372.4 Q 576.9 372.3, 577.6 372.0 L 578.1 373.0 Q 577.3 373.4, 576.5 373.6 Q 575.8 373.8, 575.0 373.8 Q 573.2 373.8, 572.1 372.6 Q 571.1 371.5, 571.1 369.5 M 575.0 366.4 Q 574.0 366.4, 573.5 367.0 Q 572.9 367.5, 572.7 368.6 L 576.8 368.6 Q 576.7 367.5, 576.3 367.0 Q 575.8 366.4, 575.0 366.4 " fill="#000000"/>
<path class="legend" d="M 579.0 371.4 Q 579.0 370.1, 580.1 369.4 Q 581.1 368.7, 583.1 368.7 L 584.3 368.7 L 584.3 368.3 Q 584.3 367.3, 583.8 366.9 Q 583.4 366.4, 582.4 366.4 Q 581.7 366.4, 581.2 366.6 Q 580.7 366.7, 579.9 367.0 L 579.5 366.0 Q 581.0 365.3, 582.4 365.3 Q 584.2 365.3, 585.0 366.0 Q 585.8 366.8, 585.8 368.4 L 585.8 373.6 L 584.6 373.6 Q 584.6 373.6, 584.5 373.3 Q 584.5 373.1, 584.4 372.7 Q 583.2 373.8, 581.7 373.8 Q 580.5 373.8, 579.7 373.2 Q 579.0 372.5, 579.0 371.4 M 580.5 371.4 Q 580.5 372.0, 580.9 372.3 Q 581.3 372.6, 582.0 372.6 Q 582.6 372.6, 583.2 372.4 Q 583.9 372.0, 584.3 371.5 L 584.3 369.8 L 583.2 369.8 Q 581.8 369.8, 581.2 370.2 Q 580.5 370.6, 580.5 371.4 " fill="#000000"/>
<path class="legend" d="M 587.0 369.5 Q 587.0 367.5, 588.0 366.4 Q 589.0 365.3, 590.9 365.3 Q 592.8 365.3, 593.8 366.6 L 592.8 367.4 Q 592.4 366.9, 592.0 366.7 Q 591.5 366.4, 590.9 366.4 Q 589.8 366.4, 589.2 367.2 Q 588.5 368.0, 588.5 369.5 Q 588.5 371.0, 589.2 371.8 Q 589.8 372.6, 591.0 372.6 Q 591.7 372.6, 592.2 372.4 Q 592.6 372.3, 593.2 372.0 L 593.6 373.0 Q 592.4 373.7, 590.9 373.7 Q 589.0 373.7, 588.0 372.6 Q 587.0 371.5, 587.0 369.5 " fill="#000000"/>
<path class="legend" d="M 594.2 366.6 L 594.2 365.4 L 595.7 365.4 L 596.0 363.0 L 597.1 363.0 L 597.1 365.4 L 599.6 365.4 L 599.6 366.6 L 597.1 366.6 L 597.1 371.1 Q 597.1 372.5, 598.3 372.5 Q 598.8 372.5, 599.5 372.3 L 599.8 373.4 Q 598.9 373.7, 598.0 373.7 Q 597.0 373.7, 596.3 373.1 Q 595.6 372.4, 595.6 371.2 L 595.6 366.6 L 594.2 366.6 " fill="#000000"/>
<path class="legend" d="M 608.3 374.4 L 608.3 375.7 L 600.2 375.7 L 600.2 374.4 L 608.3 374.4 " fill="#000000"/>
<path class="legend" d="M 613.8 367.7 Q 614.9 368.0, 615.4 368.7 Q 615.9 369.4, 615.9 370.5 Q 615.9 371.5, 615.5 372.2 Q 615.0 373.0, 614.1 373.4 Q 613.2 373.8, 612.1 373.8 Q 610.8 373.8, 609.9 373.4 Q 609.0 372.9, 608.3 372.1 L 609.2 371.2 Q 609.9 371.9, 610.5 372.2 Q 611.1 372.5, 612.1 372.5 Q 613.1 372.5, 613.7 372.0 Q 614.3 371.4, 614.3 370.5 Q 614.3 369.4, 613.7 368.8 Q 613.0 368.3, 611.6 368.3 L 610.8 368.3 L 610.8 367.2 L 611.6 367.2 Q 612.8 367.2, 613.4 366.6 Q 614.1 366.1, 614.1 365.1 Q 614.1 364.3, 613.6 363.9 Q 613.0 363.5, 612.1 363.5 Q 611.1 363.5, 610.5 363.8 Q 610.0 364.1, 609.5 365.0 L 608.4 364.4 Q 608.8 363.4, 609.8 362.8 Q 610.7 362.2, 612.1 362.2 Q 613.7 362.2, 614.7 363.0 Q 615.7 363.7, 615.7 365.1 Q 615.7 366.0, 615.2 366.6 Q 614.7 367.3, 613.8 367.7 " fill="#000000"/>
<path class="legend" d="M 621.0 373.8 Q 618.9 373.8, 617.9 372.2 Q 616.9 370.7, 616.9 368.0 Q 616.9 365.2, 617.9 363.7 Q 618.9 362.2, 621.0 362.2 Q 623.1 362.2, 624.1 363.7 Q 625.2 365.2, 625.2 368.0 Q 625.2 370.7, 624.1 372.2 Q 623.1 373.8, 621.0 373.8 M 621.0 372.5 Q 622.3 372.5, 622.9 371.3 Q 623.6 370.2, 623.6 368.0 Q 623.6 365.7, 622.9 364.6 Q 622.3 363.5, 621.0 363.5 Q 619.8 363.5, 619.1 364.6 Q 618.5 365.7, 618.5 368.0 Q 618.5 370.2, 619.1 371.3 Q 619.8 372.5, 621.0 372.5 " fill="#000000"/>
<path class="legend" d="M 626.2 364.4 Q 626.7 363.4, 627.6 362.8 Q 628.6 362.2, 630.0 362.2 Q 631.7 362.2, 632.7 363.1 Q 633.6 364.0, 633.6 365.7 Q 633.6 367.4, 632.4 368.9 Q 631.2 370.5, 628.6 372.4 L 633.8 372.4 L 633.8 373.6 L 626.2 373.6 L 626.2 372.6 Q 628.3 371.1, 629.6 369.9 Q 630.8 368.8, 631.4 367.8 Q 632.0 366.8, 632.0 365.8 Q 632.0 364.7, 631.5 364.1 Q 631.0 363.5, 630.0 363.5 Q 629.1 363.5, 628.5 363.8 Q 627.9 364.2, 627.5 365.0 L 626.2 364.4 " fill="#000000"/>
<path class="legend" d="M 537.6 383.8 Q 537.6 381.8, 538.6 380.7 Q 539.6 379.5, 541.5 379.5 Q 543.4 379.5, 544.4 380.9 L 543.4 381.6 Q 543.0 381.2, 542.5 380.9 Q 542.1 380.7, 541.5 380.7 Q 540.4 380.7, 539.8 381.5 Q 539.1 382.3, 539.1 383.8 Q 539.1 385.3, 539.8 386.1 Q 540.4 386.8, 541.6 386.8 Q 542.3 386.8, 542.8 386.7 Q 543.2 386.5, 543.8 386.3 L 544.2 387.3 Q 543.0 388.0, 541.5 388.0 Q 539.6 388.0, 538.6 386.9 Q 537.6 385.7, 537.6 383.8 " fill="#000000"/>
<path class="legend" d="M 544.8 383.8 Q 544.8 381.7, 545.8 380.6 Q 546.8 379.5, 548.6 379.5 Q 550.4 379.5, 551.2 380.6 Q 552.1 381.7, 552.1 383.7 L 552.1 384.0 L 546.3 384.0 Q 546.3 385.4, 547.0 386.1 Q 547.6 386.8, 548.8 386.8 Q 549.4 386.8, 550.0 386.7 Q 550.6 386.5, 551.3 386.2 L 551.7 387.2 Q 550.9 387.6, 550.2 387.8 Q 549.4 388.0, 548.7 388.0 Q 546.8 388.0, 545.8 386.9 Q 544.8 385.8, 544.8 383.8 M 548.6 380.7 Q 547.7 380.7, 547.1 381.2 Q 546.5 381.8, 546.4 382.8 L 550.5 382.8 Q 550.4 381.7, 549.9 381.2 Q 549.5 380.7, 548.6 380.7 " fill="#000000"/>
<path class="legend" d="M 556.9 379.5 Q 558.3 379.5, 558.9 380.3 Q 559.7 381.0, 559.7 382.4 L 559.7 387.9 L 558.1 387.9 L 558.1 382.6 Q 558.1 381.6, 557.8 381.2 Q 557.4 380.7, 556.6 380.7 Q 555.8 380.7, 555.2 381.1 Q 554.6 381.4, 554.2 382.0 L 554.2 387.9 L 552.7 387.9 L 552.7 379.7 L 553.9 379.7 L 554.1 380.8 Q 555.2 379.5, 556.9 379.5 " fill="#000000"/>
<path class="legend" d="M 560.9 380.8 L 560.9 379.7 L 562.5 379.7 L 562.7 377.3 L 563.8 377.3 L 563.8 379.7 L 566.3 379.7 L 566.3 380.8 L 563.8 380.8 L 563.8 385.4 Q 563.8 386.8, 565.0 386.8 Q 565.5 386.8, 566.2 386.6 L 566.5 387.6 Q 565.6 388.0, 564.8 388.0 Q 563.7 388.0, 563.0 387.3 Q 562.3 386.7, 562.3 385.4 L 562.3 380.8 L 560.9 380.8 " fill="#000000"/>
<path class="legend" d="M 575.0 388.7 L 575.0 390.0 L 566.9 390.0 L 566.9 388.7 L 575.0 388.7 " fill="#000000"/>
<path class="legend" d="M 582.5 375.7 L 582.5 387.9 L 581.3 387.9 L 581.1 386.9 Q 580.2 388.0, 578.6 388.0 Q 576.9 388.0, 576.0 387.0 Q 575.0 385.9, 575.0 383.9 Q 575.0 381.8, 576.1 380.7 Q 577.3 379.5, 579.3 379.5 Q 580.1 379.5, 581.0 379.7 L 581.0 375.7 L 582.5 375.7 M 578.7 386.8 Q 579.6 386.8, 580.2 386.4 Q 580.8 385.9, 581.0 385.1 L 581.0 380.9 Q 580.2 380.7, 579.3 380.7 Q 578.0 380.7, 577.3 381.6 Q 576.6 382.4, 576.6 383.9 Q 576.6 385.3, 577.1 386.1 Q 577.7 386.8, 578.7 386.8 " fill="#000000"/>
<path class="legend" d="M 583.8 376.6 L 585.3 376.6 L 585.3 378.0 L 583.8 378.0 L 583.8 376.6 M 583.8 379.7 L 585.3 379.7 L 585.3 387.9 L 583.8 387.9 L 583.8 379.7 " fill="#000000"/>
<path class="legend" d="M 587.1 386.2 Q 587.8 386.5, 588.3 386.6 Q 588.9 386.8, 589.4 386.8 Q 590.1 386.8, 590.5 386.5 Q 590.9 386.2, 590.9 385.6 Q 590.9 385.2, 590.7 385.0 Q 590.5 384.8, 590.2 384.6 Q 590.0 384.5, 589.3 384.3 Q 589.2 384.3, 588.4 384.0 Q 587.7 383.7, 587.3 383.2 Q 586.9 382.7, 586.9 381.9 Q 586.9 380.9, 587.7 380.2 Q 588.4 379.5, 589.9 379.5 Q 590.5 379.5, 591.1 379.7 Q 591.7 379.8, 592.3 380.0 L 591.9 381.2 Q 591.3 381.0, 590.9 380.9 Q 590.4 380.8, 589.9 380.8 Q 589.2 380.8, 588.8 381.1 Q 588.4 381.4, 588.4 381.8 Q 588.4 382.3, 588.7 382.5 Q 589.0 382.7, 589.7 383.0 Q 589.9 383.0, 590.0 383.1 L 590.4 383.2 Q 591.1 383.4, 591.5 383.7 Q 591.9 383.9, 592.2 384.4 Q 592.5 384.8, 592.5 385.6 Q 592.5 386.7, 591.6 387.4 Q 590.8 388.0, 589.4 388.0 Q 588.6 388.0, 588.0 387.9 Q 587.3 387.7, 586.6 387.4 L 587.1 386.2 " fill="#000000"/>
<path class="legend" d="M 593.3 380.8 L 593.3 379.7 L 594.9 379.7 L 595.1 377.3 L 596.2 377.3 L 596.2 379.7 L 598.8 379.7 L 598.8 380.8 L 596.2 380.8 L 596.2 385.4 Q 596.2 386.8, 597.4 386.8 Q 597.9 386.8, 598.6 386.6 L 598.9 387.6 Q 598.0 388.0, 597.2 388.0 Q 596.1 388.0, 595.4 387.3 Q 594.7 386.7, 594.7 385.4 L 594.7 380.8 L 593.3 380.8 " fill="#000000"/>
<path class="legend" d="" fill="#000000"/>
<path class="legend" d="M 604.6 380.9 L 611.9 380.9 L 611.9 382.1 L 604.6 382.1 L 604.6 380.9 M 604.6 384.4 L 611.9 384.4 L 611.9 385.5 L 604.6 385.5 L 604.6 384.4 " fill="#000000"/>
<path class="legend" d="" fill="#000000"/>
<path class="legend" d="M 619.4 386.6 L 621.8 386.6 L 621.8 378.1 L 619.1 379.0 L 618.7 378.0 L 622.2 376.5 L 623.3 376.7 L 623.3 386.6 L 625.6 386.6 L 625.6 387.9 L 619.4 387.9 L 619.4 386.6 " fill="#000000"/>
<path class="legend" d="M 626.2 386.3 L 627.8 386.3 L 627.8 387.9 L 626.2 387.9 L 626.2 386.3 " fill="#000000"/>
<path class="legend" d="M 628.9 378.7 Q 629.3 377.6, 630.3 377.0 Q 631.3 376.4, 632.7 376.4 Q 634.4 376.4, 635.4 377.4 Q 636.3 378.3, 636.3 379.9 Q 636.3 381.6, 635.1 383.2 Q 633.8 384.8, 631.3 386.6 L 636.5 386.6 L 636.5 387.9 L 628.9 387.9 L 628.9 386.8 Q 631.0 385.3, 632.2 384.2 Q 633.5 383.1, 634.1 382.1 Q 634.7 381.1, 634.7 380.0 Q 634.7 378.9, 634.2 378.3 Q 633.6 377.7, 632.7 377.7 Q 631.8 377.7, 631.2 378.1 Q 630.6 378.4, 630.1 379.3 L 628.9 378.7 " fill="#000000"/>
<path class="legend" d="M 644.8 384.0 L 646.2 384.0 L 646.2 385.3 L 644.8 385.3 L 644.8 387.9 L 643.3 387.9 L 643.3 385.3 L 637.5 385.3 L 637.5 384.3 L 642.4 376.6 L 644.8 376.6 L 644.8 384.0 M 639.3 384.0 L 643.3 384.0 L 643.3 377.6 L 639.3 384.0 " fill="#000000"/>
<path class="legend" d="M 647.0 378.7 Q 647.4 377.6, 648.4 377.0 Q 649.4 376.4, 650.8 376.4 Q 652.5 376.4, 653.5 377.4 Q 654.4 378.3, 654.4 379.9 Q 654.4 381.6, 653.2 383.2 Q 651.9 384.8, 649.4 386.6 L 654.6 386.6 L 654.6 387.9 L 647.0 387.9 L 647.0 386.8 Q 649.1 385.3, 650.3 384.2 Q 651.6 383.1, 652.2 382.1 Q 652.8 381.1, 652.8 380.0 Q 652.8 378.9, 652.3 378.3 Q 651.7 377.7, 650.8 377.7 Q 649.9 377.7, 649.3 378.1 Q 648.7 378.4, 648.2 379.3 L 647.0 378.7 " fill="#000000"/>
<path class="legend" d="M 656.2 386.6 L 658.7 386.6 L 658.7 378.1 L 655.9 379.0 L 655.6 378.0 L 659.0 376.5 L 660.2 376.7 L 660.2 386.6 L 662.4 386.6 L 662.4 387.9 L 656.2 387.9 L 656.2 386.6 " fill="#000000"/>
<path class="bond-0 atom-0 atom-1" d="M 1000.8,102.8 L 1043.5,115.5" style="fill:none;fill-rule:evenodd;stroke:#000000;stroke-width:2.0px;stroke-linecap:butt;stroke-linejoin:miter;stroke-opacity:1"/>
<path class="bond-1 atom-1 atom-2" d="M 1043.5,115.5 L 1053.7,158.9" style="fill:none;fill-rule:evenodd;stroke:#000000;stroke-width:2.0px;stroke-linecap:butt;stroke-linejoin:miter;stroke-opacity:1"/>
<path class="bond-2 atom-2 atom-3" d="M 1053.7,158.9 L 1021.3,189.5" style="fill:none;fill-rule:evenodd;stroke:#000000;stroke-width:2.0px;stroke-linecap:butt;stroke-linejoin:miter;stroke-opacity:1"/>
<path class="bond-2 atom-2 atom-3" d="M 1055.0,170.0 L 1032.3,191.4" style="fill:none;fill-rule:evenodd;stroke:#000000;stroke-width:2.0px;stroke-linecap:butt;stroke-linejoin:miter;stroke-opacity:1"/>
<path class="bond-3 atom-3 atom-4" d="M 1021.3,189.5 L 1003.6,184.2" style="fill:none;fill-rule:evenodd;stroke:#000000;stroke-width:2.0px;stroke-linecap:butt;stroke-linejoin:miter;stroke-opacity:1"/>
<path class="bond-3 atom-3 atom-4" d="M 1003.6,184.2 L 985.9,178.9" style="fill:none;fill-rule:evenodd;stroke:#FF0000;stroke-width:2.0px;stroke-linecap:butt;stroke-linejoin:miter;stroke-opacity:1"/>
<path class="bond-4 atom-4 atom-5" d="M 971.4,183.6 L 958.8,195.4" style="fill:none;fill-rule:evenodd;stroke:#FF0000;stroke-width:2.0px;stroke-linecap:butt;stroke-linejoin:miter;stroke-opacity:1"/>
<path class="bond-4 atom-4 atom-5" d="M 958.8,195.4 L 946.3,207.3" style="fill:none;fill-rule:evenodd;stroke:#000000;stroke-width:2.0px;stroke-linecap:butt;stroke-linejoin:miter;stroke-opacity:1"/>
<path class="bond-5 atom-5 atom-6" d="M 950.6,206.3 L 954.8,224.0" style="fill:none;fill-rule:evenodd;stroke:#000000;stroke-width:2.0px;stroke-linecap:butt;stroke-linejoin:miter;stroke-opacity:1"/>
<path class="bond-5 atom-5 atom-6" d="M 954.8,224.0 L 959.0,241.8" style="fill:none;fill-rule:evenodd;stroke:#FF0000;stroke-width:2.0px;stroke-linecap:butt;stroke-linejoin:miter;stroke-opacity:1"/>
<path class="bond-5 atom-5 atom-6" d="M 941.9,208.3 L 946.1,226.1" style="fill:none;fill-rule:evenodd;stroke:#000000;stroke-width:2.0px;stroke-linecap:butt;stroke-linejoin:miter;stroke-opacity:1"/>
<path class="bond-5 atom-5 atom-6" d="M 946.1,226.1 L 950.3,243.8" style="fill:none;fill-rule:evenodd;stroke:#FF0000;stroke-width:2.0px;stroke-linecap:butt;stroke-linejoin:miter;stroke-opacity:1"/>
<path class="bond-6 atom-5 atom-7" d="M 946.3,207.3 L 903.6,194.5" style="fill:none;fill-rule:evenodd;stroke:#000000;stroke-width:2.0px;stroke-linecap:butt;stroke-linejoin:miter;stroke-opacity:1"/>
<path class="bond-7 atom-7 atom-8" d="M 903.6,194.5 L 893.3,151.2" style="fill:none;fill-rule:evenodd;stroke:#000000;stroke-width:2.0px;stroke-linecap:butt;stroke-linejoin:miter;stroke-opacity:1"/>
<path class="bond-7 atom-7 atom-8" d="M 893.3,190.1 L 886.1,159.7" style="fill:none;fill-rule:evenodd;stroke:#000000;stroke-width:2.0px;stroke-linecap:butt;stroke-linejoin:miter;stroke-opacity:1"/>
<path class="bond-8 atom-8 atom-9" d="M 893.3,151.2 L 850.6,138.4" style="fill:none;fill-rule:evenodd;stroke:#000000;stroke-width:2.0px;stroke-linecap:butt;stroke-linejoin:miter;stroke-opacity:1"/>
<path class="bond-9 atom-9 atom-10" d="M 850.6,138.4 L 818.2,169.0" style="fill:none;fill-rule:evenodd;stroke:#000000;stroke-width:2.0px;stroke-linecap:butt;stroke-linejoin:miter;stroke-opacity:1"/>
<path class="bond-9 atom-9 atom-10" d="M 851.8,149.5 L 829.2,170.9" style="fill:none;fill-rule:evenodd;stroke:#000000;stroke-width:2.0px;stroke-linecap:butt;stroke-linejoin:miter;stroke-opacity:1"/>
<path class="bond-10 atom-10 atom-11" d="M 818.2,169.0 L 828.5,212.4" style="fill:none;fill-rule:evenodd;stroke:#000000;stroke-width:2.0px;stroke-linecap:butt;stroke-linejoin:miter;stroke-opacity:1"/>
<path class="bond-11 atom-11 atom-12" d="M 828.5,212.4 L 871.2,225.1" style="fill:none;fill-rule:evenodd;stroke:#000000;stroke-width:2.0px;stroke-linecap:butt;stroke-linejoin:miter;stroke-opacity:1"/>
<path class="bond-11 atom-11 atom-12" d="M 837.4,205.7 L 867.3,214.7" style="fill:none;fill-rule:evenodd;stroke:#000000;stroke-width:2.0px;stroke-linecap:butt;stroke-linejoin:miter;stroke-opacity:1"/>
<path class="bond-12 atom-3 atom-13" d="M 1021.3,189.5 L 1025.6,207.2" style="fill:none;fill-rule:evenodd;stroke:#000000;stroke-width:2.0px;stroke-linecap:butt;stroke-linejoin:miter;stroke-opacity:1"/>
<path class="bond-12 atom-3 atom-13" d="M 1025.6,207.2 L 1029.8,225.0" style="fill:none;fill-rule:evenodd;stroke:#FF0000;stroke-width:2.0px;stroke-linecap:butt;stroke-linejoin:miter;stroke-opacity:1"/>
<path class="bond-13 atom-13 atom-14" d="M 1038.9,235.0 L 1056.6,240.3" style="fill:none;fill-rule:evenodd;stroke:#FF0000;stroke-width:2.0px;stroke-linecap:butt;stroke-linejoin:miter;stroke-opacity:1"/>
<path class="bond-13 atom-13 atom-14" d="M 1056.6,240.3 L 1074.3,245.6" style="fill:none;fill-rule:evenodd;stroke:#000000;stroke-width:2.0px;stroke-linecap:butt;stroke-linejoin:miter;stroke-opacity:1"/>
<path class="bond-14 atom-14 atom-15" d="M 1074.3,245.6 L 1106.7,215.0" style="fill:none;fill-rule:evenodd;stroke:#000000;stroke-width:2.0px;stroke-linecap:butt;stroke-linejoin:miter;stroke-opacity:1"/>
<path class="bond-15 atom-15 atom-16" d="M 1106.7,215.0 L 1149.4,227.8" style="fill:none;fill-rule:evenodd;stroke:#000000;stroke-width:2.0px;stroke-linecap:butt;stroke-linejoin:miter;stroke-opacity:1"/>
<path class="bond-15 atom-15 atom-16" d="M 1115.7,208.4 L 1145.6,217.3" style="fill:none;fill-rule:evenodd;stroke:#000000;stroke-width:2.0px;stroke-linecap:butt;stroke-linejoin:miter;stroke-opacity:1"/>
<path class="bond-16 atom-16 atom-17" d="M 1149.4,227.8 L 1181.8,197.2" style="fill:none;fill-rule:evenodd;stroke:#000000;stroke-width:2.0px;stroke-linecap:butt;stroke-linejoin:miter;stroke-opacity:1"/>
<path class="bond-17 atom-17 atom-18" d="M 1181.8,197.2 L 1171.5,153.8" style="fill:none;fill-rule:evenodd;stroke:#000000;stroke-width:2.0px;stroke-linecap:butt;stroke-linejoin:miter;stroke-opacity:1"/>
<path class="bond-17 atom-17 atom-18" d="M 1171.6,192.7 L 1164.4,162.4" style="fill:none;fill-rule:evenodd;stroke:#000000;stroke-width:2.0px;stroke-linecap:butt;stroke-linejoin:miter;stroke-opacity:1"/>
<path class="bond-18 atom-18 atom-19" d="M 1171.5,153.8 L 1128.8,141.1" style="fill:none;fill-rule:evenodd;stroke:#000000;stroke-width:2.0px;stroke-linecap:butt;stroke-linejoin:miter;stroke-opacity:1"/>
<path class="bond-19 atom-19 atom-20" d="M 1128.8,141.1 L 1096.4,171.7" style="fill:none;fill-rule:evenodd;stroke:#000000;stroke-width:2.0px;stroke-linecap:butt;stroke-linejoin:miter;stroke-opacity:1"/>
<path class="bond-19 atom-19 atom-20" d="M 1130.1,152.1 L 1107.4,173.5" style="fill:none;fill-rule:evenodd;stroke:#000000;stroke-width:2.0px;stroke-linecap:butt;stroke-linejoin:miter;stroke-opacity:1"/>
<path class="bond-20 atom-20 atom-2" d="M 1096.4,171.7 L 1053.7,158.9" style="fill:none;fill-rule:evenodd;stroke:#000000;stroke-width:2.0px;stroke-linecap:butt;stroke-linejoin:miter;stroke-opacity:1"/>
<path class="bond-21 atom-12 atom-7" d="M 871.2,225.1 L 903.6,194.5" style="fill:none;fill-rule:evenodd;stroke:#000000;stroke-width:2.0px;stroke-linecap:butt;stroke-linejoin:miter;stroke-opacity:1"/>
<path class="bond-22 atom-20 atom-15" d="M 1096.4,171.7 L 1106.7,215.0" style="fill:none;fill-rule:evenodd;stroke:#000000;stroke-width:2.0px;stroke-linecap:butt;stroke-linejoin:miter;stroke-opacity:1"/>
<path class="atom-4" d="M 972.9 176.7 Q 972.9 173.7, 974.4 172.0 Q 975.9 170.3, 978.7 170.3 Q 981.5 170.3, 982.9 172.0 Q 984.4 173.7, 984.4 176.7 Q 984.4 179.8, 982.9 181.6 Q 981.4 183.3, 978.7 183.3 Q 975.9 183.3, 974.4 181.6 Q 972.9 179.8, 972.9 176.7 M 978.7 181.9 Q 980.6 181.9, 981.6 180.6 Q 982.7 179.3, 982.7 176.7 Q 982.7 174.3, 981.6 173.0 Q 980.6 171.8, 978.7 171.8 Q 976.7 171.8, 975.7 173.0 Q 974.6 174.3, 974.6 176.7 Q 974.6 179.3, 975.7 180.6 Q 976.7 181.9, 978.7 181.9 " fill="#FF0000"/>
<path class="atom-6" d="M 950.8 250.7 Q 950.8 247.7, 952.3 246.0 Q 953.7 244.3, 956.5 244.3 Q 959.3 244.3, 960.8 246.0 Q 962.3 247.7, 962.3 250.7 Q 962.3 253.8, 960.8 255.5 Q 959.3 257.2, 956.5 257.2 Q 953.8 257.2, 952.3 255.5 Q 950.8 253.8, 950.8 250.7 M 956.5 255.8 Q 958.5 255.8, 959.5 254.5 Q 960.6 253.2, 960.6 250.7 Q 960.6 248.2, 959.5 247.0 Q 958.5 245.7, 956.5 245.7 Q 954.6 245.7, 953.6 246.9 Q 952.5 248.2, 952.5 250.7 Q 952.5 253.2, 953.6 254.5 Q 954.6 255.8, 956.5 255.8 " fill="#FF0000"/>
<path class="atom-13" d="M 1025.8 232.9 Q 1025.8 229.8, 1027.3 228.1 Q 1028.8 226.4, 1031.6 226.4 Q 1034.4 226.4, 1035.9 228.1 Q 1037.4 229.8, 1037.4 232.9 Q 1037.4 235.9, 1035.9 237.7 Q 1034.4 239.4, 1031.6 239.4 Q 1028.9 239.4, 1027.3 237.7 Q 1025.8 235.9, 1025.8 232.9 M 1031.6 238.0 Q 1033.6 238.0, 1034.6 236.7 Q 1035.6 235.4, 1035.6 232.9 Q 1035.6 230.4, 1034.6 229.1 Q 1033.6 227.9, 1031.6 227.9 Q 1029.7 227.9, 1028.7 229.1 Q 1027.6 230.4, 1027.6 232.9 Q 1027.6 235.4, 1028.7 236.7 Q 1029.7 238.0, 1031.6 238.0 " fill="#FF0000"/>
<path class="legend" d="M 967.2 365.4 L 967.4 366.5 Q 968.2 365.3, 969.6 365.3 Q 970.1 365.3, 970.7 365.4 L 970.5 366.8 Q 969.8 366.6, 969.4 366.6 Q 968.7 366.6, 968.3 366.9 Q 967.8 367.1, 967.5 367.8 L 967.5 373.6 L 966.0 373.6 L 966.0 365.4 L 967.2 365.4 " fill="#000000"/>
<path class="legend" d="M 970.9 369.5 Q 970.9 367.5, 971.9 366.4 Q 973.0 365.3, 974.8 365.3 Q 976.6 365.3, 977.4 366.4 Q 978.2 367.4, 978.2 369.5 L 978.2 369.7 L 972.5 369.7 Q 972.5 371.1, 973.1 371.8 Q 973.8 372.6, 974.9 372.6 Q 975.6 372.6, 976.2 372.4 Q 976.7 372.3, 977.5 372.0 L 977.9 373.0 Q 977.1 373.4, 976.3 373.6 Q 975.6 373.8, 974.8 373.8 Q 973.0 373.8, 972.0 372.6 Q 970.9 371.5, 970.9 369.5 M 974.8 366.4 Q 973.8 366.4, 973.3 367.0 Q 972.7 367.5, 972.5 368.6 L 976.6 368.6 Q 976.5 367.5, 976.1 367.0 Q 975.6 366.4, 974.8 366.4 " fill="#000000"/>
<path class="legend" d="M 978.8 371.4 Q 978.8 370.1, 979.9 369.4 Q 980.9 368.7, 982.9 368.7 L 984.1 368.7 L 984.1 368.3 Q 984.1 367.3, 983.7 366.9 Q 983.2 366.4, 982.2 366.4 Q 981.6 366.4, 981.0 366.6 Q 980.5 366.7, 979.7 367.0 L 979.3 366.0 Q 980.8 365.3, 982.2 365.3 Q 984.0 365.3, 984.8 366.0 Q 985.6 366.8, 985.6 368.4 L 985.6 373.6 L 984.4 373.6 Q 984.4 373.6, 984.4 373.3 Q 984.3 373.1, 984.2 372.7 Q 983.1 373.8, 981.5 373.8 Q 980.3 373.8, 979.6 373.2 Q 978.8 372.5, 978.8 371.4 M 980.3 371.4 Q 980.3 372.0, 980.7 372.3 Q 981.1 372.6, 981.8 372.6 Q 982.5 372.6, 983.1 372.4 Q 983.7 372.0, 984.1 371.5 L 984.1 369.8 L 983.0 369.8 Q 981.7 369.8, 981.0 370.2 Q 980.3 370.6, 980.3 371.4 " fill="#000000"/>
<path class="legend" d="M 986.8 369.5 Q 986.8 367.5, 987.8 366.4 Q 988.8 365.3, 990.8 365.3 Q 992.6 365.3, 993.6 366.6 L 992.6 367.4 Q 992.2 366.9, 991.8 366.7 Q 991.3 366.4, 990.8 366.4 Q 989.6 366.4, 989.0 367.2 Q 988.4 368.0, 988.4 369.5 Q 988.4 371.0, 989.0 371.8 Q 989.7 372.6, 990.9 372.6 Q 991.5 372.6, 992.0 372.4 Q 992.5 372.3, 993.0 372.0 L 993.4 373.0 Q 992.3 373.7, 990.7 373.7 Q 988.8 373.7, 987.8 372.6 Q 986.8 371.5, 986.8 369.5 " fill="#000000"/>
<path class="legend" d="M 994.0 366.6 L 994.0 365.4 L 995.6 365.4 L 995.8 363.0 L 996.9 363.0 L 996.9 365.4 L 999.4 365.4 L 999.4 366.6 L 996.9 366.6 L 996.9 371.1 Q 996.9 372.5, 998.1 372.5 Q 998.6 372.5, 999.3 372.3 L 999.6 373.4 Q 998.7 373.7, 997.9 373.7 Q 996.8 373.7, 996.1 373.1 Q 995.4 372.4, 995.4 371.2 L 995.4 366.6 L 994.0 366.6 " fill="#000000"/>
<path class="legend" d="M 1008.1 374.4 L 1008.1 375.7 L 1000.0 375.7 L 1000.0 374.4 L 1008.1 374.4 " fill="#000000"/>
<path class="legend" d="M 1013.6 367.7 Q 1014.7 368.0, 1015.2 368.7 Q 1015.8 369.4, 1015.8 370.5 Q 1015.8 371.5, 1015.3 372.2 Q 1014.8 373.0, 1013.9 373.4 Q 1013.0 373.8, 1011.9 373.8 Q 1010.7 373.8, 1009.8 373.4 Q 1008.9 372.9, 1008.1 372.1 L 1009.0 371.2 Q 1009.8 371.9, 1010.3 372.2 Q 1010.9 372.5, 1011.9 372.5 Q 1012.9 372.5, 1013.5 372.0 Q 1014.2 371.4, 1014.2 370.5 Q 1014.2 369.4, 1013.5 368.8 Q 1012.9 368.3, 1011.5 368.3 L 1010.6 368.3 L 1010.6 367.2 L 1011.4 367.2 Q 1012.6 367.2, 1013.3 366.6 Q 1013.9 366.1, 1013.9 365.1 Q 1013.9 364.3, 1013.4 363.9 Q 1012.8 363.5, 1011.9 363.5 Q 1011.0 363.5, 1010.4 363.8 Q 1009.8 364.1, 1009.3 365.0 L 1008.2 364.4 Q 1008.6 363.4, 1009.6 362.8 Q 1010.6 362.2, 1011.9 362.2 Q 1013.6 362.2, 1014.5 363.0 Q 1015.5 363.7, 1015.5 365.1 Q 1015.5 366.0, 1015.0 366.6 Q 1014.5 367.3, 1013.6 367.7 " fill="#000000"/>
<path class="legend" d="M 1020.8 373.8 Q 1018.8 373.8, 1017.7 372.2 Q 1016.7 370.7, 1016.7 368.0 Q 1016.7 365.2, 1017.7 363.7 Q 1018.7 362.2, 1020.8 362.2 Q 1022.9 362.2, 1024.0 363.7 Q 1025.0 365.2, 1025.0 368.0 Q 1025.0 370.7, 1023.9 372.2 Q 1022.9 373.8, 1020.8 373.8 M 1020.8 372.5 Q 1022.1 372.5, 1022.7 371.3 Q 1023.4 370.2, 1023.4 368.0 Q 1023.4 365.7, 1022.7 364.6 Q 1022.1 363.5, 1020.8 363.5 Q 1019.6 363.5, 1019.0 364.6 Q 1018.3 365.7, 1018.3 368.0 Q 1018.3 370.2, 1019.0 371.3 Q 1019.6 372.5, 1020.8 372.5 " fill="#000000"/>
<path class="legend" d="M 1031.8 367.6 Q 1032.8 368.1, 1033.4 368.8 Q 1034.0 369.4, 1034.0 370.5 Q 1034.0 371.5, 1033.5 372.2 Q 1033.0 373.0, 1032.1 373.4 Q 1031.3 373.8, 1030.1 373.8 Q 1028.2 373.8, 1027.1 372.9 Q 1026.0 372.0, 1026.0 370.5 Q 1026.0 369.6, 1026.5 368.9 Q 1027.0 368.2, 1028.0 367.7 Q 1027.2 367.3, 1026.8 366.7 Q 1026.4 366.0, 1026.4 365.1 Q 1026.4 363.7, 1027.4 363.0 Q 1028.4 362.2, 1030.0 362.2 Q 1031.7 362.2, 1032.6 363.0 Q 1033.6 363.7, 1033.6 365.1 Q 1033.6 365.9, 1033.1 366.5 Q 1032.7 367.1, 1031.8 367.6 M 1030.0 363.4 Q 1029.1 363.4, 1028.6 363.8 Q 1028.0 364.3, 1028.0 365.1 Q 1028.0 365.7, 1028.4 366.1 Q 1028.7 366.4, 1029.2 366.7 Q 1029.8 366.9, 1030.7 367.2 Q 1031.4 366.8, 1031.7 366.2 Q 1032.0 365.7, 1032.0 365.1 Q 1032.0 364.3, 1031.5 363.8 Q 1031.0 363.4, 1030.0 363.4 M 1030.1 372.6 Q 1031.1 372.6, 1031.8 372.0 Q 1032.4 371.5, 1032.4 370.5 Q 1032.4 369.9, 1032.1 369.5 Q 1031.8 369.1, 1031.2 368.9 Q 1030.7 368.7, 1029.8 368.4 L 1029.1 368.2 Q 1028.3 368.6, 1028.0 369.2 Q 1027.6 369.8, 1027.6 370.5 Q 1027.6 371.5, 1028.3 372.0 Q 1029.0 372.6, 1030.1 372.6 " fill="#000000"/>
<path class="legend" d="M 936.9 383.8 Q 936.9 381.8, 937.9 380.7 Q 938.9 379.5, 940.9 379.5 Q 942.7 379.5, 943.7 380.9 L 942.7 381.6 Q 942.3 381.2, 941.9 380.9 Q 941.5 380.7, 940.9 380.7 Q 939.7 380.7, 939.1 381.5 Q 938.5 382.3, 938.5 383.8 Q 938.5 385.3, 939.1 386.1 Q 939.8 386.8, 941.0 386.8 Q 941.6 386.8, 942.1 386.7 Q 942.6 386.5, 943.1 386.3 L 943.6 387.3 Q 942.4 388.0, 940.9 388.0 Q 938.9 388.0, 937.9 386.9 Q 936.9 385.7, 936.9 383.8 " fill="#000000"/>
<path class="legend" d="M 944.1 383.8 Q 944.1 381.7, 945.1 380.6 Q 946.1 379.5, 948.0 379.5 Q 949.8 379.5, 950.6 380.6 Q 951.4 381.7, 951.4 383.7 L 951.4 384.0 L 945.6 384.0 Q 945.7 385.4, 946.3 386.1 Q 946.9 386.8, 948.1 386.8 Q 948.7 386.8, 949.3 386.7 Q 949.9 386.5, 950.6 386.2 L 951.1 387.2 Q 950.3 387.6, 949.5 387.8 Q 948.8 388.0, 948.0 388.0 Q 946.2 388.0, 945.1 386.9 Q 944.1 385.8, 944.1 383.8 M 948.0 380.7 Q 947.0 380.7, 946.4 381.2 Q 945.9 381.8, 945.7 382.8 L 949.8 382.8 Q 949.7 381.7, 949.2 381.2 Q 948.8 380.7, 948.0 380.7 " fill="#000000"/>
<path class="legend" d="M 956.3 379.5 Q 957.6 379.5, 958.3 380.3 Q 959.0 381.0, 959.0 382.4 L 959.0 387.9 L 957.5 387.9 L 957.5 382.6 Q 957.5 381.6, 957.1 381.2 Q 956.7 380.7, 955.9 380.7 Q 955.1 380.7, 954.5 381.1 Q 953.9 381.4, 953.5 382.0 L 953.5 387.9 L 952.0 387.9 L 952.0 379.7 L 953.2 379.7 L 953.4 380.8 Q 954.5 379.5, 956.3 379.5 " fill="#000000"/>
<path class="legend" d="M 960.2 380.8 L 960.2 379.7 L 961.8 379.7 L 962.0 377.3 L 963.2 377.3 L 963.2 379.7 L 965.7 379.7 L 965.7 380.8 L 963.2 380.8 L 963.2 385.4 Q 963.2 386.8, 964.4 386.8 Q 964.8 386.8, 965.5 386.6 L 965.8 387.6 Q 964.9 388.0, 964.1 388.0 Q 963.0 388.0, 962.3 387.3 Q 961.7 386.7, 961.7 385.4 L 961.7 380.8 L 960.2 380.8 " fill="#000000"/>
<path class="legend" d="M 974.4 388.7 L 974.4 390.0 L 966.2 390.0 L 966.2 388.7 L 974.4 388.7 " fill="#000000"/>
<path class="legend" d="M 981.8 375.7 L 981.8 387.9 L 980.6 387.9 L 980.4 386.9 Q 979.5 388.0, 978.0 388.0 Q 976.3 388.0, 975.3 387.0 Q 974.4 385.9, 974.4 383.9 Q 974.4 381.8, 975.5 380.7 Q 976.6 379.5, 978.6 379.5 Q 979.4 379.5, 980.3 379.7 L 980.3 375.7 L 981.8 375.7 M 978.1 386.8 Q 978.9 386.8, 979.5 386.4 Q 980.1 385.9, 980.3 385.1 L 980.3 380.9 Q 979.5 380.7, 978.6 380.7 Q 977.3 380.7, 976.6 381.6 Q 975.9 382.4, 975.9 383.9 Q 975.9 385.3, 976.5 386.1 Q 977.0 386.8, 978.1 386.8 " fill="#000000"/>
<path class="legend" d="M 983.1 376.6 L 984.6 376.6 L 984.6 378.0 L 983.1 378.0 L 983.1 376.6 M 983.1 379.7 L 984.6 379.7 L 984.6 387.9 L 983.1 387.9 L 983.1 379.7 " fill="#000000"/>
<path class="legend" d="M 986.4 386.2 Q 987.1 386.5, 987.7 386.6 Q 988.2 386.8, 988.7 386.8 Q 989.5 386.8, 989.9 386.5 Q 990.3 386.2, 990.3 385.6 Q 990.3 385.2, 990.1 385.0 Q 989.9 384.8, 989.6 384.6 Q 989.3 384.5, 988.6 384.3 Q 988.5 384.3, 987.8 384.0 Q 987.0 383.7, 986.6 383.2 Q 986.2 382.7, 986.2 381.9 Q 986.2 380.9, 987.0 380.2 Q 987.8 379.5, 989.3 379.5 Q 989.9 379.5, 990.4 379.7 Q 991.0 379.8, 991.6 380.0 L 991.2 381.2 Q 990.7 381.0, 990.2 380.9 Q 989.8 380.8, 989.3 380.8 Q 988.5 380.8, 988.1 381.1 Q 987.7 381.4, 987.7 381.8 Q 987.7 382.3, 988.0 382.5 Q 988.3 382.7, 989.0 383.0 Q 989.2 383.0, 989.3 383.1 L 989.7 383.2 Q 990.4 383.4, 990.8 383.7 Q 991.2 383.9, 991.5 384.4 Q 991.8 384.8, 991.8 385.6 Q 991.8 386.7, 990.9 387.4 Q 990.1 388.0, 988.8 388.0 Q 988.0 388.0, 987.3 387.9 Q 986.6 387.7, 986.0 387.4 L 986.4 386.2 " fill="#000000"/>
<path class="legend" d="M 992.6 380.8 L 992.6 379.7 L 994.2 379.7 L 994.5 377.3 L 995.6 377.3 L 995.6 379.7 L 998.1 379.7 L 998.1 380.8 L 995.6 380.8 L 995.6 385.4 Q 995.6 386.8, 996.8 386.8 Q 997.3 386.8, 998.0 386.6 L 998.2 387.6 Q 997.3 388.0, 996.5 388.0 Q 995.4 388.0, 994.7 387.3 Q 994.1 386.7, 994.1 385.4 L 994.1 380.8 L 992.6 380.8 " fill="#000000"/>
<path class="legend" d="" fill="#000000"/>
<path class="legend" d="M 1004.0 380.9 L 1011.3 380.9 L 1011.3 382.1 L 1004.0 382.1 L 1004.0 380.9 M 1004.0 384.4 L 1011.3 384.4 L 1011.3 385.5 L 1004.0 385.5 L 1004.0 384.4 " fill="#000000"/>
<path class="legend" d="" fill="#000000"/>
<path class="legend" d="M 1018.7 386.6 L 1021.2 386.6 L 1021.2 378.1 L 1018.4 379.0 L 1018.1 378.0 L 1021.5 376.5 L 1022.7 376.7 L 1022.7 386.6 L 1024.9 386.6 L 1024.9 387.9 L 1018.7 387.9 L 1018.7 386.6 " fill="#000000"/>
<path class="legend" d="M 1025.6 386.3 L 1027.2 386.3 L 1027.2 387.9 L 1025.6 387.9 L 1025.6 386.3 " fill="#000000"/>
<path class="legend" d="M 1035.6 384.0 L 1036.9 384.0 L 1036.9 385.3 L 1035.6 385.3 L 1035.6 387.9 L 1034.1 387.9 L 1034.1 385.3 L 1028.2 385.3 L 1028.2 384.3 L 1033.2 376.6 L 1035.6 376.6 L 1035.6 384.0 M 1030.1 384.0 L 1034.1 384.0 L 1034.1 377.6 L 1030.1 384.0 " fill="#000000"/>
<path class="legend" d="M 1045.1 384.0 L 1046.4 384.0 L 1046.4 385.3 L 1045.1 385.3 L 1045.1 387.9 L 1043.6 387.9 L 1043.6 385.3 L 1037.7 385.3 L 1037.7 384.3 L 1042.7 376.6 L 1045.1 376.6 L 1045.1 384.0 M 1039.6 384.0 L 1043.6 384.0 L 1043.6 377.6 L 1039.6 384.0 " fill="#000000"/>
<path class="legend" d="M 1053.2 377.8 L 1047.2 377.8 L 1047.2 376.6 L 1054.7 376.6 L 1054.7 377.7 L 1050.2 387.9 L 1048.6 387.9 L 1053.2 377.8 " fill="#000000"/>
<path class="legend" d="M 1059.6 380.8 Q 1060.6 380.8, 1061.4 381.2 Q 1062.2 381.7, 1062.6 382.5 Q 1063.1 383.2, 1063.1 384.2 Q 1063.1 385.3, 1062.6 386.2 Q 1062.1 387.1, 1061.2 387.5 Q 1060.4 388.0, 1059.3 388.0 Q 1057.2 388.0, 1056.2 386.7 Q 1055.2 385.3, 1055.2 382.6 Q 1055.2 379.6, 1056.5 378.0 Q 1057.7 376.4, 1060.1 376.4 Q 1060.8 376.4, 1061.4 376.6 Q 1062.0 376.8, 1062.6 377.1 L 1062.0 378.2 Q 1061.2 377.7, 1060.1 377.7 Q 1058.5 377.7, 1057.7 378.8 Q 1056.9 379.8, 1056.8 381.9 Q 1057.4 381.4, 1058.1 381.1 Q 1058.9 380.8, 1059.6 380.8 M 1059.3 386.7 Q 1059.9 386.7, 1060.4 386.4 Q 1060.9 386.1, 1061.2 385.5 Q 1061.5 384.9, 1061.5 384.3 Q 1061.5 383.2, 1060.9 382.7 Q 1060.3 382.1, 1059.3 382.1 Q 1058.7 382.1, 1058.0 382.4 Q 1057.3 382.7, 1056.8 383.1 Q 1056.9 385.0, 1057.5 385.9 Q 1058.1 386.7, 1059.3 386.7 " fill="#000000"/>
</svg>