<svg xmlns="http://www.w3.org/2000/svg" xmlns:rdkit="http://www.rdkit.org/xml" xmlns:xlink="http://www.w3.org/1999/xlink" version="1.1" baseProfile="full" xml:space="preserve" width="2000px" height="400px" viewBox="0 0 2000 400">
<!-- END OF HEADER -->
<rect style="opacity:1.0;fill:#FFFFFF;stroke:none" width="2000.0" height="400.0" x="0.0" y="0.0"> </rect>
<path class="bond-0 atom-0 atom-1" d="M 381.8,169.7 L 304.6,151.2" style="fill:none;fill-rule:evenodd;stroke:#000000;stroke-width:2.0px;stroke-linecap:butt;stroke-linejoin:miter;stroke-opacity:1"/>
<path class="bond-1 atom-1 atom-2" d="M 304.6,151.2 L 282.0,75.0" style="fill:none;fill-rule:evenodd;stroke:#000000;stroke-width:2.0px;stroke-linecap:butt;stroke-linejoin:miter;stroke-opacity:1"/>
<path class="bond-2 atom-1 atom-3" d="M 304.6,151.2 L 249.9,208.8" style="fill:none;fill-rule:evenodd;stroke:#000000;stroke-width:2.0px;stroke-linecap:butt;stroke-linejoin:miter;stroke-opacity:1"/>
<path class="bond-2 atom-1 atom-3" d="M 307.9,170.8 L 269.6,211.1" style="fill:none;fill-rule:evenodd;stroke:#000000;stroke-width:2.0px;stroke-linecap:butt;stroke-linejoin:miter;stroke-opacity:1"/>
<path class="bond-3 atom-3 atom-4" d="M 249.9,208.8 L 272.5,285.0" style="fill:none;fill-rule:evenodd;stroke:#000000;stroke-width:2.0px;stroke-linecap:butt;stroke-linejoin:miter;stroke-opacity:1"/>
<path class="bond-4 atom-3 atom-5" d="M 249.9,208.8 L 172.7,190.3" style="fill:none;fill-rule:evenodd;stroke:#000000;stroke-width:2.0px;stroke-linecap:butt;stroke-linejoin:miter;stroke-opacity:1"/>
<path class="bond-5 atom-5 atom-6" d="M 172.7,190.3 L 118.0,247.9" style="fill:none;fill-rule:evenodd;stroke:#000000;stroke-width:2.0px;stroke-linecap:butt;stroke-linejoin:miter;stroke-opacity:1"/>
<path class="bond-5 atom-5 atom-6" d="M 152.9,188.0 L 114.7,228.3" style="fill:none;fill-rule:evenodd;stroke:#000000;stroke-width:2.0px;stroke-linecap:butt;stroke-linejoin:miter;stroke-opacity:1"/>
<path class="bond-6 atom-6 atom-7" d="M 118.0,247.9 L 40.7,229.4" style="fill:none;fill-rule:evenodd;stroke:#000000;stroke-width:2.0px;stroke-linecap:butt;stroke-linejoin:miter;stroke-opacity:1"/>
<path class="bond-7 atom-7 atom-8" d="M 40.7,229.4 L 18.2,153.2" style="fill:none;fill-rule:evenodd;stroke:#000000;stroke-width:2.0px;stroke-linecap:butt;stroke-linejoin:miter;stroke-opacity:1"/>
<path class="bond-7 atom-7 atom-8" d="M 52.6,213.4 L 36.8,160.1" style="fill:none;fill-rule:evenodd;stroke:#000000;stroke-width:2.0px;stroke-linecap:butt;stroke-linejoin:miter;stroke-opacity:1"/>
<path class="bond-8 atom-8 atom-9" d="M 18.2,153.2 L 72.9,95.6" style="fill:none;fill-rule:evenodd;stroke:#000000;stroke-width:2.0px;stroke-linecap:butt;stroke-linejoin:miter;stroke-opacity:1"/>
<path class="bond-9 atom-9 atom-10" d="M 72.9,95.6 L 150.1,114.1" style="fill:none;fill-rule:evenodd;stroke:#000000;stroke-width:2.0px;stroke-linecap:butt;stroke-linejoin:miter;stroke-opacity:1"/>
<path class="bond-9 atom-9 atom-10" d="M 80.7,113.8 L 134.8,126.8" style="fill:none;fill-rule:evenodd;stroke:#000000;stroke-width:2.0px;stroke-linecap:butt;stroke-linejoin:miter;stroke-opacity:1"/>
<path class="bond-10 atom-10 atom-5" d="M 150.1,114.1 L 172.7,190.3" style="fill:none;fill-rule:evenodd;stroke:#000000;stroke-width:2.0px;stroke-linecap:butt;stroke-linejoin:miter;stroke-opacity:1"/>
<path class="legend" d="M 167.6 365.4 L 167.7 366.5 Q 168.6 365.3, 170.0 365.3 Q 170.5 365.3, 171.1 365.4 L 170.8 366.8 Q 170.1 366.6, 169.8 366.6 Q 169.1 366.6, 168.6 366.9 Q 168.2 367.1, 167.8 367.8 L 167.8 373.6 L 166.3 373.6 L 166.3 365.4 L 167.6 365.4 " fill="#000000"/>
<path class="legend" d="M 171.3 369.5 Q 171.3 367.5, 172.3 366.4 Q 173.3 365.3, 175.2 365.3 Q 177.0 365.3, 177.8 366.4 Q 178.6 367.4, 178.6 369.5 L 178.6 369.7 L 172.8 369.7 Q 172.9 371.1, 173.5 371.8 Q 174.1 372.6, 175.3 372.6 Q 175.9 372.6, 176.5 372.4 Q 177.1 372.3, 177.8 372.0 L 178.3 373.0 Q 177.4 373.4, 176.7 373.6 Q 176.0 373.8, 175.2 373.8 Q 173.4 373.8, 172.3 372.6 Q 171.3 371.5, 171.3 369.5 M 175.2 366.4 Q 174.2 366.4, 173.6 367.0 Q 173.1 367.5, 172.9 368.6 L 177.0 368.6 Q 176.9 367.5, 176.4 367.0 Q 176.0 366.4, 175.2 366.4 " fill="#000000"/>
<path class="legend" d="M 179.2 371.4 Q 179.2 370.1, 180.2 369.4 Q 181.3 368.7, 183.2 368.7 L 184.5 368.7 L 184.5 368.3 Q 184.5 367.3, 184.0 366.9 Q 183.6 366.4, 182.6 366.4 Q 181.9 366.4, 181.4 366.6 Q 180.9 366.7, 180.1 367.0 L 179.7 366.0 Q 181.2 365.3, 182.6 365.3 Q 184.4 365.3, 185.2 366.0 Q 186.0 366.8, 186.0 368.4 L 186.0 373.6 L 184.8 373.6 Q 184.8 373.6, 184.7 373.3 Q 184.7 373.1, 184.6 372.7 Q 183.4 373.8, 181.9 373.8 Q 180.7 373.8, 179.9 373.2 Q 179.2 372.5, 179.2 371.4 M 180.7 371.4 Q 180.7 372.0, 181.1 372.3 Q 181.5 372.6, 182.2 372.6 Q 182.8 372.6, 183.4 372.4 Q 184.0 372.0, 184.5 371.5 L 184.5 369.8 L 183.3 369.8 Q 182.0 369.8, 181.4 370.2 Q 180.7 370.6, 180.7 371.4 " fill="#000000"/>
<path class="legend" d="M 187.2 369.5 Q 187.2 367.5, 188.2 366.4 Q 189.2 365.3, 191.1 365.3 Q 193.0 365.3, 194.0 366.6 L 193.0 367.4 Q 192.6 366.9, 192.1 366.7 Q 191.7 366.4, 191.1 366.4 Q 190.0 366.4, 189.4 367.2 Q 188.7 368.0, 188.7 369.5 Q 188.7 371.0, 189.4 371.8 Q 190.0 372.6, 191.2 372.6 Q 191.9 372.6, 192.4 372.4 Q 192.8 372.3, 193.4 372.0 L 193.8 373.0 Q 192.6 373.7, 191.1 373.7 Q 189.2 373.7, 188.2 372.6 Q 187.2 371.5, 187.2 369.5 " fill="#000000"/>
<path class="legend" d="M 194.4 366.6 L 194.4 365.4 L 195.9 365.4 L 196.2 363.0 L 197.3 363.0 L 197.3 365.4 L 199.8 365.4 L 199.8 366.6 L 197.3 366.6 L 197.3 371.1 Q 197.3 372.5, 198.5 372.5 Q 199.0 372.5, 199.7 372.3 L 199.9 373.4 Q 199.1 373.7, 198.2 373.7 Q 197.2 373.7, 196.5 373.1 Q 195.8 372.4, 195.8 371.2 L 195.8 366.6 L 194.4 366.6 " fill="#000000"/>
<path class="legend" d="M 208.5 374.4 L 208.5 375.7 L 200.3 375.7 L 200.3 374.4 L 208.5 374.4 " fill="#000000"/>
<path class="legend" d="M 208.5 364.4 Q 209.0 363.4, 209.9 362.8 Q 210.9 362.2, 212.3 362.2 Q 214.0 362.2, 215.0 363.1 Q 215.9 364.0, 215.9 365.7 Q 215.9 367.4, 214.7 368.9 Q 213.5 370.5, 210.9 372.4 L 216.1 372.4 L 216.1 373.6 L 208.5 373.6 L 208.5 372.6 Q 210.6 371.1, 211.9 369.9 Q 213.1 368.8, 213.7 367.8 Q 214.3 366.8, 214.3 365.8 Q 214.3 364.7, 213.8 364.1 Q 213.3 363.5, 212.3 363.5 Q 211.4 363.5, 210.8 363.8 Q 210.2 364.2, 209.8 365.0 L 208.5 364.4 " fill="#000000"/>
<path class="legend" d="M 220.9 362.2 Q 222.9 362.2, 223.9 363.6 Q 225.0 364.9, 225.0 367.6 Q 225.0 370.6, 223.7 372.2 Q 222.4 373.8, 220.0 373.8 Q 219.3 373.8, 218.7 373.6 Q 218.1 373.4, 217.5 373.1 L 218.2 372.0 Q 219.0 372.5, 220.0 372.5 Q 221.6 372.5, 222.4 371.5 Q 223.2 370.4, 223.3 368.3 Q 222.8 368.8, 222.0 369.1 Q 221.3 369.4, 220.5 369.4 Q 219.5 369.4, 218.7 368.9 Q 218.0 368.5, 217.5 367.7 Q 217.1 366.9, 217.1 366.0 Q 217.1 364.8, 217.6 364.0 Q 218.1 363.1, 218.9 362.7 Q 219.8 362.2, 220.9 362.2 M 218.7 365.9 Q 218.7 366.9, 219.3 367.5 Q 219.8 368.1, 220.8 368.1 Q 221.5 368.1, 222.2 367.8 Q 222.9 367.5, 223.3 367.1 Q 223.3 365.2, 222.7 364.3 Q 222.1 363.5, 220.9 363.5 Q 220.3 363.5, 219.8 363.8 Q 219.3 364.1, 219.0 364.7 Q 218.7 365.2, 218.7 365.9 " fill="#000000"/>
<path class="legend" d="M 231.5 367.7 Q 232.6 368.0, 233.1 368.7 Q 233.7 369.4, 233.7 370.5 Q 233.7 371.5, 233.2 372.2 Q 232.7 373.0, 231.8 373.4 Q 230.9 373.8, 229.8 373.8 Q 228.6 373.8, 227.7 373.4 Q 226.8 372.9, 226.0 372.1 L 227.0 371.2 Q 227.7 371.9, 228.2 372.2 Q 228.8 372.5, 229.8 372.5 Q 230.8 372.5, 231.4 372.0 Q 232.1 371.4, 232.1 370.5 Q 232.1 369.4, 231.4 368.8 Q 230.8 368.3, 229.4 368.3 L 228.6 368.3 L 228.6 367.2 L 229.3 367.2 Q 230.5 367.2, 231.2 366.6 Q 231.8 366.1, 231.8 365.1 Q 231.8 364.3, 231.3 363.9 Q 230.7 363.5, 229.8 363.5 Q 228.9 363.5, 228.3 363.8 Q 227.7 364.1, 227.2 365.0 L 226.1 364.4 Q 226.5 363.4, 227.5 362.8 Q 228.5 362.2, 229.8 362.2 Q 231.5 362.2, 232.4 363.0 Q 233.4 363.7, 233.4 365.1 Q 233.4 366.0, 232.9 366.6 Q 232.4 367.3, 231.5 367.7 " fill="#000000"/>
<path class="legend" d="M 136.3 383.8 Q 136.3 381.8, 137.3 380.7 Q 138.3 379.5, 140.3 379.5 Q 142.1 379.5, 143.1 380.9 L 142.1 381.6 Q 141.7 381.2, 141.3 380.9 Q 140.8 380.7, 140.3 380.7 Q 139.1 380.7, 138.5 381.5 Q 137.9 382.3, 137.9 383.8 Q 137.9 385.3, 138.5 386.1 Q 139.2 386.8, 140.4 386.8 Q 141.0 386.8, 141.5 386.7 Q 142.0 386.5, 142.5 386.3 L 143.0 387.3 Q 141.8 388.0, 140.3 388.0 Q 138.3 388.0, 137.3 386.9 Q 136.3 385.7, 136.3 383.8 " fill="#000000"/>
<path class="legend" d="M 143.5 383.8 Q 143.5 381.7, 144.5 380.6 Q 145.5 379.5, 147.4 379.5 Q 149.2 379.5, 150.0 380.6 Q 150.8 381.7, 150.8 383.7 L 150.8 384.0 L 145.0 384.0 Q 145.1 385.4, 145.7 386.1 Q 146.3 386.8, 147.5 386.8 Q 148.1 386.8, 148.7 386.7 Q 149.3 386.5, 150.0 386.2 L 150.5 387.2 Q 149.6 387.6, 148.9 387.8 Q 148.2 388.0, 147.4 388.0 Q 145.5 388.0, 144.5 386.9 Q 143.5 385.8, 143.5 383.8 M 147.4 380.7 Q 146.4 380.7, 145.8 381.2 Q 145.3 381.8, 145.1 382.8 L 149.2 382.8 Q 149.1 381.7, 148.6 381.2 Q 148.2 380.7, 147.4 380.7 " fill="#000000"/>
<path class="legend" d="M 155.7 379.5 Q 157.0 379.5, 157.7 380.3 Q 158.4 381.0, 158.4 382.4 L 158.4 387.9 L 156.9 387.9 L 156.9 382.6 Q 156.9 381.6, 156.5 381.2 Q 156.1 380.7, 155.3 380.7 Q 154.5 380.7, 153.9 381.1 Q 153.3 381.4, 152.9 382.0 L 152.9 387.9 L 151.4 387.9 L 151.4 379.7 L 152.6 379.7 L 152.8 380.8 Q 153.9 379.5, 155.7 379.5 " fill="#000000"/>
<path class="legend" d="M 159.6 380.8 L 159.6 379.7 L 161.2 379.7 L 161.4 377.3 L 162.6 377.3 L 162.6 379.7 L 165.1 379.7 L 165.1 380.8 L 162.6 380.8 L 162.6 385.4 Q 162.6 386.8, 163.8 386.8 Q 164.2 386.8, 164.9 386.6 L 165.2 387.6 Q 164.3 388.0, 163.5 388.0 Q 162.4 388.0, 161.7 387.3 Q 161.1 386.7, 161.1 385.4 L 161.1 380.8 L 159.6 380.8 " fill="#000000"/>
<path class="legend" d="M 173.8 388.7 L 173.8 390.0 L 165.6 390.0 L 165.6 388.7 L 173.8 388.7 " fill="#000000"/>
<path class="legend" d="M 181.2 375.7 L 181.2 387.9 L 180.0 387.9 L 179.8 386.9 Q 178.9 388.0, 177.4 388.0 Q 175.7 388.0, 174.7 387.0 Q 173.8 385.9, 173.8 383.9 Q 173.8 381.8, 174.9 380.7 Q 176.0 379.5, 178.0 379.5 Q 178.8 379.5, 179.7 379.7 L 179.7 375.7 L 181.2 375.7 M 177.5 386.8 Q 178.3 386.8, 178.9 386.4 Q 179.5 385.9, 179.7 385.1 L 179.7 380.9 Q 178.9 380.7, 178.0 380.7 Q 176.7 380.7, 176.0 381.6 Q 175.3 382.4, 175.3 383.9 Q 175.3 385.3, 175.9 386.1 Q 176.4 386.8, 177.5 386.8 " fill="#000000"/>
<path class="legend" d="M 182.5 376.6 L 184.0 376.6 L 184.0 378.0 L 182.5 378.0 L 182.5 376.6 M 182.5 379.7 L 184.0 379.7 L 184.0 387.9 L 182.5 387.9 L 182.5 379.7 " fill="#000000"/>
<path class="legend" d="M 185.8 386.2 Q 186.5 386.5, 187.1 386.6 Q 187.6 386.8, 188.1 386.8 Q 188.9 386.8, 189.3 386.5 Q 189.7 386.2, 189.7 385.6 Q 189.7 385.2, 189.5 385.0 Q 189.2 384.8, 189.0 384.6 Q 188.7 384.5, 188.0 384.3 Q 187.9 384.3, 187.1 384.0 Q 186.4 383.7, 186.0 383.2 Q 185.6 382.7, 185.6 381.9 Q 185.6 380.9, 186.4 380.2 Q 187.2 379.5, 188.7 379.5 Q 189.3 379.5, 189.8 379.7 Q 190.4 379.8, 191.0 380.0 L 190.6 381.2 Q 190.1 381.0, 189.6 380.9 Q 189.1 380.8, 188.7 380.8 Q 187.9 380.8, 187.5 381.1 Q 187.1 381.4, 187.1 381.8 Q 187.1 382.3, 187.4 382.5 Q 187.7 382.7, 188.4 383.0 Q 188.6 383.0, 188.7 383.1 L 189.1 383.2 Q 189.8 383.4, 190.2 383.7 Q 190.6 383.9, 190.9 384.4 Q 191.2 384.8, 191.2 385.6 Q 191.2 386.7, 190.3 387.4 Q 189.5 388.0, 188.2 388.0 Q 187.4 388.0, 186.7 387.9 Q 186.0 387.7, 185.4 387.4 L 185.8 386.2 " fill="#000000"/>
<path class="legend" d="M 192.0 380.8 L 192.0 379.7 L 193.6 379.7 L 193.9 377.3 L 195.0 377.3 L 195.0 379.7 L 197.5 379.7 L 197.5 380.8 L 195.0 380.8 L 195.0 385.4 Q 195.0 386.8, 196.2 386.8 Q 196.7 386.8, 197.4 386.6 L 197.6 387.6 Q 196.7 388.0, 195.9 388.0 Q 194.8 388.0, 194.1 387.3 Q 193.5 386.7, 193.5 385.4 L 193.5 380.8 L 192.0 380.8 " fill="#000000"/>
<path class="legend" d="" fill="#000000"/>
<path class="legend" d="M 203.3 380.9 L 210.7 380.9 L 210.7 382.1 L 203.3 382.1 L 203.3 380.9 M 203.3 384.4 L 210.7 384.4 L 210.7 385.5 L 203.3 385.5 L 203.3 384.4 " fill="#000000"/>
<path class="legend" d="" fill="#000000"/>
<path class="legend" d="M 218.1 386.6 L 220.6 386.6 L 220.6 378.1 L 217.8 379.0 L 217.5 378.0 L 220.9 376.5 L 222.1 376.7 L 222.1 386.6 L 224.3 386.6 L 224.3 387.9 L 218.1 387.9 L 218.1 386.6 " fill="#000000"/>
<path class="legend" d="M 225.0 386.3 L 226.6 386.3 L 226.6 387.9 L 225.0 387.9 L 225.0 386.3 " fill="#000000"/>
<path class="legend" d="M 231.7 388.0 Q 229.7 388.0, 228.6 386.5 Q 227.6 384.9, 227.6 382.2 Q 227.6 379.5, 228.6 378.0 Q 229.7 376.4, 231.7 376.4 Q 233.8 376.4, 234.9 378.0 Q 235.9 379.5, 235.9 382.2 Q 235.9 384.9, 234.9 386.5 Q 233.8 388.0, 231.7 388.0 M 231.7 386.7 Q 233.0 386.7, 233.6 385.6 Q 234.3 384.4, 234.3 382.2 Q 234.3 380.0, 233.6 378.8 Q 233.0 377.7, 231.7 377.7 Q 230.5 377.7, 229.9 378.8 Q 229.2 380.0, 229.2 382.2 Q 229.2 384.4, 229.9 385.6 Q 230.5 386.7, 231.7 386.7 " fill="#000000"/>
<path class="legend" d="M 240.7 376.4 Q 242.8 376.4, 243.8 377.8 Q 244.8 379.2, 244.8 381.9 Q 244.8 384.9, 243.5 386.5 Q 242.3 388.0, 239.9 388.0 Q 239.2 388.0, 238.5 387.9 Q 238.0 387.7, 237.4 387.4 L 238.0 386.3 Q 238.8 386.7, 239.8 386.7 Q 241.4 386.7, 242.3 385.7 Q 243.1 384.7, 243.2 382.5 Q 242.6 383.1, 241.9 383.4 Q 241.1 383.6, 240.4 383.6 Q 239.4 383.6, 238.6 383.2 Q 237.8 382.8, 237.4 382.0 Q 236.9 381.2, 236.9 380.2 Q 236.9 379.1, 237.4 378.3 Q 237.9 377.4, 238.8 376.9 Q 239.6 376.4, 240.7 376.4 M 238.5 380.2 Q 238.5 381.2, 239.1 381.8 Q 239.7 382.4, 240.6 382.4 Q 241.3 382.4, 242.0 382.1 Q 242.7 381.8, 243.2 381.3 Q 243.1 379.4, 242.5 378.6 Q 241.9 377.7, 240.7 377.7 Q 240.1 377.7, 239.6 378.1 Q 239.1 378.4, 238.8 378.9 Q 238.5 379.5, 238.5 380.2 " fill="#000000"/>
<path class="legend" d="M 253.2 384.0 L 254.6 384.0 L 254.6 385.3 L 253.2 385.3 L 253.2 387.9 L 251.7 387.9 L 251.7 385.3 L 245.9 385.3 L 245.9 384.3 L 250.8 376.6 L 253.2 376.6 L 253.2 384.0 M 247.7 384.0 L 251.7 384.0 L 251.7 377.6 L 247.7 384.0 " fill="#000000"/>
<path class="legend" d="M 259.5 388.0 Q 257.4 388.0, 256.4 386.5 Q 255.4 384.9, 255.4 382.2 Q 255.4 379.5, 256.4 378.0 Q 257.4 376.4, 259.5 376.4 Q 261.6 376.4, 262.6 378.0 Q 263.7 379.5, 263.7 382.2 Q 263.7 384.9, 262.6 386.5 Q 261.6 388.0, 259.5 388.0 M 259.5 386.7 Q 260.8 386.7, 261.4 385.6 Q 262.1 384.4, 262.1 382.2 Q 262.1 380.0, 261.4 378.8 Q 260.8 377.7, 259.5 377.7 Q 258.3 377.7, 257.6 378.8 Q 257.0 380.0, 257.0 382.2 Q 257.0 384.4, 257.6 385.6 Q 258.3 386.7, 259.5 386.7 " fill="#000000"/>
<path class="bond-0 atom-0 atom-1" d="M 543.6,74.7 L 557.5,152.9" style="fill:none;fill-rule:evenodd;stroke:#000000;stroke-width:2.0px;stroke-linecap:butt;stroke-linejoin:miter;stroke-opacity:1"/>
<path class="bond-1 atom-1 atom-2" d="M 557.5,152.9 L 496.7,204.1" style="fill:none;fill-rule:evenodd;stroke:#000000;stroke-width:2.0px;stroke-linecap:butt;stroke-linejoin:miter;stroke-opacity:1"/>
<path class="bond-1 atom-1 atom-2" d="M 538.1,148.4 L 495.6,184.2" style="fill:none;fill-rule:evenodd;stroke:#000000;stroke-width:2.0px;stroke-linecap:butt;stroke-linejoin:miter;stroke-opacity:1"/>
<path class="bond-2 atom-2 atom-3" d="M 496.7,204.1 L 469.6,278.7" style="fill:none;fill-rule:evenodd;stroke:#000000;stroke-width:2.0px;stroke-linecap:butt;stroke-linejoin:miter;stroke-opacity:1"/>
<path class="bond-3 atom-3 atom-4" d="M 469.6,278.7 L 418.5,217.9" style="fill:none;fill-rule:evenodd;stroke:#000000;stroke-width:2.0px;stroke-linecap:butt;stroke-linejoin:miter;stroke-opacity:1"/>
<path class="bond-4 atom-1 atom-5" d="M 557.5,152.9 L 632.2,180.0" style="fill:none;fill-rule:evenodd;stroke:#000000;stroke-width:2.0px;stroke-linecap:butt;stroke-linejoin:miter;stroke-opacity:1"/>
<path class="bond-5 atom-5 atom-6" d="M 632.2,180.0 L 646.0,258.2" style="fill:none;fill-rule:evenodd;stroke:#000000;stroke-width:2.0px;stroke-linecap:butt;stroke-linejoin:miter;stroke-opacity:1"/>
<path class="bond-5 atom-5 atom-6" d="M 649.9,189.0 L 659.6,243.7" style="fill:none;fill-rule:evenodd;stroke:#000000;stroke-width:2.0px;stroke-linecap:butt;stroke-linejoin:miter;stroke-opacity:1"/>
<path class="bond-6 atom-6 atom-7" d="M 646.0,258.2 L 720.7,285.3" style="fill:none;fill-rule:evenodd;stroke:#000000;stroke-width:2.0px;stroke-linecap:butt;stroke-linejoin:miter;stroke-opacity:1"/>
<path class="bond-7 atom-7 atom-8" d="M 720.7,285.3 L 781.5,234.2" style="fill:none;fill-rule:evenodd;stroke:#000000;stroke-width:2.0px;stroke-linecap:butt;stroke-linejoin:miter;stroke-opacity:1"/>
<path class="bond-7 atom-7 atom-8" d="M 719.6,265.5 L 762.2,229.7" style="fill:none;fill-rule:evenodd;stroke:#000000;stroke-width:2.0px;stroke-linecap:butt;stroke-linejoin:miter;stroke-opacity:1"/>
<path class="bond-8 atom-8 atom-9" d="M 781.5,234.2 L 767.6,155.9" style="fill:none;fill-rule:evenodd;stroke:#000000;stroke-width:2.0px;stroke-linecap:butt;stroke-linejoin:miter;stroke-opacity:1"/>
<path class="bond-9 atom-9 atom-10" d="M 767.6,155.9 L 692.9,128.9" style="fill:none;fill-rule:evenodd;stroke:#000000;stroke-width:2.0px;stroke-linecap:butt;stroke-linejoin:miter;stroke-opacity:1"/>
<path class="bond-9 atom-9 atom-10" d="M 751.0,166.8 L 698.7,147.9" style="fill:none;fill-rule:evenodd;stroke:#000000;stroke-width:2.0px;stroke-linecap:butt;stroke-linejoin:miter;stroke-opacity:1"/>
<path class="bond-10 atom-4 atom-2" d="M 418.5,217.9 L 496.7,204.1" style="fill:none;fill-rule:evenodd;stroke:#000000;stroke-width:2.0px;stroke-linecap:butt;stroke-linejoin:miter;stroke-opacity:1"/>
<path class="bond-11 atom-10 atom-5" d="M 692.9,128.9 L 632.2,180.0" style="fill:none;fill-rule:evenodd;stroke:#000000;stroke-width:2.0px;stroke-linecap:butt;stroke-linejoin:miter;stroke-opacity:1"/>
<path class="legend" d="M 567.4 365.4 L 567.5 366.5 Q 568.4 365.3, 569.8 365.3 Q 570.3 365.3, 570.9 365.4 L 570.6 366.8 Q 569.9 366.6, 569.6 366.6 Q 568.9 366.6, 568.4 366.9 Q 568.0 367.1, 567.6 367.8 L 567.6 373.6 L 566.1 373.6 L 566.1 365.4 L 567.4 365.4 " fill="#000000"/>
<path class="legend" d="M 571.1 369.5 Q 571.1 367.5, 572.1 366.4 Q 573.1 365.3, 575.0 365.3 Q 576.8 365.3, 577.6 366.4 Q 578.4 367.4, 578.4 369.5 L 578.4 369.7 L 572.6 369.7 Q 572.7 371.1, 573.3 371.8 Q 573.9 372.6, 575.1 372.6 Q 575.7 372.6, 576.3 372.4 Q 576.9 372.3, 577.6 372.0 L 578.1 373.0 Q 577.2 373.4, 576.5 373.6 Q 575.8 373.8, 575.0 373.8 Q 573.2 373.8, 572.1 372.6 Q 571.1 371.5, 571.1 369.5 M 575.0 366.4 Q 574.0 366.4, 573.4 367.0 Q 572.9 367.5, 572.7 368.6 L 576.8 368.6 Q 576.7 367.5, 576.2 367.0 Q 575.8 366.4, 575.0 366.4 " fill="#000000"/>
<path class="legend" d="M 579.0 371.4 Q 579.0 370.1, 580.0 369.4 Q 581.1 368.7, 583.0 368.7 L 584.3 368.7 L 584.3 368.3 Q 584.3 367.3, 583.8 366.9 Q 583.4 366.4, 582.4 366.4 Q 581.7 366.4, 581.2 366.6 Q 580.7 366.7, 579.9 367.0 L 579.5 366.0 Q 581.0 365.3, 582.4 365.3 Q 584.2 365.3, 585.0 366.0 Q 585.8 366.8, 585.8 368.4 L 585.8 373.6 L 584.6 373.6 Q 584.6 373.6, 584.5 373.3 Q 584.5 373.1, 584.4 372.7 Q 583.2 373.8, 581.7 373.8 Q 580.5 373.8, 579.7 373.2 Q 579.0 372.5, 579.0 371.4 M 580.5 371.4 Q 580.5 372.0, 580.9 372.3 Q 581.3 372.6, 582.0 372.6 Q 582.6 372.6, 583.2 372.4 Q 583.8 372.0, 584.3 371.5 L 584.3 369.8 L 583.1 369.8 Q 581.8 369.8, 581.2 370.2 Q 580.5 370.6, 580.5 371.4 " fill="#000000"/>
<path class="legend" d="M 587.0 369.5 Q 587.0 367.5, 588.0 366.4 Q 589.0 365.3, 590.9 365.3 Q 592.8 365.3, 593.8 366.6 L 592.8 367.4 Q 592.4 366.9, 591.9 366.7 Q 591.5 366.4, 590.9 366.4 Q 589.8 366.4, 589.2 367.2 Q 588.5 368.0, 588.5 369.5 Q 588.5 371.0, 589.2 371.8 Q 589.8 372.6, 591.0 372.6 Q 591.7 372.6, 592.2 372.4 Q 592.6 372.3, 593.2 372.0 L 593.6 373.0 Q 592.4 373.7, 590.9 373.7 Q 589.0 373.7, 588.0 372.6 Q 587.0 371.5, 587.0 369.5 " fill="#000000"/>
<path class="legend" d="M 594.2 366.6 L 594.2 365.4 L 595.7 365.4 L 596.0 363.0 L 597.1 363.0 L 597.1 365.4 L 599.6 365.4 L 599.6 366.6 L 597.1 366.6 L 597.1 371.1 Q 597.1 372.5, 598.3 372.5 Q 598.8 372.5, 599.5 372.3 L 599.7 373.4 Q 598.9 373.7, 598.0 373.7 Q 597.0 373.7, 596.3 373.1 Q 595.6 372.4, 595.6 371.2 L 595.6 366.6 L 594.2 366.6 " fill="#000000"/>
<path class="legend" d="M 608.3 374.4 L 608.3 375.7 L 600.1 375.7 L 600.1 374.4 L 608.3 374.4 " fill="#000000"/>
<path class="legend" d="M 613.7 367.7 Q 614.8 368.0, 615.4 368.7 Q 615.9 369.4, 615.9 370.5 Q 615.9 371.5, 615.4 372.2 Q 615.0 373.0, 614.1 373.4 Q 613.2 373.8, 612.0 373.8 Q 610.8 373.8, 609.9 373.4 Q 609.0 372.9, 608.3 372.1 L 609.2 371.2 Q 609.9 371.9, 610.5 372.2 Q 611.1 372.5, 612.0 372.5 Q 613.1 372.5, 613.7 372.0 Q 614.3 371.4, 614.3 370.5 Q 614.3 369.4, 613.7 368.8 Q 613.0 368.3, 611.6 368.3 L 610.8 368.3 L 610.8 367.2 L 611.5 367.2 Q 612.8 367.2, 613.4 366.6 Q 614.1 366.1, 614.1 365.1 Q 614.1 364.3, 613.5 363.9 Q 613.0 363.5, 612.1 363.5 Q 611.1 363.5, 610.5 363.8 Q 610.0 364.1, 609.5 365.0 L 608.4 364.4 Q 608.8 363.4, 609.8 362.8 Q 610.7 362.2, 612.1 362.2 Q 613.7 362.2, 614.7 363.0 Q 615.7 363.7, 615.7 365.1 Q 615.7 366.0, 615.2 366.6 Q 614.7 367.3, 613.7 367.7 " fill="#000000"/>
<path class="legend" d="M 621.0 373.8 Q 618.9 373.8, 617.9 372.2 Q 616.9 370.7, 616.9 368.0 Q 616.9 365.2, 617.9 363.7 Q 618.9 362.2, 621.0 362.2 Q 623.1 362.2, 624.1 363.7 Q 625.2 365.2, 625.2 368.0 Q 625.2 370.7, 624.1 372.2 Q 623.1 373.8, 621.0 373.8 M 621.0 372.5 Q 622.2 372.5, 622.9 371.3 Q 623.6 370.2, 623.6 368.0 Q 623.6 365.7, 622.9 364.6 Q 622.2 363.5, 621.0 363.5 Q 619.8 363.5, 619.1 364.6 Q 618.5 365.7, 618.5 368.0 Q 618.5 370.2, 619.1 371.3 Q 619.8 372.5, 621.0 372.5 " fill="#000000"/>
<path class="legend" d="M 630.3 366.5 Q 631.3 366.5, 632.1 367.0 Q 632.9 367.4, 633.4 368.2 Q 633.9 369.0, 633.9 370.0 Q 633.9 371.2, 633.3 372.1 Q 632.7 372.9, 631.8 373.3 Q 630.9 373.8, 629.8 373.8 Q 628.8 373.8, 627.8 373.4 Q 626.8 373.0, 626.2 372.3 L 627.2 371.3 Q 627.7 371.8, 628.4 372.2 Q 629.1 372.5, 629.9 372.5 Q 630.9 372.5, 631.6 371.8 Q 632.3 371.2, 632.3 370.1 Q 632.3 368.9, 631.6 368.3 Q 630.9 367.7, 629.8 367.7 Q 628.8 367.7, 627.7 368.2 L 626.8 367.8 L 627.3 362.3 L 633.2 362.3 L 633.0 363.6 L 628.6 363.6 L 628.3 366.9 Q 629.3 366.5, 630.3 366.5 " fill="#000000"/>
<path class="legend" d="M 536.3 383.8 Q 536.3 381.8, 537.3 380.7 Q 538.3 379.5, 540.3 379.5 Q 542.1 379.5, 543.1 380.9 L 542.1 381.6 Q 541.7 381.2, 541.3 380.9 Q 540.8 380.7, 540.3 380.7 Q 539.1 380.7, 538.5 381.5 Q 537.9 382.3, 537.9 383.8 Q 537.9 385.3, 538.5 386.1 Q 539.2 386.8, 540.4 386.8 Q 541.0 386.8, 541.5 386.7 Q 542.0 386.5, 542.5 386.3 L 543.0 387.3 Q 541.8 388.0, 540.3 388.0 Q 538.3 388.0, 537.3 386.9 Q 536.3 385.7, 536.3 383.8 " fill="#000000"/>
<path class="legend" d="M 543.5 383.8 Q 543.5 381.7, 544.5 380.6 Q 545.5 379.5, 547.4 379.5 Q 549.2 379.5, 550.0 380.6 Q 550.8 381.7, 550.8 383.7 L 550.8 384.0 L 545.0 384.0 Q 545.1 385.4, 545.7 386.1 Q 546.3 386.8, 547.5 386.8 Q 548.1 386.8, 548.7 386.7 Q 549.3 386.5, 550.0 386.2 L 550.5 387.2 Q 549.6 387.6, 548.9 387.8 Q 548.2 388.0, 547.4 388.0 Q 545.5 388.0, 544.5 386.9 Q 543.5 385.8, 543.5 383.8 M 547.4 380.7 Q 546.4 380.7, 545.8 381.2 Q 545.3 381.8, 545.1 382.8 L 549.2 382.8 Q 549.1 381.7, 548.6 381.2 Q 548.2 380.7, 547.4 380.7 " fill="#000000"/>
<path class="legend" d="M 555.7 379.5 Q 557.0 379.5, 557.7 380.3 Q 558.4 381.0, 558.4 382.4 L 558.4 387.9 L 556.9 387.9 L 556.9 382.6 Q 556.9 381.6, 556.5 381.2 Q 556.1 380.7, 555.3 380.7 Q 554.5 380.7, 553.9 381.1 Q 553.3 381.4, 552.9 382.0 L 552.9 387.9 L 551.4 387.9 L 551.4 379.7 L 552.6 379.7 L 552.8 380.8 Q 553.9 379.5, 555.7 379.5 " fill="#000000"/>
<path class="legend" d="M 559.6 380.8 L 559.6 379.7 L 561.2 379.7 L 561.4 377.3 L 562.6 377.3 L 562.6 379.7 L 565.1 379.7 L 565.1 380.8 L 562.6 380.8 L 562.6 385.4 Q 562.6 386.8, 563.8 386.8 Q 564.2 386.8, 564.9 386.6 L 565.2 387.6 Q 564.3 388.0, 563.5 388.0 Q 562.4 388.0, 561.7 387.3 Q 561.1 386.7, 561.1 385.4 L 561.1 380.8 L 559.6 380.8 " fill="#000000"/>
<path class="legend" d="M 573.8 388.7 L 573.8 390.0 L 565.6 390.0 L 565.6 388.7 L 573.8 388.7 " fill="#000000"/>
<path class="legend" d="M 581.2 375.7 L 581.2 387.9 L 580.0 387.9 L 579.8 386.9 Q 578.9 388.0, 577.4 388.0 Q 575.7 388.0, 574.7 387.0 Q 573.8 385.9, 573.8 383.9 Q 573.8 381.8, 574.9 380.7 Q 576.0 379.5, 578.0 379.5 Q 578.8 379.5, 579.7 379.7 L 579.7 375.7 L 581.2 375.7 M 577.5 386.8 Q 578.3 386.8, 578.9 386.4 Q 579.5 385.9, 579.7 385.1 L 579.7 380.9 Q 578.9 380.7, 578.0 380.7 Q 576.7 380.7, 576.0 381.6 Q 575.3 382.4, 575.3 383.9 Q 575.3 385.3, 575.9 386.1 Q 576.4 386.8, 577.5 386.8 " fill="#000000"/>
<path class="legend" d="M 582.5 376.6 L 584.0 376.6 L 584.0 378.0 L 582.5 378.0 L 582.5 376.6 M 582.5 379.7 L 584.0 379.7 L 584.0 387.9 L 582.5 387.9 L 582.5 379.7 " fill="#000000"/>
<path class="legend" d="M 585.8 386.2 Q 586.5 386.5, 587.1 386.6 Q 587.6 386.8, 588.1 386.8 Q 588.9 386.8, 589.3 386.5 Q 589.7 386.2, 589.7 385.6 Q 589.7 385.2, 589.5 385.0 Q 589.2 384.8, 589.0 384.6 Q 588.7 384.5, 588.0 384.3 Q 587.9 384.3, 587.1 384.0 Q 586.4 383.7, 586.0 383.2 Q 585.6 382.7, 585.6 381.9 Q 585.6 380.9, 586.4 380.2 Q 587.2 379.5, 588.7 379.5 Q 589.3 379.5, 589.8 379.7 Q 590.4 379.8, 591.0 380.0 L 590.6 381.2 Q 590.1 381.0, 589.6 380.9 Q 589.1 380.8, 588.7 380.8 Q 587.9 380.8, 587.5 381.1 Q 587.1 381.4, 587.1 381.8 Q 587.1 382.3, 587.4 382.5 Q 587.7 382.7, 588.4 383.0 Q 588.6 383.0, 588.7 383.1 L 589.1 383.2 Q 589.8 383.4, 590.2 383.7 Q 590.6 383.9, 590.9 384.4 Q 591.2 384.8, 591.2 385.6 Q 591.2 386.7, 590.3 387.4 Q 589.5 388.0, 588.2 388.0 Q 587.4 388.0, 586.7 387.9 Q 586.0 387.7, 585.4 387.4 L 585.8 386.2 " fill="#000000"/>
<path class="legend" d="M 592.0 380.8 L 592.0 379.7 L 593.6 379.7 L 593.9 377.3 L 595.0 377.3 L 595.0 379.7 L 597.5 379.7 L 597.5 380.8 L 595.0 380.8 L 595.0 385.4 Q 595.0 386.8, 596.2 386.8 Q 596.7 386.8, 597.4 386.6 L 597.6 387.6 Q 596.7 388.0, 595.9 388.0 Q 594.8 388.0, 594.1 387.3 Q 593.5 386.7, 593.5 385.4 L 593.5 380.8 L 592.0 380.8 " fill="#000000"/>
<path class="legend" d="" fill="#000000"/>
<path class="legend" d="M 603.3 380.9 L 610.7 380.9 L 610.7 382.1 L 603.3 382.1 L 603.3 380.9 M 603.3 384.4 L 610.7 384.4 L 610.7 385.5 L 603.3 385.5 L 603.3 384.4 " fill="#000000"/>
<path class="legend" d="" fill="#000000"/>
<path class="legend" d="M 618.1 386.6 L 620.6 386.6 L 620.6 378.1 L 617.8 379.0 L 617.5 378.0 L 620.9 376.5 L 622.1 376.7 L 622.1 386.6 L 624.3 386.6 L 624.3 387.9 L 618.1 387.9 L 618.1 386.6 " fill="#000000"/>
<path class="legend" d="M 625.0 386.3 L 626.6 386.3 L 626.6 387.9 L 625.0 387.9 L 625.0 386.3 " fill="#000000"/>
<path class="legend" d="M 631.7 388.0 Q 629.7 388.0, 628.6 386.5 Q 627.6 384.9, 627.6 382.2 Q 627.6 379.5, 628.6 378.0 Q 629.7 376.4, 631.7 376.4 Q 633.8 376.4, 634.9 378.0 Q 635.9 379.5, 635.9 382.2 Q 635.9 384.9, 634.9 386.5 Q 633.8 388.0, 631.7 388.0 M 631.7 386.7 Q 633.0 386.7, 633.6 385.6 Q 634.3 384.4, 634.3 382.2 Q 634.3 380.0, 633.6 378.8 Q 633.0 377.7, 631.7 377.7 Q 630.5 377.7, 629.9 378.8 Q 629.2 380.0, 629.2 382.2 Q 629.2 384.4, 629.9 385.6 Q 630.5 386.7, 631.7 386.7 " fill="#000000"/>
<path class="legend" d="M 640.7 376.4 Q 642.8 376.4, 643.8 377.8 Q 644.8 379.2, 644.8 381.9 Q 644.8 384.9, 643.5 386.5 Q 642.3 388.0, 639.9 388.0 Q 639.2 388.0, 638.5 387.9 Q 638.0 387.7, 637.4 387.4 L 638.0 386.3 Q 638.8 386.7, 639.8 386.7 Q 641.4 386.7, 642.3 385.7 Q 643.1 384.7, 643.2 382.5 Q 642.6 383.1, 641.9 383.4 Q 641.1 383.6, 640.4 383.6 Q 639.4 383.6, 638.6 383.2 Q 637.8 382.8, 637.4 382.0 Q 636.9 381.2, 636.9 380.2 Q 636.9 379.1, 637.4 378.3 Q 637.9 377.4, 638.8 376.9 Q 639.6 376.4, 640.7 376.4 M 638.5 380.2 Q 638.5 381.2, 639.1 381.8 Q 639.7 382.4, 640.6 382.4 Q 641.3 382.4, 642.0 382.1 Q 642.7 381.8, 643.2 381.3 Q 643.1 379.4, 642.5 378.6 Q 641.9 377.7, 640.7 377.7 Q 640.1 377.7, 639.6 378.1 Q 639.1 378.4, 638.8 378.9 Q 638.5 379.5, 638.5 380.2 " fill="#000000"/>
<path class="legend" d="M 653.2 384.0 L 654.6 384.0 L 654.6 385.3 L 653.2 385.3 L 653.2 387.9 L 651.7 387.9 L 651.7 385.3 L 645.9 385.3 L 645.9 384.3 L 650.8 376.6 L 653.2 376.6 L 653.2 384.0 M 647.7 384.0 L 651.7 384.0 L 651.7 377.6 L 647.7 384.0 " fill="#000000"/>
<path class="legend" d="M 659.5 388.0 Q 657.4 388.0, 656.4 386.5 Q 655.4 384.9, 655.4 382.2 Q 655.4 379.5, 656.4 378.0 Q 657.4 376.4, 659.5 376.4 Q 661.6 376.4, 662.6 378.0 Q 663.7 379.5, 663.7 382.2 Q 663.7 384.9, 662.6 386.5 Q 661.6 388.0, 659.5 388.0 M 659.5 386.7 Q 660.8 386.7, 661.4 385.6 Q 662.1 384.4, 662.1 382.2 Q 662.1 380.0, 661.4 378.8 Q 660.8 377.7, 659.5 377.7 Q 658.3 377.7, 657.6 378.8 Q 657.0 380.0, 657.0 382.2 Q 657.0 384.4, 657.6 385.6 Q 658.3 386.7, 659.5 386.7 " fill="#000000"/>
</svg>