<svg xmlns="http://www.w3.org/2000/svg" xmlns:rdkit="http://www.rdkit.org/xml" xmlns:xlink="http://www.w3.org/1999/xlink" version="1.1" baseProfile="full" xml:space="preserve" width="2000px" height="400px" viewBox="0 0 2000 400">
<!-- END OF HEADER -->
<rect style="opacity:1.0;fill:#FFFFFF;stroke:none" width="2000.0" height="400.0" x="0.0" y="0.0"> </rect>
<path class="bond-0 atom-0 atom-1" d="M 232.2,130.7 L 221.4,173.9" style="fill:none;fill-rule:evenodd;stroke:#000000;stroke-width:2.0px;stroke-linecap:butt;stroke-linejoin:miter;stroke-opacity:1"/>
<path class="bond-1 atom-1 atom-2" d="M 221.4,173.9 L 253.4,204.9" style="fill:none;fill-rule:evenodd;stroke:#000000;stroke-width:2.0px;stroke-linecap:butt;stroke-linejoin:miter;stroke-opacity:1"/>
<path class="bond-2 atom-2 atom-3" d="M 253.4,204.9 L 296.2,192.7" style="fill:none;fill-rule:evenodd;stroke:#000000;stroke-width:2.0px;stroke-linecap:butt;stroke-linejoin:miter;stroke-opacity:1"/>
<path class="bond-3 atom-3 atom-4" d="M 296.2,192.7 L 328.2,223.6" style="fill:none;fill-rule:evenodd;stroke:#000000;stroke-width:2.0px;stroke-linecap:butt;stroke-linejoin:miter;stroke-opacity:1"/>
<path class="bond-3 atom-3 atom-4" d="M 307.2,190.9 L 329.6,212.6" style="fill:none;fill-rule:evenodd;stroke:#000000;stroke-width:2.0px;stroke-linecap:butt;stroke-linejoin:miter;stroke-opacity:1"/>
<path class="bond-4 atom-4 atom-5" d="M 328.2,223.6 L 371.0,211.4" style="fill:none;fill-rule:evenodd;stroke:#000000;stroke-width:2.0px;stroke-linecap:butt;stroke-linejoin:miter;stroke-opacity:1"/>
<path class="bond-5 atom-5 atom-6" d="M 371.0,211.4 L 381.8,168.3" style="fill:none;fill-rule:evenodd;stroke:#000000;stroke-width:2.0px;stroke-linecap:butt;stroke-linejoin:miter;stroke-opacity:1"/>
<path class="bond-5 atom-5 atom-6" d="M 364.0,202.8 L 371.6,172.6" style="fill:none;fill-rule:evenodd;stroke:#000000;stroke-width:2.0px;stroke-linecap:butt;stroke-linejoin:miter;stroke-opacity:1"/>
<path class="bond-6 atom-6 atom-7" d="M 381.8,168.3 L 349.8,137.3" style="fill:none;fill-rule:evenodd;stroke:#000000;stroke-width:2.0px;stroke-linecap:butt;stroke-linejoin:miter;stroke-opacity:1"/>
<path class="bond-7 atom-7 atom-8" d="M 349.8,137.3 L 307.0,149.5" style="fill:none;fill-rule:evenodd;stroke:#000000;stroke-width:2.0px;stroke-linecap:butt;stroke-linejoin:miter;stroke-opacity:1"/>
<path class="bond-7 atom-7 atom-8" d="M 345.9,147.7 L 315.9,156.2" style="fill:none;fill-rule:evenodd;stroke:#000000;stroke-width:2.0px;stroke-linecap:butt;stroke-linejoin:miter;stroke-opacity:1"/>
<path class="bond-8 atom-1 atom-9" d="M 221.4,173.9 L 178.6,186.1" style="fill:none;fill-rule:evenodd;stroke:#000000;stroke-width:2.0px;stroke-linecap:butt;stroke-linejoin:miter;stroke-opacity:1"/>
<path class="bond-8 atom-1 atom-9" d="M 212.5,167.2 L 182.6,175.7" style="fill:none;fill-rule:evenodd;stroke:#000000;stroke-width:2.0px;stroke-linecap:butt;stroke-linejoin:miter;stroke-opacity:1"/>
<path class="bond-9 atom-9 atom-10" d="M 178.6,186.1 L 167.8,229.3" style="fill:none;fill-rule:evenodd;stroke:#000000;stroke-width:2.0px;stroke-linecap:butt;stroke-linejoin:miter;stroke-opacity:1"/>
<path class="bond-10 atom-9 atom-11" d="M 178.6,186.1 L 146.6,155.1" style="fill:none;fill-rule:evenodd;stroke:#000000;stroke-width:2.0px;stroke-linecap:butt;stroke-linejoin:miter;stroke-opacity:1"/>
<path class="bond-11 atom-11 atom-12" d="M 146.6,155.1 L 103.8,167.3" style="fill:none;fill-rule:evenodd;stroke:#000000;stroke-width:2.0px;stroke-linecap:butt;stroke-linejoin:miter;stroke-opacity:1"/>
<path class="bond-12 atom-12 atom-13" d="M 103.8,167.3 L 71.8,136.4" style="fill:none;fill-rule:evenodd;stroke:#000000;stroke-width:2.0px;stroke-linecap:butt;stroke-linejoin:miter;stroke-opacity:1"/>
<path class="bond-12 atom-12 atom-13" d="M 92.8,169.1 L 70.4,147.4" style="fill:none;fill-rule:evenodd;stroke:#000000;stroke-width:2.0px;stroke-linecap:butt;stroke-linejoin:miter;stroke-opacity:1"/>
<path class="bond-13 atom-13 atom-14" d="M 71.8,136.4 L 29.0,148.6" style="fill:none;fill-rule:evenodd;stroke:#000000;stroke-width:2.0px;stroke-linecap:butt;stroke-linejoin:miter;stroke-opacity:1"/>
<path class="bond-14 atom-14 atom-15" d="M 29.0,148.6 L 18.2,191.7" style="fill:none;fill-rule:evenodd;stroke:#000000;stroke-width:2.0px;stroke-linecap:butt;stroke-linejoin:miter;stroke-opacity:1"/>
<path class="bond-14 atom-14 atom-15" d="M 36.0,157.2 L 28.4,187.4" style="fill:none;fill-rule:evenodd;stroke:#000000;stroke-width:2.0px;stroke-linecap:butt;stroke-linejoin:miter;stroke-opacity:1"/>
<path class="bond-15 atom-15 atom-16" d="M 18.2,191.7 L 50.2,222.7" style="fill:none;fill-rule:evenodd;stroke:#000000;stroke-width:2.0px;stroke-linecap:butt;stroke-linejoin:miter;stroke-opacity:1"/>
<path class="bond-16 atom-16 atom-17" d="M 50.2,222.7 L 93.0,210.5" style="fill:none;fill-rule:evenodd;stroke:#000000;stroke-width:2.0px;stroke-linecap:butt;stroke-linejoin:miter;stroke-opacity:1"/>
<path class="bond-16 atom-16 atom-17" d="M 54.1,212.3 L 84.1,203.8" style="fill:none;fill-rule:evenodd;stroke:#000000;stroke-width:2.0px;stroke-linecap:butt;stroke-linejoin:miter;stroke-opacity:1"/>
<path class="bond-17 atom-8 atom-3" d="M 307.0,149.5 L 296.2,192.7" style="fill:none;fill-rule:evenodd;stroke:#000000;stroke-width:2.0px;stroke-linecap:butt;stroke-linejoin:miter;stroke-opacity:1"/>
<path class="bond-18 atom-17 atom-12" d="M 93.0,210.5 L 103.8,167.3" style="fill:none;fill-rule:evenodd;stroke:#000000;stroke-width:2.0px;stroke-linecap:butt;stroke-linejoin:miter;stroke-opacity:1"/>
<path class="legend" d="M 167.0 365.4 L 167.2 366.5 Q 168.0 365.3, 169.5 365.3 Q 169.9 365.3, 170.5 365.4 L 170.3 366.8 Q 169.6 366.6, 169.2 366.6 Q 168.5 366.6, 168.1 366.9 Q 167.6 367.1, 167.3 367.8 L 167.3 373.6 L 165.8 373.6 L 165.8 365.4 L 167.0 365.4 " fill="#000000"/>
<path class="legend" d="M 170.8 369.5 Q 170.8 367.5, 171.8 366.4 Q 172.8 365.3, 174.6 365.3 Q 176.4 365.3, 177.2 366.4 Q 178.0 367.4, 178.0 369.5 L 178.0 369.7 L 172.3 369.7 Q 172.3 371.1, 172.9 371.8 Q 173.6 372.6, 174.7 372.6 Q 175.4 372.6, 176.0 372.4 Q 176.6 372.3, 177.3 372.0 L 177.7 373.0 Q 176.9 373.4, 176.2 373.6 Q 175.4 373.8, 174.7 373.8 Q 172.8 373.8, 171.8 372.6 Q 170.8 371.5, 170.8 369.5 M 174.6 366.4 Q 173.7 366.4, 173.1 367.0 Q 172.5 367.5, 172.4 368.6 L 176.4 368.6 Q 176.3 367.5, 175.9 367.0 Q 175.4 366.4, 174.6 366.4 " fill="#000000"/>
<path class="legend" d="M 178.6 371.4 Q 178.6 370.1, 179.7 369.4 Q 180.8 368.7, 182.7 368.7 L 183.9 368.7 L 183.9 368.3 Q 183.9 367.3, 183.5 366.9 Q 183.1 366.4, 182.0 366.4 Q 181.4 366.4, 180.9 366.6 Q 180.4 366.7, 179.6 367.0 L 179.1 366.0 Q 180.6 365.3, 182.1 365.3 Q 183.8 365.3, 184.6 366.0 Q 185.4 366.8, 185.4 368.4 L 185.4 373.6 L 184.2 373.6 Q 184.2 373.6, 184.2 373.3 Q 184.1 373.1, 184.0 372.7 Q 182.9 373.8, 181.3 373.8 Q 180.1 373.8, 179.4 373.2 Q 178.6 372.5, 178.6 371.4 M 180.1 371.4 Q 180.1 372.0, 180.5 372.3 Q 180.9 372.6, 181.6 372.6 Q 182.3 372.6, 182.9 372.4 Q 183.5 372.0, 183.9 371.5 L 183.9 369.8 L 182.8 369.8 Q 181.5 369.8, 180.8 370.2 Q 180.1 370.6, 180.1 371.4 " fill="#000000"/>
<path class="legend" d="M 186.6 369.5 Q 186.6 367.5, 187.6 366.4 Q 188.6 365.3, 190.6 365.3 Q 192.4 365.3, 193.4 366.6 L 192.4 367.4 Q 192.0 366.9, 191.6 366.7 Q 191.2 366.4, 190.6 366.4 Q 189.4 366.4, 188.8 367.2 Q 188.2 368.0, 188.2 369.5 Q 188.2 371.0, 188.8 371.8 Q 189.5 372.6, 190.7 372.6 Q 191.3 372.6, 191.8 372.4 Q 192.3 372.3, 192.8 372.0 L 193.3 373.0 Q 192.1 373.7, 190.6 373.7 Q 188.6 373.7, 187.6 372.6 Q 186.6 371.5, 186.6 369.5 " fill="#000000"/>
<path class="legend" d="M 193.8 366.6 L 193.8 365.4 L 195.4 365.4 L 195.6 363.0 L 196.8 363.0 L 196.8 365.4 L 199.3 365.4 L 199.3 366.6 L 196.8 366.6 L 196.8 371.1 Q 196.8 372.5, 198.0 372.5 Q 198.4 372.5, 199.1 372.3 L 199.4 373.4 Q 198.5 373.7, 197.7 373.7 Q 196.6 373.7, 195.9 373.1 Q 195.2 372.4, 195.2 371.2 L 195.2 366.6 L 193.8 366.6 " fill="#000000"/>
<path class="legend" d="M 208.0 374.4 L 208.0 375.7 L 199.8 375.7 L 199.8 374.4 L 208.0 374.4 " fill="#000000"/>
<path class="legend" d="M 208.0 364.4 Q 208.4 363.4, 209.4 362.8 Q 210.4 362.2, 211.8 362.2 Q 213.5 362.2, 214.4 363.1 Q 215.4 364.0, 215.4 365.7 Q 215.4 367.4, 214.1 368.9 Q 212.9 370.5, 210.4 372.4 L 215.6 372.4 L 215.6 373.6 L 208.0 373.6 L 208.0 372.6 Q 210.1 371.1, 211.3 369.9 Q 212.6 368.8, 213.2 367.8 Q 213.8 366.8, 213.8 365.8 Q 213.8 364.7, 213.2 364.1 Q 212.7 363.5, 211.8 363.5 Q 210.8 363.5, 210.2 363.8 Q 209.6 364.2, 209.2 365.0 L 208.0 364.4 " fill="#000000"/>
<path class="legend" d="M 220.4 362.2 Q 222.4 362.2, 223.4 363.6 Q 224.4 364.9, 224.4 367.6 Q 224.4 370.6, 223.1 372.2 Q 221.9 373.8, 219.5 373.8 Q 218.8 373.8, 218.2 373.6 Q 217.6 373.4, 217.0 373.1 L 217.6 372.0 Q 218.4 372.5, 219.5 372.5 Q 221.1 372.5, 221.9 371.5 Q 222.7 370.4, 222.8 368.3 Q 222.2 368.8, 221.5 369.1 Q 220.8 369.4, 220.0 369.4 Q 219.0 369.4, 218.2 368.9 Q 217.4 368.5, 217.0 367.7 Q 216.5 366.9, 216.5 366.0 Q 216.5 364.8, 217.0 364.0 Q 217.5 363.1, 218.4 362.7 Q 219.2 362.2, 220.4 362.2 M 218.1 365.9 Q 218.1 366.9, 218.7 367.5 Q 219.3 368.1, 220.3 368.1 Q 220.9 368.1, 221.6 367.8 Q 222.3 367.5, 222.8 367.1 Q 222.7 365.2, 222.1 364.3 Q 221.5 363.5, 220.3 363.5 Q 219.7 363.5, 219.2 363.8 Q 218.7 364.1, 218.4 364.7 Q 218.1 365.2, 218.1 365.9 " fill="#000000"/>
<path class="legend" d="M 232.8 369.7 L 234.2 369.7 L 234.2 371.0 L 232.8 371.0 L 232.8 373.6 L 231.3 373.6 L 231.3 371.0 L 225.5 371.0 L 225.5 370.0 L 230.4 362.3 L 232.8 362.3 L 232.8 369.7 M 227.3 369.7 L 231.3 369.7 L 231.3 363.3 L 227.3 369.7 " fill="#000000"/>
<path class="legend" d="M 137.3 383.8 Q 137.3 381.8, 138.3 380.7 Q 139.3 379.5, 141.3 379.5 Q 143.1 379.5, 144.1 380.9 L 143.1 381.6 Q 142.7 381.2, 142.3 380.9 Q 141.8 380.7, 141.3 380.7 Q 140.1 380.7, 139.5 381.5 Q 138.9 382.3, 138.9 383.8 Q 138.9 385.3, 139.5 386.1 Q 140.1 386.8, 141.3 386.8 Q 142.0 386.8, 142.5 386.7 Q 142.9 386.5, 143.5 386.3 L 143.9 387.3 Q 142.8 388.0, 141.2 388.0 Q 139.3 388.0, 138.3 386.9 Q 137.3 385.7, 137.3 383.8 " fill="#000000"/>
<path class="legend" d="M 144.5 383.8 Q 144.5 381.7, 145.5 380.6 Q 146.5 379.5, 148.3 379.5 Q 150.1 379.5, 150.9 380.6 Q 151.8 381.7, 151.8 383.7 L 151.8 384.0 L 146.0 384.0 Q 146.1 385.4, 146.7 386.1 Q 147.3 386.8, 148.5 386.8 Q 149.1 386.8, 149.7 386.7 Q 150.3 386.5, 151.0 386.2 L 151.4 387.2 Q 150.6 387.6, 149.9 387.8 Q 149.2 388.0, 148.4 388.0 Q 146.5 388.0, 145.5 386.9 Q 144.5 385.8, 144.5 383.8 M 148.3 380.7 Q 147.4 380.7, 146.8 381.2 Q 146.3 381.8, 146.1 382.8 L 150.2 382.8 Q 150.1 381.7, 149.6 381.2 Q 149.2 380.7, 148.3 380.7 " fill="#000000"/>
<path class="legend" d="M 156.7 379.5 Q 158.0 379.5, 158.7 380.3 Q 159.4 381.0, 159.4 382.4 L 159.4 387.9 L 157.9 387.9 L 157.9 382.6 Q 157.9 381.6, 157.5 381.2 Q 157.1 380.7, 156.3 380.7 Q 155.5 380.7, 154.9 381.1 Q 154.3 381.4, 153.9 382.0 L 153.9 387.9 L 152.4 387.9 L 152.4 379.7 L 153.6 379.7 L 153.8 380.8 Q 154.9 379.5, 156.7 379.5 " fill="#000000"/>
<path class="legend" d="M 160.6 380.8 L 160.6 379.7 L 162.2 379.7 L 162.4 377.3 L 163.5 377.3 L 163.5 379.7 L 166.1 379.7 L 166.1 380.8 L 163.5 380.8 L 163.5 385.4 Q 163.5 386.8, 164.7 386.8 Q 165.2 386.8, 165.9 386.6 L 166.2 387.6 Q 165.3 388.0, 164.5 388.0 Q 163.4 388.0, 162.7 387.3 Q 162.0 386.7, 162.0 385.4 L 162.0 380.8 L 160.6 380.8 " fill="#000000"/>
<path class="legend" d="M 174.7 388.7 L 174.7 390.0 L 166.6 390.0 L 166.6 388.7 L 174.7 388.7 " fill="#000000"/>
<path class="legend" d="M 182.2 375.7 L 182.2 387.9 L 181.0 387.9 L 180.8 386.9 Q 179.9 388.0, 178.4 388.0 Q 176.6 388.0, 175.7 387.0 Q 174.7 385.9, 174.7 383.9 Q 174.7 381.8, 175.9 380.7 Q 177.0 379.5, 179.0 379.5 Q 179.8 379.5, 180.7 379.7 L 180.7 375.7 L 182.2 375.7 M 178.5 386.8 Q 179.3 386.8, 179.9 386.4 Q 180.5 385.9, 180.7 385.1 L 180.7 380.9 Q 179.9 380.7, 179.0 380.7 Q 177.7 380.7, 177.0 381.6 Q 176.3 382.4, 176.3 383.9 Q 176.3 385.3, 176.8 386.1 Q 177.4 386.8, 178.5 386.8 " fill="#000000"/>
<path class="legend" d="M 183.5 376.6 L 185.0 376.6 L 185.0 378.0 L 183.5 378.0 L 183.5 376.6 M 183.5 379.7 L 185.0 379.7 L 185.0 387.9 L 183.5 387.9 L 183.5 379.7 " fill="#000000"/>
<path class="legend" d="M 186.8 386.2 Q 187.5 386.5, 188.0 386.6 Q 188.6 386.8, 189.1 386.8 Q 189.8 386.8, 190.2 386.5 Q 190.7 386.2, 190.7 385.6 Q 190.7 385.2, 190.4 385.0 Q 190.2 384.8, 190.0 384.6 Q 189.7 384.5, 189.0 384.3 Q 188.9 384.3, 188.1 384.0 Q 187.4 383.7, 187.0 383.2 Q 186.6 382.7, 186.6 381.9 Q 186.6 380.9, 187.4 380.2 Q 188.1 379.5, 189.6 379.5 Q 190.3 379.5, 190.8 379.7 Q 191.4 379.8, 192.0 380.0 L 191.6 381.2 Q 191.0 381.0, 190.6 380.9 Q 190.1 380.8, 189.6 380.8 Q 188.9 380.8, 188.5 381.1 Q 188.1 381.4, 188.1 381.8 Q 188.1 382.3, 188.4 382.5 Q 188.7 382.7, 189.4 383.0 Q 189.6 383.0, 189.7 383.1 L 190.1 383.2 Q 190.8 383.4, 191.2 383.7 Q 191.6 383.9, 191.9 384.4 Q 192.2 384.8, 192.2 385.6 Q 192.2 386.7, 191.3 387.4 Q 190.5 388.0, 189.1 388.0 Q 188.4 388.0, 187.7 387.9 Q 187.0 387.7, 186.3 387.4 L 186.8 386.2 " fill="#000000"/>
<path class="legend" d="M 193.0 380.8 L 193.0 379.7 L 194.6 379.7 L 194.8 377.3 L 196.0 377.3 L 196.0 379.7 L 198.5 379.7 L 198.5 380.8 L 196.0 380.8 L 196.0 385.4 Q 196.0 386.8, 197.2 386.8 Q 197.6 386.8, 198.3 386.6 L 198.6 387.6 Q 197.7 388.0, 196.9 388.0 Q 195.8 388.0, 195.1 387.3 Q 194.5 386.7, 194.5 385.4 L 194.5 380.8 L 193.0 380.8 " fill="#000000"/>
<path class="legend" d="" fill="#000000"/>
<path class="legend" d="M 204.3 380.9 L 211.7 380.9 L 211.7 382.1 L 204.3 382.1 L 204.3 380.9 M 204.3 384.4 L 211.7 384.4 L 211.7 385.5 L 204.3 385.5 L 204.3 384.4 " fill="#000000"/>
<path class="legend" d="" fill="#000000"/>
<path class="legend" d="M 219.1 386.6 L 221.5 386.6 L 221.5 378.1 L 218.8 379.0 L 218.4 378.0 L 221.9 376.5 L 223.1 376.7 L 223.1 386.6 L 225.3 386.6 L 225.3 387.9 L 219.1 387.9 L 219.1 386.6 " fill="#000000"/>
<path class="legend" d="M 225.9 386.3 L 227.5 386.3 L 227.5 387.9 L 225.9 387.9 L 225.9 386.3 " fill="#000000"/>
<path class="legend" d="M 232.7 388.0 Q 230.7 388.0, 229.6 386.5 Q 228.6 384.9, 228.6 382.2 Q 228.6 379.5, 229.6 378.0 Q 230.6 376.4, 232.7 376.4 Q 234.8 376.4, 235.9 378.0 Q 236.9 379.5, 236.9 382.2 Q 236.9 384.9, 235.8 386.5 Q 234.8 388.0, 232.7 388.0 M 232.7 386.7 Q 234.0 386.7, 234.6 385.6 Q 235.3 384.4, 235.3 382.2 Q 235.3 380.0, 234.6 378.8 Q 234.0 377.7, 232.7 377.7 Q 231.5 377.7, 230.8 378.8 Q 230.2 380.0, 230.2 382.2 Q 230.2 384.4, 230.8 385.6 Q 231.5 386.7, 232.7 386.7 " fill="#000000"/>
<path class="legend" d="M 243.4 381.9 Q 244.5 382.2, 245.0 383.0 Q 245.5 383.7, 245.5 384.8 Q 245.5 385.7, 245.1 386.5 Q 244.6 387.2, 243.7 387.6 Q 242.8 388.0, 241.7 388.0 Q 240.4 388.0, 239.5 387.6 Q 238.6 387.2, 237.9 386.3 L 238.8 385.4 Q 239.5 386.2, 240.1 386.5 Q 240.7 386.8, 241.7 386.8 Q 242.7 386.8, 243.3 386.2 Q 243.9 385.7, 243.9 384.8 Q 243.9 383.6, 243.3 383.1 Q 242.6 382.6, 241.2 382.6 L 240.4 382.6 L 240.4 381.4 L 241.1 381.4 Q 242.4 381.4, 243.0 380.9 Q 243.7 380.3, 243.7 379.3 Q 243.7 378.6, 243.1 378.2 Q 242.6 377.7, 241.7 377.7 Q 240.7 377.7, 240.1 378.0 Q 239.6 378.4, 239.1 379.2 L 238.0 378.6 Q 238.4 377.7, 239.4 377.1 Q 240.3 376.4, 241.7 376.4 Q 243.3 376.4, 244.3 377.2 Q 245.3 378.0, 245.3 379.3 Q 245.3 380.2, 244.8 380.9 Q 244.3 381.6, 243.4 381.9 " fill="#000000"/>
<path class="legend" d="M 246.5 378.7 Q 246.9 377.6, 247.9 377.0 Q 248.9 376.4, 250.3 376.4 Q 252.0 376.4, 253.0 377.4 Q 253.9 378.3, 253.9 379.9 Q 253.9 381.6, 252.7 383.2 Q 251.4 384.8, 248.9 386.6 L 254.1 386.6 L 254.1 387.9 L 246.5 387.9 L 246.5 386.8 Q 248.6 385.3, 249.8 384.2 Q 251.1 383.1, 251.7 382.1 Q 252.3 381.1, 252.3 380.0 Q 252.3 378.9, 251.8 378.3 Q 251.2 377.7, 250.3 377.7 Q 249.4 377.7, 248.8 378.1 Q 248.2 378.4, 247.7 379.3 L 246.5 378.7 " fill="#000000"/>
<path class="legend" d="M 260.5 381.9 Q 261.6 382.2, 262.1 383.0 Q 262.7 383.7, 262.7 384.8 Q 262.7 385.7, 262.2 386.5 Q 261.7 387.2, 260.8 387.6 Q 260.0 388.0, 258.8 388.0 Q 257.6 388.0, 256.7 387.6 Q 255.8 387.2, 255.1 386.3 L 256.0 385.4 Q 256.7 386.2, 257.3 386.5 Q 257.9 386.8, 258.8 386.8 Q 259.8 386.8, 260.5 386.2 Q 261.1 385.7, 261.1 384.8 Q 261.1 383.6, 260.4 383.1 Q 259.8 382.6, 258.4 382.6 L 257.6 382.6 L 257.6 381.4 L 258.3 381.4 Q 259.5 381.4, 260.2 380.9 Q 260.8 380.3, 260.8 379.3 Q 260.8 378.6, 260.3 378.2 Q 259.8 377.7, 258.8 377.7 Q 257.9 377.7, 257.3 378.0 Q 256.7 378.4, 256.3 379.2 L 255.2 378.6 Q 255.6 377.7, 256.5 377.1 Q 257.5 376.4, 258.8 376.4 Q 260.5 376.4, 261.5 377.2 Q 262.4 378.0, 262.4 379.3 Q 262.4 380.2, 261.9 380.9 Q 261.5 381.6, 260.5 381.9 " fill="#000000"/>
<path class="bond-0 atom-0 atom-1" d="M 477.1,177.6 L 519.8,165.1" style="fill:none;fill-rule:evenodd;stroke:#000000;stroke-width:2.0px;stroke-linecap:butt;stroke-linejoin:miter;stroke-opacity:1"/>
<path class="bond-1 atom-1 atom-2" d="M 519.8,165.1 L 552.0,195.8" style="fill:none;fill-rule:evenodd;stroke:#000000;stroke-width:2.0px;stroke-linecap:butt;stroke-linejoin:miter;stroke-opacity:1"/>
<path class="bond-2 atom-2 atom-3" d="M 552.0,195.8 L 594.7,183.3" style="fill:none;fill-rule:evenodd;stroke:#000000;stroke-width:2.0px;stroke-linecap:butt;stroke-linejoin:miter;stroke-opacity:1"/>
<path class="bond-3 atom-3 atom-4" d="M 594.7,183.3 L 626.9,214.1" style="fill:none;fill-rule:evenodd;stroke:#000000;stroke-width:2.0px;stroke-linecap:butt;stroke-linejoin:miter;stroke-opacity:1"/>
<path class="bond-4 atom-4 atom-5" d="M 626.9,214.1 L 669.6,201.6" style="fill:none;fill-rule:evenodd;stroke:#000000;stroke-width:2.0px;stroke-linecap:butt;stroke-linejoin:miter;stroke-opacity:1"/>
<path class="bond-5 atom-5 atom-6" d="M 669.6,201.6 L 701.8,232.4" style="fill:none;fill-rule:evenodd;stroke:#000000;stroke-width:2.0px;stroke-linecap:butt;stroke-linejoin:miter;stroke-opacity:1"/>
<path class="bond-6 atom-5 atom-7" d="M 669.6,201.6 L 680.2,158.4" style="fill:none;fill-rule:evenodd;stroke:#000000;stroke-width:2.0px;stroke-linecap:butt;stroke-linejoin:miter;stroke-opacity:1"/>
<path class="bond-6 atom-5 atom-7" d="M 662.6,193.0 L 670.0,162.8" style="fill:none;fill-rule:evenodd;stroke:#000000;stroke-width:2.0px;stroke-linecap:butt;stroke-linejoin:miter;stroke-opacity:1"/>
<path class="bond-7 atom-7 atom-8" d="M 680.2,158.4 L 722.9,145.9" style="fill:none;fill-rule:evenodd;stroke:#000000;stroke-width:2.0px;stroke-linecap:butt;stroke-linejoin:miter;stroke-opacity:1"/>
<path class="bond-8 atom-7 atom-9" d="M 680.2,158.4 L 648.0,127.6" style="fill:none;fill-rule:evenodd;stroke:#000000;stroke-width:2.0px;stroke-linecap:butt;stroke-linejoin:miter;stroke-opacity:1"/>
<path class="legend" d="M 567.6 365.4 L 567.7 366.5 Q 568.6 365.3, 570.0 365.3 Q 570.4 365.3, 571.1 365.4 L 570.8 366.8 Q 570.1 366.6, 569.7 366.6 Q 569.1 366.6, 568.6 366.9 Q 568.2 367.1, 567.8 367.8 L 567.8 373.6 L 566.3 373.6 L 566.3 365.4 L 567.6 365.4 " fill="#000000"/>
<path class="legend" d="M 571.3 369.5 Q 571.3 367.5, 572.3 366.4 Q 573.3 365.3, 575.2 365.3 Q 577.0 365.3, 577.8 366.4 Q 578.6 367.4, 578.6 369.5 L 578.6 369.7 L 572.8 369.7 Q 572.9 371.1, 573.5 371.8 Q 574.1 372.6, 575.3 372.6 Q 575.9 372.6, 576.5 372.4 Q 577.1 372.3, 577.8 372.0 L 578.3 373.0 Q 577.4 373.4, 576.7 373.6 Q 576.0 373.8, 575.2 373.8 Q 573.3 373.8, 572.3 372.6 Q 571.3 371.5, 571.3 369.5 M 575.2 366.4 Q 574.2 366.4, 573.6 367.0 Q 573.1 367.5, 572.9 368.6 L 577.0 368.6 Q 576.9 367.5, 576.4 367.0 Q 576.0 366.4, 575.2 366.4 " fill="#000000"/>
<path class="legend" d="M 579.2 371.4 Q 579.2 370.1, 580.2 369.4 Q 581.3 368.7, 583.2 368.7 L 584.4 368.7 L 584.4 368.3 Q 584.4 367.3, 584.0 366.9 Q 583.6 366.4, 582.6 366.4 Q 581.9 366.4, 581.4 366.6 Q 580.9 366.7, 580.1 367.0 L 579.6 366.0 Q 581.2 365.3, 582.6 365.3 Q 584.4 365.3, 585.2 366.0 Q 586.0 366.8, 586.0 368.4 L 586.0 373.6 L 584.8 373.6 Q 584.8 373.6, 584.7 373.3 Q 584.7 373.1, 584.6 372.7 Q 583.4 373.8, 581.9 373.8 Q 580.7 373.8, 579.9 373.2 Q 579.2 372.5, 579.2 371.4 M 580.7 371.4 Q 580.7 372.0, 581.1 372.3 Q 581.5 372.6, 582.2 372.6 Q 582.8 372.6, 583.4 372.4 Q 584.0 372.0, 584.4 371.5 L 584.4 369.8 L 583.3 369.8 Q 582.0 369.8, 581.3 370.2 Q 580.7 370.6, 580.7 371.4 " fill="#000000"/>
<path class="legend" d="M 587.2 369.5 Q 587.2 367.5, 588.2 366.4 Q 589.2 365.3, 591.1 365.3 Q 593.0 365.3, 594.0 366.6 L 593.0 367.4 Q 592.6 366.9, 592.1 366.7 Q 591.7 366.4, 591.1 366.4 Q 590.0 366.4, 589.3 367.2 Q 588.7 368.0, 588.7 369.5 Q 588.7 371.0, 589.4 371.8 Q 590.0 372.6, 591.2 372.6 Q 591.9 372.6, 592.4 372.4 Q 592.8 372.3, 593.4 372.0 L 593.8 373.0 Q 592.6 373.7, 591.1 373.7 Q 589.2 373.7, 588.2 372.6 Q 587.2 371.5, 587.2 369.5 " fill="#000000"/>
<path class="legend" d="M 594.4 366.6 L 594.4 365.4 L 595.9 365.4 L 596.2 363.0 L 597.3 363.0 L 597.3 365.4 L 599.8 365.4 L 599.8 366.6 L 597.3 366.6 L 597.3 371.1 Q 597.3 372.5, 598.5 372.5 Q 599.0 372.5, 599.7 372.3 L 599.9 373.4 Q 599.1 373.7, 598.2 373.7 Q 597.2 373.7, 596.5 373.1 Q 595.8 372.4, 595.8 371.2 L 595.8 366.6 L 594.4 366.6 " fill="#000000"/>
<path class="legend" d="M 608.5 374.4 L 608.5 375.7 L 600.3 375.7 L 600.3 374.4 L 608.5 374.4 " fill="#000000"/>
<path class="legend" d="M 608.5 364.4 Q 608.9 363.4, 609.9 362.8 Q 610.9 362.2, 612.3 362.2 Q 614.0 362.2, 615.0 363.1 Q 615.9 364.0, 615.9 365.7 Q 615.9 367.4, 614.7 368.9 Q 613.5 370.5, 610.9 372.4 L 616.1 372.4 L 616.1 373.6 L 608.5 373.6 L 608.5 372.6 Q 610.6 371.1, 611.9 369.9 Q 613.1 368.8, 613.7 367.8 Q 614.3 366.8, 614.3 365.8 Q 614.3 364.7, 613.8 364.1 Q 613.2 363.5, 612.3 363.5 Q 611.4 363.5, 610.8 363.8 Q 610.2 364.2, 609.7 365.0 L 608.5 364.4 " fill="#000000"/>
<path class="legend" d="M 620.9 362.2 Q 622.9 362.2, 623.9 363.6 Q 624.9 364.9, 624.9 367.6 Q 624.9 370.6, 623.7 372.2 Q 622.4 373.8, 620.0 373.8 Q 619.3 373.8, 618.7 373.6 Q 618.1 373.4, 617.5 373.1 L 618.2 372.0 Q 619.0 372.5, 620.0 372.5 Q 621.6 372.5, 622.4 371.5 Q 623.2 370.4, 623.3 368.3 Q 622.8 368.8, 622.0 369.1 Q 621.3 369.4, 620.5 369.4 Q 619.5 369.4, 618.7 368.9 Q 618.0 368.5, 617.5 367.7 Q 617.1 366.9, 617.1 366.0 Q 617.1 364.8, 617.6 364.0 Q 618.1 363.1, 618.9 362.7 Q 619.8 362.2, 620.9 362.2 M 618.7 365.9 Q 618.7 366.9, 619.2 367.5 Q 619.8 368.1, 620.8 368.1 Q 621.5 368.1, 622.2 367.8 Q 622.8 367.5, 623.3 367.1 Q 623.3 365.2, 622.7 364.3 Q 622.1 363.5, 620.9 363.5 Q 620.3 363.5, 619.8 363.8 Q 619.3 364.1, 619.0 364.7 Q 618.7 365.2, 618.7 365.9 " fill="#000000"/>
<path class="legend" d="M 626.1 364.4 Q 626.5 363.4, 627.5 362.8 Q 628.5 362.2, 629.8 362.2 Q 631.6 362.2, 632.5 363.1 Q 633.5 364.0, 633.5 365.7 Q 633.5 367.4, 632.2 368.9 Q 631.0 370.5, 628.4 372.4 L 633.7 372.4 L 633.7 373.6 L 626.0 373.6 L 626.0 372.6 Q 628.1 371.1, 629.4 369.9 Q 630.7 368.8, 631.3 367.8 Q 631.9 366.8, 631.9 365.8 Q 631.9 364.7, 631.3 364.1 Q 630.8 363.5, 629.8 363.5 Q 628.9 363.5, 628.3 363.8 Q 627.7 364.2, 627.3 365.0 L 626.1 364.4 " fill="#000000"/>
<path class="legend" d="M 537.3 383.8 Q 537.3 381.8, 538.3 380.7 Q 539.3 379.5, 541.3 379.5 Q 543.1 379.5, 544.1 380.9 L 543.1 381.6 Q 542.7 381.2, 542.3 380.9 Q 541.8 380.7, 541.3 380.7 Q 540.1 380.7, 539.5 381.5 Q 538.9 382.3, 538.9 383.8 Q 538.9 385.3, 539.5 386.1 Q 540.1 386.8, 541.3 386.8 Q 542.0 386.8, 542.5 386.7 Q 542.9 386.5, 543.5 386.3 L 543.9 387.3 Q 542.8 388.0, 541.2 388.0 Q 539.3 388.0, 538.3 386.9 Q 537.3 385.7, 537.3 383.8 " fill="#000000"/>
<path class="legend" d="M 544.5 383.8 Q 544.5 381.7, 545.5 380.6 Q 546.5 379.5, 548.3 379.5 Q 550.1 379.5, 550.9 380.6 Q 551.8 381.7, 551.8 383.7 L 551.8 384.0 L 546.0 384.0 Q 546.1 385.4, 546.7 386.1 Q 547.3 386.8, 548.5 386.8 Q 549.1 386.8, 549.7 386.7 Q 550.3 386.5, 551.0 386.2 L 551.4 387.2 Q 550.6 387.6, 549.9 387.8 Q 549.2 388.0, 548.4 388.0 Q 546.5 388.0, 545.5 386.9 Q 544.5 385.8, 544.5 383.8 M 548.3 380.7 Q 547.4 380.7, 546.8 381.2 Q 546.3 381.8, 546.1 382.8 L 550.2 382.8 Q 550.1 381.7, 549.6 381.2 Q 549.2 380.7, 548.3 380.7 " fill="#000000"/>
<path class="legend" d="M 556.7 379.5 Q 558.0 379.5, 558.7 380.3 Q 559.4 381.0, 559.4 382.4 L 559.4 387.9 L 557.9 387.9 L 557.9 382.6 Q 557.9 381.6, 557.5 381.2 Q 557.1 380.7, 556.3 380.7 Q 555.5 380.7, 554.9 381.1 Q 554.3 381.4, 553.9 382.0 L 553.9 387.9 L 552.4 387.9 L 552.4 379.7 L 553.6 379.7 L 553.8 380.8 Q 554.9 379.5, 556.7 379.5 " fill="#000000"/>
<path class="legend" d="M 560.6 380.8 L 560.6 379.7 L 562.2 379.7 L 562.4 377.3 L 563.5 377.3 L 563.5 379.7 L 566.1 379.7 L 566.1 380.8 L 563.5 380.8 L 563.5 385.4 Q 563.5 386.8, 564.7 386.8 Q 565.2 386.8, 565.9 386.6 L 566.2 387.6 Q 565.3 388.0, 564.5 388.0 Q 563.4 388.0, 562.7 387.3 Q 562.0 386.7, 562.0 385.4 L 562.0 380.8 L 560.6 380.8 " fill="#000000"/>
<path class="legend" d="M 574.7 388.7 L 574.7 390.0 L 566.6 390.0 L 566.6 388.7 L 574.7 388.7 " fill="#000000"/>
<path class="legend" d="M 582.2 375.7 L 582.2 387.9 L 581.0 387.9 L 580.8 386.9 Q 579.9 388.0, 578.4 388.0 Q 576.6 388.0, 575.7 387.0 Q 574.7 385.9, 574.7 383.9 Q 574.7 381.8, 575.9 380.7 Q 577.0 379.5, 579.0 379.5 Q 579.8 379.5, 580.7 379.7 L 580.7 375.7 L 582.2 375.7 M 578.5 386.8 Q 579.3 386.8, 579.9 386.4 Q 580.5 385.9, 580.7 385.1 L 580.7 380.9 Q 579.9 380.7, 579.0 380.7 Q 577.7 380.7, 577.0 381.6 Q 576.3 382.4, 576.3 383.9 Q 576.3 385.3, 576.8 386.1 Q 577.4 386.8, 578.5 386.8 " fill="#000000"/>
<path class="legend" d="M 583.5 376.6 L 585.0 376.6 L 585.0 378.0 L 583.5 378.0 L 583.5 376.6 M 583.5 379.7 L 585.0 379.7 L 585.0 387.9 L 583.5 387.9 L 583.5 379.7 " fill="#000000"/>
<path class="legend" d="M 586.8 386.2 Q 587.5 386.5, 588.0 386.6 Q 588.6 386.8, 589.1 386.8 Q 589.8 386.8, 590.2 386.5 Q 590.7 386.2, 590.7 385.6 Q 590.7 385.2, 590.4 385.0 Q 590.2 384.8, 590.0 384.6 Q 589.7 384.5, 589.0 384.3 Q 588.9 384.3, 588.1 384.0 Q 587.4 383.7, 587.0 383.2 Q 586.6 382.7, 586.6 381.9 Q 586.6 380.9, 587.4 380.2 Q 588.1 379.5, 589.6 379.5 Q 590.3 379.5, 590.8 379.7 Q 591.4 379.8, 592.0 380.0 L 591.6 381.2 Q 591.0 381.0, 590.6 380.9 Q 590.1 380.8, 589.6 380.8 Q 588.9 380.8, 588.5 381.1 Q 588.1 381.4, 588.1 381.8 Q 588.1 382.3, 588.4 382.5 Q 588.7 382.7, 589.4 383.0 Q 589.6 383.0, 589.7 383.1 L 590.1 383.2 Q 590.8 383.4, 591.2 383.7 Q 591.6 383.9, 591.9 384.4 Q 592.2 384.8, 592.2 385.6 Q 592.2 386.7, 591.3 387.4 Q 590.5 388.0, 589.1 388.0 Q 588.4 388.0, 587.7 387.9 Q 587.0 387.7, 586.3 387.4 L 586.8 386.2 " fill="#000000"/>
<path class="legend" d="M 593.0 380.8 L 593.0 379.7 L 594.6 379.7 L 594.8 377.3 L 596.0 377.3 L 596.0 379.7 L 598.5 379.7 L 598.5 380.8 L 596.0 380.8 L 596.0 385.4 Q 596.0 386.8, 597.2 386.8 Q 597.6 386.8, 598.3 386.6 L 598.6 387.6 Q 597.7 388.0, 596.9 388.0 Q 595.8 388.0, 595.1 387.3 Q 594.5 386.7, 594.5 385.4 L 594.5 380.8 L 593.0 380.8 " fill="#000000"/>
<path class="legend" d="" fill="#000000"/>
<path class="legend" d="M 604.3 380.9 L 611.7 380.9 L 611.7 382.1 L 604.3 382.1 L 604.3 380.9 M 604.3 384.4 L 611.7 384.4 L 611.7 385.5 L 604.3 385.5 L 604.3 384.4 " fill="#000000"/>
<path class="legend" d="" fill="#000000"/>
<path class="legend" d="M 619.1 386.6 L 621.5 386.6 L 621.5 378.1 L 618.8 379.0 L 618.4 378.0 L 621.9 376.5 L 623.1 376.7 L 623.1 386.6 L 625.3 386.6 L 625.3 387.9 L 619.1 387.9 L 619.1 386.6 " fill="#000000"/>
<path class="legend" d="M 625.9 386.3 L 627.5 386.3 L 627.5 387.9 L 625.9 387.9 L 625.9 386.3 " fill="#000000"/>
<path class="legend" d="M 632.7 388.0 Q 630.7 388.0, 629.6 386.5 Q 628.6 384.9, 628.6 382.2 Q 628.6 379.5, 629.6 378.0 Q 630.6 376.4, 632.7 376.4 Q 634.8 376.4, 635.9 378.0 Q 636.9 379.5, 636.9 382.2 Q 636.9 384.9, 635.8 386.5 Q 634.8 388.0, 632.7 388.0 M 632.7 386.7 Q 634.0 386.7, 634.6 385.6 Q 635.3 384.4, 635.3 382.2 Q 635.3 380.0, 634.6 378.8 Q 634.0 377.7, 632.7 377.7 Q 631.5 377.7, 630.8 378.8 Q 630.2 380.0, 630.2 382.2 Q 630.2 384.4, 630.8 385.6 Q 631.5 386.7, 632.7 386.7 " fill="#000000"/>
<path class="legend" d="M 643.4 381.9 Q 644.5 382.2, 645.0 383.0 Q 645.5 383.7, 645.5 384.8 Q 645.5 385.7, 645.1 386.5 Q 644.6 387.2, 643.7 387.6 Q 642.8 388.0, 641.7 388.0 Q 640.4 388.0, 639.5 387.6 Q 638.6 387.2, 637.9 386.3 L 638.8 385.4 Q 639.5 386.2, 640.1 386.5 Q 640.7 386.8, 641.7 386.8 Q 642.7 386.8, 643.3 386.2 Q 643.9 385.7, 643.9 384.8 Q 643.9 383.6, 643.3 383.1 Q 642.6 382.6, 641.2 382.6 L 640.4 382.6 L 640.4 381.4 L 641.1 381.4 Q 642.4 381.4, 643.0 380.9 Q 643.7 380.3, 643.7 379.3 Q 643.7 378.6, 643.1 378.2 Q 642.6 377.7, 641.7 377.7 Q 640.7 377.7, 640.1 378.0 Q 639.6 378.4, 639.1 379.2 L 638.0 378.6 Q 638.4 377.7, 639.4 377.1 Q 640.3 376.4, 641.7 376.4 Q 643.3 376.4, 644.3 377.2 Q 645.3 378.0, 645.3 379.3 Q 645.3 380.2, 644.8 380.9 Q 644.3 381.6, 643.4 381.9 " fill="#000000"/>
<path class="legend" d="M 646.5 378.7 Q 646.9 377.6, 647.9 377.0 Q 648.9 376.4, 650.3 376.4 Q 652.0 376.4, 653.0 377.4 Q 653.9 378.3, 653.9 379.9 Q 653.9 381.6, 652.7 383.2 Q 651.4 384.8, 648.9 386.6 L 654.1 386.6 L 654.1 387.9 L 646.5 387.9 L 646.5 386.8 Q 648.6 385.3, 649.8 384.2 Q 651.1 383.1, 651.7 382.1 Q 652.3 381.1, 652.3 380.0 Q 652.3 378.9, 651.8 378.3 Q 651.2 377.7, 650.3 377.7 Q 649.4 377.7, 648.8 378.1 Q 648.2 378.4, 647.7 379.3 L 646.5 378.7 " fill="#000000"/>
<path class="legend" d="M 660.5 381.9 Q 661.6 382.2, 662.1 383.0 Q 662.7 383.7, 662.7 384.8 Q 662.7 385.7, 662.2 386.5 Q 661.7 387.2, 660.8 387.6 Q 660.0 388.0, 658.8 388.0 Q 657.6 388.0, 656.7 387.6 Q 655.8 387.2, 655.1 386.3 L 656.0 385.4 Q 656.7 386.2, 657.3 386.5 Q 657.9 386.8, 658.8 386.8 Q 659.8 386.8, 660.5 386.2 Q 661.1 385.7, 661.1 384.8 Q 661.1 383.6, 660.4 383.1 Q 659.8 382.6, 658.4 382.6 L 657.6 382.6 L 657.6 381.4 L 658.3 381.4 Q 659.5 381.4, 660.2 380.9 Q 660.8 380.3, 660.8 379.3 Q 660.8 378.6, 660.3 378.2 Q 659.8 377.7, 658.8 377.7 Q 657.9 377.7, 657.3 378.0 Q 656.7 378.4, 656.3 379.2 L 655.2 378.6 Q 655.6 377.7, 656.5 377.1 Q 657.5 376.4, 658.8 376.4 Q 660.5 376.4, 661.5 377.2 Q 662.4 378.0, 662.4 379.3 Q 662.4 380.2, 661.9 380.9 Q 661.5 381.6, 660.5 381.9 " fill="#000000"/>
</svg>