<svg xmlns="http://www.w3.org/2000/svg" xmlns:rdkit="http://www.rdkit.org/xml" xmlns:xlink="http://www.w3.org/1999/xlink" version="1.1" baseProfile="full" xml:space="preserve" width="2000px" height="400px" viewBox="0 0 2000 400">
<!-- END OF HEADER -->
<rect style="opacity:1.0;fill:#FFFFFF;stroke:none" width="2000.0" height="400.0" x="0.0" y="0.0"> </rect>
<path class="bond-0 atom-0 atom-1" d="M 175.1,244.2 L 221.7,213.5" style="fill:none;fill-rule:evenodd;stroke:#000000;stroke-width:2.0px;stroke-linecap:butt;stroke-linejoin:miter;stroke-opacity:1"/>
<path class="bond-1 atom-1 atom-2" d="M 221.7,213.5 L 218.4,157.8" style="fill:none;fill-rule:evenodd;stroke:#000000;stroke-width:2.0px;stroke-linecap:butt;stroke-linejoin:miter;stroke-opacity:1"/>
<path class="bond-1 atom-1 atom-2" d="M 210.0,205.8 L 207.7,166.8" style="fill:none;fill-rule:evenodd;stroke:#000000;stroke-width:2.0px;stroke-linecap:butt;stroke-linejoin:miter;stroke-opacity:1"/>
<path class="bond-2 atom-2 atom-3" d="M 218.4,157.8 L 198.0,147.6" style="fill:none;fill-rule:evenodd;stroke:#000000;stroke-width:2.0px;stroke-linecap:butt;stroke-linejoin:miter;stroke-opacity:1"/>
<path class="bond-2 atom-2 atom-3" d="M 198.0,147.6 L 177.6,137.3" style="fill:none;fill-rule:evenodd;stroke:#FF0000;stroke-width:2.0px;stroke-linecap:butt;stroke-linejoin:miter;stroke-opacity:1"/>
<path class="bond-3 atom-3 atom-4" d="M 159.4,138.8 L 144.9,148.3" style="fill:none;fill-rule:evenodd;stroke:#FF0000;stroke-width:2.0px;stroke-linecap:butt;stroke-linejoin:miter;stroke-opacity:1"/>
<path class="bond-3 atom-3 atom-4" d="M 144.9,148.3 L 130.3,157.9" style="fill:none;fill-rule:evenodd;stroke:#000000;stroke-width:2.0px;stroke-linecap:butt;stroke-linejoin:miter;stroke-opacity:1"/>
<path class="bond-4 atom-4 atom-5" d="M 115.5,153.8 L 91.2,116.9" style="fill:none;fill-rule:evenodd;stroke:#000000;stroke-width:2.0px;stroke-linecap:butt;stroke-linejoin:miter;stroke-opacity:1"/>
<path class="bond-5 atom-4 atom-6" d="M 128.3,173.2 L 152.6,210.1" style="fill:none;fill-rule:evenodd;stroke:#000000;stroke-width:2.0px;stroke-linecap:butt;stroke-linejoin:miter;stroke-opacity:1"/>
<path class="bond-6 atom-4 atom-7" d="M 113.4,169.0 L 75.3,194.2" style="fill:none;fill-rule:evenodd;stroke:#000000;stroke-width:2.0px;stroke-linecap:butt;stroke-linejoin:miter;stroke-opacity:1"/>
<path class="bond-7 atom-7 atom-8" d="M 75.3,194.2 L 44.6,147.5" style="fill:none;fill-rule:evenodd;stroke:#000000;stroke-width:2.0px;stroke-linecap:butt;stroke-linejoin:miter;stroke-opacity:1"/>
<path class="bond-8 atom-7 atom-9" d="M 75.3,194.2 L 106.0,240.8" style="fill:none;fill-rule:evenodd;stroke:#000000;stroke-width:2.0px;stroke-linecap:butt;stroke-linejoin:miter;stroke-opacity:1"/>
<path class="bond-9 atom-7 atom-10" d="M 75.3,194.2 L 28.6,224.9" style="fill:none;fill-rule:evenodd;stroke:#000000;stroke-width:2.0px;stroke-linecap:butt;stroke-linejoin:miter;stroke-opacity:1"/>
<path class="bond-10 atom-2 atom-11" d="M 218.4,157.8 L 265.0,127.1" style="fill:none;fill-rule:evenodd;stroke:#000000;stroke-width:2.0px;stroke-linecap:butt;stroke-linejoin:miter;stroke-opacity:1"/>
<path class="bond-11 atom-11 atom-12" d="M 265.0,127.1 L 314.9,152.1" style="fill:none;fill-rule:evenodd;stroke:#000000;stroke-width:2.0px;stroke-linecap:butt;stroke-linejoin:miter;stroke-opacity:1"/>
<path class="bond-11 atom-11 atom-12" d="M 277.5,120.9 L 312.4,138.4" style="fill:none;fill-rule:evenodd;stroke:#000000;stroke-width:2.0px;stroke-linecap:butt;stroke-linejoin:miter;stroke-opacity:1"/>
<path class="bond-12 atom-12 atom-13" d="M 314.9,152.1 L 361.5,121.4" style="fill:none;fill-rule:evenodd;stroke:#000000;stroke-width:2.0px;stroke-linecap:butt;stroke-linejoin:miter;stroke-opacity:1"/>
<path class="bond-13 atom-13 atom-14" d="M 361.5,121.4 L 358.3,65.7" style="fill:none;fill-rule:evenodd;stroke:#000000;stroke-width:2.0px;stroke-linecap:butt;stroke-linejoin:miter;stroke-opacity:1"/>
<path class="bond-13 atom-13 atom-14" d="M 349.9,113.7 L 347.6,74.7" style="fill:none;fill-rule:evenodd;stroke:#000000;stroke-width:2.0px;stroke-linecap:butt;stroke-linejoin:miter;stroke-opacity:1"/>
<path class="bond-14 atom-14 atom-15" d="M 358.3,65.7 L 308.4,40.7" style="fill:none;fill-rule:evenodd;stroke:#000000;stroke-width:2.0px;stroke-linecap:butt;stroke-linejoin:miter;stroke-opacity:1"/>
<path class="bond-15 atom-15 atom-16" d="M 308.4,40.7 L 261.8,71.4" style="fill:none;fill-rule:evenodd;stroke:#000000;stroke-width:2.0px;stroke-linecap:butt;stroke-linejoin:miter;stroke-opacity:1"/>
<path class="bond-15 atom-15 atom-16" d="M 307.5,54.6 L 274.9,76.1" style="fill:none;fill-rule:evenodd;stroke:#000000;stroke-width:2.0px;stroke-linecap:butt;stroke-linejoin:miter;stroke-opacity:1"/>
<path class="bond-16 atom-1 atom-17" d="M 221.7,213.5 L 271.6,238.6" style="fill:none;fill-rule:evenodd;stroke:#000000;stroke-width:2.0px;stroke-linecap:butt;stroke-linejoin:miter;stroke-opacity:1"/>
<path class="bond-17 atom-17 atom-18" d="M 271.6,238.6 L 274.8,294.3" style="fill:none;fill-rule:evenodd;stroke:#000000;stroke-width:2.0px;stroke-linecap:butt;stroke-linejoin:miter;stroke-opacity:1"/>
<path class="bond-17 atom-17 atom-18" d="M 283.2,246.3 L 285.5,285.3" style="fill:none;fill-rule:evenodd;stroke:#000000;stroke-width:2.0px;stroke-linecap:butt;stroke-linejoin:miter;stroke-opacity:1"/>
<path class="bond-18 atom-18 atom-19" d="M 274.8,294.3 L 324.7,319.3" style="fill:none;fill-rule:evenodd;stroke:#000000;stroke-width:2.0px;stroke-linecap:butt;stroke-linejoin:miter;stroke-opacity:1"/>
<path class="bond-19 atom-19 atom-20" d="M 324.7,319.3 L 371.4,288.6" style="fill:none;fill-rule:evenodd;stroke:#000000;stroke-width:2.0px;stroke-linecap:butt;stroke-linejoin:miter;stroke-opacity:1"/>
<path class="bond-19 atom-19 atom-20" d="M 325.6,305.4 L 358.2,283.9" style="fill:none;fill-rule:evenodd;stroke:#000000;stroke-width:2.0px;stroke-linecap:butt;stroke-linejoin:miter;stroke-opacity:1"/>
<path class="bond-20 atom-20 atom-21" d="M 371.4,288.6 L 368.1,232.9" style="fill:none;fill-rule:evenodd;stroke:#000000;stroke-width:2.0px;stroke-linecap:butt;stroke-linejoin:miter;stroke-opacity:1"/>
<path class="bond-21 atom-21 atom-22" d="M 368.1,232.9 L 318.2,207.9" style="fill:none;fill-rule:evenodd;stroke:#000000;stroke-width:2.0px;stroke-linecap:butt;stroke-linejoin:miter;stroke-opacity:1"/>
<path class="bond-21 atom-21 atom-22" d="M 355.6,239.1 L 320.7,221.6" style="fill:none;fill-rule:evenodd;stroke:#000000;stroke-width:2.0px;stroke-linecap:butt;stroke-linejoin:miter;stroke-opacity:1"/>
<path class="bond-22 atom-16 atom-11" d="M 261.8,71.4 L 265.0,127.1" style="fill:none;fill-rule:evenodd;stroke:#000000;stroke-width:2.0px;stroke-linecap:butt;stroke-linejoin:miter;stroke-opacity:1"/>
<path class="bond-23 atom-22 atom-17" d="M 318.2,207.9 L 271.6,238.6" style="fill:none;fill-rule:evenodd;stroke:#000000;stroke-width:2.0px;stroke-linecap:butt;stroke-linejoin:miter;stroke-opacity:1"/>
<path class="atom-3" d="M 161.3 132.8 Q 161.3 129.0, 163.1 126.9 Q 165.0 124.8, 168.5 124.8 Q 172.0 124.8, 173.9 126.9 Q 175.8 129.0, 175.8 132.8 Q 175.8 136.7, 173.9 138.9 Q 172.0 141.0, 168.5 141.0 Q 165.0 141.0, 163.1 138.9 Q 161.3 136.7, 161.3 132.8 M 168.5 139.2 Q 170.9 139.2, 172.2 137.6 Q 173.5 136.0, 173.5 132.8 Q 173.5 129.7, 172.2 128.2 Q 170.9 126.6, 168.5 126.6 Q 166.1 126.6, 164.8 128.1 Q 163.5 129.7, 163.5 132.8 Q 163.5 136.0, 164.8 137.6 Q 166.1 139.2, 168.5 139.2 " fill="#FF0000"/>
<path class="atom-4" d="M 115.9 168.9 Q 116.0 169.0, 116.8 169.3 Q 117.5 169.6, 118.3 169.8 Q 119.2 170.0, 120.0 170.0 Q 121.5 170.0, 122.3 169.3 Q 123.2 168.5, 123.2 167.3 Q 123.2 166.4, 122.7 165.9 Q 122.3 165.3, 121.7 165.0 Q 121.0 164.7, 119.9 164.4 Q 118.5 164.0, 117.6 163.6 Q 116.8 163.2, 116.2 162.3 Q 115.6 161.5, 115.6 160.1 Q 115.6 158.1, 116.9 156.8 Q 118.3 155.6, 121.0 155.6 Q 122.8 155.6, 124.9 156.5 L 124.4 158.2 Q 122.5 157.4, 121.0 157.4 Q 119.5 157.4, 118.7 158.1 Q 117.8 158.7, 117.8 159.8 Q 117.8 160.6, 118.3 161.2 Q 118.7 161.7, 119.3 162.0 Q 120.0 162.2, 121.0 162.6 Q 122.5 163.0, 123.3 163.5 Q 124.2 163.9, 124.8 164.8 Q 125.4 165.7, 125.4 167.3 Q 125.4 169.5, 123.9 170.6 Q 122.5 171.8, 120.0 171.8 Q 118.6 171.8, 117.6 171.5 Q 116.5 171.2, 115.3 170.7 L 115.9 168.9 " fill="#000000"/>
<path class="atom-4" d="M 126.5 155.6 L 128.5 155.6 L 128.5 157.5 L 126.5 157.5 L 126.5 155.6 M 126.5 159.9 L 128.5 159.9 L 128.5 171.4 L 126.5 171.4 L 126.5 159.9 " fill="#000000"/>
<path class="legend" d="M 166.8 365.4 L 167.0 366.5 Q 167.9 365.3, 169.3 365.3 Q 169.7 365.3, 170.3 365.4 L 170.1 366.8 Q 169.4 366.6, 169.0 366.6 Q 168.4 366.6, 167.9 366.9 Q 167.5 367.1, 167.1 367.8 L 167.1 373.6 L 165.6 373.6 L 165.6 365.4 L 166.8 365.4 " fill="#000000"/>
<path class="legend" d="M 170.6 369.5 Q 170.6 367.5, 171.6 366.4 Q 172.6 365.3, 174.4 365.3 Q 176.2 365.3, 177.0 366.4 Q 177.9 367.4, 177.9 369.5 L 177.9 369.7 L 172.1 369.7 Q 172.1 371.1, 172.8 371.8 Q 173.4 372.6, 174.6 372.6 Q 175.2 372.6, 175.8 372.4 Q 176.4 372.3, 177.1 372.0 L 177.5 373.0 Q 176.7 373.4, 176.0 373.6 Q 175.2 373.8, 174.5 373.8 Q 172.6 373.8, 171.6 372.6 Q 170.6 371.5, 170.6 369.5 M 174.4 366.4 Q 173.5 366.4, 172.9 367.0 Q 172.4 367.5, 172.2 368.6 L 176.3 368.6 Q 176.2 367.5, 175.7 367.0 Q 175.3 366.4, 174.4 366.4 " fill="#000000"/>
<path class="legend" d="M 178.5 371.4 Q 178.5 370.1, 179.5 369.4 Q 180.6 368.7, 182.5 368.7 L 183.7 368.7 L 183.7 368.3 Q 183.7 367.3, 183.3 366.9 Q 182.9 366.4, 181.9 366.4 Q 181.2 366.4, 180.7 366.6 Q 180.2 366.7, 179.4 367.0 L 178.9 366.0 Q 180.4 365.3, 181.9 365.3 Q 183.6 365.3, 184.4 366.0 Q 185.2 366.8, 185.2 368.4 L 185.2 373.6 L 184.1 373.6 Q 184.0 373.6, 184.0 373.3 Q 184.0 373.1, 183.9 372.7 Q 182.7 373.8, 181.2 373.8 Q 179.9 373.8, 179.2 373.2 Q 178.5 372.5, 178.5 371.4 M 180.0 371.4 Q 180.0 372.0, 180.4 372.3 Q 180.7 372.6, 181.5 372.6 Q 182.1 372.6, 182.7 372.4 Q 183.3 372.0, 183.7 371.5 L 183.7 369.8 L 182.6 369.8 Q 181.3 369.8, 180.6 370.2 Q 180.0 370.6, 180.0 371.4 " fill="#000000"/>
<path class="legend" d="M 186.5 369.5 Q 186.5 367.5, 187.5 366.4 Q 188.4 365.3, 190.4 365.3 Q 192.3 365.3, 193.2 366.6 L 192.2 367.4 Q 191.9 366.9, 191.4 366.7 Q 191.0 366.4, 190.4 366.4 Q 189.3 366.4, 188.6 367.2 Q 188.0 368.0, 188.0 369.5 Q 188.0 371.0, 188.6 371.8 Q 189.3 372.6, 190.5 372.6 Q 191.2 372.6, 191.6 372.4 Q 192.1 372.3, 192.7 372.0 L 193.1 373.0 Q 191.9 373.7, 190.4 373.7 Q 188.4 373.7, 187.5 372.6 Q 186.5 371.5, 186.5 369.5 " fill="#000000"/>
<path class="legend" d="M 193.6 366.6 L 193.6 365.4 L 195.2 365.4 L 195.5 363.0 L 196.6 363.0 L 196.6 365.4 L 199.1 365.4 L 199.1 366.6 L 196.6 366.6 L 196.6 371.1 Q 196.6 372.5, 197.8 372.5 Q 198.3 372.5, 199.0 372.3 L 199.2 373.4 Q 198.3 373.7, 197.5 373.7 Q 196.4 373.7, 195.7 373.1 Q 195.1 372.4, 195.1 371.2 L 195.1 366.6 L 193.6 366.6 " fill="#000000"/>
<path class="legend" d="M 207.8 374.4 L 207.8 375.7 L 199.6 375.7 L 199.6 374.4 L 207.8 374.4 " fill="#000000"/>
<path class="legend" d="M 213.2 367.7 Q 214.3 368.0, 214.8 368.7 Q 215.4 369.4, 215.4 370.5 Q 215.4 371.5, 214.9 372.2 Q 214.4 373.0, 213.6 373.4 Q 212.7 373.8, 211.5 373.8 Q 210.3 373.8, 209.4 373.4 Q 208.5 372.9, 207.8 372.1 L 208.7 371.2 Q 209.4 371.9, 210.0 372.2 Q 210.6 372.5, 211.5 372.5 Q 212.5 372.5, 213.2 372.0 Q 213.8 371.4, 213.8 370.5 Q 213.8 369.4, 213.1 368.8 Q 212.5 368.3, 211.1 368.3 L 210.3 368.3 L 210.3 367.2 L 211.0 367.2 Q 212.2 367.2, 212.9 366.6 Q 213.6 366.1, 213.6 365.1 Q 213.6 364.3, 213.0 363.9 Q 212.5 363.5, 211.5 363.5 Q 210.6 363.5, 210.0 363.8 Q 209.4 364.1, 209.0 365.0 L 207.9 364.4 Q 208.3 363.4, 209.2 362.8 Q 210.2 362.2, 211.5 362.2 Q 213.2 362.2, 214.2 363.0 Q 215.2 363.7, 215.2 365.1 Q 215.2 366.0, 214.7 366.6 Q 214.2 367.3, 213.2 367.7 " fill="#000000"/>
<path class="legend" d="M 220.5 373.8 Q 218.4 373.8, 217.4 372.2 Q 216.3 370.7, 216.3 368.0 Q 216.3 365.2, 217.4 363.7 Q 218.4 362.2, 220.5 362.2 Q 222.6 362.2, 223.6 363.7 Q 224.6 365.2, 224.6 368.0 Q 224.6 370.7, 223.6 372.2 Q 222.6 373.8, 220.5 373.8 M 220.5 372.5 Q 221.7 372.5, 222.4 371.3 Q 223.0 370.2, 223.0 368.0 Q 223.0 365.7, 222.4 364.6 Q 221.7 363.5, 220.5 363.5 Q 219.3 363.5, 218.6 364.6 Q 217.9 365.7, 217.9 368.0 Q 217.9 370.2, 218.6 371.3 Q 219.3 372.5, 220.5 372.5 " fill="#000000"/>
<path class="legend" d="M 233.0 369.7 L 234.4 369.7 L 234.4 371.0 L 233.0 371.0 L 233.0 373.6 L 231.5 373.6 L 231.5 371.0 L 225.7 371.0 L 225.7 370.0 L 230.6 362.3 L 233.0 362.3 L 233.0 369.7 M 227.5 369.7 L 231.5 369.7 L 231.5 363.3 L 227.5 369.7 " fill="#000000"/>
<path class="legend" d="M 137.1 383.8 Q 137.1 381.8, 138.1 380.7 Q 139.1 379.5, 141.0 379.5 Q 142.9 379.5, 143.9 380.9 L 142.9 381.6 Q 142.5 381.2, 142.0 380.9 Q 141.6 380.7, 141.0 380.7 Q 139.9 380.7, 139.2 381.5 Q 138.6 382.3, 138.6 383.8 Q 138.6 385.3, 139.3 386.1 Q 139.9 386.8, 141.1 386.8 Q 141.8 386.8, 142.3 386.7 Q 142.7 386.5, 143.3 386.3 L 143.7 387.3 Q 142.5 388.0, 141.0 388.0 Q 139.1 388.0, 138.1 386.9 Q 137.1 385.7, 137.1 383.8 " fill="#000000"/>
<path class="legend" d="M 144.3 383.8 Q 144.3 381.7, 145.3 380.6 Q 146.3 379.5, 148.1 379.5 Q 149.9 379.5, 150.7 380.6 Q 151.5 381.7, 151.5 383.7 L 151.5 384.0 L 145.8 384.0 Q 145.8 385.4, 146.4 386.1 Q 147.1 386.8, 148.2 386.8 Q 148.9 386.8, 149.5 386.7 Q 150.1 386.5, 150.8 386.2 L 151.2 387.2 Q 150.4 387.6, 149.7 387.8 Q 148.9 388.0, 148.2 388.0 Q 146.3 388.0, 145.3 386.9 Q 144.3 385.8, 144.3 383.8 M 148.1 380.7 Q 147.2 380.7, 146.6 381.2 Q 146.0 381.8, 145.9 382.8 L 149.9 382.8 Q 149.8 381.7, 149.4 381.2 Q 148.9 380.7, 148.1 380.7 " fill="#000000"/>
<path class="legend" d="M 156.4 379.5 Q 157.7 379.5, 158.4 380.3 Q 159.1 381.0, 159.1 382.4 L 159.1 387.9 L 157.6 387.9 L 157.6 382.6 Q 157.6 381.6, 157.2 381.2 Q 156.9 380.7, 156.0 380.7 Q 155.3 380.7, 154.7 381.1 Q 154.0 381.4, 153.6 382.0 L 153.6 387.9 L 152.1 387.9 L 152.1 379.7 L 153.4 379.7 L 153.5 380.8 Q 154.7 379.5, 156.4 379.5 " fill="#000000"/>
<path class="legend" d="M 160.4 380.8 L 160.4 379.7 L 161.9 379.7 L 162.2 377.3 L 163.3 377.3 L 163.3 379.7 L 165.8 379.7 L 165.8 380.8 L 163.3 380.8 L 163.3 385.4 Q 163.3 386.8, 164.5 386.8 Q 165.0 386.8, 165.7 386.6 L 165.9 387.6 Q 165.1 388.0, 164.2 388.0 Q 163.2 388.0, 162.5 387.3 Q 161.8 386.7, 161.8 385.4 L 161.8 380.8 L 160.4 380.8 " fill="#000000"/>
<path class="legend" d="M 174.5 388.7 L 174.5 390.0 L 166.3 390.0 L 166.3 388.7 L 174.5 388.7 " fill="#000000"/>
<path class="legend" d="M 182.0 375.7 L 182.0 387.9 L 180.8 387.9 L 180.6 386.9 Q 179.6 388.0, 178.1 388.0 Q 176.4 388.0, 175.5 387.0 Q 174.5 385.9, 174.5 383.9 Q 174.5 381.8, 175.6 380.7 Q 176.8 379.5, 178.7 379.5 Q 179.6 379.5, 180.5 379.7 L 180.5 375.7 L 182.0 375.7 M 178.2 386.8 Q 179.1 386.8, 179.6 386.4 Q 180.3 385.9, 180.5 385.1 L 180.5 380.9 Q 179.7 380.7, 178.7 380.7 Q 177.5 380.7, 176.8 381.6 Q 176.0 382.4, 176.0 383.9 Q 176.0 385.3, 176.6 386.1 Q 177.2 386.8, 178.2 386.8 " fill="#000000"/>
<path class="legend" d="M 183.3 376.6 L 184.7 376.6 L 184.7 378.0 L 183.3 378.0 L 183.3 376.6 M 183.3 379.7 L 184.7 379.7 L 184.7 387.9 L 183.3 387.9 L 183.3 379.7 " fill="#000000"/>
<path class="legend" d="M 186.6 386.2 Q 187.3 386.5, 187.8 386.6 Q 188.3 386.8, 188.9 386.8 Q 189.6 386.8, 190.0 386.5 Q 190.4 386.2, 190.4 385.6 Q 190.4 385.2, 190.2 385.0 Q 190.0 384.8, 189.7 384.6 Q 189.5 384.5, 188.7 384.3 Q 188.6 384.3, 187.9 384.0 Q 187.2 383.7, 186.8 383.2 Q 186.4 382.7, 186.4 381.9 Q 186.4 380.9, 187.1 380.2 Q 187.9 379.5, 189.4 379.5 Q 190.0 379.5, 190.6 379.7 Q 191.1 379.8, 191.7 380.0 L 191.3 381.2 Q 190.8 381.0, 190.3 380.9 Q 189.9 380.8, 189.4 380.8 Q 188.7 380.8, 188.3 381.1 Q 187.9 381.4, 187.9 381.8 Q 187.9 382.3, 188.2 382.5 Q 188.5 382.7, 189.2 383.0 Q 189.3 383.0, 189.5 383.1 L 189.9 383.2 Q 190.5 383.4, 190.9 383.7 Q 191.4 383.9, 191.6 384.4 Q 191.9 384.8, 191.9 385.6 Q 191.9 386.7, 191.1 387.4 Q 190.3 388.0, 188.9 388.0 Q 188.1 388.0, 187.5 387.9 Q 186.8 387.7, 186.1 387.4 L 186.6 386.2 " fill="#000000"/>
<path class="legend" d="M 192.8 380.8 L 192.8 379.7 L 194.3 379.7 L 194.6 377.3 L 195.7 377.3 L 195.7 379.7 L 198.2 379.7 L 198.2 380.8 L 195.7 380.8 L 195.7 385.4 Q 195.7 386.8, 196.9 386.8 Q 197.4 386.8, 198.1 386.6 L 198.4 387.6 Q 197.5 388.0, 196.7 388.0 Q 195.6 388.0, 194.9 387.3 Q 194.2 386.7, 194.2 385.4 L 194.2 380.8 L 192.8 380.8 " fill="#000000"/>
<path class="legend" d="" fill="#000000"/>
<path class="legend" d="M 204.1 380.9 L 211.4 380.9 L 211.4 382.1 L 204.1 382.1 L 204.1 380.9 M 204.1 384.4 L 211.4 384.4 L 211.4 385.5 L 204.1 385.5 L 204.1 384.4 " fill="#000000"/>
<path class="legend" d="" fill="#000000"/>
<path class="legend" d="M 218.8 386.6 L 221.3 386.6 L 221.3 378.1 L 218.6 379.0 L 218.2 378.0 L 221.7 376.5 L 222.8 376.7 L 222.8 386.6 L 225.0 386.6 L 225.0 387.9 L 218.8 387.9 L 218.8 386.6 " fill="#000000"/>
<path class="legend" d="M 225.7 386.3 L 227.3 386.3 L 227.3 387.9 L 225.7 387.9 L 225.7 386.3 " fill="#000000"/>
<path class="legend" d="M 232.5 388.0 Q 230.4 388.0, 229.4 386.5 Q 228.4 384.9, 228.4 382.2 Q 228.4 379.5, 229.4 378.0 Q 230.4 376.4, 232.5 376.4 Q 234.6 376.4, 235.6 378.0 Q 236.6 379.5, 236.6 382.2 Q 236.6 384.9, 235.6 386.5 Q 234.6 388.0, 232.5 388.0 M 232.5 386.7 Q 233.7 386.7, 234.4 385.6 Q 235.0 384.4, 235.0 382.2 Q 235.0 380.0, 234.4 378.8 Q 233.7 377.7, 232.5 377.7 Q 231.3 377.7, 230.6 378.8 Q 230.0 380.0, 230.0 382.2 Q 230.0 384.4, 230.6 385.6 Q 231.3 386.7, 232.5 386.7 " fill="#000000"/>
<path class="legend" d="M 237.7 378.7 Q 238.1 377.6, 239.1 377.0 Q 240.1 376.4, 241.5 376.4 Q 243.2 376.4, 244.2 377.4 Q 245.1 378.3, 245.1 379.9 Q 245.1 381.6, 243.9 383.2 Q 242.6 384.8, 240.1 386.6 L 245.3 386.6 L 245.3 387.9 L 237.7 387.9 L 237.7 386.8 Q 239.8 385.3, 241.0 384.2 Q 242.3 383.1, 242.9 382.1 Q 243.5 381.1, 243.5 380.0 Q 243.5 378.9, 243.0 378.3 Q 242.4 377.7, 241.5 377.7 Q 240.6 377.7, 240.0 378.1 Q 239.4 378.4, 238.9 379.3 L 237.7 378.7 " fill="#000000"/>
<path class="legend" d="M 252.1 381.9 Q 253.1 382.3, 253.7 383.0 Q 254.3 383.7, 254.3 384.8 Q 254.3 385.7, 253.8 386.5 Q 253.3 387.2, 252.4 387.6 Q 251.5 388.0, 250.3 388.0 Q 248.5 388.0, 247.4 387.2 Q 246.3 386.3, 246.3 384.8 Q 246.3 383.9, 246.8 383.2 Q 247.2 382.5, 248.2 381.9 Q 247.5 381.5, 247.1 380.9 Q 246.7 380.3, 246.7 379.3 Q 246.7 378.0, 247.7 377.2 Q 248.6 376.4, 250.3 376.4 Q 251.9 376.4, 252.9 377.2 Q 253.9 378.0, 253.9 379.3 Q 253.9 380.2, 253.4 380.8 Q 252.9 381.4, 252.1 381.9 M 250.3 377.6 Q 249.3 377.6, 248.8 378.1 Q 248.3 378.5, 248.3 379.3 Q 248.3 379.9, 248.6 380.3 Q 249.0 380.7, 249.5 380.9 Q 250.0 381.2, 251.0 381.5 Q 251.7 381.0, 252.0 380.5 Q 252.3 380.0, 252.3 379.3 Q 252.3 378.5, 251.7 378.1 Q 251.2 377.6, 250.3 377.6 M 250.3 386.8 Q 251.4 386.8, 252.0 386.3 Q 252.7 385.7, 252.7 384.8 Q 252.7 384.2, 252.3 383.8 Q 252.0 383.4, 251.5 383.2 Q 251.0 382.9, 250.1 382.7 L 249.4 382.4 Q 248.6 382.9, 248.2 383.5 Q 247.9 384.0, 247.9 384.8 Q 247.9 385.7, 248.5 386.3 Q 249.2 386.8, 250.3 386.8 " fill="#000000"/>
<path class="legend" d="M 255.3 378.7 Q 255.7 377.6, 256.7 377.0 Q 257.7 376.4, 259.1 376.4 Q 260.8 376.4, 261.8 377.4 Q 262.7 378.3, 262.7 379.9 Q 262.7 381.6, 261.5 383.2 Q 260.2 384.8, 257.7 386.6 L 262.9 386.6 L 262.9 387.9 L 255.3 387.9 L 255.3 386.8 Q 257.4 385.3, 258.6 384.2 Q 259.9 383.1, 260.5 382.1 Q 261.1 381.1, 261.1 380.0 Q 261.1 378.9, 260.6 378.3 Q 260.0 377.7, 259.1 377.7 Q 258.2 377.7, 257.6 378.1 Q 257.0 378.4, 256.5 379.3 L 255.3 378.7 " fill="#000000"/>
<path class="bond-0 atom-0 atom-1" d="M 748.4,142.7 L 722.5,93.2" style="fill:none;fill-rule:evenodd;stroke:#000000;stroke-width:2.0px;stroke-linecap:butt;stroke-linejoin:miter;stroke-opacity:1"/>
<path class="bond-1 atom-1 atom-2" d="M 722.5,93.2 L 696.7,43.7" style="fill:none;fill-rule:evenodd;stroke:#000000;stroke-width:2.0px;stroke-linecap:butt;stroke-linejoin:miter;stroke-opacity:1"/>
<path class="bond-2 atom-1 atom-3" d="M 722.5,93.2 L 772.0,67.4" style="fill:none;fill-rule:evenodd;stroke:#000000;stroke-width:2.0px;stroke-linecap:butt;stroke-linejoin:miter;stroke-opacity:1"/>
<path class="bond-3 atom-1 atom-4" d="M 722.5,93.2 L 681.5,114.6" style="fill:none;fill-rule:evenodd;stroke:#000000;stroke-width:2.0px;stroke-linecap:butt;stroke-linejoin:miter;stroke-opacity:1"/>
<path class="bond-4 atom-4 atom-5" d="M 668.0,109.3 L 647.2,69.6" style="fill:none;fill-rule:evenodd;stroke:#000000;stroke-width:2.0px;stroke-linecap:butt;stroke-linejoin:miter;stroke-opacity:1"/>
<path class="bond-5 atom-4 atom-6" d="M 678.3,129.2 L 698.9,168.5" style="fill:none;fill-rule:evenodd;stroke:#000000;stroke-width:2.0px;stroke-linecap:butt;stroke-linejoin:miter;stroke-opacity:1"/>
<path class="bond-6 atom-4 atom-7" d="M 664.6,123.5 L 648.6,131.8" style="fill:none;fill-rule:evenodd;stroke:#000000;stroke-width:2.0px;stroke-linecap:butt;stroke-linejoin:miter;stroke-opacity:1"/>
<path class="bond-6 atom-4 atom-7" d="M 648.6,131.8 L 632.7,140.1" style="fill:none;fill-rule:evenodd;stroke:#FF0000;stroke-width:2.0px;stroke-linecap:butt;stroke-linejoin:miter;stroke-opacity:1"/>
<path class="bond-7 atom-7 atom-8" d="M 623.1,155.0 L 622.2,177.8" style="fill:none;fill-rule:evenodd;stroke:#FF0000;stroke-width:2.0px;stroke-linecap:butt;stroke-linejoin:miter;stroke-opacity:1"/>
<path class="bond-7 atom-7 atom-8" d="M 622.2,177.8 L 621.2,200.7" style="fill:none;fill-rule:evenodd;stroke:#000000;stroke-width:2.0px;stroke-linecap:butt;stroke-linejoin:miter;stroke-opacity:1"/>
<path class="bond-8 atom-8 atom-9" d="M 621.2,200.7 L 571.7,226.5" style="fill:none;fill-rule:evenodd;stroke:#000000;stroke-width:2.0px;stroke-linecap:butt;stroke-linejoin:miter;stroke-opacity:1"/>
<path class="bond-8 atom-8 atom-9" d="M 619.0,214.4 L 584.3,232.5" style="fill:none;fill-rule:evenodd;stroke:#000000;stroke-width:2.0px;stroke-linecap:butt;stroke-linejoin:miter;stroke-opacity:1"/>
<path class="bond-9 atom-9 atom-10" d="M 571.7,226.5 L 524.6,196.6" style="fill:none;fill-rule:evenodd;stroke:#000000;stroke-width:2.0px;stroke-linecap:butt;stroke-linejoin:miter;stroke-opacity:1"/>
<path class="bond-10 atom-10 atom-11" d="M 524.6,196.6 L 527.0,140.8" style="fill:none;fill-rule:evenodd;stroke:#000000;stroke-width:2.0px;stroke-linecap:butt;stroke-linejoin:miter;stroke-opacity:1"/>
<path class="bond-10 atom-10 atom-11" d="M 513.8,187.7 L 515.5,148.7" style="fill:none;fill-rule:evenodd;stroke:#000000;stroke-width:2.0px;stroke-linecap:butt;stroke-linejoin:miter;stroke-opacity:1"/>
<path class="bond-11 atom-11 atom-12" d="M 527.0,140.8 L 479.8,110.9" style="fill:none;fill-rule:evenodd;stroke:#000000;stroke-width:2.0px;stroke-linecap:butt;stroke-linejoin:miter;stroke-opacity:1"/>
<path class="bond-12 atom-12 atom-13" d="M 479.8,110.9 L 430.4,136.7" style="fill:none;fill-rule:evenodd;stroke:#000000;stroke-width:2.0px;stroke-linecap:butt;stroke-linejoin:miter;stroke-opacity:1"/>
<path class="bond-12 atom-12 atom-13" d="M 477.6,124.7 L 443.0,142.8" style="fill:none;fill-rule:evenodd;stroke:#000000;stroke-width:2.0px;stroke-linecap:butt;stroke-linejoin:miter;stroke-opacity:1"/>
<path class="bond-13 atom-13 atom-14" d="M 430.4,136.7 L 428.0,192.5" style="fill:none;fill-rule:evenodd;stroke:#000000;stroke-width:2.0px;stroke-linecap:butt;stroke-linejoin:miter;stroke-opacity:1"/>
<path class="bond-14 atom-14 atom-15" d="M 428.0,192.5 L 475.1,222.4" style="fill:none;fill-rule:evenodd;stroke:#000000;stroke-width:2.0px;stroke-linecap:butt;stroke-linejoin:miter;stroke-opacity:1"/>
<path class="bond-14 atom-14 atom-15" d="M 441.1,187.6 L 474.1,208.5" style="fill:none;fill-rule:evenodd;stroke:#000000;stroke-width:2.0px;stroke-linecap:butt;stroke-linejoin:miter;stroke-opacity:1"/>
<path class="bond-15 atom-9 atom-16" d="M 571.7,226.5 L 569.4,282.3" style="fill:none;fill-rule:evenodd;stroke:#000000;stroke-width:2.0px;stroke-linecap:butt;stroke-linejoin:miter;stroke-opacity:1"/>
<path class="bond-16 atom-16 atom-17" d="M 569.4,282.3 L 616.5,312.2" style="fill:none;fill-rule:evenodd;stroke:#000000;stroke-width:2.0px;stroke-linecap:butt;stroke-linejoin:miter;stroke-opacity:1"/>
<path class="bond-17 atom-17 atom-18" d="M 616.5,312.2 L 666.0,286.4" style="fill:none;fill-rule:evenodd;stroke:#000000;stroke-width:2.0px;stroke-linecap:butt;stroke-linejoin:miter;stroke-opacity:1"/>
<path class="bond-18 atom-18 atom-19" d="M 666.0,286.4 L 713.1,316.3" style="fill:none;fill-rule:evenodd;stroke:#000000;stroke-width:2.0px;stroke-linecap:butt;stroke-linejoin:miter;stroke-opacity:1"/>
<path class="bond-18 atom-18 atom-19" d="M 679.0,281.4 L 712.0,302.4" style="fill:none;fill-rule:evenodd;stroke:#000000;stroke-width:2.0px;stroke-linecap:butt;stroke-linejoin:miter;stroke-opacity:1"/>
<path class="bond-19 atom-19 atom-20" d="M 713.1,316.3 L 762.6,290.4" style="fill:none;fill-rule:evenodd;stroke:#000000;stroke-width:2.0px;stroke-linecap:butt;stroke-linejoin:miter;stroke-opacity:1"/>
<path class="bond-20 atom-20 atom-21" d="M 762.6,290.4 L 764.9,234.7" style="fill:none;fill-rule:evenodd;stroke:#000000;stroke-width:2.0px;stroke-linecap:butt;stroke-linejoin:miter;stroke-opacity:1"/>
<path class="bond-20 atom-20 atom-21" d="M 751.8,281.6 L 753.4,242.6" style="fill:none;fill-rule:evenodd;stroke:#000000;stroke-width:2.0px;stroke-linecap:butt;stroke-linejoin:miter;stroke-opacity:1"/>
<path class="bond-21 atom-21 atom-22" d="M 764.9,234.7 L 717.8,204.7" style="fill:none;fill-rule:evenodd;stroke:#000000;stroke-width:2.0px;stroke-linecap:butt;stroke-linejoin:miter;stroke-opacity:1"/>
<path class="bond-22 atom-22 atom-23" d="M 717.8,204.7 L 668.3,230.6" style="fill:none;fill-rule:evenodd;stroke:#000000;stroke-width:2.0px;stroke-linecap:butt;stroke-linejoin:miter;stroke-opacity:1"/>
<path class="bond-22 atom-22 atom-23" d="M 715.6,218.5 L 680.9,236.6" style="fill:none;fill-rule:evenodd;stroke:#000000;stroke-width:2.0px;stroke-linecap:butt;stroke-linejoin:miter;stroke-opacity:1"/>
<path class="bond-23 atom-23 atom-8" d="M 668.3,230.6 L 621.2,200.7" style="fill:none;fill-rule:evenodd;stroke:#000000;stroke-width:2.0px;stroke-linecap:butt;stroke-linejoin:miter;stroke-opacity:1"/>
<path class="bond-24 atom-15 atom-10" d="M 475.1,222.4 L 524.6,196.6" style="fill:none;fill-rule:evenodd;stroke:#000000;stroke-width:2.0px;stroke-linecap:butt;stroke-linejoin:miter;stroke-opacity:1"/>
<path class="bond-25 atom-23 atom-18" d="M 668.3,230.6 L 666.0,286.4" style="fill:none;fill-rule:evenodd;stroke:#000000;stroke-width:2.0px;stroke-linecap:butt;stroke-linejoin:miter;stroke-opacity:1"/>
<path class="atom-4" d="M 667.0 124.5 Q 667.2 124.6, 667.9 124.9 Q 668.7 125.2, 669.5 125.4 Q 670.3 125.6, 671.1 125.6 Q 672.6 125.6, 673.5 124.8 Q 674.3 124.1, 674.3 122.8 Q 674.3 122.0, 673.9 121.4 Q 673.5 120.9, 672.8 120.6 Q 672.1 120.3, 671.0 120.0 Q 669.6 119.6, 668.8 119.2 Q 667.9 118.8, 667.3 117.9 Q 666.8 117.1, 666.8 115.6 Q 666.8 113.6, 668.1 112.4 Q 669.5 111.2, 672.1 111.2 Q 674.0 111.2, 676.0 112.1 L 675.5 113.8 Q 673.6 113.0, 672.2 113.0 Q 670.7 113.0, 669.8 113.6 Q 669.0 114.3, 669.0 115.4 Q 669.0 116.2, 669.4 116.7 Q 669.9 117.2, 670.5 117.5 Q 671.1 117.8, 672.2 118.2 Q 673.6 118.6, 674.5 119.0 Q 675.3 119.5, 675.9 120.4 Q 676.6 121.3, 676.6 122.8 Q 676.6 125.0, 675.1 126.2 Q 673.6 127.4, 671.2 127.4 Q 669.8 127.4, 668.7 127.1 Q 667.7 126.8, 666.4 126.3 L 667.0 124.5 " fill="#000000"/>
<path class="atom-4" d="M 677.6 111.1 L 679.7 111.1 L 679.7 113.1 L 677.6 113.1 L 677.6 111.1 M 677.6 115.5 L 679.7 115.5 L 679.7 126.9 L 677.6 126.9 L 677.6 115.5 " fill="#000000"/>
<path class="atom-7" d="M 616.3 144.9 Q 616.3 141.1, 618.2 139.0 Q 620.1 136.9, 623.6 136.9 Q 627.1 136.9, 628.9 139.0 Q 630.8 141.1, 630.8 144.9 Q 630.8 148.8, 628.9 151.0 Q 627.0 153.1, 623.6 153.1 Q 620.1 153.1, 618.2 151.0 Q 616.3 148.8, 616.3 144.9 M 623.6 151.3 Q 626.0 151.3, 627.3 149.7 Q 628.6 148.1, 628.6 144.9 Q 628.6 141.8, 627.3 140.3 Q 626.0 138.7, 623.6 138.7 Q 621.1 138.7, 619.8 140.2 Q 618.5 141.8, 618.5 144.9 Q 618.5 148.1, 619.8 149.7 Q 621.1 151.3, 623.6 151.3 " fill="#FF0000"/>
<path class="legend" d="M 567.0 365.4 L 567.2 366.5 Q 568.1 365.3, 569.5 365.3 Q 569.9 365.3, 570.6 365.4 L 570.3 366.8 Q 569.6 366.6, 569.2 366.6 Q 568.6 366.6, 568.1 366.9 Q 567.7 367.1, 567.3 367.8 L 567.3 373.6 L 565.8 373.6 L 565.8 365.4 L 567.0 365.4 " fill="#000000"/>
<path class="legend" d="M 570.8 369.5 Q 570.8 367.5, 571.8 366.4 Q 572.8 365.3, 574.6 365.3 Q 576.5 365.3, 577.3 366.4 Q 578.1 367.4, 578.1 369.5 L 578.1 369.7 L 572.3 369.7 Q 572.4 371.1, 573.0 371.8 Q 573.6 372.6, 574.8 372.6 Q 575.4 372.6, 576.0 372.4 Q 576.6 372.3, 577.3 372.0 L 577.8 373.0 Q 576.9 373.4, 576.2 373.6 Q 575.5 373.8, 574.7 373.8 Q 572.8 373.8, 571.8 372.6 Q 570.8 371.5, 570.8 369.5 M 574.6 366.4 Q 573.7 366.4, 573.1 367.0 Q 572.6 367.5, 572.4 368.6 L 576.5 368.6 Q 576.4 367.5, 575.9 367.0 Q 575.5 366.4, 574.6 366.4 " fill="#000000"/>
<path class="legend" d="M 578.7 371.4 Q 578.7 370.1, 579.7 369.4 Q 580.8 368.7, 582.7 368.7 L 583.9 368.7 L 583.9 368.3 Q 583.9 367.3, 583.5 366.9 Q 583.1 366.4, 582.1 366.4 Q 581.4 366.4, 580.9 366.6 Q 580.4 366.7, 579.6 367.0 L 579.1 366.0 Q 580.6 365.3, 582.1 365.3 Q 583.8 365.3, 584.6 366.0 Q 585.4 366.8, 585.4 368.4 L 585.4 373.6 L 584.3 373.6 Q 584.3 373.6, 584.2 373.3 Q 584.2 373.1, 584.1 372.7 Q 582.9 373.8, 581.4 373.8 Q 580.2 373.8, 579.4 373.2 Q 578.7 372.5, 578.7 371.4 M 580.2 371.4 Q 580.2 372.0, 580.6 372.3 Q 581.0 372.6, 581.7 372.6 Q 582.3 372.6, 582.9 372.4 Q 583.5 372.0, 583.9 371.5 L 583.9 369.8 L 582.8 369.8 Q 581.5 369.8, 580.8 370.2 Q 580.2 370.6, 580.2 371.4 " fill="#000000"/>
<path class="legend" d="M 586.7 369.5 Q 586.7 367.5, 587.7 366.4 Q 588.7 365.3, 590.6 365.3 Q 592.5 365.3, 593.5 366.6 L 592.5 367.4 Q 592.1 366.9, 591.6 366.7 Q 591.2 366.4, 590.6 366.4 Q 589.5 366.4, 588.8 367.2 Q 588.2 368.0, 588.2 369.5 Q 588.2 371.0, 588.9 371.8 Q 589.5 372.6, 590.7 372.6 Q 591.4 372.6, 591.8 372.4 Q 592.3 372.3, 592.9 372.0 L 593.3 373.0 Q 592.1 373.7, 590.6 373.7 Q 588.7 373.7, 587.7 372.6 Q 586.7 371.5, 586.7 369.5 " fill="#000000"/>
<path class="legend" d="M 593.8 366.6 L 593.8 365.4 L 595.4 365.4 L 595.7 363.0 L 596.8 363.0 L 596.8 365.4 L 599.3 365.4 L 599.3 366.6 L 596.8 366.6 L 596.8 371.1 Q 596.8 372.5, 598.0 372.5 Q 598.5 372.5, 599.2 372.3 L 599.4 373.4 Q 598.6 373.7, 597.7 373.7 Q 596.6 373.7, 596.0 373.1 Q 595.3 372.4, 595.3 371.2 L 595.3 366.6 L 593.8 366.6 " fill="#000000"/>
<path class="legend" d="M 608.0 374.4 L 608.0 375.7 L 599.8 375.7 L 599.8 374.4 L 608.0 374.4 " fill="#000000"/>
<path class="legend" d="M 613.4 367.7 Q 614.5 368.0, 615.1 368.7 Q 615.6 369.4, 615.6 370.5 Q 615.6 371.5, 615.1 372.2 Q 614.6 373.0, 613.8 373.4 Q 612.9 373.8, 611.7 373.8 Q 610.5 373.8, 609.6 373.4 Q 608.7 372.9, 608.0 372.1 L 608.9 371.2 Q 609.6 371.9, 610.2 372.2 Q 610.8 372.5, 611.7 372.5 Q 612.8 372.5, 613.4 372.0 Q 614.0 371.4, 614.0 370.5 Q 614.0 369.4, 613.4 368.8 Q 612.7 368.3, 611.3 368.3 L 610.5 368.3 L 610.5 367.2 L 611.2 367.2 Q 612.5 367.2, 613.1 366.6 Q 613.8 366.1, 613.8 365.1 Q 613.8 364.3, 613.2 363.9 Q 612.7 363.5, 611.8 363.5 Q 610.8 363.5, 610.2 363.8 Q 609.6 364.1, 609.2 365.0 L 608.1 364.4 Q 608.5 363.4, 609.4 362.8 Q 610.4 362.2, 611.8 362.2 Q 613.4 362.2, 614.4 363.0 Q 615.4 363.7, 615.4 365.1 Q 615.4 366.0, 614.9 366.6 Q 614.4 367.3, 613.4 367.7 " fill="#000000"/>
<path class="legend" d="M 620.7 373.8 Q 618.6 373.8, 617.6 372.2 Q 616.6 370.7, 616.6 368.0 Q 616.6 365.2, 617.6 363.7 Q 618.6 362.2, 620.7 362.2 Q 622.8 362.2, 623.8 363.7 Q 624.8 365.2, 624.8 368.0 Q 624.8 370.7, 623.8 372.2 Q 622.8 373.8, 620.7 373.8 M 620.7 372.5 Q 621.9 372.5, 622.6 371.3 Q 623.2 370.2, 623.2 368.0 Q 623.2 365.7, 622.6 364.6 Q 621.9 363.5, 620.7 363.5 Q 619.5 363.5, 618.8 364.6 Q 618.2 365.7, 618.2 368.0 Q 618.2 370.2, 618.8 371.3 Q 619.5 372.5, 620.7 372.5 " fill="#000000"/>
<path class="legend" d="M 630.0 373.8 Q 627.9 373.8, 626.9 372.2 Q 625.9 370.7, 625.9 368.0 Q 625.9 365.2, 626.9 363.7 Q 627.9 362.2, 630.0 362.2 Q 632.1 362.2, 633.1 363.7 Q 634.2 365.2, 634.2 368.0 Q 634.2 370.7, 633.1 372.2 Q 632.1 373.8, 630.0 373.8 M 630.0 372.5 Q 631.3 372.5, 631.9 371.3 Q 632.6 370.2, 632.6 368.0 Q 632.6 365.7, 631.9 364.6 Q 631.3 363.5, 630.0 363.5 Q 628.8 363.5, 628.1 364.6 Q 627.5 365.7, 627.5 368.0 Q 627.5 370.2, 628.1 371.3 Q 628.8 372.5, 630.0 372.5 " fill="#000000"/>
<path class="legend" d="M 537.3 383.8 Q 537.3 381.8, 538.3 380.7 Q 539.3 379.5, 541.2 379.5 Q 543.1 379.5, 544.1 380.9 L 543.1 381.6 Q 542.7 381.2, 542.2 380.9 Q 541.8 380.7, 541.2 380.7 Q 540.1 380.7, 539.5 381.5 Q 538.8 382.3, 538.8 383.8 Q 538.8 385.3, 539.5 386.1 Q 540.1 386.8, 541.3 386.8 Q 542.0 386.8, 542.5 386.7 Q 542.9 386.5, 543.5 386.3 L 543.9 387.3 Q 542.7 388.0, 541.2 388.0 Q 539.3 388.0, 538.3 386.9 Q 537.3 385.7, 537.3 383.8 " fill="#000000"/>
<path class="legend" d="M 544.5 383.8 Q 544.5 381.7, 545.5 380.6 Q 546.5 379.5, 548.3 379.5 Q 550.1 379.5, 550.9 380.6 Q 551.7 381.7, 551.7 383.7 L 551.7 384.0 L 546.0 384.0 Q 546.0 385.4, 546.7 386.1 Q 547.3 386.8, 548.4 386.8 Q 549.1 386.8, 549.7 386.7 Q 550.3 386.5, 551.0 386.2 L 551.4 387.2 Q 550.6 387.6, 549.9 387.8 Q 549.1 388.0, 548.4 388.0 Q 546.5 388.0, 545.5 386.9 Q 544.5 385.8, 544.5 383.8 M 548.3 380.7 Q 547.4 380.7, 546.8 381.2 Q 546.2 381.8, 546.1 382.8 L 550.2 382.8 Q 550.0 381.7, 549.6 381.2 Q 549.1 380.7, 548.3 380.7 " fill="#000000"/>
<path class="legend" d="M 556.6 379.5 Q 557.9 379.5, 558.6 380.3 Q 559.3 381.0, 559.3 382.4 L 559.3 387.9 L 557.8 387.9 L 557.8 382.6 Q 557.8 381.6, 557.5 381.2 Q 557.1 380.7, 556.3 380.7 Q 555.5 380.7, 554.9 381.1 Q 554.3 381.4, 553.9 382.0 L 553.9 387.9 L 552.3 387.9 L 552.3 379.7 L 553.6 379.7 L 553.8 380.8 Q 554.9 379.5, 556.6 379.5 " fill="#000000"/>
<path class="legend" d="M 560.6 380.8 L 560.6 379.7 L 562.1 379.7 L 562.4 377.3 L 563.5 377.3 L 563.5 379.7 L 566.0 379.7 L 566.0 380.8 L 563.5 380.8 L 563.5 385.4 Q 563.5 386.8, 564.7 386.8 Q 565.2 386.8, 565.9 386.6 L 566.2 387.6 Q 565.3 388.0, 564.4 388.0 Q 563.4 388.0, 562.7 387.3 Q 562.0 386.7, 562.0 385.4 L 562.0 380.8 L 560.6 380.8 " fill="#000000"/>
<path class="legend" d="M 574.7 388.7 L 574.7 390.0 L 566.6 390.0 L 566.6 388.7 L 574.7 388.7 " fill="#000000"/>
<path class="legend" d="M 582.2 375.7 L 582.2 387.9 L 581.0 387.9 L 580.8 386.9 Q 579.9 388.0, 578.3 388.0 Q 576.6 388.0, 575.7 387.0 Q 574.7 385.9, 574.7 383.9 Q 574.7 381.8, 575.8 380.7 Q 577.0 379.5, 578.9 379.5 Q 579.8 379.5, 580.7 379.7 L 580.7 375.7 L 582.2 375.7 M 578.4 386.8 Q 579.3 386.8, 579.9 386.4 Q 580.5 385.9, 580.7 385.1 L 580.7 380.9 Q 579.9 380.7, 579.0 380.7 Q 577.7 380.7, 577.0 381.6 Q 576.3 382.4, 576.3 383.9 Q 576.3 385.3, 576.8 386.1 Q 577.4 386.8, 578.4 386.8 " fill="#000000"/>
<path class="legend" d="M 583.5 376.6 L 584.9 376.6 L 584.9 378.0 L 583.5 378.0 L 583.5 376.6 M 583.5 379.7 L 584.9 379.7 L 584.9 387.9 L 583.5 387.9 L 583.5 379.7 " fill="#000000"/>
<path class="legend" d="M 586.8 386.2 Q 587.5 386.5, 588.0 386.6 Q 588.5 386.8, 589.1 386.8 Q 589.8 386.8, 590.2 386.5 Q 590.6 386.2, 590.6 385.6 Q 590.6 385.2, 590.4 385.0 Q 590.2 384.8, 589.9 384.6 Q 589.7 384.5, 589.0 384.3 Q 588.8 384.3, 588.1 384.0 Q 587.4 383.7, 587.0 383.2 Q 586.6 382.7, 586.6 381.9 Q 586.6 380.9, 587.4 380.2 Q 588.1 379.5, 589.6 379.5 Q 590.2 379.5, 590.8 379.7 Q 591.3 379.8, 591.9 380.0 L 591.5 381.2 Q 591.0 381.0, 590.6 380.9 Q 590.1 380.8, 589.6 380.8 Q 588.9 380.8, 588.5 381.1 Q 588.1 381.4, 588.1 381.8 Q 588.1 382.3, 588.4 382.5 Q 588.7 382.7, 589.4 383.0 Q 589.5 383.0, 589.7 383.1 L 590.1 383.2 Q 590.7 383.4, 591.1 383.7 Q 591.6 383.9, 591.9 384.4 Q 592.1 384.8, 592.1 385.6 Q 592.1 386.7, 591.3 387.4 Q 590.5 388.0, 589.1 388.0 Q 588.3 388.0, 587.7 387.9 Q 587.0 387.7, 586.3 387.4 L 586.8 386.2 " fill="#000000"/>
<path class="legend" d="M 593.0 380.8 L 593.0 379.7 L 594.6 379.7 L 594.8 377.3 L 595.9 377.3 L 595.9 379.7 L 598.4 379.7 L 598.4 380.8 L 595.9 380.8 L 595.9 385.4 Q 595.9 386.8, 597.1 386.8 Q 597.6 386.8, 598.3 386.6 L 598.6 387.6 Q 597.7 388.0, 596.9 388.0 Q 595.8 388.0, 595.1 387.3 Q 594.4 386.7, 594.4 385.4 L 594.4 380.8 L 593.0 380.8 " fill="#000000"/>
<path class="legend" d="" fill="#000000"/>
<path class="legend" d="M 604.3 380.9 L 611.6 380.9 L 611.6 382.1 L 604.3 382.1 L 604.3 380.9 M 604.3 384.4 L 611.6 384.4 L 611.6 385.5 L 604.3 385.5 L 604.3 384.4 " fill="#000000"/>
<path class="legend" d="" fill="#000000"/>
<path class="legend" d="M 619.0 386.6 L 621.5 386.6 L 621.5 378.1 L 618.8 379.0 L 618.4 378.0 L 621.9 376.5 L 623.0 376.7 L 623.0 386.6 L 625.3 386.6 L 625.3 387.9 L 619.0 387.9 L 619.0 386.6 " fill="#000000"/>
<path class="legend" d="M 625.9 386.3 L 627.5 386.3 L 627.5 387.9 L 625.9 387.9 L 625.9 386.3 " fill="#000000"/>
<path class="legend" d="M 628.6 378.7 Q 629.0 377.6, 630.0 377.0 Q 631.0 376.4, 632.4 376.4 Q 634.1 376.4, 635.0 377.4 Q 636.0 378.3, 636.0 379.9 Q 636.0 381.6, 634.8 383.2 Q 633.5 384.8, 631.0 386.6 L 636.2 386.6 L 636.2 387.9 L 628.6 387.9 L 628.6 386.8 Q 630.7 385.3, 631.9 384.2 Q 633.2 383.1, 633.8 382.1 Q 634.4 381.1, 634.4 380.0 Q 634.4 378.9, 633.9 378.3 Q 633.3 377.7, 632.4 377.7 Q 631.5 377.7, 630.9 378.1 Q 630.2 378.4, 629.8 379.3 L 628.6 378.7 " fill="#000000"/>
<path class="legend" d="M 641.3 388.0 Q 639.2 388.0, 638.2 386.5 Q 637.2 384.9, 637.2 382.2 Q 637.2 379.5, 638.2 378.0 Q 639.2 376.4, 641.3 376.4 Q 643.4 376.4, 644.4 378.0 Q 645.4 379.5, 645.4 382.2 Q 645.4 384.9, 644.4 386.5 Q 643.4 388.0, 641.3 388.0 M 641.3 386.7 Q 642.5 386.7, 643.2 385.6 Q 643.8 384.4, 643.8 382.2 Q 643.8 380.0, 643.2 378.8 Q 642.5 377.7, 641.3 377.7 Q 640.1 377.7, 639.4 378.8 Q 638.8 380.0, 638.8 382.2 Q 638.8 384.4, 639.4 385.6 Q 640.1 386.7, 641.3 386.7 " fill="#000000"/>
<path class="legend" d="M 651.9 381.9 Q 653.0 382.2, 653.6 383.0 Q 654.1 383.7, 654.1 384.8 Q 654.1 385.7, 653.6 386.5 Q 653.1 387.2, 652.3 387.6 Q 651.4 388.0, 650.2 388.0 Q 649.0 388.0, 648.1 387.6 Q 647.2 387.2, 646.5 386.3 L 647.4 385.4 Q 648.1 386.2, 648.7 386.5 Q 649.3 386.8, 650.2 386.8 Q 651.3 386.8, 651.9 386.2 Q 652.5 385.7, 652.5 384.8 Q 652.5 383.6, 651.8 383.1 Q 651.2 382.6, 649.8 382.6 L 649.0 382.6 L 649.0 381.4 L 649.7 381.4 Q 650.9 381.4, 651.6 380.9 Q 652.3 380.3, 652.3 379.3 Q 652.3 378.6, 651.7 378.2 Q 651.2 377.7, 650.2 377.7 Q 649.3 377.7, 648.7 378.0 Q 648.1 378.4, 647.7 379.2 L 646.6 378.6 Q 647.0 377.7, 647.9 377.1 Q 648.9 376.4, 650.2 376.4 Q 651.9 376.4, 652.9 377.2 Q 653.9 378.0, 653.9 379.3 Q 653.9 380.2, 653.4 380.9 Q 652.9 381.6, 651.9 381.9 " fill="#000000"/>
<path class="legend" d="M 659.2 380.8 Q 660.1 380.8, 661.0 381.2 Q 661.8 381.6, 662.2 382.4 Q 662.7 383.2, 662.7 384.3 Q 662.7 385.5, 662.1 386.3 Q 661.6 387.2, 660.6 387.6 Q 659.7 388.0, 658.7 388.0 Q 657.6 388.0, 656.7 387.6 Q 655.7 387.2, 655.0 386.5 L 656.0 385.5 Q 656.5 386.1, 657.3 386.4 Q 658.0 386.7, 658.7 386.7 Q 659.7 386.7, 660.4 386.1 Q 661.1 385.5, 661.1 384.3 Q 661.1 383.1, 660.4 382.6 Q 659.7 382.0, 658.6 382.0 Q 657.6 382.0, 656.5 382.4 L 655.6 382.0 L 656.2 376.6 L 662.0 376.6 L 661.8 377.8 L 657.5 377.8 L 657.2 381.2 Q 658.2 380.8, 659.2 380.8 " fill="#000000"/>
<path class="bond-0 atom-0 atom-1" d="M 1016.1,81.8 L 987.3,129.7" style="fill:none;fill-rule:evenodd;stroke:#000000;stroke-width:2.0px;stroke-linecap:butt;stroke-linejoin:miter;stroke-opacity:1"/>
<path class="bond-1 atom-1 atom-2" d="M 987.3,129.7 L 1014.4,178.5" style="fill:none;fill-rule:evenodd;stroke:#000000;stroke-width:2.0px;stroke-linecap:butt;stroke-linejoin:miter;stroke-opacity:1"/>
<path class="bond-1 atom-1 atom-2" d="M 1001.2,131.6 L 1020.1,165.8" style="fill:none;fill-rule:evenodd;stroke:#000000;stroke-width:2.0px;stroke-linecap:butt;stroke-linejoin:miter;stroke-opacity:1"/>
<path class="bond-2 atom-2 atom-3" d="M 1014.4,178.5 L 1003.0,197.5" style="fill:none;fill-rule:evenodd;stroke:#000000;stroke-width:2.0px;stroke-linecap:butt;stroke-linejoin:miter;stroke-opacity:1"/>
<path class="bond-2 atom-2 atom-3" d="M 1003.0,197.5 L 991.5,216.5" style="fill:none;fill-rule:evenodd;stroke:#FF0000;stroke-width:2.0px;stroke-linecap:butt;stroke-linejoin:miter;stroke-opacity:1"/>
<path class="bond-3 atom-3 atom-4" d="M 976.5,226.2 L 957.4,225.8" style="fill:none;fill-rule:evenodd;stroke:#FF0000;stroke-width:2.0px;stroke-linecap:butt;stroke-linejoin:miter;stroke-opacity:1"/>
<path class="bond-3 atom-3 atom-4" d="M 957.4,225.8 L 938.3,225.5" style="fill:none;fill-rule:evenodd;stroke:#000000;stroke-width:2.0px;stroke-linecap:butt;stroke-linejoin:miter;stroke-opacity:1"/>
<path class="bond-4 atom-4 atom-5" d="M 929.6,235.5 L 928.8,281.2" style="fill:none;fill-rule:evenodd;stroke:#000000;stroke-width:2.0px;stroke-linecap:butt;stroke-linejoin:miter;stroke-opacity:1"/>
<path class="bond-5 atom-4 atom-6" d="M 930.0,215.6 L 930.8,169.5" style="fill:none;fill-rule:evenodd;stroke:#000000;stroke-width:2.0px;stroke-linecap:butt;stroke-linejoin:miter;stroke-opacity:1"/>
<path class="bond-6 atom-4 atom-7" d="M 921.3,225.2 L 874.0,224.3" style="fill:none;fill-rule:evenodd;stroke:#000000;stroke-width:2.0px;stroke-linecap:butt;stroke-linejoin:miter;stroke-opacity:1"/>
<path class="bond-7 atom-7 atom-8" d="M 874.0,224.3 L 873.0,280.2" style="fill:none;fill-rule:evenodd;stroke:#000000;stroke-width:2.0px;stroke-linecap:butt;stroke-linejoin:miter;stroke-opacity:1"/>
<path class="bond-8 atom-7 atom-9" d="M 874.0,224.3 L 875.0,168.5" style="fill:none;fill-rule:evenodd;stroke:#000000;stroke-width:2.0px;stroke-linecap:butt;stroke-linejoin:miter;stroke-opacity:1"/>
<path class="bond-9 atom-7 atom-10" d="M 874.0,224.3 L 818.2,223.3" style="fill:none;fill-rule:evenodd;stroke:#000000;stroke-width:2.0px;stroke-linecap:butt;stroke-linejoin:miter;stroke-opacity:1"/>
<path class="bond-10 atom-2 atom-11" d="M 1014.4,178.5 L 1070.2,179.5" style="fill:none;fill-rule:evenodd;stroke:#000000;stroke-width:2.0px;stroke-linecap:butt;stroke-linejoin:miter;stroke-opacity:1"/>
<path class="bond-11 atom-11 atom-12" d="M 1070.2,179.5 L 1097.2,228.4" style="fill:none;fill-rule:evenodd;stroke:#000000;stroke-width:2.0px;stroke-linecap:butt;stroke-linejoin:miter;stroke-opacity:1"/>
<path class="bond-11 atom-11 atom-12" d="M 1084.0,181.4 L 1102.9,215.6" style="fill:none;fill-rule:evenodd;stroke:#000000;stroke-width:2.0px;stroke-linecap:butt;stroke-linejoin:miter;stroke-opacity:1"/>
<path class="bond-12 atom-12 atom-13" d="M 1097.2,228.4 L 1153.0,229.4" style="fill:none;fill-rule:evenodd;stroke:#000000;stroke-width:2.0px;stroke-linecap:butt;stroke-linejoin:miter;stroke-opacity:1"/>
<path class="bond-13 atom-13 atom-14" d="M 1153.0,229.4 L 1181.8,181.5" style="fill:none;fill-rule:evenodd;stroke:#000000;stroke-width:2.0px;stroke-linecap:butt;stroke-linejoin:miter;stroke-opacity:1"/>
<path class="bond-13 atom-13 atom-14" d="M 1147.8,216.4 L 1167.9,182.9" style="fill:none;fill-rule:evenodd;stroke:#000000;stroke-width:2.0px;stroke-linecap:butt;stroke-linejoin:miter;stroke-opacity:1"/>
<path class="bond-14 atom-14 atom-15" d="M 1181.8,181.5 L 1154.8,132.7" style="fill:none;fill-rule:evenodd;stroke:#000000;stroke-width:2.0px;stroke-linecap:butt;stroke-linejoin:miter;stroke-opacity:1"/>
<path class="bond-15 atom-15 atom-16" d="M 1154.8,132.7 L 1099.0,131.7" style="fill:none;fill-rule:evenodd;stroke:#000000;stroke-width:2.0px;stroke-linecap:butt;stroke-linejoin:miter;stroke-opacity:1"/>
<path class="bond-15 atom-15 atom-16" d="M 1146.2,143.7 L 1107.1,143.0" style="fill:none;fill-rule:evenodd;stroke:#000000;stroke-width:2.0px;stroke-linecap:butt;stroke-linejoin:miter;stroke-opacity:1"/>
<path class="bond-16 atom-1 atom-17" d="M 987.3,129.7 L 931.5,128.7" style="fill:none;fill-rule:evenodd;stroke:#000000;stroke-width:2.0px;stroke-linecap:butt;stroke-linejoin:miter;stroke-opacity:1"/>
<path class="bond-17 atom-17 atom-18" d="M 931.5,128.7 L 904.5,79.8" style="fill:none;fill-rule:evenodd;stroke:#000000;stroke-width:2.0px;stroke-linecap:butt;stroke-linejoin:miter;stroke-opacity:1"/>
<path class="bond-17 atom-17 atom-18" d="M 917.7,126.8 L 898.8,92.6" style="fill:none;fill-rule:evenodd;stroke:#000000;stroke-width:2.0px;stroke-linecap:butt;stroke-linejoin:miter;stroke-opacity:1"/>
<path class="bond-18 atom-18 atom-19" d="M 904.5,79.8 L 848.7,78.8" style="fill:none;fill-rule:evenodd;stroke:#000000;stroke-width:2.0px;stroke-linecap:butt;stroke-linejoin:miter;stroke-opacity:1"/>
<path class="bond-19 atom-19 atom-20" d="M 848.7,78.8 L 819.9,126.7" style="fill:none;fill-rule:evenodd;stroke:#000000;stroke-width:2.0px;stroke-linecap:butt;stroke-linejoin:miter;stroke-opacity:1"/>
<path class="bond-19 atom-19 atom-20" d="M 853.9,91.8 L 833.8,125.3" style="fill:none;fill-rule:evenodd;stroke:#000000;stroke-width:2.0px;stroke-linecap:butt;stroke-linejoin:miter;stroke-opacity:1"/>
<path class="bond-20 atom-20 atom-21" d="M 819.9,126.7 L 847.0,175.5" style="fill:none;fill-rule:evenodd;stroke:#000000;stroke-width:2.0px;stroke-linecap:butt;stroke-linejoin:miter;stroke-opacity:1"/>
<path class="bond-21 atom-21 atom-22" d="M 847.0,175.5 L 902.8,176.5" style="fill:none;fill-rule:evenodd;stroke:#000000;stroke-width:2.0px;stroke-linecap:butt;stroke-linejoin:miter;stroke-opacity:1"/>
<path class="bond-21 atom-21 atom-22" d="M 855.5,164.5 L 894.6,165.2" style="fill:none;fill-rule:evenodd;stroke:#000000;stroke-width:2.0px;stroke-linecap:butt;stroke-linejoin:miter;stroke-opacity:1"/>
<path class="bond-22 atom-16 atom-11" d="M 1099.0,131.7 L 1070.2,179.5" style="fill:none;fill-rule:evenodd;stroke:#000000;stroke-width:2.0px;stroke-linecap:butt;stroke-linejoin:miter;stroke-opacity:1"/>
<path class="bond-23 atom-22 atom-17" d="M 902.8,176.5 L 931.5,128.7" style="fill:none;fill-rule:evenodd;stroke:#000000;stroke-width:2.0px;stroke-linecap:butt;stroke-linejoin:miter;stroke-opacity:1"/>
<path class="atom-3" d="M 978.4 226.4 Q 978.4 222.6, 980.2 220.5 Q 982.1 218.4, 985.6 218.4 Q 989.1 218.4, 991.0 220.5 Q 992.9 222.6, 992.9 226.4 Q 992.9 230.2, 991.0 232.4 Q 989.1 234.6, 985.6 234.6 Q 982.1 234.6, 980.2 232.4 Q 978.4 230.3, 978.4 226.4 M 985.6 232.8 Q 988.0 232.8, 989.3 231.2 Q 990.6 229.6, 990.6 226.4 Q 990.6 223.3, 989.3 221.7 Q 988.0 220.1, 985.6 220.1 Q 983.2 220.1, 981.9 221.7 Q 980.6 223.3, 980.6 226.4 Q 980.6 229.6, 981.9 231.2 Q 983.2 232.8, 985.6 232.8 " fill="#FF0000"/>
<path class="atom-4" d="M 923.8 230.8 Q 924.0 230.9, 924.7 231.2 Q 925.4 231.5, 926.2 231.7 Q 927.1 231.9, 927.9 231.9 Q 929.4 231.9, 930.2 231.2 Q 931.1 230.4, 931.1 229.1 Q 931.1 228.3, 930.7 227.7 Q 930.2 227.2, 929.6 226.9 Q 928.9 226.6, 927.8 226.3 Q 926.4 225.9, 925.5 225.5 Q 924.7 225.1, 924.1 224.2 Q 923.5 223.4, 923.5 221.9 Q 923.5 219.9, 924.9 218.7 Q 926.2 217.5, 928.9 217.5 Q 930.7 217.5, 932.8 218.4 L 932.3 220.1 Q 930.4 219.3, 929.0 219.3 Q 927.4 219.3, 926.6 219.9 Q 925.7 220.6, 925.8 221.7 Q 925.8 222.5, 926.2 223.0 Q 926.6 223.5, 927.2 223.8 Q 927.9 224.1, 929.0 224.5 Q 930.4 224.9, 931.2 225.3 Q 932.1 225.8, 932.7 226.7 Q 933.3 227.6, 933.3 229.1 Q 933.3 231.3, 931.8 232.5 Q 930.4 233.7, 928.0 233.7 Q 926.6 233.7, 925.5 233.4 Q 924.4 233.1, 923.2 232.6 L 923.8 230.8 " fill="#000000"/>
<path class="atom-4" d="M 934.4 217.4 L 936.4 217.4 L 936.4 219.4 L 934.4 219.4 L 934.4 217.4 M 934.4 221.8 L 936.4 221.8 L 936.4 233.3 L 934.4 233.3 L 934.4 221.8 " fill="#000000"/>
<path class="legend" d="M 967.4 365.4 L 967.6 366.5 Q 968.4 365.3, 969.8 365.3 Q 970.3 365.3, 970.9 365.4 L 970.6 366.8 Q 970.0 366.6, 969.6 366.6 Q 968.9 366.6, 968.5 366.9 Q 968.0 367.1, 967.7 367.8 L 967.7 373.6 L 966.2 373.6 L 966.2 365.4 L 967.4 365.4 " fill="#000000"/>
<path class="legend" d="M 971.1 369.5 Q 971.1 367.5, 972.1 366.4 Q 973.1 365.3, 975.0 365.3 Q 976.8 365.3, 977.6 366.4 Q 978.4 367.4, 978.4 369.5 L 978.4 369.7 L 972.7 369.7 Q 972.7 371.1, 973.3 371.8 Q 973.9 372.6, 975.1 372.6 Q 975.8 372.6, 976.3 372.4 Q 976.9 372.3, 977.7 372.0 L 978.1 373.0 Q 977.3 373.4, 976.5 373.6 Q 975.8 373.8, 975.0 373.8 Q 973.2 373.8, 972.2 372.6 Q 971.1 371.5, 971.1 369.5 M 975.0 366.4 Q 974.0 366.4, 973.5 367.0 Q 972.9 367.5, 972.7 368.6 L 976.8 368.6 Q 976.7 367.5, 976.3 367.0 Q 975.8 366.4, 975.0 366.4 " fill="#000000"/>
<path class="legend" d="M 979.0 371.4 Q 979.0 370.1, 980.1 369.4 Q 981.1 368.7, 983.1 368.7 L 984.3 368.7 L 984.3 368.3 Q 984.3 367.3, 983.8 366.9 Q 983.4 366.4, 982.4 366.4 Q 981.8 366.4, 981.2 366.6 Q 980.7 366.7, 979.9 367.0 L 979.5 366.0 Q 981.0 365.3, 982.4 365.3 Q 984.2 365.3, 985.0 366.0 Q 985.8 366.8, 985.8 368.4 L 985.8 373.6 L 984.6 373.6 Q 984.6 373.6, 984.6 373.3 Q 984.5 373.1, 984.4 372.7 Q 983.3 373.8, 981.7 373.8 Q 980.5 373.8, 979.8 373.2 Q 979.0 372.5, 979.0 371.4 M 980.5 371.4 Q 980.5 372.0, 980.9 372.3 Q 981.3 372.6, 982.0 372.6 Q 982.6 372.6, 983.3 372.4 Q 983.9 372.0, 984.3 371.5 L 984.3 369.8 L 983.2 369.8 Q 981.8 369.8, 981.2 370.2 Q 980.5 370.6, 980.5 371.4 " fill="#000000"/>
<path class="legend" d="M 987.0 369.5 Q 987.0 367.5, 988.0 366.4 Q 989.0 365.3, 991.0 365.3 Q 992.8 365.3, 993.8 366.6 L 992.8 367.4 Q 992.4 366.9, 992.0 366.7 Q 991.5 366.4, 991.0 366.4 Q 989.8 366.4, 989.2 367.2 Q 988.6 368.0, 988.6 369.5 Q 988.6 371.0, 989.2 371.8 Q 989.8 372.6, 991.0 372.6 Q 991.7 372.6, 992.2 372.4 Q 992.6 372.3, 993.2 372.0 L 993.6 373.0 Q 992.5 373.7, 990.9 373.7 Q 989.0 373.7, 988.0 372.6 Q 987.0 371.5, 987.0 369.5 " fill="#000000"/>
<path class="legend" d="M 994.2 366.6 L 994.2 365.4 L 995.8 365.4 L 996.0 363.0 L 997.1 363.0 L 997.1 365.4 L 999.6 365.4 L 999.6 366.6 L 997.1 366.6 L 997.1 371.1 Q 997.1 372.5, 998.3 372.5 Q 998.8 372.5, 999.5 372.3 L 999.8 373.4 Q 998.9 373.7, 998.1 373.7 Q 997.0 373.7, 996.3 373.1 Q 995.6 372.4, 995.6 371.2 L 995.6 366.6 L 994.2 366.6 " fill="#000000"/>
<path class="legend" d="M 1008.3 374.4 L 1008.3 375.7 L 1000.2 375.7 L 1000.2 374.4 L 1008.3 374.4 " fill="#000000"/>
<path class="legend" d="M 1013.8 367.7 Q 1014.9 368.0, 1015.4 368.7 Q 1015.9 369.4, 1015.9 370.5 Q 1015.9 371.5, 1015.5 372.2 Q 1015.0 373.0, 1014.1 373.4 Q 1013.2 373.8, 1012.1 373.8 Q 1010.9 373.8, 1009.9 373.4 Q 1009.0 372.9, 1008.3 372.1 L 1009.2 371.2 Q 1009.9 371.9, 1010.5 372.2 Q 1011.1 372.5, 1012.1 372.5 Q 1013.1 372.5, 1013.7 372.0 Q 1014.3 371.4, 1014.3 370.5 Q 1014.3 369.4, 1013.7 368.8 Q 1013.0 368.3, 1011.7 368.3 L 1010.8 368.3 L 1010.8 367.2 L 1011.6 367.2 Q 1012.8 367.2, 1013.4 366.6 Q 1014.1 366.1, 1014.1 365.1 Q 1014.1 364.3, 1013.6 363.9 Q 1013.0 363.5, 1012.1 363.5 Q 1011.1 363.5, 1010.6 363.8 Q 1010.0 364.1, 1009.5 365.0 L 1008.4 364.4 Q 1008.8 363.4, 1009.8 362.8 Q 1010.7 362.2, 1012.1 362.2 Q 1013.8 362.2, 1014.7 363.0 Q 1015.7 363.7, 1015.7 365.1 Q 1015.7 366.0, 1015.2 366.6 Q 1014.7 367.3, 1013.8 367.7 " fill="#000000"/>
<path class="legend" d="M 1021.0 373.8 Q 1019.0 373.8, 1017.9 372.2 Q 1016.9 370.7, 1016.9 368.0 Q 1016.9 365.2, 1017.9 363.7 Q 1018.9 362.2, 1021.0 362.2 Q 1023.1 362.2, 1024.2 363.7 Q 1025.2 365.2, 1025.2 368.0 Q 1025.2 370.7, 1024.1 372.2 Q 1023.1 373.8, 1021.0 373.8 M 1021.0 372.5 Q 1022.3 372.5, 1022.9 371.3 Q 1023.6 370.2, 1023.6 368.0 Q 1023.6 365.7, 1022.9 364.6 Q 1022.3 363.5, 1021.0 363.5 Q 1019.8 363.5, 1019.1 364.6 Q 1018.5 365.7, 1018.5 368.0 Q 1018.5 370.2, 1019.1 371.3 Q 1019.8 372.5, 1021.0 372.5 " fill="#000000"/>
<path class="legend" d="M 1031.7 367.7 Q 1032.8 368.0, 1033.3 368.7 Q 1033.8 369.4, 1033.8 370.5 Q 1033.8 371.5, 1033.4 372.2 Q 1032.9 373.0, 1032.0 373.4 Q 1031.1 373.8, 1030.0 373.8 Q 1028.7 373.8, 1027.8 373.4 Q 1026.9 372.9, 1026.2 372.1 L 1027.1 371.2 Q 1027.8 371.9, 1028.4 372.2 Q 1029.0 372.5, 1030.0 372.5 Q 1031.0 372.5, 1031.6 372.0 Q 1032.2 371.4, 1032.2 370.5 Q 1032.2 369.4, 1031.6 368.8 Q 1030.9 368.3, 1029.5 368.3 L 1028.7 368.3 L 1028.7 367.2 L 1029.4 367.2 Q 1030.7 367.2, 1031.3 366.6 Q 1032.0 366.1, 1032.0 365.1 Q 1032.0 364.3, 1031.4 363.9 Q 1030.9 363.5, 1030.0 363.5 Q 1029.0 363.5, 1028.4 363.8 Q 1027.9 364.1, 1027.4 365.0 L 1026.3 364.4 Q 1026.7 363.4, 1027.7 362.8 Q 1028.6 362.2, 1030.0 362.2 Q 1031.6 362.2, 1032.6 363.0 Q 1033.6 363.7, 1033.6 365.1 Q 1033.6 366.0, 1033.1 366.6 Q 1032.6 367.3, 1031.7 367.7 " fill="#000000"/>
<path class="legend" d="M 937.4 383.8 Q 937.4 381.8, 938.4 380.7 Q 939.4 379.5, 941.3 379.5 Q 943.2 379.5, 944.2 380.9 L 943.2 381.6 Q 942.8 381.2, 942.3 380.9 Q 941.9 380.7, 941.3 380.7 Q 940.2 380.7, 939.6 381.5 Q 938.9 382.3, 938.9 383.8 Q 938.9 385.3, 939.6 386.1 Q 940.2 386.8, 941.4 386.8 Q 942.1 386.8, 942.6 386.7 Q 943.0 386.5, 943.6 386.3 L 944.0 387.3 Q 942.8 388.0, 941.3 388.0 Q 939.4 388.0, 938.4 386.9 Q 937.4 385.7, 937.4 383.8 " fill="#000000"/>
<path class="legend" d="M 944.6 383.8 Q 944.6 381.7, 945.6 380.6 Q 946.6 379.5, 948.4 379.5 Q 950.2 379.5, 951.0 380.6 Q 951.8 381.7, 951.8 383.7 L 951.8 384.0 L 946.1 384.0 Q 946.1 385.4, 946.8 386.1 Q 947.4 386.8, 948.5 386.8 Q 949.2 386.8, 949.8 386.7 Q 950.4 386.5, 951.1 386.2 L 951.5 387.2 Q 950.7 387.6, 950.0 387.8 Q 949.2 388.0, 948.5 388.0 Q 946.6 388.0, 945.6 386.9 Q 944.6 385.8, 944.6 383.8 M 948.4 380.7 Q 947.5 380.7, 946.9 381.2 Q 946.3 381.8, 946.2 382.8 L 950.3 382.8 Q 950.1 381.7, 949.7 381.2 Q 949.3 380.7, 948.4 380.7 " fill="#000000"/>
<path class="legend" d="M 956.7 379.5 Q 958.1 379.5, 958.7 380.3 Q 959.4 381.0, 959.4 382.4 L 959.4 387.9 L 957.9 387.9 L 957.9 382.6 Q 957.9 381.6, 957.6 381.2 Q 957.2 380.7, 956.4 380.7 Q 955.6 380.7, 955.0 381.1 Q 954.4 381.4, 954.0 382.0 L 954.0 387.9 L 952.5 387.9 L 952.5 379.7 L 953.7 379.7 L 953.9 380.8 Q 955.0 379.5, 956.7 379.5 " fill="#000000"/>
<path class="legend" d="M 960.7 380.8 L 960.7 379.7 L 962.2 379.7 L 962.5 377.3 L 963.6 377.3 L 963.6 379.7 L 966.1 379.7 L 966.1 380.8 L 963.6 380.8 L 963.6 385.4 Q 963.6 386.8, 964.8 386.8 Q 965.3 386.8, 966.0 386.6 L 966.3 387.6 Q 965.4 388.0, 964.5 388.0 Q 963.5 388.0, 962.8 387.3 Q 962.1 386.7, 962.1 385.4 L 962.1 380.8 L 960.7 380.8 " fill="#000000"/>
<path class="legend" d="M 974.8 388.7 L 974.8 390.0 L 966.7 390.0 L 966.7 388.7 L 974.8 388.7 " fill="#000000"/>
<path class="legend" d="M 982.3 375.7 L 982.3 387.9 L 981.1 387.9 L 980.9 386.9 Q 980.0 388.0, 978.4 388.0 Q 976.7 388.0, 975.8 387.0 Q 974.8 385.9, 974.8 383.9 Q 974.8 381.8, 975.9 380.7 Q 977.1 379.5, 979.0 379.5 Q 979.9 379.5, 980.8 379.7 L 980.8 375.7 L 982.3 375.7 M 978.5 386.8 Q 979.4 386.8, 980.0 386.4 Q 980.6 385.9, 980.8 385.1 L 980.8 380.9 Q 980.0 380.7, 979.1 380.7 Q 977.8 380.7, 977.1 381.6 Q 976.4 382.4, 976.4 383.9 Q 976.4 385.3, 976.9 386.1 Q 977.5 386.8, 978.5 386.8 " fill="#000000"/>
<path class="legend" d="M 983.6 376.6 L 985.0 376.6 L 985.0 378.0 L 983.6 378.0 L 983.6 376.6 M 983.6 379.7 L 985.0 379.7 L 985.0 387.9 L 983.6 387.9 L 983.6 379.7 " fill="#000000"/>
<path class="legend" d="M 986.9 386.2 Q 987.6 386.5, 988.1 386.6 Q 988.6 386.8, 989.2 386.8 Q 989.9 386.8, 990.3 386.5 Q 990.7 386.2, 990.7 385.6 Q 990.7 385.2, 990.5 385.0 Q 990.3 384.8, 990.0 384.6 Q 989.8 384.5, 989.1 384.3 Q 988.9 384.3, 988.2 384.0 Q 987.5 383.7, 987.1 383.2 Q 986.7 382.7, 986.7 381.9 Q 986.7 380.9, 987.5 380.2 Q 988.2 379.5, 989.7 379.5 Q 990.3 379.5, 990.9 379.7 Q 991.4 379.8, 992.1 380.0 L 991.7 381.2 Q 991.1 381.0, 990.7 380.9 Q 990.2 380.8, 989.7 380.8 Q 989.0 380.8, 988.6 381.1 Q 988.2 381.4, 988.2 381.8 Q 988.2 382.3, 988.5 382.5 Q 988.8 382.7, 989.5 383.0 Q 989.7 383.0, 989.8 383.1 L 990.2 383.2 Q 990.9 383.4, 991.3 383.7 Q 991.7 383.9, 992.0 384.4 Q 992.2 384.8, 992.2 385.6 Q 992.2 386.7, 991.4 387.4 Q 990.6 388.0, 989.2 388.0 Q 988.4 388.0, 987.8 387.9 Q 987.1 387.7, 986.4 387.4 L 986.9 386.2 " fill="#000000"/>
<path class="legend" d="M 993.1 380.8 L 993.1 379.7 L 994.7 379.7 L 994.9 377.3 L 996.0 377.3 L 996.0 379.7 L 998.5 379.7 L 998.5 380.8 L 996.0 380.8 L 996.0 385.4 Q 996.0 386.8, 997.2 386.8 Q 997.7 386.8, 998.4 386.6 L 998.7 387.6 Q 997.8 388.0, 997.0 388.0 Q 995.9 388.0, 995.2 387.3 Q 994.5 386.7, 994.5 385.4 L 994.5 380.8 L 993.1 380.8 " fill="#000000"/>
<path class="legend" d="" fill="#000000"/>
<path class="legend" d="M 1004.4 380.9 L 1011.7 380.9 L 1011.7 382.1 L 1004.4 382.1 L 1004.4 380.9 M 1004.4 384.4 L 1011.7 384.4 L 1011.7 385.5 L 1004.4 385.5 L 1004.4 384.4 " fill="#000000"/>
<path class="legend" d="" fill="#000000"/>
<path class="legend" d="M 1019.1 386.6 L 1021.6 386.6 L 1021.6 378.1 L 1018.9 379.0 L 1018.5 378.0 L 1022.0 376.5 L 1023.1 376.7 L 1023.1 386.6 L 1025.4 386.6 L 1025.4 387.9 L 1019.1 387.9 L 1019.1 386.6 " fill="#000000"/>
<path class="legend" d="M 1026.0 386.3 L 1027.6 386.3 L 1027.6 387.9 L 1026.0 387.9 L 1026.0 386.3 " fill="#000000"/>
<path class="legend" d="M 1028.7 378.7 Q 1029.1 377.6, 1030.1 377.0 Q 1031.1 376.4, 1032.5 376.4 Q 1034.2 376.4, 1035.1 377.4 Q 1036.1 378.3, 1036.1 379.9 Q 1036.1 381.6, 1034.9 383.2 Q 1033.6 384.8, 1031.1 386.6 L 1036.3 386.6 L 1036.3 387.9 L 1028.7 387.9 L 1028.7 386.8 Q 1030.8 385.3, 1032.0 384.2 Q 1033.3 383.1, 1033.9 382.1 Q 1034.5 381.1, 1034.5 380.0 Q 1034.5 378.9, 1034.0 378.3 Q 1033.4 377.7, 1032.5 377.7 Q 1031.6 377.7, 1031.0 378.1 Q 1030.3 378.4, 1029.9 379.3 L 1028.7 378.7 " fill="#000000"/>
<path class="legend" d="M 1044.6 384.0 L 1046.0 384.0 L 1046.0 385.3 L 1044.6 385.3 L 1044.6 387.9 L 1043.1 387.9 L 1043.1 385.3 L 1037.3 385.3 L 1037.3 384.3 L 1042.2 376.6 L 1044.6 376.6 L 1044.6 384.0 M 1039.1 384.0 L 1043.1 384.0 L 1043.1 377.6 L 1039.1 384.0 " fill="#000000"/>
<path class="legend" d="M 1052.5 381.9 Q 1053.6 382.3, 1054.2 383.0 Q 1054.8 383.7, 1054.8 384.8 Q 1054.8 385.7, 1054.3 386.5 Q 1053.8 387.2, 1052.9 387.6 Q 1052.0 388.0, 1050.8 388.0 Q 1048.9 388.0, 1047.9 387.2 Q 1046.8 386.3, 1046.8 384.8 Q 1046.8 383.9, 1047.2 383.2 Q 1047.7 382.5, 1048.7 381.9 Q 1048.0 381.5, 1047.6 380.9 Q 1047.2 380.3, 1047.2 379.3 Q 1047.2 378.0, 1048.1 377.2 Q 1049.1 376.4, 1050.8 376.4 Q 1052.4 376.4, 1053.4 377.2 Q 1054.3 378.0, 1054.3 379.3 Q 1054.3 380.2, 1053.9 380.8 Q 1053.4 381.4, 1052.5 381.9 M 1050.8 377.6 Q 1049.8 377.6, 1049.3 378.1 Q 1048.8 378.5, 1048.8 379.3 Q 1048.8 379.9, 1049.1 380.3 Q 1049.5 380.7, 1050.0 380.9 Q 1050.5 381.2, 1051.5 381.5 Q 1052.2 381.0, 1052.4 380.5 Q 1052.7 380.0, 1052.7 379.3 Q 1052.7 378.5, 1052.2 378.1 Q 1051.7 377.6, 1050.8 377.6 M 1050.8 386.8 Q 1051.9 386.8, 1052.5 386.3 Q 1053.2 385.7, 1053.2 384.8 Q 1053.2 384.2, 1052.8 383.8 Q 1052.5 383.4, 1052.0 383.2 Q 1051.5 382.9, 1050.6 382.7 L 1049.9 382.4 Q 1049.1 382.9, 1048.7 383.5 Q 1048.4 384.0, 1048.4 384.8 Q 1048.4 385.7, 1049.0 386.3 Q 1049.7 386.8, 1050.8 386.8 " fill="#000000"/>
<path class="legend" d="M 1056.4 386.6 L 1058.9 386.6 L 1058.9 378.1 L 1056.1 379.0 L 1055.8 378.0 L 1059.2 376.5 L 1060.4 376.7 L 1060.4 386.6 L 1062.6 386.6 L 1062.6 387.9 L 1056.4 387.9 L 1056.4 386.6 " fill="#000000"/>
<path class="bond-0 atom-0 atom-1" d="M 1351.2,117.2 L 1405.1,131.5" style="fill:none;fill-rule:evenodd;stroke:#000000;stroke-width:2.0px;stroke-linecap:butt;stroke-linejoin:miter;stroke-opacity:1"/>
<path class="bond-1 atom-1 atom-2" d="M 1405.1,131.5 L 1419.7,185.4" style="fill:none;fill-rule:evenodd;stroke:#000000;stroke-width:2.0px;stroke-linecap:butt;stroke-linejoin:miter;stroke-opacity:1"/>
<path class="bond-1 atom-1 atom-2" d="M 1418.1,136.7 L 1428.3,174.4" style="fill:none;fill-rule:evenodd;stroke:#000000;stroke-width:2.0px;stroke-linecap:butt;stroke-linejoin:miter;stroke-opacity:1"/>
<path class="bond-2 atom-2 atom-3" d="M 1419.7,185.4 L 1404.5,200.6" style="fill:none;fill-rule:evenodd;stroke:#000000;stroke-width:2.0px;stroke-linecap:butt;stroke-linejoin:miter;stroke-opacity:1"/>
<path class="bond-2 atom-2 atom-3" d="M 1404.5,200.6 L 1389.4,215.8" style="fill:none;fill-rule:evenodd;stroke:#FF0000;stroke-width:2.0px;stroke-linecap:butt;stroke-linejoin:miter;stroke-opacity:1"/>
<path class="bond-3 atom-3 atom-4" d="M 1371.2,222.6 L 1353.0,217.7" style="fill:none;fill-rule:evenodd;stroke:#FF0000;stroke-width:2.0px;stroke-linecap:butt;stroke-linejoin:miter;stroke-opacity:1"/>
<path class="bond-3 atom-3 atom-4" d="M 1353.0,217.7 L 1334.8,212.9" style="fill:none;fill-rule:evenodd;stroke:#000000;stroke-width:2.0px;stroke-linecap:butt;stroke-linejoin:miter;stroke-opacity:1"/>
<path class="bond-4 atom-4 atom-5" d="M 1323.7,220.8 L 1312.0,264.6" style="fill:none;fill-rule:evenodd;stroke:#000000;stroke-width:2.0px;stroke-linecap:butt;stroke-linejoin:miter;stroke-opacity:1"/>
<path class="bond-5 atom-4 atom-6" d="M 1328.9,200.9 L 1340.7,156.7" style="fill:none;fill-rule:evenodd;stroke:#000000;stroke-width:2.0px;stroke-linecap:butt;stroke-linejoin:miter;stroke-opacity:1"/>
<path class="bond-6 atom-4 atom-7" d="M 1317.9,208.4 L 1272.4,196.3" style="fill:none;fill-rule:evenodd;stroke:#000000;stroke-width:2.0px;stroke-linecap:butt;stroke-linejoin:miter;stroke-opacity:1"/>
<path class="bond-7 atom-7 atom-8" d="M 1272.4,196.3 L 1286.8,142.3" style="fill:none;fill-rule:evenodd;stroke:#000000;stroke-width:2.0px;stroke-linecap:butt;stroke-linejoin:miter;stroke-opacity:1"/>
<path class="bond-8 atom-7 atom-9" d="M 1272.4,196.3 L 1258.1,250.2" style="fill:none;fill-rule:evenodd;stroke:#000000;stroke-width:2.0px;stroke-linecap:butt;stroke-linejoin:miter;stroke-opacity:1"/>
<path class="bond-9 atom-7 atom-10" d="M 1272.4,196.3 L 1218.5,182.0" style="fill:none;fill-rule:evenodd;stroke:#000000;stroke-width:2.0px;stroke-linecap:butt;stroke-linejoin:miter;stroke-opacity:1"/>
<path class="bond-10 atom-2 atom-11" d="M 1419.7,185.4 L 1473.6,199.8" style="fill:none;fill-rule:evenodd;stroke:#000000;stroke-width:2.0px;stroke-linecap:butt;stroke-linejoin:miter;stroke-opacity:1"/>
<path class="bond-11 atom-11 atom-12" d="M 1473.6,199.8 L 1488.2,253.7" style="fill:none;fill-rule:evenodd;stroke:#000000;stroke-width:2.0px;stroke-linecap:butt;stroke-linejoin:miter;stroke-opacity:1"/>
<path class="bond-11 atom-11 atom-12" d="M 1486.6,204.9 L 1496.8,242.7" style="fill:none;fill-rule:evenodd;stroke:#000000;stroke-width:2.0px;stroke-linecap:butt;stroke-linejoin:miter;stroke-opacity:1"/>
<path class="bond-12 atom-12 atom-13" d="M 1488.2,253.7 L 1542.1,268.0" style="fill:none;fill-rule:evenodd;stroke:#000000;stroke-width:2.0px;stroke-linecap:butt;stroke-linejoin:miter;stroke-opacity:1"/>
<path class="bond-13 atom-13 atom-14" d="M 1542.1,268.0 L 1581.5,228.5" style="fill:none;fill-rule:evenodd;stroke:#000000;stroke-width:2.0px;stroke-linecap:butt;stroke-linejoin:miter;stroke-opacity:1"/>
<path class="bond-13 atom-13 atom-14" d="M 1540.1,254.2 L 1567.7,226.5" style="fill:none;fill-rule:evenodd;stroke:#000000;stroke-width:2.0px;stroke-linecap:butt;stroke-linejoin:miter;stroke-opacity:1"/>
<path class="bond-14 atom-14 atom-15" d="M 1581.5,228.5 L 1567.0,174.6" style="fill:none;fill-rule:evenodd;stroke:#000000;stroke-width:2.0px;stroke-linecap:butt;stroke-linejoin:miter;stroke-opacity:1"/>
<path class="bond-15 atom-15 atom-16" d="M 1567.0,174.6 L 1513.0,160.2" style="fill:none;fill-rule:evenodd;stroke:#000000;stroke-width:2.0px;stroke-linecap:butt;stroke-linejoin:miter;stroke-opacity:1"/>
<path class="bond-15 atom-15 atom-16" d="M 1556.0,183.2 L 1518.3,173.2" style="fill:none;fill-rule:evenodd;stroke:#000000;stroke-width:2.0px;stroke-linecap:butt;stroke-linejoin:miter;stroke-opacity:1"/>
<path class="bond-16 atom-16 atom-17" d="M 1513.0,160.2 L 1498.5,106.3" style="fill:none;fill-rule:evenodd;stroke:#000000;stroke-width:2.0px;stroke-linecap:butt;stroke-linejoin:miter;stroke-opacity:1"/>
<path class="bond-17 atom-17 atom-18" d="M 1498.5,106.3 L 1444.5,92.0" style="fill:none;fill-rule:evenodd;stroke:#000000;stroke-width:2.0px;stroke-linecap:butt;stroke-linejoin:miter;stroke-opacity:1"/>
<path class="bond-18 atom-18 atom-1" d="M 1444.5,92.0 L 1405.1,131.5" style="fill:none;fill-rule:evenodd;stroke:#000000;stroke-width:2.0px;stroke-linecap:butt;stroke-linejoin:miter;stroke-opacity:1"/>
<path class="bond-19 atom-16 atom-11" d="M 1513.0,160.2 L 1473.6,199.8" style="fill:none;fill-rule:evenodd;stroke:#000000;stroke-width:2.0px;stroke-linecap:butt;stroke-linejoin:miter;stroke-opacity:1"/>
<path class="atom-3" d="M 1373.0 225.0 Q 1373.0 221.2, 1374.9 219.1 Q 1376.8 217.0, 1380.3 217.0 Q 1383.8 217.0, 1385.7 219.1 Q 1387.6 221.2, 1387.6 225.0 Q 1387.6 228.9, 1385.7 231.1 Q 1383.8 233.2, 1380.3 233.2 Q 1376.8 233.2, 1374.9 231.1 Q 1373.0 228.9, 1373.0 225.0 M 1380.3 231.4 Q 1382.7 231.4, 1384.0 229.8 Q 1385.3 228.2, 1385.3 225.0 Q 1385.3 221.9, 1384.0 220.4 Q 1382.7 218.8, 1380.3 218.8 Q 1377.9 218.8, 1376.6 220.3 Q 1375.3 221.9, 1375.3 225.0 Q 1375.3 228.2, 1376.6 229.8 Q 1377.9 231.4, 1380.3 231.4 " fill="#FF0000"/>
<path class="atom-4" d="M 1320.3 216.1 Q 1320.5 216.2, 1321.3 216.5 Q 1322.0 216.8, 1322.8 217.0 Q 1323.6 217.2, 1324.4 217.2 Q 1325.9 217.2, 1326.8 216.4 Q 1327.7 215.7, 1327.7 214.4 Q 1327.7 213.6, 1327.2 213.0 Q 1326.8 212.5, 1326.1 212.2 Q 1325.5 211.9, 1324.3 211.6 Q 1322.9 211.2, 1322.1 210.7 Q 1321.3 210.3, 1320.7 209.5 Q 1320.1 208.6, 1320.1 207.2 Q 1320.1 205.2, 1321.4 204.0 Q 1322.8 202.8, 1325.5 202.8 Q 1327.3 202.8, 1329.4 203.6 L 1328.8 205.4 Q 1326.9 204.6, 1325.5 204.6 Q 1324.0 204.6, 1323.1 205.2 Q 1322.3 205.9, 1322.3 207.0 Q 1322.3 207.8, 1322.7 208.3 Q 1323.2 208.8, 1323.8 209.1 Q 1324.4 209.4, 1325.5 209.7 Q 1326.9 210.2, 1327.8 210.6 Q 1328.6 211.1, 1329.2 212.0 Q 1329.9 212.9, 1329.9 214.4 Q 1329.9 216.6, 1328.4 217.8 Q 1326.9 219.0, 1324.5 219.0 Q 1323.1 219.0, 1322.0 218.7 Q 1321.0 218.4, 1319.7 217.8 L 1320.3 216.1 " fill="#000000"/>
<path class="atom-4" d="M 1330.9 202.7 L 1333.0 202.7 L 1333.0 204.7 L 1330.9 204.7 L 1330.9 202.7 M 1330.9 207.1 L 1333.0 207.1 L 1333.0 218.5 L 1330.9 218.5 L 1330.9 207.1 " fill="#000000"/>
<path class="legend" d="M 1367.4 365.4 L 1367.6 366.5 Q 1368.5 365.3, 1369.9 365.3 Q 1370.3 365.3, 1370.9 365.4 L 1370.7 366.8 Q 1370.0 366.6, 1369.6 366.6 Q 1369.0 366.6, 1368.5 366.9 Q 1368.1 367.1, 1367.7 367.8 L 1367.7 373.6 L 1366.2 373.6 L 1366.2 365.4 L 1367.4 365.4 " fill="#000000"/>
<path class="legend" d="M 1371.2 369.5 Q 1371.2 367.5, 1372.2 366.4 Q 1373.2 365.3, 1375.0 365.3 Q 1376.8 365.3, 1377.6 366.4 Q 1378.5 367.4, 1378.5 369.5 L 1378.5 369.7 L 1372.7 369.7 Q 1372.8 371.1, 1373.4 371.8 Q 1374.0 372.6, 1375.2 372.6 Q 1375.8 372.6, 1376.4 372.4 Q 1377.0 372.3, 1377.7 372.0 L 1378.1 373.0 Q 1377.3 373.4, 1376.6 373.6 Q 1375.9 373.8, 1375.1 373.8 Q 1373.2 373.8, 1372.2 372.6 Q 1371.2 371.5, 1371.2 369.5 M 1375.0 366.4 Q 1374.1 366.4, 1373.5 367.0 Q 1373.0 367.5, 1372.8 368.6 L 1376.9 368.6 Q 1376.8 367.5, 1376.3 367.0 Q 1375.9 366.4, 1375.0 366.4 " fill="#000000"/>
<path class="legend" d="M 1379.1 371.4 Q 1379.1 370.1, 1380.1 369.4 Q 1381.2 368.7, 1383.1 368.7 L 1384.3 368.7 L 1384.3 368.3 Q 1384.3 367.3, 1383.9 366.9 Q 1383.5 366.4, 1382.5 366.4 Q 1381.8 366.4, 1381.3 366.6 Q 1380.8 366.7, 1380.0 367.0 L 1379.5 366.0 Q 1381.0 365.3, 1382.5 365.3 Q 1384.2 365.3, 1385.0 366.0 Q 1385.8 366.8, 1385.8 368.4 L 1385.8 373.6 L 1384.7 373.6 Q 1384.7 373.6, 1384.6 373.3 Q 1384.6 373.1, 1384.5 372.7 Q 1383.3 373.8, 1381.8 373.8 Q 1380.5 373.8, 1379.8 373.2 Q 1379.1 372.5, 1379.1 371.4 M 1380.6 371.4 Q 1380.6 372.0, 1381.0 372.3 Q 1381.3 372.6, 1382.1 372.6 Q 1382.7 372.6, 1383.3 372.4 Q 1383.9 372.0, 1384.3 371.5 L 1384.3 369.8 L 1383.2 369.8 Q 1381.9 369.8, 1381.2 370.2 Q 1380.6 370.6, 1380.6 371.4 " fill="#000000"/>
<path class="legend" d="M 1387.1 369.5 Q 1387.1 367.5, 1388.1 366.4 Q 1389.1 365.3, 1391.0 365.3 Q 1392.9 365.3, 1393.9 366.6 L 1392.8 367.4 Q 1392.5 366.9, 1392.0 366.7 Q 1391.6 366.4, 1391.0 366.4 Q 1389.9 366.4, 1389.2 367.2 Q 1388.6 368.0, 1388.6 369.5 Q 1388.6 371.0, 1389.2 371.8 Q 1389.9 372.6, 1391.1 372.6 Q 1391.8 372.6, 1392.2 372.4 Q 1392.7 372.3, 1393.3 372.0 L 1393.7 373.0 Q 1392.5 373.7, 1391.0 373.7 Q 1389.1 373.7, 1388.1 372.6 Q 1387.1 371.5, 1387.1 369.5 " fill="#000000"/>
<path class="legend" d="M 1394.2 366.6 L 1394.2 365.4 L 1395.8 365.4 L 1396.1 363.0 L 1397.2 363.0 L 1397.2 365.4 L 1399.7 365.4 L 1399.7 366.6 L 1397.2 366.6 L 1397.2 371.1 Q 1397.2 372.5, 1398.4 372.5 Q 1398.9 372.5, 1399.6 372.3 L 1399.8 373.4 Q 1398.9 373.7, 1398.1 373.7 Q 1397.0 373.7, 1396.4 373.1 Q 1395.7 372.4, 1395.7 371.2 L 1395.7 366.6 L 1394.2 366.6 " fill="#000000"/>
<path class="legend" d="M 1408.4 374.4 L 1408.4 375.7 L 1400.2 375.7 L 1400.2 374.4 L 1408.4 374.4 " fill="#000000"/>
<path class="legend" d="M 1408.4 364.4 Q 1408.8 363.4, 1409.8 362.8 Q 1410.8 362.2, 1412.2 362.2 Q 1413.9 362.2, 1414.9 363.1 Q 1415.8 364.0, 1415.8 365.7 Q 1415.8 367.4, 1414.6 368.9 Q 1413.3 370.5, 1410.8 372.4 L 1416.0 372.4 L 1416.0 373.6 L 1408.4 373.6 L 1408.4 372.6 Q 1410.5 371.1, 1411.7 369.9 Q 1413.0 368.8, 1413.6 367.8 Q 1414.2 366.8, 1414.2 365.8 Q 1414.2 364.7, 1413.7 364.1 Q 1413.1 363.5, 1412.2 363.5 Q 1411.3 363.5, 1410.7 363.8 Q 1410.1 364.2, 1409.6 365.0 L 1408.4 364.4 " fill="#000000"/>
<path class="legend" d="M 1420.8 362.2 Q 1422.8 362.2, 1423.8 363.6 Q 1424.8 364.9, 1424.8 367.6 Q 1424.8 370.6, 1423.6 372.2 Q 1422.3 373.8, 1419.9 373.8 Q 1419.2 373.8, 1418.6 373.6 Q 1418.0 373.4, 1417.4 373.1 L 1418.0 372.0 Q 1418.9 372.5, 1419.9 372.5 Q 1421.5 372.5, 1422.3 371.5 Q 1423.1 370.4, 1423.2 368.3 Q 1422.6 368.8, 1421.9 369.1 Q 1421.2 369.4, 1420.4 369.4 Q 1419.4 369.4, 1418.6 368.9 Q 1417.8 368.5, 1417.4 367.7 Q 1417.0 366.9, 1417.0 366.0 Q 1417.0 364.8, 1417.5 364.0 Q 1418.0 363.1, 1418.8 362.7 Q 1419.7 362.2, 1420.8 362.2 M 1418.6 365.9 Q 1418.6 366.9, 1419.1 367.5 Q 1419.7 368.1, 1420.7 368.1 Q 1421.4 368.1, 1422.0 367.8 Q 1422.7 367.5, 1423.2 367.1 Q 1423.2 365.2, 1422.6 364.3 Q 1422.0 363.5, 1420.8 363.5 Q 1420.2 363.5, 1419.6 363.8 Q 1419.2 364.1, 1418.9 364.7 Q 1418.6 365.2, 1418.6 365.9 " fill="#000000"/>
<path class="legend" d="M 1429.7 362.2 Q 1431.7 362.2, 1432.8 363.6 Q 1433.8 364.9, 1433.8 367.6 Q 1433.8 370.6, 1432.5 372.2 Q 1431.3 373.8, 1428.8 373.8 Q 1428.1 373.8, 1427.5 373.6 Q 1426.9 373.4, 1426.4 373.1 L 1427.0 372.0 Q 1427.8 372.5, 1428.8 372.5 Q 1430.4 372.5, 1431.2 371.5 Q 1432.1 370.4, 1432.2 368.3 Q 1431.6 368.8, 1430.8 369.1 Q 1430.1 369.4, 1429.3 369.4 Q 1428.4 369.4, 1427.6 368.9 Q 1426.8 368.5, 1426.4 367.7 Q 1425.9 366.9, 1425.9 366.0 Q 1425.9 364.8, 1426.4 364.0 Q 1426.9 363.1, 1427.8 362.7 Q 1428.6 362.2, 1429.7 362.2 M 1427.5 365.9 Q 1427.5 366.9, 1428.1 367.5 Q 1428.6 368.1, 1429.6 368.1 Q 1430.3 368.1, 1431.0 367.8 Q 1431.7 367.5, 1432.2 367.1 Q 1432.1 365.2, 1431.5 364.3 Q 1430.9 363.5, 1429.7 363.5 Q 1429.1 363.5, 1428.6 363.8 Q 1428.1 364.1, 1427.8 364.7 Q 1427.5 365.2, 1427.5 365.9 " fill="#000000"/>
<path class="legend" d="M 1337.3 383.8 Q 1337.3 381.8, 1338.3 380.7 Q 1339.3 379.5, 1341.2 379.5 Q 1343.1 379.5, 1344.1 380.9 L 1343.1 381.6 Q 1342.7 381.2, 1342.2 380.9 Q 1341.8 380.7, 1341.2 380.7 Q 1340.1 380.7, 1339.5 381.5 Q 1338.8 382.3, 1338.8 383.8 Q 1338.8 385.3, 1339.5 386.1 Q 1340.1 386.8, 1341.3 386.8 Q 1342.0 386.8, 1342.5 386.7 Q 1342.9 386.5, 1343.5 386.3 L 1343.9 387.3 Q 1342.7 388.0, 1341.2 388.0 Q 1339.3 388.0, 1338.3 386.9 Q 1337.3 385.7, 1337.3 383.8 " fill="#000000"/>
<path class="legend" d="M 1344.5 383.8 Q 1344.5 381.7, 1345.5 380.6 Q 1346.5 379.5, 1348.3 379.5 Q 1350.1 379.5, 1350.9 380.6 Q 1351.7 381.7, 1351.7 383.7 L 1351.7 384.0 L 1346.0 384.0 Q 1346.0 385.4, 1346.7 386.1 Q 1347.3 386.8, 1348.4 386.8 Q 1349.1 386.8, 1349.7 386.7 Q 1350.3 386.5, 1351.0 386.2 L 1351.4 387.2 Q 1350.6 387.6, 1349.9 387.8 Q 1349.1 388.0, 1348.4 388.0 Q 1346.5 388.0, 1345.5 386.9 Q 1344.5 385.8, 1344.5 383.8 M 1348.3 380.7 Q 1347.4 380.7, 1346.8 381.2 Q 1346.2 381.8, 1346.1 382.8 L 1350.2 382.8 Q 1350.0 381.7, 1349.6 381.2 Q 1349.1 380.7, 1348.3 380.7 " fill="#000000"/>
<path class="legend" d="M 1356.6 379.5 Q 1357.9 379.5, 1358.6 380.3 Q 1359.3 381.0, 1359.3 382.4 L 1359.3 387.9 L 1357.8 387.9 L 1357.8 382.6 Q 1357.8 381.6, 1357.5 381.2 Q 1357.1 380.7, 1356.3 380.7 Q 1355.5 380.7, 1354.9 381.1 Q 1354.3 381.4, 1353.9 382.0 L 1353.9 387.9 L 1352.3 387.9 L 1352.3 379.7 L 1353.6 379.7 L 1353.8 380.8 Q 1354.9 379.5, 1356.6 379.5 " fill="#000000"/>
<path class="legend" d="M 1360.6 380.8 L 1360.6 379.7 L 1362.1 379.7 L 1362.4 377.3 L 1363.5 377.3 L 1363.5 379.7 L 1366.0 379.7 L 1366.0 380.8 L 1363.5 380.8 L 1363.5 385.4 Q 1363.5 386.8, 1364.7 386.8 Q 1365.2 386.8, 1365.9 386.6 L 1366.2 387.6 Q 1365.3 388.0, 1364.4 388.0 Q 1363.4 388.0, 1362.7 387.3 Q 1362.0 386.7, 1362.0 385.4 L 1362.0 380.8 L 1360.6 380.8 " fill="#000000"/>
<path class="legend" d="M 1374.7 388.7 L 1374.7 390.0 L 1366.6 390.0 L 1366.6 388.7 L 1374.7 388.7 " fill="#000000"/>
<path class="legend" d="M 1382.2 375.7 L 1382.2 387.9 L 1381.0 387.9 L 1380.8 386.9 Q 1379.9 388.0, 1378.3 388.0 Q 1376.6 388.0, 1375.7 387.0 Q 1374.7 385.9, 1374.7 383.9 Q 1374.7 381.8, 1375.8 380.7 Q 1377.0 379.5, 1378.9 379.5 Q 1379.8 379.5, 1380.7 379.7 L 1380.7 375.7 L 1382.2 375.7 M 1378.4 386.8 Q 1379.3 386.8, 1379.9 386.4 Q 1380.5 385.9, 1380.7 385.1 L 1380.7 380.9 Q 1379.9 380.7, 1379.0 380.7 Q 1377.7 380.7, 1377.0 381.6 Q 1376.3 382.4, 1376.3 383.9 Q 1376.3 385.3, 1376.8 386.1 Q 1377.4 386.8, 1378.4 386.8 " fill="#000000"/>
<path class="legend" d="M 1383.5 376.6 L 1384.9 376.6 L 1384.9 378.0 L 1383.5 378.0 L 1383.5 376.6 M 1383.5 379.7 L 1384.9 379.7 L 1384.9 387.9 L 1383.5 387.9 L 1383.5 379.7 " fill="#000000"/>
<path class="legend" d="M 1386.8 386.2 Q 1387.5 386.5, 1388.0 386.6 Q 1388.5 386.8, 1389.1 386.8 Q 1389.8 386.8, 1390.2 386.5 Q 1390.6 386.2, 1390.6 385.6 Q 1390.6 385.2, 1390.4 385.0 Q 1390.2 384.8, 1389.9 384.6 Q 1389.7 384.5, 1389.0 384.3 Q 1388.8 384.3, 1388.1 384.0 Q 1387.4 383.7, 1387.0 383.2 Q 1386.6 382.7, 1386.6 381.9 Q 1386.6 380.9, 1387.4 380.2 Q 1388.1 379.5, 1389.6 379.5 Q 1390.2 379.5, 1390.8 379.7 Q 1391.3 379.8, 1391.9 380.0 L 1391.5 381.2 Q 1391.0 381.0, 1390.6 380.9 Q 1390.1 380.8, 1389.6 380.8 Q 1388.9 380.8, 1388.5 381.1 Q 1388.1 381.4, 1388.1 381.8 Q 1388.1 382.3, 1388.4 382.5 Q 1388.7 382.7, 1389.4 383.0 Q 1389.5 383.0, 1389.7 383.1 L 1390.1 383.2 Q 1390.7 383.4, 1391.1 383.7 Q 1391.6 383.9, 1391.9 384.4 Q 1392.1 384.8, 1392.1 385.6 Q 1392.1 386.7, 1391.3 387.4 Q 1390.5 388.0, 1389.1 388.0 Q 1388.3 388.0, 1387.7 387.9 Q 1387.0 387.7, 1386.3 387.4 L 1386.8 386.2 " fill="#000000"/>
<path class="legend" d="M 1393.0 380.8 L 1393.0 379.7 L 1394.6 379.7 L 1394.8 377.3 L 1395.9 377.3 L 1395.9 379.7 L 1398.4 379.7 L 1398.4 380.8 L 1395.9 380.8 L 1395.9 385.4 Q 1395.9 386.8, 1397.1 386.8 Q 1397.6 386.8, 1398.3 386.6 L 1398.6 387.6 Q 1397.7 388.0, 1396.9 388.0 Q 1395.8 388.0, 1395.1 387.3 Q 1394.4 386.7, 1394.4 385.4 L 1394.4 380.8 L 1393.0 380.8 " fill="#000000"/>
<path class="legend" d="" fill="#000000"/>
<path class="legend" d="M 1404.3 380.9 L 1411.6 380.9 L 1411.6 382.1 L 1404.3 382.1 L 1404.3 380.9 M 1404.3 384.4 L 1411.6 384.4 L 1411.6 385.5 L 1404.3 385.5 L 1404.3 384.4 " fill="#000000"/>
<path class="legend" d="" fill="#000000"/>
<path class="legend" d="M 1419.0 386.6 L 1421.5 386.6 L 1421.5 378.1 L 1418.8 379.0 L 1418.4 378.0 L 1421.9 376.5 L 1423.0 376.7 L 1423.0 386.6 L 1425.3 386.6 L 1425.3 387.9 L 1419.0 387.9 L 1419.0 386.6 " fill="#000000"/>
<path class="legend" d="M 1425.9 386.3 L 1427.5 386.3 L 1427.5 387.9 L 1425.9 387.9 L 1425.9 386.3 " fill="#000000"/>
<path class="legend" d="M 1434.0 381.9 Q 1435.1 382.2, 1435.6 383.0 Q 1436.2 383.7, 1436.2 384.8 Q 1436.2 385.7, 1435.7 386.5 Q 1435.2 387.2, 1434.3 387.6 Q 1433.5 388.0, 1432.3 388.0 Q 1431.1 388.0, 1430.2 387.6 Q 1429.3 387.2, 1428.6 386.3 L 1429.5 385.4 Q 1430.2 386.2, 1430.8 386.5 Q 1431.4 386.8, 1432.3 386.8 Q 1433.3 386.8, 1434.0 386.2 Q 1434.6 385.7, 1434.6 384.8 Q 1434.6 383.6, 1433.9 383.1 Q 1433.3 382.6, 1431.9 382.6 L 1431.1 382.6 L 1431.1 381.4 L 1431.8 381.4 Q 1433.0 381.4, 1433.7 380.9 Q 1434.3 380.3, 1434.3 379.3 Q 1434.3 378.6, 1433.8 378.2 Q 1433.3 377.7, 1432.3 377.7 Q 1431.4 377.7, 1430.8 378.0 Q 1430.2 378.4, 1429.8 379.2 L 1428.7 378.6 Q 1429.1 377.7, 1430.0 377.1 Q 1431.0 376.4, 1432.3 376.4 Q 1434.0 376.4, 1435.0 377.2 Q 1435.9 378.0, 1435.9 379.3 Q 1435.9 380.2, 1435.4 380.9 Q 1434.9 381.6, 1434.0 381.9 " fill="#000000"/>
<path class="legend" d="M 1437.2 378.7 Q 1437.6 377.6, 1438.6 377.0 Q 1439.6 376.4, 1440.9 376.4 Q 1442.6 376.4, 1443.6 377.4 Q 1444.6 378.3, 1444.6 379.9 Q 1444.6 381.6, 1443.3 383.2 Q 1442.1 384.8, 1439.5 386.6 L 1444.8 386.6 L 1444.8 387.9 L 1437.1 387.9 L 1437.1 386.8 Q 1439.2 385.3, 1440.5 384.2 Q 1441.7 383.1, 1442.4 382.1 Q 1443.0 381.1, 1443.0 380.0 Q 1443.0 378.9, 1442.4 378.3 Q 1441.9 377.7, 1440.9 377.7 Q 1440.0 377.7, 1439.4 378.1 Q 1438.8 378.4, 1438.4 379.3 L 1437.2 378.7 " fill="#000000"/>
<path class="legend" d="M 1449.9 388.0 Q 1447.8 388.0, 1446.7 386.5 Q 1445.7 384.9, 1445.7 382.2 Q 1445.7 379.5, 1446.7 378.0 Q 1447.8 376.4, 1449.9 376.4 Q 1452.0 376.4, 1453.0 378.0 Q 1454.0 379.5, 1454.0 382.2 Q 1454.0 384.9, 1453.0 386.5 Q 1451.9 388.0, 1449.9 388.0 M 1449.9 386.7 Q 1451.1 386.7, 1451.7 385.6 Q 1452.4 384.4, 1452.4 382.2 Q 1452.4 380.0, 1451.7 378.8 Q 1451.1 377.7, 1449.9 377.7 Q 1448.6 377.7, 1448.0 378.8 Q 1447.3 380.0, 1447.3 382.2 Q 1447.3 384.4, 1448.0 385.6 Q 1448.6 386.7, 1449.9 386.7 " fill="#000000"/>
<path class="legend" d="M 1459.2 380.8 Q 1460.1 380.8, 1461.0 381.2 Q 1461.8 381.6, 1462.2 382.4 Q 1462.7 383.2, 1462.7 384.3 Q 1462.7 385.5, 1462.1 386.3 Q 1461.6 387.2, 1460.6 387.6 Q 1459.7 388.0, 1458.7 388.0 Q 1457.6 388.0, 1456.7 387.6 Q 1455.7 387.2, 1455.0 386.5 L 1456.0 385.5 Q 1456.5 386.1, 1457.3 386.4 Q 1458.0 386.7, 1458.7 386.7 Q 1459.7 386.7, 1460.4 386.1 Q 1461.1 385.5, 1461.1 384.3 Q 1461.1 383.1, 1460.4 382.6 Q 1459.7 382.0, 1458.6 382.0 Q 1457.6 382.0, 1456.5 382.4 L 1455.6 382.0 L 1456.2 376.6 L 1462.0 376.6 L 1461.8 377.8 L 1457.5 377.8 L 1457.2 381.2 Q 1458.2 380.8, 1459.2 380.8 " fill="#000000"/>
</svg>