<svg xmlns="http://www.w3.org/2000/svg" xmlns:rdkit="http://www.rdkit.org/xml" xmlns:xlink="http://www.w3.org/1999/xlink" version="1.1" baseProfile="full" xml:space="preserve" width="2000px" height="400px" viewBox="0 0 2000 400">
<!-- END OF HEADER -->
<rect style="opacity:1.0;fill:#FFFFFF;stroke:none" width="2000.0" height="400.0" x="0.0" y="0.0"> </rect>
<path class="bond-0 atom-0 atom-1" d="M 182.9,133.6 L 136.7,174.2" style="fill:none;fill-rule:evenodd;stroke:#000000;stroke-width:2.0px;stroke-linecap:butt;stroke-linejoin:miter;stroke-opacity:1"/>
<path class="bond-1 atom-1 atom-2" d="M 136.7,174.2 L 148.8,234.5" style="fill:none;fill-rule:evenodd;stroke:#000000;stroke-width:2.0px;stroke-linecap:butt;stroke-linejoin:miter;stroke-opacity:1"/>
<path class="bond-2 atom-2 atom-3" d="M 148.8,234.5 L 207.1,254.2" style="fill:none;fill-rule:evenodd;stroke:#000000;stroke-width:2.0px;stroke-linecap:butt;stroke-linejoin:miter;stroke-opacity:1"/>
<path class="bond-3 atom-3 atom-4" d="M 207.1,254.2 L 219.1,314.4" style="fill:none;fill-rule:evenodd;stroke:#000000;stroke-width:2.0px;stroke-linecap:butt;stroke-linejoin:miter;stroke-opacity:1"/>
<path class="bond-3 atom-3 atom-4" d="M 220.9,260.8 L 229.4,303.0" style="fill:none;fill-rule:evenodd;stroke:#000000;stroke-width:2.0px;stroke-linecap:butt;stroke-linejoin:miter;stroke-opacity:1"/>
<path class="bond-4 atom-4 atom-5" d="M 219.1,314.4 L 277.4,334.1" style="fill:none;fill-rule:evenodd;stroke:#000000;stroke-width:2.0px;stroke-linecap:butt;stroke-linejoin:miter;stroke-opacity:1"/>
<path class="bond-5 atom-5 atom-6" d="M 277.4,334.1 L 323.6,293.5" style="fill:none;fill-rule:evenodd;stroke:#000000;stroke-width:2.0px;stroke-linecap:butt;stroke-linejoin:miter;stroke-opacity:1"/>
<path class="bond-5 atom-5 atom-6" d="M 276.2,318.8 L 308.5,290.4" style="fill:none;fill-rule:evenodd;stroke:#000000;stroke-width:2.0px;stroke-linecap:butt;stroke-linejoin:miter;stroke-opacity:1"/>
<path class="bond-6 atom-6 atom-7" d="M 323.6,293.5 L 381.8,313.2" style="fill:none;fill-rule:evenodd;stroke:#000000;stroke-width:2.0px;stroke-linecap:butt;stroke-linejoin:miter;stroke-opacity:1"/>
<path class="bond-7 atom-6 atom-8" d="M 323.6,293.5 L 311.5,233.2" style="fill:none;fill-rule:evenodd;stroke:#000000;stroke-width:2.0px;stroke-linecap:butt;stroke-linejoin:miter;stroke-opacity:1"/>
<path class="bond-8 atom-8 atom-9" d="M 311.5,233.2 L 253.2,213.5" style="fill:none;fill-rule:evenodd;stroke:#000000;stroke-width:2.0px;stroke-linecap:butt;stroke-linejoin:miter;stroke-opacity:1"/>
<path class="bond-8 atom-8 atom-9" d="M 298.8,241.9 L 258.0,228.2" style="fill:none;fill-rule:evenodd;stroke:#000000;stroke-width:2.0px;stroke-linecap:butt;stroke-linejoin:miter;stroke-opacity:1"/>
<path class="bond-9 atom-9 atom-10" d="M 253.2,213.5 L 248.3,189.0" style="fill:none;fill-rule:evenodd;stroke:#000000;stroke-width:2.0px;stroke-linecap:butt;stroke-linejoin:miter;stroke-opacity:1"/>
<path class="bond-9 atom-9 atom-10" d="M 248.3,189.0 L 243.4,164.4" style="fill:none;fill-rule:evenodd;stroke:#FF0000;stroke-width:2.0px;stroke-linecap:butt;stroke-linejoin:miter;stroke-opacity:1"/>
<path class="bond-10 atom-10 atom-11" d="M 251.2,144.4 L 264.6,132.6" style="fill:none;fill-rule:evenodd;stroke:#FF0000;stroke-width:2.0px;stroke-linecap:butt;stroke-linejoin:miter;stroke-opacity:1"/>
<path class="bond-10 atom-10 atom-11" d="M 264.6,132.6 L 278.0,120.8" style="fill:none;fill-rule:evenodd;stroke:#000000;stroke-width:2.0px;stroke-linecap:butt;stroke-linejoin:miter;stroke-opacity:1"/>
<path class="bond-11 atom-11 atom-12" d="M 278.0,102.0 L 246.7,66.5" style="fill:none;fill-rule:evenodd;stroke:#000000;stroke-width:2.0px;stroke-linecap:butt;stroke-linejoin:miter;stroke-opacity:1"/>
<path class="bond-12 atom-11 atom-13" d="M 296.7,123.3 L 327.9,158.8" style="fill:none;fill-rule:evenodd;stroke:#000000;stroke-width:2.0px;stroke-linecap:butt;stroke-linejoin:miter;stroke-opacity:1"/>
<path class="bond-13 atom-11 atom-14" d="M 296.7,104.5 L 333.5,72.0" style="fill:none;fill-rule:evenodd;stroke:#000000;stroke-width:2.0px;stroke-linecap:butt;stroke-linejoin:miter;stroke-opacity:1"/>
<path class="bond-14 atom-14 atom-15" d="M 333.5,72.0 L 374.1,118.2" style="fill:none;fill-rule:evenodd;stroke:#000000;stroke-width:2.0px;stroke-linecap:butt;stroke-linejoin:miter;stroke-opacity:1"/>
<path class="bond-15 atom-14 atom-16" d="M 333.5,72.0 L 292.9,25.9" style="fill:none;fill-rule:evenodd;stroke:#000000;stroke-width:2.0px;stroke-linecap:butt;stroke-linejoin:miter;stroke-opacity:1"/>
<path class="bond-16 atom-14 atom-17" d="M 333.5,72.0 L 379.7,31.4" style="fill:none;fill-rule:evenodd;stroke:#000000;stroke-width:2.0px;stroke-linecap:butt;stroke-linejoin:miter;stroke-opacity:1"/>
<path class="bond-17 atom-1 atom-18" d="M 136.7,174.2 L 78.5,154.5" style="fill:none;fill-rule:evenodd;stroke:#000000;stroke-width:2.0px;stroke-linecap:butt;stroke-linejoin:miter;stroke-opacity:1"/>
<path class="bond-17 atom-1 atom-18" d="M 131.9,159.6 L 91.2,145.8" style="fill:none;fill-rule:evenodd;stroke:#000000;stroke-width:2.0px;stroke-linecap:butt;stroke-linejoin:miter;stroke-opacity:1"/>
<path class="bond-18 atom-18 atom-19" d="M 78.5,154.5 L 18.2,166.6" style="fill:none;fill-rule:evenodd;stroke:#000000;stroke-width:2.0px;stroke-linecap:butt;stroke-linejoin:miter;stroke-opacity:1"/>
<path class="bond-19 atom-19 atom-20" d="M 18.2,166.6 L 37.9,108.3" style="fill:none;fill-rule:evenodd;stroke:#000000;stroke-width:2.0px;stroke-linecap:butt;stroke-linejoin:miter;stroke-opacity:1"/>
<path class="bond-20 atom-9 atom-3" d="M 253.2,213.5 L 207.1,254.2" style="fill:none;fill-rule:evenodd;stroke:#000000;stroke-width:2.0px;stroke-linecap:butt;stroke-linejoin:miter;stroke-opacity:1"/>
<path class="bond-21 atom-20 atom-18" d="M 37.9,108.3 L 78.5,154.5" style="fill:none;fill-rule:evenodd;stroke:#000000;stroke-width:2.0px;stroke-linecap:butt;stroke-linejoin:miter;stroke-opacity:1"/>
<path class="atom-10" d="M 233.2 153.3 Q 233.2 149.1, 235.2 146.8 Q 237.3 144.4, 241.2 144.4 Q 245.0 144.4, 247.1 146.8 Q 249.2 149.1, 249.2 153.3 Q 249.2 157.5, 247.1 159.9 Q 245.0 162.3, 241.2 162.3 Q 237.3 162.3, 235.2 159.9 Q 233.2 157.6, 233.2 153.3 M 241.2 160.4 Q 243.8 160.4, 245.2 158.6 Q 246.7 156.8, 246.7 153.3 Q 246.7 149.9, 245.2 148.2 Q 243.8 146.4, 241.2 146.4 Q 238.5 146.4, 237.1 148.1 Q 235.6 149.9, 235.6 153.3 Q 235.6 156.8, 237.1 158.6 Q 238.5 160.4, 241.2 160.4 " fill="#FF0000"/>
<path class="atom-11" d="M 280.7 118.7 Q 280.9 118.7, 281.7 119.1 Q 282.5 119.4, 283.4 119.6 Q 284.3 119.8, 285.2 119.8 Q 286.9 119.8, 287.8 119.0 Q 288.8 118.2, 288.8 116.8 Q 288.8 115.9, 288.3 115.3 Q 287.8 114.7, 287.1 114.4 Q 286.3 114.1, 285.1 113.7 Q 283.6 113.2, 282.6 112.8 Q 281.7 112.3, 281.1 111.4 Q 280.4 110.5, 280.4 108.9 Q 280.4 106.7, 281.9 105.3 Q 283.4 104.0, 286.3 104.0 Q 288.4 104.0, 290.6 105.0 L 290.1 106.8 Q 288.0 106.0, 286.4 106.0 Q 284.7 106.0, 283.8 106.7 Q 282.8 107.4, 282.9 108.6 Q 282.9 109.5, 283.3 110.1 Q 283.8 110.7, 284.5 111.0 Q 285.2 111.3, 286.4 111.7 Q 288.0 112.2, 288.9 112.6 Q 289.9 113.1, 290.5 114.1 Q 291.2 115.1, 291.2 116.8 Q 291.2 119.2, 289.6 120.5 Q 288.0 121.8, 285.3 121.8 Q 283.8 121.8, 282.6 121.5 Q 281.4 121.2, 280.0 120.6 L 280.7 118.7 " fill="#000000"/>
<path class="atom-11" d="M 292.4 103.9 L 294.6 103.9 L 294.6 106.1 L 292.4 106.1 L 292.4 103.9 M 292.4 108.7 L 294.6 108.7 L 294.6 121.4 L 292.4 121.4 L 292.4 108.7 " fill="#000000"/>
<path class="legend" d="M 168.0 365.4 L 168.1 366.5 Q 169.0 365.3, 170.4 365.3 Q 170.9 365.3, 171.5 365.4 L 171.2 366.8 Q 170.5 366.6, 170.2 366.6 Q 169.5 366.6, 169.0 366.9 Q 168.6 367.1, 168.2 367.8 L 168.2 373.6 L 166.7 373.6 L 166.7 365.4 L 168.0 365.4 " fill="#000000"/>
<path class="legend" d="M 171.7 369.5 Q 171.7 367.5, 172.7 366.4 Q 173.7 365.3, 175.6 365.3 Q 177.4 365.3, 178.2 366.4 Q 179.0 367.4, 179.0 369.5 L 179.0 369.7 L 173.2 369.7 Q 173.3 371.1, 173.9 371.8 Q 174.5 372.6, 175.7 372.6 Q 176.3 372.6, 176.9 372.4 Q 177.5 372.3, 178.2 372.0 L 178.7 373.0 Q 177.8 373.4, 177.1 373.6 Q 176.4 373.8, 175.6 373.8 Q 173.8 373.8, 172.7 372.6 Q 171.7 371.5, 171.7 369.5 M 175.6 366.4 Q 174.6 366.4, 174.0 367.0 Q 173.5 367.5, 173.3 368.6 L 177.4 368.6 Q 177.3 367.5, 176.8 367.0 Q 176.4 366.4, 175.6 366.4 " fill="#000000"/>
<path class="legend" d="M 179.6 371.4 Q 179.6 370.1, 180.6 369.4 Q 181.7 368.7, 183.6 368.7 L 184.9 368.7 L 184.9 368.3 Q 184.9 367.3, 184.4 366.9 Q 184.0 366.4, 183.0 366.4 Q 182.3 366.4, 181.8 366.6 Q 181.3 366.7, 180.5 367.0 L 180.1 366.0 Q 181.6 365.3, 183.0 365.3 Q 184.8 365.3, 185.6 366.0 Q 186.4 366.8, 186.4 368.4 L 186.4 373.6 L 185.2 373.6 Q 185.2 373.6, 185.1 373.3 Q 185.1 373.1, 185.0 372.7 Q 183.8 373.8, 182.3 373.8 Q 181.1 373.8, 180.3 373.2 Q 179.6 372.5, 179.6 371.4 M 181.1 371.4 Q 181.1 372.0, 181.5 372.3 Q 181.9 372.6, 182.6 372.6 Q 183.2 372.6, 183.8 372.4 Q 184.4 372.0, 184.9 371.5 L 184.9 369.8 L 183.7 369.8 Q 182.4 369.8, 181.8 370.2 Q 181.1 370.6, 181.1 371.4 " fill="#000000"/>
<path class="legend" d="M 187.6 369.5 Q 187.6 367.5, 188.6 366.4 Q 189.6 365.3, 191.5 365.3 Q 193.4 365.3, 194.4 366.6 L 193.4 367.4 Q 193.0 366.9, 192.5 366.7 Q 192.1 366.4, 191.5 366.4 Q 190.4 366.4, 189.8 367.2 Q 189.1 368.0, 189.1 369.5 Q 189.1 371.0, 189.8 371.8 Q 190.4 372.6, 191.6 372.6 Q 192.3 372.6, 192.8 372.4 Q 193.2 372.3, 193.8 372.0 L 194.2 373.0 Q 193.0 373.7, 191.5 373.7 Q 189.6 373.7, 188.6 372.6 Q 187.6 371.5, 187.6 369.5 " fill="#000000"/>
<path class="legend" d="M 194.8 366.6 L 194.8 365.4 L 196.3 365.4 L 196.6 363.0 L 197.7 363.0 L 197.7 365.4 L 200.2 365.4 L 200.2 366.6 L 197.7 366.6 L 197.7 371.1 Q 197.7 372.5, 198.9 372.5 Q 199.4 372.5, 200.1 372.3 L 200.3 373.4 Q 199.5 373.7, 198.6 373.7 Q 197.6 373.7, 196.9 373.1 Q 196.2 372.4, 196.2 371.2 L 196.2 366.6 L 194.8 366.6 " fill="#000000"/>
<path class="legend" d="M 208.9 374.4 L 208.9 375.7 L 200.7 375.7 L 200.7 374.4 L 208.9 374.4 " fill="#000000"/>
<path class="legend" d="M 214.3 367.7 Q 215.4 368.0, 216.0 368.7 Q 216.5 369.4, 216.5 370.5 Q 216.5 371.5, 216.0 372.2 Q 215.6 373.0, 214.7 373.4 Q 213.8 373.8, 212.6 373.8 Q 211.4 373.8, 210.5 373.4 Q 209.6 372.9, 208.9 372.1 L 209.8 371.2 Q 210.5 371.9, 211.1 372.2 Q 211.7 372.5, 212.6 372.5 Q 213.7 372.5, 214.3 372.0 Q 214.9 371.4, 214.9 370.5 Q 214.9 369.4, 214.3 368.8 Q 213.6 368.3, 212.2 368.3 L 211.4 368.3 L 211.4 367.2 L 212.1 367.2 Q 213.4 367.2, 214.0 366.6 Q 214.7 366.1, 214.7 365.1 Q 214.7 364.3, 214.1 363.9 Q 213.6 363.5, 212.7 363.5 Q 211.7 363.5, 211.1 363.8 Q 210.6 364.1, 210.1 365.0 L 209.0 364.4 Q 209.4 363.4, 210.4 362.8 Q 211.3 362.2, 212.7 362.2 Q 214.3 362.2, 215.3 363.0 Q 216.3 363.7, 216.3 365.1 Q 216.3 366.0, 215.8 366.6 Q 215.3 367.3, 214.3 367.7 " fill="#000000"/>
<path class="legend" d="M 218.1 372.4 L 220.6 372.4 L 220.6 363.9 L 217.8 364.7 L 217.5 363.8 L 220.9 362.2 L 222.1 362.4 L 222.1 372.4 L 224.3 372.4 L 224.3 373.6 L 218.1 373.6 L 218.1 372.4 " fill="#000000"/>
<path class="legend" d="M 229.1 373.8 Q 227.0 373.8, 226.0 372.2 Q 225.0 370.7, 225.0 368.0 Q 225.0 365.2, 226.0 363.7 Q 227.0 362.2, 229.1 362.2 Q 231.2 362.2, 232.2 363.7 Q 233.3 365.2, 233.3 368.0 Q 233.3 370.7, 232.2 372.2 Q 231.2 373.8, 229.1 373.8 M 229.1 372.5 Q 230.3 372.5, 231.0 371.3 Q 231.7 370.2, 231.7 368.0 Q 231.7 365.7, 231.0 364.6 Q 230.3 363.5, 229.1 363.5 Q 227.9 363.5, 227.2 364.6 Q 226.6 365.7, 226.6 368.0 Q 226.6 370.2, 227.2 371.3 Q 227.9 372.5, 229.1 372.5 " fill="#000000"/>
<path class="legend" d="M 135.3 383.8 Q 135.3 381.8, 136.3 380.7 Q 137.3 379.5, 139.3 379.5 Q 141.1 379.5, 142.1 380.9 L 141.1 381.6 Q 140.7 381.2, 140.3 380.9 Q 139.8 380.7, 139.3 380.7 Q 138.1 380.7, 137.5 381.5 Q 136.9 382.3, 136.9 383.8 Q 136.9 385.3, 137.5 386.1 Q 138.1 386.8, 139.3 386.8 Q 140.0 386.8, 140.5 386.7 Q 140.9 386.5, 141.5 386.3 L 141.9 387.3 Q 140.8 388.0, 139.2 388.0 Q 137.3 388.0, 136.3 386.9 Q 135.3 385.7, 135.3 383.8 " fill="#000000"/>
<path class="legend" d="M 142.5 383.8 Q 142.5 381.7, 143.5 380.6 Q 144.5 379.5, 146.3 379.5 Q 148.1 379.5, 148.9 380.6 Q 149.8 381.7, 149.8 383.7 L 149.8 384.0 L 144.0 384.0 Q 144.1 385.4, 144.7 386.1 Q 145.3 386.8, 146.5 386.8 Q 147.1 386.8, 147.7 386.7 Q 148.3 386.5, 149.0 386.2 L 149.4 387.2 Q 148.6 387.6, 147.9 387.8 Q 147.2 388.0, 146.4 388.0 Q 144.5 388.0, 143.5 386.9 Q 142.5 385.8, 142.5 383.8 M 146.3 380.7 Q 145.4 380.7, 144.8 381.2 Q 144.3 381.8, 144.1 382.8 L 148.2 382.8 Q 148.1 381.7, 147.6 381.2 Q 147.2 380.7, 146.3 380.7 " fill="#000000"/>
<path class="legend" d="M 154.7 379.5 Q 156.0 379.5, 156.7 380.3 Q 157.4 381.0, 157.4 382.4 L 157.4 387.9 L 155.9 387.9 L 155.9 382.6 Q 155.9 381.6, 155.5 381.2 Q 155.1 380.7, 154.3 380.7 Q 153.5 380.7, 152.9 381.1 Q 152.3 381.4, 151.9 382.0 L 151.9 387.9 L 150.4 387.9 L 150.4 379.7 L 151.6 379.7 L 151.8 380.8 Q 152.9 379.5, 154.7 379.5 " fill="#000000"/>
<path class="legend" d="M 158.6 380.8 L 158.6 379.7 L 160.2 379.7 L 160.4 377.3 L 161.5 377.3 L 161.5 379.7 L 164.1 379.7 L 164.1 380.8 L 161.5 380.8 L 161.5 385.4 Q 161.5 386.8, 162.7 386.8 Q 163.2 386.8, 163.9 386.6 L 164.2 387.6 Q 163.3 388.0, 162.5 388.0 Q 161.4 388.0, 160.7 387.3 Q 160.0 386.7, 160.0 385.4 L 160.0 380.8 L 158.6 380.8 " fill="#000000"/>
<path class="legend" d="M 172.7 388.7 L 172.7 390.0 L 164.6 390.0 L 164.6 388.7 L 172.7 388.7 " fill="#000000"/>
<path class="legend" d="M 180.2 375.7 L 180.2 387.9 L 179.0 387.9 L 178.8 386.9 Q 177.9 388.0, 176.4 388.0 Q 174.6 388.0, 173.7 387.0 Q 172.7 385.9, 172.7 383.9 Q 172.7 381.8, 173.9 380.7 Q 175.0 379.5, 177.0 379.5 Q 177.8 379.5, 178.7 379.7 L 178.7 375.7 L 180.2 375.7 M 176.5 386.8 Q 177.3 386.8, 177.9 386.4 Q 178.5 385.9, 178.7 385.1 L 178.7 380.9 Q 177.9 380.7, 177.0 380.7 Q 175.7 380.7, 175.0 381.6 Q 174.3 382.4, 174.3 383.9 Q 174.3 385.3, 174.8 386.1 Q 175.4 386.8, 176.5 386.8 " fill="#000000"/>
<path class="legend" d="M 181.5 376.6 L 183.0 376.6 L 183.0 378.0 L 181.5 378.0 L 181.5 376.6 M 181.5 379.7 L 183.0 379.7 L 183.0 387.9 L 181.5 387.9 L 181.5 379.7 " fill="#000000"/>
<path class="legend" d="M 184.8 386.2 Q 185.5 386.5, 186.0 386.6 Q 186.6 386.8, 187.1 386.8 Q 187.8 386.8, 188.2 386.5 Q 188.7 386.2, 188.7 385.6 Q 188.7 385.2, 188.4 385.0 Q 188.2 384.8, 188.0 384.6 Q 187.7 384.5, 187.0 384.3 Q 186.9 384.3, 186.1 384.0 Q 185.4 383.7, 185.0 383.2 Q 184.6 382.7, 184.6 381.9 Q 184.6 380.9, 185.4 380.2 Q 186.1 379.5, 187.6 379.5 Q 188.3 379.5, 188.8 379.7 Q 189.4 379.8, 190.0 380.0 L 189.6 381.2 Q 189.0 381.0, 188.6 380.9 Q 188.1 380.8, 187.6 380.8 Q 186.9 380.8, 186.5 381.1 Q 186.1 381.4, 186.1 381.8 Q 186.1 382.3, 186.4 382.5 Q 186.7 382.7, 187.4 383.0 Q 187.6 383.0, 187.7 383.1 L 188.1 383.2 Q 188.8 383.4, 189.2 383.7 Q 189.6 383.9, 189.9 384.4 Q 190.2 384.8, 190.2 385.6 Q 190.2 386.7, 189.3 387.4 Q 188.5 388.0, 187.1 388.0 Q 186.4 388.0, 185.7 387.9 Q 185.0 387.7, 184.3 387.4 L 184.8 386.2 " fill="#000000"/>
<path class="legend" d="M 191.0 380.8 L 191.0 379.7 L 192.6 379.7 L 192.8 377.3 L 194.0 377.3 L 194.0 379.7 L 196.5 379.7 L 196.5 380.8 L 194.0 380.8 L 194.0 385.4 Q 194.0 386.8, 195.2 386.8 Q 195.6 386.8, 196.3 386.6 L 196.6 387.6 Q 195.7 388.0, 194.9 388.0 Q 193.8 388.0, 193.1 387.3 Q 192.5 386.7, 192.5 385.4 L 192.5 380.8 L 191.0 380.8 " fill="#000000"/>
<path class="legend" d="" fill="#000000"/>
<path class="legend" d="M 202.3 380.9 L 209.7 380.9 L 209.7 382.1 L 202.3 382.1 L 202.3 380.9 M 202.3 384.4 L 209.7 384.4 L 209.7 385.5 L 202.3 385.5 L 202.3 384.4 " fill="#000000"/>
<path class="legend" d="" fill="#000000"/>
<path class="legend" d="M 220.6 388.0 Q 218.5 388.0, 217.5 386.5 Q 216.4 384.9, 216.4 382.2 Q 216.4 379.5, 217.5 378.0 Q 218.5 376.4, 220.6 376.4 Q 222.7 376.4, 223.7 378.0 Q 224.7 379.5, 224.7 382.2 Q 224.7 384.9, 223.7 386.5 Q 222.7 388.0, 220.6 388.0 M 220.6 386.7 Q 221.8 386.7, 222.5 385.6 Q 223.1 384.4, 223.1 382.2 Q 223.1 380.0, 222.5 378.8 Q 221.8 377.7, 220.6 377.7 Q 219.4 377.7, 218.7 378.8 Q 218.0 380.0, 218.0 382.2 Q 218.0 384.4, 218.7 385.6 Q 219.4 386.7, 220.6 386.7 " fill="#000000"/>
<path class="legend" d="M 225.8 386.3 L 227.4 386.3 L 227.4 387.9 L 225.8 387.9 L 225.8 386.3 " fill="#000000"/>
<path class="legend" d="M 232.6 388.0 Q 230.5 388.0, 229.4 386.5 Q 228.4 384.9, 228.4 382.2 Q 228.4 379.5, 229.4 378.0 Q 230.5 376.4, 232.6 376.4 Q 234.7 376.4, 235.7 378.0 Q 236.7 379.5, 236.7 382.2 Q 236.7 384.9, 235.7 386.5 Q 234.6 388.0, 232.6 388.0 M 232.6 386.7 Q 233.8 386.7, 234.4 385.6 Q 235.1 384.4, 235.1 382.2 Q 235.1 380.0, 234.4 378.8 Q 233.8 377.7, 232.6 377.7 Q 231.3 377.7, 230.7 378.8 Q 230.0 380.0, 230.0 382.2 Q 230.0 384.4, 230.7 385.6 Q 231.3 386.7, 232.6 386.7 " fill="#000000"/>
<path class="legend" d="M 241.9 388.0 Q 239.8 388.0, 238.8 386.5 Q 237.7 384.9, 237.7 382.2 Q 237.7 379.5, 238.8 378.0 Q 239.8 376.4, 241.9 376.4 Q 244.0 376.4, 245.0 378.0 Q 246.0 379.5, 246.0 382.2 Q 246.0 384.9, 245.0 386.5 Q 244.0 388.0, 241.9 388.0 M 241.9 386.7 Q 243.1 386.7, 243.8 385.6 Q 244.4 384.4, 244.4 382.2 Q 244.4 380.0, 243.8 378.8 Q 243.1 377.7, 241.9 377.7 Q 240.7 377.7, 240.0 378.8 Q 239.3 380.0, 239.3 382.2 Q 239.3 384.4, 240.0 385.6 Q 240.7 386.7, 241.9 386.7 " fill="#000000"/>
<path class="legend" d="M 251.2 388.0 Q 249.1 388.0, 248.1 386.5 Q 247.1 384.9, 247.1 382.2 Q 247.1 379.5, 248.1 378.0 Q 249.1 376.4, 251.2 376.4 Q 253.3 376.4, 254.3 378.0 Q 255.4 379.5, 255.4 382.2 Q 255.4 384.9, 254.3 386.5 Q 253.3 388.0, 251.2 388.0 M 251.2 386.7 Q 252.4 386.7, 253.1 385.6 Q 253.8 384.4, 253.8 382.2 Q 253.8 380.0, 253.1 378.8 Q 252.4 377.7, 251.2 377.7 Q 250.0 377.7, 249.3 378.8 Q 248.7 380.0, 248.7 382.2 Q 248.7 384.4, 249.3 385.6 Q 250.0 386.7, 251.2 386.7 " fill="#000000"/>
<path class="legend" d="M 260.5 388.0 Q 258.5 388.0, 257.4 386.5 Q 256.4 384.9, 256.4 382.2 Q 256.4 379.5, 257.4 378.0 Q 258.4 376.4, 260.5 376.4 Q 262.6 376.4, 263.7 378.0 Q 264.7 379.5, 264.7 382.2 Q 264.7 384.9, 263.6 386.5 Q 262.6 388.0, 260.5 388.0 M 260.5 386.7 Q 261.8 386.7, 262.4 385.6 Q 263.1 384.4, 263.1 382.2 Q 263.1 380.0, 262.4 378.8 Q 261.8 377.7, 260.5 377.7 Q 259.3 377.7, 258.7 378.8 Q 258.0 380.0, 258.0 382.2 Q 258.0 384.4, 258.7 385.6 Q 259.3 386.7, 260.5 386.7 " fill="#000000"/>
</svg>