<svg xmlns="http://www.w3.org/2000/svg" xmlns:rdkit="http://www.rdkit.org/xml" xmlns:xlink="http://www.w3.org/1999/xlink" version="1.1" baseProfile="full" xml:space="preserve" width="2000px" height="400px" viewBox="0 0 2000 400">
<!-- END OF HEADER -->
<rect style="opacity:1.0;fill:#FFFFFF;stroke:none" width="2000.0" height="400.0" x="0.0" y="0.0"> </rect>
<path class="bond-0 atom-0 atom-1" d="M 189.2,82.0 L 235.1,103.6" style="fill:none;fill-rule:evenodd;stroke:#000000;stroke-width:2.0px;stroke-linecap:butt;stroke-linejoin:miter;stroke-opacity:1"/>
<path class="bond-1 atom-1 atom-2" d="M 235.1,103.6 L 239.4,154.0" style="fill:none;fill-rule:evenodd;stroke:#000000;stroke-width:2.0px;stroke-linecap:butt;stroke-linejoin:miter;stroke-opacity:1"/>
<path class="bond-2 atom-2 atom-3" d="M 239.4,154.0 L 197.8,183.0" style="fill:none;fill-rule:evenodd;stroke:#000000;stroke-width:2.0px;stroke-linecap:butt;stroke-linejoin:miter;stroke-opacity:1"/>
<path class="bond-2 atom-2 atom-3" d="M 239.0,166.7 L 209.9,187.0" style="fill:none;fill-rule:evenodd;stroke:#000000;stroke-width:2.0px;stroke-linecap:butt;stroke-linejoin:miter;stroke-opacity:1"/>
<path class="bond-3 atom-3 atom-4" d="M 197.8,183.0 L 179.0,174.2" style="fill:none;fill-rule:evenodd;stroke:#000000;stroke-width:2.0px;stroke-linecap:butt;stroke-linejoin:miter;stroke-opacity:1"/>
<path class="bond-3 atom-3 atom-4" d="M 179.0,174.2 L 160.2,165.4" style="fill:none;fill-rule:evenodd;stroke:#FF0000;stroke-width:2.0px;stroke-linecap:butt;stroke-linejoin:miter;stroke-opacity:1"/>
<path class="bond-4 atom-4 atom-5" d="M 143.7,167.3 L 130.9,176.2" style="fill:none;fill-rule:evenodd;stroke:#FF0000;stroke-width:2.0px;stroke-linecap:butt;stroke-linejoin:miter;stroke-opacity:1"/>
<path class="bond-4 atom-4 atom-5" d="M 130.9,176.2 L 118.1,185.2" style="fill:none;fill-rule:evenodd;stroke:#000000;stroke-width:2.0px;stroke-linecap:butt;stroke-linejoin:miter;stroke-opacity:1"/>
<path class="bond-5 atom-5 atom-6" d="M 104.3,181.7 L 81.4,148.9" style="fill:none;fill-rule:evenodd;stroke:#000000;stroke-width:2.0px;stroke-linecap:butt;stroke-linejoin:miter;stroke-opacity:1"/>
<path class="bond-6 atom-6 atom-7" d="M 81.4,148.9 L 30.9,153.2" style="fill:none;fill-rule:evenodd;stroke:#000000;stroke-width:2.0px;stroke-linecap:butt;stroke-linejoin:miter;stroke-opacity:1"/>
<path class="bond-7 atom-6 atom-8" d="M 81.4,148.9 L 102.9,103.0" style="fill:none;fill-rule:evenodd;stroke:#000000;stroke-width:2.0px;stroke-linecap:butt;stroke-linejoin:miter;stroke-opacity:1"/>
<path class="bond-8 atom-5 atom-9" d="M 116.5,199.3 L 139.4,232.1" style="fill:none;fill-rule:evenodd;stroke:#000000;stroke-width:2.0px;stroke-linecap:butt;stroke-linejoin:miter;stroke-opacity:1"/>
<path class="bond-9 atom-9 atom-10" d="M 139.4,232.1 L 172.2,237.3" style="fill:none;fill-rule:evenodd;stroke:#000000;stroke-width:2.0px;stroke-linecap:butt;stroke-linejoin:miter;stroke-opacity:1"/>
<path class="bond-10 atom-9 atom-11" d="M 139.4,232.1 L 117.9,278.0" style="fill:none;fill-rule:evenodd;stroke:#000000;stroke-width:2.0px;stroke-linecap:butt;stroke-linejoin:miter;stroke-opacity:1"/>
<path class="bond-11 atom-5 atom-12" d="M 102.7,195.8 L 68.8,219.5" style="fill:none;fill-rule:evenodd;stroke:#000000;stroke-width:2.0px;stroke-linecap:butt;stroke-linejoin:miter;stroke-opacity:1"/>
<path class="bond-12 atom-12 atom-13" d="M 68.8,219.5 L 73.1,270.0" style="fill:none;fill-rule:evenodd;stroke:#000000;stroke-width:2.0px;stroke-linecap:butt;stroke-linejoin:miter;stroke-opacity:1"/>
<path class="bond-13 atom-12 atom-14" d="M 68.8,219.5 L 22.9,198.0" style="fill:none;fill-rule:evenodd;stroke:#000000;stroke-width:2.0px;stroke-linecap:butt;stroke-linejoin:miter;stroke-opacity:1"/>
<path class="bond-14 atom-3 atom-15" d="M 197.8,183.0 L 199.6,203.8" style="fill:none;fill-rule:evenodd;stroke:#000000;stroke-width:2.0px;stroke-linecap:butt;stroke-linejoin:miter;stroke-opacity:1"/>
<path class="bond-14 atom-3 atom-15" d="M 199.6,203.8 L 201.4,224.6" style="fill:none;fill-rule:evenodd;stroke:#FF0000;stroke-width:2.0px;stroke-linecap:butt;stroke-linejoin:miter;stroke-opacity:1"/>
<path class="bond-15 atom-15 atom-16" d="M 210.4,237.4 L 229.2,246.2" style="fill:none;fill-rule:evenodd;stroke:#FF0000;stroke-width:2.0px;stroke-linecap:butt;stroke-linejoin:miter;stroke-opacity:1"/>
<path class="bond-15 atom-15 atom-16" d="M 229.2,246.2 L 248.0,255.0" style="fill:none;fill-rule:evenodd;stroke:#000000;stroke-width:2.0px;stroke-linecap:butt;stroke-linejoin:miter;stroke-opacity:1"/>
<path class="bond-16 atom-16 atom-17" d="M 248.0,255.0 L 289.6,226.0" style="fill:none;fill-rule:evenodd;stroke:#000000;stroke-width:2.0px;stroke-linecap:butt;stroke-linejoin:miter;stroke-opacity:1"/>
<path class="bond-17 atom-17 atom-18" d="M 289.6,226.0 L 335.5,247.6" style="fill:none;fill-rule:evenodd;stroke:#000000;stroke-width:2.0px;stroke-linecap:butt;stroke-linejoin:miter;stroke-opacity:1"/>
<path class="bond-17 atom-17 atom-18" d="M 300.8,220.1 L 332.9,235.2" style="fill:none;fill-rule:evenodd;stroke:#000000;stroke-width:2.0px;stroke-linecap:butt;stroke-linejoin:miter;stroke-opacity:1"/>
<path class="bond-18 atom-18 atom-19" d="M 335.5,247.6 L 377.1,218.6" style="fill:none;fill-rule:evenodd;stroke:#000000;stroke-width:2.0px;stroke-linecap:butt;stroke-linejoin:miter;stroke-opacity:1"/>
<path class="bond-19 atom-19 atom-20" d="M 377.1,218.6 L 372.7,168.1" style="fill:none;fill-rule:evenodd;stroke:#000000;stroke-width:2.0px;stroke-linecap:butt;stroke-linejoin:miter;stroke-opacity:1"/>
<path class="bond-19 atom-19 atom-20" d="M 366.3,211.9 L 363.3,176.5" style="fill:none;fill-rule:evenodd;stroke:#000000;stroke-width:2.0px;stroke-linecap:butt;stroke-linejoin:miter;stroke-opacity:1"/>
<path class="bond-20 atom-20 atom-21" d="M 372.7,168.1 L 326.9,146.6" style="fill:none;fill-rule:evenodd;stroke:#000000;stroke-width:2.0px;stroke-linecap:butt;stroke-linejoin:miter;stroke-opacity:1"/>
<path class="bond-21 atom-21 atom-22" d="M 326.9,146.6 L 285.3,175.6" style="fill:none;fill-rule:evenodd;stroke:#000000;stroke-width:2.0px;stroke-linecap:butt;stroke-linejoin:miter;stroke-opacity:1"/>
<path class="bond-21 atom-21 atom-22" d="M 326.4,159.2 L 297.3,179.5" style="fill:none;fill-rule:evenodd;stroke:#000000;stroke-width:2.0px;stroke-linecap:butt;stroke-linejoin:miter;stroke-opacity:1"/>
<path class="bond-22 atom-22 atom-2" d="M 285.3,175.6 L 239.4,154.0" style="fill:none;fill-rule:evenodd;stroke:#000000;stroke-width:2.0px;stroke-linecap:butt;stroke-linejoin:miter;stroke-opacity:1"/>
<path class="bond-23 atom-22 atom-17" d="M 285.3,175.6 L 289.6,226.0" style="fill:none;fill-rule:evenodd;stroke:#000000;stroke-width:2.0px;stroke-linecap:butt;stroke-linejoin:miter;stroke-opacity:1"/>
<path class="atom-4" d="M 145.4 161.6 Q 145.4 158.1, 147.1 156.2 Q 148.8 154.3, 152.0 154.3 Q 155.1 154.3, 156.8 156.2 Q 158.5 158.1, 158.5 161.6 Q 158.5 165.0, 156.8 167.0 Q 155.1 169.0, 152.0 169.0 Q 148.8 169.0, 147.1 167.0 Q 145.4 165.1, 145.4 161.6 M 152.0 167.4 Q 154.2 167.4, 155.3 165.9 Q 156.5 164.4, 156.5 161.6 Q 156.5 158.7, 155.3 157.3 Q 154.2 155.9, 152.0 155.9 Q 149.8 155.9, 148.6 157.3 Q 147.4 158.7, 147.4 161.6 Q 147.4 164.5, 148.6 165.9 Q 149.8 167.4, 152.0 167.4 " fill="#FF0000"/>
<path class="atom-5" d="M 104.9 195.4 Q 105.1 195.5, 105.8 195.8 Q 106.4 196.1, 107.2 196.3 Q 107.9 196.4, 108.6 196.4 Q 110.0 196.4, 110.8 195.8 Q 111.6 195.1, 111.6 193.9 Q 111.6 193.2, 111.2 192.7 Q 110.8 192.2, 110.2 191.9 Q 109.6 191.7, 108.6 191.4 Q 107.3 191.0, 106.5 190.6 Q 105.8 190.2, 105.2 189.5 Q 104.7 188.7, 104.7 187.4 Q 104.7 185.6, 105.9 184.5 Q 107.1 183.4, 109.6 183.4 Q 111.2 183.4, 113.1 184.2 L 112.7 185.7 Q 110.9 185.0, 109.6 185.0 Q 108.2 185.0, 107.5 185.6 Q 106.7 186.2, 106.7 187.2 Q 106.7 187.9, 107.1 188.4 Q 107.5 188.9, 108.1 189.1 Q 108.7 189.4, 109.6 189.7 Q 110.9 190.1, 111.7 190.5 Q 112.5 190.9, 113.0 191.7 Q 113.6 192.5, 113.6 193.9 Q 113.6 195.9, 112.2 197.0 Q 110.9 198.1, 108.7 198.1 Q 107.4 198.1, 106.5 197.8 Q 105.5 197.5, 104.4 197.0 L 104.9 195.4 " fill="#000000"/>
<path class="atom-5" d="M 114.5 183.3 L 116.4 183.3 L 116.4 185.1 L 114.5 185.1 L 114.5 183.3 M 114.5 187.3 L 116.4 187.3 L 116.4 197.7 L 114.5 197.7 L 114.5 187.3 " fill="#000000"/>
<path class="atom-15" d="M 195.6 233.6 Q 195.6 230.1, 197.3 228.2 Q 199.0 226.3, 202.2 226.3 Q 205.3 226.3, 207.0 228.2 Q 208.7 230.1, 208.7 233.6 Q 208.7 237.0, 207.0 239.0 Q 205.3 241.0, 202.2 241.0 Q 199.0 241.0, 197.3 239.0 Q 195.6 237.1, 195.6 233.6 M 202.2 239.4 Q 204.3 239.4, 205.5 237.9 Q 206.7 236.4, 206.7 233.6 Q 206.7 230.7, 205.5 229.3 Q 204.3 227.9, 202.2 227.9 Q 200.0 227.9, 198.8 229.3 Q 197.6 230.7, 197.6 233.6 Q 197.6 236.5, 198.8 237.9 Q 200.0 239.4, 202.2 239.4 " fill="#FF0000"/>
<path class="legend" d="M 167.3 365.4 L 167.4 366.5 Q 168.3 365.3, 169.7 365.3 Q 170.2 365.3, 170.8 365.4 L 170.5 366.8 Q 169.8 366.6, 169.5 366.6 Q 168.8 366.6, 168.3 366.9 Q 167.9 367.1, 167.6 367.8 L 167.6 373.6 L 166.0 373.6 L 166.0 365.4 L 167.3 365.4 " fill="#000000"/>
<path class="legend" d="M 171.0 369.5 Q 171.0 367.5, 172.0 366.4 Q 173.0 365.3, 174.9 365.3 Q 176.7 365.3, 177.5 366.4 Q 178.3 367.4, 178.3 369.5 L 178.3 369.7 L 172.5 369.7 Q 172.6 371.1, 173.2 371.8 Q 173.8 372.6, 175.0 372.6 Q 175.6 372.6, 176.2 372.4 Q 176.8 372.3, 177.5 372.0 L 178.0 373.0 Q 177.2 373.4, 176.4 373.6 Q 175.7 373.8, 174.9 373.8 Q 173.1 373.8, 172.0 372.6 Q 171.0 371.5, 171.0 369.5 M 174.9 366.4 Q 173.9 366.4, 173.3 367.0 Q 172.8 367.5, 172.6 368.6 L 176.7 368.6 Q 176.6 367.5, 176.1 367.0 Q 175.7 366.4, 174.9 366.4 " fill="#000000"/>
<path class="legend" d="M 178.9 371.4 Q 178.9 370.1, 180.0 369.4 Q 181.0 368.7, 182.9 368.7 L 184.2 368.7 L 184.2 368.3 Q 184.2 367.3, 183.7 366.9 Q 183.3 366.4, 182.3 366.4 Q 181.6 366.4, 181.1 366.6 Q 180.6 366.7, 179.8 367.0 L 179.4 366.0 Q 180.9 365.3, 182.3 365.3 Q 184.1 365.3, 184.9 366.0 Q 185.7 366.8, 185.7 368.4 L 185.7 373.6 L 184.5 373.6 Q 184.5 373.6, 184.4 373.3 Q 184.4 373.1, 184.3 372.7 Q 183.1 373.8, 181.6 373.8 Q 180.4 373.8, 179.6 373.2 Q 178.9 372.5, 178.9 371.4 M 180.4 371.4 Q 180.4 372.0, 180.8 372.3 Q 181.2 372.6, 181.9 372.6 Q 182.5 372.6, 183.1 372.4 Q 183.7 372.0, 184.2 371.5 L 184.2 369.8 L 183.0 369.8 Q 181.7 369.8, 181.1 370.2 Q 180.4 370.6, 180.4 371.4 " fill="#000000"/>
<path class="legend" d="M 186.9 369.5 Q 186.9 367.5, 187.9 366.4 Q 188.9 365.3, 190.8 365.3 Q 192.7 365.3, 193.7 366.6 L 192.7 367.4 Q 192.3 366.9, 191.8 366.7 Q 191.4 366.4, 190.8 366.4 Q 189.7 366.4, 189.1 367.2 Q 188.4 368.0, 188.4 369.5 Q 188.4 371.0, 189.1 371.8 Q 189.7 372.6, 190.9 372.6 Q 191.6 372.6, 192.1 372.4 Q 192.5 372.3, 193.1 372.0 L 193.5 373.0 Q 192.3 373.7, 190.8 373.7 Q 188.9 373.7, 187.9 372.6 Q 186.9 371.5, 186.9 369.5 " fill="#000000"/>
<path class="legend" d="M 194.1 366.6 L 194.1 365.4 L 195.6 365.4 L 195.9 363.0 L 197.0 363.0 L 197.0 365.4 L 199.5 365.4 L 199.5 366.6 L 197.0 366.6 L 197.0 371.1 Q 197.0 372.5, 198.2 372.5 Q 198.7 372.5, 199.4 372.3 L 199.6 373.4 Q 198.8 373.7, 197.9 373.7 Q 196.9 373.7, 196.2 373.1 Q 195.5 372.4, 195.5 371.2 L 195.5 366.6 L 194.1 366.6 " fill="#000000"/>
<path class="legend" d="M 208.2 374.4 L 208.2 375.7 L 200.0 375.7 L 200.0 374.4 L 208.2 374.4 " fill="#000000"/>
<path class="legend" d="M 213.6 367.7 Q 214.8 368.0, 215.3 368.7 Q 215.8 369.4, 215.8 370.5 Q 215.8 371.5, 215.3 372.2 Q 214.9 373.0, 214.0 373.4 Q 213.1 373.8, 212.0 373.8 Q 210.7 373.8, 209.8 373.4 Q 208.9 372.9, 208.2 372.1 L 209.1 371.2 Q 209.8 371.9, 210.4 372.2 Q 211.0 372.5, 212.0 372.5 Q 213.0 372.5, 213.6 372.0 Q 214.2 371.4, 214.2 370.5 Q 214.2 369.4, 213.6 368.8 Q 212.9 368.3, 211.5 368.3 L 210.7 368.3 L 210.7 367.2 L 211.4 367.2 Q 212.7 367.2, 213.3 366.6 Q 214.0 366.1, 214.0 365.1 Q 214.0 364.3, 213.4 363.9 Q 212.9 363.5, 212.0 363.5 Q 211.0 363.5, 210.4 363.8 Q 209.9 364.1, 209.4 365.0 L 208.3 364.4 Q 208.7 363.4, 209.7 362.8 Q 210.6 362.2, 212.0 362.2 Q 213.6 362.2, 214.6 363.0 Q 215.6 363.7, 215.6 365.1 Q 215.6 366.0, 215.1 366.6 Q 214.6 367.3, 213.6 367.7 " fill="#000000"/>
<path class="legend" d="M 220.9 373.8 Q 218.8 373.8, 217.8 372.2 Q 216.8 370.7, 216.8 368.0 Q 216.8 365.2, 217.8 363.7 Q 218.8 362.2, 220.9 362.2 Q 223.0 362.2, 224.0 363.7 Q 225.1 365.2, 225.1 368.0 Q 225.1 370.7, 224.0 372.2 Q 223.0 373.8, 220.9 373.8 M 220.9 372.5 Q 222.1 372.5, 222.8 371.3 Q 223.5 370.2, 223.5 368.0 Q 223.5 365.7, 222.8 364.6 Q 222.1 363.5, 220.9 363.5 Q 219.7 363.5, 219.0 364.6 Q 218.4 365.7, 218.4 368.0 Q 218.4 370.2, 219.0 371.3 Q 219.7 372.5, 220.9 372.5 " fill="#000000"/>
<path class="legend" d="M 229.9 362.2 Q 231.9 362.2, 232.9 363.6 Q 234.0 364.9, 234.0 367.6 Q 234.0 370.6, 232.7 372.2 Q 231.4 373.8, 229.0 373.8 Q 228.3 373.8, 227.7 373.6 Q 227.1 373.4, 226.5 373.1 L 227.2 372.0 Q 228.0 372.5, 229.0 372.5 Q 230.6 372.5, 231.4 371.5 Q 232.2 370.4, 232.3 368.3 Q 231.8 368.8, 231.0 369.1 Q 230.3 369.4, 229.5 369.4 Q 228.5 369.4, 227.7 368.9 Q 227.0 368.5, 226.5 367.7 Q 226.1 366.9, 226.1 366.0 Q 226.1 364.8, 226.6 364.0 Q 227.1 363.1, 227.9 362.7 Q 228.8 362.2, 229.9 362.2 M 227.7 365.9 Q 227.7 366.9, 228.3 367.5 Q 228.8 368.1, 229.8 368.1 Q 230.5 368.1, 231.2 367.8 Q 231.9 367.5, 232.3 367.1 Q 232.3 365.2, 231.7 364.3 Q 231.1 363.5, 229.9 363.5 Q 229.3 363.5, 228.8 363.8 Q 228.3 364.1, 228.0 364.7 Q 227.7 365.2, 227.7 365.9 " fill="#000000"/>
<path class="legend" d="M 137.4 383.8 Q 137.4 381.8, 138.4 380.7 Q 139.4 379.5, 141.4 379.5 Q 143.2 379.5, 144.2 380.9 L 143.2 381.6 Q 142.8 381.2, 142.4 380.9 Q 141.9 380.7, 141.4 380.7 Q 140.2 380.7, 139.6 381.5 Q 139.0 382.3, 139.0 383.8 Q 139.0 385.3, 139.6 386.1 Q 140.3 386.8, 141.5 386.8 Q 142.1 386.8, 142.6 386.7 Q 143.1 386.5, 143.6 386.3 L 144.1 387.3 Q 142.9 388.0, 141.4 388.0 Q 139.4 388.0, 138.4 386.9 Q 137.4 385.7, 137.4 383.8 " fill="#000000"/>
<path class="legend" d="M 144.6 383.8 Q 144.6 381.7, 145.6 380.6 Q 146.6 379.5, 148.5 379.5 Q 150.3 379.5, 151.1 380.6 Q 151.9 381.7, 151.9 383.7 L 151.9 384.0 L 146.1 384.0 Q 146.2 385.4, 146.8 386.1 Q 147.4 386.8, 148.6 386.8 Q 149.2 386.8, 149.8 386.7 Q 150.4 386.5, 151.1 386.2 L 151.6 387.2 Q 150.7 387.6, 150.0 387.8 Q 149.3 388.0, 148.5 388.0 Q 146.7 388.0, 145.6 386.9 Q 144.6 385.8, 144.6 383.8 M 148.5 380.7 Q 147.5 380.7, 146.9 381.2 Q 146.4 381.8, 146.2 382.8 L 150.3 382.8 Q 150.2 381.7, 149.7 381.2 Q 149.3 380.7, 148.5 380.7 " fill="#000000"/>
<path class="legend" d="M 156.8 379.5 Q 158.1 379.5, 158.8 380.3 Q 159.5 381.0, 159.5 382.4 L 159.5 387.9 L 158.0 387.9 L 158.0 382.6 Q 158.0 381.6, 157.6 381.2 Q 157.2 380.7, 156.4 380.7 Q 155.6 380.7, 155.0 381.1 Q 154.4 381.4, 154.0 382.0 L 154.0 387.9 L 152.5 387.9 L 152.5 379.7 L 153.7 379.7 L 153.9 380.8 Q 155.0 379.5, 156.8 379.5 " fill="#000000"/>
<path class="legend" d="M 160.7 380.8 L 160.7 379.7 L 162.3 379.7 L 162.5 377.3 L 163.7 377.3 L 163.7 379.7 L 166.2 379.7 L 166.2 380.8 L 163.7 380.8 L 163.7 385.4 Q 163.7 386.8, 164.9 386.8 Q 165.3 386.8, 166.0 386.6 L 166.3 387.6 Q 165.4 388.0, 164.6 388.0 Q 163.5 388.0, 162.8 387.3 Q 162.2 386.7, 162.2 385.4 L 162.2 380.8 L 160.7 380.8 " fill="#000000"/>
<path class="legend" d="M 174.9 388.7 L 174.9 390.0 L 166.7 390.0 L 166.7 388.7 L 174.9 388.7 " fill="#000000"/>
<path class="legend" d="M 182.3 375.7 L 182.3 387.9 L 181.1 387.9 L 180.9 386.9 Q 180.0 388.0, 178.5 388.0 Q 176.8 388.0, 175.8 387.0 Q 174.9 385.9, 174.9 383.9 Q 174.9 381.8, 176.0 380.7 Q 177.1 379.5, 179.1 379.5 Q 179.9 379.5, 180.8 379.7 L 180.8 375.7 L 182.3 375.7 M 178.6 386.8 Q 179.4 386.8, 180.0 386.4 Q 180.6 385.9, 180.8 385.1 L 180.8 380.9 Q 180.0 380.7, 179.1 380.7 Q 177.8 380.7, 177.1 381.6 Q 176.4 382.4, 176.4 383.9 Q 176.4 385.3, 177.0 386.1 Q 177.5 386.8, 178.6 386.8 " fill="#000000"/>
<path class="legend" d="M 183.6 376.6 L 185.1 376.6 L 185.1 378.0 L 183.6 378.0 L 183.6 376.6 M 183.6 379.7 L 185.1 379.7 L 185.1 387.9 L 183.6 387.9 L 183.6 379.7 " fill="#000000"/>
<path class="legend" d="M 186.9 386.2 Q 187.6 386.5, 188.2 386.6 Q 188.7 386.8, 189.2 386.8 Q 190.0 386.8, 190.4 386.5 Q 190.8 386.2, 190.8 385.6 Q 190.8 385.2, 190.6 385.0 Q 190.3 384.8, 190.1 384.6 Q 189.8 384.5, 189.1 384.3 Q 189.0 384.3, 188.3 384.0 Q 187.5 383.7, 187.1 383.2 Q 186.7 382.7, 186.7 381.9 Q 186.7 380.9, 187.5 380.2 Q 188.3 379.5, 189.8 379.5 Q 190.4 379.5, 190.9 379.7 Q 191.5 379.8, 192.1 380.0 L 191.7 381.2 Q 191.2 381.0, 190.7 380.9 Q 190.3 380.8, 189.8 380.8 Q 189.0 380.8, 188.6 381.1 Q 188.2 381.4, 188.2 381.8 Q 188.2 382.3, 188.5 382.5 Q 188.8 382.7, 189.5 383.0 Q 189.7 383.0, 189.8 383.1 L 190.2 383.2 Q 190.9 383.4, 191.3 383.7 Q 191.7 383.9, 192.0 384.4 Q 192.3 384.8, 192.3 385.6 Q 192.3 386.7, 191.4 387.4 Q 190.6 388.0, 189.3 388.0 Q 188.5 388.0, 187.8 387.9 Q 187.1 387.7, 186.5 387.4 L 186.9 386.2 " fill="#000000"/>
<path class="legend" d="M 193.1 380.8 L 193.1 379.7 L 194.7 379.7 L 195.0 377.3 L 196.1 377.3 L 196.1 379.7 L 198.6 379.7 L 198.6 380.8 L 196.1 380.8 L 196.1 385.4 Q 196.1 386.8, 197.3 386.8 Q 197.8 386.8, 198.5 386.6 L 198.7 387.6 Q 197.8 388.0, 197.0 388.0 Q 195.9 388.0, 195.2 387.3 Q 194.6 386.7, 194.6 385.4 L 194.6 380.8 L 193.1 380.8 " fill="#000000"/>
<path class="legend" d="" fill="#000000"/>
<path class="legend" d="M 204.4 380.9 L 211.8 380.9 L 211.8 382.1 L 204.4 382.1 L 204.4 380.9 M 204.4 384.4 L 211.8 384.4 L 211.8 385.5 L 204.4 385.5 L 204.4 384.4 " fill="#000000"/>
<path class="legend" d="" fill="#000000"/>
<path class="legend" d="M 219.2 386.6 L 221.7 386.6 L 221.7 378.1 L 218.9 379.0 L 218.6 378.0 L 222.0 376.5 L 223.2 376.7 L 223.2 386.6 L 225.4 386.6 L 225.4 387.9 L 219.2 387.9 L 219.2 386.6 " fill="#000000"/>
<path class="legend" d="M 226.1 386.3 L 227.7 386.3 L 227.7 387.9 L 226.1 387.9 L 226.1 386.3 " fill="#000000"/>
<path class="legend" d="M 229.3 386.6 L 231.8 386.6 L 231.8 378.1 L 229.1 379.0 L 228.7 378.0 L 232.2 376.5 L 233.3 376.7 L 233.3 386.6 L 235.5 386.6 L 235.5 387.9 L 229.3 387.9 L 229.3 386.6 " fill="#000000"/>
<path class="legend" d="M 243.6 384.0 L 244.9 384.0 L 244.9 385.3 L 243.6 385.3 L 243.6 387.9 L 242.1 387.9 L 242.1 385.3 L 236.2 385.3 L 236.2 384.3 L 241.2 376.6 L 243.6 376.6 L 243.6 384.0 M 238.1 384.0 L 242.1 384.0 L 242.1 377.6 L 238.1 384.0 " fill="#000000"/>
<path class="legend" d="M 249.9 388.0 Q 247.8 388.0, 246.7 386.5 Q 245.7 384.9, 245.7 382.2 Q 245.7 379.5, 246.7 378.0 Q 247.8 376.4, 249.9 376.4 Q 252.0 376.4, 253.0 378.0 Q 254.0 379.5, 254.0 382.2 Q 254.0 384.9, 253.0 386.5 Q 251.9 388.0, 249.9 388.0 M 249.9 386.7 Q 251.1 386.7, 251.7 385.6 Q 252.4 384.4, 252.4 382.2 Q 252.4 380.0, 251.7 378.8 Q 251.1 377.7, 249.9 377.7 Q 248.6 377.7, 248.0 378.8 Q 247.3 380.0, 247.3 382.2 Q 247.3 384.4, 248.0 385.6 Q 248.6 386.7, 249.9 386.7 " fill="#000000"/>
<path class="legend" d="M 261.0 377.8 L 255.0 377.8 L 255.0 376.6 L 262.6 376.6 L 262.6 377.7 L 258.0 387.9 L 256.5 387.9 L 261.0 377.8 " fill="#000000"/>
<path class="bond-0 atom-0 atom-1" d="M 581.6,93.6 L 629.4,110.5" style="fill:none;fill-rule:evenodd;stroke:#000000;stroke-width:2.0px;stroke-linecap:butt;stroke-linejoin:miter;stroke-opacity:1"/>
<path class="bond-1 atom-1 atom-2" d="M 629.4,110.5 L 638.6,160.3" style="fill:none;fill-rule:evenodd;stroke:#000000;stroke-width:2.0px;stroke-linecap:butt;stroke-linejoin:miter;stroke-opacity:1"/>
<path class="bond-2 atom-2 atom-3" d="M 638.6,160.3 L 600.0,193.2" style="fill:none;fill-rule:evenodd;stroke:#000000;stroke-width:2.0px;stroke-linecap:butt;stroke-linejoin:miter;stroke-opacity:1"/>
<path class="bond-2 atom-2 atom-3" d="M 639.4,173.0 L 612.4,196.0" style="fill:none;fill-rule:evenodd;stroke:#000000;stroke-width:2.0px;stroke-linecap:butt;stroke-linejoin:miter;stroke-opacity:1"/>
<path class="bond-3 atom-3 atom-4" d="M 600.0,193.2 L 580.3,186.2" style="fill:none;fill-rule:evenodd;stroke:#000000;stroke-width:2.0px;stroke-linecap:butt;stroke-linejoin:miter;stroke-opacity:1"/>
<path class="bond-3 atom-3 atom-4" d="M 580.3,186.2 L 560.5,179.2" style="fill:none;fill-rule:evenodd;stroke:#FF0000;stroke-width:2.0px;stroke-linecap:butt;stroke-linejoin:miter;stroke-opacity:1"/>
<path class="bond-4 atom-4 atom-5" d="M 544.0,183.3 L 528.8,196.2" style="fill:none;fill-rule:evenodd;stroke:#FF0000;stroke-width:2.0px;stroke-linecap:butt;stroke-linejoin:miter;stroke-opacity:1"/>
<path class="bond-4 atom-4 atom-5" d="M 528.8,196.2 L 513.7,209.1" style="fill:none;fill-rule:evenodd;stroke:#000000;stroke-width:2.0px;stroke-linecap:butt;stroke-linejoin:miter;stroke-opacity:1"/>
<path class="bond-5 atom-5 atom-6" d="M 518.7,208.2 L 522.4,228.7" style="fill:none;fill-rule:evenodd;stroke:#000000;stroke-width:2.0px;stroke-linecap:butt;stroke-linejoin:miter;stroke-opacity:1"/>
<path class="bond-5 atom-5 atom-6" d="M 522.4,228.7 L 526.2,249.1" style="fill:none;fill-rule:evenodd;stroke:#FF0000;stroke-width:2.0px;stroke-linecap:butt;stroke-linejoin:miter;stroke-opacity:1"/>
<path class="bond-5 atom-5 atom-6" d="M 508.7,210.1 L 512.5,230.5" style="fill:none;fill-rule:evenodd;stroke:#000000;stroke-width:2.0px;stroke-linecap:butt;stroke-linejoin:miter;stroke-opacity:1"/>
<path class="bond-5 atom-5 atom-6" d="M 512.5,230.5 L 516.2,251.0" style="fill:none;fill-rule:evenodd;stroke:#FF0000;stroke-width:2.0px;stroke-linecap:butt;stroke-linejoin:miter;stroke-opacity:1"/>
<path class="bond-6 atom-5 atom-7" d="M 513.7,209.1 L 465.9,192.2" style="fill:none;fill-rule:evenodd;stroke:#000000;stroke-width:2.0px;stroke-linecap:butt;stroke-linejoin:miter;stroke-opacity:1"/>
<path class="bond-7 atom-7 atom-8" d="M 465.9,192.2 L 449.0,239.9" style="fill:none;fill-rule:evenodd;stroke:#000000;stroke-width:2.0px;stroke-linecap:butt;stroke-linejoin:miter;stroke-opacity:1"/>
<path class="bond-8 atom-7 atom-9" d="M 465.9,192.2 L 482.9,144.4" style="fill:none;fill-rule:evenodd;stroke:#000000;stroke-width:2.0px;stroke-linecap:butt;stroke-linejoin:miter;stroke-opacity:1"/>
<path class="bond-9 atom-7 atom-10" d="M 465.9,192.2 L 418.2,175.2" style="fill:none;fill-rule:evenodd;stroke:#000000;stroke-width:2.0px;stroke-linecap:butt;stroke-linejoin:miter;stroke-opacity:1"/>
<path class="bond-10 atom-3 atom-11" d="M 600.0,193.2 L 603.8,213.7" style="fill:none;fill-rule:evenodd;stroke:#000000;stroke-width:2.0px;stroke-linecap:butt;stroke-linejoin:miter;stroke-opacity:1"/>
<path class="bond-10 atom-3 atom-11" d="M 603.8,213.7 L 607.5,234.1" style="fill:none;fill-rule:evenodd;stroke:#FF0000;stroke-width:2.0px;stroke-linecap:butt;stroke-linejoin:miter;stroke-opacity:1"/>
<path class="bond-11 atom-11 atom-12" d="M 617.4,246.0 L 637.2,253.0" style="fill:none;fill-rule:evenodd;stroke:#FF0000;stroke-width:2.0px;stroke-linecap:butt;stroke-linejoin:miter;stroke-opacity:1"/>
<path class="bond-11 atom-11 atom-12" d="M 637.2,253.0 L 656.9,260.0" style="fill:none;fill-rule:evenodd;stroke:#000000;stroke-width:2.0px;stroke-linecap:butt;stroke-linejoin:miter;stroke-opacity:1"/>
<path class="bond-12 atom-12 atom-13" d="M 656.9,260.0 L 695.5,227.1" style="fill:none;fill-rule:evenodd;stroke:#000000;stroke-width:2.0px;stroke-linecap:butt;stroke-linejoin:miter;stroke-opacity:1"/>
<path class="bond-13 atom-13 atom-14" d="M 695.5,227.1 L 743.3,244.1" style="fill:none;fill-rule:evenodd;stroke:#000000;stroke-width:2.0px;stroke-linecap:butt;stroke-linejoin:miter;stroke-opacity:1"/>
<path class="bond-13 atom-13 atom-14" d="M 706.1,220.1 L 739.5,232.0" style="fill:none;fill-rule:evenodd;stroke:#000000;stroke-width:2.0px;stroke-linecap:butt;stroke-linejoin:miter;stroke-opacity:1"/>
<path class="bond-14 atom-14 atom-15" d="M 743.3,244.1 L 781.8,211.2" style="fill:none;fill-rule:evenodd;stroke:#000000;stroke-width:2.0px;stroke-linecap:butt;stroke-linejoin:miter;stroke-opacity:1"/>
<path class="bond-15 atom-15 atom-16" d="M 781.8,211.2 L 772.6,161.4" style="fill:none;fill-rule:evenodd;stroke:#000000;stroke-width:2.0px;stroke-linecap:butt;stroke-linejoin:miter;stroke-opacity:1"/>
<path class="bond-15 atom-15 atom-16" d="M 770.5,205.6 L 764.0,170.7" style="fill:none;fill-rule:evenodd;stroke:#000000;stroke-width:2.0px;stroke-linecap:butt;stroke-linejoin:miter;stroke-opacity:1"/>
<path class="bond-16 atom-16 atom-17" d="M 772.6,161.4 L 724.9,144.4" style="fill:none;fill-rule:evenodd;stroke:#000000;stroke-width:2.0px;stroke-linecap:butt;stroke-linejoin:miter;stroke-opacity:1"/>
<path class="bond-17 atom-17 atom-18" d="M 724.9,144.4 L 686.3,177.3" style="fill:none;fill-rule:evenodd;stroke:#000000;stroke-width:2.0px;stroke-linecap:butt;stroke-linejoin:miter;stroke-opacity:1"/>
<path class="bond-17 atom-17 atom-18" d="M 725.7,157.1 L 698.7,180.1" style="fill:none;fill-rule:evenodd;stroke:#000000;stroke-width:2.0px;stroke-linecap:butt;stroke-linejoin:miter;stroke-opacity:1"/>
<path class="bond-18 atom-18 atom-2" d="M 686.3,177.3 L 638.6,160.3" style="fill:none;fill-rule:evenodd;stroke:#000000;stroke-width:2.0px;stroke-linecap:butt;stroke-linejoin:miter;stroke-opacity:1"/>
<path class="bond-19 atom-18 atom-13" d="M 686.3,177.3 L 695.5,227.1" style="fill:none;fill-rule:evenodd;stroke:#000000;stroke-width:2.0px;stroke-linecap:butt;stroke-linejoin:miter;stroke-opacity:1"/>
<path class="atom-4" d="M 545.7 176.3 Q 545.7 172.9, 547.4 170.9 Q 549.1 169.0, 552.2 169.0 Q 555.4 169.0, 557.1 170.9 Q 558.8 172.9, 558.8 176.3 Q 558.8 179.8, 557.1 181.8 Q 555.4 183.7, 552.2 183.7 Q 549.1 183.7, 547.4 181.8 Q 545.7 179.8, 545.7 176.3 M 552.2 182.1 Q 554.4 182.1, 555.6 180.7 Q 556.8 179.2, 556.8 176.3 Q 556.8 173.5, 555.6 172.1 Q 554.4 170.6, 552.2 170.6 Q 550.1 170.6, 548.9 172.0 Q 547.7 173.5, 547.7 176.3 Q 547.7 179.2, 548.9 180.7 Q 550.1 182.1, 552.2 182.1 " fill="#FF0000"/>
<path class="atom-6" d="M 516.3 259.0 Q 516.3 255.6, 518.0 253.6 Q 519.7 251.7, 522.9 251.7 Q 526.1 251.7, 527.8 253.6 Q 529.5 255.6, 529.5 259.0 Q 529.5 262.5, 527.7 264.5 Q 526.0 266.4, 522.9 266.4 Q 519.7 266.4, 518.0 264.5 Q 516.3 262.5, 516.3 259.0 M 522.9 264.8 Q 525.1 264.8, 526.2 263.4 Q 527.4 261.9, 527.4 259.0 Q 527.4 256.2, 526.2 254.8 Q 525.1 253.3, 522.9 253.3 Q 520.7 253.3, 519.5 254.8 Q 518.3 256.2, 518.3 259.0 Q 518.3 261.9, 519.5 263.4 Q 520.7 264.8, 522.9 264.8 " fill="#FF0000"/>
<path class="atom-11" d="M 602.6 243.1 Q 602.6 239.6, 604.3 237.7 Q 606.0 235.8, 609.2 235.8 Q 612.4 235.8, 614.1 237.7 Q 615.8 239.6, 615.8 243.1 Q 615.8 246.6, 614.1 248.6 Q 612.3 250.5, 609.2 250.5 Q 606.0 250.5, 604.3 248.6 Q 602.6 246.6, 602.6 243.1 M 609.2 248.9 Q 611.4 248.9, 612.6 247.5 Q 613.7 246.0, 613.7 243.1 Q 613.7 240.3, 612.6 238.9 Q 611.4 237.4, 609.2 237.4 Q 607.0 237.4, 605.8 238.8 Q 604.6 240.3, 604.6 243.1 Q 604.6 246.0, 605.8 247.5 Q 607.0 248.9, 609.2 248.9 " fill="#FF0000"/>
<path class="legend" d="M 567.3 365.4 L 567.4 366.5 Q 568.3 365.3, 569.7 365.3 Q 570.2 365.3, 570.8 365.4 L 570.5 366.8 Q 569.8 366.6, 569.5 366.6 Q 568.8 366.6, 568.3 366.9 Q 567.9 367.1, 567.6 367.8 L 567.6 373.6 L 566.0 373.6 L 566.0 365.4 L 567.3 365.4 " fill="#000000"/>
<path class="legend" d="M 571.0 369.5 Q 571.0 367.5, 572.0 366.4 Q 573.0 365.3, 574.9 365.3 Q 576.7 365.3, 577.5 366.4 Q 578.3 367.4, 578.3 369.5 L 578.3 369.7 L 572.5 369.7 Q 572.6 371.1, 573.2 371.8 Q 573.8 372.6, 575.0 372.6 Q 575.6 372.6, 576.2 372.4 Q 576.8 372.3, 577.5 372.0 L 578.0 373.0 Q 577.2 373.4, 576.4 373.6 Q 575.7 373.8, 574.9 373.8 Q 573.1 373.8, 572.0 372.6 Q 571.0 371.5, 571.0 369.5 M 574.9 366.4 Q 573.9 366.4, 573.3 367.0 Q 572.8 367.5, 572.6 368.6 L 576.7 368.6 Q 576.6 367.5, 576.1 367.0 Q 575.7 366.4, 574.9 366.4 " fill="#000000"/>
<path class="legend" d="M 578.9 371.4 Q 578.9 370.1, 580.0 369.4 Q 581.0 368.7, 582.9 368.7 L 584.2 368.7 L 584.2 368.3 Q 584.2 367.3, 583.7 366.9 Q 583.3 366.4, 582.3 366.4 Q 581.6 366.4, 581.1 366.6 Q 580.6 366.7, 579.8 367.0 L 579.4 366.0 Q 580.9 365.3, 582.3 365.3 Q 584.1 365.3, 584.9 366.0 Q 585.7 366.8, 585.7 368.4 L 585.7 373.6 L 584.5 373.6 Q 584.5 373.6, 584.4 373.3 Q 584.4 373.1, 584.3 372.7 Q 583.1 373.8, 581.6 373.8 Q 580.4 373.8, 579.6 373.2 Q 578.9 372.5, 578.9 371.4 M 580.4 371.4 Q 580.4 372.0, 580.8 372.3 Q 581.2 372.6, 581.9 372.6 Q 582.5 372.6, 583.1 372.4 Q 583.7 372.0, 584.2 371.5 L 584.2 369.8 L 583.0 369.8 Q 581.7 369.8, 581.1 370.2 Q 580.4 370.6, 580.4 371.4 " fill="#000000"/>
<path class="legend" d="M 586.9 369.5 Q 586.9 367.5, 587.9 366.4 Q 588.9 365.3, 590.8 365.3 Q 592.7 365.3, 593.7 366.6 L 592.7 367.4 Q 592.3 366.9, 591.8 366.7 Q 591.4 366.4, 590.8 366.4 Q 589.7 366.4, 589.1 367.2 Q 588.4 368.0, 588.4 369.5 Q 588.4 371.0, 589.1 371.8 Q 589.7 372.6, 590.9 372.6 Q 591.6 372.6, 592.1 372.4 Q 592.5 372.3, 593.1 372.0 L 593.5 373.0 Q 592.3 373.7, 590.8 373.7 Q 588.9 373.7, 587.9 372.6 Q 586.9 371.5, 586.9 369.5 " fill="#000000"/>
<path class="legend" d="M 594.1 366.6 L 594.1 365.4 L 595.6 365.4 L 595.9 363.0 L 597.0 363.0 L 597.0 365.4 L 599.5 365.4 L 599.5 366.6 L 597.0 366.6 L 597.0 371.1 Q 597.0 372.5, 598.2 372.5 Q 598.7 372.5, 599.4 372.3 L 599.6 373.4 Q 598.8 373.7, 597.9 373.7 Q 596.9 373.7, 596.2 373.1 Q 595.5 372.4, 595.5 371.2 L 595.5 366.6 L 594.1 366.6 " fill="#000000"/>
<path class="legend" d="M 608.2 374.4 L 608.2 375.7 L 600.0 375.7 L 600.0 374.4 L 608.2 374.4 " fill="#000000"/>
<path class="legend" d="M 613.6 367.7 Q 614.8 368.0, 615.3 368.7 Q 615.8 369.4, 615.8 370.5 Q 615.8 371.5, 615.3 372.2 Q 614.9 373.0, 614.0 373.4 Q 613.1 373.8, 612.0 373.8 Q 610.7 373.8, 609.8 373.4 Q 608.9 372.9, 608.2 372.1 L 609.1 371.2 Q 609.8 371.9, 610.4 372.2 Q 611.0 372.5, 612.0 372.5 Q 613.0 372.5, 613.6 372.0 Q 614.2 371.4, 614.2 370.5 Q 614.2 369.4, 613.6 368.8 Q 612.9 368.3, 611.5 368.3 L 610.7 368.3 L 610.7 367.2 L 611.4 367.2 Q 612.7 367.2, 613.3 366.6 Q 614.0 366.1, 614.0 365.1 Q 614.0 364.3, 613.4 363.9 Q 612.9 363.5, 612.0 363.5 Q 611.0 363.5, 610.4 363.8 Q 609.9 364.1, 609.4 365.0 L 608.3 364.4 Q 608.7 363.4, 609.7 362.8 Q 610.6 362.2, 612.0 362.2 Q 613.6 362.2, 614.6 363.0 Q 615.6 363.7, 615.6 365.1 Q 615.6 366.0, 615.1 366.6 Q 614.6 367.3, 613.6 367.7 " fill="#000000"/>
<path class="legend" d="M 620.9 373.8 Q 618.8 373.8, 617.8 372.2 Q 616.8 370.7, 616.8 368.0 Q 616.8 365.2, 617.8 363.7 Q 618.8 362.2, 620.9 362.2 Q 623.0 362.2, 624.0 363.7 Q 625.1 365.2, 625.1 368.0 Q 625.1 370.7, 624.0 372.2 Q 623.0 373.8, 620.9 373.8 M 620.9 372.5 Q 622.1 372.5, 622.8 371.3 Q 623.5 370.2, 623.5 368.0 Q 623.5 365.7, 622.8 364.6 Q 622.1 363.5, 620.9 363.5 Q 619.7 363.5, 619.0 364.6 Q 618.4 365.7, 618.4 368.0 Q 618.4 370.2, 619.0 371.3 Q 619.7 372.5, 620.9 372.5 " fill="#000000"/>
<path class="legend" d="M 630.5 366.6 Q 631.5 366.6, 632.3 367.0 Q 633.1 367.4, 633.5 368.2 Q 634.0 369.0, 634.0 370.0 Q 634.0 371.1, 633.5 372.0 Q 633.0 372.8, 632.1 373.3 Q 631.2 373.8, 630.1 373.8 Q 628.1 373.8, 627.1 372.4 Q 626.1 371.0, 626.1 368.3 Q 626.1 365.3, 627.3 363.7 Q 628.6 362.2, 631.0 362.2 Q 631.7 362.2, 632.3 362.3 Q 632.9 362.5, 633.5 362.8 L 632.9 363.9 Q 632.0 363.5, 631.0 363.5 Q 629.4 363.5, 628.6 364.5 Q 627.8 365.5, 627.7 367.6 Q 628.3 367.1, 629.0 366.8 Q 629.7 366.6, 630.5 366.6 M 630.2 372.4 Q 630.8 372.4, 631.3 372.1 Q 631.8 371.8, 632.1 371.2 Q 632.4 370.7, 632.4 370.0 Q 632.4 369.0, 631.8 368.4 Q 631.2 367.8, 630.2 367.8 Q 629.6 367.8, 628.9 368.1 Q 628.2 368.4, 627.7 368.9 Q 627.8 370.8, 628.4 371.6 Q 629.0 372.4, 630.2 372.4 " fill="#000000"/>
<path class="legend" d="M 536.9 383.8 Q 536.9 381.8, 537.9 380.7 Q 538.9 379.5, 540.9 379.5 Q 542.7 379.5, 543.7 380.9 L 542.7 381.6 Q 542.3 381.2, 541.9 380.9 Q 541.4 380.7, 540.9 380.7 Q 539.7 380.7, 539.1 381.5 Q 538.5 382.3, 538.5 383.8 Q 538.5 385.3, 539.1 386.1 Q 539.7 386.8, 540.9 386.8 Q 541.6 386.8, 542.1 386.7 Q 542.5 386.5, 543.1 386.3 L 543.5 387.3 Q 542.4 388.0, 540.8 388.0 Q 538.9 388.0, 537.9 386.9 Q 536.9 385.7, 536.9 383.8 " fill="#000000"/>
<path class="legend" d="M 544.1 383.8 Q 544.1 381.7, 545.1 380.6 Q 546.1 379.5, 547.9 379.5 Q 549.7 379.5, 550.5 380.6 Q 551.4 381.7, 551.4 383.7 L 551.4 384.0 L 545.6 384.0 Q 545.7 385.4, 546.3 386.1 Q 546.9 386.8, 548.1 386.8 Q 548.7 386.8, 549.3 386.7 Q 549.9 386.5, 550.6 386.2 L 551.0 387.2 Q 550.2 387.6, 549.5 387.8 Q 548.8 388.0, 548.0 388.0 Q 546.1 388.0, 545.1 386.9 Q 544.1 385.8, 544.1 383.8 M 547.9 380.7 Q 547.0 380.7, 546.4 381.2 Q 545.9 381.8, 545.7 382.8 L 549.8 382.8 Q 549.7 381.7, 549.2 381.2 Q 548.8 380.7, 547.9 380.7 " fill="#000000"/>
<path class="legend" d="M 556.3 379.5 Q 557.6 379.5, 558.3 380.3 Q 559.0 381.0, 559.0 382.4 L 559.0 387.9 L 557.5 387.9 L 557.5 382.6 Q 557.5 381.6, 557.1 381.2 Q 556.7 380.7, 555.9 380.7 Q 555.1 380.7, 554.5 381.1 Q 553.9 381.4, 553.5 382.0 L 553.5 387.9 L 552.0 387.9 L 552.0 379.7 L 553.2 379.7 L 553.4 380.8 Q 554.5 379.5, 556.3 379.5 " fill="#000000"/>
<path class="legend" d="M 560.2 380.8 L 560.2 379.7 L 561.8 379.7 L 562.0 377.3 L 563.1 377.3 L 563.1 379.7 L 565.7 379.7 L 565.7 380.8 L 563.1 380.8 L 563.1 385.4 Q 563.1 386.8, 564.3 386.8 Q 564.8 386.8, 565.5 386.6 L 565.8 387.6 Q 564.9 388.0, 564.1 388.0 Q 563.0 388.0, 562.3 387.3 Q 561.6 386.7, 561.6 385.4 L 561.6 380.8 L 560.2 380.8 " fill="#000000"/>
<path class="legend" d="M 574.3 388.7 L 574.3 390.0 L 566.2 390.0 L 566.2 388.7 L 574.3 388.7 " fill="#000000"/>
<path class="legend" d="M 581.8 375.7 L 581.8 387.9 L 580.6 387.9 L 580.4 386.9 Q 579.5 388.0, 578.0 388.0 Q 576.2 388.0, 575.3 387.0 Q 574.3 385.9, 574.3 383.9 Q 574.3 381.8, 575.5 380.7 Q 576.6 379.5, 578.6 379.5 Q 579.4 379.5, 580.3 379.7 L 580.3 375.7 L 581.8 375.7 M 578.1 386.8 Q 578.9 386.8, 579.5 386.4 Q 580.1 385.9, 580.3 385.1 L 580.3 380.9 Q 579.5 380.7, 578.6 380.7 Q 577.3 380.7, 576.6 381.6 Q 575.9 382.4, 575.9 383.9 Q 575.9 385.3, 576.4 386.1 Q 577.0 386.8, 578.1 386.8 " fill="#000000"/>
<path class="legend" d="M 583.1 376.6 L 584.6 376.6 L 584.6 378.0 L 583.1 378.0 L 583.1 376.6 M 583.1 379.7 L 584.6 379.7 L 584.6 387.9 L 583.1 387.9 L 583.1 379.7 " fill="#000000"/>
<path class="legend" d="M 586.4 386.2 Q 587.1 386.5, 587.6 386.6 Q 588.2 386.8, 588.7 386.8 Q 589.4 386.8, 589.8 386.5 Q 590.3 386.2, 590.3 385.6 Q 590.3 385.2, 590.0 385.0 Q 589.8 384.8, 589.6 384.6 Q 589.3 384.5, 588.6 384.3 Q 588.5 384.3, 587.7 384.0 Q 587.0 383.7, 586.6 383.2 Q 586.2 382.7, 586.2 381.9 Q 586.2 380.9, 587.0 380.2 Q 587.7 379.5, 589.2 379.5 Q 589.9 379.5, 590.4 379.7 Q 591.0 379.8, 591.6 380.0 L 591.2 381.2 Q 590.6 381.0, 590.2 380.9 Q 589.7 380.8, 589.2 380.8 Q 588.5 380.8, 588.1 381.1 Q 587.7 381.4, 587.7 381.8 Q 587.7 382.3, 588.0 382.5 Q 588.3 382.7, 589.0 383.0 Q 589.2 383.0, 589.3 383.1 L 589.7 383.2 Q 590.4 383.4, 590.8 383.7 Q 591.2 383.9, 591.5 384.4 Q 591.8 384.8, 591.8 385.6 Q 591.8 386.7, 590.9 387.4 Q 590.1 388.0, 588.7 388.0 Q 588.0 388.0, 587.3 387.9 Q 586.6 387.7, 585.9 387.4 L 586.4 386.2 " fill="#000000"/>
<path class="legend" d="M 592.6 380.8 L 592.6 379.7 L 594.2 379.7 L 594.4 377.3 L 595.6 377.3 L 595.6 379.7 L 598.1 379.7 L 598.1 380.8 L 595.6 380.8 L 595.6 385.4 Q 595.6 386.8, 596.8 386.8 Q 597.2 386.8, 597.9 386.6 L 598.2 387.6 Q 597.3 388.0, 596.5 388.0 Q 595.4 388.0, 594.7 387.3 Q 594.1 386.7, 594.1 385.4 L 594.1 380.8 L 592.6 380.8 " fill="#000000"/>
<path class="legend" d="" fill="#000000"/>
<path class="legend" d="M 603.9 380.9 L 611.3 380.9 L 611.3 382.1 L 603.9 382.1 L 603.9 380.9 M 603.9 384.4 L 611.3 384.4 L 611.3 385.5 L 603.9 385.5 L 603.9 384.4 " fill="#000000"/>
<path class="legend" d="" fill="#000000"/>
<path class="legend" d="M 618.7 386.6 L 621.1 386.6 L 621.1 378.1 L 618.4 379.0 L 618.0 378.0 L 621.5 376.5 L 622.7 376.7 L 622.7 386.6 L 624.9 386.6 L 624.9 387.9 L 618.7 387.9 L 618.7 386.6 " fill="#000000"/>
<path class="legend" d="M 625.5 386.3 L 627.1 386.3 L 627.1 387.9 L 625.5 387.9 L 625.5 386.3 " fill="#000000"/>
<path class="legend" d="M 635.5 384.0 L 636.9 384.0 L 636.9 385.3 L 635.5 385.3 L 635.5 387.9 L 634.0 387.9 L 634.0 385.3 L 628.2 385.3 L 628.2 384.3 L 633.1 376.6 L 635.5 376.6 L 635.5 384.0 M 630.0 384.0 L 634.0 384.0 L 634.0 377.6 L 630.0 384.0 " fill="#000000"/>
<path class="legend" d="M 637.7 378.7 Q 638.1 377.6, 639.1 377.0 Q 640.1 376.4, 641.5 376.4 Q 643.2 376.4, 644.2 377.4 Q 645.1 378.3, 645.1 379.9 Q 645.1 381.6, 643.9 383.2 Q 642.7 384.8, 640.1 386.6 L 645.3 386.6 L 645.3 387.9 L 637.7 387.9 L 637.7 386.8 Q 639.8 385.3, 641.1 384.2 Q 642.3 383.1, 642.9 382.1 Q 643.5 381.1, 643.5 380.0 Q 643.5 378.9, 643.0 378.3 Q 642.4 377.7, 641.5 377.7 Q 640.6 377.7, 640.0 378.1 Q 639.4 378.4, 638.9 379.3 L 637.7 378.7 " fill="#000000"/>
<path class="legend" d="M 650.1 376.4 Q 652.1 376.4, 653.1 377.8 Q 654.1 379.2, 654.1 381.9 Q 654.1 384.9, 652.9 386.5 Q 651.6 388.0, 649.2 388.0 Q 648.5 388.0, 647.9 387.9 Q 647.3 387.7, 646.7 387.4 L 647.4 386.3 Q 648.2 386.7, 649.2 386.7 Q 650.8 386.7, 651.6 385.7 Q 652.4 384.7, 652.5 382.5 Q 651.9 383.1, 651.2 383.4 Q 650.5 383.6, 649.7 383.6 Q 648.7 383.6, 647.9 383.2 Q 647.1 382.8, 646.7 382.0 Q 646.3 381.2, 646.3 380.2 Q 646.3 379.1, 646.8 378.3 Q 647.3 377.4, 648.1 376.9 Q 649.0 376.4, 650.1 376.4 M 647.9 380.2 Q 647.9 381.2, 648.4 381.8 Q 649.0 382.4, 650.0 382.4 Q 650.7 382.4, 651.4 382.1 Q 652.0 381.8, 652.5 381.3 Q 652.5 379.4, 651.9 378.6 Q 651.3 377.7, 650.1 377.7 Q 649.5 377.7, 649.0 378.1 Q 648.5 378.4, 648.2 378.9 Q 647.9 379.5, 647.9 380.2 " fill="#000000"/>
<path class="legend" d="M 659.0 376.4 Q 661.1 376.4, 662.1 377.8 Q 663.1 379.2, 663.1 381.9 Q 663.1 384.9, 661.8 386.5 Q 660.6 388.0, 658.2 388.0 Q 657.5 388.0, 656.8 387.9 Q 656.3 387.7, 655.7 387.4 L 656.3 386.3 Q 657.1 386.7, 658.1 386.7 Q 659.7 386.7, 660.6 385.7 Q 661.4 384.7, 661.5 382.5 Q 660.9 383.1, 660.2 383.4 Q 659.4 383.6, 658.7 383.6 Q 657.7 383.6, 656.9 383.2 Q 656.1 382.8, 655.7 382.0 Q 655.2 381.2, 655.2 380.2 Q 655.2 379.1, 655.7 378.3 Q 656.2 377.4, 657.1 376.9 Q 657.9 376.4, 659.0 376.4 M 656.8 380.2 Q 656.8 381.2, 657.4 381.8 Q 657.9 382.4, 658.9 382.4 Q 659.6 382.4, 660.3 382.1 Q 661.0 381.8, 661.5 381.3 Q 661.4 379.4, 660.8 378.6 Q 660.2 377.7, 659.0 377.7 Q 658.4 377.7, 657.9 378.1 Q 657.4 378.4, 657.1 378.9 Q 656.8 379.5, 656.8 380.2 " fill="#000000"/>
<path class="bond-0 atom-0 atom-1" d="M 995.6,92.0 L 1040.2,116.1" style="fill:none;fill-rule:evenodd;stroke:#000000;stroke-width:2.0px;stroke-linecap:butt;stroke-linejoin:miter;stroke-opacity:1"/>
<path class="bond-1 atom-1 atom-2" d="M 1040.2,116.1 L 1041.7,166.7" style="fill:none;fill-rule:evenodd;stroke:#000000;stroke-width:2.0px;stroke-linecap:butt;stroke-linejoin:miter;stroke-opacity:1"/>
<path class="bond-2 atom-2 atom-3" d="M 1041.7,166.7 L 998.5,193.3" style="fill:none;fill-rule:evenodd;stroke:#000000;stroke-width:2.0px;stroke-linecap:butt;stroke-linejoin:miter;stroke-opacity:1"/>
<path class="bond-2 atom-2 atom-3" d="M 1040.5,179.3 L 1010.3,197.9" style="fill:none;fill-rule:evenodd;stroke:#000000;stroke-width:2.0px;stroke-linecap:butt;stroke-linejoin:miter;stroke-opacity:1"/>
<path class="bond-3 atom-3 atom-4" d="M 998.5,193.3 L 980.4,183.5" style="fill:none;fill-rule:evenodd;stroke:#000000;stroke-width:2.0px;stroke-linecap:butt;stroke-linejoin:miter;stroke-opacity:1"/>
<path class="bond-3 atom-3 atom-4" d="M 980.4,183.5 L 962.2,173.7" style="fill:none;fill-rule:evenodd;stroke:#FF0000;stroke-width:2.0px;stroke-linecap:butt;stroke-linejoin:miter;stroke-opacity:1"/>
<path class="bond-4 atom-4 atom-5" d="M 945.7,174.3 L 932.1,182.7" style="fill:none;fill-rule:evenodd;stroke:#FF0000;stroke-width:2.0px;stroke-linecap:butt;stroke-linejoin:miter;stroke-opacity:1"/>
<path class="bond-4 atom-4 atom-5" d="M 932.1,182.7 L 918.5,191.1" style="fill:none;fill-rule:evenodd;stroke:#000000;stroke-width:2.0px;stroke-linecap:butt;stroke-linejoin:miter;stroke-opacity:1"/>
<path class="bond-5 atom-5 atom-6" d="M 905.4,187.0 L 884.2,152.7" style="fill:none;fill-rule:evenodd;stroke:#000000;stroke-width:2.0px;stroke-linecap:butt;stroke-linejoin:miter;stroke-opacity:1"/>
<path class="bond-6 atom-5 atom-7" d="M 916.3,204.7 L 937.4,239.0" style="fill:none;fill-rule:evenodd;stroke:#000000;stroke-width:2.0px;stroke-linecap:butt;stroke-linejoin:miter;stroke-opacity:1"/>
<path class="bond-7 atom-5 atom-8" d="M 903.1,200.5 L 867.7,222.4" style="fill:none;fill-rule:evenodd;stroke:#000000;stroke-width:2.0px;stroke-linecap:butt;stroke-linejoin:miter;stroke-opacity:1"/>
<path class="bond-8 atom-8 atom-9" d="M 867.7,222.4 L 894.3,265.5" style="fill:none;fill-rule:evenodd;stroke:#000000;stroke-width:2.0px;stroke-linecap:butt;stroke-linejoin:miter;stroke-opacity:1"/>
<path class="bond-9 atom-8 atom-10" d="M 867.7,222.4 L 841.1,179.3" style="fill:none;fill-rule:evenodd;stroke:#000000;stroke-width:2.0px;stroke-linecap:butt;stroke-linejoin:miter;stroke-opacity:1"/>
<path class="bond-10 atom-8 atom-11" d="M 867.7,222.4 L 824.5,249.0" style="fill:none;fill-rule:evenodd;stroke:#000000;stroke-width:2.0px;stroke-linecap:butt;stroke-linejoin:miter;stroke-opacity:1"/>
<path class="bond-11 atom-3 atom-12" d="M 998.5,193.3 L 999.1,214.2" style="fill:none;fill-rule:evenodd;stroke:#000000;stroke-width:2.0px;stroke-linecap:butt;stroke-linejoin:miter;stroke-opacity:1"/>
<path class="bond-11 atom-3 atom-12" d="M 999.1,214.2 L 999.7,235.0" style="fill:none;fill-rule:evenodd;stroke:#FF0000;stroke-width:2.0px;stroke-linecap:butt;stroke-linejoin:miter;stroke-opacity:1"/>
<path class="bond-12 atom-12 atom-13" d="M 1008.3,248.4 L 1026.4,258.2" style="fill:none;fill-rule:evenodd;stroke:#FF0000;stroke-width:2.0px;stroke-linecap:butt;stroke-linejoin:miter;stroke-opacity:1"/>
<path class="bond-12 atom-12 atom-13" d="M 1026.4,258.2 L 1044.6,268.0" style="fill:none;fill-rule:evenodd;stroke:#000000;stroke-width:2.0px;stroke-linecap:butt;stroke-linejoin:miter;stroke-opacity:1"/>
<path class="bond-13 atom-13 atom-14" d="M 1044.6,268.0 L 1087.7,241.4" style="fill:none;fill-rule:evenodd;stroke:#000000;stroke-width:2.0px;stroke-linecap:butt;stroke-linejoin:miter;stroke-opacity:1"/>
<path class="bond-14 atom-14 atom-15" d="M 1087.7,241.4 L 1132.3,265.5" style="fill:none;fill-rule:evenodd;stroke:#000000;stroke-width:2.0px;stroke-linecap:butt;stroke-linejoin:miter;stroke-opacity:1"/>
<path class="bond-14 atom-14 atom-15" d="M 1099.2,236.1 L 1130.5,253.0" style="fill:none;fill-rule:evenodd;stroke:#000000;stroke-width:2.0px;stroke-linecap:butt;stroke-linejoin:miter;stroke-opacity:1"/>
<path class="bond-15 atom-15 atom-16" d="M 1132.3,265.5 L 1175.5,238.9" style="fill:none;fill-rule:evenodd;stroke:#000000;stroke-width:2.0px;stroke-linecap:butt;stroke-linejoin:miter;stroke-opacity:1"/>
<path class="bond-16 atom-16 atom-17" d="M 1175.5,238.9 L 1174.0,188.3" style="fill:none;fill-rule:evenodd;stroke:#000000;stroke-width:2.0px;stroke-linecap:butt;stroke-linejoin:miter;stroke-opacity:1"/>
<path class="bond-16 atom-16 atom-17" d="M 1165.1,231.6 L 1164.1,196.1" style="fill:none;fill-rule:evenodd;stroke:#000000;stroke-width:2.0px;stroke-linecap:butt;stroke-linejoin:miter;stroke-opacity:1"/>
<path class="bond-17 atom-17 atom-18" d="M 1174.0,188.3 L 1129.4,164.2" style="fill:none;fill-rule:evenodd;stroke:#000000;stroke-width:2.0px;stroke-linecap:butt;stroke-linejoin:miter;stroke-opacity:1"/>
<path class="bond-18 atom-18 atom-19" d="M 1129.4,164.2 L 1086.3,190.8" style="fill:none;fill-rule:evenodd;stroke:#000000;stroke-width:2.0px;stroke-linecap:butt;stroke-linejoin:miter;stroke-opacity:1"/>
<path class="bond-18 atom-18 atom-19" d="M 1128.3,176.8 L 1098.1,195.4" style="fill:none;fill-rule:evenodd;stroke:#000000;stroke-width:2.0px;stroke-linecap:butt;stroke-linejoin:miter;stroke-opacity:1"/>
<path class="bond-19 atom-19 atom-2" d="M 1086.3,190.8 L 1041.7,166.7" style="fill:none;fill-rule:evenodd;stroke:#000000;stroke-width:2.0px;stroke-linecap:butt;stroke-linejoin:miter;stroke-opacity:1"/>
<path class="bond-20 atom-19 atom-14" d="M 1086.3,190.8 L 1087.7,241.4" style="fill:none;fill-rule:evenodd;stroke:#000000;stroke-width:2.0px;stroke-linecap:butt;stroke-linejoin:miter;stroke-opacity:1"/>
<path class="atom-4" d="M 947.4 169.3 Q 947.4 165.8, 949.1 163.9 Q 950.8 162.0, 954.0 162.0 Q 957.1 162.0, 958.8 163.9 Q 960.5 165.8, 960.5 169.3 Q 960.5 172.8, 958.8 174.7 Q 957.1 176.7, 954.0 176.7 Q 950.8 176.7, 949.1 174.7 Q 947.4 172.8, 947.4 169.3 M 954.0 175.1 Q 956.1 175.1, 957.3 173.6 Q 958.5 172.1, 958.5 169.3 Q 958.5 166.4, 957.3 165.0 Q 956.1 163.6, 954.0 163.6 Q 951.8 163.6, 950.6 165.0 Q 949.4 166.4, 949.4 169.3 Q 949.4 172.2, 950.6 173.6 Q 951.8 175.1, 954.0 175.1 " fill="#FF0000"/>
<path class="atom-5" d="M 905.3 200.8 Q 905.5 200.8, 906.2 201.1 Q 906.8 201.4, 907.6 201.6 Q 908.3 201.7, 909.1 201.7 Q 910.4 201.7, 911.2 201.1 Q 912.0 200.4, 912.0 199.3 Q 912.0 198.5, 911.6 198.0 Q 911.2 197.5, 910.6 197.2 Q 910.0 197.0, 909.0 196.7 Q 907.7 196.3, 906.9 195.9 Q 906.2 195.5, 905.6 194.8 Q 905.1 194.0, 905.1 192.7 Q 905.1 190.9, 906.3 189.8 Q 907.6 188.7, 910.0 188.7 Q 911.7 188.7, 913.5 189.5 L 913.1 191.0 Q 911.3 190.3, 910.1 190.3 Q 908.7 190.3, 907.9 190.9 Q 907.1 191.5, 907.1 192.5 Q 907.1 193.2, 907.5 193.7 Q 907.9 194.2, 908.5 194.4 Q 909.1 194.7, 910.1 195.0 Q 911.3 195.4, 912.1 195.8 Q 912.9 196.2, 913.4 197.0 Q 914.0 197.9, 914.0 199.3 Q 914.0 201.2, 912.7 202.3 Q 911.3 203.4, 909.1 203.4 Q 907.9 203.4, 906.9 203.1 Q 905.9 202.8, 904.8 202.4 L 905.3 200.8 " fill="#000000"/>
<path class="atom-5" d="M 915.0 188.6 L 916.8 188.6 L 916.8 190.4 L 915.0 190.4 L 915.0 188.6 M 915.0 192.6 L 916.8 192.6 L 916.8 203.0 L 915.0 203.0 L 915.0 192.6 " fill="#000000"/>
<path class="atom-12" d="M 993.4 244.0 Q 993.4 240.5, 995.1 238.6 Q 996.8 236.7, 1000.0 236.7 Q 1003.2 236.7, 1004.9 238.6 Q 1006.6 240.5, 1006.6 244.0 Q 1006.6 247.5, 1004.9 249.5 Q 1003.1 251.4, 1000.0 251.4 Q 996.8 251.4, 995.1 249.5 Q 993.4 247.5, 993.4 244.0 M 1000.0 249.8 Q 1002.2 249.8, 1003.4 248.3 Q 1004.6 246.9, 1004.6 244.0 Q 1004.6 241.2, 1003.4 239.8 Q 1002.2 238.3, 1000.0 238.3 Q 997.8 238.3, 996.6 239.7 Q 995.4 241.1, 995.4 244.0 Q 995.4 246.9, 996.6 248.3 Q 997.8 249.8, 1000.0 249.8 " fill="#FF0000"/>
<path class="legend" d="M 967.4 365.4 L 967.6 366.5 Q 968.5 365.3, 969.9 365.3 Q 970.3 365.3, 970.9 365.4 L 970.7 366.8 Q 970.0 366.6, 969.6 366.6 Q 969.0 366.6, 968.5 366.9 Q 968.1 367.1, 967.7 367.8 L 967.7 373.6 L 966.2 373.6 L 966.2 365.4 L 967.4 365.4 " fill="#000000"/>
<path class="legend" d="M 971.2 369.5 Q 971.2 367.5, 972.2 366.4 Q 973.2 365.3, 975.0 365.3 Q 976.8 365.3, 977.6 366.4 Q 978.5 367.4, 978.5 369.5 L 978.5 369.7 L 972.7 369.7 Q 972.7 371.1, 973.4 371.8 Q 974.0 372.6, 975.2 372.6 Q 975.8 372.6, 976.4 372.4 Q 977.0 372.3, 977.7 372.0 L 978.1 373.0 Q 977.3 373.4, 976.6 373.6 Q 975.8 373.8, 975.1 373.8 Q 973.2 373.8, 972.2 372.6 Q 971.2 371.5, 971.2 369.5 M 975.0 366.4 Q 974.1 366.4, 973.5 367.0 Q 973.0 367.5, 972.8 368.6 L 976.9 368.6 Q 976.8 367.5, 976.3 367.0 Q 975.9 366.4, 975.0 366.4 " fill="#000000"/>
<path class="legend" d="M 979.1 371.4 Q 979.1 370.1, 980.1 369.4 Q 981.2 368.7, 983.1 368.7 L 984.3 368.7 L 984.3 368.3 Q 984.3 367.3, 983.9 366.9 Q 983.5 366.4, 982.5 366.4 Q 981.8 366.4, 981.3 366.6 Q 980.8 366.7, 980.0 367.0 L 979.5 366.0 Q 981.0 365.3, 982.5 365.3 Q 984.2 365.3, 985.0 366.0 Q 985.8 366.8, 985.8 368.4 L 985.8 373.6 L 984.7 373.6 Q 984.6 373.6, 984.6 373.3 Q 984.6 373.1, 984.5 372.7 Q 983.3 373.8, 981.8 373.8 Q 980.5 373.8, 979.8 373.2 Q 979.1 372.5, 979.1 371.4 M 980.6 371.4 Q 980.6 372.0, 981.0 372.3 Q 981.3 372.6, 982.1 372.6 Q 982.7 372.6, 983.3 372.4 Q 983.9 372.0, 984.3 371.5 L 984.3 369.8 L 983.2 369.8 Q 981.9 369.8, 981.2 370.2 Q 980.6 370.6, 980.6 371.4 " fill="#000000"/>
<path class="legend" d="M 987.1 369.5 Q 987.1 367.5, 988.1 366.4 Q 989.0 365.3, 991.0 365.3 Q 992.9 365.3, 993.8 366.6 L 992.8 367.4 Q 992.5 366.9, 992.0 366.7 Q 991.6 366.4, 991.0 366.4 Q 989.9 366.4, 989.2 367.2 Q 988.6 368.0, 988.6 369.5 Q 988.6 371.0, 989.2 371.8 Q 989.9 372.6, 991.1 372.6 Q 991.8 372.6, 992.2 372.4 Q 992.7 372.3, 993.3 372.0 L 993.7 373.0 Q 992.5 373.7, 991.0 373.7 Q 989.0 373.7, 988.1 372.6 Q 987.1 371.5, 987.1 369.5 " fill="#000000"/>
<path class="legend" d="M 994.2 366.6 L 994.2 365.4 L 995.8 365.4 L 996.1 363.0 L 997.2 363.0 L 997.2 365.4 L 999.7 365.4 L 999.7 366.6 L 997.2 366.6 L 997.2 371.1 Q 997.2 372.5, 998.4 372.5 Q 998.9 372.5, 999.6 372.3 L 999.8 373.4 Q 998.9 373.7, 998.1 373.7 Q 997.0 373.7, 996.3 373.1 Q 995.7 372.4, 995.7 371.2 L 995.7 366.6 L 994.2 366.6 " fill="#000000"/>
<path class="legend" d="M 1008.4 374.4 L 1008.4 375.7 L 1000.2 375.7 L 1000.2 374.4 L 1008.4 374.4 " fill="#000000"/>
<path class="legend" d="M 1013.8 367.7 Q 1014.9 368.0, 1015.4 368.7 Q 1016.0 369.4, 1016.0 370.5 Q 1016.0 371.5, 1015.5 372.2 Q 1015.0 373.0, 1014.2 373.4 Q 1013.3 373.8, 1012.1 373.8 Q 1010.9 373.8, 1010.0 373.4 Q 1009.1 372.9, 1008.4 372.1 L 1009.3 371.2 Q 1010.0 371.9, 1010.6 372.2 Q 1011.2 372.5, 1012.1 372.5 Q 1013.1 372.5, 1013.8 372.0 Q 1014.4 371.4, 1014.4 370.5 Q 1014.4 369.4, 1013.7 368.8 Q 1013.1 368.3, 1011.7 368.3 L 1010.9 368.3 L 1010.9 367.2 L 1011.6 367.2 Q 1012.8 367.2, 1013.5 366.6 Q 1014.2 366.1, 1014.2 365.1 Q 1014.2 364.3, 1013.6 363.9 Q 1013.1 363.5, 1012.1 363.5 Q 1011.2 363.5, 1010.6 363.8 Q 1010.0 364.1, 1009.6 365.0 L 1008.5 364.4 Q 1008.9 363.4, 1009.8 362.8 Q 1010.8 362.2, 1012.1 362.2 Q 1013.8 362.2, 1014.8 363.0 Q 1015.8 363.7, 1015.8 365.1 Q 1015.8 366.0, 1015.3 366.6 Q 1014.8 367.3, 1013.8 367.7 " fill="#000000"/>
<path class="legend" d="M 1021.1 373.8 Q 1019.0 373.8, 1018.0 372.2 Q 1016.9 370.7, 1016.9 368.0 Q 1016.9 365.2, 1018.0 363.7 Q 1019.0 362.2, 1021.1 362.2 Q 1023.2 362.2, 1024.2 363.7 Q 1025.2 365.2, 1025.2 368.0 Q 1025.2 370.7, 1024.2 372.2 Q 1023.2 373.8, 1021.1 373.8 M 1021.1 372.5 Q 1022.3 372.5, 1023.0 371.3 Q 1023.6 370.2, 1023.6 368.0 Q 1023.6 365.7, 1023.0 364.6 Q 1022.3 363.5, 1021.1 363.5 Q 1019.9 363.5, 1019.2 364.6 Q 1018.5 365.7, 1018.5 368.0 Q 1018.5 370.2, 1019.2 371.3 Q 1019.9 372.5, 1021.1 372.5 " fill="#000000"/>
<path class="legend" d="M 1032.2 363.6 L 1026.3 363.6 L 1026.3 362.3 L 1033.8 362.3 L 1033.8 363.4 L 1029.2 373.6 L 1027.7 373.6 L 1032.2 363.6 " fill="#000000"/>
<path class="legend" d="M 937.8 383.8 Q 937.8 381.8, 938.8 380.7 Q 939.8 379.5, 941.8 379.5 Q 943.6 379.5, 944.6 380.9 L 943.6 381.6 Q 943.2 381.2, 942.8 380.9 Q 942.3 380.7, 941.8 380.7 Q 940.6 380.7, 940.0 381.5 Q 939.4 382.3, 939.4 383.8 Q 939.4 385.3, 940.0 386.1 Q 940.7 386.8, 941.9 386.8 Q 942.5 386.8, 943.0 386.7 Q 943.5 386.5, 944.0 386.3 L 944.5 387.3 Q 943.3 388.0, 941.8 388.0 Q 939.8 388.0, 938.8 386.9 Q 937.8 385.7, 937.8 383.8 " fill="#000000"/>
<path class="legend" d="M 945.0 383.8 Q 945.0 381.7, 946.0 380.6 Q 947.0 379.5, 948.9 379.5 Q 950.7 379.5, 951.5 380.6 Q 952.3 381.7, 952.3 383.7 L 952.3 384.0 L 946.5 384.0 Q 946.6 385.4, 947.2 386.1 Q 947.8 386.8, 949.0 386.8 Q 949.6 386.8, 950.2 386.7 Q 950.8 386.5, 951.5 386.2 L 952.0 387.2 Q 951.1 387.6, 950.4 387.8 Q 949.7 388.0, 948.9 388.0 Q 947.1 388.0, 946.0 386.9 Q 945.0 385.8, 945.0 383.8 M 948.9 380.7 Q 947.9 380.7, 947.3 381.2 Q 946.8 381.8, 946.6 382.8 L 950.7 382.8 Q 950.6 381.7, 950.1 381.2 Q 949.7 380.7, 948.9 380.7 " fill="#000000"/>
<path class="legend" d="M 957.2 379.5 Q 958.5 379.5, 959.2 380.3 Q 959.9 381.0, 959.9 382.4 L 959.9 387.9 L 958.4 387.9 L 958.4 382.6 Q 958.4 381.6, 958.0 381.2 Q 957.6 380.7, 956.8 380.7 Q 956.0 380.7, 955.4 381.1 Q 954.8 381.4, 954.4 382.0 L 954.4 387.9 L 952.9 387.9 L 952.9 379.7 L 954.1 379.7 L 954.3 380.8 Q 955.4 379.5, 957.2 379.5 " fill="#000000"/>
<path class="legend" d="M 961.1 380.8 L 961.1 379.7 L 962.7 379.7 L 962.9 377.3 L 964.1 377.3 L 964.1 379.7 L 966.6 379.7 L 966.6 380.8 L 964.1 380.8 L 964.1 385.4 Q 964.1 386.8, 965.3 386.8 Q 965.7 386.8, 966.4 386.6 L 966.7 387.6 Q 965.8 388.0, 965.0 388.0 Q 963.9 388.0, 963.2 387.3 Q 962.6 386.7, 962.6 385.4 L 962.6 380.8 L 961.1 380.8 " fill="#000000"/>
<path class="legend" d="M 975.3 388.7 L 975.3 390.0 L 967.1 390.0 L 967.1 388.7 L 975.3 388.7 " fill="#000000"/>
<path class="legend" d="M 982.7 375.7 L 982.7 387.9 L 981.5 387.9 L 981.3 386.9 Q 980.4 388.0, 978.9 388.0 Q 977.2 388.0, 976.2 387.0 Q 975.3 385.9, 975.3 383.9 Q 975.3 381.8, 976.4 380.7 Q 977.5 379.5, 979.5 379.5 Q 980.3 379.5, 981.2 379.7 L 981.2 375.7 L 982.7 375.7 M 979.0 386.8 Q 979.8 386.8, 980.4 386.4 Q 981.0 385.9, 981.2 385.1 L 981.2 380.9 Q 980.4 380.7, 979.5 380.7 Q 978.2 380.7, 977.5 381.6 Q 976.8 382.4, 976.8 383.9 Q 976.8 385.3, 977.4 386.1 Q 977.9 386.8, 979.0 386.8 " fill="#000000"/>
<path class="legend" d="M 984.0 376.6 L 985.5 376.6 L 985.5 378.0 L 984.0 378.0 L 984.0 376.6 M 984.0 379.7 L 985.5 379.7 L 985.5 387.9 L 984.0 387.9 L 984.0 379.7 " fill="#000000"/>
<path class="legend" d="M 987.3 386.2 Q 988.0 386.5, 988.6 386.6 Q 989.1 386.8, 989.6 386.8 Q 990.4 386.8, 990.8 386.5 Q 991.2 386.2, 991.2 385.6 Q 991.2 385.2, 991.0 385.0 Q 990.7 384.8, 990.5 384.6 Q 990.2 384.5, 989.5 384.3 Q 989.4 384.3, 988.7 384.0 Q 987.9 383.7, 987.5 383.2 Q 987.1 382.7, 987.1 381.9 Q 987.1 380.9, 987.9 380.2 Q 988.7 379.5, 990.2 379.5 Q 990.8 379.5, 991.3 379.7 Q 991.9 379.8, 992.5 380.0 L 992.1 381.2 Q 991.6 381.0, 991.1 380.9 Q 990.7 380.8, 990.2 380.8 Q 989.4 380.8, 989.0 381.1 Q 988.6 381.4, 988.6 381.8 Q 988.6 382.3, 988.9 382.5 Q 989.2 382.7, 989.9 383.0 Q 990.1 383.0, 990.2 383.1 L 990.6 383.2 Q 991.3 383.4, 991.7 383.7 Q 992.1 383.9, 992.4 384.4 Q 992.7 384.8, 992.7 385.6 Q 992.7 386.7, 991.8 387.4 Q 991.0 388.0, 989.7 388.0 Q 988.9 388.0, 988.2 387.9 Q 987.5 387.7, 986.9 387.4 L 987.3 386.2 " fill="#000000"/>
<path class="legend" d="M 993.5 380.8 L 993.5 379.7 L 995.1 379.7 L 995.4 377.3 L 996.5 377.3 L 996.5 379.7 L 999.0 379.7 L 999.0 380.8 L 996.5 380.8 L 996.5 385.4 Q 996.5 386.8, 997.7 386.8 Q 998.2 386.8, 998.9 386.6 L 999.1 387.6 Q 998.2 388.0, 997.4 388.0 Q 996.3 388.0, 995.6 387.3 Q 995.0 386.7, 995.0 385.4 L 995.0 380.8 L 993.5 380.8 " fill="#000000"/>
<path class="legend" d="" fill="#000000"/>
<path class="legend" d="M 1004.8 380.9 L 1012.2 380.9 L 1012.2 382.1 L 1004.8 382.1 L 1004.8 380.9 M 1004.8 384.4 L 1012.2 384.4 L 1012.2 385.5 L 1004.8 385.5 L 1004.8 384.4 " fill="#000000"/>
<path class="legend" d="" fill="#000000"/>
<path class="legend" d="M 1019.6 386.6 L 1022.1 386.6 L 1022.1 378.1 L 1019.3 379.0 L 1019.0 378.0 L 1022.4 376.5 L 1023.6 376.7 L 1023.6 386.6 L 1025.8 386.6 L 1025.8 387.9 L 1019.6 387.9 L 1019.6 386.6 " fill="#000000"/>
<path class="legend" d="M 1026.5 386.3 L 1028.1 386.3 L 1028.1 387.9 L 1026.5 387.9 L 1026.5 386.3 " fill="#000000"/>
<path class="legend" d="M 1036.5 384.0 L 1037.8 384.0 L 1037.8 385.3 L 1036.5 385.3 L 1036.5 387.9 L 1035.0 387.9 L 1035.0 385.3 L 1029.1 385.3 L 1029.1 384.3 L 1034.1 376.6 L 1036.5 376.6 L 1036.5 384.0 M 1031.0 384.0 L 1035.0 384.0 L 1035.0 377.6 L 1031.0 384.0 " fill="#000000"/>
<path class="legend" d="M 1042.7 380.8 Q 1043.7 380.8, 1044.5 381.2 Q 1045.3 381.6, 1045.8 382.4 Q 1046.3 383.2, 1046.3 384.3 Q 1046.3 385.5, 1045.7 386.3 Q 1045.1 387.2, 1044.2 387.6 Q 1043.3 388.0, 1042.2 388.0 Q 1041.2 388.0, 1040.2 387.6 Q 1039.3 387.2, 1038.6 386.5 L 1039.6 385.5 Q 1040.1 386.1, 1040.8 386.4 Q 1041.5 386.7, 1042.3 386.7 Q 1043.3 386.7, 1044.0 386.1 Q 1044.7 385.5, 1044.7 384.3 Q 1044.7 383.1, 1044.0 382.6 Q 1043.3 382.0, 1042.2 382.0 Q 1041.2 382.0, 1040.1 382.4 L 1039.2 382.0 L 1039.7 376.6 L 1045.6 376.6 L 1045.4 377.8 L 1041.1 377.8 L 1040.7 381.2 Q 1041.7 380.8, 1042.7 380.8 " fill="#000000"/>
<path class="legend" d="M 1047.7 386.6 L 1050.1 386.6 L 1050.1 378.1 L 1047.4 379.0 L 1047.0 378.0 L 1050.5 376.5 L 1051.7 376.7 L 1051.7 386.6 L 1053.9 386.6 L 1053.9 387.9 L 1047.7 387.9 L 1047.7 386.6 " fill="#000000"/>
<path class="legend" d="M 1060.0 381.9 Q 1061.1 382.2, 1061.6 383.0 Q 1062.2 383.7, 1062.2 384.8 Q 1062.2 385.7, 1061.7 386.5 Q 1061.2 387.2, 1060.3 387.6 Q 1059.4 388.0, 1058.3 388.0 Q 1057.1 388.0, 1056.2 387.6 Q 1055.3 387.2, 1054.5 386.3 L 1055.5 385.4 Q 1056.2 386.2, 1056.8 386.5 Q 1057.3 386.8, 1058.3 386.8 Q 1059.3 386.8, 1059.9 386.2 Q 1060.6 385.7, 1060.6 384.8 Q 1060.6 383.6, 1059.9 383.1 Q 1059.3 382.6, 1057.9 382.6 L 1057.1 382.6 L 1057.1 381.4 L 1057.8 381.4 Q 1059.0 381.4, 1059.7 380.9 Q 1060.3 380.3, 1060.3 379.3 Q 1060.3 378.6, 1059.8 378.2 Q 1059.2 377.7, 1058.3 377.7 Q 1057.4 377.7, 1056.8 378.0 Q 1056.2 378.4, 1055.7 379.2 L 1054.6 378.6 Q 1055.0 377.7, 1056.0 377.1 Q 1057.0 376.4, 1058.3 376.4 Q 1060.0 376.4, 1060.9 377.2 Q 1061.9 378.0, 1061.9 379.3 Q 1061.9 380.2, 1061.4 380.9 Q 1060.9 381.6, 1060.0 381.9 " fill="#000000"/>
</svg>