<svg xmlns="http://www.w3.org/2000/svg" xmlns:rdkit="http://www.rdkit.org/xml" xmlns:xlink="http://www.w3.org/1999/xlink" version="1.1" baseProfile="full" xml:space="preserve" width="2000px" height="400px" viewBox="0 0 2000 400">
<!-- END OF HEADER -->
<rect style="opacity:1.0;fill:#FFFFFF;stroke:none" width="2000.0" height="400.0" x="0.0" y="0.0"> </rect>
<path class="bond-0 atom-0 atom-1" d="M 292.4,139.2 L 266.7,183.9" style="fill:none;fill-rule:evenodd;stroke:#000000;stroke-width:2.0px;stroke-linecap:butt;stroke-linejoin:miter;stroke-opacity:1"/>
<path class="bond-0 atom-0 atom-1" d="M 283.5,134.1 L 257.7,178.7" style="fill:none;fill-rule:evenodd;stroke:#000000;stroke-width:2.0px;stroke-linecap:butt;stroke-linejoin:miter;stroke-opacity:1"/>
<path class="bond-1 atom-1 atom-2" d="M 262.2,181.3 L 288.0,225.9" style="fill:none;fill-rule:evenodd;stroke:#000000;stroke-width:2.0px;stroke-linecap:butt;stroke-linejoin:miter;stroke-opacity:1"/>
<path class="bond-2 atom-1 atom-3" d="M 262.2,181.3 L 210.7,181.3" style="fill:none;fill-rule:evenodd;stroke:#000000;stroke-width:2.0px;stroke-linecap:butt;stroke-linejoin:miter;stroke-opacity:1"/>
<path class="bond-3 atom-3 atom-4" d="M 210.7,181.3 L 184.9,225.9" style="fill:none;fill-rule:evenodd;stroke:#000000;stroke-width:2.0px;stroke-linecap:butt;stroke-linejoin:miter;stroke-opacity:1"/>
<path class="bond-4 atom-4 atom-5" d="M 184.9,225.9 L 133.3,225.9" style="fill:none;fill-rule:evenodd;stroke:#000000;stroke-width:2.0px;stroke-linecap:butt;stroke-linejoin:miter;stroke-opacity:1"/>
<path class="bond-5 atom-5 atom-6" d="M 133.3,225.9 L 107.6,181.3" style="fill:none;fill-rule:evenodd;stroke:#000000;stroke-width:2.0px;stroke-linecap:butt;stroke-linejoin:miter;stroke-opacity:1"/>
<path class="bond-6 atom-6 atom-7" d="M 107.6,181.3 L 133.3,136.7" style="fill:none;fill-rule:evenodd;stroke:#000000;stroke-width:2.0px;stroke-linecap:butt;stroke-linejoin:miter;stroke-opacity:1"/>
<path class="bond-7 atom-7 atom-8" d="M 133.3,136.7 L 184.9,136.7" style="fill:none;fill-rule:evenodd;stroke:#000000;stroke-width:2.0px;stroke-linecap:butt;stroke-linejoin:miter;stroke-opacity:1"/>
<path class="bond-8 atom-8 atom-3" d="M 184.9,136.7 L 210.7,181.3" style="fill:none;fill-rule:evenodd;stroke:#000000;stroke-width:2.0px;stroke-linecap:butt;stroke-linejoin:miter;stroke-opacity:1"/>
<path class="legend" d="M 167.7 365.4 L 167.9 366.5 Q 168.8 365.3, 170.2 365.3 Q 170.6 365.3, 171.2 365.4 L 171.0 366.8 Q 170.3 366.6, 169.9 366.6 Q 169.3 366.6, 168.8 366.9 Q 168.4 367.1, 168.0 367.8 L 168.0 373.6 L 166.5 373.6 L 166.5 365.4 L 167.7 365.4 " fill="#000000"/>
<path class="legend" d="M 171.5 369.5 Q 171.5 367.5, 172.5 366.4 Q 173.5 365.3, 175.3 365.3 Q 177.2 365.3, 178.0 366.4 Q 178.8 367.4, 178.8 369.5 L 178.8 369.7 L 173.0 369.7 Q 173.1 371.1, 173.7 371.8 Q 174.3 372.6, 175.5 372.6 Q 176.1 372.6, 176.7 372.4 Q 177.3 372.3, 178.0 372.0 L 178.4 373.0 Q 177.6 373.4, 176.9 373.6 Q 176.2 373.8, 175.4 373.8 Q 173.5 373.8, 172.5 372.6 Q 171.5 371.5, 171.5 369.5 M 175.3 366.4 Q 174.4 366.4, 173.8 367.0 Q 173.3 367.5, 173.1 368.6 L 177.2 368.6 Q 177.1 367.5, 176.6 367.0 Q 176.2 366.4, 175.3 366.4 " fill="#000000"/>
<path class="legend" d="M 179.4 371.4 Q 179.4 370.1, 180.4 369.4 Q 181.5 368.7, 183.4 368.7 L 184.6 368.7 L 184.6 368.3 Q 184.6 367.3, 184.2 366.9 Q 183.8 366.4, 182.8 366.4 Q 182.1 366.4, 181.6 366.6 Q 181.1 366.7, 180.3 367.0 L 179.8 366.0 Q 181.3 365.3, 182.8 365.3 Q 184.5 365.3, 185.3 366.0 Q 186.1 366.8, 186.1 368.4 L 186.1 373.6 L 185.0 373.6 Q 185.0 373.6, 184.9 373.3 Q 184.9 373.1, 184.8 372.7 Q 183.6 373.8, 182.1 373.8 Q 180.8 373.8, 180.1 373.2 Q 179.4 372.5, 179.4 371.4 M 180.9 371.4 Q 180.9 372.0, 181.3 372.3 Q 181.6 372.6, 182.4 372.6 Q 183.0 372.6, 183.6 372.4 Q 184.2 372.0, 184.6 371.5 L 184.6 369.8 L 183.5 369.8 Q 182.2 369.8, 181.5 370.2 Q 180.9 370.6, 180.9 371.4 " fill="#000000"/>
<path class="legend" d="M 187.4 369.5 Q 187.4 367.5, 188.4 366.4 Q 189.4 365.3, 191.3 365.3 Q 193.2 365.3, 194.2 366.6 L 193.2 367.4 Q 192.8 366.9, 192.3 366.7 Q 191.9 366.4, 191.3 366.4 Q 190.2 366.4, 189.5 367.2 Q 188.9 368.0, 188.9 369.5 Q 188.9 371.0, 189.6 371.8 Q 190.2 372.6, 191.4 372.6 Q 192.1 372.6, 192.5 372.4 Q 193.0 372.3, 193.6 372.0 L 194.0 373.0 Q 192.8 373.7, 191.3 373.7 Q 189.4 373.7, 188.4 372.6 Q 187.4 371.5, 187.4 369.5 " fill="#000000"/>
<path class="legend" d="M 194.5 366.6 L 194.5 365.4 L 196.1 365.4 L 196.4 363.0 L 197.5 363.0 L 197.5 365.4 L 200.0 365.4 L 200.0 366.6 L 197.5 366.6 L 197.5 371.1 Q 197.5 372.5, 198.7 372.5 Q 199.2 372.5, 199.9 372.3 L 200.1 373.4 Q 199.2 373.7, 198.4 373.7 Q 197.3 373.7, 196.7 373.1 Q 196.0 372.4, 196.0 371.2 L 196.0 366.6 L 194.5 366.6 " fill="#000000"/>
<path class="legend" d="M 208.7 374.4 L 208.7 375.7 L 200.5 375.7 L 200.5 374.4 L 208.7 374.4 " fill="#000000"/>
<path class="legend" d="M 214.1 367.7 Q 215.2 368.0, 215.8 368.7 Q 216.3 369.4, 216.3 370.5 Q 216.3 371.5, 215.8 372.2 Q 215.3 373.0, 214.5 373.4 Q 213.6 373.8, 212.4 373.8 Q 211.2 373.8, 210.3 373.4 Q 209.4 372.9, 208.7 372.1 L 209.6 371.2 Q 210.3 371.9, 210.9 372.2 Q 211.5 372.5, 212.4 372.5 Q 213.5 372.5, 214.1 372.0 Q 214.7 371.4, 214.7 370.5 Q 214.7 369.4, 214.0 368.8 Q 213.4 368.3, 212.0 368.3 L 211.2 368.3 L 211.2 367.2 L 211.9 367.2 Q 213.2 367.2, 213.8 366.6 Q 214.5 366.1, 214.5 365.1 Q 214.5 364.3, 213.9 363.9 Q 213.4 363.5, 212.4 363.5 Q 211.5 363.5, 210.9 363.8 Q 210.3 364.1, 209.9 365.0 L 208.8 364.4 Q 209.2 363.4, 210.1 362.8 Q 211.1 362.2, 212.4 362.2 Q 214.1 362.2, 215.1 363.0 Q 216.1 363.7, 216.1 365.1 Q 216.1 366.0, 215.6 366.6 Q 215.1 367.3, 214.1 367.7 " fill="#000000"/>
<path class="legend" d="M 217.9 372.4 L 220.4 372.4 L 220.4 363.9 L 217.6 364.7 L 217.2 363.8 L 220.7 362.2 L 221.9 362.4 L 221.9 372.4 L 224.1 372.4 L 224.1 373.6 L 217.9 373.6 L 217.9 372.4 " fill="#000000"/>
<path class="legend" d="M 232.1 369.7 L 233.5 369.7 L 233.5 371.0 L 232.1 371.0 L 232.1 373.6 L 230.6 373.6 L 230.6 371.0 L 224.8 371.0 L 224.8 370.0 L 229.7 362.3 L 232.1 362.3 L 232.1 369.7 M 226.6 369.7 L 230.6 369.7 L 230.6 363.3 L 226.6 369.7 " fill="#000000"/>
<path class="legend" d="M 136.7 383.8 Q 136.7 381.8, 137.7 380.7 Q 138.7 379.5, 140.6 379.5 Q 142.5 379.5, 143.5 380.9 L 142.5 381.6 Q 142.1 381.2, 141.6 380.9 Q 141.2 380.7, 140.6 380.7 Q 139.5 380.7, 138.8 381.5 Q 138.2 382.3, 138.2 383.8 Q 138.2 385.3, 138.9 386.1 Q 139.5 386.8, 140.7 386.8 Q 141.4 386.8, 141.9 386.7 Q 142.3 386.5, 142.9 386.3 L 143.3 387.3 Q 142.1 388.0, 140.6 388.0 Q 138.7 388.0, 137.7 386.9 Q 136.7 385.7, 136.7 383.8 " fill="#000000"/>
<path class="legend" d="M 143.9 383.8 Q 143.9 381.7, 144.9 380.6 Q 145.9 379.5, 147.7 379.5 Q 149.5 379.5, 150.3 380.6 Q 151.1 381.7, 151.1 383.7 L 151.1 384.0 L 145.4 384.0 Q 145.4 385.4, 146.0 386.1 Q 146.7 386.8, 147.8 386.8 Q 148.5 386.8, 149.1 386.7 Q 149.7 386.5, 150.4 386.2 L 150.8 387.2 Q 150.0 387.6, 149.3 387.8 Q 148.5 388.0, 147.8 388.0 Q 145.9 388.0, 144.9 386.9 Q 143.9 385.8, 143.9 383.8 M 147.7 380.7 Q 146.8 380.7, 146.2 381.2 Q 145.6 381.8, 145.5 382.8 L 149.5 382.8 Q 149.4 381.7, 149.0 381.2 Q 148.5 380.7, 147.7 380.7 " fill="#000000"/>
<path class="legend" d="M 156.0 379.5 Q 157.3 379.5, 158.0 380.3 Q 158.7 381.0, 158.7 382.4 L 158.7 387.9 L 157.2 387.9 L 157.2 382.6 Q 157.2 381.6, 156.8 381.2 Q 156.5 380.7, 155.6 380.7 Q 154.9 380.7, 154.3 381.1 Q 153.6 381.4, 153.2 382.0 L 153.2 387.9 L 151.7 387.9 L 151.7 379.7 L 153.0 379.7 L 153.1 380.8 Q 154.3 379.5, 156.0 379.5 " fill="#000000"/>
<path class="legend" d="M 160.0 380.8 L 160.0 379.7 L 161.5 379.7 L 161.8 377.3 L 162.9 377.3 L 162.9 379.7 L 165.4 379.7 L 165.4 380.8 L 162.9 380.8 L 162.9 385.4 Q 162.9 386.8, 164.1 386.8 Q 164.6 386.8, 165.3 386.6 L 165.5 387.6 Q 164.7 388.0, 163.8 388.0 Q 162.8 388.0, 162.1 387.3 Q 161.4 386.7, 161.4 385.4 L 161.4 380.8 L 160.0 380.8 " fill="#000000"/>
<path class="legend" d="M 174.1 388.7 L 174.1 390.0 L 165.9 390.0 L 165.9 388.7 L 174.1 388.7 " fill="#000000"/>
<path class="legend" d="M 181.6 375.7 L 181.6 387.9 L 180.4 387.9 L 180.2 386.9 Q 179.2 388.0, 177.7 388.0 Q 176.0 388.0, 175.1 387.0 Q 174.1 385.9, 174.1 383.9 Q 174.1 381.8, 175.2 380.7 Q 176.4 379.5, 178.3 379.5 Q 179.2 379.5, 180.1 379.7 L 180.1 375.7 L 181.6 375.7 M 177.8 386.8 Q 178.7 386.8, 179.2 386.4 Q 179.9 385.9, 180.1 385.1 L 180.1 380.9 Q 179.3 380.7, 178.3 380.7 Q 177.1 380.7, 176.4 381.6 Q 175.6 382.4, 175.6 383.9 Q 175.6 385.3, 176.2 386.1 Q 176.8 386.8, 177.8 386.8 " fill="#000000"/>
<path class="legend" d="M 182.9 376.6 L 184.3 376.6 L 184.3 378.0 L 182.9 378.0 L 182.9 376.6 M 182.9 379.7 L 184.3 379.7 L 184.3 387.9 L 182.9 387.9 L 182.9 379.7 " fill="#000000"/>
<path class="legend" d="M 186.2 386.2 Q 186.9 386.5, 187.4 386.6 Q 187.9 386.8, 188.5 386.8 Q 189.2 386.8, 189.6 386.5 Q 190.0 386.2, 190.0 385.6 Q 190.0 385.2, 189.8 385.0 Q 189.6 384.8, 189.3 384.6 Q 189.1 384.5, 188.3 384.3 Q 188.2 384.3, 187.5 384.0 Q 186.8 383.7, 186.4 383.2 Q 186.0 382.7, 186.0 381.9 Q 186.0 380.9, 186.7 380.2 Q 187.5 379.5, 189.0 379.5 Q 189.6 379.5, 190.2 379.7 Q 190.7 379.8, 191.3 380.0 L 190.9 381.2 Q 190.4 381.0, 189.9 380.9 Q 189.5 380.8, 189.0 380.8 Q 188.3 380.8, 187.9 381.1 Q 187.5 381.4, 187.5 381.8 Q 187.5 382.3, 187.8 382.5 Q 188.1 382.7, 188.8 383.0 Q 188.9 383.0, 189.1 383.1 L 189.5 383.2 Q 190.1 383.4, 190.5 383.7 Q 191.0 383.9, 191.2 384.4 Q 191.5 384.8, 191.5 385.6 Q 191.5 386.7, 190.7 387.4 Q 189.9 388.0, 188.5 388.0 Q 187.7 388.0, 187.1 387.9 Q 186.4 387.7, 185.7 387.4 L 186.2 386.2 " fill="#000000"/>
<path class="legend" d="M 192.4 380.8 L 192.4 379.7 L 193.9 379.7 L 194.2 377.3 L 195.3 377.3 L 195.3 379.7 L 197.8 379.7 L 197.8 380.8 L 195.3 380.8 L 195.3 385.4 Q 195.3 386.8, 196.5 386.8 Q 197.0 386.8, 197.7 386.6 L 198.0 387.6 Q 197.1 388.0, 196.3 388.0 Q 195.2 388.0, 194.5 387.3 Q 193.8 386.7, 193.8 385.4 L 193.8 380.8 L 192.4 380.8 " fill="#000000"/>
<path class="legend" d="" fill="#000000"/>
<path class="legend" d="M 203.7 380.9 L 211.0 380.9 L 211.0 382.1 L 203.7 382.1 L 203.7 380.9 M 203.7 384.4 L 211.0 384.4 L 211.0 385.5 L 203.7 385.5 L 203.7 384.4 " fill="#000000"/>
<path class="legend" d="" fill="#000000"/>
<path class="legend" d="M 222.0 388.0 Q 219.9 388.0, 218.8 386.5 Q 217.8 384.9, 217.8 382.2 Q 217.8 379.5, 218.8 378.0 Q 219.9 376.4, 222.0 376.4 Q 224.1 376.4, 225.1 378.0 Q 226.1 379.5, 226.1 382.2 Q 226.1 384.9, 225.1 386.5 Q 224.0 388.0, 222.0 388.0 M 222.0 386.7 Q 223.2 386.7, 223.8 385.6 Q 224.5 384.4, 224.5 382.2 Q 224.5 380.0, 223.8 378.8 Q 223.2 377.7, 222.0 377.7 Q 220.7 377.7, 220.1 378.8 Q 219.4 380.0, 219.4 382.2 Q 219.4 384.4, 220.1 385.6 Q 220.7 386.7, 222.0 386.7 " fill="#000000"/>
<path class="legend" d="M 227.1 386.3 L 228.7 386.3 L 228.7 387.9 L 227.1 387.9 L 227.1 386.3 " fill="#000000"/>
<path class="legend" d="M 233.9 380.8 Q 234.9 380.8, 235.7 381.2 Q 236.5 381.6, 237.0 382.4 Q 237.4 383.2, 237.4 384.3 Q 237.4 385.5, 236.9 386.3 Q 236.3 387.2, 235.4 387.6 Q 234.5 388.0, 233.4 388.0 Q 232.4 388.0, 231.4 387.6 Q 230.4 387.2, 229.8 386.5 L 230.7 385.5 Q 231.3 386.1, 232.0 386.4 Q 232.7 386.7, 233.4 386.7 Q 234.5 386.7, 235.1 386.1 Q 235.8 385.5, 235.8 384.3 Q 235.8 383.1, 235.1 382.6 Q 234.5 382.0, 233.3 382.0 Q 232.4 382.0, 231.3 382.4 L 230.4 382.0 L 230.9 376.6 L 236.7 376.6 L 236.6 377.8 L 232.2 377.8 L 231.9 381.2 Q 232.9 380.8, 233.9 380.8 " fill="#000000"/>
<path class="legend" d="M 242.3 380.8 Q 243.3 380.8, 244.1 381.2 Q 244.9 381.6, 245.4 382.4 Q 245.9 383.2, 245.9 384.3 Q 245.9 385.5, 245.3 386.3 Q 244.7 387.2, 243.8 387.6 Q 242.9 388.0, 241.8 388.0 Q 240.8 388.0, 239.8 387.6 Q 238.9 387.2, 238.2 386.5 L 239.2 385.5 Q 239.7 386.1, 240.4 386.4 Q 241.1 386.7, 241.9 386.7 Q 242.9 386.7, 243.6 386.1 Q 244.3 385.5, 244.3 384.3 Q 244.3 383.1, 243.6 382.6 Q 242.9 382.0, 241.8 382.0 Q 240.8 382.0, 239.7 382.4 L 238.8 382.0 L 239.3 376.6 L 245.2 376.6 L 245.0 377.8 L 240.7 377.8 L 240.3 381.2 Q 241.3 380.8, 242.3 380.8 " fill="#000000"/>
<path class="legend" d="M 252.4 381.9 Q 253.5 382.3, 254.1 383.0 Q 254.6 383.7, 254.6 384.8 Q 254.6 385.7, 254.1 386.5 Q 253.7 387.2, 252.8 387.6 Q 251.9 388.0, 250.7 388.0 Q 248.8 388.0, 247.7 387.2 Q 246.6 386.3, 246.6 384.8 Q 246.6 383.9, 247.1 383.2 Q 247.6 382.5, 248.6 381.9 Q 247.9 381.5, 247.5 380.9 Q 247.1 380.3, 247.1 379.3 Q 247.1 378.0, 248.0 377.2 Q 249.0 376.4, 250.6 376.4 Q 252.3 376.4, 253.3 377.2 Q 254.2 378.0, 254.2 379.3 Q 254.2 380.2, 253.8 380.8 Q 253.3 381.4, 252.4 381.9 M 250.6 377.6 Q 249.7 377.6, 249.2 378.1 Q 248.7 378.5, 248.7 379.3 Q 248.7 379.9, 249.0 380.3 Q 249.4 380.7, 249.9 380.9 Q 250.4 381.2, 251.3 381.5 Q 252.0 381.0, 252.3 380.5 Q 252.6 380.0, 252.6 379.3 Q 252.6 378.5, 252.1 378.1 Q 251.6 377.6, 250.6 377.6 M 250.7 386.8 Q 251.8 386.8, 252.4 386.3 Q 253.0 385.7, 253.0 384.8 Q 253.0 384.2, 252.7 383.8 Q 252.4 383.4, 251.9 383.2 Q 251.4 382.9, 250.5 382.7 L 249.7 382.4 Q 248.9 382.9, 248.6 383.5 Q 248.2 384.0, 248.2 384.8 Q 248.2 385.7, 248.9 386.3 Q 249.6 386.8, 250.7 386.8 " fill="#000000"/>
<path class="legend" d="M 259.8 380.8 Q 260.8 380.8, 261.6 381.2 Q 262.4 381.6, 262.9 382.4 Q 263.3 383.2, 263.3 384.3 Q 263.3 385.5, 262.7 386.3 Q 262.2 387.2, 261.3 387.6 Q 260.3 388.0, 259.3 388.0 Q 258.2 388.0, 257.3 387.6 Q 256.3 387.2, 255.7 386.5 L 256.6 385.5 Q 257.1 386.1, 257.9 386.4 Q 258.6 386.7, 259.3 386.7 Q 260.3 386.7, 261.0 386.1 Q 261.7 385.5, 261.7 384.3 Q 261.7 383.1, 261.0 382.6 Q 260.3 382.0, 259.2 382.0 Q 258.2 382.0, 257.1 382.4 L 256.2 382.0 L 256.8 376.6 L 262.6 376.6 L 262.5 377.8 L 258.1 377.8 L 257.8 381.2 Q 258.8 380.8, 259.8 380.8 " fill="#000000"/>
<path class="bond-0 atom-0 atom-1" d="M 465.6,136.6 L 467.2,188.1" style="fill:none;fill-rule:evenodd;stroke:#000000;stroke-width:2.0px;stroke-linecap:butt;stroke-linejoin:miter;stroke-opacity:1"/>
<path class="bond-0 atom-0 atom-1" d="M 455.3,136.9 L 456.8,188.4" style="fill:none;fill-rule:evenodd;stroke:#000000;stroke-width:2.0px;stroke-linecap:butt;stroke-linejoin:miter;stroke-opacity:1"/>
<path class="bond-1 atom-1 atom-2" d="M 462.0,188.3 L 418.2,215.4" style="fill:none;fill-rule:evenodd;stroke:#000000;stroke-width:2.0px;stroke-linecap:butt;stroke-linejoin:miter;stroke-opacity:1"/>
<path class="bond-2 atom-1 atom-3" d="M 462.0,188.3 L 507.4,212.7" style="fill:none;fill-rule:evenodd;stroke:#000000;stroke-width:2.0px;stroke-linecap:butt;stroke-linejoin:miter;stroke-opacity:1"/>
<path class="bond-3 atom-3 atom-4" d="M 507.4,212.7 L 551.2,185.5" style="fill:none;fill-rule:evenodd;stroke:#000000;stroke-width:2.0px;stroke-linecap:butt;stroke-linejoin:miter;stroke-opacity:1"/>
<path class="bond-4 atom-4 atom-5" d="M 551.2,185.5 L 569.7,195.5" style="fill:none;fill-rule:evenodd;stroke:#000000;stroke-width:2.0px;stroke-linecap:butt;stroke-linejoin:miter;stroke-opacity:1"/>
<path class="bond-4 atom-4 atom-5" d="M 569.7,195.5 L 588.2,205.4" style="fill:none;fill-rule:evenodd;stroke:#FF0000;stroke-width:2.0px;stroke-linecap:butt;stroke-linejoin:miter;stroke-opacity:1"/>
<path class="bond-5 atom-5 atom-6" d="M 605.1,204.7 L 622.8,193.7" style="fill:none;fill-rule:evenodd;stroke:#FF0000;stroke-width:2.0px;stroke-linecap:butt;stroke-linejoin:miter;stroke-opacity:1"/>
<path class="bond-5 atom-5 atom-6" d="M 622.8,193.7 L 640.5,182.8" style="fill:none;fill-rule:evenodd;stroke:#000000;stroke-width:2.0px;stroke-linecap:butt;stroke-linejoin:miter;stroke-opacity:1"/>
<path class="bond-6 atom-6 atom-7" d="M 640.5,182.8 L 638.9,131.2" style="fill:none;fill-rule:evenodd;stroke:#000000;stroke-width:2.0px;stroke-linecap:butt;stroke-linejoin:miter;stroke-opacity:1"/>
<path class="bond-6 atom-6 atom-7" d="M 650.5,174.7 L 649.4,138.7" style="fill:none;fill-rule:evenodd;stroke:#000000;stroke-width:2.0px;stroke-linecap:butt;stroke-linejoin:miter;stroke-opacity:1"/>
<path class="bond-7 atom-7 atom-8" d="M 638.9,131.2 L 682.7,104.1" style="fill:none;fill-rule:evenodd;stroke:#000000;stroke-width:2.0px;stroke-linecap:butt;stroke-linejoin:miter;stroke-opacity:1"/>
<path class="bond-8 atom-8 atom-9" d="M 682.7,104.1 L 728.1,128.5" style="fill:none;fill-rule:evenodd;stroke:#000000;stroke-width:2.0px;stroke-linecap:butt;stroke-linejoin:miter;stroke-opacity:1"/>
<path class="bond-8 atom-8 atom-9" d="M 684.6,116.8 L 716.4,133.9" style="fill:none;fill-rule:evenodd;stroke:#000000;stroke-width:2.0px;stroke-linecap:butt;stroke-linejoin:miter;stroke-opacity:1"/>
<path class="bond-9 atom-9 atom-10" d="M 728.1,128.5 L 729.7,180.0" style="fill:none;fill-rule:evenodd;stroke:#000000;stroke-width:2.0px;stroke-linecap:butt;stroke-linejoin:miter;stroke-opacity:1"/>
<path class="bond-10 atom-10 atom-11" d="M 729.7,180.0 L 748.2,189.9" style="fill:none;fill-rule:evenodd;stroke:#000000;stroke-width:2.0px;stroke-linecap:butt;stroke-linejoin:miter;stroke-opacity:1"/>
<path class="bond-10 atom-10 atom-11" d="M 748.2,189.9 L 766.7,199.9" style="fill:none;fill-rule:evenodd;stroke:#FF0000;stroke-width:2.0px;stroke-linecap:butt;stroke-linejoin:miter;stroke-opacity:1"/>
<path class="bond-11 atom-11 atom-12" d="M 775.4,213.7 L 776.1,234.8" style="fill:none;fill-rule:evenodd;stroke:#FF0000;stroke-width:2.0px;stroke-linecap:butt;stroke-linejoin:miter;stroke-opacity:1"/>
<path class="bond-11 atom-11 atom-12" d="M 776.1,234.8 L 776.7,255.9" style="fill:none;fill-rule:evenodd;stroke:#000000;stroke-width:2.0px;stroke-linecap:butt;stroke-linejoin:miter;stroke-opacity:1"/>
<path class="bond-12 atom-10 atom-13" d="M 729.7,180.0 L 685.9,207.1" style="fill:none;fill-rule:evenodd;stroke:#000000;stroke-width:2.0px;stroke-linecap:butt;stroke-linejoin:miter;stroke-opacity:1"/>
<path class="bond-12 atom-10 atom-13" d="M 717.7,175.3 L 687.0,194.3" style="fill:none;fill-rule:evenodd;stroke:#000000;stroke-width:2.0px;stroke-linecap:butt;stroke-linejoin:miter;stroke-opacity:1"/>
<path class="bond-13 atom-13 atom-6" d="M 685.9,207.1 L 640.5,182.8" style="fill:none;fill-rule:evenodd;stroke:#000000;stroke-width:2.0px;stroke-linecap:butt;stroke-linejoin:miter;stroke-opacity:1"/>
<path class="atom-5" d="M 589.9 209.9 Q 589.9 206.4, 591.7 204.5 Q 593.4 202.5, 596.6 202.5 Q 599.9 202.5, 601.6 204.5 Q 603.4 206.4, 603.4 209.9 Q 603.4 213.5, 601.6 215.5 Q 599.8 217.5, 596.6 217.5 Q 593.4 217.5, 591.7 215.5 Q 589.9 213.5, 589.9 209.9 M 596.6 215.9 Q 598.9 215.9, 600.1 214.4 Q 601.3 212.9, 601.3 209.9 Q 601.3 207.1, 600.1 205.6 Q 598.9 204.2, 596.6 204.2 Q 594.4 204.2, 593.2 205.6 Q 592.0 207.1, 592.0 209.9 Q 592.0 212.9, 593.2 214.4 Q 594.4 215.9, 596.6 215.9 " fill="#FF0000"/>
<path class="atom-11" d="M 768.4 204.4 Q 768.4 200.9, 770.1 199.0 Q 771.9 197.0, 775.1 197.0 Q 778.4 197.0, 780.1 199.0 Q 781.8 200.9, 781.8 204.4 Q 781.8 208.0, 780.1 210.0 Q 778.3 212.0, 775.1 212.0 Q 771.9 212.0, 770.1 210.0 Q 768.4 208.0, 768.4 204.4 M 775.1 210.3 Q 777.3 210.3, 778.5 208.9 Q 779.8 207.3, 779.8 204.4 Q 779.8 201.6, 778.5 200.1 Q 777.3 198.6, 775.1 198.6 Q 772.9 198.6, 771.7 200.1 Q 770.5 201.5, 770.5 204.4 Q 770.5 207.4, 771.7 208.9 Q 772.9 210.3, 775.1 210.3 " fill="#FF0000"/>
<path class="legend" d="M 567.8 365.4 L 568.0 366.5 Q 568.9 365.3, 570.3 365.3 Q 570.7 365.3, 571.3 365.4 L 571.1 366.8 Q 570.4 366.6, 570.0 366.6 Q 569.3 366.6, 568.9 366.9 Q 568.5 367.1, 568.1 367.8 L 568.1 373.6 L 566.6 373.6 L 566.6 365.4 L 567.8 365.4 " fill="#000000"/>
<path class="legend" d="M 571.6 369.5 Q 571.6 367.5, 572.6 366.4 Q 573.6 365.3, 575.4 365.3 Q 577.2 365.3, 578.0 366.4 Q 578.8 367.4, 578.8 369.5 L 578.8 369.7 L 573.1 369.7 Q 573.1 371.1, 573.8 371.8 Q 574.4 372.6, 575.6 372.6 Q 576.2 372.6, 576.8 372.4 Q 577.4 372.3, 578.1 372.0 L 578.5 373.0 Q 577.7 373.4, 577.0 373.6 Q 576.2 373.8, 575.5 373.8 Q 573.6 373.8, 572.6 372.6 Q 571.6 371.5, 571.6 369.5 M 575.4 366.4 Q 574.5 366.4, 573.9 367.0 Q 573.3 367.5, 573.2 368.6 L 577.3 368.6 Q 577.2 367.5, 576.7 367.0 Q 576.3 366.4, 575.4 366.4 " fill="#000000"/>
<path class="legend" d="M 579.5 371.4 Q 579.5 370.1, 580.5 369.4 Q 581.6 368.7, 583.5 368.7 L 584.7 368.7 L 584.7 368.3 Q 584.7 367.3, 584.3 366.9 Q 583.9 366.4, 582.8 366.4 Q 582.2 366.4, 581.7 366.6 Q 581.2 366.7, 580.4 367.0 L 579.9 366.0 Q 581.4 365.3, 582.9 365.3 Q 584.6 365.3, 585.4 366.0 Q 586.2 366.8, 586.2 368.4 L 586.2 373.6 L 585.1 373.6 Q 585.0 373.6, 585.0 373.3 Q 584.9 373.1, 584.8 372.7 Q 583.7 373.8, 582.2 373.8 Q 580.9 373.8, 580.2 373.2 Q 579.5 372.5, 579.5 371.4 M 581.0 371.4 Q 581.0 372.0, 581.3 372.3 Q 581.7 372.6, 582.4 372.6 Q 583.1 372.6, 583.7 372.4 Q 584.3 372.0, 584.7 371.5 L 584.7 369.8 L 583.6 369.8 Q 582.3 369.8, 581.6 370.2 Q 581.0 370.6, 581.0 371.4 " fill="#000000"/>
<path class="legend" d="M 587.5 369.5 Q 587.5 367.5, 588.4 366.4 Q 589.4 365.3, 591.4 365.3 Q 593.3 365.3, 594.2 366.6 L 593.2 367.4 Q 592.8 366.9, 592.4 366.7 Q 592.0 366.4, 591.4 366.4 Q 590.3 366.4, 589.6 367.2 Q 589.0 368.0, 589.0 369.5 Q 589.0 371.0, 589.6 371.8 Q 590.3 372.6, 591.5 372.6 Q 592.2 372.6, 592.6 372.4 Q 593.1 372.3, 593.7 372.0 L 594.1 373.0 Q 592.9 373.7, 591.4 373.7 Q 589.4 373.7, 588.4 372.6 Q 587.5 371.5, 587.5 369.5 " fill="#000000"/>
<path class="legend" d="M 594.6 366.6 L 594.6 365.4 L 596.2 365.4 L 596.4 363.0 L 597.6 363.0 L 597.6 365.4 L 600.1 365.4 L 600.1 366.6 L 597.6 366.6 L 597.6 371.1 Q 597.6 372.5, 598.8 372.5 Q 599.2 372.5, 600.0 372.3 L 600.2 373.4 Q 599.3 373.7, 598.5 373.7 Q 597.4 373.7, 596.7 373.1 Q 596.1 372.4, 596.1 371.2 L 596.1 366.6 L 594.6 366.6 " fill="#000000"/>
<path class="legend" d="M 608.8 374.4 L 608.8 375.7 L 600.6 375.7 L 600.6 374.4 L 608.8 374.4 " fill="#000000"/>
<path class="legend" d="M 609.4 372.4 L 611.9 372.4 L 611.9 363.9 L 609.1 364.7 L 608.8 363.8 L 612.2 362.2 L 613.4 362.4 L 613.4 372.4 L 615.6 372.4 L 615.6 373.6 L 609.4 373.6 L 609.4 372.4 " fill="#000000"/>
<path class="legend" d="M 623.6 369.7 L 625.0 369.7 L 625.0 371.0 L 623.6 371.0 L 623.6 373.6 L 622.1 373.6 L 622.1 371.0 L 616.3 371.0 L 616.3 370.0 L 621.2 362.3 L 623.6 362.3 L 623.6 369.7 M 618.1 369.7 L 622.1 369.7 L 622.1 363.3 L 618.1 369.7 " fill="#000000"/>
<path class="legend" d="M 631.2 367.7 Q 632.3 368.0, 632.8 368.7 Q 633.4 369.4, 633.4 370.5 Q 633.4 371.5, 632.9 372.2 Q 632.4 373.0, 631.6 373.4 Q 630.7 373.8, 629.5 373.8 Q 628.3 373.8, 627.4 373.4 Q 626.5 372.9, 625.8 372.1 L 626.7 371.2 Q 627.4 371.9, 628.0 372.2 Q 628.6 372.5, 629.5 372.5 Q 630.5 372.5, 631.2 372.0 Q 631.8 371.4, 631.8 370.5 Q 631.8 369.4, 631.1 368.8 Q 630.5 368.3, 629.1 368.3 L 628.3 368.3 L 628.3 367.2 L 629.0 367.2 Q 630.2 367.2, 630.9 366.6 Q 631.6 366.1, 631.6 365.1 Q 631.6 364.3, 631.0 363.9 Q 630.5 363.5, 629.5 363.5 Q 628.6 363.5, 628.0 363.8 Q 627.4 364.1, 627.0 365.0 L 625.9 364.4 Q 626.3 363.4, 627.2 362.8 Q 628.2 362.2, 629.5 362.2 Q 631.2 362.2, 632.2 363.0 Q 633.2 363.7, 633.2 365.1 Q 633.2 366.0, 632.7 366.6 Q 632.2 367.3, 631.2 367.7 " fill="#000000"/>
<path class="legend" d="M 536.6 383.8 Q 536.6 381.8, 537.6 380.7 Q 538.6 379.5, 540.5 379.5 Q 542.4 379.5, 543.4 380.9 L 542.4 381.6 Q 542.0 381.2, 541.5 380.9 Q 541.1 380.7, 540.5 380.7 Q 539.4 380.7, 538.8 381.5 Q 538.1 382.3, 538.1 383.8 Q 538.1 385.3, 538.8 386.1 Q 539.4 386.8, 540.6 386.8 Q 541.3 386.8, 541.8 386.7 Q 542.2 386.5, 542.8 386.3 L 543.2 387.3 Q 542.0 388.0, 540.5 388.0 Q 538.6 388.0, 537.6 386.9 Q 536.6 385.7, 536.6 383.8 " fill="#000000"/>
<path class="legend" d="M 543.8 383.8 Q 543.8 381.7, 544.8 380.6 Q 545.8 379.5, 547.6 379.5 Q 549.4 379.5, 550.2 380.6 Q 551.0 381.7, 551.0 383.7 L 551.0 384.0 L 545.3 384.0 Q 545.3 385.4, 546.0 386.1 Q 546.6 386.8, 547.7 386.8 Q 548.4 386.8, 549.0 386.7 Q 549.6 386.5, 550.3 386.2 L 550.7 387.2 Q 549.9 387.6, 549.2 387.8 Q 548.4 388.0, 547.7 388.0 Q 545.8 388.0, 544.8 386.9 Q 543.8 385.8, 543.8 383.8 M 547.6 380.7 Q 546.7 380.7, 546.1 381.2 Q 545.5 381.8, 545.4 382.8 L 549.5 382.8 Q 549.3 381.7, 548.9 381.2 Q 548.5 380.7, 547.6 380.7 " fill="#000000"/>
<path class="legend" d="M 555.9 379.5 Q 557.3 379.5, 557.9 380.3 Q 558.6 381.0, 558.6 382.4 L 558.6 387.9 L 557.1 387.9 L 557.1 382.6 Q 557.1 381.6, 556.8 381.2 Q 556.4 380.7, 555.6 380.7 Q 554.8 380.7, 554.2 381.1 Q 553.6 381.4, 553.2 382.0 L 553.2 387.9 L 551.7 387.9 L 551.7 379.7 L 552.9 379.7 L 553.1 380.8 Q 554.2 379.5, 555.9 379.5 " fill="#000000"/>
<path class="legend" d="M 559.9 380.8 L 559.9 379.7 L 561.4 379.7 L 561.7 377.3 L 562.8 377.3 L 562.8 379.7 L 565.3 379.7 L 565.3 380.8 L 562.8 380.8 L 562.8 385.4 Q 562.8 386.8, 564.0 386.8 Q 564.5 386.8, 565.2 386.6 L 565.5 387.6 Q 564.6 388.0, 563.7 388.0 Q 562.7 388.0, 562.0 387.3 Q 561.3 386.7, 561.3 385.4 L 561.3 380.8 L 559.9 380.8 " fill="#000000"/>
<path class="legend" d="M 574.0 388.7 L 574.0 390.0 L 565.9 390.0 L 565.9 388.7 L 574.0 388.7 " fill="#000000"/>
<path class="legend" d="M 581.5 375.7 L 581.5 387.9 L 580.3 387.9 L 580.1 386.9 Q 579.2 388.0, 577.6 388.0 Q 575.9 388.0, 575.0 387.0 Q 574.0 385.9, 574.0 383.9 Q 574.0 381.8, 575.1 380.7 Q 576.3 379.5, 578.2 379.5 Q 579.1 379.5, 580.0 379.7 L 580.0 375.7 L 581.5 375.7 M 577.7 386.8 Q 578.6 386.8, 579.2 386.4 Q 579.8 385.9, 580.0 385.1 L 580.0 380.9 Q 579.2 380.7, 578.3 380.7 Q 577.0 380.7, 576.3 381.6 Q 575.6 382.4, 575.6 383.9 Q 575.6 385.3, 576.1 386.1 Q 576.7 386.8, 577.7 386.8 " fill="#000000"/>
<path class="legend" d="M 582.8 376.6 L 584.2 376.6 L 584.2 378.0 L 582.8 378.0 L 582.8 376.6 M 582.8 379.7 L 584.2 379.7 L 584.2 387.9 L 582.8 387.9 L 582.8 379.7 " fill="#000000"/>
<path class="legend" d="M 586.1 386.2 Q 586.8 386.5, 587.3 386.6 Q 587.8 386.8, 588.4 386.8 Q 589.1 386.8, 589.5 386.5 Q 589.9 386.2, 589.9 385.6 Q 589.9 385.2, 589.7 385.0 Q 589.5 384.8, 589.2 384.6 Q 589.0 384.5, 588.3 384.3 Q 588.1 384.3, 587.4 384.0 Q 586.7 383.7, 586.3 383.2 Q 585.9 382.7, 585.9 381.9 Q 585.9 380.9, 586.7 380.2 Q 587.4 379.5, 588.9 379.5 Q 589.5 379.5, 590.1 379.7 Q 590.6 379.8, 591.3 380.0 L 590.9 381.2 Q 590.3 381.0, 589.9 380.9 Q 589.4 380.8, 588.9 380.8 Q 588.2 380.8, 587.8 381.1 Q 587.4 381.4, 587.4 381.8 Q 587.4 382.3, 587.7 382.5 Q 588.0 382.7, 588.7 383.0 Q 588.9 383.0, 589.0 383.1 L 589.4 383.2 Q 590.1 383.4, 590.5 383.7 Q 590.9 383.9, 591.2 384.4 Q 591.4 384.8, 591.4 385.6 Q 591.4 386.7, 590.6 387.4 Q 589.8 388.0, 588.4 388.0 Q 587.6 388.0, 587.0 387.9 Q 586.3 387.7, 585.6 387.4 L 586.1 386.2 " fill="#000000"/>
<path class="legend" d="M 592.3 380.8 L 592.3 379.7 L 593.9 379.7 L 594.1 377.3 L 595.2 377.3 L 595.2 379.7 L 597.7 379.7 L 597.7 380.8 L 595.2 380.8 L 595.2 385.4 Q 595.2 386.8, 596.4 386.8 Q 596.9 386.8, 597.6 386.6 L 597.9 387.6 Q 597.0 388.0, 596.2 388.0 Q 595.1 388.0, 594.4 387.3 Q 593.7 386.7, 593.7 385.4 L 593.7 380.8 L 592.3 380.8 " fill="#000000"/>
<path class="legend" d="" fill="#000000"/>
<path class="legend" d="M 603.6 380.9 L 610.9 380.9 L 610.9 382.1 L 603.6 382.1 L 603.6 380.9 M 603.6 384.4 L 610.9 384.4 L 610.9 385.5 L 603.6 385.5 L 603.6 384.4 " fill="#000000"/>
<path class="legend" d="" fill="#000000"/>
<path class="legend" d="M 621.9 388.0 Q 619.8 388.0, 618.7 386.5 Q 617.7 384.9, 617.7 382.2 Q 617.7 379.5, 618.7 378.0 Q 619.8 376.4, 621.9 376.4 Q 624.0 376.4, 625.0 378.0 Q 626.0 379.5, 626.0 382.2 Q 626.0 384.9, 625.0 386.5 Q 623.9 388.0, 621.9 388.0 M 621.9 386.7 Q 623.1 386.7, 623.8 385.6 Q 624.4 384.4, 624.4 382.2 Q 624.4 380.0, 623.8 378.8 Q 623.1 377.7, 621.9 377.7 Q 620.7 377.7, 620.0 378.8 Q 619.3 380.0, 619.3 382.2 Q 619.3 384.4, 620.0 385.6 Q 620.7 386.7, 621.9 386.7 " fill="#000000"/>
<path class="legend" d="M 627.1 386.3 L 628.7 386.3 L 628.7 387.9 L 627.1 387.9 L 627.1 386.3 " fill="#000000"/>
<path class="legend" d="M 633.8 380.8 Q 634.8 380.8, 635.6 381.2 Q 636.4 381.6, 636.9 382.4 Q 637.4 383.2, 637.4 384.3 Q 637.4 385.5, 636.8 386.3 Q 636.2 387.2, 635.3 387.6 Q 634.4 388.0, 633.3 388.0 Q 632.3 388.0, 631.3 387.6 Q 630.3 387.2, 629.7 386.5 L 630.7 385.5 Q 631.2 386.1, 631.9 386.4 Q 632.6 386.7, 633.4 386.7 Q 634.4 386.7, 635.1 386.1 Q 635.8 385.5, 635.8 384.3 Q 635.8 383.1, 635.1 382.6 Q 634.4 382.0, 633.3 382.0 Q 632.3 382.0, 631.2 382.4 L 630.3 382.0 L 630.8 376.6 L 636.7 376.6 L 636.5 377.8 L 632.1 377.8 L 631.8 381.2 Q 632.8 380.8, 633.8 380.8 " fill="#000000"/>
<path class="legend" d="M 641.9 376.4 Q 643.9 376.4, 645.0 377.8 Q 646.0 379.2, 646.0 381.9 Q 646.0 384.9, 644.7 386.5 Q 643.5 388.0, 641.1 388.0 Q 640.3 388.0, 639.7 387.9 Q 639.1 387.7, 638.6 387.4 L 639.2 386.3 Q 640.0 386.7, 641.0 386.7 Q 642.6 386.7, 643.5 385.7 Q 644.3 384.7, 644.4 382.5 Q 643.8 383.1, 643.1 383.4 Q 642.3 383.6, 641.5 383.6 Q 640.6 383.6, 639.8 383.2 Q 639.0 382.8, 638.6 382.0 Q 638.1 381.2, 638.1 380.2 Q 638.1 379.1, 638.6 378.3 Q 639.1 377.4, 640.0 376.9 Q 640.8 376.4, 641.9 376.4 M 639.7 380.2 Q 639.7 381.2, 640.3 381.8 Q 640.8 382.4, 641.8 382.4 Q 642.5 382.4, 643.2 382.1 Q 643.9 381.8, 644.4 381.3 Q 644.3 379.4, 643.7 378.6 Q 643.1 377.7, 641.9 377.7 Q 641.3 377.7, 640.8 378.1 Q 640.3 378.4, 640.0 378.9 Q 639.7 379.5, 639.7 380.2 " fill="#000000"/>
<path class="legend" d="M 654.4 384.0 L 655.8 384.0 L 655.8 385.3 L 654.4 385.3 L 654.4 387.9 L 652.9 387.9 L 652.9 385.3 L 647.1 385.3 L 647.1 384.3 L 652.0 376.6 L 654.4 376.6 L 654.4 384.0 M 648.9 384.0 L 652.9 384.0 L 652.9 377.6 L 648.9 384.0 " fill="#000000"/>
<path class="legend" d="M 657.2 386.6 L 659.7 386.6 L 659.7 378.1 L 656.9 379.0 L 656.6 378.0 L 660.0 376.5 L 661.2 376.7 L 661.2 386.6 L 663.4 386.6 L 663.4 387.9 L 657.2 387.9 L 657.2 386.6 " fill="#000000"/>
<path class="bond-0 atom-0 atom-1" d="M 914.6,118.2 L 945.3,159.6" style="fill:none;fill-rule:evenodd;stroke:#000000;stroke-width:2.0px;stroke-linecap:butt;stroke-linejoin:miter;stroke-opacity:1"/>
<path class="bond-0 atom-0 atom-1" d="M 906.3,124.3 L 937.0,165.8" style="fill:none;fill-rule:evenodd;stroke:#000000;stroke-width:2.0px;stroke-linecap:butt;stroke-linejoin:miter;stroke-opacity:1"/>
<path class="bond-1 atom-1 atom-2" d="M 941.1,162.7 L 925.6,211.8" style="fill:none;fill-rule:evenodd;stroke:#000000;stroke-width:2.0px;stroke-linecap:butt;stroke-linejoin:miter;stroke-opacity:1"/>
<path class="bond-2 atom-2 atom-3" d="M 925.6,211.8 L 967.5,241.8" style="fill:none;fill-rule:evenodd;stroke:#000000;stroke-width:2.0px;stroke-linecap:butt;stroke-linejoin:miter;stroke-opacity:1"/>
<path class="bond-3 atom-3 atom-4" d="M 967.5,241.8 L 1009.0,211.2" style="fill:none;fill-rule:evenodd;stroke:#000000;stroke-width:2.0px;stroke-linecap:butt;stroke-linejoin:miter;stroke-opacity:1"/>
<path class="bond-4 atom-4 atom-5" d="M 1009.0,211.2 L 1059.5,221.5" style="fill:none;fill-rule:evenodd;stroke:#000000;stroke-width:2.0px;stroke-linecap:butt;stroke-linejoin:miter;stroke-opacity:1"/>
<path class="bond-4 atom-4 atom-5" d="M 1018.6,202.7 L 1053.9,209.9" style="fill:none;fill-rule:evenodd;stroke:#000000;stroke-width:2.0px;stroke-linecap:butt;stroke-linejoin:miter;stroke-opacity:1"/>
<path class="bond-5 atom-5 atom-6" d="M 1059.5,221.5 L 1093.7,183.0" style="fill:none;fill-rule:evenodd;stroke:#000000;stroke-width:2.0px;stroke-linecap:butt;stroke-linejoin:miter;stroke-opacity:1"/>
<path class="bond-6 atom-6 atom-7" d="M 1093.7,183.0 L 1077.3,134.1" style="fill:none;fill-rule:evenodd;stroke:#000000;stroke-width:2.0px;stroke-linecap:butt;stroke-linejoin:miter;stroke-opacity:1"/>
<path class="bond-6 atom-6 atom-7" d="M 1081.4,178.9 L 1070.0,144.7" style="fill:none;fill-rule:evenodd;stroke:#000000;stroke-width:2.0px;stroke-linecap:butt;stroke-linejoin:miter;stroke-opacity:1"/>
<path class="bond-7 atom-7 atom-8" d="M 1077.3,134.1 L 1026.8,123.7" style="fill:none;fill-rule:evenodd;stroke:#000000;stroke-width:2.0px;stroke-linecap:butt;stroke-linejoin:miter;stroke-opacity:1"/>
<path class="bond-8 atom-8 atom-9" d="M 1026.8,123.7 L 992.7,162.3" style="fill:none;fill-rule:evenodd;stroke:#000000;stroke-width:2.0px;stroke-linecap:butt;stroke-linejoin:miter;stroke-opacity:1"/>
<path class="bond-8 atom-8 atom-9" d="M 1029.4,136.4 L 1005.5,163.4" style="fill:none;fill-rule:evenodd;stroke:#000000;stroke-width:2.0px;stroke-linecap:butt;stroke-linejoin:miter;stroke-opacity:1"/>
<path class="bond-9 atom-9 atom-1" d="M 992.7,162.3 L 941.1,162.7" style="fill:none;fill-rule:evenodd;stroke:#000000;stroke-width:2.0px;stroke-linecap:butt;stroke-linejoin:miter;stroke-opacity:1"/>
<path class="bond-10 atom-9 atom-4" d="M 992.7,162.3 L 1009.0,211.2" style="fill:none;fill-rule:evenodd;stroke:#000000;stroke-width:2.0px;stroke-linecap:butt;stroke-linejoin:miter;stroke-opacity:1"/>
<path class="legend" d="M 968.7 365.4 L 968.9 366.5 Q 969.7 365.3, 971.2 365.3 Q 971.6 365.3, 972.2 365.4 L 972.0 366.8 Q 971.3 366.6, 970.9 366.6 Q 970.2 366.6, 969.8 366.9 Q 969.3 367.1, 969.0 367.8 L 969.0 373.6 L 967.5 373.6 L 967.5 365.4 L 968.7 365.4 " fill="#000000"/>
<path class="legend" d="M 972.4 369.5 Q 972.4 367.5, 973.5 366.4 Q 974.5 365.3, 976.3 365.3 Q 978.1 365.3, 978.9 366.4 Q 979.7 367.4, 979.7 369.5 L 979.7 369.7 L 974.0 369.7 Q 974.0 371.1, 974.6 371.8 Q 975.3 372.6, 976.4 372.6 Q 977.1 372.6, 977.7 372.4 Q 978.3 372.3, 979.0 372.0 L 979.4 373.0 Q 978.6 373.4, 977.9 373.6 Q 977.1 373.8, 976.4 373.8 Q 974.5 373.8, 973.5 372.6 Q 972.4 371.5, 972.4 369.5 M 976.3 366.4 Q 975.4 366.4, 974.8 367.0 Q 974.2 367.5, 974.0 368.6 L 978.1 368.6 Q 978.0 367.5, 977.6 367.0 Q 977.1 366.4, 976.3 366.4 " fill="#000000"/>
<path class="legend" d="M 980.3 371.4 Q 980.3 370.1, 981.4 369.4 Q 982.4 368.7, 984.4 368.7 L 985.6 368.7 L 985.6 368.3 Q 985.6 367.3, 985.2 366.9 Q 984.8 366.4, 983.7 366.4 Q 983.1 366.4, 982.6 366.6 Q 982.0 366.7, 981.2 367.0 L 980.8 366.0 Q 982.3 365.3, 983.8 365.3 Q 985.5 365.3, 986.3 366.0 Q 987.1 366.8, 987.1 368.4 L 987.1 373.6 L 985.9 373.6 Q 985.9 373.6, 985.9 373.3 Q 985.8 373.1, 985.7 372.7 Q 984.6 373.8, 983.0 373.8 Q 981.8 373.8, 981.1 373.2 Q 980.3 372.5, 980.3 371.4 M 981.8 371.4 Q 981.8 372.0, 982.2 372.3 Q 982.6 372.6, 983.3 372.6 Q 984.0 372.6, 984.6 372.4 Q 985.2 372.0, 985.6 371.5 L 985.6 369.8 L 984.5 369.8 Q 983.2 369.8, 982.5 370.2 Q 981.8 370.6, 981.8 371.4 " fill="#000000"/>
<path class="legend" d="M 988.3 369.5 Q 988.3 367.5, 989.3 366.4 Q 990.3 365.3, 992.3 365.3 Q 994.1 365.3, 995.1 366.6 L 994.1 367.4 Q 993.7 366.9, 993.3 366.7 Q 992.8 366.4, 992.3 366.4 Q 991.1 366.4, 990.5 367.2 Q 989.9 368.0, 989.9 369.5 Q 989.9 371.0, 990.5 371.8 Q 991.2 372.6, 992.4 372.6 Q 993.0 372.6, 993.5 372.4 Q 994.0 372.3, 994.5 372.0 L 995.0 373.0 Q 993.8 373.7, 992.3 373.7 Q 990.3 373.7, 989.3 372.6 Q 988.3 371.5, 988.3 369.5 " fill="#000000"/>
<path class="legend" d="M 995.5 366.6 L 995.5 365.4 L 997.1 365.4 L 997.3 363.0 L 998.4 363.0 L 998.4 365.4 L 1001.0 365.4 L 1001.0 366.6 L 998.4 366.6 L 998.4 371.1 Q 998.4 372.5, 999.6 372.5 Q 1000.1 372.5, 1000.8 372.3 L 1001.1 373.4 Q 1000.2 373.7, 999.4 373.7 Q 998.3 373.7, 997.6 373.1 Q 996.9 372.4, 996.9 371.2 L 996.9 366.6 L 995.5 366.6 " fill="#000000"/>
<path class="legend" d="M 1009.6 374.4 L 1009.6 375.7 L 1001.5 375.7 L 1001.5 374.4 L 1009.6 374.4 " fill="#000000"/>
<path class="legend" d="M 1010.3 372.4 L 1012.8 372.4 L 1012.8 363.9 L 1010.0 364.7 L 1009.6 363.8 L 1013.1 362.2 L 1014.3 362.4 L 1014.3 372.4 L 1016.5 372.4 L 1016.5 373.6 L 1010.3 373.6 L 1010.3 372.4 " fill="#000000"/>
<path class="legend" d="M 1017.8 372.4 L 1020.3 372.4 L 1020.3 363.9 L 1017.5 364.7 L 1017.2 363.8 L 1020.6 362.2 L 1021.8 362.4 L 1021.8 372.4 L 1024.0 372.4 L 1024.0 373.6 L 1017.8 373.6 L 1017.8 372.4 " fill="#000000"/>
<path class="legend" d="M 1028.5 362.2 Q 1030.5 362.2, 1031.5 363.6 Q 1032.5 364.9, 1032.5 367.6 Q 1032.5 370.6, 1031.2 372.2 Q 1030.0 373.8, 1027.6 373.8 Q 1026.9 373.8, 1026.3 373.6 Q 1025.7 373.4, 1025.1 373.1 L 1025.7 372.0 Q 1026.6 372.5, 1027.6 372.5 Q 1029.2 372.5, 1030.0 371.5 Q 1030.8 370.4, 1030.9 368.3 Q 1030.3 368.8, 1029.6 369.1 Q 1028.9 369.4, 1028.1 369.4 Q 1027.1 369.4, 1026.3 368.9 Q 1025.5 368.5, 1025.1 367.7 Q 1024.7 366.9, 1024.7 366.0 Q 1024.7 364.8, 1025.1 364.0 Q 1025.6 363.1, 1026.5 362.7 Q 1027.4 362.2, 1028.5 362.2 M 1026.3 365.9 Q 1026.3 366.9, 1026.8 367.5 Q 1027.4 368.1, 1028.4 368.1 Q 1029.1 368.1, 1029.7 367.8 Q 1030.4 367.5, 1030.9 367.1 Q 1030.8 365.2, 1030.2 364.3 Q 1029.6 363.5, 1028.4 363.5 Q 1027.8 363.5, 1027.3 363.8 Q 1026.8 364.1, 1026.5 364.7 Q 1026.3 365.2, 1026.3 365.9 " fill="#000000"/>
<path class="legend" d="M 936.9 383.8 Q 936.9 381.8, 937.9 380.7 Q 938.9 379.5, 940.9 379.5 Q 942.7 379.5, 943.7 380.9 L 942.7 381.6 Q 942.3 381.2, 941.9 380.9 Q 941.4 380.7, 940.9 380.7 Q 939.7 380.7, 939.1 381.5 Q 938.5 382.3, 938.5 383.8 Q 938.5 385.3, 939.1 386.1 Q 939.8 386.8, 941.0 386.8 Q 941.6 386.8, 942.1 386.7 Q 942.6 386.5, 943.1 386.3 L 943.5 387.3 Q 942.4 388.0, 940.8 388.0 Q 938.9 388.0, 937.9 386.9 Q 936.9 385.7, 936.9 383.8 " fill="#000000"/>
<path class="legend" d="M 944.1 383.8 Q 944.1 381.7, 945.1 380.6 Q 946.1 379.5, 947.9 379.5 Q 949.8 379.5, 950.6 380.6 Q 951.4 381.7, 951.4 383.7 L 951.4 384.0 L 945.6 384.0 Q 945.7 385.4, 946.3 386.1 Q 946.9 386.8, 948.1 386.8 Q 948.7 386.8, 949.3 386.7 Q 949.9 386.5, 950.6 386.2 L 951.1 387.2 Q 950.2 387.6, 949.5 387.8 Q 948.8 388.0, 948.0 388.0 Q 946.1 388.0, 945.1 386.9 Q 944.1 385.8, 944.1 383.8 M 947.9 380.7 Q 947.0 380.7, 946.4 381.2 Q 945.9 381.8, 945.7 382.8 L 949.8 382.8 Q 949.7 381.7, 949.2 381.2 Q 948.8 380.7, 947.9 380.7 " fill="#000000"/>
<path class="legend" d="M 956.3 379.5 Q 957.6 379.5, 958.3 380.3 Q 959.0 381.0, 959.0 382.4 L 959.0 387.9 L 957.5 387.9 L 957.5 382.6 Q 957.5 381.6, 957.1 381.2 Q 956.7 380.7, 955.9 380.7 Q 955.1 380.7, 954.5 381.1 Q 953.9 381.4, 953.5 382.0 L 953.5 387.9 L 952.0 387.9 L 952.0 379.7 L 953.2 379.7 L 953.4 380.8 Q 954.5 379.5, 956.3 379.5 " fill="#000000"/>
<path class="legend" d="M 960.2 380.8 L 960.2 379.7 L 961.8 379.7 L 962.0 377.3 L 963.1 377.3 L 963.1 379.7 L 965.7 379.7 L 965.7 380.8 L 963.1 380.8 L 963.1 385.4 Q 963.1 386.8, 964.3 386.8 Q 964.8 386.8, 965.5 386.6 L 965.8 387.6 Q 964.9 388.0, 964.1 388.0 Q 963.0 388.0, 962.3 387.3 Q 961.6 386.7, 961.6 385.4 L 961.6 380.8 L 960.2 380.8 " fill="#000000"/>
<path class="legend" d="M 974.3 388.7 L 974.3 390.0 L 966.2 390.0 L 966.2 388.7 L 974.3 388.7 " fill="#000000"/>
<path class="legend" d="M 981.8 375.7 L 981.8 387.9 L 980.6 387.9 L 980.4 386.9 Q 979.5 388.0, 978.0 388.0 Q 976.3 388.0, 975.3 387.0 Q 974.3 385.9, 974.3 383.9 Q 974.3 381.8, 975.5 380.7 Q 976.6 379.5, 978.6 379.5 Q 979.4 379.5, 980.3 379.7 L 980.3 375.7 L 981.8 375.7 M 978.1 386.8 Q 978.9 386.8, 979.5 386.4 Q 980.1 385.9, 980.3 385.1 L 980.3 380.9 Q 979.5 380.7, 978.6 380.7 Q 977.3 380.7, 976.6 381.6 Q 975.9 382.4, 975.9 383.9 Q 975.9 385.3, 976.4 386.1 Q 977.0 386.8, 978.1 386.8 " fill="#000000"/>
<path class="legend" d="M 983.1 376.6 L 984.6 376.6 L 984.6 378.0 L 983.1 378.0 L 983.1 376.6 M 983.1 379.7 L 984.6 379.7 L 984.6 387.9 L 983.1 387.9 L 983.1 379.7 " fill="#000000"/>
<path class="legend" d="M 986.4 386.2 Q 987.1 386.5, 987.6 386.6 Q 988.2 386.8, 988.7 386.8 Q 989.5 386.8, 989.9 386.5 Q 990.3 386.2, 990.3 385.6 Q 990.3 385.2, 990.0 385.0 Q 989.8 384.8, 989.6 384.6 Q 989.3 384.5, 988.6 384.3 Q 988.5 384.3, 987.7 384.0 Q 987.0 383.7, 986.6 383.2 Q 986.2 382.7, 986.2 381.9 Q 986.2 380.9, 987.0 380.2 Q 987.8 379.5, 989.2 379.5 Q 989.9 379.5, 990.4 379.7 Q 991.0 379.8, 991.6 380.0 L 991.2 381.2 Q 990.7 381.0, 990.2 380.9 Q 989.7 380.8, 989.2 380.8 Q 988.5 380.8, 988.1 381.1 Q 987.7 381.4, 987.7 381.8 Q 987.7 382.3, 988.0 382.5 Q 988.3 382.7, 989.0 383.0 Q 989.2 383.0, 989.3 383.1 L 989.7 383.2 Q 990.4 383.4, 990.8 383.7 Q 991.2 383.9, 991.5 384.4 Q 991.8 384.8, 991.8 385.6 Q 991.8 386.7, 990.9 387.4 Q 990.1 388.0, 988.7 388.0 Q 988.0 388.0, 987.3 387.9 Q 986.6 387.7, 985.9 387.4 L 986.4 386.2 " fill="#000000"/>
<path class="legend" d="M 992.6 380.8 L 992.6 379.7 L 994.2 379.7 L 994.4 377.3 L 995.6 377.3 L 995.6 379.7 L 998.1 379.7 L 998.1 380.8 L 995.6 380.8 L 995.6 385.4 Q 995.6 386.8, 996.8 386.8 Q 997.2 386.8, 997.9 386.6 L 998.2 387.6 Q 997.3 388.0, 996.5 388.0 Q 995.4 388.0, 994.7 387.3 Q 994.1 386.7, 994.1 385.4 L 994.1 380.8 L 992.6 380.8 " fill="#000000"/>
<path class="legend" d="" fill="#000000"/>
<path class="legend" d="M 1003.9 380.9 L 1011.3 380.9 L 1011.3 382.1 L 1003.9 382.1 L 1003.9 380.9 M 1003.9 384.4 L 1011.3 384.4 L 1011.3 385.5 L 1003.9 385.5 L 1003.9 384.4 " fill="#000000"/>
<path class="legend" d="" fill="#000000"/>
<path class="legend" d="M 1022.2 388.0 Q 1020.1 388.0, 1019.1 386.5 Q 1018.1 384.9, 1018.1 382.2 Q 1018.1 379.5, 1019.1 378.0 Q 1020.1 376.4, 1022.2 376.4 Q 1024.3 376.4, 1025.3 378.0 Q 1026.3 379.5, 1026.3 382.2 Q 1026.3 384.9, 1025.3 386.5 Q 1024.3 388.0, 1022.2 388.0 M 1022.2 386.7 Q 1023.4 386.7, 1024.1 385.6 Q 1024.7 384.4, 1024.7 382.2 Q 1024.7 380.0, 1024.1 378.8 Q 1023.4 377.7, 1022.2 377.7 Q 1021.0 377.7, 1020.3 378.8 Q 1019.7 380.0, 1019.7 382.2 Q 1019.7 384.4, 1020.3 385.6 Q 1021.0 386.7, 1022.2 386.7 " fill="#000000"/>
<path class="legend" d="M 1027.4 386.3 L 1029.0 386.3 L 1029.0 387.9 L 1027.4 387.9 L 1027.4 386.3 " fill="#000000"/>
<path class="legend" d="M 1034.5 380.8 Q 1035.4 380.8, 1036.2 381.2 Q 1037.0 381.7, 1037.4 382.5 Q 1037.9 383.2, 1037.9 384.2 Q 1037.9 385.3, 1037.4 386.2 Q 1036.9 387.1, 1036.0 387.5 Q 1035.2 388.0, 1034.1 388.0 Q 1032.1 388.0, 1031.0 386.7 Q 1030.0 385.3, 1030.0 382.6 Q 1030.0 379.6, 1031.3 378.0 Q 1032.5 376.4, 1034.9 376.4 Q 1035.7 376.4, 1036.2 376.6 Q 1036.9 376.8, 1037.4 377.1 L 1036.8 378.2 Q 1036.0 377.7, 1035.0 377.7 Q 1033.4 377.7, 1032.5 378.8 Q 1031.7 379.8, 1031.6 381.9 Q 1032.2 381.4, 1032.9 381.1 Q 1033.7 380.8, 1034.5 380.8 M 1034.1 386.7 Q 1034.7 386.7, 1035.2 386.4 Q 1035.7 386.1, 1036.0 385.5 Q 1036.3 384.9, 1036.3 384.3 Q 1036.3 383.2, 1035.7 382.7 Q 1035.2 382.1, 1034.2 382.1 Q 1033.5 382.1, 1032.8 382.4 Q 1032.1 382.7, 1031.6 383.1 Q 1031.7 385.0, 1032.3 385.9 Q 1032.9 386.7, 1034.1 386.7 " fill="#000000"/>
<path class="legend" d="M 1046.1 384.0 L 1047.5 384.0 L 1047.5 385.3 L 1046.1 385.3 L 1046.1 387.9 L 1044.6 387.9 L 1044.6 385.3 L 1038.8 385.3 L 1038.8 384.3 L 1043.7 376.6 L 1046.1 376.6 L 1046.1 384.0 M 1040.6 384.0 L 1044.6 384.0 L 1044.6 377.6 L 1040.6 384.0 " fill="#000000"/>
<path class="legend" d="M 1054.2 377.8 L 1048.3 377.8 L 1048.3 376.6 L 1055.8 376.6 L 1055.8 377.7 L 1051.2 387.9 L 1049.7 387.9 L 1054.2 377.8 " fill="#000000"/>
<path class="legend" d="M 1056.9 386.6 L 1059.3 386.6 L 1059.3 378.1 L 1056.6 379.0 L 1056.2 378.0 L 1059.7 376.5 L 1060.9 376.7 L 1060.9 386.6 L 1063.1 386.6 L 1063.1 387.9 L 1056.9 387.9 L 1056.9 386.6 " fill="#000000"/>
</svg>