<svg xmlns="http://www.w3.org/2000/svg" xmlns:rdkit="http://www.rdkit.org/xml" xmlns:xlink="http://www.w3.org/1999/xlink" version="1.1" baseProfile="full" xml:space="preserve" width="2000px" height="400px" viewBox="0 0 2000 400">
<!-- END OF HEADER -->
<rect style="opacity:1.0;fill:#FFFFFF;stroke:none" width="2000.0" height="400.0" x="0.0" y="0.0"> </rect>
<path class="bond-0 atom-0 atom-1" d="M 60.6,126.4 L 56.6,163.9" style="fill:none;fill-rule:evenodd;stroke:#000000;stroke-width:2.0px;stroke-linecap:butt;stroke-linejoin:miter;stroke-opacity:1"/>
<path class="bond-0 atom-0 atom-1" d="M 53.1,125.6 L 49.1,163.1" style="fill:none;fill-rule:evenodd;stroke:#000000;stroke-width:2.0px;stroke-linecap:butt;stroke-linejoin:miter;stroke-opacity:1"/>
<path class="bond-1 atom-1 atom-2" d="M 52.9,163.5 L 18.4,178.8" style="fill:none;fill-rule:evenodd;stroke:#000000;stroke-width:2.0px;stroke-linecap:butt;stroke-linejoin:miter;stroke-opacity:1"/>
<path class="bond-2 atom-1 atom-3" d="M 52.9,163.5 L 83.4,185.7" style="fill:none;fill-rule:evenodd;stroke:#000000;stroke-width:2.0px;stroke-linecap:butt;stroke-linejoin:miter;stroke-opacity:1"/>
<path class="bond-3 atom-3 atom-4" d="M 83.4,185.7 L 97.5,179.4" style="fill:none;fill-rule:evenodd;stroke:#000000;stroke-width:2.0px;stroke-linecap:butt;stroke-linejoin:miter;stroke-opacity:1"/>
<path class="bond-3 atom-3 atom-4" d="M 97.5,179.4 L 111.7,173.1" style="fill:none;fill-rule:evenodd;stroke:#FF0000;stroke-width:2.0px;stroke-linecap:butt;stroke-linejoin:miter;stroke-opacity:1"/>
<path class="bond-4 atom-4 atom-5" d="M 124.0,174.8 L 136.1,183.7" style="fill:none;fill-rule:evenodd;stroke:#FF0000;stroke-width:2.0px;stroke-linecap:butt;stroke-linejoin:miter;stroke-opacity:1"/>
<path class="bond-4 atom-4 atom-5" d="M 136.1,183.7 L 148.3,192.5" style="fill:none;fill-rule:evenodd;stroke:#000000;stroke-width:2.0px;stroke-linecap:butt;stroke-linejoin:miter;stroke-opacity:1"/>
<path class="bond-5 atom-5 atom-6" d="M 152.1,192.9 L 150.4,208.4" style="fill:none;fill-rule:evenodd;stroke:#000000;stroke-width:2.0px;stroke-linecap:butt;stroke-linejoin:miter;stroke-opacity:1"/>
<path class="bond-5 atom-5 atom-6" d="M 150.4,208.4 L 148.8,223.8" style="fill:none;fill-rule:evenodd;stroke:#FF0000;stroke-width:2.0px;stroke-linecap:butt;stroke-linejoin:miter;stroke-opacity:1"/>
<path class="bond-5 atom-5 atom-6" d="M 144.6,192.1 L 142.9,207.6" style="fill:none;fill-rule:evenodd;stroke:#000000;stroke-width:2.0px;stroke-linecap:butt;stroke-linejoin:miter;stroke-opacity:1"/>
<path class="bond-5 atom-5 atom-6" d="M 142.9,207.6 L 141.3,223.0" style="fill:none;fill-rule:evenodd;stroke:#FF0000;stroke-width:2.0px;stroke-linecap:butt;stroke-linejoin:miter;stroke-opacity:1"/>
<path class="bond-6 atom-5 atom-7" d="M 148.3,192.5 L 182.8,177.2" style="fill:none;fill-rule:evenodd;stroke:#000000;stroke-width:2.0px;stroke-linecap:butt;stroke-linejoin:miter;stroke-opacity:1"/>
<path class="bond-7 atom-7 atom-8" d="M 182.8,177.2 L 186.7,139.7" style="fill:none;fill-rule:evenodd;stroke:#000000;stroke-width:2.0px;stroke-linecap:butt;stroke-linejoin:miter;stroke-opacity:1"/>
<path class="bond-7 atom-7 atom-8" d="M 190.9,172.4 L 193.6,146.1" style="fill:none;fill-rule:evenodd;stroke:#000000;stroke-width:2.0px;stroke-linecap:butt;stroke-linejoin:miter;stroke-opacity:1"/>
<path class="bond-8 atom-8 atom-9" d="M 186.7,139.7 L 221.2,124.4" style="fill:none;fill-rule:evenodd;stroke:#000000;stroke-width:2.0px;stroke-linecap:butt;stroke-linejoin:miter;stroke-opacity:1"/>
<path class="bond-9 atom-9 atom-10" d="M 221.2,124.4 L 251.7,146.6" style="fill:none;fill-rule:evenodd;stroke:#000000;stroke-width:2.0px;stroke-linecap:butt;stroke-linejoin:miter;stroke-opacity:1"/>
<path class="bond-9 atom-9 atom-10" d="M 221.3,133.8 L 242.7,149.3" style="fill:none;fill-rule:evenodd;stroke:#000000;stroke-width:2.0px;stroke-linecap:butt;stroke-linejoin:miter;stroke-opacity:1"/>
<path class="bond-10 atom-10 atom-11" d="M 251.7,146.6 L 265.8,140.3" style="fill:none;fill-rule:evenodd;stroke:#000000;stroke-width:2.0px;stroke-linecap:butt;stroke-linejoin:miter;stroke-opacity:1"/>
<path class="bond-10 atom-10 atom-11" d="M 265.8,140.3 L 280.0,134.0" style="fill:none;fill-rule:evenodd;stroke:#FF0000;stroke-width:2.0px;stroke-linecap:butt;stroke-linejoin:miter;stroke-opacity:1"/>
<path class="bond-11 atom-11 atom-12" d="M 292.3,135.7 L 304.5,144.6" style="fill:none;fill-rule:evenodd;stroke:#FF0000;stroke-width:2.0px;stroke-linecap:butt;stroke-linejoin:miter;stroke-opacity:1"/>
<path class="bond-11 atom-11 atom-12" d="M 304.5,144.6 L 316.6,153.4" style="fill:none;fill-rule:evenodd;stroke:#000000;stroke-width:2.0px;stroke-linecap:butt;stroke-linejoin:miter;stroke-opacity:1"/>
<path class="bond-12 atom-12 atom-13" d="M 316.6,153.4 L 312.7,190.9" style="fill:none;fill-rule:evenodd;stroke:#000000;stroke-width:2.0px;stroke-linecap:butt;stroke-linejoin:miter;stroke-opacity:1"/>
<path class="bond-12 atom-12 atom-13" d="M 323.5,159.8 L 320.8,186.1" style="fill:none;fill-rule:evenodd;stroke:#000000;stroke-width:2.0px;stroke-linecap:butt;stroke-linejoin:miter;stroke-opacity:1"/>
<path class="bond-13 atom-13 atom-14" d="M 312.7,190.9 L 343.2,213.1" style="fill:none;fill-rule:evenodd;stroke:#000000;stroke-width:2.0px;stroke-linecap:butt;stroke-linejoin:miter;stroke-opacity:1"/>
<path class="bond-14 atom-14 atom-15" d="M 343.2,213.1 L 377.6,197.8" style="fill:none;fill-rule:evenodd;stroke:#000000;stroke-width:2.0px;stroke-linecap:butt;stroke-linejoin:miter;stroke-opacity:1"/>
<path class="bond-14 atom-14 atom-15" d="M 345.3,203.9 L 369.4,193.2" style="fill:none;fill-rule:evenodd;stroke:#000000;stroke-width:2.0px;stroke-linecap:butt;stroke-linejoin:miter;stroke-opacity:1"/>
<path class="bond-15 atom-15 atom-16" d="M 377.6,197.8 L 381.6,160.3" style="fill:none;fill-rule:evenodd;stroke:#000000;stroke-width:2.0px;stroke-linecap:butt;stroke-linejoin:miter;stroke-opacity:1"/>
<path class="bond-16 atom-16 atom-17" d="M 381.6,160.3 L 351.1,138.1" style="fill:none;fill-rule:evenodd;stroke:#000000;stroke-width:2.0px;stroke-linecap:butt;stroke-linejoin:miter;stroke-opacity:1"/>
<path class="bond-16 atom-16 atom-17" d="M 372.6,163.0 L 351.2,147.5" style="fill:none;fill-rule:evenodd;stroke:#000000;stroke-width:2.0px;stroke-linecap:butt;stroke-linejoin:miter;stroke-opacity:1"/>
<path class="bond-17 atom-10 atom-18" d="M 251.7,146.6 L 247.7,184.1" style="fill:none;fill-rule:evenodd;stroke:#000000;stroke-width:2.0px;stroke-linecap:butt;stroke-linejoin:miter;stroke-opacity:1"/>
<path class="bond-18 atom-18 atom-19" d="M 247.7,184.1 L 213.3,199.4" style="fill:none;fill-rule:evenodd;stroke:#000000;stroke-width:2.0px;stroke-linecap:butt;stroke-linejoin:miter;stroke-opacity:1"/>
<path class="bond-18 atom-18 atom-19" d="M 239.5,179.5 L 215.4,190.2" style="fill:none;fill-rule:evenodd;stroke:#000000;stroke-width:2.0px;stroke-linecap:butt;stroke-linejoin:miter;stroke-opacity:1"/>
<path class="bond-19 atom-19 atom-7" d="M 213.3,199.4 L 182.8,177.2" style="fill:none;fill-rule:evenodd;stroke:#000000;stroke-width:2.0px;stroke-linecap:butt;stroke-linejoin:miter;stroke-opacity:1"/>
<path class="bond-20 atom-17 atom-12" d="M 351.1,138.1 L 316.6,153.4" style="fill:none;fill-rule:evenodd;stroke:#000000;stroke-width:2.0px;stroke-linecap:butt;stroke-linejoin:miter;stroke-opacity:1"/>
<path class="atom-4" d="M 112.9 170.4 Q 112.9 167.8, 114.2 166.4 Q 115.5 165.0, 117.8 165.0 Q 120.2 165.0, 121.5 166.4 Q 122.7 167.8, 122.7 170.4 Q 122.7 173.0, 121.4 174.5 Q 120.2 175.9, 117.8 175.9 Q 115.5 175.9, 114.2 174.5 Q 112.9 173.0, 112.9 170.4 M 117.8 174.7 Q 119.4 174.7, 120.3 173.6 Q 121.2 172.5, 121.2 170.4 Q 121.2 168.3, 120.3 167.2 Q 119.4 166.2, 117.8 166.2 Q 116.2 166.2, 115.3 167.2 Q 114.4 168.3, 114.4 170.4 Q 114.4 172.6, 115.3 173.6 Q 116.2 174.7, 117.8 174.7 " fill="#FF0000"/>
<path class="atom-6" d="M 139.5 230.1 Q 139.5 227.5, 140.7 226.1 Q 142.0 224.6, 144.4 224.6 Q 146.7 224.6, 148.0 226.1 Q 149.3 227.5, 149.3 230.1 Q 149.3 232.7, 148.0 234.1 Q 146.7 235.6, 144.4 235.6 Q 142.0 235.6, 140.7 234.1 Q 139.5 232.7, 139.5 230.1 M 144.4 234.4 Q 146.0 234.4, 146.9 233.3 Q 147.8 232.2, 147.8 230.1 Q 147.8 228.0, 146.9 226.9 Q 146.0 225.8, 144.4 225.8 Q 142.7 225.8, 141.8 226.9 Q 141.0 228.0, 141.0 230.1 Q 141.0 232.2, 141.8 233.3 Q 142.7 234.4, 144.4 234.4 " fill="#FF0000"/>
<path class="atom-11" d="M 281.2 131.3 Q 281.2 128.7, 282.5 127.3 Q 283.8 125.8, 286.1 125.8 Q 288.5 125.8, 289.8 127.3 Q 291.0 128.7, 291.0 131.3 Q 291.0 133.9, 289.8 135.3 Q 288.5 136.8, 286.1 136.8 Q 283.8 136.8, 282.5 135.3 Q 281.2 133.9, 281.2 131.3 M 286.1 135.6 Q 287.8 135.6, 288.6 134.5 Q 289.5 133.4, 289.5 131.3 Q 289.5 129.2, 288.6 128.1 Q 287.8 127.1, 286.1 127.1 Q 284.5 127.1, 283.6 128.1 Q 282.7 129.2, 282.7 131.3 Q 282.7 133.4, 283.6 134.5 Q 284.5 135.6, 286.1 135.6 " fill="#FF0000"/>
<path class="legend" d="M 168.1 365.4 L 168.2 366.5 Q 169.1 365.3, 170.5 365.3 Q 171.0 365.3, 171.6 365.4 L 171.3 366.8 Q 170.6 366.6, 170.2 366.6 Q 169.6 366.6, 169.1 366.9 Q 168.7 367.1, 168.3 367.8 L 168.3 373.6 L 166.8 373.6 L 166.8 365.4 L 168.1 365.4 " fill="#000000"/>
<path class="legend" d="M 171.8 369.5 Q 171.8 367.5, 172.8 366.4 Q 173.8 365.3, 175.7 365.3 Q 177.5 365.3, 178.3 366.4 Q 179.1 367.4, 179.1 369.5 L 179.1 369.7 L 173.3 369.7 Q 173.4 371.1, 174.0 371.8 Q 174.6 372.6, 175.8 372.6 Q 176.4 372.6, 177.0 372.4 Q 177.6 372.3, 178.3 372.0 L 178.8 373.0 Q 177.9 373.4, 177.2 373.6 Q 176.5 373.8, 175.7 373.8 Q 173.8 373.8, 172.8 372.6 Q 171.8 371.5, 171.8 369.5 M 175.7 366.4 Q 174.7 366.4, 174.1 367.0 Q 173.6 367.5, 173.4 368.6 L 177.5 368.6 Q 177.4 367.5, 176.9 367.0 Q 176.5 366.4, 175.7 366.4 " fill="#000000"/>
<path class="legend" d="M 179.7 371.4 Q 179.7 370.1, 180.7 369.4 Q 181.8 368.7, 183.7 368.7 L 185.0 368.7 L 185.0 368.3 Q 185.0 367.3, 184.5 366.9 Q 184.1 366.4, 183.1 366.4 Q 182.4 366.4, 181.9 366.6 Q 181.4 366.7, 180.6 367.0 L 180.2 366.0 Q 181.7 365.3, 183.1 365.3 Q 184.9 365.3, 185.7 366.0 Q 186.5 366.8, 186.5 368.4 L 186.5 373.6 L 185.3 373.6 Q 185.3 373.6, 185.2 373.3 Q 185.2 373.1, 185.1 372.7 Q 183.9 373.8, 182.4 373.8 Q 181.2 373.8, 180.4 373.2 Q 179.7 372.5, 179.7 371.4 M 181.2 371.4 Q 181.2 372.0, 181.6 372.3 Q 182.0 372.6, 182.7 372.6 Q 183.3 372.6, 183.9 372.4 Q 184.5 372.0, 185.0 371.5 L 185.0 369.8 L 183.8 369.8 Q 182.5 369.8, 181.8 370.2 Q 181.2 370.6, 181.2 371.4 " fill="#000000"/>
<path class="legend" d="M 187.7 369.5 Q 187.7 367.5, 188.7 366.4 Q 189.7 365.3, 191.6 365.3 Q 193.5 365.3, 194.5 366.6 L 193.5 367.4 Q 193.1 366.9, 192.6 366.7 Q 192.2 366.4, 191.6 366.4 Q 190.5 366.4, 189.8 367.2 Q 189.2 368.0, 189.2 369.5 Q 189.2 371.0, 189.9 371.8 Q 190.5 372.6, 191.7 372.6 Q 192.4 372.6, 192.9 372.4 Q 193.3 372.3, 193.9 372.0 L 194.3 373.0 Q 193.1 373.7, 191.6 373.7 Q 189.7 373.7, 188.7 372.6 Q 187.7 371.5, 187.7 369.5 " fill="#000000"/>
<path class="legend" d="M 194.9 366.6 L 194.9 365.4 L 196.4 365.4 L 196.7 363.0 L 197.8 363.0 L 197.8 365.4 L 200.3 365.4 L 200.3 366.6 L 197.8 366.6 L 197.8 371.1 Q 197.8 372.5, 199.0 372.5 Q 199.5 372.5, 200.2 372.3 L 200.4 373.4 Q 199.6 373.7, 198.7 373.7 Q 197.7 373.7, 197.0 373.1 Q 196.3 372.4, 196.3 371.2 L 196.3 366.6 L 194.9 366.6 " fill="#000000"/>
<path class="legend" d="M 209.0 374.4 L 209.0 375.7 L 200.8 375.7 L 200.8 374.4 L 209.0 374.4 " fill="#000000"/>
<path class="legend" d="M 214.9 363.6 L 209.0 363.6 L 209.0 362.3 L 216.5 362.3 L 216.5 363.4 L 211.9 373.6 L 210.4 373.6 L 214.9 363.6 " fill="#000000"/>
<path class="legend" d="M 222.4 367.7 Q 223.5 368.0, 224.1 368.7 Q 224.6 369.4, 224.6 370.5 Q 224.6 371.5, 224.1 372.2 Q 223.6 373.0, 222.8 373.4 Q 221.9 373.8, 220.7 373.8 Q 219.5 373.8, 218.6 373.4 Q 217.7 372.9, 217.0 372.1 L 217.9 371.2 Q 218.6 371.9, 219.2 372.2 Q 219.8 372.5, 220.7 372.5 Q 221.8 372.5, 222.4 372.0 Q 223.0 371.4, 223.0 370.5 Q 223.0 369.4, 222.3 368.8 Q 221.7 368.3, 220.3 368.3 L 219.5 368.3 L 219.5 367.2 L 220.2 367.2 Q 221.4 367.2, 222.1 366.6 Q 222.8 366.1, 222.8 365.1 Q 222.8 364.3, 222.2 363.9 Q 221.7 363.5, 220.7 363.5 Q 219.8 363.5, 219.2 363.8 Q 218.6 364.1, 218.2 365.0 L 217.1 364.4 Q 217.5 363.4, 218.4 362.8 Q 219.4 362.2, 220.7 362.2 Q 222.4 362.2, 223.4 363.0 Q 224.4 363.7, 224.4 365.1 Q 224.4 366.0, 223.9 366.6 Q 223.4 367.3, 222.4 367.7 " fill="#000000"/>
<path class="legend" d="M 231.0 367.7 Q 232.1 368.0, 232.6 368.7 Q 233.2 369.4, 233.2 370.5 Q 233.2 371.5, 232.7 372.2 Q 232.2 373.0, 231.3 373.4 Q 230.4 373.8, 229.3 373.8 Q 228.1 373.8, 227.2 373.4 Q 226.3 372.9, 225.5 372.1 L 226.5 371.2 Q 227.2 371.9, 227.8 372.2 Q 228.3 372.5, 229.3 372.5 Q 230.3 372.5, 230.9 372.0 Q 231.6 371.4, 231.6 370.5 Q 231.6 369.4, 230.9 368.8 Q 230.3 368.3, 228.9 368.3 L 228.1 368.3 L 228.1 367.2 L 228.8 367.2 Q 230.0 367.2, 230.7 366.6 Q 231.3 366.1, 231.3 365.1 Q 231.3 364.3, 230.8 363.9 Q 230.2 363.5, 229.3 363.5 Q 228.4 363.5, 227.8 363.8 Q 227.2 364.1, 226.7 365.0 L 225.6 364.4 Q 226.0 363.4, 227.0 362.8 Q 228.0 362.2, 229.3 362.2 Q 231.0 362.2, 231.9 363.0 Q 232.9 363.7, 232.9 365.1 Q 232.9 366.0, 232.4 366.6 Q 231.9 367.3, 231.0 367.7 " fill="#000000"/>
<path class="legend" d="M 137.5 383.8 Q 137.5 381.8, 138.5 380.7 Q 139.5 379.5, 141.5 379.5 Q 143.3 379.5, 144.3 380.9 L 143.3 381.6 Q 142.9 381.2, 142.5 380.9 Q 142.1 380.7, 141.5 380.7 Q 140.3 380.7, 139.7 381.5 Q 139.1 382.3, 139.1 383.8 Q 139.1 385.3, 139.7 386.1 Q 140.4 386.8, 141.6 386.8 Q 142.2 386.8, 142.7 386.7 Q 143.2 386.5, 143.7 386.3 L 144.2 387.3 Q 143.0 388.0, 141.5 388.0 Q 139.5 388.0, 138.5 386.9 Q 137.5 385.7, 137.5 383.8 " fill="#000000"/>
<path class="legend" d="M 144.7 383.8 Q 144.7 381.7, 145.7 380.6 Q 146.7 379.5, 148.6 379.5 Q 150.4 379.5, 151.2 380.6 Q 152.0 381.7, 152.0 383.7 L 152.0 384.0 L 146.2 384.0 Q 146.3 385.4, 146.9 386.1 Q 147.5 386.8, 148.7 386.8 Q 149.3 386.8, 149.9 386.7 Q 150.5 386.5, 151.2 386.2 L 151.7 387.2 Q 150.9 387.6, 150.1 387.8 Q 149.4 388.0, 148.6 388.0 Q 146.8 388.0, 145.7 386.9 Q 144.7 385.8, 144.7 383.8 M 148.6 380.7 Q 147.6 380.7, 147.0 381.2 Q 146.5 381.8, 146.3 382.8 L 150.4 382.8 Q 150.3 381.7, 149.8 381.2 Q 149.4 380.7, 148.6 380.7 " fill="#000000"/>
<path class="legend" d="M 156.9 379.5 Q 158.2 379.5, 158.9 380.3 Q 159.6 381.0, 159.6 382.4 L 159.6 387.9 L 158.1 387.9 L 158.1 382.6 Q 158.1 381.6, 157.7 381.2 Q 157.3 380.7, 156.5 380.7 Q 155.7 380.7, 155.1 381.1 Q 154.5 381.4, 154.1 382.0 L 154.1 387.9 L 152.6 387.9 L 152.6 379.7 L 153.8 379.7 L 154.0 380.8 Q 155.1 379.5, 156.9 379.5 " fill="#000000"/>
<path class="legend" d="M 160.8 380.8 L 160.8 379.7 L 162.4 379.7 L 162.6 377.3 L 163.8 377.3 L 163.8 379.7 L 166.3 379.7 L 166.3 380.8 L 163.8 380.8 L 163.8 385.4 Q 163.8 386.8, 165.0 386.8 Q 165.4 386.8, 166.1 386.6 L 166.4 387.6 Q 165.5 388.0, 164.7 388.0 Q 163.6 388.0, 162.9 387.3 Q 162.3 386.7, 162.3 385.4 L 162.3 380.8 L 160.8 380.8 " fill="#000000"/>
<path class="legend" d="M 175.0 388.7 L 175.0 390.0 L 166.8 390.0 L 166.8 388.7 L 175.0 388.7 " fill="#000000"/>
<path class="legend" d="M 182.4 375.7 L 182.4 387.9 L 181.2 387.9 L 181.0 386.9 Q 180.1 388.0, 178.6 388.0 Q 176.9 388.0, 175.9 387.0 Q 175.0 385.9, 175.0 383.9 Q 175.0 381.8, 176.1 380.7 Q 177.2 379.5, 179.2 379.5 Q 180.0 379.5, 180.9 379.7 L 180.9 375.7 L 182.4 375.7 M 178.7 386.8 Q 179.5 386.8, 180.1 386.4 Q 180.7 385.9, 180.9 385.1 L 180.9 380.9 Q 180.1 380.7, 179.2 380.7 Q 177.9 380.7, 177.2 381.6 Q 176.5 382.4, 176.5 383.9 Q 176.5 385.3, 177.1 386.1 Q 177.6 386.8, 178.7 386.8 " fill="#000000"/>
<path class="legend" d="M 183.7 376.6 L 185.2 376.6 L 185.2 378.0 L 183.7 378.0 L 183.7 376.6 M 183.7 379.7 L 185.2 379.7 L 185.2 387.9 L 183.7 387.9 L 183.7 379.7 " fill="#000000"/>
<path class="legend" d="M 187.0 386.2 Q 187.7 386.5, 188.3 386.6 Q 188.8 386.8, 189.3 386.8 Q 190.1 386.8, 190.5 386.5 Q 190.9 386.2, 190.9 385.6 Q 190.9 385.2, 190.7 385.0 Q 190.5 384.8, 190.2 384.6 Q 189.9 384.5, 189.2 384.3 Q 189.1 384.3, 188.4 384.0 Q 187.6 383.7, 187.2 383.2 Q 186.8 382.7, 186.8 381.9 Q 186.8 380.9, 187.6 380.2 Q 188.4 379.5, 189.9 379.5 Q 190.5 379.5, 191.0 379.7 Q 191.6 379.8, 192.2 380.0 L 191.8 381.2 Q 191.3 381.0, 190.8 380.9 Q 190.4 380.8, 189.9 380.8 Q 189.1 380.8, 188.7 381.1 Q 188.3 381.4, 188.3 381.8 Q 188.3 382.3, 188.6 382.5 Q 188.9 382.7, 189.6 383.0 Q 189.8 383.0, 189.9 383.1 L 190.3 383.2 Q 191.0 383.4, 191.4 383.7 Q 191.8 383.9, 192.1 384.4 Q 192.4 384.8, 192.4 385.6 Q 192.4 386.7, 191.5 387.4 Q 190.7 388.0, 189.4 388.0 Q 188.6 388.0, 187.9 387.9 Q 187.2 387.7, 186.6 387.4 L 187.0 386.2 " fill="#000000"/>
<path class="legend" d="M 193.2 380.8 L 193.2 379.7 L 194.8 379.7 L 195.1 377.3 L 196.2 377.3 L 196.2 379.7 L 198.7 379.7 L 198.7 380.8 L 196.2 380.8 L 196.2 385.4 Q 196.2 386.8, 197.4 386.8 Q 197.9 386.8, 198.6 386.6 L 198.8 387.6 Q 197.9 388.0, 197.1 388.0 Q 196.0 388.0, 195.3 387.3 Q 194.7 386.7, 194.7 385.4 L 194.7 380.8 L 193.2 380.8 " fill="#000000"/>
<path class="legend" d="" fill="#000000"/>
<path class="legend" d="M 204.6 380.9 L 211.9 380.9 L 211.9 382.1 L 204.6 382.1 L 204.6 380.9 M 204.6 384.4 L 211.9 384.4 L 211.9 385.5 L 204.6 385.5 L 204.6 384.4 " fill="#000000"/>
<path class="legend" d="" fill="#000000"/>
<path class="legend" d="M 222.8 388.0 Q 220.7 388.0, 219.7 386.5 Q 218.7 384.9, 218.7 382.2 Q 218.7 379.5, 219.7 378.0 Q 220.7 376.4, 222.8 376.4 Q 224.9 376.4, 225.9 378.0 Q 227.0 379.5, 227.0 382.2 Q 227.0 384.9, 225.9 386.5 Q 224.9 388.0, 222.8 388.0 M 222.8 386.7 Q 224.0 386.7, 224.7 385.6 Q 225.4 384.4, 225.4 382.2 Q 225.4 380.0, 224.7 378.8 Q 224.0 377.7, 222.8 377.7 Q 221.6 377.7, 220.9 378.8 Q 220.3 380.0, 220.3 382.2 Q 220.3 384.4, 220.9 385.6 Q 221.6 386.7, 222.8 386.7 " fill="#000000"/>
<path class="legend" d="M 228.0 386.3 L 229.6 386.3 L 229.6 387.9 L 228.0 387.9 L 228.0 386.3 " fill="#000000"/>
<path class="legend" d="M 238.0 384.0 L 239.4 384.0 L 239.4 385.3 L 238.0 385.3 L 238.0 387.9 L 236.5 387.9 L 236.5 385.3 L 230.6 385.3 L 230.6 384.3 L 235.6 376.6 L 238.0 376.6 L 238.0 384.0 M 232.5 384.0 L 236.5 384.0 L 236.5 377.6 L 232.5 384.0 " fill="#000000"/>
<path class="legend" d="M 246.1 377.8 L 240.1 377.8 L 240.1 376.6 L 247.7 376.6 L 247.7 377.7 L 243.1 387.9 L 241.5 387.9 L 246.1 377.8 " fill="#000000"/>
<path class="legend" d="M 248.7 386.6 L 251.2 386.6 L 251.2 378.1 L 248.5 379.0 L 248.1 378.0 L 251.6 376.5 L 252.7 376.7 L 252.7 386.6 L 255.0 386.6 L 255.0 387.9 L 248.7 387.9 L 248.7 386.6 " fill="#000000"/>
<path class="legend" d="M 256.3 386.6 L 258.7 386.6 L 258.7 378.1 L 256.0 379.0 L 255.6 378.0 L 259.1 376.5 L 260.2 376.7 L 260.2 386.6 L 262.5 386.6 L 262.5 387.9 L 256.3 387.9 L 256.3 386.6 " fill="#000000"/>
<path class="bond-0 atom-0 atom-1" d="M 462.6,124.2 L 457.0,161.5" style="fill:none;fill-rule:evenodd;stroke:#000000;stroke-width:2.0px;stroke-linecap:butt;stroke-linejoin:miter;stroke-opacity:1"/>
<path class="bond-0 atom-0 atom-1" d="M 455.1,123.1 L 449.5,160.4" style="fill:none;fill-rule:evenodd;stroke:#000000;stroke-width:2.0px;stroke-linecap:butt;stroke-linejoin:miter;stroke-opacity:1"/>
<path class="bond-1 atom-1 atom-2" d="M 453.3,160.9 L 418.2,174.7" style="fill:none;fill-rule:evenodd;stroke:#000000;stroke-width:2.0px;stroke-linecap:butt;stroke-linejoin:miter;stroke-opacity:1"/>
<path class="bond-2 atom-1 atom-3" d="M 453.3,160.9 L 482.8,184.4" style="fill:none;fill-rule:evenodd;stroke:#000000;stroke-width:2.0px;stroke-linecap:butt;stroke-linejoin:miter;stroke-opacity:1"/>
<path class="bond-3 atom-3 atom-4" d="M 482.8,184.4 L 497.2,178.7" style="fill:none;fill-rule:evenodd;stroke:#000000;stroke-width:2.0px;stroke-linecap:butt;stroke-linejoin:miter;stroke-opacity:1"/>
<path class="bond-3 atom-3 atom-4" d="M 497.2,178.7 L 511.7,173.0" style="fill:none;fill-rule:evenodd;stroke:#FF0000;stroke-width:2.0px;stroke-linecap:butt;stroke-linejoin:miter;stroke-opacity:1"/>
<path class="bond-4 atom-4 atom-5" d="M 524.0,175.5 L 535.7,184.8" style="fill:none;fill-rule:evenodd;stroke:#FF0000;stroke-width:2.0px;stroke-linecap:butt;stroke-linejoin:miter;stroke-opacity:1"/>
<path class="bond-4 atom-4 atom-5" d="M 535.7,184.8 L 547.4,194.1" style="fill:none;fill-rule:evenodd;stroke:#000000;stroke-width:2.0px;stroke-linecap:butt;stroke-linejoin:miter;stroke-opacity:1"/>
<path class="bond-5 atom-5 atom-6" d="M 551.1,194.6 L 548.8,209.9" style="fill:none;fill-rule:evenodd;stroke:#000000;stroke-width:2.0px;stroke-linecap:butt;stroke-linejoin:miter;stroke-opacity:1"/>
<path class="bond-5 atom-5 atom-6" d="M 548.8,209.9 L 546.5,225.3" style="fill:none;fill-rule:evenodd;stroke:#FF0000;stroke-width:2.0px;stroke-linecap:butt;stroke-linejoin:miter;stroke-opacity:1"/>
<path class="bond-5 atom-5 atom-6" d="M 543.6,193.5 L 541.3,208.8" style="fill:none;fill-rule:evenodd;stroke:#000000;stroke-width:2.0px;stroke-linecap:butt;stroke-linejoin:miter;stroke-opacity:1"/>
<path class="bond-5 atom-5 atom-6" d="M 541.3,208.8 L 539.1,224.2" style="fill:none;fill-rule:evenodd;stroke:#FF0000;stroke-width:2.0px;stroke-linecap:butt;stroke-linejoin:miter;stroke-opacity:1"/>
<path class="bond-6 atom-5 atom-7" d="M 547.4,194.1 L 582.5,180.2" style="fill:none;fill-rule:evenodd;stroke:#000000;stroke-width:2.0px;stroke-linecap:butt;stroke-linejoin:miter;stroke-opacity:1"/>
<path class="bond-7 atom-7 atom-8" d="M 582.5,180.2 L 588.0,143.0" style="fill:none;fill-rule:evenodd;stroke:#000000;stroke-width:2.0px;stroke-linecap:butt;stroke-linejoin:miter;stroke-opacity:1"/>
<path class="bond-7 atom-7 atom-8" d="M 590.8,175.8 L 594.7,149.7" style="fill:none;fill-rule:evenodd;stroke:#000000;stroke-width:2.0px;stroke-linecap:butt;stroke-linejoin:miter;stroke-opacity:1"/>
<path class="bond-8 atom-8 atom-9" d="M 588.0,143.0 L 623.1,129.1" style="fill:none;fill-rule:evenodd;stroke:#000000;stroke-width:2.0px;stroke-linecap:butt;stroke-linejoin:miter;stroke-opacity:1"/>
<path class="bond-9 atom-9 atom-10" d="M 623.1,129.1 L 652.6,152.6" style="fill:none;fill-rule:evenodd;stroke:#000000;stroke-width:2.0px;stroke-linecap:butt;stroke-linejoin:miter;stroke-opacity:1"/>
<path class="bond-9 atom-9 atom-10" d="M 622.9,138.6 L 643.5,155.0" style="fill:none;fill-rule:evenodd;stroke:#000000;stroke-width:2.0px;stroke-linecap:butt;stroke-linejoin:miter;stroke-opacity:1"/>
<path class="bond-10 atom-10 atom-11" d="M 652.6,152.6 L 687.7,138.8" style="fill:none;fill-rule:evenodd;stroke:#000000;stroke-width:2.0px;stroke-linecap:butt;stroke-linejoin:miter;stroke-opacity:1"/>
<path class="bond-11 atom-11 atom-12" d="M 687.7,138.8 L 717.2,162.3" style="fill:none;fill-rule:evenodd;stroke:#000000;stroke-width:2.0px;stroke-linecap:butt;stroke-linejoin:miter;stroke-opacity:1"/>
<path class="bond-11 atom-11 atom-12" d="M 687.4,148.2 L 708.1,164.7" style="fill:none;fill-rule:evenodd;stroke:#000000;stroke-width:2.0px;stroke-linecap:butt;stroke-linejoin:miter;stroke-opacity:1"/>
<path class="bond-12 atom-12 atom-13" d="M 717.2,162.3 L 731.7,156.6" style="fill:none;fill-rule:evenodd;stroke:#000000;stroke-width:2.0px;stroke-linecap:butt;stroke-linejoin:miter;stroke-opacity:1"/>
<path class="bond-12 atom-12 atom-13" d="M 731.7,156.6 L 746.2,150.9" style="fill:none;fill-rule:evenodd;stroke:#FF0000;stroke-width:2.0px;stroke-linecap:butt;stroke-linejoin:miter;stroke-opacity:1"/>
<path class="bond-13 atom-13 atom-14" d="M 758.5,153.4 L 770.1,162.6" style="fill:none;fill-rule:evenodd;stroke:#FF0000;stroke-width:2.0px;stroke-linecap:butt;stroke-linejoin:miter;stroke-opacity:1"/>
<path class="bond-13 atom-13 atom-14" d="M 770.1,162.6 L 781.8,171.9" style="fill:none;fill-rule:evenodd;stroke:#000000;stroke-width:2.0px;stroke-linecap:butt;stroke-linejoin:miter;stroke-opacity:1"/>
<path class="bond-14 atom-12 atom-15" d="M 717.2,162.3 L 711.6,199.6" style="fill:none;fill-rule:evenodd;stroke:#000000;stroke-width:2.0px;stroke-linecap:butt;stroke-linejoin:miter;stroke-opacity:1"/>
<path class="bond-15 atom-15 atom-16" d="M 711.6,199.6 L 676.6,213.4" style="fill:none;fill-rule:evenodd;stroke:#000000;stroke-width:2.0px;stroke-linecap:butt;stroke-linejoin:miter;stroke-opacity:1"/>
<path class="bond-15 atom-15 atom-16" d="M 703.6,194.6 L 679.1,204.3" style="fill:none;fill-rule:evenodd;stroke:#000000;stroke-width:2.0px;stroke-linecap:butt;stroke-linejoin:miter;stroke-opacity:1"/>
<path class="bond-16 atom-16 atom-17" d="M 676.6,213.4 L 647.1,189.9" style="fill:none;fill-rule:evenodd;stroke:#000000;stroke-width:2.0px;stroke-linecap:butt;stroke-linejoin:miter;stroke-opacity:1"/>
<path class="bond-17 atom-17 atom-18" d="M 647.1,189.9 L 612.0,203.7" style="fill:none;fill-rule:evenodd;stroke:#000000;stroke-width:2.0px;stroke-linecap:butt;stroke-linejoin:miter;stroke-opacity:1"/>
<path class="bond-17 atom-17 atom-18" d="M 639.0,185.0 L 614.5,194.6" style="fill:none;fill-rule:evenodd;stroke:#000000;stroke-width:2.0px;stroke-linecap:butt;stroke-linejoin:miter;stroke-opacity:1"/>
<path class="bond-18 atom-18 atom-7" d="M 612.0,203.7 L 582.5,180.2" style="fill:none;fill-rule:evenodd;stroke:#000000;stroke-width:2.0px;stroke-linecap:butt;stroke-linejoin:miter;stroke-opacity:1"/>
<path class="bond-19 atom-17 atom-10" d="M 647.1,189.9 L 652.6,152.6" style="fill:none;fill-rule:evenodd;stroke:#000000;stroke-width:2.0px;stroke-linecap:butt;stroke-linejoin:miter;stroke-opacity:1"/>
<path class="atom-4" d="M 513.0 170.6 Q 513.0 168.1, 514.2 166.6 Q 515.5 165.2, 517.9 165.2 Q 520.2 165.2, 521.5 166.6 Q 522.8 168.1, 522.8 170.6 Q 522.8 173.2, 521.5 174.7 Q 520.2 176.2, 517.9 176.2 Q 515.5 176.2, 514.2 174.7 Q 513.0 173.2, 513.0 170.6 M 517.9 174.9 Q 519.5 174.9, 520.4 173.9 Q 521.3 172.8, 521.3 170.6 Q 521.3 168.5, 520.4 167.5 Q 519.5 166.4, 517.9 166.4 Q 516.2 166.4, 515.3 167.5 Q 514.5 168.5, 514.5 170.6 Q 514.5 172.8, 515.3 173.9 Q 516.2 174.9, 517.9 174.9 " fill="#FF0000"/>
<path class="atom-6" d="M 536.9 231.4 Q 536.9 228.8, 538.2 227.4 Q 539.4 226.0, 541.8 226.0 Q 544.2 226.0, 545.4 227.4 Q 546.7 228.8, 546.7 231.4 Q 546.7 234.0, 545.4 235.5 Q 544.1 236.9, 541.8 236.9 Q 539.4 236.9, 538.2 235.5 Q 536.9 234.0, 536.9 231.4 M 541.8 235.7 Q 543.4 235.7, 544.3 234.6 Q 545.2 233.5, 545.2 231.4 Q 545.2 229.3, 544.3 228.2 Q 543.4 227.2, 541.8 227.2 Q 540.2 227.2, 539.3 228.2 Q 538.4 229.3, 538.4 231.4 Q 538.4 233.5, 539.3 234.6 Q 540.2 235.7, 541.8 235.7 " fill="#FF0000"/>
<path class="atom-13" d="M 747.4 148.5 Q 747.4 145.9, 748.7 144.5 Q 749.9 143.1, 752.3 143.1 Q 754.7 143.1, 755.9 144.5 Q 757.2 145.9, 757.2 148.5 Q 757.2 151.1, 755.9 152.6 Q 754.6 154.0, 752.3 154.0 Q 750.0 154.0, 748.7 152.6 Q 747.4 151.1, 747.4 148.5 M 752.3 152.8 Q 753.9 152.8, 754.8 151.7 Q 755.7 150.6, 755.7 148.5 Q 755.7 146.4, 754.8 145.3 Q 753.9 144.3, 752.3 144.3 Q 750.7 144.3, 749.8 145.3 Q 748.9 146.4, 748.9 148.5 Q 748.9 150.7, 749.8 151.7 Q 750.7 152.8, 752.3 152.8 " fill="#FF0000"/>
<path class="legend" d="M 568.4 365.4 L 568.6 366.5 Q 569.5 365.3, 570.9 365.3 Q 571.3 365.3, 572.0 365.4 L 571.7 366.8 Q 571.0 366.6, 570.6 366.6 Q 570.0 366.6, 569.5 366.9 Q 569.1 367.1, 568.7 367.8 L 568.7 373.6 L 567.2 373.6 L 567.2 365.4 L 568.4 365.4 " fill="#000000"/>
<path class="legend" d="M 572.2 369.5 Q 572.2 367.5, 573.2 366.4 Q 574.2 365.3, 576.0 365.3 Q 577.9 365.3, 578.7 366.4 Q 579.5 367.4, 579.5 369.5 L 579.5 369.7 L 573.7 369.7 Q 573.8 371.1, 574.4 371.8 Q 575.0 372.6, 576.2 372.6 Q 576.8 372.6, 577.4 372.4 Q 578.0 372.3, 578.7 372.0 L 579.2 373.0 Q 578.3 373.4, 577.6 373.6 Q 576.9 373.8, 576.1 373.8 Q 574.2 373.8, 573.2 372.6 Q 572.2 371.5, 572.2 369.5 M 576.0 366.4 Q 575.1 366.4, 574.5 367.0 Q 574.0 367.5, 573.8 368.6 L 577.9 368.6 Q 577.8 367.5, 577.3 367.0 Q 576.9 366.4, 576.0 366.4 " fill="#000000"/>
<path class="legend" d="M 580.1 371.4 Q 580.1 370.1, 581.1 369.4 Q 582.2 368.7, 584.1 368.7 L 585.3 368.7 L 585.3 368.3 Q 585.3 367.3, 584.9 366.9 Q 584.5 366.4, 583.5 366.4 Q 582.8 366.4, 582.3 366.6 Q 581.8 366.7, 581.0 367.0 L 580.5 366.0 Q 582.0 365.3, 583.5 365.3 Q 585.2 365.3, 586.0 366.0 Q 586.8 366.8, 586.8 368.4 L 586.8 373.6 L 585.7 373.6 Q 585.7 373.6, 585.6 373.3 Q 585.6 373.1, 585.5 372.7 Q 584.3 373.8, 582.8 373.8 Q 581.6 373.8, 580.8 373.2 Q 580.1 372.5, 580.1 371.4 M 581.6 371.4 Q 581.6 372.0, 582.0 372.3 Q 582.4 372.6, 583.1 372.6 Q 583.7 372.6, 584.3 372.4 Q 584.9 372.0, 585.3 371.5 L 585.3 369.8 L 584.2 369.8 Q 582.9 369.8, 582.2 370.2 Q 581.6 370.6, 581.6 371.4 " fill="#000000"/>
<path class="legend" d="M 588.1 369.5 Q 588.1 367.5, 589.1 366.4 Q 590.1 365.3, 592.0 365.3 Q 593.9 365.3, 594.9 366.6 L 593.9 367.4 Q 593.5 366.9, 593.0 366.7 Q 592.6 366.4, 592.0 366.4 Q 590.9 366.4, 590.2 367.2 Q 589.6 368.0, 589.6 369.5 Q 589.6 371.0, 590.3 371.8 Q 590.9 372.6, 592.1 372.6 Q 592.8 372.6, 593.2 372.4 Q 593.7 372.3, 594.3 372.0 L 594.7 373.0 Q 593.5 373.7, 592.0 373.7 Q 590.1 373.7, 589.1 372.6 Q 588.1 371.5, 588.1 369.5 " fill="#000000"/>
<path class="legend" d="M 595.2 366.6 L 595.2 365.4 L 596.8 365.4 L 597.1 363.0 L 598.2 363.0 L 598.2 365.4 L 600.7 365.4 L 600.7 366.6 L 598.2 366.6 L 598.2 371.1 Q 598.2 372.5, 599.4 372.5 Q 599.9 372.5, 600.6 372.3 L 600.8 373.4 Q 600.0 373.7, 599.1 373.7 Q 598.0 373.7, 597.4 373.1 Q 596.7 372.4, 596.7 371.2 L 596.7 366.6 L 595.2 366.6 " fill="#000000"/>
<path class="legend" d="M 609.4 374.4 L 609.4 375.7 L 601.2 375.7 L 601.2 374.4 L 609.4 374.4 " fill="#000000"/>
<path class="legend" d="M 615.3 363.6 L 609.4 363.6 L 609.4 362.3 L 616.9 362.3 L 616.9 363.4 L 612.3 373.6 L 610.8 373.6 L 615.3 363.6 " fill="#000000"/>
<path class="legend" d="M 622.8 367.7 Q 623.9 368.0, 624.4 368.7 Q 625.0 369.4, 625.0 370.5 Q 625.0 371.5, 624.5 372.2 Q 624.0 373.0, 623.2 373.4 Q 622.3 373.8, 621.1 373.8 Q 619.9 373.8, 619.0 373.4 Q 618.1 372.9, 617.4 372.1 L 618.3 371.2 Q 619.0 371.9, 619.6 372.2 Q 620.2 372.5, 621.1 372.5 Q 622.1 372.5, 622.8 372.0 Q 623.4 371.4, 623.4 370.5 Q 623.4 369.4, 622.7 368.8 Q 622.1 368.3, 620.7 368.3 L 619.9 368.3 L 619.9 367.2 L 620.6 367.2 Q 621.8 367.2, 622.5 366.6 Q 623.2 366.1, 623.2 365.1 Q 623.2 364.3, 622.6 363.9 Q 622.1 363.5, 621.1 363.5 Q 620.2 363.5, 619.6 363.8 Q 619.0 364.1, 618.6 365.0 L 617.5 364.4 Q 617.9 363.4, 618.8 362.8 Q 619.8 362.2, 621.1 362.2 Q 622.8 362.2, 623.8 363.0 Q 624.8 363.7, 624.8 365.1 Q 624.8 366.0, 624.3 366.6 Q 623.8 367.3, 622.8 367.7 " fill="#000000"/>
<path class="legend" d="M 626.6 372.4 L 629.0 372.4 L 629.0 363.9 L 626.3 364.7 L 625.9 363.8 L 629.4 362.2 L 630.5 362.4 L 630.5 372.4 L 632.8 372.4 L 632.8 373.6 L 626.6 373.6 L 626.6 372.4 " fill="#000000"/>
<path class="legend" d="M 537.5 383.8 Q 537.5 381.8, 538.5 380.7 Q 539.5 379.5, 541.5 379.5 Q 543.3 379.5, 544.3 380.9 L 543.3 381.6 Q 542.9 381.2, 542.5 380.9 Q 542.1 380.7, 541.5 380.7 Q 540.3 380.7, 539.7 381.5 Q 539.1 382.3, 539.1 383.8 Q 539.1 385.3, 539.7 386.1 Q 540.4 386.8, 541.6 386.8 Q 542.2 386.8, 542.7 386.7 Q 543.2 386.5, 543.7 386.3 L 544.2 387.3 Q 543.0 388.0, 541.5 388.0 Q 539.5 388.0, 538.5 386.9 Q 537.5 385.7, 537.5 383.8 " fill="#000000"/>
<path class="legend" d="M 544.7 383.8 Q 544.7 381.7, 545.7 380.6 Q 546.7 379.5, 548.6 379.5 Q 550.4 379.5, 551.2 380.6 Q 552.0 381.7, 552.0 383.7 L 552.0 384.0 L 546.2 384.0 Q 546.3 385.4, 546.9 386.1 Q 547.5 386.8, 548.7 386.8 Q 549.3 386.8, 549.9 386.7 Q 550.5 386.5, 551.2 386.2 L 551.7 387.2 Q 550.9 387.6, 550.1 387.8 Q 549.4 388.0, 548.6 388.0 Q 546.8 388.0, 545.7 386.9 Q 544.7 385.8, 544.7 383.8 M 548.6 380.7 Q 547.6 380.7, 547.0 381.2 Q 546.5 381.8, 546.3 382.8 L 550.4 382.8 Q 550.3 381.7, 549.8 381.2 Q 549.4 380.7, 548.6 380.7 " fill="#000000"/>
<path class="legend" d="M 556.9 379.5 Q 558.2 379.5, 558.9 380.3 Q 559.6 381.0, 559.6 382.4 L 559.6 387.9 L 558.1 387.9 L 558.1 382.6 Q 558.1 381.6, 557.7 381.2 Q 557.3 380.7, 556.5 380.7 Q 555.7 380.7, 555.1 381.1 Q 554.5 381.4, 554.1 382.0 L 554.1 387.9 L 552.6 387.9 L 552.6 379.7 L 553.8 379.7 L 554.0 380.8 Q 555.1 379.5, 556.9 379.5 " fill="#000000"/>
<path class="legend" d="M 560.8 380.8 L 560.8 379.7 L 562.4 379.7 L 562.6 377.3 L 563.8 377.3 L 563.8 379.7 L 566.3 379.7 L 566.3 380.8 L 563.8 380.8 L 563.8 385.4 Q 563.8 386.8, 565.0 386.8 Q 565.4 386.8, 566.1 386.6 L 566.4 387.6 Q 565.5 388.0, 564.7 388.0 Q 563.6 388.0, 562.9 387.3 Q 562.3 386.7, 562.3 385.4 L 562.3 380.8 L 560.8 380.8 " fill="#000000"/>
<path class="legend" d="M 575.0 388.7 L 575.0 390.0 L 566.8 390.0 L 566.8 388.7 L 575.0 388.7 " fill="#000000"/>
<path class="legend" d="M 582.4 375.7 L 582.4 387.9 L 581.2 387.9 L 581.0 386.9 Q 580.1 388.0, 578.6 388.0 Q 576.9 388.0, 575.9 387.0 Q 575.0 385.9, 575.0 383.9 Q 575.0 381.8, 576.1 380.7 Q 577.2 379.5, 579.2 379.5 Q 580.0 379.5, 580.9 379.7 L 580.9 375.7 L 582.4 375.7 M 578.7 386.8 Q 579.5 386.8, 580.1 386.4 Q 580.7 385.9, 580.9 385.1 L 580.9 380.9 Q 580.1 380.7, 579.2 380.7 Q 577.9 380.7, 577.2 381.6 Q 576.5 382.4, 576.5 383.9 Q 576.5 385.3, 577.1 386.1 Q 577.6 386.8, 578.7 386.8 " fill="#000000"/>
<path class="legend" d="M 583.7 376.6 L 585.2 376.6 L 585.2 378.0 L 583.7 378.0 L 583.7 376.6 M 583.7 379.7 L 585.2 379.7 L 585.2 387.9 L 583.7 387.9 L 583.7 379.7 " fill="#000000"/>
<path class="legend" d="M 587.0 386.2 Q 587.7 386.5, 588.3 386.6 Q 588.8 386.8, 589.3 386.8 Q 590.1 386.8, 590.5 386.5 Q 590.9 386.2, 590.9 385.6 Q 590.9 385.2, 590.7 385.0 Q 590.5 384.8, 590.2 384.6 Q 589.9 384.5, 589.2 384.3 Q 589.1 384.3, 588.4 384.0 Q 587.6 383.7, 587.2 383.2 Q 586.8 382.7, 586.8 381.9 Q 586.8 380.9, 587.6 380.2 Q 588.4 379.5, 589.9 379.5 Q 590.5 379.5, 591.0 379.7 Q 591.6 379.8, 592.2 380.0 L 591.8 381.2 Q 591.3 381.0, 590.8 380.9 Q 590.4 380.8, 589.9 380.8 Q 589.1 380.8, 588.7 381.1 Q 588.3 381.4, 588.3 381.8 Q 588.3 382.3, 588.6 382.5 Q 588.9 382.7, 589.6 383.0 Q 589.8 383.0, 589.9 383.1 L 590.3 383.2 Q 591.0 383.4, 591.4 383.7 Q 591.8 383.9, 592.1 384.4 Q 592.4 384.8, 592.4 385.6 Q 592.4 386.7, 591.5 387.4 Q 590.7 388.0, 589.4 388.0 Q 588.6 388.0, 587.9 387.9 Q 587.2 387.7, 586.6 387.4 L 587.0 386.2 " fill="#000000"/>
<path class="legend" d="M 593.2 380.8 L 593.2 379.7 L 594.8 379.7 L 595.1 377.3 L 596.2 377.3 L 596.2 379.7 L 598.7 379.7 L 598.7 380.8 L 596.2 380.8 L 596.2 385.4 Q 596.2 386.8, 597.4 386.8 Q 597.9 386.8, 598.6 386.6 L 598.8 387.6 Q 597.9 388.0, 597.1 388.0 Q 596.0 388.0, 595.3 387.3 Q 594.7 386.7, 594.7 385.4 L 594.7 380.8 L 593.2 380.8 " fill="#000000"/>
<path class="legend" d="" fill="#000000"/>
<path class="legend" d="M 604.6 380.9 L 611.9 380.9 L 611.9 382.1 L 604.6 382.1 L 604.6 380.9 M 604.6 384.4 L 611.9 384.4 L 611.9 385.5 L 604.6 385.5 L 604.6 384.4 " fill="#000000"/>
<path class="legend" d="" fill="#000000"/>
<path class="legend" d="M 622.8 388.0 Q 620.7 388.0, 619.7 386.5 Q 618.7 384.9, 618.7 382.2 Q 618.7 379.5, 619.7 378.0 Q 620.7 376.4, 622.8 376.4 Q 624.9 376.4, 625.9 378.0 Q 627.0 379.5, 627.0 382.2 Q 627.0 384.9, 625.9 386.5 Q 624.9 388.0, 622.8 388.0 M 622.8 386.7 Q 624.0 386.7, 624.7 385.6 Q 625.4 384.4, 625.4 382.2 Q 625.4 380.0, 624.7 378.8 Q 624.0 377.7, 622.8 377.7 Q 621.6 377.7, 620.9 378.8 Q 620.3 380.0, 620.3 382.2 Q 620.3 384.4, 620.9 385.6 Q 621.6 386.7, 622.8 386.7 " fill="#000000"/>
<path class="legend" d="M 628.0 386.3 L 629.6 386.3 L 629.6 387.9 L 628.0 387.9 L 628.0 386.3 " fill="#000000"/>
<path class="legend" d="M 638.0 384.0 L 639.4 384.0 L 639.4 385.3 L 638.0 385.3 L 638.0 387.9 L 636.5 387.9 L 636.5 385.3 L 630.6 385.3 L 630.6 384.3 L 635.6 376.6 L 638.0 376.6 L 638.0 384.0 M 632.5 384.0 L 636.5 384.0 L 636.5 377.6 L 632.5 384.0 " fill="#000000"/>
<path class="legend" d="M 646.1 377.8 L 640.1 377.8 L 640.1 376.6 L 647.7 376.6 L 647.7 377.7 L 643.1 387.9 L 641.5 387.9 L 646.1 377.8 " fill="#000000"/>
<path class="legend" d="M 648.7 386.6 L 651.2 386.6 L 651.2 378.1 L 648.5 379.0 L 648.1 378.0 L 651.6 376.5 L 652.7 376.7 L 652.7 386.6 L 655.0 386.6 L 655.0 387.9 L 648.7 387.9 L 648.7 386.6 " fill="#000000"/>
<path class="legend" d="M 656.3 386.6 L 658.7 386.6 L 658.7 378.1 L 656.0 379.0 L 655.6 378.0 L 659.1 376.5 L 660.2 376.7 L 660.2 386.6 L 662.5 386.6 L 662.5 387.9 L 656.3 387.9 L 656.3 386.6 " fill="#000000"/>
</svg>