<svg xmlns="http://www.w3.org/2000/svg" xmlns:rdkit="http://www.rdkit.org/xml" xmlns:xlink="http://www.w3.org/1999/xlink" version="1.1" baseProfile="full" xml:space="preserve" width="2000px" height="400px" viewBox="0 0 2000 400">
<!-- END OF HEADER -->
<rect style="opacity:1.0;fill:#FFFFFF;stroke:none" width="2000.0" height="400.0" x="0.0" y="0.0"> </rect>
<path class="bond-0 atom-0 atom-1" d="M 89.5,112.8 L 162.8,155.2" style="fill:none;fill-rule:evenodd;stroke:#000000;stroke-width:2.0px;stroke-linecap:butt;stroke-linejoin:miter;stroke-opacity:1"/>
<path class="bond-0 atom-0 atom-1" d="M 81.0,127.5 L 154.4,169.8" style="fill:none;fill-rule:evenodd;stroke:#000000;stroke-width:2.0px;stroke-linecap:butt;stroke-linejoin:miter;stroke-opacity:1"/>
<path class="bond-1 atom-1 atom-2" d="M 158.6,162.5 L 158.6,247.2" style="fill:none;fill-rule:evenodd;stroke:#000000;stroke-width:2.0px;stroke-linecap:butt;stroke-linejoin:miter;stroke-opacity:1"/>
<path class="bond-2 atom-1 atom-3" d="M 158.6,162.5 L 231.9,120.2" style="fill:none;fill-rule:evenodd;stroke:#000000;stroke-width:2.0px;stroke-linecap:butt;stroke-linejoin:miter;stroke-opacity:1"/>
<path class="bond-3 atom-3 atom-4" d="M 231.9,120.2 L 262.6,137.9" style="fill:none;fill-rule:evenodd;stroke:#000000;stroke-width:2.0px;stroke-linecap:butt;stroke-linejoin:miter;stroke-opacity:1"/>
<path class="bond-3 atom-3 atom-4" d="M 262.6,137.9 L 293.2,155.5" style="fill:none;fill-rule:evenodd;stroke:#00CC00;stroke-width:2.0px;stroke-linecap:butt;stroke-linejoin:miter;stroke-opacity:1"/>
<path class="atom-4" d="M 296.0 163.3 Q 296.0 157.4, 298.8 154.2 Q 301.6 151.1, 306.9 151.1 Q 311.9 151.1, 314.5 154.6 L 312.3 156.4 Q 310.3 153.9, 306.9 153.9 Q 303.3 153.9, 301.4 156.3 Q 299.5 158.7, 299.5 163.3 Q 299.5 168.1, 301.4 170.5 Q 303.4 172.9, 307.3 172.9 Q 309.9 172.9, 313.0 171.4 L 314.0 173.9 Q 312.7 174.7, 310.8 175.2 Q 308.9 175.7, 306.8 175.7 Q 301.6 175.7, 298.8 172.5 Q 296.0 169.3, 296.0 163.3 " fill="#00CC00"/>
<path class="atom-4" d="M 315.9 149.6 L 319.0 149.6 L 319.0 175.4 L 315.9 175.4 L 315.9 149.6 " fill="#00CC00"/>
<path class="legend" d="M 167.9 365.4 L 168.1 366.5 Q 168.9 365.3, 170.3 365.3 Q 170.8 365.3, 171.4 365.4 L 171.2 366.8 Q 170.5 366.6, 170.1 366.6 Q 169.4 366.6, 169.0 366.9 Q 168.5 367.1, 168.2 367.8 L 168.2 373.6 L 166.7 373.6 L 166.7 365.4 L 167.9 365.4 " fill="#000000"/>
<path class="legend" d="M 171.6 369.5 Q 171.6 367.5, 172.6 366.4 Q 173.6 365.3, 175.5 365.3 Q 177.3 365.3, 178.1 366.4 Q 178.9 367.4, 178.9 369.5 L 178.9 369.7 L 173.2 369.7 Q 173.2 371.1, 173.8 371.8 Q 174.4 372.6, 175.6 372.6 Q 176.3 372.6, 176.8 372.4 Q 177.4 372.3, 178.2 372.0 L 178.6 373.0 Q 177.8 373.4, 177.0 373.6 Q 176.3 373.8, 175.5 373.8 Q 173.7 373.8, 172.7 372.6 Q 171.6 371.5, 171.6 369.5 M 175.5 366.4 Q 174.5 366.4, 174.0 367.0 Q 173.4 367.5, 173.2 368.6 L 177.3 368.6 Q 177.2 367.5, 176.8 367.0 Q 176.3 366.4, 175.5 366.4 " fill="#000000"/>
<path class="legend" d="M 179.5 371.4 Q 179.5 370.1, 180.6 369.4 Q 181.6 368.7, 183.6 368.7 L 184.8 368.7 L 184.8 368.3 Q 184.8 367.3, 184.4 366.9 Q 183.9 366.4, 182.9 366.4 Q 182.3 366.4, 181.7 366.6 Q 181.2 366.7, 180.4 367.0 L 180.0 366.0 Q 181.5 365.3, 182.9 365.3 Q 184.7 365.3, 185.5 366.0 Q 186.3 366.8, 186.3 368.4 L 186.3 373.6 L 185.1 373.6 Q 185.1 373.6, 185.1 373.3 Q 185.0 373.1, 184.9 372.7 Q 183.8 373.8, 182.2 373.8 Q 181.0 373.8, 180.3 373.2 Q 179.5 372.5, 179.5 371.4 M 181.0 371.4 Q 181.0 372.0, 181.4 372.3 Q 181.8 372.6, 182.5 372.6 Q 183.2 372.6, 183.8 372.4 Q 184.4 372.0, 184.8 371.5 L 184.8 369.8 L 183.7 369.8 Q 182.4 369.8, 181.7 370.2 Q 181.0 370.6, 181.0 371.4 " fill="#000000"/>
<path class="legend" d="M 187.5 369.5 Q 187.5 367.5, 188.5 366.4 Q 189.5 365.3, 191.5 365.3 Q 193.3 365.3, 194.3 366.6 L 193.3 367.4 Q 192.9 366.9, 192.5 366.7 Q 192.0 366.4, 191.5 366.4 Q 190.3 366.4, 189.7 367.2 Q 189.1 368.0, 189.1 369.5 Q 189.1 371.0, 189.7 371.8 Q 190.4 372.6, 191.6 372.6 Q 192.2 372.6, 192.7 372.4 Q 193.2 372.3, 193.7 372.0 L 194.1 373.0 Q 193.0 373.7, 191.4 373.7 Q 189.5 373.7, 188.5 372.6 Q 187.5 371.5, 187.5 369.5 " fill="#000000"/>
<path class="legend" d="M 194.7 366.6 L 194.7 365.4 L 196.3 365.4 L 196.5 363.0 L 197.6 363.0 L 197.6 365.4 L 200.1 365.4 L 200.1 366.6 L 197.6 366.6 L 197.6 371.1 Q 197.6 372.5, 198.8 372.5 Q 199.3 372.5, 200.0 372.3 L 200.3 373.4 Q 199.4 373.7, 198.6 373.7 Q 197.5 373.7, 196.8 373.1 Q 196.1 372.4, 196.1 371.2 L 196.1 366.6 L 194.7 366.6 " fill="#000000"/>
<path class="legend" d="M 208.8 374.4 L 208.8 375.7 L 200.7 375.7 L 200.7 374.4 L 208.8 374.4 " fill="#000000"/>
<path class="legend" d="M 209.5 372.4 L 211.9 372.4 L 211.9 363.9 L 209.2 364.7 L 208.8 363.8 L 212.3 362.2 L 213.4 362.4 L 213.4 372.4 L 215.7 372.4 L 215.7 373.6 L 209.5 373.6 L 209.5 372.4 " fill="#000000"/>
<path class="legend" d="M 220.5 373.8 Q 218.4 373.8, 217.4 372.2 Q 216.3 370.7, 216.3 368.0 Q 216.3 365.2, 217.4 363.7 Q 218.4 362.2, 220.5 362.2 Q 222.6 362.2, 223.6 363.7 Q 224.6 365.2, 224.6 368.0 Q 224.6 370.7, 223.6 372.2 Q 222.6 373.8, 220.5 373.8 M 220.5 372.5 Q 221.7 372.5, 222.4 371.3 Q 223.0 370.2, 223.0 368.0 Q 223.0 365.7, 222.4 364.6 Q 221.7 363.5, 220.5 363.5 Q 219.3 363.5, 218.6 364.6 Q 217.9 365.7, 217.9 368.0 Q 217.9 370.2, 218.6 371.3 Q 219.3 372.5, 220.5 372.5 " fill="#000000"/>
<path class="legend" d="M 229.8 366.5 Q 230.8 366.5, 231.6 367.0 Q 232.4 367.4, 232.9 368.2 Q 233.3 369.0, 233.3 370.0 Q 233.3 371.2, 232.8 372.1 Q 232.2 372.9, 231.3 373.3 Q 230.3 373.8, 229.3 373.8 Q 228.2 373.8, 227.3 373.4 Q 226.3 373.0, 225.7 372.3 L 226.6 371.3 Q 227.2 371.8, 227.9 372.2 Q 228.6 372.5, 229.3 372.5 Q 230.3 372.5, 231.0 371.8 Q 231.7 371.2, 231.7 370.1 Q 231.7 368.9, 231.0 368.3 Q 230.3 367.7, 229.2 367.7 Q 228.2 367.7, 227.1 368.2 L 226.3 367.8 L 226.8 362.3 L 232.6 362.3 L 232.5 363.6 L 228.1 363.6 L 227.8 366.9 Q 228.8 366.5, 229.8 366.5 " fill="#000000"/>
<path class="legend" d="M 136.8 383.8 Q 136.8 381.8, 137.8 380.7 Q 138.8 379.5, 140.7 379.5 Q 142.6 379.5, 143.6 380.9 L 142.6 381.6 Q 142.2 381.2, 141.7 380.9 Q 141.3 380.7, 140.7 380.7 Q 139.6 380.7, 138.9 381.5 Q 138.3 382.3, 138.3 383.8 Q 138.3 385.3, 139.0 386.1 Q 139.6 386.8, 140.8 386.8 Q 141.5 386.8, 142.0 386.7 Q 142.4 386.5, 143.0 386.3 L 143.4 387.3 Q 142.2 388.0, 140.7 388.0 Q 138.8 388.0, 137.8 386.9 Q 136.8 385.7, 136.8 383.8 " fill="#000000"/>
<path class="legend" d="M 144.0 383.8 Q 144.0 381.7, 145.0 380.6 Q 146.0 379.5, 147.8 379.5 Q 149.6 379.5, 150.4 380.6 Q 151.2 381.7, 151.2 383.7 L 151.2 384.0 L 145.5 384.0 Q 145.5 385.4, 146.1 386.1 Q 146.8 386.8, 147.9 386.8 Q 148.6 386.8, 149.2 386.7 Q 149.8 386.5, 150.5 386.2 L 150.9 387.2 Q 150.1 387.6, 149.4 387.8 Q 148.6 388.0, 147.9 388.0 Q 146.0 388.0, 145.0 386.9 Q 144.0 385.8, 144.0 383.8 M 147.8 380.7 Q 146.9 380.7, 146.3 381.2 Q 145.7 381.8, 145.6 382.8 L 149.7 382.8 Q 149.5 381.7, 149.1 381.2 Q 148.6 380.7, 147.8 380.7 " fill="#000000"/>
<path class="legend" d="M 156.1 379.5 Q 157.4 379.5, 158.1 380.3 Q 158.8 381.0, 158.8 382.4 L 158.8 387.9 L 157.3 387.9 L 157.3 382.6 Q 157.3 381.6, 156.9 381.2 Q 156.6 380.7, 155.7 380.7 Q 155.0 380.7, 154.4 381.1 Q 153.7 381.4, 153.3 382.0 L 153.3 387.9 L 151.8 387.9 L 151.8 379.7 L 153.1 379.7 L 153.3 380.8 Q 154.4 379.5, 156.1 379.5 " fill="#000000"/>
<path class="legend" d="M 160.1 380.8 L 160.1 379.7 L 161.6 379.7 L 161.9 377.3 L 163.0 377.3 L 163.0 379.7 L 165.5 379.7 L 165.5 380.8 L 163.0 380.8 L 163.0 385.4 Q 163.0 386.8, 164.2 386.8 Q 164.7 386.8, 165.4 386.6 L 165.7 387.6 Q 164.8 388.0, 163.9 388.0 Q 162.9 388.0, 162.2 387.3 Q 161.5 386.7, 161.5 385.4 L 161.5 380.8 L 160.1 380.8 " fill="#000000"/>
<path class="legend" d="M 174.2 388.7 L 174.2 390.0 L 166.1 390.0 L 166.1 388.7 L 174.2 388.7 " fill="#000000"/>
<path class="legend" d="M 181.7 375.7 L 181.7 387.9 L 180.5 387.9 L 180.3 386.9 Q 179.3 388.0, 177.8 388.0 Q 176.1 388.0, 175.2 387.0 Q 174.2 385.9, 174.2 383.9 Q 174.2 381.8, 175.3 380.7 Q 176.5 379.5, 178.4 379.5 Q 179.3 379.5, 180.2 379.7 L 180.2 375.7 L 181.7 375.7 M 177.9 386.8 Q 178.8 386.8, 179.3 386.4 Q 180.0 385.9, 180.2 385.1 L 180.2 380.9 Q 179.4 380.7, 178.5 380.7 Q 177.2 380.7, 176.5 381.6 Q 175.7 382.4, 175.7 383.9 Q 175.7 385.3, 176.3 386.1 Q 176.9 386.8, 177.9 386.8 " fill="#000000"/>
<path class="legend" d="M 183.0 376.6 L 184.4 376.6 L 184.4 378.0 L 183.0 378.0 L 183.0 376.6 M 183.0 379.7 L 184.4 379.7 L 184.4 387.9 L 183.0 387.9 L 183.0 379.7 " fill="#000000"/>
<path class="legend" d="M 186.3 386.2 Q 187.0 386.5, 187.5 386.6 Q 188.0 386.8, 188.6 386.8 Q 189.3 386.8, 189.7 386.5 Q 190.1 386.2, 190.1 385.6 Q 190.1 385.2, 189.9 385.0 Q 189.7 384.8, 189.4 384.6 Q 189.2 384.5, 188.5 384.3 Q 188.3 384.3, 187.6 384.0 Q 186.9 383.7, 186.5 383.2 Q 186.1 382.7, 186.1 381.9 Q 186.1 380.9, 186.9 380.2 Q 187.6 379.5, 189.1 379.5 Q 189.7 379.5, 190.3 379.7 Q 190.8 379.8, 191.4 380.0 L 191.0 381.2 Q 190.5 381.0, 190.1 380.9 Q 189.6 380.8, 189.1 380.8 Q 188.4 380.8, 188.0 381.1 Q 187.6 381.4, 187.6 381.8 Q 187.6 382.3, 187.9 382.5 Q 188.2 382.7, 188.9 383.0 Q 189.0 383.0, 189.2 383.1 L 189.6 383.2 Q 190.2 383.4, 190.6 383.7 Q 191.1 383.9, 191.3 384.4 Q 191.6 384.8, 191.6 385.6 Q 191.6 386.7, 190.8 387.4 Q 190.0 388.0, 188.6 388.0 Q 187.8 388.0, 187.2 387.9 Q 186.5 387.7, 185.8 387.4 L 186.3 386.2 " fill="#000000"/>
<path class="legend" d="M 192.5 380.8 L 192.5 379.7 L 194.1 379.7 L 194.3 377.3 L 195.4 377.3 L 195.4 379.7 L 197.9 379.7 L 197.9 380.8 L 195.4 380.8 L 195.4 385.4 Q 195.4 386.8, 196.6 386.8 Q 197.1 386.8, 197.8 386.6 L 198.1 387.6 Q 197.2 388.0, 196.4 388.0 Q 195.3 388.0, 194.6 387.3 Q 193.9 386.7, 193.9 385.4 L 193.9 380.8 L 192.5 380.8 " fill="#000000"/>
<path class="legend" d="" fill="#000000"/>
<path class="legend" d="M 203.8 380.9 L 211.1 380.9 L 211.1 382.1 L 203.8 382.1 L 203.8 380.9 M 203.8 384.4 L 211.1 384.4 L 211.1 385.5 L 203.8 385.5 L 203.8 384.4 " fill="#000000"/>
<path class="legend" d="" fill="#000000"/>
<path class="legend" d="M 222.1 388.0 Q 220.0 388.0, 218.9 386.5 Q 217.9 384.9, 217.9 382.2 Q 217.9 379.5, 218.9 378.0 Q 220.0 376.4, 222.1 376.4 Q 224.2 376.4, 225.2 378.0 Q 226.2 379.5, 226.2 382.2 Q 226.2 384.9, 225.2 386.5 Q 224.1 388.0, 222.1 388.0 M 222.1 386.7 Q 223.3 386.7, 223.9 385.6 Q 224.6 384.4, 224.6 382.2 Q 224.6 380.0, 223.9 378.8 Q 223.3 377.7, 222.1 377.7 Q 220.8 377.7, 220.2 378.8 Q 219.5 380.0, 219.5 382.2 Q 219.5 384.4, 220.2 385.6 Q 220.8 386.7, 222.1 386.7 " fill="#000000"/>
<path class="legend" d="M 227.2 386.3 L 228.8 386.3 L 228.8 387.9 L 227.2 387.9 L 227.2 386.3 " fill="#000000"/>
<path class="legend" d="M 234.0 380.8 Q 235.0 380.8, 235.8 381.2 Q 236.6 381.6, 237.1 382.4 Q 237.5 383.2, 237.5 384.3 Q 237.5 385.5, 237.0 386.3 Q 236.4 387.2, 235.5 387.6 Q 234.6 388.0, 233.5 388.0 Q 232.5 388.0, 231.5 387.6 Q 230.5 387.2, 229.9 386.5 L 230.8 385.5 Q 231.4 386.1, 232.1 386.4 Q 232.8 386.7, 233.5 386.7 Q 234.6 386.7, 235.2 386.1 Q 235.9 385.5, 235.9 384.3 Q 235.9 383.1, 235.2 382.6 Q 234.6 382.0, 233.5 382.0 Q 232.5 382.0, 231.4 382.4 L 230.5 382.0 L 231.0 376.6 L 236.8 376.6 L 236.7 377.8 L 232.3 377.8 L 232.0 381.2 Q 233.0 380.8, 234.0 380.8 " fill="#000000"/>
<path class="legend" d="M 242.7 380.8 Q 243.7 380.8, 244.5 381.2 Q 245.3 381.7, 245.7 382.5 Q 246.2 383.2, 246.2 384.2 Q 246.2 385.3, 245.7 386.2 Q 245.2 387.1, 244.3 387.5 Q 243.5 388.0, 242.4 388.0 Q 240.3 388.0, 239.3 386.7 Q 238.3 385.3, 238.3 382.6 Q 238.3 379.6, 239.6 378.0 Q 240.8 376.4, 243.2 376.4 Q 243.9 376.4, 244.5 376.6 Q 245.1 376.8, 245.7 377.1 L 245.1 378.2 Q 244.3 377.7, 243.3 377.7 Q 241.7 377.7, 240.8 378.8 Q 240.0 379.8, 239.9 381.9 Q 240.5 381.4, 241.2 381.1 Q 242.0 380.8, 242.7 380.8 M 242.4 386.7 Q 243.0 386.7, 243.5 386.4 Q 244.0 386.1, 244.3 385.5 Q 244.6 384.9, 244.6 384.3 Q 244.6 383.2, 244.0 382.7 Q 243.5 382.1, 242.5 382.1 Q 241.8 382.1, 241.1 382.4 Q 240.4 382.7, 239.9 383.1 Q 240.0 385.0, 240.6 385.9 Q 241.2 386.7, 242.4 386.7 " fill="#000000"/>
<path class="legend" d="M 251.2 388.0 Q 249.1 388.0, 248.1 386.5 Q 247.1 384.9, 247.1 382.2 Q 247.1 379.5, 248.1 378.0 Q 249.1 376.4, 251.2 376.4 Q 253.3 376.4, 254.3 378.0 Q 255.3 379.5, 255.3 382.2 Q 255.3 384.9, 254.3 386.5 Q 253.3 388.0, 251.2 388.0 M 251.2 386.7 Q 252.4 386.7, 253.1 385.6 Q 253.7 384.4, 253.7 382.2 Q 253.7 380.0, 253.1 378.8 Q 252.4 377.7, 251.2 377.7 Q 250.0 377.7, 249.3 378.8 Q 248.7 380.0, 248.7 382.2 Q 248.7 384.4, 249.3 385.6 Q 250.0 386.7, 251.2 386.7 " fill="#000000"/>
<path class="legend" d="M 257.0 386.6 L 259.5 386.6 L 259.5 378.1 L 256.7 379.0 L 256.4 378.0 L 259.9 376.5 L 261.0 376.7 L 261.0 386.6 L 263.2 386.6 L 263.2 387.9 L 257.0 387.9 L 257.0 386.6 " fill="#000000"/>
<path class="bond-0 atom-0 atom-1" d="M 447.1,48.2 L 499.8,114.5" style="fill:none;fill-rule:evenodd;stroke:#000000;stroke-width:2.0px;stroke-linecap:butt;stroke-linejoin:miter;stroke-opacity:1"/>
<path class="bond-0 atom-0 atom-1" d="M 433.9,58.8 L 486.6,125.1" style="fill:none;fill-rule:evenodd;stroke:#000000;stroke-width:2.0px;stroke-linecap:butt;stroke-linejoin:miter;stroke-opacity:1"/>
<path class="bond-1 atom-1 atom-2" d="M 493.2,119.8 L 462.2,198.6" style="fill:none;fill-rule:evenodd;stroke:#000000;stroke-width:2.0px;stroke-linecap:butt;stroke-linejoin:miter;stroke-opacity:1"/>
<path class="bond-2 atom-2 atom-3" d="M 462.2,198.6 L 514.9,264.8" style="fill:none;fill-rule:evenodd;stroke:#000000;stroke-width:2.0px;stroke-linecap:butt;stroke-linejoin:miter;stroke-opacity:1"/>
<path class="bond-3 atom-3 atom-4" d="M 514.9,264.8 L 483.8,343.6" style="fill:none;fill-rule:evenodd;stroke:#000000;stroke-width:2.0px;stroke-linecap:butt;stroke-linejoin:miter;stroke-opacity:1"/>
<path class="bond-4 atom-1 atom-5" d="M 493.2,119.8 L 577.0,107.3" style="fill:none;fill-rule:evenodd;stroke:#000000;stroke-width:2.0px;stroke-linecap:butt;stroke-linejoin:miter;stroke-opacity:1"/>
<path class="bond-5 atom-5 atom-6" d="M 569.1,104.2 L 581.6,72.4" style="fill:none;fill-rule:evenodd;stroke:#000000;stroke-width:2.0px;stroke-linecap:butt;stroke-linejoin:miter;stroke-opacity:1"/>
<path class="bond-5 atom-5 atom-6" d="M 581.6,72.4 L 594.1,40.7" style="fill:none;fill-rule:evenodd;stroke:#FF0000;stroke-width:2.0px;stroke-linecap:butt;stroke-linejoin:miter;stroke-opacity:1"/>
<path class="bond-5 atom-5 atom-6" d="M 584.8,110.4 L 597.3,78.6" style="fill:none;fill-rule:evenodd;stroke:#000000;stroke-width:2.0px;stroke-linecap:butt;stroke-linejoin:miter;stroke-opacity:1"/>
<path class="bond-5 atom-5 atom-6" d="M 597.3,78.6 L 609.8,46.9" style="fill:none;fill-rule:evenodd;stroke:#FF0000;stroke-width:2.0px;stroke-linecap:butt;stroke-linejoin:miter;stroke-opacity:1"/>
<path class="bond-6 atom-5 atom-7" d="M 577.0,107.3 L 597.4,133.0" style="fill:none;fill-rule:evenodd;stroke:#000000;stroke-width:2.0px;stroke-linecap:butt;stroke-linejoin:miter;stroke-opacity:1"/>
<path class="bond-6 atom-5 atom-7" d="M 597.4,133.0 L 617.8,158.6" style="fill:none;fill-rule:evenodd;stroke:#FF0000;stroke-width:2.0px;stroke-linecap:butt;stroke-linejoin:miter;stroke-opacity:1"/>
<path class="bond-7 atom-7 atom-8" d="M 643.5,171.5 L 678.4,166.3" style="fill:none;fill-rule:evenodd;stroke:#FF0000;stroke-width:2.0px;stroke-linecap:butt;stroke-linejoin:miter;stroke-opacity:1"/>
<path class="bond-7 atom-7 atom-8" d="M 678.4,166.3 L 713.4,161.0" style="fill:none;fill-rule:evenodd;stroke:#000000;stroke-width:2.0px;stroke-linecap:butt;stroke-linejoin:miter;stroke-opacity:1"/>
<path class="bond-8 atom-8 atom-9" d="M 713.4,161.0 L 766.1,227.3" style="fill:none;fill-rule:evenodd;stroke:#000000;stroke-width:2.0px;stroke-linecap:butt;stroke-linejoin:miter;stroke-opacity:1"/>
<path class="atom-6" d="M 597.0 28.6 Q 597.0 22.8, 599.8 19.6 Q 602.7 16.4, 608.0 16.4 Q 613.3 16.4, 616.2 19.6 Q 619.0 22.8, 619.0 28.6 Q 619.0 34.4, 616.1 37.7 Q 613.2 41.0, 608.0 41.0 Q 602.7 41.0, 599.8 37.7 Q 597.0 34.4, 597.0 28.6 M 608.0 38.3 Q 611.7 38.3, 613.6 35.8 Q 615.6 33.4, 615.6 28.6 Q 615.6 23.8, 613.6 21.5 Q 611.7 19.1, 608.0 19.1 Q 604.3 19.1, 602.3 21.4 Q 600.4 23.8, 600.4 28.6 Q 600.4 33.4, 602.3 35.8 Q 604.3 38.3, 608.0 38.3 " fill="#FF0000"/>
<path class="atom-7" d="M 618.7 173.6 Q 618.7 167.9, 621.5 164.6 Q 624.4 161.4, 629.7 161.4 Q 635.0 161.4, 637.8 164.6 Q 640.7 167.9, 640.7 173.6 Q 640.7 179.4, 637.8 182.8 Q 634.9 186.0, 629.7 186.0 Q 624.4 186.0, 621.5 182.8 Q 618.7 179.5, 618.7 173.6 M 629.7 183.3 Q 633.3 183.3, 635.3 180.9 Q 637.3 178.4, 637.3 173.6 Q 637.3 168.9, 635.3 166.5 Q 633.3 164.1, 629.7 164.1 Q 626.0 164.1, 624.0 166.5 Q 622.0 168.9, 622.0 173.6 Q 622.0 178.5, 624.0 180.9 Q 626.0 183.3, 629.7 183.3 " fill="#FF0000"/>
<path class="legend" d="M 568.5 365.4 L 568.7 366.5 Q 569.5 365.3, 570.9 365.3 Q 571.4 365.3, 572.0 365.4 L 571.8 366.8 Q 571.1 366.6, 570.7 366.6 Q 570.0 366.6, 569.6 366.9 Q 569.1 367.1, 568.8 367.8 L 568.8 373.6 L 567.3 373.6 L 567.3 365.4 L 568.5 365.4 " fill="#000000"/>
<path class="legend" d="M 572.2 369.5 Q 572.2 367.5, 573.2 366.4 Q 574.2 365.3, 576.1 365.3 Q 577.9 365.3, 578.7 366.4 Q 579.5 367.4, 579.5 369.5 L 579.5 369.7 L 573.8 369.7 Q 573.8 371.1, 574.4 371.8 Q 575.0 372.6, 576.2 372.6 Q 576.9 372.6, 577.4 372.4 Q 578.0 372.3, 578.8 372.0 L 579.2 373.0 Q 578.4 373.4, 577.6 373.6 Q 576.9 373.8, 576.1 373.8 Q 574.3 373.8, 573.3 372.6 Q 572.2 371.5, 572.2 369.5 M 576.1 366.4 Q 575.1 366.4, 574.6 367.0 Q 574.0 367.5, 573.8 368.6 L 577.9 368.6 Q 577.8 367.5, 577.4 367.0 Q 576.9 366.4, 576.1 366.4 " fill="#000000"/>
<path class="legend" d="M 580.1 371.4 Q 580.1 370.1, 581.2 369.4 Q 582.2 368.7, 584.2 368.7 L 585.4 368.7 L 585.4 368.3 Q 585.4 367.3, 585.0 366.9 Q 584.5 366.4, 583.5 366.4 Q 582.9 366.4, 582.3 366.6 Q 581.8 366.7, 581.0 367.0 L 580.6 366.0 Q 582.1 365.3, 583.5 365.3 Q 585.3 365.3, 586.1 366.0 Q 586.9 366.8, 586.9 368.4 L 586.9 373.6 L 585.7 373.6 Q 585.7 373.6, 585.7 373.3 Q 585.6 373.1, 585.5 372.7 Q 584.4 373.8, 582.8 373.8 Q 581.6 373.8, 580.9 373.2 Q 580.1 372.5, 580.1 371.4 M 581.6 371.4 Q 581.6 372.0, 582.0 372.3 Q 582.4 372.6, 583.1 372.6 Q 583.8 372.6, 584.4 372.4 Q 585.0 372.0, 585.4 371.5 L 585.4 369.8 L 584.3 369.8 Q 583.0 369.8, 582.3 370.2 Q 581.6 370.6, 581.6 371.4 " fill="#000000"/>
<path class="legend" d="M 588.1 369.5 Q 588.1 367.5, 589.1 366.4 Q 590.1 365.3, 592.1 365.3 Q 593.9 365.3, 594.9 366.6 L 593.9 367.4 Q 593.5 366.9, 593.1 366.7 Q 592.6 366.4, 592.1 366.4 Q 590.9 366.4, 590.3 367.2 Q 589.7 368.0, 589.7 369.5 Q 589.7 371.0, 590.3 371.8 Q 591.0 372.6, 592.2 372.6 Q 592.8 372.6, 593.3 372.4 Q 593.8 372.3, 594.3 372.0 L 594.7 373.0 Q 593.6 373.7, 592.0 373.7 Q 590.1 373.7, 589.1 372.6 Q 588.1 371.5, 588.1 369.5 " fill="#000000"/>
<path class="legend" d="M 595.3 366.6 L 595.3 365.4 L 596.9 365.4 L 597.1 363.0 L 598.2 363.0 L 598.2 365.4 L 600.7 365.4 L 600.7 366.6 L 598.2 366.6 L 598.2 371.1 Q 598.2 372.5, 599.4 372.5 Q 599.9 372.5, 600.6 372.3 L 600.9 373.4 Q 600.0 373.7, 599.2 373.7 Q 598.1 373.7, 597.4 373.1 Q 596.7 372.4, 596.7 371.2 L 596.7 366.6 L 595.3 366.6 " fill="#000000"/>
<path class="legend" d="M 609.4 374.4 L 609.4 375.7 L 601.3 375.7 L 601.3 374.4 L 609.4 374.4 " fill="#000000"/>
<path class="legend" d="M 610.1 372.4 L 612.5 372.4 L 612.5 363.9 L 609.8 364.7 L 609.4 363.8 L 612.9 362.2 L 614.0 362.4 L 614.0 372.4 L 616.3 372.4 L 616.3 373.6 L 610.1 373.6 L 610.1 372.4 " fill="#000000"/>
<path class="legend" d="M 617.6 372.4 L 620.0 372.4 L 620.0 363.9 L 617.3 364.7 L 616.9 363.8 L 620.4 362.2 L 621.5 362.4 L 621.5 372.4 L 623.8 372.4 L 623.8 373.6 L 617.6 373.6 L 617.6 372.4 " fill="#000000"/>
<path class="legend" d="M 628.6 373.8 Q 626.5 373.8, 625.5 372.2 Q 624.4 370.7, 624.4 368.0 Q 624.4 365.2, 625.5 363.7 Q 626.5 362.2, 628.6 362.2 Q 630.7 362.2, 631.7 363.7 Q 632.7 365.2, 632.7 368.0 Q 632.7 370.7, 631.7 372.2 Q 630.7 373.8, 628.6 373.8 M 628.6 372.5 Q 629.8 372.5, 630.5 371.3 Q 631.1 370.2, 631.1 368.0 Q 631.1 365.7, 630.5 364.6 Q 629.8 363.5, 628.6 363.5 Q 627.4 363.5, 626.7 364.6 Q 626.0 365.7, 626.0 368.0 Q 626.0 370.2, 626.7 371.3 Q 627.4 372.5, 628.6 372.5 " fill="#000000"/>
<path class="legend" d="M 536.7 383.8 Q 536.7 381.8, 537.7 380.7 Q 538.7 379.5, 540.7 379.5 Q 542.5 379.5, 543.5 380.9 L 542.5 381.6 Q 542.1 381.2, 541.7 380.9 Q 541.2 380.7, 540.7 380.7 Q 539.5 380.7, 538.9 381.5 Q 538.3 382.3, 538.3 383.8 Q 538.3 385.3, 538.9 386.1 Q 539.6 386.8, 540.8 386.8 Q 541.4 386.8, 541.9 386.7 Q 542.4 386.5, 542.9 386.3 L 543.3 387.3 Q 542.2 388.0, 540.6 388.0 Q 538.7 388.0, 537.7 386.9 Q 536.7 385.7, 536.7 383.8 " fill="#000000"/>
<path class="legend" d="M 543.9 383.8 Q 543.9 381.7, 544.9 380.6 Q 545.9 379.5, 547.7 379.5 Q 549.6 379.5, 550.4 380.6 Q 551.2 381.7, 551.2 383.7 L 551.2 384.0 L 545.4 384.0 Q 545.5 385.4, 546.1 386.1 Q 546.7 386.8, 547.9 386.8 Q 548.5 386.8, 549.1 386.7 Q 549.7 386.5, 550.4 386.2 L 550.9 387.2 Q 550.0 387.6, 549.3 387.8 Q 548.6 388.0, 547.8 388.0 Q 545.9 388.0, 544.9 386.9 Q 543.9 385.8, 543.9 383.8 M 547.7 380.7 Q 546.8 380.7, 546.2 381.2 Q 545.7 381.8, 545.5 382.8 L 549.6 382.8 Q 549.5 381.7, 549.0 381.2 Q 548.6 380.7, 547.7 380.7 " fill="#000000"/>
<path class="legend" d="M 556.1 379.5 Q 557.4 379.5, 558.1 380.3 Q 558.8 381.0, 558.8 382.4 L 558.8 387.9 L 557.3 387.9 L 557.3 382.6 Q 557.3 381.6, 556.9 381.2 Q 556.5 380.7, 555.7 380.7 Q 554.9 380.7, 554.3 381.1 Q 553.7 381.4, 553.3 382.0 L 553.3 387.9 L 551.8 387.9 L 551.8 379.7 L 553.0 379.7 L 553.2 380.8 Q 554.3 379.5, 556.1 379.5 " fill="#000000"/>
<path class="legend" d="M 560.0 380.8 L 560.0 379.7 L 561.6 379.7 L 561.8 377.3 L 562.9 377.3 L 562.9 379.7 L 565.5 379.7 L 565.5 380.8 L 562.9 380.8 L 562.9 385.4 Q 562.9 386.8, 564.1 386.8 Q 564.6 386.8, 565.3 386.6 L 565.6 387.6 Q 564.7 388.0, 563.9 388.0 Q 562.8 388.0, 562.1 387.3 Q 561.4 386.7, 561.4 385.4 L 561.4 380.8 L 560.0 380.8 " fill="#000000"/>
<path class="legend" d="M 574.1 388.7 L 574.1 390.0 L 566.0 390.0 L 566.0 388.7 L 574.1 388.7 " fill="#000000"/>
<path class="legend" d="M 581.6 375.7 L 581.6 387.9 L 580.4 387.9 L 580.2 386.9 Q 579.3 388.0, 577.8 388.0 Q 576.1 388.0, 575.1 387.0 Q 574.1 385.9, 574.1 383.9 Q 574.1 381.8, 575.3 380.7 Q 576.4 379.5, 578.4 379.5 Q 579.2 379.5, 580.1 379.7 L 580.1 375.7 L 581.6 375.7 M 577.9 386.8 Q 578.7 386.8, 579.3 386.4 Q 579.9 385.9, 580.1 385.1 L 580.1 380.9 Q 579.3 380.7, 578.4 380.7 Q 577.1 380.7, 576.4 381.6 Q 575.7 382.4, 575.7 383.9 Q 575.7 385.3, 576.2 386.1 Q 576.8 386.8, 577.9 386.8 " fill="#000000"/>
<path class="legend" d="M 582.9 376.6 L 584.4 376.6 L 584.4 378.0 L 582.9 378.0 L 582.9 376.6 M 582.9 379.7 L 584.4 379.7 L 584.4 387.9 L 582.9 387.9 L 582.9 379.7 " fill="#000000"/>
<path class="legend" d="M 586.2 386.2 Q 586.9 386.5, 587.4 386.6 Q 588.0 386.8, 588.5 386.8 Q 589.3 386.8, 589.7 386.5 Q 590.1 386.2, 590.1 385.6 Q 590.1 385.2, 589.8 385.0 Q 589.6 384.8, 589.4 384.6 Q 589.1 384.5, 588.4 384.3 Q 588.3 384.3, 587.5 384.0 Q 586.8 383.7, 586.4 383.2 Q 586.0 382.7, 586.0 381.9 Q 586.0 380.9, 586.8 380.2 Q 587.6 379.5, 589.0 379.5 Q 589.7 379.5, 590.2 379.7 Q 590.8 379.8, 591.4 380.0 L 591.0 381.2 Q 590.5 381.0, 590.0 380.9 Q 589.5 380.8, 589.0 380.8 Q 588.3 380.8, 587.9 381.1 Q 587.5 381.4, 587.5 381.8 Q 587.5 382.3, 587.8 382.5 Q 588.1 382.7, 588.8 383.0 Q 589.0 383.0, 589.1 383.1 L 589.5 383.2 Q 590.2 383.4, 590.6 383.7 Q 591.0 383.9, 591.3 384.4 Q 591.6 384.8, 591.6 385.6 Q 591.6 386.7, 590.7 387.4 Q 589.9 388.0, 588.5 388.0 Q 587.8 388.0, 587.1 387.9 Q 586.4 387.7, 585.7 387.4 L 586.2 386.2 " fill="#000000"/>
<path class="legend" d="M 592.4 380.8 L 592.4 379.7 L 594.0 379.7 L 594.2 377.3 L 595.4 377.3 L 595.4 379.7 L 597.9 379.7 L 597.9 380.8 L 595.4 380.8 L 595.4 385.4 Q 595.4 386.8, 596.6 386.8 Q 597.0 386.8, 597.7 386.6 L 598.0 387.6 Q 597.1 388.0, 596.3 388.0 Q 595.2 388.0, 594.5 387.3 Q 593.9 386.7, 593.9 385.4 L 593.9 380.8 L 592.4 380.8 " fill="#000000"/>
<path class="legend" d="" fill="#000000"/>
<path class="legend" d="M 603.7 380.9 L 611.1 380.9 L 611.1 382.1 L 603.7 382.1 L 603.7 380.9 M 603.7 384.4 L 611.1 384.4 L 611.1 385.5 L 603.7 385.5 L 603.7 384.4 " fill="#000000"/>
<path class="legend" d="" fill="#000000"/>
<path class="legend" d="M 622.0 388.0 Q 619.9 388.0, 618.9 386.5 Q 617.9 384.9, 617.9 382.2 Q 617.9 379.5, 618.9 378.0 Q 619.9 376.4, 622.0 376.4 Q 624.1 376.4, 625.1 378.0 Q 626.1 379.5, 626.1 382.2 Q 626.1 384.9, 625.1 386.5 Q 624.1 388.0, 622.0 388.0 M 622.0 386.7 Q 623.2 386.7, 623.9 385.6 Q 624.5 384.4, 624.5 382.2 Q 624.5 380.0, 623.9 378.8 Q 623.2 377.7, 622.0 377.7 Q 620.8 377.7, 620.1 378.8 Q 619.5 380.0, 619.5 382.2 Q 619.5 384.4, 620.1 385.6 Q 620.8 386.7, 622.0 386.7 " fill="#000000"/>
<path class="legend" d="M 627.2 386.3 L 628.8 386.3 L 628.8 387.9 L 627.2 387.9 L 627.2 386.3 " fill="#000000"/>
<path class="legend" d="M 634.3 380.8 Q 635.2 380.8, 636.0 381.2 Q 636.8 381.7, 637.2 382.5 Q 637.7 383.2, 637.7 384.2 Q 637.7 385.3, 637.2 386.2 Q 636.7 387.1, 635.8 387.5 Q 635.0 388.0, 633.9 388.0 Q 631.9 388.0, 630.8 386.7 Q 629.8 385.3, 629.8 382.6 Q 629.8 379.6, 631.1 378.0 Q 632.3 376.4, 634.7 376.4 Q 635.5 376.4, 636.0 376.6 Q 636.7 376.8, 637.2 377.1 L 636.6 378.2 Q 635.8 377.7, 634.8 377.7 Q 633.2 377.7, 632.3 378.8 Q 631.5 379.8, 631.4 381.9 Q 632.0 381.4, 632.7 381.1 Q 633.5 380.8, 634.3 380.8 M 633.9 386.7 Q 634.5 386.7, 635.0 386.4 Q 635.5 386.1, 635.8 385.5 Q 636.1 384.9, 636.1 384.3 Q 636.1 383.2, 635.5 382.7 Q 635.0 382.1, 634.0 382.1 Q 633.3 382.1, 632.6 382.4 Q 631.9 382.7, 631.4 383.1 Q 631.5 385.0, 632.1 385.9 Q 632.7 386.7, 633.9 386.7 " fill="#000000"/>
<path class="legend" d="M 642.7 388.0 Q 640.6 388.0, 639.6 386.5 Q 638.6 384.9, 638.6 382.2 Q 638.6 379.5, 639.6 378.0 Q 640.6 376.4, 642.7 376.4 Q 644.8 376.4, 645.8 378.0 Q 646.8 379.5, 646.8 382.2 Q 646.8 384.9, 645.8 386.5 Q 644.8 388.0, 642.7 388.0 M 642.7 386.7 Q 643.9 386.7, 644.6 385.6 Q 645.2 384.4, 645.2 382.2 Q 645.2 380.0, 644.6 378.8 Q 643.9 377.7, 642.7 377.7 Q 641.5 377.7, 640.8 378.8 Q 640.2 380.0, 640.2 382.2 Q 640.2 384.4, 640.8 385.6 Q 641.5 386.7, 642.7 386.7 " fill="#000000"/>
<path class="legend" d="M 653.3 381.9 Q 654.4 382.2, 655.0 383.0 Q 655.5 383.7, 655.5 384.8 Q 655.5 385.7, 655.0 386.5 Q 654.5 387.2, 653.7 387.6 Q 652.8 388.0, 651.6 388.0 Q 650.4 388.0, 649.5 387.6 Q 648.6 387.2, 647.9 386.3 L 648.8 385.4 Q 649.5 386.2, 650.1 386.5 Q 650.7 386.8, 651.6 386.8 Q 652.7 386.8, 653.3 386.2 Q 653.9 385.7, 653.9 384.8 Q 653.9 383.6, 653.2 383.1 Q 652.6 382.6, 651.2 382.6 L 650.4 382.6 L 650.4 381.4 L 651.1 381.4 Q 652.3 381.4, 653.0 380.9 Q 653.7 380.3, 653.7 379.3 Q 653.7 378.6, 653.1 378.2 Q 652.6 377.7, 651.6 377.7 Q 650.7 377.7, 650.1 378.0 Q 649.5 378.4, 649.1 379.2 L 648.0 378.6 Q 648.4 377.7, 649.3 377.1 Q 650.3 376.4, 651.6 376.4 Q 653.3 376.4, 654.3 377.2 Q 655.3 378.0, 655.3 379.3 Q 655.3 380.2, 654.8 380.9 Q 654.3 381.6, 653.3 381.9 " fill="#000000"/>
<path class="legend" d="M 657.1 386.6 L 659.5 386.6 L 659.5 378.1 L 656.8 379.0 L 656.4 378.0 L 659.9 376.5 L 661.1 376.7 L 661.1 386.6 L 663.3 386.6 L 663.3 387.9 L 657.1 387.9 L 657.1 386.6 " fill="#000000"/>
<path class="bond-0 atom-0 atom-1" d="M 901.6,102.4 L 943.9,175.8" style="fill:none;fill-rule:evenodd;stroke:#000000;stroke-width:2.0px;stroke-linecap:butt;stroke-linejoin:miter;stroke-opacity:1"/>
<path class="bond-0 atom-0 atom-1" d="M 886.9,110.9 L 929.3,184.2" style="fill:none;fill-rule:evenodd;stroke:#000000;stroke-width:2.0px;stroke-linecap:butt;stroke-linejoin:miter;stroke-opacity:1"/>
<path class="bond-1 atom-1 atom-2" d="M 936.6,180.0 L 894.3,253.3" style="fill:none;fill-rule:evenodd;stroke:#000000;stroke-width:2.0px;stroke-linecap:butt;stroke-linejoin:miter;stroke-opacity:1"/>
<path class="bond-2 atom-1 atom-3" d="M 936.6,180.0 L 1021.3,180.0" style="fill:none;fill-rule:evenodd;stroke:#000000;stroke-width:2.0px;stroke-linecap:butt;stroke-linejoin:miter;stroke-opacity:1"/>
<path class="bond-3 atom-3 atom-4" d="M 1021.3,180.0 L 1058.6,180.0" style="fill:none;fill-rule:evenodd;stroke:#000000;stroke-width:2.0px;stroke-linecap:butt;stroke-linejoin:miter;stroke-opacity:1"/>
<path class="bond-3 atom-3 atom-4" d="M 1058.6,180.0 L 1096.0,180.0" style="fill:none;fill-rule:evenodd;stroke:#33CCCC;stroke-width:2.0px;stroke-linecap:butt;stroke-linejoin:miter;stroke-opacity:1"/>
<path class="bond-4 atom-3 atom-5" d="M 1021.3,180.0 L 1021.3,214.9" style="fill:none;fill-rule:evenodd;stroke:#000000;stroke-width:2.0px;stroke-linecap:butt;stroke-linejoin:miter;stroke-opacity:1"/>
<path class="bond-4 atom-3 atom-5" d="M 1021.3,214.9 L 1021.3,249.9" style="fill:none;fill-rule:evenodd;stroke:#33CCCC;stroke-width:2.0px;stroke-linecap:butt;stroke-linejoin:miter;stroke-opacity:1"/>
<path class="bond-5 atom-3 atom-6" d="M 1021.3,180.0 L 1021.3,145.1" style="fill:none;fill-rule:evenodd;stroke:#000000;stroke-width:2.0px;stroke-linecap:butt;stroke-linejoin:miter;stroke-opacity:1"/>
<path class="bond-5 atom-3 atom-6" d="M 1021.3,145.1 L 1021.3,110.1" style="fill:none;fill-rule:evenodd;stroke:#33CCCC;stroke-width:2.0px;stroke-linecap:butt;stroke-linejoin:miter;stroke-opacity:1"/>
<path class="atom-4" d="M 1098.8 168.0 L 1113.1 168.0 L 1113.1 170.8 L 1102.0 170.8 L 1102.0 178.0 L 1111.9 178.0 L 1111.9 180.8 L 1102.0 180.8 L 1102.0 192.0 L 1098.8 192.0 L 1098.8 168.0 " fill="#33CCCC"/>
<path class="atom-5" d="M 1014.1 252.7 L 1028.4 252.7 L 1028.4 255.4 L 1017.4 255.4 L 1017.4 262.7 L 1027.2 262.7 L 1027.2 265.5 L 1017.4 265.5 L 1017.4 276.7 L 1014.1 276.7 L 1014.1 252.7 " fill="#33CCCC"/>
<path class="atom-6" d="M 1014.1 83.3 L 1028.4 83.3 L 1028.4 86.1 L 1017.4 86.1 L 1017.4 93.4 L 1027.2 93.4 L 1027.2 96.1 L 1017.4 96.1 L 1017.4 107.3 L 1014.1 107.3 L 1014.1 83.3 " fill="#33CCCC"/>
<path class="legend" d="M 967.8 365.4 L 968.0 366.5 Q 968.8 365.3, 970.2 365.3 Q 970.7 365.3, 971.3 365.4 L 971.1 366.8 Q 970.4 366.6, 970.0 366.6 Q 969.3 366.6, 968.9 366.9 Q 968.4 367.1, 968.1 367.8 L 968.1 373.6 L 966.6 373.6 L 966.6 365.4 L 967.8 365.4 " fill="#000000"/>
<path class="legend" d="M 971.5 369.5 Q 971.5 367.5, 972.5 366.4 Q 973.6 365.3, 975.4 365.3 Q 977.2 365.3, 978.0 366.4 Q 978.8 367.4, 978.8 369.5 L 978.8 369.7 L 973.1 369.7 Q 973.1 371.1, 973.7 371.8 Q 974.4 372.6, 975.5 372.6 Q 976.2 372.6, 976.8 372.4 Q 977.3 372.3, 978.1 372.0 L 978.5 373.0 Q 977.7 373.4, 976.9 373.6 Q 976.2 373.8, 975.4 373.8 Q 973.6 373.8, 972.6 372.6 Q 971.5 371.5, 971.5 369.5 M 975.4 366.4 Q 974.4 366.4, 973.9 367.0 Q 973.3 367.5, 973.1 368.6 L 977.2 368.6 Q 977.1 367.5, 976.7 367.0 Q 976.2 366.4, 975.4 366.4 " fill="#000000"/>
<path class="legend" d="M 979.4 371.4 Q 979.4 370.1, 980.5 369.4 Q 981.5 368.7, 983.5 368.7 L 984.7 368.7 L 984.7 368.3 Q 984.7 367.3, 984.3 366.9 Q 983.8 366.4, 982.8 366.4 Q 982.2 366.4, 981.6 366.6 Q 981.1 366.7, 980.3 367.0 L 979.9 366.0 Q 981.4 365.3, 982.8 365.3 Q 984.6 365.3, 985.4 366.0 Q 986.2 366.8, 986.2 368.4 L 986.2 373.6 L 985.0 373.6 Q 985.0 373.6, 985.0 373.3 Q 984.9 373.1, 984.8 372.7 Q 983.7 373.8, 982.1 373.8 Q 980.9 373.8, 980.2 373.2 Q 979.4 372.5, 979.4 371.4 M 980.9 371.4 Q 980.9 372.0, 981.3 372.3 Q 981.7 372.6, 982.4 372.6 Q 983.1 372.6, 983.7 372.4 Q 984.3 372.0, 984.7 371.5 L 984.7 369.8 L 983.6 369.8 Q 982.3 369.8, 981.6 370.2 Q 980.9 370.6, 980.9 371.4 " fill="#000000"/>
<path class="legend" d="M 987.4 369.5 Q 987.4 367.5, 988.4 366.4 Q 989.4 365.3, 991.4 365.3 Q 993.2 365.3, 994.2 366.6 L 993.2 367.4 Q 992.8 366.9, 992.4 366.7 Q 991.9 366.4, 991.4 366.4 Q 990.2 366.4, 989.6 367.2 Q 989.0 368.0, 989.0 369.5 Q 989.0 371.0, 989.6 371.8 Q 990.3 372.6, 991.5 372.6 Q 992.1 372.6, 992.6 372.4 Q 993.1 372.3, 993.6 372.0 L 994.0 373.0 Q 992.9 373.7, 991.3 373.7 Q 989.4 373.7, 988.4 372.6 Q 987.4 371.5, 987.4 369.5 " fill="#000000"/>
<path class="legend" d="M 994.6 366.6 L 994.6 365.4 L 996.2 365.4 L 996.4 363.0 L 997.5 363.0 L 997.5 365.4 L 1000.0 365.4 L 1000.0 366.6 L 997.5 366.6 L 997.5 371.1 Q 997.5 372.5, 998.7 372.5 Q 999.2 372.5, 999.9 372.3 L 1000.2 373.4 Q 999.3 373.7, 998.5 373.7 Q 997.4 373.7, 996.7 373.1 Q 996.0 372.4, 996.0 371.2 L 996.0 366.6 L 994.6 366.6 " fill="#000000"/>
<path class="legend" d="M 1008.7 374.4 L 1008.7 375.7 L 1000.6 375.7 L 1000.6 374.4 L 1008.7 374.4 " fill="#000000"/>
<path class="legend" d="M 1009.4 372.4 L 1011.8 372.4 L 1011.8 363.9 L 1009.1 364.7 L 1008.7 363.8 L 1012.2 362.2 L 1013.3 362.4 L 1013.3 372.4 L 1015.6 372.4 L 1015.6 373.6 L 1009.4 373.6 L 1009.4 372.4 " fill="#000000"/>
<path class="legend" d="M 1020.4 373.8 Q 1018.3 373.8, 1017.3 372.2 Q 1016.2 370.7, 1016.2 368.0 Q 1016.2 365.2, 1017.3 363.7 Q 1018.3 362.2, 1020.4 362.2 Q 1022.5 362.2, 1023.5 363.7 Q 1024.5 365.2, 1024.5 368.0 Q 1024.5 370.7, 1023.5 372.2 Q 1022.5 373.8, 1020.4 373.8 M 1020.4 372.5 Q 1021.6 372.5, 1022.3 371.3 Q 1022.9 370.2, 1022.9 368.0 Q 1022.9 365.7, 1022.3 364.6 Q 1021.6 363.5, 1020.4 363.5 Q 1019.2 363.5, 1018.5 364.6 Q 1017.8 365.7, 1017.8 368.0 Q 1017.8 370.2, 1018.5 371.3 Q 1019.2 372.5, 1020.4 372.5 " fill="#000000"/>
<path class="legend" d="M 1030.0 366.6 Q 1031.0 366.6, 1031.8 367.0 Q 1032.6 367.4, 1033.0 368.2 Q 1033.4 369.0, 1033.4 370.0 Q 1033.4 371.1, 1032.9 372.0 Q 1032.4 372.8, 1031.6 373.3 Q 1030.7 373.8, 1029.6 373.8 Q 1027.6 373.8, 1026.6 372.4 Q 1025.6 371.0, 1025.6 368.3 Q 1025.6 365.3, 1026.8 363.7 Q 1028.1 362.2, 1030.5 362.2 Q 1031.2 362.2, 1031.8 362.3 Q 1032.4 362.5, 1033.0 362.8 L 1032.4 363.9 Q 1031.5 363.5, 1030.5 363.5 Q 1028.9 363.5, 1028.1 364.5 Q 1027.3 365.5, 1027.2 367.6 Q 1027.8 367.1, 1028.5 366.8 Q 1029.2 366.6, 1030.0 366.6 M 1029.6 372.4 Q 1030.2 372.4, 1030.7 372.1 Q 1031.2 371.8, 1031.5 371.2 Q 1031.8 370.7, 1031.8 370.0 Q 1031.8 369.0, 1031.3 368.4 Q 1030.7 367.8, 1029.7 367.8 Q 1029.0 367.8, 1028.3 368.1 Q 1027.7 368.4, 1027.2 368.9 Q 1027.2 370.8, 1027.8 371.6 Q 1028.4 372.4, 1029.6 372.4 " fill="#000000"/>
<path class="legend" d="M 936.5 383.8 Q 936.5 381.8, 937.4 380.7 Q 938.4 379.5, 940.4 379.5 Q 942.3 379.5, 943.2 380.9 L 942.2 381.6 Q 941.8 381.2, 941.4 380.9 Q 941.0 380.7, 940.4 380.7 Q 939.3 380.7, 938.6 381.5 Q 938.0 382.3, 938.0 383.8 Q 938.0 385.3, 938.6 386.1 Q 939.3 386.8, 940.5 386.8 Q 941.2 386.8, 941.6 386.7 Q 942.1 386.5, 942.7 386.3 L 943.1 387.3 Q 941.9 388.0, 940.4 388.0 Q 938.4 388.0, 937.4 386.9 Q 936.5 385.7, 936.5 383.8 " fill="#000000"/>
<path class="legend" d="M 943.6 383.8 Q 943.6 381.7, 944.6 380.6 Q 945.6 379.5, 947.5 379.5 Q 949.3 379.5, 950.1 380.6 Q 950.9 381.7, 950.9 383.7 L 950.9 384.0 L 945.2 384.0 Q 945.2 385.4, 945.8 386.1 Q 946.4 386.8, 947.6 386.8 Q 948.2 386.8, 948.8 386.7 Q 949.4 386.5, 950.1 386.2 L 950.6 387.2 Q 949.8 387.6, 949.0 387.8 Q 948.3 388.0, 947.5 388.0 Q 945.7 388.0, 944.6 386.9 Q 943.6 385.8, 943.6 383.8 M 947.5 380.7 Q 946.5 380.7, 946.0 381.2 Q 945.4 381.8, 945.2 382.8 L 949.3 382.8 Q 949.2 381.7, 948.8 381.2 Q 948.3 380.7, 947.5 380.7 " fill="#000000"/>
<path class="legend" d="M 955.8 379.5 Q 957.1 379.5, 957.8 380.3 Q 958.5 381.0, 958.5 382.4 L 958.5 387.9 L 957.0 387.9 L 957.0 382.6 Q 957.0 381.6, 956.6 381.2 Q 956.2 380.7, 955.4 380.7 Q 954.7 380.7, 954.0 381.1 Q 953.4 381.4, 953.0 382.0 L 953.0 387.9 L 951.5 387.9 L 951.5 379.7 L 952.7 379.7 L 952.9 380.8 Q 954.0 379.5, 955.8 379.5 " fill="#000000"/>
<path class="legend" d="M 959.7 380.8 L 959.7 379.7 L 961.3 379.7 L 961.6 377.3 L 962.7 377.3 L 962.7 379.7 L 965.2 379.7 L 965.2 380.8 L 962.7 380.8 L 962.7 385.4 Q 962.7 386.8, 963.9 386.8 Q 964.4 386.8, 965.1 386.6 L 965.3 387.6 Q 964.4 388.0, 963.6 388.0 Q 962.5 388.0, 961.8 387.3 Q 961.2 386.7, 961.2 385.4 L 961.2 380.8 L 959.7 380.8 " fill="#000000"/>
<path class="legend" d="M 973.9 388.7 L 973.9 390.0 L 965.7 390.0 L 965.7 388.7 L 973.9 388.7 " fill="#000000"/>
<path class="legend" d="M 981.3 375.7 L 981.3 387.9 L 980.1 387.9 L 979.9 386.9 Q 979.0 388.0, 977.5 388.0 Q 975.8 388.0, 974.8 387.0 Q 973.9 385.9, 973.9 383.9 Q 973.9 381.8, 975.0 380.7 Q 976.1 379.5, 978.1 379.5 Q 978.9 379.5, 979.8 379.7 L 979.8 375.7 L 981.3 375.7 M 977.6 386.8 Q 978.4 386.8, 979.0 386.4 Q 979.6 385.9, 979.8 385.1 L 979.8 380.9 Q 979.0 380.7, 978.1 380.7 Q 976.9 380.7, 976.1 381.6 Q 975.4 382.4, 975.4 383.9 Q 975.4 385.3, 976.0 386.1 Q 976.5 386.8, 977.6 386.8 " fill="#000000"/>
<path class="legend" d="M 982.6 376.6 L 984.1 376.6 L 984.1 378.0 L 982.6 378.0 L 982.6 376.6 M 982.6 379.7 L 984.1 379.7 L 984.1 387.9 L 982.6 387.9 L 982.6 379.7 " fill="#000000"/>
<path class="legend" d="M 985.9 386.2 Q 986.7 386.5, 987.2 386.6 Q 987.7 386.8, 988.3 386.8 Q 989.0 386.8, 989.4 386.5 Q 989.8 386.2, 989.8 385.6 Q 989.8 385.2, 989.6 385.0 Q 989.4 384.8, 989.1 384.6 Q 988.8 384.5, 988.1 384.3 Q 988.0 384.3, 987.3 384.0 Q 986.5 383.7, 986.1 383.2 Q 985.7 382.7, 985.7 381.9 Q 985.7 380.9, 986.5 380.2 Q 987.3 379.5, 988.8 379.5 Q 989.4 379.5, 989.9 379.7 Q 990.5 379.8, 991.1 380.0 L 990.7 381.2 Q 990.2 381.0, 989.7 380.9 Q 989.3 380.8, 988.8 380.8 Q 988.0 380.8, 987.6 381.1 Q 987.3 381.4, 987.3 381.8 Q 987.3 382.3, 987.6 382.5 Q 987.9 382.7, 988.5 383.0 Q 988.7 383.0, 988.9 383.1 L 989.2 383.2 Q 989.9 383.4, 990.3 383.7 Q 990.7 383.9, 991.0 384.4 Q 991.3 384.8, 991.3 385.6 Q 991.3 386.7, 990.5 387.4 Q 989.6 388.0, 988.3 388.0 Q 987.5 388.0, 986.8 387.9 Q 986.1 387.7, 985.5 387.4 L 985.9 386.2 " fill="#000000"/>
<path class="legend" d="M 992.1 380.8 L 992.1 379.7 L 993.7 379.7 L 994.0 377.3 L 995.1 377.3 L 995.1 379.7 L 997.6 379.7 L 997.6 380.8 L 995.1 380.8 L 995.1 385.4 Q 995.1 386.8, 996.3 386.8 Q 996.8 386.8, 997.5 386.6 L 997.7 387.6 Q 996.9 388.0, 996.0 388.0 Q 994.9 388.0, 994.3 387.3 Q 993.6 386.7, 993.6 385.4 L 993.6 380.8 L 992.1 380.8 " fill="#000000"/>
<path class="legend" d="" fill="#000000"/>
<path class="legend" d="M 1003.5 380.9 L 1010.8 380.9 L 1010.8 382.1 L 1003.5 382.1 L 1003.5 380.9 M 1003.5 384.4 L 1010.8 384.4 L 1010.8 385.5 L 1003.5 385.5 L 1003.5 384.4 " fill="#000000"/>
<path class="legend" d="" fill="#000000"/>
<path class="legend" d="M 1021.7 388.0 Q 1019.6 388.0, 1018.6 386.5 Q 1017.6 384.9, 1017.6 382.2 Q 1017.6 379.5, 1018.6 378.0 Q 1019.6 376.4, 1021.7 376.4 Q 1023.8 376.4, 1024.8 378.0 Q 1025.9 379.5, 1025.9 382.2 Q 1025.9 384.9, 1024.8 386.5 Q 1023.8 388.0, 1021.7 388.0 M 1021.7 386.7 Q 1023.0 386.7, 1023.6 385.6 Q 1024.3 384.4, 1024.3 382.2 Q 1024.3 380.0, 1023.6 378.8 Q 1023.0 377.7, 1021.7 377.7 Q 1020.5 377.7, 1019.8 378.8 Q 1019.2 380.0, 1019.2 382.2 Q 1019.2 384.4, 1019.8 385.6 Q 1020.5 386.7, 1021.7 386.7 " fill="#000000"/>
<path class="legend" d="M 1026.9 386.3 L 1028.5 386.3 L 1028.5 387.9 L 1026.9 387.9 L 1026.9 386.3 " fill="#000000"/>
<path class="legend" d="M 1034.0 380.8 Q 1035.0 380.8, 1035.8 381.2 Q 1036.5 381.7, 1037.0 382.5 Q 1037.4 383.2, 1037.4 384.2 Q 1037.4 385.3, 1036.9 386.2 Q 1036.4 387.1, 1035.6 387.5 Q 1034.7 388.0, 1033.6 388.0 Q 1031.6 388.0, 1030.6 386.7 Q 1029.5 385.3, 1029.5 382.6 Q 1029.5 379.6, 1030.8 378.0 Q 1032.1 376.4, 1034.5 376.4 Q 1035.2 376.4, 1035.8 376.6 Q 1036.4 376.8, 1037.0 377.1 L 1036.3 378.2 Q 1035.5 377.7, 1034.5 377.7 Q 1032.9 377.7, 1032.1 378.8 Q 1031.3 379.8, 1031.2 381.9 Q 1031.7 381.4, 1032.5 381.1 Q 1033.2 380.8, 1034.0 380.8 M 1033.6 386.7 Q 1034.2 386.7, 1034.7 386.4 Q 1035.2 386.1, 1035.5 385.5 Q 1035.8 384.9, 1035.8 384.3 Q 1035.8 383.2, 1035.2 382.7 Q 1034.7 382.1, 1033.7 382.1 Q 1033.0 382.1, 1032.3 382.4 Q 1031.6 382.7, 1031.2 383.1 Q 1031.2 385.0, 1031.8 385.9 Q 1032.4 386.7, 1033.6 386.7 " fill="#000000"/>
<path class="legend" d="M 1044.1 381.9 Q 1045.1 382.3, 1045.7 383.0 Q 1046.3 383.7, 1046.3 384.8 Q 1046.3 385.7, 1045.8 386.5 Q 1045.3 387.2, 1044.4 387.6 Q 1043.5 388.0, 1042.3 388.0 Q 1040.5 388.0, 1039.4 387.2 Q 1038.3 386.3, 1038.3 384.8 Q 1038.3 383.9, 1038.8 383.2 Q 1039.2 382.5, 1040.2 381.9 Q 1039.5 381.5, 1039.1 380.9 Q 1038.7 380.3, 1038.7 379.3 Q 1038.7 378.0, 1039.7 377.2 Q 1040.6 376.4, 1042.3 376.4 Q 1043.9 376.4, 1044.9 377.2 Q 1045.9 378.0, 1045.9 379.3 Q 1045.9 380.2, 1045.4 380.8 Q 1045.0 381.4, 1044.1 381.9 M 1042.3 377.6 Q 1041.3 377.6, 1040.8 378.1 Q 1040.3 378.5, 1040.3 379.3 Q 1040.3 379.9, 1040.7 380.3 Q 1041.0 380.7, 1041.5 380.9 Q 1042.0 381.2, 1043.0 381.5 Q 1043.7 381.0, 1044.0 380.5 Q 1044.3 380.0, 1044.3 379.3 Q 1044.3 378.5, 1043.7 378.1 Q 1043.2 377.6, 1042.3 377.6 M 1042.3 386.8 Q 1043.4 386.8, 1044.0 386.3 Q 1044.7 385.7, 1044.7 384.8 Q 1044.7 384.2, 1044.3 383.8 Q 1044.0 383.4, 1043.5 383.2 Q 1043.0 382.9, 1042.1 382.7 L 1041.4 382.4 Q 1040.6 382.9, 1040.2 383.5 Q 1039.9 384.0, 1039.9 384.8 Q 1039.9 385.7, 1040.6 386.3 Q 1041.2 386.8, 1042.3 386.8 " fill="#000000"/>
<path class="legend" d="M 1051.7 380.8 Q 1052.7 380.8, 1053.5 381.2 Q 1054.3 381.7, 1054.7 382.5 Q 1055.1 383.2, 1055.1 384.2 Q 1055.1 385.3, 1054.7 386.2 Q 1054.2 387.1, 1053.3 387.5 Q 1052.4 388.0, 1051.3 388.0 Q 1049.3 388.0, 1048.3 386.7 Q 1047.3 385.3, 1047.3 382.6 Q 1047.3 379.6, 1048.5 378.0 Q 1049.8 376.4, 1052.2 376.4 Q 1052.9 376.4, 1053.5 376.6 Q 1054.1 376.8, 1054.7 377.1 L 1054.1 378.2 Q 1053.2 377.7, 1052.2 377.7 Q 1050.6 377.7, 1049.8 378.8 Q 1049.0 379.8, 1048.9 381.9 Q 1049.5 381.4, 1050.2 381.1 Q 1050.9 380.8, 1051.7 380.8 M 1051.4 386.7 Q 1052.0 386.7, 1052.5 386.4 Q 1053.0 386.1, 1053.3 385.5 Q 1053.5 384.9, 1053.5 384.3 Q 1053.5 383.2, 1053.0 382.7 Q 1052.4 382.1, 1051.4 382.1 Q 1050.7 382.1, 1050.1 382.4 Q 1049.4 382.7, 1048.9 383.1 Q 1049.0 385.0, 1049.6 385.9 Q 1050.2 386.7, 1051.4 386.7 " fill="#000000"/>
<path class="legend" d="M 1062.0 377.8 L 1056.0 377.8 L 1056.0 376.6 L 1063.5 376.6 L 1063.5 377.7 L 1059.0 387.9 L 1057.4 387.9 L 1062.0 377.8 " fill="#000000"/>
<path class="bond-0 atom-0 atom-1" d="M 1232.8,203.4 L 1317.0,212.0" style="fill:none;fill-rule:evenodd;stroke:#000000;stroke-width:2.0px;stroke-linecap:butt;stroke-linejoin:miter;stroke-opacity:1"/>
<path class="bond-0 atom-0 atom-1" d="M 1231.1,220.3 L 1315.3,228.8" style="fill:none;fill-rule:evenodd;stroke:#000000;stroke-width:2.0px;stroke-linecap:butt;stroke-linejoin:miter;stroke-opacity:1"/>
<path class="bond-1 atom-1 atom-2" d="M 1316.2,220.4 L 1350.9,297.6" style="fill:none;fill-rule:evenodd;stroke:#000000;stroke-width:2.0px;stroke-linecap:butt;stroke-linejoin:miter;stroke-opacity:1"/>
<path class="bond-2 atom-1 atom-3" d="M 1316.2,220.4 L 1365.7,151.7" style="fill:none;fill-rule:evenodd;stroke:#000000;stroke-width:2.0px;stroke-linecap:butt;stroke-linejoin:miter;stroke-opacity:1"/>
<path class="bond-3 atom-3 atom-4" d="M 1358.0,155.2 L 1344.1,124.2" style="fill:none;fill-rule:evenodd;stroke:#000000;stroke-width:2.0px;stroke-linecap:butt;stroke-linejoin:miter;stroke-opacity:1"/>
<path class="bond-3 atom-3 atom-4" d="M 1344.1,124.2 L 1330.2,93.2" style="fill:none;fill-rule:evenodd;stroke:#FF0000;stroke-width:2.0px;stroke-linecap:butt;stroke-linejoin:miter;stroke-opacity:1"/>
<path class="bond-3 atom-3 atom-4" d="M 1373.4,148.3 L 1359.5,117.3" style="fill:none;fill-rule:evenodd;stroke:#000000;stroke-width:2.0px;stroke-linecap:butt;stroke-linejoin:miter;stroke-opacity:1"/>
<path class="bond-3 atom-3 atom-4" d="M 1359.5,117.3 L 1345.6,86.3" style="fill:none;fill-rule:evenodd;stroke:#FF0000;stroke-width:2.0px;stroke-linecap:butt;stroke-linejoin:miter;stroke-opacity:1"/>
<path class="bond-4 atom-3 atom-5" d="M 1365.7,151.7 L 1401.9,155.4" style="fill:none;fill-rule:evenodd;stroke:#000000;stroke-width:2.0px;stroke-linecap:butt;stroke-linejoin:miter;stroke-opacity:1"/>
<path class="bond-4 atom-3 atom-5" d="M 1401.9,155.4 L 1438.1,159.1" style="fill:none;fill-rule:evenodd;stroke:#0000FF;stroke-width:2.0px;stroke-linecap:butt;stroke-linejoin:miter;stroke-opacity:1"/>
<path class="bond-5 atom-5 atom-6" d="M 1460.6,145.5 L 1480.1,118.6" style="fill:none;fill-rule:evenodd;stroke:#0000FF;stroke-width:2.0px;stroke-linecap:butt;stroke-linejoin:miter;stroke-opacity:1"/>
<path class="bond-5 atom-5 atom-6" d="M 1480.1,118.6 L 1499.5,91.6" style="fill:none;fill-rule:evenodd;stroke:#000000;stroke-width:2.0px;stroke-linecap:butt;stroke-linejoin:miter;stroke-opacity:1"/>
<path class="bond-6 atom-5 atom-7" d="M 1456.6,175.1 L 1467.3,198.8" style="fill:none;fill-rule:evenodd;stroke:#0000FF;stroke-width:2.0px;stroke-linecap:butt;stroke-linejoin:miter;stroke-opacity:1"/>
<path class="bond-6 atom-5 atom-7" d="M 1467.3,198.8 L 1478.0,222.6" style="fill:none;fill-rule:evenodd;stroke:#FF0000;stroke-width:2.0px;stroke-linecap:butt;stroke-linejoin:miter;stroke-opacity:1"/>
<path class="bond-7 atom-7 atom-8" d="M 1498.5,238.9 L 1533.7,242.5" style="fill:none;fill-rule:evenodd;stroke:#FF0000;stroke-width:2.0px;stroke-linecap:butt;stroke-linejoin:miter;stroke-opacity:1"/>
<path class="bond-7 atom-7 atom-8" d="M 1533.7,242.5 L 1568.9,246.1" style="fill:none;fill-rule:evenodd;stroke:#000000;stroke-width:2.0px;stroke-linecap:butt;stroke-linejoin:miter;stroke-opacity:1"/>
<path class="atom-4" d="M 1320.0 74.6 Q 1320.0 68.8, 1322.9 65.6 Q 1325.7 62.4, 1331.0 62.4 Q 1336.3 62.4, 1339.2 65.6 Q 1342.0 68.8, 1342.0 74.6 Q 1342.0 80.4, 1339.1 83.7 Q 1336.3 87.0, 1331.0 87.0 Q 1325.7 87.0, 1322.9 83.7 Q 1320.0 80.4, 1320.0 74.6 M 1331.0 84.3 Q 1334.7 84.3, 1336.6 81.8 Q 1338.6 79.4, 1338.6 74.6 Q 1338.6 69.8, 1336.6 67.5 Q 1334.7 65.1, 1331.0 65.1 Q 1327.4 65.1, 1325.4 67.4 Q 1323.4 69.8, 1323.4 74.6 Q 1323.4 79.4, 1325.4 81.8 Q 1327.4 84.3, 1331.0 84.3 " fill="#FF0000"/>
<path class="atom-5" d="M 1444.7 148.3 L 1452.5 161.0 Q 1453.3 162.3, 1454.6 164.5 Q 1455.8 166.8, 1455.9 166.9 L 1455.9 148.3 L 1459.1 148.3 L 1459.1 172.3 L 1455.8 172.3 L 1447.3 158.4 Q 1446.4 156.8, 1445.3 154.9 Q 1444.3 153.0, 1444.0 152.5 L 1444.0 172.3 L 1440.9 172.3 L 1440.9 148.3 L 1444.7 148.3 " fill="#0000FF"/>
<path class="atom-7" d="M 1473.7 237.6 Q 1473.7 231.8, 1476.5 228.6 Q 1479.4 225.4, 1484.7 225.4 Q 1490.0 225.4, 1492.8 228.6 Q 1495.7 231.8, 1495.7 237.6 Q 1495.7 243.4, 1492.8 246.7 Q 1489.9 250.0, 1484.7 250.0 Q 1479.4 250.0, 1476.5 246.7 Q 1473.7 243.5, 1473.7 237.6 M 1484.7 247.3 Q 1488.3 247.3, 1490.3 244.9 Q 1492.3 242.4, 1492.3 237.6 Q 1492.3 232.9, 1490.3 230.5 Q 1488.3 228.1, 1484.7 228.1 Q 1481.0 228.1, 1479.0 230.5 Q 1477.1 232.9, 1477.1 237.6 Q 1477.1 242.4, 1479.0 244.9 Q 1481.0 247.3, 1484.7 247.3 " fill="#FF0000"/>
<path class="legend" d="M 1368.0 365.4 L 1368.1 366.5 Q 1369.0 365.3, 1370.4 365.3 Q 1370.9 365.3, 1371.5 365.4 L 1371.2 366.8 Q 1370.5 366.6, 1370.2 366.6 Q 1369.5 366.6, 1369.0 366.9 Q 1368.6 367.1, 1368.2 367.8 L 1368.2 373.6 L 1366.7 373.6 L 1366.7 365.4 L 1368.0 365.4 " fill="#000000"/>
<path class="legend" d="M 1371.7 369.5 Q 1371.7 367.5, 1372.7 366.4 Q 1373.7 365.3, 1375.6 365.3 Q 1377.4 365.3, 1378.2 366.4 Q 1379.0 367.4, 1379.0 369.5 L 1379.0 369.7 L 1373.2 369.7 Q 1373.3 371.1, 1373.9 371.8 Q 1374.5 372.6, 1375.7 372.6 Q 1376.3 372.6, 1376.9 372.4 Q 1377.5 372.3, 1378.2 372.0 L 1378.7 373.0 Q 1377.8 373.4, 1377.1 373.6 Q 1376.4 373.8, 1375.6 373.8 Q 1373.8 373.8, 1372.7 372.6 Q 1371.7 371.5, 1371.7 369.5 M 1375.6 366.4 Q 1374.6 366.4, 1374.0 367.0 Q 1373.5 367.5, 1373.3 368.6 L 1377.4 368.6 Q 1377.3 367.5, 1376.8 367.0 Q 1376.4 366.4, 1375.6 366.4 " fill="#000000"/>
<path class="legend" d="M 1379.6 371.4 Q 1379.6 370.1, 1380.6 369.4 Q 1381.7 368.7, 1383.6 368.7 L 1384.9 368.7 L 1384.9 368.3 Q 1384.9 367.3, 1384.4 366.9 Q 1384.0 366.4, 1383.0 366.4 Q 1382.3 366.4, 1381.8 366.6 Q 1381.3 366.7, 1380.5 367.0 L 1380.1 366.0 Q 1381.6 365.3, 1383.0 365.3 Q 1384.8 365.3, 1385.6 366.0 Q 1386.4 366.8, 1386.4 368.4 L 1386.4 373.6 L 1385.2 373.6 Q 1385.2 373.6, 1385.1 373.3 Q 1385.1 373.1, 1385.0 372.7 Q 1383.8 373.8, 1382.3 373.8 Q 1381.1 373.8, 1380.3 373.2 Q 1379.6 372.5, 1379.6 371.4 M 1381.1 371.4 Q 1381.1 372.0, 1381.5 372.3 Q 1381.9 372.6, 1382.6 372.6 Q 1383.2 372.6, 1383.8 372.4 Q 1384.4 372.0, 1384.9 371.5 L 1384.9 369.8 L 1383.7 369.8 Q 1382.4 369.8, 1381.8 370.2 Q 1381.1 370.6, 1381.1 371.4 " fill="#000000"/>
<path class="legend" d="M 1387.6 369.5 Q 1387.6 367.5, 1388.6 366.4 Q 1389.6 365.3, 1391.5 365.3 Q 1393.4 365.3, 1394.4 366.6 L 1393.4 367.4 Q 1393.0 366.9, 1392.5 366.7 Q 1392.1 366.4, 1391.5 366.4 Q 1390.4 366.4, 1389.8 367.2 Q 1389.1 368.0, 1389.1 369.5 Q 1389.1 371.0, 1389.8 371.8 Q 1390.4 372.6, 1391.6 372.6 Q 1392.3 372.6, 1392.8 372.4 Q 1393.2 372.3, 1393.8 372.0 L 1394.2 373.0 Q 1393.0 373.7, 1391.5 373.7 Q 1389.6 373.7, 1388.6 372.6 Q 1387.6 371.5, 1387.6 369.5 " fill="#000000"/>
<path class="legend" d="M 1394.8 366.6 L 1394.8 365.4 L 1396.3 365.4 L 1396.6 363.0 L 1397.7 363.0 L 1397.7 365.4 L 1400.2 365.4 L 1400.2 366.6 L 1397.7 366.6 L 1397.7 371.1 Q 1397.7 372.5, 1398.9 372.5 Q 1399.4 372.5, 1400.1 372.3 L 1400.3 373.4 Q 1399.5 373.7, 1398.6 373.7 Q 1397.6 373.7, 1396.9 373.1 Q 1396.2 372.4, 1396.2 371.2 L 1396.2 366.6 L 1394.8 366.6 " fill="#000000"/>
<path class="legend" d="M 1408.9 374.4 L 1408.9 375.7 L 1400.7 375.7 L 1400.7 374.4 L 1408.9 374.4 " fill="#000000"/>
<path class="legend" d="M 1409.5 372.4 L 1412.0 372.4 L 1412.0 363.9 L 1409.3 364.7 L 1408.9 363.8 L 1412.4 362.2 L 1413.5 362.4 L 1413.5 372.4 L 1415.7 372.4 L 1415.7 373.6 L 1409.5 373.6 L 1409.5 372.4 " fill="#000000"/>
<path class="legend" d="M 1420.6 373.8 Q 1418.5 373.8, 1417.4 372.2 Q 1416.4 370.7, 1416.4 368.0 Q 1416.4 365.2, 1417.4 363.7 Q 1418.5 362.2, 1420.6 362.2 Q 1422.6 362.2, 1423.7 363.7 Q 1424.7 365.2, 1424.7 368.0 Q 1424.7 370.7, 1423.7 372.2 Q 1422.6 373.8, 1420.6 373.8 M 1420.6 372.5 Q 1421.8 372.5, 1422.4 371.3 Q 1423.1 370.2, 1423.1 368.0 Q 1423.1 365.7, 1422.4 364.6 Q 1421.8 363.5, 1420.6 363.5 Q 1419.3 363.5, 1418.7 364.6 Q 1418.0 365.7, 1418.0 368.0 Q 1418.0 370.2, 1418.7 371.3 Q 1419.3 372.5, 1420.6 372.5 " fill="#000000"/>
<path class="legend" d="M 1431.7 363.6 L 1425.7 363.6 L 1425.7 362.3 L 1433.3 362.3 L 1433.3 363.4 L 1428.7 373.6 L 1427.1 373.6 L 1431.7 363.6 " fill="#000000"/>
<path class="legend" d="M 1335.8 383.8 Q 1335.8 381.8, 1336.8 380.7 Q 1337.8 379.5, 1339.7 379.5 Q 1341.6 379.5, 1342.6 380.9 L 1341.6 381.6 Q 1341.2 381.2, 1340.7 380.9 Q 1340.3 380.7, 1339.7 380.7 Q 1338.6 380.7, 1337.9 381.5 Q 1337.3 382.3, 1337.3 383.8 Q 1337.3 385.3, 1338.0 386.1 Q 1338.6 386.8, 1339.8 386.8 Q 1340.5 386.8, 1341.0 386.7 Q 1341.4 386.5, 1342.0 386.3 L 1342.4 387.3 Q 1341.2 388.0, 1339.7 388.0 Q 1337.8 388.0, 1336.8 386.9 Q 1335.8 385.7, 1335.8 383.8 " fill="#000000"/>
<path class="legend" d="M 1343.0 383.8 Q 1343.0 381.7, 1344.0 380.6 Q 1345.0 379.5, 1346.8 379.5 Q 1348.6 379.5, 1349.4 380.6 Q 1350.2 381.7, 1350.2 383.7 L 1350.2 384.0 L 1344.5 384.0 Q 1344.5 385.4, 1345.1 386.1 Q 1345.8 386.8, 1346.9 386.8 Q 1347.6 386.8, 1348.2 386.7 Q 1348.8 386.5, 1349.5 386.2 L 1349.9 387.2 Q 1349.1 387.6, 1348.4 387.8 Q 1347.6 388.0, 1346.9 388.0 Q 1345.0 388.0, 1344.0 386.9 Q 1343.0 385.8, 1343.0 383.8 M 1346.8 380.7 Q 1345.9 380.7, 1345.3 381.2 Q 1344.7 381.8, 1344.6 382.8 L 1348.7 382.8 Q 1348.5 381.7, 1348.1 381.2 Q 1347.6 380.7, 1346.8 380.7 " fill="#000000"/>
<path class="legend" d="M 1355.1 379.5 Q 1356.4 379.5, 1357.1 380.3 Q 1357.8 381.0, 1357.8 382.4 L 1357.8 387.9 L 1356.3 387.9 L 1356.3 382.6 Q 1356.3 381.6, 1355.9 381.2 Q 1355.6 380.7, 1354.7 380.7 Q 1354.0 380.7, 1353.4 381.1 Q 1352.7 381.4, 1352.3 382.0 L 1352.3 387.9 L 1350.8 387.9 L 1350.8 379.7 L 1352.1 379.7 L 1352.3 380.8 Q 1353.4 379.5, 1355.1 379.5 " fill="#000000"/>
<path class="legend" d="M 1359.1 380.8 L 1359.1 379.7 L 1360.6 379.7 L 1360.9 377.3 L 1362.0 377.3 L 1362.0 379.7 L 1364.5 379.7 L 1364.5 380.8 L 1362.0 380.8 L 1362.0 385.4 Q 1362.0 386.8, 1363.2 386.8 Q 1363.7 386.8, 1364.4 386.6 L 1364.7 387.6 Q 1363.8 388.0, 1362.9 388.0 Q 1361.9 388.0, 1361.2 387.3 Q 1360.5 386.7, 1360.5 385.4 L 1360.5 380.8 L 1359.1 380.8 " fill="#000000"/>
<path class="legend" d="M 1373.2 388.7 L 1373.2 390.0 L 1365.1 390.0 L 1365.1 388.7 L 1373.2 388.7 " fill="#000000"/>
<path class="legend" d="M 1380.7 375.7 L 1380.7 387.9 L 1379.5 387.9 L 1379.3 386.9 Q 1378.3 388.0, 1376.8 388.0 Q 1375.1 388.0, 1374.2 387.0 Q 1373.2 385.9, 1373.2 383.9 Q 1373.2 381.8, 1374.3 380.7 Q 1375.5 379.5, 1377.4 379.5 Q 1378.3 379.5, 1379.2 379.7 L 1379.2 375.7 L 1380.7 375.7 M 1376.9 386.8 Q 1377.8 386.8, 1378.3 386.4 Q 1379.0 385.9, 1379.2 385.1 L 1379.2 380.9 Q 1378.4 380.7, 1377.5 380.7 Q 1376.2 380.7, 1375.5 381.6 Q 1374.7 382.4, 1374.7 383.9 Q 1374.7 385.3, 1375.3 386.1 Q 1375.9 386.8, 1376.9 386.8 " fill="#000000"/>
<path class="legend" d="M 1382.0 376.6 L 1383.4 376.6 L 1383.4 378.0 L 1382.0 378.0 L 1382.0 376.6 M 1382.0 379.7 L 1383.4 379.7 L 1383.4 387.9 L 1382.0 387.9 L 1382.0 379.7 " fill="#000000"/>
<path class="legend" d="M 1385.3 386.2 Q 1386.0 386.5, 1386.5 386.6 Q 1387.0 386.8, 1387.6 386.8 Q 1388.3 386.8, 1388.7 386.5 Q 1389.1 386.2, 1389.1 385.6 Q 1389.1 385.2, 1388.9 385.0 Q 1388.7 384.8, 1388.4 384.6 Q 1388.2 384.5, 1387.5 384.3 Q 1387.3 384.3, 1386.6 384.0 Q 1385.9 383.7, 1385.5 383.2 Q 1385.1 382.7, 1385.1 381.9 Q 1385.1 380.9, 1385.9 380.2 Q 1386.6 379.5, 1388.1 379.5 Q 1388.7 379.5, 1389.3 379.7 Q 1389.8 379.8, 1390.4 380.0 L 1390.0 381.2 Q 1389.5 381.0, 1389.1 380.9 Q 1388.6 380.8, 1388.1 380.8 Q 1387.4 380.8, 1387.0 381.1 Q 1386.6 381.4, 1386.6 381.8 Q 1386.6 382.3, 1386.9 382.5 Q 1387.2 382.7, 1387.9 383.0 Q 1388.0 383.0, 1388.2 383.1 L 1388.6 383.2 Q 1389.2 383.4, 1389.6 383.7 Q 1390.1 383.9, 1390.3 384.4 Q 1390.6 384.8, 1390.6 385.6 Q 1390.6 386.7, 1389.8 387.4 Q 1389.0 388.0, 1387.6 388.0 Q 1386.8 388.0, 1386.2 387.9 Q 1385.5 387.7, 1384.8 387.4 L 1385.3 386.2 " fill="#000000"/>
<path class="legend" d="M 1391.5 380.8 L 1391.5 379.7 L 1393.1 379.7 L 1393.3 377.3 L 1394.4 377.3 L 1394.4 379.7 L 1396.9 379.7 L 1396.9 380.8 L 1394.4 380.8 L 1394.4 385.4 Q 1394.4 386.8, 1395.6 386.8 Q 1396.1 386.8, 1396.8 386.6 L 1397.1 387.6 Q 1396.2 388.0, 1395.4 388.0 Q 1394.3 388.0, 1393.6 387.3 Q 1392.9 386.7, 1392.9 385.4 L 1392.9 380.8 L 1391.5 380.8 " fill="#000000"/>
<path class="legend" d="" fill="#000000"/>
<path class="legend" d="M 1402.8 380.9 L 1410.1 380.9 L 1410.1 382.1 L 1402.8 382.1 L 1402.8 380.9 M 1402.8 384.4 L 1410.1 384.4 L 1410.1 385.5 L 1402.8 385.5 L 1402.8 384.4 " fill="#000000"/>
<path class="legend" d="" fill="#000000"/>
<path class="legend" d="M 1421.1 388.0 Q 1419.0 388.0, 1417.9 386.5 Q 1416.9 384.9, 1416.9 382.2 Q 1416.9 379.5, 1417.9 378.0 Q 1419.0 376.4, 1421.1 376.4 Q 1423.2 376.4, 1424.2 378.0 Q 1425.2 379.5, 1425.2 382.2 Q 1425.2 384.9, 1424.2 386.5 Q 1423.1 388.0, 1421.1 388.0 M 1421.1 386.7 Q 1422.3 386.7, 1422.9 385.6 Q 1423.6 384.4, 1423.6 382.2 Q 1423.6 380.0, 1422.9 378.8 Q 1422.3 377.7, 1421.1 377.7 Q 1419.8 377.7, 1419.2 378.8 Q 1418.5 380.0, 1418.5 382.2 Q 1418.5 384.4, 1419.2 385.6 Q 1419.8 386.7, 1421.1 386.7 " fill="#000000"/>
<path class="legend" d="M 1426.2 386.3 L 1427.8 386.3 L 1427.8 387.9 L 1426.2 387.9 L 1426.2 386.3 " fill="#000000"/>
<path class="legend" d="M 1432.7 376.4 Q 1434.7 376.4, 1435.7 377.8 Q 1436.7 379.2, 1436.7 381.9 Q 1436.7 384.9, 1435.5 386.5 Q 1434.2 388.0, 1431.8 388.0 Q 1431.1 388.0, 1430.5 387.9 Q 1429.9 387.7, 1429.3 387.4 L 1430.0 386.3 Q 1430.8 386.7, 1431.8 386.7 Q 1433.4 386.7, 1434.2 385.7 Q 1435.0 384.7, 1435.1 382.5 Q 1434.5 383.1, 1433.8 383.4 Q 1433.1 383.6, 1432.3 383.6 Q 1431.3 383.6, 1430.5 383.2 Q 1429.7 382.8, 1429.3 382.0 Q 1428.9 381.2, 1428.9 380.2 Q 1428.9 379.1, 1429.4 378.3 Q 1429.9 377.4, 1430.7 376.9 Q 1431.6 376.4, 1432.7 376.4 M 1430.5 380.2 Q 1430.5 381.2, 1431.0 381.8 Q 1431.6 382.4, 1432.6 382.4 Q 1433.3 382.4, 1434.0 382.1 Q 1434.6 381.8, 1435.1 381.3 Q 1435.1 379.4, 1434.5 378.6 Q 1433.9 377.7, 1432.7 377.7 Q 1432.1 377.7, 1431.6 378.1 Q 1431.1 378.4, 1430.8 378.9 Q 1430.5 379.5, 1430.5 380.2 " fill="#000000"/>
<path class="legend" d="M 1445.2 384.0 L 1446.5 384.0 L 1446.5 385.3 L 1445.2 385.3 L 1445.2 387.9 L 1443.7 387.9 L 1443.7 385.3 L 1437.8 385.3 L 1437.8 384.3 L 1442.8 376.6 L 1445.2 376.6 L 1445.2 384.0 M 1439.7 384.0 L 1443.7 384.0 L 1443.7 377.6 L 1439.7 384.0 " fill="#000000"/>
<path class="legend" d="M 1447.4 378.7 Q 1447.8 377.6, 1448.8 377.0 Q 1449.8 376.4, 1451.1 376.4 Q 1452.9 376.4, 1453.8 377.4 Q 1454.8 378.3, 1454.8 379.9 Q 1454.8 381.6, 1453.5 383.2 Q 1452.3 384.8, 1449.7 386.6 L 1455.0 386.6 L 1455.0 387.9 L 1447.3 387.9 L 1447.3 386.8 Q 1449.4 385.3, 1450.7 384.2 Q 1452.0 383.1, 1452.6 382.1 Q 1453.2 381.1, 1453.2 380.0 Q 1453.2 378.9, 1452.6 378.3 Q 1452.1 377.7, 1451.1 377.7 Q 1450.2 377.7, 1449.6 378.1 Q 1449.0 378.4, 1448.6 379.3 L 1447.4 378.7 " fill="#000000"/>
<path class="legend" d="M 1460.1 388.0 Q 1458.0 388.0, 1456.9 386.5 Q 1455.9 384.9, 1455.9 382.2 Q 1455.9 379.5, 1456.9 378.0 Q 1458.0 376.4, 1460.1 376.4 Q 1462.2 376.4, 1463.2 378.0 Q 1464.2 379.5, 1464.2 382.2 Q 1464.2 384.9, 1463.2 386.5 Q 1462.1 388.0, 1460.1 388.0 M 1460.1 386.7 Q 1461.3 386.7, 1462.0 385.6 Q 1462.6 384.4, 1462.6 382.2 Q 1462.6 380.0, 1462.0 378.8 Q 1461.3 377.7, 1460.1 377.7 Q 1458.9 377.7, 1458.2 378.8 Q 1457.5 380.0, 1457.5 382.2 Q 1457.5 384.4, 1458.2 385.6 Q 1458.9 386.7, 1460.1 386.7 " fill="#000000"/>
</svg>