<svg xmlns="http://www.w3.org/2000/svg" xmlns:rdkit="http://www.rdkit.org/xml" xmlns:xlink="http://www.w3.org/1999/xlink" version="1.1" baseProfile="full" xml:space="preserve" width="2000px" height="400px" viewBox="0 0 2000 400">
<!-- END OF HEADER -->
<rect style="opacity:1.0;fill:#FFFFFF;stroke:none" width="2000.0" height="400.0" x="0.0" y="0.0"> </rect>
<path class="bond-0 atom-0 atom-1" d="M 56.2,183.3 L 86.2,173.7" style="fill:none;fill-rule:evenodd;stroke:#000000;stroke-width:2.0px;stroke-linecap:butt;stroke-linejoin:miter;stroke-opacity:1"/>
<path class="bond-0 atom-0 atom-1" d="M 58.2,189.3 L 88.1,179.7" style="fill:none;fill-rule:evenodd;stroke:#000000;stroke-width:2.0px;stroke-linecap:butt;stroke-linejoin:miter;stroke-opacity:1"/>
<path class="bond-1 atom-1 atom-2" d="M 87.2,176.7 L 110.5,197.9" style="fill:none;fill-rule:evenodd;stroke:#000000;stroke-width:2.0px;stroke-linecap:butt;stroke-linejoin:miter;stroke-opacity:1"/>
<path class="bond-2 atom-2 atom-3" d="M 110.5,197.9 L 123.3,193.8" style="fill:none;fill-rule:evenodd;stroke:#000000;stroke-width:2.0px;stroke-linecap:butt;stroke-linejoin:miter;stroke-opacity:1"/>
<path class="bond-2 atom-2 atom-3" d="M 123.3,193.8 L 136.1,189.7" style="fill:none;fill-rule:evenodd;stroke:#0000FF;stroke-width:2.0px;stroke-linecap:butt;stroke-linejoin:miter;stroke-opacity:1"/>
<path class="bond-3 atom-3 atom-4" d="M 141.7,182.8 L 144.4,170.1" style="fill:none;fill-rule:evenodd;stroke:#0000FF;stroke-width:2.0px;stroke-linecap:butt;stroke-linejoin:miter;stroke-opacity:1"/>
<path class="bond-3 atom-3 atom-4" d="M 144.4,170.1 L 147.2,157.5" style="fill:none;fill-rule:evenodd;stroke:#000000;stroke-width:2.0px;stroke-linecap:butt;stroke-linejoin:miter;stroke-opacity:1"/>
<path class="bond-4 atom-4 atom-5" d="M 147.2,157.5 L 177.2,147.9" style="fill:none;fill-rule:evenodd;stroke:#000000;stroke-width:2.0px;stroke-linecap:butt;stroke-linejoin:miter;stroke-opacity:1"/>
<path class="bond-4 atom-4 atom-5" d="M 153.6,162.0 L 174.6,155.3" style="fill:none;fill-rule:evenodd;stroke:#000000;stroke-width:2.0px;stroke-linecap:butt;stroke-linejoin:miter;stroke-opacity:1"/>
<path class="bond-5 atom-5 atom-6" d="M 177.2,147.9 L 200.5,169.0" style="fill:none;fill-rule:evenodd;stroke:#000000;stroke-width:2.0px;stroke-linecap:butt;stroke-linejoin:miter;stroke-opacity:1"/>
<path class="bond-6 atom-6 atom-7" d="M 200.5,169.0 L 213.3,165.0" style="fill:none;fill-rule:evenodd;stroke:#000000;stroke-width:2.0px;stroke-linecap:butt;stroke-linejoin:miter;stroke-opacity:1"/>
<path class="bond-6 atom-6 atom-7" d="M 213.3,165.0 L 226.1,160.9" style="fill:none;fill-rule:evenodd;stroke:#0000FF;stroke-width:2.0px;stroke-linecap:butt;stroke-linejoin:miter;stroke-opacity:1"/>
<path class="bond-7 atom-7 atom-8" d="M 234.9,163.5 L 244.3,172.0" style="fill:none;fill-rule:evenodd;stroke:#0000FF;stroke-width:2.0px;stroke-linecap:butt;stroke-linejoin:miter;stroke-opacity:1"/>
<path class="bond-7 atom-7 atom-8" d="M 244.3,172.0 L 253.8,180.6" style="fill:none;fill-rule:evenodd;stroke:#000000;stroke-width:2.0px;stroke-linecap:butt;stroke-linejoin:miter;stroke-opacity:1"/>
<path class="bond-8 atom-8 atom-9" d="M 256.9,181.3 L 254.1,193.9" style="fill:none;fill-rule:evenodd;stroke:#000000;stroke-width:2.0px;stroke-linecap:butt;stroke-linejoin:miter;stroke-opacity:1"/>
<path class="bond-8 atom-8 atom-9" d="M 254.1,193.9 L 251.4,206.5" style="fill:none;fill-rule:evenodd;stroke:#FF0000;stroke-width:2.0px;stroke-linecap:butt;stroke-linejoin:miter;stroke-opacity:1"/>
<path class="bond-8 atom-8 atom-9" d="M 250.7,179.9 L 248.0,192.6" style="fill:none;fill-rule:evenodd;stroke:#000000;stroke-width:2.0px;stroke-linecap:butt;stroke-linejoin:miter;stroke-opacity:1"/>
<path class="bond-8 atom-8 atom-9" d="M 248.0,192.6 L 245.2,205.2" style="fill:none;fill-rule:evenodd;stroke:#FF0000;stroke-width:2.0px;stroke-linecap:butt;stroke-linejoin:miter;stroke-opacity:1"/>
<path class="bond-9 atom-8 atom-10" d="M 253.8,180.6 L 283.8,171.0" style="fill:none;fill-rule:evenodd;stroke:#000000;stroke-width:2.0px;stroke-linecap:butt;stroke-linejoin:miter;stroke-opacity:1"/>
<path class="bond-10 atom-10 atom-11" d="M 283.8,171.0 L 307.1,192.2" style="fill:none;fill-rule:evenodd;stroke:#000000;stroke-width:2.0px;stroke-linecap:butt;stroke-linejoin:miter;stroke-opacity:1"/>
<path class="bond-10 atom-10 atom-11" d="M 291.5,169.5 L 307.8,184.3" style="fill:none;fill-rule:evenodd;stroke:#000000;stroke-width:2.0px;stroke-linecap:butt;stroke-linejoin:miter;stroke-opacity:1"/>
<path class="bond-11 atom-11 atom-12" d="M 307.1,192.2 L 337.1,182.6" style="fill:none;fill-rule:evenodd;stroke:#000000;stroke-width:2.0px;stroke-linecap:butt;stroke-linejoin:miter;stroke-opacity:1"/>
<path class="bond-12 atom-12 atom-13" d="M 337.1,182.6 L 343.8,151.8" style="fill:none;fill-rule:evenodd;stroke:#000000;stroke-width:2.0px;stroke-linecap:butt;stroke-linejoin:miter;stroke-opacity:1"/>
<path class="bond-12 atom-12 atom-13" d="M 331.9,176.6 L 336.6,155.1" style="fill:none;fill-rule:evenodd;stroke:#000000;stroke-width:2.0px;stroke-linecap:butt;stroke-linejoin:miter;stroke-opacity:1"/>
<path class="bond-13 atom-13 atom-14" d="M 343.8,151.8 L 320.4,130.6" style="fill:none;fill-rule:evenodd;stroke:#000000;stroke-width:2.0px;stroke-linecap:butt;stroke-linejoin:miter;stroke-opacity:1"/>
<path class="bond-14 atom-14 atom-15" d="M 320.4,130.6 L 290.5,140.2" style="fill:none;fill-rule:evenodd;stroke:#000000;stroke-width:2.0px;stroke-linecap:butt;stroke-linejoin:miter;stroke-opacity:1"/>
<path class="bond-14 atom-14 atom-15" d="M 317.9,138.1 L 296.9,144.8" style="fill:none;fill-rule:evenodd;stroke:#000000;stroke-width:2.0px;stroke-linecap:butt;stroke-linejoin:miter;stroke-opacity:1"/>
<path class="bond-15 atom-6 atom-16" d="M 200.5,169.0 L 197.7,181.7" style="fill:none;fill-rule:evenodd;stroke:#000000;stroke-width:2.0px;stroke-linecap:butt;stroke-linejoin:miter;stroke-opacity:1"/>
<path class="bond-15 atom-6 atom-16" d="M 197.7,181.7 L 195.0,194.3" style="fill:none;fill-rule:evenodd;stroke:#0000FF;stroke-width:2.0px;stroke-linecap:butt;stroke-linejoin:miter;stroke-opacity:1"/>
<path class="bond-15 atom-6 atom-16" d="M 193.5,171.5 L 191.6,180.4" style="fill:none;fill-rule:evenodd;stroke:#000000;stroke-width:2.0px;stroke-linecap:butt;stroke-linejoin:miter;stroke-opacity:1"/>
<path class="bond-15 atom-6 atom-16" d="M 191.6,180.4 L 189.7,189.2" style="fill:none;fill-rule:evenodd;stroke:#0000FF;stroke-width:2.0px;stroke-linecap:butt;stroke-linejoin:miter;stroke-opacity:1"/>
<path class="bond-16 atom-16 atom-17" d="M 189.4,201.2 L 176.6,205.3" style="fill:none;fill-rule:evenodd;stroke:#0000FF;stroke-width:2.0px;stroke-linecap:butt;stroke-linejoin:miter;stroke-opacity:1"/>
<path class="bond-16 atom-16 atom-17" d="M 176.6,205.3 L 163.8,209.4" style="fill:none;fill-rule:evenodd;stroke:#000000;stroke-width:2.0px;stroke-linecap:butt;stroke-linejoin:miter;stroke-opacity:1"/>
<path class="bond-17 atom-17 atom-18" d="M 166.9,210.1 L 164.2,222.7" style="fill:none;fill-rule:evenodd;stroke:#000000;stroke-width:2.0px;stroke-linecap:butt;stroke-linejoin:miter;stroke-opacity:1"/>
<path class="bond-17 atom-17 atom-18" d="M 164.2,222.7 L 161.4,235.3" style="fill:none;fill-rule:evenodd;stroke:#FF0000;stroke-width:2.0px;stroke-linecap:butt;stroke-linejoin:miter;stroke-opacity:1"/>
<path class="bond-17 atom-17 atom-18" d="M 160.7,208.8 L 158.0,221.4" style="fill:none;fill-rule:evenodd;stroke:#000000;stroke-width:2.0px;stroke-linecap:butt;stroke-linejoin:miter;stroke-opacity:1"/>
<path class="bond-17 atom-17 atom-18" d="M 158.0,221.4 L 155.3,234.0" style="fill:none;fill-rule:evenodd;stroke:#FF0000;stroke-width:2.0px;stroke-linecap:butt;stroke-linejoin:miter;stroke-opacity:1"/>
<path class="bond-18 atom-1 atom-19" d="M 87.2,176.7 L 92.6,151.7" style="fill:none;fill-rule:evenodd;stroke:#000000;stroke-width:2.0px;stroke-linecap:butt;stroke-linejoin:miter;stroke-opacity:1"/>
<path class="bond-19 atom-19 atom-20" d="M 89.1,144.9 L 63.1,139.2" style="fill:none;fill-rule:evenodd;stroke:#000000;stroke-width:2.0px;stroke-linecap:butt;stroke-linejoin:miter;stroke-opacity:1"/>
<path class="bond-20 atom-19 atom-21" d="M 98.6,147.0 L 124.6,152.6" style="fill:none;fill-rule:evenodd;stroke:#000000;stroke-width:2.0px;stroke-linecap:butt;stroke-linejoin:miter;stroke-opacity:1"/>
<path class="bond-21 atom-19 atom-22" d="M 95.1,140.4 L 100.5,115.1" style="fill:none;fill-rule:evenodd;stroke:#000000;stroke-width:2.0px;stroke-linecap:butt;stroke-linejoin:miter;stroke-opacity:1"/>
<path class="bond-22 atom-17 atom-3" d="M 163.8,209.4 L 154.4,200.9" style="fill:none;fill-rule:evenodd;stroke:#000000;stroke-width:2.0px;stroke-linecap:butt;stroke-linejoin:miter;stroke-opacity:1"/>
<path class="bond-22 atom-17 atom-3" d="M 154.4,200.9 L 144.9,192.3" style="fill:none;fill-rule:evenodd;stroke:#0000FF;stroke-width:2.0px;stroke-linecap:butt;stroke-linejoin:miter;stroke-opacity:1"/>
<path class="bond-23 atom-15 atom-10" d="M 290.5,140.2 L 283.8,171.0" style="fill:none;fill-rule:evenodd;stroke:#000000;stroke-width:2.0px;stroke-linecap:butt;stroke-linejoin:miter;stroke-opacity:1"/>
<path class="atom-3" d="M 138.5 183.8 L 141.4 188.5 Q 141.7 189.0, 142.2 189.8 Q 142.7 190.7, 142.7 190.7 L 142.7 183.8 L 143.9 183.8 L 143.9 192.7 L 142.7 192.7 L 139.5 187.6 Q 139.2 187.0, 138.8 186.3 Q 138.4 185.6, 138.3 185.4 L 138.3 192.7 L 137.1 192.7 L 137.1 183.8 L 138.5 183.8 " fill="#0000FF"/>
<path class="atom-7" d="M 228.5 155.0 L 231.4 159.7 Q 231.7 160.2, 232.2 161.0 Q 232.6 161.9, 232.7 161.9 L 232.7 155.0 L 233.9 155.0 L 233.9 163.9 L 232.6 163.9 L 229.5 158.7 Q 229.1 158.1, 228.7 157.4 Q 228.4 156.7, 228.2 156.5 L 228.2 163.9 L 227.1 163.9 L 227.1 155.0 L 228.5 155.0 " fill="#0000FF"/>
<path class="atom-7" d="M 227.0 145.2 L 228.2 145.2 L 228.2 149.0 L 232.8 149.0 L 232.8 145.2 L 234.0 145.2 L 234.0 154.1 L 232.8 154.1 L 232.8 150.0 L 228.2 150.0 L 228.2 154.1 L 227.0 154.1 L 227.0 145.2 " fill="#0000FF"/>
<path class="atom-9" d="M 243.0 211.4 Q 243.0 209.3, 244.1 208.1 Q 245.1 206.9, 247.1 206.9 Q 249.1 206.9, 250.1 208.1 Q 251.2 209.3, 251.2 211.4 Q 251.2 213.6, 250.1 214.8 Q 249.1 216.0, 247.1 216.0 Q 245.1 216.0, 244.1 214.8 Q 243.0 213.6, 243.0 211.4 M 247.1 215.0 Q 248.5 215.0, 249.2 214.1 Q 249.9 213.2, 249.9 211.4 Q 249.9 209.7, 249.2 208.8 Q 248.5 207.9, 247.1 207.9 Q 245.8 207.9, 245.0 208.8 Q 244.3 209.6, 244.3 211.4 Q 244.3 213.2, 245.0 214.1 Q 245.8 215.0, 247.1 215.0 " fill="#FF0000"/>
<path class="atom-16" d="M 191.8 195.4 L 194.8 200.1 Q 195.0 200.6, 195.5 201.4 Q 196.0 202.2, 196.0 202.3 L 196.0 195.4 L 197.2 195.4 L 197.2 204.3 L 196.0 204.3 L 192.8 199.1 Q 192.5 198.5, 192.1 197.8 Q 191.7 197.1, 191.6 196.9 L 191.6 204.3 L 190.4 204.3 L 190.4 195.4 L 191.8 195.4 " fill="#0000FF"/>
<path class="atom-18" d="M 153.0 240.2 Q 153.0 238.1, 154.1 236.9 Q 155.2 235.7, 157.1 235.7 Q 159.1 235.7, 160.2 236.9 Q 161.2 238.1, 161.2 240.2 Q 161.2 242.4, 160.2 243.6 Q 159.1 244.9, 157.1 244.9 Q 155.2 244.9, 154.1 243.6 Q 153.0 242.4, 153.0 240.2 M 157.1 243.8 Q 158.5 243.8, 159.2 242.9 Q 160.0 242.0, 160.0 240.2 Q 160.0 238.5, 159.2 237.6 Q 158.5 236.7, 157.1 236.7 Q 155.8 236.7, 155.0 237.6 Q 154.3 238.5, 154.3 240.2 Q 154.3 242.0, 155.0 242.9 Q 155.8 243.8, 157.1 243.8 " fill="#FF0000"/>
<path class="atom-19" d="M 90.5 149.0 Q 90.6 149.0, 91.0 149.2 Q 91.4 149.4, 91.9 149.5 Q 92.3 149.6, 92.8 149.6 Q 93.6 149.6, 94.1 149.2 Q 94.6 148.8, 94.6 148.1 Q 94.6 147.6, 94.3 147.3 Q 94.1 147.0, 93.7 146.8 Q 93.4 146.6, 92.7 146.5 Q 91.9 146.2, 91.5 146.0 Q 91.0 145.8, 90.6 145.3 Q 90.3 144.8, 90.3 144.0 Q 90.3 142.9, 91.1 142.2 Q 91.8 141.5, 93.4 141.5 Q 94.4 141.5, 95.6 142.0 L 95.3 142.9 Q 94.2 142.5, 93.4 142.5 Q 92.5 142.5, 92.0 142.9 Q 91.6 143.2, 91.6 143.8 Q 91.6 144.3, 91.8 144.6 Q 92.1 144.9, 92.4 145.1 Q 92.8 145.2, 93.4 145.4 Q 94.2 145.7, 94.7 145.9 Q 95.2 146.2, 95.5 146.7 Q 95.8 147.2, 95.8 148.1 Q 95.8 149.3, 95.0 150.0 Q 94.2 150.6, 92.8 150.6 Q 92.0 150.6, 91.4 150.4 Q 90.8 150.3, 90.1 150.0 L 90.5 149.0 " fill="#000000"/>
<path class="atom-19" d="M 96.4 141.5 L 97.6 141.5 L 97.6 142.6 L 96.4 142.6 L 96.4 141.5 M 96.4 143.9 L 97.6 143.9 L 97.6 150.4 L 96.4 150.4 L 96.4 143.9 " fill="#000000"/>
<path class="legend" d="M 166.6 365.4 L 166.8 366.5 Q 167.7 365.3, 169.1 365.3 Q 169.5 365.3, 170.1 365.4 L 169.9 366.8 Q 169.2 366.6, 168.8 366.6 Q 168.2 366.6, 167.7 366.9 Q 167.3 367.1, 166.9 367.8 L 166.9 373.6 L 165.4 373.6 L 165.4 365.4 L 166.6 365.4 " fill="#000000"/>
<path class="legend" d="M 170.4 369.5 Q 170.4 367.5, 171.4 366.4 Q 172.4 365.3, 174.2 365.3 Q 176.0 365.3, 176.8 366.4 Q 177.7 367.4, 177.7 369.5 L 177.7 369.7 L 171.9 369.7 Q 171.9 371.1, 172.6 371.8 Q 173.2 372.6, 174.4 372.6 Q 175.0 372.6, 175.6 372.4 Q 176.2 372.3, 176.9 372.0 L 177.3 373.0 Q 176.5 373.4, 175.8 373.6 Q 175.0 373.8, 174.3 373.8 Q 172.4 373.8, 171.4 372.6 Q 170.4 371.5, 170.4 369.5 M 174.2 366.4 Q 173.3 366.4, 172.7 367.0 Q 172.2 367.5, 172.0 368.6 L 176.1 368.6 Q 176.0 367.5, 175.5 367.0 Q 175.1 366.4, 174.2 366.4 " fill="#000000"/>
<path class="legend" d="M 178.3 371.4 Q 178.3 370.1, 179.3 369.4 Q 180.4 368.7, 182.3 368.7 L 183.5 368.7 L 183.5 368.3 Q 183.5 367.3, 183.1 366.9 Q 182.7 366.4, 181.7 366.4 Q 181.0 366.4, 180.5 366.6 Q 180.0 366.7, 179.2 367.0 L 178.7 366.0 Q 180.2 365.3, 181.7 365.3 Q 183.4 365.3, 184.2 366.0 Q 185.0 366.8, 185.0 368.4 L 185.0 373.6 L 183.9 373.6 Q 183.8 373.6, 183.8 373.3 Q 183.8 373.1, 183.7 372.7 Q 182.5 373.8, 181.0 373.8 Q 179.7 373.8, 179.0 373.2 Q 178.3 372.5, 178.3 371.4 M 179.8 371.4 Q 179.8 372.0, 180.2 372.3 Q 180.5 372.6, 181.3 372.6 Q 181.9 372.6, 182.5 372.4 Q 183.1 372.0, 183.5 371.5 L 183.5 369.8 L 182.4 369.8 Q 181.1 369.8, 180.4 370.2 Q 179.8 370.6, 179.8 371.4 " fill="#000000"/>
<path class="legend" d="M 186.3 369.5 Q 186.3 367.5, 187.3 366.4 Q 188.2 365.3, 190.2 365.3 Q 192.1 365.3, 193.0 366.6 L 192.0 367.4 Q 191.7 366.9, 191.2 366.7 Q 190.8 366.4, 190.2 366.4 Q 189.1 366.4, 188.4 367.2 Q 187.8 368.0, 187.8 369.5 Q 187.8 371.0, 188.4 371.8 Q 189.1 372.6, 190.3 372.6 Q 191.0 372.6, 191.4 372.4 Q 191.9 372.3, 192.5 372.0 L 192.9 373.0 Q 191.7 373.7, 190.2 373.7 Q 188.2 373.7, 187.3 372.6 Q 186.3 371.5, 186.3 369.5 " fill="#000000"/>
<path class="legend" d="M 193.4 366.6 L 193.4 365.4 L 195.0 365.4 L 195.3 363.0 L 196.4 363.0 L 196.4 365.4 L 198.9 365.4 L 198.9 366.6 L 196.4 366.6 L 196.4 371.1 Q 196.4 372.5, 197.6 372.5 Q 198.1 372.5, 198.8 372.3 L 199.0 373.4 Q 198.1 373.7, 197.3 373.7 Q 196.2 373.7, 195.5 373.1 Q 194.9 372.4, 194.9 371.2 L 194.9 366.6 L 193.4 366.6 " fill="#000000"/>
<path class="legend" d="M 207.6 374.4 L 207.6 375.7 L 199.4 375.7 L 199.4 374.4 L 207.6 374.4 " fill="#000000"/>
<path class="legend" d="M 214.9 369.7 L 216.3 369.7 L 216.3 371.0 L 214.9 371.0 L 214.9 373.6 L 213.4 373.6 L 213.4 371.0 L 207.6 371.0 L 207.6 370.0 L 212.5 362.3 L 214.9 362.3 L 214.9 369.7 M 209.4 369.7 L 213.4 369.7 L 213.4 363.3 L 209.4 369.7 " fill="#000000"/>
<path class="legend" d="M 224.4 369.7 L 225.8 369.7 L 225.8 371.0 L 224.4 371.0 L 224.4 373.6 L 222.9 373.6 L 222.9 371.0 L 217.1 371.0 L 217.1 370.0 L 222.0 362.3 L 224.4 362.3 L 224.4 369.7 M 218.9 369.7 L 222.9 369.7 L 222.9 363.3 L 218.9 369.7 " fill="#000000"/>
<path class="legend" d="M 232.4 367.6 Q 233.4 368.1, 234.0 368.8 Q 234.6 369.4, 234.6 370.5 Q 234.6 371.5, 234.1 372.2 Q 233.6 373.0, 232.7 373.4 Q 231.8 373.8, 230.6 373.8 Q 228.8 373.8, 227.7 372.9 Q 226.6 372.0, 226.6 370.5 Q 226.6 369.6, 227.1 368.9 Q 227.5 368.2, 228.5 367.7 Q 227.8 367.3, 227.4 366.7 Q 227.0 366.0, 227.0 365.1 Q 227.0 363.7, 228.0 363.0 Q 228.9 362.2, 230.6 362.2 Q 232.2 362.2, 233.2 363.0 Q 234.2 363.7, 234.2 365.1 Q 234.2 365.9, 233.7 366.5 Q 233.3 367.1, 232.4 367.6 M 230.6 363.4 Q 229.6 363.4, 229.1 363.8 Q 228.6 364.3, 228.6 365.1 Q 228.6 365.7, 229.0 366.1 Q 229.3 366.4, 229.8 366.7 Q 230.3 366.9, 231.3 367.2 Q 232.0 366.8, 232.3 366.2 Q 232.6 365.7, 232.6 365.1 Q 232.6 364.3, 232.0 363.8 Q 231.5 363.4, 230.6 363.4 M 230.6 372.6 Q 231.7 372.6, 232.3 372.0 Q 233.0 371.5, 233.0 370.5 Q 233.0 369.9, 232.6 369.5 Q 232.3 369.1, 231.8 368.9 Q 231.3 368.7, 230.4 368.4 L 229.7 368.2 Q 228.9 368.6, 228.5 369.2 Q 228.2 369.8, 228.2 370.5 Q 228.2 371.5, 228.9 372.0 Q 229.5 372.6, 230.6 372.6 " fill="#000000"/>
<path class="legend" d="M 136.1 383.8 Q 136.1 381.8, 137.1 380.7 Q 138.1 379.5, 140.0 379.5 Q 141.9 379.5, 142.9 380.9 L 141.9 381.6 Q 141.5 381.2, 141.1 380.9 Q 140.6 380.7, 140.0 380.7 Q 138.9 380.7, 138.3 381.5 Q 137.6 382.3, 137.6 383.8 Q 137.6 385.3, 138.3 386.1 Q 138.9 386.8, 140.1 386.8 Q 140.8 386.8, 141.3 386.7 Q 141.7 386.5, 142.3 386.3 L 142.7 387.3 Q 141.5 388.0, 140.0 388.0 Q 138.1 388.0, 137.1 386.9 Q 136.1 385.7, 136.1 383.8 " fill="#000000"/>
<path class="legend" d="M 143.3 383.8 Q 143.3 381.7, 144.3 380.6 Q 145.3 379.5, 147.1 379.5 Q 148.9 379.5, 149.7 380.6 Q 150.6 381.7, 150.6 383.7 L 150.6 384.0 L 144.8 384.0 Q 144.8 385.4, 145.5 386.1 Q 146.1 386.8, 147.3 386.8 Q 147.9 386.8, 148.5 386.7 Q 149.1 386.5, 149.8 386.2 L 150.2 387.2 Q 149.4 387.6, 148.7 387.8 Q 147.9 388.0, 147.2 388.0 Q 145.3 388.0, 144.3 386.9 Q 143.3 385.8, 143.3 383.8 M 147.1 380.7 Q 146.2 380.7, 145.6 381.2 Q 145.1 381.8, 144.9 382.8 L 149.0 382.8 Q 148.9 381.7, 148.4 381.2 Q 148.0 380.7, 147.1 380.7 " fill="#000000"/>
<path class="legend" d="M 155.5 379.5 Q 156.8 379.5, 157.5 380.3 Q 158.2 381.0, 158.2 382.4 L 158.2 387.9 L 156.7 387.9 L 156.7 382.6 Q 156.7 381.6, 156.3 381.2 Q 155.9 380.7, 155.1 380.7 Q 154.3 380.7, 153.7 381.1 Q 153.1 381.4, 152.7 382.0 L 152.7 387.9 L 151.2 387.9 L 151.2 379.7 L 152.4 379.7 L 152.6 380.8 Q 153.7 379.5, 155.5 379.5 " fill="#000000"/>
<path class="legend" d="M 159.4 380.8 L 159.4 379.7 L 161.0 379.7 L 161.2 377.3 L 162.3 377.3 L 162.3 379.7 L 164.8 379.7 L 164.8 380.8 L 162.3 380.8 L 162.3 385.4 Q 162.3 386.8, 163.5 386.8 Q 164.0 386.8, 164.7 386.6 L 165.0 387.6 Q 164.1 388.0, 163.3 388.0 Q 162.2 388.0, 161.5 387.3 Q 160.8 386.7, 160.8 385.4 L 160.8 380.8 L 159.4 380.8 " fill="#000000"/>
<path class="legend" d="M 173.5 388.7 L 173.5 390.0 L 165.4 390.0 L 165.4 388.7 L 173.5 388.7 " fill="#000000"/>
<path class="legend" d="M 181.0 375.7 L 181.0 387.9 L 179.8 387.9 L 179.6 386.9 Q 178.7 388.0, 177.1 388.0 Q 175.4 388.0, 174.5 387.0 Q 173.5 385.9, 173.5 383.9 Q 173.5 381.8, 174.7 380.7 Q 175.8 379.5, 177.8 379.5 Q 178.6 379.5, 179.5 379.7 L 179.5 375.7 L 181.0 375.7 M 177.2 386.8 Q 178.1 386.8, 178.7 386.4 Q 179.3 385.9, 179.5 385.1 L 179.5 380.9 Q 178.7 380.7, 177.8 380.7 Q 176.5 380.7, 175.8 381.6 Q 175.1 382.4, 175.1 383.9 Q 175.1 385.3, 175.6 386.1 Q 176.2 386.8, 177.2 386.8 " fill="#000000"/>
<path class="legend" d="M 182.3 376.6 L 183.8 376.6 L 183.8 378.0 L 182.3 378.0 L 182.3 376.6 M 182.3 379.7 L 183.8 379.7 L 183.8 387.9 L 182.3 387.9 L 182.3 379.7 " fill="#000000"/>
<path class="legend" d="M 185.6 386.2 Q 186.3 386.5, 186.8 386.6 Q 187.4 386.8, 187.9 386.8 Q 188.6 386.8, 189.0 386.5 Q 189.5 386.2, 189.5 385.6 Q 189.5 385.2, 189.2 385.0 Q 189.0 384.8, 188.7 384.6 Q 188.5 384.5, 187.8 384.3 Q 187.7 384.3, 186.9 384.0 Q 186.2 383.7, 185.8 383.2 Q 185.4 382.7, 185.4 381.9 Q 185.4 380.9, 186.2 380.2 Q 186.9 379.5, 188.4 379.5 Q 189.1 379.5, 189.6 379.7 Q 190.2 379.8, 190.8 380.0 L 190.4 381.2 Q 189.8 381.0, 189.4 380.9 Q 188.9 380.8, 188.4 380.8 Q 187.7 380.8, 187.3 381.1 Q 186.9 381.4, 186.9 381.8 Q 186.9 382.3, 187.2 382.5 Q 187.5 382.7, 188.2 383.0 Q 188.4 383.0, 188.5 383.1 L 188.9 383.2 Q 189.6 383.4, 190.0 383.7 Q 190.4 383.9, 190.7 384.4 Q 191.0 384.8, 191.0 385.6 Q 191.0 386.7, 190.1 387.4 Q 189.3 388.0, 187.9 388.0 Q 187.1 388.0, 186.5 387.9 Q 185.8 387.7, 185.1 387.4 L 185.6 386.2 " fill="#000000"/>
<path class="legend" d="M 191.8 380.8 L 191.8 379.7 L 193.4 379.7 L 193.6 377.3 L 194.7 377.3 L 194.7 379.7 L 197.3 379.7 L 197.3 380.8 L 194.7 380.8 L 194.7 385.4 Q 194.7 386.8, 195.9 386.8 Q 196.4 386.8, 197.1 386.6 L 197.4 387.6 Q 196.5 388.0, 195.7 388.0 Q 194.6 388.0, 193.9 387.3 Q 193.2 386.7, 193.2 385.4 L 193.2 380.8 L 191.8 380.8 " fill="#000000"/>
<path class="legend" d="" fill="#000000"/>
<path class="legend" d="M 203.1 380.9 L 210.4 380.9 L 210.4 382.1 L 203.1 382.1 L 203.1 380.9 M 203.1 384.4 L 210.4 384.4 L 210.4 385.5 L 203.1 385.5 L 203.1 384.4 " fill="#000000"/>
<path class="legend" d="" fill="#000000"/>
<path class="legend" d="M 221.4 388.0 Q 219.3 388.0, 218.3 386.5 Q 217.2 384.9, 217.2 382.2 Q 217.2 379.5, 218.3 378.0 Q 219.3 376.4, 221.4 376.4 Q 223.5 376.4, 224.5 378.0 Q 225.5 379.5, 225.5 382.2 Q 225.5 384.9, 224.5 386.5 Q 223.5 388.0, 221.4 388.0 M 221.4 386.7 Q 222.6 386.7, 223.3 385.6 Q 223.9 384.4, 223.9 382.2 Q 223.9 380.0, 223.3 378.8 Q 222.6 377.7, 221.4 377.7 Q 220.2 377.7, 219.5 378.8 Q 218.8 380.0, 218.8 382.2 Q 218.8 384.4, 219.5 385.6 Q 220.2 386.7, 221.4 386.7 " fill="#000000"/>
<path class="legend" d="M 226.6 386.3 L 228.2 386.3 L 228.2 387.9 L 226.6 387.9 L 226.6 386.3 " fill="#000000"/>
<path class="legend" d="M 233.6 380.8 Q 234.6 380.8, 235.4 381.2 Q 236.2 381.7, 236.6 382.5 Q 237.1 383.2, 237.1 384.2 Q 237.1 385.3, 236.6 386.2 Q 236.1 387.1, 235.2 387.5 Q 234.4 388.0, 233.3 388.0 Q 231.2 388.0, 230.2 386.7 Q 229.2 385.3, 229.2 382.6 Q 229.2 379.6, 230.5 378.0 Q 231.7 376.4, 234.1 376.4 Q 234.8 376.4, 235.4 376.6 Q 236.0 376.8, 236.6 377.1 L 236.0 378.2 Q 235.2 377.7, 234.1 377.7 Q 232.5 377.7, 231.7 378.8 Q 230.9 379.8, 230.8 381.9 Q 231.4 381.4, 232.1 381.1 Q 232.9 380.8, 233.6 380.8 M 233.3 386.7 Q 233.9 386.7, 234.4 386.4 Q 234.9 386.1, 235.2 385.5 Q 235.5 384.9, 235.5 384.3 Q 235.5 383.2, 234.9 382.7 Q 234.3 382.1, 233.3 382.1 Q 232.7 382.1, 232.0 382.4 Q 231.3 382.7, 230.8 383.1 Q 230.9 385.0, 231.5 385.9 Q 232.1 386.7, 233.3 386.7 " fill="#000000"/>
<path class="legend" d="M 241.7 376.4 Q 243.8 376.4, 244.8 377.8 Q 245.8 379.2, 245.8 381.9 Q 245.8 384.9, 244.5 386.5 Q 243.3 388.0, 240.9 388.0 Q 240.2 388.0, 239.6 387.9 Q 239.0 387.7, 238.4 387.4 L 239.0 386.3 Q 239.8 386.7, 240.9 386.7 Q 242.5 386.7, 243.3 385.7 Q 244.1 384.7, 244.2 382.5 Q 243.6 383.1, 242.9 383.4 Q 242.1 383.6, 241.4 383.6 Q 240.4 383.6, 239.6 383.2 Q 238.8 382.8, 238.4 382.0 Q 237.9 381.2, 237.9 380.2 Q 237.9 379.1, 238.4 378.3 Q 238.9 377.4, 239.8 376.9 Q 240.6 376.4, 241.7 376.4 M 239.5 380.2 Q 239.5 381.2, 240.1 381.8 Q 240.7 382.4, 241.7 382.4 Q 242.3 382.4, 243.0 382.1 Q 243.7 381.8, 244.2 381.3 Q 244.1 379.4, 243.5 378.6 Q 242.9 377.7, 241.7 377.7 Q 241.1 377.7, 240.6 378.1 Q 240.1 378.4, 239.8 378.9 Q 239.5 379.5, 239.5 380.2 " fill="#000000"/>
<path class="legend" d="M 252.7 381.9 Q 253.7 382.3, 254.3 383.0 Q 254.9 383.7, 254.9 384.8 Q 254.9 385.7, 254.4 386.5 Q 253.9 387.2, 253.0 387.6 Q 252.1 388.0, 250.9 388.0 Q 249.1 388.0, 248.0 387.2 Q 246.9 386.3, 246.9 384.8 Q 246.9 383.9, 247.4 383.2 Q 247.8 382.5, 248.8 381.9 Q 248.1 381.5, 247.7 380.9 Q 247.3 380.3, 247.3 379.3 Q 247.3 378.0, 248.3 377.2 Q 249.2 376.4, 250.9 376.4 Q 252.5 376.4, 253.5 377.2 Q 254.5 378.0, 254.5 379.3 Q 254.5 380.2, 254.0 380.8 Q 253.6 381.4, 252.7 381.9 M 250.9 377.6 Q 249.9 377.6, 249.4 378.1 Q 248.9 378.5, 248.9 379.3 Q 248.9 379.9, 249.3 380.3 Q 249.6 380.7, 250.1 380.9 Q 250.6 381.2, 251.6 381.5 Q 252.3 381.0, 252.6 380.5 Q 252.9 380.0, 252.9 379.3 Q 252.9 378.5, 252.3 378.1 Q 251.8 377.6, 250.9 377.6 M 250.9 386.8 Q 252.0 386.8, 252.6 386.3 Q 253.3 385.7, 253.3 384.8 Q 253.3 384.2, 252.9 383.8 Q 252.6 383.4, 252.1 383.2 Q 251.6 382.9, 250.7 382.7 L 250.0 382.4 Q 249.2 382.9, 248.8 383.5 Q 248.5 384.0, 248.5 384.8 Q 248.5 385.7, 249.2 386.3 Q 249.8 386.8, 250.9 386.8 " fill="#000000"/>
<path class="legend" d="M 261.7 381.9 Q 262.7 382.3, 263.3 383.0 Q 263.9 383.7, 263.9 384.8 Q 263.9 385.7, 263.4 386.5 Q 262.9 387.2, 262.0 387.6 Q 261.1 388.0, 260.0 388.0 Q 258.1 388.0, 257.0 387.2 Q 255.9 386.3, 255.9 384.8 Q 255.9 383.9, 256.4 383.2 Q 256.9 382.5, 257.8 381.9 Q 257.1 381.5, 256.7 380.9 Q 256.3 380.3, 256.3 379.3 Q 256.3 378.0, 257.3 377.2 Q 258.2 376.4, 259.9 376.4 Q 261.5 376.4, 262.5 377.2 Q 263.5 378.0, 263.5 379.3 Q 263.5 380.2, 263.0 380.8 Q 262.6 381.4, 261.7 381.9 M 259.9 377.6 Q 258.9 377.6, 258.4 378.1 Q 257.9 378.5, 257.9 379.3 Q 257.9 379.9, 258.3 380.3 Q 258.6 380.7, 259.1 380.9 Q 259.6 381.2, 260.6 381.5 Q 261.3 381.0, 261.6 380.5 Q 261.9 380.0, 261.9 379.3 Q 261.9 378.5, 261.3 378.1 Q 260.8 377.6, 259.9 377.6 M 260.0 386.8 Q 261.0 386.8, 261.7 386.3 Q 262.3 385.7, 262.3 384.8 Q 262.3 384.2, 262.0 383.8 Q 261.6 383.4, 261.1 383.2 Q 260.6 382.9, 259.7 382.7 L 259.0 382.4 Q 258.2 382.9, 257.8 383.5 Q 257.5 384.0, 257.5 384.8 Q 257.5 385.7, 258.2 386.3 Q 258.8 386.8, 260.0 386.8 " fill="#000000"/>
<path class="bond-0 atom-0 atom-1" d="M 737.0,105.3 L 718.0,130.4" style="fill:none;fill-rule:evenodd;stroke:#000000;stroke-width:2.0px;stroke-linecap:butt;stroke-linejoin:miter;stroke-opacity:1"/>
<path class="bond-0 atom-0 atom-1" d="M 732.0,101.5 L 712.9,126.6" style="fill:none;fill-rule:evenodd;stroke:#000000;stroke-width:2.0px;stroke-linecap:butt;stroke-linejoin:miter;stroke-opacity:1"/>
<path class="bond-1 atom-1 atom-2" d="M 715.5,128.5 L 684.2,124.6" style="fill:none;fill-rule:evenodd;stroke:#000000;stroke-width:2.0px;stroke-linecap:butt;stroke-linejoin:miter;stroke-opacity:1"/>
<path class="bond-2 atom-2 atom-3" d="M 684.2,124.6 L 665.2,149.7" style="fill:none;fill-rule:evenodd;stroke:#000000;stroke-width:2.0px;stroke-linecap:butt;stroke-linejoin:miter;stroke-opacity:1"/>
<path class="bond-3 atom-3 atom-4" d="M 665.2,149.7 L 651.8,148.0" style="fill:none;fill-rule:evenodd;stroke:#000000;stroke-width:2.0px;stroke-linecap:butt;stroke-linejoin:miter;stroke-opacity:1"/>
<path class="bond-3 atom-3 atom-4" d="M 651.8,148.0 L 638.4,146.4" style="fill:none;fill-rule:evenodd;stroke:#0000FF;stroke-width:2.0px;stroke-linecap:butt;stroke-linejoin:miter;stroke-opacity:1"/>
<path class="bond-4 atom-4 atom-5" d="M 630.9,140.3 L 624.8,129.3" style="fill:none;fill-rule:evenodd;stroke:#0000FF;stroke-width:2.0px;stroke-linecap:butt;stroke-linejoin:miter;stroke-opacity:1"/>
<path class="bond-4 atom-4 atom-5" d="M 624.8,129.3 L 618.7,118.2" style="fill:none;fill-rule:evenodd;stroke:#000000;stroke-width:2.0px;stroke-linecap:butt;stroke-linejoin:miter;stroke-opacity:1"/>
<path class="bond-5 atom-5 atom-6" d="M 618.7,118.2 L 605.5,120.8" style="fill:none;fill-rule:evenodd;stroke:#000000;stroke-width:2.0px;stroke-linecap:butt;stroke-linejoin:miter;stroke-opacity:1"/>
<path class="bond-5 atom-5 atom-6" d="M 605.5,120.8 L 592.2,123.3" style="fill:none;fill-rule:evenodd;stroke:#0000FF;stroke-width:2.0px;stroke-linecap:butt;stroke-linejoin:miter;stroke-opacity:1"/>
<path class="bond-5 atom-5 atom-6" d="M 616.0,125.2 L 606.7,127.0" style="fill:none;fill-rule:evenodd;stroke:#000000;stroke-width:2.0px;stroke-linecap:butt;stroke-linejoin:miter;stroke-opacity:1"/>
<path class="bond-5 atom-5 atom-6" d="M 606.7,127.0 L 597.4,128.7" style="fill:none;fill-rule:evenodd;stroke:#0000FF;stroke-width:2.0px;stroke-linecap:butt;stroke-linejoin:miter;stroke-opacity:1"/>
<path class="bond-6 atom-6 atom-7" d="M 587.1,129.7 L 585.5,142.5" style="fill:none;fill-rule:evenodd;stroke:#0000FF;stroke-width:2.0px;stroke-linecap:butt;stroke-linejoin:miter;stroke-opacity:1"/>
<path class="bond-6 atom-6 atom-7" d="M 585.5,142.5 L 583.9,155.4" style="fill:none;fill-rule:evenodd;stroke:#000000;stroke-width:2.0px;stroke-linecap:butt;stroke-linejoin:miter;stroke-opacity:1"/>
<path class="bond-7 atom-7 atom-8" d="M 583.9,155.4 L 558.1,173.4" style="fill:none;fill-rule:evenodd;stroke:#000000;stroke-width:2.0px;stroke-linecap:butt;stroke-linejoin:miter;stroke-opacity:1"/>
<path class="bond-7 atom-7 atom-8" d="M 583.6,163.3 L 565.5,175.9" style="fill:none;fill-rule:evenodd;stroke:#000000;stroke-width:2.0px;stroke-linecap:butt;stroke-linejoin:miter;stroke-opacity:1"/>
<path class="bond-8 atom-8 atom-9" d="M 558.1,173.4 L 546.4,167.9" style="fill:none;fill-rule:evenodd;stroke:#000000;stroke-width:2.0px;stroke-linecap:butt;stroke-linejoin:miter;stroke-opacity:1"/>
<path class="bond-8 atom-8 atom-9" d="M 546.4,167.9 L 534.7,162.4" style="fill:none;fill-rule:evenodd;stroke:#FF0000;stroke-width:2.0px;stroke-linecap:butt;stroke-linejoin:miter;stroke-opacity:1"/>
<path class="bond-9 atom-9 atom-10" d="M 524.4,163.6 L 514.1,170.8" style="fill:none;fill-rule:evenodd;stroke:#FF0000;stroke-width:2.0px;stroke-linecap:butt;stroke-linejoin:miter;stroke-opacity:1"/>
<path class="bond-9 atom-9 atom-10" d="M 514.1,170.8 L 503.7,178.0" style="fill:none;fill-rule:evenodd;stroke:#000000;stroke-width:2.0px;stroke-linecap:butt;stroke-linejoin:miter;stroke-opacity:1"/>
<path class="bond-10 atom-10 atom-11" d="M 503.7,178.0 L 475.2,164.7" style="fill:none;fill-rule:evenodd;stroke:#000000;stroke-width:2.0px;stroke-linecap:butt;stroke-linejoin:miter;stroke-opacity:1"/>
<path class="bond-11 atom-11 atom-12" d="M 475.2,164.7 L 472.5,133.3" style="fill:none;fill-rule:evenodd;stroke:#000000;stroke-width:2.0px;stroke-linecap:butt;stroke-linejoin:miter;stroke-opacity:1"/>
<path class="bond-11 atom-11 atom-12" d="M 468.5,160.5 L 466.7,138.5" style="fill:none;fill-rule:evenodd;stroke:#000000;stroke-width:2.0px;stroke-linecap:butt;stroke-linejoin:miter;stroke-opacity:1"/>
<path class="bond-12 atom-12 atom-13" d="M 472.5,133.3 L 444.0,119.9" style="fill:none;fill-rule:evenodd;stroke:#000000;stroke-width:2.0px;stroke-linecap:butt;stroke-linejoin:miter;stroke-opacity:1"/>
<path class="bond-13 atom-13 atom-14" d="M 444.0,119.9 L 418.2,137.9" style="fill:none;fill-rule:evenodd;stroke:#000000;stroke-width:2.0px;stroke-linecap:butt;stroke-linejoin:miter;stroke-opacity:1"/>
<path class="bond-13 atom-13 atom-14" d="M 443.7,127.8 L 425.7,140.4" style="fill:none;fill-rule:evenodd;stroke:#000000;stroke-width:2.0px;stroke-linecap:butt;stroke-linejoin:miter;stroke-opacity:1"/>
<path class="bond-14 atom-14 atom-15" d="M 418.2,137.9 L 420.9,169.3" style="fill:none;fill-rule:evenodd;stroke:#000000;stroke-width:2.0px;stroke-linecap:butt;stroke-linejoin:miter;stroke-opacity:1"/>
<path class="bond-15 atom-15 atom-16" d="M 420.9,169.3 L 449.4,182.7" style="fill:none;fill-rule:evenodd;stroke:#000000;stroke-width:2.0px;stroke-linecap:butt;stroke-linejoin:miter;stroke-opacity:1"/>
<path class="bond-15 atom-15 atom-16" d="M 427.8,165.6 L 447.8,174.9" style="fill:none;fill-rule:evenodd;stroke:#000000;stroke-width:2.0px;stroke-linecap:butt;stroke-linejoin:miter;stroke-opacity:1"/>
<path class="bond-16 atom-8 atom-17" d="M 558.1,173.4 L 559.2,186.4" style="fill:none;fill-rule:evenodd;stroke:#000000;stroke-width:2.0px;stroke-linecap:butt;stroke-linejoin:miter;stroke-opacity:1"/>
<path class="bond-16 atom-8 atom-17" d="M 559.2,186.4 L 560.3,199.3" style="fill:none;fill-rule:evenodd;stroke:#0000FF;stroke-width:2.0px;stroke-linecap:butt;stroke-linejoin:miter;stroke-opacity:1"/>
<path class="bond-17 atom-17 atom-18" d="M 565.2,206.9 L 577.2,212.5" style="fill:none;fill-rule:evenodd;stroke:#0000FF;stroke-width:2.0px;stroke-linecap:butt;stroke-linejoin:miter;stroke-opacity:1"/>
<path class="bond-17 atom-17 atom-18" d="M 577.2,212.5 L 589.2,218.2" style="fill:none;fill-rule:evenodd;stroke:#000000;stroke-width:2.0px;stroke-linecap:butt;stroke-linejoin:miter;stroke-opacity:1"/>
<path class="bond-17 atom-17 atom-18" d="M 571.4,202.9 L 579.9,206.8" style="fill:none;fill-rule:evenodd;stroke:#0000FF;stroke-width:2.0px;stroke-linecap:butt;stroke-linejoin:miter;stroke-opacity:1"/>
<path class="bond-17 atom-17 atom-18" d="M 579.9,206.8 L 588.3,210.8" style="fill:none;fill-rule:evenodd;stroke:#000000;stroke-width:2.0px;stroke-linecap:butt;stroke-linejoin:miter;stroke-opacity:1"/>
<path class="bond-18 atom-18 atom-19" d="M 589.2,218.2 L 590.3,231.1" style="fill:none;fill-rule:evenodd;stroke:#000000;stroke-width:2.0px;stroke-linecap:butt;stroke-linejoin:miter;stroke-opacity:1"/>
<path class="bond-18 atom-18 atom-19" d="M 590.3,231.1 L 591.4,244.1" style="fill:none;fill-rule:evenodd;stroke:#0000FF;stroke-width:2.0px;stroke-linecap:butt;stroke-linejoin:miter;stroke-opacity:1"/>
<path class="bond-19 atom-18 atom-20" d="M 589.2,218.2 L 600.0,210.7" style="fill:none;fill-rule:evenodd;stroke:#000000;stroke-width:2.0px;stroke-linecap:butt;stroke-linejoin:miter;stroke-opacity:1"/>
<path class="bond-19 atom-18 atom-20" d="M 600.0,210.7 L 610.7,203.3" style="fill:none;fill-rule:evenodd;stroke:#0000FF;stroke-width:2.0px;stroke-linecap:butt;stroke-linejoin:miter;stroke-opacity:1"/>
<path class="bond-20 atom-20 atom-21" d="M 614.6,194.7 L 613.5,181.7" style="fill:none;fill-rule:evenodd;stroke:#0000FF;stroke-width:2.0px;stroke-linecap:butt;stroke-linejoin:miter;stroke-opacity:1"/>
<path class="bond-20 atom-20 atom-21" d="M 613.5,181.7 L 612.4,168.8" style="fill:none;fill-rule:evenodd;stroke:#000000;stroke-width:2.0px;stroke-linecap:butt;stroke-linejoin:miter;stroke-opacity:1"/>
<path class="bond-20 atom-20 atom-21" d="M 608.0,191.3 L 607.2,182.3" style="fill:none;fill-rule:evenodd;stroke:#0000FF;stroke-width:2.0px;stroke-linecap:butt;stroke-linejoin:miter;stroke-opacity:1"/>
<path class="bond-20 atom-20 atom-21" d="M 607.2,182.3 L 606.5,173.2" style="fill:none;fill-rule:evenodd;stroke:#000000;stroke-width:2.0px;stroke-linecap:butt;stroke-linejoin:miter;stroke-opacity:1"/>
<path class="bond-21 atom-1 atom-22" d="M 715.5,128.5 L 725.4,152.1" style="fill:none;fill-rule:evenodd;stroke:#000000;stroke-width:2.0px;stroke-linecap:butt;stroke-linejoin:miter;stroke-opacity:1"/>
<path class="bond-22 atom-22 atom-23" d="M 732.5,155.5 L 756.7,145.3" style="fill:none;fill-rule:evenodd;stroke:#000000;stroke-width:2.0px;stroke-linecap:butt;stroke-linejoin:miter;stroke-opacity:1"/>
<path class="bond-23 atom-23 atom-24" d="M 756.7,145.3 L 781.8,164.3" style="fill:none;fill-rule:evenodd;stroke:#000000;stroke-width:2.0px;stroke-linecap:butt;stroke-linejoin:miter;stroke-opacity:1"/>
<path class="bond-24 atom-22 atom-25" d="M 722.9,159.6 L 698.7,169.8" style="fill:none;fill-rule:evenodd;stroke:#000000;stroke-width:2.0px;stroke-linecap:butt;stroke-linejoin:miter;stroke-opacity:1"/>
<path class="bond-25 atom-25 atom-26" d="M 698.7,169.8 L 694.8,201.0" style="fill:none;fill-rule:evenodd;stroke:#000000;stroke-width:2.0px;stroke-linecap:butt;stroke-linejoin:miter;stroke-opacity:1"/>
<path class="bond-26 atom-22 atom-27" d="M 730.1,163.3 L 739.9,186.6" style="fill:none;fill-rule:evenodd;stroke:#000000;stroke-width:2.0px;stroke-linecap:butt;stroke-linejoin:miter;stroke-opacity:1"/>
<path class="bond-27 atom-27 atom-28" d="M 739.9,186.6 L 720.9,211.7" style="fill:none;fill-rule:evenodd;stroke:#000000;stroke-width:2.0px;stroke-linecap:butt;stroke-linejoin:miter;stroke-opacity:1"/>
<path class="bond-28 atom-21 atom-4" d="M 612.4,168.8 L 621.0,159.7" style="fill:none;fill-rule:evenodd;stroke:#000000;stroke-width:2.0px;stroke-linecap:butt;stroke-linejoin:miter;stroke-opacity:1"/>
<path class="bond-28 atom-21 atom-4" d="M 621.0,159.7 L 629.5,150.5" style="fill:none;fill-rule:evenodd;stroke:#0000FF;stroke-width:2.0px;stroke-linecap:butt;stroke-linejoin:miter;stroke-opacity:1"/>
<path class="bond-29 atom-21 atom-7" d="M 612.4,168.8 L 583.9,155.4" style="fill:none;fill-rule:evenodd;stroke:#000000;stroke-width:2.0px;stroke-linecap:butt;stroke-linejoin:miter;stroke-opacity:1"/>
<path class="bond-30 atom-16 atom-11" d="M 449.4,182.7 L 475.2,164.7" style="fill:none;fill-rule:evenodd;stroke:#000000;stroke-width:2.0px;stroke-linecap:butt;stroke-linejoin:miter;stroke-opacity:1"/>
<path class="atom-4" d="M 632.0 141.4 L 634.9 146.1 Q 635.2 146.5, 635.7 147.4 Q 636.1 148.2, 636.1 148.3 L 636.1 141.4 L 637.3 141.4 L 637.3 150.3 L 636.1 150.3 L 633.0 145.1 Q 632.6 144.5, 632.2 143.8 Q 631.8 143.1, 631.7 142.9 L 631.7 150.3 L 630.6 150.3 L 630.6 141.4 L 632.0 141.4 " fill="#0000FF"/>
<path class="atom-6" d="M 585.8 119.7 L 588.8 124.4 Q 589.1 124.9, 589.5 125.7 Q 590.0 126.6, 590.0 126.6 L 590.0 119.7 L 591.2 119.7 L 591.2 128.6 L 590.0 128.6 L 586.8 123.5 Q 586.5 122.9, 586.1 122.2 Q 585.7 121.5, 585.6 121.3 L 585.6 128.6 L 584.4 128.6 L 584.4 119.7 L 585.8 119.7 " fill="#0000FF"/>
<path class="atom-9" d="M 525.5 160.1 Q 525.5 157.9, 526.5 156.7 Q 527.6 155.5, 529.6 155.5 Q 531.5 155.5, 532.6 156.7 Q 533.6 157.9, 533.6 160.1 Q 533.6 162.2, 532.6 163.5 Q 531.5 164.7, 529.6 164.7 Q 527.6 164.7, 526.5 163.5 Q 525.5 162.2, 525.5 160.1 M 529.6 163.7 Q 530.9 163.7, 531.6 162.8 Q 532.4 161.8, 532.4 160.1 Q 532.4 158.3, 531.6 157.4 Q 530.9 156.5, 529.6 156.5 Q 528.2 156.5, 527.4 157.4 Q 526.7 158.3, 526.7 160.1 Q 526.7 161.9, 527.4 162.8 Q 528.2 163.7, 529.6 163.7 " fill="#FF0000"/>
<path class="atom-17" d="M 558.8 200.3 L 561.7 205.1 Q 562.0 205.5, 562.4 206.4 Q 562.9 207.2, 562.9 207.3 L 562.9 200.3 L 564.1 200.3 L 564.1 209.3 L 562.9 209.3 L 559.8 204.1 Q 559.4 203.5, 559.0 202.8 Q 558.6 202.1, 558.5 201.9 L 558.5 209.3 L 557.3 209.3 L 557.3 200.3 L 558.8 200.3 " fill="#0000FF"/>
<path class="atom-19" d="M 589.9 245.1 L 592.9 249.8 Q 593.1 250.3, 593.6 251.1 Q 594.1 252.0, 594.1 252.0 L 594.1 245.1 L 595.3 245.1 L 595.3 254.0 L 594.1 254.0 L 590.9 248.8 Q 590.6 248.2, 590.2 247.5 Q 589.8 246.9, 589.7 246.6 L 589.7 254.0 L 588.5 254.0 L 588.5 245.1 L 589.9 245.1 " fill="#0000FF"/>
<path class="atom-19" d="M 596.3 245.1 L 597.5 245.1 L 597.5 248.9 L 602.1 248.9 L 602.1 245.1 L 603.3 245.1 L 603.3 254.0 L 602.1 254.0 L 602.1 249.9 L 597.5 249.9 L 597.5 254.0 L 596.3 254.0 L 596.3 245.1 " fill="#0000FF"/>
<path class="atom-19" d="M 604.4 253.7 Q 604.6 253.1, 605.1 252.8 Q 605.6 252.5, 606.4 252.5 Q 607.3 252.5, 607.8 253.0 Q 608.3 253.5, 608.3 254.3 Q 608.3 255.2, 607.6 256.0 Q 607.0 256.8, 605.6 257.8 L 608.4 257.8 L 608.4 258.5 L 604.4 258.5 L 604.4 257.9 Q 605.5 257.1, 606.1 256.6 Q 606.8 256.0, 607.1 255.4 Q 607.4 254.9, 607.4 254.4 Q 607.4 253.8, 607.1 253.5 Q 606.9 253.2, 606.4 253.2 Q 605.9 253.2, 605.6 253.4 Q 605.3 253.6, 605.0 254.0 L 604.4 253.7 " fill="#0000FF"/>
<path class="atom-20" d="M 613.1 195.7 L 616.0 200.4 Q 616.3 200.9, 616.8 201.7 Q 617.3 202.6, 617.3 202.6 L 617.3 195.7 L 618.5 195.7 L 618.5 204.6 L 617.2 204.6 L 614.1 199.5 Q 613.7 198.9, 613.3 198.2 Q 613.0 197.5, 612.9 197.3 L 612.9 204.6 L 611.7 204.6 L 611.7 195.7 L 613.1 195.7 " fill="#0000FF"/>
<path class="atom-22" d="M 724.3 160.6 Q 724.4 160.7, 724.8 160.8 Q 725.2 161.0, 725.7 161.1 Q 726.2 161.2, 726.6 161.2 Q 727.4 161.2, 727.9 160.8 Q 728.4 160.4, 728.4 159.7 Q 728.4 159.2, 728.2 158.9 Q 727.9 158.6, 727.6 158.4 Q 727.2 158.3, 726.6 158.1 Q 725.8 157.8, 725.3 157.6 Q 724.8 157.4, 724.5 156.9 Q 724.1 156.4, 724.1 155.6 Q 724.1 154.5, 724.9 153.8 Q 725.7 153.1, 727.2 153.1 Q 728.2 153.1, 729.4 153.6 L 729.1 154.6 Q 728.0 154.1, 727.2 154.1 Q 726.4 154.1, 725.9 154.5 Q 725.4 154.9, 725.4 155.5 Q 725.4 156.0, 725.6 156.2 Q 725.9 156.5, 726.3 156.7 Q 726.6 156.9, 727.2 157.1 Q 728.0 157.3, 728.5 157.6 Q 729.0 157.8, 729.3 158.3 Q 729.7 158.8, 729.7 159.7 Q 729.7 160.9, 728.8 161.6 Q 728.0 162.3, 726.7 162.3 Q 725.9 162.3, 725.3 162.1 Q 724.7 161.9, 724.0 161.6 L 724.3 160.6 " fill="#000000"/>
<path class="atom-22" d="M 730.3 153.1 L 731.4 153.1 L 731.4 154.2 L 730.3 154.2 L 730.3 153.1 M 730.3 155.5 L 731.4 155.5 L 731.4 162.0 L 730.3 162.0 L 730.3 155.5 " fill="#000000"/>
<path class="legend" d="M 567.7 365.4 L 567.8 366.5 Q 568.7 365.3, 570.1 365.3 Q 570.6 365.3, 571.2 365.4 L 570.9 366.8 Q 570.2 366.6, 569.9 366.6 Q 569.2 366.6, 568.7 366.9 Q 568.3 367.1, 568.0 367.8 L 568.0 373.6 L 566.5 373.6 L 566.5 365.4 L 567.7 365.4 " fill="#000000"/>
<path class="legend" d="M 571.4 369.5 Q 571.4 367.5, 572.4 366.4 Q 573.4 365.3, 575.3 365.3 Q 577.1 365.3, 577.9 366.4 Q 578.7 367.4, 578.7 369.5 L 578.7 369.7 L 573.0 369.7 Q 573.0 371.1, 573.6 371.8 Q 574.2 372.6, 575.4 372.6 Q 576.0 372.6, 576.6 372.4 Q 577.2 372.3, 577.9 372.0 L 578.4 373.0 Q 577.6 373.4, 576.8 373.6 Q 576.1 373.8, 575.3 373.8 Q 573.5 373.8, 572.4 372.6 Q 571.4 371.5, 571.4 369.5 M 575.3 366.4 Q 574.3 366.4, 573.8 367.0 Q 573.2 367.5, 573.0 368.6 L 577.1 368.6 Q 577.0 367.5, 576.6 367.0 Q 576.1 366.4, 575.3 366.4 " fill="#000000"/>
<path class="legend" d="M 579.3 371.4 Q 579.3 370.1, 580.4 369.4 Q 581.4 368.7, 583.4 368.7 L 584.6 368.7 L 584.6 368.3 Q 584.6 367.3, 584.1 366.9 Q 583.7 366.4, 582.7 366.4 Q 582.0 366.4, 581.5 366.6 Q 581.0 366.7, 580.2 367.0 L 579.8 366.0 Q 581.3 365.3, 582.7 365.3 Q 584.5 365.3, 585.3 366.0 Q 586.1 366.8, 586.1 368.4 L 586.1 373.6 L 584.9 373.6 Q 584.9 373.6, 584.8 373.3 Q 584.8 373.1, 584.7 372.7 Q 583.5 373.8, 582.0 373.8 Q 580.8 373.8, 580.0 373.2 Q 579.3 372.5, 579.3 371.4 M 580.8 371.4 Q 580.8 372.0, 581.2 372.3 Q 581.6 372.6, 582.3 372.6 Q 582.9 372.6, 583.5 372.4 Q 584.2 372.0, 584.6 371.5 L 584.6 369.8 L 583.4 369.8 Q 582.1 369.8, 581.5 370.2 Q 580.8 370.6, 580.8 371.4 " fill="#000000"/>
<path class="legend" d="M 587.3 369.5 Q 587.3 367.5, 588.3 366.4 Q 589.3 365.3, 591.2 365.3 Q 593.1 365.3, 594.1 366.6 L 593.1 367.4 Q 592.7 366.9, 592.2 366.7 Q 591.8 366.4, 591.2 366.4 Q 590.1 366.4, 589.5 367.2 Q 588.8 368.0, 588.8 369.5 Q 588.8 371.0, 589.5 371.8 Q 590.1 372.6, 591.3 372.6 Q 592.0 372.6, 592.5 372.4 Q 592.9 372.3, 593.5 372.0 L 593.9 373.0 Q 592.7 373.7, 591.2 373.7 Q 589.3 373.7, 588.3 372.6 Q 587.3 371.5, 587.3 369.5 " fill="#000000"/>
<path class="legend" d="M 594.5 366.6 L 594.5 365.4 L 596.0 365.4 L 596.3 363.0 L 597.4 363.0 L 597.4 365.4 L 599.9 365.4 L 599.9 366.6 L 597.4 366.6 L 597.4 371.1 Q 597.4 372.5, 598.6 372.5 Q 599.1 372.5, 599.8 372.3 L 600.1 373.4 Q 599.2 373.7, 598.3 373.7 Q 597.3 373.7, 596.6 373.1 Q 595.9 372.4, 595.9 371.2 L 595.9 366.6 L 594.5 366.6 " fill="#000000"/>
<path class="legend" d="M 608.6 374.4 L 608.6 375.7 L 600.5 375.7 L 600.5 374.4 L 608.6 374.4 " fill="#000000"/>
<path class="legend" d="M 614.1 367.7 Q 615.2 368.0, 615.7 368.7 Q 616.2 369.4, 616.2 370.5 Q 616.2 371.5, 615.8 372.2 Q 615.3 373.0, 614.4 373.4 Q 613.5 373.8, 612.4 373.8 Q 611.1 373.8, 610.2 373.4 Q 609.3 372.9, 608.6 372.1 L 609.5 371.2 Q 610.2 371.9, 610.8 372.2 Q 611.4 372.5, 612.4 372.5 Q 613.4 372.5, 614.0 372.0 Q 614.6 371.4, 614.6 370.5 Q 614.6 369.4, 614.0 368.8 Q 613.3 368.3, 611.9 368.3 L 611.1 368.3 L 611.1 367.2 L 611.8 367.2 Q 613.1 367.2, 613.7 366.6 Q 614.4 366.1, 614.4 365.1 Q 614.4 364.3, 613.8 363.9 Q 613.3 363.5, 612.4 363.5 Q 611.4 363.5, 610.8 363.8 Q 610.3 364.1, 609.8 365.0 L 608.7 364.4 Q 609.1 363.4, 610.1 362.8 Q 611.0 362.2, 612.4 362.2 Q 614.0 362.2, 615.0 363.0 Q 616.0 363.7, 616.0 365.1 Q 616.0 366.0, 615.5 366.6 Q 615.0 367.3, 614.1 367.7 " fill="#000000"/>
<path class="legend" d="M 621.6 366.6 Q 622.6 366.6, 623.4 367.0 Q 624.2 367.4, 624.6 368.2 Q 625.0 369.0, 625.0 370.0 Q 625.0 371.1, 624.5 372.0 Q 624.1 372.8, 623.2 373.3 Q 622.3 373.8, 621.2 373.8 Q 619.2 373.8, 618.2 372.4 Q 617.2 371.0, 617.2 368.3 Q 617.2 365.3, 618.4 363.7 Q 619.7 362.2, 622.1 362.2 Q 622.8 362.2, 623.4 362.3 Q 624.0 362.5, 624.6 362.8 L 624.0 363.9 Q 623.1 363.5, 622.1 363.5 Q 620.5 363.5, 619.7 364.5 Q 618.9 365.5, 618.8 367.6 Q 619.4 367.1, 620.1 366.8 Q 620.8 366.6, 621.6 366.6 M 621.2 372.4 Q 621.8 372.4, 622.3 372.1 Q 622.9 371.8, 623.1 371.2 Q 623.4 370.7, 623.4 370.0 Q 623.4 369.0, 622.9 368.4 Q 622.3 367.8, 621.3 367.8 Q 620.6 367.8, 619.9 368.1 Q 619.3 368.4, 618.8 368.9 Q 618.9 370.8, 619.4 371.6 Q 620.0 372.4, 621.2 372.4 " fill="#000000"/>
<path class="legend" d="M 625.9 364.4 Q 626.4 363.4, 627.4 362.8 Q 628.3 362.2, 629.7 362.2 Q 631.4 362.2, 632.4 363.1 Q 633.4 364.0, 633.4 365.7 Q 633.4 367.4, 632.1 368.9 Q 630.9 370.5, 628.3 372.4 L 633.5 372.4 L 633.5 373.6 L 625.9 373.6 L 625.9 372.6 Q 628.0 371.1, 629.3 369.9 Q 630.5 368.8, 631.1 367.8 Q 631.8 366.8, 631.8 365.8 Q 631.8 364.7, 631.2 364.1 Q 630.7 363.5, 629.7 363.5 Q 628.8 363.5, 628.2 363.8 Q 627.6 364.2, 627.2 365.0 L 625.9 364.4 " fill="#000000"/>
<path class="legend" d="M 536.1 383.8 Q 536.1 381.8, 537.1 380.7 Q 538.1 379.5, 540.0 379.5 Q 541.9 379.5, 542.9 380.9 L 541.9 381.6 Q 541.5 381.2, 541.1 380.9 Q 540.6 380.7, 540.0 380.7 Q 538.9 380.7, 538.3 381.5 Q 537.6 382.3, 537.6 383.8 Q 537.6 385.3, 538.3 386.1 Q 538.9 386.8, 540.1 386.8 Q 540.8 386.8, 541.3 386.7 Q 541.7 386.5, 542.3 386.3 L 542.7 387.3 Q 541.5 388.0, 540.0 388.0 Q 538.1 388.0, 537.1 386.9 Q 536.1 385.7, 536.1 383.8 " fill="#000000"/>
<path class="legend" d="M 543.3 383.8 Q 543.3 381.7, 544.3 380.6 Q 545.3 379.5, 547.1 379.5 Q 548.9 379.5, 549.7 380.6 Q 550.6 381.7, 550.6 383.7 L 550.6 384.0 L 544.8 384.0 Q 544.8 385.4, 545.5 386.1 Q 546.1 386.8, 547.3 386.8 Q 547.9 386.8, 548.5 386.7 Q 549.1 386.5, 549.8 386.2 L 550.2 387.2 Q 549.4 387.6, 548.7 387.8 Q 547.9 388.0, 547.2 388.0 Q 545.3 388.0, 544.3 386.9 Q 543.3 385.8, 543.3 383.8 M 547.1 380.7 Q 546.2 380.7, 545.6 381.2 Q 545.1 381.8, 544.9 382.8 L 549.0 382.8 Q 548.9 381.7, 548.4 381.2 Q 548.0 380.7, 547.1 380.7 " fill="#000000"/>
<path class="legend" d="M 555.5 379.5 Q 556.8 379.5, 557.5 380.3 Q 558.2 381.0, 558.2 382.4 L 558.2 387.9 L 556.7 387.9 L 556.7 382.6 Q 556.7 381.6, 556.3 381.2 Q 555.9 380.7, 555.1 380.7 Q 554.3 380.7, 553.7 381.1 Q 553.1 381.4, 552.7 382.0 L 552.7 387.9 L 551.2 387.9 L 551.2 379.7 L 552.4 379.7 L 552.6 380.8 Q 553.7 379.5, 555.5 379.5 " fill="#000000"/>
<path class="legend" d="M 559.4 380.8 L 559.4 379.7 L 561.0 379.7 L 561.2 377.3 L 562.3 377.3 L 562.3 379.7 L 564.8 379.7 L 564.8 380.8 L 562.3 380.8 L 562.3 385.4 Q 562.3 386.8, 563.5 386.8 Q 564.0 386.8, 564.7 386.6 L 565.0 387.6 Q 564.1 388.0, 563.3 388.0 Q 562.2 388.0, 561.5 387.3 Q 560.8 386.7, 560.8 385.4 L 560.8 380.8 L 559.4 380.8 " fill="#000000"/>
<path class="legend" d="M 573.5 388.7 L 573.5 390.0 L 565.4 390.0 L 565.4 388.7 L 573.5 388.7 " fill="#000000"/>
<path class="legend" d="M 581.0 375.7 L 581.0 387.9 L 579.8 387.9 L 579.6 386.9 Q 578.7 388.0, 577.1 388.0 Q 575.4 388.0, 574.5 387.0 Q 573.5 385.9, 573.5 383.9 Q 573.5 381.8, 574.7 380.7 Q 575.8 379.5, 577.8 379.5 Q 578.6 379.5, 579.5 379.7 L 579.5 375.7 L 581.0 375.7 M 577.2 386.8 Q 578.1 386.8, 578.7 386.4 Q 579.3 385.9, 579.5 385.1 L 579.5 380.9 Q 578.7 380.7, 577.8 380.7 Q 576.5 380.7, 575.8 381.6 Q 575.1 382.4, 575.1 383.9 Q 575.1 385.3, 575.6 386.1 Q 576.2 386.8, 577.2 386.8 " fill="#000000"/>
<path class="legend" d="M 582.3 376.6 L 583.8 376.6 L 583.8 378.0 L 582.3 378.0 L 582.3 376.6 M 582.3 379.7 L 583.8 379.7 L 583.8 387.9 L 582.3 387.9 L 582.3 379.7 " fill="#000000"/>
<path class="legend" d="M 585.6 386.2 Q 586.3 386.5, 586.8 386.6 Q 587.4 386.8, 587.9 386.8 Q 588.6 386.8, 589.0 386.5 Q 589.5 386.2, 589.5 385.6 Q 589.5 385.2, 589.2 385.0 Q 589.0 384.8, 588.7 384.6 Q 588.5 384.5, 587.8 384.3 Q 587.7 384.3, 586.9 384.0 Q 586.2 383.7, 585.8 383.2 Q 585.4 382.7, 585.4 381.9 Q 585.4 380.9, 586.2 380.2 Q 586.9 379.5, 588.4 379.5 Q 589.1 379.5, 589.6 379.7 Q 590.2 379.8, 590.8 380.0 L 590.4 381.2 Q 589.8 381.0, 589.4 380.9 Q 588.9 380.8, 588.4 380.8 Q 587.7 380.8, 587.3 381.1 Q 586.9 381.4, 586.9 381.8 Q 586.9 382.3, 587.2 382.5 Q 587.5 382.7, 588.2 383.0 Q 588.4 383.0, 588.5 383.1 L 588.9 383.2 Q 589.6 383.4, 590.0 383.7 Q 590.4 383.9, 590.7 384.4 Q 591.0 384.8, 591.0 385.6 Q 591.0 386.7, 590.1 387.4 Q 589.3 388.0, 587.9 388.0 Q 587.1 388.0, 586.5 387.9 Q 585.8 387.7, 585.1 387.4 L 585.6 386.2 " fill="#000000"/>
<path class="legend" d="M 591.8 380.8 L 591.8 379.7 L 593.4 379.7 L 593.6 377.3 L 594.7 377.3 L 594.7 379.7 L 597.3 379.7 L 597.3 380.8 L 594.7 380.8 L 594.7 385.4 Q 594.7 386.8, 595.9 386.8 Q 596.4 386.8, 597.1 386.6 L 597.4 387.6 Q 596.5 388.0, 595.7 388.0 Q 594.6 388.0, 593.9 387.3 Q 593.2 386.7, 593.2 385.4 L 593.2 380.8 L 591.8 380.8 " fill="#000000"/>
<path class="legend" d="" fill="#000000"/>
<path class="legend" d="M 603.1 380.9 L 610.4 380.9 L 610.4 382.1 L 603.1 382.1 L 603.1 380.9 M 603.1 384.4 L 610.4 384.4 L 610.4 385.5 L 603.1 385.5 L 603.1 384.4 " fill="#000000"/>
<path class="legend" d="" fill="#000000"/>
<path class="legend" d="M 621.4 388.0 Q 619.3 388.0, 618.3 386.5 Q 617.2 384.9, 617.2 382.2 Q 617.2 379.5, 618.3 378.0 Q 619.3 376.4, 621.4 376.4 Q 623.5 376.4, 624.5 378.0 Q 625.5 379.5, 625.5 382.2 Q 625.5 384.9, 624.5 386.5 Q 623.5 388.0, 621.4 388.0 M 621.4 386.7 Q 622.6 386.7, 623.3 385.6 Q 623.9 384.4, 623.9 382.2 Q 623.9 380.0, 623.3 378.8 Q 622.6 377.7, 621.4 377.7 Q 620.2 377.7, 619.5 378.8 Q 618.8 380.0, 618.8 382.2 Q 618.8 384.4, 619.5 385.6 Q 620.2 386.7, 621.4 386.7 " fill="#000000"/>
<path class="legend" d="M 626.6 386.3 L 628.2 386.3 L 628.2 387.9 L 626.6 387.9 L 626.6 386.3 " fill="#000000"/>
<path class="legend" d="M 633.6 380.8 Q 634.6 380.8, 635.4 381.2 Q 636.2 381.7, 636.6 382.5 Q 637.1 383.2, 637.1 384.2 Q 637.1 385.3, 636.6 386.2 Q 636.1 387.1, 635.2 387.5 Q 634.4 388.0, 633.3 388.0 Q 631.2 388.0, 630.2 386.7 Q 629.2 385.3, 629.2 382.6 Q 629.2 379.6, 630.5 378.0 Q 631.7 376.4, 634.1 376.4 Q 634.8 376.4, 635.4 376.6 Q 636.0 376.8, 636.6 377.1 L 636.0 378.2 Q 635.2 377.7, 634.1 377.7 Q 632.5 377.7, 631.7 378.8 Q 630.9 379.8, 630.8 381.9 Q 631.4 381.4, 632.1 381.1 Q 632.9 380.8, 633.6 380.8 M 633.3 386.7 Q 633.9 386.7, 634.4 386.4 Q 634.9 386.1, 635.2 385.5 Q 635.5 384.9, 635.5 384.3 Q 635.5 383.2, 634.9 382.7 Q 634.3 382.1, 633.3 382.1 Q 632.7 382.1, 632.0 382.4 Q 631.3 382.7, 630.8 383.1 Q 630.9 385.0, 631.5 385.9 Q 632.1 386.7, 633.3 386.7 " fill="#000000"/>
<path class="legend" d="M 641.7 376.4 Q 643.8 376.4, 644.8 377.8 Q 645.8 379.2, 645.8 381.9 Q 645.8 384.9, 644.5 386.5 Q 643.3 388.0, 640.9 388.0 Q 640.2 388.0, 639.6 387.9 Q 639.0 387.7, 638.4 387.4 L 639.0 386.3 Q 639.8 386.7, 640.9 386.7 Q 642.5 386.7, 643.3 385.7 Q 644.1 384.7, 644.2 382.5 Q 643.6 383.1, 642.9 383.4 Q 642.1 383.6, 641.4 383.6 Q 640.4 383.6, 639.6 383.2 Q 638.8 382.8, 638.4 382.0 Q 637.9 381.2, 637.9 380.2 Q 637.9 379.1, 638.4 378.3 Q 638.9 377.4, 639.8 376.9 Q 640.6 376.4, 641.7 376.4 M 639.5 380.2 Q 639.5 381.2, 640.1 381.8 Q 640.7 382.4, 641.7 382.4 Q 642.3 382.4, 643.0 382.1 Q 643.7 381.8, 644.2 381.3 Q 644.1 379.4, 643.5 378.6 Q 642.9 377.7, 641.7 377.7 Q 641.1 377.7, 640.6 378.1 Q 640.1 378.4, 639.8 378.9 Q 639.5 379.5, 639.5 380.2 " fill="#000000"/>
<path class="legend" d="M 652.7 381.9 Q 653.7 382.3, 654.3 383.0 Q 654.9 383.7, 654.9 384.8 Q 654.9 385.7, 654.4 386.5 Q 653.9 387.2, 653.0 387.6 Q 652.1 388.0, 650.9 388.0 Q 649.1 388.0, 648.0 387.2 Q 646.9 386.3, 646.9 384.8 Q 646.9 383.9, 647.4 383.2 Q 647.8 382.5, 648.8 381.9 Q 648.1 381.5, 647.7 380.9 Q 647.3 380.3, 647.3 379.3 Q 647.3 378.0, 648.3 377.2 Q 649.2 376.4, 650.9 376.4 Q 652.5 376.4, 653.5 377.2 Q 654.5 378.0, 654.5 379.3 Q 654.5 380.2, 654.0 380.8 Q 653.6 381.4, 652.7 381.9 M 650.9 377.6 Q 649.9 377.6, 649.4 378.1 Q 648.9 378.5, 648.9 379.3 Q 648.9 379.9, 649.3 380.3 Q 649.6 380.7, 650.1 380.9 Q 650.6 381.2, 651.6 381.5 Q 652.3 381.0, 652.6 380.5 Q 652.9 380.0, 652.9 379.3 Q 652.9 378.5, 652.3 378.1 Q 651.8 377.6, 650.9 377.6 M 650.9 386.8 Q 652.0 386.8, 652.6 386.3 Q 653.3 385.7, 653.3 384.8 Q 653.3 384.2, 652.9 383.8 Q 652.6 383.4, 652.1 383.2 Q 651.6 382.9, 650.7 382.7 L 650.0 382.4 Q 649.2 382.9, 648.8 383.5 Q 648.5 384.0, 648.5 384.8 Q 648.5 385.7, 649.2 386.3 Q 649.8 386.8, 650.9 386.8 " fill="#000000"/>
<path class="legend" d="M 661.7 381.9 Q 662.7 382.3, 663.3 383.0 Q 663.9 383.7, 663.9 384.8 Q 663.9 385.7, 663.4 386.5 Q 662.9 387.2, 662.0 387.6 Q 661.1 388.0, 660.0 388.0 Q 658.1 388.0, 657.0 387.2 Q 655.9 386.3, 655.9 384.8 Q 655.9 383.9, 656.4 383.2 Q 656.9 382.5, 657.8 381.9 Q 657.1 381.5, 656.7 380.9 Q 656.3 380.3, 656.3 379.3 Q 656.3 378.0, 657.3 377.2 Q 658.2 376.4, 659.9 376.4 Q 661.5 376.4, 662.5 377.2 Q 663.5 378.0, 663.5 379.3 Q 663.5 380.2, 663.0 380.8 Q 662.6 381.4, 661.7 381.9 M 659.9 377.6 Q 658.9 377.6, 658.4 378.1 Q 657.9 378.5, 657.9 379.3 Q 657.9 379.9, 658.3 380.3 Q 658.6 380.7, 659.1 380.9 Q 659.6 381.2, 660.6 381.5 Q 661.3 381.0, 661.6 380.5 Q 661.9 380.0, 661.9 379.3 Q 661.9 378.5, 661.3 378.1 Q 660.8 377.6, 659.9 377.6 M 660.0 386.8 Q 661.0 386.8, 661.7 386.3 Q 662.3 385.7, 662.3 384.8 Q 662.3 384.2, 662.0 383.8 Q 661.6 383.4, 661.1 383.2 Q 660.6 382.9, 659.7 382.7 L 659.0 382.4 Q 658.2 382.9, 657.8 383.5 Q 657.5 384.0, 657.5 384.8 Q 657.5 385.7, 658.2 386.3 Q 658.8 386.8, 660.0 386.8 " fill="#000000"/>
</svg>