<svg xmlns="http://www.w3.org/2000/svg" xmlns:rdkit="http://www.rdkit.org/xml" xmlns:xlink="http://www.w3.org/1999/xlink" version="1.1" baseProfile="full" xml:space="preserve" width="2000px" height="400px" viewBox="0 0 2000 400">
<!-- END OF HEADER -->
<rect style="opacity:1.0;fill:#FFFFFF;stroke:none" width="2000.0" height="400.0" x="0.0" y="0.0"> </rect>
<path class="bond-0 atom-0 atom-1" d="M 130.6,280.4 L 148.2,211.7" style="fill:none;fill-rule:evenodd;stroke:#000000;stroke-width:2.0px;stroke-linecap:butt;stroke-linejoin:miter;stroke-opacity:1"/>
<path class="bond-0 atom-0 atom-1" d="M 144.3,283.9 L 162.0,215.2" style="fill:none;fill-rule:evenodd;stroke:#000000;stroke-width:2.0px;stroke-linecap:butt;stroke-linejoin:miter;stroke-opacity:1"/>
<path class="bond-1 atom-1 atom-2" d="M 155.1,213.5 L 223.4,194.4" style="fill:none;fill-rule:evenodd;stroke:#000000;stroke-width:2.0px;stroke-linecap:butt;stroke-linejoin:miter;stroke-opacity:1"/>
<path class="bond-2 atom-2 atom-3" d="M 223.4,194.4 L 274.1,244.1" style="fill:none;fill-rule:evenodd;stroke:#000000;stroke-width:2.0px;stroke-linecap:butt;stroke-linejoin:miter;stroke-opacity:1"/>
<path class="bond-2 atom-2 atom-3" d="M 241.0,191.8 L 276.4,226.5" style="fill:none;fill-rule:evenodd;stroke:#000000;stroke-width:2.0px;stroke-linecap:butt;stroke-linejoin:miter;stroke-opacity:1"/>
<path class="bond-3 atom-3 atom-4" d="M 274.1,244.1 L 342.4,225.1" style="fill:none;fill-rule:evenodd;stroke:#000000;stroke-width:2.0px;stroke-linecap:butt;stroke-linejoin:miter;stroke-opacity:1"/>
<path class="bond-4 atom-4 atom-5" d="M 342.4,225.1 L 360.1,156.4" style="fill:none;fill-rule:evenodd;stroke:#000000;stroke-width:2.0px;stroke-linecap:butt;stroke-linejoin:miter;stroke-opacity:1"/>
<path class="bond-4 atom-4 atom-5" d="M 331.3,211.2 L 343.7,163.1" style="fill:none;fill-rule:evenodd;stroke:#000000;stroke-width:2.0px;stroke-linecap:butt;stroke-linejoin:miter;stroke-opacity:1"/>
<path class="bond-5 atom-5 atom-6" d="M 360.1,156.4 L 309.5,106.7" style="fill:none;fill-rule:evenodd;stroke:#000000;stroke-width:2.0px;stroke-linecap:butt;stroke-linejoin:miter;stroke-opacity:1"/>
<path class="bond-6 atom-6 atom-7" d="M 309.5,106.7 L 241.1,125.7" style="fill:none;fill-rule:evenodd;stroke:#000000;stroke-width:2.0px;stroke-linecap:butt;stroke-linejoin:miter;stroke-opacity:1"/>
<path class="bond-6 atom-6 atom-7" d="M 303.0,123.2 L 255.2,136.6" style="fill:none;fill-rule:evenodd;stroke:#000000;stroke-width:2.0px;stroke-linecap:butt;stroke-linejoin:miter;stroke-opacity:1"/>
<path class="bond-7 atom-7 atom-8" d="M 241.1,125.7 L 190.5,76.1" style="fill:none;fill-rule:evenodd;stroke:#000000;stroke-width:2.0px;stroke-linecap:butt;stroke-linejoin:miter;stroke-opacity:1"/>
<path class="bond-8 atom-8 atom-9" d="M 190.5,76.1 L 122.2,95.1" style="fill:none;fill-rule:evenodd;stroke:#000000;stroke-width:2.0px;stroke-linecap:butt;stroke-linejoin:miter;stroke-opacity:1"/>
<path class="bond-9 atom-9 atom-10" d="M 122.2,95.1 L 104.5,163.8" style="fill:none;fill-rule:evenodd;stroke:#000000;stroke-width:2.0px;stroke-linecap:butt;stroke-linejoin:miter;stroke-opacity:1"/>
<path class="bond-10 atom-10 atom-11" d="M 104.5,163.8 L 39.9,134.5" style="fill:none;fill-rule:evenodd;stroke:#000000;stroke-width:2.0px;stroke-linecap:butt;stroke-linejoin:miter;stroke-opacity:1"/>
<path class="bond-11 atom-10 atom-12" d="M 104.5,163.8 L 64.4,222.3" style="fill:none;fill-rule:evenodd;stroke:#000000;stroke-width:2.0px;stroke-linecap:butt;stroke-linejoin:miter;stroke-opacity:1"/>
<path class="bond-12 atom-10 atom-1" d="M 104.5,163.8 L 155.1,213.5" style="fill:none;fill-rule:evenodd;stroke:#000000;stroke-width:2.0px;stroke-linecap:butt;stroke-linejoin:miter;stroke-opacity:1"/>
<path class="bond-13 atom-7 atom-2" d="M 241.1,125.7 L 223.4,194.4" style="fill:none;fill-rule:evenodd;stroke:#000000;stroke-width:2.0px;stroke-linecap:butt;stroke-linejoin:miter;stroke-opacity:1"/>
<path class="legend" d="M 167.6 365.4 L 167.8 366.5 Q 168.7 365.3, 170.1 365.3 Q 170.5 365.3, 171.1 365.4 L 170.9 366.8 Q 170.2 366.6, 169.8 366.6 Q 169.2 366.6, 168.7 366.9 Q 168.3 367.1, 167.9 367.8 L 167.9 373.6 L 166.4 373.6 L 166.4 365.4 L 167.6 365.4 " fill="#000000"/>
<path class="legend" d="M 171.4 369.5 Q 171.4 367.5, 172.4 366.4 Q 173.4 365.3, 175.2 365.3 Q 177.0 365.3, 177.8 366.4 Q 178.7 367.4, 178.7 369.5 L 178.7 369.7 L 172.9 369.7 Q 172.9 371.1, 173.6 371.8 Q 174.2 372.6, 175.4 372.6 Q 176.0 372.6, 176.6 372.4 Q 177.2 372.3, 177.9 372.0 L 178.3 373.0 Q 177.5 373.4, 176.8 373.6 Q 176.0 373.8, 175.3 373.8 Q 173.4 373.8, 172.4 372.6 Q 171.4 371.5, 171.4 369.5 M 175.2 366.4 Q 174.3 366.4, 173.7 367.0 Q 173.2 367.5, 173.0 368.6 L 177.1 368.6 Q 177.0 367.5, 176.5 367.0 Q 176.1 366.4, 175.2 366.4 " fill="#000000"/>
<path class="legend" d="M 179.3 371.4 Q 179.3 370.1, 180.3 369.4 Q 181.4 368.7, 183.3 368.7 L 184.5 368.7 L 184.5 368.3 Q 184.5 367.3, 184.1 366.9 Q 183.7 366.4, 182.7 366.4 Q 182.0 366.4, 181.5 366.6 Q 181.0 366.7, 180.2 367.0 L 179.7 366.0 Q 181.2 365.3, 182.7 365.3 Q 184.4 365.3, 185.2 366.0 Q 186.0 366.8, 186.0 368.4 L 186.0 373.6 L 184.9 373.6 Q 184.8 373.6, 184.8 373.3 Q 184.8 373.1, 184.7 372.7 Q 183.5 373.8, 182.0 373.8 Q 180.7 373.8, 180.0 373.2 Q 179.3 372.5, 179.3 371.4 M 180.8 371.4 Q 180.8 372.0, 181.2 372.3 Q 181.5 372.6, 182.3 372.6 Q 182.9 372.6, 183.5 372.4 Q 184.1 372.0, 184.5 371.5 L 184.5 369.8 L 183.4 369.8 Q 182.1 369.8, 181.4 370.2 Q 180.8 370.6, 180.8 371.4 " fill="#000000"/>
<path class="legend" d="M 187.3 369.5 Q 187.3 367.5, 188.3 366.4 Q 189.2 365.3, 191.2 365.3 Q 193.1 365.3, 194.0 366.6 L 193.0 367.4 Q 192.7 366.9, 192.2 366.7 Q 191.8 366.4, 191.2 366.4 Q 190.1 366.4, 189.4 367.2 Q 188.8 368.0, 188.8 369.5 Q 188.8 371.0, 189.4 371.8 Q 190.1 372.6, 191.3 372.6 Q 192.0 372.6, 192.4 372.4 Q 192.9 372.3, 193.5 372.0 L 193.9 373.0 Q 192.7 373.7, 191.2 373.7 Q 189.2 373.7, 188.3 372.6 Q 187.3 371.5, 187.3 369.5 " fill="#000000"/>
<path class="legend" d="M 194.4 366.6 L 194.4 365.4 L 196.0 365.4 L 196.3 363.0 L 197.4 363.0 L 197.4 365.4 L 199.9 365.4 L 199.9 366.6 L 197.4 366.6 L 197.4 371.1 Q 197.4 372.5, 198.6 372.5 Q 199.1 372.5, 199.8 372.3 L 200.0 373.4 Q 199.1 373.7, 198.3 373.7 Q 197.2 373.7, 196.5 373.1 Q 195.9 372.4, 195.9 371.2 L 195.9 366.6 L 194.4 366.6 " fill="#000000"/>
<path class="legend" d="M 208.6 374.4 L 208.6 375.7 L 200.4 375.7 L 200.4 374.4 L 208.6 374.4 " fill="#000000"/>
<path class="legend" d="M 209.2 372.4 L 211.7 372.4 L 211.7 363.9 L 208.9 364.7 L 208.6 363.8 L 212.0 362.2 L 213.2 362.4 L 213.2 372.4 L 215.4 372.4 L 215.4 373.6 L 209.2 373.6 L 209.2 372.4 " fill="#000000"/>
<path class="legend" d="M 223.4 369.7 L 224.8 369.7 L 224.8 371.0 L 223.4 371.0 L 223.4 373.6 L 221.9 373.6 L 221.9 371.0 L 216.1 371.0 L 216.1 370.0 L 221.0 362.3 L 223.4 362.3 L 223.4 369.7 M 217.9 369.7 L 221.9 369.7 L 221.9 363.3 L 217.9 369.7 " fill="#000000"/>
<path class="legend" d="M 231.4 367.6 Q 232.4 368.1, 233.0 368.8 Q 233.6 369.4, 233.6 370.5 Q 233.6 371.5, 233.1 372.2 Q 232.6 373.0, 231.7 373.4 Q 230.8 373.8, 229.6 373.8 Q 227.8 373.8, 226.7 372.9 Q 225.6 372.0, 225.6 370.5 Q 225.6 369.6, 226.1 368.9 Q 226.5 368.2, 227.5 367.7 Q 226.8 367.3, 226.4 366.7 Q 226.0 366.0, 226.0 365.1 Q 226.0 363.7, 227.0 363.0 Q 227.9 362.2, 229.6 362.2 Q 231.2 362.2, 232.2 363.0 Q 233.2 363.7, 233.2 365.1 Q 233.2 365.9, 232.7 366.5 Q 232.3 367.1, 231.4 367.6 M 229.6 363.4 Q 228.6 363.4, 228.1 363.8 Q 227.6 364.3, 227.6 365.1 Q 227.6 365.7, 228.0 366.1 Q 228.3 366.4, 228.8 366.7 Q 229.3 366.9, 230.3 367.2 Q 231.0 366.8, 231.3 366.2 Q 231.6 365.7, 231.6 365.1 Q 231.6 364.3, 231.0 363.8 Q 230.5 363.4, 229.6 363.4 M 229.6 372.6 Q 230.7 372.6, 231.3 372.0 Q 232.0 371.5, 232.0 370.5 Q 232.0 369.9, 231.6 369.5 Q 231.3 369.1, 230.8 368.9 Q 230.3 368.7, 229.4 368.4 L 228.7 368.2 Q 227.9 368.6, 227.5 369.2 Q 227.2 369.8, 227.2 370.5 Q 227.2 371.5, 227.9 372.0 Q 228.5 372.6, 229.6 372.6 " fill="#000000"/>
<path class="legend" d="M 135.9 383.8 Q 135.9 381.8, 136.9 380.7 Q 137.8 379.5, 139.8 379.5 Q 141.7 379.5, 142.6 380.9 L 141.6 381.6 Q 141.3 381.2, 140.8 380.9 Q 140.4 380.7, 139.8 380.7 Q 138.7 380.7, 138.0 381.5 Q 137.4 382.3, 137.4 383.8 Q 137.4 385.3, 138.0 386.1 Q 138.7 386.8, 139.9 386.8 Q 140.6 386.8, 141.0 386.7 Q 141.5 386.5, 142.1 386.3 L 142.5 387.3 Q 141.3 388.0, 139.8 388.0 Q 137.8 388.0, 136.9 386.9 Q 135.9 385.7, 135.9 383.8 " fill="#000000"/>
<path class="legend" d="M 143.0 383.8 Q 143.0 381.7, 144.0 380.6 Q 145.0 379.5, 146.9 379.5 Q 148.7 379.5, 149.5 380.6 Q 150.3 381.7, 150.3 383.7 L 150.3 384.0 L 144.6 384.0 Q 144.6 385.4, 145.2 386.1 Q 145.8 386.8, 147.0 386.8 Q 147.7 386.8, 148.2 386.7 Q 148.8 386.5, 149.6 386.2 L 150.0 387.2 Q 149.2 387.6, 148.4 387.8 Q 147.7 388.0, 146.9 388.0 Q 145.1 388.0, 144.1 386.9 Q 143.0 385.8, 143.0 383.8 M 146.9 380.7 Q 145.9 380.7, 145.4 381.2 Q 144.8 381.8, 144.6 382.8 L 148.7 382.8 Q 148.6 381.7, 148.2 381.2 Q 147.7 380.7, 146.9 380.7 " fill="#000000"/>
<path class="legend" d="M 155.2 379.5 Q 156.5 379.5, 157.2 380.3 Q 157.9 381.0, 157.9 382.4 L 157.9 387.9 L 156.4 387.9 L 156.4 382.6 Q 156.4 381.6, 156.0 381.2 Q 155.7 380.7, 154.8 380.7 Q 154.1 380.7, 153.4 381.1 Q 152.8 381.4, 152.4 382.0 L 152.4 387.9 L 150.9 387.9 L 150.9 379.7 L 152.1 379.7 L 152.3 380.8 Q 153.4 379.5, 155.2 379.5 " fill="#000000"/>
<path class="legend" d="M 159.1 380.8 L 159.1 379.7 L 160.7 379.7 L 161.0 377.3 L 162.1 377.3 L 162.1 379.7 L 164.6 379.7 L 164.6 380.8 L 162.1 380.8 L 162.1 385.4 Q 162.1 386.8, 163.3 386.8 Q 163.8 386.8, 164.5 386.6 L 164.7 387.6 Q 163.8 388.0, 163.0 388.0 Q 161.9 388.0, 161.3 387.3 Q 160.6 386.7, 160.6 385.4 L 160.6 380.8 L 159.1 380.8 " fill="#000000"/>
<path class="legend" d="M 173.3 388.7 L 173.3 390.0 L 165.1 390.0 L 165.1 388.7 L 173.3 388.7 " fill="#000000"/>
<path class="legend" d="M 180.8 375.7 L 180.8 387.9 L 179.5 387.9 L 179.3 386.9 Q 178.4 388.0, 176.9 388.0 Q 175.2 388.0, 174.2 387.0 Q 173.3 385.9, 173.3 383.9 Q 173.3 381.8, 174.4 380.7 Q 175.5 379.5, 177.5 379.5 Q 178.4 379.5, 179.3 379.7 L 179.3 375.7 L 180.8 375.7 M 177.0 386.8 Q 177.8 386.8, 178.4 386.4 Q 179.0 385.9, 179.3 385.1 L 179.3 380.9 Q 178.4 380.7, 177.5 380.7 Q 176.3 380.7, 175.5 381.6 Q 174.8 382.4, 174.8 383.9 Q 174.8 385.3, 175.4 386.1 Q 176.0 386.8, 177.0 386.8 " fill="#000000"/>
<path class="legend" d="M 182.0 376.6 L 183.5 376.6 L 183.5 378.0 L 182.0 378.0 L 182.0 376.6 M 182.0 379.7 L 183.5 379.7 L 183.5 387.9 L 182.0 387.9 L 182.0 379.7 " fill="#000000"/>
<path class="legend" d="M 185.3 386.2 Q 186.1 386.5, 186.6 386.6 Q 187.1 386.8, 187.7 386.8 Q 188.4 386.8, 188.8 386.5 Q 189.2 386.2, 189.2 385.6 Q 189.2 385.2, 189.0 385.0 Q 188.8 384.8, 188.5 384.6 Q 188.2 384.5, 187.5 384.3 Q 187.4 384.3, 186.7 384.0 Q 185.9 383.7, 185.5 383.2 Q 185.2 382.7, 185.2 381.9 Q 185.2 380.9, 185.9 380.2 Q 186.7 379.5, 188.2 379.5 Q 188.8 379.5, 189.3 379.7 Q 189.9 379.8, 190.5 380.0 L 190.1 381.2 Q 189.6 381.0, 189.1 380.9 Q 188.7 380.8, 188.2 380.8 Q 187.4 380.8, 187.0 381.1 Q 186.7 381.4, 186.7 381.8 Q 186.7 382.3, 187.0 382.5 Q 187.3 382.7, 187.9 383.0 Q 188.1 383.0, 188.3 383.1 L 188.6 383.2 Q 189.3 383.4, 189.7 383.7 Q 190.1 383.9, 190.4 384.4 Q 190.7 384.8, 190.7 385.6 Q 190.7 386.7, 189.9 387.4 Q 189.0 388.0, 187.7 388.0 Q 186.9 388.0, 186.2 387.9 Q 185.6 387.7, 184.9 387.4 L 185.3 386.2 " fill="#000000"/>
<path class="legend" d="M 191.6 380.8 L 191.6 379.7 L 193.1 379.7 L 193.4 377.3 L 194.5 377.3 L 194.5 379.7 L 197.0 379.7 L 197.0 380.8 L 194.5 380.8 L 194.5 385.4 Q 194.5 386.8, 195.7 386.8 Q 196.2 386.8, 196.9 386.6 L 197.1 387.6 Q 196.3 388.0, 195.4 388.0 Q 194.4 388.0, 193.7 387.3 Q 193.0 386.7, 193.0 385.4 L 193.0 380.8 L 191.6 380.8 " fill="#000000"/>
<path class="legend" d="" fill="#000000"/>
<path class="legend" d="M 202.9 380.9 L 210.2 380.9 L 210.2 382.1 L 202.9 382.1 L 202.9 380.9 M 202.9 384.4 L 210.2 384.4 L 210.2 385.5 L 202.9 385.5 L 202.9 384.4 " fill="#000000"/>
<path class="legend" d="" fill="#000000"/>
<path class="legend" d="M 221.1 388.0 Q 219.1 388.0, 218.0 386.5 Q 217.0 384.9, 217.0 382.2 Q 217.0 379.5, 218.0 378.0 Q 219.0 376.4, 221.1 376.4 Q 223.2 376.4, 224.3 378.0 Q 225.3 379.5, 225.3 382.2 Q 225.3 384.9, 224.2 386.5 Q 223.2 388.0, 221.1 388.0 M 221.1 386.7 Q 222.4 386.7, 223.0 385.6 Q 223.7 384.4, 223.7 382.2 Q 223.7 380.0, 223.0 378.8 Q 222.4 377.7, 221.1 377.7 Q 219.9 377.7, 219.2 378.8 Q 218.6 380.0, 218.6 382.2 Q 218.6 384.4, 219.2 385.6 Q 219.9 386.7, 221.1 386.7 " fill="#000000"/>
<path class="legend" d="M 226.3 386.3 L 227.9 386.3 L 227.9 387.9 L 226.3 387.9 L 226.3 386.3 " fill="#000000"/>
<path class="legend" d="M 236.3 384.0 L 237.7 384.0 L 237.7 385.3 L 236.3 385.3 L 236.3 387.9 L 234.8 387.9 L 234.8 385.3 L 229.0 385.3 L 229.0 384.3 L 233.9 376.6 L 236.3 376.6 L 236.3 384.0 M 230.8 384.0 L 234.8 384.0 L 234.8 377.6 L 230.8 384.0 " fill="#000000"/>
<path class="legend" d="M 242.6 388.0 Q 240.5 388.0, 239.5 386.5 Q 238.5 384.9, 238.5 382.2 Q 238.5 379.5, 239.5 378.0 Q 240.5 376.4, 242.6 376.4 Q 244.7 376.4, 245.7 378.0 Q 246.7 379.5, 246.7 382.2 Q 246.7 384.9, 245.7 386.5 Q 244.7 388.0, 242.6 388.0 M 242.6 386.7 Q 243.8 386.7, 244.5 385.6 Q 245.1 384.4, 245.1 382.2 Q 245.1 380.0, 244.5 378.8 Q 243.8 377.7, 242.6 377.7 Q 241.4 377.7, 240.7 378.8 Q 240.1 380.0, 240.1 382.2 Q 240.1 384.4, 240.7 385.6 Q 241.4 386.7, 242.6 386.7 " fill="#000000"/>
<path class="legend" d="M 252.2 380.8 Q 253.2 380.8, 254.0 381.2 Q 254.8 381.7, 255.2 382.5 Q 255.6 383.2, 255.6 384.2 Q 255.6 385.3, 255.1 386.2 Q 254.7 387.1, 253.8 387.5 Q 252.9 388.0, 251.8 388.0 Q 249.8 388.0, 248.8 386.7 Q 247.8 385.3, 247.8 382.6 Q 247.8 379.6, 249.0 378.0 Q 250.3 376.4, 252.7 376.4 Q 253.4 376.4, 254.0 376.6 Q 254.6 376.8, 255.2 377.1 L 254.6 378.2 Q 253.7 377.7, 252.7 377.7 Q 251.1 377.7, 250.3 378.8 Q 249.5 379.8, 249.4 381.9 Q 250.0 381.4, 250.7 381.1 Q 251.4 380.8, 252.2 380.8 M 251.9 386.7 Q 252.5 386.7, 253.0 386.4 Q 253.5 386.1, 253.8 385.5 Q 254.0 384.9, 254.0 384.3 Q 254.0 383.2, 253.5 382.7 Q 252.9 382.1, 251.9 382.1 Q 251.2 382.1, 250.6 382.4 Q 249.9 382.7, 249.4 383.1 Q 249.5 385.0, 250.1 385.9 Q 250.7 386.7, 251.9 386.7 " fill="#000000"/>
<path class="legend" d="M 262.0 381.9 Q 263.1 382.2, 263.6 383.0 Q 264.1 383.7, 264.1 384.8 Q 264.1 385.7, 263.7 386.5 Q 263.2 387.2, 262.3 387.6 Q 261.4 388.0, 260.3 388.0 Q 259.1 388.0, 258.1 387.6 Q 257.2 387.2, 256.5 386.3 L 257.4 385.4 Q 258.1 386.2, 258.7 386.5 Q 259.3 386.8, 260.3 386.8 Q 261.3 386.8, 261.9 386.2 Q 262.5 385.7, 262.5 384.8 Q 262.5 383.6, 261.9 383.1 Q 261.2 382.6, 259.9 382.6 L 259.0 382.6 L 259.0 381.4 L 259.8 381.4 Q 261.0 381.4, 261.6 380.9 Q 262.3 380.3, 262.3 379.3 Q 262.3 378.6, 261.8 378.2 Q 261.2 377.7, 260.3 377.7 Q 259.3 377.7, 258.7 378.0 Q 258.2 378.4, 257.7 379.2 L 256.6 378.6 Q 257.0 377.7, 258.0 377.1 Q 258.9 376.4, 260.3 376.4 Q 261.9 376.4, 262.9 377.2 Q 263.9 378.0, 263.9 379.3 Q 263.9 380.2, 263.4 380.9 Q 262.9 381.6, 262.0 381.9 " fill="#000000"/>
<path class="bond-0 atom-0 atom-1" d="M 497.2,314.7 L 513.7,245.7" style="fill:none;fill-rule:evenodd;stroke:#000000;stroke-width:2.0px;stroke-linecap:butt;stroke-linejoin:miter;stroke-opacity:1"/>
<path class="bond-0 atom-0 atom-1" d="M 511.0,318.0 L 527.5,249.0" style="fill:none;fill-rule:evenodd;stroke:#000000;stroke-width:2.0px;stroke-linecap:butt;stroke-linejoin:miter;stroke-opacity:1"/>
<path class="bond-1 atom-1 atom-2" d="M 520.6,247.4 L 586.1,220.2" style="fill:none;fill-rule:evenodd;stroke:#000000;stroke-width:2.0px;stroke-linecap:butt;stroke-linejoin:miter;stroke-opacity:1"/>
<path class="bond-2 atom-2 atom-3" d="M 586.1,220.2 L 650.1,250.7" style="fill:none;fill-rule:evenodd;stroke:#000000;stroke-width:2.0px;stroke-linecap:butt;stroke-linejoin:miter;stroke-opacity:1"/>
<path class="bond-2 atom-2 atom-3" d="M 601.8,212.0 L 646.6,233.3" style="fill:none;fill-rule:evenodd;stroke:#000000;stroke-width:2.0px;stroke-linecap:butt;stroke-linejoin:miter;stroke-opacity:1"/>
<path class="bond-3 atom-3 atom-4" d="M 650.1,250.7 L 655.7,321.4" style="fill:none;fill-rule:evenodd;stroke:#000000;stroke-width:2.0px;stroke-linecap:butt;stroke-linejoin:miter;stroke-opacity:1"/>
<path class="bond-4 atom-3 atom-5" d="M 650.1,250.7 L 708.6,210.5" style="fill:none;fill-rule:evenodd;stroke:#000000;stroke-width:2.0px;stroke-linecap:butt;stroke-linejoin:miter;stroke-opacity:1"/>
<path class="bond-5 atom-5 atom-6" d="M 708.6,210.5 L 734.8,223.0" style="fill:none;fill-rule:evenodd;stroke:#000000;stroke-width:2.0px;stroke-linecap:butt;stroke-linejoin:miter;stroke-opacity:1"/>
<path class="bond-5 atom-5 atom-6" d="M 734.8,223.0 L 761.0,235.5" style="fill:none;fill-rule:evenodd;stroke:#FF0000;stroke-width:2.0px;stroke-linecap:butt;stroke-linejoin:miter;stroke-opacity:1"/>
<path class="bond-6 atom-6 atom-7" d="M 773.6,253.8 L 775.9,282.8" style="fill:none;fill-rule:evenodd;stroke:#FF0000;stroke-width:2.0px;stroke-linecap:butt;stroke-linejoin:miter;stroke-opacity:1"/>
<path class="bond-6 atom-6 atom-7" d="M 775.9,282.8 L 778.2,311.7" style="fill:none;fill-rule:evenodd;stroke:#000000;stroke-width:2.0px;stroke-linecap:butt;stroke-linejoin:miter;stroke-opacity:1"/>
<path class="bond-7 atom-5 atom-8" d="M 708.6,210.5 L 703.0,139.8" style="fill:none;fill-rule:evenodd;stroke:#000000;stroke-width:2.0px;stroke-linecap:butt;stroke-linejoin:miter;stroke-opacity:1"/>
<path class="bond-7 atom-5 atom-8" d="M 693.6,201.0 L 689.7,151.5" style="fill:none;fill-rule:evenodd;stroke:#000000;stroke-width:2.0px;stroke-linecap:butt;stroke-linejoin:miter;stroke-opacity:1"/>
<path class="bond-8 atom-8 atom-9" d="M 703.0,139.8 L 761.4,99.6" style="fill:none;fill-rule:evenodd;stroke:#000000;stroke-width:2.0px;stroke-linecap:butt;stroke-linejoin:miter;stroke-opacity:1"/>
<path class="bond-9 atom-8 atom-10" d="M 703.0,139.8 L 638.9,109.3" style="fill:none;fill-rule:evenodd;stroke:#000000;stroke-width:2.0px;stroke-linecap:butt;stroke-linejoin:miter;stroke-opacity:1"/>
<path class="bond-10 atom-10 atom-11" d="M 638.9,109.3 L 633.3,38.6" style="fill:none;fill-rule:evenodd;stroke:#000000;stroke-width:2.0px;stroke-linecap:butt;stroke-linejoin:miter;stroke-opacity:1"/>
<path class="bond-11 atom-10 atom-12" d="M 638.9,109.3 L 580.5,149.5" style="fill:none;fill-rule:evenodd;stroke:#000000;stroke-width:2.0px;stroke-linecap:butt;stroke-linejoin:miter;stroke-opacity:1"/>
<path class="bond-11 atom-10 atom-12" d="M 638.2,127.0 L 597.3,155.2" style="fill:none;fill-rule:evenodd;stroke:#000000;stroke-width:2.0px;stroke-linecap:butt;stroke-linejoin:miter;stroke-opacity:1"/>
<path class="bond-12 atom-12 atom-13" d="M 580.5,149.5 L 551.8,142.6" style="fill:none;fill-rule:evenodd;stroke:#000000;stroke-width:2.0px;stroke-linecap:butt;stroke-linejoin:miter;stroke-opacity:1"/>
<path class="bond-12 atom-12 atom-13" d="M 551.8,142.6 L 523.1,135.7" style="fill:none;fill-rule:evenodd;stroke:#FF0000;stroke-width:2.0px;stroke-linecap:butt;stroke-linejoin:miter;stroke-opacity:1"/>
<path class="bond-13 atom-13 atom-14" d="M 503.7,145.8 L 489.1,169.6" style="fill:none;fill-rule:evenodd;stroke:#FF0000;stroke-width:2.0px;stroke-linecap:butt;stroke-linejoin:miter;stroke-opacity:1"/>
<path class="bond-13 atom-13 atom-14" d="M 489.1,169.6 L 474.5,193.5" style="fill:none;fill-rule:evenodd;stroke:#000000;stroke-width:2.0px;stroke-linecap:butt;stroke-linejoin:miter;stroke-opacity:1"/>
<path class="bond-14 atom-14 atom-15" d="M 474.5,193.5 L 425.7,245.0" style="fill:none;fill-rule:evenodd;stroke:#000000;stroke-width:2.0px;stroke-linecap:butt;stroke-linejoin:miter;stroke-opacity:1"/>
<path class="bond-15 atom-14 atom-16" d="M 474.5,193.5 L 418.2,150.3" style="fill:none;fill-rule:evenodd;stroke:#000000;stroke-width:2.0px;stroke-linecap:butt;stroke-linejoin:miter;stroke-opacity:1"/>
<path class="bond-16 atom-14 atom-1" d="M 474.5,193.5 L 520.6,247.4" style="fill:none;fill-rule:evenodd;stroke:#000000;stroke-width:2.0px;stroke-linecap:butt;stroke-linejoin:miter;stroke-opacity:1"/>
<path class="bond-17 atom-12 atom-2" d="M 580.5,149.5 L 586.1,220.2" style="fill:none;fill-rule:evenodd;stroke:#000000;stroke-width:2.0px;stroke-linecap:butt;stroke-linejoin:miter;stroke-opacity:1"/>
<path class="atom-6" d="M 763.4 241.1 Q 763.4 236.2, 765.8 233.5 Q 768.1 230.8, 772.6 230.8 Q 777.1 230.8, 779.4 233.5 Q 781.8 236.2, 781.8 241.1 Q 781.8 245.9, 779.4 248.7 Q 777.0 251.5, 772.6 251.5 Q 768.2 251.5, 765.8 248.7 Q 763.4 246.0, 763.4 241.1 M 772.6 249.2 Q 775.7 249.2, 777.3 247.2 Q 779.0 245.1, 779.0 241.1 Q 779.0 237.1, 777.3 235.1 Q 775.7 233.1, 772.6 233.1 Q 769.5 233.1, 767.9 235.1 Q 766.2 237.1, 766.2 241.1 Q 766.2 245.1, 767.9 247.2 Q 769.5 249.2, 772.6 249.2 " fill="#FF0000"/>
<path class="atom-13" d="M 502.3 133.0 Q 502.3 128.2, 504.7 125.5 Q 507.1 122.8, 511.5 122.8 Q 516.0 122.8, 518.3 125.5 Q 520.7 128.2, 520.7 133.0 Q 520.7 137.9, 518.3 140.7 Q 515.9 143.4, 511.5 143.4 Q 507.1 143.4, 504.7 140.7 Q 502.3 137.9, 502.3 133.0 M 511.5 141.2 Q 514.6 141.2, 516.2 139.1 Q 517.9 137.1, 517.9 133.0 Q 517.9 129.1, 516.2 127.1 Q 514.6 125.1, 511.5 125.1 Q 508.4 125.1, 506.8 127.1 Q 505.1 129.1, 505.1 133.0 Q 505.1 137.1, 506.8 139.1 Q 508.4 141.2, 511.5 141.2 " fill="#FF0000"/>
<path class="legend" d="M 568.2 365.4 L 568.4 366.5 Q 569.3 365.3, 570.7 365.3 Q 571.1 365.3, 571.7 365.4 L 571.5 366.8 Q 570.8 366.6, 570.4 366.6 Q 569.8 366.6, 569.3 366.9 Q 568.9 367.1, 568.5 367.8 L 568.5 373.6 L 567.0 373.6 L 567.0 365.4 L 568.2 365.4 " fill="#000000"/>
<path class="legend" d="M 572.0 369.5 Q 572.0 367.5, 573.0 366.4 Q 574.0 365.3, 575.8 365.3 Q 577.6 365.3, 578.4 366.4 Q 579.3 367.4, 579.3 369.5 L 579.3 369.7 L 573.5 369.7 Q 573.6 371.1, 574.2 371.8 Q 574.8 372.6, 576.0 372.6 Q 576.6 372.6, 577.2 372.4 Q 577.8 372.3, 578.5 372.0 L 578.9 373.0 Q 578.1 373.4, 577.4 373.6 Q 576.7 373.8, 575.9 373.8 Q 574.0 373.8, 573.0 372.6 Q 572.0 371.5, 572.0 369.5 M 575.8 366.4 Q 574.9 366.4, 574.3 367.0 Q 573.8 367.5, 573.6 368.6 L 577.7 368.6 Q 577.6 367.5, 577.1 367.0 Q 576.7 366.4, 575.8 366.4 " fill="#000000"/>
<path class="legend" d="M 579.9 371.4 Q 579.9 370.1, 580.9 369.4 Q 582.0 368.7, 583.9 368.7 L 585.1 368.7 L 585.1 368.3 Q 585.1 367.3, 584.7 366.9 Q 584.3 366.4, 583.3 366.4 Q 582.6 366.4, 582.1 366.6 Q 581.6 366.7, 580.8 367.0 L 580.3 366.0 Q 581.8 365.3, 583.3 365.3 Q 585.0 365.3, 585.8 366.0 Q 586.6 366.8, 586.6 368.4 L 586.6 373.6 L 585.5 373.6 Q 585.5 373.6, 585.4 373.3 Q 585.4 373.1, 585.3 372.7 Q 584.1 373.8, 582.6 373.8 Q 581.3 373.8, 580.6 373.2 Q 579.9 372.5, 579.9 371.4 M 581.4 371.4 Q 581.4 372.0, 581.8 372.3 Q 582.1 372.6, 582.9 372.6 Q 583.5 372.6, 584.1 372.4 Q 584.7 372.0, 585.1 371.5 L 585.1 369.8 L 584.0 369.8 Q 582.7 369.8, 582.0 370.2 Q 581.4 370.6, 581.4 371.4 " fill="#000000"/>
<path class="legend" d="M 587.9 369.5 Q 587.9 367.5, 588.9 366.4 Q 589.9 365.3, 591.8 365.3 Q 593.7 365.3, 594.7 366.6 L 593.6 367.4 Q 593.3 366.9, 592.8 366.7 Q 592.4 366.4, 591.8 366.4 Q 590.7 366.4, 590.0 367.2 Q 589.4 368.0, 589.4 369.5 Q 589.4 371.0, 590.0 371.8 Q 590.7 372.6, 591.9 372.6 Q 592.6 372.6, 593.0 372.4 Q 593.5 372.3, 594.1 372.0 L 594.5 373.0 Q 593.3 373.7, 591.8 373.7 Q 589.9 373.7, 588.9 372.6 Q 587.9 371.5, 587.9 369.5 " fill="#000000"/>
<path class="legend" d="M 595.0 366.6 L 595.0 365.4 L 596.6 365.4 L 596.9 363.0 L 598.0 363.0 L 598.0 365.4 L 600.5 365.4 L 600.5 366.6 L 598.0 366.6 L 598.0 371.1 Q 598.0 372.5, 599.2 372.5 Q 599.7 372.5, 600.4 372.3 L 600.6 373.4 Q 599.7 373.7, 598.9 373.7 Q 597.8 373.7, 597.2 373.1 Q 596.5 372.4, 596.5 371.2 L 596.5 366.6 L 595.0 366.6 " fill="#000000"/>
<path class="legend" d="M 609.2 374.4 L 609.2 375.7 L 601.0 375.7 L 601.0 374.4 L 609.2 374.4 " fill="#000000"/>
<path class="legend" d="M 609.8 372.4 L 612.3 372.4 L 612.3 363.9 L 609.6 364.7 L 609.2 363.8 L 612.7 362.2 L 613.8 362.4 L 613.8 372.4 L 616.0 372.4 L 616.0 373.6 L 609.8 373.6 L 609.8 372.4 " fill="#000000"/>
<path class="legend" d="M 620.8 366.5 Q 621.8 366.5, 622.6 367.0 Q 623.4 367.4, 623.9 368.2 Q 624.4 369.0, 624.4 370.0 Q 624.4 371.2, 623.8 372.1 Q 623.2 372.9, 622.3 373.3 Q 621.4 373.8, 620.3 373.8 Q 619.3 373.8, 618.3 373.4 Q 617.3 373.0, 616.7 372.3 L 617.6 371.3 Q 618.2 371.8, 618.9 372.2 Q 619.6 372.5, 620.4 372.5 Q 621.4 372.5, 622.0 371.8 Q 622.8 371.2, 622.8 370.1 Q 622.8 368.9, 622.0 368.3 Q 621.4 367.7, 620.3 367.7 Q 619.3 367.7, 618.2 368.2 L 617.3 367.8 L 617.8 362.3 L 623.6 362.3 L 623.5 363.6 L 619.1 363.6 L 618.8 366.9 Q 619.8 366.5, 620.8 366.5 " fill="#000000"/>
<path class="legend" d="M 629.6 366.6 Q 630.5 366.6, 631.3 367.0 Q 632.1 367.4, 632.5 368.2 Q 633.0 369.0, 633.0 370.0 Q 633.0 371.1, 632.5 372.0 Q 632.0 372.8, 631.1 373.3 Q 630.3 373.8, 629.2 373.8 Q 627.2 373.8, 626.1 372.4 Q 625.1 371.0, 625.1 368.3 Q 625.1 365.3, 626.4 363.7 Q 627.6 362.2, 630.0 362.2 Q 630.8 362.2, 631.3 362.3 Q 632.0 362.5, 632.5 362.8 L 631.9 363.9 Q 631.1 363.5, 630.1 363.5 Q 628.5 363.5, 627.6 364.5 Q 626.8 365.5, 626.7 367.6 Q 627.3 367.1, 628.0 366.8 Q 628.8 366.6, 629.6 366.6 M 629.2 372.4 Q 629.8 372.4, 630.3 372.1 Q 630.8 371.8, 631.1 371.2 Q 631.4 370.7, 631.4 370.0 Q 631.4 369.0, 630.8 368.4 Q 630.3 367.8, 629.3 367.8 Q 628.6 367.8, 627.9 368.1 Q 627.2 368.4, 626.7 368.9 Q 626.8 370.8, 627.4 371.6 Q 628.0 372.4, 629.2 372.4 " fill="#000000"/>
<path class="legend" d="M 536.7 383.8 Q 536.7 381.8, 537.7 380.7 Q 538.7 379.5, 540.6 379.5 Q 542.5 379.5, 543.5 380.9 L 542.5 381.6 Q 542.1 381.2, 541.6 380.9 Q 541.2 380.7, 540.6 380.7 Q 539.5 380.7, 538.9 381.5 Q 538.2 382.3, 538.2 383.8 Q 538.2 385.3, 538.9 386.1 Q 539.5 386.8, 540.7 386.8 Q 541.4 386.8, 541.9 386.7 Q 542.3 386.5, 542.9 386.3 L 543.3 387.3 Q 542.1 388.0, 540.6 388.0 Q 538.7 388.0, 537.7 386.9 Q 536.7 385.7, 536.7 383.8 " fill="#000000"/>
<path class="legend" d="M 543.9 383.8 Q 543.9 381.7, 544.9 380.6 Q 545.9 379.5, 547.7 379.5 Q 549.5 379.5, 550.3 380.6 Q 551.1 381.7, 551.1 383.7 L 551.1 384.0 L 545.4 384.0 Q 545.4 385.4, 546.1 386.1 Q 546.7 386.8, 547.9 386.8 Q 548.5 386.8, 549.1 386.7 Q 549.7 386.5, 550.4 386.2 L 550.8 387.2 Q 550.0 387.6, 549.3 387.8 Q 548.5 388.0, 547.8 388.0 Q 545.9 388.0, 544.9 386.9 Q 543.9 385.8, 543.9 383.8 M 547.7 380.7 Q 546.8 380.7, 546.2 381.2 Q 545.6 381.8, 545.5 382.8 L 549.6 382.8 Q 549.5 381.7, 549.0 381.2 Q 548.6 380.7, 547.7 380.7 " fill="#000000"/>
<path class="legend" d="M 556.0 379.5 Q 557.4 379.5, 558.0 380.3 Q 558.7 381.0, 558.7 382.4 L 558.7 387.9 L 557.2 387.9 L 557.2 382.6 Q 557.2 381.6, 556.9 381.2 Q 556.5 380.7, 555.7 380.7 Q 554.9 380.7, 554.3 381.1 Q 553.7 381.4, 553.3 382.0 L 553.3 387.9 L 551.8 387.9 L 551.8 379.7 L 553.0 379.7 L 553.2 380.8 Q 554.3 379.5, 556.0 379.5 " fill="#000000"/>
<path class="legend" d="M 560.0 380.8 L 560.0 379.7 L 561.5 379.7 L 561.8 377.3 L 562.9 377.3 L 562.9 379.7 L 565.4 379.7 L 565.4 380.8 L 562.9 380.8 L 562.9 385.4 Q 562.9 386.8, 564.1 386.8 Q 564.6 386.8, 565.3 386.6 L 565.6 387.6 Q 564.7 388.0, 563.9 388.0 Q 562.8 388.0, 562.1 387.3 Q 561.4 386.7, 561.4 385.4 L 561.4 380.8 L 560.0 380.8 " fill="#000000"/>
<path class="legend" d="M 574.1 388.7 L 574.1 390.0 L 566.0 390.0 L 566.0 388.7 L 574.1 388.7 " fill="#000000"/>
<path class="legend" d="M 581.6 375.7 L 581.6 387.9 L 580.4 387.9 L 580.2 386.9 Q 579.3 388.0, 577.7 388.0 Q 576.0 388.0, 575.1 387.0 Q 574.1 385.9, 574.1 383.9 Q 574.1 381.8, 575.2 380.7 Q 576.4 379.5, 578.3 379.5 Q 579.2 379.5, 580.1 379.7 L 580.1 375.7 L 581.6 375.7 M 577.8 386.8 Q 578.7 386.8, 579.3 386.4 Q 579.9 385.9, 580.1 385.1 L 580.1 380.9 Q 579.3 380.7, 578.4 380.7 Q 577.1 380.7, 576.4 381.6 Q 575.7 382.4, 575.7 383.9 Q 575.7 385.3, 576.2 386.1 Q 576.8 386.8, 577.8 386.8 " fill="#000000"/>
<path class="legend" d="M 582.9 376.6 L 584.3 376.6 L 584.3 378.0 L 582.9 378.0 L 582.9 376.6 M 582.9 379.7 L 584.3 379.7 L 584.3 387.9 L 582.9 387.9 L 582.9 379.7 " fill="#000000"/>
<path class="legend" d="M 586.2 386.2 Q 586.9 386.5, 587.4 386.6 Q 587.9 386.8, 588.5 386.8 Q 589.2 386.8, 589.6 386.5 Q 590.0 386.2, 590.0 385.6 Q 590.0 385.2, 589.8 385.0 Q 589.6 384.8, 589.3 384.6 Q 589.1 384.5, 588.4 384.3 Q 588.3 384.3, 587.5 384.0 Q 586.8 383.7, 586.4 383.2 Q 586.0 382.7, 586.0 381.9 Q 586.0 380.9, 586.8 380.2 Q 587.5 379.5, 589.0 379.5 Q 589.6 379.5, 590.2 379.7 Q 590.7 379.8, 591.4 380.0 L 591.0 381.2 Q 590.4 381.0, 590.0 380.9 Q 589.5 380.8, 589.0 380.8 Q 588.3 380.8, 587.9 381.1 Q 587.5 381.4, 587.5 381.8 Q 587.5 382.3, 587.8 382.5 Q 588.1 382.7, 588.8 383.0 Q 589.0 383.0, 589.1 383.1 L 589.5 383.2 Q 590.2 383.4, 590.6 383.7 Q 591.0 383.9, 591.3 384.4 Q 591.5 384.8, 591.5 385.6 Q 591.5 386.7, 590.7 387.4 Q 589.9 388.0, 588.5 388.0 Q 587.7 388.0, 587.1 387.9 Q 586.4 387.7, 585.7 387.4 L 586.2 386.2 " fill="#000000"/>
<path class="legend" d="M 592.4 380.8 L 592.4 379.7 L 594.0 379.7 L 594.2 377.3 L 595.3 377.3 L 595.3 379.7 L 597.9 379.7 L 597.9 380.8 L 595.3 380.8 L 595.3 385.4 Q 595.3 386.8, 596.5 386.8 Q 597.0 386.8, 597.7 386.6 L 598.0 387.6 Q 597.1 388.0, 596.3 388.0 Q 595.2 388.0, 594.5 387.3 Q 593.8 386.7, 593.8 385.4 L 593.8 380.8 L 592.4 380.8 " fill="#000000"/>
<path class="legend" d="" fill="#000000"/>
<path class="legend" d="M 603.7 380.9 L 611.0 380.9 L 611.0 382.1 L 603.7 382.1 L 603.7 380.9 M 603.7 384.4 L 611.0 384.4 L 611.0 385.5 L 603.7 385.5 L 603.7 384.4 " fill="#000000"/>
<path class="legend" d="" fill="#000000"/>
<path class="legend" d="M 622.0 388.0 Q 619.9 388.0, 618.9 386.5 Q 617.8 384.9, 617.8 382.2 Q 617.8 379.5, 618.9 378.0 Q 619.9 376.4, 622.0 376.4 Q 624.1 376.4, 625.1 378.0 Q 626.1 379.5, 626.1 382.2 Q 626.1 384.9, 625.1 386.5 Q 624.1 388.0, 622.0 388.0 M 622.0 386.7 Q 623.2 386.7, 623.9 385.6 Q 624.5 384.4, 624.5 382.2 Q 624.5 380.0, 623.9 378.8 Q 623.2 377.7, 622.0 377.7 Q 620.8 377.7, 620.1 378.8 Q 619.4 380.0, 619.4 382.2 Q 619.4 384.4, 620.1 385.6 Q 620.8 386.7, 622.0 386.7 " fill="#000000"/>
<path class="legend" d="M 627.2 386.3 L 628.8 386.3 L 628.8 387.9 L 627.2 387.9 L 627.2 386.3 " fill="#000000"/>
<path class="legend" d="M 634.2 380.8 Q 635.2 380.8, 636.0 381.2 Q 636.8 381.7, 637.2 382.5 Q 637.7 383.2, 637.7 384.2 Q 637.7 385.3, 637.2 386.2 Q 636.7 387.1, 635.8 387.5 Q 634.9 388.0, 633.8 388.0 Q 631.8 388.0, 630.8 386.7 Q 629.8 385.3, 629.8 382.6 Q 629.8 379.6, 631.0 378.0 Q 632.3 376.4, 634.7 376.4 Q 635.4 376.4, 636.0 376.6 Q 636.6 376.8, 637.2 377.1 L 636.6 378.2 Q 635.7 377.7, 634.7 377.7 Q 633.1 377.7, 632.3 378.8 Q 631.5 379.8, 631.4 381.9 Q 632.0 381.4, 632.7 381.1 Q 633.4 380.8, 634.2 380.8 M 633.9 386.7 Q 634.5 386.7, 635.0 386.4 Q 635.5 386.1, 635.8 385.5 Q 636.1 384.9, 636.1 384.3 Q 636.1 383.2, 635.5 382.7 Q 634.9 382.1, 633.9 382.1 Q 633.3 382.1, 632.6 382.4 Q 631.9 382.7, 631.4 383.1 Q 631.5 385.0, 632.1 385.9 Q 632.7 386.7, 633.9 386.7 " fill="#000000"/>
<path class="legend" d="M 644.0 381.9 Q 645.1 382.2, 645.6 383.0 Q 646.1 383.7, 646.1 384.8 Q 646.1 385.7, 645.7 386.5 Q 645.2 387.2, 644.3 387.6 Q 643.4 388.0, 642.3 388.0 Q 641.1 388.0, 640.1 387.6 Q 639.3 387.2, 638.5 386.3 L 639.4 385.4 Q 640.1 386.2, 640.7 386.5 Q 641.3 386.8, 642.3 386.8 Q 643.3 386.8, 643.9 386.2 Q 644.5 385.7, 644.5 384.8 Q 644.5 383.6, 643.9 383.1 Q 643.3 382.6, 641.9 382.6 L 641.0 382.6 L 641.0 381.4 L 641.8 381.4 Q 643.0 381.4, 643.7 380.9 Q 644.3 380.3, 644.3 379.3 Q 644.3 378.6, 643.8 378.2 Q 643.2 377.7, 642.3 377.7 Q 641.3 377.7, 640.8 378.0 Q 640.2 378.4, 639.7 379.2 L 638.6 378.6 Q 639.0 377.7, 640.0 377.1 Q 640.9 376.4, 642.3 376.4 Q 644.0 376.4, 644.9 377.2 Q 645.9 378.0, 645.9 379.3 Q 645.9 380.2, 645.4 380.9 Q 644.9 381.6, 644.0 381.9 " fill="#000000"/>
<path class="legend" d="M 647.1 378.7 Q 647.5 377.6, 648.5 377.0 Q 649.5 376.4, 650.9 376.4 Q 652.6 376.4, 653.6 377.4 Q 654.5 378.3, 654.5 379.9 Q 654.5 381.6, 653.3 383.2 Q 652.1 384.8, 649.5 386.6 L 654.7 386.6 L 654.7 387.9 L 647.1 387.9 L 647.1 386.8 Q 649.2 385.3, 650.5 384.2 Q 651.7 383.1, 652.3 382.1 Q 652.9 381.1, 652.9 380.0 Q 652.9 378.9, 652.4 378.3 Q 651.8 377.7, 650.9 377.7 Q 650.0 377.7, 649.4 378.1 Q 648.8 378.4, 648.3 379.3 L 647.1 378.7 " fill="#000000"/>
<path class="legend" d="M 661.1 381.9 Q 662.2 382.2, 662.8 383.0 Q 663.3 383.7, 663.3 384.8 Q 663.3 385.7, 662.8 386.5 Q 662.3 387.2, 661.5 387.6 Q 660.6 388.0, 659.4 388.0 Q 658.2 388.0, 657.3 387.6 Q 656.4 387.2, 655.7 386.3 L 656.6 385.4 Q 657.3 386.2, 657.9 386.5 Q 658.5 386.8, 659.4 386.8 Q 660.5 386.8, 661.1 386.2 Q 661.7 385.7, 661.7 384.8 Q 661.7 383.6, 661.0 383.1 Q 660.4 382.6, 659.0 382.6 L 658.2 382.6 L 658.2 381.4 L 658.9 381.4 Q 660.1 381.4, 660.8 380.9 Q 661.5 380.3, 661.5 379.3 Q 661.5 378.6, 660.9 378.2 Q 660.4 377.7, 659.4 377.7 Q 658.5 377.7, 657.9 378.0 Q 657.3 378.4, 656.9 379.2 L 655.8 378.6 Q 656.2 377.7, 657.1 377.1 Q 658.1 376.4, 659.4 376.4 Q 661.1 376.4, 662.1 377.2 Q 663.1 378.0, 663.1 379.3 Q 663.1 380.2, 662.6 380.9 Q 662.1 381.6, 661.1 381.9 " fill="#000000"/>
<path class="bond-0 atom-0 atom-1" d="M 915.5,75.5 L 931.3,144.6" style="fill:none;fill-rule:evenodd;stroke:#000000;stroke-width:2.0px;stroke-linecap:butt;stroke-linejoin:miter;stroke-opacity:1"/>
<path class="bond-0 atom-0 atom-1" d="M 901.7,78.6 L 917.4,147.8" style="fill:none;fill-rule:evenodd;stroke:#000000;stroke-width:2.0px;stroke-linecap:butt;stroke-linejoin:miter;stroke-opacity:1"/>
<path class="bond-1 atom-1 atom-2" d="M 924.3,146.2 L 872.3,194.4" style="fill:none;fill-rule:evenodd;stroke:#000000;stroke-width:2.0px;stroke-linecap:butt;stroke-linejoin:miter;stroke-opacity:1"/>
<path class="bond-2 atom-2 atom-3" d="M 872.3,194.4 L 888.1,263.6" style="fill:none;fill-rule:evenodd;stroke:#000000;stroke-width:2.0px;stroke-linecap:butt;stroke-linejoin:miter;stroke-opacity:1"/>
<path class="bond-3 atom-3 atom-4" d="M 888.1,263.6 L 955.9,284.5" style="fill:none;fill-rule:evenodd;stroke:#000000;stroke-width:2.0px;stroke-linecap:butt;stroke-linejoin:miter;stroke-opacity:1"/>
<path class="bond-4 atom-4 atom-5" d="M 955.9,284.5 L 1007.9,236.3" style="fill:none;fill-rule:evenodd;stroke:#000000;stroke-width:2.0px;stroke-linecap:butt;stroke-linejoin:miter;stroke-opacity:1"/>
<path class="bond-5 atom-5 atom-6" d="M 1007.9,236.3 L 1075.7,257.2" style="fill:none;fill-rule:evenodd;stroke:#000000;stroke-width:2.0px;stroke-linecap:butt;stroke-linejoin:miter;stroke-opacity:1"/>
<path class="bond-5 atom-5 atom-6" d="M 1022.2,225.9 L 1069.7,240.5" style="fill:none;fill-rule:evenodd;stroke:#000000;stroke-width:2.0px;stroke-linecap:butt;stroke-linejoin:miter;stroke-opacity:1"/>
<path class="bond-6 atom-6 atom-7" d="M 1075.7,257.2 L 1127.7,209.0" style="fill:none;fill-rule:evenodd;stroke:#000000;stroke-width:2.0px;stroke-linecap:butt;stroke-linejoin:miter;stroke-opacity:1"/>
<path class="bond-7 atom-7 atom-8" d="M 1127.7,209.0 L 1111.9,139.8" style="fill:none;fill-rule:evenodd;stroke:#000000;stroke-width:2.0px;stroke-linecap:butt;stroke-linejoin:miter;stroke-opacity:1"/>
<path class="bond-7 atom-7 atom-8" d="M 1111.5,201.8 L 1100.4,153.3" style="fill:none;fill-rule:evenodd;stroke:#000000;stroke-width:2.0px;stroke-linecap:butt;stroke-linejoin:miter;stroke-opacity:1"/>
<path class="bond-8 atom-8 atom-9" d="M 1111.9,139.8 L 1044.1,118.9" style="fill:none;fill-rule:evenodd;stroke:#000000;stroke-width:2.0px;stroke-linecap:butt;stroke-linejoin:miter;stroke-opacity:1"/>
<path class="bond-9 atom-9 atom-10" d="M 1044.1,118.9 L 992.1,167.1" style="fill:none;fill-rule:evenodd;stroke:#000000;stroke-width:2.0px;stroke-linecap:butt;stroke-linejoin:miter;stroke-opacity:1"/>
<path class="bond-9 atom-9 atom-10" d="M 1046.0,136.5 L 1009.6,170.3" style="fill:none;fill-rule:evenodd;stroke:#000000;stroke-width:2.0px;stroke-linecap:butt;stroke-linejoin:miter;stroke-opacity:1"/>
<path class="bond-10 atom-10 atom-1" d="M 992.1,167.1 L 924.3,146.2" style="fill:none;fill-rule:evenodd;stroke:#000000;stroke-width:2.0px;stroke-linecap:butt;stroke-linejoin:miter;stroke-opacity:1"/>
<path class="bond-11 atom-10 atom-5" d="M 992.1,167.1 L 1007.9,236.3" style="fill:none;fill-rule:evenodd;stroke:#000000;stroke-width:2.0px;stroke-linecap:butt;stroke-linejoin:miter;stroke-opacity:1"/>
<path class="legend" d="M 968.7 365.4 L 968.9 366.5 Q 969.7 365.3, 971.1 365.3 Q 971.6 365.3, 972.2 365.4 L 972.0 366.8 Q 971.3 366.6, 970.9 366.6 Q 970.2 366.6, 969.8 366.9 Q 969.3 367.1, 969.0 367.8 L 969.0 373.6 L 967.5 373.6 L 967.5 365.4 L 968.7 365.4 " fill="#000000"/>
<path class="legend" d="M 972.4 369.5 Q 972.4 367.5, 973.4 366.4 Q 974.4 365.3, 976.3 365.3 Q 978.1 365.3, 978.9 366.4 Q 979.7 367.4, 979.7 369.5 L 979.7 369.7 L 974.0 369.7 Q 974.0 371.1, 974.6 371.8 Q 975.2 372.6, 976.4 372.6 Q 977.1 372.6, 977.6 372.4 Q 978.2 372.3, 979.0 372.0 L 979.4 373.0 Q 978.6 373.4, 977.8 373.6 Q 977.1 373.8, 976.3 373.8 Q 974.5 373.8, 973.5 372.6 Q 972.4 371.5, 972.4 369.5 M 976.3 366.4 Q 975.3 366.4, 974.8 367.0 Q 974.2 367.5, 974.0 368.6 L 978.1 368.6 Q 978.0 367.5, 977.6 367.0 Q 977.1 366.4, 976.3 366.4 " fill="#000000"/>
<path class="legend" d="M 980.3 371.4 Q 980.3 370.1, 981.4 369.4 Q 982.4 368.7, 984.4 368.7 L 985.6 368.7 L 985.6 368.3 Q 985.6 367.3, 985.2 366.9 Q 984.7 366.4, 983.7 366.4 Q 983.1 366.4, 982.5 366.6 Q 982.0 366.7, 981.2 367.0 L 980.8 366.0 Q 982.3 365.3, 983.7 365.3 Q 985.5 365.3, 986.3 366.0 Q 987.1 366.8, 987.1 368.4 L 987.1 373.6 L 985.9 373.6 Q 985.9 373.6, 985.9 373.3 Q 985.8 373.1, 985.7 372.7 Q 984.6 373.8, 983.0 373.8 Q 981.8 373.8, 981.1 373.2 Q 980.3 372.5, 980.3 371.4 M 981.8 371.4 Q 981.8 372.0, 982.2 372.3 Q 982.6 372.6, 983.3 372.6 Q 984.0 372.6, 984.6 372.4 Q 985.2 372.0, 985.6 371.5 L 985.6 369.8 L 984.5 369.8 Q 983.2 369.8, 982.5 370.2 Q 981.8 370.6, 981.8 371.4 " fill="#000000"/>
<path class="legend" d="M 988.3 369.5 Q 988.3 367.5, 989.3 366.4 Q 990.3 365.3, 992.3 365.3 Q 994.1 365.3, 995.1 366.6 L 994.1 367.4 Q 993.7 366.9, 993.3 366.7 Q 992.8 366.4, 992.3 366.4 Q 991.1 366.4, 990.5 367.2 Q 989.9 368.0, 989.9 369.5 Q 989.9 371.0, 990.5 371.8 Q 991.2 372.6, 992.4 372.6 Q 993.0 372.6, 993.5 372.4 Q 994.0 372.3, 994.5 372.0 L 994.9 373.0 Q 993.8 373.7, 992.2 373.7 Q 990.3 373.7, 989.3 372.6 Q 988.3 371.5, 988.3 369.5 " fill="#000000"/>
<path class="legend" d="M 995.5 366.6 L 995.5 365.4 L 997.1 365.4 L 997.3 363.0 L 998.4 363.0 L 998.4 365.4 L 1000.9 365.4 L 1000.9 366.6 L 998.4 366.6 L 998.4 371.1 Q 998.4 372.5, 999.6 372.5 Q 1000.1 372.5, 1000.8 372.3 L 1001.1 373.4 Q 1000.2 373.7, 999.4 373.7 Q 998.3 373.7, 997.6 373.1 Q 996.9 372.4, 996.9 371.2 L 996.9 366.6 L 995.5 366.6 " fill="#000000"/>
<path class="legend" d="M 1009.6 374.4 L 1009.6 375.7 L 1001.5 375.7 L 1001.5 374.4 L 1009.6 374.4 " fill="#000000"/>
<path class="legend" d="M 1010.3 372.4 L 1012.7 372.4 L 1012.7 363.9 L 1010.0 364.7 L 1009.6 363.8 L 1013.1 362.2 L 1014.2 362.4 L 1014.2 372.4 L 1016.5 372.4 L 1016.5 373.6 L 1010.3 373.6 L 1010.3 372.4 " fill="#000000"/>
<path class="legend" d="M 1022.6 367.7 Q 1023.7 368.0, 1024.2 368.7 Q 1024.8 369.4, 1024.8 370.5 Q 1024.8 371.5, 1024.3 372.2 Q 1023.8 373.0, 1022.9 373.4 Q 1022.0 373.8, 1020.9 373.8 Q 1019.7 373.8, 1018.8 373.4 Q 1017.9 372.9, 1017.1 372.1 L 1018.0 371.2 Q 1018.8 371.9, 1019.3 372.2 Q 1019.9 372.5, 1020.9 372.5 Q 1021.9 372.5, 1022.5 372.0 Q 1023.2 371.4, 1023.2 370.5 Q 1023.2 369.4, 1022.5 368.8 Q 1021.9 368.3, 1020.5 368.3 L 1019.6 368.3 L 1019.6 367.2 L 1020.4 367.2 Q 1021.6 367.2, 1022.3 366.6 Q 1022.9 366.1, 1022.9 365.1 Q 1022.9 364.3, 1022.4 363.9 Q 1021.8 363.5, 1020.9 363.5 Q 1020.0 363.5, 1019.4 363.8 Q 1018.8 364.1, 1018.3 365.0 L 1017.2 364.4 Q 1017.6 363.4, 1018.6 362.8 Q 1019.6 362.2, 1020.9 362.2 Q 1022.6 362.2, 1023.5 363.0 Q 1024.5 363.7, 1024.5 365.1 Q 1024.5 366.0, 1024.0 366.6 Q 1023.5 367.3, 1022.6 367.7 " fill="#000000"/>
<path class="legend" d="M 1026.3 372.4 L 1028.8 372.4 L 1028.8 363.9 L 1026.1 364.7 L 1025.7 363.8 L 1029.2 362.2 L 1030.3 362.4 L 1030.3 372.4 L 1032.5 372.4 L 1032.5 373.6 L 1026.3 373.6 L 1026.3 372.4 " fill="#000000"/>
<path class="legend" d="M 937.6 383.8 Q 937.6 381.8, 938.6 380.7 Q 939.6 379.5, 941.6 379.5 Q 943.4 379.5, 944.4 380.9 L 943.4 381.6 Q 943.0 381.2, 942.6 380.9 Q 942.1 380.7, 941.6 380.7 Q 940.4 380.7, 939.8 381.5 Q 939.2 382.3, 939.2 383.8 Q 939.2 385.3, 939.8 386.1 Q 940.5 386.8, 941.7 386.8 Q 942.3 386.8, 942.8 386.7 Q 943.3 386.5, 943.8 386.3 L 944.3 387.3 Q 943.1 388.0, 941.5 388.0 Q 939.6 388.0, 938.6 386.9 Q 937.6 385.7, 937.6 383.8 " fill="#000000"/>
<path class="legend" d="M 944.8 383.8 Q 944.8 381.7, 945.8 380.6 Q 946.8 379.5, 948.7 379.5 Q 950.5 379.5, 951.3 380.6 Q 952.1 381.7, 952.1 383.7 L 952.1 384.0 L 946.3 384.0 Q 946.4 385.4, 947.0 386.1 Q 947.6 386.8, 948.8 386.8 Q 949.4 386.8, 950.0 386.7 Q 950.6 386.5, 951.3 386.2 L 951.8 387.2 Q 950.9 387.6, 950.2 387.8 Q 949.5 388.0, 948.7 388.0 Q 946.8 388.0, 945.8 386.9 Q 944.8 385.8, 944.8 383.8 M 948.7 380.7 Q 947.7 380.7, 947.1 381.2 Q 946.6 381.8, 946.4 382.8 L 950.5 382.8 Q 950.4 381.7, 949.9 381.2 Q 949.5 380.7, 948.7 380.7 " fill="#000000"/>
<path class="legend" d="M 957.0 379.5 Q 958.3 379.5, 959.0 380.3 Q 959.7 381.0, 959.7 382.4 L 959.7 387.9 L 958.2 387.9 L 958.2 382.6 Q 958.2 381.6, 957.8 381.2 Q 957.4 380.7, 956.6 380.7 Q 955.8 380.7, 955.2 381.1 Q 954.6 381.4, 954.2 382.0 L 954.2 387.9 L 952.7 387.9 L 952.7 379.7 L 953.9 379.7 L 954.1 380.8 Q 955.2 379.5, 957.0 379.5 " fill="#000000"/>
<path class="legend" d="M 960.9 380.8 L 960.9 379.7 L 962.5 379.7 L 962.7 377.3 L 963.9 377.3 L 963.9 379.7 L 966.4 379.7 L 966.4 380.8 L 963.9 380.8 L 963.9 385.4 Q 963.9 386.8, 965.1 386.8 Q 965.5 386.8, 966.2 386.6 L 966.5 387.6 Q 965.6 388.0, 964.8 388.0 Q 963.7 388.0, 963.0 387.3 Q 962.3 386.7, 962.3 385.4 L 962.3 380.8 L 960.9 380.8 " fill="#000000"/>
<path class="legend" d="M 975.1 388.7 L 975.1 390.0 L 966.9 390.0 L 966.9 388.7 L 975.1 388.7 " fill="#000000"/>
<path class="legend" d="M 982.5 375.7 L 982.5 387.9 L 981.3 387.9 L 981.1 386.9 Q 980.2 388.0, 978.7 388.0 Q 977.0 388.0, 976.0 387.0 Q 975.1 385.9, 975.1 383.9 Q 975.1 381.8, 976.2 380.7 Q 977.3 379.5, 979.3 379.5 Q 980.1 379.5, 981.0 379.7 L 981.0 375.7 L 982.5 375.7 M 978.8 386.8 Q 979.6 386.8, 980.2 386.4 Q 980.8 385.9, 981.0 385.1 L 981.0 380.9 Q 980.2 380.7, 979.3 380.7 Q 978.0 380.7, 977.3 381.6 Q 976.6 382.4, 976.6 383.9 Q 976.6 385.3, 977.1 386.1 Q 977.7 386.8, 978.8 386.8 " fill="#000000"/>
<path class="legend" d="M 983.8 376.6 L 985.3 376.6 L 985.3 378.0 L 983.8 378.0 L 983.8 376.6 M 983.8 379.7 L 985.3 379.7 L 985.3 387.9 L 983.8 387.9 L 983.8 379.7 " fill="#000000"/>
<path class="legend" d="M 987.1 386.2 Q 987.8 386.5, 988.3 386.6 Q 988.9 386.8, 989.4 386.8 Q 990.2 386.8, 990.6 386.5 Q 991.0 386.2, 991.0 385.6 Q 991.0 385.2, 990.7 385.0 Q 990.5 384.8, 990.3 384.6 Q 990.0 384.5, 989.3 384.3 Q 989.2 384.3, 988.4 384.0 Q 987.7 383.7, 987.3 383.2 Q 986.9 382.7, 986.9 381.9 Q 986.9 380.9, 987.7 380.2 Q 988.5 379.5, 989.9 379.5 Q 990.6 379.5, 991.1 379.7 Q 991.7 379.8, 992.3 380.0 L 991.9 381.2 Q 991.4 381.0, 990.9 380.9 Q 990.4 380.8, 989.9 380.8 Q 989.2 380.8, 988.8 381.1 Q 988.4 381.4, 988.4 381.8 Q 988.4 382.3, 988.7 382.5 Q 989.0 382.7, 989.7 383.0 Q 989.9 383.0, 990.0 383.1 L 990.4 383.2 Q 991.1 383.4, 991.5 383.7 Q 991.9 383.9, 992.2 384.4 Q 992.5 384.8, 992.5 385.6 Q 992.5 386.7, 991.6 387.4 Q 990.8 388.0, 989.5 388.0 Q 988.7 388.0, 988.0 387.9 Q 987.3 387.7, 986.7 387.4 L 987.1 386.2 " fill="#000000"/>
<path class="legend" d="M 993.3 380.8 L 993.3 379.7 L 994.9 379.7 L 995.1 377.3 L 996.3 377.3 L 996.3 379.7 L 998.8 379.7 L 998.8 380.8 L 996.3 380.8 L 996.3 385.4 Q 996.3 386.8, 997.5 386.8 Q 997.9 386.8, 998.7 386.6 L 998.9 387.6 Q 998.0 388.0, 997.2 388.0 Q 996.1 388.0, 995.4 387.3 Q 994.8 386.7, 994.8 385.4 L 994.8 380.8 L 993.3 380.8 " fill="#000000"/>
<path class="legend" d="" fill="#000000"/>
<path class="legend" d="M 1004.6 380.9 L 1012.0 380.9 L 1012.0 382.1 L 1004.6 382.1 L 1004.6 380.9 M 1004.6 384.4 L 1012.0 384.4 L 1012.0 385.5 L 1004.6 385.5 L 1004.6 384.4 " fill="#000000"/>
<path class="legend" d="" fill="#000000"/>
<path class="legend" d="M 1022.9 388.0 Q 1020.8 388.0, 1019.8 386.5 Q 1018.8 384.9, 1018.8 382.2 Q 1018.8 379.5, 1019.8 378.0 Q 1020.8 376.4, 1022.9 376.4 Q 1025.0 376.4, 1026.0 378.0 Q 1027.0 379.5, 1027.0 382.2 Q 1027.0 384.9, 1026.0 386.5 Q 1025.0 388.0, 1022.9 388.0 M 1022.9 386.7 Q 1024.1 386.7, 1024.8 385.6 Q 1025.4 384.4, 1025.4 382.2 Q 1025.4 380.0, 1024.8 378.8 Q 1024.1 377.7, 1022.9 377.7 Q 1021.7 377.7, 1021.0 378.8 Q 1020.4 380.0, 1020.4 382.2 Q 1020.4 384.4, 1021.0 385.6 Q 1021.7 386.7, 1022.9 386.7 " fill="#000000"/>
<path class="legend" d="M 1028.1 386.3 L 1029.7 386.3 L 1029.7 387.9 L 1028.1 387.9 L 1028.1 386.3 " fill="#000000"/>
<path class="legend" d="M 1036.7 377.8 L 1030.7 377.8 L 1030.7 376.6 L 1038.2 376.6 L 1038.2 377.7 L 1033.7 387.9 L 1032.1 387.9 L 1036.7 377.8 " fill="#000000"/>
<path class="legend" d="M 1042.9 388.0 Q 1040.8 388.0, 1039.7 386.5 Q 1038.7 384.9, 1038.7 382.2 Q 1038.7 379.5, 1039.7 378.0 Q 1040.8 376.4, 1042.9 376.4 Q 1044.9 376.4, 1046.0 378.0 Q 1047.0 379.5, 1047.0 382.2 Q 1047.0 384.9, 1046.0 386.5 Q 1044.9 388.0, 1042.9 388.0 M 1042.9 386.7 Q 1044.1 386.7, 1044.7 385.6 Q 1045.4 384.4, 1045.4 382.2 Q 1045.4 380.0, 1044.7 378.8 Q 1044.1 377.7, 1042.9 377.7 Q 1041.6 377.7, 1041.0 378.8 Q 1040.3 380.0, 1040.3 382.2 Q 1040.3 384.4, 1041.0 385.6 Q 1041.6 386.7, 1042.9 386.7 " fill="#000000"/>
<path class="legend" d="M 1048.7 386.6 L 1051.1 386.6 L 1051.1 378.1 L 1048.4 379.0 L 1048.0 378.0 L 1051.5 376.5 L 1052.6 376.7 L 1052.6 386.6 L 1054.9 386.6 L 1054.9 387.9 L 1048.7 387.9 L 1048.7 386.6 " fill="#000000"/>
<path class="legend" d="M 1056.2 386.6 L 1058.6 386.6 L 1058.6 378.1 L 1055.9 379.0 L 1055.5 378.0 L 1059.0 376.5 L 1060.1 376.7 L 1060.1 386.6 L 1062.4 386.6 L 1062.4 387.9 L 1056.2 387.9 L 1056.2 386.6 " fill="#000000"/>
</svg>