<svg xmlns="http://www.w3.org/2000/svg" xmlns:rdkit="http://www.rdkit.org/xml" xmlns:xlink="http://www.w3.org/1999/xlink" version="1.1" baseProfile="full" xml:space="preserve" width="2000px" height="400px" viewBox="0 0 2000 400">
<!-- END OF HEADER -->
<rect style="opacity:1.0;fill:#FFFFFF;stroke:none" width="2000.0" height="400.0" x="0.0" y="0.0"> </rect>
<path class="bond-0 atom-0 atom-1" d="M 199.0,103.4 L 214.9,128.9" style="fill:none;fill-rule:evenodd;stroke:#000000;stroke-width:2.0px;stroke-linecap:butt;stroke-linejoin:miter;stroke-opacity:1"/>
<path class="bond-0 atom-0 atom-1" d="M 193.9,106.6 L 209.8,132.0" style="fill:none;fill-rule:evenodd;stroke:#000000;stroke-width:2.0px;stroke-linecap:butt;stroke-linejoin:miter;stroke-opacity:1"/>
<path class="bond-1 atom-1 atom-2" d="M 212.4,130.5 L 242.4,129.3" style="fill:none;fill-rule:evenodd;stroke:#000000;stroke-width:2.0px;stroke-linecap:butt;stroke-linejoin:miter;stroke-opacity:1"/>
<path class="bond-2 atom-2 atom-3" d="M 242.4,129.3 L 258.4,154.8" style="fill:none;fill-rule:evenodd;stroke:#000000;stroke-width:2.0px;stroke-linecap:butt;stroke-linejoin:miter;stroke-opacity:1"/>
<path class="bond-3 atom-3 atom-4" d="M 258.4,154.8 L 270.9,154.3" style="fill:none;fill-rule:evenodd;stroke:#000000;stroke-width:2.0px;stroke-linecap:butt;stroke-linejoin:miter;stroke-opacity:1"/>
<path class="bond-3 atom-3 atom-4" d="M 270.9,154.3 L 283.5,153.9" style="fill:none;fill-rule:evenodd;stroke:#FF0000;stroke-width:2.0px;stroke-linecap:butt;stroke-linejoin:miter;stroke-opacity:1"/>
<path class="bond-4 atom-4 atom-5" d="M 291.8,159.1 L 296.4,166.5" style="fill:none;fill-rule:evenodd;stroke:#FF0000;stroke-width:2.0px;stroke-linecap:butt;stroke-linejoin:miter;stroke-opacity:1"/>
<path class="bond-4 atom-4 atom-5" d="M 296.4,166.5 L 301.1,173.9" style="fill:none;fill-rule:evenodd;stroke:#000000;stroke-width:2.0px;stroke-linecap:butt;stroke-linejoin:miter;stroke-opacity:1"/>
<path class="bond-5 atom-5 atom-6" d="M 308.9,176.3 L 329.8,163.2" style="fill:none;fill-rule:evenodd;stroke:#000000;stroke-width:2.0px;stroke-linecap:butt;stroke-linejoin:miter;stroke-opacity:1"/>
<path class="bond-6 atom-6 atom-7" d="M 329.8,163.2 L 356.4,177.2" style="fill:none;fill-rule:evenodd;stroke:#000000;stroke-width:2.0px;stroke-linecap:butt;stroke-linejoin:miter;stroke-opacity:1"/>
<path class="bond-6 atom-6 atom-7" d="M 336.6,160.0 L 355.2,169.8" style="fill:none;fill-rule:evenodd;stroke:#000000;stroke-width:2.0px;stroke-linecap:butt;stroke-linejoin:miter;stroke-opacity:1"/>
<path class="bond-7 atom-7 atom-8" d="M 356.4,177.2 L 381.8,161.3" style="fill:none;fill-rule:evenodd;stroke:#000000;stroke-width:2.0px;stroke-linecap:butt;stroke-linejoin:miter;stroke-opacity:1"/>
<path class="bond-8 atom-8 atom-9" d="M 381.8,161.3 L 380.7,131.2" style="fill:none;fill-rule:evenodd;stroke:#000000;stroke-width:2.0px;stroke-linecap:butt;stroke-linejoin:miter;stroke-opacity:1"/>
<path class="bond-8 atom-8 atom-9" d="M 375.6,157.0 L 374.9,136.0" style="fill:none;fill-rule:evenodd;stroke:#000000;stroke-width:2.0px;stroke-linecap:butt;stroke-linejoin:miter;stroke-opacity:1"/>
<path class="bond-9 atom-9 atom-10" d="M 380.7,131.2 L 354.2,117.2" style="fill:none;fill-rule:evenodd;stroke:#000000;stroke-width:2.0px;stroke-linecap:butt;stroke-linejoin:miter;stroke-opacity:1"/>
<path class="bond-10 atom-10 atom-11" d="M 354.2,117.2 L 328.7,133.1" style="fill:none;fill-rule:evenodd;stroke:#000000;stroke-width:2.0px;stroke-linecap:butt;stroke-linejoin:miter;stroke-opacity:1"/>
<path class="bond-10 atom-10 atom-11" d="M 353.5,124.7 L 335.7,135.8" style="fill:none;fill-rule:evenodd;stroke:#000000;stroke-width:2.0px;stroke-linecap:butt;stroke-linejoin:miter;stroke-opacity:1"/>
<path class="bond-11 atom-5 atom-12" d="M 307.7,184.4 L 320.3,204.6" style="fill:none;fill-rule:evenodd;stroke:#000000;stroke-width:2.0px;stroke-linecap:butt;stroke-linejoin:miter;stroke-opacity:1"/>
<path class="bond-12 atom-12 atom-13" d="M 320.3,204.6 L 306.3,231.1" style="fill:none;fill-rule:evenodd;stroke:#000000;stroke-width:2.0px;stroke-linecap:butt;stroke-linejoin:miter;stroke-opacity:1"/>
<path class="bond-12 atom-12 atom-13" d="M 323.5,211.4 L 313.7,230.0" style="fill:none;fill-rule:evenodd;stroke:#000000;stroke-width:2.0px;stroke-linecap:butt;stroke-linejoin:miter;stroke-opacity:1"/>
<path class="bond-13 atom-13 atom-14" d="M 306.3,231.1 L 322.2,256.6" style="fill:none;fill-rule:evenodd;stroke:#000000;stroke-width:2.0px;stroke-linecap:butt;stroke-linejoin:miter;stroke-opacity:1"/>
<path class="bond-14 atom-14 atom-15" d="M 322.2,256.6 L 352.3,255.5" style="fill:none;fill-rule:evenodd;stroke:#000000;stroke-width:2.0px;stroke-linecap:butt;stroke-linejoin:miter;stroke-opacity:1"/>
<path class="bond-14 atom-14 atom-15" d="M 326.5,250.4 L 347.5,249.6" style="fill:none;fill-rule:evenodd;stroke:#000000;stroke-width:2.0px;stroke-linecap:butt;stroke-linejoin:miter;stroke-opacity:1"/>
<path class="bond-15 atom-15 atom-16" d="M 352.3,255.5 L 366.3,228.9" style="fill:none;fill-rule:evenodd;stroke:#000000;stroke-width:2.0px;stroke-linecap:butt;stroke-linejoin:miter;stroke-opacity:1"/>
<path class="bond-16 atom-16 atom-17" d="M 366.3,228.9 L 350.4,203.5" style="fill:none;fill-rule:evenodd;stroke:#000000;stroke-width:2.0px;stroke-linecap:butt;stroke-linejoin:miter;stroke-opacity:1"/>
<path class="bond-16 atom-16 atom-17" d="M 358.8,228.3 L 347.7,210.5" style="fill:none;fill-rule:evenodd;stroke:#000000;stroke-width:2.0px;stroke-linecap:butt;stroke-linejoin:miter;stroke-opacity:1"/>
<path class="bond-17 atom-5 atom-18" d="M 299.8,182.0 L 278.9,195.1" style="fill:none;fill-rule:evenodd;stroke:#000000;stroke-width:2.0px;stroke-linecap:butt;stroke-linejoin:miter;stroke-opacity:1"/>
<path class="bond-18 atom-18 atom-19" d="M 278.9,195.1 L 294.9,220.6" style="fill:none;fill-rule:evenodd;stroke:#000000;stroke-width:2.0px;stroke-linecap:butt;stroke-linejoin:miter;stroke-opacity:1"/>
<path class="bond-19 atom-18 atom-20" d="M 278.9,195.1 L 262.9,169.7" style="fill:none;fill-rule:evenodd;stroke:#000000;stroke-width:2.0px;stroke-linecap:butt;stroke-linejoin:miter;stroke-opacity:1"/>
<path class="bond-20 atom-18 atom-21" d="M 278.9,195.1 L 253.5,211.1" style="fill:none;fill-rule:evenodd;stroke:#000000;stroke-width:2.0px;stroke-linecap:butt;stroke-linejoin:miter;stroke-opacity:1"/>
<path class="bond-21 atom-1 atom-22" d="M 212.4,130.5 L 198.3,157.0" style="fill:none;fill-rule:evenodd;stroke:#000000;stroke-width:2.0px;stroke-linecap:butt;stroke-linejoin:miter;stroke-opacity:1"/>
<path class="bond-22 atom-22 atom-23" d="M 198.3,157.0 L 185.8,157.5" style="fill:none;fill-rule:evenodd;stroke:#000000;stroke-width:2.0px;stroke-linecap:butt;stroke-linejoin:miter;stroke-opacity:1"/>
<path class="bond-22 atom-22 atom-23" d="M 185.8,157.5 L 173.2,157.9" style="fill:none;fill-rule:evenodd;stroke:#FF0000;stroke-width:2.0px;stroke-linecap:butt;stroke-linejoin:miter;stroke-opacity:1"/>
<path class="bond-23 atom-23 atom-24" d="M 165.4,163.5 L 159.8,174.1" style="fill:none;fill-rule:evenodd;stroke:#FF0000;stroke-width:2.0px;stroke-linecap:butt;stroke-linejoin:miter;stroke-opacity:1"/>
<path class="bond-23 atom-23 atom-24" d="M 159.8,174.1 L 154.2,184.7" style="fill:none;fill-rule:evenodd;stroke:#000000;stroke-width:2.0px;stroke-linecap:butt;stroke-linejoin:miter;stroke-opacity:1"/>
<path class="bond-24 atom-24 atom-25" d="M 156.8,183.1 L 163.1,193.1" style="fill:none;fill-rule:evenodd;stroke:#000000;stroke-width:2.0px;stroke-linecap:butt;stroke-linejoin:miter;stroke-opacity:1"/>
<path class="bond-24 atom-24 atom-25" d="M 163.1,193.1 L 169.4,203.2" style="fill:none;fill-rule:evenodd;stroke:#FF0000;stroke-width:2.0px;stroke-linecap:butt;stroke-linejoin:miter;stroke-opacity:1"/>
<path class="bond-24 atom-24 atom-25" d="M 151.7,186.3 L 158.0,196.3" style="fill:none;fill-rule:evenodd;stroke:#000000;stroke-width:2.0px;stroke-linecap:butt;stroke-linejoin:miter;stroke-opacity:1"/>
<path class="bond-24 atom-24 atom-25" d="M 158.0,196.3 L 164.3,206.4" style="fill:none;fill-rule:evenodd;stroke:#FF0000;stroke-width:2.0px;stroke-linecap:butt;stroke-linejoin:miter;stroke-opacity:1"/>
<path class="bond-25 atom-24 atom-26" d="M 154.2,184.7 L 124.2,185.8" style="fill:none;fill-rule:evenodd;stroke:#000000;stroke-width:2.0px;stroke-linecap:butt;stroke-linejoin:miter;stroke-opacity:1"/>
<path class="bond-26 atom-26 atom-27" d="M 124.2,185.8 L 108.3,160.3" style="fill:none;fill-rule:evenodd;stroke:#000000;stroke-width:2.0px;stroke-linecap:butt;stroke-linejoin:miter;stroke-opacity:1"/>
<path class="bond-26 atom-26 atom-27" d="M 116.7,185.1 L 105.6,167.3" style="fill:none;fill-rule:evenodd;stroke:#000000;stroke-width:2.0px;stroke-linecap:butt;stroke-linejoin:miter;stroke-opacity:1"/>
<path class="bond-27 atom-27 atom-28" d="M 108.3,160.3 L 78.2,161.4" style="fill:none;fill-rule:evenodd;stroke:#000000;stroke-width:2.0px;stroke-linecap:butt;stroke-linejoin:miter;stroke-opacity:1"/>
<path class="bond-28 atom-28 atom-29" d="M 78.2,161.4 L 64.2,188.0" style="fill:none;fill-rule:evenodd;stroke:#000000;stroke-width:2.0px;stroke-linecap:butt;stroke-linejoin:miter;stroke-opacity:1"/>
<path class="bond-28 atom-28 atom-29" d="M 81.4,168.2 L 71.6,186.8" style="fill:none;fill-rule:evenodd;stroke:#000000;stroke-width:2.0px;stroke-linecap:butt;stroke-linejoin:miter;stroke-opacity:1"/>
<path class="bond-29 atom-29 atom-30" d="M 64.2,188.0 L 51.3,188.5" style="fill:none;fill-rule:evenodd;stroke:#000000;stroke-width:2.0px;stroke-linecap:butt;stroke-linejoin:miter;stroke-opacity:1"/>
<path class="bond-29 atom-29 atom-30" d="M 51.3,188.5 L 38.4,188.9" style="fill:none;fill-rule:evenodd;stroke:#0000FF;stroke-width:2.0px;stroke-linecap:butt;stroke-linejoin:miter;stroke-opacity:1"/>
<path class="bond-30 atom-30 atom-31" d="M 30.9,183.8 L 24.5,173.7" style="fill:none;fill-rule:evenodd;stroke:#0000FF;stroke-width:2.0px;stroke-linecap:butt;stroke-linejoin:miter;stroke-opacity:1"/>
<path class="bond-30 atom-30 atom-31" d="M 24.5,173.7 L 18.2,163.6" style="fill:none;fill-rule:evenodd;stroke:#000000;stroke-width:2.0px;stroke-linecap:butt;stroke-linejoin:miter;stroke-opacity:1"/>
<path class="bond-31 atom-30 atom-32" d="M 31.4,194.3 L 25.7,205.0" style="fill:none;fill-rule:evenodd;stroke:#0000FF;stroke-width:2.0px;stroke-linecap:butt;stroke-linejoin:miter;stroke-opacity:1"/>
<path class="bond-31 atom-30 atom-32" d="M 25.7,205.0 L 20.1,215.6" style="fill:none;fill-rule:evenodd;stroke:#000000;stroke-width:2.0px;stroke-linecap:butt;stroke-linejoin:miter;stroke-opacity:1"/>
<path class="bond-32 atom-29 atom-33" d="M 64.2,188.0 L 80.1,213.4" style="fill:none;fill-rule:evenodd;stroke:#000000;stroke-width:2.0px;stroke-linecap:butt;stroke-linejoin:miter;stroke-opacity:1"/>
<path class="bond-33 atom-33 atom-34" d="M 80.1,213.4 L 110.2,212.3" style="fill:none;fill-rule:evenodd;stroke:#000000;stroke-width:2.0px;stroke-linecap:butt;stroke-linejoin:miter;stroke-opacity:1"/>
<path class="bond-33 atom-33 atom-34" d="M 84.4,207.3 L 105.4,206.5" style="fill:none;fill-rule:evenodd;stroke:#000000;stroke-width:2.0px;stroke-linecap:butt;stroke-linejoin:miter;stroke-opacity:1"/>
<path class="bond-34 atom-11 atom-6" d="M 328.7,133.1 L 329.8,163.2" style="fill:none;fill-rule:evenodd;stroke:#000000;stroke-width:2.0px;stroke-linecap:butt;stroke-linejoin:miter;stroke-opacity:1"/>
<path class="bond-35 atom-17 atom-12" d="M 350.4,203.5 L 320.3,204.6" style="fill:none;fill-rule:evenodd;stroke:#000000;stroke-width:2.0px;stroke-linecap:butt;stroke-linejoin:miter;stroke-opacity:1"/>
<path class="bond-36 atom-34 atom-26" d="M 110.2,212.3 L 124.2,185.8" style="fill:none;fill-rule:evenodd;stroke:#000000;stroke-width:2.0px;stroke-linecap:butt;stroke-linejoin:miter;stroke-opacity:1"/>
<path class="atom-4" d="M 284.5 153.7 Q 284.5 151.7, 285.5 150.5 Q 286.5 149.4, 288.4 149.4 Q 290.3 149.4, 291.3 150.5 Q 292.3 151.7, 292.3 153.7 Q 292.3 155.8, 291.3 157.0 Q 290.3 158.1, 288.4 158.1 Q 286.5 158.1, 285.5 157.0 Q 284.5 155.8, 284.5 153.7 M 288.4 157.2 Q 289.7 157.2, 290.4 156.3 Q 291.1 155.4, 291.1 153.7 Q 291.1 152.0, 290.4 151.2 Q 289.7 150.4, 288.4 150.4 Q 287.1 150.4, 286.4 151.2 Q 285.7 152.0, 285.7 153.7 Q 285.7 155.4, 286.4 156.3 Q 287.1 157.2, 288.4 157.2 " fill="#FF0000"/>
<path class="atom-5" d="M 301.1 182.1 Q 301.2 182.1, 301.6 182.3 Q 302.0 182.4, 302.4 182.6 Q 302.9 182.7, 303.3 182.7 Q 304.1 182.7, 304.6 182.3 Q 305.1 181.9, 305.1 181.2 Q 305.1 180.7, 304.8 180.4 Q 304.6 180.1, 304.2 180.0 Q 303.9 179.8, 303.3 179.6 Q 302.5 179.4, 302.1 179.2 Q 301.6 179.0, 301.3 178.5 Q 301.0 178.1, 301.0 177.3 Q 301.0 176.2, 301.7 175.6 Q 302.4 174.9, 303.9 174.9 Q 304.9 174.9, 306.0 175.4 L 305.7 176.3 Q 304.7 175.9, 303.9 175.9 Q 303.1 175.9, 302.6 176.2 Q 302.2 176.6, 302.2 177.2 Q 302.2 177.6, 302.4 177.9 Q 302.7 178.2, 303.0 178.3 Q 303.3 178.5, 303.9 178.7 Q 304.7 178.9, 305.1 179.1 Q 305.6 179.4, 305.9 179.9 Q 306.3 180.4, 306.3 181.2 Q 306.3 182.4, 305.5 183.0 Q 304.7 183.6, 303.4 183.6 Q 302.6 183.6, 302.0 183.5 Q 301.5 183.3, 300.8 183.0 L 301.1 182.1 " fill="#000000"/>
<path class="atom-5" d="M 306.8 174.9 L 307.9 174.9 L 307.9 175.9 L 306.8 175.9 L 306.8 174.9 M 306.8 177.2 L 307.9 177.2 L 307.9 183.4 L 306.8 183.4 L 306.8 177.2 " fill="#000000"/>
<path class="atom-23" d="M 164.4 158.1 Q 164.4 156.1, 165.4 155.0 Q 166.4 153.8, 168.3 153.8 Q 170.2 153.8, 171.2 155.0 Q 172.2 156.1, 172.2 158.1 Q 172.2 160.2, 171.2 161.4 Q 170.2 162.5, 168.3 162.5 Q 166.4 162.5, 165.4 161.4 Q 164.4 160.2, 164.4 158.1 M 168.3 161.6 Q 169.6 161.6, 170.3 160.7 Q 171.0 159.8, 171.0 158.1 Q 171.0 156.5, 170.3 155.6 Q 169.6 154.8, 168.3 154.8 Q 167.0 154.8, 166.3 155.6 Q 165.6 156.5, 165.6 158.1 Q 165.6 159.9, 166.3 160.7 Q 167.0 161.6, 168.3 161.6 " fill="#FF0000"/>
<path class="atom-25" d="M 166.3 210.1 Q 166.3 208.1, 167.3 207.0 Q 168.3 205.8, 170.2 205.8 Q 172.1 205.8, 173.1 207.0 Q 174.1 208.1, 174.1 210.1 Q 174.1 212.2, 173.1 213.4 Q 172.1 214.5, 170.2 214.5 Q 168.3 214.5, 167.3 213.4 Q 166.3 212.2, 166.3 210.1 M 170.2 213.6 Q 171.5 213.6, 172.2 212.7 Q 172.9 211.8, 172.9 210.1 Q 172.9 208.5, 172.2 207.6 Q 171.5 206.8, 170.2 206.8 Q 168.9 206.8, 168.2 207.6 Q 167.5 208.5, 167.5 210.1 Q 167.5 211.9, 168.2 212.7 Q 168.9 213.6, 170.2 213.6 " fill="#FF0000"/>
<path class="atom-30" d="M 32.3 184.8 L 35.1 189.3 Q 35.3 189.8, 35.8 190.6 Q 36.2 191.4, 36.2 191.4 L 36.2 184.8 L 37.4 184.8 L 37.4 193.3 L 36.2 193.3 L 33.2 188.4 Q 32.9 187.8, 32.5 187.2 Q 32.1 186.5, 32.0 186.3 L 32.0 193.3 L 30.9 193.3 L 30.9 184.8 L 32.3 184.8 " fill="#0000FF"/>
<path class="legend" d="M 167.8 365.4 L 168.0 366.5 Q 168.8 365.3, 170.2 365.3 Q 170.7 365.3, 171.3 365.4 L 171.0 366.8 Q 170.4 366.6, 170.0 366.6 Q 169.3 366.6, 168.9 366.9 Q 168.4 367.1, 168.1 367.8 L 168.1 373.6 L 166.6 373.6 L 166.6 365.4 L 167.8 365.4 " fill="#000000"/>
<path class="legend" d="M 171.5 369.5 Q 171.5 367.5, 172.5 366.4 Q 173.5 365.3, 175.4 365.3 Q 177.2 365.3, 178.0 366.4 Q 178.8 367.4, 178.8 369.5 L 178.8 369.7 L 173.1 369.7 Q 173.1 371.1, 173.7 371.8 Q 174.3 372.6, 175.5 372.6 Q 176.2 372.6, 176.7 372.4 Q 177.3 372.3, 178.1 372.0 L 178.5 373.0 Q 177.7 373.4, 176.9 373.6 Q 176.2 373.8, 175.4 373.8 Q 173.6 373.8, 172.6 372.6 Q 171.5 371.5, 171.5 369.5 M 175.4 366.4 Q 174.4 366.4, 173.9 367.0 Q 173.3 367.5, 173.1 368.6 L 177.2 368.6 Q 177.1 367.5, 176.7 367.0 Q 176.2 366.4, 175.4 366.4 " fill="#000000"/>
<path class="legend" d="M 179.4 371.4 Q 179.4 370.1, 180.5 369.4 Q 181.5 368.7, 183.5 368.7 L 184.7 368.7 L 184.7 368.3 Q 184.7 367.3, 184.2 366.9 Q 183.8 366.4, 182.8 366.4 Q 182.2 366.4, 181.6 366.6 Q 181.1 366.7, 180.3 367.0 L 179.9 366.0 Q 181.4 365.3, 182.8 365.3 Q 184.6 365.3, 185.4 366.0 Q 186.2 366.8, 186.2 368.4 L 186.2 373.6 L 185.0 373.6 Q 185.0 373.6, 185.0 373.3 Q 184.9 373.1, 184.8 372.7 Q 183.7 373.8, 182.1 373.8 Q 180.9 373.8, 180.2 373.2 Q 179.4 372.5, 179.4 371.4 M 180.9 371.4 Q 180.9 372.0, 181.3 372.3 Q 181.7 372.6, 182.4 372.6 Q 183.0 372.6, 183.7 372.4 Q 184.3 372.0, 184.7 371.5 L 184.7 369.8 L 183.6 369.8 Q 182.2 369.8, 181.6 370.2 Q 180.9 370.6, 180.9 371.4 " fill="#000000"/>
<path class="legend" d="M 187.4 369.5 Q 187.4 367.5, 188.4 366.4 Q 189.4 365.3, 191.4 365.3 Q 193.2 365.3, 194.2 366.6 L 193.2 367.4 Q 192.8 366.9, 192.4 366.7 Q 191.9 366.4, 191.4 366.4 Q 190.2 366.4, 189.6 367.2 Q 189.0 368.0, 189.0 369.5 Q 189.0 371.0, 189.6 371.8 Q 190.2 372.6, 191.4 372.6 Q 192.1 372.6, 192.6 372.4 Q 193.0 372.3, 193.6 372.0 L 194.0 373.0 Q 192.9 373.7, 191.3 373.7 Q 189.4 373.7, 188.4 372.6 Q 187.4 371.5, 187.4 369.5 " fill="#000000"/>
<path class="legend" d="M 194.6 366.6 L 194.6 365.4 L 196.2 365.4 L 196.4 363.0 L 197.5 363.0 L 197.5 365.4 L 200.0 365.4 L 200.0 366.6 L 197.5 366.6 L 197.5 371.1 Q 197.5 372.5, 198.7 372.5 Q 199.2 372.5, 199.9 372.3 L 200.2 373.4 Q 199.3 373.7, 198.5 373.7 Q 197.4 373.7, 196.7 373.1 Q 196.0 372.4, 196.0 371.2 L 196.0 366.6 L 194.6 366.6 " fill="#000000"/>
<path class="legend" d="M 208.7 374.4 L 208.7 375.7 L 200.6 375.7 L 200.6 374.4 L 208.7 374.4 " fill="#000000"/>
<path class="legend" d="M 214.7 363.6 L 208.7 363.6 L 208.7 362.3 L 216.2 362.3 L 216.2 363.4 L 211.7 373.6 L 210.1 373.6 L 214.7 363.6 " fill="#000000"/>
<path class="legend" d="M 220.8 366.5 Q 221.8 366.5, 222.6 367.0 Q 223.4 367.4, 223.9 368.2 Q 224.4 369.0, 224.4 370.0 Q 224.4 371.2, 223.8 372.1 Q 223.2 372.9, 222.3 373.3 Q 221.4 373.8, 220.3 373.8 Q 219.3 373.8, 218.3 373.4 Q 217.4 373.0, 216.7 372.3 L 217.7 371.3 Q 218.2 371.8, 218.9 372.2 Q 219.6 372.5, 220.4 372.5 Q 221.4 372.5, 222.1 371.8 Q 222.8 371.2, 222.8 370.1 Q 222.8 368.9, 222.1 368.3 Q 221.4 367.7, 220.3 367.7 Q 219.3 367.7, 218.2 368.2 L 217.3 367.8 L 217.8 362.3 L 223.7 362.3 L 223.5 363.6 L 219.2 363.6 L 218.8 366.9 Q 219.8 366.5, 220.8 366.5 " fill="#000000"/>
<path class="legend" d="M 229.3 373.8 Q 227.2 373.8, 226.2 372.2 Q 225.1 370.7, 225.1 368.0 Q 225.1 365.2, 226.2 363.7 Q 227.2 362.2, 229.3 362.2 Q 231.4 362.2, 232.4 363.7 Q 233.4 365.2, 233.4 368.0 Q 233.4 370.7, 232.4 372.2 Q 231.4 373.8, 229.3 373.8 M 229.3 372.5 Q 230.5 372.5, 231.2 371.3 Q 231.8 370.2, 231.8 368.0 Q 231.8 365.7, 231.2 364.6 Q 230.5 363.5, 229.3 363.5 Q 228.1 363.5, 227.4 364.6 Q 226.7 365.7, 226.7 368.0 Q 226.7 370.2, 227.4 371.3 Q 228.1 372.5, 229.3 372.5 " fill="#000000"/>
<path class="legend" d="M 136.3 383.8 Q 136.3 381.8, 137.3 380.7 Q 138.3 379.5, 140.3 379.5 Q 142.1 379.5, 143.1 380.9 L 142.1 381.6 Q 141.7 381.2, 141.3 380.9 Q 140.8 380.7, 140.3 380.7 Q 139.1 380.7, 138.5 381.5 Q 137.9 382.3, 137.9 383.8 Q 137.9 385.3, 138.5 386.1 Q 139.2 386.8, 140.4 386.8 Q 141.0 386.8, 141.5 386.7 Q 142.0 386.5, 142.5 386.3 L 142.9 387.3 Q 141.8 388.0, 140.2 388.0 Q 138.3 388.0, 137.3 386.9 Q 136.3 385.7, 136.3 383.8 " fill="#000000"/>
<path class="legend" d="M 143.5 383.8 Q 143.5 381.7, 144.5 380.6 Q 145.5 379.5, 147.3 379.5 Q 149.2 379.5, 150.0 380.6 Q 150.8 381.7, 150.8 383.7 L 150.8 384.0 L 145.0 384.0 Q 145.1 385.4, 145.7 386.1 Q 146.3 386.8, 147.5 386.8 Q 148.1 386.8, 148.7 386.7 Q 149.3 386.5, 150.0 386.2 L 150.5 387.2 Q 149.6 387.6, 148.9 387.8 Q 148.2 388.0, 147.4 388.0 Q 145.5 388.0, 144.5 386.9 Q 143.5 385.8, 143.5 383.8 M 147.3 380.7 Q 146.4 380.7, 145.8 381.2 Q 145.3 381.8, 145.1 382.8 L 149.2 382.8 Q 149.1 381.7, 148.6 381.2 Q 148.2 380.7, 147.3 380.7 " fill="#000000"/>
<path class="legend" d="M 155.7 379.5 Q 157.0 379.5, 157.7 380.3 Q 158.4 381.0, 158.4 382.4 L 158.4 387.9 L 156.9 387.9 L 156.9 382.6 Q 156.9 381.6, 156.5 381.2 Q 156.1 380.7, 155.3 380.7 Q 154.5 380.7, 153.9 381.1 Q 153.3 381.4, 152.9 382.0 L 152.9 387.9 L 151.4 387.9 L 151.4 379.7 L 152.6 379.7 L 152.8 380.8 Q 153.9 379.5, 155.7 379.5 " fill="#000000"/>
<path class="legend" d="M 159.6 380.8 L 159.6 379.7 L 161.2 379.7 L 161.4 377.3 L 162.5 377.3 L 162.5 379.7 L 165.1 379.7 L 165.1 380.8 L 162.5 380.8 L 162.5 385.4 Q 162.5 386.8, 163.7 386.8 Q 164.2 386.8, 164.9 386.6 L 165.2 387.6 Q 164.3 388.0, 163.5 388.0 Q 162.4 388.0, 161.7 387.3 Q 161.0 386.7, 161.0 385.4 L 161.0 380.8 L 159.6 380.8 " fill="#000000"/>
<path class="legend" d="M 173.7 388.7 L 173.7 390.0 L 165.6 390.0 L 165.6 388.7 L 173.7 388.7 " fill="#000000"/>
<path class="legend" d="M 181.2 375.7 L 181.2 387.9 L 180.0 387.9 L 179.8 386.9 Q 178.9 388.0, 177.4 388.0 Q 175.7 388.0, 174.7 387.0 Q 173.7 385.9, 173.7 383.9 Q 173.7 381.8, 174.9 380.7 Q 176.0 379.5, 178.0 379.5 Q 178.8 379.5, 179.7 379.7 L 179.7 375.7 L 181.2 375.7 M 177.5 386.8 Q 178.3 386.8, 178.9 386.4 Q 179.5 385.9, 179.7 385.1 L 179.7 380.9 Q 178.9 380.7, 178.0 380.7 Q 176.7 380.7, 176.0 381.6 Q 175.3 382.4, 175.3 383.9 Q 175.3 385.3, 175.8 386.1 Q 176.4 386.8, 177.5 386.8 " fill="#000000"/>
<path class="legend" d="M 182.5 376.6 L 184.0 376.6 L 184.0 378.0 L 182.5 378.0 L 182.5 376.6 M 182.5 379.7 L 184.0 379.7 L 184.0 387.9 L 182.5 387.9 L 182.5 379.7 " fill="#000000"/>
<path class="legend" d="M 185.8 386.2 Q 186.5 386.5, 187.0 386.6 Q 187.6 386.8, 188.1 386.8 Q 188.9 386.8, 189.3 386.5 Q 189.7 386.2, 189.7 385.6 Q 189.7 385.2, 189.4 385.0 Q 189.2 384.8, 189.0 384.6 Q 188.7 384.5, 188.0 384.3 Q 187.9 384.3, 187.1 384.0 Q 186.4 383.7, 186.0 383.2 Q 185.6 382.7, 185.6 381.9 Q 185.6 380.9, 186.4 380.2 Q 187.2 379.5, 188.6 379.5 Q 189.3 379.5, 189.8 379.7 Q 190.4 379.8, 191.0 380.0 L 190.6 381.2 Q 190.1 381.0, 189.6 380.9 Q 189.1 380.8, 188.6 380.8 Q 187.9 380.8, 187.5 381.1 Q 187.1 381.4, 187.1 381.8 Q 187.1 382.3, 187.4 382.5 Q 187.7 382.7, 188.4 383.0 Q 188.6 383.0, 188.7 383.1 L 189.1 383.2 Q 189.8 383.4, 190.2 383.7 Q 190.6 383.9, 190.9 384.4 Q 191.2 384.8, 191.2 385.6 Q 191.2 386.7, 190.3 387.4 Q 189.5 388.0, 188.1 388.0 Q 187.4 388.0, 186.7 387.9 Q 186.0 387.7, 185.3 387.4 L 185.8 386.2 " fill="#000000"/>
<path class="legend" d="M 192.0 380.8 L 192.0 379.7 L 193.6 379.7 L 193.8 377.3 L 195.0 377.3 L 195.0 379.7 L 197.5 379.7 L 197.5 380.8 L 195.0 380.8 L 195.0 385.4 Q 195.0 386.8, 196.2 386.8 Q 196.6 386.8, 197.3 386.6 L 197.6 387.6 Q 196.7 388.0, 195.9 388.0 Q 194.8 388.0, 194.1 387.3 Q 193.5 386.7, 193.5 385.4 L 193.5 380.8 L 192.0 380.8 " fill="#000000"/>
<path class="legend" d="" fill="#000000"/>
<path class="legend" d="M 203.3 380.9 L 210.7 380.9 L 210.7 382.1 L 203.3 382.1 L 203.3 380.9 M 203.3 384.4 L 210.7 384.4 L 210.7 385.5 L 203.3 385.5 L 203.3 384.4 " fill="#000000"/>
<path class="legend" d="" fill="#000000"/>
<path class="legend" d="M 221.6 388.0 Q 219.5 388.0, 218.5 386.5 Q 217.5 384.9, 217.5 382.2 Q 217.5 379.5, 218.5 378.0 Q 219.5 376.4, 221.6 376.4 Q 223.7 376.4, 224.7 378.0 Q 225.7 379.5, 225.7 382.2 Q 225.7 384.9, 224.7 386.5 Q 223.7 388.0, 221.6 388.0 M 221.6 386.7 Q 222.8 386.7, 223.5 385.6 Q 224.1 384.4, 224.1 382.2 Q 224.1 380.0, 223.5 378.8 Q 222.8 377.7, 221.6 377.7 Q 220.4 377.7, 219.7 378.8 Q 219.1 380.0, 219.1 382.2 Q 219.1 384.4, 219.7 385.6 Q 220.4 386.7, 221.6 386.7 " fill="#000000"/>
<path class="legend" d="M 226.8 386.3 L 228.4 386.3 L 228.4 387.9 L 226.8 387.9 L 226.8 386.3 " fill="#000000"/>
<path class="legend" d="M 233.5 380.8 Q 234.5 380.8, 235.3 381.2 Q 236.2 381.6, 236.6 382.4 Q 237.1 383.2, 237.1 384.3 Q 237.1 385.5, 236.5 386.3 Q 235.9 387.2, 235.0 387.6 Q 234.1 388.0, 233.0 388.0 Q 232.0 388.0, 231.0 387.6 Q 230.1 387.2, 229.4 386.5 L 230.4 385.5 Q 230.9 386.1, 231.6 386.4 Q 232.3 386.7, 233.1 386.7 Q 234.1 386.7, 234.8 386.1 Q 235.5 385.5, 235.5 384.3 Q 235.5 383.1, 234.8 382.6 Q 234.1 382.0, 233.0 382.0 Q 232.0 382.0, 230.9 382.4 L 230.0 382.0 L 230.6 376.6 L 236.4 376.6 L 236.2 377.8 L 231.9 377.8 L 231.5 381.2 Q 232.5 380.8, 233.5 380.8 " fill="#000000"/>
<path class="legend" d="M 237.9 378.7 Q 238.3 377.6, 239.3 377.0 Q 240.3 376.4, 241.7 376.4 Q 243.4 376.4, 244.3 377.4 Q 245.3 378.3, 245.3 379.9 Q 245.3 381.6, 244.0 383.2 Q 242.8 384.8, 240.3 386.6 L 245.5 386.6 L 245.5 387.9 L 237.9 387.9 L 237.9 386.8 Q 240.0 385.3, 241.2 384.2 Q 242.5 383.1, 243.1 382.1 Q 243.7 381.1, 243.7 380.0 Q 243.7 378.9, 243.1 378.3 Q 242.6 377.7, 241.7 377.7 Q 240.7 377.7, 240.1 378.1 Q 239.5 378.4, 239.1 379.3 L 237.9 378.7 " fill="#000000"/>
<path class="legend" d="M 250.3 376.4 Q 252.3 376.4, 253.3 377.8 Q 254.3 379.2, 254.3 381.9 Q 254.3 384.9, 253.0 386.5 Q 251.8 388.0, 249.4 388.0 Q 248.7 388.0, 248.1 387.9 Q 247.5 387.7, 246.9 387.4 L 247.5 386.3 Q 248.3 386.7, 249.4 386.7 Q 251.0 386.7, 251.8 385.7 Q 252.6 384.7, 252.7 382.5 Q 252.1 383.1, 251.4 383.4 Q 250.7 383.6, 249.9 383.6 Q 248.9 383.6, 248.1 383.2 Q 247.3 382.8, 246.9 382.0 Q 246.4 381.2, 246.4 380.2 Q 246.4 379.1, 246.9 378.3 Q 247.4 377.4, 248.3 376.9 Q 249.1 376.4, 250.3 376.4 M 248.0 380.2 Q 248.0 381.2, 248.6 381.8 Q 249.2 382.4, 250.2 382.4 Q 250.8 382.4, 251.5 382.1 Q 252.2 381.8, 252.7 381.3 Q 252.6 379.4, 252.0 378.6 Q 251.4 377.7, 250.2 377.7 Q 249.6 377.7, 249.1 378.1 Q 248.6 378.4, 248.3 378.9 Q 248.0 379.5, 248.0 380.2 " fill="#000000"/>
<path class="legend" d="M 259.5 388.0 Q 257.5 388.0, 256.4 386.5 Q 255.4 384.9, 255.4 382.2 Q 255.4 379.5, 256.4 378.0 Q 257.4 376.4, 259.5 376.4 Q 261.6 376.4, 262.7 378.0 Q 263.7 379.5, 263.7 382.2 Q 263.7 384.9, 262.6 386.5 Q 261.6 388.0, 259.5 388.0 M 259.5 386.7 Q 260.8 386.7, 261.4 385.6 Q 262.1 384.4, 262.1 382.2 Q 262.1 380.0, 261.4 378.8 Q 260.8 377.7, 259.5 377.7 Q 258.3 377.7, 257.6 378.8 Q 257.0 380.0, 257.0 382.2 Q 257.0 384.4, 257.6 385.6 Q 258.3 386.7, 259.5 386.7 " fill="#000000"/>
<path class="bond-0 atom-0 atom-1" d="M 544.7,260.2 L 562.6,236.0" style="fill:none;fill-rule:evenodd;stroke:#000000;stroke-width:2.0px;stroke-linecap:butt;stroke-linejoin:miter;stroke-opacity:1"/>
<path class="bond-0 atom-0 atom-1" d="M 549.6,263.7 L 567.4,239.6" style="fill:none;fill-rule:evenodd;stroke:#000000;stroke-width:2.0px;stroke-linecap:butt;stroke-linejoin:miter;stroke-opacity:1"/>
<path class="bond-1 atom-1 atom-2" d="M 565.0,237.8 L 594.9,241.2" style="fill:none;fill-rule:evenodd;stroke:#000000;stroke-width:2.0px;stroke-linecap:butt;stroke-linejoin:miter;stroke-opacity:1"/>
<path class="bond-2 atom-2 atom-3" d="M 594.9,241.2 L 601.8,231.8" style="fill:none;fill-rule:evenodd;stroke:#000000;stroke-width:2.0px;stroke-linecap:butt;stroke-linejoin:miter;stroke-opacity:1"/>
<path class="bond-2 atom-2 atom-3" d="M 601.8,231.8 L 608.7,222.5" style="fill:none;fill-rule:evenodd;stroke:#FF0000;stroke-width:2.0px;stroke-linecap:butt;stroke-linejoin:miter;stroke-opacity:1"/>
<path class="bond-3 atom-3 atom-4" d="M 617.6,217.6 L 630.1,219.0" style="fill:none;fill-rule:evenodd;stroke:#FF0000;stroke-width:2.0px;stroke-linecap:butt;stroke-linejoin:miter;stroke-opacity:1"/>
<path class="bond-3 atom-3 atom-4" d="M 630.1,219.0 L 642.6,220.4" style="fill:none;fill-rule:evenodd;stroke:#000000;stroke-width:2.0px;stroke-linecap:butt;stroke-linejoin:miter;stroke-opacity:1"/>
<path class="bond-4 atom-4 atom-5" d="M 645.3,219.2 L 650.2,230.4" style="fill:none;fill-rule:evenodd;stroke:#000000;stroke-width:2.0px;stroke-linecap:butt;stroke-linejoin:miter;stroke-opacity:1"/>
<path class="bond-4 atom-4 atom-5" d="M 650.2,230.4 L 655.0,241.5" style="fill:none;fill-rule:evenodd;stroke:#FF0000;stroke-width:2.0px;stroke-linecap:butt;stroke-linejoin:miter;stroke-opacity:1"/>
<path class="bond-4 atom-4 atom-5" d="M 639.8,221.6 L 644.7,232.8" style="fill:none;fill-rule:evenodd;stroke:#000000;stroke-width:2.0px;stroke-linecap:butt;stroke-linejoin:miter;stroke-opacity:1"/>
<path class="bond-4 atom-4 atom-5" d="M 644.7,232.8 L 649.5,243.9" style="fill:none;fill-rule:evenodd;stroke:#FF0000;stroke-width:2.0px;stroke-linecap:butt;stroke-linejoin:miter;stroke-opacity:1"/>
<path class="bond-5 atom-4 atom-6" d="M 642.6,220.4 L 660.5,196.3" style="fill:none;fill-rule:evenodd;stroke:#000000;stroke-width:2.0px;stroke-linecap:butt;stroke-linejoin:miter;stroke-opacity:1"/>
<path class="bond-6 atom-6 atom-7" d="M 660.5,196.3 L 690.3,199.7" style="fill:none;fill-rule:evenodd;stroke:#000000;stroke-width:2.0px;stroke-linecap:butt;stroke-linejoin:miter;stroke-opacity:1"/>
<path class="bond-6 atom-6 atom-7" d="M 665.6,190.8 L 686.5,193.2" style="fill:none;fill-rule:evenodd;stroke:#000000;stroke-width:2.0px;stroke-linecap:butt;stroke-linejoin:miter;stroke-opacity:1"/>
<path class="bond-7 atom-7 atom-8" d="M 690.3,199.7 L 708.2,175.5" style="fill:none;fill-rule:evenodd;stroke:#000000;stroke-width:2.0px;stroke-linecap:butt;stroke-linejoin:miter;stroke-opacity:1"/>
<path class="bond-8 atom-8 atom-9" d="M 708.2,175.5 L 696.2,148.0" style="fill:none;fill-rule:evenodd;stroke:#000000;stroke-width:2.0px;stroke-linecap:butt;stroke-linejoin:miter;stroke-opacity:1"/>
<path class="bond-8 atom-8 atom-9" d="M 700.9,173.8 L 692.5,154.5" style="fill:none;fill-rule:evenodd;stroke:#000000;stroke-width:2.0px;stroke-linecap:butt;stroke-linejoin:miter;stroke-opacity:1"/>
<path class="bond-9 atom-9 atom-10" d="M 696.2,148.0 L 703.2,138.5" style="fill:none;fill-rule:evenodd;stroke:#000000;stroke-width:2.0px;stroke-linecap:butt;stroke-linejoin:miter;stroke-opacity:1"/>
<path class="bond-9 atom-9 atom-10" d="M 703.2,138.5 L 710.2,129.1" style="fill:none;fill-rule:evenodd;stroke:#0000FF;stroke-width:2.0px;stroke-linecap:butt;stroke-linejoin:miter;stroke-opacity:1"/>
<path class="bond-10 atom-10 atom-11" d="M 718.3,124.3 L 731.1,125.8" style="fill:none;fill-rule:evenodd;stroke:#0000FF;stroke-width:2.0px;stroke-linecap:butt;stroke-linejoin:miter;stroke-opacity:1"/>
<path class="bond-10 atom-10 atom-11" d="M 731.1,125.8 L 743.9,127.2" style="fill:none;fill-rule:evenodd;stroke:#000000;stroke-width:2.0px;stroke-linecap:butt;stroke-linejoin:miter;stroke-opacity:1"/>
<path class="bond-11 atom-10 atom-12" d="M 711.8,118.6 L 706.9,107.4" style="fill:none;fill-rule:evenodd;stroke:#0000FF;stroke-width:2.0px;stroke-linecap:butt;stroke-linejoin:miter;stroke-opacity:1"/>
<path class="bond-11 atom-10 atom-12" d="M 706.9,107.4 L 702.1,96.3" style="fill:none;fill-rule:evenodd;stroke:#000000;stroke-width:2.0px;stroke-linecap:butt;stroke-linejoin:miter;stroke-opacity:1"/>
<path class="bond-12 atom-9 atom-13" d="M 696.2,148.0 L 666.3,144.6" style="fill:none;fill-rule:evenodd;stroke:#000000;stroke-width:2.0px;stroke-linecap:butt;stroke-linejoin:miter;stroke-opacity:1"/>
<path class="bond-13 atom-13 atom-14" d="M 666.3,144.6 L 648.5,168.7" style="fill:none;fill-rule:evenodd;stroke:#000000;stroke-width:2.0px;stroke-linecap:butt;stroke-linejoin:miter;stroke-opacity:1"/>
<path class="bond-13 atom-13 atom-14" d="M 668.5,151.8 L 656.0,168.7" style="fill:none;fill-rule:evenodd;stroke:#000000;stroke-width:2.0px;stroke-linecap:butt;stroke-linejoin:miter;stroke-opacity:1"/>
<path class="bond-14 atom-1 atom-15" d="M 565.0,237.8 L 553.0,210.2" style="fill:none;fill-rule:evenodd;stroke:#000000;stroke-width:2.0px;stroke-linecap:butt;stroke-linejoin:miter;stroke-opacity:1"/>
<path class="bond-15 atom-15 atom-16" d="M 553.0,210.2 L 540.5,208.8" style="fill:none;fill-rule:evenodd;stroke:#000000;stroke-width:2.0px;stroke-linecap:butt;stroke-linejoin:miter;stroke-opacity:1"/>
<path class="bond-15 atom-15 atom-16" d="M 540.5,208.8 L 528.1,207.4" style="fill:none;fill-rule:evenodd;stroke:#FF0000;stroke-width:2.0px;stroke-linecap:butt;stroke-linejoin:miter;stroke-opacity:1"/>
<path class="bond-16 atom-16 atom-17" d="M 520.9,201.5 L 517.2,193.2" style="fill:none;fill-rule:evenodd;stroke:#FF0000;stroke-width:2.0px;stroke-linecap:butt;stroke-linejoin:miter;stroke-opacity:1"/>
<path class="bond-16 atom-16 atom-17" d="M 517.2,193.2 L 513.6,184.8" style="fill:none;fill-rule:evenodd;stroke:#000000;stroke-width:2.0px;stroke-linecap:butt;stroke-linejoin:miter;stroke-opacity:1"/>
<path class="bond-17 atom-17 atom-18" d="M 515.7,177.3 L 538.7,167.3" style="fill:none;fill-rule:evenodd;stroke:#000000;stroke-width:2.0px;stroke-linecap:butt;stroke-linejoin:miter;stroke-opacity:1"/>
<path class="bond-18 atom-18 atom-19" d="M 538.7,167.3 L 562.9,185.2" style="fill:none;fill-rule:evenodd;stroke:#000000;stroke-width:2.0px;stroke-linecap:butt;stroke-linejoin:miter;stroke-opacity:1"/>
<path class="bond-18 atom-18 atom-19" d="M 545.9,165.2 L 562.8,177.7" style="fill:none;fill-rule:evenodd;stroke:#000000;stroke-width:2.0px;stroke-linecap:butt;stroke-linejoin:miter;stroke-opacity:1"/>
<path class="bond-19 atom-19 atom-20" d="M 562.9,185.2 L 590.4,173.2" style="fill:none;fill-rule:evenodd;stroke:#000000;stroke-width:2.0px;stroke-linecap:butt;stroke-linejoin:miter;stroke-opacity:1"/>
<path class="bond-20 atom-20 atom-21" d="M 590.4,173.2 L 593.8,143.3" style="fill:none;fill-rule:evenodd;stroke:#000000;stroke-width:2.0px;stroke-linecap:butt;stroke-linejoin:miter;stroke-opacity:1"/>
<path class="bond-20 atom-20 atom-21" d="M 585.0,168.0 L 587.4,147.1" style="fill:none;fill-rule:evenodd;stroke:#000000;stroke-width:2.0px;stroke-linecap:butt;stroke-linejoin:miter;stroke-opacity:1"/>
<path class="bond-21 atom-21 atom-22" d="M 593.8,143.3 L 569.7,125.5" style="fill:none;fill-rule:evenodd;stroke:#000000;stroke-width:2.0px;stroke-linecap:butt;stroke-linejoin:miter;stroke-opacity:1"/>
<path class="bond-22 atom-22 atom-23" d="M 569.7,125.5 L 542.1,137.5" style="fill:none;fill-rule:evenodd;stroke:#000000;stroke-width:2.0px;stroke-linecap:butt;stroke-linejoin:miter;stroke-opacity:1"/>
<path class="bond-22 atom-22 atom-23" d="M 568.0,132.8 L 548.7,141.2" style="fill:none;fill-rule:evenodd;stroke:#000000;stroke-width:2.0px;stroke-linecap:butt;stroke-linejoin:miter;stroke-opacity:1"/>
<path class="bond-23 atom-17 atom-24" d="M 508.9,174.1 L 499.2,151.7" style="fill:none;fill-rule:evenodd;stroke:#000000;stroke-width:2.0px;stroke-linecap:butt;stroke-linejoin:miter;stroke-opacity:1"/>
<path class="bond-24 atom-24 atom-25" d="M 499.2,151.7 L 517.1,127.6" style="fill:none;fill-rule:evenodd;stroke:#000000;stroke-width:2.0px;stroke-linecap:butt;stroke-linejoin:miter;stroke-opacity:1"/>
<path class="bond-24 atom-24 atom-25" d="M 497.1,144.5 L 509.6,127.6" style="fill:none;fill-rule:evenodd;stroke:#000000;stroke-width:2.0px;stroke-linecap:butt;stroke-linejoin:miter;stroke-opacity:1"/>
<path class="bond-25 atom-25 atom-26" d="M 517.1,127.6 L 505.1,100.0" style="fill:none;fill-rule:evenodd;stroke:#000000;stroke-width:2.0px;stroke-linecap:butt;stroke-linejoin:miter;stroke-opacity:1"/>
<path class="bond-26 atom-26 atom-27" d="M 505.1,100.0 L 475.2,96.6" style="fill:none;fill-rule:evenodd;stroke:#000000;stroke-width:2.0px;stroke-linecap:butt;stroke-linejoin:miter;stroke-opacity:1"/>
<path class="bond-26 atom-26 atom-27" d="M 499.9,105.5 L 479.0,103.1" style="fill:none;fill-rule:evenodd;stroke:#000000;stroke-width:2.0px;stroke-linecap:butt;stroke-linejoin:miter;stroke-opacity:1"/>
<path class="bond-27 atom-27 atom-28" d="M 475.2,96.6 L 457.4,120.8" style="fill:none;fill-rule:evenodd;stroke:#000000;stroke-width:2.0px;stroke-linecap:butt;stroke-linejoin:miter;stroke-opacity:1"/>
<path class="bond-28 atom-28 atom-29" d="M 457.4,120.8 L 469.4,148.3" style="fill:none;fill-rule:evenodd;stroke:#000000;stroke-width:2.0px;stroke-linecap:butt;stroke-linejoin:miter;stroke-opacity:1"/>
<path class="bond-28 atom-28 atom-29" d="M 464.7,122.5 L 473.1,141.8" style="fill:none;fill-rule:evenodd;stroke:#000000;stroke-width:2.0px;stroke-linecap:butt;stroke-linejoin:miter;stroke-opacity:1"/>
<path class="bond-29 atom-17 atom-30" d="M 506.6,181.3 L 483.6,191.3" style="fill:none;fill-rule:evenodd;stroke:#000000;stroke-width:2.0px;stroke-linecap:butt;stroke-linejoin:miter;stroke-opacity:1"/>
<path class="bond-30 atom-30 atom-31" d="M 483.6,191.3 L 471.7,163.7" style="fill:none;fill-rule:evenodd;stroke:#000000;stroke-width:2.0px;stroke-linecap:butt;stroke-linejoin:miter;stroke-opacity:1"/>
<path class="bond-31 atom-30 atom-32" d="M 483.6,191.3 L 495.6,218.8" style="fill:none;fill-rule:evenodd;stroke:#000000;stroke-width:2.0px;stroke-linecap:butt;stroke-linejoin:miter;stroke-opacity:1"/>
<path class="bond-32 atom-30 atom-33" d="M 483.6,191.3 L 456.1,203.2" style="fill:none;fill-rule:evenodd;stroke:#000000;stroke-width:2.0px;stroke-linecap:butt;stroke-linejoin:miter;stroke-opacity:1"/>
<path class="bond-33 atom-14 atom-6" d="M 648.5,168.7 L 660.5,196.3" style="fill:none;fill-rule:evenodd;stroke:#000000;stroke-width:2.0px;stroke-linecap:butt;stroke-linejoin:miter;stroke-opacity:1"/>
<path class="bond-34 atom-23 atom-18" d="M 542.1,137.5 L 538.7,167.3" style="fill:none;fill-rule:evenodd;stroke:#000000;stroke-width:2.0px;stroke-linecap:butt;stroke-linejoin:miter;stroke-opacity:1"/>
<path class="bond-35 atom-29 atom-24" d="M 469.4,148.3 L 499.2,151.7" style="fill:none;fill-rule:evenodd;stroke:#000000;stroke-width:2.0px;stroke-linecap:butt;stroke-linejoin:miter;stroke-opacity:1"/>
<path class="atom-3" d="M 608.8 217.1 Q 608.8 215.0, 609.8 213.9 Q 610.8 212.7, 612.7 212.7 Q 614.6 212.7, 615.6 213.9 Q 616.6 215.0, 616.6 217.1 Q 616.6 219.1, 615.6 220.3 Q 614.6 221.5, 612.7 221.5 Q 610.9 221.5, 609.8 220.3 Q 608.8 219.1, 608.8 217.1 M 612.7 220.5 Q 614.0 220.5, 614.7 219.6 Q 615.4 218.8, 615.4 217.1 Q 615.4 215.4, 614.7 214.5 Q 614.0 213.7, 612.7 213.7 Q 611.4 213.7, 610.7 214.5 Q 610.0 215.4, 610.0 217.1 Q 610.0 218.8, 610.7 219.6 Q 611.4 220.5, 612.7 220.5 " fill="#FF0000"/>
<path class="atom-5" d="M 650.7 248.0 Q 650.7 246.0, 651.7 244.8 Q 652.7 243.7, 654.6 243.7 Q 656.4 243.7, 657.5 244.8 Q 658.5 246.0, 658.5 248.0 Q 658.5 250.1, 657.4 251.3 Q 656.4 252.4, 654.6 252.4 Q 652.7 252.4, 651.7 251.3 Q 650.7 250.1, 650.7 248.0 M 654.6 251.5 Q 655.9 251.5, 656.6 250.6 Q 657.3 249.7, 657.3 248.0 Q 657.3 246.3, 656.6 245.5 Q 655.9 244.6, 654.6 244.6 Q 653.3 244.6, 652.6 245.5 Q 651.9 246.3, 651.9 248.0 Q 651.9 249.7, 652.6 250.6 Q 653.3 251.5, 654.6 251.5 " fill="#FF0000"/>
<path class="atom-10" d="M 712.2 119.6 L 715.0 124.1 Q 715.2 124.5, 715.7 125.3 Q 716.1 126.1, 716.2 126.2 L 716.2 119.6 L 717.3 119.6 L 717.3 128.1 L 716.1 128.1 L 713.1 123.2 Q 712.8 122.6, 712.4 121.9 Q 712.0 121.3, 711.9 121.0 L 711.9 128.1 L 710.8 128.1 L 710.8 119.6 L 712.2 119.6 " fill="#0000FF"/>
<path class="atom-16" d="M 519.3 206.9 Q 519.3 204.8, 520.3 203.7 Q 521.3 202.5, 523.2 202.5 Q 525.1 202.5, 526.1 203.7 Q 527.1 204.8, 527.1 206.9 Q 527.1 208.9, 526.1 210.1 Q 525.0 211.3, 523.2 211.3 Q 521.3 211.3, 520.3 210.1 Q 519.3 208.9, 519.3 206.9 M 523.2 210.3 Q 524.5 210.3, 525.2 209.4 Q 525.9 208.6, 525.9 206.9 Q 525.9 205.2, 525.2 204.3 Q 524.5 203.5, 523.2 203.5 Q 521.9 203.5, 521.2 204.3 Q 520.5 205.2, 520.5 206.9 Q 520.5 208.6, 521.2 209.4 Q 521.9 210.3, 523.2 210.3 " fill="#FF0000"/>
<path class="atom-17" d="M 508.0 182.2 Q 508.1 182.3, 508.4 182.4 Q 508.8 182.6, 509.3 182.7 Q 509.7 182.8, 510.2 182.8 Q 511.0 182.8, 511.4 182.4 Q 511.9 182.0, 511.9 181.3 Q 511.9 180.9, 511.7 180.6 Q 511.4 180.3, 511.1 180.1 Q 510.7 180.0, 510.1 179.8 Q 509.3 179.6, 508.9 179.3 Q 508.4 179.1, 508.1 178.7 Q 507.8 178.2, 507.8 177.4 Q 507.8 176.4, 508.5 175.7 Q 509.3 175.1, 510.7 175.1 Q 511.7 175.1, 512.8 175.5 L 512.5 176.4 Q 511.5 176.0, 510.7 176.0 Q 509.9 176.0, 509.5 176.4 Q 509.0 176.7, 509.0 177.3 Q 509.0 177.8, 509.2 178.0 Q 509.5 178.3, 509.8 178.5 Q 510.2 178.6, 510.7 178.8 Q 511.5 179.0, 512.0 179.3 Q 512.4 179.5, 512.7 180.0 Q 513.1 180.5, 513.1 181.3 Q 513.1 182.5, 512.3 183.1 Q 511.5 183.8, 510.2 183.8 Q 509.4 183.8, 508.9 183.6 Q 508.3 183.4, 507.6 183.2 L 508.0 182.2 " fill="#000000"/>
<path class="atom-17" d="M 513.7 175.0 L 514.8 175.0 L 514.8 176.1 L 513.7 176.1 L 513.7 175.0 M 513.7 177.4 L 514.8 177.4 L 514.8 183.5 L 513.7 183.5 L 513.7 177.4 " fill="#000000"/>
<path class="legend" d="M 567.0 365.4 L 567.2 366.5 Q 568.1 365.3, 569.5 365.3 Q 569.9 365.3, 570.5 365.4 L 570.3 366.8 Q 569.6 366.6, 569.2 366.6 Q 568.6 366.6, 568.1 366.9 Q 567.7 367.1, 567.3 367.8 L 567.3 373.6 L 565.8 373.6 L 565.8 365.4 L 567.0 365.4 " fill="#000000"/>
<path class="legend" d="M 570.8 369.5 Q 570.8 367.5, 571.8 366.4 Q 572.8 365.3, 574.6 365.3 Q 576.4 365.3, 577.2 366.4 Q 578.1 367.4, 578.1 369.5 L 578.1 369.7 L 572.3 369.7 Q 572.3 371.1, 573.0 371.8 Q 573.6 372.6, 574.8 372.6 Q 575.4 372.6, 576.0 372.4 Q 576.6 372.3, 577.3 372.0 L 577.7 373.0 Q 576.9 373.4, 576.2 373.6 Q 575.4 373.8, 574.7 373.8 Q 572.8 373.8, 571.8 372.6 Q 570.8 371.5, 570.8 369.5 M 574.6 366.4 Q 573.7 366.4, 573.1 367.0 Q 572.6 367.5, 572.4 368.6 L 576.5 368.6 Q 576.4 367.5, 575.9 367.0 Q 575.5 366.4, 574.6 366.4 " fill="#000000"/>
<path class="legend" d="M 578.7 371.4 Q 578.7 370.1, 579.7 369.4 Q 580.8 368.7, 582.7 368.7 L 583.9 368.7 L 583.9 368.3 Q 583.9 367.3, 583.5 366.9 Q 583.1 366.4, 582.1 366.4 Q 581.4 366.4, 580.9 366.6 Q 580.4 366.7, 579.6 367.0 L 579.1 366.0 Q 580.6 365.3, 582.1 365.3 Q 583.8 365.3, 584.6 366.0 Q 585.4 366.8, 585.4 368.4 L 585.4 373.6 L 584.3 373.6 Q 584.2 373.6, 584.2 373.3 Q 584.2 373.1, 584.1 372.7 Q 582.9 373.8, 581.4 373.8 Q 580.1 373.8, 579.4 373.2 Q 578.7 372.5, 578.7 371.4 M 580.2 371.4 Q 580.2 372.0, 580.6 372.3 Q 580.9 372.6, 581.7 372.6 Q 582.3 372.6, 582.9 372.4 Q 583.5 372.0, 583.9 371.5 L 583.9 369.8 L 582.8 369.8 Q 581.5 369.8, 580.8 370.2 Q 580.2 370.6, 580.2 371.4 " fill="#000000"/>
<path class="legend" d="M 586.7 369.5 Q 586.7 367.5, 587.7 366.4 Q 588.6 365.3, 590.6 365.3 Q 592.5 365.3, 593.4 366.6 L 592.4 367.4 Q 592.1 366.9, 591.6 366.7 Q 591.2 366.4, 590.6 366.4 Q 589.5 366.4, 588.8 367.2 Q 588.2 368.0, 588.2 369.5 Q 588.2 371.0, 588.8 371.8 Q 589.5 372.6, 590.7 372.6 Q 591.4 372.6, 591.8 372.4 Q 592.3 372.3, 592.9 372.0 L 593.3 373.0 Q 592.1 373.7, 590.6 373.7 Q 588.6 373.7, 587.7 372.6 Q 586.7 371.5, 586.7 369.5 " fill="#000000"/>
<path class="legend" d="M 593.8 366.6 L 593.8 365.4 L 595.4 365.4 L 595.7 363.0 L 596.8 363.0 L 596.8 365.4 L 599.3 365.4 L 599.3 366.6 L 596.8 366.6 L 596.8 371.1 Q 596.8 372.5, 598.0 372.5 Q 598.5 372.5, 599.2 372.3 L 599.4 373.4 Q 598.5 373.7, 597.7 373.7 Q 596.6 373.7, 595.9 373.1 Q 595.3 372.4, 595.3 371.2 L 595.3 366.6 L 593.8 366.6 " fill="#000000"/>
<path class="legend" d="M 608.0 374.4 L 608.0 375.7 L 599.8 375.7 L 599.8 374.4 L 608.0 374.4 " fill="#000000"/>
<path class="legend" d="M 613.9 363.6 L 608.0 363.6 L 608.0 362.3 L 615.5 362.3 L 615.5 363.4 L 610.9 373.6 L 609.4 373.6 L 613.9 363.6 " fill="#000000"/>
<path class="legend" d="M 623.3 369.7 L 624.7 369.7 L 624.7 371.0 L 623.3 371.0 L 623.3 373.6 L 621.8 373.6 L 621.8 371.0 L 616.0 371.0 L 616.0 370.0 L 620.9 362.3 L 623.3 362.3 L 623.3 369.7 M 617.8 369.7 L 621.8 369.7 L 621.8 363.3 L 617.8 369.7 " fill="#000000"/>
<path class="legend" d="M 632.8 369.7 L 634.2 369.7 L 634.2 371.0 L 632.8 371.0 L 632.8 373.6 L 631.3 373.6 L 631.3 371.0 L 625.5 371.0 L 625.5 370.0 L 630.4 362.3 L 632.8 362.3 L 632.8 369.7 M 627.3 369.7 L 631.3 369.7 L 631.3 363.3 L 627.3 369.7 " fill="#000000"/>
<path class="legend" d="M 536.3 383.8 Q 536.3 381.8, 537.3 380.7 Q 538.3 379.5, 540.3 379.5 Q 542.1 379.5, 543.1 380.9 L 542.1 381.6 Q 541.7 381.2, 541.3 380.9 Q 540.8 380.7, 540.3 380.7 Q 539.1 380.7, 538.5 381.5 Q 537.9 382.3, 537.9 383.8 Q 537.9 385.3, 538.5 386.1 Q 539.2 386.8, 540.4 386.8 Q 541.0 386.8, 541.5 386.7 Q 542.0 386.5, 542.5 386.3 L 542.9 387.3 Q 541.8 388.0, 540.2 388.0 Q 538.3 388.0, 537.3 386.9 Q 536.3 385.7, 536.3 383.8 " fill="#000000"/>
<path class="legend" d="M 543.5 383.8 Q 543.5 381.7, 544.5 380.6 Q 545.5 379.5, 547.3 379.5 Q 549.2 379.5, 550.0 380.6 Q 550.8 381.7, 550.8 383.7 L 550.8 384.0 L 545.0 384.0 Q 545.1 385.4, 545.7 386.1 Q 546.3 386.8, 547.5 386.8 Q 548.1 386.8, 548.7 386.7 Q 549.3 386.5, 550.0 386.2 L 550.5 387.2 Q 549.6 387.6, 548.9 387.8 Q 548.2 388.0, 547.4 388.0 Q 545.5 388.0, 544.5 386.9 Q 543.5 385.8, 543.5 383.8 M 547.3 380.7 Q 546.4 380.7, 545.8 381.2 Q 545.3 381.8, 545.1 382.8 L 549.2 382.8 Q 549.1 381.7, 548.6 381.2 Q 548.2 380.7, 547.3 380.7 " fill="#000000"/>
<path class="legend" d="M 555.7 379.5 Q 557.0 379.5, 557.7 380.3 Q 558.4 381.0, 558.4 382.4 L 558.4 387.9 L 556.9 387.9 L 556.9 382.6 Q 556.9 381.6, 556.5 381.2 Q 556.1 380.7, 555.3 380.7 Q 554.5 380.7, 553.9 381.1 Q 553.3 381.4, 552.9 382.0 L 552.9 387.9 L 551.4 387.9 L 551.4 379.7 L 552.6 379.7 L 552.8 380.8 Q 553.9 379.5, 555.7 379.5 " fill="#000000"/>
<path class="legend" d="M 559.6 380.8 L 559.6 379.7 L 561.2 379.7 L 561.4 377.3 L 562.5 377.3 L 562.5 379.7 L 565.1 379.7 L 565.1 380.8 L 562.5 380.8 L 562.5 385.4 Q 562.5 386.8, 563.7 386.8 Q 564.2 386.8, 564.9 386.6 L 565.2 387.6 Q 564.3 388.0, 563.5 388.0 Q 562.4 388.0, 561.7 387.3 Q 561.0 386.7, 561.0 385.4 L 561.0 380.8 L 559.6 380.8 " fill="#000000"/>
<path class="legend" d="M 573.7 388.7 L 573.7 390.0 L 565.6 390.0 L 565.6 388.7 L 573.7 388.7 " fill="#000000"/>
<path class="legend" d="M 581.2 375.7 L 581.2 387.9 L 580.0 387.9 L 579.8 386.9 Q 578.9 388.0, 577.4 388.0 Q 575.7 388.0, 574.7 387.0 Q 573.7 385.9, 573.7 383.9 Q 573.7 381.8, 574.9 380.7 Q 576.0 379.5, 578.0 379.5 Q 578.8 379.5, 579.7 379.7 L 579.7 375.7 L 581.2 375.7 M 577.5 386.8 Q 578.3 386.8, 578.9 386.4 Q 579.5 385.9, 579.7 385.1 L 579.7 380.9 Q 578.9 380.7, 578.0 380.7 Q 576.7 380.7, 576.0 381.6 Q 575.3 382.4, 575.3 383.9 Q 575.3 385.3, 575.8 386.1 Q 576.4 386.8, 577.5 386.8 " fill="#000000"/>
<path class="legend" d="M 582.5 376.6 L 584.0 376.6 L 584.0 378.0 L 582.5 378.0 L 582.5 376.6 M 582.5 379.7 L 584.0 379.7 L 584.0 387.9 L 582.5 387.9 L 582.5 379.7 " fill="#000000"/>
<path class="legend" d="M 585.8 386.2 Q 586.5 386.5, 587.0 386.6 Q 587.6 386.8, 588.1 386.8 Q 588.9 386.8, 589.3 386.5 Q 589.7 386.2, 589.7 385.6 Q 589.7 385.2, 589.4 385.0 Q 589.2 384.8, 589.0 384.6 Q 588.7 384.5, 588.0 384.3 Q 587.9 384.3, 587.1 384.0 Q 586.4 383.7, 586.0 383.2 Q 585.6 382.7, 585.6 381.9 Q 585.6 380.9, 586.4 380.2 Q 587.2 379.5, 588.6 379.5 Q 589.3 379.5, 589.8 379.7 Q 590.4 379.8, 591.0 380.0 L 590.6 381.2 Q 590.1 381.0, 589.6 380.9 Q 589.1 380.8, 588.6 380.8 Q 587.9 380.8, 587.5 381.1 Q 587.1 381.4, 587.1 381.8 Q 587.1 382.3, 587.4 382.5 Q 587.7 382.7, 588.4 383.0 Q 588.6 383.0, 588.7 383.1 L 589.1 383.2 Q 589.8 383.4, 590.2 383.7 Q 590.6 383.9, 590.9 384.4 Q 591.2 384.8, 591.2 385.6 Q 591.2 386.7, 590.3 387.4 Q 589.5 388.0, 588.1 388.0 Q 587.4 388.0, 586.7 387.9 Q 586.0 387.7, 585.3 387.4 L 585.8 386.2 " fill="#000000"/>
<path class="legend" d="M 592.0 380.8 L 592.0 379.7 L 593.6 379.7 L 593.8 377.3 L 595.0 377.3 L 595.0 379.7 L 597.5 379.7 L 597.5 380.8 L 595.0 380.8 L 595.0 385.4 Q 595.0 386.8, 596.2 386.8 Q 596.6 386.8, 597.3 386.6 L 597.6 387.6 Q 596.7 388.0, 595.9 388.0 Q 594.8 388.0, 594.1 387.3 Q 593.5 386.7, 593.5 385.4 L 593.5 380.8 L 592.0 380.8 " fill="#000000"/>
<path class="legend" d="" fill="#000000"/>
<path class="legend" d="M 603.3 380.9 L 610.7 380.9 L 610.7 382.1 L 603.3 382.1 L 603.3 380.9 M 603.3 384.4 L 610.7 384.4 L 610.7 385.5 L 603.3 385.5 L 603.3 384.4 " fill="#000000"/>
<path class="legend" d="" fill="#000000"/>
<path class="legend" d="M 621.6 388.0 Q 619.5 388.0, 618.5 386.5 Q 617.5 384.9, 617.5 382.2 Q 617.5 379.5, 618.5 378.0 Q 619.5 376.4, 621.6 376.4 Q 623.7 376.4, 624.7 378.0 Q 625.7 379.5, 625.7 382.2 Q 625.7 384.9, 624.7 386.5 Q 623.7 388.0, 621.6 388.0 M 621.6 386.7 Q 622.8 386.7, 623.5 385.6 Q 624.1 384.4, 624.1 382.2 Q 624.1 380.0, 623.5 378.8 Q 622.8 377.7, 621.6 377.7 Q 620.4 377.7, 619.7 378.8 Q 619.1 380.0, 619.1 382.2 Q 619.1 384.4, 619.7 385.6 Q 620.4 386.7, 621.6 386.7 " fill="#000000"/>
<path class="legend" d="M 626.8 386.3 L 628.4 386.3 L 628.4 387.9 L 626.8 387.9 L 626.8 386.3 " fill="#000000"/>
<path class="legend" d="M 633.5 380.8 Q 634.5 380.8, 635.3 381.2 Q 636.2 381.6, 636.6 382.4 Q 637.1 383.2, 637.1 384.3 Q 637.1 385.5, 636.5 386.3 Q 635.9 387.2, 635.0 387.6 Q 634.1 388.0, 633.0 388.0 Q 632.0 388.0, 631.0 387.6 Q 630.1 387.2, 629.4 386.5 L 630.4 385.5 Q 630.9 386.1, 631.6 386.4 Q 632.3 386.7, 633.1 386.7 Q 634.1 386.7, 634.8 386.1 Q 635.5 385.5, 635.5 384.3 Q 635.5 383.1, 634.8 382.6 Q 634.1 382.0, 633.0 382.0 Q 632.0 382.0, 630.9 382.4 L 630.0 382.0 L 630.6 376.6 L 636.4 376.6 L 636.2 377.8 L 631.9 377.8 L 631.5 381.2 Q 632.5 380.8, 633.5 380.8 " fill="#000000"/>
<path class="legend" d="M 637.9 378.7 Q 638.3 377.6, 639.3 377.0 Q 640.3 376.4, 641.7 376.4 Q 643.4 376.4, 644.3 377.4 Q 645.3 378.3, 645.3 379.9 Q 645.3 381.6, 644.0 383.2 Q 642.8 384.8, 640.3 386.6 L 645.5 386.6 L 645.5 387.9 L 637.9 387.9 L 637.9 386.8 Q 640.0 385.3, 641.2 384.2 Q 642.5 383.1, 643.1 382.1 Q 643.7 381.1, 643.7 380.0 Q 643.7 378.9, 643.1 378.3 Q 642.6 377.7, 641.7 377.7 Q 640.7 377.7, 640.1 378.1 Q 639.5 378.4, 639.1 379.3 L 637.9 378.7 " fill="#000000"/>
<path class="legend" d="M 650.3 376.4 Q 652.3 376.4, 653.3 377.8 Q 654.3 379.2, 654.3 381.9 Q 654.3 384.9, 653.0 386.5 Q 651.8 388.0, 649.4 388.0 Q 648.7 388.0, 648.1 387.9 Q 647.5 387.7, 646.9 387.4 L 647.5 386.3 Q 648.3 386.7, 649.4 386.7 Q 651.0 386.7, 651.8 385.7 Q 652.6 384.7, 652.7 382.5 Q 652.1 383.1, 651.4 383.4 Q 650.7 383.6, 649.9 383.6 Q 648.9 383.6, 648.1 383.2 Q 647.3 382.8, 646.9 382.0 Q 646.4 381.2, 646.4 380.2 Q 646.4 379.1, 646.9 378.3 Q 647.4 377.4, 648.3 376.9 Q 649.1 376.4, 650.3 376.4 M 648.0 380.2 Q 648.0 381.2, 648.6 381.8 Q 649.2 382.4, 650.2 382.4 Q 650.8 382.4, 651.5 382.1 Q 652.2 381.8, 652.7 381.3 Q 652.6 379.4, 652.0 378.6 Q 651.4 377.7, 650.2 377.7 Q 649.6 377.7, 649.1 378.1 Q 648.6 378.4, 648.3 378.9 Q 648.0 379.5, 648.0 380.2 " fill="#000000"/>
<path class="legend" d="M 659.5 388.0 Q 657.5 388.0, 656.4 386.5 Q 655.4 384.9, 655.4 382.2 Q 655.4 379.5, 656.4 378.0 Q 657.4 376.4, 659.5 376.4 Q 661.6 376.4, 662.7 378.0 Q 663.7 379.5, 663.7 382.2 Q 663.7 384.9, 662.6 386.5 Q 661.6 388.0, 659.5 388.0 M 659.5 386.7 Q 660.8 386.7, 661.4 385.6 Q 662.1 384.4, 662.1 382.2 Q 662.1 380.0, 661.4 378.8 Q 660.8 377.7, 659.5 377.7 Q 658.3 377.7, 657.6 378.8 Q 657.0 380.0, 657.0 382.2 Q 657.0 384.4, 657.6 385.6 Q 658.3 386.7, 659.5 386.7 " fill="#000000"/>
</svg>