<svg xmlns="http://www.w3.org/2000/svg" xmlns:rdkit="http://www.rdkit.org/xml" xmlns:xlink="http://www.w3.org/1999/xlink" version="1.1" baseProfile="full" xml:space="preserve" width="2000px" height="400px" viewBox="0 0 2000 400">
<!-- END OF HEADER -->
<rect style="opacity:1.0;fill:#FFFFFF;stroke:none" width="2000.0" height="400.0" x="0.0" y="0.0"> </rect>
<path class="bond-0 atom-0 atom-1" d="M 104.7,143.3 L 111.0,193.9" style="fill:none;fill-rule:evenodd;stroke:#000000;stroke-width:2.0px;stroke-linecap:butt;stroke-linejoin:miter;stroke-opacity:1"/>
<path class="bond-0 atom-0 atom-1" d="M 94.6,144.5 L 100.9,195.2" style="fill:none;fill-rule:evenodd;stroke:#000000;stroke-width:2.0px;stroke-linecap:butt;stroke-linejoin:miter;stroke-opacity:1"/>
<path class="bond-1 atom-1 atom-2" d="M 105.9,194.5 L 65.2,225.3" style="fill:none;fill-rule:evenodd;stroke:#000000;stroke-width:2.0px;stroke-linecap:butt;stroke-linejoin:miter;stroke-opacity:1"/>
<path class="bond-2 atom-2 atom-3" d="M 65.2,225.3 L 18.2,205.5" style="fill:none;fill-rule:evenodd;stroke:#000000;stroke-width:2.0px;stroke-linecap:butt;stroke-linejoin:miter;stroke-opacity:1"/>
<path class="bond-3 atom-1 atom-4" d="M 105.9,194.5 L 153.0,214.4" style="fill:none;fill-rule:evenodd;stroke:#000000;stroke-width:2.0px;stroke-linecap:butt;stroke-linejoin:miter;stroke-opacity:1"/>
<path class="bond-4 atom-4 atom-5" d="M 153.0,214.4 L 169.2,202.2" style="fill:none;fill-rule:evenodd;stroke:#000000;stroke-width:2.0px;stroke-linecap:butt;stroke-linejoin:miter;stroke-opacity:1"/>
<path class="bond-4 atom-4 atom-5" d="M 169.2,202.2 L 185.4,189.9" style="fill:none;fill-rule:evenodd;stroke:#FF0000;stroke-width:2.0px;stroke-linecap:butt;stroke-linejoin:miter;stroke-opacity:1"/>
<path class="bond-5 atom-5 atom-6" d="M 202.0,187.2 L 217.5,193.7" style="fill:none;fill-rule:evenodd;stroke:#FF0000;stroke-width:2.0px;stroke-linecap:butt;stroke-linejoin:miter;stroke-opacity:1"/>
<path class="bond-5 atom-5 atom-6" d="M 217.5,193.7 L 233.0,200.2" style="fill:none;fill-rule:evenodd;stroke:#000000;stroke-width:2.0px;stroke-linecap:butt;stroke-linejoin:miter;stroke-opacity:1"/>
<path class="bond-6 atom-6 atom-7" d="M 244.5,194.6 L 260.6,156.5" style="fill:none;fill-rule:evenodd;stroke:#000000;stroke-width:2.0px;stroke-linecap:butt;stroke-linejoin:miter;stroke-opacity:1"/>
<path class="bond-7 atom-7 atom-8" d="M 260.6,156.5 L 311.3,150.2" style="fill:none;fill-rule:evenodd;stroke:#000000;stroke-width:2.0px;stroke-linecap:butt;stroke-linejoin:miter;stroke-opacity:1"/>
<path class="bond-7 atom-7 atom-8" d="M 266.9,145.4 L 302.4,141.0" style="fill:none;fill-rule:evenodd;stroke:#000000;stroke-width:2.0px;stroke-linecap:butt;stroke-linejoin:miter;stroke-opacity:1"/>
<path class="bond-8 atom-8 atom-9" d="M 311.3,150.2 L 331.2,103.2" style="fill:none;fill-rule:evenodd;stroke:#000000;stroke-width:2.0px;stroke-linecap:butt;stroke-linejoin:miter;stroke-opacity:1"/>
<path class="bond-9 atom-9 atom-10" d="M 331.2,103.2 L 300.4,62.4" style="fill:none;fill-rule:evenodd;stroke:#000000;stroke-width:2.0px;stroke-linecap:butt;stroke-linejoin:miter;stroke-opacity:1"/>
<path class="bond-9 atom-9 atom-10" d="M 318.4,103.2 L 296.8,74.7" style="fill:none;fill-rule:evenodd;stroke:#000000;stroke-width:2.0px;stroke-linecap:butt;stroke-linejoin:miter;stroke-opacity:1"/>
<path class="bond-10 atom-10 atom-11" d="M 300.4,62.4 L 249.7,68.7" style="fill:none;fill-rule:evenodd;stroke:#000000;stroke-width:2.0px;stroke-linecap:butt;stroke-linejoin:miter;stroke-opacity:1"/>
<path class="bond-11 atom-11 atom-12" d="M 249.7,68.7 L 229.8,115.8" style="fill:none;fill-rule:evenodd;stroke:#000000;stroke-width:2.0px;stroke-linecap:butt;stroke-linejoin:miter;stroke-opacity:1"/>
<path class="bond-11 atom-11 atom-12" d="M 256.1,79.8 L 242.2,112.7" style="fill:none;fill-rule:evenodd;stroke:#000000;stroke-width:2.0px;stroke-linecap:butt;stroke-linejoin:miter;stroke-opacity:1"/>
<path class="bond-12 atom-6 atom-13" d="M 248.5,206.8 L 287.8,223.4" style="fill:none;fill-rule:evenodd;stroke:#000000;stroke-width:2.0px;stroke-linecap:butt;stroke-linejoin:miter;stroke-opacity:1"/>
<path class="bond-13 atom-13 atom-14" d="M 287.8,223.4 L 294.1,274.1" style="fill:none;fill-rule:evenodd;stroke:#000000;stroke-width:2.0px;stroke-linecap:butt;stroke-linejoin:miter;stroke-opacity:1"/>
<path class="bond-13 atom-13 atom-14" d="M 298.8,229.7 L 303.2,265.2" style="fill:none;fill-rule:evenodd;stroke:#000000;stroke-width:2.0px;stroke-linecap:butt;stroke-linejoin:miter;stroke-opacity:1"/>
<path class="bond-14 atom-14 atom-15" d="M 294.1,274.1 L 341.1,293.9" style="fill:none;fill-rule:evenodd;stroke:#000000;stroke-width:2.0px;stroke-linecap:butt;stroke-linejoin:miter;stroke-opacity:1"/>
<path class="bond-15 atom-15 atom-16" d="M 341.1,293.9 L 381.8,263.1" style="fill:none;fill-rule:evenodd;stroke:#000000;stroke-width:2.0px;stroke-linecap:butt;stroke-linejoin:miter;stroke-opacity:1"/>
<path class="bond-15 atom-15 atom-16" d="M 341.0,281.2 L 369.6,259.6" style="fill:none;fill-rule:evenodd;stroke:#000000;stroke-width:2.0px;stroke-linecap:butt;stroke-linejoin:miter;stroke-opacity:1"/>
<path class="bond-16 atom-16 atom-17" d="M 381.8,263.1 L 375.5,212.5" style="fill:none;fill-rule:evenodd;stroke:#000000;stroke-width:2.0px;stroke-linecap:butt;stroke-linejoin:miter;stroke-opacity:1"/>
<path class="bond-17 atom-17 atom-18" d="M 375.5,212.5 L 328.5,192.6" style="fill:none;fill-rule:evenodd;stroke:#000000;stroke-width:2.0px;stroke-linecap:butt;stroke-linejoin:miter;stroke-opacity:1"/>
<path class="bond-17 atom-17 atom-18" d="M 364.5,218.9 L 331.6,205.0" style="fill:none;fill-rule:evenodd;stroke:#000000;stroke-width:2.0px;stroke-linecap:butt;stroke-linejoin:miter;stroke-opacity:1"/>
<path class="bond-18 atom-6 atom-19" d="M 236.8,212.8 L 220.9,250.5" style="fill:none;fill-rule:evenodd;stroke:#000000;stroke-width:2.0px;stroke-linecap:butt;stroke-linejoin:miter;stroke-opacity:1"/>
<path class="bond-19 atom-19 atom-20" d="M 220.9,250.5 L 267.9,270.4" style="fill:none;fill-rule:evenodd;stroke:#000000;stroke-width:2.0px;stroke-linecap:butt;stroke-linejoin:miter;stroke-opacity:1"/>
<path class="bond-20 atom-19 atom-21" d="M 220.9,250.5 L 173.8,230.7" style="fill:none;fill-rule:evenodd;stroke:#000000;stroke-width:2.0px;stroke-linecap:butt;stroke-linejoin:miter;stroke-opacity:1"/>
<path class="bond-21 atom-19 atom-22" d="M 220.9,250.5 L 201.0,297.6" style="fill:none;fill-rule:evenodd;stroke:#000000;stroke-width:2.0px;stroke-linecap:butt;stroke-linejoin:miter;stroke-opacity:1"/>
<path class="bond-22 atom-12 atom-7" d="M 229.8,115.8 L 260.6,156.5" style="fill:none;fill-rule:evenodd;stroke:#000000;stroke-width:2.0px;stroke-linecap:butt;stroke-linejoin:miter;stroke-opacity:1"/>
<path class="bond-23 atom-18 atom-13" d="M 328.5,192.6 L 287.8,223.4" style="fill:none;fill-rule:evenodd;stroke:#000000;stroke-width:2.0px;stroke-linecap:butt;stroke-linejoin:miter;stroke-opacity:1"/>
<path class="atom-5" d="M 187.1 183.7 Q 187.1 180.2, 188.8 178.3 Q 190.5 176.3, 193.7 176.3 Q 196.9 176.3, 198.6 178.3 Q 200.3 180.2, 200.3 183.7 Q 200.3 187.2, 198.6 189.2 Q 196.9 191.2, 193.7 191.2 Q 190.5 191.2, 188.8 189.2 Q 187.1 187.2, 187.1 183.7 M 193.7 189.5 Q 195.9 189.5, 197.1 188.1 Q 198.3 186.6, 198.3 183.7 Q 198.3 180.8, 197.1 179.4 Q 195.9 178.0, 193.7 178.0 Q 191.5 178.0, 190.3 179.4 Q 189.1 180.8, 189.1 183.7 Q 189.1 186.6, 190.3 188.1 Q 191.5 189.5, 193.7 189.5 " fill="#FF0000"/>
<path class="atom-6" d="M 235.2 208.5 Q 235.4 208.6, 236.1 208.8 Q 236.7 209.1, 237.5 209.3 Q 238.2 209.5, 239.0 209.5 Q 240.3 209.5, 241.1 208.8 Q 241.9 208.2, 241.9 207.0 Q 241.9 206.2, 241.5 205.7 Q 241.1 205.2, 240.5 204.9 Q 239.9 204.7, 238.9 204.4 Q 237.6 204.0, 236.8 203.6 Q 236.1 203.2, 235.5 202.5 Q 235.0 201.7, 235.0 200.4 Q 235.0 198.6, 236.2 197.4 Q 237.5 196.3, 239.9 196.3 Q 241.6 196.3, 243.5 197.1 L 243.0 198.7 Q 241.3 198.0, 240.0 198.0 Q 238.6 198.0, 237.8 198.6 Q 237.0 199.1, 237.0 200.1 Q 237.0 200.9, 237.4 201.4 Q 237.8 201.9, 238.4 202.1 Q 239.0 202.4, 240.0 202.7 Q 241.3 203.1, 242.0 203.5 Q 242.8 203.9, 243.4 204.8 Q 243.9 205.6, 243.9 207.0 Q 243.9 209.0, 242.6 210.1 Q 241.3 211.1, 239.0 211.1 Q 237.8 211.1, 236.8 210.8 Q 235.8 210.6, 234.7 210.1 L 235.2 208.5 " fill="#000000"/>
<path class="atom-6" d="M 244.9 196.3 L 246.8 196.3 L 246.8 198.1 L 244.9 198.1 L 244.9 196.3 M 244.9 200.2 L 246.8 200.2 L 246.8 210.7 L 244.9 210.7 L 244.9 200.2 " fill="#000000"/>
<path class="legend" d="M 168.6 365.4 L 168.7 366.5 Q 169.6 365.3, 171.0 365.3 Q 171.5 365.3, 172.1 365.4 L 171.8 366.8 Q 171.1 366.6, 170.8 366.6 Q 170.1 366.6, 169.6 366.9 Q 169.2 367.1, 168.8 367.8 L 168.8 373.6 L 167.3 373.6 L 167.3 365.4 L 168.6 365.4 " fill="#000000"/>
<path class="legend" d="M 172.3 369.5 Q 172.3 367.5, 173.3 366.4 Q 174.3 365.3, 176.2 365.3 Q 178.0 365.3, 178.8 366.4 Q 179.6 367.4, 179.6 369.5 L 179.6 369.7 L 173.8 369.7 Q 173.9 371.1, 174.5 371.8 Q 175.1 372.6, 176.3 372.6 Q 176.9 372.6, 177.5 372.4 Q 178.1 372.3, 178.8 372.0 L 179.3 373.0 Q 178.4 373.4, 177.7 373.6 Q 177.0 373.8, 176.2 373.8 Q 174.4 373.8, 173.3 372.6 Q 172.3 371.5, 172.3 369.5 M 176.2 366.4 Q 175.2 366.4, 174.6 367.0 Q 174.1 367.5, 173.9 368.6 L 178.0 368.6 Q 177.9 367.5, 177.4 367.0 Q 177.0 366.4, 176.2 366.4 " fill="#000000"/>
<path class="legend" d="M 180.2 371.4 Q 180.2 370.1, 181.2 369.4 Q 182.3 368.7, 184.2 368.7 L 185.5 368.7 L 185.5 368.3 Q 185.5 367.3, 185.0 366.9 Q 184.6 366.4, 183.6 366.4 Q 182.9 366.4, 182.4 366.6 Q 181.9 366.7, 181.1 367.0 L 180.7 366.0 Q 182.2 365.3, 183.6 365.3 Q 185.4 365.3, 186.2 366.0 Q 187.0 366.8, 187.0 368.4 L 187.0 373.6 L 185.8 373.6 Q 185.8 373.6, 185.7 373.3 Q 185.7 373.1, 185.6 372.7 Q 184.4 373.8, 182.9 373.8 Q 181.7 373.8, 180.9 373.2 Q 180.2 372.5, 180.2 371.4 M 181.7 371.4 Q 181.7 372.0, 182.1 372.3 Q 182.5 372.6, 183.2 372.6 Q 183.8 372.6, 184.4 372.4 Q 185.0 372.0, 185.5 371.5 L 185.5 369.8 L 184.3 369.8 Q 183.0 369.8, 182.4 370.2 Q 181.7 370.6, 181.7 371.4 " fill="#000000"/>
<path class="legend" d="M 188.2 369.5 Q 188.2 367.5, 189.2 366.4 Q 190.2 365.3, 192.1 365.3 Q 194.0 365.3, 195.0 366.6 L 194.0 367.4 Q 193.6 366.9, 193.1 366.7 Q 192.7 366.4, 192.1 366.4 Q 191.0 366.4, 190.4 367.2 Q 189.7 368.0, 189.7 369.5 Q 189.7 371.0, 190.4 371.8 Q 191.0 372.6, 192.2 372.6 Q 192.9 372.6, 193.4 372.4 Q 193.8 372.3, 194.4 372.0 L 194.8 373.0 Q 193.6 373.7, 192.1 373.7 Q 190.2 373.7, 189.2 372.6 Q 188.2 371.5, 188.2 369.5 " fill="#000000"/>
<path class="legend" d="M 195.4 366.6 L 195.4 365.4 L 196.9 365.4 L 197.2 363.0 L 198.3 363.0 L 198.3 365.4 L 200.8 365.4 L 200.8 366.6 L 198.3 366.6 L 198.3 371.1 Q 198.3 372.5, 199.5 372.5 Q 200.0 372.5, 200.7 372.3 L 200.9 373.4 Q 200.1 373.7, 199.2 373.7 Q 198.2 373.7, 197.5 373.1 Q 196.8 372.4, 196.8 371.2 L 196.8 366.6 L 195.4 366.6 " fill="#000000"/>
<path class="legend" d="M 209.5 374.4 L 209.5 375.7 L 201.3 375.7 L 201.3 374.4 L 209.5 374.4 " fill="#000000"/>
<path class="legend" d="M 210.1 372.4 L 212.6 372.4 L 212.6 363.9 L 209.9 364.7 L 209.5 363.8 L 213.0 362.2 L 214.1 362.4 L 214.1 372.4 L 216.3 372.4 L 216.3 373.6 L 210.1 373.6 L 210.1 372.4 " fill="#000000"/>
<path class="legend" d="M 222.9 363.6 L 217.0 363.6 L 217.0 362.3 L 224.5 362.3 L 224.5 363.4 L 220.0 373.6 L 218.4 373.6 L 222.9 363.6 " fill="#000000"/>
<path class="legend" d="M 229.1 366.5 Q 230.1 366.5, 230.9 367.0 Q 231.7 367.4, 232.2 368.2 Q 232.7 369.0, 232.7 370.0 Q 232.7 371.2, 232.1 372.1 Q 231.5 372.9, 230.6 373.3 Q 229.7 373.8, 228.6 373.8 Q 227.6 373.8, 226.6 373.4 Q 225.6 373.0, 225.0 372.3 L 226.0 371.3 Q 226.5 371.8, 227.2 372.2 Q 227.9 372.5, 228.7 372.5 Q 229.7 372.5, 230.4 371.8 Q 231.1 371.2, 231.1 370.1 Q 231.1 368.9, 230.4 368.3 Q 229.7 367.7, 228.6 367.7 Q 227.6 367.7, 226.5 368.2 L 225.6 367.8 L 226.1 362.3 L 232.0 362.3 L 231.8 363.6 L 227.4 363.6 L 227.1 366.9 Q 228.1 366.5, 229.1 366.5 " fill="#000000"/>
<path class="legend" d="M 136.4 383.8 Q 136.4 381.8, 137.4 380.7 Q 138.4 379.5, 140.4 379.5 Q 142.2 379.5, 143.2 380.9 L 142.2 381.6 Q 141.8 381.2, 141.4 380.9 Q 140.9 380.7, 140.4 380.7 Q 139.2 380.7, 138.6 381.5 Q 138.0 382.3, 138.0 383.8 Q 138.0 385.3, 138.6 386.1 Q 139.3 386.8, 140.5 386.8 Q 141.1 386.8, 141.6 386.7 Q 142.1 386.5, 142.6 386.3 L 143.1 387.3 Q 141.9 388.0, 140.3 388.0 Q 138.4 388.0, 137.4 386.9 Q 136.4 385.7, 136.4 383.8 " fill="#000000"/>
<path class="legend" d="M 143.6 383.8 Q 143.6 381.7, 144.6 380.6 Q 145.6 379.5, 147.5 379.5 Q 149.3 379.5, 150.1 380.6 Q 150.9 381.7, 150.9 383.7 L 150.9 384.0 L 145.1 384.0 Q 145.2 385.4, 145.8 386.1 Q 146.4 386.8, 147.6 386.8 Q 148.2 386.8, 148.8 386.7 Q 149.4 386.5, 150.1 386.2 L 150.6 387.2 Q 149.7 387.6, 149.0 387.8 Q 148.3 388.0, 147.5 388.0 Q 145.6 388.0, 144.6 386.9 Q 143.6 385.8, 143.6 383.8 M 147.5 380.7 Q 146.5 380.7, 145.9 381.2 Q 145.4 381.8, 145.2 382.8 L 149.3 382.8 Q 149.2 381.7, 148.7 381.2 Q 148.3 380.7, 147.5 380.7 " fill="#000000"/>
<path class="legend" d="M 155.8 379.5 Q 157.1 379.5, 157.8 380.3 Q 158.5 381.0, 158.5 382.4 L 158.5 387.9 L 157.0 387.9 L 157.0 382.6 Q 157.0 381.6, 156.6 381.2 Q 156.2 380.7, 155.4 380.7 Q 154.6 380.7, 154.0 381.1 Q 153.4 381.4, 153.0 382.0 L 153.0 387.9 L 151.5 387.9 L 151.5 379.7 L 152.7 379.7 L 152.9 380.8 Q 154.0 379.5, 155.8 379.5 " fill="#000000"/>
<path class="legend" d="M 159.7 380.8 L 159.7 379.7 L 161.3 379.7 L 161.5 377.3 L 162.7 377.3 L 162.7 379.7 L 165.2 379.7 L 165.2 380.8 L 162.7 380.8 L 162.7 385.4 Q 162.7 386.8, 163.9 386.8 Q 164.3 386.8, 165.0 386.6 L 165.3 387.6 Q 164.4 388.0, 163.6 388.0 Q 162.5 388.0, 161.8 387.3 Q 161.1 386.7, 161.1 385.4 L 161.1 380.8 L 159.7 380.8 " fill="#000000"/>
<path class="legend" d="M 173.9 388.7 L 173.9 390.0 L 165.7 390.0 L 165.7 388.7 L 173.9 388.7 " fill="#000000"/>
<path class="legend" d="M 181.3 375.7 L 181.3 387.9 L 180.1 387.9 L 179.9 386.9 Q 179.0 388.0, 177.5 388.0 Q 175.8 388.0, 174.8 387.0 Q 173.9 385.9, 173.9 383.9 Q 173.9 381.8, 175.0 380.7 Q 176.1 379.5, 178.1 379.5 Q 178.9 379.5, 179.8 379.7 L 179.8 375.7 L 181.3 375.7 M 177.6 386.8 Q 178.4 386.8, 179.0 386.4 Q 179.6 385.9, 179.8 385.1 L 179.8 380.9 Q 179.0 380.7, 178.1 380.7 Q 176.8 380.7, 176.1 381.6 Q 175.4 382.4, 175.4 383.9 Q 175.4 385.3, 175.9 386.1 Q 176.5 386.8, 177.6 386.8 " fill="#000000"/>
<path class="legend" d="M 182.6 376.6 L 184.1 376.6 L 184.1 378.0 L 182.6 378.0 L 182.6 376.6 M 182.6 379.7 L 184.1 379.7 L 184.1 387.9 L 182.6 387.9 L 182.6 379.7 " fill="#000000"/>
<path class="legend" d="M 185.9 386.2 Q 186.6 386.5, 187.1 386.6 Q 187.7 386.8, 188.2 386.8 Q 189.0 386.8, 189.4 386.5 Q 189.8 386.2, 189.8 385.6 Q 189.8 385.2, 189.5 385.0 Q 189.3 384.8, 189.1 384.6 Q 188.8 384.5, 188.1 384.3 Q 188.0 384.3, 187.2 384.0 Q 186.5 383.7, 186.1 383.2 Q 185.7 382.7, 185.7 381.9 Q 185.7 380.9, 186.5 380.2 Q 187.3 379.5, 188.7 379.5 Q 189.4 379.5, 189.9 379.7 Q 190.5 379.8, 191.1 380.0 L 190.7 381.2 Q 190.2 381.0, 189.7 380.9 Q 189.2 380.8, 188.7 380.8 Q 188.0 380.8, 187.6 381.1 Q 187.2 381.4, 187.2 381.8 Q 187.2 382.3, 187.5 382.5 Q 187.8 382.7, 188.5 383.0 Q 188.7 383.0, 188.8 383.1 L 189.2 383.2 Q 189.9 383.4, 190.3 383.7 Q 190.7 383.9, 191.0 384.4 Q 191.3 384.8, 191.3 385.6 Q 191.3 386.7, 190.4 387.4 Q 189.6 388.0, 188.3 388.0 Q 187.5 388.0, 186.8 387.9 Q 186.1 387.7, 185.5 387.4 L 185.9 386.2 " fill="#000000"/>
<path class="legend" d="M 192.1 380.8 L 192.1 379.7 L 193.7 379.7 L 193.9 377.3 L 195.1 377.3 L 195.1 379.7 L 197.6 379.7 L 197.6 380.8 L 195.1 380.8 L 195.1 385.4 Q 195.1 386.8, 196.3 386.8 Q 196.7 386.8, 197.5 386.6 L 197.7 387.6 Q 196.8 388.0, 196.0 388.0 Q 194.9 388.0, 194.2 387.3 Q 193.6 386.7, 193.6 385.4 L 193.6 380.8 L 192.1 380.8 " fill="#000000"/>
<path class="legend" d="" fill="#000000"/>
<path class="legend" d="M 203.4 380.9 L 210.8 380.9 L 210.8 382.1 L 203.4 382.1 L 203.4 380.9 M 203.4 384.4 L 210.8 384.4 L 210.8 385.5 L 203.4 385.5 L 203.4 384.4 " fill="#000000"/>
<path class="legend" d="" fill="#000000"/>
<path class="legend" d="M 221.7 388.0 Q 219.6 388.0, 218.6 386.5 Q 217.6 384.9, 217.6 382.2 Q 217.6 379.5, 218.6 378.0 Q 219.6 376.4, 221.7 376.4 Q 223.8 376.4, 224.8 378.0 Q 225.8 379.5, 225.8 382.2 Q 225.8 384.9, 224.8 386.5 Q 223.8 388.0, 221.7 388.0 M 221.7 386.7 Q 222.9 386.7, 223.6 385.6 Q 224.2 384.4, 224.2 382.2 Q 224.2 380.0, 223.6 378.8 Q 222.9 377.7, 221.7 377.7 Q 220.5 377.7, 219.8 378.8 Q 219.2 380.0, 219.2 382.2 Q 219.2 384.4, 219.8 385.6 Q 220.5 386.7, 221.7 386.7 " fill="#000000"/>
<path class="legend" d="M 226.9 386.3 L 228.5 386.3 L 228.5 387.9 L 226.9 387.9 L 226.9 386.3 " fill="#000000"/>
<path class="legend" d="M 233.6 380.8 Q 234.6 380.8, 235.4 381.2 Q 236.3 381.6, 236.7 382.4 Q 237.2 383.2, 237.2 384.3 Q 237.2 385.5, 236.6 386.3 Q 236.1 387.2, 235.1 387.6 Q 234.2 388.0, 233.1 388.0 Q 232.1 388.0, 231.1 387.6 Q 230.2 387.2, 229.5 386.5 L 230.5 385.5 Q 231.0 386.1, 231.7 386.4 Q 232.5 386.7, 233.2 386.7 Q 234.2 386.7, 234.9 386.1 Q 235.6 385.5, 235.6 384.3 Q 235.6 383.1, 234.9 382.6 Q 234.2 382.0, 233.1 382.0 Q 232.1 382.0, 231.0 382.4 L 230.1 382.0 L 230.7 376.6 L 236.5 376.6 L 236.3 377.8 L 232.0 377.8 L 231.6 381.2 Q 232.6 380.8, 233.6 380.8 " fill="#000000"/>
<path class="legend" d="M 242.4 380.8 Q 243.4 380.8, 244.2 381.2 Q 244.9 381.7, 245.4 382.5 Q 245.8 383.2, 245.8 384.2 Q 245.8 385.3, 245.3 386.2 Q 244.8 387.1, 244.0 387.5 Q 243.1 388.0, 242.0 388.0 Q 240.0 388.0, 239.0 386.7 Q 238.0 385.3, 238.0 382.6 Q 238.0 379.6, 239.2 378.0 Q 240.5 376.4, 242.9 376.4 Q 243.6 376.4, 244.2 376.6 Q 244.8 376.8, 245.4 377.1 L 244.7 378.2 Q 243.9 377.7, 242.9 377.7 Q 241.3 377.7, 240.5 378.8 Q 239.7 379.8, 239.6 381.9 Q 240.1 381.4, 240.9 381.1 Q 241.6 380.8, 242.4 380.8 M 242.0 386.7 Q 242.6 386.7, 243.1 386.4 Q 243.6 386.1, 243.9 385.5 Q 244.2 384.9, 244.2 384.3 Q 244.2 383.2, 243.7 382.7 Q 243.1 382.1, 242.1 382.1 Q 241.4 382.1, 240.7 382.4 Q 240.1 382.7, 239.6 383.1 Q 239.6 385.0, 240.2 385.9 Q 240.8 386.7, 242.0 386.7 " fill="#000000"/>
<path class="legend" d="M 246.7 378.7 Q 247.1 377.6, 248.1 377.0 Q 249.1 376.4, 250.5 376.4 Q 252.2 376.4, 253.2 377.4 Q 254.1 378.3, 254.1 379.9 Q 254.1 381.6, 252.9 383.2 Q 251.7 384.8, 249.1 386.6 L 254.3 386.6 L 254.3 387.9 L 246.7 387.9 L 246.7 386.8 Q 248.8 385.3, 250.1 384.2 Q 251.3 383.1, 251.9 382.1 Q 252.5 381.1, 252.5 380.0 Q 252.5 378.9, 252.0 378.3 Q 251.4 377.7, 250.5 377.7 Q 249.6 377.7, 249.0 378.1 Q 248.4 378.4, 247.9 379.3 L 246.7 378.7 " fill="#000000"/>
<path class="legend" d="M 259.4 388.0 Q 257.3 388.0, 256.3 386.5 Q 255.3 384.9, 255.3 382.2 Q 255.3 379.5, 256.3 378.0 Q 257.3 376.4, 259.4 376.4 Q 261.5 376.4, 262.5 378.0 Q 263.6 379.5, 263.6 382.2 Q 263.6 384.9, 262.5 386.5 Q 261.5 388.0, 259.4 388.0 M 259.4 386.7 Q 260.7 386.7, 261.3 385.6 Q 262.0 384.4, 262.0 382.2 Q 262.0 380.0, 261.3 378.8 Q 260.7 377.7, 259.4 377.7 Q 258.2 377.7, 257.5 378.8 Q 256.9 380.0, 256.9 382.2 Q 256.9 384.4, 257.5 385.6 Q 258.2 386.7, 259.4 386.7 " fill="#000000"/>
<path class="bond-0 atom-0 atom-1" d="M 478.4,147.4 L 486.1,197.9" style="fill:none;fill-rule:evenodd;stroke:#000000;stroke-width:2.0px;stroke-linecap:butt;stroke-linejoin:miter;stroke-opacity:1"/>
<path class="bond-0 atom-0 atom-1" d="M 468.3,149.0 L 476.0,199.5" style="fill:none;fill-rule:evenodd;stroke:#000000;stroke-width:2.0px;stroke-linecap:butt;stroke-linejoin:miter;stroke-opacity:1"/>
<path class="bond-1 atom-1 atom-2" d="M 481.1,198.7 L 441.2,230.6" style="fill:none;fill-rule:evenodd;stroke:#000000;stroke-width:2.0px;stroke-linecap:butt;stroke-linejoin:miter;stroke-opacity:1"/>
<path class="bond-2 atom-1 atom-3" d="M 481.1,198.7 L 528.6,217.2" style="fill:none;fill-rule:evenodd;stroke:#000000;stroke-width:2.0px;stroke-linecap:butt;stroke-linejoin:miter;stroke-opacity:1"/>
<path class="bond-3 atom-3 atom-4" d="M 528.6,217.2 L 544.4,204.6" style="fill:none;fill-rule:evenodd;stroke:#000000;stroke-width:2.0px;stroke-linecap:butt;stroke-linejoin:miter;stroke-opacity:1"/>
<path class="bond-3 atom-3 atom-4" d="M 544.4,204.6 L 560.1,191.9" style="fill:none;fill-rule:evenodd;stroke:#FF0000;stroke-width:2.0px;stroke-linecap:butt;stroke-linejoin:miter;stroke-opacity:1"/>
<path class="bond-4 atom-4 atom-5" d="M 576.8,188.5 L 592.5,194.6" style="fill:none;fill-rule:evenodd;stroke:#FF0000;stroke-width:2.0px;stroke-linecap:butt;stroke-linejoin:miter;stroke-opacity:1"/>
<path class="bond-4 atom-4 atom-5" d="M 592.5,194.6 L 608.3,200.8" style="fill:none;fill-rule:evenodd;stroke:#000000;stroke-width:2.0px;stroke-linecap:butt;stroke-linejoin:miter;stroke-opacity:1"/>
<path class="bond-5 atom-5 atom-6" d="M 619.5,194.9 L 634.6,156.2" style="fill:none;fill-rule:evenodd;stroke:#000000;stroke-width:2.0px;stroke-linecap:butt;stroke-linejoin:miter;stroke-opacity:1"/>
<path class="bond-6 atom-6 atom-7" d="M 634.6,156.2 L 685.0,148.5" style="fill:none;fill-rule:evenodd;stroke:#000000;stroke-width:2.0px;stroke-linecap:butt;stroke-linejoin:miter;stroke-opacity:1"/>
<path class="bond-6 atom-6 atom-7" d="M 640.6,145.0 L 675.9,139.5" style="fill:none;fill-rule:evenodd;stroke:#000000;stroke-width:2.0px;stroke-linecap:butt;stroke-linejoin:miter;stroke-opacity:1"/>
<path class="bond-7 atom-7 atom-8" d="M 685.0,148.5 L 703.6,100.9" style="fill:none;fill-rule:evenodd;stroke:#000000;stroke-width:2.0px;stroke-linecap:butt;stroke-linejoin:miter;stroke-opacity:1"/>
<path class="bond-8 atom-8 atom-9" d="M 703.6,100.9 L 671.6,61.1" style="fill:none;fill-rule:evenodd;stroke:#000000;stroke-width:2.0px;stroke-linecap:butt;stroke-linejoin:miter;stroke-opacity:1"/>
<path class="bond-8 atom-8 atom-9" d="M 690.8,101.3 L 668.4,73.4" style="fill:none;fill-rule:evenodd;stroke:#000000;stroke-width:2.0px;stroke-linecap:butt;stroke-linejoin:miter;stroke-opacity:1"/>
<path class="bond-9 atom-9 atom-10" d="M 671.6,61.1 L 621.1,68.8" style="fill:none;fill-rule:evenodd;stroke:#000000;stroke-width:2.0px;stroke-linecap:butt;stroke-linejoin:miter;stroke-opacity:1"/>
<path class="bond-10 atom-10 atom-11" d="M 621.1,68.8 L 602.6,116.4" style="fill:none;fill-rule:evenodd;stroke:#000000;stroke-width:2.0px;stroke-linecap:butt;stroke-linejoin:miter;stroke-opacity:1"/>
<path class="bond-10 atom-10 atom-11" d="M 627.9,79.6 L 614.9,112.9" style="fill:none;fill-rule:evenodd;stroke:#000000;stroke-width:2.0px;stroke-linecap:butt;stroke-linejoin:miter;stroke-opacity:1"/>
<path class="bond-11 atom-5 atom-12" d="M 623.8,206.8 L 663.6,222.3" style="fill:none;fill-rule:evenodd;stroke:#000000;stroke-width:2.0px;stroke-linecap:butt;stroke-linejoin:miter;stroke-opacity:1"/>
<path class="bond-12 atom-12 atom-13" d="M 663.6,222.3 L 671.4,272.8" style="fill:none;fill-rule:evenodd;stroke:#000000;stroke-width:2.0px;stroke-linecap:butt;stroke-linejoin:miter;stroke-opacity:1"/>
<path class="bond-12 atom-12 atom-13" d="M 674.9,228.3 L 680.3,263.7" style="fill:none;fill-rule:evenodd;stroke:#000000;stroke-width:2.0px;stroke-linecap:butt;stroke-linejoin:miter;stroke-opacity:1"/>
<path class="bond-13 atom-13 atom-14" d="M 671.4,272.8 L 718.9,291.3" style="fill:none;fill-rule:evenodd;stroke:#000000;stroke-width:2.0px;stroke-linecap:butt;stroke-linejoin:miter;stroke-opacity:1"/>
<path class="bond-14 atom-14 atom-15" d="M 718.9,291.3 L 758.8,259.4" style="fill:none;fill-rule:evenodd;stroke:#000000;stroke-width:2.0px;stroke-linecap:butt;stroke-linejoin:miter;stroke-opacity:1"/>
<path class="bond-14 atom-14 atom-15" d="M 718.5,278.5 L 746.4,256.2" style="fill:none;fill-rule:evenodd;stroke:#000000;stroke-width:2.0px;stroke-linecap:butt;stroke-linejoin:miter;stroke-opacity:1"/>
<path class="bond-15 atom-15 atom-16" d="M 758.8,259.4 L 751.0,208.9" style="fill:none;fill-rule:evenodd;stroke:#000000;stroke-width:2.0px;stroke-linecap:butt;stroke-linejoin:miter;stroke-opacity:1"/>
<path class="bond-16 atom-16 atom-17" d="M 751.0,208.9 L 703.5,190.4" style="fill:none;fill-rule:evenodd;stroke:#000000;stroke-width:2.0px;stroke-linecap:butt;stroke-linejoin:miter;stroke-opacity:1"/>
<path class="bond-16 atom-16 atom-17" d="M 740.2,215.6 L 706.9,202.7" style="fill:none;fill-rule:evenodd;stroke:#000000;stroke-width:2.0px;stroke-linecap:butt;stroke-linejoin:miter;stroke-opacity:1"/>
<path class="bond-17 atom-5 atom-18" d="M 612.4,213.1 L 597.5,251.4" style="fill:none;fill-rule:evenodd;stroke:#000000;stroke-width:2.0px;stroke-linecap:butt;stroke-linejoin:miter;stroke-opacity:1"/>
<path class="bond-18 atom-18 atom-19" d="M 597.5,251.4 L 645.1,269.9" style="fill:none;fill-rule:evenodd;stroke:#000000;stroke-width:2.0px;stroke-linecap:butt;stroke-linejoin:miter;stroke-opacity:1"/>
<path class="bond-19 atom-18 atom-20" d="M 597.5,251.4 L 549.9,232.8" style="fill:none;fill-rule:evenodd;stroke:#000000;stroke-width:2.0px;stroke-linecap:butt;stroke-linejoin:miter;stroke-opacity:1"/>
<path class="bond-20 atom-18 atom-21" d="M 597.5,251.4 L 579.0,298.9" style="fill:none;fill-rule:evenodd;stroke:#000000;stroke-width:2.0px;stroke-linecap:butt;stroke-linejoin:miter;stroke-opacity:1"/>
<path class="bond-21 atom-11 atom-6" d="M 602.6,116.4 L 634.6,156.2" style="fill:none;fill-rule:evenodd;stroke:#000000;stroke-width:2.0px;stroke-linecap:butt;stroke-linejoin:miter;stroke-opacity:1"/>
<path class="bond-22 atom-17 atom-12" d="M 703.5,190.4 L 663.6,222.3" style="fill:none;fill-rule:evenodd;stroke:#000000;stroke-width:2.0px;stroke-linecap:butt;stroke-linejoin:miter;stroke-opacity:1"/>
<path class="atom-4" d="M 561.8 185.3 Q 561.8 181.8, 563.5 179.9 Q 565.3 178.0, 568.5 178.0 Q 571.7 178.0, 573.4 179.9 Q 575.1 181.8, 575.1 185.3 Q 575.1 188.8, 573.4 190.8 Q 571.6 192.8, 568.5 192.8 Q 565.3 192.8, 563.5 190.8 Q 561.8 188.8, 561.8 185.3 M 568.5 191.2 Q 570.7 191.2, 571.9 189.7 Q 573.1 188.2, 573.1 185.3 Q 573.1 182.5, 571.9 181.0 Q 570.7 179.6, 568.5 179.6 Q 566.3 179.6, 565.1 181.0 Q 563.9 182.4, 563.9 185.3 Q 563.9 188.2, 565.1 189.7 Q 566.3 191.2, 568.5 191.2 " fill="#FF0000"/>
<path class="atom-5" d="M 610.5 208.8 Q 610.7 208.8, 611.4 209.1 Q 612.0 209.4, 612.8 209.6 Q 613.5 209.8, 614.3 209.8 Q 615.6 209.8, 616.4 209.1 Q 617.2 208.4, 617.2 207.3 Q 617.2 206.5, 616.8 206.0 Q 616.4 205.5, 615.8 205.2 Q 615.2 205.0, 614.2 204.6 Q 612.9 204.3, 612.1 203.9 Q 611.4 203.5, 610.8 202.7 Q 610.3 202.0, 610.3 200.7 Q 610.3 198.8, 611.5 197.7 Q 612.8 196.6, 615.2 196.6 Q 616.9 196.6, 618.8 197.4 L 618.3 199.0 Q 616.6 198.3, 615.3 198.3 Q 613.9 198.3, 613.1 198.8 Q 612.3 199.4, 612.3 200.4 Q 612.3 201.2, 612.7 201.7 Q 613.1 202.1, 613.7 202.4 Q 614.3 202.7, 615.3 203.0 Q 616.6 203.4, 617.4 203.8 Q 618.1 204.2, 618.7 205.0 Q 619.3 205.9, 619.3 207.3 Q 619.3 209.3, 617.9 210.3 Q 616.6 211.4, 614.4 211.4 Q 613.1 211.4, 612.1 211.1 Q 611.1 210.9, 610.0 210.4 L 610.5 208.8 " fill="#000000"/>
<path class="atom-5" d="M 620.2 196.6 L 622.1 196.6 L 622.1 198.3 L 620.2 198.3 L 620.2 196.6 M 620.2 200.5 L 622.1 200.5 L 622.1 211.0 L 620.2 211.0 L 620.2 200.5 " fill="#000000"/>
<path class="legend" d="M 567.6 365.4 L 567.8 366.5 Q 568.6 365.3, 570.0 365.3 Q 570.5 365.3, 571.1 365.4 L 570.8 366.8 Q 570.2 366.6, 569.8 366.6 Q 569.1 366.6, 568.6 366.9 Q 568.2 367.1, 567.9 367.8 L 567.9 373.6 L 566.4 373.6 L 566.4 365.4 L 567.6 365.4 " fill="#000000"/>
<path class="legend" d="M 571.3 369.5 Q 571.3 367.5, 572.3 366.4 Q 573.3 365.3, 575.2 365.3 Q 577.0 365.3, 577.8 366.4 Q 578.6 367.4, 578.6 369.5 L 578.6 369.7 L 572.9 369.7 Q 572.9 371.1, 573.5 371.8 Q 574.1 372.6, 575.3 372.6 Q 575.9 372.6, 576.5 372.4 Q 577.1 372.3, 577.8 372.0 L 578.3 373.0 Q 577.5 373.4, 576.7 373.6 Q 576.0 373.8, 575.2 373.8 Q 573.4 373.8, 572.3 372.6 Q 571.3 371.5, 571.3 369.5 M 575.2 366.4 Q 574.2 366.4, 573.7 367.0 Q 573.1 367.5, 572.9 368.6 L 577.0 368.6 Q 576.9 367.5, 576.5 367.0 Q 576.0 366.4, 575.2 366.4 " fill="#000000"/>
<path class="legend" d="M 579.2 371.4 Q 579.2 370.1, 580.3 369.4 Q 581.3 368.7, 583.3 368.7 L 584.5 368.7 L 584.5 368.3 Q 584.5 367.3, 584.0 366.9 Q 583.6 366.4, 582.6 366.4 Q 581.9 366.4, 581.4 366.6 Q 580.9 366.7, 580.1 367.0 L 579.7 366.0 Q 581.2 365.3, 582.6 365.3 Q 584.4 365.3, 585.2 366.0 Q 586.0 366.8, 586.0 368.4 L 586.0 373.6 L 584.8 373.6 Q 584.8 373.6, 584.7 373.3 Q 584.7 373.1, 584.6 372.7 Q 583.4 373.8, 581.9 373.8 Q 580.7 373.8, 579.9 373.2 Q 579.2 372.5, 579.2 371.4 M 580.7 371.4 Q 580.7 372.0, 581.1 372.3 Q 581.5 372.6, 582.2 372.6 Q 582.8 372.6, 583.4 372.4 Q 584.1 372.0, 584.5 371.5 L 584.5 369.8 L 583.4 369.8 Q 582.0 369.8, 581.4 370.2 Q 580.7 370.6, 580.7 371.4 " fill="#000000"/>
<path class="legend" d="M 587.2 369.5 Q 587.2 367.5, 588.2 366.4 Q 589.2 365.3, 591.1 365.3 Q 593.0 365.3, 594.0 366.6 L 593.0 367.4 Q 592.6 366.9, 592.2 366.7 Q 591.7 366.4, 591.1 366.4 Q 590.0 366.4, 589.4 367.2 Q 588.7 368.0, 588.7 369.5 Q 588.7 371.0, 589.4 371.8 Q 590.0 372.6, 591.2 372.6 Q 591.9 372.6, 592.4 372.4 Q 592.8 372.3, 593.4 372.0 L 593.8 373.0 Q 592.6 373.7, 591.1 373.7 Q 589.2 373.7, 588.2 372.6 Q 587.2 371.5, 587.2 369.5 " fill="#000000"/>
<path class="legend" d="M 594.4 366.6 L 594.4 365.4 L 595.9 365.4 L 596.2 363.0 L 597.3 363.0 L 597.3 365.4 L 599.8 365.4 L 599.8 366.6 L 597.3 366.6 L 597.3 371.1 Q 597.3 372.5, 598.5 372.5 Q 599.0 372.5, 599.7 372.3 L 600.0 373.4 Q 599.1 373.7, 598.2 373.7 Q 597.2 373.7, 596.5 373.1 Q 595.8 372.4, 595.8 371.2 L 595.8 366.6 L 594.4 366.6 " fill="#000000"/>
<path class="legend" d="M 608.5 374.4 L 608.5 375.7 L 600.4 375.7 L 600.4 374.4 L 608.5 374.4 " fill="#000000"/>
<path class="legend" d="M 609.1 372.4 L 611.6 372.4 L 611.6 363.9 L 608.9 364.7 L 608.5 363.8 L 612.0 362.2 L 613.1 362.4 L 613.1 372.4 L 615.4 372.4 L 615.4 373.6 L 609.1 373.6 L 609.1 372.4 " fill="#000000"/>
<path class="legend" d="M 620.2 373.8 Q 618.1 373.8, 617.0 372.2 Q 616.0 370.7, 616.0 368.0 Q 616.0 365.2, 617.0 363.7 Q 618.1 362.2, 620.2 362.2 Q 622.3 362.2, 623.3 363.7 Q 624.3 365.2, 624.3 368.0 Q 624.3 370.7, 623.3 372.2 Q 622.2 373.8, 620.2 373.8 M 620.2 372.5 Q 621.4 372.5, 622.1 371.3 Q 622.7 370.2, 622.7 368.0 Q 622.7 365.7, 622.1 364.6 Q 621.4 363.5, 620.2 363.5 Q 619.0 363.5, 618.3 364.6 Q 617.6 365.7, 617.6 368.0 Q 617.6 370.2, 618.3 371.3 Q 619.0 372.5, 620.2 372.5 " fill="#000000"/>
<path class="legend" d="M 629.5 373.8 Q 627.4 373.8, 626.4 372.2 Q 625.4 370.7, 625.4 368.0 Q 625.4 365.2, 626.4 363.7 Q 627.4 362.2, 629.5 362.2 Q 631.6 362.2, 632.6 363.7 Q 633.6 365.2, 633.6 368.0 Q 633.6 370.7, 632.6 372.2 Q 631.6 373.8, 629.5 373.8 M 629.5 372.5 Q 630.7 372.5, 631.4 371.3 Q 632.0 370.2, 632.0 368.0 Q 632.0 365.7, 631.4 364.6 Q 630.7 363.5, 629.5 363.5 Q 628.3 363.5, 627.6 364.6 Q 627.0 365.7, 627.0 368.0 Q 627.0 370.2, 627.6 371.3 Q 628.3 372.5, 629.5 372.5 " fill="#000000"/>
<path class="legend" d="M 536.8 383.8 Q 536.8 381.8, 537.8 380.7 Q 538.8 379.5, 540.8 379.5 Q 542.6 379.5, 543.6 380.9 L 542.6 381.6 Q 542.2 381.2, 541.8 380.9 Q 541.3 380.7, 540.8 380.7 Q 539.6 380.7, 539.0 381.5 Q 538.4 382.3, 538.4 383.8 Q 538.4 385.3, 539.0 386.1 Q 539.7 386.8, 540.9 386.8 Q 541.5 386.8, 542.0 386.7 Q 542.5 386.5, 543.0 386.3 L 543.5 387.3 Q 542.3 388.0, 540.8 388.0 Q 538.8 388.0, 537.8 386.9 Q 536.8 385.7, 536.8 383.8 " fill="#000000"/>
<path class="legend" d="M 544.0 383.8 Q 544.0 381.7, 545.0 380.6 Q 546.0 379.5, 547.9 379.5 Q 549.7 379.5, 550.5 380.6 Q 551.3 381.7, 551.3 383.7 L 551.3 384.0 L 545.5 384.0 Q 545.6 385.4, 546.2 386.1 Q 546.8 386.8, 548.0 386.8 Q 548.6 386.8, 549.2 386.7 Q 549.8 386.5, 550.5 386.2 L 551.0 387.2 Q 550.1 387.6, 549.4 387.8 Q 548.7 388.0, 547.9 388.0 Q 546.1 388.0, 545.0 386.9 Q 544.0 385.8, 544.0 383.8 M 547.9 380.7 Q 546.9 380.7, 546.3 381.2 Q 545.8 381.8, 545.6 382.8 L 549.7 382.8 Q 549.6 381.7, 549.1 381.2 Q 548.7 380.7, 547.9 380.7 " fill="#000000"/>
<path class="legend" d="M 556.2 379.5 Q 557.5 379.5, 558.2 380.3 Q 558.9 381.0, 558.9 382.4 L 558.9 387.9 L 557.4 387.9 L 557.4 382.6 Q 557.4 381.6, 557.0 381.2 Q 556.6 380.7, 555.8 380.7 Q 555.0 380.7, 554.4 381.1 Q 553.8 381.4, 553.4 382.0 L 553.4 387.9 L 551.9 387.9 L 551.9 379.7 L 553.1 379.7 L 553.3 380.8 Q 554.4 379.5, 556.2 379.5 " fill="#000000"/>
<path class="legend" d="M 560.1 380.8 L 560.1 379.7 L 561.7 379.7 L 561.9 377.3 L 563.1 377.3 L 563.1 379.7 L 565.6 379.7 L 565.6 380.8 L 563.1 380.8 L 563.1 385.4 Q 563.1 386.8, 564.3 386.8 Q 564.7 386.8, 565.4 386.6 L 565.7 387.6 Q 564.8 388.0, 564.0 388.0 Q 562.9 388.0, 562.2 387.3 Q 561.6 386.7, 561.6 385.4 L 561.6 380.8 L 560.1 380.8 " fill="#000000"/>
<path class="legend" d="M 574.3 388.7 L 574.3 390.0 L 566.1 390.0 L 566.1 388.7 L 574.3 388.7 " fill="#000000"/>
<path class="legend" d="M 581.7 375.7 L 581.7 387.9 L 580.5 387.9 L 580.3 386.9 Q 579.4 388.0, 577.9 388.0 Q 576.2 388.0, 575.2 387.0 Q 574.3 385.9, 574.3 383.9 Q 574.3 381.8, 575.4 380.7 Q 576.5 379.5, 578.5 379.5 Q 579.3 379.5, 580.2 379.7 L 580.2 375.7 L 581.7 375.7 M 578.0 386.8 Q 578.8 386.8, 579.4 386.4 Q 580.0 385.9, 580.2 385.1 L 580.2 380.9 Q 579.4 380.7, 578.5 380.7 Q 577.2 380.7, 576.5 381.6 Q 575.8 382.4, 575.8 383.9 Q 575.8 385.3, 576.4 386.1 Q 576.9 386.8, 578.0 386.8 " fill="#000000"/>
<path class="legend" d="M 583.0 376.6 L 584.5 376.6 L 584.5 378.0 L 583.0 378.0 L 583.0 376.6 M 583.0 379.7 L 584.5 379.7 L 584.5 387.9 L 583.0 387.9 L 583.0 379.7 " fill="#000000"/>
<path class="legend" d="M 586.3 386.2 Q 587.0 386.5, 587.6 386.6 Q 588.1 386.8, 588.6 386.8 Q 589.4 386.8, 589.8 386.5 Q 590.2 386.2, 590.2 385.6 Q 590.2 385.2, 590.0 385.0 Q 589.7 384.8, 589.5 384.6 Q 589.2 384.5, 588.5 384.3 Q 588.4 384.3, 587.7 384.0 Q 586.9 383.7, 586.5 383.2 Q 586.1 382.7, 586.1 381.9 Q 586.1 380.9, 586.9 380.2 Q 587.7 379.5, 589.2 379.5 Q 589.8 379.5, 590.3 379.7 Q 590.9 379.8, 591.5 380.0 L 591.1 381.2 Q 590.6 381.0, 590.1 380.9 Q 589.7 380.8, 589.2 380.8 Q 588.4 380.8, 588.0 381.1 Q 587.6 381.4, 587.6 381.8 Q 587.6 382.3, 587.9 382.5 Q 588.2 382.7, 588.9 383.0 Q 589.1 383.0, 589.2 383.1 L 589.6 383.2 Q 590.3 383.4, 590.7 383.7 Q 591.1 383.9, 591.4 384.4 Q 591.7 384.8, 591.7 385.6 Q 591.7 386.7, 590.8 387.4 Q 590.0 388.0, 588.7 388.0 Q 587.9 388.0, 587.2 387.9 Q 586.5 387.7, 585.9 387.4 L 586.3 386.2 " fill="#000000"/>
<path class="legend" d="M 592.5 380.8 L 592.5 379.7 L 594.1 379.7 L 594.4 377.3 L 595.5 377.3 L 595.5 379.7 L 598.0 379.7 L 598.0 380.8 L 595.5 380.8 L 595.5 385.4 Q 595.5 386.8, 596.7 386.8 Q 597.2 386.8, 597.9 386.6 L 598.1 387.6 Q 597.2 388.0, 596.4 388.0 Q 595.3 388.0, 594.6 387.3 Q 594.0 386.7, 594.0 385.4 L 594.0 380.8 L 592.5 380.8 " fill="#000000"/>
<path class="legend" d="" fill="#000000"/>
<path class="legend" d="M 603.8 380.9 L 611.2 380.9 L 611.2 382.1 L 603.8 382.1 L 603.8 380.9 M 603.8 384.4 L 611.2 384.4 L 611.2 385.5 L 603.8 385.5 L 603.8 384.4 " fill="#000000"/>
<path class="legend" d="" fill="#000000"/>
<path class="legend" d="M 622.1 388.0 Q 620.0 388.0, 619.0 386.5 Q 618.0 384.9, 618.0 382.2 Q 618.0 379.5, 619.0 378.0 Q 620.0 376.4, 622.1 376.4 Q 624.2 376.4, 625.2 378.0 Q 626.3 379.5, 626.3 382.2 Q 626.3 384.9, 625.2 386.5 Q 624.2 388.0, 622.1 388.0 M 622.1 386.7 Q 623.3 386.7, 624.0 385.6 Q 624.7 384.4, 624.7 382.2 Q 624.7 380.0, 624.0 378.8 Q 623.3 377.7, 622.1 377.7 Q 620.9 377.7, 620.2 378.8 Q 619.6 380.0, 619.6 382.2 Q 619.6 384.4, 620.2 385.6 Q 620.9 386.7, 622.1 386.7 " fill="#000000"/>
<path class="legend" d="M 627.3 386.3 L 628.9 386.3 L 628.9 387.9 L 627.3 387.9 L 627.3 386.3 " fill="#000000"/>
<path class="legend" d="M 634.4 380.8 Q 635.4 380.8, 636.1 381.2 Q 636.9 381.7, 637.4 382.5 Q 637.8 383.2, 637.8 384.2 Q 637.8 385.3, 637.3 386.2 Q 636.8 387.1, 635.9 387.5 Q 635.1 388.0, 634.0 388.0 Q 632.0 388.0, 630.9 386.7 Q 629.9 385.3, 629.9 382.6 Q 629.9 379.6, 631.2 378.0 Q 632.4 376.4, 634.9 376.4 Q 635.6 376.4, 636.2 376.6 Q 636.8 376.8, 637.3 377.1 L 636.7 378.2 Q 635.9 377.7, 634.9 377.7 Q 633.3 377.7, 632.5 378.8 Q 631.6 379.8, 631.5 381.9 Q 632.1 381.4, 632.8 381.1 Q 633.6 380.8, 634.4 380.8 M 634.0 386.7 Q 634.6 386.7, 635.1 386.4 Q 635.6 386.1, 635.9 385.5 Q 636.2 384.9, 636.2 384.3 Q 636.2 383.2, 635.6 382.7 Q 635.1 382.1, 634.1 382.1 Q 633.4 382.1, 632.7 382.4 Q 632.0 382.7, 631.5 383.1 Q 631.6 385.0, 632.2 385.9 Q 632.8 386.7, 634.0 386.7 " fill="#000000"/>
<path class="legend" d="M 642.8 388.0 Q 640.7 388.0, 639.7 386.5 Q 638.7 384.9, 638.7 382.2 Q 638.7 379.5, 639.7 378.0 Q 640.7 376.4, 642.8 376.4 Q 644.9 376.4, 645.9 378.0 Q 647.0 379.5, 647.0 382.2 Q 647.0 384.9, 645.9 386.5 Q 644.9 388.0, 642.8 388.0 M 642.8 386.7 Q 644.0 386.7, 644.7 385.6 Q 645.4 384.4, 645.4 382.2 Q 645.4 380.0, 644.7 378.8 Q 644.0 377.7, 642.8 377.7 Q 641.6 377.7, 640.9 378.8 Q 640.3 380.0, 640.3 382.2 Q 640.3 384.4, 640.9 385.6 Q 641.6 386.7, 642.8 386.7 " fill="#000000"/>
<path class="legend" d="M 648.6 386.6 L 651.1 386.6 L 651.1 378.1 L 648.4 379.0 L 648.0 378.0 L 651.5 376.5 L 652.6 376.7 L 652.6 386.6 L 654.8 386.6 L 654.8 387.9 L 648.6 387.9 L 648.6 386.6 " fill="#000000"/>
<path class="legend" d="M 659.6 380.8 Q 660.6 380.8, 661.4 381.2 Q 662.2 381.6, 662.7 382.4 Q 663.2 383.2, 663.2 384.3 Q 663.2 385.5, 662.6 386.3 Q 662.0 387.2, 661.1 387.6 Q 660.2 388.0, 659.1 388.0 Q 658.1 388.0, 657.1 387.6 Q 656.2 387.2, 655.5 386.5 L 656.5 385.5 Q 657.0 386.1, 657.7 386.4 Q 658.4 386.7, 659.2 386.7 Q 660.2 386.7, 660.9 386.1 Q 661.6 385.5, 661.6 384.3 Q 661.6 383.1, 660.9 382.6 Q 660.2 382.0, 659.1 382.0 Q 658.1 382.0, 657.0 382.4 L 656.1 382.0 L 656.6 376.6 L 662.5 376.6 L 662.3 377.8 L 657.9 377.8 L 657.6 381.2 Q 658.6 380.8, 659.6 380.8 " fill="#000000"/>
<path class="bond-0 atom-0 atom-1" d="M 935.7,272.7 L 890.3,249.4" style="fill:none;fill-rule:evenodd;stroke:#000000;stroke-width:2.0px;stroke-linecap:butt;stroke-linejoin:miter;stroke-opacity:1"/>
<path class="bond-0 atom-0 atom-1" d="M 940.4,263.6 L 895.0,240.3" style="fill:none;fill-rule:evenodd;stroke:#000000;stroke-width:2.0px;stroke-linecap:butt;stroke-linejoin:miter;stroke-opacity:1"/>
<path class="bond-1 atom-1 atom-2" d="M 892.7,244.8 L 849.7,272.4" style="fill:none;fill-rule:evenodd;stroke:#000000;stroke-width:2.0px;stroke-linecap:butt;stroke-linejoin:miter;stroke-opacity:1"/>
<path class="bond-2 atom-2 atom-3" d="M 849.7,272.4 L 852.2,323.4" style="fill:none;fill-rule:evenodd;stroke:#000000;stroke-width:2.0px;stroke-linecap:butt;stroke-linejoin:miter;stroke-opacity:1"/>
<path class="bond-3 atom-1 atom-4" d="M 892.7,244.8 L 890.2,193.8" style="fill:none;fill-rule:evenodd;stroke:#000000;stroke-width:2.0px;stroke-linecap:butt;stroke-linejoin:miter;stroke-opacity:1"/>
<path class="bond-4 atom-4 atom-5" d="M 890.2,193.8 L 844.8,170.4" style="fill:none;fill-rule:evenodd;stroke:#000000;stroke-width:2.0px;stroke-linecap:butt;stroke-linejoin:miter;stroke-opacity:1"/>
<path class="bond-4 atom-4 atom-5" d="M 888.1,181.2 L 856.3,164.9" style="fill:none;fill-rule:evenodd;stroke:#000000;stroke-width:2.0px;stroke-linecap:butt;stroke-linejoin:miter;stroke-opacity:1"/>
<path class="bond-5 atom-5 atom-6" d="M 844.8,170.4 L 842.4,119.4" style="fill:none;fill-rule:evenodd;stroke:#000000;stroke-width:2.0px;stroke-linecap:butt;stroke-linejoin:miter;stroke-opacity:1"/>
<path class="bond-6 atom-6 atom-7" d="M 842.4,119.4 L 860.2,107.9" style="fill:none;fill-rule:evenodd;stroke:#000000;stroke-width:2.0px;stroke-linecap:butt;stroke-linejoin:miter;stroke-opacity:1"/>
<path class="bond-6 atom-6 atom-7" d="M 860.2,107.9 L 878.1,96.4" style="fill:none;fill-rule:evenodd;stroke:#0000FF;stroke-width:2.0px;stroke-linecap:butt;stroke-linejoin:miter;stroke-opacity:1"/>
<path class="bond-6 atom-6 atom-7" d="M 853.2,124.6 L 865.8,116.5" style="fill:none;fill-rule:evenodd;stroke:#000000;stroke-width:2.0px;stroke-linecap:butt;stroke-linejoin:miter;stroke-opacity:1"/>
<path class="bond-6 atom-6 atom-7" d="M 865.8,116.5 L 878.3,108.5" style="fill:none;fill-rule:evenodd;stroke:#0000FF;stroke-width:2.0px;stroke-linecap:butt;stroke-linejoin:miter;stroke-opacity:1"/>
<path class="bond-7 atom-7 atom-8" d="M 892.5,95.5 L 911.6,105.3" style="fill:none;fill-rule:evenodd;stroke:#0000FF;stroke-width:2.0px;stroke-linecap:butt;stroke-linejoin:miter;stroke-opacity:1"/>
<path class="bond-7 atom-7 atom-8" d="M 911.6,105.3 L 930.7,115.2" style="fill:none;fill-rule:evenodd;stroke:#000000;stroke-width:2.0px;stroke-linecap:butt;stroke-linejoin:miter;stroke-opacity:1"/>
<path class="bond-8 atom-8 atom-9" d="M 930.7,115.2 L 948.0,104.1" style="fill:none;fill-rule:evenodd;stroke:#000000;stroke-width:2.0px;stroke-linecap:butt;stroke-linejoin:miter;stroke-opacity:1"/>
<path class="bond-8 atom-8 atom-9" d="M 948.0,104.1 L 965.3,92.9" style="fill:none;fill-rule:evenodd;stroke:#FF0000;stroke-width:2.0px;stroke-linecap:butt;stroke-linejoin:miter;stroke-opacity:1"/>
<path class="bond-9 atom-9 atom-10" d="M 973.2,78.6 L 972.2,57.6" style="fill:none;fill-rule:evenodd;stroke:#FF0000;stroke-width:2.0px;stroke-linecap:butt;stroke-linejoin:miter;stroke-opacity:1"/>
<path class="bond-9 atom-9 atom-10" d="M 972.2,57.6 L 971.2,36.6" style="fill:none;fill-rule:evenodd;stroke:#000000;stroke-width:2.0px;stroke-linecap:butt;stroke-linejoin:miter;stroke-opacity:1"/>
<path class="bond-10 atom-8 atom-11" d="M 930.7,115.2 L 933.1,166.2" style="fill:none;fill-rule:evenodd;stroke:#000000;stroke-width:2.0px;stroke-linecap:butt;stroke-linejoin:miter;stroke-opacity:1"/>
<path class="bond-10 atom-8 atom-11" d="M 920.9,123.3 L 922.6,159.0" style="fill:none;fill-rule:evenodd;stroke:#000000;stroke-width:2.0px;stroke-linecap:butt;stroke-linejoin:miter;stroke-opacity:1"/>
<path class="bond-11 atom-11 atom-12" d="M 933.1,166.2 L 978.5,189.6" style="fill:none;fill-rule:evenodd;stroke:#000000;stroke-width:2.0px;stroke-linecap:butt;stroke-linejoin:miter;stroke-opacity:1"/>
<path class="bond-12 atom-12 atom-13" d="M 978.5,189.6 L 995.8,178.4" style="fill:none;fill-rule:evenodd;stroke:#000000;stroke-width:2.0px;stroke-linecap:butt;stroke-linejoin:miter;stroke-opacity:1"/>
<path class="bond-12 atom-12 atom-13" d="M 995.8,178.4 L 1013.1,167.3" style="fill:none;fill-rule:evenodd;stroke:#FF0000;stroke-width:2.0px;stroke-linecap:butt;stroke-linejoin:miter;stroke-opacity:1"/>
<path class="bond-13 atom-13 atom-14" d="M 1029.8,166.2 L 1044.5,173.8" style="fill:none;fill-rule:evenodd;stroke:#FF0000;stroke-width:2.0px;stroke-linecap:butt;stroke-linejoin:miter;stroke-opacity:1"/>
<path class="bond-13 atom-13 atom-14" d="M 1044.5,173.8 L 1059.1,181.3" style="fill:none;fill-rule:evenodd;stroke:#000000;stroke-width:2.0px;stroke-linecap:butt;stroke-linejoin:miter;stroke-opacity:1"/>
<path class="bond-14 atom-14 atom-15" d="M 1071.5,176.4 L 1090.2,139.9" style="fill:none;fill-rule:evenodd;stroke:#000000;stroke-width:2.0px;stroke-linecap:butt;stroke-linejoin:miter;stroke-opacity:1"/>
<path class="bond-15 atom-14 atom-16" d="M 1062.1,194.6 L 1043.5,230.7" style="fill:none;fill-rule:evenodd;stroke:#000000;stroke-width:2.0px;stroke-linecap:butt;stroke-linejoin:miter;stroke-opacity:1"/>
<path class="bond-16 atom-14 atom-17" d="M 1074.6,189.3 L 1112.3,208.7" style="fill:none;fill-rule:evenodd;stroke:#000000;stroke-width:2.0px;stroke-linecap:butt;stroke-linejoin:miter;stroke-opacity:1"/>
<path class="bond-17 atom-17 atom-18" d="M 1112.3,208.7 L 1088.9,254.1" style="fill:none;fill-rule:evenodd;stroke:#000000;stroke-width:2.0px;stroke-linecap:butt;stroke-linejoin:miter;stroke-opacity:1"/>
<path class="bond-18 atom-17 atom-19" d="M 1112.3,208.7 L 1135.6,163.3" style="fill:none;fill-rule:evenodd;stroke:#000000;stroke-width:2.0px;stroke-linecap:butt;stroke-linejoin:miter;stroke-opacity:1"/>
<path class="bond-19 atom-17 atom-20" d="M 1112.3,208.7 L 1157.6,232.1" style="fill:none;fill-rule:evenodd;stroke:#000000;stroke-width:2.0px;stroke-linecap:butt;stroke-linejoin:miter;stroke-opacity:1"/>
<path class="bond-20 atom-11 atom-4" d="M 933.1,166.2 L 890.2,193.8" style="fill:none;fill-rule:evenodd;stroke:#000000;stroke-width:2.0px;stroke-linecap:butt;stroke-linejoin:miter;stroke-opacity:1"/>
<path class="atom-7" d="M 882.1 84.6 L 886.8 92.2 Q 887.3 93.0, 888.1 94.4 Q 888.8 95.7, 888.9 95.8 L 888.9 84.6 L 890.8 84.6 L 890.8 99.0 L 888.8 99.0 L 883.7 90.7 Q 883.1 89.7, 882.5 88.6 Q 881.9 87.4, 881.7 87.1 L 881.7 99.0 L 879.8 99.0 L 879.8 84.6 L 882.1 84.6 " fill="#0000FF"/>
<path class="atom-9" d="M 967.0 87.6 Q 967.0 84.1, 968.7 82.2 Q 970.4 80.3, 973.6 80.3 Q 976.8 80.3, 978.5 82.2 Q 980.3 84.1, 980.3 87.6 Q 980.3 91.1, 978.5 93.1 Q 976.8 95.1, 973.6 95.1 Q 970.4 95.1, 968.7 93.1 Q 967.0 91.1, 967.0 87.6 M 973.6 93.5 Q 975.8 93.5, 977.0 92.0 Q 978.2 90.5, 978.2 87.6 Q 978.2 84.8, 977.0 83.3 Q 975.8 81.9, 973.6 81.9 Q 971.4 81.9, 970.2 83.3 Q 969.0 84.7, 969.0 87.6 Q 969.0 90.5, 970.2 92.0 Q 971.4 93.5, 973.6 93.5 " fill="#FF0000"/>
<path class="atom-13" d="M 1014.8 162.0 Q 1014.8 158.5, 1016.5 156.6 Q 1018.3 154.6, 1021.5 154.6 Q 1024.7 154.6, 1026.4 156.6 Q 1028.1 158.5, 1028.1 162.0 Q 1028.1 165.5, 1026.4 167.5 Q 1024.6 169.5, 1021.5 169.5 Q 1018.3 169.5, 1016.5 167.5 Q 1014.8 165.5, 1014.8 162.0 M 1021.5 167.8 Q 1023.7 167.8, 1024.9 166.4 Q 1026.1 164.9, 1026.1 162.0 Q 1026.1 159.1, 1024.9 157.7 Q 1023.7 156.3, 1021.5 156.3 Q 1019.3 156.3, 1018.1 157.7 Q 1016.9 159.1, 1016.9 162.0 Q 1016.9 164.9, 1018.1 166.4 Q 1019.3 167.8, 1021.5 167.8 " fill="#FF0000"/>
<path class="atom-14" d="M 1061.4 190.3 Q 1061.5 190.4, 1062.2 190.6 Q 1062.9 190.9, 1063.6 191.1 Q 1064.4 191.3, 1065.1 191.3 Q 1066.5 191.3, 1067.3 190.6 Q 1068.1 189.9, 1068.1 188.8 Q 1068.1 188.0, 1067.6 187.5 Q 1067.3 187.0, 1066.6 186.7 Q 1066.0 186.5, 1065.0 186.2 Q 1063.7 185.8, 1063.0 185.4 Q 1062.2 185.0, 1061.6 184.3 Q 1061.1 183.5, 1061.1 182.2 Q 1061.1 180.4, 1062.3 179.2 Q 1063.6 178.1, 1066.0 178.1 Q 1067.7 178.1, 1069.6 178.9 L 1069.1 180.5 Q 1067.4 179.8, 1066.1 179.8 Q 1064.7 179.8, 1063.9 180.4 Q 1063.1 180.9, 1063.2 181.9 Q 1063.2 182.7, 1063.5 183.2 Q 1064.0 183.7, 1064.5 183.9 Q 1065.1 184.2, 1066.1 184.5 Q 1067.4 184.9, 1068.2 185.3 Q 1069.0 185.7, 1069.5 186.6 Q 1070.1 187.4, 1070.1 188.8 Q 1070.1 190.8, 1068.7 191.9 Q 1067.4 192.9, 1065.2 192.9 Q 1063.9 192.9, 1062.9 192.6 Q 1062.0 192.4, 1060.8 191.9 L 1061.4 190.3 " fill="#000000"/>
<path class="atom-14" d="M 1071.0 178.1 L 1072.9 178.1 L 1072.9 179.9 L 1071.0 179.9 L 1071.0 178.1 M 1071.0 182.0 L 1072.9 182.0 L 1072.9 192.5 L 1071.0 192.5 L 1071.0 182.0 " fill="#000000"/>
<path class="legend" d="M 967.9 365.4 L 968.1 366.5 Q 969.0 365.3, 970.4 365.3 Q 970.8 365.3, 971.4 365.4 L 971.2 366.8 Q 970.5 366.6, 970.1 366.6 Q 969.5 366.6, 969.0 366.9 Q 968.6 367.1, 968.2 367.8 L 968.2 373.6 L 966.7 373.6 L 966.7 365.4 L 967.9 365.4 " fill="#000000"/>
<path class="legend" d="M 971.7 369.5 Q 971.7 367.5, 972.7 366.4 Q 973.7 365.3, 975.5 365.3 Q 977.3 365.3, 978.1 366.4 Q 979.0 367.4, 979.0 369.5 L 979.0 369.7 L 973.2 369.7 Q 973.2 371.1, 973.9 371.8 Q 974.5 372.6, 975.7 372.6 Q 976.3 372.6, 976.9 372.4 Q 977.5 372.3, 978.2 372.0 L 978.6 373.0 Q 977.8 373.4, 977.1 373.6 Q 976.4 373.8, 975.6 373.8 Q 973.7 373.8, 972.7 372.6 Q 971.7 371.5, 971.7 369.5 M 975.5 366.4 Q 974.6 366.4, 974.0 367.0 Q 973.5 367.5, 973.3 368.6 L 977.4 368.6 Q 977.3 367.5, 976.8 367.0 Q 976.4 366.4, 975.5 366.4 " fill="#000000"/>
<path class="legend" d="M 979.6 371.4 Q 979.6 370.1, 980.6 369.4 Q 981.7 368.7, 983.6 368.7 L 984.8 368.7 L 984.8 368.3 Q 984.8 367.3, 984.4 366.9 Q 984.0 366.4, 983.0 366.4 Q 982.3 366.4, 981.8 366.6 Q 981.3 366.7, 980.5 367.0 L 980.0 366.0 Q 981.5 365.3, 983.0 365.3 Q 984.7 365.3, 985.5 366.0 Q 986.3 366.8, 986.3 368.4 L 986.3 373.6 L 985.2 373.6 Q 985.2 373.6, 985.1 373.3 Q 985.1 373.1, 985.0 372.7 Q 983.8 373.8, 982.3 373.8 Q 981.0 373.8, 980.3 373.2 Q 979.6 372.5, 979.6 371.4 M 981.1 371.4 Q 981.1 372.0, 981.5 372.3 Q 981.8 372.6, 982.6 372.6 Q 983.2 372.6, 983.8 372.4 Q 984.4 372.0, 984.8 371.5 L 984.8 369.8 L 983.7 369.8 Q 982.4 369.8, 981.7 370.2 Q 981.1 370.6, 981.1 371.4 " fill="#000000"/>
<path class="legend" d="M 987.6 369.5 Q 987.6 367.5, 988.6 366.4 Q 989.6 365.3, 991.5 365.3 Q 993.4 365.3, 994.4 366.6 L 993.3 367.4 Q 993.0 366.9, 992.5 366.7 Q 992.1 366.4, 991.5 366.4 Q 990.4 366.4, 989.7 367.2 Q 989.1 368.0, 989.1 369.5 Q 989.1 371.0, 989.7 371.8 Q 990.4 372.6, 991.6 372.6 Q 992.3 372.6, 992.7 372.4 Q 993.2 372.3, 993.8 372.0 L 994.2 373.0 Q 993.0 373.7, 991.5 373.7 Q 989.6 373.7, 988.6 372.6 Q 987.6 371.5, 987.6 369.5 " fill="#000000"/>
<path class="legend" d="M 994.7 366.6 L 994.7 365.4 L 996.3 365.4 L 996.6 363.0 L 997.7 363.0 L 997.7 365.4 L 1000.2 365.4 L 1000.2 366.6 L 997.7 366.6 L 997.7 371.1 Q 997.7 372.5, 998.9 372.5 Q 999.4 372.5, 1000.1 372.3 L 1000.3 373.4 Q 999.4 373.7, 998.6 373.7 Q 997.5 373.7, 996.8 373.1 Q 996.2 372.4, 996.2 371.2 L 996.2 366.6 L 994.7 366.6 " fill="#000000"/>
<path class="legend" d="M 1008.9 374.4 L 1008.9 375.7 L 1000.7 375.7 L 1000.7 374.4 L 1008.9 374.4 " fill="#000000"/>
<path class="legend" d="M 1014.3 367.7 Q 1015.4 368.0, 1016.0 368.7 Q 1016.5 369.4, 1016.5 370.5 Q 1016.5 371.5, 1016.0 372.2 Q 1015.5 373.0, 1014.7 373.4 Q 1013.8 373.8, 1012.6 373.8 Q 1011.4 373.8, 1010.5 373.4 Q 1009.6 372.9, 1008.9 372.1 L 1009.8 371.2 Q 1010.5 371.9, 1011.1 372.2 Q 1011.7 372.5, 1012.6 372.5 Q 1013.6 372.5, 1014.3 372.0 Q 1014.9 371.4, 1014.9 370.5 Q 1014.9 369.4, 1014.2 368.8 Q 1013.6 368.3, 1012.2 368.3 L 1011.4 368.3 L 1011.4 367.2 L 1012.1 367.2 Q 1013.3 367.2, 1014.0 366.6 Q 1014.7 366.1, 1014.7 365.1 Q 1014.7 364.3, 1014.1 363.9 Q 1013.6 363.5, 1012.6 363.5 Q 1011.7 363.5, 1011.1 363.8 Q 1010.5 364.1, 1010.1 365.0 L 1009.0 364.4 Q 1009.4 363.4, 1010.3 362.8 Q 1011.3 362.2, 1012.6 362.2 Q 1014.3 362.2, 1015.3 363.0 Q 1016.3 363.7, 1016.3 365.1 Q 1016.3 366.0, 1015.8 366.6 Q 1015.3 367.3, 1014.3 367.7 " fill="#000000"/>
<path class="legend" d="M 1023.4 363.6 L 1017.4 363.6 L 1017.4 362.3 L 1025.0 362.3 L 1025.0 363.4 L 1020.4 373.6 L 1018.8 373.6 L 1023.4 363.6 " fill="#000000"/>
<path class="legend" d="M 1029.9 366.6 Q 1030.8 366.6, 1031.6 367.0 Q 1032.4 367.4, 1032.8 368.2 Q 1033.3 369.0, 1033.3 370.0 Q 1033.3 371.1, 1032.8 372.0 Q 1032.3 372.8, 1031.4 373.3 Q 1030.6 373.8, 1029.5 373.8 Q 1027.5 373.8, 1026.4 372.4 Q 1025.4 371.0, 1025.4 368.3 Q 1025.4 365.3, 1026.7 363.7 Q 1027.9 362.2, 1030.4 362.2 Q 1031.1 362.2, 1031.6 362.3 Q 1032.3 362.5, 1032.8 362.8 L 1032.2 363.9 Q 1031.4 363.5, 1030.4 363.5 Q 1028.8 363.5, 1028.0 364.5 Q 1027.1 365.5, 1027.0 367.6 Q 1027.6 367.1, 1028.3 366.8 Q 1029.1 366.6, 1029.9 366.6 M 1029.5 372.4 Q 1030.1 372.4, 1030.6 372.1 Q 1031.1 371.8, 1031.4 371.2 Q 1031.7 370.7, 1031.7 370.0 Q 1031.7 369.0, 1031.1 368.4 Q 1030.6 367.8, 1029.6 367.8 Q 1028.9 367.8, 1028.2 368.1 Q 1027.5 368.4, 1027.0 368.9 Q 1027.1 370.8, 1027.7 371.6 Q 1028.3 372.4, 1029.5 372.4 " fill="#000000"/>
<path class="legend" d="M 937.0 383.8 Q 937.0 381.8, 938.0 380.7 Q 939.0 379.5, 940.9 379.5 Q 942.8 379.5, 943.8 380.9 L 942.8 381.6 Q 942.4 381.2, 941.9 380.9 Q 941.5 380.7, 940.9 380.7 Q 939.8 380.7, 939.1 381.5 Q 938.5 382.3, 938.5 383.8 Q 938.5 385.3, 939.2 386.1 Q 939.8 386.8, 941.0 386.8 Q 941.7 386.8, 942.1 386.7 Q 942.6 386.5, 943.2 386.3 L 943.6 387.3 Q 942.4 388.0, 940.9 388.0 Q 939.0 388.0, 938.0 386.9 Q 937.0 385.7, 937.0 383.8 " fill="#000000"/>
<path class="legend" d="M 944.1 383.8 Q 944.1 381.7, 945.2 380.6 Q 946.2 379.5, 948.0 379.5 Q 949.8 379.5, 950.6 380.6 Q 951.4 381.7, 951.4 383.7 L 951.4 384.0 L 945.7 384.0 Q 945.7 385.4, 946.3 386.1 Q 947.0 386.8, 948.1 386.8 Q 948.8 386.8, 949.4 386.7 Q 950.0 386.5, 950.7 386.2 L 951.1 387.2 Q 950.3 387.6, 949.6 387.8 Q 948.8 388.0, 948.1 388.0 Q 946.2 388.0, 945.2 386.9 Q 944.1 385.8, 944.1 383.8 M 948.0 380.7 Q 947.1 380.7, 946.5 381.2 Q 945.9 381.8, 945.7 382.8 L 949.8 382.8 Q 949.7 381.7, 949.3 381.2 Q 948.8 380.7, 948.0 380.7 " fill="#000000"/>
<path class="legend" d="M 956.3 379.5 Q 957.6 379.5, 958.3 380.3 Q 959.0 381.0, 959.0 382.4 L 959.0 387.9 L 957.5 387.9 L 957.5 382.6 Q 957.5 381.6, 957.1 381.2 Q 956.8 380.7, 955.9 380.7 Q 955.2 380.7, 954.6 381.1 Q 953.9 381.4, 953.5 382.0 L 953.5 387.9 L 952.0 387.9 L 952.0 379.7 L 953.3 379.7 L 953.4 380.8 Q 954.5 379.5, 956.3 379.5 " fill="#000000"/>
<path class="legend" d="M 960.3 380.8 L 960.3 379.7 L 961.8 379.7 L 962.1 377.3 L 963.2 377.3 L 963.2 379.7 L 965.7 379.7 L 965.7 380.8 L 963.2 380.8 L 963.2 385.4 Q 963.2 386.8, 964.4 386.8 Q 964.9 386.8, 965.6 386.6 L 965.8 387.6 Q 965.0 388.0, 964.1 388.0 Q 963.1 388.0, 962.4 387.3 Q 961.7 386.7, 961.7 385.4 L 961.7 380.8 L 960.3 380.8 " fill="#000000"/>
<path class="legend" d="M 974.4 388.7 L 974.4 390.0 L 966.2 390.0 L 966.2 388.7 L 974.4 388.7 " fill="#000000"/>
<path class="legend" d="M 981.9 375.7 L 981.9 387.9 L 980.7 387.9 L 980.5 386.9 Q 979.5 388.0, 978.0 388.0 Q 976.3 388.0, 975.3 387.0 Q 974.4 385.9, 974.4 383.9 Q 974.4 381.8, 975.5 380.7 Q 976.7 379.5, 978.6 379.5 Q 979.5 379.5, 980.4 379.7 L 980.4 375.7 L 981.9 375.7 M 978.1 386.8 Q 978.9 386.8, 979.5 386.4 Q 980.1 385.9, 980.4 385.1 L 980.4 380.9 Q 979.6 380.7, 978.6 380.7 Q 977.4 380.7, 976.7 381.6 Q 975.9 382.4, 975.9 383.9 Q 975.9 385.3, 976.5 386.1 Q 977.1 386.8, 978.1 386.8 " fill="#000000"/>
<path class="legend" d="M 983.2 376.6 L 984.6 376.6 L 984.6 378.0 L 983.2 378.0 L 983.2 376.6 M 983.2 379.7 L 984.6 379.7 L 984.6 387.9 L 983.2 387.9 L 983.2 379.7 " fill="#000000"/>
<path class="legend" d="M 986.5 386.2 Q 987.2 386.5, 987.7 386.6 Q 988.2 386.8, 988.8 386.8 Q 989.5 386.8, 989.9 386.5 Q 990.3 386.2, 990.3 385.6 Q 990.3 385.2, 990.1 385.0 Q 989.9 384.8, 989.6 384.6 Q 989.4 384.5, 988.6 384.3 Q 988.5 384.3, 987.8 384.0 Q 987.1 383.7, 986.7 383.2 Q 986.3 382.7, 986.3 381.9 Q 986.3 380.9, 987.0 380.2 Q 987.8 379.5, 989.3 379.5 Q 989.9 379.5, 990.5 379.7 Q 991.0 379.8, 991.6 380.0 L 991.2 381.2 Q 990.7 381.0, 990.2 380.9 Q 989.8 380.8, 989.3 380.8 Q 988.5 380.8, 988.2 381.1 Q 987.8 381.4, 987.8 381.8 Q 987.8 382.3, 988.1 382.5 Q 988.4 382.7, 989.1 383.0 Q 989.2 383.0, 989.4 383.1 L 989.8 383.2 Q 990.4 383.4, 990.8 383.7 Q 991.3 383.9, 991.5 384.4 Q 991.8 384.8, 991.8 385.6 Q 991.8 386.7, 991.0 387.4 Q 990.1 388.0, 988.8 388.0 Q 988.0 388.0, 987.3 387.9 Q 986.7 387.7, 986.0 387.4 L 986.5 386.2 " fill="#000000"/>
<path class="legend" d="M 992.7 380.8 L 992.7 379.7 L 994.2 379.7 L 994.5 377.3 L 995.6 377.3 L 995.6 379.7 L 998.1 379.7 L 998.1 380.8 L 995.6 380.8 L 995.6 385.4 Q 995.6 386.8, 996.8 386.8 Q 997.3 386.8, 998.0 386.6 L 998.3 387.6 Q 997.4 388.0, 996.5 388.0 Q 995.5 388.0, 994.8 387.3 Q 994.1 386.7, 994.1 385.4 L 994.1 380.8 L 992.7 380.8 " fill="#000000"/>
<path class="legend" d="" fill="#000000"/>
<path class="legend" d="M 1004.0 380.9 L 1011.3 380.9 L 1011.3 382.1 L 1004.0 382.1 L 1004.0 380.9 M 1004.0 384.4 L 1011.3 384.4 L 1011.3 385.5 L 1004.0 385.5 L 1004.0 384.4 " fill="#000000"/>
<path class="legend" d="" fill="#000000"/>
<path class="legend" d="M 1022.3 388.0 Q 1020.2 388.0, 1019.1 386.5 Q 1018.1 384.9, 1018.1 382.2 Q 1018.1 379.5, 1019.1 378.0 Q 1020.2 376.4, 1022.3 376.4 Q 1024.3 376.4, 1025.4 378.0 Q 1026.4 379.5, 1026.4 382.2 Q 1026.4 384.9, 1025.4 386.5 Q 1024.3 388.0, 1022.3 388.0 M 1022.3 386.7 Q 1023.5 386.7, 1024.1 385.6 Q 1024.8 384.4, 1024.8 382.2 Q 1024.8 380.0, 1024.1 378.8 Q 1023.5 377.7, 1022.3 377.7 Q 1021.0 377.7, 1020.4 378.8 Q 1019.7 380.0, 1019.7 382.2 Q 1019.7 384.4, 1020.4 385.6 Q 1021.0 386.7, 1022.3 386.7 " fill="#000000"/>
<path class="legend" d="M 1027.4 386.3 L 1029.0 386.3 L 1029.0 387.9 L 1027.4 387.9 L 1027.4 386.3 " fill="#000000"/>
<path class="legend" d="M 1034.5 380.8 Q 1035.5 380.8, 1036.3 381.2 Q 1037.1 381.7, 1037.5 382.5 Q 1037.9 383.2, 1037.9 384.2 Q 1037.9 385.3, 1037.4 386.2 Q 1037.0 387.1, 1036.1 387.5 Q 1035.2 388.0, 1034.1 388.0 Q 1032.1 388.0, 1031.1 386.7 Q 1030.1 385.3, 1030.1 382.6 Q 1030.1 379.6, 1031.3 378.0 Q 1032.6 376.4, 1035.0 376.4 Q 1035.7 376.4, 1036.3 376.6 Q 1036.9 376.8, 1037.5 377.1 L 1036.9 378.2 Q 1036.0 377.7, 1035.0 377.7 Q 1033.4 377.7, 1032.6 378.8 Q 1031.8 379.8, 1031.7 381.9 Q 1032.3 381.4, 1033.0 381.1 Q 1033.7 380.8, 1034.5 380.8 M 1034.1 386.7 Q 1034.7 386.7, 1035.2 386.4 Q 1035.8 386.1, 1036.0 385.5 Q 1036.3 384.9, 1036.3 384.3 Q 1036.3 383.2, 1035.8 382.7 Q 1035.2 382.1, 1034.2 382.1 Q 1033.5 382.1, 1032.8 382.4 Q 1032.2 382.7, 1031.7 383.1 Q 1031.8 385.0, 1032.3 385.9 Q 1032.9 386.7, 1034.1 386.7 " fill="#000000"/>
<path class="legend" d="M 1038.8 378.7 Q 1039.3 377.6, 1040.3 377.0 Q 1041.2 376.4, 1042.6 376.4 Q 1044.3 376.4, 1045.3 377.4 Q 1046.3 378.3, 1046.3 379.9 Q 1046.3 381.6, 1045.0 383.2 Q 1043.8 384.8, 1041.2 386.6 L 1046.4 386.6 L 1046.4 387.9 L 1038.8 387.9 L 1038.8 386.8 Q 1040.9 385.3, 1042.2 384.2 Q 1043.4 383.1, 1044.0 382.1 Q 1044.7 381.1, 1044.7 380.0 Q 1044.7 378.9, 1044.1 378.3 Q 1043.6 377.7, 1042.6 377.7 Q 1041.7 377.7, 1041.1 378.1 Q 1040.5 378.4, 1040.1 379.3 L 1038.8 378.7 " fill="#000000"/>
<path class="legend" d="M 1053.3 377.8 L 1047.4 377.8 L 1047.4 376.6 L 1054.9 376.6 L 1054.9 377.7 L 1050.3 387.9 L 1048.8 387.9 L 1053.3 377.8 " fill="#000000"/>
<path class="legend" d="M 1055.4 378.7 Q 1055.8 377.6, 1056.8 377.0 Q 1057.8 376.4, 1059.2 376.4 Q 1060.9 376.4, 1061.9 377.4 Q 1062.8 378.3, 1062.8 379.9 Q 1062.8 381.6, 1061.6 383.2 Q 1060.3 384.8, 1057.8 386.6 L 1063.0 386.6 L 1063.0 387.9 L 1055.4 387.9 L 1055.4 386.8 Q 1057.5 385.3, 1058.7 384.2 Q 1060.0 383.1, 1060.6 382.1 Q 1061.2 381.1, 1061.2 380.0 Q 1061.2 378.9, 1060.7 378.3 Q 1060.1 377.7, 1059.2 377.7 Q 1058.3 377.7, 1057.7 378.1 Q 1057.1 378.4, 1056.6 379.3 L 1055.4 378.7 " fill="#000000"/>
<path class="bond-0 atom-0 atom-1" d="M 1322.0,87.3 L 1313.6,137.7" style="fill:none;fill-rule:evenodd;stroke:#000000;stroke-width:2.0px;stroke-linecap:butt;stroke-linejoin:miter;stroke-opacity:1"/>
<path class="bond-0 atom-0 atom-1" d="M 1311.9,85.7 L 1303.5,136.0" style="fill:none;fill-rule:evenodd;stroke:#000000;stroke-width:2.0px;stroke-linecap:butt;stroke-linejoin:miter;stroke-opacity:1"/>
<path class="bond-1 atom-1 atom-2" d="M 1308.6,136.9 L 1260.8,154.8" style="fill:none;fill-rule:evenodd;stroke:#000000;stroke-width:2.0px;stroke-linecap:butt;stroke-linejoin:miter;stroke-opacity:1"/>
<path class="bond-2 atom-1 atom-3" d="M 1308.6,136.9 L 1348.0,169.3" style="fill:none;fill-rule:evenodd;stroke:#000000;stroke-width:2.0px;stroke-linecap:butt;stroke-linejoin:miter;stroke-opacity:1"/>
<path class="bond-3 atom-3 atom-4" d="M 1348.0,169.3 L 1368.8,161.5" style="fill:none;fill-rule:evenodd;stroke:#000000;stroke-width:2.0px;stroke-linecap:butt;stroke-linejoin:miter;stroke-opacity:1"/>
<path class="bond-3 atom-3 atom-4" d="M 1368.8,161.5 L 1389.5,153.7" style="fill:none;fill-rule:evenodd;stroke:#FF7F00;stroke-width:2.0px;stroke-linecap:butt;stroke-linejoin:miter;stroke-opacity:1"/>
<path class="bond-4 atom-4 atom-5" d="M 1387.7,144.3 L 1382.1,129.4" style="fill:none;fill-rule:evenodd;stroke:#FF7F00;stroke-width:2.0px;stroke-linecap:butt;stroke-linejoin:miter;stroke-opacity:1"/>
<path class="bond-4 atom-4 atom-5" d="M 1382.1,129.4 L 1376.6,114.6" style="fill:none;fill-rule:evenodd;stroke:#FF0000;stroke-width:2.0px;stroke-linecap:butt;stroke-linejoin:miter;stroke-opacity:1"/>
<path class="bond-4 atom-4 atom-5" d="M 1397.2,140.7 L 1391.7,125.8" style="fill:none;fill-rule:evenodd;stroke:#FF7F00;stroke-width:2.0px;stroke-linecap:butt;stroke-linejoin:miter;stroke-opacity:1"/>
<path class="bond-4 atom-4 atom-5" d="M 1391.7,125.8 L 1386.1,111.0" style="fill:none;fill-rule:evenodd;stroke:#FF0000;stroke-width:2.0px;stroke-linecap:butt;stroke-linejoin:miter;stroke-opacity:1"/>
<path class="bond-5 atom-4 atom-6" d="M 1402.1,149.0 L 1422.9,141.2" style="fill:none;fill-rule:evenodd;stroke:#FF7F00;stroke-width:2.0px;stroke-linecap:butt;stroke-linejoin:miter;stroke-opacity:1"/>
<path class="bond-5 atom-4 atom-6" d="M 1422.9,141.2 L 1443.6,133.5" style="fill:none;fill-rule:evenodd;stroke:#000000;stroke-width:2.0px;stroke-linecap:butt;stroke-linejoin:miter;stroke-opacity:1"/>
<path class="bond-6 atom-6 atom-7" d="M 1443.6,133.5 L 1483.0,165.9" style="fill:none;fill-rule:evenodd;stroke:#000000;stroke-width:2.0px;stroke-linecap:butt;stroke-linejoin:miter;stroke-opacity:1"/>
<path class="bond-6 atom-6 atom-7" d="M 1456.0,130.4 L 1483.6,153.2" style="fill:none;fill-rule:evenodd;stroke:#000000;stroke-width:2.0px;stroke-linecap:butt;stroke-linejoin:miter;stroke-opacity:1"/>
<path class="bond-7 atom-7 atom-8" d="M 1483.0,165.9 L 1530.9,148.0" style="fill:none;fill-rule:evenodd;stroke:#000000;stroke-width:2.0px;stroke-linecap:butt;stroke-linejoin:miter;stroke-opacity:1"/>
<path class="bond-8 atom-8 atom-9" d="M 1530.9,148.0 L 1539.2,97.6" style="fill:none;fill-rule:evenodd;stroke:#000000;stroke-width:2.0px;stroke-linecap:butt;stroke-linejoin:miter;stroke-opacity:1"/>
<path class="bond-8 atom-8 atom-9" d="M 1522.0,138.8 L 1527.9,103.5" style="fill:none;fill-rule:evenodd;stroke:#000000;stroke-width:2.0px;stroke-linecap:butt;stroke-linejoin:miter;stroke-opacity:1"/>
<path class="bond-9 atom-9 atom-10" d="M 1539.2,97.6 L 1499.8,65.2" style="fill:none;fill-rule:evenodd;stroke:#000000;stroke-width:2.0px;stroke-linecap:butt;stroke-linejoin:miter;stroke-opacity:1"/>
<path class="bond-10 atom-10 atom-11" d="M 1499.8,65.2 L 1452.0,83.1" style="fill:none;fill-rule:evenodd;stroke:#000000;stroke-width:2.0px;stroke-linecap:butt;stroke-linejoin:miter;stroke-opacity:1"/>
<path class="bond-10 atom-10 atom-11" d="M 1496.2,77.4 L 1462.8,90.0" style="fill:none;fill-rule:evenodd;stroke:#000000;stroke-width:2.0px;stroke-linecap:butt;stroke-linejoin:miter;stroke-opacity:1"/>
<path class="bond-11 atom-4 atom-12" d="M 1399.1,160.3 L 1406.4,179.8" style="fill:none;fill-rule:evenodd;stroke:#FF7F00;stroke-width:2.0px;stroke-linecap:butt;stroke-linejoin:miter;stroke-opacity:1"/>
<path class="bond-11 atom-4 atom-12" d="M 1406.4,179.8 L 1413.7,199.2" style="fill:none;fill-rule:evenodd;stroke:#000000;stroke-width:2.0px;stroke-linecap:butt;stroke-linejoin:miter;stroke-opacity:1"/>
<path class="bond-12 atom-12 atom-13" d="M 1413.7,199.2 L 1464.1,207.6" style="fill:none;fill-rule:evenodd;stroke:#000000;stroke-width:2.0px;stroke-linecap:butt;stroke-linejoin:miter;stroke-opacity:1"/>
<path class="bond-12 atom-12 atom-13" d="M 1419.6,210.5 L 1454.9,216.4" style="fill:none;fill-rule:evenodd;stroke:#000000;stroke-width:2.0px;stroke-linecap:butt;stroke-linejoin:miter;stroke-opacity:1"/>
<path class="bond-13 atom-13 atom-14" d="M 1464.1,207.6 L 1482.0,255.4" style="fill:none;fill-rule:evenodd;stroke:#000000;stroke-width:2.0px;stroke-linecap:butt;stroke-linejoin:miter;stroke-opacity:1"/>
<path class="bond-14 atom-14 atom-15" d="M 1482.0,255.4 L 1449.6,294.8" style="fill:none;fill-rule:evenodd;stroke:#000000;stroke-width:2.0px;stroke-linecap:butt;stroke-linejoin:miter;stroke-opacity:1"/>
<path class="bond-14 atom-14 atom-15" d="M 1469.3,254.8 L 1446.6,282.4" style="fill:none;fill-rule:evenodd;stroke:#000000;stroke-width:2.0px;stroke-linecap:butt;stroke-linejoin:miter;stroke-opacity:1"/>
<path class="bond-15 atom-15 atom-16" d="M 1449.6,294.8 L 1399.2,286.4" style="fill:none;fill-rule:evenodd;stroke:#000000;stroke-width:2.0px;stroke-linecap:butt;stroke-linejoin:miter;stroke-opacity:1"/>
<path class="bond-16 atom-16 atom-17" d="M 1399.2,286.4 L 1381.3,238.6" style="fill:none;fill-rule:evenodd;stroke:#000000;stroke-width:2.0px;stroke-linecap:butt;stroke-linejoin:miter;stroke-opacity:1"/>
<path class="bond-16 atom-16 atom-17" d="M 1406.1,275.7 L 1393.5,242.2" style="fill:none;fill-rule:evenodd;stroke:#000000;stroke-width:2.0px;stroke-linecap:butt;stroke-linejoin:miter;stroke-opacity:1"/>
<path class="bond-17 atom-11 atom-6" d="M 1452.0,83.1 L 1443.6,133.5" style="fill:none;fill-rule:evenodd;stroke:#000000;stroke-width:2.0px;stroke-linecap:butt;stroke-linejoin:miter;stroke-opacity:1"/>
<path class="bond-18 atom-17 atom-12" d="M 1381.3,238.6 L 1413.7,199.2" style="fill:none;fill-rule:evenodd;stroke:#000000;stroke-width:2.0px;stroke-linecap:butt;stroke-linejoin:miter;stroke-opacity:1"/>
<path class="atom-4" d="M 1395.5 144.2 Q 1397.9 144.2, 1399.2 145.3 Q 1400.4 146.4, 1400.4 148.4 Q 1400.4 150.4, 1399.1 151.6 Q 1397.9 152.7, 1395.5 152.7 L 1393.2 152.7 L 1393.2 158.6 L 1391.2 158.6 L 1391.2 144.2 L 1395.5 144.2 M 1395.5 151.0 Q 1396.9 151.0, 1397.6 150.4 Q 1398.4 149.7, 1398.4 148.4 Q 1398.4 147.1, 1397.6 146.5 Q 1396.9 145.8, 1395.5 145.8 L 1393.2 145.8 L 1393.2 151.0 L 1395.5 151.0 " fill="#FF7F00"/>
<path class="atom-5" d="M 1371.2 103.6 Q 1371.2 100.1, 1373.0 98.2 Q 1374.7 96.3, 1377.9 96.3 Q 1381.1 96.3, 1382.8 98.2 Q 1384.5 100.1, 1384.5 103.6 Q 1384.5 107.1, 1382.8 109.1 Q 1381.1 111.1, 1377.9 111.1 Q 1374.7 111.1, 1373.0 109.1 Q 1371.2 107.2, 1371.2 103.6 M 1377.9 109.5 Q 1380.1 109.5, 1381.3 108.0 Q 1382.5 106.5, 1382.5 103.6 Q 1382.5 100.8, 1381.3 99.4 Q 1380.1 97.9, 1377.9 97.9 Q 1375.7 97.9, 1374.5 99.3 Q 1373.3 100.8, 1373.3 103.6 Q 1373.3 106.5, 1374.5 108.0 Q 1375.7 109.5, 1377.9 109.5 " fill="#FF0000"/>
<path class="legend" d="M 1368.6 365.4 L 1368.8 366.5 Q 1369.6 365.3, 1371.0 365.3 Q 1371.5 365.3, 1372.1 365.4 L 1371.9 366.8 Q 1371.2 366.6, 1370.8 366.6 Q 1370.1 366.6, 1369.7 366.9 Q 1369.2 367.1, 1368.9 367.8 L 1368.9 373.6 L 1367.4 373.6 L 1367.4 365.4 L 1368.6 365.4 " fill="#000000"/>
<path class="legend" d="M 1372.3 369.5 Q 1372.3 367.5, 1373.4 366.4 Q 1374.4 365.3, 1376.2 365.3 Q 1378.0 365.3, 1378.8 366.4 Q 1379.6 367.4, 1379.6 369.5 L 1379.6 369.7 L 1373.9 369.7 Q 1373.9 371.1, 1374.5 371.8 Q 1375.2 372.6, 1376.3 372.6 Q 1377.0 372.6, 1377.6 372.4 Q 1378.2 372.3, 1378.9 372.0 L 1379.3 373.0 Q 1378.5 373.4, 1377.8 373.6 Q 1377.0 373.8, 1376.2 373.8 Q 1374.4 373.8, 1373.4 372.6 Q 1372.3 371.5, 1372.3 369.5 M 1376.2 366.4 Q 1375.3 366.4, 1374.7 367.0 Q 1374.1 367.5, 1373.9 368.6 L 1378.0 368.6 Q 1377.9 367.5, 1377.5 367.0 Q 1377.0 366.4, 1376.2 366.4 " fill="#000000"/>
<path class="legend" d="M 1380.2 371.4 Q 1380.2 370.1, 1381.3 369.4 Q 1382.3 368.7, 1384.3 368.7 L 1385.5 368.7 L 1385.5 368.3 Q 1385.5 367.3, 1385.1 366.9 Q 1384.6 366.4, 1383.6 366.4 Q 1383.0 366.4, 1382.5 366.6 Q 1381.9 366.7, 1381.1 367.0 L 1380.7 366.0 Q 1382.2 365.3, 1383.7 365.3 Q 1385.4 365.3, 1386.2 366.0 Q 1387.0 366.8, 1387.0 368.4 L 1387.0 373.6 L 1385.8 373.6 Q 1385.8 373.6, 1385.8 373.3 Q 1385.7 373.1, 1385.6 372.7 Q 1384.5 373.8, 1382.9 373.8 Q 1381.7 373.8, 1381.0 373.2 Q 1380.2 372.5, 1380.2 371.4 M 1381.7 371.4 Q 1381.7 372.0, 1382.1 372.3 Q 1382.5 372.6, 1383.2 372.6 Q 1383.9 372.6, 1384.5 372.4 Q 1385.1 372.0, 1385.5 371.5 L 1385.5 369.8 L 1384.4 369.8 Q 1383.1 369.8, 1382.4 370.2 Q 1381.7 370.6, 1381.7 371.4 " fill="#000000"/>
<path class="legend" d="M 1388.2 369.5 Q 1388.2 367.5, 1389.2 366.4 Q 1390.2 365.3, 1392.2 365.3 Q 1394.0 365.3, 1395.0 366.6 L 1394.0 367.4 Q 1393.6 366.9, 1393.2 366.7 Q 1392.7 366.4, 1392.2 366.4 Q 1391.0 366.4, 1390.4 367.2 Q 1389.8 368.0, 1389.8 369.5 Q 1389.8 371.0, 1390.4 371.8 Q 1391.1 372.6, 1392.3 372.6 Q 1392.9 372.6, 1393.4 372.4 Q 1393.9 372.3, 1394.4 372.0 L 1394.9 373.0 Q 1393.7 373.7, 1392.2 373.7 Q 1390.2 373.7, 1389.2 372.6 Q 1388.2 371.5, 1388.2 369.5 " fill="#000000"/>
<path class="legend" d="M 1395.4 366.6 L 1395.4 365.4 L 1397.0 365.4 L 1397.2 363.0 L 1398.3 363.0 L 1398.3 365.4 L 1400.9 365.4 L 1400.9 366.6 L 1398.3 366.6 L 1398.3 371.1 Q 1398.3 372.5, 1399.5 372.5 Q 1400.0 372.5, 1400.7 372.3 L 1401.0 373.4 Q 1400.1 373.7, 1399.3 373.7 Q 1398.2 373.7, 1397.5 373.1 Q 1396.8 372.4, 1396.8 371.2 L 1396.8 366.6 L 1395.4 366.6 " fill="#000000"/>
<path class="legend" d="M 1409.5 374.4 L 1409.5 375.7 L 1401.4 375.7 L 1401.4 374.4 L 1409.5 374.4 " fill="#000000"/>
<path class="legend" d="M 1410.2 372.4 L 1412.6 372.4 L 1412.6 363.9 L 1409.9 364.7 L 1409.5 363.8 L 1413.0 362.2 L 1414.2 362.4 L 1414.2 372.4 L 1416.4 372.4 L 1416.4 373.6 L 1410.2 373.6 L 1410.2 372.4 " fill="#000000"/>
<path class="legend" d="M 1421.5 366.6 Q 1422.5 366.6, 1423.3 367.0 Q 1424.0 367.4, 1424.5 368.2 Q 1424.9 369.0, 1424.9 370.0 Q 1424.9 371.1, 1424.4 372.0 Q 1423.9 372.8, 1423.1 373.3 Q 1422.2 373.8, 1421.1 373.8 Q 1419.1 373.8, 1418.1 372.4 Q 1417.0 371.0, 1417.0 368.3 Q 1417.0 365.3, 1418.3 363.7 Q 1419.6 362.2, 1422.0 362.2 Q 1422.7 362.2, 1423.3 362.3 Q 1423.9 362.5, 1424.5 362.8 L 1423.8 363.9 Q 1423.0 363.5, 1422.0 363.5 Q 1420.4 363.5, 1419.6 364.5 Q 1418.8 365.5, 1418.7 367.6 Q 1419.2 367.1, 1420.0 366.8 Q 1420.7 366.6, 1421.5 366.6 M 1421.1 372.4 Q 1421.7 372.4, 1422.2 372.1 Q 1422.7 371.8, 1423.0 371.2 Q 1423.3 370.7, 1423.3 370.0 Q 1423.3 369.0, 1422.7 368.4 Q 1422.2 367.8, 1421.2 367.8 Q 1420.5 367.8, 1419.8 368.1 Q 1419.1 368.4, 1418.7 368.9 Q 1418.7 370.8, 1419.3 371.6 Q 1419.9 372.4, 1421.1 372.4 " fill="#000000"/>
<path class="legend" d="M 1426.4 372.4 L 1428.9 372.4 L 1428.9 363.9 L 1426.2 364.7 L 1425.8 363.8 L 1429.3 362.2 L 1430.4 362.4 L 1430.4 372.4 L 1432.6 372.4 L 1432.6 373.6 L 1426.4 373.6 L 1426.4 372.4 " fill="#000000"/>
<path class="legend" d="M 1336.5 383.8 Q 1336.5 381.8, 1337.5 380.7 Q 1338.5 379.5, 1340.4 379.5 Q 1342.3 379.5, 1343.3 380.9 L 1342.3 381.6 Q 1341.9 381.2, 1341.4 380.9 Q 1341.0 380.7, 1340.4 380.7 Q 1339.3 380.7, 1338.7 381.5 Q 1338.0 382.3, 1338.0 383.8 Q 1338.0 385.3, 1338.7 386.1 Q 1339.3 386.8, 1340.5 386.8 Q 1341.2 386.8, 1341.7 386.7 Q 1342.1 386.5, 1342.7 386.3 L 1343.1 387.3 Q 1341.9 388.0, 1340.4 388.0 Q 1338.5 388.0, 1337.5 386.9 Q 1336.5 385.7, 1336.5 383.8 " fill="#000000"/>
<path class="legend" d="M 1343.7 383.8 Q 1343.7 381.7, 1344.7 380.6 Q 1345.7 379.5, 1347.5 379.5 Q 1349.3 379.5, 1350.1 380.6 Q 1350.9 381.7, 1350.9 383.7 L 1350.9 384.0 L 1345.2 384.0 Q 1345.2 385.4, 1345.9 386.1 Q 1346.5 386.8, 1347.7 386.8 Q 1348.3 386.8, 1348.9 386.7 Q 1349.5 386.5, 1350.2 386.2 L 1350.6 387.2 Q 1349.8 387.6, 1349.1 387.8 Q 1348.3 388.0, 1347.6 388.0 Q 1345.7 388.0, 1344.7 386.9 Q 1343.7 385.8, 1343.7 383.8 M 1347.5 380.7 Q 1346.6 380.7, 1346.0 381.2 Q 1345.4 381.8, 1345.3 382.8 L 1349.4 382.8 Q 1349.3 381.7, 1348.8 381.2 Q 1348.4 380.7, 1347.5 380.7 " fill="#000000"/>
<path class="legend" d="M 1355.8 379.5 Q 1357.2 379.5, 1357.8 380.3 Q 1358.5 381.0, 1358.5 382.4 L 1358.5 387.9 L 1357.0 387.9 L 1357.0 382.6 Q 1357.0 381.6, 1356.7 381.2 Q 1356.3 380.7, 1355.5 380.7 Q 1354.7 380.7, 1354.1 381.1 Q 1353.5 381.4, 1353.1 382.0 L 1353.1 387.9 L 1351.6 387.9 L 1351.6 379.7 L 1352.8 379.7 L 1353.0 380.8 Q 1354.1 379.5, 1355.8 379.5 " fill="#000000"/>
<path class="legend" d="M 1359.8 380.8 L 1359.8 379.7 L 1361.3 379.7 L 1361.6 377.3 L 1362.7 377.3 L 1362.7 379.7 L 1365.2 379.7 L 1365.2 380.8 L 1362.7 380.8 L 1362.7 385.4 Q 1362.7 386.8, 1363.9 386.8 Q 1364.4 386.8, 1365.1 386.6 L 1365.4 387.6 Q 1364.5 388.0, 1363.7 388.0 Q 1362.6 388.0, 1361.9 387.3 Q 1361.2 386.7, 1361.2 385.4 L 1361.2 380.8 L 1359.8 380.8 " fill="#000000"/>
<path class="legend" d="M 1373.9 388.7 L 1373.9 390.0 L 1365.8 390.0 L 1365.8 388.7 L 1373.9 388.7 " fill="#000000"/>
<path class="legend" d="M 1381.4 375.7 L 1381.4 387.9 L 1380.2 387.9 L 1380.0 386.9 Q 1379.1 388.0, 1377.5 388.0 Q 1375.8 388.0, 1374.9 387.0 Q 1373.9 385.9, 1373.9 383.9 Q 1373.9 381.8, 1375.0 380.7 Q 1376.2 379.5, 1378.1 379.5 Q 1379.0 379.5, 1379.9 379.7 L 1379.9 375.7 L 1381.4 375.7 M 1377.6 386.8 Q 1378.5 386.8, 1379.1 386.4 Q 1379.7 385.9, 1379.9 385.1 L 1379.9 380.9 Q 1379.1 380.7, 1378.2 380.7 Q 1376.9 380.7, 1376.2 381.6 Q 1375.5 382.4, 1375.5 383.9 Q 1375.5 385.3, 1376.0 386.1 Q 1376.6 386.8, 1377.6 386.8 " fill="#000000"/>
<path class="legend" d="M 1382.7 376.6 L 1384.1 376.6 L 1384.1 378.0 L 1382.7 378.0 L 1382.7 376.6 M 1382.7 379.7 L 1384.1 379.7 L 1384.1 387.9 L 1382.7 387.9 L 1382.7 379.7 " fill="#000000"/>
<path class="legend" d="M 1386.0 386.2 Q 1386.7 386.5, 1387.2 386.6 Q 1387.7 386.8, 1388.3 386.8 Q 1389.0 386.8, 1389.4 386.5 Q 1389.8 386.2, 1389.8 385.6 Q 1389.8 385.2, 1389.6 385.0 Q 1389.4 384.8, 1389.1 384.6 Q 1388.9 384.5, 1388.2 384.3 Q 1388.1 384.3, 1387.3 384.0 Q 1386.6 383.7, 1386.2 383.2 Q 1385.8 382.7, 1385.8 381.9 Q 1385.8 380.9, 1386.6 380.2 Q 1387.3 379.5, 1388.8 379.5 Q 1389.4 379.5, 1390.0 379.7 Q 1390.5 379.8, 1391.2 380.0 L 1390.8 381.2 Q 1390.2 381.0, 1389.8 380.9 Q 1389.3 380.8, 1388.8 380.8 Q 1388.1 380.8, 1387.7 381.1 Q 1387.3 381.4, 1387.3 381.8 Q 1387.3 382.3, 1387.6 382.5 Q 1387.9 382.7, 1388.6 383.0 Q 1388.8 383.0, 1388.9 383.1 L 1389.3 383.2 Q 1390.0 383.4, 1390.4 383.7 Q 1390.8 383.9, 1391.1 384.4 Q 1391.3 384.8, 1391.3 385.6 Q 1391.3 386.7, 1390.5 387.4 Q 1389.7 388.0, 1388.3 388.0 Q 1387.5 388.0, 1386.9 387.9 Q 1386.2 387.7, 1385.5 387.4 L 1386.0 386.2 " fill="#000000"/>
<path class="legend" d="M 1392.2 380.8 L 1392.2 379.7 L 1393.8 379.7 L 1394.0 377.3 L 1395.1 377.3 L 1395.1 379.7 L 1397.7 379.7 L 1397.7 380.8 L 1395.1 380.8 L 1395.1 385.4 Q 1395.1 386.8, 1396.3 386.8 Q 1396.8 386.8, 1397.5 386.6 L 1397.8 387.6 Q 1396.9 388.0, 1396.1 388.0 Q 1395.0 388.0, 1394.3 387.3 Q 1393.6 386.7, 1393.6 385.4 L 1393.6 380.8 L 1392.2 380.8 " fill="#000000"/>
<path class="legend" d="" fill="#000000"/>
<path class="legend" d="M 1403.5 380.9 L 1410.8 380.9 L 1410.8 382.1 L 1403.5 382.1 L 1403.5 380.9 M 1403.5 384.4 L 1410.8 384.4 L 1410.8 385.5 L 1403.5 385.5 L 1403.5 384.4 " fill="#000000"/>
<path class="legend" d="" fill="#000000"/>
<path class="legend" d="M 1421.8 388.0 Q 1419.7 388.0, 1418.7 386.5 Q 1417.6 384.9, 1417.6 382.2 Q 1417.6 379.5, 1418.7 378.0 Q 1419.7 376.4, 1421.8 376.4 Q 1423.9 376.4, 1424.9 378.0 Q 1425.9 379.5, 1425.9 382.2 Q 1425.9 384.9, 1424.9 386.5 Q 1423.9 388.0, 1421.8 388.0 M 1421.8 386.7 Q 1423.0 386.7, 1423.7 385.6 Q 1424.3 384.4, 1424.3 382.2 Q 1424.3 380.0, 1423.7 378.8 Q 1423.0 377.7, 1421.8 377.7 Q 1420.6 377.7, 1419.9 378.8 Q 1419.2 380.0, 1419.2 382.2 Q 1419.2 384.4, 1419.9 385.6 Q 1420.6 386.7, 1421.8 386.7 " fill="#000000"/>
<path class="legend" d="M 1427.0 386.3 L 1428.6 386.3 L 1428.6 387.9 L 1427.0 387.9 L 1427.0 386.3 " fill="#000000"/>
<path class="legend" d="M 1435.5 377.8 L 1429.6 377.8 L 1429.6 376.6 L 1437.1 376.6 L 1437.1 377.7 L 1432.5 387.9 L 1431.0 387.9 L 1435.5 377.8 " fill="#000000"/>
<path class="legend" d="M 1442.0 380.8 Q 1443.0 380.8, 1443.8 381.2 Q 1444.6 381.7, 1445.0 382.5 Q 1445.4 383.2, 1445.4 384.2 Q 1445.4 385.3, 1444.9 386.2 Q 1444.5 387.1, 1443.6 387.5 Q 1442.7 388.0, 1441.6 388.0 Q 1439.6 388.0, 1438.6 386.7 Q 1437.6 385.3, 1437.6 382.6 Q 1437.6 379.6, 1438.8 378.0 Q 1440.1 376.4, 1442.5 376.4 Q 1443.2 376.4, 1443.8 376.6 Q 1444.4 376.8, 1445.0 377.1 L 1444.4 378.2 Q 1443.5 377.7, 1442.5 377.7 Q 1440.9 377.7, 1440.1 378.8 Q 1439.3 379.8, 1439.2 381.9 Q 1439.8 381.4, 1440.5 381.1 Q 1441.2 380.8, 1442.0 380.8 M 1441.6 386.7 Q 1442.3 386.7, 1442.7 386.4 Q 1443.3 386.1, 1443.5 385.5 Q 1443.8 384.9, 1443.8 384.3 Q 1443.8 383.2, 1443.3 382.7 Q 1442.7 382.1, 1441.7 382.1 Q 1441.0 382.1, 1440.3 382.4 Q 1439.7 382.7, 1439.2 383.1 Q 1439.3 385.0, 1439.9 385.9 Q 1440.4 386.7, 1441.6 386.7 " fill="#000000"/>
<path class="legend" d="M 1450.5 388.0 Q 1448.4 388.0, 1447.3 386.5 Q 1446.3 384.9, 1446.3 382.2 Q 1446.3 379.5, 1447.3 378.0 Q 1448.4 376.4, 1450.5 376.4 Q 1452.6 376.4, 1453.6 378.0 Q 1454.6 379.5, 1454.6 382.2 Q 1454.6 384.9, 1453.6 386.5 Q 1452.5 388.0, 1450.5 388.0 M 1450.5 386.7 Q 1451.7 386.7, 1452.3 385.6 Q 1453.0 384.4, 1453.0 382.2 Q 1453.0 380.0, 1452.3 378.8 Q 1451.7 377.7, 1450.5 377.7 Q 1449.2 377.7, 1448.6 378.8 Q 1447.9 380.0, 1447.9 382.2 Q 1447.9 384.4, 1448.6 385.6 Q 1449.2 386.7, 1450.5 386.7 " fill="#000000"/>
<path class="legend" d="M 1459.5 376.4 Q 1461.5 376.4, 1462.5 377.8 Q 1463.5 379.2, 1463.5 381.9 Q 1463.5 384.9, 1462.2 386.5 Q 1461.0 388.0, 1458.6 388.0 Q 1457.9 388.0, 1457.3 387.9 Q 1456.7 387.7, 1456.1 387.4 L 1456.7 386.3 Q 1457.5 386.7, 1458.6 386.7 Q 1460.2 386.7, 1461.0 385.7 Q 1461.8 384.7, 1461.9 382.5 Q 1461.3 383.1, 1460.6 383.4 Q 1459.9 383.6, 1459.1 383.6 Q 1458.1 383.6, 1457.3 383.2 Q 1456.5 382.8, 1456.1 382.0 Q 1455.6 381.2, 1455.6 380.2 Q 1455.6 379.1, 1456.1 378.3 Q 1456.6 377.4, 1457.5 376.9 Q 1458.3 376.4, 1459.5 376.4 M 1457.2 380.2 Q 1457.2 381.2, 1457.8 381.8 Q 1458.4 382.4, 1459.4 382.4 Q 1460.0 382.4, 1460.7 382.1 Q 1461.4 381.8, 1461.9 381.3 Q 1461.8 379.4, 1461.2 378.6 Q 1460.6 377.7, 1459.4 377.7 Q 1458.8 377.7, 1458.3 378.1 Q 1457.8 378.4, 1457.5 378.9 Q 1457.2 379.5, 1457.2 380.2 " fill="#000000"/>
<path class="bond-0 atom-0 atom-1" d="M 1725.1,230.7 L 1730.2,179.9" style="fill:none;fill-rule:evenodd;stroke:#000000;stroke-width:2.0px;stroke-linecap:butt;stroke-linejoin:miter;stroke-opacity:1"/>
<path class="bond-0 atom-0 atom-1" d="M 1735.2,231.8 L 1740.4,181.0" style="fill:none;fill-rule:evenodd;stroke:#000000;stroke-width:2.0px;stroke-linecap:butt;stroke-linejoin:miter;stroke-opacity:1"/>
<path class="bond-1 atom-1 atom-2" d="M 1735.3,180.5 L 1693.9,150.6" style="fill:none;fill-rule:evenodd;stroke:#000000;stroke-width:2.0px;stroke-linecap:butt;stroke-linejoin:miter;stroke-opacity:1"/>
<path class="bond-2 atom-2 atom-3" d="M 1693.9,150.6 L 1647.3,171.5" style="fill:none;fill-rule:evenodd;stroke:#000000;stroke-width:2.0px;stroke-linecap:butt;stroke-linejoin:miter;stroke-opacity:1"/>
<path class="bond-3 atom-1 atom-4" d="M 1735.3,180.5 L 1754.4,171.9" style="fill:none;fill-rule:evenodd;stroke:#000000;stroke-width:2.0px;stroke-linecap:butt;stroke-linejoin:miter;stroke-opacity:1"/>
<path class="bond-3 atom-1 atom-4" d="M 1754.4,171.9 L 1773.6,163.3" style="fill:none;fill-rule:evenodd;stroke:#FF0000;stroke-width:2.0px;stroke-linecap:butt;stroke-linejoin:miter;stroke-opacity:1"/>
<path class="bond-4 atom-4 atom-5" d="M 1790.2,165.5 L 1802.9,174.7" style="fill:none;fill-rule:evenodd;stroke:#FF0000;stroke-width:2.0px;stroke-linecap:butt;stroke-linejoin:miter;stroke-opacity:1"/>
<path class="bond-4 atom-4 atom-5" d="M 1802.9,174.7 L 1815.5,183.8" style="fill:none;fill-rule:evenodd;stroke:#000000;stroke-width:2.0px;stroke-linecap:butt;stroke-linejoin:miter;stroke-opacity:1"/>
<path class="bond-5 atom-5 atom-6" d="M 1829.7,180.5 L 1853.2,148.0" style="fill:none;fill-rule:evenodd;stroke:#000000;stroke-width:2.0px;stroke-linecap:butt;stroke-linejoin:miter;stroke-opacity:1"/>
<path class="bond-6 atom-6 atom-7" d="M 1853.2,148.0 L 1904.0,153.2" style="fill:none;fill-rule:evenodd;stroke:#000000;stroke-width:2.0px;stroke-linecap:butt;stroke-linejoin:miter;stroke-opacity:1"/>
<path class="bond-6 atom-6 atom-7" d="M 1861.8,138.6 L 1897.4,142.3" style="fill:none;fill-rule:evenodd;stroke:#000000;stroke-width:2.0px;stroke-linecap:butt;stroke-linejoin:miter;stroke-opacity:1"/>
<path class="bond-7 atom-7 atom-8" d="M 1904.0,153.2 L 1933.8,111.8" style="fill:none;fill-rule:evenodd;stroke:#000000;stroke-width:2.0px;stroke-linecap:butt;stroke-linejoin:miter;stroke-opacity:1"/>
<path class="bond-8 atom-8 atom-9" d="M 1933.8,111.8 L 1912.9,65.2" style="fill:none;fill-rule:evenodd;stroke:#000000;stroke-width:2.0px;stroke-linecap:butt;stroke-linejoin:miter;stroke-opacity:1"/>
<path class="bond-8 atom-8 atom-9" d="M 1921.4,109.0 L 1906.7,76.4" style="fill:none;fill-rule:evenodd;stroke:#000000;stroke-width:2.0px;stroke-linecap:butt;stroke-linejoin:miter;stroke-opacity:1"/>
<path class="bond-9 atom-9 atom-10" d="M 1912.9,65.2 L 1862.1,60.0" style="fill:none;fill-rule:evenodd;stroke:#000000;stroke-width:2.0px;stroke-linecap:butt;stroke-linejoin:miter;stroke-opacity:1"/>
<path class="bond-10 atom-10 atom-11" d="M 1862.1,60.0 L 1832.2,101.4" style="fill:none;fill-rule:evenodd;stroke:#000000;stroke-width:2.0px;stroke-linecap:butt;stroke-linejoin:miter;stroke-opacity:1"/>
<path class="bond-10 atom-10 atom-11" d="M 1865.9,72.2 L 1845.0,101.2" style="fill:none;fill-rule:evenodd;stroke:#000000;stroke-width:2.0px;stroke-linecap:butt;stroke-linejoin:miter;stroke-opacity:1"/>
<path class="bond-11 atom-5 atom-12" d="M 1831.0,195.0 L 1864.7,219.3" style="fill:none;fill-rule:evenodd;stroke:#000000;stroke-width:2.0px;stroke-linecap:butt;stroke-linejoin:miter;stroke-opacity:1"/>
<path class="bond-12 atom-12 atom-13" d="M 1864.7,219.3 L 1859.5,270.1" style="fill:none;fill-rule:evenodd;stroke:#000000;stroke-width:2.0px;stroke-linecap:butt;stroke-linejoin:miter;stroke-opacity:1"/>
<path class="bond-12 atom-12 atom-13" d="M 1874.1,227.9 L 1870.5,263.5" style="fill:none;fill-rule:evenodd;stroke:#000000;stroke-width:2.0px;stroke-linecap:butt;stroke-linejoin:miter;stroke-opacity:1"/>
<path class="bond-13 atom-13 atom-14" d="M 1859.5,270.1 L 1900.9,300.0" style="fill:none;fill-rule:evenodd;stroke:#000000;stroke-width:2.0px;stroke-linecap:butt;stroke-linejoin:miter;stroke-opacity:1"/>
<path class="bond-14 atom-14 atom-15" d="M 1900.9,300.0 L 1947.5,279.0" style="fill:none;fill-rule:evenodd;stroke:#000000;stroke-width:2.0px;stroke-linecap:butt;stroke-linejoin:miter;stroke-opacity:1"/>
<path class="bond-14 atom-14 atom-15" d="M 1903.7,287.5 L 1936.3,272.9" style="fill:none;fill-rule:evenodd;stroke:#000000;stroke-width:2.0px;stroke-linecap:butt;stroke-linejoin:miter;stroke-opacity:1"/>
<path class="bond-15 atom-15 atom-16" d="M 1947.5,279.0 L 1952.7,228.3" style="fill:none;fill-rule:evenodd;stroke:#000000;stroke-width:2.0px;stroke-linecap:butt;stroke-linejoin:miter;stroke-opacity:1"/>
<path class="bond-16 atom-16 atom-17" d="M 1952.7,228.3 L 1911.3,198.4" style="fill:none;fill-rule:evenodd;stroke:#000000;stroke-width:2.0px;stroke-linecap:butt;stroke-linejoin:miter;stroke-opacity:1"/>
<path class="bond-16 atom-16 atom-17" d="M 1940.5,232.1 L 1911.5,211.1" style="fill:none;fill-rule:evenodd;stroke:#000000;stroke-width:2.0px;stroke-linecap:butt;stroke-linejoin:miter;stroke-opacity:1"/>
<path class="bond-17 atom-5 atom-18" d="M 1816.6,198.7 L 1793.4,230.8" style="fill:none;fill-rule:evenodd;stroke:#000000;stroke-width:2.0px;stroke-linecap:butt;stroke-linejoin:miter;stroke-opacity:1"/>
<path class="bond-18 atom-18 atom-19" d="M 1793.4,230.8 L 1834.8,260.7" style="fill:none;fill-rule:evenodd;stroke:#000000;stroke-width:2.0px;stroke-linecap:butt;stroke-linejoin:miter;stroke-opacity:1"/>
<path class="bond-19 atom-18 atom-20" d="M 1793.4,230.8 L 1752.0,200.9" style="fill:none;fill-rule:evenodd;stroke:#000000;stroke-width:2.0px;stroke-linecap:butt;stroke-linejoin:miter;stroke-opacity:1"/>
<path class="bond-20 atom-18 atom-21" d="M 1793.4,230.8 L 1763.5,272.2" style="fill:none;fill-rule:evenodd;stroke:#000000;stroke-width:2.0px;stroke-linecap:butt;stroke-linejoin:miter;stroke-opacity:1"/>
<path class="bond-21 atom-11 atom-6" d="M 1832.2,101.4 L 1853.2,148.0" style="fill:none;fill-rule:evenodd;stroke:#000000;stroke-width:2.0px;stroke-linecap:butt;stroke-linejoin:miter;stroke-opacity:1"/>
<path class="bond-22 atom-17 atom-12" d="M 1911.3,198.4 L 1864.7,219.3" style="fill:none;fill-rule:evenodd;stroke:#000000;stroke-width:2.0px;stroke-linecap:butt;stroke-linejoin:miter;stroke-opacity:1"/>
<path class="atom-4" d="M 1775.2 159.6 Q 1775.2 156.1, 1777.0 154.2 Q 1778.7 152.2, 1781.9 152.2 Q 1785.1 152.2, 1786.8 154.2 Q 1788.5 156.1, 1788.5 159.6 Q 1788.5 163.1, 1786.8 165.1 Q 1785.1 167.1, 1781.9 167.1 Q 1778.7 167.1, 1777.0 165.1 Q 1775.2 163.1, 1775.2 159.6 M 1781.9 165.4 Q 1784.1 165.4, 1785.3 164.0 Q 1786.5 162.5, 1786.5 159.6 Q 1786.5 156.7, 1785.3 155.3 Q 1784.1 153.9, 1781.9 153.9 Q 1779.7 153.9, 1778.5 155.3 Q 1777.3 156.7, 1777.3 159.6 Q 1777.3 162.5, 1778.5 164.0 Q 1779.7 165.4, 1781.9 165.4 " fill="#FF0000"/>
<path class="atom-5" d="M 1817.8 194.4 Q 1817.9 194.5, 1818.6 194.7 Q 1819.3 195.0, 1820.0 195.2 Q 1820.8 195.4, 1821.5 195.4 Q 1822.9 195.4, 1823.7 194.7 Q 1824.5 194.1, 1824.5 192.9 Q 1824.5 192.1, 1824.1 191.6 Q 1823.7 191.1, 1823.1 190.8 Q 1822.5 190.6, 1821.4 190.3 Q 1820.2 189.9, 1819.4 189.5 Q 1818.6 189.2, 1818.1 188.4 Q 1817.5 187.6, 1817.5 186.3 Q 1817.5 184.5, 1818.8 183.4 Q 1820.0 182.2, 1822.5 182.2 Q 1824.1 182.2, 1826.0 183.0 L 1825.6 184.6 Q 1823.8 183.9, 1822.5 183.9 Q 1821.1 183.9, 1820.3 184.5 Q 1819.6 185.0, 1819.6 186.0 Q 1819.6 186.8, 1820.0 187.3 Q 1820.4 187.8, 1820.9 188.0 Q 1821.5 188.3, 1822.5 188.6 Q 1823.8 189.0, 1824.6 189.4 Q 1825.4 189.8, 1825.9 190.7 Q 1826.5 191.5, 1826.5 192.9 Q 1826.5 194.9, 1825.2 196.0 Q 1823.8 197.0, 1821.6 197.0 Q 1820.3 197.0, 1819.3 196.7 Q 1818.4 196.5, 1817.2 196.0 L 1817.8 194.4 " fill="#000000"/>
<path class="atom-5" d="M 1827.5 182.2 L 1829.3 182.2 L 1829.3 184.0 L 1827.5 184.0 L 1827.5 182.2 M 1827.5 186.1 L 1829.3 186.1 L 1829.3 196.6 L 1827.5 196.6 L 1827.5 186.1 " fill="#000000"/>
<path class="legend" d="M 1771.9 365.4 L 1772.1 366.5 Q 1772.9 365.3, 1774.4 365.3 Q 1774.8 365.3, 1775.4 365.4 L 1775.2 366.8 Q 1774.5 366.6, 1774.1 366.6 Q 1773.4 366.6, 1773.0 366.9 Q 1772.5 367.1, 1772.2 367.8 L 1772.2 373.6 L 1770.7 373.6 L 1770.7 365.4 L 1771.9 365.4 " fill="#000000"/>
<path class="legend" d="M 1775.6 369.5 Q 1775.6 367.5, 1776.7 366.4 Q 1777.7 365.3, 1779.5 365.3 Q 1781.3 365.3, 1782.1 366.4 Q 1782.9 367.4, 1782.9 369.5 L 1782.9 369.7 L 1777.2 369.7 Q 1777.2 371.1, 1777.8 371.8 Q 1778.5 372.6, 1779.6 372.6 Q 1780.3 372.6, 1780.9 372.4 Q 1781.5 372.3, 1782.2 372.0 L 1782.6 373.0 Q 1781.8 373.4, 1781.1 373.6 Q 1780.3 373.8, 1779.6 373.8 Q 1777.7 373.8, 1776.7 372.6 Q 1775.6 371.5, 1775.6 369.5 M 1779.5 366.4 Q 1778.6 366.4, 1778.0 367.0 Q 1777.4 367.5, 1777.2 368.6 L 1781.3 368.6 Q 1781.2 367.5, 1780.8 367.0 Q 1780.3 366.4, 1779.5 366.4 " fill="#000000"/>
<path class="legend" d="M 1783.5 371.4 Q 1783.5 370.1, 1784.6 369.4 Q 1785.6 368.7, 1787.6 368.7 L 1788.8 368.7 L 1788.8 368.3 Q 1788.8 367.3, 1788.4 366.9 Q 1788.0 366.4, 1786.9 366.4 Q 1786.3 366.4, 1785.8 366.6 Q 1785.2 366.7, 1784.4 367.0 L 1784.0 366.0 Q 1785.5 365.3, 1787.0 365.3 Q 1788.7 365.3, 1789.5 366.0 Q 1790.3 366.8, 1790.3 368.4 L 1790.3 373.6 L 1789.1 373.6 Q 1789.1 373.6, 1789.1 373.3 Q 1789.0 373.1, 1788.9 372.7 Q 1787.8 373.8, 1786.2 373.8 Q 1785.0 373.8, 1784.3 373.2 Q 1783.5 372.5, 1783.5 371.4 M 1785.0 371.4 Q 1785.0 372.0, 1785.4 372.3 Q 1785.8 372.6, 1786.5 372.6 Q 1787.2 372.6, 1787.8 372.4 Q 1788.4 372.0, 1788.8 371.5 L 1788.8 369.8 L 1787.7 369.8 Q 1786.4 369.8, 1785.7 370.2 Q 1785.0 370.6, 1785.0 371.4 " fill="#000000"/>
<path class="legend" d="M 1791.5 369.5 Q 1791.5 367.5, 1792.5 366.4 Q 1793.5 365.3, 1795.5 365.3 Q 1797.3 365.3, 1798.3 366.6 L 1797.3 367.4 Q 1796.9 366.9, 1796.5 366.7 Q 1796.0 366.4, 1795.5 366.4 Q 1794.3 366.4, 1793.7 367.2 Q 1793.1 368.0, 1793.1 369.5 Q 1793.1 371.0, 1793.7 371.8 Q 1794.4 372.6, 1795.6 372.6 Q 1796.2 372.6, 1796.7 372.4 Q 1797.2 372.3, 1797.7 372.0 L 1798.2 373.0 Q 1797.0 373.7, 1795.5 373.7 Q 1793.5 373.7, 1792.5 372.6 Q 1791.5 371.5, 1791.5 369.5 " fill="#000000"/>
<path class="legend" d="M 1798.7 366.6 L 1798.7 365.4 L 1800.3 365.4 L 1800.5 363.0 L 1801.6 363.0 L 1801.6 365.4 L 1804.2 365.4 L 1804.2 366.6 L 1801.6 366.6 L 1801.6 371.1 Q 1801.6 372.5, 1802.8 372.5 Q 1803.3 372.5, 1804.0 372.3 L 1804.3 373.4 Q 1803.4 373.7, 1802.6 373.7 Q 1801.5 373.7, 1800.8 373.1 Q 1800.1 372.4, 1800.1 371.2 L 1800.1 366.6 L 1798.7 366.6 " fill="#000000"/>
<path class="legend" d="M 1812.8 374.4 L 1812.8 375.7 L 1804.7 375.7 L 1804.7 374.4 L 1812.8 374.4 " fill="#000000"/>
<path class="legend" d="M 1816.7 362.2 Q 1818.7 362.2, 1819.7 363.6 Q 1820.7 364.9, 1820.7 367.6 Q 1820.7 370.6, 1819.4 372.2 Q 1818.2 373.8, 1815.8 373.8 Q 1815.1 373.8, 1814.5 373.6 Q 1813.9 373.4, 1813.3 373.1 L 1813.9 372.0 Q 1814.8 372.5, 1815.8 372.5 Q 1817.4 372.5, 1818.2 371.5 Q 1819.0 370.4, 1819.1 368.3 Q 1818.5 368.8, 1817.8 369.1 Q 1817.1 369.4, 1816.3 369.4 Q 1815.3 369.4, 1814.5 368.9 Q 1813.7 368.5, 1813.3 367.7 Q 1812.8 366.9, 1812.8 366.0 Q 1812.8 364.8, 1813.3 364.0 Q 1813.8 363.1, 1814.7 362.7 Q 1815.6 362.2, 1816.7 362.2 M 1814.4 365.9 Q 1814.4 366.9, 1815.0 367.5 Q 1815.6 368.1, 1816.6 368.1 Q 1817.2 368.1, 1817.9 367.8 Q 1818.6 367.5, 1819.1 367.1 Q 1819.0 365.2, 1818.4 364.3 Q 1817.8 363.5, 1816.6 363.5 Q 1816.0 363.5, 1815.5 363.8 Q 1815.0 364.1, 1814.7 364.7 Q 1814.4 365.2, 1814.4 365.9 " fill="#000000"/>
<path class="legend" d="M 1827.7 363.6 L 1821.8 363.6 L 1821.8 362.3 L 1829.3 362.3 L 1829.3 363.4 L 1824.7 373.6 L 1823.2 373.6 L 1827.7 363.6 " fill="#000000"/>
<path class="legend" d="M 1736.3 383.8 Q 1736.3 381.8, 1737.3 380.7 Q 1738.3 379.5, 1740.3 379.5 Q 1742.1 379.5, 1743.1 380.9 L 1742.1 381.6 Q 1741.7 381.2, 1741.3 380.9 Q 1740.8 380.7, 1740.3 380.7 Q 1739.1 380.7, 1738.5 381.5 Q 1737.9 382.3, 1737.9 383.8 Q 1737.9 385.3, 1738.5 386.1 Q 1739.2 386.8, 1740.4 386.8 Q 1741.0 386.8, 1741.5 386.7 Q 1742.0 386.5, 1742.5 386.3 L 1743.0 387.3 Q 1741.8 388.0, 1740.3 388.0 Q 1738.3 388.0, 1737.3 386.9 Q 1736.3 385.7, 1736.3 383.8 " fill="#000000"/>
<path class="legend" d="M 1743.5 383.8 Q 1743.5 381.7, 1744.5 380.6 Q 1745.5 379.5, 1747.4 379.5 Q 1749.2 379.5, 1750.0 380.6 Q 1750.8 381.7, 1750.8 383.7 L 1750.8 384.0 L 1745.0 384.0 Q 1745.1 385.4, 1745.7 386.1 Q 1746.3 386.8, 1747.5 386.8 Q 1748.1 386.8, 1748.7 386.7 Q 1749.3 386.5, 1750.0 386.2 L 1750.5 387.2 Q 1749.6 387.6, 1748.9 387.8 Q 1748.2 388.0, 1747.4 388.0 Q 1745.5 388.0, 1744.5 386.9 Q 1743.5 385.8, 1743.5 383.8 M 1747.4 380.7 Q 1746.4 380.7, 1745.8 381.2 Q 1745.3 381.8, 1745.1 382.8 L 1749.2 382.8 Q 1749.1 381.7, 1748.6 381.2 Q 1748.2 380.7, 1747.4 380.7 " fill="#000000"/>
<path class="legend" d="M 1755.7 379.5 Q 1757.0 379.5, 1757.7 380.3 Q 1758.4 381.0, 1758.4 382.4 L 1758.4 387.9 L 1756.9 387.9 L 1756.9 382.6 Q 1756.9 381.6, 1756.5 381.2 Q 1756.1 380.7, 1755.3 380.7 Q 1754.5 380.7, 1753.9 381.1 Q 1753.3 381.4, 1752.9 382.0 L 1752.9 387.9 L 1751.4 387.9 L 1751.4 379.7 L 1752.6 379.7 L 1752.8 380.8 Q 1753.9 379.5, 1755.7 379.5 " fill="#000000"/>
<path class="legend" d="M 1759.6 380.8 L 1759.6 379.7 L 1761.2 379.7 L 1761.4 377.3 L 1762.6 377.3 L 1762.6 379.7 L 1765.1 379.7 L 1765.1 380.8 L 1762.6 380.8 L 1762.6 385.4 Q 1762.6 386.8, 1763.8 386.8 Q 1764.2 386.8, 1764.9 386.6 L 1765.2 387.6 Q 1764.3 388.0, 1763.5 388.0 Q 1762.4 388.0, 1761.7 387.3 Q 1761.1 386.7, 1761.1 385.4 L 1761.1 380.8 L 1759.6 380.8 " fill="#000000"/>
<path class="legend" d="M 1773.8 388.7 L 1773.8 390.0 L 1765.6 390.0 L 1765.6 388.7 L 1773.8 388.7 " fill="#000000"/>
<path class="legend" d="M 1781.2 375.7 L 1781.2 387.9 L 1780.0 387.9 L 1779.8 386.9 Q 1778.9 388.0, 1777.4 388.0 Q 1775.7 388.0, 1774.7 387.0 Q 1773.8 385.9, 1773.8 383.9 Q 1773.8 381.8, 1774.9 380.7 Q 1776.0 379.5, 1778.0 379.5 Q 1778.8 379.5, 1779.7 379.7 L 1779.7 375.7 L 1781.2 375.7 M 1777.5 386.8 Q 1778.3 386.8, 1778.9 386.4 Q 1779.5 385.9, 1779.7 385.1 L 1779.7 380.9 Q 1778.9 380.7, 1778.0 380.7 Q 1776.7 380.7, 1776.0 381.6 Q 1775.3 382.4, 1775.3 383.9 Q 1775.3 385.3, 1775.9 386.1 Q 1776.4 386.8, 1777.5 386.8 " fill="#000000"/>
<path class="legend" d="M 1782.5 376.6 L 1784.0 376.6 L 1784.0 378.0 L 1782.5 378.0 L 1782.5 376.6 M 1782.5 379.7 L 1784.0 379.7 L 1784.0 387.9 L 1782.5 387.9 L 1782.5 379.7 " fill="#000000"/>
<path class="legend" d="M 1785.8 386.2 Q 1786.5 386.5, 1787.1 386.6 Q 1787.6 386.8, 1788.1 386.8 Q 1788.9 386.8, 1789.3 386.5 Q 1789.7 386.2, 1789.7 385.6 Q 1789.7 385.2, 1789.5 385.0 Q 1789.2 384.8, 1789.0 384.6 Q 1788.7 384.5, 1788.0 384.3 Q 1787.9 384.3, 1787.1 384.0 Q 1786.4 383.7, 1786.0 383.2 Q 1785.6 382.7, 1785.6 381.9 Q 1785.6 380.9, 1786.4 380.2 Q 1787.2 379.5, 1788.7 379.5 Q 1789.3 379.5, 1789.8 379.7 Q 1790.4 379.8, 1791.0 380.0 L 1790.6 381.2 Q 1790.1 381.0, 1789.6 380.9 Q 1789.1 380.8, 1788.7 380.8 Q 1787.9 380.8, 1787.5 381.1 Q 1787.1 381.4, 1787.1 381.8 Q 1787.1 382.3, 1787.4 382.5 Q 1787.7 382.7, 1788.4 383.0 Q 1788.6 383.0, 1788.7 383.1 L 1789.1 383.2 Q 1789.8 383.4, 1790.2 383.7 Q 1790.6 383.9, 1790.9 384.4 Q 1791.2 384.8, 1791.2 385.6 Q 1791.2 386.7, 1790.3 387.4 Q 1789.5 388.0, 1788.2 388.0 Q 1787.4 388.0, 1786.7 387.9 Q 1786.0 387.7, 1785.4 387.4 L 1785.8 386.2 " fill="#000000"/>
<path class="legend" d="M 1792.0 380.8 L 1792.0 379.7 L 1793.6 379.7 L 1793.9 377.3 L 1795.0 377.3 L 1795.0 379.7 L 1797.5 379.7 L 1797.5 380.8 L 1795.0 380.8 L 1795.0 385.4 Q 1795.0 386.8, 1796.2 386.8 Q 1796.7 386.8, 1797.4 386.6 L 1797.6 387.6 Q 1796.7 388.0, 1795.9 388.0 Q 1794.8 388.0, 1794.1 387.3 Q 1793.5 386.7, 1793.5 385.4 L 1793.5 380.8 L 1792.0 380.8 " fill="#000000"/>
<path class="legend" d="" fill="#000000"/>
<path class="legend" d="M 1803.3 380.9 L 1810.7 380.9 L 1810.7 382.1 L 1803.3 382.1 L 1803.3 380.9 M 1803.3 384.4 L 1810.7 384.4 L 1810.7 385.5 L 1803.3 385.5 L 1803.3 384.4 " fill="#000000"/>
<path class="legend" d="" fill="#000000"/>
<path class="legend" d="M 1821.6 388.0 Q 1819.5 388.0, 1818.5 386.5 Q 1817.5 384.9, 1817.5 382.2 Q 1817.5 379.5, 1818.5 378.0 Q 1819.5 376.4, 1821.6 376.4 Q 1823.7 376.4, 1824.7 378.0 Q 1825.7 379.5, 1825.7 382.2 Q 1825.7 384.9, 1824.7 386.5 Q 1823.7 388.0, 1821.6 388.0 M 1821.6 386.7 Q 1822.8 386.7, 1823.5 385.6 Q 1824.1 384.4, 1824.1 382.2 Q 1824.1 380.0, 1823.5 378.8 Q 1822.8 377.7, 1821.6 377.7 Q 1820.4 377.7, 1819.7 378.8 Q 1819.1 380.0, 1819.1 382.2 Q 1819.1 384.4, 1819.7 385.6 Q 1820.4 386.7, 1821.6 386.7 " fill="#000000"/>
<path class="legend" d="M 1826.8 386.3 L 1828.4 386.3 L 1828.4 387.9 L 1826.8 387.9 L 1826.8 386.3 " fill="#000000"/>
<path class="legend" d="M 1833.2 376.4 Q 1835.3 376.4, 1836.3 377.8 Q 1837.3 379.2, 1837.3 381.9 Q 1837.3 384.9, 1836.0 386.5 Q 1834.8 388.0, 1832.4 388.0 Q 1831.7 388.0, 1831.0 387.9 Q 1830.5 387.7, 1829.9 387.4 L 1830.5 386.3 Q 1831.3 386.7, 1832.3 386.7 Q 1833.9 386.7, 1834.8 385.7 Q 1835.6 384.7, 1835.7 382.5 Q 1835.1 383.1, 1834.4 383.4 Q 1833.6 383.6, 1832.9 383.6 Q 1831.9 383.6, 1831.1 383.2 Q 1830.3 382.8, 1829.9 382.0 Q 1829.4 381.2, 1829.4 380.2 Q 1829.4 379.1, 1829.9 378.3 Q 1830.4 377.4, 1831.3 376.9 Q 1832.1 376.4, 1833.2 376.4 M 1831.0 380.2 Q 1831.0 381.2, 1831.6 381.8 Q 1832.1 382.4, 1833.1 382.4 Q 1833.8 382.4, 1834.5 382.1 Q 1835.2 381.8, 1835.7 381.3 Q 1835.6 379.4, 1835.0 378.6 Q 1834.4 377.7, 1833.2 377.7 Q 1832.6 377.7, 1832.1 378.1 Q 1831.6 378.4, 1831.3 378.9 Q 1831.0 379.5, 1831.0 380.2 " fill="#000000"/>
<path class="legend" d="M 1839.0 386.6 L 1841.5 386.6 L 1841.5 378.1 L 1838.7 379.0 L 1838.4 378.0 L 1841.8 376.5 L 1843.0 376.7 L 1843.0 386.6 L 1845.2 386.6 L 1845.2 387.9 L 1839.0 387.9 L 1839.0 386.6 " fill="#000000"/>
<path class="legend" d="M 1853.2 384.0 L 1854.6 384.0 L 1854.6 385.3 L 1853.2 385.3 L 1853.2 387.9 L 1851.7 387.9 L 1851.7 385.3 L 1845.9 385.3 L 1845.9 384.3 L 1850.8 376.6 L 1853.2 376.6 L 1853.2 384.0 M 1847.7 384.0 L 1851.7 384.0 L 1851.7 377.6 L 1847.7 384.0 " fill="#000000"/>
<path class="legend" d="M 1859.5 388.0 Q 1857.4 388.0, 1856.4 386.5 Q 1855.4 384.9, 1855.4 382.2 Q 1855.4 379.5, 1856.4 378.0 Q 1857.4 376.4, 1859.5 376.4 Q 1861.6 376.4, 1862.6 378.0 Q 1863.7 379.5, 1863.7 382.2 Q 1863.7 384.9, 1862.6 386.5 Q 1861.6 388.0, 1859.5 388.0 M 1859.5 386.7 Q 1860.8 386.7, 1861.4 385.6 Q 1862.1 384.4, 1862.1 382.2 Q 1862.1 380.0, 1861.4 378.8 Q 1860.8 377.7, 1859.5 377.7 Q 1858.3 377.7, 1857.6 378.8 Q 1857.0 380.0, 1857.0 382.2 Q 1857.0 384.4, 1857.6 385.6 Q 1858.3 386.7, 1859.5 386.7 " fill="#000000"/>
</svg>