<svg xmlns="http://www.w3.org/2000/svg" xmlns:rdkit="http://www.rdkit.org/xml" xmlns:xlink="http://www.w3.org/1999/xlink" version="1.1" baseProfile="full" xml:space="preserve" width="2000px" height="400px" viewBox="0 0 2000 400">
<!-- END OF HEADER -->
<rect style="opacity:1.0;fill:#FFFFFF;stroke:none" width="2000.0" height="400.0" x="0.0" y="0.0"> </rect>
<path class="bond-0 atom-0 atom-1" d="M 364.8,259.5 L 344.2,210.0" style="fill:none;fill-rule:evenodd;stroke:#000000;stroke-width:2.0px;stroke-linecap:butt;stroke-linejoin:miter;stroke-opacity:1"/>
<path class="bond-0 atom-0 atom-1" d="M 374.7,255.4 L 354.1,205.9" style="fill:none;fill-rule:evenodd;stroke:#000000;stroke-width:2.0px;stroke-linecap:butt;stroke-linejoin:miter;stroke-opacity:1"/>
<path class="bond-1 atom-1 atom-2" d="M 349.2,208.0 L 381.8,165.4" style="fill:none;fill-rule:evenodd;stroke:#000000;stroke-width:2.0px;stroke-linecap:butt;stroke-linejoin:miter;stroke-opacity:1"/>
<path class="bond-2 atom-1 atom-3" d="M 349.2,208.0 L 296.0,201.0" style="fill:none;fill-rule:evenodd;stroke:#000000;stroke-width:2.0px;stroke-linecap:butt;stroke-linejoin:miter;stroke-opacity:1"/>
<path class="bond-3 atom-3 atom-4" d="M 296.0,201.0 L 242.9,194.0" style="fill:none;fill-rule:evenodd;stroke:#000000;stroke-width:2.0px;stroke-linecap:butt;stroke-linejoin:miter;stroke-opacity:1"/>
<path class="bond-3 atom-3 atom-4" d="M 286.7,210.5 L 249.5,205.7" style="fill:none;fill-rule:evenodd;stroke:#000000;stroke-width:2.0px;stroke-linecap:butt;stroke-linejoin:miter;stroke-opacity:1"/>
<path class="bond-3 atom-3 atom-4" d="M 289.5,189.3 L 252.3,184.4" style="fill:none;fill-rule:evenodd;stroke:#000000;stroke-width:2.0px;stroke-linecap:butt;stroke-linejoin:miter;stroke-opacity:1"/>
<path class="bond-4 atom-4 atom-5" d="M 242.9,194.0 L 189.7,187.0" style="fill:none;fill-rule:evenodd;stroke:#000000;stroke-width:2.0px;stroke-linecap:butt;stroke-linejoin:miter;stroke-opacity:1"/>
<path class="bond-5 atom-5 atom-6" d="M 189.7,187.0 L 157.1,229.5" style="fill:none;fill-rule:evenodd;stroke:#000000;stroke-width:2.0px;stroke-linecap:butt;stroke-linejoin:miter;stroke-opacity:1"/>
<path class="bond-5 atom-5 atom-6" d="M 176.3,186.8 L 153.5,216.6" style="fill:none;fill-rule:evenodd;stroke:#000000;stroke-width:2.0px;stroke-linecap:butt;stroke-linejoin:miter;stroke-opacity:1"/>
<path class="bond-6 atom-6 atom-7" d="M 157.1,229.5 L 177.6,279.0" style="fill:none;fill-rule:evenodd;stroke:#000000;stroke-width:2.0px;stroke-linecap:butt;stroke-linejoin:miter;stroke-opacity:1"/>
<path class="bond-7 atom-6 atom-8" d="M 157.1,229.5 L 104.0,222.5" style="fill:none;fill-rule:evenodd;stroke:#000000;stroke-width:2.0px;stroke-linecap:butt;stroke-linejoin:miter;stroke-opacity:1"/>
<path class="bond-8 atom-8 atom-9" d="M 104.0,222.5 L 91.3,239.1" style="fill:none;fill-rule:evenodd;stroke:#000000;stroke-width:2.0px;stroke-linecap:butt;stroke-linejoin:miter;stroke-opacity:1"/>
<path class="bond-8 atom-8 atom-9" d="M 91.3,239.1 L 78.6,255.6" style="fill:none;fill-rule:evenodd;stroke:#FF0000;stroke-width:2.0px;stroke-linecap:butt;stroke-linejoin:miter;stroke-opacity:1"/>
<path class="bond-9 atom-9 atom-10" d="M 62.6,263.9 L 40.4,261.0" style="fill:none;fill-rule:evenodd;stroke:#FF0000;stroke-width:2.0px;stroke-linecap:butt;stroke-linejoin:miter;stroke-opacity:1"/>
<path class="bond-9 atom-9 atom-10" d="M 40.4,261.0 L 18.2,258.1" style="fill:none;fill-rule:evenodd;stroke:#000000;stroke-width:2.0px;stroke-linecap:butt;stroke-linejoin:miter;stroke-opacity:1"/>
<path class="bond-10 atom-8 atom-11" d="M 104.0,222.5 L 83.4,173.0" style="fill:none;fill-rule:evenodd;stroke:#000000;stroke-width:2.0px;stroke-linecap:butt;stroke-linejoin:miter;stroke-opacity:1"/>
<path class="bond-10 atom-8 atom-11" d="M 110.8,211.0 L 96.4,176.3" style="fill:none;fill-rule:evenodd;stroke:#000000;stroke-width:2.0px;stroke-linecap:butt;stroke-linejoin:miter;stroke-opacity:1"/>
<path class="bond-11 atom-11 atom-12" d="M 83.4,173.0 L 30.3,166.0" style="fill:none;fill-rule:evenodd;stroke:#000000;stroke-width:2.0px;stroke-linecap:butt;stroke-linejoin:miter;stroke-opacity:1"/>
<path class="bond-12 atom-11 atom-13" d="M 83.4,173.0 L 116.1,130.5" style="fill:none;fill-rule:evenodd;stroke:#000000;stroke-width:2.0px;stroke-linecap:butt;stroke-linejoin:miter;stroke-opacity:1"/>
<path class="bond-13 atom-13 atom-14" d="M 116.1,130.5 L 95.5,81.0" style="fill:none;fill-rule:evenodd;stroke:#000000;stroke-width:2.0px;stroke-linecap:butt;stroke-linejoin:miter;stroke-opacity:1"/>
<path class="bond-14 atom-13 atom-15" d="M 116.1,130.5 L 169.2,137.5" style="fill:none;fill-rule:evenodd;stroke:#000000;stroke-width:2.0px;stroke-linecap:butt;stroke-linejoin:miter;stroke-opacity:1"/>
<path class="bond-14 atom-13 atom-15" d="M 122.6,142.2 L 159.8,147.0" style="fill:none;fill-rule:evenodd;stroke:#000000;stroke-width:2.0px;stroke-linecap:butt;stroke-linejoin:miter;stroke-opacity:1"/>
<path class="bond-15 atom-15 atom-16" d="M 169.2,137.5 L 181.8,121.0" style="fill:none;fill-rule:evenodd;stroke:#000000;stroke-width:2.0px;stroke-linecap:butt;stroke-linejoin:miter;stroke-opacity:1"/>
<path class="bond-15 atom-15 atom-16" d="M 181.8,121.0 L 194.4,104.6" style="fill:none;fill-rule:evenodd;stroke:#FF0000;stroke-width:2.0px;stroke-linecap:butt;stroke-linejoin:miter;stroke-opacity:1"/>
<path class="bond-16 atom-16 atom-17" d="M 210.6,96.1 L 232.8,99.0" style="fill:none;fill-rule:evenodd;stroke:#FF0000;stroke-width:2.0px;stroke-linecap:butt;stroke-linejoin:miter;stroke-opacity:1"/>
<path class="bond-16 atom-16 atom-17" d="M 232.8,99.0 L 255.0,101.9" style="fill:none;fill-rule:evenodd;stroke:#000000;stroke-width:2.0px;stroke-linecap:butt;stroke-linejoin:miter;stroke-opacity:1"/>
<path class="bond-17 atom-15 atom-5" d="M 169.2,137.5 L 189.7,187.0" style="fill:none;fill-rule:evenodd;stroke:#000000;stroke-width:2.0px;stroke-linecap:butt;stroke-linejoin:miter;stroke-opacity:1"/>
<path class="atom-9" d="M 64.4 265.1 Q 64.4 261.5, 66.2 259.4 Q 68.0 257.4, 71.3 257.4 Q 74.7 257.4, 76.5 259.4 Q 78.3 261.5, 78.3 265.1 Q 78.3 268.8, 76.5 270.9 Q 74.7 273.0, 71.3 273.0 Q 68.0 273.0, 66.2 270.9 Q 64.4 268.8, 64.4 265.1 M 71.3 271.3 Q 73.6 271.3, 74.9 269.7 Q 76.2 268.2, 76.2 265.1 Q 76.2 262.1, 74.9 260.6 Q 73.6 259.1, 71.3 259.1 Q 69.0 259.1, 67.8 260.6 Q 66.5 262.1, 66.5 265.1 Q 66.5 268.2, 67.8 269.7 Q 69.0 271.3, 71.3 271.3 " fill="#FF0000"/>
<path class="atom-16" d="M 194.9 95.0 Q 194.9 91.3, 196.7 89.3 Q 198.5 87.3, 201.8 87.3 Q 205.2 87.3, 207.0 89.3 Q 208.8 91.3, 208.8 95.0 Q 208.8 98.7, 207.0 100.8 Q 205.2 102.8, 201.8 102.8 Q 198.5 102.8, 196.7 100.8 Q 194.9 98.7, 194.9 95.0 M 201.8 101.1 Q 204.2 101.1, 205.4 99.6 Q 206.7 98.0, 206.7 95.0 Q 206.7 92.0, 205.4 90.5 Q 204.2 89.0, 201.8 89.0 Q 199.5 89.0, 198.3 90.5 Q 197.0 92.0, 197.0 95.0 Q 197.0 98.0, 198.3 99.6 Q 199.5 101.1, 201.8 101.1 " fill="#FF0000"/>
<path class="legend" d="M 167.7 365.4 L 167.8 366.5 Q 168.7 365.3, 170.1 365.3 Q 170.6 365.3, 171.2 365.4 L 170.9 366.8 Q 170.2 366.6, 169.8 366.6 Q 169.2 366.6, 168.7 366.9 Q 168.3 367.1, 167.9 367.8 L 167.9 373.6 L 166.4 373.6 L 166.4 365.4 L 167.7 365.4 " fill="#000000"/>
<path class="legend" d="M 171.4 369.5 Q 171.4 367.5, 172.4 366.4 Q 173.4 365.3, 175.3 365.3 Q 177.1 365.3, 177.9 366.4 Q 178.7 367.4, 178.7 369.5 L 178.7 369.7 L 172.9 369.7 Q 173.0 371.1, 173.6 371.8 Q 174.2 372.6, 175.4 372.6 Q 176.0 372.6, 176.6 372.4 Q 177.2 372.3, 177.9 372.0 L 178.4 373.0 Q 177.5 373.4, 176.8 373.6 Q 176.1 373.8, 175.3 373.8 Q 173.4 373.8, 172.4 372.6 Q 171.4 371.5, 171.4 369.5 M 175.3 366.4 Q 174.3 366.4, 173.7 367.0 Q 173.2 367.5, 173.0 368.6 L 177.1 368.6 Q 177.0 367.5, 176.5 367.0 Q 176.1 366.4, 175.3 366.4 " fill="#000000"/>
<path class="legend" d="M 179.3 371.4 Q 179.3 370.1, 180.3 369.4 Q 181.4 368.7, 183.3 368.7 L 184.6 368.7 L 184.6 368.3 Q 184.6 367.3, 184.1 366.9 Q 183.7 366.4, 182.7 366.4 Q 182.0 366.4, 181.5 366.6 Q 181.0 366.7, 180.2 367.0 L 179.8 366.0 Q 181.3 365.3, 182.7 365.3 Q 184.5 365.3, 185.3 366.0 Q 186.1 366.8, 186.1 368.4 L 186.1 373.6 L 184.9 373.6 Q 184.9 373.6, 184.8 373.3 Q 184.8 373.1, 184.7 372.7 Q 183.5 373.8, 182.0 373.8 Q 180.8 373.8, 180.0 373.2 Q 179.3 372.5, 179.3 371.4 M 180.8 371.4 Q 180.8 372.0, 181.2 372.3 Q 181.6 372.6, 182.3 372.6 Q 182.9 372.6, 183.5 372.4 Q 184.1 372.0, 184.6 371.5 L 184.6 369.8 L 183.4 369.8 Q 182.1 369.8, 181.4 370.2 Q 180.8 370.6, 180.8 371.4 " fill="#000000"/>
<path class="legend" d="M 187.3 369.5 Q 187.3 367.5, 188.3 366.4 Q 189.3 365.3, 191.2 365.3 Q 193.1 365.3, 194.1 366.6 L 193.1 367.4 Q 192.7 366.9, 192.2 366.7 Q 191.8 366.4, 191.2 366.4 Q 190.1 366.4, 189.4 367.2 Q 188.8 368.0, 188.8 369.5 Q 188.8 371.0, 189.5 371.8 Q 190.1 372.6, 191.3 372.6 Q 192.0 372.6, 192.5 372.4 Q 192.9 372.3, 193.5 372.0 L 193.9 373.0 Q 192.7 373.7, 191.2 373.7 Q 189.3 373.7, 188.3 372.6 Q 187.3 371.5, 187.3 369.5 " fill="#000000"/>
<path class="legend" d="M 194.5 366.6 L 194.5 365.4 L 196.0 365.4 L 196.3 363.0 L 197.4 363.0 L 197.4 365.4 L 199.9 365.4 L 199.9 366.6 L 197.4 366.6 L 197.4 371.1 Q 197.4 372.5, 198.6 372.5 Q 199.1 372.5, 199.8 372.3 L 200.0 373.4 Q 199.2 373.7, 198.3 373.7 Q 197.3 373.7, 196.6 373.1 Q 195.9 372.4, 195.9 371.2 L 195.9 366.6 L 194.5 366.6 " fill="#000000"/>
<path class="legend" d="M 208.6 374.4 L 208.6 375.7 L 200.4 375.7 L 200.4 374.4 L 208.6 374.4 " fill="#000000"/>
<path class="legend" d="M 209.2 372.4 L 211.7 372.4 L 211.7 363.9 L 209.0 364.7 L 208.6 363.8 L 212.1 362.2 L 213.2 362.4 L 213.2 372.4 L 215.4 372.4 L 215.4 373.6 L 209.2 373.6 L 209.2 372.4 " fill="#000000"/>
<path class="legend" d="M 220.5 366.6 Q 221.5 366.6, 222.3 367.0 Q 223.1 367.4, 223.5 368.2 Q 224.0 369.0, 224.0 370.0 Q 224.0 371.1, 223.5 372.0 Q 223.0 372.8, 222.1 373.3 Q 221.3 373.8, 220.2 373.8 Q 218.1 373.8, 217.1 372.4 Q 216.1 371.0, 216.1 368.3 Q 216.1 365.3, 217.4 363.7 Q 218.6 362.2, 221.0 362.2 Q 221.7 362.2, 222.3 362.3 Q 222.9 362.5, 223.5 362.8 L 222.9 363.9 Q 222.1 363.5, 221.0 363.5 Q 219.4 363.5, 218.6 364.5 Q 217.8 365.5, 217.7 367.6 Q 218.3 367.1, 219.0 366.8 Q 219.8 366.6, 220.5 366.6 M 220.2 372.4 Q 220.8 372.4, 221.3 372.1 Q 221.8 371.8, 222.1 371.2 Q 222.4 370.7, 222.4 370.0 Q 222.4 369.0, 221.8 368.4 Q 221.2 367.8, 220.2 367.8 Q 219.6 367.8, 218.9 368.1 Q 218.2 368.4, 217.7 368.9 Q 217.8 370.8, 218.4 371.6 Q 219.0 372.4, 220.2 372.4 " fill="#000000"/>
<path class="legend" d="M 232.2 369.7 L 233.6 369.7 L 233.6 371.0 L 232.2 371.0 L 232.2 373.6 L 230.7 373.6 L 230.7 371.0 L 224.8 371.0 L 224.8 370.0 L 229.8 362.3 L 232.2 362.3 L 232.2 369.7 M 226.7 369.7 L 230.7 369.7 L 230.7 363.3 L 226.7 369.7 " fill="#000000"/>
<path class="legend" d="M 136.6 383.8 Q 136.6 381.8, 137.5 380.7 Q 138.5 379.5, 140.5 379.5 Q 142.4 379.5, 143.3 380.9 L 142.3 381.6 Q 141.9 381.2, 141.5 380.9 Q 141.1 380.7, 140.5 380.7 Q 139.4 380.7, 138.7 381.5 Q 138.1 382.3, 138.1 383.8 Q 138.1 385.3, 138.7 386.1 Q 139.4 386.8, 140.6 386.8 Q 141.3 386.8, 141.7 386.7 Q 142.2 386.5, 142.8 386.3 L 143.2 387.3 Q 142.0 388.0, 140.5 388.0 Q 138.5 388.0, 137.5 386.9 Q 136.6 385.7, 136.6 383.8 " fill="#000000"/>
<path class="legend" d="M 143.7 383.8 Q 143.7 381.7, 144.7 380.6 Q 145.7 379.5, 147.6 379.5 Q 149.4 379.5, 150.2 380.6 Q 151.0 381.7, 151.0 383.7 L 151.0 384.0 L 145.3 384.0 Q 145.3 385.4, 145.9 386.1 Q 146.5 386.8, 147.7 386.8 Q 148.3 386.8, 148.9 386.7 Q 149.5 386.5, 150.3 386.2 L 150.7 387.2 Q 149.9 387.6, 149.1 387.8 Q 148.4 388.0, 147.6 388.0 Q 145.8 388.0, 144.7 386.9 Q 143.7 385.8, 143.7 383.8 M 147.6 380.7 Q 146.6 380.7, 146.1 381.2 Q 145.5 381.8, 145.3 382.8 L 149.4 382.8 Q 149.3 381.7, 148.9 381.2 Q 148.4 380.7, 147.6 380.7 " fill="#000000"/>
<path class="legend" d="M 155.9 379.5 Q 157.2 379.5, 157.9 380.3 Q 158.6 381.0, 158.6 382.4 L 158.6 387.9 L 157.1 387.9 L 157.1 382.6 Q 157.1 381.6, 156.7 381.2 Q 156.3 380.7, 155.5 380.7 Q 154.8 380.7, 154.1 381.1 Q 153.5 381.4, 153.1 382.0 L 153.1 387.9 L 151.6 387.9 L 151.6 379.7 L 152.8 379.7 L 153.0 380.8 Q 154.1 379.5, 155.9 379.5 " fill="#000000"/>
<path class="legend" d="M 159.8 380.8 L 159.8 379.7 L 161.4 379.7 L 161.7 377.3 L 162.8 377.3 L 162.8 379.7 L 165.3 379.7 L 165.3 380.8 L 162.8 380.8 L 162.8 385.4 Q 162.8 386.8, 164.0 386.8 Q 164.5 386.8, 165.2 386.6 L 165.4 387.6 Q 164.5 388.0, 163.7 388.0 Q 162.6 388.0, 161.9 387.3 Q 161.3 386.7, 161.3 385.4 L 161.3 380.8 L 159.8 380.8 " fill="#000000"/>
<path class="legend" d="M 174.0 388.7 L 174.0 390.0 L 165.8 390.0 L 165.8 388.7 L 174.0 388.7 " fill="#000000"/>
<path class="legend" d="M 181.5 375.7 L 181.5 387.9 L 180.2 387.9 L 180.0 386.9 Q 179.1 388.0, 177.6 388.0 Q 175.9 388.0, 174.9 387.0 Q 174.0 385.9, 174.0 383.9 Q 174.0 381.8, 175.1 380.7 Q 176.2 379.5, 178.2 379.5 Q 179.1 379.5, 179.9 379.7 L 179.9 375.7 L 181.5 375.7 M 177.7 386.8 Q 178.5 386.8, 179.1 386.4 Q 179.7 385.9, 179.9 385.1 L 179.9 380.9 Q 179.1 380.7, 178.2 380.7 Q 177.0 380.7, 176.2 381.6 Q 175.5 382.4, 175.5 383.9 Q 175.5 385.3, 176.1 386.1 Q 176.7 386.8, 177.7 386.8 " fill="#000000"/>
<path class="legend" d="M 182.7 376.6 L 184.2 376.6 L 184.2 378.0 L 182.7 378.0 L 182.7 376.6 M 182.7 379.7 L 184.2 379.7 L 184.2 387.9 L 182.7 387.9 L 182.7 379.7 " fill="#000000"/>
<path class="legend" d="M 186.0 386.2 Q 186.8 386.5, 187.3 386.6 Q 187.8 386.8, 188.4 386.8 Q 189.1 386.8, 189.5 386.5 Q 189.9 386.2, 189.9 385.6 Q 189.9 385.2, 189.7 385.0 Q 189.5 384.8, 189.2 384.6 Q 188.9 384.5, 188.2 384.3 Q 188.1 384.3, 187.4 384.0 Q 186.6 383.7, 186.2 383.2 Q 185.9 382.7, 185.9 381.9 Q 185.9 380.9, 186.6 380.2 Q 187.4 379.5, 188.9 379.5 Q 189.5 379.5, 190.0 379.7 Q 190.6 379.8, 191.2 380.0 L 190.8 381.2 Q 190.3 381.0, 189.8 380.9 Q 189.4 380.8, 188.9 380.8 Q 188.1 380.8, 187.7 381.1 Q 187.4 381.4, 187.4 381.8 Q 187.4 382.3, 187.7 382.5 Q 188.0 382.7, 188.6 383.0 Q 188.8 383.0, 189.0 383.1 L 189.3 383.2 Q 190.0 383.4, 190.4 383.7 Q 190.8 383.9, 191.1 384.4 Q 191.4 384.8, 191.4 385.6 Q 191.4 386.7, 190.6 387.4 Q 189.7 388.0, 188.4 388.0 Q 187.6 388.0, 186.9 387.9 Q 186.3 387.7, 185.6 387.4 L 186.0 386.2 " fill="#000000"/>
<path class="legend" d="M 192.3 380.8 L 192.3 379.7 L 193.8 379.7 L 194.1 377.3 L 195.2 377.3 L 195.2 379.7 L 197.7 379.7 L 197.7 380.8 L 195.2 380.8 L 195.2 385.4 Q 195.2 386.8, 196.4 386.8 Q 196.9 386.8, 197.6 386.6 L 197.8 387.6 Q 197.0 388.0, 196.1 388.0 Q 195.1 388.0, 194.4 387.3 Q 193.7 386.7, 193.7 385.4 L 193.7 380.8 L 192.3 380.8 " fill="#000000"/>
<path class="legend" d="" fill="#000000"/>
<path class="legend" d="M 203.6 380.9 L 210.9 380.9 L 210.9 382.1 L 203.6 382.1 L 203.6 380.9 M 203.6 384.4 L 210.9 384.4 L 210.9 385.5 L 203.6 385.5 L 203.6 384.4 " fill="#000000"/>
<path class="legend" d="" fill="#000000"/>
<path class="legend" d="M 221.8 388.0 Q 219.7 388.0, 218.7 386.5 Q 217.7 384.9, 217.7 382.2 Q 217.7 379.5, 218.7 378.0 Q 219.7 376.4, 221.8 376.4 Q 223.9 376.4, 224.9 378.0 Q 226.0 379.5, 226.0 382.2 Q 226.0 384.9, 224.9 386.5 Q 223.9 388.0, 221.8 388.0 M 221.8 386.7 Q 223.1 386.7, 223.7 385.6 Q 224.4 384.4, 224.4 382.2 Q 224.4 380.0, 223.7 378.8 Q 223.1 377.7, 221.8 377.7 Q 220.6 377.7, 219.9 378.8 Q 219.3 380.0, 219.3 382.2 Q 219.3 384.4, 219.9 385.6 Q 220.6 386.7, 221.8 386.7 " fill="#000000"/>
<path class="legend" d="M 227.0 386.3 L 228.6 386.3 L 228.6 387.9 L 227.0 387.9 L 227.0 386.3 " fill="#000000"/>
<path class="legend" d="M 235.1 381.9 Q 236.2 382.2, 236.7 383.0 Q 237.3 383.7, 237.3 384.8 Q 237.3 385.7, 236.8 386.5 Q 236.3 387.2, 235.4 387.6 Q 234.5 388.0, 233.4 388.0 Q 232.2 388.0, 231.3 387.6 Q 230.4 387.2, 229.7 386.3 L 230.6 385.4 Q 231.3 386.2, 231.9 386.5 Q 232.5 386.8, 233.4 386.8 Q 234.4 386.8, 235.0 386.2 Q 235.7 385.7, 235.7 384.8 Q 235.7 383.6, 235.0 383.1 Q 234.4 382.6, 233.0 382.6 L 232.2 382.6 L 232.2 381.4 L 232.9 381.4 Q 234.1 381.4, 234.8 380.9 Q 235.4 380.3, 235.4 379.3 Q 235.4 378.6, 234.9 378.2 Q 234.3 377.7, 233.4 377.7 Q 232.5 377.7, 231.9 378.0 Q 231.3 378.4, 230.9 379.2 L 229.7 378.6 Q 230.1 377.7, 231.1 377.1 Q 232.1 376.4, 233.4 376.4 Q 235.1 376.4, 236.1 377.2 Q 237.0 378.0, 237.0 379.3 Q 237.0 380.2, 236.5 380.9 Q 236.0 381.6, 235.1 381.9 " fill="#000000"/>
<path class="legend" d="M 244.0 381.9 Q 245.0 382.3, 245.6 383.0 Q 246.2 383.7, 246.2 384.8 Q 246.2 385.7, 245.7 386.5 Q 245.2 387.2, 244.3 387.6 Q 243.4 388.0, 242.3 388.0 Q 240.4 388.0, 239.3 387.2 Q 238.2 386.3, 238.2 384.8 Q 238.2 383.9, 238.7 383.2 Q 239.2 382.5, 240.2 381.9 Q 239.4 381.5, 239.0 380.9 Q 238.6 380.3, 238.6 379.3 Q 238.6 378.0, 239.6 377.2 Q 240.6 376.4, 242.2 376.4 Q 243.9 376.4, 244.8 377.2 Q 245.8 378.0, 245.8 379.3 Q 245.8 380.2, 245.3 380.8 Q 244.9 381.4, 244.0 381.9 M 242.2 377.6 Q 241.3 377.6, 240.7 378.1 Q 240.2 378.5, 240.2 379.3 Q 240.2 379.9, 240.6 380.3 Q 240.9 380.7, 241.4 380.9 Q 241.9 381.2, 242.9 381.5 Q 243.6 381.0, 243.9 380.5 Q 244.2 380.0, 244.2 379.3 Q 244.2 378.5, 243.7 378.1 Q 243.2 377.6, 242.2 377.6 M 242.3 386.8 Q 243.3 386.8, 244.0 386.3 Q 244.6 385.7, 244.6 384.8 Q 244.6 384.2, 244.3 383.8 Q 243.9 383.4, 243.4 383.2 Q 242.9 382.9, 242.0 382.7 L 241.3 382.4 Q 240.5 382.9, 240.2 383.5 Q 239.8 384.0, 239.8 384.8 Q 239.8 385.7, 240.5 386.3 Q 241.2 386.8, 242.3 386.8 " fill="#000000"/>
<path class="legend" d="M 247.8 386.6 L 250.3 386.6 L 250.3 378.1 L 247.6 379.0 L 247.2 378.0 L 250.7 376.5 L 251.8 376.7 L 251.8 386.6 L 254.1 386.6 L 254.1 387.9 L 247.8 387.9 L 247.8 386.6 " fill="#000000"/>
<path class="legend" d="M 262.1 384.0 L 263.4 384.0 L 263.4 385.3 L 262.1 385.3 L 262.1 387.9 L 260.6 387.9 L 260.6 385.3 L 254.7 385.3 L 254.7 384.3 L 259.7 376.6 L 262.1 376.6 L 262.1 384.0 M 256.6 384.0 L 260.6 384.0 L 260.6 377.6 L 256.6 384.0 " fill="#000000"/>
<path class="bond-0 atom-0 atom-1" d="M 749.7,136.3 L 722.9,182.7" style="fill:none;fill-rule:evenodd;stroke:#000000;stroke-width:2.0px;stroke-linecap:butt;stroke-linejoin:miter;stroke-opacity:1"/>
<path class="bond-0 atom-0 atom-1" d="M 740.5,130.9 L 713.7,177.3" style="fill:none;fill-rule:evenodd;stroke:#000000;stroke-width:2.0px;stroke-linecap:butt;stroke-linejoin:miter;stroke-opacity:1"/>
<path class="bond-1 atom-1 atom-2" d="M 718.3,180.0 L 745.1,226.4" style="fill:none;fill-rule:evenodd;stroke:#000000;stroke-width:2.0px;stroke-linecap:butt;stroke-linejoin:miter;stroke-opacity:1"/>
<path class="bond-2 atom-1 atom-3" d="M 718.3,180.0 L 664.7,180.0" style="fill:none;fill-rule:evenodd;stroke:#000000;stroke-width:2.0px;stroke-linecap:butt;stroke-linejoin:miter;stroke-opacity:1"/>
<path class="bond-3 atom-3 atom-4" d="M 664.7,180.0 L 611.1,180.0" style="fill:none;fill-rule:evenodd;stroke:#000000;stroke-width:2.0px;stroke-linecap:butt;stroke-linejoin:miter;stroke-opacity:1"/>
<path class="bond-3 atom-3 atom-4" d="M 656.6,190.7 L 619.1,190.7" style="fill:none;fill-rule:evenodd;stroke:#000000;stroke-width:2.0px;stroke-linecap:butt;stroke-linejoin:miter;stroke-opacity:1"/>
<path class="bond-3 atom-3 atom-4" d="M 656.6,169.3 L 619.1,169.3" style="fill:none;fill-rule:evenodd;stroke:#000000;stroke-width:2.0px;stroke-linecap:butt;stroke-linejoin:miter;stroke-opacity:1"/>
<path class="bond-4 atom-4 atom-5" d="M 611.1,180.0 L 557.5,180.0" style="fill:none;fill-rule:evenodd;stroke:#000000;stroke-width:2.0px;stroke-linecap:butt;stroke-linejoin:miter;stroke-opacity:1"/>
<path class="bond-5 atom-5 atom-6" d="M 557.5,180.0 L 530.7,226.4" style="fill:none;fill-rule:evenodd;stroke:#000000;stroke-width:2.0px;stroke-linecap:butt;stroke-linejoin:miter;stroke-opacity:1"/>
<path class="bond-5 atom-5 atom-6" d="M 544.2,181.6 L 525.4,214.1" style="fill:none;fill-rule:evenodd;stroke:#000000;stroke-width:2.0px;stroke-linecap:butt;stroke-linejoin:miter;stroke-opacity:1"/>
<path class="bond-6 atom-6 atom-7" d="M 530.7,226.4 L 557.5,272.9" style="fill:none;fill-rule:evenodd;stroke:#000000;stroke-width:2.0px;stroke-linecap:butt;stroke-linejoin:miter;stroke-opacity:1"/>
<path class="bond-7 atom-6 atom-8" d="M 530.7,226.4 L 477.1,226.4" style="fill:none;fill-rule:evenodd;stroke:#000000;stroke-width:2.0px;stroke-linecap:butt;stroke-linejoin:miter;stroke-opacity:1"/>
<path class="bond-8 atom-8 atom-9" d="M 477.1,226.4 L 450.3,272.9" style="fill:none;fill-rule:evenodd;stroke:#000000;stroke-width:2.0px;stroke-linecap:butt;stroke-linejoin:miter;stroke-opacity:1"/>
<path class="bond-9 atom-8 atom-10" d="M 477.1,226.4 L 450.3,180.0" style="fill:none;fill-rule:evenodd;stroke:#000000;stroke-width:2.0px;stroke-linecap:butt;stroke-linejoin:miter;stroke-opacity:1"/>
<path class="bond-9 atom-8 atom-10" d="M 482.3,214.1 L 463.6,181.6" style="fill:none;fill-rule:evenodd;stroke:#000000;stroke-width:2.0px;stroke-linecap:butt;stroke-linejoin:miter;stroke-opacity:1"/>
<path class="bond-10 atom-10 atom-11" d="M 450.3,180.0 L 477.1,133.6" style="fill:none;fill-rule:evenodd;stroke:#000000;stroke-width:2.0px;stroke-linecap:butt;stroke-linejoin:miter;stroke-opacity:1"/>
<path class="bond-11 atom-11 atom-12" d="M 477.1,133.6 L 450.3,87.1" style="fill:none;fill-rule:evenodd;stroke:#000000;stroke-width:2.0px;stroke-linecap:butt;stroke-linejoin:miter;stroke-opacity:1"/>
<path class="bond-12 atom-11 atom-13" d="M 477.1,133.6 L 530.7,133.6" style="fill:none;fill-rule:evenodd;stroke:#000000;stroke-width:2.0px;stroke-linecap:butt;stroke-linejoin:miter;stroke-opacity:1"/>
<path class="bond-12 atom-11 atom-13" d="M 485.1,144.3 L 522.6,144.3" style="fill:none;fill-rule:evenodd;stroke:#000000;stroke-width:2.0px;stroke-linecap:butt;stroke-linejoin:miter;stroke-opacity:1"/>
<path class="bond-13 atom-13 atom-14" d="M 530.7,133.6 L 557.5,87.1" style="fill:none;fill-rule:evenodd;stroke:#000000;stroke-width:2.0px;stroke-linecap:butt;stroke-linejoin:miter;stroke-opacity:1"/>
<path class="bond-14 atom-13 atom-5" d="M 530.7,133.6 L 557.5,180.0" style="fill:none;fill-rule:evenodd;stroke:#000000;stroke-width:2.0px;stroke-linecap:butt;stroke-linejoin:miter;stroke-opacity:1"/>
<path class="legend" d="M 568.3 365.4 L 568.5 366.5 Q 569.4 365.3, 570.8 365.3 Q 571.2 365.3, 571.8 365.4 L 571.6 366.8 Q 570.9 366.6, 570.5 366.6 Q 569.9 366.6, 569.4 366.9 Q 569.0 367.1, 568.6 367.8 L 568.6 373.6 L 567.1 373.6 L 567.1 365.4 L 568.3 365.4 " fill="#000000"/>
<path class="legend" d="M 572.1 369.5 Q 572.1 367.5, 573.1 366.4 Q 574.1 365.3, 575.9 365.3 Q 577.7 365.3, 578.5 366.4 Q 579.4 367.4, 579.4 369.5 L 579.4 369.7 L 573.6 369.7 Q 573.6 371.1, 574.3 371.8 Q 574.9 372.6, 576.1 372.6 Q 576.7 372.6, 577.3 372.4 Q 577.9 372.3, 578.6 372.0 L 579.0 373.0 Q 578.2 373.4, 577.5 373.6 Q 576.8 373.8, 576.0 373.8 Q 574.1 373.8, 573.1 372.6 Q 572.1 371.5, 572.1 369.5 M 575.9 366.4 Q 575.0 366.4, 574.4 367.0 Q 573.9 367.5, 573.7 368.6 L 577.8 368.6 Q 577.7 367.5, 577.2 367.0 Q 576.8 366.4, 575.9 366.4 " fill="#000000"/>
<path class="legend" d="M 580.0 371.4 Q 580.0 370.1, 581.0 369.4 Q 582.1 368.7, 584.0 368.7 L 585.2 368.7 L 585.2 368.3 Q 585.2 367.3, 584.8 366.9 Q 584.4 366.4, 583.4 366.4 Q 582.7 366.4, 582.2 366.6 Q 581.7 366.7, 580.9 367.0 L 580.4 366.0 Q 581.9 365.3, 583.4 365.3 Q 585.1 365.3, 585.9 366.0 Q 586.7 366.8, 586.7 368.4 L 586.7 373.6 L 585.6 373.6 Q 585.6 373.6, 585.5 373.3 Q 585.5 373.1, 585.4 372.7 Q 584.2 373.8, 582.7 373.8 Q 581.4 373.8, 580.7 373.2 Q 580.0 372.5, 580.0 371.4 M 581.5 371.4 Q 581.5 372.0, 581.9 372.3 Q 582.2 372.6, 583.0 372.6 Q 583.6 372.6, 584.2 372.4 Q 584.8 372.0, 585.2 371.5 L 585.2 369.8 L 584.1 369.8 Q 582.8 369.8, 582.1 370.2 Q 581.5 370.6, 581.5 371.4 " fill="#000000"/>
<path class="legend" d="M 588.0 369.5 Q 588.0 367.5, 589.0 366.4 Q 590.0 365.3, 591.9 365.3 Q 593.8 365.3, 594.8 366.6 L 593.7 367.4 Q 593.4 366.9, 592.9 366.7 Q 592.5 366.4, 591.9 366.4 Q 590.8 366.4, 590.1 367.2 Q 589.5 368.0, 589.5 369.5 Q 589.5 371.0, 590.1 371.8 Q 590.8 372.6, 592.0 372.6 Q 592.7 372.6, 593.1 372.4 Q 593.6 372.3, 594.2 372.0 L 594.6 373.0 Q 593.4 373.7, 591.9 373.7 Q 590.0 373.7, 589.0 372.6 Q 588.0 371.5, 588.0 369.5 " fill="#000000"/>
<path class="legend" d="M 595.1 366.6 L 595.1 365.4 L 596.7 365.4 L 597.0 363.0 L 598.1 363.0 L 598.1 365.4 L 600.6 365.4 L 600.6 366.6 L 598.1 366.6 L 598.1 371.1 Q 598.1 372.5, 599.3 372.5 Q 599.8 372.5, 600.5 372.3 L 600.7 373.4 Q 599.8 373.7, 599.0 373.7 Q 597.9 373.7, 597.2 373.1 Q 596.6 372.4, 596.6 371.2 L 596.6 366.6 L 595.1 366.6 " fill="#000000"/>
<path class="legend" d="M 609.3 374.4 L 609.3 375.7 L 601.1 375.7 L 601.1 374.4 L 609.3 374.4 " fill="#000000"/>
<path class="legend" d="M 609.9 372.4 L 612.4 372.4 L 612.4 363.9 L 609.6 364.7 L 609.3 363.8 L 612.8 362.2 L 613.9 362.4 L 613.9 372.4 L 616.1 372.4 L 616.1 373.6 L 609.9 373.6 L 609.9 372.4 " fill="#000000"/>
<path class="legend" d="M 620.9 366.5 Q 621.9 366.5, 622.7 367.0 Q 623.5 367.4, 624.0 368.2 Q 624.4 369.0, 624.4 370.0 Q 624.4 371.2, 623.9 372.1 Q 623.3 372.9, 622.4 373.3 Q 621.5 373.8, 620.4 373.8 Q 619.4 373.8, 618.4 373.4 Q 617.4 373.0, 616.8 372.3 L 617.7 371.3 Q 618.3 371.8, 619.0 372.2 Q 619.7 372.5, 620.4 372.5 Q 621.5 372.5, 622.1 371.8 Q 622.8 371.2, 622.8 370.1 Q 622.8 368.9, 622.1 368.3 Q 621.5 367.7, 620.4 367.7 Q 619.4 367.7, 618.3 368.2 L 617.4 367.8 L 617.9 362.3 L 623.7 362.3 L 623.6 363.6 L 619.2 363.6 L 618.9 366.9 Q 619.9 366.5, 620.9 366.5 " fill="#000000"/>
<path class="legend" d="M 629.3 366.5 Q 630.3 366.5, 631.1 367.0 Q 632.0 367.4, 632.4 368.2 Q 632.9 369.0, 632.9 370.0 Q 632.9 371.2, 632.3 372.1 Q 631.7 372.9, 630.8 373.3 Q 629.9 373.8, 628.8 373.8 Q 627.8 373.8, 626.8 373.4 Q 625.9 373.0, 625.2 372.3 L 626.2 371.3 Q 626.7 371.8, 627.4 372.2 Q 628.1 372.5, 628.9 372.5 Q 629.9 372.5, 630.6 371.8 Q 631.3 371.2, 631.3 370.1 Q 631.3 368.9, 630.6 368.3 Q 629.9 367.7, 628.8 367.7 Q 627.8 367.7, 626.7 368.2 L 625.8 367.8 L 626.4 362.3 L 632.2 362.3 L 632.0 363.6 L 627.7 363.6 L 627.3 366.9 Q 628.3 366.5, 629.3 366.5 " fill="#000000"/>
<path class="legend" d="M 535.1 383.8 Q 535.1 381.8, 536.1 380.7 Q 537.1 379.5, 539.0 379.5 Q 540.9 379.5, 541.9 380.9 L 540.9 381.6 Q 540.5 381.2, 540.0 380.9 Q 539.6 380.7, 539.0 380.7 Q 537.9 380.7, 537.2 381.5 Q 536.6 382.3, 536.6 383.8 Q 536.6 385.3, 537.3 386.1 Q 537.9 386.8, 539.1 386.8 Q 539.8 386.8, 540.3 386.7 Q 540.7 386.5, 541.3 386.3 L 541.7 387.3 Q 540.5 388.0, 539.0 388.0 Q 537.1 388.0, 536.1 386.9 Q 535.1 385.7, 535.1 383.8 " fill="#000000"/>
<path class="legend" d="M 542.3 383.8 Q 542.3 381.7, 543.3 380.6 Q 544.3 379.5, 546.1 379.5 Q 547.9 379.5, 548.7 380.6 Q 549.5 381.7, 549.5 383.7 L 549.5 384.0 L 543.8 384.0 Q 543.8 385.4, 544.4 386.1 Q 545.1 386.8, 546.2 386.8 Q 546.9 386.8, 547.5 386.7 Q 548.1 386.5, 548.8 386.2 L 549.2 387.2 Q 548.4 387.6, 547.7 387.8 Q 546.9 388.0, 546.2 388.0 Q 544.3 388.0, 543.3 386.9 Q 542.3 385.8, 542.3 383.8 M 546.1 380.7 Q 545.2 380.7, 544.6 381.2 Q 544.0 381.8, 543.9 382.8 L 547.9 382.8 Q 547.8 381.7, 547.4 381.2 Q 546.9 380.7, 546.1 380.7 " fill="#000000"/>
<path class="legend" d="M 554.4 379.5 Q 555.7 379.5, 556.4 380.3 Q 557.1 381.0, 557.1 382.4 L 557.1 387.9 L 555.6 387.9 L 555.6 382.6 Q 555.6 381.6, 555.2 381.2 Q 554.9 380.7, 554.0 380.7 Q 553.3 380.7, 552.7 381.1 Q 552.0 381.4, 551.6 382.0 L 551.6 387.9 L 550.1 387.9 L 550.1 379.7 L 551.4 379.7 L 551.5 380.8 Q 552.7 379.5, 554.4 379.5 " fill="#000000"/>
<path class="legend" d="M 558.4 380.8 L 558.4 379.7 L 559.9 379.7 L 560.2 377.3 L 561.3 377.3 L 561.3 379.7 L 563.8 379.7 L 563.8 380.8 L 561.3 380.8 L 561.3 385.4 Q 561.3 386.8, 562.5 386.8 Q 563.0 386.8, 563.7 386.6 L 563.9 387.6 Q 563.1 388.0, 562.2 388.0 Q 561.2 388.0, 560.5 387.3 Q 559.8 386.7, 559.8 385.4 L 559.8 380.8 L 558.4 380.8 " fill="#000000"/>
<path class="legend" d="M 572.5 388.7 L 572.5 390.0 L 564.3 390.0 L 564.3 388.7 L 572.5 388.7 " fill="#000000"/>
<path class="legend" d="M 580.0 375.7 L 580.0 387.9 L 578.8 387.9 L 578.6 386.9 Q 577.6 388.0, 576.1 388.0 Q 574.4 388.0, 573.5 387.0 Q 572.5 385.9, 572.5 383.9 Q 572.5 381.8, 573.6 380.7 Q 574.8 379.5, 576.7 379.5 Q 577.6 379.5, 578.5 379.7 L 578.5 375.7 L 580.0 375.7 M 576.2 386.8 Q 577.1 386.8, 577.6 386.4 Q 578.3 385.9, 578.5 385.1 L 578.5 380.9 Q 577.7 380.7, 576.7 380.7 Q 575.5 380.7, 574.8 381.6 Q 574.0 382.4, 574.0 383.9 Q 574.0 385.3, 574.6 386.1 Q 575.2 386.8, 576.2 386.8 " fill="#000000"/>
<path class="legend" d="M 581.3 376.6 L 582.7 376.6 L 582.7 378.0 L 581.3 378.0 L 581.3 376.6 M 581.3 379.7 L 582.7 379.7 L 582.7 387.9 L 581.3 387.9 L 581.3 379.7 " fill="#000000"/>
<path class="legend" d="M 584.6 386.2 Q 585.3 386.5, 585.8 386.6 Q 586.3 386.8, 586.9 386.8 Q 587.6 386.8, 588.0 386.5 Q 588.4 386.2, 588.4 385.6 Q 588.4 385.2, 588.2 385.0 Q 588.0 384.8, 587.7 384.6 Q 587.5 384.5, 586.7 384.3 Q 586.6 384.3, 585.9 384.0 Q 585.2 383.7, 584.8 383.2 Q 584.4 382.7, 584.4 381.9 Q 584.4 380.9, 585.1 380.2 Q 585.9 379.5, 587.4 379.5 Q 588.0 379.5, 588.6 379.7 Q 589.1 379.8, 589.7 380.0 L 589.3 381.2 Q 588.8 381.0, 588.3 380.9 Q 587.9 380.8, 587.4 380.8 Q 586.7 380.8, 586.3 381.1 Q 585.9 381.4, 585.9 381.8 Q 585.9 382.3, 586.2 382.5 Q 586.5 382.7, 587.2 383.0 Q 587.3 383.0, 587.5 383.1 L 587.9 383.2 Q 588.5 383.4, 588.9 383.7 Q 589.4 383.9, 589.6 384.4 Q 589.9 384.8, 589.9 385.6 Q 589.9 386.7, 589.1 387.4 Q 588.3 388.0, 586.9 388.0 Q 586.1 388.0, 585.5 387.9 Q 584.8 387.7, 584.1 387.4 L 584.6 386.2 " fill="#000000"/>
<path class="legend" d="M 590.8 380.8 L 590.8 379.7 L 592.3 379.7 L 592.6 377.3 L 593.7 377.3 L 593.7 379.7 L 596.2 379.7 L 596.2 380.8 L 593.7 380.8 L 593.7 385.4 Q 593.7 386.8, 594.9 386.8 Q 595.4 386.8, 596.1 386.6 L 596.4 387.6 Q 595.5 388.0, 594.7 388.0 Q 593.6 388.0, 592.9 387.3 Q 592.2 386.7, 592.2 385.4 L 592.2 380.8 L 590.8 380.8 " fill="#000000"/>
<path class="legend" d="" fill="#000000"/>
<path class="legend" d="M 602.1 380.9 L 609.4 380.9 L 609.4 382.1 L 602.1 382.1 L 602.1 380.9 M 602.1 384.4 L 609.4 384.4 L 609.4 385.5 L 602.1 385.5 L 602.1 384.4 " fill="#000000"/>
<path class="legend" d="" fill="#000000"/>
<path class="legend" d="M 620.4 388.0 Q 618.3 388.0, 617.2 386.5 Q 616.2 384.9, 616.2 382.2 Q 616.2 379.5, 617.2 378.0 Q 618.3 376.4, 620.4 376.4 Q 622.5 376.4, 623.5 378.0 Q 624.5 379.5, 624.5 382.2 Q 624.5 384.9, 623.5 386.5 Q 622.4 388.0, 620.4 388.0 M 620.4 386.7 Q 621.6 386.7, 622.2 385.6 Q 622.9 384.4, 622.9 382.2 Q 622.9 380.0, 622.2 378.8 Q 621.6 377.7, 620.4 377.7 Q 619.1 377.7, 618.5 378.8 Q 617.8 380.0, 617.8 382.2 Q 617.8 384.4, 618.5 385.6 Q 619.1 386.7, 620.4 386.7 " fill="#000000"/>
<path class="legend" d="M 625.5 386.3 L 627.1 386.3 L 627.1 387.9 L 625.5 387.9 L 625.5 386.3 " fill="#000000"/>
<path class="legend" d="M 635.5 384.0 L 636.9 384.0 L 636.9 385.3 L 635.5 385.3 L 635.5 387.9 L 634.0 387.9 L 634.0 385.3 L 628.2 385.3 L 628.2 384.3 L 633.1 376.6 L 635.5 376.6 L 635.5 384.0 M 630.0 384.0 L 634.0 384.0 L 634.0 377.6 L 630.0 384.0 " fill="#000000"/>
<path class="legend" d="M 645.0 384.0 L 646.4 384.0 L 646.4 385.3 L 645.0 385.3 L 645.0 387.9 L 643.5 387.9 L 643.5 385.3 L 637.7 385.3 L 637.7 384.3 L 642.6 376.6 L 645.0 376.6 L 645.0 384.0 M 639.5 384.0 L 643.5 384.0 L 643.5 377.6 L 639.5 384.0 " fill="#000000"/>
<path class="legend" d="M 653.0 381.9 Q 654.0 382.3, 654.6 383.0 Q 655.2 383.7, 655.2 384.8 Q 655.2 385.7, 654.7 386.5 Q 654.2 387.2, 653.3 387.6 Q 652.4 388.0, 651.3 388.0 Q 649.4 388.0, 648.3 387.2 Q 647.2 386.3, 647.2 384.8 Q 647.2 383.9, 647.7 383.2 Q 648.1 382.5, 649.1 381.9 Q 648.4 381.5, 648.0 380.9 Q 647.6 380.3, 647.6 379.3 Q 647.6 378.0, 648.6 377.2 Q 649.5 376.4, 651.2 376.4 Q 652.8 376.4, 653.8 377.2 Q 654.8 378.0, 654.8 379.3 Q 654.8 380.2, 654.3 380.8 Q 653.9 381.4, 653.0 381.9 M 651.2 377.6 Q 650.2 377.6, 649.7 378.1 Q 649.2 378.5, 649.2 379.3 Q 649.2 379.9, 649.6 380.3 Q 649.9 380.7, 650.4 380.9 Q 650.9 381.2, 651.9 381.5 Q 652.6 381.0, 652.9 380.5 Q 653.2 380.0, 653.2 379.3 Q 653.2 378.5, 652.6 378.1 Q 652.1 377.6, 651.2 377.6 M 651.3 386.8 Q 652.3 386.8, 652.9 386.3 Q 653.6 385.7, 653.6 384.8 Q 653.6 384.2, 653.3 383.8 Q 652.9 383.4, 652.4 383.2 Q 651.9 382.9, 651.0 382.7 L 650.3 382.4 Q 649.5 382.9, 649.1 383.5 Q 648.8 384.0, 648.8 384.8 Q 648.8 385.7, 649.5 386.3 Q 650.1 386.8, 651.3 386.8 " fill="#000000"/>
<path class="legend" d="M 663.6 384.0 L 664.9 384.0 L 664.9 385.3 L 663.6 385.3 L 663.6 387.9 L 662.1 387.9 L 662.1 385.3 L 656.2 385.3 L 656.2 384.3 L 661.2 376.6 L 663.6 376.6 L 663.6 384.0 M 658.1 384.0 L 662.1 384.0 L 662.1 377.6 L 658.1 384.0 " fill="#000000"/>
<path class="bond-0 atom-0 atom-1" d="M 1176.5,136.3 L 1149.7,182.7" style="fill:none;fill-rule:evenodd;stroke:#000000;stroke-width:2.0px;stroke-linecap:butt;stroke-linejoin:miter;stroke-opacity:1"/>
<path class="bond-0 atom-0 atom-1" d="M 1167.3,130.9 L 1140.5,177.3" style="fill:none;fill-rule:evenodd;stroke:#000000;stroke-width:2.0px;stroke-linecap:butt;stroke-linejoin:miter;stroke-opacity:1"/>
<path class="bond-1 atom-1 atom-2" d="M 1145.1,180.0 L 1171.9,226.4" style="fill:none;fill-rule:evenodd;stroke:#000000;stroke-width:2.0px;stroke-linecap:butt;stroke-linejoin:miter;stroke-opacity:1"/>
<path class="bond-2 atom-1 atom-3" d="M 1145.1,180.0 L 1091.5,180.0" style="fill:none;fill-rule:evenodd;stroke:#000000;stroke-width:2.0px;stroke-linecap:butt;stroke-linejoin:miter;stroke-opacity:1"/>
<path class="bond-3 atom-3 atom-4" d="M 1091.5,180.0 L 1037.9,180.0" style="fill:none;fill-rule:evenodd;stroke:#000000;stroke-width:2.0px;stroke-linecap:butt;stroke-linejoin:miter;stroke-opacity:1"/>
<path class="bond-3 atom-3 atom-4" d="M 1083.5,190.7 L 1045.9,190.7" style="fill:none;fill-rule:evenodd;stroke:#000000;stroke-width:2.0px;stroke-linecap:butt;stroke-linejoin:miter;stroke-opacity:1"/>
<path class="bond-3 atom-3 atom-4" d="M 1083.5,169.3 L 1045.9,169.3" style="fill:none;fill-rule:evenodd;stroke:#000000;stroke-width:2.0px;stroke-linecap:butt;stroke-linejoin:miter;stroke-opacity:1"/>
<path class="bond-4 atom-4 atom-5" d="M 1037.9,180.0 L 984.3,180.0" style="fill:none;fill-rule:evenodd;stroke:#000000;stroke-width:2.0px;stroke-linecap:butt;stroke-linejoin:miter;stroke-opacity:1"/>
<path class="bond-5 atom-5 atom-6" d="M 984.3,180.0 L 957.5,226.4" style="fill:none;fill-rule:evenodd;stroke:#000000;stroke-width:2.0px;stroke-linecap:butt;stroke-linejoin:miter;stroke-opacity:1"/>
<path class="bond-5 atom-5 atom-6" d="M 971.0,181.6 L 952.2,214.1" style="fill:none;fill-rule:evenodd;stroke:#000000;stroke-width:2.0px;stroke-linecap:butt;stroke-linejoin:miter;stroke-opacity:1"/>
<path class="bond-6 atom-6 atom-7" d="M 957.5,226.4 L 984.3,272.9" style="fill:none;fill-rule:evenodd;stroke:#000000;stroke-width:2.0px;stroke-linecap:butt;stroke-linejoin:miter;stroke-opacity:1"/>
<path class="bond-7 atom-6 atom-8" d="M 957.5,226.4 L 903.9,226.4" style="fill:none;fill-rule:evenodd;stroke:#000000;stroke-width:2.0px;stroke-linecap:butt;stroke-linejoin:miter;stroke-opacity:1"/>
<path class="bond-8 atom-8 atom-9" d="M 903.9,226.4 L 877.1,272.9" style="fill:none;fill-rule:evenodd;stroke:#000000;stroke-width:2.0px;stroke-linecap:butt;stroke-linejoin:miter;stroke-opacity:1"/>
<path class="bond-9 atom-8 atom-10" d="M 903.9,226.4 L 877.1,180.0" style="fill:none;fill-rule:evenodd;stroke:#000000;stroke-width:2.0px;stroke-linecap:butt;stroke-linejoin:miter;stroke-opacity:1"/>
<path class="bond-9 atom-8 atom-10" d="M 909.1,214.1 L 890.4,181.6" style="fill:none;fill-rule:evenodd;stroke:#000000;stroke-width:2.0px;stroke-linecap:butt;stroke-linejoin:miter;stroke-opacity:1"/>
<path class="bond-10 atom-10 atom-11" d="M 877.1,180.0 L 823.5,180.0" style="fill:none;fill-rule:evenodd;stroke:#000000;stroke-width:2.0px;stroke-linecap:butt;stroke-linejoin:miter;stroke-opacity:1"/>
<path class="bond-11 atom-10 atom-12" d="M 877.1,180.0 L 903.9,133.6" style="fill:none;fill-rule:evenodd;stroke:#000000;stroke-width:2.0px;stroke-linecap:butt;stroke-linejoin:miter;stroke-opacity:1"/>
<path class="bond-12 atom-12 atom-13" d="M 903.9,133.6 L 877.1,87.1" style="fill:none;fill-rule:evenodd;stroke:#000000;stroke-width:2.0px;stroke-linecap:butt;stroke-linejoin:miter;stroke-opacity:1"/>
<path class="bond-13 atom-12 atom-14" d="M 903.9,133.6 L 957.5,133.6" style="fill:none;fill-rule:evenodd;stroke:#000000;stroke-width:2.0px;stroke-linecap:butt;stroke-linejoin:miter;stroke-opacity:1"/>
<path class="bond-13 atom-12 atom-14" d="M 911.9,144.3 L 949.4,144.3" style="fill:none;fill-rule:evenodd;stroke:#000000;stroke-width:2.0px;stroke-linecap:butt;stroke-linejoin:miter;stroke-opacity:1"/>
<path class="bond-14 atom-14 atom-15" d="M 957.5,133.6 L 984.3,87.1" style="fill:none;fill-rule:evenodd;stroke:#000000;stroke-width:2.0px;stroke-linecap:butt;stroke-linejoin:miter;stroke-opacity:1"/>
<path class="bond-15 atom-14 atom-5" d="M 957.5,133.6 L 984.3,180.0" style="fill:none;fill-rule:evenodd;stroke:#000000;stroke-width:2.0px;stroke-linecap:butt;stroke-linejoin:miter;stroke-opacity:1"/>
<path class="legend" d="M 968.2 365.4 L 968.4 366.5 Q 969.2 365.3, 970.7 365.3 Q 971.1 365.3, 971.7 365.4 L 971.5 366.8 Q 970.8 366.6, 970.4 366.6 Q 969.7 366.6, 969.3 366.9 Q 968.8 367.1, 968.5 367.8 L 968.5 373.6 L 967.0 373.6 L 967.0 365.4 L 968.2 365.4 " fill="#000000"/>
<path class="legend" d="M 972.0 369.5 Q 972.0 367.5, 973.0 366.4 Q 974.0 365.3, 975.8 365.3 Q 977.6 365.3, 978.4 366.4 Q 979.2 367.4, 979.2 369.5 L 979.2 369.7 L 973.5 369.7 Q 973.5 371.1, 974.1 371.8 Q 974.8 372.6, 975.9 372.6 Q 976.6 372.6, 977.2 372.4 Q 977.8 372.3, 978.5 372.0 L 978.9 373.0 Q 978.1 373.4, 977.4 373.6 Q 976.6 373.8, 975.9 373.8 Q 974.0 373.8, 973.0 372.6 Q 972.0 371.5, 972.0 369.5 M 975.8 366.4 Q 974.9 366.4, 974.3 367.0 Q 973.7 367.5, 973.6 368.6 L 977.6 368.6 Q 977.5 367.5, 977.1 367.0 Q 976.6 366.4, 975.8 366.4 " fill="#000000"/>
<path class="legend" d="M 979.8 371.4 Q 979.8 370.1, 980.9 369.4 Q 982.0 368.7, 983.9 368.7 L 985.1 368.7 L 985.1 368.3 Q 985.1 367.3, 984.7 366.9 Q 984.3 366.4, 983.2 366.4 Q 982.6 366.4, 982.1 366.6 Q 981.6 366.7, 980.8 367.0 L 980.3 366.0 Q 981.8 365.3, 983.3 365.3 Q 985.0 365.3, 985.8 366.0 Q 986.6 366.8, 986.6 368.4 L 986.6 373.6 L 985.4 373.6 Q 985.4 373.6, 985.4 373.3 Q 985.3 373.1, 985.2 372.7 Q 984.1 373.8, 982.5 373.8 Q 981.3 373.8, 980.6 373.2 Q 979.8 372.5, 979.8 371.4 M 981.3 371.4 Q 981.3 372.0, 981.7 372.3 Q 982.1 372.6, 982.8 372.6 Q 983.5 372.6, 984.1 372.4 Q 984.7 372.0, 985.1 371.5 L 985.1 369.8 L 984.0 369.8 Q 982.7 369.8, 982.0 370.2 Q 981.3 370.6, 981.3 371.4 " fill="#000000"/>
<path class="legend" d="M 987.8 369.5 Q 987.8 367.5, 988.8 366.4 Q 989.8 365.3, 991.8 365.3 Q 993.6 365.3, 994.6 366.6 L 993.6 367.4 Q 993.2 366.9, 992.8 366.7 Q 992.4 366.4, 991.8 366.4 Q 990.6 366.4, 990.0 367.2 Q 989.4 368.0, 989.4 369.5 Q 989.4 371.0, 990.0 371.8 Q 990.7 372.6, 991.9 372.6 Q 992.5 372.6, 993.0 372.4 Q 993.5 372.3, 994.0 372.0 L 994.5 373.0 Q 993.3 373.7, 991.8 373.7 Q 989.8 373.7, 988.8 372.6 Q 987.8 371.5, 987.8 369.5 " fill="#000000"/>
<path class="legend" d="M 995.0 366.6 L 995.0 365.4 L 996.6 365.4 L 996.8 363.0 L 998.0 363.0 L 998.0 365.4 L 1000.5 365.4 L 1000.5 366.6 L 998.0 366.6 L 998.0 371.1 Q 998.0 372.5, 999.2 372.5 Q 999.6 372.5, 1000.3 372.3 L 1000.6 373.4 Q 999.7 373.7, 998.9 373.7 Q 997.8 373.7, 997.1 373.1 Q 996.4 372.4, 996.4 371.2 L 996.4 366.6 L 995.0 366.6 " fill="#000000"/>
<path class="legend" d="M 1009.2 374.4 L 1009.2 375.7 L 1001.0 375.7 L 1001.0 374.4 L 1009.2 374.4 " fill="#000000"/>
<path class="legend" d="M 1013.6 366.6 Q 1014.6 366.6, 1015.4 367.0 Q 1016.1 367.4, 1016.6 368.2 Q 1017.0 369.0, 1017.0 370.0 Q 1017.0 371.1, 1016.5 372.0 Q 1016.0 372.8, 1015.2 373.3 Q 1014.3 373.8, 1013.2 373.8 Q 1011.2 373.8, 1010.2 372.4 Q 1009.2 371.0, 1009.2 368.3 Q 1009.2 365.3, 1010.4 363.7 Q 1011.7 362.2, 1014.1 362.2 Q 1014.8 362.2, 1015.4 362.3 Q 1016.0 362.5, 1016.6 362.8 L 1015.9 363.9 Q 1015.1 363.5, 1014.1 363.5 Q 1012.5 363.5, 1011.7 364.5 Q 1010.9 365.5, 1010.8 367.6 Q 1011.3 367.1, 1012.1 366.8 Q 1012.8 366.6, 1013.6 366.6 M 1013.2 372.4 Q 1013.8 372.4, 1014.3 372.1 Q 1014.8 371.8, 1015.1 371.2 Q 1015.4 370.7, 1015.4 370.0 Q 1015.4 369.0, 1014.8 368.4 Q 1014.3 367.8, 1013.3 367.8 Q 1012.6 367.8, 1011.9 368.1 Q 1011.2 368.4, 1010.8 368.9 Q 1010.8 370.8, 1011.4 371.6 Q 1012.0 372.4, 1013.2 372.4 " fill="#000000"/>
<path class="legend" d="M 1018.5 372.4 L 1021.0 372.4 L 1021.0 363.9 L 1018.3 364.7 L 1017.9 363.8 L 1021.4 362.2 L 1022.5 362.4 L 1022.5 372.4 L 1024.7 372.4 L 1024.7 373.6 L 1018.5 373.6 L 1018.5 372.4 " fill="#000000"/>
<path class="legend" d="M 1030.8 367.7 Q 1031.9 368.0, 1032.5 368.7 Q 1033.0 369.4, 1033.0 370.5 Q 1033.0 371.5, 1032.5 372.2 Q 1032.0 373.0, 1031.2 373.4 Q 1030.3 373.8, 1029.1 373.8 Q 1027.9 373.8, 1027.0 373.4 Q 1026.1 372.9, 1025.4 372.1 L 1026.3 371.2 Q 1027.0 371.9, 1027.6 372.2 Q 1028.2 372.5, 1029.1 372.5 Q 1030.2 372.5, 1030.8 372.0 Q 1031.4 371.4, 1031.4 370.5 Q 1031.4 369.4, 1030.8 368.8 Q 1030.1 368.3, 1028.7 368.3 L 1027.9 368.3 L 1027.9 367.2 L 1028.6 367.2 Q 1029.9 367.2, 1030.5 366.6 Q 1031.2 366.1, 1031.2 365.1 Q 1031.2 364.3, 1030.6 363.9 Q 1030.1 363.5, 1029.2 363.5 Q 1028.2 363.5, 1027.6 363.8 Q 1027.0 364.1, 1026.6 365.0 L 1025.5 364.4 Q 1025.9 363.4, 1026.8 362.8 Q 1027.8 362.2, 1029.2 362.2 Q 1030.8 362.2, 1031.8 363.0 Q 1032.8 363.7, 1032.8 365.1 Q 1032.8 366.0, 1032.3 366.6 Q 1031.8 367.3, 1030.8 367.7 " fill="#000000"/>
<path class="legend" d="M 936.3 383.8 Q 936.3 381.8, 937.3 380.7 Q 938.3 379.5, 940.2 379.5 Q 942.1 379.5, 943.1 380.9 L 942.1 381.6 Q 941.7 381.2, 941.3 380.9 Q 940.8 380.7, 940.2 380.7 Q 939.1 380.7, 938.5 381.5 Q 937.8 382.3, 937.8 383.8 Q 937.8 385.3, 938.5 386.1 Q 939.1 386.8, 940.3 386.8 Q 941.0 386.8, 941.5 386.7 Q 941.9 386.5, 942.5 386.3 L 942.9 387.3 Q 941.7 388.0, 940.2 388.0 Q 938.3 388.0, 937.3 386.9 Q 936.3 385.7, 936.3 383.8 " fill="#000000"/>
<path class="legend" d="M 943.5 383.8 Q 943.5 381.7, 944.5 380.6 Q 945.5 379.5, 947.3 379.5 Q 949.1 379.5, 949.9 380.6 Q 950.8 381.7, 950.8 383.7 L 950.8 384.0 L 945.0 384.0 Q 945.0 385.4, 945.7 386.1 Q 946.3 386.8, 947.5 386.8 Q 948.1 386.8, 948.7 386.7 Q 949.3 386.5, 950.0 386.2 L 950.4 387.2 Q 949.6 387.6, 948.9 387.8 Q 948.1 388.0, 947.4 388.0 Q 945.5 388.0, 944.5 386.9 Q 943.5 385.8, 943.5 383.8 M 947.3 380.7 Q 946.4 380.7, 945.8 381.2 Q 945.3 381.8, 945.1 382.8 L 949.2 382.8 Q 949.1 381.7, 948.6 381.2 Q 948.2 380.7, 947.3 380.7 " fill="#000000"/>
<path class="legend" d="M 955.7 379.5 Q 957.0 379.5, 957.7 380.3 Q 958.4 381.0, 958.4 382.4 L 958.4 387.9 L 956.9 387.9 L 956.9 382.6 Q 956.9 381.6, 956.5 381.2 Q 956.1 380.7, 955.3 380.7 Q 954.5 380.7, 953.9 381.1 Q 953.3 381.4, 952.9 382.0 L 952.9 387.9 L 951.4 387.9 L 951.4 379.7 L 952.6 379.7 L 952.8 380.8 Q 953.9 379.5, 955.7 379.5 " fill="#000000"/>
<path class="legend" d="M 959.6 380.8 L 959.6 379.7 L 961.2 379.7 L 961.4 377.3 L 962.5 377.3 L 962.5 379.7 L 965.0 379.7 L 965.0 380.8 L 962.5 380.8 L 962.5 385.4 Q 962.5 386.8, 963.7 386.8 Q 964.2 386.8, 964.9 386.6 L 965.2 387.6 Q 964.3 388.0, 963.5 388.0 Q 962.4 388.0, 961.7 387.3 Q 961.0 386.7, 961.0 385.4 L 961.0 380.8 L 959.6 380.8 " fill="#000000"/>
<path class="legend" d="M 973.7 388.7 L 973.7 390.0 L 965.6 390.0 L 965.6 388.7 L 973.7 388.7 " fill="#000000"/>
<path class="legend" d="M 981.2 375.7 L 981.2 387.9 L 980.0 387.9 L 979.8 386.9 Q 978.9 388.0, 977.3 388.0 Q 975.6 388.0, 974.7 387.0 Q 973.7 385.9, 973.7 383.9 Q 973.7 381.8, 974.9 380.7 Q 976.0 379.5, 978.0 379.5 Q 978.8 379.5, 979.7 379.7 L 979.7 375.7 L 981.2 375.7 M 977.4 386.8 Q 978.3 386.8, 978.9 386.4 Q 979.5 385.9, 979.7 385.1 L 979.7 380.9 Q 978.9 380.7, 978.0 380.7 Q 976.7 380.7, 976.0 381.6 Q 975.3 382.4, 975.3 383.9 Q 975.3 385.3, 975.8 386.1 Q 976.4 386.8, 977.4 386.8 " fill="#000000"/>
<path class="legend" d="M 982.5 376.6 L 984.0 376.6 L 984.0 378.0 L 982.5 378.0 L 982.5 376.6 M 982.5 379.7 L 984.0 379.7 L 984.0 387.9 L 982.5 387.9 L 982.5 379.7 " fill="#000000"/>
<path class="legend" d="M 985.8 386.2 Q 986.5 386.5, 987.0 386.6 Q 987.6 386.8, 988.1 386.8 Q 988.8 386.8, 989.2 386.5 Q 989.7 386.2, 989.7 385.6 Q 989.7 385.2, 989.4 385.0 Q 989.2 384.8, 988.9 384.6 Q 988.7 384.5, 988.0 384.3 Q 987.9 384.3, 987.1 384.0 Q 986.4 383.7, 986.0 383.2 Q 985.6 382.7, 985.6 381.9 Q 985.6 380.9, 986.4 380.2 Q 987.1 379.5, 988.6 379.5 Q 989.3 379.5, 989.8 379.7 Q 990.4 379.8, 991.0 380.0 L 990.6 381.2 Q 990.0 381.0, 989.6 380.9 Q 989.1 380.8, 988.6 380.8 Q 987.9 380.8, 987.5 381.1 Q 987.1 381.4, 987.1 381.8 Q 987.1 382.3, 987.4 382.5 Q 987.7 382.7, 988.4 383.0 Q 988.6 383.0, 988.7 383.1 L 989.1 383.2 Q 989.8 383.4, 990.2 383.7 Q 990.6 383.9, 990.9 384.4 Q 991.2 384.8, 991.2 385.6 Q 991.2 386.7, 990.3 387.4 Q 989.5 388.0, 988.1 388.0 Q 987.3 388.0, 986.7 387.9 Q 986.0 387.7, 985.3 387.4 L 985.8 386.2 " fill="#000000"/>
<path class="legend" d="M 992.0 380.8 L 992.0 379.7 L 993.6 379.7 L 993.8 377.3 L 994.9 377.3 L 994.9 379.7 L 997.5 379.7 L 997.5 380.8 L 994.9 380.8 L 994.9 385.4 Q 994.9 386.8, 996.1 386.8 Q 996.6 386.8, 997.3 386.6 L 997.6 387.6 Q 996.7 388.0, 995.9 388.0 Q 994.8 388.0, 994.1 387.3 Q 993.4 386.7, 993.4 385.4 L 993.4 380.8 L 992.0 380.8 " fill="#000000"/>
<path class="legend" d="" fill="#000000"/>
<path class="legend" d="M 1003.3 380.9 L 1010.6 380.9 L 1010.6 382.1 L 1003.3 382.1 L 1003.3 380.9 M 1003.3 384.4 L 1010.6 384.4 L 1010.6 385.5 L 1003.3 385.5 L 1003.3 384.4 " fill="#000000"/>
<path class="legend" d="" fill="#000000"/>
<path class="legend" d="M 1021.6 388.0 Q 1019.5 388.0, 1018.5 386.5 Q 1017.4 384.9, 1017.4 382.2 Q 1017.4 379.5, 1018.5 378.0 Q 1019.5 376.4, 1021.6 376.4 Q 1023.7 376.4, 1024.7 378.0 Q 1025.7 379.5, 1025.7 382.2 Q 1025.7 384.9, 1024.7 386.5 Q 1023.7 388.0, 1021.6 388.0 M 1021.6 386.7 Q 1022.8 386.7, 1023.5 385.6 Q 1024.1 384.4, 1024.1 382.2 Q 1024.1 380.0, 1023.5 378.8 Q 1022.8 377.7, 1021.6 377.7 Q 1020.4 377.7, 1019.7 378.8 Q 1019.0 380.0, 1019.0 382.2 Q 1019.0 384.4, 1019.7 385.6 Q 1020.4 386.7, 1021.6 386.7 " fill="#000000"/>
<path class="legend" d="M 1026.8 386.3 L 1028.4 386.3 L 1028.4 387.9 L 1026.8 387.9 L 1026.8 386.3 " fill="#000000"/>
<path class="legend" d="M 1036.8 384.0 L 1038.1 384.0 L 1038.1 385.3 L 1036.8 385.3 L 1036.8 387.9 L 1035.3 387.9 L 1035.3 385.3 L 1029.4 385.3 L 1029.4 384.3 L 1034.4 376.6 L 1036.8 376.6 L 1036.8 384.0 M 1031.3 384.0 L 1035.3 384.0 L 1035.3 377.6 L 1031.3 384.0 " fill="#000000"/>
<path class="legend" d="M 1043.0 380.8 Q 1044.0 380.8, 1044.8 381.2 Q 1045.6 381.6, 1046.1 382.4 Q 1046.6 383.2, 1046.6 384.3 Q 1046.6 385.5, 1046.0 386.3 Q 1045.4 387.2, 1044.5 387.6 Q 1043.6 388.0, 1042.5 388.0 Q 1041.5 388.0, 1040.5 387.6 Q 1039.6 387.2, 1038.9 386.5 L 1039.9 385.5 Q 1040.4 386.1, 1041.1 386.4 Q 1041.8 386.7, 1042.6 386.7 Q 1043.6 386.7, 1044.3 386.1 Q 1045.0 385.5, 1045.0 384.3 Q 1045.0 383.1, 1044.3 382.6 Q 1043.6 382.0, 1042.5 382.0 Q 1041.5 382.0, 1040.4 382.4 L 1039.5 382.0 L 1040.0 376.6 L 1045.9 376.6 L 1045.7 377.8 L 1041.4 377.8 L 1041.0 381.2 Q 1042.0 380.8, 1043.0 380.8 " fill="#000000"/>
<path class="legend" d="M 1051.8 380.8 Q 1052.8 380.8, 1053.5 381.2 Q 1054.3 381.7, 1054.8 382.5 Q 1055.2 383.2, 1055.2 384.2 Q 1055.2 385.3, 1054.7 386.2 Q 1054.2 387.1, 1053.4 387.5 Q 1052.5 388.0, 1051.4 388.0 Q 1049.4 388.0, 1048.3 386.7 Q 1047.3 385.3, 1047.3 382.6 Q 1047.3 379.6, 1048.6 378.0 Q 1049.9 376.4, 1052.3 376.4 Q 1053.0 376.4, 1053.6 376.6 Q 1054.2 376.8, 1054.7 377.1 L 1054.1 378.2 Q 1053.3 377.7, 1052.3 377.7 Q 1050.7 377.7, 1049.9 378.8 Q 1049.1 379.8, 1049.0 381.9 Q 1049.5 381.4, 1050.3 381.1 Q 1051.0 380.8, 1051.8 380.8 M 1051.4 386.7 Q 1052.0 386.7, 1052.5 386.4 Q 1053.0 386.1, 1053.3 385.5 Q 1053.6 384.9, 1053.6 384.3 Q 1053.6 383.2, 1053.0 382.7 Q 1052.5 382.1, 1051.5 382.1 Q 1050.8 382.1, 1050.1 382.4 Q 1049.4 382.7, 1049.0 383.1 Q 1049.0 385.0, 1049.6 385.9 Q 1050.2 386.7, 1051.4 386.7 " fill="#000000"/>
<path class="legend" d="M 1061.5 381.9 Q 1062.6 382.2, 1063.1 383.0 Q 1063.7 383.7, 1063.7 384.8 Q 1063.7 385.7, 1063.2 386.5 Q 1062.7 387.2, 1061.9 387.6 Q 1061.0 388.0, 1059.8 388.0 Q 1058.6 388.0, 1057.7 387.6 Q 1056.8 387.2, 1056.1 386.3 L 1057.0 385.4 Q 1057.7 386.2, 1058.3 386.5 Q 1058.9 386.8, 1059.8 386.8 Q 1060.8 386.8, 1061.5 386.2 Q 1062.1 385.7, 1062.1 384.8 Q 1062.1 383.6, 1061.4 383.1 Q 1060.8 382.6, 1059.4 382.6 L 1058.6 382.6 L 1058.6 381.4 L 1059.3 381.4 Q 1060.5 381.4, 1061.2 380.9 Q 1061.9 380.3, 1061.9 379.3 Q 1061.9 378.6, 1061.3 378.2 Q 1060.8 377.7, 1059.8 377.7 Q 1058.9 377.7, 1058.3 378.0 Q 1057.7 378.4, 1057.3 379.2 L 1056.2 378.6 Q 1056.6 377.7, 1057.5 377.1 Q 1058.5 376.4, 1059.8 376.4 Q 1061.5 376.4, 1062.5 377.2 Q 1063.5 378.0, 1063.5 379.3 Q 1063.5 380.2, 1063.0 380.9 Q 1062.5 381.6, 1061.5 381.9 " fill="#000000"/>
</svg>