<svg xmlns="http://www.w3.org/2000/svg" xmlns:rdkit="http://www.rdkit.org/xml" xmlns:xlink="http://www.w3.org/1999/xlink" version="1.1" baseProfile="full" xml:space="preserve" width="2000px" height="400px" viewBox="0 0 2000 400">
<!-- END OF HEADER -->
<rect style="opacity:1.0;fill:#FFFFFF;stroke:none" width="2000.0" height="400.0" x="0.0" y="0.0"> </rect>
<path class="bond-0 atom-0 atom-1" d="M 151.6,248.3 L 171.3,227.0" style="fill:none;fill-rule:evenodd;stroke:#000000;stroke-width:2.0px;stroke-linecap:butt;stroke-linejoin:miter;stroke-opacity:1"/>
<path class="bond-0 atom-0 atom-1" d="M 155.8,252.3 L 175.6,231.0" style="fill:none;fill-rule:evenodd;stroke:#000000;stroke-width:2.0px;stroke-linecap:butt;stroke-linejoin:miter;stroke-opacity:1"/>
<path class="bond-1 atom-1 atom-2" d="M 173.4,229.0 L 164.8,201.2" style="fill:none;fill-rule:evenodd;stroke:#000000;stroke-width:2.0px;stroke-linecap:butt;stroke-linejoin:miter;stroke-opacity:1"/>
<path class="bond-2 atom-2 atom-3" d="M 164.8,201.2 L 136.5,194.8" style="fill:none;fill-rule:evenodd;stroke:#000000;stroke-width:2.0px;stroke-linecap:butt;stroke-linejoin:miter;stroke-opacity:1"/>
<path class="bond-3 atom-3 atom-4" d="M 136.5,194.8 L 133.0,183.6" style="fill:none;fill-rule:evenodd;stroke:#000000;stroke-width:2.0px;stroke-linecap:butt;stroke-linejoin:miter;stroke-opacity:1"/>
<path class="bond-3 atom-3 atom-4" d="M 133.0,183.6 L 129.5,172.3" style="fill:none;fill-rule:evenodd;stroke:#FF0000;stroke-width:2.0px;stroke-linecap:butt;stroke-linejoin:miter;stroke-opacity:1"/>
<path class="bond-4 atom-4 atom-5" d="M 123.2,166.0 L 113.6,163.8" style="fill:none;fill-rule:evenodd;stroke:#FF0000;stroke-width:2.0px;stroke-linecap:butt;stroke-linejoin:miter;stroke-opacity:1"/>
<path class="bond-4 atom-4 atom-5" d="M 113.6,163.8 L 104.0,161.6" style="fill:none;fill-rule:evenodd;stroke:#000000;stroke-width:2.0px;stroke-linecap:butt;stroke-linejoin:miter;stroke-opacity:1"/>
<path class="bond-5 atom-5 atom-6" d="M 100.7,155.6 L 106.0,132.3" style="fill:none;fill-rule:evenodd;stroke:#000000;stroke-width:2.0px;stroke-linecap:butt;stroke-linejoin:miter;stroke-opacity:1"/>
<path class="bond-6 atom-5 atom-7" d="M 98.4,165.9 L 93.1,189.0" style="fill:none;fill-rule:evenodd;stroke:#000000;stroke-width:2.0px;stroke-linecap:butt;stroke-linejoin:miter;stroke-opacity:1"/>
<path class="bond-7 atom-5 atom-8" d="M 95.1,159.6 L 71.2,154.2" style="fill:none;fill-rule:evenodd;stroke:#000000;stroke-width:2.0px;stroke-linecap:butt;stroke-linejoin:miter;stroke-opacity:1"/>
<path class="bond-8 atom-8 atom-9" d="M 71.2,154.2 L 64.8,182.5" style="fill:none;fill-rule:evenodd;stroke:#000000;stroke-width:2.0px;stroke-linecap:butt;stroke-linejoin:miter;stroke-opacity:1"/>
<path class="bond-9 atom-8 atom-10" d="M 71.2,154.2 L 77.6,125.9" style="fill:none;fill-rule:evenodd;stroke:#000000;stroke-width:2.0px;stroke-linecap:butt;stroke-linejoin:miter;stroke-opacity:1"/>
<path class="bond-10 atom-8 atom-11" d="M 71.2,154.2 L 42.9,147.8" style="fill:none;fill-rule:evenodd;stroke:#000000;stroke-width:2.0px;stroke-linecap:butt;stroke-linejoin:miter;stroke-opacity:1"/>
<path class="bond-11 atom-1 atom-12" d="M 173.4,229.0 L 201.8,235.4" style="fill:none;fill-rule:evenodd;stroke:#000000;stroke-width:2.0px;stroke-linecap:butt;stroke-linejoin:miter;stroke-opacity:1"/>
<path class="bond-12 atom-12 atom-13" d="M 201.8,235.4 L 209.3,227.3" style="fill:none;fill-rule:evenodd;stroke:#000000;stroke-width:2.0px;stroke-linecap:butt;stroke-linejoin:miter;stroke-opacity:1"/>
<path class="bond-12 atom-12 atom-13" d="M 209.3,227.3 L 216.8,219.2" style="fill:none;fill-rule:evenodd;stroke:#FF0000;stroke-width:2.0px;stroke-linecap:butt;stroke-linejoin:miter;stroke-opacity:1"/>
<path class="bond-13 atom-13 atom-14" d="M 226.2,215.2 L 238.0,217.8" style="fill:none;fill-rule:evenodd;stroke:#FF0000;stroke-width:2.0px;stroke-linecap:butt;stroke-linejoin:miter;stroke-opacity:1"/>
<path class="bond-13 atom-13 atom-14" d="M 238.0,217.8 L 249.8,220.5" style="fill:none;fill-rule:evenodd;stroke:#000000;stroke-width:2.0px;stroke-linecap:butt;stroke-linejoin:miter;stroke-opacity:1"/>
<path class="bond-14 atom-14 atom-15" d="M 252.6,219.7 L 256.1,231.0" style="fill:none;fill-rule:evenodd;stroke:#000000;stroke-width:2.0px;stroke-linecap:butt;stroke-linejoin:miter;stroke-opacity:1"/>
<path class="bond-14 atom-14 atom-15" d="M 256.1,231.0 L 259.6,242.3" style="fill:none;fill-rule:evenodd;stroke:#FF0000;stroke-width:2.0px;stroke-linecap:butt;stroke-linejoin:miter;stroke-opacity:1"/>
<path class="bond-14 atom-14 atom-15" d="M 247.1,221.4 L 250.6,232.7" style="fill:none;fill-rule:evenodd;stroke:#000000;stroke-width:2.0px;stroke-linecap:butt;stroke-linejoin:miter;stroke-opacity:1"/>
<path class="bond-14 atom-14 atom-15" d="M 250.6,232.7 L 254.1,244.0" style="fill:none;fill-rule:evenodd;stroke:#FF0000;stroke-width:2.0px;stroke-linecap:butt;stroke-linejoin:miter;stroke-opacity:1"/>
<path class="bond-15 atom-14 atom-16" d="M 249.8,220.5 L 269.6,199.2" style="fill:none;fill-rule:evenodd;stroke:#000000;stroke-width:2.0px;stroke-linecap:butt;stroke-linejoin:miter;stroke-opacity:1"/>
<path class="bond-16 atom-16 atom-17" d="M 269.6,199.2 L 261.0,171.4" style="fill:none;fill-rule:evenodd;stroke:#000000;stroke-width:2.0px;stroke-linecap:butt;stroke-linejoin:miter;stroke-opacity:1"/>
<path class="bond-16 atom-16 atom-17" d="M 273.8,193.3 L 267.8,173.9" style="fill:none;fill-rule:evenodd;stroke:#000000;stroke-width:2.0px;stroke-linecap:butt;stroke-linejoin:miter;stroke-opacity:1"/>
<path class="bond-17 atom-17 atom-18" d="M 261.0,171.4 L 280.7,150.1" style="fill:none;fill-rule:evenodd;stroke:#000000;stroke-width:2.0px;stroke-linecap:butt;stroke-linejoin:miter;stroke-opacity:1"/>
<path class="bond-18 atom-18 atom-19" d="M 280.7,150.1 L 309.0,156.5" style="fill:none;fill-rule:evenodd;stroke:#000000;stroke-width:2.0px;stroke-linecap:butt;stroke-linejoin:miter;stroke-opacity:1"/>
<path class="bond-18 atom-18 atom-19" d="M 283.7,156.7 L 303.5,161.2" style="fill:none;fill-rule:evenodd;stroke:#000000;stroke-width:2.0px;stroke-linecap:butt;stroke-linejoin:miter;stroke-opacity:1"/>
<path class="bond-19 atom-19 atom-20" d="M 309.0,156.5 L 316.9,148.1" style="fill:none;fill-rule:evenodd;stroke:#000000;stroke-width:2.0px;stroke-linecap:butt;stroke-linejoin:miter;stroke-opacity:1"/>
<path class="bond-19 atom-19 atom-20" d="M 316.9,148.1 L 324.7,139.6" style="fill:none;fill-rule:evenodd;stroke:#0000FF;stroke-width:2.0px;stroke-linecap:butt;stroke-linejoin:miter;stroke-opacity:1"/>
<path class="bond-20 atom-20 atom-21" d="M 332.9,136.1 L 345.0,138.9" style="fill:none;fill-rule:evenodd;stroke:#0000FF;stroke-width:2.0px;stroke-linecap:butt;stroke-linejoin:miter;stroke-opacity:1"/>
<path class="bond-20 atom-20 atom-21" d="M 345.0,138.9 L 357.1,141.6" style="fill:none;fill-rule:evenodd;stroke:#000000;stroke-width:2.0px;stroke-linecap:butt;stroke-linejoin:miter;stroke-opacity:1"/>
<path class="bond-21 atom-20 atom-22" d="M 327.2,130.1 L 323.7,118.8" style="fill:none;fill-rule:evenodd;stroke:#0000FF;stroke-width:2.0px;stroke-linecap:butt;stroke-linejoin:miter;stroke-opacity:1"/>
<path class="bond-21 atom-20 atom-22" d="M 323.7,118.8 L 320.2,107.4" style="fill:none;fill-rule:evenodd;stroke:#000000;stroke-width:2.0px;stroke-linecap:butt;stroke-linejoin:miter;stroke-opacity:1"/>
<path class="bond-22 atom-19 atom-23" d="M 309.0,156.5 L 317.7,184.3" style="fill:none;fill-rule:evenodd;stroke:#000000;stroke-width:2.0px;stroke-linecap:butt;stroke-linejoin:miter;stroke-opacity:1"/>
<path class="bond-23 atom-23 atom-24" d="M 317.7,184.3 L 297.9,205.6" style="fill:none;fill-rule:evenodd;stroke:#000000;stroke-width:2.0px;stroke-linecap:butt;stroke-linejoin:miter;stroke-opacity:1"/>
<path class="bond-23 atom-23 atom-24" d="M 310.4,183.5 L 296.6,198.5" style="fill:none;fill-rule:evenodd;stroke:#000000;stroke-width:2.0px;stroke-linecap:butt;stroke-linejoin:miter;stroke-opacity:1"/>
<path class="bond-24 atom-24 atom-16" d="M 297.9,205.6 L 269.6,199.2" style="fill:none;fill-rule:evenodd;stroke:#000000;stroke-width:2.0px;stroke-linecap:butt;stroke-linejoin:miter;stroke-opacity:1"/>
<path class="atom-4" d="M 124.1 167.1 Q 124.1 165.1, 125.1 164.0 Q 126.1 162.9, 127.9 162.9 Q 129.7 162.9, 130.7 164.0 Q 131.7 165.1, 131.7 167.1 Q 131.7 169.1, 130.7 170.2 Q 129.7 171.3, 127.9 171.3 Q 126.1 171.3, 125.1 170.2 Q 124.1 169.1, 124.1 167.1 M 127.9 170.4 Q 129.1 170.4, 129.8 169.6 Q 130.5 168.7, 130.5 167.1 Q 130.5 165.5, 129.8 164.7 Q 129.1 163.8, 127.9 163.8 Q 126.6 163.8, 126.0 164.6 Q 125.3 165.5, 125.3 167.1 Q 125.3 168.7, 126.0 169.6 Q 126.6 170.4, 127.9 170.4 " fill="#FF0000"/>
<path class="atom-5" d="M 96.4 163.5 Q 96.5 163.5, 96.9 163.7 Q 97.3 163.8, 97.7 163.9 Q 98.1 164.0, 98.5 164.0 Q 99.3 164.0, 99.8 163.7 Q 100.2 163.3, 100.2 162.6 Q 100.2 162.2, 100.0 161.9 Q 99.8 161.6, 99.4 161.4 Q 99.1 161.3, 98.5 161.1 Q 97.8 160.9, 97.3 160.7 Q 96.9 160.5, 96.6 160.0 Q 96.3 159.6, 96.3 158.9 Q 96.3 157.8, 97.0 157.2 Q 97.7 156.5, 99.1 156.5 Q 100.0 156.5, 101.1 157.0 L 100.9 157.9 Q 99.9 157.5, 99.1 157.5 Q 98.3 157.5, 97.9 157.8 Q 97.4 158.1, 97.4 158.7 Q 97.4 159.2, 97.7 159.4 Q 97.9 159.7, 98.2 159.8 Q 98.6 160.0, 99.1 160.2 Q 99.9 160.4, 100.3 160.6 Q 100.7 160.9, 101.1 161.3 Q 101.4 161.8, 101.4 162.6 Q 101.4 163.7, 100.6 164.4 Q 99.9 165.0, 98.6 165.0 Q 97.9 165.0, 97.3 164.8 Q 96.8 164.7, 96.1 164.4 L 96.4 163.5 " fill="#000000"/>
<path class="atom-5" d="M 101.9 156.5 L 103.0 156.5 L 103.0 157.5 L 101.9 157.5 L 101.9 156.5 M 101.9 158.8 L 103.0 158.8 L 103.0 164.7 L 101.9 164.7 L 101.9 158.8 " fill="#000000"/>
<path class="atom-13" d="M 217.7 214.1 Q 217.7 212.1, 218.7 211.0 Q 219.7 209.9, 221.5 209.9 Q 223.3 209.9, 224.3 211.0 Q 225.3 212.1, 225.3 214.1 Q 225.3 216.1, 224.3 217.2 Q 223.3 218.4, 221.5 218.4 Q 219.7 218.4, 218.7 217.2 Q 217.7 216.1, 217.7 214.1 M 221.5 217.4 Q 222.8 217.4, 223.4 216.6 Q 224.1 215.8, 224.1 214.1 Q 224.1 212.5, 223.4 211.7 Q 222.8 210.9, 221.5 210.9 Q 220.3 210.9, 219.6 211.7 Q 218.9 212.5, 218.9 214.1 Q 218.9 215.8, 219.6 216.6 Q 220.3 217.4, 221.5 217.4 " fill="#FF0000"/>
<path class="atom-15" d="M 254.7 248.3 Q 254.7 246.3, 255.7 245.2 Q 256.6 244.1, 258.5 244.1 Q 260.3 244.1, 261.3 245.2 Q 262.2 246.3, 262.2 248.3 Q 262.2 250.3, 261.2 251.4 Q 260.3 252.6, 258.5 252.6 Q 256.6 252.6, 255.7 251.4 Q 254.7 250.3, 254.7 248.3 M 258.5 251.6 Q 259.7 251.6, 260.4 250.8 Q 261.1 249.9, 261.1 248.3 Q 261.1 246.7, 260.4 245.9 Q 259.7 245.0, 258.5 245.0 Q 257.2 245.0, 256.5 245.8 Q 255.8 246.7, 255.8 248.3 Q 255.8 250.0, 256.5 250.8 Q 257.2 251.6, 258.5 251.6 " fill="#FF0000"/>
<path class="atom-20" d="M 327.0 131.1 L 329.7 135.4 Q 329.9 135.9, 330.4 136.7 Q 330.8 137.4, 330.8 137.5 L 330.8 131.1 L 331.9 131.1 L 331.9 139.3 L 330.8 139.3 L 327.9 134.5 Q 327.5 134.0, 327.2 133.3 Q 326.8 132.7, 326.7 132.5 L 326.7 139.3 L 325.7 139.3 L 325.7 131.1 L 327.0 131.1 " fill="#0000FF"/>
<path class="legend" d="M 168.5 365.4 L 168.7 366.5 Q 169.6 365.3, 171.0 365.3 Q 171.4 365.3, 172.0 365.4 L 171.8 366.8 Q 171.1 366.6, 170.7 366.6 Q 170.0 366.6, 169.6 366.9 Q 169.2 367.1, 168.8 367.8 L 168.8 373.6 L 167.3 373.6 L 167.3 365.4 L 168.5 365.4 " fill="#000000"/>
<path class="legend" d="M 172.3 369.5 Q 172.3 367.5, 173.3 366.4 Q 174.3 365.3, 176.1 365.3 Q 177.9 365.3, 178.7 366.4 Q 179.5 367.4, 179.5 369.5 L 179.5 369.7 L 173.8 369.7 Q 173.8 371.1, 174.4 371.8 Q 175.1 372.6, 176.2 372.6 Q 176.9 372.6, 177.5 372.4 Q 178.1 372.3, 178.8 372.0 L 179.2 373.0 Q 178.4 373.4, 177.7 373.6 Q 176.9 373.8, 176.2 373.8 Q 174.3 373.8, 173.3 372.6 Q 172.3 371.5, 172.3 369.5 M 176.1 366.4 Q 175.2 366.4, 174.6 367.0 Q 174.0 367.5, 173.9 368.6 L 178.0 368.6 Q 177.8 367.5, 177.4 367.0 Q 176.9 366.4, 176.1 366.4 " fill="#000000"/>
<path class="legend" d="M 180.1 371.4 Q 180.1 370.1, 181.2 369.4 Q 182.3 368.7, 184.2 368.7 L 185.4 368.7 L 185.4 368.3 Q 185.4 367.3, 185.0 366.9 Q 184.6 366.4, 183.5 366.4 Q 182.9 366.4, 182.4 366.6 Q 181.9 366.7, 181.1 367.0 L 180.6 366.0 Q 182.1 365.3, 183.6 365.3 Q 185.3 365.3, 186.1 366.0 Q 186.9 366.8, 186.9 368.4 L 186.9 373.6 L 185.7 373.6 Q 185.7 373.6, 185.7 373.3 Q 185.6 373.1, 185.5 372.7 Q 184.4 373.8, 182.8 373.8 Q 181.6 373.8, 180.9 373.2 Q 180.1 372.5, 180.1 371.4 M 181.6 371.4 Q 181.6 372.0, 182.0 372.3 Q 182.4 372.6, 183.1 372.6 Q 183.8 372.6, 184.4 372.4 Q 185.0 372.0, 185.4 371.5 L 185.4 369.8 L 184.3 369.8 Q 183.0 369.8, 182.3 370.2 Q 181.6 370.6, 181.6 371.4 " fill="#000000"/>
<path class="legend" d="M 188.1 369.5 Q 188.1 367.5, 189.1 366.4 Q 190.1 365.3, 192.1 365.3 Q 194.0 365.3, 194.9 366.6 L 193.9 367.4 Q 193.5 366.9, 193.1 366.7 Q 192.7 366.4, 192.1 366.4 Q 190.9 366.4, 190.3 367.2 Q 189.7 368.0, 189.7 369.5 Q 189.7 371.0, 190.3 371.8 Q 191.0 372.6, 192.2 372.6 Q 192.8 372.6, 193.3 372.4 Q 193.8 372.3, 194.4 372.0 L 194.8 373.0 Q 193.6 373.7, 192.1 373.7 Q 190.1 373.7, 189.1 372.6 Q 188.1 371.5, 188.1 369.5 " fill="#000000"/>
<path class="legend" d="M 195.3 366.6 L 195.3 365.4 L 196.9 365.4 L 197.1 363.0 L 198.3 363.0 L 198.3 365.4 L 200.8 365.4 L 200.8 366.6 L 198.3 366.6 L 198.3 371.1 Q 198.3 372.5, 199.5 372.5 Q 199.9 372.5, 200.6 372.3 L 200.9 373.4 Q 200.0 373.7, 199.2 373.7 Q 198.1 373.7, 197.4 373.1 Q 196.8 372.4, 196.8 371.2 L 196.8 366.6 L 195.3 366.6 " fill="#000000"/>
<path class="legend" d="M 209.5 374.4 L 209.5 375.7 L 201.3 375.7 L 201.3 374.4 L 209.5 374.4 " fill="#000000"/>
<path class="legend" d="M 215.4 363.6 L 209.5 363.6 L 209.5 362.3 L 217.0 362.3 L 217.0 363.4 L 212.4 373.6 L 210.9 373.6 L 215.4 363.6 " fill="#000000"/>
<path class="legend" d="M 221.6 366.5 Q 222.5 366.5, 223.4 367.0 Q 224.2 367.4, 224.6 368.2 Q 225.1 369.0, 225.1 370.0 Q 225.1 371.2, 224.5 372.1 Q 224.0 372.9, 223.0 373.3 Q 222.1 373.8, 221.1 373.8 Q 220.0 373.8, 219.1 373.4 Q 218.1 373.0, 217.4 372.3 L 218.4 371.3 Q 218.9 371.8, 219.6 372.2 Q 220.4 372.5, 221.1 372.5 Q 222.1 372.5, 222.8 371.8 Q 223.5 371.2, 223.5 370.1 Q 223.5 368.9, 222.8 368.3 Q 222.1 367.7, 221.0 367.7 Q 220.0 367.7, 218.9 368.2 L 218.0 367.8 L 218.6 362.3 L 224.4 362.3 L 224.2 363.6 L 219.9 363.6 L 219.6 366.9 Q 220.6 366.5, 221.6 366.5 " fill="#000000"/>
<path class="legend" d="M 226.5 372.4 L 229.0 372.4 L 229.0 363.9 L 226.2 364.7 L 225.9 363.8 L 229.3 362.2 L 230.5 362.4 L 230.5 372.4 L 232.7 372.4 L 232.7 373.6 L 226.5 373.6 L 226.5 372.4 " fill="#000000"/>
<path class="legend" d="M 137.2 383.8 Q 137.2 381.8, 138.2 380.7 Q 139.2 379.5, 141.2 379.5 Q 143.0 379.5, 144.0 380.9 L 143.0 381.6 Q 142.6 381.2, 142.2 380.9 Q 141.7 380.7, 141.2 380.7 Q 140.0 380.7, 139.4 381.5 Q 138.8 382.3, 138.8 383.8 Q 138.8 385.3, 139.4 386.1 Q 140.1 386.8, 141.3 386.8 Q 141.9 386.8, 142.4 386.7 Q 142.9 386.5, 143.4 386.3 L 143.8 387.3 Q 142.7 388.0, 141.1 388.0 Q 139.2 388.0, 138.2 386.9 Q 137.2 385.7, 137.2 383.8 " fill="#000000"/>
<path class="legend" d="M 144.4 383.8 Q 144.4 381.7, 145.4 380.6 Q 146.4 379.5, 148.2 379.5 Q 150.1 379.5, 150.9 380.6 Q 151.7 381.7, 151.7 383.7 L 151.7 384.0 L 145.9 384.0 Q 146.0 385.4, 146.6 386.1 Q 147.2 386.8, 148.4 386.8 Q 149.0 386.8, 149.6 386.7 Q 150.2 386.5, 150.9 386.2 L 151.3 387.2 Q 150.5 387.6, 149.8 387.8 Q 149.1 388.0, 148.3 388.0 Q 146.4 388.0, 145.4 386.9 Q 144.4 385.8, 144.4 383.8 M 148.2 380.7 Q 147.3 380.7, 146.7 381.2 Q 146.2 381.8, 146.0 382.8 L 150.1 382.8 Q 150.0 381.7, 149.5 381.2 Q 149.1 380.7, 148.2 380.7 " fill="#000000"/>
<path class="legend" d="M 156.6 379.5 Q 157.9 379.5, 158.6 380.3 Q 159.3 381.0, 159.3 382.4 L 159.3 387.9 L 157.8 387.9 L 157.8 382.6 Q 157.8 381.6, 157.4 381.2 Q 157.0 380.7, 156.2 380.7 Q 155.4 380.7, 154.8 381.1 Q 154.2 381.4, 153.8 382.0 L 153.8 387.9 L 152.3 387.9 L 152.3 379.7 L 153.5 379.7 L 153.7 380.8 Q 154.8 379.5, 156.6 379.5 " fill="#000000"/>
<path class="legend" d="M 160.5 380.8 L 160.5 379.7 L 162.1 379.7 L 162.3 377.3 L 163.4 377.3 L 163.4 379.7 L 166.0 379.7 L 166.0 380.8 L 163.4 380.8 L 163.4 385.4 Q 163.4 386.8, 164.6 386.8 Q 165.1 386.8, 165.8 386.6 L 166.1 387.6 Q 165.2 388.0, 164.4 388.0 Q 163.3 388.0, 162.6 387.3 Q 161.9 386.7, 161.9 385.4 L 161.9 380.8 L 160.5 380.8 " fill="#000000"/>
<path class="legend" d="M 174.6 388.7 L 174.6 390.0 L 166.5 390.0 L 166.5 388.7 L 174.6 388.7 " fill="#000000"/>
<path class="legend" d="M 182.1 375.7 L 182.1 387.9 L 180.9 387.9 L 180.7 386.9 Q 179.8 388.0, 178.3 388.0 Q 176.5 388.0, 175.6 387.0 Q 174.6 385.9, 174.6 383.9 Q 174.6 381.8, 175.8 380.7 Q 176.9 379.5, 178.9 379.5 Q 179.7 379.5, 180.6 379.7 L 180.6 375.7 L 182.1 375.7 M 178.4 386.8 Q 179.2 386.8, 179.8 386.4 Q 180.4 385.9, 180.6 385.1 L 180.6 380.9 Q 179.8 380.7, 178.9 380.7 Q 177.6 380.7, 176.9 381.6 Q 176.2 382.4, 176.2 383.9 Q 176.2 385.3, 176.7 386.1 Q 177.3 386.8, 178.4 386.8 " fill="#000000"/>
<path class="legend" d="M 183.4 376.6 L 184.9 376.6 L 184.9 378.0 L 183.4 378.0 L 183.4 376.6 M 183.4 379.7 L 184.9 379.7 L 184.9 387.9 L 183.4 387.9 L 183.4 379.7 " fill="#000000"/>
<path class="legend" d="M 186.7 386.2 Q 187.4 386.5, 187.9 386.6 Q 188.5 386.8, 189.0 386.8 Q 189.7 386.8, 190.1 386.5 Q 190.6 386.2, 190.6 385.6 Q 190.6 385.2, 190.3 385.0 Q 190.1 384.8, 189.9 384.6 Q 189.6 384.5, 188.9 384.3 Q 188.8 384.3, 188.0 384.0 Q 187.3 383.7, 186.9 383.2 Q 186.5 382.7, 186.5 381.9 Q 186.5 380.9, 187.3 380.2 Q 188.1 379.5, 189.5 379.5 Q 190.2 379.5, 190.7 379.7 Q 191.3 379.8, 191.9 380.0 L 191.5 381.2 Q 190.9 381.0, 190.5 380.9 Q 190.0 380.8, 189.5 380.8 Q 188.8 380.8, 188.4 381.1 Q 188.0 381.4, 188.0 381.8 Q 188.0 382.3, 188.3 382.5 Q 188.6 382.7, 189.3 383.0 Q 189.5 383.0, 189.6 383.1 L 190.0 383.2 Q 190.7 383.4, 191.1 383.7 Q 191.5 383.9, 191.8 384.4 Q 192.1 384.8, 192.1 385.6 Q 192.1 386.7, 191.2 387.4 Q 190.4 388.0, 189.0 388.0 Q 188.3 388.0, 187.6 387.9 Q 186.9 387.7, 186.2 387.4 L 186.7 386.2 " fill="#000000"/>
<path class="legend" d="M 192.9 380.8 L 192.9 379.7 L 194.5 379.7 L 194.7 377.3 L 195.9 377.3 L 195.9 379.7 L 198.4 379.7 L 198.4 380.8 L 195.9 380.8 L 195.9 385.4 Q 195.9 386.8, 197.1 386.8 Q 197.5 386.8, 198.2 386.6 L 198.5 387.6 Q 197.6 388.0, 196.8 388.0 Q 195.7 388.0, 195.0 387.3 Q 194.4 386.7, 194.4 385.4 L 194.4 380.8 L 192.9 380.8 " fill="#000000"/>
<path class="legend" d="" fill="#000000"/>
<path class="legend" d="M 204.2 380.9 L 211.6 380.9 L 211.6 382.1 L 204.2 382.1 L 204.2 380.9 M 204.2 384.4 L 211.6 384.4 L 211.6 385.5 L 204.2 385.5 L 204.2 384.4 " fill="#000000"/>
<path class="legend" d="" fill="#000000"/>
<path class="legend" d="M 222.5 388.0 Q 220.4 388.0, 219.4 386.5 Q 218.3 384.9, 218.3 382.2 Q 218.3 379.5, 219.4 378.0 Q 220.4 376.4, 222.5 376.4 Q 224.6 376.4, 225.6 378.0 Q 226.6 379.5, 226.6 382.2 Q 226.6 384.9, 225.6 386.5 Q 224.6 388.0, 222.5 388.0 M 222.5 386.7 Q 223.7 386.7, 224.4 385.6 Q 225.0 384.4, 225.0 382.2 Q 225.0 380.0, 224.4 378.8 Q 223.7 377.7, 222.5 377.7 Q 221.3 377.7, 220.6 378.8 Q 219.9 380.0, 219.9 382.2 Q 219.9 384.4, 220.6 385.6 Q 221.3 386.7, 222.5 386.7 " fill="#000000"/>
<path class="legend" d="M 227.7 386.3 L 229.3 386.3 L 229.3 387.9 L 227.7 387.9 L 227.7 386.3 " fill="#000000"/>
<path class="legend" d="M 235.8 381.9 Q 236.9 382.2, 237.4 383.0 Q 237.9 383.7, 237.9 384.8 Q 237.9 385.7, 237.5 386.5 Q 237.0 387.2, 236.1 387.6 Q 235.2 388.0, 234.1 388.0 Q 232.8 388.0, 231.9 387.6 Q 231.0 387.2, 230.3 386.3 L 231.2 385.4 Q 231.9 386.2, 232.5 386.5 Q 233.1 386.8, 234.1 386.8 Q 235.1 386.8, 235.7 386.2 Q 236.3 385.7, 236.3 384.8 Q 236.3 383.6, 235.7 383.1 Q 235.0 382.6, 233.6 382.6 L 232.8 382.6 L 232.8 381.4 L 233.5 381.4 Q 234.8 381.4, 235.4 380.9 Q 236.1 380.3, 236.1 379.3 Q 236.1 378.6, 235.5 378.2 Q 235.0 377.7, 234.1 377.7 Q 233.1 377.7, 232.5 378.0 Q 232.0 378.4, 231.5 379.2 L 230.4 378.6 Q 230.8 377.7, 231.8 377.1 Q 232.7 376.4, 234.1 376.4 Q 235.7 376.4, 236.7 377.2 Q 237.7 378.0, 237.7 379.3 Q 237.7 380.2, 237.2 380.9 Q 236.7 381.6, 235.8 381.9 " fill="#000000"/>
<path class="legend" d="M 243.3 380.8 Q 244.3 380.8, 245.1 381.2 Q 245.9 381.7, 246.3 382.5 Q 246.7 383.2, 246.7 384.2 Q 246.7 385.3, 246.2 386.2 Q 245.8 387.1, 244.9 387.5 Q 244.0 388.0, 242.9 388.0 Q 240.9 388.0, 239.9 386.7 Q 238.9 385.3, 238.9 382.6 Q 238.9 379.6, 240.1 378.0 Q 241.4 376.4, 243.8 376.4 Q 244.5 376.4, 245.1 376.6 Q 245.7 376.8, 246.3 377.1 L 245.7 378.2 Q 244.8 377.7, 243.8 377.7 Q 242.2 377.7, 241.4 378.8 Q 240.6 379.8, 240.5 381.9 Q 241.1 381.4, 241.8 381.1 Q 242.5 380.8, 243.3 380.8 M 242.9 386.7 Q 243.5 386.7, 244.0 386.4 Q 244.6 386.1, 244.8 385.5 Q 245.1 384.9, 245.1 384.3 Q 245.1 383.2, 244.6 382.7 Q 244.0 382.1, 243.0 382.1 Q 242.3 382.1, 241.6 382.4 Q 241.0 382.7, 240.5 383.1 Q 240.6 385.0, 241.1 385.9 Q 241.7 386.7, 242.9 386.7 " fill="#000000"/>
<path class="legend" d="M 248.2 386.6 L 250.7 386.6 L 250.7 378.1 L 248.0 379.0 L 247.6 378.0 L 251.1 376.5 L 252.2 376.7 L 252.2 386.6 L 254.4 386.6 L 254.4 387.9 L 248.2 387.9 L 248.2 386.6 " fill="#000000"/>
<path class="legend" d="M 259.2 380.8 Q 260.2 380.8, 261.0 381.2 Q 261.9 381.6, 262.3 382.4 Q 262.8 383.2, 262.8 384.3 Q 262.8 385.5, 262.2 386.3 Q 261.6 387.2, 260.7 387.6 Q 259.8 388.0, 258.7 388.0 Q 257.7 388.0, 256.7 387.6 Q 255.8 387.2, 255.1 386.5 L 256.1 385.5 Q 256.6 386.1, 257.3 386.4 Q 258.0 386.7, 258.8 386.7 Q 259.8 386.7, 260.5 386.1 Q 261.2 385.5, 261.2 384.3 Q 261.2 383.1, 260.5 382.6 Q 259.8 382.0, 258.7 382.0 Q 257.7 382.0, 256.6 382.4 L 255.7 382.0 L 256.3 376.6 L 262.1 376.6 L 261.9 377.8 L 257.6 377.8 L 257.2 381.2 Q 258.2 380.8, 259.2 380.8 " fill="#000000"/>
<path class="bond-0 atom-0 atom-1" d="M 525.0,245.6 L 545.2,224.7" style="fill:none;fill-rule:evenodd;stroke:#000000;stroke-width:2.0px;stroke-linecap:butt;stroke-linejoin:miter;stroke-opacity:1"/>
<path class="bond-0 atom-0 atom-1" d="M 529.2,249.6 L 549.4,228.7" style="fill:none;fill-rule:evenodd;stroke:#000000;stroke-width:2.0px;stroke-linecap:butt;stroke-linejoin:miter;stroke-opacity:1"/>
<path class="bond-1 atom-1 atom-2" d="M 547.3,226.7 L 575.5,233.7" style="fill:none;fill-rule:evenodd;stroke:#000000;stroke-width:2.0px;stroke-linecap:butt;stroke-linejoin:miter;stroke-opacity:1"/>
<path class="bond-2 atom-2 atom-3" d="M 575.5,233.7 L 583.2,225.7" style="fill:none;fill-rule:evenodd;stroke:#000000;stroke-width:2.0px;stroke-linecap:butt;stroke-linejoin:miter;stroke-opacity:1"/>
<path class="bond-2 atom-2 atom-3" d="M 583.2,225.7 L 591.0,217.7" style="fill:none;fill-rule:evenodd;stroke:#FF0000;stroke-width:2.0px;stroke-linecap:butt;stroke-linejoin:miter;stroke-opacity:1"/>
<path class="bond-3 atom-3 atom-4" d="M 600.4,214.0 L 612.2,216.9" style="fill:none;fill-rule:evenodd;stroke:#FF0000;stroke-width:2.0px;stroke-linecap:butt;stroke-linejoin:miter;stroke-opacity:1"/>
<path class="bond-3 atom-3 atom-4" d="M 612.2,216.9 L 623.9,219.9" style="fill:none;fill-rule:evenodd;stroke:#000000;stroke-width:2.0px;stroke-linecap:butt;stroke-linejoin:miter;stroke-opacity:1"/>
<path class="bond-4 atom-4 atom-5" d="M 626.7,219.1 L 630.0,230.5" style="fill:none;fill-rule:evenodd;stroke:#000000;stroke-width:2.0px;stroke-linecap:butt;stroke-linejoin:miter;stroke-opacity:1"/>
<path class="bond-4 atom-4 atom-5" d="M 630.0,230.5 L 633.2,241.9" style="fill:none;fill-rule:evenodd;stroke:#FF0000;stroke-width:2.0px;stroke-linecap:butt;stroke-linejoin:miter;stroke-opacity:1"/>
<path class="bond-4 atom-4 atom-5" d="M 621.1,220.7 L 624.4,232.1" style="fill:none;fill-rule:evenodd;stroke:#000000;stroke-width:2.0px;stroke-linecap:butt;stroke-linejoin:miter;stroke-opacity:1"/>
<path class="bond-4 atom-4 atom-5" d="M 624.4,232.1 L 627.6,243.5" style="fill:none;fill-rule:evenodd;stroke:#FF0000;stroke-width:2.0px;stroke-linecap:butt;stroke-linejoin:miter;stroke-opacity:1"/>
<path class="bond-5 atom-4 atom-6" d="M 623.9,219.9 L 644.1,199.0" style="fill:none;fill-rule:evenodd;stroke:#000000;stroke-width:2.0px;stroke-linecap:butt;stroke-linejoin:miter;stroke-opacity:1"/>
<path class="bond-6 atom-6 atom-7" d="M 644.1,199.0 L 636.1,171.0" style="fill:none;fill-rule:evenodd;stroke:#000000;stroke-width:2.0px;stroke-linecap:butt;stroke-linejoin:miter;stroke-opacity:1"/>
<path class="bond-6 atom-6 atom-7" d="M 648.5,193.2 L 642.9,173.6" style="fill:none;fill-rule:evenodd;stroke:#000000;stroke-width:2.0px;stroke-linecap:butt;stroke-linejoin:miter;stroke-opacity:1"/>
<path class="bond-7 atom-7 atom-8" d="M 636.1,171.0 L 656.3,150.1" style="fill:none;fill-rule:evenodd;stroke:#000000;stroke-width:2.0px;stroke-linecap:butt;stroke-linejoin:miter;stroke-opacity:1"/>
<path class="bond-8 atom-8 atom-9" d="M 656.3,150.1 L 684.5,157.1" style="fill:none;fill-rule:evenodd;stroke:#000000;stroke-width:2.0px;stroke-linecap:butt;stroke-linejoin:miter;stroke-opacity:1"/>
<path class="bond-8 atom-8 atom-9" d="M 659.1,156.8 L 678.8,161.7" style="fill:none;fill-rule:evenodd;stroke:#000000;stroke-width:2.0px;stroke-linecap:butt;stroke-linejoin:miter;stroke-opacity:1"/>
<path class="bond-9 atom-9 atom-10" d="M 684.5,157.1 L 692.5,148.8" style="fill:none;fill-rule:evenodd;stroke:#000000;stroke-width:2.0px;stroke-linecap:butt;stroke-linejoin:miter;stroke-opacity:1"/>
<path class="bond-9 atom-9 atom-10" d="M 692.5,148.8 L 700.6,140.5" style="fill:none;fill-rule:evenodd;stroke:#0000FF;stroke-width:2.0px;stroke-linecap:butt;stroke-linejoin:miter;stroke-opacity:1"/>
<path class="bond-10 atom-10 atom-11" d="M 708.7,137.3 L 720.8,140.3" style="fill:none;fill-rule:evenodd;stroke:#0000FF;stroke-width:2.0px;stroke-linecap:butt;stroke-linejoin:miter;stroke-opacity:1"/>
<path class="bond-10 atom-10 atom-11" d="M 720.8,140.3 L 732.8,143.3" style="fill:none;fill-rule:evenodd;stroke:#000000;stroke-width:2.0px;stroke-linecap:butt;stroke-linejoin:miter;stroke-opacity:1"/>
<path class="bond-11 atom-10 atom-12" d="M 703.2,131.2 L 699.9,119.7" style="fill:none;fill-rule:evenodd;stroke:#0000FF;stroke-width:2.0px;stroke-linecap:butt;stroke-linejoin:miter;stroke-opacity:1"/>
<path class="bond-11 atom-10 atom-12" d="M 699.9,119.7 L 696.6,108.3" style="fill:none;fill-rule:evenodd;stroke:#000000;stroke-width:2.0px;stroke-linecap:butt;stroke-linejoin:miter;stroke-opacity:1"/>
<path class="bond-12 atom-9 atom-13" d="M 684.5,157.1 L 692.5,185.1" style="fill:none;fill-rule:evenodd;stroke:#000000;stroke-width:2.0px;stroke-linecap:butt;stroke-linejoin:miter;stroke-opacity:1"/>
<path class="bond-13 atom-13 atom-14" d="M 692.5,185.1 L 672.3,206.0" style="fill:none;fill-rule:evenodd;stroke:#000000;stroke-width:2.0px;stroke-linecap:butt;stroke-linejoin:miter;stroke-opacity:1"/>
<path class="bond-13 atom-13 atom-14" d="M 685.2,184.2 L 671.1,198.8" style="fill:none;fill-rule:evenodd;stroke:#000000;stroke-width:2.0px;stroke-linecap:butt;stroke-linejoin:miter;stroke-opacity:1"/>
<path class="bond-14 atom-1 atom-15" d="M 547.3,226.7 L 539.3,198.8" style="fill:none;fill-rule:evenodd;stroke:#000000;stroke-width:2.0px;stroke-linecap:butt;stroke-linejoin:miter;stroke-opacity:1"/>
<path class="bond-15 atom-15 atom-16" d="M 539.3,198.8 L 527.6,195.8" style="fill:none;fill-rule:evenodd;stroke:#000000;stroke-width:2.0px;stroke-linecap:butt;stroke-linejoin:miter;stroke-opacity:1"/>
<path class="bond-15 atom-15 atom-16" d="M 527.6,195.8 L 515.9,192.9" style="fill:none;fill-rule:evenodd;stroke:#FF0000;stroke-width:2.0px;stroke-linecap:butt;stroke-linejoin:miter;stroke-opacity:1"/>
<path class="bond-16 atom-16 atom-17" d="M 509.6,186.6 L 507.1,177.8" style="fill:none;fill-rule:evenodd;stroke:#FF0000;stroke-width:2.0px;stroke-linecap:butt;stroke-linejoin:miter;stroke-opacity:1"/>
<path class="bond-16 atom-16 atom-17" d="M 507.1,177.8 L 504.6,169.1" style="fill:none;fill-rule:evenodd;stroke:#000000;stroke-width:2.0px;stroke-linecap:butt;stroke-linejoin:miter;stroke-opacity:1"/>
<path class="bond-17 atom-17 atom-18" d="M 498.7,165.1 L 475.2,171.8" style="fill:none;fill-rule:evenodd;stroke:#000000;stroke-width:2.0px;stroke-linecap:butt;stroke-linejoin:miter;stroke-opacity:1"/>
<path class="bond-18 atom-17 atom-19" d="M 507.5,162.5 L 531.0,155.8" style="fill:none;fill-rule:evenodd;stroke:#000000;stroke-width:2.0px;stroke-linecap:butt;stroke-linejoin:miter;stroke-opacity:1"/>
<path class="bond-19 atom-17 atom-20" d="M 501.7,158.7 L 495.1,135.9" style="fill:none;fill-rule:evenodd;stroke:#000000;stroke-width:2.0px;stroke-linecap:butt;stroke-linejoin:miter;stroke-opacity:1"/>
<path class="bond-20 atom-20 atom-21" d="M 495.1,135.9 L 523.0,127.9" style="fill:none;fill-rule:evenodd;stroke:#000000;stroke-width:2.0px;stroke-linecap:butt;stroke-linejoin:miter;stroke-opacity:1"/>
<path class="bond-21 atom-20 atom-22" d="M 495.1,135.9 L 467.2,143.9" style="fill:none;fill-rule:evenodd;stroke:#000000;stroke-width:2.0px;stroke-linecap:butt;stroke-linejoin:miter;stroke-opacity:1"/>
<path class="bond-22 atom-20 atom-23" d="M 495.1,135.9 L 487.1,107.9" style="fill:none;fill-rule:evenodd;stroke:#000000;stroke-width:2.0px;stroke-linecap:butt;stroke-linejoin:miter;stroke-opacity:1"/>
<path class="bond-23 atom-14 atom-6" d="M 672.3,206.0 L 644.1,199.0" style="fill:none;fill-rule:evenodd;stroke:#000000;stroke-width:2.0px;stroke-linecap:butt;stroke-linejoin:miter;stroke-opacity:1"/>
<path class="atom-3" d="M 591.9 212.8 Q 591.9 210.9, 592.9 209.8 Q 593.9 208.7, 595.7 208.7 Q 597.5 208.7, 598.5 209.8 Q 599.5 210.9, 599.5 212.8 Q 599.5 214.8, 598.5 216.0 Q 597.5 217.1, 595.7 217.1 Q 593.9 217.1, 592.9 216.0 Q 591.9 214.9, 591.9 212.8 M 595.7 216.2 Q 597.0 216.2, 597.6 215.3 Q 598.3 214.5, 598.3 212.8 Q 598.3 211.2, 597.6 210.4 Q 597.0 209.6, 595.7 209.6 Q 594.4 209.6, 593.8 210.4 Q 593.1 211.2, 593.1 212.8 Q 593.1 214.5, 593.8 215.3 Q 594.4 216.2, 595.7 216.2 " fill="#FF0000"/>
<path class="atom-5" d="M 628.1 247.8 Q 628.1 245.8, 629.1 244.7 Q 630.1 243.6, 631.9 243.6 Q 633.7 243.6, 634.7 244.7 Q 635.7 245.8, 635.7 247.8 Q 635.7 249.8, 634.7 250.9 Q 633.7 252.1, 631.9 252.1 Q 630.1 252.1, 629.1 250.9 Q 628.1 249.8, 628.1 247.8 M 631.9 251.1 Q 633.2 251.1, 633.8 250.3 Q 634.5 249.5, 634.5 247.8 Q 634.5 246.2, 633.8 245.4 Q 633.2 244.6, 631.9 244.6 Q 630.6 244.6, 630.0 245.4 Q 629.3 246.2, 629.3 247.8 Q 629.3 249.5, 630.0 250.3 Q 630.6 251.1, 631.9 251.1 " fill="#FF0000"/>
<path class="atom-10" d="M 702.8 132.1 L 705.5 136.5 Q 705.8 136.9, 706.2 137.7 Q 706.6 138.5, 706.7 138.5 L 706.7 132.1 L 707.8 132.1 L 707.8 140.4 L 706.6 140.4 L 703.7 135.6 Q 703.4 135.0, 703.0 134.4 Q 702.7 133.8, 702.6 133.6 L 702.6 140.4 L 701.5 140.4 L 701.5 132.1 L 702.8 132.1 " fill="#0000FF"/>
<path class="atom-16" d="M 507.3 191.7 Q 507.3 189.8, 508.3 188.7 Q 509.3 187.6, 511.1 187.6 Q 512.9 187.6, 513.9 188.7 Q 514.9 189.8, 514.9 191.7 Q 514.9 193.7, 513.9 194.9 Q 512.9 196.0, 511.1 196.0 Q 509.3 196.0, 508.3 194.9 Q 507.3 193.8, 507.3 191.7 M 511.1 195.1 Q 512.4 195.1, 513.0 194.2 Q 513.7 193.4, 513.7 191.7 Q 513.7 190.1, 513.0 189.3 Q 512.4 188.5, 511.1 188.5 Q 509.9 188.5, 509.2 189.3 Q 508.5 190.1, 508.5 191.7 Q 508.5 193.4, 509.2 194.2 Q 509.9 195.1, 511.1 195.1 " fill="#FF0000"/>
<path class="atom-17" d="M 500.0 166.6 Q 500.1 166.7, 500.5 166.8 Q 500.8 167.0, 501.3 167.1 Q 501.7 167.2, 502.1 167.2 Q 502.9 167.2, 503.3 166.8 Q 503.8 166.4, 503.8 165.8 Q 503.8 165.3, 503.6 165.0 Q 503.3 164.8, 503.0 164.6 Q 502.6 164.5, 502.1 164.3 Q 501.3 164.1, 500.9 163.9 Q 500.5 163.6, 500.1 163.2 Q 499.8 162.8, 499.8 162.0 Q 499.8 161.0, 500.5 160.3 Q 501.2 159.7, 502.6 159.7 Q 503.6 159.7, 504.7 160.2 L 504.4 161.0 Q 503.4 160.6, 502.7 160.6 Q 501.9 160.6, 501.4 161.0 Q 501.0 161.3, 501.0 161.9 Q 501.0 162.3, 501.2 162.6 Q 501.5 162.9, 501.8 163.0 Q 502.1 163.2, 502.7 163.3 Q 503.4 163.6, 503.9 163.8 Q 504.3 164.0, 504.6 164.5 Q 504.9 165.0, 504.9 165.8 Q 504.9 166.9, 504.2 167.5 Q 503.4 168.1, 502.2 168.1 Q 501.4 168.1, 500.9 168.0 Q 500.3 167.8, 499.7 167.5 L 500.0 166.6 " fill="#000000"/>
<path class="atom-17" d="M 505.5 159.7 L 506.6 159.7 L 506.6 160.7 L 505.5 160.7 L 505.5 159.7 M 505.5 161.9 L 506.6 161.9 L 506.6 167.9 L 505.5 167.9 L 505.5 161.9 " fill="#000000"/>
<path class="legend" d="M 567.6 365.4 L 567.8 366.5 Q 568.6 365.3, 570.0 365.3 Q 570.5 365.3, 571.1 365.4 L 570.8 366.8 Q 570.2 366.6, 569.8 366.6 Q 569.1 366.6, 568.7 366.9 Q 568.2 367.1, 567.9 367.8 L 567.9 373.6 L 566.4 373.6 L 566.4 365.4 L 567.6 365.4 " fill="#000000"/>
<path class="legend" d="M 571.3 369.5 Q 571.3 367.5, 572.3 366.4 Q 573.3 365.3, 575.2 365.3 Q 577.0 365.3, 577.8 366.4 Q 578.6 367.4, 578.6 369.5 L 578.6 369.7 L 572.9 369.7 Q 572.9 371.1, 573.5 371.8 Q 574.1 372.6, 575.3 372.6 Q 576.0 372.6, 576.5 372.4 Q 577.1 372.3, 577.9 372.0 L 578.3 373.0 Q 577.5 373.4, 576.7 373.6 Q 576.0 373.8, 575.2 373.8 Q 573.4 373.8, 572.4 372.6 Q 571.3 371.5, 571.3 369.5 M 575.2 366.4 Q 574.2 366.4, 573.7 367.0 Q 573.1 367.5, 572.9 368.6 L 577.0 368.6 Q 576.9 367.5, 576.5 367.0 Q 576.0 366.4, 575.2 366.4 " fill="#000000"/>
<path class="legend" d="M 579.2 371.4 Q 579.2 370.1, 580.3 369.4 Q 581.3 368.7, 583.3 368.7 L 584.5 368.7 L 584.5 368.3 Q 584.5 367.3, 584.0 366.9 Q 583.6 366.4, 582.6 366.4 Q 582.0 366.4, 581.4 366.6 Q 580.9 366.7, 580.1 367.0 L 579.7 366.0 Q 581.2 365.3, 582.6 365.3 Q 584.4 365.3, 585.2 366.0 Q 586.0 366.8, 586.0 368.4 L 586.0 373.6 L 584.8 373.6 Q 584.8 373.6, 584.8 373.3 Q 584.7 373.1, 584.6 372.7 Q 583.5 373.8, 581.9 373.8 Q 580.7 373.8, 580.0 373.2 Q 579.2 372.5, 579.2 371.4 M 580.7 371.4 Q 580.7 372.0, 581.1 372.3 Q 581.5 372.6, 582.2 372.6 Q 582.8 372.6, 583.5 372.4 Q 584.1 372.0, 584.5 371.5 L 584.5 369.8 L 583.4 369.8 Q 582.0 369.8, 581.4 370.2 Q 580.7 370.6, 580.7 371.4 " fill="#000000"/>
<path class="legend" d="M 587.2 369.5 Q 587.2 367.5, 588.2 366.4 Q 589.2 365.3, 591.2 365.3 Q 593.0 365.3, 594.0 366.6 L 593.0 367.4 Q 592.6 366.9, 592.2 366.7 Q 591.7 366.4, 591.2 366.4 Q 590.0 366.4, 589.4 367.2 Q 588.8 368.0, 588.8 369.5 Q 588.8 371.0, 589.4 371.8 Q 590.0 372.6, 591.2 372.6 Q 591.9 372.6, 592.4 372.4 Q 592.8 372.3, 593.4 372.0 L 593.8 373.0 Q 592.7 373.7, 591.1 373.7 Q 589.2 373.7, 588.2 372.6 Q 587.2 371.5, 587.2 369.5 " fill="#000000"/>
<path class="legend" d="M 594.4 366.6 L 594.4 365.4 L 596.0 365.4 L 596.2 363.0 L 597.3 363.0 L 597.3 365.4 L 599.8 365.4 L 599.8 366.6 L 597.3 366.6 L 597.3 371.1 Q 597.3 372.5, 598.5 372.5 Q 599.0 372.5, 599.7 372.3 L 600.0 373.4 Q 599.1 373.7, 598.3 373.7 Q 597.2 373.7, 596.5 373.1 Q 595.8 372.4, 595.8 371.2 L 595.8 366.6 L 594.4 366.6 " fill="#000000"/>
<path class="legend" d="M 608.5 374.4 L 608.5 375.7 L 600.4 375.7 L 600.4 374.4 L 608.5 374.4 " fill="#000000"/>
<path class="legend" d="M 614.5 363.6 L 608.5 363.6 L 608.5 362.3 L 616.0 362.3 L 616.0 363.4 L 611.5 373.6 L 609.9 373.6 L 614.5 363.6 " fill="#000000"/>
<path class="legend" d="M 623.9 369.7 L 625.2 369.7 L 625.2 371.0 L 623.9 371.0 L 623.9 373.6 L 622.4 373.6 L 622.4 371.0 L 616.5 371.0 L 616.5 370.0 L 621.5 362.3 L 623.9 362.3 L 623.9 369.7 M 618.4 369.7 L 622.4 369.7 L 622.4 363.3 L 618.4 369.7 " fill="#000000"/>
<path class="legend" d="M 631.5 367.7 Q 632.6 368.0, 633.1 368.7 Q 633.6 369.4, 633.6 370.5 Q 633.6 371.5, 633.2 372.2 Q 632.7 373.0, 631.8 373.4 Q 630.9 373.8, 629.8 373.8 Q 628.5 373.8, 627.6 373.4 Q 626.7 372.9, 626.0 372.1 L 626.9 371.2 Q 627.6 371.9, 628.2 372.2 Q 628.8 372.5, 629.8 372.5 Q 630.8 372.5, 631.4 372.0 Q 632.0 371.4, 632.0 370.5 Q 632.0 369.4, 631.4 368.8 Q 630.7 368.3, 629.3 368.3 L 628.5 368.3 L 628.5 367.2 L 629.2 367.2 Q 630.5 367.2, 631.1 366.6 Q 631.8 366.1, 631.8 365.1 Q 631.8 364.3, 631.2 363.9 Q 630.7 363.5, 629.8 363.5 Q 628.8 363.5, 628.2 363.8 Q 627.7 364.1, 627.2 365.0 L 626.1 364.4 Q 626.5 363.4, 627.5 362.8 Q 628.4 362.2, 629.8 362.2 Q 631.4 362.2, 632.4 363.0 Q 633.4 363.7, 633.4 365.1 Q 633.4 366.0, 632.9 366.6 Q 632.4 367.3, 631.5 367.7 " fill="#000000"/>
<path class="legend" d="M 535.5 383.8 Q 535.5 381.8, 536.5 380.7 Q 537.5 379.5, 539.5 379.5 Q 541.3 379.5, 542.3 380.9 L 541.3 381.6 Q 540.9 381.2, 540.5 380.9 Q 540.0 380.7, 539.5 380.7 Q 538.3 380.7, 537.7 381.5 Q 537.1 382.3, 537.1 383.8 Q 537.1 385.3, 537.7 386.1 Q 538.4 386.8, 539.6 386.8 Q 540.2 386.8, 540.7 386.7 Q 541.2 386.5, 541.7 386.3 L 542.1 387.3 Q 541.0 388.0, 539.4 388.0 Q 537.5 388.0, 536.5 386.9 Q 535.5 385.7, 535.5 383.8 " fill="#000000"/>
<path class="legend" d="M 542.7 383.8 Q 542.7 381.7, 543.7 380.6 Q 544.7 379.5, 546.5 379.5 Q 548.4 379.5, 549.2 380.6 Q 550.0 381.7, 550.0 383.7 L 550.0 384.0 L 544.2 384.0 Q 544.3 385.4, 544.9 386.1 Q 545.5 386.8, 546.7 386.8 Q 547.3 386.8, 547.9 386.7 Q 548.5 386.5, 549.2 386.2 L 549.7 387.2 Q 548.8 387.6, 548.1 387.8 Q 547.4 388.0, 546.6 388.0 Q 544.7 388.0, 543.7 386.9 Q 542.7 385.8, 542.7 383.8 M 546.5 380.7 Q 545.6 380.7, 545.0 381.2 Q 544.5 381.8, 544.3 382.8 L 548.4 382.8 Q 548.3 381.7, 547.8 381.2 Q 547.4 380.7, 546.5 380.7 " fill="#000000"/>
<path class="legend" d="M 554.9 379.5 Q 556.2 379.5, 556.9 380.3 Q 557.6 381.0, 557.6 382.4 L 557.6 387.9 L 556.1 387.9 L 556.1 382.6 Q 556.1 381.6, 555.7 381.2 Q 555.3 380.7, 554.5 380.7 Q 553.7 380.7, 553.1 381.1 Q 552.5 381.4, 552.1 382.0 L 552.1 387.9 L 550.6 387.9 L 550.6 379.7 L 551.8 379.7 L 552.0 380.8 Q 553.1 379.5, 554.9 379.5 " fill="#000000"/>
<path class="legend" d="M 558.8 380.8 L 558.8 379.7 L 560.4 379.7 L 560.6 377.3 L 561.7 377.3 L 561.7 379.7 L 564.3 379.7 L 564.3 380.8 L 561.7 380.8 L 561.7 385.4 Q 561.7 386.8, 562.9 386.8 Q 563.4 386.8, 564.1 386.6 L 564.4 387.6 Q 563.5 388.0, 562.7 388.0 Q 561.6 388.0, 560.9 387.3 Q 560.2 386.7, 560.2 385.4 L 560.2 380.8 L 558.8 380.8 " fill="#000000"/>
<path class="legend" d="M 572.9 388.7 L 572.9 390.0 L 564.8 390.0 L 564.8 388.7 L 572.9 388.7 " fill="#000000"/>
<path class="legend" d="M 580.4 375.7 L 580.4 387.9 L 579.2 387.9 L 579.0 386.9 Q 578.1 388.0, 576.6 388.0 Q 574.9 388.0, 573.9 387.0 Q 572.9 385.9, 572.9 383.9 Q 572.9 381.8, 574.1 380.7 Q 575.2 379.5, 577.2 379.5 Q 578.0 379.5, 578.9 379.7 L 578.9 375.7 L 580.4 375.7 M 576.7 386.8 Q 577.5 386.8, 578.1 386.4 Q 578.7 385.9, 578.9 385.1 L 578.9 380.9 Q 578.1 380.7, 577.2 380.7 Q 575.9 380.7, 575.2 381.6 Q 574.5 382.4, 574.5 383.9 Q 574.5 385.3, 575.0 386.1 Q 575.6 386.8, 576.7 386.8 " fill="#000000"/>
<path class="legend" d="M 581.7 376.6 L 583.2 376.6 L 583.2 378.0 L 581.7 378.0 L 581.7 376.6 M 581.7 379.7 L 583.2 379.7 L 583.2 387.9 L 581.7 387.9 L 581.7 379.7 " fill="#000000"/>
<path class="legend" d="M 585.0 386.2 Q 585.7 386.5, 586.2 386.6 Q 586.8 386.8, 587.3 386.8 Q 588.1 386.8, 588.5 386.5 Q 588.9 386.2, 588.9 385.6 Q 588.9 385.2, 588.6 385.0 Q 588.4 384.8, 588.2 384.6 Q 587.9 384.5, 587.2 384.3 Q 587.1 384.3, 586.3 384.0 Q 585.6 383.7, 585.2 383.2 Q 584.8 382.7, 584.8 381.9 Q 584.8 380.9, 585.6 380.2 Q 586.4 379.5, 587.8 379.5 Q 588.5 379.5, 589.0 379.7 Q 589.6 379.8, 590.2 380.0 L 589.8 381.2 Q 589.3 381.0, 588.8 380.9 Q 588.3 380.8, 587.8 380.8 Q 587.1 380.8, 586.7 381.1 Q 586.3 381.4, 586.3 381.8 Q 586.3 382.3, 586.6 382.5 Q 586.9 382.7, 587.6 383.0 Q 587.8 383.0, 587.9 383.1 L 588.3 383.2 Q 589.0 383.4, 589.4 383.7 Q 589.8 383.9, 590.1 384.4 Q 590.4 384.8, 590.4 385.6 Q 590.4 386.7, 589.5 387.4 Q 588.7 388.0, 587.3 388.0 Q 586.6 388.0, 585.9 387.9 Q 585.2 387.7, 584.5 387.4 L 585.0 386.2 " fill="#000000"/>
<path class="legend" d="M 591.2 380.8 L 591.2 379.7 L 592.8 379.7 L 593.0 377.3 L 594.2 377.3 L 594.2 379.7 L 596.7 379.7 L 596.7 380.8 L 594.2 380.8 L 594.2 385.4 Q 594.2 386.8, 595.4 386.8 Q 595.8 386.8, 596.5 386.6 L 596.8 387.6 Q 595.9 388.0, 595.1 388.0 Q 594.0 388.0, 593.3 387.3 Q 592.7 386.7, 592.7 385.4 L 592.7 380.8 L 591.2 380.8 " fill="#000000"/>
<path class="legend" d="" fill="#000000"/>
<path class="legend" d="M 602.5 380.9 L 609.9 380.9 L 609.9 382.1 L 602.5 382.1 L 602.5 380.9 M 602.5 384.4 L 609.9 384.4 L 609.9 385.5 L 602.5 385.5 L 602.5 384.4 " fill="#000000"/>
<path class="legend" d="" fill="#000000"/>
<path class="legend" d="M 620.8 388.0 Q 618.7 388.0, 617.7 386.5 Q 616.7 384.9, 616.7 382.2 Q 616.7 379.5, 617.7 378.0 Q 618.7 376.4, 620.8 376.4 Q 622.9 376.4, 623.9 378.0 Q 624.9 379.5, 624.9 382.2 Q 624.9 384.9, 623.9 386.5 Q 622.9 388.0, 620.8 388.0 M 620.8 386.7 Q 622.0 386.7, 622.7 385.6 Q 623.3 384.4, 623.3 382.2 Q 623.3 380.0, 622.7 378.8 Q 622.0 377.7, 620.8 377.7 Q 619.6 377.7, 618.9 378.8 Q 618.3 380.0, 618.3 382.2 Q 618.3 384.4, 618.9 385.6 Q 619.6 386.7, 620.8 386.7 " fill="#000000"/>
<path class="legend" d="M 626.0 386.3 L 627.6 386.3 L 627.6 387.9 L 626.0 387.9 L 626.0 386.3 " fill="#000000"/>
<path class="legend" d="M 636.0 384.0 L 637.3 384.0 L 637.3 385.3 L 636.0 385.3 L 636.0 387.9 L 634.5 387.9 L 634.5 385.3 L 628.6 385.3 L 628.6 384.3 L 633.6 376.6 L 636.0 376.6 L 636.0 384.0 M 630.5 384.0 L 634.5 384.0 L 634.5 377.6 L 630.5 384.0 " fill="#000000"/>
<path class="legend" d="M 645.5 384.0 L 646.8 384.0 L 646.8 385.3 L 645.5 385.3 L 645.5 387.9 L 644.0 387.9 L 644.0 385.3 L 638.1 385.3 L 638.1 384.3 L 643.1 376.6 L 645.5 376.6 L 645.5 384.0 M 640.0 384.0 L 644.0 384.0 L 644.0 377.6 L 640.0 384.0 " fill="#000000"/>
<path class="legend" d="M 653.1 381.9 Q 654.2 382.2, 654.7 383.0 Q 655.2 383.7, 655.2 384.8 Q 655.2 385.7, 654.8 386.5 Q 654.3 387.2, 653.4 387.6 Q 652.5 388.0, 651.4 388.0 Q 650.2 388.0, 649.2 387.6 Q 648.3 387.2, 647.6 386.3 L 648.5 385.4 Q 649.2 386.2, 649.8 386.5 Q 650.4 386.8, 651.4 386.8 Q 652.4 386.8, 653.0 386.2 Q 653.6 385.7, 653.6 384.8 Q 653.6 383.6, 653.0 383.1 Q 652.3 382.6, 651.0 382.6 L 650.1 382.6 L 650.1 381.4 L 650.9 381.4 Q 652.1 381.4, 652.7 380.9 Q 653.4 380.3, 653.4 379.3 Q 653.4 378.6, 652.9 378.2 Q 652.3 377.7, 651.4 377.7 Q 650.4 377.7, 649.9 378.0 Q 649.3 378.4, 648.8 379.2 L 647.7 378.6 Q 648.1 377.7, 649.1 377.1 Q 650.0 376.4, 651.4 376.4 Q 653.1 376.4, 654.0 377.2 Q 655.0 378.0, 655.0 379.3 Q 655.0 380.2, 654.5 380.9 Q 654.0 381.6, 653.1 381.9 " fill="#000000"/>
<path class="legend" d="M 660.3 388.0 Q 658.3 388.0, 657.2 386.5 Q 656.2 384.9, 656.2 382.2 Q 656.2 379.5, 657.2 378.0 Q 658.2 376.4, 660.3 376.4 Q 662.4 376.4, 663.5 378.0 Q 664.5 379.5, 664.5 382.2 Q 664.5 384.9, 663.4 386.5 Q 662.4 388.0, 660.3 388.0 M 660.3 386.7 Q 661.6 386.7, 662.2 385.6 Q 662.9 384.4, 662.9 382.2 Q 662.9 380.0, 662.2 378.8 Q 661.6 377.7, 660.3 377.7 Q 659.1 377.7, 658.4 378.8 Q 657.8 380.0, 657.8 382.2 Q 657.8 384.4, 658.4 385.6 Q 659.1 386.7, 660.3 386.7 " fill="#000000"/>
<path class="bond-0 atom-0 atom-1" d="M 930.9,244.6 L 951.2,223.8" style="fill:none;fill-rule:evenodd;stroke:#000000;stroke-width:2.0px;stroke-linecap:butt;stroke-linejoin:miter;stroke-opacity:1"/>
<path class="bond-0 atom-0 atom-1" d="M 935.1,248.6 L 955.4,227.9" style="fill:none;fill-rule:evenodd;stroke:#000000;stroke-width:2.0px;stroke-linecap:butt;stroke-linejoin:miter;stroke-opacity:1"/>
<path class="bond-1 atom-1 atom-2" d="M 953.3,225.8 L 981.5,233.0" style="fill:none;fill-rule:evenodd;stroke:#000000;stroke-width:2.0px;stroke-linecap:butt;stroke-linejoin:miter;stroke-opacity:1"/>
<path class="bond-2 atom-2 atom-3" d="M 981.5,233.0 L 989.3,225.1" style="fill:none;fill-rule:evenodd;stroke:#000000;stroke-width:2.0px;stroke-linecap:butt;stroke-linejoin:miter;stroke-opacity:1"/>
<path class="bond-2 atom-2 atom-3" d="M 989.3,225.1 L 997.0,217.1" style="fill:none;fill-rule:evenodd;stroke:#FF0000;stroke-width:2.0px;stroke-linecap:butt;stroke-linejoin:miter;stroke-opacity:1"/>
<path class="bond-3 atom-3 atom-4" d="M 1006.5,213.4 L 1018.2,216.4" style="fill:none;fill-rule:evenodd;stroke:#FF0000;stroke-width:2.0px;stroke-linecap:butt;stroke-linejoin:miter;stroke-opacity:1"/>
<path class="bond-3 atom-3 atom-4" d="M 1018.2,216.4 L 1029.9,219.4" style="fill:none;fill-rule:evenodd;stroke:#000000;stroke-width:2.0px;stroke-linecap:butt;stroke-linejoin:miter;stroke-opacity:1"/>
<path class="bond-4 atom-4 atom-5" d="M 1032.7,218.6 L 1035.9,230.1" style="fill:none;fill-rule:evenodd;stroke:#000000;stroke-width:2.0px;stroke-linecap:butt;stroke-linejoin:miter;stroke-opacity:1"/>
<path class="bond-4 atom-4 atom-5" d="M 1035.9,230.1 L 1039.1,241.5" style="fill:none;fill-rule:evenodd;stroke:#FF0000;stroke-width:2.0px;stroke-linecap:butt;stroke-linejoin:miter;stroke-opacity:1"/>
<path class="bond-4 atom-4 atom-5" d="M 1027.1,220.2 L 1030.3,231.6" style="fill:none;fill-rule:evenodd;stroke:#000000;stroke-width:2.0px;stroke-linecap:butt;stroke-linejoin:miter;stroke-opacity:1"/>
<path class="bond-4 atom-4 atom-5" d="M 1030.3,231.6 L 1033.5,243.1" style="fill:none;fill-rule:evenodd;stroke:#FF0000;stroke-width:2.0px;stroke-linecap:butt;stroke-linejoin:miter;stroke-opacity:1"/>
<path class="bond-5 atom-4 atom-6" d="M 1029.9,219.4 L 1050.2,198.6" style="fill:none;fill-rule:evenodd;stroke:#000000;stroke-width:2.0px;stroke-linecap:butt;stroke-linejoin:miter;stroke-opacity:1"/>
<path class="bond-6 atom-6 atom-7" d="M 1050.2,198.6 L 1042.4,170.7" style="fill:none;fill-rule:evenodd;stroke:#000000;stroke-width:2.0px;stroke-linecap:butt;stroke-linejoin:miter;stroke-opacity:1"/>
<path class="bond-6 atom-6 atom-7" d="M 1054.6,192.9 L 1049.2,173.3" style="fill:none;fill-rule:evenodd;stroke:#000000;stroke-width:2.0px;stroke-linecap:butt;stroke-linejoin:miter;stroke-opacity:1"/>
<path class="bond-7 atom-7 atom-8" d="M 1042.4,170.7 L 1062.7,149.9" style="fill:none;fill-rule:evenodd;stroke:#000000;stroke-width:2.0px;stroke-linecap:butt;stroke-linejoin:miter;stroke-opacity:1"/>
<path class="bond-8 atom-8 atom-9" d="M 1062.7,149.9 L 1090.8,157.1" style="fill:none;fill-rule:evenodd;stroke:#000000;stroke-width:2.0px;stroke-linecap:butt;stroke-linejoin:miter;stroke-opacity:1"/>
<path class="bond-8 atom-8 atom-9" d="M 1065.5,156.6 L 1085.2,161.6" style="fill:none;fill-rule:evenodd;stroke:#000000;stroke-width:2.0px;stroke-linecap:butt;stroke-linejoin:miter;stroke-opacity:1"/>
<path class="bond-9 atom-9 atom-10" d="M 1090.8,157.1 L 1099.0,148.8" style="fill:none;fill-rule:evenodd;stroke:#000000;stroke-width:2.0px;stroke-linecap:butt;stroke-linejoin:miter;stroke-opacity:1"/>
<path class="bond-9 atom-9 atom-10" d="M 1099.0,148.8 L 1107.1,140.5" style="fill:none;fill-rule:evenodd;stroke:#0000FF;stroke-width:2.0px;stroke-linecap:butt;stroke-linejoin:miter;stroke-opacity:1"/>
<path class="bond-10 atom-10 atom-11" d="M 1115.2,137.3 L 1127.3,140.4" style="fill:none;fill-rule:evenodd;stroke:#0000FF;stroke-width:2.0px;stroke-linecap:butt;stroke-linejoin:miter;stroke-opacity:1"/>
<path class="bond-10 atom-10 atom-11" d="M 1127.3,140.4 L 1139.3,143.5" style="fill:none;fill-rule:evenodd;stroke:#000000;stroke-width:2.0px;stroke-linecap:butt;stroke-linejoin:miter;stroke-opacity:1"/>
<path class="bond-11 atom-10 atom-12" d="M 1109.7,131.2 L 1106.5,119.8" style="fill:none;fill-rule:evenodd;stroke:#0000FF;stroke-width:2.0px;stroke-linecap:butt;stroke-linejoin:miter;stroke-opacity:1"/>
<path class="bond-11 atom-10 atom-12" d="M 1106.5,119.8 L 1103.3,108.3" style="fill:none;fill-rule:evenodd;stroke:#000000;stroke-width:2.0px;stroke-linecap:butt;stroke-linejoin:miter;stroke-opacity:1"/>
<path class="bond-12 atom-9 atom-13" d="M 1090.8,157.1 L 1098.7,185.0" style="fill:none;fill-rule:evenodd;stroke:#000000;stroke-width:2.0px;stroke-linecap:butt;stroke-linejoin:miter;stroke-opacity:1"/>
<path class="bond-13 atom-13 atom-14" d="M 1098.7,185.0 L 1078.4,205.8" style="fill:none;fill-rule:evenodd;stroke:#000000;stroke-width:2.0px;stroke-linecap:butt;stroke-linejoin:miter;stroke-opacity:1"/>
<path class="bond-13 atom-13 atom-14" d="M 1091.5,184.1 L 1077.3,198.7" style="fill:none;fill-rule:evenodd;stroke:#000000;stroke-width:2.0px;stroke-linecap:butt;stroke-linejoin:miter;stroke-opacity:1"/>
<path class="bond-14 atom-1 atom-15" d="M 953.3,225.8 L 945.5,197.9" style="fill:none;fill-rule:evenodd;stroke:#000000;stroke-width:2.0px;stroke-linecap:butt;stroke-linejoin:miter;stroke-opacity:1"/>
<path class="bond-15 atom-15 atom-16" d="M 945.5,197.9 L 933.8,194.9" style="fill:none;fill-rule:evenodd;stroke:#000000;stroke-width:2.0px;stroke-linecap:butt;stroke-linejoin:miter;stroke-opacity:1"/>
<path class="bond-15 atom-15 atom-16" d="M 933.8,194.9 L 922.1,191.9" style="fill:none;fill-rule:evenodd;stroke:#FF0000;stroke-width:2.0px;stroke-linecap:butt;stroke-linejoin:miter;stroke-opacity:1"/>
<path class="bond-16 atom-16 atom-17" d="M 915.9,185.5 L 913.4,176.8" style="fill:none;fill-rule:evenodd;stroke:#FF0000;stroke-width:2.0px;stroke-linecap:butt;stroke-linejoin:miter;stroke-opacity:1"/>
<path class="bond-16 atom-16 atom-17" d="M 913.4,176.8 L 911.0,168.0" style="fill:none;fill-rule:evenodd;stroke:#000000;stroke-width:2.0px;stroke-linecap:butt;stroke-linejoin:miter;stroke-opacity:1"/>
<path class="bond-17 atom-17 atom-18" d="M 905.1,163.9 L 881.5,170.5" style="fill:none;fill-rule:evenodd;stroke:#000000;stroke-width:2.0px;stroke-linecap:butt;stroke-linejoin:miter;stroke-opacity:1"/>
<path class="bond-18 atom-18 atom-19" d="M 881.5,170.5 L 860.7,150.2" style="fill:none;fill-rule:evenodd;stroke:#000000;stroke-width:2.0px;stroke-linecap:butt;stroke-linejoin:miter;stroke-opacity:1"/>
<path class="bond-19 atom-18 atom-20" d="M 881.5,170.5 L 874.3,198.7" style="fill:none;fill-rule:evenodd;stroke:#000000;stroke-width:2.0px;stroke-linecap:butt;stroke-linejoin:miter;stroke-opacity:1"/>
<path class="bond-20 atom-17 atom-21" d="M 913.9,161.4 L 937.4,154.8" style="fill:none;fill-rule:evenodd;stroke:#000000;stroke-width:2.0px;stroke-linecap:butt;stroke-linejoin:miter;stroke-opacity:1"/>
<path class="bond-21 atom-21 atom-22" d="M 937.4,154.8 L 944.6,126.7" style="fill:none;fill-rule:evenodd;stroke:#000000;stroke-width:2.0px;stroke-linecap:butt;stroke-linejoin:miter;stroke-opacity:1"/>
<path class="bond-22 atom-21 atom-23" d="M 937.4,154.8 L 958.2,175.1" style="fill:none;fill-rule:evenodd;stroke:#000000;stroke-width:2.0px;stroke-linecap:butt;stroke-linejoin:miter;stroke-opacity:1"/>
<path class="bond-23 atom-17 atom-24" d="M 908.0,157.6 L 901.6,134.7" style="fill:none;fill-rule:evenodd;stroke:#000000;stroke-width:2.0px;stroke-linecap:butt;stroke-linejoin:miter;stroke-opacity:1"/>
<path class="bond-24 atom-24 atom-25" d="M 901.6,134.7 L 921.9,113.9" style="fill:none;fill-rule:evenodd;stroke:#000000;stroke-width:2.0px;stroke-linecap:butt;stroke-linejoin:miter;stroke-opacity:1"/>
<path class="bond-25 atom-24 atom-26" d="M 901.6,134.7 L 873.5,127.5" style="fill:none;fill-rule:evenodd;stroke:#000000;stroke-width:2.0px;stroke-linecap:butt;stroke-linejoin:miter;stroke-opacity:1"/>
<path class="bond-26 atom-14 atom-6" d="M 1078.4,205.8 L 1050.2,198.6" style="fill:none;fill-rule:evenodd;stroke:#000000;stroke-width:2.0px;stroke-linecap:butt;stroke-linejoin:miter;stroke-opacity:1"/>
<path class="atom-3" d="M 998.0 212.3 Q 998.0 210.3, 999.0 209.2 Q 999.9 208.1, 1001.8 208.1 Q 1003.6 208.1, 1004.6 209.2 Q 1005.6 210.3, 1005.6 212.3 Q 1005.6 214.3, 1004.6 215.4 Q 1003.6 216.5, 1001.8 216.5 Q 1000.0 216.5, 999.0 215.4 Q 998.0 214.3, 998.0 212.3 M 1001.8 215.6 Q 1003.0 215.6, 1003.7 214.8 Q 1004.4 213.9, 1004.4 212.3 Q 1004.4 210.6, 1003.7 209.8 Q 1003.0 209.0, 1001.8 209.0 Q 1000.5 209.0, 999.8 209.8 Q 999.2 210.6, 999.2 212.3 Q 999.2 213.9, 999.8 214.8 Q 1000.5 215.6, 1001.8 215.6 " fill="#FF0000"/>
<path class="atom-5" d="M 1034.0 247.4 Q 1034.0 245.5, 1035.0 244.3 Q 1036.0 243.2, 1037.8 243.2 Q 1039.6 243.2, 1040.6 244.3 Q 1041.6 245.5, 1041.6 247.4 Q 1041.6 249.4, 1040.6 250.6 Q 1039.6 251.7, 1037.8 251.7 Q 1036.0 251.7, 1035.0 250.6 Q 1034.0 249.4, 1034.0 247.4 M 1037.8 250.8 Q 1039.0 250.8, 1039.7 249.9 Q 1040.4 249.1, 1040.4 247.4 Q 1040.4 245.8, 1039.7 245.0 Q 1039.0 244.2, 1037.8 244.2 Q 1036.5 244.2, 1035.8 245.0 Q 1035.2 245.8, 1035.2 247.4 Q 1035.2 249.1, 1035.8 249.9 Q 1036.5 250.8, 1037.8 250.8 " fill="#FF0000"/>
<path class="atom-10" d="M 1109.3 132.2 L 1112.0 136.5 Q 1112.3 137.0, 1112.7 137.7 Q 1113.1 138.5, 1113.2 138.6 L 1113.2 132.2 L 1114.3 132.2 L 1114.3 140.4 L 1113.1 140.4 L 1110.2 135.6 Q 1109.9 135.1, 1109.5 134.4 Q 1109.2 133.8, 1109.1 133.6 L 1109.1 140.4 L 1108.0 140.4 L 1108.0 132.2 L 1109.3 132.2 " fill="#0000FF"/>
<path class="atom-16" d="M 913.5 190.7 Q 913.5 188.7, 914.5 187.6 Q 915.5 186.5, 917.3 186.5 Q 919.1 186.5, 920.1 187.6 Q 921.1 188.7, 921.1 190.7 Q 921.1 192.7, 920.1 193.8 Q 919.1 195.0, 917.3 195.0 Q 915.5 195.0, 914.5 193.8 Q 913.5 192.7, 913.5 190.7 M 917.3 194.0 Q 918.6 194.0, 919.2 193.2 Q 919.9 192.3, 919.9 190.7 Q 919.9 189.1, 919.2 188.3 Q 918.6 187.4, 917.3 187.4 Q 916.1 187.4, 915.4 188.2 Q 914.7 189.1, 914.7 190.7 Q 914.7 192.3, 915.4 193.2 Q 916.1 194.0, 917.3 194.0 " fill="#FF0000"/>
<path class="atom-17" d="M 906.3 165.5 Q 906.4 165.6, 906.8 165.7 Q 907.2 165.9, 907.6 166.0 Q 908.0 166.1, 908.5 166.1 Q 909.2 166.1, 909.7 165.7 Q 910.1 165.3, 910.1 164.7 Q 910.1 164.2, 909.9 163.9 Q 909.7 163.7, 909.3 163.5 Q 909.0 163.3, 908.4 163.2 Q 907.7 163.0, 907.2 162.7 Q 906.8 162.5, 906.5 162.1 Q 906.2 161.7, 906.2 160.9 Q 906.2 159.9, 906.9 159.2 Q 907.6 158.6, 909.0 158.6 Q 909.9 158.6, 911.0 159.0 L 910.8 159.9 Q 909.8 159.5, 909.0 159.5 Q 908.2 159.5, 907.8 159.9 Q 907.3 160.2, 907.4 160.8 Q 907.4 161.2, 907.6 161.5 Q 907.8 161.7, 908.1 161.9 Q 908.5 162.0, 909.0 162.2 Q 909.8 162.5, 910.2 162.7 Q 910.7 162.9, 911.0 163.4 Q 911.3 163.9, 911.3 164.7 Q 911.3 165.8, 910.5 166.4 Q 909.8 167.0, 908.5 167.0 Q 907.8 167.0, 907.2 166.9 Q 906.7 166.7, 906.0 166.4 L 906.3 165.5 " fill="#000000"/>
<path class="atom-17" d="M 911.8 158.6 L 912.9 158.6 L 912.9 159.6 L 911.8 159.6 L 911.8 158.6 M 911.8 160.8 L 912.9 160.8 L 912.9 166.8 L 911.8 166.8 L 911.8 160.8 " fill="#000000"/>
<path class="legend" d="M 967.6 365.4 L 967.7 366.5 Q 968.6 365.3, 970.0 365.3 Q 970.5 365.3, 971.1 365.4 L 970.8 366.8 Q 970.1 366.6, 969.8 366.6 Q 969.1 366.6, 968.6 366.9 Q 968.2 367.1, 967.8 367.8 L 967.8 373.6 L 966.3 373.6 L 966.3 365.4 L 967.6 365.4 " fill="#000000"/>
<path class="legend" d="M 971.3 369.5 Q 971.3 367.5, 972.3 366.4 Q 973.3 365.3, 975.2 365.3 Q 977.0 365.3, 977.8 366.4 Q 978.6 367.4, 978.6 369.5 L 978.6 369.7 L 972.8 369.7 Q 972.9 371.1, 973.5 371.8 Q 974.1 372.6, 975.3 372.6 Q 975.9 372.6, 976.5 372.4 Q 977.1 372.3, 977.8 372.0 L 978.3 373.0 Q 977.4 373.4, 976.7 373.6 Q 976.0 373.8, 975.2 373.8 Q 973.4 373.8, 972.3 372.6 Q 971.3 371.5, 971.3 369.5 M 975.2 366.4 Q 974.2 366.4, 973.6 367.0 Q 973.1 367.5, 972.9 368.6 L 977.0 368.6 Q 976.9 367.5, 976.4 367.0 Q 976.0 366.4, 975.2 366.4 " fill="#000000"/>
<path class="legend" d="M 979.2 371.4 Q 979.2 370.1, 980.2 369.4 Q 981.3 368.7, 983.2 368.7 L 984.5 368.7 L 984.5 368.3 Q 984.5 367.3, 984.0 366.9 Q 983.6 366.4, 982.6 366.4 Q 981.9 366.4, 981.4 366.6 Q 980.9 366.7, 980.1 367.0 L 979.7 366.0 Q 981.2 365.3, 982.6 365.3 Q 984.4 365.3, 985.2 366.0 Q 986.0 366.8, 986.0 368.4 L 986.0 373.6 L 984.8 373.6 Q 984.8 373.6, 984.7 373.3 Q 984.7 373.1, 984.6 372.7 Q 983.4 373.8, 981.9 373.8 Q 980.7 373.8, 979.9 373.2 Q 979.2 372.5, 979.2 371.4 M 980.7 371.4 Q 980.7 372.0, 981.1 372.3 Q 981.5 372.6, 982.2 372.6 Q 982.8 372.6, 983.4 372.4 Q 984.0 372.0, 984.5 371.5 L 984.5 369.8 L 983.3 369.8 Q 982.0 369.8, 981.4 370.2 Q 980.7 370.6, 980.7 371.4 " fill="#000000"/>
<path class="legend" d="M 987.2 369.5 Q 987.2 367.5, 988.2 366.4 Q 989.2 365.3, 991.1 365.3 Q 993.0 365.3, 994.0 366.6 L 993.0 367.4 Q 992.6 366.9, 992.1 366.7 Q 991.7 366.4, 991.1 366.4 Q 990.0 366.4, 989.4 367.2 Q 988.7 368.0, 988.7 369.5 Q 988.7 371.0, 989.4 371.8 Q 990.0 372.6, 991.2 372.6 Q 991.9 372.6, 992.4 372.4 Q 992.8 372.3, 993.4 372.0 L 993.8 373.0 Q 992.6 373.7, 991.1 373.7 Q 989.2 373.7, 988.2 372.6 Q 987.2 371.5, 987.2 369.5 " fill="#000000"/>
<path class="legend" d="M 994.4 366.6 L 994.4 365.4 L 995.9 365.4 L 996.2 363.0 L 997.3 363.0 L 997.3 365.4 L 999.8 365.4 L 999.8 366.6 L 997.3 366.6 L 997.3 371.1 Q 997.3 372.5, 998.5 372.5 Q 999.0 372.5, 999.7 372.3 L 999.9 373.4 Q 999.1 373.7, 998.2 373.7 Q 997.2 373.7, 996.5 373.1 Q 995.8 372.4, 995.8 371.2 L 995.8 366.6 L 994.4 366.6 " fill="#000000"/>
<path class="legend" d="M 1008.5 374.4 L 1008.5 375.7 L 1000.3 375.7 L 1000.3 374.4 L 1008.5 374.4 " fill="#000000"/>
<path class="legend" d="M 1014.4 363.6 L 1008.5 363.6 L 1008.5 362.3 L 1016.0 362.3 L 1016.0 363.4 L 1011.4 373.6 L 1009.9 373.6 L 1014.4 363.6 " fill="#000000"/>
<path class="legend" d="M 1023.8 369.7 L 1025.2 369.7 L 1025.2 371.0 L 1023.8 371.0 L 1023.8 373.6 L 1022.3 373.6 L 1022.3 371.0 L 1016.5 371.0 L 1016.5 370.0 L 1021.4 362.3 L 1023.8 362.3 L 1023.8 369.7 M 1018.3 369.7 L 1022.3 369.7 L 1022.3 363.3 L 1018.3 369.7 " fill="#000000"/>
<path class="legend" d="M 1030.1 366.5 Q 1031.1 366.5, 1031.9 367.0 Q 1032.7 367.4, 1033.2 368.2 Q 1033.7 369.0, 1033.7 370.0 Q 1033.7 371.2, 1033.1 372.1 Q 1032.5 372.9, 1031.6 373.3 Q 1030.7 373.8, 1029.6 373.8 Q 1028.6 373.8, 1027.6 373.4 Q 1026.6 373.0, 1026.0 372.3 L 1027.0 371.3 Q 1027.5 371.8, 1028.2 372.2 Q 1028.9 372.5, 1029.7 372.5 Q 1030.7 372.5, 1031.4 371.8 Q 1032.1 371.2, 1032.1 370.1 Q 1032.1 368.9, 1031.4 368.3 Q 1030.7 367.7, 1029.6 367.7 Q 1028.6 367.7, 1027.5 368.2 L 1026.6 367.8 L 1027.1 362.3 L 1033.0 362.3 L 1032.8 363.6 L 1028.4 363.6 L 1028.1 366.9 Q 1029.1 366.5, 1030.1 366.5 " fill="#000000"/>
<path class="legend" d="M 935.9 383.8 Q 935.9 381.8, 936.9 380.7 Q 937.9 379.5, 939.8 379.5 Q 941.7 379.5, 942.7 380.9 L 941.7 381.6 Q 941.3 381.2, 940.8 380.9 Q 940.4 380.7, 939.8 380.7 Q 938.7 380.7, 938.1 381.5 Q 937.4 382.3, 937.4 383.8 Q 937.4 385.3, 938.1 386.1 Q 938.7 386.8, 939.9 386.8 Q 940.6 386.8, 941.1 386.7 Q 941.5 386.5, 942.1 386.3 L 942.5 387.3 Q 941.3 388.0, 939.8 388.0 Q 937.9 388.0, 936.9 386.9 Q 935.9 385.7, 935.9 383.8 " fill="#000000"/>
<path class="legend" d="M 943.1 383.8 Q 943.1 381.7, 944.1 380.6 Q 945.1 379.5, 946.9 379.5 Q 948.7 379.5, 949.5 380.6 Q 950.3 381.7, 950.3 383.7 L 950.3 384.0 L 944.6 384.0 Q 944.6 385.4, 945.3 386.1 Q 945.9 386.8, 947.1 386.8 Q 947.7 386.8, 948.3 386.7 Q 948.9 386.5, 949.6 386.2 L 950.0 387.2 Q 949.2 387.6, 948.5 387.8 Q 947.7 388.0, 947.0 388.0 Q 945.1 388.0, 944.1 386.9 Q 943.1 385.8, 943.1 383.8 M 946.9 380.7 Q 946.0 380.7, 945.4 381.2 Q 944.8 381.8, 944.7 382.8 L 948.8 382.8 Q 948.7 381.7, 948.2 381.2 Q 947.8 380.7, 946.9 380.7 " fill="#000000"/>
<path class="legend" d="M 955.2 379.5 Q 956.6 379.5, 957.2 380.3 Q 957.9 381.0, 957.9 382.4 L 957.9 387.9 L 956.4 387.9 L 956.4 382.6 Q 956.4 381.6, 956.1 381.2 Q 955.7 380.7, 954.9 380.7 Q 954.1 380.7, 953.5 381.1 Q 952.9 381.4, 952.5 382.0 L 952.5 387.9 L 951.0 387.9 L 951.0 379.7 L 952.2 379.7 L 952.4 380.8 Q 953.5 379.5, 955.2 379.5 " fill="#000000"/>
<path class="legend" d="M 959.2 380.8 L 959.2 379.7 L 960.7 379.7 L 961.0 377.3 L 962.1 377.3 L 962.1 379.7 L 964.6 379.7 L 964.6 380.8 L 962.1 380.8 L 962.1 385.4 Q 962.1 386.8, 963.3 386.8 Q 963.8 386.8, 964.5 386.6 L 964.8 387.6 Q 963.9 388.0, 963.1 388.0 Q 962.0 388.0, 961.3 387.3 Q 960.6 386.7, 960.6 385.4 L 960.6 380.8 L 959.2 380.8 " fill="#000000"/>
<path class="legend" d="M 973.3 388.7 L 973.3 390.0 L 965.2 390.0 L 965.2 388.7 L 973.3 388.7 " fill="#000000"/>
<path class="legend" d="M 980.8 375.7 L 980.8 387.9 L 979.6 387.9 L 979.4 386.9 Q 978.5 388.0, 976.9 388.0 Q 975.2 388.0, 974.3 387.0 Q 973.3 385.9, 973.3 383.9 Q 973.3 381.8, 974.4 380.7 Q 975.6 379.5, 977.5 379.5 Q 978.4 379.5, 979.3 379.7 L 979.3 375.7 L 980.8 375.7 M 977.0 386.8 Q 977.9 386.8, 978.5 386.4 Q 979.1 385.9, 979.3 385.1 L 979.3 380.9 Q 978.5 380.7, 977.6 380.7 Q 976.3 380.7, 975.6 381.6 Q 974.9 382.4, 974.9 383.9 Q 974.9 385.3, 975.4 386.1 Q 976.0 386.8, 977.0 386.8 " fill="#000000"/>
<path class="legend" d="M 982.1 376.6 L 983.5 376.6 L 983.5 378.0 L 982.1 378.0 L 982.1 376.6 M 982.1 379.7 L 983.5 379.7 L 983.5 387.9 L 982.1 387.9 L 982.1 379.7 " fill="#000000"/>
<path class="legend" d="M 985.4 386.2 Q 986.1 386.5, 986.6 386.6 Q 987.1 386.8, 987.7 386.8 Q 988.4 386.8, 988.8 386.5 Q 989.2 386.2, 989.2 385.6 Q 989.2 385.2, 989.0 385.0 Q 988.8 384.8, 988.5 384.6 Q 988.3 384.5, 987.6 384.3 Q 987.5 384.3, 986.7 384.0 Q 986.0 383.7, 985.6 383.2 Q 985.2 382.7, 985.2 381.9 Q 985.2 380.9, 986.0 380.2 Q 986.7 379.5, 988.2 379.5 Q 988.8 379.5, 989.4 379.7 Q 989.9 379.8, 990.6 380.0 L 990.2 381.2 Q 989.6 381.0, 989.2 380.9 Q 988.7 380.8, 988.2 380.8 Q 987.5 380.8, 987.1 381.1 Q 986.7 381.4, 986.7 381.8 Q 986.7 382.3, 987.0 382.5 Q 987.3 382.7, 988.0 383.0 Q 988.2 383.0, 988.3 383.1 L 988.7 383.2 Q 989.4 383.4, 989.8 383.7 Q 990.2 383.9, 990.5 384.4 Q 990.7 384.8, 990.7 385.6 Q 990.7 386.7, 989.9 387.4 Q 989.1 388.0, 987.7 388.0 Q 986.9 388.0, 986.3 387.9 Q 985.6 387.7, 984.9 387.4 L 985.4 386.2 " fill="#000000"/>
<path class="legend" d="M 991.6 380.8 L 991.6 379.7 L 993.2 379.7 L 993.4 377.3 L 994.5 377.3 L 994.5 379.7 L 997.1 379.7 L 997.1 380.8 L 994.5 380.8 L 994.5 385.4 Q 994.5 386.8, 995.7 386.8 Q 996.2 386.8, 996.9 386.6 L 997.2 387.6 Q 996.3 388.0, 995.5 388.0 Q 994.4 388.0, 993.7 387.3 Q 993.0 386.7, 993.0 385.4 L 993.0 380.8 L 991.6 380.8 " fill="#000000"/>
<path class="legend" d="" fill="#000000"/>
<path class="legend" d="M 1002.9 380.9 L 1010.2 380.9 L 1010.2 382.1 L 1002.9 382.1 L 1002.9 380.9 M 1002.9 384.4 L 1010.2 384.4 L 1010.2 385.5 L 1002.9 385.5 L 1002.9 384.4 " fill="#000000"/>
<path class="legend" d="" fill="#000000"/>
<path class="legend" d="M 1021.2 388.0 Q 1019.1 388.0, 1018.1 386.5 Q 1017.0 384.9, 1017.0 382.2 Q 1017.0 379.5, 1018.1 378.0 Q 1019.1 376.4, 1021.2 376.4 Q 1023.3 376.4, 1024.3 378.0 Q 1025.3 379.5, 1025.3 382.2 Q 1025.3 384.9, 1024.3 386.5 Q 1023.3 388.0, 1021.2 388.0 M 1021.2 386.7 Q 1022.4 386.7, 1023.1 385.6 Q 1023.7 384.4, 1023.7 382.2 Q 1023.7 380.0, 1023.1 378.8 Q 1022.4 377.7, 1021.2 377.7 Q 1020.0 377.7, 1019.3 378.8 Q 1018.6 380.0, 1018.6 382.2 Q 1018.6 384.4, 1019.3 385.6 Q 1020.0 386.7, 1021.2 386.7 " fill="#000000"/>
<path class="legend" d="M 1026.4 386.3 L 1028.0 386.3 L 1028.0 387.9 L 1026.4 387.9 L 1026.4 386.3 " fill="#000000"/>
<path class="legend" d="M 1036.4 384.0 L 1037.7 384.0 L 1037.7 385.3 L 1036.4 385.3 L 1036.4 387.9 L 1034.9 387.9 L 1034.9 385.3 L 1029.0 385.3 L 1029.0 384.3 L 1034.0 376.6 L 1036.4 376.6 L 1036.4 384.0 M 1030.9 384.0 L 1034.9 384.0 L 1034.9 377.6 L 1030.9 384.0 " fill="#000000"/>
<path class="legend" d="M 1044.3 381.9 Q 1045.3 382.3, 1045.9 383.0 Q 1046.5 383.7, 1046.5 384.8 Q 1046.5 385.7, 1046.0 386.5 Q 1045.5 387.2, 1044.6 387.6 Q 1043.7 388.0, 1042.6 388.0 Q 1040.7 388.0, 1039.6 387.2 Q 1038.5 386.3, 1038.5 384.8 Q 1038.5 383.9, 1039.0 383.2 Q 1039.5 382.5, 1040.5 381.9 Q 1039.7 381.5, 1039.3 380.9 Q 1038.9 380.3, 1038.9 379.3 Q 1038.9 378.0, 1039.9 377.2 Q 1040.9 376.4, 1042.5 376.4 Q 1044.1 376.4, 1045.1 377.2 Q 1046.1 378.0, 1046.1 379.3 Q 1046.1 380.2, 1045.6 380.8 Q 1045.2 381.4, 1044.3 381.9 M 1042.5 377.6 Q 1041.6 377.6, 1041.0 378.1 Q 1040.5 378.5, 1040.5 379.3 Q 1040.5 379.9, 1040.9 380.3 Q 1041.2 380.7, 1041.7 380.9 Q 1042.2 381.2, 1043.2 381.5 Q 1043.9 381.0, 1044.2 380.5 Q 1044.5 380.0, 1044.5 379.3 Q 1044.5 378.5, 1044.0 378.1 Q 1043.4 377.6, 1042.5 377.6 M 1042.6 386.8 Q 1043.6 386.8, 1044.3 386.3 Q 1044.9 385.7, 1044.9 384.8 Q 1044.9 384.2, 1044.6 383.8 Q 1044.2 383.4, 1043.7 383.2 Q 1043.2 382.9, 1042.3 382.7 L 1041.6 382.4 Q 1040.8 382.9, 1040.5 383.5 Q 1040.1 384.0, 1040.1 384.8 Q 1040.1 385.7, 1040.8 386.3 Q 1041.4 386.8, 1042.6 386.8 " fill="#000000"/>
<path class="legend" d="M 1051.9 380.8 Q 1052.9 380.8, 1053.7 381.2 Q 1054.5 381.7, 1054.9 382.5 Q 1055.4 383.2, 1055.4 384.2 Q 1055.4 385.3, 1054.9 386.2 Q 1054.4 387.1, 1053.5 387.5 Q 1052.7 388.0, 1051.6 388.0 Q 1049.5 388.0, 1048.5 386.7 Q 1047.5 385.3, 1047.5 382.6 Q 1047.5 379.6, 1048.8 378.0 Q 1050.0 376.4, 1052.4 376.4 Q 1053.1 376.4, 1053.7 376.6 Q 1054.3 376.8, 1054.9 377.1 L 1054.3 378.2 Q 1053.5 377.7, 1052.5 377.7 Q 1050.9 377.7, 1050.0 378.8 Q 1049.2 379.8, 1049.1 381.9 Q 1049.7 381.4, 1050.4 381.1 Q 1051.2 380.8, 1051.9 380.8 M 1051.6 386.7 Q 1052.2 386.7, 1052.7 386.4 Q 1053.2 386.1, 1053.5 385.5 Q 1053.8 384.9, 1053.8 384.3 Q 1053.8 383.2, 1053.2 382.7 Q 1052.6 382.1, 1051.7 382.1 Q 1051.0 382.1, 1050.3 382.4 Q 1049.6 382.7, 1049.1 383.1 Q 1049.2 385.0, 1049.8 385.9 Q 1050.4 386.7, 1051.6 386.7 " fill="#000000"/>
<path class="legend" d="M 1060.7 380.8 Q 1061.7 380.8, 1062.5 381.2 Q 1063.2 381.7, 1063.7 382.5 Q 1064.1 383.2, 1064.1 384.2 Q 1064.1 385.3, 1063.6 386.2 Q 1063.1 387.1, 1062.3 387.5 Q 1061.4 388.0, 1060.3 388.0 Q 1058.3 388.0, 1057.3 386.7 Q 1056.2 385.3, 1056.2 382.6 Q 1056.2 379.6, 1057.5 378.0 Q 1058.8 376.4, 1061.2 376.4 Q 1061.9 376.4, 1062.5 376.6 Q 1063.1 376.8, 1063.7 377.1 L 1063.0 378.2 Q 1062.2 377.7, 1061.2 377.7 Q 1059.6 377.7, 1058.8 378.8 Q 1058.0 379.8, 1057.9 381.9 Q 1058.4 381.4, 1059.2 381.1 Q 1059.9 380.8, 1060.7 380.8 M 1060.3 386.7 Q 1060.9 386.7, 1061.4 386.4 Q 1061.9 386.1, 1062.2 385.5 Q 1062.5 384.9, 1062.5 384.3 Q 1062.5 383.2, 1061.9 382.7 Q 1061.4 382.1, 1060.4 382.1 Q 1059.7 382.1, 1059.0 382.4 Q 1058.3 382.7, 1057.9 383.1 Q 1057.9 385.0, 1058.5 385.9 Q 1059.1 386.7, 1060.3 386.7 " fill="#000000"/>
<path class="bond-0 atom-0 atom-1" d="M 1397.0,127.1 L 1411.0,152.6" style="fill:none;fill-rule:evenodd;stroke:#000000;stroke-width:2.0px;stroke-linecap:butt;stroke-linejoin:miter;stroke-opacity:1"/>
<path class="bond-0 atom-0 atom-1" d="M 1391.9,129.9 L 1405.9,155.4" style="fill:none;fill-rule:evenodd;stroke:#000000;stroke-width:2.0px;stroke-linecap:butt;stroke-linejoin:miter;stroke-opacity:1"/>
<path class="bond-1 atom-1 atom-2" d="M 1408.5,154.0 L 1437.5,154.5" style="fill:none;fill-rule:evenodd;stroke:#000000;stroke-width:2.0px;stroke-linecap:butt;stroke-linejoin:miter;stroke-opacity:1"/>
<path class="bond-2 atom-2 atom-3" d="M 1437.5,154.5 L 1451.6,180.0" style="fill:none;fill-rule:evenodd;stroke:#000000;stroke-width:2.0px;stroke-linecap:butt;stroke-linejoin:miter;stroke-opacity:1"/>
<path class="bond-3 atom-3 atom-4" d="M 1451.6,180.0 L 1463.7,180.2" style="fill:none;fill-rule:evenodd;stroke:#000000;stroke-width:2.0px;stroke-linecap:butt;stroke-linejoin:miter;stroke-opacity:1"/>
<path class="bond-3 atom-3 atom-4" d="M 1463.7,180.2 L 1475.9,180.4" style="fill:none;fill-rule:evenodd;stroke:#FF0000;stroke-width:2.0px;stroke-linecap:butt;stroke-linejoin:miter;stroke-opacity:1"/>
<path class="bond-4 atom-4 atom-5" d="M 1483.5,185.8 L 1489.1,195.9" style="fill:none;fill-rule:evenodd;stroke:#FF0000;stroke-width:2.0px;stroke-linecap:butt;stroke-linejoin:miter;stroke-opacity:1"/>
<path class="bond-4 atom-4 atom-5" d="M 1489.1,195.9 L 1494.7,206.0" style="fill:none;fill-rule:evenodd;stroke:#000000;stroke-width:2.0px;stroke-linecap:butt;stroke-linejoin:miter;stroke-opacity:1"/>
<path class="bond-5 atom-5 atom-6" d="M 1494.7,206.0 L 1523.7,206.5" style="fill:none;fill-rule:evenodd;stroke:#000000;stroke-width:2.0px;stroke-linecap:butt;stroke-linejoin:miter;stroke-opacity:1"/>
<path class="bond-6 atom-6 atom-7" d="M 1523.7,206.5 L 1537.8,232.0" style="fill:none;fill-rule:evenodd;stroke:#000000;stroke-width:2.0px;stroke-linecap:butt;stroke-linejoin:miter;stroke-opacity:1"/>
<path class="bond-6 atom-6 atom-7" d="M 1530.9,207.5 L 1540.7,225.4" style="fill:none;fill-rule:evenodd;stroke:#000000;stroke-width:2.0px;stroke-linecap:butt;stroke-linejoin:miter;stroke-opacity:1"/>
<path class="bond-7 atom-7 atom-8" d="M 1537.8,232.0 L 1566.8,232.5" style="fill:none;fill-rule:evenodd;stroke:#000000;stroke-width:2.0px;stroke-linecap:butt;stroke-linejoin:miter;stroke-opacity:1"/>
<path class="bond-8 atom-8 atom-9" d="M 1566.8,232.5 L 1581.8,207.7" style="fill:none;fill-rule:evenodd;stroke:#000000;stroke-width:2.0px;stroke-linecap:butt;stroke-linejoin:miter;stroke-opacity:1"/>
<path class="bond-8 atom-8 atom-9" d="M 1564.1,225.8 L 1574.6,208.4" style="fill:none;fill-rule:evenodd;stroke:#000000;stroke-width:2.0px;stroke-linecap:butt;stroke-linejoin:miter;stroke-opacity:1"/>
<path class="bond-9 atom-9 atom-10" d="M 1581.8,207.7 L 1567.8,182.2" style="fill:none;fill-rule:evenodd;stroke:#000000;stroke-width:2.0px;stroke-linecap:butt;stroke-linejoin:miter;stroke-opacity:1"/>
<path class="bond-10 atom-10 atom-11" d="M 1567.8,182.2 L 1538.7,181.7" style="fill:none;fill-rule:evenodd;stroke:#000000;stroke-width:2.0px;stroke-linecap:butt;stroke-linejoin:miter;stroke-opacity:1"/>
<path class="bond-10 atom-10 atom-11" d="M 1563.3,188.0 L 1543.0,187.6" style="fill:none;fill-rule:evenodd;stroke:#000000;stroke-width:2.0px;stroke-linecap:butt;stroke-linejoin:miter;stroke-opacity:1"/>
<path class="bond-11 atom-1 atom-12" d="M 1408.5,154.0 L 1393.5,178.8" style="fill:none;fill-rule:evenodd;stroke:#000000;stroke-width:2.0px;stroke-linecap:butt;stroke-linejoin:miter;stroke-opacity:1"/>
<path class="bond-12 atom-12 atom-13" d="M 1393.5,178.8 L 1381.3,178.6" style="fill:none;fill-rule:evenodd;stroke:#000000;stroke-width:2.0px;stroke-linecap:butt;stroke-linejoin:miter;stroke-opacity:1"/>
<path class="bond-12 atom-12 atom-13" d="M 1381.3,178.6 L 1369.2,178.4" style="fill:none;fill-rule:evenodd;stroke:#FF0000;stroke-width:2.0px;stroke-linecap:butt;stroke-linejoin:miter;stroke-opacity:1"/>
<path class="bond-13 atom-13 atom-14" d="M 1361.3,183.5 L 1355.3,193.3" style="fill:none;fill-rule:evenodd;stroke:#FF0000;stroke-width:2.0px;stroke-linecap:butt;stroke-linejoin:miter;stroke-opacity:1"/>
<path class="bond-13 atom-13 atom-14" d="M 1355.3,193.3 L 1349.4,203.2" style="fill:none;fill-rule:evenodd;stroke:#000000;stroke-width:2.0px;stroke-linecap:butt;stroke-linejoin:miter;stroke-opacity:1"/>
<path class="bond-14 atom-14 atom-15" d="M 1351.9,201.7 L 1357.6,211.9" style="fill:none;fill-rule:evenodd;stroke:#000000;stroke-width:2.0px;stroke-linecap:butt;stroke-linejoin:miter;stroke-opacity:1"/>
<path class="bond-14 atom-14 atom-15" d="M 1357.6,211.9 L 1363.2,222.1" style="fill:none;fill-rule:evenodd;stroke:#FF0000;stroke-width:2.0px;stroke-linecap:butt;stroke-linejoin:miter;stroke-opacity:1"/>
<path class="bond-14 atom-14 atom-15" d="M 1346.9,204.6 L 1352.5,214.7" style="fill:none;fill-rule:evenodd;stroke:#000000;stroke-width:2.0px;stroke-linecap:butt;stroke-linejoin:miter;stroke-opacity:1"/>
<path class="bond-14 atom-14 atom-15" d="M 1352.5,214.7 L 1358.1,224.9" style="fill:none;fill-rule:evenodd;stroke:#FF0000;stroke-width:2.0px;stroke-linecap:butt;stroke-linejoin:miter;stroke-opacity:1"/>
<path class="bond-15 atom-14 atom-16" d="M 1349.4,203.2 L 1320.4,202.6" style="fill:none;fill-rule:evenodd;stroke:#000000;stroke-width:2.0px;stroke-linecap:butt;stroke-linejoin:miter;stroke-opacity:1"/>
<path class="bond-16 atom-16 atom-17" d="M 1320.4,202.6 L 1306.3,177.1" style="fill:none;fill-rule:evenodd;stroke:#000000;stroke-width:2.0px;stroke-linecap:butt;stroke-linejoin:miter;stroke-opacity:1"/>
<path class="bond-16 atom-16 atom-17" d="M 1313.2,201.6 L 1303.3,183.8" style="fill:none;fill-rule:evenodd;stroke:#000000;stroke-width:2.0px;stroke-linecap:butt;stroke-linejoin:miter;stroke-opacity:1"/>
<path class="bond-17 atom-17 atom-18" d="M 1306.3,177.1 L 1277.3,176.6" style="fill:none;fill-rule:evenodd;stroke:#000000;stroke-width:2.0px;stroke-linecap:butt;stroke-linejoin:miter;stroke-opacity:1"/>
<path class="bond-18 atom-18 atom-19" d="M 1277.3,176.6 L 1262.2,201.5" style="fill:none;fill-rule:evenodd;stroke:#000000;stroke-width:2.0px;stroke-linecap:butt;stroke-linejoin:miter;stroke-opacity:1"/>
<path class="bond-18 atom-18 atom-19" d="M 1280.0,183.3 L 1269.5,200.7" style="fill:none;fill-rule:evenodd;stroke:#000000;stroke-width:2.0px;stroke-linecap:butt;stroke-linejoin:miter;stroke-opacity:1"/>
<path class="bond-19 atom-19 atom-20" d="M 1262.2,201.5 L 1249.8,201.2" style="fill:none;fill-rule:evenodd;stroke:#000000;stroke-width:2.0px;stroke-linecap:butt;stroke-linejoin:miter;stroke-opacity:1"/>
<path class="bond-19 atom-19 atom-20" d="M 1249.8,201.2 L 1237.3,201.0" style="fill:none;fill-rule:evenodd;stroke:#0000FF;stroke-width:2.0px;stroke-linecap:butt;stroke-linejoin:miter;stroke-opacity:1"/>
<path class="bond-20 atom-20 atom-21" d="M 1230.4,195.8 L 1224.8,185.6" style="fill:none;fill-rule:evenodd;stroke:#0000FF;stroke-width:2.0px;stroke-linecap:butt;stroke-linejoin:miter;stroke-opacity:1"/>
<path class="bond-20 atom-20 atom-21" d="M 1224.8,185.6 L 1219.2,175.5" style="fill:none;fill-rule:evenodd;stroke:#000000;stroke-width:2.0px;stroke-linecap:butt;stroke-linejoin:miter;stroke-opacity:1"/>
<path class="bond-21 atom-20 atom-22" d="M 1230.1,206.0 L 1224.2,215.9" style="fill:none;fill-rule:evenodd;stroke:#0000FF;stroke-width:2.0px;stroke-linecap:butt;stroke-linejoin:miter;stroke-opacity:1"/>
<path class="bond-21 atom-20 atom-22" d="M 1224.2,215.9 L 1218.2,225.8" style="fill:none;fill-rule:evenodd;stroke:#000000;stroke-width:2.0px;stroke-linecap:butt;stroke-linejoin:miter;stroke-opacity:1"/>
<path class="bond-22 atom-19 atom-23" d="M 1262.2,201.5 L 1276.3,226.9" style="fill:none;fill-rule:evenodd;stroke:#000000;stroke-width:2.0px;stroke-linecap:butt;stroke-linejoin:miter;stroke-opacity:1"/>
<path class="bond-23 atom-23 atom-24" d="M 1276.3,226.9 L 1305.3,227.5" style="fill:none;fill-rule:evenodd;stroke:#000000;stroke-width:2.0px;stroke-linecap:butt;stroke-linejoin:miter;stroke-opacity:1"/>
<path class="bond-23 atom-23 atom-24" d="M 1280.8,221.2 L 1301.1,221.6" style="fill:none;fill-rule:evenodd;stroke:#000000;stroke-width:2.0px;stroke-linecap:butt;stroke-linejoin:miter;stroke-opacity:1"/>
<path class="bond-24 atom-11 atom-6" d="M 1538.7,181.7 L 1523.7,206.5" style="fill:none;fill-rule:evenodd;stroke:#000000;stroke-width:2.0px;stroke-linecap:butt;stroke-linejoin:miter;stroke-opacity:1"/>
<path class="bond-25 atom-24 atom-16" d="M 1305.3,227.5 L 1320.4,202.6" style="fill:none;fill-rule:evenodd;stroke:#000000;stroke-width:2.0px;stroke-linecap:butt;stroke-linejoin:miter;stroke-opacity:1"/>
<path class="atom-4" d="M 1476.8 180.6 Q 1476.8 178.6, 1477.8 177.5 Q 1478.8 176.4, 1480.6 176.4 Q 1482.5 176.4, 1483.4 177.5 Q 1484.4 178.6, 1484.4 180.6 Q 1484.4 182.6, 1483.4 183.7 Q 1482.4 184.8, 1480.6 184.8 Q 1478.8 184.8, 1477.8 183.7 Q 1476.8 182.6, 1476.8 180.6 M 1480.6 183.9 Q 1481.9 183.9, 1482.6 183.1 Q 1483.2 182.2, 1483.2 180.6 Q 1483.2 178.9, 1482.6 178.1 Q 1481.9 177.3, 1480.6 177.3 Q 1479.4 177.3, 1478.7 178.1 Q 1478.0 178.9, 1478.0 180.6 Q 1478.0 182.2, 1478.7 183.1 Q 1479.4 183.9, 1480.6 183.9 " fill="#FF0000"/>
<path class="atom-13" d="M 1360.6 178.3 Q 1360.6 176.3, 1361.6 175.2 Q 1362.6 174.1, 1364.4 174.1 Q 1366.2 174.1, 1367.2 175.2 Q 1368.2 176.3, 1368.2 178.3 Q 1368.2 180.3, 1367.2 181.4 Q 1366.2 182.6, 1364.4 182.6 Q 1362.6 182.6, 1361.6 181.4 Q 1360.6 180.3, 1360.6 178.3 M 1364.4 181.6 Q 1365.7 181.6, 1366.3 180.8 Q 1367.0 179.9, 1367.0 178.3 Q 1367.0 176.7, 1366.3 175.9 Q 1365.7 175.0, 1364.4 175.0 Q 1363.2 175.0, 1362.5 175.9 Q 1361.8 176.7, 1361.8 178.3 Q 1361.8 180.0, 1362.5 180.8 Q 1363.2 181.6, 1364.4 181.6 " fill="#FF0000"/>
<path class="atom-15" d="M 1359.7 228.6 Q 1359.7 226.6, 1360.6 225.5 Q 1361.6 224.4, 1363.4 224.4 Q 1365.3 224.4, 1366.2 225.5 Q 1367.2 226.6, 1367.2 228.6 Q 1367.2 230.6, 1366.2 231.8 Q 1365.2 232.9, 1363.4 232.9 Q 1361.6 232.9, 1360.6 231.8 Q 1359.7 230.6, 1359.7 228.6 M 1363.4 232.0 Q 1364.7 232.0, 1365.4 231.1 Q 1366.1 230.3, 1366.1 228.6 Q 1366.1 227.0, 1365.4 226.2 Q 1364.7 225.4, 1363.4 225.4 Q 1362.2 225.4, 1361.5 226.2 Q 1360.8 227.0, 1360.8 228.6 Q 1360.8 230.3, 1361.5 231.1 Q 1362.2 232.0, 1363.4 232.0 " fill="#FF0000"/>
<path class="atom-20" d="M 1231.4 196.8 L 1234.1 201.1 Q 1234.3 201.6, 1234.8 202.3 Q 1235.2 203.1, 1235.2 203.2 L 1235.2 196.8 L 1236.3 196.8 L 1236.3 205.0 L 1235.2 205.0 L 1232.3 200.2 Q 1232.0 199.7, 1231.6 199.0 Q 1231.2 198.4, 1231.1 198.2 L 1231.1 205.0 L 1230.1 205.0 L 1230.1 196.8 L 1231.4 196.8 " fill="#0000FF"/>
<path class="legend" d="M 1367.5 365.4 L 1367.6 366.5 Q 1368.5 365.3, 1369.9 365.3 Q 1370.4 365.3, 1371.0 365.4 L 1370.7 366.8 Q 1370.0 366.6, 1369.7 366.6 Q 1369.0 366.6, 1368.5 366.9 Q 1368.1 367.1, 1367.8 367.8 L 1367.8 373.6 L 1366.2 373.6 L 1366.2 365.4 L 1367.5 365.4 " fill="#000000"/>
<path class="legend" d="M 1371.2 369.5 Q 1371.2 367.5, 1372.2 366.4 Q 1373.2 365.3, 1375.1 365.3 Q 1376.9 365.3, 1377.7 366.4 Q 1378.5 367.4, 1378.5 369.5 L 1378.5 369.7 L 1372.7 369.7 Q 1372.8 371.1, 1373.4 371.8 Q 1374.0 372.6, 1375.2 372.6 Q 1375.8 372.6, 1376.4 372.4 Q 1377.0 372.3, 1377.7 372.0 L 1378.2 373.0 Q 1377.4 373.4, 1376.6 373.6 Q 1375.9 373.8, 1375.1 373.8 Q 1373.3 373.8, 1372.2 372.6 Q 1371.2 371.5, 1371.2 369.5 M 1375.1 366.4 Q 1374.1 366.4, 1373.5 367.0 Q 1373.0 367.5, 1372.8 368.6 L 1376.9 368.6 Q 1376.8 367.5, 1376.3 367.0 Q 1375.9 366.4, 1375.1 366.4 " fill="#000000"/>
<path class="legend" d="M 1379.1 371.4 Q 1379.1 370.1, 1380.2 369.4 Q 1381.2 368.7, 1383.1 368.7 L 1384.4 368.7 L 1384.4 368.3 Q 1384.4 367.3, 1383.9 366.9 Q 1383.5 366.4, 1382.5 366.4 Q 1381.8 366.4, 1381.3 366.6 Q 1380.8 366.7, 1380.0 367.0 L 1379.6 366.0 Q 1381.1 365.3, 1382.5 365.3 Q 1384.3 365.3, 1385.1 366.0 Q 1385.9 366.8, 1385.9 368.4 L 1385.9 373.6 L 1384.7 373.6 Q 1384.7 373.6, 1384.6 373.3 Q 1384.6 373.1, 1384.5 372.7 Q 1383.3 373.8, 1381.8 373.8 Q 1380.6 373.8, 1379.8 373.2 Q 1379.1 372.5, 1379.1 371.4 M 1380.6 371.4 Q 1380.6 372.0, 1381.0 372.3 Q 1381.4 372.6, 1382.1 372.6 Q 1382.7 372.6, 1383.3 372.4 Q 1383.9 372.0, 1384.4 371.5 L 1384.4 369.8 L 1383.2 369.8 Q 1381.9 369.8, 1381.3 370.2 Q 1380.6 370.6, 1380.6 371.4 " fill="#000000"/>
<path class="legend" d="M 1387.1 369.5 Q 1387.1 367.5, 1388.1 366.4 Q 1389.1 365.3, 1391.0 365.3 Q 1392.9 365.3, 1393.9 366.6 L 1392.9 367.4 Q 1392.5 366.9, 1392.0 366.7 Q 1391.6 366.4, 1391.0 366.4 Q 1389.9 366.4, 1389.3 367.2 Q 1388.6 368.0, 1388.6 369.5 Q 1388.6 371.0, 1389.3 371.8 Q 1389.9 372.6, 1391.1 372.6 Q 1391.8 372.6, 1392.3 372.4 Q 1392.7 372.3, 1393.3 372.0 L 1393.7 373.0 Q 1392.5 373.7, 1391.0 373.7 Q 1389.1 373.7, 1388.1 372.6 Q 1387.1 371.5, 1387.1 369.5 " fill="#000000"/>
<path class="legend" d="M 1394.3 366.6 L 1394.3 365.4 L 1395.8 365.4 L 1396.1 363.0 L 1397.2 363.0 L 1397.2 365.4 L 1399.7 365.4 L 1399.7 366.6 L 1397.2 366.6 L 1397.2 371.1 Q 1397.2 372.5, 1398.4 372.5 Q 1398.9 372.5, 1399.6 372.3 L 1399.8 373.4 Q 1399.0 373.7, 1398.1 373.7 Q 1397.1 373.7, 1396.4 373.1 Q 1395.7 372.4, 1395.7 371.2 L 1395.7 366.6 L 1394.3 366.6 " fill="#000000"/>
<path class="legend" d="M 1408.4 374.4 L 1408.4 375.7 L 1400.2 375.7 L 1400.2 374.4 L 1408.4 374.4 " fill="#000000"/>
<path class="legend" d="M 1414.3 363.6 L 1408.4 363.6 L 1408.4 362.3 L 1415.9 362.3 L 1415.9 363.4 L 1411.4 373.6 L 1409.8 373.6 L 1414.3 363.6 " fill="#000000"/>
<path class="legend" d="M 1423.8 369.7 L 1425.1 369.7 L 1425.1 371.0 L 1423.8 371.0 L 1423.8 373.6 L 1422.2 373.6 L 1422.2 371.0 L 1416.4 371.0 L 1416.4 370.0 L 1421.4 362.3 L 1423.8 362.3 L 1423.8 369.7 M 1418.2 369.7 L 1422.2 369.7 L 1422.2 363.3 L 1418.2 369.7 " fill="#000000"/>
<path class="legend" d="M 1429.7 362.2 Q 1431.7 362.2, 1432.7 363.6 Q 1433.8 364.9, 1433.8 367.6 Q 1433.8 370.6, 1432.5 372.2 Q 1431.2 373.8, 1428.8 373.8 Q 1428.1 373.8, 1427.5 373.6 Q 1426.9 373.4, 1426.3 373.1 L 1427.0 372.0 Q 1427.8 372.5, 1428.8 372.5 Q 1430.4 372.5, 1431.2 371.5 Q 1432.0 370.4, 1432.1 368.3 Q 1431.6 368.8, 1430.8 369.1 Q 1430.1 369.4, 1429.3 369.4 Q 1428.3 369.4, 1427.5 368.9 Q 1426.8 368.5, 1426.3 367.7 Q 1425.9 366.9, 1425.9 366.0 Q 1425.9 364.8, 1426.4 364.0 Q 1426.9 363.1, 1427.7 362.7 Q 1428.6 362.2, 1429.7 362.2 M 1427.5 365.9 Q 1427.5 366.9, 1428.1 367.5 Q 1428.6 368.1, 1429.6 368.1 Q 1430.3 368.1, 1431.0 367.8 Q 1431.7 367.5, 1432.1 367.1 Q 1432.1 365.2, 1431.5 364.3 Q 1430.9 363.5, 1429.7 363.5 Q 1429.1 363.5, 1428.6 363.8 Q 1428.1 364.1, 1427.8 364.7 Q 1427.5 365.2, 1427.5 365.9 " fill="#000000"/>
<path class="legend" d="M 1335.9 383.8 Q 1335.9 381.8, 1336.9 380.7 Q 1337.8 379.5, 1339.8 379.5 Q 1341.7 379.5, 1342.6 380.9 L 1341.6 381.6 Q 1341.3 381.2, 1340.8 380.9 Q 1340.4 380.7, 1339.8 380.7 Q 1338.7 380.7, 1338.0 381.5 Q 1337.4 382.3, 1337.4 383.8 Q 1337.4 385.3, 1338.0 386.1 Q 1338.7 386.8, 1339.9 386.8 Q 1340.6 386.8, 1341.0 386.7 Q 1341.5 386.5, 1342.1 386.3 L 1342.5 387.3 Q 1341.3 388.0, 1339.8 388.0 Q 1337.8 388.0, 1336.9 386.9 Q 1335.9 385.7, 1335.9 383.8 " fill="#000000"/>
<path class="legend" d="M 1343.0 383.8 Q 1343.0 381.7, 1344.0 380.6 Q 1345.0 379.5, 1346.9 379.5 Q 1348.7 379.5, 1349.5 380.6 Q 1350.3 381.7, 1350.3 383.7 L 1350.3 384.0 L 1344.6 384.0 Q 1344.6 385.4, 1345.2 386.1 Q 1345.8 386.8, 1347.0 386.8 Q 1347.7 386.8, 1348.2 386.7 Q 1348.8 386.5, 1349.6 386.2 L 1350.0 387.2 Q 1349.2 387.6, 1348.4 387.8 Q 1347.7 388.0, 1346.9 388.0 Q 1345.1 388.0, 1344.1 386.9 Q 1343.0 385.8, 1343.0 383.8 M 1346.9 380.7 Q 1345.9 380.7, 1345.4 381.2 Q 1344.8 381.8, 1344.6 382.8 L 1348.7 382.8 Q 1348.6 381.7, 1348.2 381.2 Q 1347.7 380.7, 1346.9 380.7 " fill="#000000"/>
<path class="legend" d="M 1355.2 379.5 Q 1356.5 379.5, 1357.2 380.3 Q 1357.9 381.0, 1357.9 382.4 L 1357.9 387.9 L 1356.4 387.9 L 1356.4 382.6 Q 1356.4 381.6, 1356.0 381.2 Q 1355.7 380.7, 1354.8 380.7 Q 1354.1 380.7, 1353.4 381.1 Q 1352.8 381.4, 1352.4 382.0 L 1352.4 387.9 L 1350.9 387.9 L 1350.9 379.7 L 1352.1 379.7 L 1352.3 380.8 Q 1353.4 379.5, 1355.2 379.5 " fill="#000000"/>
<path class="legend" d="M 1359.1 380.8 L 1359.1 379.7 L 1360.7 379.7 L 1361.0 377.3 L 1362.1 377.3 L 1362.1 379.7 L 1364.6 379.7 L 1364.6 380.8 L 1362.1 380.8 L 1362.1 385.4 Q 1362.1 386.8, 1363.3 386.8 Q 1363.8 386.8, 1364.5 386.6 L 1364.7 387.6 Q 1363.8 388.0, 1363.0 388.0 Q 1361.9 388.0, 1361.3 387.3 Q 1360.6 386.7, 1360.6 385.4 L 1360.6 380.8 L 1359.1 380.8 " fill="#000000"/>
<path class="legend" d="M 1373.3 388.7 L 1373.3 390.0 L 1365.1 390.0 L 1365.1 388.7 L 1373.3 388.7 " fill="#000000"/>
<path class="legend" d="M 1380.8 375.7 L 1380.8 387.9 L 1379.5 387.9 L 1379.3 386.9 Q 1378.4 388.0, 1376.9 388.0 Q 1375.2 388.0, 1374.2 387.0 Q 1373.3 385.9, 1373.3 383.9 Q 1373.3 381.8, 1374.4 380.7 Q 1375.5 379.5, 1377.5 379.5 Q 1378.4 379.5, 1379.3 379.7 L 1379.3 375.7 L 1380.8 375.7 M 1377.0 386.8 Q 1377.8 386.8, 1378.4 386.4 Q 1379.0 385.9, 1379.3 385.1 L 1379.3 380.9 Q 1378.4 380.7, 1377.5 380.7 Q 1376.3 380.7, 1375.5 381.6 Q 1374.8 382.4, 1374.8 383.9 Q 1374.8 385.3, 1375.4 386.1 Q 1376.0 386.8, 1377.0 386.8 " fill="#000000"/>
<path class="legend" d="M 1382.0 376.6 L 1383.5 376.6 L 1383.5 378.0 L 1382.0 378.0 L 1382.0 376.6 M 1382.0 379.7 L 1383.5 379.7 L 1383.5 387.9 L 1382.0 387.9 L 1382.0 379.7 " fill="#000000"/>
<path class="legend" d="M 1385.3 386.2 Q 1386.1 386.5, 1386.6 386.6 Q 1387.1 386.8, 1387.7 386.8 Q 1388.4 386.8, 1388.8 386.5 Q 1389.2 386.2, 1389.2 385.6 Q 1389.2 385.2, 1389.0 385.0 Q 1388.8 384.8, 1388.5 384.6 Q 1388.2 384.5, 1387.5 384.3 Q 1387.4 384.3, 1386.7 384.0 Q 1385.9 383.7, 1385.5 383.2 Q 1385.2 382.7, 1385.2 381.9 Q 1385.2 380.9, 1385.9 380.2 Q 1386.7 379.5, 1388.2 379.5 Q 1388.8 379.5, 1389.3 379.7 Q 1389.9 379.8, 1390.5 380.0 L 1390.1 381.2 Q 1389.6 381.0, 1389.1 380.9 Q 1388.7 380.8, 1388.2 380.8 Q 1387.4 380.8, 1387.0 381.1 Q 1386.7 381.4, 1386.7 381.8 Q 1386.7 382.3, 1387.0 382.5 Q 1387.3 382.7, 1387.9 383.0 Q 1388.1 383.0, 1388.3 383.1 L 1388.6 383.2 Q 1389.3 383.4, 1389.7 383.7 Q 1390.1 383.9, 1390.4 384.4 Q 1390.7 384.8, 1390.7 385.6 Q 1390.7 386.7, 1389.9 387.4 Q 1389.0 388.0, 1387.7 388.0 Q 1386.9 388.0, 1386.2 387.9 Q 1385.6 387.7, 1384.9 387.4 L 1385.3 386.2 " fill="#000000"/>
<path class="legend" d="M 1391.6 380.8 L 1391.6 379.7 L 1393.1 379.7 L 1393.4 377.3 L 1394.5 377.3 L 1394.5 379.7 L 1397.0 379.7 L 1397.0 380.8 L 1394.5 380.8 L 1394.5 385.4 Q 1394.5 386.8, 1395.7 386.8 Q 1396.2 386.8, 1396.9 386.6 L 1397.1 387.6 Q 1396.3 388.0, 1395.4 388.0 Q 1394.4 388.0, 1393.7 387.3 Q 1393.0 386.7, 1393.0 385.4 L 1393.0 380.8 L 1391.6 380.8 " fill="#000000"/>
<path class="legend" d="" fill="#000000"/>
<path class="legend" d="M 1402.9 380.9 L 1410.2 380.9 L 1410.2 382.1 L 1402.9 382.1 L 1402.9 380.9 M 1402.9 384.4 L 1410.2 384.4 L 1410.2 385.5 L 1402.9 385.5 L 1402.9 384.4 " fill="#000000"/>
<path class="legend" d="" fill="#000000"/>
<path class="legend" d="M 1421.1 388.0 Q 1419.1 388.0, 1418.0 386.5 Q 1417.0 384.9, 1417.0 382.2 Q 1417.0 379.5, 1418.0 378.0 Q 1419.0 376.4, 1421.1 376.4 Q 1423.2 376.4, 1424.3 378.0 Q 1425.3 379.5, 1425.3 382.2 Q 1425.3 384.9, 1424.2 386.5 Q 1423.2 388.0, 1421.1 388.0 M 1421.1 386.7 Q 1422.4 386.7, 1423.0 385.6 Q 1423.7 384.4, 1423.7 382.2 Q 1423.7 380.0, 1423.0 378.8 Q 1422.4 377.7, 1421.1 377.7 Q 1419.9 377.7, 1419.2 378.8 Q 1418.6 380.0, 1418.6 382.2 Q 1418.6 384.4, 1419.2 385.6 Q 1419.9 386.7, 1421.1 386.7 " fill="#000000"/>
<path class="legend" d="M 1426.3 386.3 L 1427.9 386.3 L 1427.9 387.9 L 1426.3 387.9 L 1426.3 386.3 " fill="#000000"/>
<path class="legend" d="M 1436.3 384.0 L 1437.7 384.0 L 1437.7 385.3 L 1436.3 385.3 L 1436.3 387.9 L 1434.8 387.9 L 1434.8 385.3 L 1429.0 385.3 L 1429.0 384.3 L 1433.9 376.6 L 1436.3 376.6 L 1436.3 384.0 M 1430.8 384.0 L 1434.8 384.0 L 1434.8 377.6 L 1430.8 384.0 " fill="#000000"/>
<path class="legend" d="M 1442.3 376.4 Q 1444.3 376.4, 1445.3 377.8 Q 1446.3 379.2, 1446.3 381.9 Q 1446.3 384.9, 1445.1 386.5 Q 1443.8 388.0, 1441.4 388.0 Q 1440.7 388.0, 1440.1 387.9 Q 1439.5 387.7, 1438.9 387.4 L 1439.5 386.3 Q 1440.4 386.7, 1441.4 386.7 Q 1443.0 386.7, 1443.8 385.7 Q 1444.6 384.7, 1444.7 382.5 Q 1444.1 383.1, 1443.4 383.4 Q 1442.7 383.6, 1441.9 383.6 Q 1440.9 383.6, 1440.1 383.2 Q 1439.3 382.8, 1438.9 382.0 Q 1438.5 381.2, 1438.5 380.2 Q 1438.5 379.1, 1438.9 378.3 Q 1439.4 377.4, 1440.3 376.9 Q 1441.2 376.4, 1442.3 376.4 M 1440.1 380.2 Q 1440.1 381.2, 1440.6 381.8 Q 1441.2 382.4, 1442.2 382.4 Q 1442.9 382.4, 1443.5 382.1 Q 1444.2 381.8, 1444.7 381.3 Q 1444.6 379.4, 1444.0 378.6 Q 1443.5 377.7, 1442.3 377.7 Q 1441.6 377.7, 1441.1 378.1 Q 1440.6 378.4, 1440.3 378.9 Q 1440.1 379.5, 1440.1 380.2 " fill="#000000"/>
<path class="legend" d="M 1451.8 380.8 Q 1452.8 380.8, 1453.6 381.2 Q 1454.4 381.7, 1454.8 382.5 Q 1455.3 383.2, 1455.3 384.2 Q 1455.3 385.3, 1454.8 386.2 Q 1454.3 387.1, 1453.4 387.5 Q 1452.6 388.0, 1451.5 388.0 Q 1449.4 388.0, 1448.4 386.7 Q 1447.4 385.3, 1447.4 382.6 Q 1447.4 379.6, 1448.7 378.0 Q 1449.9 376.4, 1452.3 376.4 Q 1453.0 376.4, 1453.6 376.6 Q 1454.2 376.8, 1454.8 377.1 L 1454.2 378.2 Q 1453.4 377.7, 1452.3 377.7 Q 1450.7 377.7, 1449.9 378.8 Q 1449.1 379.8, 1449.0 381.9 Q 1449.6 381.4, 1450.3 381.1 Q 1451.1 380.8, 1451.8 380.8 M 1451.5 386.7 Q 1452.1 386.7, 1452.6 386.4 Q 1453.1 386.1, 1453.4 385.5 Q 1453.7 384.9, 1453.7 384.3 Q 1453.7 383.2, 1453.1 382.7 Q 1452.5 382.1, 1451.5 382.1 Q 1450.9 382.1, 1450.2 382.4 Q 1449.5 382.7, 1449.0 383.1 Q 1449.1 385.0, 1449.7 385.9 Q 1450.3 386.7, 1451.5 386.7 " fill="#000000"/>
<path class="legend" d="M 1461.9 381.9 Q 1463.0 382.3, 1463.5 383.0 Q 1464.1 383.7, 1464.1 384.8 Q 1464.1 385.7, 1463.6 386.5 Q 1463.1 387.2, 1462.3 387.6 Q 1461.4 388.0, 1460.2 388.0 Q 1458.3 388.0, 1457.2 387.2 Q 1456.1 386.3, 1456.1 384.8 Q 1456.1 383.9, 1456.6 383.2 Q 1457.1 382.5, 1458.1 381.9 Q 1457.4 381.5, 1457.0 380.9 Q 1456.6 380.3, 1456.6 379.3 Q 1456.6 378.0, 1457.5 377.2 Q 1458.5 376.4, 1460.1 376.4 Q 1461.8 376.4, 1462.7 377.2 Q 1463.7 378.0, 1463.7 379.3 Q 1463.7 380.2, 1463.3 380.8 Q 1462.8 381.4, 1461.9 381.9 M 1460.1 377.6 Q 1459.2 377.6, 1458.7 378.1 Q 1458.2 378.5, 1458.2 379.3 Q 1458.2 379.9, 1458.5 380.3 Q 1458.9 380.7, 1459.4 380.9 Q 1459.9 381.2, 1460.8 381.5 Q 1461.5 381.0, 1461.8 380.5 Q 1462.1 380.0, 1462.1 379.3 Q 1462.1 378.5, 1461.6 378.1 Q 1461.1 377.6, 1460.1 377.6 M 1460.2 386.8 Q 1461.3 386.8, 1461.9 386.3 Q 1462.5 385.7, 1462.5 384.8 Q 1462.5 384.2, 1462.2 383.8 Q 1461.9 383.4, 1461.4 383.2 Q 1460.9 382.9, 1460.0 382.7 L 1459.2 382.4 Q 1458.4 382.9, 1458.1 383.5 Q 1457.7 384.0, 1457.7 384.8 Q 1457.7 385.7, 1458.4 386.3 Q 1459.1 386.8, 1460.2 386.8 " fill="#000000"/>
</svg>