<svg xmlns="http://www.w3.org/2000/svg" xmlns:rdkit="http://www.rdkit.org/xml" xmlns:xlink="http://www.w3.org/1999/xlink" version="1.1" baseProfile="full" xml:space="preserve" width="2000px" height="400px" viewBox="0 0 2000 400">
<!-- END OF HEADER -->
<rect style="opacity:1.0;fill:#FFFFFF;stroke:none" width="2000.0" height="400.0" x="0.0" y="0.0"> </rect>
<path class="bond-0 atom-0 atom-1" d="M 380.5,185.0 L 377.6,214.6" style="fill:none;fill-rule:evenodd;stroke:#000000;stroke-width:2.0px;stroke-linecap:butt;stroke-linejoin:miter;stroke-opacity:1"/>
<path class="bond-1 atom-1 atom-2" d="M 377.6,214.6 L 350.6,226.8" style="fill:none;fill-rule:evenodd;stroke:#000000;stroke-width:2.0px;stroke-linecap:butt;stroke-linejoin:miter;stroke-opacity:1"/>
<path class="bond-1 atom-1 atom-2" d="M 371.1,211.0 L 352.2,219.6" style="fill:none;fill-rule:evenodd;stroke:#000000;stroke-width:2.0px;stroke-linecap:butt;stroke-linejoin:miter;stroke-opacity:1"/>
<path class="bond-2 atom-2 atom-3" d="M 350.6,226.8 L 326.4,209.5" style="fill:none;fill-rule:evenodd;stroke:#000000;stroke-width:2.0px;stroke-linecap:butt;stroke-linejoin:miter;stroke-opacity:1"/>
<path class="bond-3 atom-3 atom-4" d="M 326.4,209.5 L 299.4,221.8" style="fill:none;fill-rule:evenodd;stroke:#000000;stroke-width:2.0px;stroke-linecap:butt;stroke-linejoin:miter;stroke-opacity:1"/>
<path class="bond-3 atom-3 atom-4" d="M 324.8,216.8 L 305.9,225.4" style="fill:none;fill-rule:evenodd;stroke:#000000;stroke-width:2.0px;stroke-linecap:butt;stroke-linejoin:miter;stroke-opacity:1"/>
<path class="bond-4 atom-4 atom-5" d="M 299.4,221.8 L 275.3,204.5" style="fill:none;fill-rule:evenodd;stroke:#000000;stroke-width:2.0px;stroke-linecap:butt;stroke-linejoin:miter;stroke-opacity:1"/>
<path class="bond-5 atom-5 atom-6" d="M 275.3,204.5 L 248.2,216.8" style="fill:none;fill-rule:evenodd;stroke:#000000;stroke-width:2.0px;stroke-linecap:butt;stroke-linejoin:miter;stroke-opacity:1"/>
<path class="bond-6 atom-6 atom-7" d="M 248.2,216.8 L 224.1,199.5" style="fill:none;fill-rule:evenodd;stroke:#000000;stroke-width:2.0px;stroke-linecap:butt;stroke-linejoin:miter;stroke-opacity:1"/>
<path class="bond-7 atom-7 atom-8" d="M 224.1,199.5 L 197.1,211.7" style="fill:none;fill-rule:evenodd;stroke:#000000;stroke-width:2.0px;stroke-linecap:butt;stroke-linejoin:miter;stroke-opacity:1"/>
<path class="bond-8 atom-8 atom-9" d="M 197.1,211.7 L 173.0,194.4" style="fill:none;fill-rule:evenodd;stroke:#000000;stroke-width:2.0px;stroke-linecap:butt;stroke-linejoin:miter;stroke-opacity:1"/>
<path class="bond-9 atom-9 atom-10" d="M 173.0,194.4 L 145.9,206.7" style="fill:none;fill-rule:evenodd;stroke:#000000;stroke-width:2.0px;stroke-linecap:butt;stroke-linejoin:miter;stroke-opacity:1"/>
<path class="bond-10 atom-10 atom-11" d="M 145.9,206.7 L 121.8,189.4" style="fill:none;fill-rule:evenodd;stroke:#000000;stroke-width:2.0px;stroke-linecap:butt;stroke-linejoin:miter;stroke-opacity:1"/>
<path class="bond-11 atom-11 atom-12" d="M 121.8,189.4 L 94.8,201.7" style="fill:none;fill-rule:evenodd;stroke:#000000;stroke-width:2.0px;stroke-linecap:butt;stroke-linejoin:miter;stroke-opacity:1"/>
<path class="bond-12 atom-12 atom-13" d="M 94.8,201.7 L 70.7,184.4" style="fill:none;fill-rule:evenodd;stroke:#000000;stroke-width:2.0px;stroke-linecap:butt;stroke-linejoin:miter;stroke-opacity:1"/>
<path class="bond-13 atom-13 atom-14" d="M 70.7,184.4 L 43.6,196.6" style="fill:none;fill-rule:evenodd;stroke:#000000;stroke-width:2.0px;stroke-linecap:butt;stroke-linejoin:miter;stroke-opacity:1"/>
<path class="bond-14 atom-14 atom-15" d="M 43.6,196.6 L 19.5,179.4" style="fill:none;fill-rule:evenodd;stroke:#000000;stroke-width:2.0px;stroke-linecap:butt;stroke-linejoin:miter;stroke-opacity:1"/>
<path class="bond-15 atom-3 atom-16" d="M 326.4,209.5 L 329.3,180.0" style="fill:none;fill-rule:evenodd;stroke:#000000;stroke-width:2.0px;stroke-linecap:butt;stroke-linejoin:miter;stroke-opacity:1"/>
<path class="bond-16 atom-16 atom-17" d="M 328.1,177.3 L 339.2,172.3" style="fill:none;fill-rule:evenodd;stroke:#000000;stroke-width:2.0px;stroke-linecap:butt;stroke-linejoin:miter;stroke-opacity:1"/>
<path class="bond-16 atom-16 atom-17" d="M 339.2,172.3 L 350.3,167.2" style="fill:none;fill-rule:evenodd;stroke:#FF0000;stroke-width:2.0px;stroke-linecap:butt;stroke-linejoin:miter;stroke-opacity:1"/>
<path class="bond-16 atom-16 atom-17" d="M 330.6,182.7 L 341.7,177.7" style="fill:none;fill-rule:evenodd;stroke:#000000;stroke-width:2.0px;stroke-linecap:butt;stroke-linejoin:miter;stroke-opacity:1"/>
<path class="bond-16 atom-16 atom-17" d="M 341.7,177.7 L 352.7,172.6" style="fill:none;fill-rule:evenodd;stroke:#FF0000;stroke-width:2.0px;stroke-linecap:butt;stroke-linejoin:miter;stroke-opacity:1"/>
<path class="bond-17 atom-16 atom-18" d="M 329.3,180.0 L 319.7,173.1" style="fill:none;fill-rule:evenodd;stroke:#000000;stroke-width:2.0px;stroke-linecap:butt;stroke-linejoin:miter;stroke-opacity:1"/>
<path class="bond-17 atom-16 atom-18" d="M 319.7,173.1 L 310.0,166.2" style="fill:none;fill-rule:evenodd;stroke:#FF0000;stroke-width:2.0px;stroke-linecap:butt;stroke-linejoin:miter;stroke-opacity:1"/>
<path class="bond-18 atom-18 atom-19" d="M 305.7,157.5 L 306.9,145.3" style="fill:none;fill-rule:evenodd;stroke:#FF0000;stroke-width:2.0px;stroke-linecap:butt;stroke-linejoin:miter;stroke-opacity:1"/>
<path class="bond-18 atom-18 atom-19" d="M 306.9,145.3 L 308.1,133.2" style="fill:none;fill-rule:evenodd;stroke:#000000;stroke-width:2.0px;stroke-linecap:butt;stroke-linejoin:miter;stroke-opacity:1"/>
<path class="atom-17" d="M 352.5 167.8 Q 352.5 165.8, 353.5 164.6 Q 354.5 163.5, 356.4 163.5 Q 358.2 163.5, 359.2 164.6 Q 360.2 165.8, 360.2 167.8 Q 360.2 169.8, 359.2 171.0 Q 358.2 172.1, 356.4 172.1 Q 354.5 172.1, 353.5 171.0 Q 352.5 169.8, 352.5 167.8 M 356.4 171.2 Q 357.6 171.2, 358.3 170.3 Q 359.0 169.5, 359.0 167.8 Q 359.0 166.1, 358.3 165.3 Q 357.6 164.4, 356.4 164.4 Q 355.1 164.4, 354.4 165.3 Q 353.7 166.1, 353.7 167.8 Q 353.7 169.5, 354.4 170.3 Q 355.1 171.2, 356.4 171.2 " fill="#FF0000"/>
<path class="atom-18" d="M 301.4 162.7 Q 301.4 160.7, 302.3 159.6 Q 303.3 158.5, 305.2 158.5 Q 307.1 158.5, 308.1 159.6 Q 309.1 160.7, 309.1 162.7 Q 309.1 164.8, 308.1 165.9 Q 307.0 167.1, 305.2 167.1 Q 303.4 167.1, 302.3 165.9 Q 301.4 164.8, 301.4 162.7 M 305.2 166.1 Q 306.5 166.1, 307.2 165.3 Q 307.9 164.4, 307.9 162.7 Q 307.9 161.1, 307.2 160.3 Q 306.5 159.4, 305.2 159.4 Q 303.9 159.4, 303.2 160.3 Q 302.5 161.1, 302.5 162.7 Q 302.5 164.4, 303.2 165.3 Q 303.9 166.1, 305.2 166.1 " fill="#FF0000"/>
<path class="legend" d="M 166.7 365.4 L 166.9 366.5 Q 167.8 365.3, 169.2 365.3 Q 169.6 365.3, 170.2 365.4 L 170.0 366.8 Q 169.3 366.6, 168.9 366.6 Q 168.3 366.6, 167.8 366.9 Q 167.4 367.1, 167.0 367.8 L 167.0 373.6 L 165.5 373.6 L 165.5 365.4 L 166.7 365.4 " fill="#000000"/>
<path class="legend" d="M 170.5 369.5 Q 170.5 367.5, 171.5 366.4 Q 172.5 365.3, 174.3 365.3 Q 176.1 365.3, 176.9 366.4 Q 177.8 367.4, 177.8 369.5 L 177.8 369.7 L 172.0 369.7 Q 172.0 371.1, 172.7 371.8 Q 173.3 372.6, 174.5 372.6 Q 175.1 372.6, 175.7 372.4 Q 176.3 372.3, 177.0 372.0 L 177.4 373.0 Q 176.6 373.4, 175.9 373.6 Q 175.2 373.8, 174.4 373.8 Q 172.5 373.8, 171.5 372.6 Q 170.5 371.5, 170.5 369.5 M 174.3 366.4 Q 173.4 366.4, 172.8 367.0 Q 172.3 367.5, 172.1 368.6 L 176.2 368.6 Q 176.1 367.5, 175.6 367.0 Q 175.2 366.4, 174.3 366.4 " fill="#000000"/>
<path class="legend" d="M 178.4 371.4 Q 178.4 370.1, 179.4 369.4 Q 180.5 368.7, 182.4 368.7 L 183.6 368.7 L 183.6 368.3 Q 183.6 367.3, 183.2 366.9 Q 182.8 366.4, 181.8 366.4 Q 181.1 366.4, 180.6 366.6 Q 180.1 366.7, 179.3 367.0 L 178.8 366.0 Q 180.3 365.3, 181.8 365.3 Q 183.5 365.3, 184.3 366.0 Q 185.1 366.8, 185.1 368.4 L 185.1 373.6 L 184.0 373.6 Q 184.0 373.6, 183.9 373.3 Q 183.9 373.1, 183.8 372.7 Q 182.6 373.8, 181.1 373.8 Q 179.8 373.8, 179.1 373.2 Q 178.4 372.5, 178.4 371.4 M 179.9 371.4 Q 179.9 372.0, 180.3 372.3 Q 180.6 372.6, 181.4 372.6 Q 182.0 372.6, 182.6 372.4 Q 183.2 372.0, 183.6 371.5 L 183.6 369.8 L 182.5 369.8 Q 181.2 369.8, 180.5 370.2 Q 179.9 370.6, 179.9 371.4 " fill="#000000"/>
<path class="legend" d="M 186.4 369.5 Q 186.4 367.5, 187.4 366.4 Q 188.4 365.3, 190.3 365.3 Q 192.2 365.3, 193.2 366.6 L 192.1 367.4 Q 191.8 366.9, 191.3 366.7 Q 190.9 366.4, 190.3 366.4 Q 189.2 366.4, 188.5 367.2 Q 187.9 368.0, 187.9 369.5 Q 187.9 371.0, 188.5 371.8 Q 189.2 372.6, 190.4 372.6 Q 191.1 372.6, 191.5 372.4 Q 192.0 372.3, 192.6 372.0 L 193.0 373.0 Q 191.8 373.7, 190.3 373.7 Q 188.4 373.7, 187.4 372.6 Q 186.4 371.5, 186.4 369.5 " fill="#000000"/>
<path class="legend" d="M 193.5 366.6 L 193.5 365.4 L 195.1 365.4 L 195.4 363.0 L 196.5 363.0 L 196.5 365.4 L 199.0 365.4 L 199.0 366.6 L 196.5 366.6 L 196.5 371.1 Q 196.5 372.5, 197.7 372.5 Q 198.2 372.5, 198.9 372.3 L 199.1 373.4 Q 198.2 373.7, 197.4 373.7 Q 196.3 373.7, 195.6 373.1 Q 195.0 372.4, 195.0 371.2 L 195.0 366.6 L 193.5 366.6 " fill="#000000"/>
<path class="legend" d="M 207.7 374.4 L 207.7 375.7 L 199.5 375.7 L 199.5 374.4 L 207.7 374.4 " fill="#000000"/>
<path class="legend" d="M 215.0 369.7 L 216.4 369.7 L 216.4 371.0 L 215.0 371.0 L 215.0 373.6 L 213.5 373.6 L 213.5 371.0 L 207.7 371.0 L 207.7 370.0 L 212.6 362.3 L 215.0 362.3 L 215.0 369.7 M 209.5 369.7 L 213.5 369.7 L 213.5 363.3 L 209.5 369.7 " fill="#000000"/>
<path class="legend" d="M 223.0 367.6 Q 224.0 368.1, 224.6 368.8 Q 225.2 369.4, 225.2 370.5 Q 225.2 371.5, 224.7 372.2 Q 224.2 373.0, 223.3 373.4 Q 222.4 373.8, 221.2 373.8 Q 219.4 373.8, 218.3 372.9 Q 217.2 372.0, 217.2 370.5 Q 217.2 369.6, 217.7 368.9 Q 218.1 368.2, 219.1 367.7 Q 218.4 367.3, 218.0 366.7 Q 217.6 366.0, 217.6 365.1 Q 217.6 363.7, 218.6 363.0 Q 219.5 362.2, 221.2 362.2 Q 222.8 362.2, 223.8 363.0 Q 224.8 363.7, 224.8 365.1 Q 224.8 365.9, 224.3 366.5 Q 223.9 367.1, 223.0 367.6 M 221.2 363.4 Q 220.2 363.4, 219.7 363.8 Q 219.2 364.3, 219.2 365.1 Q 219.2 365.7, 219.6 366.1 Q 219.9 366.4, 220.4 366.7 Q 220.9 366.9, 221.9 367.2 Q 222.6 366.8, 222.9 366.2 Q 223.2 365.7, 223.2 365.1 Q 223.2 364.3, 222.6 363.8 Q 222.1 363.4, 221.2 363.4 M 221.2 372.6 Q 222.3 372.6, 222.9 372.0 Q 223.6 371.5, 223.6 370.5 Q 223.6 369.9, 223.2 369.5 Q 222.9 369.1, 222.4 368.9 Q 221.9 368.7, 221.0 368.4 L 220.3 368.2 Q 219.5 368.6, 219.1 369.2 Q 218.8 369.8, 218.8 370.5 Q 218.8 371.5, 219.5 372.0 Q 220.1 372.6, 221.2 372.6 " fill="#000000"/>
<path class="legend" d="M 230.3 373.8 Q 228.3 373.8, 227.2 372.2 Q 226.2 370.7, 226.2 368.0 Q 226.2 365.2, 227.2 363.7 Q 228.2 362.2, 230.3 362.2 Q 232.4 362.2, 233.5 363.7 Q 234.5 365.2, 234.5 368.0 Q 234.5 370.7, 233.4 372.2 Q 232.4 373.8, 230.3 373.8 M 230.3 372.5 Q 231.6 372.5, 232.2 371.3 Q 232.9 370.2, 232.9 368.0 Q 232.9 365.7, 232.2 364.6 Q 231.6 363.5, 230.3 363.5 Q 229.1 363.5, 228.4 364.6 Q 227.8 365.7, 227.8 368.0 Q 227.8 370.2, 228.4 371.3 Q 229.1 372.5, 230.3 372.5 " fill="#000000"/>
<path class="legend" d="M 136.6 383.8 Q 136.6 381.8, 137.6 380.7 Q 138.5 379.5, 140.5 379.5 Q 142.4 379.5, 143.3 380.9 L 142.3 381.6 Q 142.0 381.2, 141.5 380.9 Q 141.1 380.7, 140.5 380.7 Q 139.4 380.7, 138.7 381.5 Q 138.1 382.3, 138.1 383.8 Q 138.1 385.3, 138.7 386.1 Q 139.4 386.8, 140.6 386.8 Q 141.3 386.8, 141.7 386.7 Q 142.2 386.5, 142.8 386.3 L 143.2 387.3 Q 142.0 388.0, 140.5 388.0 Q 138.5 388.0, 137.6 386.9 Q 136.6 385.7, 136.6 383.8 " fill="#000000"/>
<path class="legend" d="M 143.7 383.8 Q 143.7 381.7, 144.7 380.6 Q 145.7 379.5, 147.6 379.5 Q 149.4 379.5, 150.2 380.6 Q 151.0 381.7, 151.0 383.7 L 151.0 384.0 L 145.3 384.0 Q 145.3 385.4, 145.9 386.1 Q 146.5 386.8, 147.7 386.8 Q 148.4 386.8, 148.9 386.7 Q 149.5 386.5, 150.3 386.2 L 150.7 387.2 Q 149.9 387.6, 149.1 387.8 Q 148.4 388.0, 147.6 388.0 Q 145.8 388.0, 144.8 386.9 Q 143.7 385.8, 143.7 383.8 M 147.6 380.7 Q 146.6 380.7, 146.1 381.2 Q 145.5 381.8, 145.3 382.8 L 149.4 382.8 Q 149.3 381.7, 148.9 381.2 Q 148.4 380.7, 147.6 380.7 " fill="#000000"/>
<path class="legend" d="M 155.9 379.5 Q 157.2 379.5, 157.9 380.3 Q 158.6 381.0, 158.6 382.4 L 158.6 387.9 L 157.1 387.9 L 157.1 382.6 Q 157.1 381.6, 156.7 381.2 Q 156.4 380.7, 155.5 380.7 Q 154.8 380.7, 154.1 381.1 Q 153.5 381.4, 153.1 382.0 L 153.1 387.9 L 151.6 387.9 L 151.6 379.7 L 152.9 379.7 L 153.0 380.8 Q 154.1 379.5, 155.9 379.5 " fill="#000000"/>
<path class="legend" d="M 159.8 380.8 L 159.8 379.7 L 161.4 379.7 L 161.7 377.3 L 162.8 377.3 L 162.8 379.7 L 165.3 379.7 L 165.3 380.8 L 162.8 380.8 L 162.8 385.4 Q 162.8 386.8, 164.0 386.8 Q 164.5 386.8, 165.2 386.6 L 165.4 387.6 Q 164.5 388.0, 163.7 388.0 Q 162.6 388.0, 162.0 387.3 Q 161.3 386.7, 161.3 385.4 L 161.3 380.8 L 159.8 380.8 " fill="#000000"/>
<path class="legend" d="M 174.0 388.7 L 174.0 390.0 L 165.8 390.0 L 165.8 388.7 L 174.0 388.7 " fill="#000000"/>
<path class="legend" d="M 181.5 375.7 L 181.5 387.9 L 180.2 387.9 L 180.0 386.9 Q 179.1 388.0, 177.6 388.0 Q 175.9 388.0, 174.9 387.0 Q 174.0 385.9, 174.0 383.9 Q 174.0 381.8, 175.1 380.7 Q 176.2 379.5, 178.2 379.5 Q 179.1 379.5, 180.0 379.7 L 180.0 375.7 L 181.5 375.7 M 177.7 386.8 Q 178.5 386.8, 179.1 386.4 Q 179.7 385.9, 180.0 385.1 L 180.0 380.9 Q 179.1 380.7, 178.2 380.7 Q 177.0 380.7, 176.2 381.6 Q 175.5 382.4, 175.5 383.9 Q 175.5 385.3, 176.1 386.1 Q 176.7 386.8, 177.7 386.8 " fill="#000000"/>
<path class="legend" d="M 182.7 376.6 L 184.2 376.6 L 184.2 378.0 L 182.7 378.0 L 182.7 376.6 M 182.7 379.7 L 184.2 379.7 L 184.2 387.9 L 182.7 387.9 L 182.7 379.7 " fill="#000000"/>
<path class="legend" d="M 186.1 386.2 Q 186.8 386.5, 187.3 386.6 Q 187.8 386.8, 188.4 386.8 Q 189.1 386.8, 189.5 386.5 Q 189.9 386.2, 189.9 385.6 Q 189.9 385.2, 189.7 385.0 Q 189.5 384.8, 189.2 384.6 Q 188.9 384.5, 188.2 384.3 Q 188.1 384.3, 187.4 384.0 Q 186.6 383.7, 186.2 383.2 Q 185.9 382.7, 185.9 381.9 Q 185.9 380.9, 186.6 380.2 Q 187.4 379.5, 188.9 379.5 Q 189.5 379.5, 190.1 379.7 Q 190.6 379.8, 191.2 380.0 L 190.8 381.2 Q 190.3 381.0, 189.8 380.9 Q 189.4 380.8, 188.9 380.8 Q 188.1 380.8, 187.7 381.1 Q 187.4 381.4, 187.4 381.8 Q 187.4 382.3, 187.7 382.5 Q 188.0 382.7, 188.6 383.0 Q 188.8 383.0, 189.0 383.1 L 189.3 383.2 Q 190.0 383.4, 190.4 383.7 Q 190.8 383.9, 191.1 384.4 Q 191.4 384.8, 191.4 385.6 Q 191.4 386.7, 190.6 387.4 Q 189.7 388.0, 188.4 388.0 Q 187.6 388.0, 186.9 387.9 Q 186.3 387.7, 185.6 387.4 L 186.1 386.2 " fill="#000000"/>
<path class="legend" d="M 192.3 380.8 L 192.3 379.7 L 193.8 379.7 L 194.1 377.3 L 195.2 377.3 L 195.2 379.7 L 197.7 379.7 L 197.7 380.8 L 195.2 380.8 L 195.2 385.4 Q 195.2 386.8, 196.4 386.8 Q 196.9 386.8, 197.6 386.6 L 197.8 387.6 Q 197.0 388.0, 196.1 388.0 Q 195.1 388.0, 194.4 387.3 Q 193.7 386.7, 193.7 385.4 L 193.7 380.8 L 192.3 380.8 " fill="#000000"/>
<path class="legend" d="" fill="#000000"/>
<path class="legend" d="M 203.6 380.9 L 210.9 380.9 L 210.9 382.1 L 203.6 382.1 L 203.6 380.9 M 203.6 384.4 L 210.9 384.4 L 210.9 385.5 L 203.6 385.5 L 203.6 384.4 " fill="#000000"/>
<path class="legend" d="" fill="#000000"/>
<path class="legend" d="M 221.8 388.0 Q 219.8 388.0, 218.7 386.5 Q 217.7 384.9, 217.7 382.2 Q 217.7 379.5, 218.7 378.0 Q 219.7 376.4, 221.8 376.4 Q 223.9 376.4, 225.0 378.0 Q 226.0 379.5, 226.0 382.2 Q 226.0 384.9, 224.9 386.5 Q 223.9 388.0, 221.8 388.0 M 221.8 386.7 Q 223.1 386.7, 223.7 385.6 Q 224.4 384.4, 224.4 382.2 Q 224.4 380.0, 223.7 378.8 Q 223.1 377.7, 221.8 377.7 Q 220.6 377.7, 219.9 378.8 Q 219.3 380.0, 219.3 382.2 Q 219.3 384.4, 219.9 385.6 Q 220.6 386.7, 221.8 386.7 " fill="#000000"/>
<path class="legend" d="M 227.0 386.3 L 228.6 386.3 L 228.6 387.9 L 227.0 387.9 L 227.0 386.3 " fill="#000000"/>
<path class="legend" d="M 234.1 380.8 Q 235.1 380.8, 235.9 381.2 Q 236.7 381.7, 237.1 382.5 Q 237.5 383.2, 237.5 384.2 Q 237.5 385.3, 237.0 386.2 Q 236.5 387.1, 235.7 387.5 Q 234.8 388.0, 233.7 388.0 Q 231.7 388.0, 230.7 386.7 Q 229.7 385.3, 229.7 382.6 Q 229.7 379.6, 230.9 378.0 Q 232.2 376.4, 234.6 376.4 Q 235.3 376.4, 235.9 376.6 Q 236.5 376.8, 237.1 377.1 L 236.4 378.2 Q 235.6 377.7, 234.6 377.7 Q 233.0 377.7, 232.2 378.8 Q 231.4 379.8, 231.3 381.9 Q 231.9 381.4, 232.6 381.1 Q 233.3 380.8, 234.1 380.8 M 233.7 386.7 Q 234.3 386.7, 234.8 386.4 Q 235.3 386.1, 235.6 385.5 Q 235.9 384.9, 235.9 384.3 Q 235.9 383.2, 235.4 382.7 Q 234.8 382.1, 233.8 382.1 Q 233.1 382.1, 232.4 382.4 Q 231.8 382.7, 231.3 383.1 Q 231.3 385.0, 231.9 385.9 Q 232.5 386.7, 233.7 386.7 " fill="#000000"/>
<path class="legend" d="M 238.4 378.7 Q 238.8 377.6, 239.8 377.0 Q 240.8 376.4, 242.2 376.4 Q 243.9 376.4, 244.9 377.4 Q 245.8 378.3, 245.8 379.9 Q 245.8 381.6, 244.6 383.2 Q 243.4 384.8, 240.8 386.6 L 246.0 386.6 L 246.0 387.9 L 238.4 387.9 L 238.4 386.8 Q 240.5 385.3, 241.8 384.2 Q 243.0 383.1, 243.6 382.1 Q 244.2 381.1, 244.2 380.0 Q 244.2 378.9, 243.7 378.3 Q 243.1 377.7, 242.2 377.7 Q 241.3 377.7, 240.7 378.1 Q 240.1 378.4, 239.6 379.3 L 238.4 378.7 " fill="#000000"/>
<path class="legend" d="M 247.0 378.7 Q 247.4 377.6, 248.4 377.0 Q 249.4 376.4, 250.8 376.4 Q 252.5 376.4, 253.5 377.4 Q 254.4 378.3, 254.4 379.9 Q 254.4 381.6, 253.2 383.2 Q 251.9 384.8, 249.4 386.6 L 254.6 386.6 L 254.6 387.9 L 247.0 387.9 L 247.0 386.8 Q 249.1 385.3, 250.3 384.2 Q 251.6 383.1, 252.2 382.1 Q 252.8 381.1, 252.8 380.0 Q 252.8 378.9, 252.3 378.3 Q 251.7 377.7, 250.8 377.7 Q 249.9 377.7, 249.3 378.1 Q 248.7 378.4, 248.2 379.3 L 247.0 378.7 " fill="#000000"/>
<path class="legend" d="M 260.0 380.8 Q 261.0 380.8, 261.8 381.2 Q 262.6 381.7, 263.0 382.5 Q 263.4 383.2, 263.4 384.2 Q 263.4 385.3, 262.9 386.2 Q 262.5 387.1, 261.6 387.5 Q 260.7 388.0, 259.6 388.0 Q 257.6 388.0, 256.6 386.7 Q 255.6 385.3, 255.6 382.6 Q 255.6 379.6, 256.8 378.0 Q 258.1 376.4, 260.5 376.4 Q 261.2 376.4, 261.8 376.6 Q 262.4 376.8, 263.0 377.1 L 262.4 378.2 Q 261.5 377.7, 260.5 377.7 Q 258.9 377.7, 258.1 378.8 Q 257.3 379.8, 257.2 381.9 Q 257.8 381.4, 258.5 381.1 Q 259.2 380.8, 260.0 380.8 M 259.6 386.7 Q 260.3 386.7, 260.7 386.4 Q 261.3 386.1, 261.5 385.5 Q 261.8 384.9, 261.8 384.3 Q 261.8 383.2, 261.3 382.7 Q 260.7 382.1, 259.7 382.1 Q 259.0 382.1, 258.3 382.4 Q 257.7 382.7, 257.2 383.1 Q 257.3 385.0, 257.9 385.9 Q 258.4 386.7, 259.6 386.7 " fill="#000000"/>
<path class="bond-0 atom-0 atom-1" d="M 421.8,143.0 L 447.3,127.9" style="fill:none;fill-rule:evenodd;stroke:#000000;stroke-width:2.0px;stroke-linecap:butt;stroke-linejoin:miter;stroke-opacity:1"/>
<path class="bond-1 atom-1 atom-2" d="M 447.3,127.9 L 473.2,142.5" style="fill:none;fill-rule:evenodd;stroke:#000000;stroke-width:2.0px;stroke-linecap:butt;stroke-linejoin:miter;stroke-opacity:1"/>
<path class="bond-1 atom-1 atom-2" d="M 448.3,135.3 L 466.4,145.5" style="fill:none;fill-rule:evenodd;stroke:#000000;stroke-width:2.0px;stroke-linecap:butt;stroke-linejoin:miter;stroke-opacity:1"/>
<path class="bond-2 atom-2 atom-3" d="M 473.2,142.5 L 473.4,172.2" style="fill:none;fill-rule:evenodd;stroke:#000000;stroke-width:2.0px;stroke-linecap:butt;stroke-linejoin:miter;stroke-opacity:1"/>
<path class="bond-3 atom-3 atom-4" d="M 473.4,172.2 L 499.3,186.8" style="fill:none;fill-rule:evenodd;stroke:#000000;stroke-width:2.0px;stroke-linecap:butt;stroke-linejoin:miter;stroke-opacity:1"/>
<path class="bond-3 atom-3 atom-4" d="M 480.2,169.2 L 498.3,179.4" style="fill:none;fill-rule:evenodd;stroke:#000000;stroke-width:2.0px;stroke-linecap:butt;stroke-linejoin:miter;stroke-opacity:1"/>
<path class="bond-4 atom-4 atom-5" d="M 499.3,186.8 L 524.8,171.7" style="fill:none;fill-rule:evenodd;stroke:#000000;stroke-width:2.0px;stroke-linecap:butt;stroke-linejoin:miter;stroke-opacity:1"/>
<path class="bond-5 atom-5 atom-6" d="M 524.8,171.7 L 550.7,186.3" style="fill:none;fill-rule:evenodd;stroke:#000000;stroke-width:2.0px;stroke-linecap:butt;stroke-linejoin:miter;stroke-opacity:1"/>
<path class="bond-6 atom-6 atom-7" d="M 550.7,186.3 L 576.2,171.2" style="fill:none;fill-rule:evenodd;stroke:#000000;stroke-width:2.0px;stroke-linecap:butt;stroke-linejoin:miter;stroke-opacity:1"/>
<path class="bond-7 atom-7 atom-8" d="M 576.2,171.2 L 602.1,185.8" style="fill:none;fill-rule:evenodd;stroke:#000000;stroke-width:2.0px;stroke-linecap:butt;stroke-linejoin:miter;stroke-opacity:1"/>
<path class="bond-8 atom-8 atom-9" d="M 602.1,185.8 L 627.6,170.7" style="fill:none;fill-rule:evenodd;stroke:#000000;stroke-width:2.0px;stroke-linecap:butt;stroke-linejoin:miter;stroke-opacity:1"/>
<path class="bond-9 atom-9 atom-10" d="M 627.6,170.7 L 653.5,185.3" style="fill:none;fill-rule:evenodd;stroke:#000000;stroke-width:2.0px;stroke-linecap:butt;stroke-linejoin:miter;stroke-opacity:1"/>
<path class="bond-10 atom-10 atom-11" d="M 653.5,185.3 L 679.0,170.2" style="fill:none;fill-rule:evenodd;stroke:#000000;stroke-width:2.0px;stroke-linecap:butt;stroke-linejoin:miter;stroke-opacity:1"/>
<path class="bond-11 atom-11 atom-12" d="M 679.0,170.2 L 704.9,184.8" style="fill:none;fill-rule:evenodd;stroke:#000000;stroke-width:2.0px;stroke-linecap:butt;stroke-linejoin:miter;stroke-opacity:1"/>
<path class="bond-12 atom-12 atom-13" d="M 704.9,184.8 L 730.4,169.7" style="fill:none;fill-rule:evenodd;stroke:#000000;stroke-width:2.0px;stroke-linecap:butt;stroke-linejoin:miter;stroke-opacity:1"/>
<path class="bond-13 atom-13 atom-14" d="M 730.4,169.7 L 756.3,184.3" style="fill:none;fill-rule:evenodd;stroke:#000000;stroke-width:2.0px;stroke-linecap:butt;stroke-linejoin:miter;stroke-opacity:1"/>
<path class="bond-14 atom-14 atom-15" d="M 756.3,184.3 L 781.8,169.2" style="fill:none;fill-rule:evenodd;stroke:#000000;stroke-width:2.0px;stroke-linecap:butt;stroke-linejoin:miter;stroke-opacity:1"/>
<path class="bond-15 atom-3 atom-16" d="M 473.4,172.2 L 447.9,187.3" style="fill:none;fill-rule:evenodd;stroke:#000000;stroke-width:2.0px;stroke-linecap:butt;stroke-linejoin:miter;stroke-opacity:1"/>
<path class="bond-16 atom-16 atom-17" d="M 446.4,189.9 L 435.9,183.9" style="fill:none;fill-rule:evenodd;stroke:#000000;stroke-width:2.0px;stroke-linecap:butt;stroke-linejoin:miter;stroke-opacity:1"/>
<path class="bond-16 atom-16 atom-17" d="M 435.9,183.9 L 425.4,178.0" style="fill:none;fill-rule:evenodd;stroke:#FF0000;stroke-width:2.0px;stroke-linecap:butt;stroke-linejoin:miter;stroke-opacity:1"/>
<path class="bond-16 atom-16 atom-17" d="M 449.3,184.7 L 438.8,178.8" style="fill:none;fill-rule:evenodd;stroke:#000000;stroke-width:2.0px;stroke-linecap:butt;stroke-linejoin:miter;stroke-opacity:1"/>
<path class="bond-16 atom-16 atom-17" d="M 438.8,178.8 L 428.3,172.9" style="fill:none;fill-rule:evenodd;stroke:#FF0000;stroke-width:2.0px;stroke-linecap:butt;stroke-linejoin:miter;stroke-opacity:1"/>
<path class="bond-17 atom-16 atom-18" d="M 447.9,187.3 L 448.0,199.5" style="fill:none;fill-rule:evenodd;stroke:#000000;stroke-width:2.0px;stroke-linecap:butt;stroke-linejoin:miter;stroke-opacity:1"/>
<path class="bond-17 atom-16 atom-18" d="M 448.0,199.5 L 448.1,211.7" style="fill:none;fill-rule:evenodd;stroke:#FF0000;stroke-width:2.0px;stroke-linecap:butt;stroke-linejoin:miter;stroke-opacity:1"/>
<path class="bond-18 atom-18 atom-19" d="M 443.3,219.8 L 433.0,225.9" style="fill:none;fill-rule:evenodd;stroke:#FF0000;stroke-width:2.0px;stroke-linecap:butt;stroke-linejoin:miter;stroke-opacity:1"/>
<path class="bond-18 atom-18 atom-19" d="M 433.0,225.9 L 422.6,232.1" style="fill:none;fill-rule:evenodd;stroke:#000000;stroke-width:2.0px;stroke-linecap:butt;stroke-linejoin:miter;stroke-opacity:1"/>
<path class="atom-17" d="M 418.2 172.7 Q 418.2 170.7, 419.2 169.6 Q 420.2 168.5, 422.0 168.5 Q 423.9 168.5, 424.9 169.6 Q 425.9 170.7, 425.9 172.7 Q 425.9 174.8, 424.9 175.9 Q 423.9 177.1, 422.0 177.1 Q 420.2 177.1, 419.2 175.9 Q 418.2 174.8, 418.2 172.7 M 422.0 176.1 Q 423.3 176.1, 424.0 175.3 Q 424.7 174.4, 424.7 172.7 Q 424.7 171.1, 424.0 170.2 Q 423.3 169.4, 422.0 169.4 Q 420.8 169.4, 420.1 170.2 Q 419.4 171.1, 419.4 172.7 Q 419.4 174.4, 420.1 175.3 Q 420.8 176.1, 422.0 176.1 " fill="#FF0000"/>
<path class="atom-18" d="M 444.3 217.0 Q 444.3 215.0, 445.3 213.8 Q 446.3 212.7, 448.2 212.7 Q 450.0 212.7, 451.0 213.8 Q 452.0 215.0, 452.0 217.0 Q 452.0 219.0, 451.0 220.2 Q 450.0 221.3, 448.2 221.3 Q 446.3 221.3, 445.3 220.2 Q 444.3 219.0, 444.3 217.0 M 448.2 220.4 Q 449.4 220.4, 450.1 219.5 Q 450.8 218.7, 450.8 217.0 Q 450.8 215.3, 450.1 214.5 Q 449.4 213.7, 448.2 213.7 Q 446.9 213.7, 446.2 214.5 Q 445.5 215.3, 445.5 217.0 Q 445.5 218.7, 446.2 219.5 Q 446.9 220.4, 448.2 220.4 " fill="#FF0000"/>
<path class="legend" d="M 567.5 365.4 L 567.6 366.5 Q 568.5 365.3, 569.9 365.3 Q 570.4 365.3, 571.0 365.4 L 570.7 366.8 Q 570.0 366.6, 569.7 366.6 Q 569.0 366.6, 568.5 366.9 Q 568.1 367.1, 567.8 367.8 L 567.8 373.6 L 566.2 373.6 L 566.2 365.4 L 567.5 365.4 " fill="#000000"/>
<path class="legend" d="M 571.2 369.5 Q 571.2 367.5, 572.2 366.4 Q 573.2 365.3, 575.1 365.3 Q 576.9 365.3, 577.7 366.4 Q 578.5 367.4, 578.5 369.5 L 578.5 369.7 L 572.7 369.7 Q 572.8 371.1, 573.4 371.8 Q 574.0 372.6, 575.2 372.6 Q 575.8 372.6, 576.4 372.4 Q 577.0 372.3, 577.7 372.0 L 578.2 373.0 Q 577.4 373.4, 576.6 373.6 Q 575.9 373.8, 575.1 373.8 Q 573.3 373.8, 572.2 372.6 Q 571.2 371.5, 571.2 369.5 M 575.1 366.4 Q 574.1 366.4, 573.5 367.0 Q 573.0 367.5, 572.8 368.6 L 576.9 368.6 Q 576.8 367.5, 576.3 367.0 Q 575.9 366.4, 575.1 366.4 " fill="#000000"/>
<path class="legend" d="M 579.1 371.4 Q 579.1 370.1, 580.2 369.4 Q 581.2 368.7, 583.1 368.7 L 584.4 368.7 L 584.4 368.3 Q 584.4 367.3, 583.9 366.9 Q 583.5 366.4, 582.5 366.4 Q 581.8 366.4, 581.3 366.6 Q 580.8 366.7, 580.0 367.0 L 579.6 366.0 Q 581.1 365.3, 582.5 365.3 Q 584.3 365.3, 585.1 366.0 Q 585.9 366.8, 585.9 368.4 L 585.9 373.6 L 584.7 373.6 Q 584.7 373.6, 584.6 373.3 Q 584.6 373.1, 584.5 372.7 Q 583.3 373.8, 581.8 373.8 Q 580.6 373.8, 579.8 373.2 Q 579.1 372.5, 579.1 371.4 M 580.6 371.4 Q 580.6 372.0, 581.0 372.3 Q 581.4 372.6, 582.1 372.6 Q 582.7 372.6, 583.3 372.4 Q 583.9 372.0, 584.4 371.5 L 584.4 369.8 L 583.2 369.8 Q 581.9 369.8, 581.3 370.2 Q 580.6 370.6, 580.6 371.4 " fill="#000000"/>
<path class="legend" d="M 587.1 369.5 Q 587.1 367.5, 588.1 366.4 Q 589.1 365.3, 591.0 365.3 Q 592.9 365.3, 593.9 366.6 L 592.9 367.4 Q 592.5 366.9, 592.0 366.7 Q 591.6 366.4, 591.0 366.4 Q 589.9 366.4, 589.3 367.2 Q 588.6 368.0, 588.6 369.5 Q 588.6 371.0, 589.3 371.8 Q 589.9 372.6, 591.1 372.6 Q 591.8 372.6, 592.3 372.4 Q 592.7 372.3, 593.3 372.0 L 593.7 373.0 Q 592.5 373.7, 591.0 373.7 Q 589.1 373.7, 588.1 372.6 Q 587.1 371.5, 587.1 369.5 " fill="#000000"/>
<path class="legend" d="M 594.3 366.6 L 594.3 365.4 L 595.8 365.4 L 596.1 363.0 L 597.2 363.0 L 597.2 365.4 L 599.7 365.4 L 599.7 366.6 L 597.2 366.6 L 597.2 371.1 Q 597.2 372.5, 598.4 372.5 Q 598.9 372.5, 599.6 372.3 L 599.8 373.4 Q 599.0 373.7, 598.1 373.7 Q 597.1 373.7, 596.4 373.1 Q 595.7 372.4, 595.7 371.2 L 595.7 366.6 L 594.3 366.6 " fill="#000000"/>
<path class="legend" d="M 608.4 374.4 L 608.4 375.7 L 600.2 375.7 L 600.2 374.4 L 608.4 374.4 " fill="#000000"/>
<path class="legend" d="M 615.8 369.7 L 617.1 369.7 L 617.1 371.0 L 615.8 371.0 L 615.8 373.6 L 614.3 373.6 L 614.3 371.0 L 608.4 371.0 L 608.4 370.0 L 613.4 362.3 L 615.8 362.3 L 615.8 369.7 M 610.3 369.7 L 614.3 369.7 L 614.3 363.3 L 610.3 369.7 " fill="#000000"/>
<path class="legend" d="M 623.8 363.6 L 617.9 363.6 L 617.9 362.3 L 625.4 362.3 L 625.4 363.4 L 620.9 373.6 L 619.3 373.6 L 623.8 363.6 " fill="#000000"/>
<path class="legend" d="M 629.7 362.2 Q 631.7 362.2, 632.7 363.6 Q 633.8 364.9, 633.8 367.6 Q 633.8 370.6, 632.5 372.2 Q 631.2 373.8, 628.8 373.8 Q 628.1 373.8, 627.5 373.6 Q 626.9 373.4, 626.3 373.1 L 627.0 372.0 Q 627.8 372.5, 628.8 372.5 Q 630.4 372.5, 631.2 371.5 Q 632.0 370.4, 632.1 368.3 Q 631.6 368.8, 630.8 369.1 Q 630.1 369.4, 629.3 369.4 Q 628.3 369.4, 627.5 368.9 Q 626.8 368.5, 626.3 367.7 Q 625.9 366.9, 625.9 366.0 Q 625.9 364.8, 626.4 364.0 Q 626.9 363.1, 627.7 362.7 Q 628.6 362.2, 629.7 362.2 M 627.5 365.9 Q 627.5 366.9, 628.1 367.5 Q 628.6 368.1, 629.6 368.1 Q 630.3 368.1, 631.0 367.8 Q 631.7 367.5, 632.1 367.1 Q 632.1 365.2, 631.5 364.3 Q 630.9 363.5, 629.7 363.5 Q 629.1 363.5, 628.6 363.8 Q 628.1 364.1, 627.8 364.7 Q 627.5 365.2, 627.5 365.9 " fill="#000000"/>
<path class="legend" d="M 536.6 383.8 Q 536.6 381.8, 537.6 380.7 Q 538.5 379.5, 540.5 379.5 Q 542.4 379.5, 543.3 380.9 L 542.3 381.6 Q 542.0 381.2, 541.5 380.9 Q 541.1 380.7, 540.5 380.7 Q 539.4 380.7, 538.7 381.5 Q 538.1 382.3, 538.1 383.8 Q 538.1 385.3, 538.7 386.1 Q 539.4 386.8, 540.6 386.8 Q 541.3 386.8, 541.7 386.7 Q 542.2 386.5, 542.8 386.3 L 543.2 387.3 Q 542.0 388.0, 540.5 388.0 Q 538.5 388.0, 537.6 386.9 Q 536.6 385.7, 536.6 383.8 " fill="#000000"/>
<path class="legend" d="M 543.7 383.8 Q 543.7 381.7, 544.7 380.6 Q 545.7 379.5, 547.6 379.5 Q 549.4 379.5, 550.2 380.6 Q 551.0 381.7, 551.0 383.7 L 551.0 384.0 L 545.3 384.0 Q 545.3 385.4, 545.9 386.1 Q 546.5 386.8, 547.7 386.8 Q 548.4 386.8, 548.9 386.7 Q 549.5 386.5, 550.3 386.2 L 550.7 387.2 Q 549.9 387.6, 549.1 387.8 Q 548.4 388.0, 547.6 388.0 Q 545.8 388.0, 544.8 386.9 Q 543.7 385.8, 543.7 383.8 M 547.6 380.7 Q 546.6 380.7, 546.1 381.2 Q 545.5 381.8, 545.3 382.8 L 549.4 382.8 Q 549.3 381.7, 548.9 381.2 Q 548.4 380.7, 547.6 380.7 " fill="#000000"/>
<path class="legend" d="M 555.9 379.5 Q 557.2 379.5, 557.9 380.3 Q 558.6 381.0, 558.6 382.4 L 558.6 387.9 L 557.1 387.9 L 557.1 382.6 Q 557.1 381.6, 556.7 381.2 Q 556.4 380.7, 555.5 380.7 Q 554.8 380.7, 554.1 381.1 Q 553.5 381.4, 553.1 382.0 L 553.1 387.9 L 551.6 387.9 L 551.6 379.7 L 552.9 379.7 L 553.0 380.8 Q 554.1 379.5, 555.9 379.5 " fill="#000000"/>
<path class="legend" d="M 559.8 380.8 L 559.8 379.7 L 561.4 379.7 L 561.7 377.3 L 562.8 377.3 L 562.8 379.7 L 565.3 379.7 L 565.3 380.8 L 562.8 380.8 L 562.8 385.4 Q 562.8 386.8, 564.0 386.8 Q 564.5 386.8, 565.2 386.6 L 565.4 387.6 Q 564.5 388.0, 563.7 388.0 Q 562.6 388.0, 562.0 387.3 Q 561.3 386.7, 561.3 385.4 L 561.3 380.8 L 559.8 380.8 " fill="#000000"/>
<path class="legend" d="M 574.0 388.7 L 574.0 390.0 L 565.8 390.0 L 565.8 388.7 L 574.0 388.7 " fill="#000000"/>
<path class="legend" d="M 581.5 375.7 L 581.5 387.9 L 580.2 387.9 L 580.0 386.9 Q 579.1 388.0, 577.6 388.0 Q 575.9 388.0, 574.9 387.0 Q 574.0 385.9, 574.0 383.9 Q 574.0 381.8, 575.1 380.7 Q 576.2 379.5, 578.2 379.5 Q 579.1 379.5, 580.0 379.7 L 580.0 375.7 L 581.5 375.7 M 577.7 386.8 Q 578.5 386.8, 579.1 386.4 Q 579.7 385.9, 580.0 385.1 L 580.0 380.9 Q 579.1 380.7, 578.2 380.7 Q 577.0 380.7, 576.2 381.6 Q 575.5 382.4, 575.5 383.9 Q 575.5 385.3, 576.1 386.1 Q 576.7 386.8, 577.7 386.8 " fill="#000000"/>
<path class="legend" d="M 582.7 376.6 L 584.2 376.6 L 584.2 378.0 L 582.7 378.0 L 582.7 376.6 M 582.7 379.7 L 584.2 379.7 L 584.2 387.9 L 582.7 387.9 L 582.7 379.7 " fill="#000000"/>
<path class="legend" d="M 586.1 386.2 Q 586.8 386.5, 587.3 386.6 Q 587.8 386.8, 588.4 386.8 Q 589.1 386.8, 589.5 386.5 Q 589.9 386.2, 589.9 385.6 Q 589.9 385.2, 589.7 385.0 Q 589.5 384.8, 589.2 384.6 Q 588.9 384.5, 588.2 384.3 Q 588.1 384.3, 587.4 384.0 Q 586.6 383.7, 586.2 383.2 Q 585.9 382.7, 585.9 381.9 Q 585.9 380.9, 586.6 380.2 Q 587.4 379.5, 588.9 379.5 Q 589.5 379.5, 590.1 379.7 Q 590.6 379.8, 591.2 380.0 L 590.8 381.2 Q 590.3 381.0, 589.8 380.9 Q 589.4 380.8, 588.9 380.8 Q 588.1 380.8, 587.7 381.1 Q 587.4 381.4, 587.4 381.8 Q 587.4 382.3, 587.7 382.5 Q 588.0 382.7, 588.6 383.0 Q 588.8 383.0, 589.0 383.1 L 589.3 383.2 Q 590.0 383.4, 590.4 383.7 Q 590.8 383.9, 591.1 384.4 Q 591.4 384.8, 591.4 385.6 Q 591.4 386.7, 590.6 387.4 Q 589.7 388.0, 588.4 388.0 Q 587.6 388.0, 586.9 387.9 Q 586.3 387.7, 585.6 387.4 L 586.1 386.2 " fill="#000000"/>
<path class="legend" d="M 592.3 380.8 L 592.3 379.7 L 593.8 379.7 L 594.1 377.3 L 595.2 377.3 L 595.2 379.7 L 597.7 379.7 L 597.7 380.8 L 595.2 380.8 L 595.2 385.4 Q 595.2 386.8, 596.4 386.8 Q 596.9 386.8, 597.6 386.6 L 597.8 387.6 Q 597.0 388.0, 596.1 388.0 Q 595.1 388.0, 594.4 387.3 Q 593.7 386.7, 593.7 385.4 L 593.7 380.8 L 592.3 380.8 " fill="#000000"/>
<path class="legend" d="" fill="#000000"/>
<path class="legend" d="M 603.6 380.9 L 610.9 380.9 L 610.9 382.1 L 603.6 382.1 L 603.6 380.9 M 603.6 384.4 L 610.9 384.4 L 610.9 385.5 L 603.6 385.5 L 603.6 384.4 " fill="#000000"/>
<path class="legend" d="" fill="#000000"/>
<path class="legend" d="M 621.8 388.0 Q 619.8 388.0, 618.7 386.5 Q 617.7 384.9, 617.7 382.2 Q 617.7 379.5, 618.7 378.0 Q 619.7 376.4, 621.8 376.4 Q 623.9 376.4, 625.0 378.0 Q 626.0 379.5, 626.0 382.2 Q 626.0 384.9, 624.9 386.5 Q 623.9 388.0, 621.8 388.0 M 621.8 386.7 Q 623.1 386.7, 623.7 385.6 Q 624.4 384.4, 624.4 382.2 Q 624.4 380.0, 623.7 378.8 Q 623.1 377.7, 621.8 377.7 Q 620.6 377.7, 619.9 378.8 Q 619.3 380.0, 619.3 382.2 Q 619.3 384.4, 619.9 385.6 Q 620.6 386.7, 621.8 386.7 " fill="#000000"/>
<path class="legend" d="M 627.0 386.3 L 628.6 386.3 L 628.6 387.9 L 627.0 387.9 L 627.0 386.3 " fill="#000000"/>
<path class="legend" d="M 634.1 380.8 Q 635.1 380.8, 635.9 381.2 Q 636.7 381.7, 637.1 382.5 Q 637.5 383.2, 637.5 384.2 Q 637.5 385.3, 637.0 386.2 Q 636.5 387.1, 635.7 387.5 Q 634.8 388.0, 633.7 388.0 Q 631.7 388.0, 630.7 386.7 Q 629.7 385.3, 629.7 382.6 Q 629.7 379.6, 630.9 378.0 Q 632.2 376.4, 634.6 376.4 Q 635.3 376.4, 635.9 376.6 Q 636.5 376.8, 637.1 377.1 L 636.4 378.2 Q 635.6 377.7, 634.6 377.7 Q 633.0 377.7, 632.2 378.8 Q 631.4 379.8, 631.3 381.9 Q 631.9 381.4, 632.6 381.1 Q 633.3 380.8, 634.1 380.8 M 633.7 386.7 Q 634.3 386.7, 634.8 386.4 Q 635.3 386.1, 635.6 385.5 Q 635.9 384.9, 635.9 384.3 Q 635.9 383.2, 635.4 382.7 Q 634.8 382.1, 633.8 382.1 Q 633.1 382.1, 632.4 382.4 Q 631.8 382.7, 631.3 383.1 Q 631.3 385.0, 631.9 385.9 Q 632.5 386.7, 633.7 386.7 " fill="#000000"/>
<path class="legend" d="M 638.4 378.7 Q 638.8 377.6, 639.8 377.0 Q 640.8 376.4, 642.2 376.4 Q 643.9 376.4, 644.9 377.4 Q 645.8 378.3, 645.8 379.9 Q 645.8 381.6, 644.6 383.2 Q 643.4 384.8, 640.8 386.6 L 646.0 386.6 L 646.0 387.9 L 638.4 387.9 L 638.4 386.8 Q 640.5 385.3, 641.8 384.2 Q 643.0 383.1, 643.6 382.1 Q 644.2 381.1, 644.2 380.0 Q 644.2 378.9, 643.7 378.3 Q 643.1 377.7, 642.2 377.7 Q 641.3 377.7, 640.7 378.1 Q 640.1 378.4, 639.6 379.3 L 638.4 378.7 " fill="#000000"/>
<path class="legend" d="M 647.0 378.7 Q 647.4 377.6, 648.4 377.0 Q 649.4 376.4, 650.8 376.4 Q 652.5 376.4, 653.5 377.4 Q 654.4 378.3, 654.4 379.9 Q 654.4 381.6, 653.2 383.2 Q 651.9 384.8, 649.4 386.6 L 654.6 386.6 L 654.6 387.9 L 647.0 387.9 L 647.0 386.8 Q 649.1 385.3, 650.3 384.2 Q 651.6 383.1, 652.2 382.1 Q 652.8 381.1, 652.8 380.0 Q 652.8 378.9, 652.3 378.3 Q 651.7 377.7, 650.8 377.7 Q 649.9 377.7, 649.3 378.1 Q 648.7 378.4, 648.2 379.3 L 647.0 378.7 " fill="#000000"/>
<path class="legend" d="M 660.0 380.8 Q 661.0 380.8, 661.8 381.2 Q 662.6 381.7, 663.0 382.5 Q 663.4 383.2, 663.4 384.2 Q 663.4 385.3, 662.9 386.2 Q 662.5 387.1, 661.6 387.5 Q 660.7 388.0, 659.6 388.0 Q 657.6 388.0, 656.6 386.7 Q 655.6 385.3, 655.6 382.6 Q 655.6 379.6, 656.8 378.0 Q 658.1 376.4, 660.5 376.4 Q 661.2 376.4, 661.8 376.6 Q 662.4 376.8, 663.0 377.1 L 662.4 378.2 Q 661.5 377.7, 660.5 377.7 Q 658.9 377.7, 658.1 378.8 Q 657.3 379.8, 657.2 381.9 Q 657.8 381.4, 658.5 381.1 Q 659.2 380.8, 660.0 380.8 M 659.6 386.7 Q 660.3 386.7, 660.7 386.4 Q 661.3 386.1, 661.5 385.5 Q 661.8 384.9, 661.8 384.3 Q 661.8 383.2, 661.3 382.7 Q 660.7 382.1, 659.7 382.1 Q 659.0 382.1, 658.3 382.4 Q 657.7 382.7, 657.2 383.1 Q 657.3 385.0, 657.9 385.9 Q 658.4 386.7, 659.6 386.7 " fill="#000000"/>
</svg>