<svg xmlns="http://www.w3.org/2000/svg" xmlns:rdkit="http://www.rdkit.org/xml" xmlns:xlink="http://www.w3.org/1999/xlink" version="1.1" baseProfile="full" xml:space="preserve" width="2000px" height="400px" viewBox="0 0 2000 400">
<!-- END OF HEADER -->
<rect style="opacity:1.0;fill:#FFFFFF;stroke:none" width="2000.0" height="400.0" x="0.0" y="0.0"> </rect>
<path class="bond-0 atom-0 atom-1" d="M 48.4,176.3 L 73.7,187.8" style="fill:none;fill-rule:evenodd;stroke:#000000;stroke-width:2.0px;stroke-linecap:butt;stroke-linejoin:miter;stroke-opacity:1"/>
<path class="bond-1 atom-1 atom-2" d="M 73.7,187.8 L 96.3,171.6" style="fill:none;fill-rule:evenodd;stroke:#000000;stroke-width:2.0px;stroke-linecap:butt;stroke-linejoin:miter;stroke-opacity:1"/>
<path class="bond-2 atom-2 atom-3" d="M 96.3,171.6 L 121.6,183.0" style="fill:none;fill-rule:evenodd;stroke:#000000;stroke-width:2.0px;stroke-linecap:butt;stroke-linejoin:miter;stroke-opacity:1"/>
<path class="bond-3 atom-3 atom-4" d="M 121.6,183.0 L 144.2,166.8" style="fill:none;fill-rule:evenodd;stroke:#000000;stroke-width:2.0px;stroke-linecap:butt;stroke-linejoin:miter;stroke-opacity:1"/>
<path class="bond-4 atom-4 atom-5" d="M 144.2,166.8 L 169.5,178.3" style="fill:none;fill-rule:evenodd;stroke:#000000;stroke-width:2.0px;stroke-linecap:butt;stroke-linejoin:miter;stroke-opacity:1"/>
<path class="bond-5 atom-5 atom-6" d="M 169.5,178.3 L 192.1,162.1" style="fill:none;fill-rule:evenodd;stroke:#000000;stroke-width:2.0px;stroke-linecap:butt;stroke-linejoin:miter;stroke-opacity:1"/>
<path class="bond-6 atom-6 atom-7" d="M 192.1,162.1 L 217.4,173.6" style="fill:none;fill-rule:evenodd;stroke:#000000;stroke-width:2.0px;stroke-linecap:butt;stroke-linejoin:miter;stroke-opacity:1"/>
<path class="bond-7 atom-7 atom-8" d="M 217.4,173.6 L 240.0,157.4" style="fill:none;fill-rule:evenodd;stroke:#000000;stroke-width:2.0px;stroke-linecap:butt;stroke-linejoin:miter;stroke-opacity:1"/>
<path class="bond-8 atom-8 atom-9" d="M 240.0,157.4 L 265.3,168.9" style="fill:none;fill-rule:evenodd;stroke:#000000;stroke-width:2.0px;stroke-linecap:butt;stroke-linejoin:miter;stroke-opacity:1"/>
<path class="bond-9 atom-9 atom-10" d="M 265.3,168.9 L 287.9,152.7" style="fill:none;fill-rule:evenodd;stroke:#000000;stroke-width:2.0px;stroke-linecap:butt;stroke-linejoin:miter;stroke-opacity:1"/>
<path class="bond-10 atom-10 atom-11" d="M 287.9,152.7 L 313.2,164.1" style="fill:none;fill-rule:evenodd;stroke:#000000;stroke-width:2.0px;stroke-linecap:butt;stroke-linejoin:miter;stroke-opacity:1"/>
<path class="bond-10 atom-10 atom-11" d="M 289.4,159.4 L 307.1,167.5" style="fill:none;fill-rule:evenodd;stroke:#000000;stroke-width:2.0px;stroke-linecap:butt;stroke-linejoin:miter;stroke-opacity:1"/>
<path class="bond-11 atom-11 atom-12" d="M 313.2,164.1 L 316.0,191.8" style="fill:none;fill-rule:evenodd;stroke:#000000;stroke-width:2.0px;stroke-linecap:butt;stroke-linejoin:miter;stroke-opacity:1"/>
<path class="bond-12 atom-12 atom-13" d="M 316.0,191.8 L 326.4,196.5" style="fill:none;fill-rule:evenodd;stroke:#000000;stroke-width:2.0px;stroke-linecap:butt;stroke-linejoin:miter;stroke-opacity:1"/>
<path class="bond-12 atom-12 atom-13" d="M 326.4,196.5 L 336.8,201.2" style="fill:none;fill-rule:evenodd;stroke:#FF0000;stroke-width:2.0px;stroke-linecap:butt;stroke-linejoin:miter;stroke-opacity:1"/>
<path class="atom-13" d="M 337.7 203.3 Q 337.7 201.4, 338.6 200.3 Q 339.5 199.3, 341.3 199.3 Q 343.0 199.3, 344.0 200.3 Q 344.9 201.4, 344.9 203.3 Q 344.9 205.2, 344.0 206.3 Q 343.0 207.3, 341.3 207.3 Q 339.6 207.3, 338.6 206.3 Q 337.7 205.2, 337.7 203.3 M 341.3 206.5 Q 342.5 206.5, 343.1 205.7 Q 343.8 204.8, 343.8 203.3 Q 343.8 201.7, 343.1 200.9 Q 342.5 200.2, 341.3 200.2 Q 340.1 200.2, 339.4 200.9 Q 338.8 201.7, 338.8 203.3 Q 338.8 204.9, 339.4 205.7 Q 340.1 206.5, 341.3 206.5 " fill="#FF0000"/>
<path class="atom-13" d="M 345.5 199.4 L 346.5 199.4 L 346.5 202.7 L 350.5 202.7 L 350.5 199.4 L 351.6 199.4 L 351.6 207.2 L 350.5 207.2 L 350.5 203.6 L 346.5 203.6 L 346.5 207.2 L 345.5 207.2 L 345.5 199.4 " fill="#FF0000"/>
<path class="legend" d="M 168.0 365.4 L 168.2 366.5 Q 169.0 365.3, 170.4 365.3 Q 170.9 365.3, 171.5 365.4 L 171.3 366.8 Q 170.6 366.6, 170.2 366.6 Q 169.5 366.6, 169.1 366.9 Q 168.6 367.1, 168.3 367.8 L 168.3 373.6 L 166.8 373.6 L 166.8 365.4 L 168.0 365.4 " fill="#000000"/>
<path class="legend" d="M 171.7 369.5 Q 171.7 367.5, 172.8 366.4 Q 173.8 365.3, 175.6 365.3 Q 177.4 365.3, 178.2 366.4 Q 179.0 367.4, 179.0 369.5 L 179.0 369.7 L 173.3 369.7 Q 173.3 371.1, 173.9 371.8 Q 174.6 372.6, 175.7 372.6 Q 176.4 372.6, 177.0 372.4 Q 177.6 372.3, 178.3 372.0 L 178.7 373.0 Q 177.9 373.4, 177.2 373.6 Q 176.4 373.8, 175.6 373.8 Q 173.8 373.8, 172.8 372.6 Q 171.7 371.5, 171.7 369.5 M 175.6 366.4 Q 174.7 366.4, 174.1 367.0 Q 173.5 367.5, 173.3 368.6 L 177.4 368.6 Q 177.3 367.5, 176.9 367.0 Q 176.4 366.4, 175.6 366.4 " fill="#000000"/>
<path class="legend" d="M 179.6 371.4 Q 179.6 370.1, 180.7 369.4 Q 181.7 368.7, 183.7 368.7 L 184.9 368.7 L 184.9 368.3 Q 184.9 367.3, 184.5 366.9 Q 184.0 366.4, 183.0 366.4 Q 182.4 366.4, 181.9 366.6 Q 181.3 366.7, 180.5 367.0 L 180.1 366.0 Q 181.6 365.3, 183.1 365.3 Q 184.8 365.3, 185.6 366.0 Q 186.4 366.8, 186.4 368.4 L 186.4 373.6 L 185.2 373.6 Q 185.2 373.6, 185.2 373.3 Q 185.1 373.1, 185.0 372.7 Q 183.9 373.8, 182.3 373.8 Q 181.1 373.8, 180.4 373.2 Q 179.6 372.5, 179.6 371.4 M 181.1 371.4 Q 181.1 372.0, 181.5 372.3 Q 181.9 372.6, 182.6 372.6 Q 183.3 372.6, 183.9 372.4 Q 184.5 372.0, 184.9 371.5 L 184.9 369.8 L 183.8 369.8 Q 182.5 369.8, 181.8 370.2 Q 181.1 370.6, 181.1 371.4 " fill="#000000"/>
<path class="legend" d="M 187.6 369.5 Q 187.6 367.5, 188.6 366.4 Q 189.6 365.3, 191.6 365.3 Q 193.4 365.3, 194.4 366.6 L 193.4 367.4 Q 193.0 366.9, 192.6 366.7 Q 192.1 366.4, 191.6 366.4 Q 190.4 366.4, 189.8 367.2 Q 189.2 368.0, 189.2 369.5 Q 189.2 371.0, 189.8 371.8 Q 190.5 372.6, 191.7 372.6 Q 192.3 372.6, 192.8 372.4 Q 193.3 372.3, 193.8 372.0 L 194.3 373.0 Q 193.1 373.7, 191.6 373.7 Q 189.6 373.7, 188.6 372.6 Q 187.6 371.5, 187.6 369.5 " fill="#000000"/>
<path class="legend" d="M 194.8 366.6 L 194.8 365.4 L 196.4 365.4 L 196.6 363.0 L 197.7 363.0 L 197.7 365.4 L 200.3 365.4 L 200.3 366.6 L 197.7 366.6 L 197.7 371.1 Q 197.7 372.5, 198.9 372.5 Q 199.4 372.5, 200.1 372.3 L 200.4 373.4 Q 199.5 373.7, 198.7 373.7 Q 197.6 373.7, 196.9 373.1 Q 196.2 372.4, 196.2 371.2 L 196.2 366.6 L 194.8 366.6 " fill="#000000"/>
<path class="legend" d="M 208.9 374.4 L 208.9 375.7 L 200.8 375.7 L 200.8 374.4 L 208.9 374.4 " fill="#000000"/>
<path class="legend" d="M 213.1 366.5 Q 214.0 366.5, 214.9 367.0 Q 215.7 367.4, 216.1 368.2 Q 216.6 369.0, 216.6 370.0 Q 216.6 371.2, 216.0 372.1 Q 215.5 372.9, 214.5 373.3 Q 213.6 373.8, 212.6 373.8 Q 211.5 373.8, 210.6 373.4 Q 209.6 373.0, 208.9 372.3 L 209.9 371.3 Q 210.4 371.8, 211.2 372.2 Q 211.9 372.5, 212.6 372.5 Q 213.6 372.5, 214.3 371.8 Q 215.0 371.2, 215.0 370.1 Q 215.0 368.9, 214.3 368.3 Q 213.6 367.7, 212.5 367.7 Q 211.5 367.7, 210.4 368.2 L 209.5 367.8 L 210.1 362.3 L 215.9 362.3 L 215.7 363.6 L 211.4 363.6 L 211.1 366.9 Q 212.1 366.5, 213.1 366.5 " fill="#000000"/>
<path class="legend" d="M 223.3 363.6 L 217.4 363.6 L 217.4 362.3 L 224.9 362.3 L 224.9 363.4 L 220.3 373.6 L 218.8 373.6 L 223.3 363.6 " fill="#000000"/>
<path class="legend" d="M 229.2 362.2 Q 231.2 362.2, 232.2 363.6 Q 233.2 364.9, 233.2 367.6 Q 233.2 370.6, 232.0 372.2 Q 230.7 373.8, 228.3 373.8 Q 227.6 373.8, 227.0 373.6 Q 226.4 373.4, 225.8 373.1 L 226.4 372.0 Q 227.3 372.5, 228.3 372.5 Q 229.9 372.5, 230.7 371.5 Q 231.5 370.4, 231.6 368.3 Q 231.0 368.8, 230.3 369.1 Q 229.6 369.4, 228.8 369.4 Q 227.8 369.4, 227.0 368.9 Q 226.2 368.5, 225.8 367.7 Q 225.4 366.9, 225.4 366.0 Q 225.4 364.8, 225.8 364.0 Q 226.3 363.1, 227.2 362.7 Q 228.1 362.2, 229.2 362.2 M 227.0 365.9 Q 227.0 366.9, 227.5 367.5 Q 228.1 368.1, 229.1 368.1 Q 229.8 368.1, 230.4 367.8 Q 231.1 367.5, 231.6 367.1 Q 231.5 365.2, 230.9 364.3 Q 230.4 363.5, 229.2 363.5 Q 228.5 363.5, 228.0 363.8 Q 227.5 364.1, 227.2 364.7 Q 227.0 365.2, 227.0 365.9 " fill="#000000"/>
<path class="legend" d="M 136.1 383.8 Q 136.1 381.8, 137.1 380.7 Q 138.1 379.5, 140.0 379.5 Q 141.9 379.5, 142.9 380.9 L 141.9 381.6 Q 141.5 381.2, 141.0 380.9 Q 140.6 380.7, 140.0 380.7 Q 138.9 380.7, 138.3 381.5 Q 137.6 382.3, 137.6 383.8 Q 137.6 385.3, 138.3 386.1 Q 138.9 386.8, 140.1 386.8 Q 140.8 386.8, 141.3 386.7 Q 141.7 386.5, 142.3 386.3 L 142.7 387.3 Q 141.5 388.0, 140.0 388.0 Q 138.1 388.0, 137.1 386.9 Q 136.1 385.7, 136.1 383.8 " fill="#000000"/>
<path class="legend" d="M 143.3 383.8 Q 143.3 381.7, 144.3 380.6 Q 145.3 379.5, 147.1 379.5 Q 148.9 379.5, 149.7 380.6 Q 150.5 381.7, 150.5 383.7 L 150.5 384.0 L 144.8 384.0 Q 144.8 385.4, 145.5 386.1 Q 146.1 386.8, 147.2 386.8 Q 147.9 386.8, 148.5 386.7 Q 149.1 386.5, 149.8 386.2 L 150.2 387.2 Q 149.4 387.6, 148.7 387.8 Q 147.9 388.0, 147.2 388.0 Q 145.3 388.0, 144.3 386.9 Q 143.3 385.8, 143.3 383.8 M 147.1 380.7 Q 146.2 380.7, 145.6 381.2 Q 145.0 381.8, 144.9 382.8 L 149.0 382.8 Q 148.8 381.7, 148.4 381.2 Q 147.9 380.7, 147.1 380.7 " fill="#000000"/>
<path class="legend" d="M 155.4 379.5 Q 156.7 379.5, 157.4 380.3 Q 158.1 381.0, 158.1 382.4 L 158.1 387.9 L 156.6 387.9 L 156.6 382.6 Q 156.6 381.6, 156.3 381.2 Q 155.9 380.7, 155.1 380.7 Q 154.3 380.7, 153.7 381.1 Q 153.1 381.4, 152.7 382.0 L 152.7 387.9 L 151.1 387.9 L 151.1 379.7 L 152.4 379.7 L 152.6 380.8 Q 153.7 379.5, 155.4 379.5 " fill="#000000"/>
<path class="legend" d="M 159.4 380.8 L 159.4 379.7 L 160.9 379.7 L 161.2 377.3 L 162.3 377.3 L 162.3 379.7 L 164.8 379.7 L 164.8 380.8 L 162.3 380.8 L 162.3 385.4 Q 162.3 386.8, 163.5 386.8 Q 164.0 386.8, 164.7 386.6 L 165.0 387.6 Q 164.1 388.0, 163.2 388.0 Q 162.2 388.0, 161.5 387.3 Q 160.8 386.7, 160.8 385.4 L 160.8 380.8 L 159.4 380.8 " fill="#000000"/>
<path class="legend" d="M 173.5 388.7 L 173.5 390.0 L 165.4 390.0 L 165.4 388.7 L 173.5 388.7 " fill="#000000"/>
<path class="legend" d="M 181.0 375.7 L 181.0 387.9 L 179.8 387.9 L 179.6 386.9 Q 178.7 388.0, 177.1 388.0 Q 175.4 388.0, 174.5 387.0 Q 173.5 385.9, 173.5 383.9 Q 173.5 381.8, 174.6 380.7 Q 175.8 379.5, 177.7 379.5 Q 178.6 379.5, 179.5 379.7 L 179.5 375.7 L 181.0 375.7 M 177.2 386.8 Q 178.1 386.8, 178.7 386.4 Q 179.3 385.9, 179.5 385.1 L 179.5 380.9 Q 178.7 380.7, 177.8 380.7 Q 176.5 380.7, 175.8 381.6 Q 175.1 382.4, 175.1 383.9 Q 175.1 385.3, 175.6 386.1 Q 176.2 386.8, 177.2 386.8 " fill="#000000"/>
<path class="legend" d="M 182.3 376.6 L 183.7 376.6 L 183.7 378.0 L 182.3 378.0 L 182.3 376.6 M 182.3 379.7 L 183.7 379.7 L 183.7 387.9 L 182.3 387.9 L 182.3 379.7 " fill="#000000"/>
<path class="legend" d="M 185.6 386.2 Q 186.3 386.5, 186.8 386.6 Q 187.3 386.8, 187.9 386.8 Q 188.6 386.8, 189.0 386.5 Q 189.4 386.2, 189.4 385.6 Q 189.4 385.2, 189.2 385.0 Q 189.0 384.8, 188.7 384.6 Q 188.5 384.5, 187.8 384.3 Q 187.6 384.3, 186.9 384.0 Q 186.2 383.7, 185.8 383.2 Q 185.4 382.7, 185.4 381.9 Q 185.4 380.9, 186.2 380.2 Q 186.9 379.5, 188.4 379.5 Q 189.0 379.5, 189.6 379.7 Q 190.1 379.8, 190.7 380.0 L 190.3 381.2 Q 189.8 381.0, 189.4 380.9 Q 188.9 380.8, 188.4 380.8 Q 187.7 380.8, 187.3 381.1 Q 186.9 381.4, 186.9 381.8 Q 186.9 382.3, 187.2 382.5 Q 187.5 382.7, 188.2 383.0 Q 188.3 383.0, 188.5 383.1 L 188.9 383.2 Q 189.5 383.4, 189.9 383.7 Q 190.4 383.9, 190.7 384.4 Q 190.9 384.8, 190.9 385.6 Q 190.9 386.7, 190.1 387.4 Q 189.3 388.0, 187.9 388.0 Q 187.1 388.0, 186.5 387.9 Q 185.8 387.7, 185.1 387.4 L 185.6 386.2 " fill="#000000"/>
<path class="legend" d="M 191.8 380.8 L 191.8 379.7 L 193.4 379.7 L 193.6 377.3 L 194.7 377.3 L 194.7 379.7 L 197.2 379.7 L 197.2 380.8 L 194.7 380.8 L 194.7 385.4 Q 194.7 386.8, 195.9 386.8 Q 196.4 386.8, 197.1 386.6 L 197.4 387.6 Q 196.5 388.0, 195.7 388.0 Q 194.6 388.0, 193.9 387.3 Q 193.2 386.7, 193.2 385.4 L 193.2 380.8 L 191.8 380.8 " fill="#000000"/>
<path class="legend" d="" fill="#000000"/>
<path class="legend" d="M 203.1 380.9 L 210.4 380.9 L 210.4 382.1 L 203.1 382.1 L 203.1 380.9 M 203.1 384.4 L 210.4 384.4 L 210.4 385.5 L 203.1 385.5 L 203.1 384.4 " fill="#000000"/>
<path class="legend" d="" fill="#000000"/>
<path class="legend" d="M 221.4 388.0 Q 219.3 388.0, 218.2 386.5 Q 217.2 384.9, 217.2 382.2 Q 217.2 379.5, 218.2 378.0 Q 219.3 376.4, 221.4 376.4 Q 223.5 376.4, 224.5 378.0 Q 225.5 379.5, 225.5 382.2 Q 225.5 384.9, 224.5 386.5 Q 223.4 388.0, 221.4 388.0 M 221.4 386.7 Q 222.6 386.7, 223.3 385.6 Q 223.9 384.4, 223.9 382.2 Q 223.9 380.0, 223.3 378.8 Q 222.6 377.7, 221.4 377.7 Q 220.1 377.7, 219.5 378.8 Q 218.8 380.0, 218.8 382.2 Q 218.8 384.4, 219.5 385.6 Q 220.1 386.7, 221.4 386.7 " fill="#000000"/>
<path class="legend" d="M 226.5 386.3 L 228.1 386.3 L 228.1 387.9 L 226.5 387.9 L 226.5 386.3 " fill="#000000"/>
<path class="legend" d="M 235.0 381.9 Q 236.0 382.3, 236.6 383.0 Q 237.2 383.7, 237.2 384.8 Q 237.2 385.7, 236.7 386.5 Q 236.2 387.2, 235.3 387.6 Q 234.4 388.0, 233.3 388.0 Q 231.4 388.0, 230.3 387.2 Q 229.2 386.3, 229.2 384.8 Q 229.2 383.9, 229.7 383.2 Q 230.1 382.5, 231.1 381.9 Q 230.4 381.5, 230.0 380.9 Q 229.6 380.3, 229.6 379.3 Q 229.6 378.0, 230.6 377.2 Q 231.5 376.4, 233.2 376.4 Q 234.8 376.4, 235.8 377.2 Q 236.8 378.0, 236.8 379.3 Q 236.8 380.2, 236.3 380.8 Q 235.9 381.4, 235.0 381.9 M 233.2 377.6 Q 232.2 377.6, 231.7 378.1 Q 231.2 378.5, 231.2 379.3 Q 231.2 379.9, 231.6 380.3 Q 231.9 380.7, 232.4 380.9 Q 232.9 381.2, 233.9 381.5 Q 234.6 381.0, 234.9 380.5 Q 235.2 380.0, 235.2 379.3 Q 235.2 378.5, 234.6 378.1 Q 234.1 377.6, 233.2 377.6 M 233.3 386.8 Q 234.3 386.8, 234.9 386.3 Q 235.6 385.7, 235.6 384.8 Q 235.6 384.2, 235.3 383.8 Q 234.9 383.4, 234.4 383.2 Q 233.9 382.9, 233.0 382.7 L 232.3 382.4 Q 231.5 382.9, 231.1 383.5 Q 230.8 384.0, 230.8 384.8 Q 230.8 385.7, 231.5 386.3 Q 232.1 386.8, 233.3 386.8 " fill="#000000"/>
<path class="legend" d="M 243.6 381.9 Q 244.7 382.2, 245.3 383.0 Q 245.8 383.7, 245.8 384.8 Q 245.8 385.7, 245.3 386.5 Q 244.9 387.2, 244.0 387.6 Q 243.1 388.0, 241.9 388.0 Q 240.7 388.0, 239.8 387.6 Q 238.9 387.2, 238.2 386.3 L 239.1 385.4 Q 239.8 386.2, 240.4 386.5 Q 241.0 386.8, 241.9 386.8 Q 243.0 386.8, 243.6 386.2 Q 244.2 385.7, 244.2 384.8 Q 244.2 383.6, 243.6 383.1 Q 242.9 382.6, 241.5 382.6 L 240.7 382.6 L 240.7 381.4 L 241.4 381.4 Q 242.7 381.4, 243.3 380.9 Q 244.0 380.3, 244.0 379.3 Q 244.0 378.6, 243.4 378.2 Q 242.9 377.7, 242.0 377.7 Q 241.0 377.7, 240.4 378.0 Q 239.8 378.4, 239.4 379.2 L 238.3 378.6 Q 238.7 377.7, 239.7 377.1 Q 240.6 376.4, 242.0 376.4 Q 243.6 376.4, 244.6 377.2 Q 245.6 378.0, 245.6 379.3 Q 245.6 380.2, 245.1 380.9 Q 244.6 381.6, 243.6 381.9 " fill="#000000"/>
<path class="legend" d="M 250.9 380.8 Q 251.9 380.8, 252.7 381.2 Q 253.5 381.6, 254.0 382.4 Q 254.4 383.2, 254.4 384.3 Q 254.4 385.5, 253.8 386.3 Q 253.3 387.2, 252.4 387.6 Q 251.4 388.0, 250.4 388.0 Q 249.3 388.0, 248.4 387.6 Q 247.4 387.2, 246.8 386.5 L 247.7 385.5 Q 248.2 386.1, 249.0 386.4 Q 249.7 386.7, 250.4 386.7 Q 251.4 386.7, 252.1 386.1 Q 252.8 385.5, 252.8 384.3 Q 252.8 383.1, 252.1 382.6 Q 251.4 382.0, 250.3 382.0 Q 249.3 382.0, 248.2 382.4 L 247.3 382.0 L 247.9 376.6 L 253.7 376.6 L 253.6 377.8 L 249.2 377.8 L 248.9 381.2 Q 249.9 380.8, 250.9 380.8 " fill="#000000"/>
<path class="legend" d="M 262.5 384.0 L 263.9 384.0 L 263.9 385.3 L 262.5 385.3 L 262.5 387.9 L 261.0 387.9 L 261.0 385.3 L 255.2 385.3 L 255.2 384.3 L 260.1 376.6 L 262.5 376.6 L 262.5 384.0 M 257.0 384.0 L 261.0 384.0 L 261.0 377.6 L 257.0 384.0 " fill="#000000"/>
<path class="bond-0 atom-0 atom-1" d="M 418.2,205.5 L 445.4,211.1" style="fill:none;fill-rule:evenodd;stroke:#000000;stroke-width:2.0px;stroke-linecap:butt;stroke-linejoin:miter;stroke-opacity:1"/>
<path class="bond-1 atom-1 atom-2" d="M 445.4,211.1 L 463.8,190.3" style="fill:none;fill-rule:evenodd;stroke:#000000;stroke-width:2.0px;stroke-linecap:butt;stroke-linejoin:miter;stroke-opacity:1"/>
<path class="bond-2 atom-2 atom-3" d="M 463.8,190.3 L 491.1,195.8" style="fill:none;fill-rule:evenodd;stroke:#000000;stroke-width:2.0px;stroke-linecap:butt;stroke-linejoin:miter;stroke-opacity:1"/>
<path class="bond-3 atom-3 atom-4" d="M 491.1,195.8 L 509.5,175.0" style="fill:none;fill-rule:evenodd;stroke:#000000;stroke-width:2.0px;stroke-linecap:butt;stroke-linejoin:miter;stroke-opacity:1"/>
<path class="bond-4 atom-4 atom-5" d="M 509.5,175.0 L 536.7,180.6" style="fill:none;fill-rule:evenodd;stroke:#000000;stroke-width:2.0px;stroke-linecap:butt;stroke-linejoin:miter;stroke-opacity:1"/>
<path class="bond-5 atom-5 atom-6" d="M 536.7,180.6 L 555.2,159.8" style="fill:none;fill-rule:evenodd;stroke:#000000;stroke-width:2.0px;stroke-linecap:butt;stroke-linejoin:miter;stroke-opacity:1"/>
<path class="bond-6 atom-6 atom-7" d="M 555.2,159.8 L 582.4,165.4" style="fill:none;fill-rule:evenodd;stroke:#000000;stroke-width:2.0px;stroke-linecap:butt;stroke-linejoin:miter;stroke-opacity:1"/>
<path class="bond-7 atom-7 atom-8" d="M 582.4,165.4 L 600.8,144.6" style="fill:none;fill-rule:evenodd;stroke:#000000;stroke-width:2.0px;stroke-linecap:butt;stroke-linejoin:miter;stroke-opacity:1"/>
<path class="bond-8 atom-8 atom-9" d="M 600.8,144.6 L 628.1,150.1" style="fill:none;fill-rule:evenodd;stroke:#000000;stroke-width:2.0px;stroke-linecap:butt;stroke-linejoin:miter;stroke-opacity:1"/>
<path class="bond-9 atom-9 atom-10" d="M 628.1,150.1 L 646.5,129.3" style="fill:none;fill-rule:evenodd;stroke:#000000;stroke-width:2.0px;stroke-linecap:butt;stroke-linejoin:miter;stroke-opacity:1"/>
<path class="bond-10 atom-10 atom-11" d="M 646.5,129.3 L 673.7,134.9" style="fill:none;fill-rule:evenodd;stroke:#000000;stroke-width:2.0px;stroke-linecap:butt;stroke-linejoin:miter;stroke-opacity:1"/>
<path class="bond-10 atom-10 atom-11" d="M 649.5,135.6 L 668.5,139.5" style="fill:none;fill-rule:evenodd;stroke:#000000;stroke-width:2.0px;stroke-linecap:butt;stroke-linejoin:miter;stroke-opacity:1"/>
<path class="bond-11 atom-11 atom-12" d="M 673.7,134.9 L 682.5,161.3" style="fill:none;fill-rule:evenodd;stroke:#000000;stroke-width:2.0px;stroke-linecap:butt;stroke-linejoin:miter;stroke-opacity:1"/>
<path class="bond-12 atom-12 atom-13" d="M 682.5,161.3 L 709.8,166.8" style="fill:none;fill-rule:evenodd;stroke:#000000;stroke-width:2.0px;stroke-linecap:butt;stroke-linejoin:miter;stroke-opacity:1"/>
<path class="bond-13 atom-13 atom-14" d="M 709.8,166.8 L 718.6,193.2" style="fill:none;fill-rule:evenodd;stroke:#000000;stroke-width:2.0px;stroke-linecap:butt;stroke-linejoin:miter;stroke-opacity:1"/>
<path class="bond-14 atom-14 atom-15" d="M 718.6,193.2 L 745.8,198.7" style="fill:none;fill-rule:evenodd;stroke:#000000;stroke-width:2.0px;stroke-linecap:butt;stroke-linejoin:miter;stroke-opacity:1"/>
<path class="bond-15 atom-15 atom-16" d="M 743.7,196.9 L 750.7,189.0" style="fill:none;fill-rule:evenodd;stroke:#000000;stroke-width:2.0px;stroke-linecap:butt;stroke-linejoin:miter;stroke-opacity:1"/>
<path class="bond-15 atom-15 atom-16" d="M 750.7,189.0 L 757.7,181.1" style="fill:none;fill-rule:evenodd;stroke:#FF0000;stroke-width:2.0px;stroke-linecap:butt;stroke-linejoin:miter;stroke-opacity:1"/>
<path class="bond-15 atom-15 atom-16" d="M 747.9,200.6 L 754.9,192.7" style="fill:none;fill-rule:evenodd;stroke:#000000;stroke-width:2.0px;stroke-linecap:butt;stroke-linejoin:miter;stroke-opacity:1"/>
<path class="bond-15 atom-15 atom-16" d="M 754.9,192.7 L 761.9,184.8" style="fill:none;fill-rule:evenodd;stroke:#FF0000;stroke-width:2.0px;stroke-linecap:butt;stroke-linejoin:miter;stroke-opacity:1"/>
<path class="bond-16 atom-15 atom-17" d="M 745.8,198.7 L 749.4,209.5" style="fill:none;fill-rule:evenodd;stroke:#000000;stroke-width:2.0px;stroke-linecap:butt;stroke-linejoin:miter;stroke-opacity:1"/>
<path class="bond-16 atom-15 atom-17" d="M 749.4,209.5 L 753.0,220.2" style="fill:none;fill-rule:evenodd;stroke:#FF0000;stroke-width:2.0px;stroke-linecap:butt;stroke-linejoin:miter;stroke-opacity:1"/>
<path class="bond-17 atom-17 atom-18" d="M 759.1,226.0 L 770.5,228.4" style="fill:none;fill-rule:evenodd;stroke:#FF0000;stroke-width:2.0px;stroke-linecap:butt;stroke-linejoin:miter;stroke-opacity:1"/>
<path class="bond-17 atom-17 atom-18" d="M 770.5,228.4 L 781.8,230.7" style="fill:none;fill-rule:evenodd;stroke:#000000;stroke-width:2.0px;stroke-linecap:butt;stroke-linejoin:miter;stroke-opacity:1"/>
<path class="atom-16" d="M 760.6 178.0 Q 760.6 176.1, 761.5 175.0 Q 762.5 174.0, 764.2 174.0 Q 766.0 174.0, 766.9 175.0 Q 767.8 176.1, 767.8 178.0 Q 767.8 179.9, 766.9 181.0 Q 765.9 182.0, 764.2 182.0 Q 762.5 182.0, 761.5 181.0 Q 760.6 179.9, 760.6 178.0 M 764.2 181.2 Q 765.4 181.2, 766.1 180.4 Q 766.7 179.5, 766.7 178.0 Q 766.7 176.4, 766.1 175.6 Q 765.4 174.9, 764.2 174.9 Q 763.0 174.9, 762.4 175.6 Q 761.7 176.4, 761.7 178.0 Q 761.7 179.6, 762.4 180.4 Q 763.0 181.2, 764.2 181.2 " fill="#FF0000"/>
<path class="atom-17" d="M 751.0 225.1 Q 751.0 223.2, 751.9 222.2 Q 752.8 221.1, 754.6 221.1 Q 756.3 221.1, 757.3 222.2 Q 758.2 223.2, 758.2 225.1 Q 758.2 227.0, 757.3 228.1 Q 756.3 229.2, 754.6 229.2 Q 752.9 229.2, 751.9 228.1 Q 751.0 227.1, 751.0 225.1 M 754.6 228.3 Q 755.8 228.3, 756.4 227.5 Q 757.1 226.7, 757.1 225.1 Q 757.1 223.6, 756.4 222.8 Q 755.8 222.0, 754.6 222.0 Q 753.4 222.0, 752.7 222.8 Q 752.1 223.6, 752.1 225.1 Q 752.1 226.7, 752.7 227.5 Q 753.4 228.3, 754.6 228.3 " fill="#FF0000"/>
<path class="legend" d="M 572.2 365.4 L 572.4 366.5 Q 573.3 365.3, 574.7 365.3 Q 575.1 365.3, 575.7 365.4 L 575.5 366.8 Q 574.8 366.6, 574.4 366.6 Q 573.7 366.6, 573.3 366.9 Q 572.9 367.1, 572.5 367.8 L 572.5 373.6 L 571.0 373.6 L 571.0 365.4 L 572.2 365.4 " fill="#000000"/>
<path class="legend" d="M 576.0 369.5 Q 576.0 367.5, 577.0 366.4 Q 578.0 365.3, 579.8 365.3 Q 581.6 365.3, 582.4 366.4 Q 583.2 367.4, 583.2 369.5 L 583.2 369.7 L 577.5 369.7 Q 577.5 371.1, 578.2 371.8 Q 578.8 372.6, 579.9 372.6 Q 580.6 372.6, 581.2 372.4 Q 581.8 372.3, 582.5 372.0 L 582.9 373.0 Q 582.1 373.4, 581.4 373.6 Q 580.6 373.8, 579.9 373.8 Q 578.0 373.8, 577.0 372.6 Q 576.0 371.5, 576.0 369.5 M 579.8 366.4 Q 578.9 366.4, 578.3 367.0 Q 577.7 367.5, 577.6 368.6 L 581.7 368.6 Q 581.5 367.5, 581.1 367.0 Q 580.6 366.4, 579.8 366.4 " fill="#000000"/>
<path class="legend" d="M 583.8 371.4 Q 583.8 370.1, 584.9 369.4 Q 586.0 368.7, 587.9 368.7 L 589.1 368.7 L 589.1 368.3 Q 589.1 367.3, 588.7 366.9 Q 588.3 366.4, 587.2 366.4 Q 586.6 366.4, 586.1 366.6 Q 585.6 366.7, 584.8 367.0 L 584.3 366.0 Q 585.8 365.3, 587.3 365.3 Q 589.0 365.3, 589.8 366.0 Q 590.6 366.8, 590.6 368.4 L 590.6 373.6 L 589.4 373.6 Q 589.4 373.6, 589.4 373.3 Q 589.3 373.1, 589.2 372.7 Q 588.1 373.8, 586.6 373.8 Q 585.3 373.8, 584.6 373.2 Q 583.8 372.5, 583.8 371.4 M 585.4 371.4 Q 585.4 372.0, 585.7 372.3 Q 586.1 372.6, 586.8 372.6 Q 587.5 372.6, 588.1 372.4 Q 588.7 372.0, 589.1 371.5 L 589.1 369.8 L 588.0 369.8 Q 586.7 369.8, 586.0 370.2 Q 585.4 370.6, 585.4 371.4 " fill="#000000"/>
<path class="legend" d="M 591.8 369.5 Q 591.8 367.5, 592.8 366.4 Q 593.8 365.3, 595.8 365.3 Q 597.7 365.3, 598.6 366.6 L 597.6 367.4 Q 597.2 366.9, 596.8 366.7 Q 596.4 366.4, 595.8 366.4 Q 594.6 366.4, 594.0 367.2 Q 593.4 368.0, 593.4 369.5 Q 593.4 371.0, 594.0 371.8 Q 594.7 372.6, 595.9 372.6 Q 596.6 372.6, 597.0 372.4 Q 597.5 372.3, 598.1 372.0 L 598.5 373.0 Q 597.3 373.7, 595.8 373.7 Q 593.8 373.7, 592.8 372.6 Q 591.8 371.5, 591.8 369.5 " fill="#000000"/>
<path class="legend" d="M 599.0 366.6 L 599.0 365.4 L 600.6 365.4 L 600.8 363.0 L 602.0 363.0 L 602.0 365.4 L 604.5 365.4 L 604.5 366.6 L 602.0 366.6 L 602.0 371.1 Q 602.0 372.5, 603.2 372.5 Q 603.6 372.5, 604.3 372.3 L 604.6 373.4 Q 603.7 373.7, 602.9 373.7 Q 601.8 373.7, 601.1 373.1 Q 600.5 372.4, 600.5 371.2 L 600.5 366.6 L 599.0 366.6 " fill="#000000"/>
<path class="legend" d="M 613.2 374.4 L 613.2 375.7 L 605.0 375.7 L 605.0 374.4 L 613.2 374.4 " fill="#000000"/>
<path class="legend" d="M 619.1 363.6 L 613.2 363.6 L 613.2 362.3 L 620.7 362.3 L 620.7 363.4 L 616.1 373.6 L 614.6 373.6 L 619.1 363.6 " fill="#000000"/>
<path class="legend" d="M 625.6 366.6 Q 626.6 366.6, 627.4 367.0 Q 628.1 367.4, 628.6 368.2 Q 629.0 369.0, 629.0 370.0 Q 629.0 371.1, 628.5 372.0 Q 628.0 372.8, 627.2 373.3 Q 626.3 373.8, 625.2 373.8 Q 623.2 373.8, 622.2 372.4 Q 621.1 371.0, 621.1 368.3 Q 621.1 365.3, 622.4 363.7 Q 623.7 362.2, 626.1 362.2 Q 626.8 362.2, 627.4 362.3 Q 628.0 362.5, 628.6 362.8 L 627.9 363.9 Q 627.1 363.5, 626.1 363.5 Q 624.5 363.5, 623.7 364.5 Q 622.9 365.5, 622.8 367.6 Q 623.3 367.1, 624.1 366.8 Q 624.8 366.6, 625.6 366.6 M 625.2 372.4 Q 625.8 372.4, 626.3 372.1 Q 626.8 371.8, 627.1 371.2 Q 627.4 370.7, 627.4 370.0 Q 627.4 369.0, 626.8 368.4 Q 626.3 367.8, 625.3 367.8 Q 624.6 367.8, 623.9 368.1 Q 623.2 368.4, 622.8 368.9 Q 622.8 370.8, 623.4 371.6 Q 624.0 372.4, 625.2 372.4 " fill="#000000"/>
<path class="legend" d="M 536.1 383.8 Q 536.1 381.8, 537.1 380.7 Q 538.1 379.5, 540.0 379.5 Q 541.9 379.5, 542.9 380.9 L 541.9 381.6 Q 541.5 381.2, 541.0 380.9 Q 540.6 380.7, 540.0 380.7 Q 538.9 380.7, 538.3 381.5 Q 537.6 382.3, 537.6 383.8 Q 537.6 385.3, 538.3 386.1 Q 538.9 386.8, 540.1 386.8 Q 540.8 386.8, 541.3 386.7 Q 541.7 386.5, 542.3 386.3 L 542.7 387.3 Q 541.5 388.0, 540.0 388.0 Q 538.1 388.0, 537.1 386.9 Q 536.1 385.7, 536.1 383.8 " fill="#000000"/>
<path class="legend" d="M 543.3 383.8 Q 543.3 381.7, 544.3 380.6 Q 545.3 379.5, 547.1 379.5 Q 548.9 379.5, 549.7 380.6 Q 550.5 381.7, 550.5 383.7 L 550.5 384.0 L 544.8 384.0 Q 544.8 385.4, 545.5 386.1 Q 546.1 386.8, 547.2 386.8 Q 547.9 386.8, 548.5 386.7 Q 549.1 386.5, 549.8 386.2 L 550.2 387.2 Q 549.4 387.6, 548.7 387.8 Q 547.9 388.0, 547.2 388.0 Q 545.3 388.0, 544.3 386.9 Q 543.3 385.8, 543.3 383.8 M 547.1 380.7 Q 546.2 380.7, 545.6 381.2 Q 545.0 381.8, 544.9 382.8 L 549.0 382.8 Q 548.8 381.7, 548.4 381.2 Q 547.9 380.7, 547.1 380.7 " fill="#000000"/>
<path class="legend" d="M 555.4 379.5 Q 556.7 379.5, 557.4 380.3 Q 558.1 381.0, 558.1 382.4 L 558.1 387.9 L 556.6 387.9 L 556.6 382.6 Q 556.6 381.6, 556.3 381.2 Q 555.9 380.7, 555.1 380.7 Q 554.3 380.7, 553.7 381.1 Q 553.1 381.4, 552.7 382.0 L 552.7 387.9 L 551.1 387.9 L 551.1 379.7 L 552.4 379.7 L 552.6 380.8 Q 553.7 379.5, 555.4 379.5 " fill="#000000"/>
<path class="legend" d="M 559.4 380.8 L 559.4 379.7 L 560.9 379.7 L 561.2 377.3 L 562.3 377.3 L 562.3 379.7 L 564.8 379.7 L 564.8 380.8 L 562.3 380.8 L 562.3 385.4 Q 562.3 386.8, 563.5 386.8 Q 564.0 386.8, 564.7 386.6 L 565.0 387.6 Q 564.1 388.0, 563.2 388.0 Q 562.2 388.0, 561.5 387.3 Q 560.8 386.7, 560.8 385.4 L 560.8 380.8 L 559.4 380.8 " fill="#000000"/>
<path class="legend" d="M 573.5 388.7 L 573.5 390.0 L 565.4 390.0 L 565.4 388.7 L 573.5 388.7 " fill="#000000"/>
<path class="legend" d="M 581.0 375.7 L 581.0 387.9 L 579.8 387.9 L 579.6 386.9 Q 578.7 388.0, 577.1 388.0 Q 575.4 388.0, 574.5 387.0 Q 573.5 385.9, 573.5 383.9 Q 573.5 381.8, 574.6 380.7 Q 575.8 379.5, 577.7 379.5 Q 578.6 379.5, 579.5 379.7 L 579.5 375.7 L 581.0 375.7 M 577.2 386.8 Q 578.1 386.8, 578.7 386.4 Q 579.3 385.9, 579.5 385.1 L 579.5 380.9 Q 578.7 380.7, 577.8 380.7 Q 576.5 380.7, 575.8 381.6 Q 575.1 382.4, 575.1 383.9 Q 575.1 385.3, 575.6 386.1 Q 576.2 386.8, 577.2 386.8 " fill="#000000"/>
<path class="legend" d="M 582.3 376.6 L 583.7 376.6 L 583.7 378.0 L 582.3 378.0 L 582.3 376.6 M 582.3 379.7 L 583.7 379.7 L 583.7 387.9 L 582.3 387.9 L 582.3 379.7 " fill="#000000"/>
<path class="legend" d="M 585.6 386.2 Q 586.3 386.5, 586.8 386.6 Q 587.3 386.8, 587.9 386.8 Q 588.6 386.8, 589.0 386.5 Q 589.4 386.2, 589.4 385.6 Q 589.4 385.2, 589.2 385.0 Q 589.0 384.8, 588.7 384.6 Q 588.5 384.5, 587.8 384.3 Q 587.6 384.3, 586.9 384.0 Q 586.2 383.7, 585.8 383.2 Q 585.4 382.7, 585.4 381.9 Q 585.4 380.9, 586.2 380.2 Q 586.9 379.5, 588.4 379.5 Q 589.0 379.5, 589.6 379.7 Q 590.1 379.8, 590.7 380.0 L 590.3 381.2 Q 589.8 381.0, 589.4 380.9 Q 588.9 380.8, 588.4 380.8 Q 587.7 380.8, 587.3 381.1 Q 586.9 381.4, 586.9 381.8 Q 586.9 382.3, 587.2 382.5 Q 587.5 382.7, 588.2 383.0 Q 588.3 383.0, 588.5 383.1 L 588.9 383.2 Q 589.5 383.4, 589.9 383.7 Q 590.4 383.9, 590.7 384.4 Q 590.9 384.8, 590.9 385.6 Q 590.9 386.7, 590.1 387.4 Q 589.3 388.0, 587.9 388.0 Q 587.1 388.0, 586.5 387.9 Q 585.8 387.7, 585.1 387.4 L 585.6 386.2 " fill="#000000"/>
<path class="legend" d="M 591.8 380.8 L 591.8 379.7 L 593.4 379.7 L 593.6 377.3 L 594.7 377.3 L 594.7 379.7 L 597.2 379.7 L 597.2 380.8 L 594.7 380.8 L 594.7 385.4 Q 594.7 386.8, 595.9 386.8 Q 596.4 386.8, 597.1 386.6 L 597.4 387.6 Q 596.5 388.0, 595.7 388.0 Q 594.6 388.0, 593.9 387.3 Q 593.2 386.7, 593.2 385.4 L 593.2 380.8 L 591.8 380.8 " fill="#000000"/>
<path class="legend" d="" fill="#000000"/>
<path class="legend" d="M 603.1 380.9 L 610.4 380.9 L 610.4 382.1 L 603.1 382.1 L 603.1 380.9 M 603.1 384.4 L 610.4 384.4 L 610.4 385.5 L 603.1 385.5 L 603.1 384.4 " fill="#000000"/>
<path class="legend" d="" fill="#000000"/>
<path class="legend" d="M 621.4 388.0 Q 619.3 388.0, 618.2 386.5 Q 617.2 384.9, 617.2 382.2 Q 617.2 379.5, 618.2 378.0 Q 619.3 376.4, 621.4 376.4 Q 623.5 376.4, 624.5 378.0 Q 625.5 379.5, 625.5 382.2 Q 625.5 384.9, 624.5 386.5 Q 623.4 388.0, 621.4 388.0 M 621.4 386.7 Q 622.6 386.7, 623.3 385.6 Q 623.9 384.4, 623.9 382.2 Q 623.9 380.0, 623.3 378.8 Q 622.6 377.7, 621.4 377.7 Q 620.1 377.7, 619.5 378.8 Q 618.8 380.0, 618.8 382.2 Q 618.8 384.4, 619.5 385.6 Q 620.1 386.7, 621.4 386.7 " fill="#000000"/>
<path class="legend" d="M 626.5 386.3 L 628.1 386.3 L 628.1 387.9 L 626.5 387.9 L 626.5 386.3 " fill="#000000"/>
<path class="legend" d="M 635.0 381.9 Q 636.0 382.3, 636.6 383.0 Q 637.2 383.7, 637.2 384.8 Q 637.2 385.7, 636.7 386.5 Q 636.2 387.2, 635.3 387.6 Q 634.4 388.0, 633.3 388.0 Q 631.4 388.0, 630.3 387.2 Q 629.2 386.3, 629.2 384.8 Q 629.2 383.9, 629.7 383.2 Q 630.1 382.5, 631.1 381.9 Q 630.4 381.5, 630.0 380.9 Q 629.6 380.3, 629.6 379.3 Q 629.6 378.0, 630.6 377.2 Q 631.5 376.4, 633.2 376.4 Q 634.8 376.4, 635.8 377.2 Q 636.8 378.0, 636.8 379.3 Q 636.8 380.2, 636.3 380.8 Q 635.9 381.4, 635.0 381.9 M 633.2 377.6 Q 632.2 377.6, 631.7 378.1 Q 631.2 378.5, 631.2 379.3 Q 631.2 379.9, 631.6 380.3 Q 631.9 380.7, 632.4 380.9 Q 632.9 381.2, 633.9 381.5 Q 634.6 381.0, 634.9 380.5 Q 635.2 380.0, 635.2 379.3 Q 635.2 378.5, 634.6 378.1 Q 634.1 377.6, 633.2 377.6 M 633.3 386.8 Q 634.3 386.8, 634.9 386.3 Q 635.6 385.7, 635.6 384.8 Q 635.6 384.2, 635.3 383.8 Q 634.9 383.4, 634.4 383.2 Q 633.9 382.9, 633.0 382.7 L 632.3 382.4 Q 631.5 382.9, 631.1 383.5 Q 630.8 384.0, 630.8 384.8 Q 630.8 385.7, 631.5 386.3 Q 632.1 386.8, 633.3 386.8 " fill="#000000"/>
<path class="legend" d="M 643.6 381.9 Q 644.7 382.2, 645.3 383.0 Q 645.8 383.7, 645.8 384.8 Q 645.8 385.7, 645.3 386.5 Q 644.9 387.2, 644.0 387.6 Q 643.1 388.0, 641.9 388.0 Q 640.7 388.0, 639.8 387.6 Q 638.9 387.2, 638.2 386.3 L 639.1 385.4 Q 639.8 386.2, 640.4 386.5 Q 641.0 386.8, 641.9 386.8 Q 643.0 386.8, 643.6 386.2 Q 644.2 385.7, 644.2 384.8 Q 644.2 383.6, 643.6 383.1 Q 642.9 382.6, 641.5 382.6 L 640.7 382.6 L 640.7 381.4 L 641.4 381.4 Q 642.7 381.4, 643.3 380.9 Q 644.0 380.3, 644.0 379.3 Q 644.0 378.6, 643.4 378.2 Q 642.9 377.7, 642.0 377.7 Q 641.0 377.7, 640.4 378.0 Q 639.8 378.4, 639.4 379.2 L 638.3 378.6 Q 638.7 377.7, 639.7 377.1 Q 640.6 376.4, 642.0 376.4 Q 643.6 376.4, 644.6 377.2 Q 645.6 378.0, 645.6 379.3 Q 645.6 380.2, 645.1 380.9 Q 644.6 381.6, 643.6 381.9 " fill="#000000"/>
<path class="legend" d="M 650.9 380.8 Q 651.9 380.8, 652.7 381.2 Q 653.5 381.6, 654.0 382.4 Q 654.4 383.2, 654.4 384.3 Q 654.4 385.5, 653.8 386.3 Q 653.3 387.2, 652.4 387.6 Q 651.4 388.0, 650.4 388.0 Q 649.3 388.0, 648.4 387.6 Q 647.4 387.2, 646.8 386.5 L 647.7 385.5 Q 648.2 386.1, 649.0 386.4 Q 649.7 386.7, 650.4 386.7 Q 651.4 386.7, 652.1 386.1 Q 652.8 385.5, 652.8 384.3 Q 652.8 383.1, 652.1 382.6 Q 651.4 382.0, 650.3 382.0 Q 649.3 382.0, 648.2 382.4 L 647.3 382.0 L 647.9 376.6 L 653.7 376.6 L 653.6 377.8 L 649.2 377.8 L 648.9 381.2 Q 649.9 380.8, 650.9 380.8 " fill="#000000"/>
<path class="legend" d="M 662.5 384.0 L 663.9 384.0 L 663.9 385.3 L 662.5 385.3 L 662.5 387.9 L 661.0 387.9 L 661.0 385.3 L 655.2 385.3 L 655.2 384.3 L 660.1 376.6 L 662.5 376.6 L 662.5 384.0 M 657.0 384.0 L 661.0 384.0 L 661.0 377.6 L 657.0 384.0 " fill="#000000"/>
</svg>