<svg xmlns="http://www.w3.org/2000/svg" xmlns:rdkit="http://www.rdkit.org/xml" xmlns:xlink="http://www.w3.org/1999/xlink" version="1.1" baseProfile="full" xml:space="preserve" width="2000px" height="400px" viewBox="0 0 2000 400">
<!-- END OF HEADER -->
<rect style="opacity:1.0;fill:#FFFFFF;stroke:none" width="2000.0" height="400.0" x="0.0" y="0.0"> </rect>
<path class="bond-0 atom-0 atom-1" d="M 315.2,119.5 L 340.2,169.9" style="fill:none;fill-rule:evenodd;stroke:#000000;stroke-width:2.0px;stroke-linecap:butt;stroke-linejoin:miter;stroke-opacity:1"/>
<path class="bond-1 atom-1 atom-2" d="M 340.2,169.9 L 309.0,216.6" style="fill:none;fill-rule:evenodd;stroke:#000000;stroke-width:2.0px;stroke-linecap:butt;stroke-linejoin:miter;stroke-opacity:1"/>
<path class="bond-1 atom-1 atom-2" d="M 326.1,170.7 L 304.3,203.4" style="fill:none;fill-rule:evenodd;stroke:#000000;stroke-width:2.0px;stroke-linecap:butt;stroke-linejoin:miter;stroke-opacity:1"/>
<path class="bond-2 atom-2 atom-3" d="M 309.0,216.6 L 252.9,213.0" style="fill:none;fill-rule:evenodd;stroke:#000000;stroke-width:2.0px;stroke-linecap:butt;stroke-linejoin:miter;stroke-opacity:1"/>
<path class="bond-3 atom-3 atom-4" d="M 252.9,213.0 L 221.8,259.8" style="fill:none;fill-rule:evenodd;stroke:#000000;stroke-width:2.0px;stroke-linecap:butt;stroke-linejoin:miter;stroke-opacity:1"/>
<path class="bond-3 atom-3 atom-4" d="M 238.9,213.8 L 217.1,246.5" style="fill:none;fill-rule:evenodd;stroke:#000000;stroke-width:2.0px;stroke-linecap:butt;stroke-linejoin:miter;stroke-opacity:1"/>
<path class="bond-4 atom-4 atom-5" d="M 221.8,259.8 L 165.7,256.2" style="fill:none;fill-rule:evenodd;stroke:#000000;stroke-width:2.0px;stroke-linecap:butt;stroke-linejoin:miter;stroke-opacity:1"/>
<path class="bond-5 atom-5 atom-6" d="M 165.7,256.2 L 140.8,205.8" style="fill:none;fill-rule:evenodd;stroke:#000000;stroke-width:2.0px;stroke-linecap:butt;stroke-linejoin:miter;stroke-opacity:1"/>
<path class="bond-5 atom-5 atom-6" d="M 172.1,243.7 L 154.6,208.4" style="fill:none;fill-rule:evenodd;stroke:#000000;stroke-width:2.0px;stroke-linecap:butt;stroke-linejoin:miter;stroke-opacity:1"/>
<path class="bond-6 atom-6 atom-7" d="M 140.8,205.8 L 117.4,204.3" style="fill:none;fill-rule:evenodd;stroke:#000000;stroke-width:2.0px;stroke-linecap:butt;stroke-linejoin:miter;stroke-opacity:1"/>
<path class="bond-6 atom-6 atom-7" d="M 117.4,204.3 L 93.9,202.8" style="fill:none;fill-rule:evenodd;stroke:#FF0000;stroke-width:2.0px;stroke-linecap:butt;stroke-linejoin:miter;stroke-opacity:1"/>
<path class="bond-7 atom-7 atom-8" d="M 79.9,192.3 L 69.9,172.1" style="fill:none;fill-rule:evenodd;stroke:#FF0000;stroke-width:2.0px;stroke-linecap:butt;stroke-linejoin:miter;stroke-opacity:1"/>
<path class="bond-7 atom-7 atom-8" d="M 69.9,172.1 L 59.8,151.9" style="fill:none;fill-rule:evenodd;stroke:#000000;stroke-width:2.0px;stroke-linecap:butt;stroke-linejoin:miter;stroke-opacity:1"/>
<path class="bond-8 atom-6 atom-9" d="M 140.8,205.8 L 172.0,159.1" style="fill:none;fill-rule:evenodd;stroke:#000000;stroke-width:2.0px;stroke-linecap:butt;stroke-linejoin:miter;stroke-opacity:1"/>
<path class="bond-9 atom-9 atom-10" d="M 172.0,159.1 L 161.0,136.8" style="fill:none;fill-rule:evenodd;stroke:#000000;stroke-width:2.0px;stroke-linecap:butt;stroke-linejoin:miter;stroke-opacity:1"/>
<path class="bond-9 atom-9 atom-10" d="M 161.0,136.8 L 149.9,114.6" style="fill:none;fill-rule:evenodd;stroke:#00CC00;stroke-width:2.0px;stroke-linecap:butt;stroke-linejoin:miter;stroke-opacity:1"/>
<path class="bond-10 atom-9 atom-11" d="M 172.0,159.1 L 228.0,162.7" style="fill:none;fill-rule:evenodd;stroke:#000000;stroke-width:2.0px;stroke-linecap:butt;stroke-linejoin:miter;stroke-opacity:1"/>
<path class="bond-10 atom-9 atom-11" d="M 179.7,170.8 L 218.9,173.4" style="fill:none;fill-rule:evenodd;stroke:#000000;stroke-width:2.0px;stroke-linecap:butt;stroke-linejoin:miter;stroke-opacity:1"/>
<path class="bond-11 atom-11 atom-3" d="M 228.0,162.7 L 252.9,213.0" style="fill:none;fill-rule:evenodd;stroke:#000000;stroke-width:2.0px;stroke-linecap:butt;stroke-linejoin:miter;stroke-opacity:1"/>
<path class="atom-7" d="M 77.5 202.3 Q 77.5 198.5, 79.3 196.3 Q 81.2 194.2, 84.8 194.2 Q 88.3 194.2, 90.2 196.3 Q 92.1 198.5, 92.1 202.3 Q 92.1 206.2, 90.2 208.4 Q 88.2 210.5, 84.8 210.5 Q 81.3 210.5, 79.3 208.4 Q 77.5 206.2, 77.5 202.3 M 84.8 208.7 Q 87.2 208.7, 88.5 207.1 Q 89.8 205.5, 89.8 202.3 Q 89.8 199.2, 88.5 197.6 Q 87.2 196.0, 84.8 196.0 Q 82.3 196.0, 81.0 197.6 Q 79.7 199.1, 79.7 202.3 Q 79.7 205.5, 81.0 207.1 Q 82.3 208.7, 84.8 208.7 " fill="#FF0000"/>
<path class="atom-10" d="M 132.8 109.3 Q 132.8 105.3, 134.7 103.3 Q 136.6 101.2, 140.1 101.2 Q 143.4 101.2, 145.1 103.5 L 143.6 104.7 Q 142.4 103.0, 140.1 103.0 Q 137.7 103.0, 136.4 104.6 Q 135.1 106.2, 135.1 109.3 Q 135.1 112.4, 136.4 114.1 Q 137.8 115.7, 140.3 115.7 Q 142.1 115.7, 144.1 114.6 L 144.8 116.3 Q 143.9 116.8, 142.7 117.2 Q 141.4 117.5, 140.0 117.5 Q 136.6 117.5, 134.7 115.4 Q 132.8 113.2, 132.8 109.3 " fill="#00CC00"/>
<path class="atom-10" d="M 146.0 100.2 L 148.1 100.2 L 148.1 117.3 L 146.0 117.3 L 146.0 100.2 " fill="#00CC00"/>
<path class="legend" d="M 168.4 365.4 L 168.6 366.5 Q 169.4 365.3, 170.8 365.3 Q 171.3 365.3, 171.9 365.4 L 171.7 366.8 Q 171.0 366.6, 170.6 366.6 Q 169.9 366.6, 169.5 366.9 Q 169.0 367.1, 168.7 367.8 L 168.7 373.6 L 167.2 373.6 L 167.2 365.4 L 168.4 365.4 " fill="#000000"/>
<path class="legend" d="M 172.1 369.5 Q 172.1 367.5, 173.1 366.4 Q 174.2 365.3, 176.0 365.3 Q 177.8 365.3, 178.6 366.4 Q 179.4 367.4, 179.4 369.5 L 179.4 369.7 L 173.7 369.7 Q 173.7 371.1, 174.3 371.8 Q 175.0 372.6, 176.1 372.6 Q 176.8 372.6, 177.4 372.4 Q 177.9 372.3, 178.7 372.0 L 179.1 373.0 Q 178.3 373.4, 177.5 373.6 Q 176.8 373.8, 176.0 373.8 Q 174.2 373.8, 173.2 372.6 Q 172.1 371.5, 172.1 369.5 M 176.0 366.4 Q 175.0 366.4, 174.5 367.0 Q 173.9 367.5, 173.7 368.6 L 177.8 368.6 Q 177.7 367.5, 177.3 367.0 Q 176.8 366.4, 176.0 366.4 " fill="#000000"/>
<path class="legend" d="M 180.0 371.4 Q 180.0 370.1, 181.1 369.4 Q 182.1 368.7, 184.1 368.7 L 185.3 368.7 L 185.3 368.3 Q 185.3 367.3, 184.9 366.9 Q 184.4 366.4, 183.4 366.4 Q 182.8 366.4, 182.2 366.6 Q 181.7 366.7, 180.9 367.0 L 180.5 366.0 Q 182.0 365.3, 183.4 365.3 Q 185.2 365.3, 186.0 366.0 Q 186.8 366.8, 186.8 368.4 L 186.8 373.6 L 185.6 373.6 Q 185.6 373.6, 185.6 373.3 Q 185.5 373.1, 185.4 372.7 Q 184.3 373.8, 182.7 373.8 Q 181.5 373.8, 180.8 373.2 Q 180.0 372.5, 180.0 371.4 M 181.5 371.4 Q 181.5 372.0, 181.9 372.3 Q 182.3 372.6, 183.0 372.6 Q 183.7 372.6, 184.3 372.4 Q 184.9 372.0, 185.3 371.5 L 185.3 369.8 L 184.2 369.8 Q 182.9 369.8, 182.2 370.2 Q 181.5 370.6, 181.5 371.4 " fill="#000000"/>
<path class="legend" d="M 188.0 369.5 Q 188.0 367.5, 189.0 366.4 Q 190.0 365.3, 192.0 365.3 Q 193.8 365.3, 194.8 366.6 L 193.8 367.4 Q 193.4 366.9, 193.0 366.7 Q 192.5 366.4, 192.0 366.4 Q 190.8 366.4, 190.2 367.2 Q 189.6 368.0, 189.6 369.5 Q 189.6 371.0, 190.2 371.8 Q 190.9 372.6, 192.1 372.6 Q 192.7 372.6, 193.2 372.4 Q 193.7 372.3, 194.2 372.0 L 194.6 373.0 Q 193.5 373.7, 191.9 373.7 Q 190.0 373.7, 189.0 372.6 Q 188.0 371.5, 188.0 369.5 " fill="#000000"/>
<path class="legend" d="M 195.2 366.6 L 195.2 365.4 L 196.8 365.4 L 197.0 363.0 L 198.1 363.0 L 198.1 365.4 L 200.6 365.4 L 200.6 366.6 L 198.1 366.6 L 198.1 371.1 Q 198.1 372.5, 199.3 372.5 Q 199.8 372.5, 200.5 372.3 L 200.8 373.4 Q 199.9 373.7, 199.1 373.7 Q 198.0 373.7, 197.3 373.1 Q 196.6 372.4, 196.6 371.2 L 196.6 366.6 L 195.2 366.6 " fill="#000000"/>
<path class="legend" d="M 209.3 374.4 L 209.3 375.7 L 201.2 375.7 L 201.2 374.4 L 209.3 374.4 " fill="#000000"/>
<path class="legend" d="M 210.0 372.4 L 212.4 372.4 L 212.4 363.9 L 209.7 364.7 L 209.3 363.8 L 212.8 362.2 L 213.9 362.4 L 213.9 372.4 L 216.2 372.4 L 216.2 373.6 L 210.0 373.6 L 210.0 372.4 " fill="#000000"/>
<path class="legend" d="M 222.8 363.6 L 216.8 363.6 L 216.8 362.3 L 224.4 362.3 L 224.4 363.4 L 219.8 373.6 L 218.2 373.6 L 222.8 363.6 " fill="#000000"/>
<path class="legend" d="M 230.6 367.6 Q 231.6 368.1, 232.2 368.8 Q 232.8 369.4, 232.8 370.5 Q 232.8 371.5, 232.3 372.2 Q 231.8 373.0, 230.9 373.4 Q 230.1 373.8, 228.9 373.8 Q 227.0 373.8, 225.9 372.9 Q 224.8 372.0, 224.8 370.5 Q 224.8 369.6, 225.3 368.9 Q 225.8 368.2, 226.8 367.7 Q 226.0 367.3, 225.6 366.7 Q 225.2 366.0, 225.2 365.1 Q 225.2 363.7, 226.2 363.0 Q 227.2 362.2, 228.8 362.2 Q 230.5 362.2, 231.4 363.0 Q 232.4 363.7, 232.4 365.1 Q 232.4 365.9, 231.9 366.5 Q 231.5 367.1, 230.6 367.6 M 228.8 363.4 Q 227.9 363.4, 227.4 363.8 Q 226.8 364.3, 226.8 365.1 Q 226.8 365.7, 227.2 366.1 Q 227.5 366.4, 228.0 366.7 Q 228.6 366.9, 229.5 367.2 Q 230.2 366.8, 230.5 366.2 Q 230.8 365.7, 230.8 365.1 Q 230.8 364.3, 230.3 363.8 Q 229.8 363.4, 228.8 363.4 M 228.9 372.6 Q 229.9 372.6, 230.6 372.0 Q 231.2 371.5, 231.2 370.5 Q 231.2 369.9, 230.9 369.5 Q 230.6 369.1, 230.0 368.9 Q 229.5 368.7, 228.6 368.4 L 227.9 368.2 Q 227.1 368.6, 226.8 369.2 Q 226.4 369.8, 226.4 370.5 Q 226.4 371.5, 227.1 372.0 Q 227.8 372.6, 228.9 372.6 " fill="#000000"/>
<path class="legend" d="M 136.2 383.8 Q 136.2 381.8, 137.2 380.7 Q 138.2 379.5, 140.2 379.5 Q 142.0 379.5, 143.0 380.9 L 142.0 381.6 Q 141.6 381.2, 141.2 380.9 Q 140.7 380.7, 140.2 380.7 Q 139.0 380.7, 138.4 381.5 Q 137.8 382.3, 137.8 383.8 Q 137.8 385.3, 138.4 386.1 Q 139.1 386.8, 140.3 386.8 Q 140.9 386.8, 141.4 386.7 Q 141.9 386.5, 142.4 386.3 L 142.8 387.3 Q 141.7 388.0, 140.1 388.0 Q 138.2 388.0, 137.2 386.9 Q 136.2 385.7, 136.2 383.8 " fill="#000000"/>
<path class="legend" d="M 143.4 383.8 Q 143.4 381.7, 144.4 380.6 Q 145.4 379.5, 147.2 379.5 Q 149.1 379.5, 149.9 380.6 Q 150.7 381.7, 150.7 383.7 L 150.7 384.0 L 144.9 384.0 Q 145.0 385.4, 145.6 386.1 Q 146.2 386.8, 147.4 386.8 Q 148.0 386.8, 148.6 386.7 Q 149.2 386.5, 149.9 386.2 L 150.3 387.2 Q 149.5 387.6, 148.8 387.8 Q 148.1 388.0, 147.3 388.0 Q 145.4 388.0, 144.4 386.9 Q 143.4 385.8, 143.4 383.8 M 147.2 380.7 Q 146.3 380.7, 145.7 381.2 Q 145.2 381.8, 145.0 382.8 L 149.1 382.8 Q 149.0 381.7, 148.5 381.2 Q 148.1 380.7, 147.2 380.7 " fill="#000000"/>
<path class="legend" d="M 155.6 379.5 Q 156.9 379.5, 157.6 380.3 Q 158.3 381.0, 158.3 382.4 L 158.3 387.9 L 156.8 387.9 L 156.8 382.6 Q 156.8 381.6, 156.4 381.2 Q 156.0 380.7, 155.2 380.7 Q 154.4 380.7, 153.8 381.1 Q 153.2 381.4, 152.8 382.0 L 152.8 387.9 L 151.3 387.9 L 151.3 379.7 L 152.5 379.7 L 152.7 380.8 Q 153.8 379.5, 155.6 379.5 " fill="#000000"/>
<path class="legend" d="M 159.5 380.8 L 159.5 379.7 L 161.1 379.7 L 161.3 377.3 L 162.4 377.3 L 162.4 379.7 L 165.0 379.7 L 165.0 380.8 L 162.4 380.8 L 162.4 385.4 Q 162.4 386.8, 163.6 386.8 Q 164.1 386.8, 164.8 386.6 L 165.1 387.6 Q 164.2 388.0, 163.4 388.0 Q 162.3 388.0, 161.6 387.3 Q 160.9 386.7, 160.9 385.4 L 160.9 380.8 L 159.5 380.8 " fill="#000000"/>
<path class="legend" d="M 173.6 388.7 L 173.6 390.0 L 165.5 390.0 L 165.5 388.7 L 173.6 388.7 " fill="#000000"/>
<path class="legend" d="M 181.1 375.7 L 181.1 387.9 L 179.9 387.9 L 179.7 386.9 Q 178.8 388.0, 177.3 388.0 Q 175.5 388.0, 174.6 387.0 Q 173.6 385.9, 173.6 383.9 Q 173.6 381.8, 174.8 380.7 Q 175.9 379.5, 177.9 379.5 Q 178.7 379.5, 179.6 379.7 L 179.6 375.7 L 181.1 375.7 M 177.4 386.8 Q 178.2 386.8, 178.8 386.4 Q 179.4 385.9, 179.6 385.1 L 179.6 380.9 Q 178.8 380.7, 177.9 380.7 Q 176.6 380.7, 175.9 381.6 Q 175.2 382.4, 175.2 383.9 Q 175.2 385.3, 175.7 386.1 Q 176.3 386.8, 177.4 386.8 " fill="#000000"/>
<path class="legend" d="M 182.4 376.6 L 183.9 376.6 L 183.9 378.0 L 182.4 378.0 L 182.4 376.6 M 182.4 379.7 L 183.9 379.7 L 183.9 387.9 L 182.4 387.9 L 182.4 379.7 " fill="#000000"/>
<path class="legend" d="M 185.7 386.2 Q 186.4 386.5, 186.9 386.6 Q 187.5 386.8, 188.0 386.8 Q 188.7 386.8, 189.1 386.5 Q 189.6 386.2, 189.6 385.6 Q 189.6 385.2, 189.3 385.0 Q 189.1 384.8, 188.9 384.6 Q 188.6 384.5, 187.9 384.3 Q 187.8 384.3, 187.0 384.0 Q 186.3 383.7, 185.9 383.2 Q 185.5 382.7, 185.5 381.9 Q 185.5 380.9, 186.3 380.2 Q 187.1 379.5, 188.5 379.5 Q 189.2 379.5, 189.7 379.7 Q 190.3 379.8, 190.9 380.0 L 190.5 381.2 Q 189.9 381.0, 189.5 380.9 Q 189.0 380.8, 188.5 380.8 Q 187.8 380.8, 187.4 381.1 Q 187.0 381.4, 187.0 381.8 Q 187.0 382.3, 187.3 382.5 Q 187.6 382.7, 188.3 383.0 Q 188.5 383.0, 188.6 383.1 L 189.0 383.2 Q 189.7 383.4, 190.1 383.7 Q 190.5 383.9, 190.8 384.4 Q 191.1 384.8, 191.1 385.6 Q 191.1 386.7, 190.2 387.4 Q 189.4 388.0, 188.0 388.0 Q 187.3 388.0, 186.6 387.9 Q 185.9 387.7, 185.2 387.4 L 185.7 386.2 " fill="#000000"/>
<path class="legend" d="M 191.9 380.8 L 191.9 379.7 L 193.5 379.7 L 193.7 377.3 L 194.9 377.3 L 194.9 379.7 L 197.4 379.7 L 197.4 380.8 L 194.9 380.8 L 194.9 385.4 Q 194.9 386.8, 196.1 386.8 Q 196.5 386.8, 197.2 386.6 L 197.5 387.6 Q 196.6 388.0, 195.8 388.0 Q 194.7 388.0, 194.0 387.3 Q 193.4 386.7, 193.4 385.4 L 193.4 380.8 L 191.9 380.8 " fill="#000000"/>
<path class="legend" d="" fill="#000000"/>
<path class="legend" d="M 203.2 380.9 L 210.6 380.9 L 210.6 382.1 L 203.2 382.1 L 203.2 380.9 M 203.2 384.4 L 210.6 384.4 L 210.6 385.5 L 203.2 385.5 L 203.2 384.4 " fill="#000000"/>
<path class="legend" d="" fill="#000000"/>
<path class="legend" d="M 221.5 388.0 Q 219.4 388.0, 218.4 386.5 Q 217.3 384.9, 217.3 382.2 Q 217.3 379.5, 218.4 378.0 Q 219.4 376.4, 221.5 376.4 Q 223.6 376.4, 224.6 378.0 Q 225.6 379.5, 225.6 382.2 Q 225.6 384.9, 224.6 386.5 Q 223.6 388.0, 221.5 388.0 M 221.5 386.7 Q 222.7 386.7, 223.4 385.6 Q 224.0 384.4, 224.0 382.2 Q 224.0 380.0, 223.4 378.8 Q 222.7 377.7, 221.5 377.7 Q 220.3 377.7, 219.6 378.8 Q 218.9 380.0, 218.9 382.2 Q 218.9 384.4, 219.6 385.6 Q 220.3 386.7, 221.5 386.7 " fill="#000000"/>
<path class="legend" d="M 226.7 386.3 L 228.3 386.3 L 228.3 387.9 L 226.7 387.9 L 226.7 386.3 " fill="#000000"/>
<path class="legend" d="M 233.7 380.8 Q 234.7 380.8, 235.5 381.2 Q 236.3 381.7, 236.7 382.5 Q 237.2 383.2, 237.2 384.2 Q 237.2 385.3, 236.7 386.2 Q 236.2 387.1, 235.3 387.5 Q 234.5 388.0, 233.4 388.0 Q 231.3 388.0, 230.3 386.7 Q 229.3 385.3, 229.3 382.6 Q 229.3 379.6, 230.6 378.0 Q 231.8 376.4, 234.2 376.4 Q 234.9 376.4, 235.5 376.6 Q 236.1 376.8, 236.7 377.1 L 236.1 378.2 Q 235.3 377.7, 234.3 377.7 Q 232.7 377.7, 231.8 378.8 Q 231.0 379.8, 230.9 381.9 Q 231.5 381.4, 232.2 381.1 Q 233.0 380.8, 233.7 380.8 M 233.4 386.7 Q 234.0 386.7, 234.5 386.4 Q 235.0 386.1, 235.3 385.5 Q 235.6 384.9, 235.6 384.3 Q 235.6 383.2, 235.0 382.7 Q 234.5 382.1, 233.5 382.1 Q 232.8 382.1, 232.1 382.4 Q 231.4 382.7, 230.9 383.1 Q 231.0 385.0, 231.6 385.9 Q 232.2 386.7, 233.4 386.7 " fill="#000000"/>
<path class="legend" d="M 245.4 384.0 L 246.8 384.0 L 246.8 385.3 L 245.4 385.3 L 245.4 387.9 L 243.9 387.9 L 243.9 385.3 L 238.1 385.3 L 238.1 384.3 L 243.0 376.6 L 245.4 376.6 L 245.4 384.0 M 239.9 384.0 L 243.9 384.0 L 243.9 377.6 L 239.9 384.0 " fill="#000000"/>
<path class="legend" d="M 247.6 378.7 Q 248.0 377.6, 249.0 377.0 Q 250.0 376.4, 251.4 376.4 Q 253.1 376.4, 254.0 377.4 Q 255.0 378.3, 255.0 379.9 Q 255.0 381.6, 253.7 383.2 Q 252.5 384.8, 250.0 386.6 L 255.2 386.6 L 255.2 387.9 L 247.6 387.9 L 247.6 386.8 Q 249.7 385.3, 250.9 384.2 Q 252.2 383.1, 252.8 382.1 Q 253.4 381.1, 253.4 380.0 Q 253.4 378.9, 252.9 378.3 Q 252.3 377.7, 251.4 377.7 Q 250.5 377.7, 249.8 378.1 Q 249.2 378.4, 248.8 379.3 L 247.6 378.7 " fill="#000000"/>
<path class="legend" d="M 256.2 378.7 Q 256.6 377.6, 257.6 377.0 Q 258.6 376.4, 260.0 376.4 Q 261.7 376.4, 262.6 377.4 Q 263.6 378.3, 263.6 379.9 Q 263.6 381.6, 262.3 383.2 Q 261.1 384.8, 258.5 386.6 L 263.8 386.6 L 263.8 387.9 L 256.1 387.9 L 256.1 386.8 Q 258.3 385.3, 259.5 384.2 Q 260.8 383.1, 261.4 382.1 Q 262.0 381.1, 262.0 380.0 Q 262.0 378.9, 261.4 378.3 Q 260.9 377.7, 260.0 377.7 Q 259.0 377.7, 258.4 378.1 Q 257.8 378.4, 257.4 379.3 L 256.2 378.7 " fill="#000000"/>
<path class="bond-0 atom-0 atom-1" d="M 719.6,117.0 L 737.8,170.1" style="fill:none;fill-rule:evenodd;stroke:#000000;stroke-width:2.0px;stroke-linecap:butt;stroke-linejoin:miter;stroke-opacity:1"/>
<path class="bond-1 atom-1 atom-2" d="M 737.8,170.1 L 700.8,212.4" style="fill:none;fill-rule:evenodd;stroke:#000000;stroke-width:2.0px;stroke-linecap:butt;stroke-linejoin:miter;stroke-opacity:1"/>
<path class="bond-1 atom-1 atom-2" d="M 723.8,169.1 L 697.9,198.7" style="fill:none;fill-rule:evenodd;stroke:#000000;stroke-width:2.0px;stroke-linecap:butt;stroke-linejoin:miter;stroke-opacity:1"/>
<path class="bond-2 atom-2 atom-3" d="M 700.8,212.4 L 645.7,201.6" style="fill:none;fill-rule:evenodd;stroke:#000000;stroke-width:2.0px;stroke-linecap:butt;stroke-linejoin:miter;stroke-opacity:1"/>
<path class="bond-3 atom-3 atom-4" d="M 645.7,201.6 L 608.8,243.9" style="fill:none;fill-rule:evenodd;stroke:#000000;stroke-width:2.0px;stroke-linecap:butt;stroke-linejoin:miter;stroke-opacity:1"/>
<path class="bond-3 atom-3 atom-4" d="M 631.7,200.5 L 605.9,230.2" style="fill:none;fill-rule:evenodd;stroke:#000000;stroke-width:2.0px;stroke-linecap:butt;stroke-linejoin:miter;stroke-opacity:1"/>
<path class="bond-4 atom-4 atom-5" d="M 608.8,243.9 L 553.7,233.1" style="fill:none;fill-rule:evenodd;stroke:#000000;stroke-width:2.0px;stroke-linecap:butt;stroke-linejoin:miter;stroke-opacity:1"/>
<path class="bond-5 atom-5 atom-6" d="M 553.7,233.1 L 536.6,252.6" style="fill:none;fill-rule:evenodd;stroke:#000000;stroke-width:2.0px;stroke-linecap:butt;stroke-linejoin:miter;stroke-opacity:1"/>
<path class="bond-5 atom-5 atom-6" d="M 536.6,252.6 L 519.6,272.1" style="fill:none;fill-rule:evenodd;stroke:#00CC00;stroke-width:2.0px;stroke-linecap:butt;stroke-linejoin:miter;stroke-opacity:1"/>
<path class="bond-6 atom-5 atom-7" d="M 553.7,233.1 L 535.5,179.9" style="fill:none;fill-rule:evenodd;stroke:#000000;stroke-width:2.0px;stroke-linecap:butt;stroke-linejoin:miter;stroke-opacity:1"/>
<path class="bond-6 atom-5 atom-7" d="M 561.6,221.5 L 548.8,184.2" style="fill:none;fill-rule:evenodd;stroke:#000000;stroke-width:2.0px;stroke-linecap:butt;stroke-linejoin:miter;stroke-opacity:1"/>
<path class="bond-7 atom-7 atom-8" d="M 535.5,179.9 L 512.5,175.4" style="fill:none;fill-rule:evenodd;stroke:#000000;stroke-width:2.0px;stroke-linecap:butt;stroke-linejoin:miter;stroke-opacity:1"/>
<path class="bond-7 atom-7 atom-8" d="M 512.5,175.4 L 489.5,170.9" style="fill:none;fill-rule:evenodd;stroke:#FF0000;stroke-width:2.0px;stroke-linecap:butt;stroke-linejoin:miter;stroke-opacity:1"/>
<path class="bond-8 atom-8 atom-9" d="M 477.0,159.2 L 469.6,137.5" style="fill:none;fill-rule:evenodd;stroke:#FF0000;stroke-width:2.0px;stroke-linecap:butt;stroke-linejoin:miter;stroke-opacity:1"/>
<path class="bond-8 atom-8 atom-9" d="M 469.6,137.5 L 462.2,115.9" style="fill:none;fill-rule:evenodd;stroke:#000000;stroke-width:2.0px;stroke-linecap:butt;stroke-linejoin:miter;stroke-opacity:1"/>
<path class="bond-9 atom-7 atom-10" d="M 535.5,179.9 L 572.4,137.6" style="fill:none;fill-rule:evenodd;stroke:#000000;stroke-width:2.0px;stroke-linecap:butt;stroke-linejoin:miter;stroke-opacity:1"/>
<path class="bond-10 atom-10 atom-11" d="M 572.4,137.6 L 565.2,116.3" style="fill:none;fill-rule:evenodd;stroke:#000000;stroke-width:2.0px;stroke-linecap:butt;stroke-linejoin:miter;stroke-opacity:1"/>
<path class="bond-10 atom-10 atom-11" d="M 565.2,116.3 L 557.9,95.0" style="fill:none;fill-rule:evenodd;stroke:#00CC00;stroke-width:2.0px;stroke-linecap:butt;stroke-linejoin:miter;stroke-opacity:1"/>
<path class="bond-11 atom-10 atom-12" d="M 572.4,137.6 L 627.6,148.4" style="fill:none;fill-rule:evenodd;stroke:#000000;stroke-width:2.0px;stroke-linecap:butt;stroke-linejoin:miter;stroke-opacity:1"/>
<path class="bond-11 atom-10 atom-12" d="M 578.5,150.2 L 617.1,157.8" style="fill:none;fill-rule:evenodd;stroke:#000000;stroke-width:2.0px;stroke-linecap:butt;stroke-linejoin:miter;stroke-opacity:1"/>
<path class="bond-12 atom-12 atom-3" d="M 627.6,148.4 L 645.7,201.6" style="fill:none;fill-rule:evenodd;stroke:#000000;stroke-width:2.0px;stroke-linecap:butt;stroke-linejoin:miter;stroke-opacity:1"/>
<path class="atom-6" d="M 502.5 275.9 Q 502.5 272.0, 504.3 269.9 Q 506.2 267.8, 509.7 267.8 Q 513.0 267.8, 514.8 270.1 L 513.3 271.3 Q 512.0 269.7, 509.7 269.7 Q 507.3 269.7, 506.0 271.3 Q 504.8 272.9, 504.8 275.9 Q 504.8 279.1, 506.1 280.7 Q 507.4 282.3, 510.0 282.3 Q 511.7 282.3, 513.8 281.2 L 514.4 282.9 Q 513.6 283.5, 512.3 283.8 Q 511.1 284.1, 509.7 284.1 Q 506.2 284.1, 504.3 282.0 Q 502.5 279.9, 502.5 275.9 " fill="#00CC00"/>
<path class="atom-6" d="M 515.7 266.8 L 517.7 266.8 L 517.7 283.9 L 515.7 283.9 L 515.7 266.8 " fill="#00CC00"/>
<path class="atom-8" d="M 473.1 169.1 Q 473.1 165.3, 474.9 163.1 Q 476.8 161.0, 480.4 161.0 Q 483.9 161.0, 485.8 163.1 Q 487.7 165.3, 487.7 169.1 Q 487.7 173.0, 485.8 175.2 Q 483.8 177.3, 480.4 177.3 Q 476.9 177.3, 474.9 175.2 Q 473.1 173.0, 473.1 169.1 M 480.4 175.5 Q 482.8 175.5, 484.1 173.9 Q 485.4 172.3, 485.4 169.1 Q 485.4 166.0, 484.1 164.4 Q 482.8 162.8, 480.4 162.8 Q 477.9 162.8, 476.6 164.4 Q 475.3 166.0, 475.3 169.1 Q 475.3 172.3, 476.6 173.9 Q 477.9 175.5, 480.4 175.5 " fill="#FF0000"/>
<path class="atom-11" d="M 548.1 85.0 Q 548.1 81.0, 550.0 79.0 Q 551.8 76.9, 555.4 76.9 Q 558.7 76.9, 560.4 79.2 L 558.9 80.4 Q 557.6 78.7, 555.4 78.7 Q 553.0 78.7, 551.7 80.3 Q 550.4 81.9, 550.4 85.0 Q 550.4 88.1, 551.7 89.7 Q 553.1 91.4, 555.6 91.4 Q 557.4 91.4, 559.4 90.3 L 560.0 92.0 Q 559.2 92.5, 558.0 92.8 Q 556.7 93.2, 555.3 93.2 Q 551.8 93.2, 550.0 91.0 Q 548.1 88.9, 548.1 85.0 " fill="#00CC00"/>
<path class="atom-11" d="M 561.3 75.9 L 563.4 75.9 L 563.4 93.0 L 561.3 93.0 L 561.3 75.9 " fill="#00CC00"/>
<path class="legend" d="M 567.6 365.4 L 567.8 366.5 Q 568.7 365.3, 570.1 365.3 Q 570.5 365.3, 571.1 365.4 L 570.9 366.8 Q 570.2 366.6, 569.8 366.6 Q 569.1 366.6, 568.7 366.9 Q 568.3 367.1, 567.9 367.8 L 567.9 373.6 L 566.4 373.6 L 566.4 365.4 L 567.6 365.4 " fill="#000000"/>
<path class="legend" d="M 571.4 369.5 Q 571.4 367.5, 572.4 366.4 Q 573.4 365.3, 575.2 365.3 Q 577.0 365.3, 577.8 366.4 Q 578.6 367.4, 578.6 369.5 L 578.6 369.7 L 572.9 369.7 Q 572.9 371.1, 573.6 371.8 Q 574.2 372.6, 575.3 372.6 Q 576.0 372.6, 576.6 372.4 Q 577.2 372.3, 577.9 372.0 L 578.3 373.0 Q 577.5 373.4, 576.8 373.6 Q 576.0 373.8, 575.3 373.8 Q 573.4 373.8, 572.4 372.6 Q 571.4 371.5, 571.4 369.5 M 575.2 366.4 Q 574.3 366.4, 573.7 367.0 Q 573.1 367.5, 573.0 368.6 L 577.1 368.6 Q 576.9 367.5, 576.5 367.0 Q 576.0 366.4, 575.2 366.4 " fill="#000000"/>
<path class="legend" d="M 579.2 371.4 Q 579.2 370.1, 580.3 369.4 Q 581.4 368.7, 583.3 368.7 L 584.5 368.7 L 584.5 368.3 Q 584.5 367.3, 584.1 366.9 Q 583.7 366.4, 582.6 366.4 Q 582.0 366.4, 581.5 366.6 Q 581.0 366.7, 580.2 367.0 L 579.7 366.0 Q 581.2 365.3, 582.7 365.3 Q 584.4 365.3, 585.2 366.0 Q 586.0 366.8, 586.0 368.4 L 586.0 373.6 L 584.8 373.6 Q 584.8 373.6, 584.8 373.3 Q 584.7 373.1, 584.6 372.7 Q 583.5 373.8, 582.0 373.8 Q 580.7 373.8, 580.0 373.2 Q 579.2 372.5, 579.2 371.4 M 580.8 371.4 Q 580.8 372.0, 581.1 372.3 Q 581.5 372.6, 582.2 372.6 Q 582.9 372.6, 583.5 372.4 Q 584.1 372.0, 584.5 371.5 L 584.5 369.8 L 583.4 369.8 Q 582.1 369.8, 581.4 370.2 Q 580.8 370.6, 580.8 371.4 " fill="#000000"/>
<path class="legend" d="M 587.2 369.5 Q 587.2 367.5, 588.2 366.4 Q 589.2 365.3, 591.2 365.3 Q 593.1 365.3, 594.0 366.6 L 593.0 367.4 Q 592.6 366.9, 592.2 366.7 Q 591.8 366.4, 591.2 366.4 Q 590.0 366.4, 589.4 367.2 Q 588.8 368.0, 588.8 369.5 Q 588.8 371.0, 589.4 371.8 Q 590.1 372.6, 591.3 372.6 Q 592.0 372.6, 592.4 372.4 Q 592.9 372.3, 593.5 372.0 L 593.9 373.0 Q 592.7 373.7, 591.2 373.7 Q 589.2 373.7, 588.2 372.6 Q 587.2 371.5, 587.2 369.5 " fill="#000000"/>
<path class="legend" d="M 594.4 366.6 L 594.4 365.4 L 596.0 365.4 L 596.2 363.0 L 597.4 363.0 L 597.4 365.4 L 599.9 365.4 L 599.9 366.6 L 597.4 366.6 L 597.4 371.1 Q 597.4 372.5, 598.6 372.5 Q 599.0 372.5, 599.7 372.3 L 600.0 373.4 Q 599.1 373.7, 598.3 373.7 Q 597.2 373.7, 596.5 373.1 Q 595.9 372.4, 595.9 371.2 L 595.9 366.6 L 594.4 366.6 " fill="#000000"/>
<path class="legend" d="M 608.6 374.4 L 608.6 375.7 L 600.4 375.7 L 600.4 374.4 L 608.6 374.4 " fill="#000000"/>
<path class="legend" d="M 612.7 366.5 Q 613.7 366.5, 614.5 367.0 Q 615.3 367.4, 615.8 368.2 Q 616.2 369.0, 616.2 370.0 Q 616.2 371.2, 615.6 372.1 Q 615.1 372.9, 614.2 373.3 Q 613.2 373.8, 612.2 373.8 Q 611.1 373.8, 610.2 373.4 Q 609.2 373.0, 608.6 372.3 L 609.5 371.3 Q 610.0 371.8, 610.8 372.2 Q 611.5 372.5, 612.2 372.5 Q 613.2 372.5, 613.9 371.8 Q 614.6 371.2, 614.6 370.1 Q 614.6 368.9, 613.9 368.3 Q 613.2 367.7, 612.1 367.7 Q 611.1 367.7, 610.0 368.2 L 609.2 367.8 L 609.7 362.3 L 615.5 362.3 L 615.4 363.6 L 611.0 363.6 L 610.7 366.9 Q 611.7 366.5, 612.7 366.5 " fill="#000000"/>
<path class="legend" d="M 620.8 362.2 Q 622.8 362.2, 623.8 363.6 Q 624.8 364.9, 624.8 367.6 Q 624.8 370.6, 623.6 372.2 Q 622.3 373.8, 619.9 373.8 Q 619.2 373.8, 618.6 373.6 Q 618.0 373.4, 617.4 373.1 L 618.1 372.0 Q 618.9 372.5, 619.9 372.5 Q 621.5 372.5, 622.3 371.5 Q 623.1 370.4, 623.2 368.3 Q 622.7 368.8, 621.9 369.1 Q 621.2 369.4, 620.4 369.4 Q 619.4 369.4, 618.6 368.9 Q 617.9 368.5, 617.4 367.7 Q 617.0 366.9, 617.0 366.0 Q 617.0 364.8, 617.5 364.0 Q 618.0 363.1, 618.8 362.7 Q 619.7 362.2, 620.8 362.2 M 618.6 365.9 Q 618.6 366.9, 619.2 367.5 Q 619.7 368.1, 620.7 368.1 Q 621.4 368.1, 622.1 367.8 Q 622.8 367.5, 623.2 367.1 Q 623.2 365.2, 622.6 364.3 Q 622.0 363.5, 620.8 363.5 Q 620.2 363.5, 619.7 363.8 Q 619.2 364.1, 618.9 364.7 Q 618.6 365.2, 618.6 365.9 " fill="#000000"/>
<path class="legend" d="M 630.0 366.5 Q 631.0 366.5, 631.9 367.0 Q 632.7 367.4, 633.1 368.2 Q 633.6 369.0, 633.6 370.0 Q 633.6 371.2, 633.0 372.1 Q 632.5 372.9, 631.5 373.3 Q 630.6 373.8, 629.6 373.8 Q 628.5 373.8, 627.6 373.4 Q 626.6 373.0, 625.9 372.3 L 626.9 371.3 Q 627.4 371.8, 628.1 372.2 Q 628.9 372.5, 629.6 372.5 Q 630.6 372.5, 631.3 371.8 Q 632.0 371.2, 632.0 370.1 Q 632.0 368.9, 631.3 368.3 Q 630.6 367.7, 629.5 367.7 Q 628.5 367.7, 627.4 368.2 L 626.5 367.8 L 627.1 362.3 L 632.9 362.3 L 632.7 363.6 L 628.4 363.6 L 628.0 366.9 Q 629.1 366.5, 630.0 366.5 " fill="#000000"/>
<path class="legend" d="M 536.4 383.8 Q 536.4 381.8, 537.4 380.7 Q 538.3 379.5, 540.3 379.5 Q 542.2 379.5, 543.1 380.9 L 542.1 381.6 Q 541.8 381.2, 541.3 380.9 Q 540.9 380.7, 540.3 380.7 Q 539.2 380.7, 538.5 381.5 Q 537.9 382.3, 537.9 383.8 Q 537.9 385.3, 538.5 386.1 Q 539.2 386.8, 540.4 386.8 Q 541.1 386.8, 541.5 386.7 Q 542.0 386.5, 542.6 386.3 L 543.0 387.3 Q 541.8 388.0, 540.3 388.0 Q 538.3 388.0, 537.4 386.9 Q 536.4 385.7, 536.4 383.8 " fill="#000000"/>
<path class="legend" d="M 543.5 383.8 Q 543.5 381.7, 544.5 380.6 Q 545.5 379.5, 547.4 379.5 Q 549.2 379.5, 550.0 380.6 Q 550.8 381.7, 550.8 383.7 L 550.8 384.0 L 545.1 384.0 Q 545.1 385.4, 545.7 386.1 Q 546.3 386.8, 547.5 386.8 Q 548.2 386.8, 548.7 386.7 Q 549.3 386.5, 550.1 386.2 L 550.5 387.2 Q 549.7 387.6, 548.9 387.8 Q 548.2 388.0, 547.4 388.0 Q 545.6 388.0, 544.6 386.9 Q 543.5 385.8, 543.5 383.8 M 547.4 380.7 Q 546.4 380.7, 545.9 381.2 Q 545.3 381.8, 545.1 382.8 L 549.2 382.8 Q 549.1 381.7, 548.7 381.2 Q 548.2 380.7, 547.4 380.7 " fill="#000000"/>
<path class="legend" d="M 555.7 379.5 Q 557.0 379.5, 557.7 380.3 Q 558.4 381.0, 558.4 382.4 L 558.4 387.9 L 556.9 387.9 L 556.9 382.6 Q 556.9 381.6, 556.5 381.2 Q 556.2 380.7, 555.3 380.7 Q 554.6 380.7, 553.9 381.1 Q 553.3 381.4, 552.9 382.0 L 552.9 387.9 L 551.4 387.9 L 551.4 379.7 L 552.7 379.7 L 552.8 380.8 Q 553.9 379.5, 555.7 379.5 " fill="#000000"/>
<path class="legend" d="M 559.6 380.8 L 559.6 379.7 L 561.2 379.7 L 561.5 377.3 L 562.6 377.3 L 562.6 379.7 L 565.1 379.7 L 565.1 380.8 L 562.6 380.8 L 562.6 385.4 Q 562.6 386.8, 563.8 386.8 Q 564.3 386.8, 565.0 386.6 L 565.2 387.6 Q 564.3 388.0, 563.5 388.0 Q 562.4 388.0, 561.8 387.3 Q 561.1 386.7, 561.1 385.4 L 561.1 380.8 L 559.6 380.8 " fill="#000000"/>
<path class="legend" d="M 573.8 388.7 L 573.8 390.0 L 565.6 390.0 L 565.6 388.7 L 573.8 388.7 " fill="#000000"/>
<path class="legend" d="M 581.3 375.7 L 581.3 387.9 L 580.0 387.9 L 579.8 386.9 Q 578.9 388.0, 577.4 388.0 Q 575.7 388.0, 574.7 387.0 Q 573.8 385.9, 573.8 383.9 Q 573.8 381.8, 574.9 380.7 Q 576.0 379.5, 578.0 379.5 Q 578.9 379.5, 579.8 379.7 L 579.8 375.7 L 581.3 375.7 M 577.5 386.8 Q 578.3 386.8, 578.9 386.4 Q 579.5 385.9, 579.8 385.1 L 579.8 380.9 Q 578.9 380.7, 578.0 380.7 Q 576.8 380.7, 576.0 381.6 Q 575.3 382.4, 575.3 383.9 Q 575.3 385.3, 575.9 386.1 Q 576.5 386.8, 577.5 386.8 " fill="#000000"/>
<path class="legend" d="M 582.5 376.6 L 584.0 376.6 L 584.0 378.0 L 582.5 378.0 L 582.5 376.6 M 582.5 379.7 L 584.0 379.7 L 584.0 387.9 L 582.5 387.9 L 582.5 379.7 " fill="#000000"/>
<path class="legend" d="M 585.9 386.2 Q 586.6 386.5, 587.1 386.6 Q 587.6 386.8, 588.2 386.8 Q 588.9 386.8, 589.3 386.5 Q 589.7 386.2, 589.7 385.6 Q 589.7 385.2, 589.5 385.0 Q 589.3 384.8, 589.0 384.6 Q 588.7 384.5, 588.0 384.3 Q 587.9 384.3, 587.2 384.0 Q 586.4 383.7, 586.0 383.2 Q 585.7 382.7, 585.7 381.9 Q 585.7 380.9, 586.4 380.2 Q 587.2 379.5, 588.7 379.5 Q 589.3 379.5, 589.9 379.7 Q 590.4 379.8, 591.0 380.0 L 590.6 381.2 Q 590.1 381.0, 589.6 380.9 Q 589.2 380.8, 588.7 380.8 Q 587.9 380.8, 587.5 381.1 Q 587.2 381.4, 587.2 381.8 Q 587.2 382.3, 587.5 382.5 Q 587.8 382.7, 588.4 383.0 Q 588.6 383.0, 588.8 383.1 L 589.1 383.2 Q 589.8 383.4, 590.2 383.7 Q 590.6 383.9, 590.9 384.4 Q 591.2 384.8, 591.2 385.6 Q 591.2 386.7, 590.4 387.4 Q 589.5 388.0, 588.2 388.0 Q 587.4 388.0, 586.7 387.9 Q 586.1 387.7, 585.4 387.4 L 585.9 386.2 " fill="#000000"/>
<path class="legend" d="M 592.1 380.8 L 592.1 379.7 L 593.6 379.7 L 593.9 377.3 L 595.0 377.3 L 595.0 379.7 L 597.5 379.7 L 597.5 380.8 L 595.0 380.8 L 595.0 385.4 Q 595.0 386.8, 596.2 386.8 Q 596.7 386.8, 597.4 386.6 L 597.6 387.6 Q 596.8 388.0, 595.9 388.0 Q 594.9 388.0, 594.2 387.3 Q 593.5 386.7, 593.5 385.4 L 593.5 380.8 L 592.1 380.8 " fill="#000000"/>
<path class="legend" d="" fill="#000000"/>
<path class="legend" d="M 603.4 380.9 L 610.7 380.9 L 610.7 382.1 L 603.4 382.1 L 603.4 380.9 M 603.4 384.4 L 610.7 384.4 L 610.7 385.5 L 603.4 385.5 L 603.4 384.4 " fill="#000000"/>
<path class="legend" d="" fill="#000000"/>
<path class="legend" d="M 621.6 388.0 Q 619.6 388.0, 618.5 386.5 Q 617.5 384.9, 617.5 382.2 Q 617.5 379.5, 618.5 378.0 Q 619.5 376.4, 621.6 376.4 Q 623.7 376.4, 624.8 378.0 Q 625.8 379.5, 625.8 382.2 Q 625.8 384.9, 624.7 386.5 Q 623.7 388.0, 621.6 388.0 M 621.6 386.7 Q 622.9 386.7, 623.5 385.6 Q 624.2 384.4, 624.2 382.2 Q 624.2 380.0, 623.5 378.8 Q 622.9 377.7, 621.6 377.7 Q 620.4 377.7, 619.7 378.8 Q 619.1 380.0, 619.1 382.2 Q 619.1 384.4, 619.7 385.6 Q 620.4 386.7, 621.6 386.7 " fill="#000000"/>
<path class="legend" d="M 626.8 386.3 L 628.4 386.3 L 628.4 387.9 L 626.8 387.9 L 626.8 386.3 " fill="#000000"/>
<path class="legend" d="M 635.2 381.9 Q 636.3 382.3, 636.9 383.0 Q 637.5 383.7, 637.5 384.8 Q 637.5 385.7, 637.0 386.5 Q 636.5 387.2, 635.6 387.6 Q 634.7 388.0, 633.5 388.0 Q 631.6 388.0, 630.5 387.2 Q 629.5 386.3, 629.5 384.8 Q 629.5 383.9, 629.9 383.2 Q 630.4 382.5, 631.4 381.9 Q 630.7 381.5, 630.3 380.9 Q 629.9 380.3, 629.9 379.3 Q 629.9 378.0, 630.8 377.2 Q 631.8 376.4, 633.5 376.4 Q 635.1 376.4, 636.1 377.2 Q 637.0 378.0, 637.0 379.3 Q 637.0 380.2, 636.6 380.8 Q 636.1 381.4, 635.2 381.9 M 633.5 377.6 Q 632.5 377.6, 632.0 378.1 Q 631.5 378.5, 631.5 379.3 Q 631.5 379.9, 631.8 380.3 Q 632.2 380.7, 632.7 380.9 Q 633.2 381.2, 634.2 381.5 Q 634.9 381.0, 635.1 380.5 Q 635.4 380.0, 635.4 379.3 Q 635.4 378.5, 634.9 378.1 Q 634.4 377.6, 633.5 377.6 M 633.5 386.8 Q 634.6 386.8, 635.2 386.3 Q 635.9 385.7, 635.9 384.8 Q 635.9 384.2, 635.5 383.8 Q 635.2 383.4, 634.7 383.2 Q 634.2 382.9, 633.3 382.7 L 632.6 382.4 Q 631.8 382.9, 631.4 383.5 Q 631.1 384.0, 631.1 384.8 Q 631.1 385.7, 631.7 386.3 Q 632.4 386.8, 633.5 386.8 " fill="#000000"/>
<path class="legend" d="M 642.6 388.0 Q 640.5 388.0, 639.5 386.5 Q 638.5 384.9, 638.5 382.2 Q 638.5 379.5, 639.5 378.0 Q 640.5 376.4, 642.6 376.4 Q 644.7 376.4, 645.7 378.0 Q 646.8 379.5, 646.8 382.2 Q 646.8 384.9, 645.7 386.5 Q 644.7 388.0, 642.6 388.0 M 642.6 386.7 Q 643.8 386.7, 644.5 385.6 Q 645.2 384.4, 645.2 382.2 Q 645.2 380.0, 644.5 378.8 Q 643.8 377.7, 642.6 377.7 Q 641.4 377.7, 640.7 378.8 Q 640.1 380.0, 640.1 382.2 Q 640.1 384.4, 640.7 385.6 Q 641.4 386.7, 642.6 386.7 " fill="#000000"/>
<path class="legend" d="M 653.7 377.8 L 647.8 377.8 L 647.8 376.6 L 655.3 376.6 L 655.3 377.7 L 650.7 387.9 L 649.2 387.9 L 653.7 377.8 " fill="#000000"/>
<path class="legend" d="M 660.2 380.8 Q 661.2 380.8, 662.0 381.2 Q 662.8 381.7, 663.2 382.5 Q 663.6 383.2, 663.6 384.2 Q 663.6 385.3, 663.1 386.2 Q 662.7 387.1, 661.8 387.5 Q 660.9 388.0, 659.8 388.0 Q 657.8 388.0, 656.8 386.7 Q 655.8 385.3, 655.8 382.6 Q 655.8 379.6, 657.0 378.0 Q 658.3 376.4, 660.7 376.4 Q 661.4 376.4, 662.0 376.6 Q 662.6 376.8, 663.2 377.1 L 662.6 378.2 Q 661.7 377.7, 660.7 377.7 Q 659.1 377.7, 658.3 378.8 Q 657.5 379.8, 657.4 381.9 Q 658.0 381.4, 658.7 381.1 Q 659.4 380.8, 660.2 380.8 M 659.8 386.7 Q 660.5 386.7, 660.9 386.4 Q 661.5 386.1, 661.7 385.5 Q 662.0 384.9, 662.0 384.3 Q 662.0 383.2, 661.5 382.7 Q 660.9 382.1, 659.9 382.1 Q 659.2 382.1, 658.5 382.4 Q 657.9 382.7, 657.4 383.1 Q 657.5 385.0, 658.1 385.9 Q 658.6 386.7, 659.8 386.7 " fill="#000000"/>
<path class="bond-0 atom-0 atom-1" d="M 1002.1,330.6 L 960.7,292.5" style="fill:none;fill-rule:evenodd;stroke:#000000;stroke-width:2.0px;stroke-linecap:butt;stroke-linejoin:miter;stroke-opacity:1"/>
<path class="bond-1 atom-1 atom-2" d="M 960.7,292.5 L 965.7,270.2" style="fill:none;fill-rule:evenodd;stroke:#000000;stroke-width:2.0px;stroke-linecap:butt;stroke-linejoin:miter;stroke-opacity:1"/>
<path class="bond-1 atom-1 atom-2" d="M 965.7,270.2 L 970.7,247.9" style="fill:none;fill-rule:evenodd;stroke:#FF0000;stroke-width:2.0px;stroke-linecap:butt;stroke-linejoin:miter;stroke-opacity:1"/>
<path class="bond-2 atom-2 atom-3" d="M 963.8,229.3 L 947.7,214.5" style="fill:none;fill-rule:evenodd;stroke:#FF0000;stroke-width:2.0px;stroke-linecap:butt;stroke-linejoin:miter;stroke-opacity:1"/>
<path class="bond-2 atom-2 atom-3" d="M 947.7,214.5 L 931.6,199.7" style="fill:none;fill-rule:evenodd;stroke:#000000;stroke-width:2.0px;stroke-linecap:butt;stroke-linejoin:miter;stroke-opacity:1"/>
<path class="bond-3 atom-3 atom-4" d="M 931.6,199.7 L 936.6,177.2" style="fill:none;fill-rule:evenodd;stroke:#000000;stroke-width:2.0px;stroke-linecap:butt;stroke-linejoin:miter;stroke-opacity:1"/>
<path class="bond-3 atom-3 atom-4" d="M 936.6,177.2 L 941.6,154.7" style="fill:none;fill-rule:evenodd;stroke:#0000FF;stroke-width:2.0px;stroke-linecap:butt;stroke-linejoin:miter;stroke-opacity:1"/>
<path class="bond-4 atom-4 atom-5" d="M 951.7,141.4 L 973.5,132.0" style="fill:none;fill-rule:evenodd;stroke:#0000FF;stroke-width:2.0px;stroke-linecap:butt;stroke-linejoin:miter;stroke-opacity:1"/>
<path class="bond-4 atom-4 atom-5" d="M 973.5,132.0 L 995.4,122.5" style="fill:none;fill-rule:evenodd;stroke:#000000;stroke-width:2.0px;stroke-linecap:butt;stroke-linejoin:miter;stroke-opacity:1"/>
<path class="bond-5 atom-5 atom-6" d="M 995.4,122.5 L 990.1,66.6" style="fill:none;fill-rule:evenodd;stroke:#000000;stroke-width:2.0px;stroke-linecap:butt;stroke-linejoin:miter;stroke-opacity:1"/>
<path class="bond-5 atom-5 atom-6" d="M 983.4,115.2 L 979.7,76.1" style="fill:none;fill-rule:evenodd;stroke:#000000;stroke-width:2.0px;stroke-linecap:butt;stroke-linejoin:miter;stroke-opacity:1"/>
<path class="bond-6 atom-6 atom-7" d="M 990.1,66.6 L 1032.2,29.4" style="fill:none;fill-rule:evenodd;stroke:#000000;stroke-width:2.0px;stroke-linecap:butt;stroke-linejoin:miter;stroke-opacity:1"/>
<path class="bond-7 atom-7 atom-8" d="M 1032.2,29.4 L 1085.5,47.4" style="fill:none;fill-rule:evenodd;stroke:#000000;stroke-width:2.0px;stroke-linecap:butt;stroke-linejoin:miter;stroke-opacity:1"/>
<path class="bond-7 atom-7 atom-8" d="M 1036.6,42.8 L 1073.9,55.3" style="fill:none;fill-rule:evenodd;stroke:#000000;stroke-width:2.0px;stroke-linecap:butt;stroke-linejoin:miter;stroke-opacity:1"/>
<path class="bond-8 atom-8 atom-9" d="M 1085.5,47.4 L 1096.6,102.4" style="fill:none;fill-rule:evenodd;stroke:#000000;stroke-width:2.0px;stroke-linecap:butt;stroke-linejoin:miter;stroke-opacity:1"/>
<path class="bond-9 atom-9 atom-10" d="M 1096.6,102.4 L 1149.8,120.3" style="fill:none;fill-rule:evenodd;stroke:#000000;stroke-width:2.0px;stroke-linecap:butt;stroke-linejoin:miter;stroke-opacity:1"/>
<path class="bond-10 atom-10 atom-11" d="M 1149.8,120.3 L 1154.4,142.9" style="fill:none;fill-rule:evenodd;stroke:#000000;stroke-width:2.0px;stroke-linecap:butt;stroke-linejoin:miter;stroke-opacity:1"/>
<path class="bond-10 atom-10 atom-11" d="M 1154.4,142.9 L 1158.9,165.5" style="fill:none;fill-rule:evenodd;stroke:#FF0000;stroke-width:2.0px;stroke-linecap:butt;stroke-linejoin:miter;stroke-opacity:1"/>
<path class="bond-11 atom-6 atom-12" d="M 990.1,66.6 L 966.6,61.4" style="fill:none;fill-rule:evenodd;stroke:#000000;stroke-width:2.0px;stroke-linecap:butt;stroke-linejoin:miter;stroke-opacity:1"/>
<path class="bond-11 atom-6 atom-12" d="M 966.6,61.4 L 943.1,56.1" style="fill:none;fill-rule:evenodd;stroke:#0000FF;stroke-width:2.0px;stroke-linecap:butt;stroke-linejoin:miter;stroke-opacity:1"/>
<path class="bond-12 atom-12 atom-13" d="M 929.5,64.2 L 918.1,83.5" style="fill:none;fill-rule:evenodd;stroke:#0000FF;stroke-width:2.0px;stroke-linecap:butt;stroke-linejoin:miter;stroke-opacity:1"/>
<path class="bond-12 atom-12 atom-13" d="M 918.1,83.5 L 906.7,102.7" style="fill:none;fill-rule:evenodd;stroke:#000000;stroke-width:2.0px;stroke-linecap:butt;stroke-linejoin:miter;stroke-opacity:1"/>
<path class="bond-12 atom-12 atom-13" d="M 935.7,75.7 L 927.7,89.2" style="fill:none;fill-rule:evenodd;stroke:#0000FF;stroke-width:2.0px;stroke-linecap:butt;stroke-linejoin:miter;stroke-opacity:1"/>
<path class="bond-12 atom-12 atom-13" d="M 927.7,89.2 L 919.8,102.7" style="fill:none;fill-rule:evenodd;stroke:#000000;stroke-width:2.0px;stroke-linecap:butt;stroke-linejoin:miter;stroke-opacity:1"/>
<path class="bond-13 atom-13 atom-14" d="M 906.7,102.7 L 850.7,108.0" style="fill:none;fill-rule:evenodd;stroke:#000000;stroke-width:2.0px;stroke-linecap:butt;stroke-linejoin:miter;stroke-opacity:1"/>
<path class="bond-14 atom-14 atom-15" d="M 850.7,108.0 L 818.2,62.2" style="fill:none;fill-rule:evenodd;stroke:#000000;stroke-width:2.0px;stroke-linecap:butt;stroke-linejoin:miter;stroke-opacity:1"/>
<path class="bond-15 atom-14 atom-16" d="M 855.8,110.4 L 846.4,131.0" style="fill:none;fill-rule:evenodd;stroke:#000000;stroke-width:2.0px;stroke-linecap:butt;stroke-linejoin:miter;stroke-opacity:1"/>
<path class="bond-15 atom-14 atom-16" d="M 846.4,131.0 L 837.0,151.6" style="fill:none;fill-rule:evenodd;stroke:#FF0000;stroke-width:2.0px;stroke-linecap:butt;stroke-linejoin:miter;stroke-opacity:1"/>
<path class="bond-15 atom-14 atom-16" d="M 845.6,105.7 L 836.2,126.3" style="fill:none;fill-rule:evenodd;stroke:#000000;stroke-width:2.0px;stroke-linecap:butt;stroke-linejoin:miter;stroke-opacity:1"/>
<path class="bond-15 atom-14 atom-16" d="M 836.2,126.3 L 826.8,146.9" style="fill:none;fill-rule:evenodd;stroke:#FF0000;stroke-width:2.0px;stroke-linecap:butt;stroke-linejoin:miter;stroke-opacity:1"/>
<path class="bond-16 atom-13 atom-4" d="M 906.7,102.7 L 921.3,119.3" style="fill:none;fill-rule:evenodd;stroke:#000000;stroke-width:2.0px;stroke-linecap:butt;stroke-linejoin:miter;stroke-opacity:1"/>
<path class="bond-16 atom-13 atom-4" d="M 921.3,119.3 L 935.9,135.9" style="fill:none;fill-rule:evenodd;stroke:#0000FF;stroke-width:2.0px;stroke-linecap:butt;stroke-linejoin:miter;stroke-opacity:1"/>
<path class="atom-2" d="M 965.6 237.8 Q 965.6 233.9, 967.5 231.8 Q 969.4 229.7, 972.9 229.7 Q 976.5 229.7, 978.4 231.8 Q 980.3 233.9, 980.3 237.8 Q 980.3 241.6, 978.3 243.8 Q 976.4 246.0, 972.9 246.0 Q 969.4 246.0, 967.5 243.8 Q 965.6 241.6, 965.6 237.8 M 972.9 244.2 Q 975.4 244.2, 976.7 242.6 Q 978.0 240.9, 978.0 237.8 Q 978.0 234.6, 976.7 233.1 Q 975.4 231.5, 972.9 231.5 Q 970.5 231.5, 969.2 233.0 Q 967.9 234.6, 967.9 237.8 Q 967.9 241.0, 969.2 242.6 Q 970.5 244.2, 972.9 244.2 " fill="#FF0000"/>
<path class="atom-4" d="M 940.3 136.9 L 945.5 145.3 Q 946.0 146.2, 946.9 147.7 Q 947.7 149.2, 947.7 149.3 L 947.7 136.9 L 949.9 136.9 L 949.9 152.8 L 947.7 152.8 L 942.1 143.6 Q 941.4 142.5, 940.7 141.3 Q 940.1 140.1, 939.9 139.7 L 939.9 152.8 L 937.8 152.8 L 937.8 136.9 L 940.3 136.9 " fill="#0000FF"/>
<path class="atom-11" d="M 1153.6 175.4 Q 1153.6 171.6, 1155.5 169.5 Q 1157.4 167.3, 1160.9 167.3 Q 1164.5 167.3, 1166.4 169.5 Q 1168.2 171.6, 1168.2 175.4 Q 1168.2 179.3, 1166.3 181.5 Q 1164.4 183.7, 1160.9 183.7 Q 1157.4 183.7, 1155.5 181.5 Q 1153.6 179.3, 1153.6 175.4 M 1160.9 181.9 Q 1163.4 181.9, 1164.7 180.3 Q 1166.0 178.6, 1166.0 175.4 Q 1166.0 172.3, 1164.7 170.7 Q 1163.4 169.1, 1160.9 169.1 Q 1158.5 169.1, 1157.2 170.7 Q 1155.9 172.3, 1155.9 175.4 Q 1155.9 178.7, 1157.2 180.3 Q 1158.5 181.9, 1160.9 181.9 " fill="#FF0000"/>
<path class="atom-11" d="M 1169.4 167.5 L 1171.5 167.5 L 1171.5 174.3 L 1179.7 174.3 L 1179.7 167.5 L 1181.8 167.5 L 1181.8 183.4 L 1179.7 183.4 L 1179.7 176.1 L 1171.5 176.1 L 1171.5 183.4 L 1169.4 183.4 L 1169.4 167.5 " fill="#FF0000"/>
<path class="atom-12" d="M 931.7 46.4 L 936.9 54.8 Q 937.5 55.7, 938.3 57.2 Q 939.1 58.7, 939.2 58.8 L 939.2 46.4 L 941.3 46.4 L 941.3 62.3 L 939.1 62.3 L 933.5 53.1 Q 932.9 52.0, 932.2 50.8 Q 931.5 49.6, 931.3 49.2 L 931.3 62.3 L 929.2 62.3 L 929.2 46.4 L 931.7 46.4 " fill="#0000FF"/>
<path class="atom-16" d="M 820.1 159.2 Q 820.1 155.3, 821.9 153.2 Q 823.8 151.1, 827.4 151.1 Q 830.9 151.1, 832.8 153.2 Q 834.7 155.3, 834.7 159.2 Q 834.7 163.0, 832.8 165.2 Q 830.8 167.4, 827.4 167.4 Q 823.9 167.4, 821.9 165.2 Q 820.1 163.1, 820.1 159.2 M 827.4 165.6 Q 829.8 165.6, 831.1 164.0 Q 832.4 162.4, 832.4 159.2 Q 832.4 156.0, 831.1 154.5 Q 829.8 152.9, 827.4 152.9 Q 824.9 152.9, 823.6 154.4 Q 822.3 156.0, 822.3 159.2 Q 822.3 162.4, 823.6 164.0 Q 824.9 165.6, 827.4 165.6 " fill="#FF0000"/>
<path class="legend" d="M 972.0 365.4 L 972.2 366.5 Q 973.0 365.3, 974.4 365.3 Q 974.9 365.3, 975.5 365.4 L 975.3 366.8 Q 974.6 366.6, 974.2 366.6 Q 973.5 366.6, 973.1 366.9 Q 972.6 367.1, 972.3 367.8 L 972.3 373.6 L 970.8 373.6 L 970.8 365.4 L 972.0 365.4 " fill="#000000"/>
<path class="legend" d="M 975.7 369.5 Q 975.7 367.5, 976.7 366.4 Q 977.8 365.3, 979.6 365.3 Q 981.4 365.3, 982.2 366.4 Q 983.0 367.4, 983.0 369.5 L 983.0 369.7 L 977.3 369.7 Q 977.3 371.1, 977.9 371.8 Q 978.6 372.6, 979.7 372.6 Q 980.4 372.6, 981.0 372.4 Q 981.5 372.3, 982.3 372.0 L 982.7 373.0 Q 981.9 373.4, 981.1 373.6 Q 980.4 373.8, 979.6 373.8 Q 977.8 373.8, 976.8 372.6 Q 975.7 371.5, 975.7 369.5 M 979.6 366.4 Q 978.6 366.4, 978.1 367.0 Q 977.5 367.5, 977.3 368.6 L 981.4 368.6 Q 981.3 367.5, 980.9 367.0 Q 980.4 366.4, 979.6 366.4 " fill="#000000"/>
<path class="legend" d="M 983.6 371.4 Q 983.6 370.1, 984.7 369.4 Q 985.7 368.7, 987.7 368.7 L 988.9 368.7 L 988.9 368.3 Q 988.9 367.3, 988.5 366.9 Q 988.0 366.4, 987.0 366.4 Q 986.4 366.4, 985.8 366.6 Q 985.3 366.7, 984.5 367.0 L 984.1 366.0 Q 985.6 365.3, 987.0 365.3 Q 988.8 365.3, 989.6 366.0 Q 990.4 366.8, 990.4 368.4 L 990.4 373.6 L 989.2 373.6 Q 989.2 373.6, 989.2 373.3 Q 989.1 373.1, 989.0 372.7 Q 987.9 373.8, 986.3 373.8 Q 985.1 373.8, 984.4 373.2 Q 983.6 372.5, 983.6 371.4 M 985.1 371.4 Q 985.1 372.0, 985.5 372.3 Q 985.9 372.6, 986.6 372.6 Q 987.3 372.6, 987.9 372.4 Q 988.5 372.0, 988.9 371.5 L 988.9 369.8 L 987.8 369.8 Q 986.5 369.8, 985.8 370.2 Q 985.1 370.6, 985.1 371.4 " fill="#000000"/>
<path class="legend" d="M 991.6 369.5 Q 991.6 367.5, 992.6 366.4 Q 993.6 365.3, 995.6 365.3 Q 997.4 365.3, 998.4 366.6 L 997.4 367.4 Q 997.0 366.9, 996.6 366.7 Q 996.1 366.4, 995.6 366.4 Q 994.4 366.4, 993.8 367.2 Q 993.2 368.0, 993.2 369.5 Q 993.2 371.0, 993.8 371.8 Q 994.5 372.6, 995.7 372.6 Q 996.3 372.6, 996.8 372.4 Q 997.3 372.3, 997.8 372.0 L 998.2 373.0 Q 997.1 373.7, 995.5 373.7 Q 993.6 373.7, 992.6 372.6 Q 991.6 371.5, 991.6 369.5 " fill="#000000"/>
<path class="legend" d="M 998.8 366.6 L 998.8 365.4 L 1000.4 365.4 L 1000.6 363.0 L 1001.7 363.0 L 1001.7 365.4 L 1004.2 365.4 L 1004.2 366.6 L 1001.7 366.6 L 1001.7 371.1 Q 1001.7 372.5, 1002.9 372.5 Q 1003.4 372.5, 1004.1 372.3 L 1004.4 373.4 Q 1003.5 373.7, 1002.7 373.7 Q 1001.6 373.7, 1000.9 373.1 Q 1000.2 372.4, 1000.2 371.2 L 1000.2 366.6 L 998.8 366.6 " fill="#000000"/>
<path class="legend" d="M 1012.9 374.4 L 1012.9 375.7 L 1004.8 375.7 L 1004.8 374.4 L 1012.9 374.4 " fill="#000000"/>
<path class="legend" d="M 1017.0 366.5 Q 1018.0 366.5, 1018.9 367.0 Q 1019.7 367.4, 1020.1 368.2 Q 1020.6 369.0, 1020.6 370.0 Q 1020.6 371.2, 1020.0 372.1 Q 1019.5 372.9, 1018.5 373.3 Q 1017.6 373.8, 1016.6 373.8 Q 1015.5 373.8, 1014.6 373.4 Q 1013.6 373.0, 1012.9 372.3 L 1013.9 371.3 Q 1014.4 371.8, 1015.1 372.2 Q 1015.9 372.5, 1016.6 372.5 Q 1017.6 372.5, 1018.3 371.8 Q 1019.0 371.2, 1019.0 370.1 Q 1019.0 368.9, 1018.3 368.3 Q 1017.6 367.7, 1016.5 367.7 Q 1015.5 367.7, 1014.4 368.2 L 1013.5 367.8 L 1014.1 362.3 L 1019.9 362.3 L 1019.7 363.6 L 1015.4 363.6 L 1015.0 366.9 Q 1016.1 366.5, 1017.0 366.5 " fill="#000000"/>
<path class="legend" d="M 1025.2 362.2 Q 1027.2 362.2, 1028.2 363.6 Q 1029.2 364.9, 1029.2 367.6 Q 1029.2 370.6, 1028.0 372.2 Q 1026.7 373.8, 1024.3 373.8 Q 1023.6 373.8, 1023.0 373.6 Q 1022.4 373.4, 1021.8 373.1 L 1022.4 372.0 Q 1023.3 372.5, 1024.3 372.5 Q 1025.9 372.5, 1026.7 371.5 Q 1027.5 370.4, 1027.6 368.3 Q 1027.0 368.8, 1026.3 369.1 Q 1025.6 369.4, 1024.8 369.4 Q 1023.8 369.4, 1023.0 368.9 Q 1022.2 368.5, 1021.8 367.7 Q 1021.4 366.9, 1021.4 366.0 Q 1021.4 364.8, 1021.8 364.0 Q 1022.3 363.1, 1023.2 362.7 Q 1024.1 362.2, 1025.2 362.2 M 1023.0 365.9 Q 1023.0 366.9, 1023.5 367.5 Q 1024.1 368.1, 1025.1 368.1 Q 1025.8 368.1, 1026.4 367.8 Q 1027.1 367.5, 1027.6 367.1 Q 1027.5 365.2, 1027.0 364.3 Q 1026.4 363.5, 1025.2 363.5 Q 1024.6 363.5, 1024.0 363.8 Q 1023.5 364.1, 1023.3 364.7 Q 1023.0 365.2, 1023.0 365.9 " fill="#000000"/>
<path class="legend" d="M 938.2 383.8 Q 938.2 381.8, 939.2 380.7 Q 940.1 379.5, 942.1 379.5 Q 944.0 379.5, 944.9 380.9 L 943.9 381.6 Q 943.6 381.2, 943.1 380.9 Q 942.7 380.7, 942.1 380.7 Q 941.0 380.7, 940.3 381.5 Q 939.7 382.3, 939.7 383.8 Q 939.7 385.3, 940.3 386.1 Q 941.0 386.8, 942.2 386.8 Q 942.9 386.8, 943.3 386.7 Q 943.8 386.5, 944.4 386.3 L 944.8 387.3 Q 943.6 388.0, 942.1 388.0 Q 940.1 388.0, 939.2 386.9 Q 938.2 385.7, 938.2 383.8 " fill="#000000"/>
<path class="legend" d="M 945.3 383.8 Q 945.3 381.7, 946.3 380.6 Q 947.3 379.5, 949.2 379.5 Q 951.0 379.5, 951.8 380.6 Q 952.6 381.7, 952.6 383.7 L 952.6 384.0 L 946.9 384.0 Q 946.9 385.4, 947.5 386.1 Q 948.1 386.8, 949.3 386.8 Q 950.0 386.8, 950.5 386.7 Q 951.1 386.5, 951.9 386.2 L 952.3 387.2 Q 951.5 387.6, 950.7 387.8 Q 950.0 388.0, 949.2 388.0 Q 947.4 388.0, 946.4 386.9 Q 945.3 385.8, 945.3 383.8 M 949.2 380.7 Q 948.2 380.7, 947.7 381.2 Q 947.1 381.8, 946.9 382.8 L 951.0 382.8 Q 950.9 381.7, 950.5 381.2 Q 950.0 380.7, 949.2 380.7 " fill="#000000"/>
<path class="legend" d="M 957.5 379.5 Q 958.8 379.5, 959.5 380.3 Q 960.2 381.0, 960.2 382.4 L 960.2 387.9 L 958.7 387.9 L 958.7 382.6 Q 958.7 381.6, 958.3 381.2 Q 958.0 380.7, 957.1 380.7 Q 956.4 380.7, 955.7 381.1 Q 955.1 381.4, 954.7 382.0 L 954.7 387.9 L 953.2 387.9 L 953.2 379.7 L 954.5 379.7 L 954.6 380.8 Q 955.7 379.5, 957.5 379.5 " fill="#000000"/>
<path class="legend" d="M 961.4 380.8 L 961.4 379.7 L 963.0 379.7 L 963.3 377.3 L 964.4 377.3 L 964.4 379.7 L 966.9 379.7 L 966.9 380.8 L 964.4 380.8 L 964.4 385.4 Q 964.4 386.8, 965.6 386.8 Q 966.1 386.8, 966.8 386.6 L 967.0 387.6 Q 966.1 388.0, 965.3 388.0 Q 964.2 388.0, 963.6 387.3 Q 962.9 386.7, 962.9 385.4 L 962.9 380.8 L 961.4 380.8 " fill="#000000"/>
<path class="legend" d="M 975.6 388.7 L 975.6 390.0 L 967.4 390.0 L 967.4 388.7 L 975.6 388.7 " fill="#000000"/>
<path class="legend" d="M 983.1 375.7 L 983.1 387.9 L 981.8 387.9 L 981.6 386.9 Q 980.7 388.0, 979.2 388.0 Q 977.5 388.0, 976.5 387.0 Q 975.6 385.9, 975.6 383.9 Q 975.6 381.8, 976.7 380.7 Q 977.8 379.5, 979.8 379.5 Q 980.7 379.5, 981.6 379.7 L 981.6 375.7 L 983.1 375.7 M 979.3 386.8 Q 980.1 386.8, 980.7 386.4 Q 981.3 385.9, 981.6 385.1 L 981.6 380.9 Q 980.7 380.7, 979.8 380.7 Q 978.6 380.7, 977.8 381.6 Q 977.1 382.4, 977.1 383.9 Q 977.1 385.3, 977.7 386.1 Q 978.3 386.8, 979.3 386.8 " fill="#000000"/>
<path class="legend" d="M 984.3 376.6 L 985.8 376.6 L 985.8 378.0 L 984.3 378.0 L 984.3 376.6 M 984.3 379.7 L 985.8 379.7 L 985.8 387.9 L 984.3 387.9 L 984.3 379.7 " fill="#000000"/>
<path class="legend" d="M 987.7 386.2 Q 988.4 386.5, 988.9 386.6 Q 989.4 386.8, 990.0 386.8 Q 990.7 386.8, 991.1 386.5 Q 991.5 386.2, 991.5 385.6 Q 991.5 385.2, 991.3 385.0 Q 991.1 384.8, 990.8 384.6 Q 990.5 384.5, 989.8 384.3 Q 989.7 384.3, 989.0 384.0 Q 988.2 383.7, 987.8 383.2 Q 987.5 382.7, 987.5 381.9 Q 987.5 380.9, 988.2 380.2 Q 989.0 379.5, 990.5 379.5 Q 991.1 379.5, 991.7 379.7 Q 992.2 379.8, 992.8 380.0 L 992.4 381.2 Q 991.9 381.0, 991.4 380.9 Q 991.0 380.8, 990.5 380.8 Q 989.7 380.8, 989.3 381.1 Q 989.0 381.4, 989.0 381.8 Q 989.0 382.3, 989.3 382.5 Q 989.6 382.7, 990.2 383.0 Q 990.4 383.0, 990.6 383.1 L 990.9 383.2 Q 991.6 383.4, 992.0 383.7 Q 992.4 383.9, 992.7 384.4 Q 993.0 384.8, 993.0 385.6 Q 993.0 386.7, 992.2 387.4 Q 991.3 388.0, 990.0 388.0 Q 989.2 388.0, 988.5 387.9 Q 987.9 387.7, 987.2 387.4 L 987.7 386.2 " fill="#000000"/>
<path class="legend" d="M 993.9 380.8 L 993.9 379.7 L 995.4 379.7 L 995.7 377.3 L 996.8 377.3 L 996.8 379.7 L 999.3 379.7 L 999.3 380.8 L 996.8 380.8 L 996.8 385.4 Q 996.8 386.8, 998.0 386.8 Q 998.5 386.8, 999.2 386.6 L 999.4 387.6 Q 998.6 388.0, 997.7 388.0 Q 996.7 388.0, 996.0 387.3 Q 995.3 386.7, 995.3 385.4 L 995.3 380.8 L 993.9 380.8 " fill="#000000"/>
<path class="legend" d="" fill="#000000"/>
<path class="legend" d="M 1005.2 380.9 L 1012.5 380.9 L 1012.5 382.1 L 1005.2 382.1 L 1005.2 380.9 M 1005.2 384.4 L 1012.5 384.4 L 1012.5 385.5 L 1005.2 385.5 L 1005.2 384.4 " fill="#000000"/>
<path class="legend" d="" fill="#000000"/>
<path class="legend" d="M 1019.9 386.6 L 1022.4 386.6 L 1022.4 378.1 L 1019.7 379.0 L 1019.3 378.0 L 1022.8 376.5 L 1023.9 376.7 L 1023.9 386.6 L 1026.1 386.6 L 1026.1 387.9 L 1019.9 387.9 L 1019.9 386.6 " fill="#000000"/>
<path class="legend" d="M 1026.8 386.3 L 1028.4 386.3 L 1028.4 387.9 L 1026.8 387.9 L 1026.8 386.3 " fill="#000000"/>
<path class="legend" d="M 1030.1 386.6 L 1032.5 386.6 L 1032.5 378.1 L 1029.8 379.0 L 1029.4 378.0 L 1032.9 376.5 L 1034.0 376.7 L 1034.0 386.6 L 1036.3 386.6 L 1036.3 387.9 L 1030.1 387.9 L 1030.1 386.6 " fill="#000000"/>
<path class="legend" d="M 1041.4 380.8 Q 1042.4 380.8, 1043.1 381.2 Q 1043.9 381.7, 1044.4 382.5 Q 1044.8 383.2, 1044.8 384.2 Q 1044.8 385.3, 1044.3 386.2 Q 1043.8 387.1, 1043.0 387.5 Q 1042.1 388.0, 1041.0 388.0 Q 1039.0 388.0, 1037.9 386.7 Q 1036.9 385.3, 1036.9 382.6 Q 1036.9 379.6, 1038.2 378.0 Q 1039.5 376.4, 1041.9 376.4 Q 1042.6 376.4, 1043.2 376.6 Q 1043.8 376.8, 1044.3 377.1 L 1043.7 378.2 Q 1042.9 377.7, 1041.9 377.7 Q 1040.3 377.7, 1039.5 378.8 Q 1038.7 379.8, 1038.6 381.9 Q 1039.1 381.4, 1039.9 381.1 Q 1040.6 380.8, 1041.4 380.8 M 1041.0 386.7 Q 1041.6 386.7, 1042.1 386.4 Q 1042.6 386.1, 1042.9 385.5 Q 1043.2 384.9, 1043.2 384.3 Q 1043.2 383.2, 1042.6 382.7 Q 1042.1 382.1, 1041.1 382.1 Q 1040.4 382.1, 1039.7 382.4 Q 1039.0 382.7, 1038.6 383.1 Q 1038.6 385.0, 1039.2 385.9 Q 1039.8 386.7, 1041.0 386.7 " fill="#000000"/>
<path class="legend" d="M 1049.8 388.0 Q 1047.7 388.0, 1046.7 386.5 Q 1045.7 384.9, 1045.7 382.2 Q 1045.7 379.5, 1046.7 378.0 Q 1047.7 376.4, 1049.8 376.4 Q 1051.9 376.4, 1052.9 378.0 Q 1054.0 379.5, 1054.0 382.2 Q 1054.0 384.9, 1052.9 386.5 Q 1051.9 388.0, 1049.8 388.0 M 1049.8 386.7 Q 1051.1 386.7, 1051.7 385.6 Q 1052.4 384.4, 1052.4 382.2 Q 1052.4 380.0, 1051.7 378.8 Q 1051.1 377.7, 1049.8 377.7 Q 1048.6 377.7, 1047.9 378.8 Q 1047.3 380.0, 1047.3 382.2 Q 1047.3 384.4, 1047.9 385.6 Q 1048.6 386.7, 1049.8 386.7 " fill="#000000"/>
<path class="legend" d="M 1055.6 386.6 L 1058.1 386.6 L 1058.1 378.1 L 1055.4 379.0 L 1055.0 378.0 L 1058.5 376.5 L 1059.6 376.7 L 1059.6 386.6 L 1061.8 386.6 L 1061.8 387.9 L 1055.6 387.9 L 1055.6 386.6 " fill="#000000"/>
</svg>