<svg xmlns="http://www.w3.org/2000/svg" xmlns:rdkit="http://www.rdkit.org/xml" xmlns:xlink="http://www.w3.org/1999/xlink" version="1.1" baseProfile="full" xml:space="preserve" width="2000px" height="400px" viewBox="0 0 2000 400">
<!-- END OF HEADER -->
<rect style="opacity:1.0;fill:#FFFFFF;stroke:none" width="2000.0" height="400.0" x="0.0" y="0.0"> </rect>
<path class="bond-0 atom-0 atom-1" d="M 340.3,133.0 L 312.3,145.2" style="fill:none;fill-rule:evenodd;stroke:#FF0000;stroke-width:2.0px;stroke-linecap:butt;stroke-linejoin:miter;stroke-opacity:1"/>
<path class="bond-0 atom-0 atom-1" d="M 312.3,145.2 L 284.2,157.5" style="fill:none;fill-rule:evenodd;stroke:#000000;stroke-width:2.0px;stroke-linecap:butt;stroke-linejoin:miter;stroke-opacity:1"/>
<path class="bond-1 atom-1 atom-2" d="M 284.2,157.5 L 275.9,231.3" style="fill:none;fill-rule:evenodd;stroke:#000000;stroke-width:2.0px;stroke-linecap:butt;stroke-linejoin:miter;stroke-opacity:1"/>
<path class="bond-2 atom-2 atom-3" d="M 275.9,231.3 L 207.8,261.1" style="fill:none;fill-rule:evenodd;stroke:#000000;stroke-width:2.0px;stroke-linecap:butt;stroke-linejoin:miter;stroke-opacity:1"/>
<path class="bond-2 atom-2 atom-3" d="M 259.8,222.2 L 212.1,243.0" style="fill:none;fill-rule:evenodd;stroke:#000000;stroke-width:2.0px;stroke-linecap:butt;stroke-linejoin:miter;stroke-opacity:1"/>
<path class="bond-3 atom-3 atom-4" d="M 207.8,261.1 L 148.0,216.9" style="fill:none;fill-rule:evenodd;stroke:#000000;stroke-width:2.0px;stroke-linecap:butt;stroke-linejoin:miter;stroke-opacity:1"/>
<path class="bond-4 atom-4 atom-5" d="M 148.0,216.9 L 79.8,246.7" style="fill:none;fill-rule:evenodd;stroke:#000000;stroke-width:2.0px;stroke-linecap:butt;stroke-linejoin:miter;stroke-opacity:1"/>
<path class="bond-4 atom-4 atom-5" d="M 131.8,207.8 L 84.1,228.6" style="fill:none;fill-rule:evenodd;stroke:#000000;stroke-width:2.0px;stroke-linecap:butt;stroke-linejoin:miter;stroke-opacity:1"/>
<path class="bond-5 atom-5 atom-6" d="M 79.8,246.7 L 20.0,202.5" style="fill:none;fill-rule:evenodd;stroke:#000000;stroke-width:2.0px;stroke-linecap:butt;stroke-linejoin:miter;stroke-opacity:1"/>
<path class="bond-6 atom-6 atom-7" d="M 20.0,202.5 L 28.3,128.7" style="fill:none;fill-rule:evenodd;stroke:#000000;stroke-width:2.0px;stroke-linecap:butt;stroke-linejoin:miter;stroke-opacity:1"/>
<path class="bond-6 atom-6 atom-7" d="M 36.0,193.1 L 41.8,141.4" style="fill:none;fill-rule:evenodd;stroke:#000000;stroke-width:2.0px;stroke-linecap:butt;stroke-linejoin:miter;stroke-opacity:1"/>
<path class="bond-7 atom-7 atom-8" d="M 28.3,128.7 L 96.4,98.9" style="fill:none;fill-rule:evenodd;stroke:#000000;stroke-width:2.0px;stroke-linecap:butt;stroke-linejoin:miter;stroke-opacity:1"/>
<path class="bond-8 atom-8 atom-9" d="M 96.4,98.9 L 156.3,143.1" style="fill:none;fill-rule:evenodd;stroke:#000000;stroke-width:2.0px;stroke-linecap:butt;stroke-linejoin:miter;stroke-opacity:1"/>
<path class="bond-8 atom-8 atom-9" d="M 96.6,117.5 L 138.5,148.4" style="fill:none;fill-rule:evenodd;stroke:#000000;stroke-width:2.0px;stroke-linecap:butt;stroke-linejoin:miter;stroke-opacity:1"/>
<path class="bond-9 atom-9 atom-4" d="M 156.3,143.1 L 148.0,216.9" style="fill:none;fill-rule:evenodd;stroke:#000000;stroke-width:2.0px;stroke-linecap:butt;stroke-linejoin:miter;stroke-opacity:1"/>
<path class="atom-0" d="M 342.7 127.8 Q 342.7 122.7, 345.2 119.9 Q 347.7 117.1, 352.4 117.1 Q 357.1 117.1, 359.6 119.9 Q 362.1 122.7, 362.1 127.8 Q 362.1 132.9, 359.5 135.8 Q 357.0 138.7, 352.4 138.7 Q 347.8 138.7, 345.2 135.8 Q 342.7 132.9, 342.7 127.8 M 352.4 136.3 Q 355.6 136.3, 357.3 134.2 Q 359.1 132.0, 359.1 127.8 Q 359.1 123.6, 357.3 121.6 Q 355.6 119.4, 352.4 119.4 Q 349.2 119.4, 347.4 121.5 Q 345.7 123.6, 345.7 127.8 Q 345.7 132.0, 347.4 134.2 Q 349.2 136.3, 352.4 136.3 " fill="#FF0000"/>
<path class="atom-0" d="M 363.5 117.3 L 366.4 117.3 L 366.4 126.3 L 377.2 126.3 L 377.2 117.3 L 380.0 117.3 L 380.0 138.4 L 377.2 138.4 L 377.2 128.6 L 366.4 128.6 L 366.4 138.4 L 363.5 138.4 L 363.5 117.3 " fill="#FF0000"/>
<path class="legend" d="M 172.0 365.4 L 172.1 366.5 Q 173.0 365.3, 174.4 365.3 Q 174.9 365.3, 175.5 365.4 L 175.2 366.8 Q 174.5 366.6, 174.2 366.6 Q 173.5 366.6, 173.0 366.9 Q 172.6 367.1, 172.2 367.8 L 172.2 373.6 L 170.7 373.6 L 170.7 365.4 L 172.0 365.4 " fill="#000000"/>
<path class="legend" d="M 175.7 369.5 Q 175.7 367.5, 176.7 366.4 Q 177.7 365.3, 179.6 365.3 Q 181.4 365.3, 182.2 366.4 Q 183.0 367.4, 183.0 369.5 L 183.0 369.7 L 177.2 369.7 Q 177.3 371.1, 177.9 371.8 Q 178.5 372.6, 179.7 372.6 Q 180.3 372.6, 180.9 372.4 Q 181.5 372.3, 182.2 372.0 L 182.7 373.0 Q 181.8 373.4, 181.1 373.6 Q 180.4 373.8, 179.6 373.8 Q 177.8 373.8, 176.7 372.6 Q 175.7 371.5, 175.7 369.5 M 179.6 366.4 Q 178.6 366.4, 178.0 367.0 Q 177.5 367.5, 177.3 368.6 L 181.4 368.6 Q 181.3 367.5, 180.8 367.0 Q 180.4 366.4, 179.6 366.4 " fill="#000000"/>
<path class="legend" d="M 183.6 371.4 Q 183.6 370.1, 184.6 369.4 Q 185.7 368.7, 187.6 368.7 L 188.9 368.7 L 188.9 368.3 Q 188.9 367.3, 188.4 366.9 Q 188.0 366.4, 187.0 366.4 Q 186.3 366.4, 185.8 366.6 Q 185.3 366.7, 184.5 367.0 L 184.1 366.0 Q 185.6 365.3, 187.0 365.3 Q 188.8 365.3, 189.6 366.0 Q 190.4 366.8, 190.4 368.4 L 190.4 373.6 L 189.2 373.6 Q 189.2 373.6, 189.1 373.3 Q 189.1 373.1, 189.0 372.7 Q 187.8 373.8, 186.3 373.8 Q 185.1 373.8, 184.3 373.2 Q 183.6 372.5, 183.6 371.4 M 185.1 371.4 Q 185.1 372.0, 185.5 372.3 Q 185.9 372.6, 186.6 372.6 Q 187.2 372.6, 187.8 372.4 Q 188.4 372.0, 188.9 371.5 L 188.9 369.8 L 187.7 369.8 Q 186.4 369.8, 185.8 370.2 Q 185.1 370.6, 185.1 371.4 " fill="#000000"/>
<path class="legend" d="M 191.6 369.5 Q 191.6 367.5, 192.6 366.4 Q 193.6 365.3, 195.5 365.3 Q 197.4 365.3, 198.4 366.6 L 197.4 367.4 Q 197.0 366.9, 196.5 366.7 Q 196.1 366.4, 195.5 366.4 Q 194.4 366.4, 193.8 367.2 Q 193.1 368.0, 193.1 369.5 Q 193.1 371.0, 193.8 371.8 Q 194.4 372.6, 195.6 372.6 Q 196.3 372.6, 196.8 372.4 Q 197.2 372.3, 197.8 372.0 L 198.2 373.0 Q 197.0 373.7, 195.5 373.7 Q 193.6 373.7, 192.6 372.6 Q 191.6 371.5, 191.6 369.5 " fill="#000000"/>
<path class="legend" d="M 198.8 366.6 L 198.8 365.4 L 200.3 365.4 L 200.6 363.0 L 201.7 363.0 L 201.7 365.4 L 204.2 365.4 L 204.2 366.6 L 201.7 366.6 L 201.7 371.1 Q 201.7 372.5, 202.9 372.5 Q 203.4 372.5, 204.1 372.3 L 204.3 373.4 Q 203.5 373.7, 202.6 373.7 Q 201.6 373.7, 200.9 373.1 Q 200.2 372.4, 200.2 371.2 L 200.2 366.6 L 198.8 366.6 " fill="#000000"/>
<path class="legend" d="M 212.9 374.4 L 212.9 375.7 L 204.7 375.7 L 204.7 374.4 L 212.9 374.4 " fill="#000000"/>
<path class="legend" d="M 217.3 366.6 Q 218.3 366.6, 219.1 367.0 Q 219.9 367.4, 220.3 368.2 Q 220.8 369.0, 220.8 370.0 Q 220.8 371.1, 220.3 372.0 Q 219.8 372.8, 218.9 373.3 Q 218.1 373.8, 217.0 373.8 Q 214.9 373.8, 213.9 372.4 Q 212.9 371.0, 212.9 368.3 Q 212.9 365.3, 214.2 363.7 Q 215.4 362.2, 217.8 362.2 Q 218.5 362.2, 219.1 362.3 Q 219.7 362.5, 220.3 362.8 L 219.7 363.9 Q 218.9 363.5, 217.8 363.5 Q 216.2 363.5, 215.4 364.5 Q 214.6 365.5, 214.5 367.6 Q 215.1 367.1, 215.8 366.8 Q 216.6 366.6, 217.3 366.6 M 217.0 372.4 Q 217.6 372.4, 218.1 372.1 Q 218.6 371.8, 218.9 371.2 Q 219.2 370.7, 219.2 370.0 Q 219.2 369.0, 218.6 368.4 Q 218.0 367.8, 217.0 367.8 Q 216.4 367.8, 215.7 368.1 Q 215.0 368.4, 214.5 368.9 Q 214.6 370.8, 215.2 371.6 Q 215.8 372.4, 217.0 372.4 " fill="#000000"/>
<path class="legend" d="M 227.1 367.7 Q 228.2 368.0, 228.7 368.7 Q 229.3 369.4, 229.3 370.5 Q 229.3 371.5, 228.8 372.2 Q 228.3 373.0, 227.4 373.4 Q 226.5 373.8, 225.4 373.8 Q 224.2 373.8, 223.3 373.4 Q 222.4 372.9, 221.6 372.1 L 222.6 371.2 Q 223.3 371.9, 223.8 372.2 Q 224.4 372.5, 225.4 372.5 Q 226.4 372.5, 227.0 372.0 Q 227.7 371.4, 227.7 370.5 Q 227.7 369.4, 227.0 368.8 Q 226.4 368.3, 225.0 368.3 L 224.2 368.3 L 224.2 367.2 L 224.9 367.2 Q 226.1 367.2, 226.8 366.6 Q 227.4 366.1, 227.4 365.1 Q 227.4 364.3, 226.9 363.9 Q 226.3 363.5, 225.4 363.5 Q 224.5 363.5, 223.9 363.8 Q 223.3 364.1, 222.8 365.0 L 221.7 364.4 Q 222.1 363.4, 223.1 362.8 Q 224.1 362.2, 225.4 362.2 Q 227.1 362.2, 228.0 363.0 Q 229.0 363.7, 229.0 365.1 Q 229.0 366.0, 228.5 366.6 Q 228.0 367.3, 227.1 367.7 " fill="#000000"/>
<path class="legend" d="M 135.9 383.8 Q 135.9 381.8, 136.9 380.7 Q 137.9 379.5, 139.8 379.5 Q 141.7 379.5, 142.7 380.9 L 141.7 381.6 Q 141.3 381.2, 140.9 380.9 Q 140.4 380.7, 139.8 380.7 Q 138.7 380.7, 138.1 381.5 Q 137.4 382.3, 137.4 383.8 Q 137.4 385.3, 138.1 386.1 Q 138.7 386.8, 139.9 386.8 Q 140.6 386.8, 141.1 386.7 Q 141.5 386.5, 142.1 386.3 L 142.5 387.3 Q 141.3 388.0, 139.8 388.0 Q 137.9 388.0, 136.9 386.9 Q 135.9 385.7, 135.9 383.8 " fill="#000000"/>
<path class="legend" d="M 143.1 383.8 Q 143.1 381.7, 144.1 380.6 Q 145.1 379.5, 146.9 379.5 Q 148.7 379.5, 149.5 380.6 Q 150.4 381.7, 150.4 383.7 L 150.4 384.0 L 144.6 384.0 Q 144.6 385.4, 145.3 386.1 Q 145.9 386.8, 147.1 386.8 Q 147.7 386.8, 148.3 386.7 Q 148.9 386.5, 149.6 386.2 L 150.0 387.2 Q 149.2 387.6, 148.5 387.8 Q 147.7 388.0, 147.0 388.0 Q 145.1 388.0, 144.1 386.9 Q 143.1 385.8, 143.1 383.8 M 146.9 380.7 Q 146.0 380.7, 145.4 381.2 Q 144.9 381.8, 144.7 382.8 L 148.8 382.8 Q 148.7 381.7, 148.2 381.2 Q 147.8 380.7, 146.9 380.7 " fill="#000000"/>
<path class="legend" d="M 155.3 379.5 Q 156.6 379.5, 157.3 380.3 Q 158.0 381.0, 158.0 382.4 L 158.0 387.9 L 156.5 387.9 L 156.5 382.6 Q 156.5 381.6, 156.1 381.2 Q 155.7 380.7, 154.9 380.7 Q 154.1 380.7, 153.5 381.1 Q 152.9 381.4, 152.5 382.0 L 152.5 387.9 L 151.0 387.9 L 151.0 379.7 L 152.2 379.7 L 152.4 380.8 Q 153.5 379.5, 155.3 379.5 " fill="#000000"/>
<path class="legend" d="M 159.2 380.8 L 159.2 379.7 L 160.8 379.7 L 161.0 377.3 L 162.1 377.3 L 162.1 379.7 L 164.6 379.7 L 164.6 380.8 L 162.1 380.8 L 162.1 385.4 Q 162.1 386.8, 163.3 386.8 Q 163.8 386.8, 164.5 386.6 L 164.8 387.6 Q 163.9 388.0, 163.1 388.0 Q 162.0 388.0, 161.3 387.3 Q 160.6 386.7, 160.6 385.4 L 160.6 380.8 L 159.2 380.8 " fill="#000000"/>
<path class="legend" d="M 173.3 388.7 L 173.3 390.0 L 165.2 390.0 L 165.2 388.7 L 173.3 388.7 " fill="#000000"/>
<path class="legend" d="M 180.8 375.7 L 180.8 387.9 L 179.6 387.9 L 179.4 386.9 Q 178.5 388.0, 176.9 388.0 Q 175.2 388.0, 174.3 387.0 Q 173.3 385.9, 173.3 383.9 Q 173.3 381.8, 174.5 380.7 Q 175.6 379.5, 177.6 379.5 Q 178.4 379.5, 179.3 379.7 L 179.3 375.7 L 180.8 375.7 M 177.0 386.8 Q 177.9 386.8, 178.5 386.4 Q 179.1 385.9, 179.3 385.1 L 179.3 380.9 Q 178.5 380.7, 177.6 380.7 Q 176.3 380.7, 175.6 381.6 Q 174.9 382.4, 174.9 383.9 Q 174.9 385.3, 175.4 386.1 Q 176.0 386.8, 177.0 386.8 " fill="#000000"/>
<path class="legend" d="M 182.1 376.6 L 183.6 376.6 L 183.6 378.0 L 182.1 378.0 L 182.1 376.6 M 182.1 379.7 L 183.6 379.7 L 183.6 387.9 L 182.1 387.9 L 182.1 379.7 " fill="#000000"/>
<path class="legend" d="M 185.4 386.2 Q 186.1 386.5, 186.6 386.6 Q 187.2 386.8, 187.7 386.8 Q 188.4 386.8, 188.8 386.5 Q 189.3 386.2, 189.3 385.6 Q 189.3 385.2, 189.0 385.0 Q 188.8 384.8, 188.5 384.6 Q 188.3 384.5, 187.6 384.3 Q 187.5 384.3, 186.7 384.0 Q 186.0 383.7, 185.6 383.2 Q 185.2 382.7, 185.2 381.9 Q 185.2 380.9, 186.0 380.2 Q 186.7 379.5, 188.2 379.5 Q 188.9 379.5, 189.4 379.7 Q 190.0 379.8, 190.6 380.0 L 190.2 381.2 Q 189.6 381.0, 189.2 380.9 Q 188.7 380.8, 188.2 380.8 Q 187.5 380.8, 187.1 381.1 Q 186.7 381.4, 186.7 381.8 Q 186.7 382.3, 187.0 382.5 Q 187.3 382.7, 188.0 383.0 Q 188.2 383.0, 188.3 383.1 L 188.7 383.2 Q 189.4 383.4, 189.8 383.7 Q 190.2 383.9, 190.5 384.4 Q 190.8 384.8, 190.8 385.6 Q 190.8 386.7, 189.9 387.4 Q 189.1 388.0, 187.7 388.0 Q 186.9 388.0, 186.3 387.9 Q 185.6 387.7, 184.9 387.4 L 185.4 386.2 " fill="#000000"/>
<path class="legend" d="M 191.6 380.8 L 191.6 379.7 L 193.2 379.7 L 193.4 377.3 L 194.5 377.3 L 194.5 379.7 L 197.1 379.7 L 197.1 380.8 L 194.5 380.8 L 194.5 385.4 Q 194.5 386.8, 195.7 386.8 Q 196.2 386.8, 196.9 386.6 L 197.2 387.6 Q 196.3 388.0, 195.5 388.0 Q 194.4 388.0, 193.7 387.3 Q 193.0 386.7, 193.0 385.4 L 193.0 380.8 L 191.6 380.8 " fill="#000000"/>
<path class="legend" d="" fill="#000000"/>
<path class="legend" d="M 202.9 380.9 L 210.2 380.9 L 210.2 382.1 L 202.9 382.1 L 202.9 380.9 M 202.9 384.4 L 210.2 384.4 L 210.2 385.5 L 202.9 385.5 L 202.9 384.4 " fill="#000000"/>
<path class="legend" d="" fill="#000000"/>
<path class="legend" d="M 221.2 388.0 Q 219.1 388.0, 218.1 386.5 Q 217.0 384.9, 217.0 382.2 Q 217.0 379.5, 218.1 378.0 Q 219.1 376.4, 221.2 376.4 Q 223.3 376.4, 224.3 378.0 Q 225.3 379.5, 225.3 382.2 Q 225.3 384.9, 224.3 386.5 Q 223.3 388.0, 221.2 388.0 M 221.2 386.7 Q 222.4 386.7, 223.1 385.6 Q 223.7 384.4, 223.7 382.2 Q 223.7 380.0, 223.1 378.8 Q 222.4 377.7, 221.2 377.7 Q 220.0 377.7, 219.3 378.8 Q 218.6 380.0, 218.6 382.2 Q 218.6 384.4, 219.3 385.6 Q 220.0 386.7, 221.2 386.7 " fill="#000000"/>
<path class="legend" d="M 226.4 386.3 L 228.0 386.3 L 228.0 387.9 L 226.4 387.9 L 226.4 386.3 " fill="#000000"/>
<path class="legend" d="M 236.4 384.0 L 237.7 384.0 L 237.7 385.3 L 236.4 385.3 L 236.4 387.9 L 234.9 387.9 L 234.9 385.3 L 229.0 385.3 L 229.0 384.3 L 234.0 376.6 L 236.4 376.6 L 236.4 384.0 M 230.9 384.0 L 234.9 384.0 L 234.9 377.6 L 230.9 384.0 " fill="#000000"/>
<path class="legend" d="M 243.9 381.9 Q 245.1 382.2, 245.6 383.0 Q 246.1 383.7, 246.1 384.8 Q 246.1 385.7, 245.6 386.5 Q 245.2 387.2, 244.3 387.6 Q 243.4 388.0, 242.3 388.0 Q 241.0 388.0, 240.1 387.6 Q 239.2 387.2, 238.5 386.3 L 239.4 385.4 Q 240.1 386.2, 240.7 386.5 Q 241.3 386.8, 242.3 386.8 Q 243.3 386.8, 243.9 386.2 Q 244.5 385.7, 244.5 384.8 Q 244.5 383.6, 243.9 383.1 Q 243.2 382.6, 241.8 382.6 L 241.0 382.6 L 241.0 381.4 L 241.7 381.4 Q 243.0 381.4, 243.6 380.9 Q 244.3 380.3, 244.3 379.3 Q 244.3 378.6, 243.7 378.2 Q 243.2 377.7, 242.3 377.7 Q 241.3 377.7, 240.7 378.0 Q 240.2 378.4, 239.7 379.2 L 238.6 378.6 Q 239.0 377.7, 240.0 377.1 Q 240.9 376.4, 242.3 376.4 Q 243.9 376.4, 244.9 377.2 Q 245.9 378.0, 245.9 379.3 Q 245.9 380.2, 245.4 380.9 Q 244.9 381.6, 243.9 381.9 " fill="#000000"/>
<path class="legend" d="M 254.4 384.0 L 255.8 384.0 L 255.8 385.3 L 254.4 385.3 L 254.4 387.9 L 252.9 387.9 L 252.9 385.3 L 247.1 385.3 L 247.1 384.3 L 252.0 376.6 L 254.4 376.6 L 254.4 384.0 M 248.9 384.0 L 252.9 384.0 L 252.9 377.6 L 248.9 384.0 " fill="#000000"/>
<path class="legend" d="M 262.5 377.8 L 256.6 377.8 L 256.6 376.6 L 264.1 376.6 L 264.1 377.7 L 259.5 387.9 L 258.0 387.9 L 262.5 377.8 " fill="#000000"/>
<path class="bond-0 atom-0 atom-1" d="M 724.6,124.3 L 731.8,198.3" style="fill:none;fill-rule:evenodd;stroke:#000000;stroke-width:2.0px;stroke-linecap:butt;stroke-linejoin:miter;stroke-opacity:1"/>
<path class="bond-1 atom-1 atom-2" d="M 731.8,198.3 L 671.3,241.5" style="fill:none;fill-rule:evenodd;stroke:#000000;stroke-width:2.0px;stroke-linecap:butt;stroke-linejoin:miter;stroke-opacity:1"/>
<path class="bond-1 atom-1 atom-2" d="M 714.1,192.7 L 671.7,222.9" style="fill:none;fill-rule:evenodd;stroke:#000000;stroke-width:2.0px;stroke-linecap:butt;stroke-linejoin:miter;stroke-opacity:1"/>
<path class="bond-2 atom-2 atom-3" d="M 671.3,241.5 L 603.6,210.8" style="fill:none;fill-rule:evenodd;stroke:#000000;stroke-width:2.0px;stroke-linecap:butt;stroke-linejoin:miter;stroke-opacity:1"/>
<path class="bond-3 atom-3 atom-4" d="M 603.6,210.8 L 543.1,254.0" style="fill:none;fill-rule:evenodd;stroke:#000000;stroke-width:2.0px;stroke-linecap:butt;stroke-linejoin:miter;stroke-opacity:1"/>
<path class="bond-3 atom-3 atom-4" d="M 585.9,205.1 L 543.5,235.4" style="fill:none;fill-rule:evenodd;stroke:#000000;stroke-width:2.0px;stroke-linecap:butt;stroke-linejoin:miter;stroke-opacity:1"/>
<path class="bond-4 atom-4 atom-5" d="M 543.1,254.0 L 475.4,223.2" style="fill:none;fill-rule:evenodd;stroke:#000000;stroke-width:2.0px;stroke-linecap:butt;stroke-linejoin:miter;stroke-opacity:1"/>
<path class="bond-5 atom-5 atom-6" d="M 475.4,223.2 L 468.2,149.2" style="fill:none;fill-rule:evenodd;stroke:#000000;stroke-width:2.0px;stroke-linecap:butt;stroke-linejoin:miter;stroke-opacity:1"/>
<path class="bond-5 atom-5 atom-6" d="M 489.1,210.7 L 484.1,158.9" style="fill:none;fill-rule:evenodd;stroke:#000000;stroke-width:2.0px;stroke-linecap:butt;stroke-linejoin:miter;stroke-opacity:1"/>
<path class="bond-6 atom-6 atom-7" d="M 468.2,149.2 L 528.7,106.0" style="fill:none;fill-rule:evenodd;stroke:#000000;stroke-width:2.0px;stroke-linecap:butt;stroke-linejoin:miter;stroke-opacity:1"/>
<path class="bond-7 atom-7 atom-8" d="M 528.7,106.0 L 596.4,136.8" style="fill:none;fill-rule:evenodd;stroke:#000000;stroke-width:2.0px;stroke-linecap:butt;stroke-linejoin:miter;stroke-opacity:1"/>
<path class="bond-7 atom-7 atom-8" d="M 532.7,124.1 L 580.1,145.7" style="fill:none;fill-rule:evenodd;stroke:#000000;stroke-width:2.0px;stroke-linecap:butt;stroke-linejoin:miter;stroke-opacity:1"/>
<path class="bond-8 atom-8 atom-3" d="M 596.4,136.8 L 603.6,210.8" style="fill:none;fill-rule:evenodd;stroke:#000000;stroke-width:2.0px;stroke-linecap:butt;stroke-linejoin:miter;stroke-opacity:1"/>
<path class="legend" d="M 571.8 365.4 L 571.9 366.5 Q 572.8 365.3, 574.2 365.3 Q 574.7 365.3, 575.3 365.4 L 575.0 366.8 Q 574.3 366.6, 574.0 366.6 Q 573.3 366.6, 572.8 366.9 Q 572.4 367.1, 572.1 367.8 L 572.1 373.6 L 570.6 373.6 L 570.6 365.4 L 571.8 365.4 " fill="#000000"/>
<path class="legend" d="M 575.5 369.5 Q 575.5 367.5, 576.5 366.4 Q 577.5 365.3, 579.4 365.3 Q 581.2 365.3, 582.0 366.4 Q 582.8 367.4, 582.8 369.5 L 582.8 369.7 L 577.0 369.7 Q 577.1 371.1, 577.7 371.8 Q 578.3 372.6, 579.5 372.6 Q 580.1 372.6, 580.7 372.4 Q 581.3 372.3, 582.0 372.0 L 582.5 373.0 Q 581.7 373.4, 580.9 373.6 Q 580.2 373.8, 579.4 373.8 Q 577.6 373.8, 576.5 372.6 Q 575.5 371.5, 575.5 369.5 M 579.4 366.4 Q 578.4 366.4, 577.8 367.0 Q 577.3 367.5, 577.1 368.6 L 581.2 368.6 Q 581.1 367.5, 580.6 367.0 Q 580.2 366.4, 579.4 366.4 " fill="#000000"/>
<path class="legend" d="M 583.4 371.4 Q 583.4 370.1, 584.5 369.4 Q 585.5 368.7, 587.4 368.7 L 588.7 368.7 L 588.7 368.3 Q 588.7 367.3, 588.2 366.9 Q 587.8 366.4, 586.8 366.4 Q 586.1 366.4, 585.6 366.6 Q 585.1 366.7, 584.3 367.0 L 583.9 366.0 Q 585.4 365.3, 586.8 365.3 Q 588.6 365.3, 589.4 366.0 Q 590.2 366.8, 590.2 368.4 L 590.2 373.6 L 589.0 373.6 Q 589.0 373.6, 588.9 373.3 Q 588.9 373.1, 588.8 372.7 Q 587.6 373.8, 586.1 373.8 Q 584.9 373.8, 584.1 373.2 Q 583.4 372.5, 583.4 371.4 M 584.9 371.4 Q 584.9 372.0, 585.3 372.3 Q 585.7 372.6, 586.4 372.6 Q 587.0 372.6, 587.6 372.4 Q 588.2 372.0, 588.7 371.5 L 588.7 369.8 L 587.5 369.8 Q 586.2 369.8, 585.6 370.2 Q 584.9 370.6, 584.9 371.4 " fill="#000000"/>
<path class="legend" d="M 591.4 369.5 Q 591.4 367.5, 592.4 366.4 Q 593.4 365.3, 595.3 365.3 Q 597.2 365.3, 598.2 366.6 L 597.2 367.4 Q 596.8 366.9, 596.3 366.7 Q 595.9 366.4, 595.3 366.4 Q 594.2 366.4, 593.6 367.2 Q 592.9 368.0, 592.9 369.5 Q 592.9 371.0, 593.6 371.8 Q 594.2 372.6, 595.4 372.6 Q 596.1 372.6, 596.6 372.4 Q 597.0 372.3, 597.6 372.0 L 598.0 373.0 Q 596.8 373.7, 595.3 373.7 Q 593.4 373.7, 592.4 372.6 Q 591.4 371.5, 591.4 369.5 " fill="#000000"/>
<path class="legend" d="M 598.6 366.6 L 598.6 365.4 L 600.1 365.4 L 600.4 363.0 L 601.5 363.0 L 601.5 365.4 L 604.0 365.4 L 604.0 366.6 L 601.5 366.6 L 601.5 371.1 Q 601.5 372.5, 602.7 372.5 Q 603.2 372.5, 603.9 372.3 L 604.2 373.4 Q 603.3 373.7, 602.4 373.7 Q 601.4 373.7, 600.7 373.1 Q 600.0 372.4, 600.0 371.2 L 600.0 366.6 L 598.6 366.6 " fill="#000000"/>
<path class="legend" d="M 612.7 374.4 L 612.7 375.7 L 604.6 375.7 L 604.6 374.4 L 612.7 374.4 " fill="#000000"/>
<path class="legend" d="M 617.1 366.6 Q 618.1 366.6, 618.9 367.0 Q 619.7 367.4, 620.1 368.2 Q 620.6 369.0, 620.6 370.0 Q 620.6 371.1, 620.1 372.0 Q 619.6 372.8, 618.7 373.3 Q 617.9 373.8, 616.8 373.8 Q 614.7 373.8, 613.7 372.4 Q 612.7 371.0, 612.7 368.3 Q 612.7 365.3, 614.0 363.7 Q 615.2 362.2, 617.6 362.2 Q 618.3 362.2, 618.9 362.3 Q 619.5 362.5, 620.1 362.8 L 619.5 363.9 Q 618.7 363.5, 617.7 363.5 Q 616.1 363.5, 615.2 364.5 Q 614.4 365.5, 614.3 367.6 Q 614.9 367.1, 615.6 366.8 Q 616.4 366.6, 617.1 366.6 M 616.8 372.4 Q 617.4 372.4, 617.9 372.1 Q 618.4 371.8, 618.7 371.2 Q 619.0 370.7, 619.0 370.0 Q 619.0 369.0, 618.4 368.4 Q 617.8 367.8, 616.9 367.8 Q 616.2 367.8, 615.5 368.1 Q 614.8 368.4, 614.3 368.9 Q 614.4 370.8, 615.0 371.6 Q 615.6 372.4, 616.8 372.4 " fill="#000000"/>
<path class="legend" d="M 627.2 367.6 Q 628.3 368.1, 628.9 368.8 Q 629.4 369.4, 629.4 370.5 Q 629.4 371.5, 629.0 372.2 Q 628.5 373.0, 627.6 373.4 Q 626.7 373.8, 625.5 373.8 Q 623.6 373.8, 622.5 372.9 Q 621.4 372.0, 621.4 370.5 Q 621.4 369.6, 621.9 368.9 Q 622.4 368.2, 623.4 367.7 Q 622.7 367.3, 622.3 366.7 Q 621.9 366.0, 621.9 365.1 Q 621.9 363.7, 622.8 363.0 Q 623.8 362.2, 625.4 362.2 Q 627.1 362.2, 628.1 363.0 Q 629.0 363.7, 629.0 365.1 Q 629.0 365.9, 628.6 366.5 Q 628.1 367.1, 627.2 367.6 M 625.4 363.4 Q 624.5 363.4, 624.0 363.8 Q 623.5 364.3, 623.5 365.1 Q 623.5 365.7, 623.8 366.1 Q 624.2 366.4, 624.7 366.7 Q 625.2 366.9, 626.2 367.2 Q 626.8 366.8, 627.1 366.2 Q 627.4 365.7, 627.4 365.1 Q 627.4 364.3, 626.9 363.8 Q 626.4 363.4, 625.4 363.4 M 625.5 372.6 Q 626.6 372.6, 627.2 372.0 Q 627.8 371.5, 627.8 370.5 Q 627.8 369.9, 627.5 369.5 Q 627.2 369.1, 626.7 368.9 Q 626.2 368.7, 625.3 368.4 L 624.6 368.2 Q 623.8 368.6, 623.4 369.2 Q 623.0 369.8, 623.0 370.5 Q 623.0 371.5, 623.7 372.0 Q 624.4 372.6, 625.5 372.6 " fill="#000000"/>
<path class="legend" d="M 536.4 383.8 Q 536.4 381.8, 537.4 380.7 Q 538.4 379.5, 540.4 379.5 Q 542.3 379.5, 543.2 380.9 L 542.2 381.6 Q 541.8 381.2, 541.4 380.9 Q 541.0 380.7, 540.4 380.7 Q 539.2 380.7, 538.6 381.5 Q 538.0 382.3, 538.0 383.8 Q 538.0 385.3, 538.6 386.1 Q 539.3 386.8, 540.5 386.8 Q 541.1 386.8, 541.6 386.7 Q 542.1 386.5, 542.7 386.3 L 543.1 387.3 Q 541.9 388.0, 540.4 388.0 Q 538.4 388.0, 537.4 386.9 Q 536.4 385.7, 536.4 383.8 " fill="#000000"/>
<path class="legend" d="M 543.6 383.8 Q 543.6 381.7, 544.6 380.6 Q 545.6 379.5, 547.5 379.5 Q 549.3 379.5, 550.1 380.6 Q 550.9 381.7, 550.9 383.7 L 550.9 384.0 L 545.1 384.0 Q 545.2 385.4, 545.8 386.1 Q 546.4 386.8, 547.6 386.8 Q 548.2 386.8, 548.8 386.7 Q 549.4 386.5, 550.1 386.2 L 550.6 387.2 Q 549.8 387.6, 549.0 387.8 Q 548.3 388.0, 547.5 388.0 Q 545.7 388.0, 544.6 386.9 Q 543.6 385.8, 543.6 383.8 M 547.5 380.7 Q 546.5 380.7, 545.9 381.2 Q 545.4 381.8, 545.2 382.8 L 549.3 382.8 Q 549.2 381.7, 548.7 381.2 Q 548.3 380.7, 547.5 380.7 " fill="#000000"/>
<path class="legend" d="M 555.8 379.5 Q 557.1 379.5, 557.8 380.3 Q 558.5 381.0, 558.5 382.4 L 558.5 387.9 L 557.0 387.9 L 557.0 382.6 Q 557.0 381.6, 556.6 381.2 Q 556.2 380.7, 555.4 380.7 Q 554.7 380.7, 554.0 381.1 Q 553.4 381.4, 553.0 382.0 L 553.0 387.9 L 551.5 387.9 L 551.5 379.7 L 552.7 379.7 L 552.9 380.8 Q 554.0 379.5, 555.8 379.5 " fill="#000000"/>
<path class="legend" d="M 559.7 380.8 L 559.7 379.7 L 561.3 379.7 L 561.5 377.3 L 562.7 377.3 L 562.7 379.7 L 565.2 379.7 L 565.2 380.8 L 562.7 380.8 L 562.7 385.4 Q 562.7 386.8, 563.9 386.8 Q 564.3 386.8, 565.1 386.6 L 565.3 387.6 Q 564.4 388.0, 563.6 388.0 Q 562.5 388.0, 561.8 387.3 Q 561.2 386.7, 561.2 385.4 L 561.2 380.8 L 559.7 380.8 " fill="#000000"/>
<path class="legend" d="M 573.9 388.7 L 573.9 390.0 L 565.7 390.0 L 565.7 388.7 L 573.9 388.7 " fill="#000000"/>
<path class="legend" d="M 581.3 375.7 L 581.3 387.9 L 580.1 387.9 L 579.9 386.9 Q 579.0 388.0, 577.5 388.0 Q 575.8 388.0, 574.8 387.0 Q 573.9 385.9, 573.9 383.9 Q 573.9 381.8, 575.0 380.7 Q 576.1 379.5, 578.1 379.5 Q 578.9 379.5, 579.8 379.7 L 579.8 375.7 L 581.3 375.7 M 577.6 386.8 Q 578.4 386.8, 579.0 386.4 Q 579.6 385.9, 579.8 385.1 L 579.8 380.9 Q 579.0 380.7, 578.1 380.7 Q 576.8 380.7, 576.1 381.6 Q 575.4 382.4, 575.4 383.9 Q 575.4 385.3, 576.0 386.1 Q 576.5 386.8, 577.6 386.8 " fill="#000000"/>
<path class="legend" d="M 582.6 376.6 L 584.1 376.6 L 584.1 378.0 L 582.6 378.0 L 582.6 376.6 M 582.6 379.7 L 584.1 379.7 L 584.1 387.9 L 582.6 387.9 L 582.6 379.7 " fill="#000000"/>
<path class="legend" d="M 585.9 386.2 Q 586.7 386.5, 587.2 386.6 Q 587.7 386.8, 588.3 386.8 Q 589.0 386.8, 589.4 386.5 Q 589.8 386.2, 589.8 385.6 Q 589.8 385.2, 589.6 385.0 Q 589.4 384.8, 589.1 384.6 Q 588.8 384.5, 588.1 384.3 Q 588.0 384.3, 587.3 384.0 Q 586.5 383.7, 586.1 383.2 Q 585.7 382.7, 585.7 381.9 Q 585.7 380.9, 586.5 380.2 Q 587.3 379.5, 588.8 379.5 Q 589.4 379.5, 589.9 379.7 Q 590.5 379.8, 591.1 380.0 L 590.7 381.2 Q 590.2 381.0, 589.7 380.9 Q 589.3 380.8, 588.8 380.8 Q 588.0 380.8, 587.6 381.1 Q 587.2 381.4, 587.2 381.8 Q 587.2 382.3, 587.5 382.5 Q 587.9 382.7, 588.5 383.0 Q 588.7 383.0, 588.8 383.1 L 589.2 383.2 Q 589.9 383.4, 590.3 383.7 Q 590.7 383.9, 591.0 384.4 Q 591.3 384.8, 591.3 385.6 Q 591.3 386.7, 590.4 387.4 Q 589.6 388.0, 588.3 388.0 Q 587.5 388.0, 586.8 387.9 Q 586.1 387.7, 585.5 387.4 L 585.9 386.2 " fill="#000000"/>
<path class="legend" d="M 592.1 380.8 L 592.1 379.7 L 593.7 379.7 L 594.0 377.3 L 595.1 377.3 L 595.1 379.7 L 597.6 379.7 L 597.6 380.8 L 595.1 380.8 L 595.1 385.4 Q 595.1 386.8, 596.3 386.8 Q 596.8 386.8, 597.5 386.6 L 597.7 387.6 Q 596.8 388.0, 596.0 388.0 Q 594.9 388.0, 594.3 387.3 Q 593.6 386.7, 593.6 385.4 L 593.6 380.8 L 592.1 380.8 " fill="#000000"/>
<path class="legend" d="" fill="#000000"/>
<path class="legend" d="M 603.5 380.9 L 610.8 380.9 L 610.8 382.1 L 603.5 382.1 L 603.5 380.9 M 603.5 384.4 L 610.8 384.4 L 610.8 385.5 L 603.5 385.5 L 603.5 384.4 " fill="#000000"/>
<path class="legend" d="" fill="#000000"/>
<path class="legend" d="M 621.7 388.0 Q 619.6 388.0, 618.6 386.5 Q 617.6 384.9, 617.6 382.2 Q 617.6 379.5, 618.6 378.0 Q 619.6 376.4, 621.7 376.4 Q 623.8 376.4, 624.8 378.0 Q 625.9 379.5, 625.9 382.2 Q 625.9 384.9, 624.8 386.5 Q 623.8 388.0, 621.7 388.0 M 621.7 386.7 Q 622.9 386.7, 623.6 385.6 Q 624.3 384.4, 624.3 382.2 Q 624.3 380.0, 623.6 378.8 Q 622.9 377.7, 621.7 377.7 Q 620.5 377.7, 619.8 378.8 Q 619.2 380.0, 619.2 382.2 Q 619.2 384.4, 619.8 385.6 Q 620.5 386.7, 621.7 386.7 " fill="#000000"/>
<path class="legend" d="M 626.9 386.3 L 628.5 386.3 L 628.5 387.9 L 626.9 387.9 L 626.9 386.3 " fill="#000000"/>
<path class="legend" d="M 636.9 384.0 L 638.3 384.0 L 638.3 385.3 L 636.9 385.3 L 636.9 387.9 L 635.4 387.9 L 635.4 385.3 L 629.5 385.3 L 629.5 384.3 L 634.5 376.6 L 636.9 376.6 L 636.9 384.0 M 631.4 384.0 L 635.4 384.0 L 635.4 377.6 L 631.4 384.0 " fill="#000000"/>
<path class="legend" d="M 644.8 381.9 Q 645.9 382.3, 646.5 383.0 Q 647.0 383.7, 647.0 384.8 Q 647.0 385.7, 646.5 386.5 Q 646.1 387.2, 645.2 387.6 Q 644.3 388.0, 643.1 388.0 Q 641.2 388.0, 640.1 387.2 Q 639.0 386.3, 639.0 384.8 Q 639.0 383.9, 639.5 383.2 Q 640.0 382.5, 641.0 381.9 Q 640.3 381.5, 639.9 380.9 Q 639.5 380.3, 639.5 379.3 Q 639.5 378.0, 640.4 377.2 Q 641.4 376.4, 643.0 376.4 Q 644.7 376.4, 645.7 377.2 Q 646.6 378.0, 646.6 379.3 Q 646.6 380.2, 646.2 380.8 Q 645.7 381.4, 644.8 381.9 M 643.0 377.6 Q 642.1 377.6, 641.6 378.1 Q 641.1 378.5, 641.1 379.3 Q 641.1 379.9, 641.4 380.3 Q 641.8 380.7, 642.3 380.9 Q 642.8 381.2, 643.7 381.5 Q 644.4 381.0, 644.7 380.5 Q 645.0 380.0, 645.0 379.3 Q 645.0 378.5, 644.5 378.1 Q 644.0 377.6, 643.0 377.6 M 643.1 386.8 Q 644.2 386.8, 644.8 386.3 Q 645.4 385.7, 645.4 384.8 Q 645.4 384.2, 645.1 383.8 Q 644.8 383.4, 644.3 383.2 Q 643.8 382.9, 642.9 382.7 L 642.1 382.4 Q 641.3 382.9, 641.0 383.5 Q 640.6 384.0, 640.6 384.8 Q 640.6 385.7, 641.3 386.3 Q 642.0 386.8, 643.1 386.8 " fill="#000000"/>
<path class="legend" d="M 648.7 386.6 L 651.2 386.6 L 651.2 378.1 L 648.4 379.0 L 648.1 378.0 L 651.5 376.5 L 652.7 376.7 L 652.7 386.6 L 654.9 386.6 L 654.9 387.9 L 648.7 387.9 L 648.7 386.6 " fill="#000000"/>
<path class="legend" d="M 661.3 381.9 Q 662.4 382.3, 663.0 383.0 Q 663.6 383.7, 663.6 384.8 Q 663.6 385.7, 663.1 386.5 Q 662.6 387.2, 661.7 387.6 Q 660.8 388.0, 659.6 388.0 Q 657.7 388.0, 656.6 387.2 Q 655.6 386.3, 655.6 384.8 Q 655.6 383.9, 656.0 383.2 Q 656.5 382.5, 657.5 381.9 Q 656.8 381.5, 656.4 380.9 Q 656.0 380.3, 656.0 379.3 Q 656.0 378.0, 656.9 377.2 Q 657.9 376.4, 659.6 376.4 Q 661.2 376.4, 662.2 377.2 Q 663.1 378.0, 663.1 379.3 Q 663.1 380.2, 662.7 380.8 Q 662.2 381.4, 661.3 381.9 M 659.6 377.6 Q 658.6 377.6, 658.1 378.1 Q 657.6 378.5, 657.6 379.3 Q 657.6 379.9, 657.9 380.3 Q 658.3 380.7, 658.8 380.9 Q 659.3 381.2, 660.3 381.5 Q 660.9 381.0, 661.2 380.5 Q 661.5 380.0, 661.5 379.3 Q 661.5 378.5, 661.0 378.1 Q 660.5 377.6, 659.6 377.6 M 659.6 386.8 Q 660.7 386.8, 661.3 386.3 Q 662.0 385.7, 662.0 384.8 Q 662.0 384.2, 661.6 383.8 Q 661.3 383.4, 660.8 383.2 Q 660.3 382.9, 659.4 382.7 L 658.7 382.4 Q 657.9 382.9, 657.5 383.5 Q 657.2 384.0, 657.2 384.8 Q 657.2 385.7, 657.8 386.3 Q 658.5 386.8, 659.6 386.8 " fill="#000000"/>
<path class="bond-0 atom-0 atom-1" d="M 1181.8,98.3 L 1172.5,127.1" style="fill:none;fill-rule:evenodd;stroke:#000000;stroke-width:2.0px;stroke-linecap:butt;stroke-linejoin:miter;stroke-opacity:1"/>
<path class="bond-0 atom-0 atom-1" d="M 1172.5,127.1 L 1163.1,155.9" style="fill:none;fill-rule:evenodd;stroke:#FF0000;stroke-width:2.0px;stroke-linecap:butt;stroke-linejoin:miter;stroke-opacity:1"/>
<path class="bond-1 atom-1 atom-2" d="M 1146.7,171.5 L 1116.4,178.0" style="fill:none;fill-rule:evenodd;stroke:#FF0000;stroke-width:2.0px;stroke-linecap:butt;stroke-linejoin:miter;stroke-opacity:1"/>
<path class="bond-1 atom-1 atom-2" d="M 1116.4,178.0 L 1086.1,184.4" style="fill:none;fill-rule:evenodd;stroke:#000000;stroke-width:2.0px;stroke-linecap:butt;stroke-linejoin:miter;stroke-opacity:1"/>
<path class="bond-2 atom-2 atom-3" d="M 1086.1,184.4 L 1063.1,255.1" style="fill:none;fill-rule:evenodd;stroke:#000000;stroke-width:2.0px;stroke-linecap:butt;stroke-linejoin:miter;stroke-opacity:1"/>
<path class="bond-3 atom-3 atom-4" d="M 1063.1,255.1 L 990.4,270.6" style="fill:none;fill-rule:evenodd;stroke:#000000;stroke-width:2.0px;stroke-linecap:butt;stroke-linejoin:miter;stroke-opacity:1"/>
<path class="bond-3 atom-3 atom-4" d="M 1049.1,242.9 L 998.2,253.7" style="fill:none;fill-rule:evenodd;stroke:#000000;stroke-width:2.0px;stroke-linecap:butt;stroke-linejoin:miter;stroke-opacity:1"/>
<path class="bond-4 atom-4 atom-5" d="M 990.4,270.6 L 940.7,215.4" style="fill:none;fill-rule:evenodd;stroke:#000000;stroke-width:2.0px;stroke-linecap:butt;stroke-linejoin:miter;stroke-opacity:1"/>
<path class="bond-5 atom-5 atom-6" d="M 940.7,215.4 L 867.9,230.8" style="fill:none;fill-rule:evenodd;stroke:#000000;stroke-width:2.0px;stroke-linecap:butt;stroke-linejoin:miter;stroke-opacity:1"/>
<path class="bond-5 atom-5 atom-6" d="M 926.7,203.1 L 875.8,214.0" style="fill:none;fill-rule:evenodd;stroke:#000000;stroke-width:2.0px;stroke-linecap:butt;stroke-linejoin:miter;stroke-opacity:1"/>
<path class="bond-6 atom-6 atom-7" d="M 867.9,230.8 L 818.2,175.6" style="fill:none;fill-rule:evenodd;stroke:#000000;stroke-width:2.0px;stroke-linecap:butt;stroke-linejoin:miter;stroke-opacity:1"/>
<path class="bond-7 atom-7 atom-8" d="M 818.2,175.6 L 841.2,104.9" style="fill:none;fill-rule:evenodd;stroke:#000000;stroke-width:2.0px;stroke-linecap:butt;stroke-linejoin:miter;stroke-opacity:1"/>
<path class="bond-7 atom-7 atom-8" d="M 835.8,169.6 L 851.9,120.1" style="fill:none;fill-rule:evenodd;stroke:#000000;stroke-width:2.0px;stroke-linecap:butt;stroke-linejoin:miter;stroke-opacity:1"/>
<path class="bond-8 atom-8 atom-9" d="M 841.2,104.9 L 913.9,89.4" style="fill:none;fill-rule:evenodd;stroke:#000000;stroke-width:2.0px;stroke-linecap:butt;stroke-linejoin:miter;stroke-opacity:1"/>
<path class="bond-9 atom-9 atom-10" d="M 913.9,89.4 L 963.6,144.6" style="fill:none;fill-rule:evenodd;stroke:#000000;stroke-width:2.0px;stroke-linecap:butt;stroke-linejoin:miter;stroke-opacity:1"/>
<path class="bond-9 atom-9 atom-10" d="M 910.3,107.6 L 945.1,146.3" style="fill:none;fill-rule:evenodd;stroke:#000000;stroke-width:2.0px;stroke-linecap:butt;stroke-linejoin:miter;stroke-opacity:1"/>
<path class="bond-10 atom-10 atom-5" d="M 963.6,144.6 L 940.7,215.4" style="fill:none;fill-rule:evenodd;stroke:#000000;stroke-width:2.0px;stroke-linecap:butt;stroke-linejoin:miter;stroke-opacity:1"/>
<path class="atom-1" d="M 1149.2 169.0 Q 1149.2 164.0, 1151.7 161.1 Q 1154.2 158.3, 1158.8 158.3 Q 1163.5 158.3, 1166.0 161.1 Q 1168.5 164.0, 1168.5 169.0 Q 1168.5 174.1, 1166.0 177.1 Q 1163.5 179.9, 1158.8 179.9 Q 1154.2 179.9, 1151.7 177.1 Q 1149.2 174.2, 1149.2 169.0 M 1158.8 177.6 Q 1162.1 177.6, 1163.8 175.4 Q 1165.5 173.2, 1165.5 169.0 Q 1165.5 164.9, 1163.8 162.8 Q 1162.1 160.7, 1158.8 160.7 Q 1155.6 160.7, 1153.9 162.8 Q 1152.2 164.9, 1152.2 169.0 Q 1152.2 173.3, 1153.9 175.4 Q 1155.6 177.6, 1158.8 177.6 " fill="#FF0000"/>
<path class="legend" d="M 971.4 365.4 L 971.6 366.5 Q 972.4 365.3, 973.9 365.3 Q 974.3 365.3, 974.9 365.4 L 974.7 366.8 Q 974.0 366.6, 973.6 366.6 Q 972.9 366.6, 972.5 366.9 Q 972.0 367.1, 971.7 367.8 L 971.7 373.6 L 970.2 373.6 L 970.2 365.4 L 971.4 365.4 " fill="#000000"/>
<path class="legend" d="M 975.2 369.5 Q 975.2 367.5, 976.2 366.4 Q 977.2 365.3, 979.0 365.3 Q 980.8 365.3, 981.6 366.4 Q 982.4 367.4, 982.4 369.5 L 982.4 369.7 L 976.7 369.7 Q 976.7 371.1, 977.3 371.8 Q 978.0 372.6, 979.1 372.6 Q 979.8 372.6, 980.4 372.4 Q 981.0 372.3, 981.7 372.0 L 982.1 373.0 Q 981.3 373.4, 980.6 373.6 Q 979.8 373.8, 979.1 373.8 Q 977.2 373.8, 976.2 372.6 Q 975.2 371.5, 975.2 369.5 M 979.0 366.4 Q 978.1 366.4, 977.5 367.0 Q 976.9 367.5, 976.8 368.6 L 980.8 368.6 Q 980.7 367.5, 980.3 367.0 Q 979.8 366.4, 979.0 366.4 " fill="#000000"/>
<path class="legend" d="M 983.0 371.4 Q 983.0 370.1, 984.1 369.4 Q 985.2 368.7, 987.1 368.7 L 988.3 368.7 L 988.3 368.3 Q 988.3 367.3, 987.9 366.9 Q 987.5 366.4, 986.4 366.4 Q 985.8 366.4, 985.3 366.6 Q 984.8 366.7, 984.0 367.0 L 983.5 366.0 Q 985.0 365.3, 986.5 365.3 Q 988.2 365.3, 989.0 366.0 Q 989.8 366.8, 989.8 368.4 L 989.8 373.6 L 988.6 373.6 Q 988.6 373.6, 988.6 373.3 Q 988.5 373.1, 988.4 372.7 Q 987.3 373.8, 985.7 373.8 Q 984.5 373.8, 983.8 373.2 Q 983.0 372.5, 983.0 371.4 M 984.5 371.4 Q 984.5 372.0, 984.9 372.3 Q 985.3 372.6, 986.0 372.6 Q 986.7 372.6, 987.3 372.4 Q 987.9 372.0, 988.3 371.5 L 988.3 369.8 L 987.2 369.8 Q 985.9 369.8, 985.2 370.2 Q 984.5 370.6, 984.5 371.4 " fill="#000000"/>
<path class="legend" d="M 991.0 369.5 Q 991.0 367.5, 992.0 366.4 Q 993.0 365.3, 995.0 365.3 Q 996.8 365.3, 997.8 366.6 L 996.8 367.4 Q 996.4 366.9, 996.0 366.7 Q 995.6 366.4, 995.0 366.4 Q 993.8 366.4, 993.2 367.2 Q 992.6 368.0, 992.6 369.5 Q 992.6 371.0, 993.2 371.8 Q 993.9 372.6, 995.1 372.6 Q 995.7 372.6, 996.2 372.4 Q 996.7 372.3, 997.2 372.0 L 997.7 373.0 Q 996.5 373.7, 995.0 373.7 Q 993.0 373.7, 992.0 372.6 Q 991.0 371.5, 991.0 369.5 " fill="#000000"/>
<path class="legend" d="M 998.2 366.6 L 998.2 365.4 L 999.8 365.4 L 1000.0 363.0 L 1001.2 363.0 L 1001.2 365.4 L 1003.7 365.4 L 1003.7 366.6 L 1001.2 366.6 L 1001.2 371.1 Q 1001.2 372.5, 1002.4 372.5 Q 1002.8 372.5, 1003.5 372.3 L 1003.8 373.4 Q 1002.9 373.7, 1002.1 373.7 Q 1001.0 373.7, 1000.3 373.1 Q 999.6 372.4, 999.6 371.2 L 999.6 366.6 L 998.2 366.6 " fill="#000000"/>
<path class="legend" d="M 1012.4 374.4 L 1012.4 375.7 L 1004.2 375.7 L 1004.2 374.4 L 1012.4 374.4 " fill="#000000"/>
<path class="legend" d="M 1016.8 366.6 Q 1017.8 366.6, 1018.6 367.0 Q 1019.3 367.4, 1019.8 368.2 Q 1020.2 369.0, 1020.2 370.0 Q 1020.2 371.1, 1019.7 372.0 Q 1019.2 372.8, 1018.4 373.3 Q 1017.5 373.8, 1016.4 373.8 Q 1014.4 373.8, 1013.4 372.4 Q 1012.4 371.0, 1012.4 368.3 Q 1012.4 365.3, 1013.6 363.7 Q 1014.9 362.2, 1017.3 362.2 Q 1018.0 362.2, 1018.6 362.3 Q 1019.2 362.5, 1019.8 362.8 L 1019.1 363.9 Q 1018.3 363.5, 1017.3 363.5 Q 1015.7 363.5, 1014.9 364.5 Q 1014.1 365.5, 1014.0 367.6 Q 1014.5 367.1, 1015.3 366.8 Q 1016.0 366.6, 1016.8 366.6 M 1016.4 372.4 Q 1017.0 372.4, 1017.5 372.1 Q 1018.0 371.8, 1018.3 371.2 Q 1018.6 370.7, 1018.6 370.0 Q 1018.6 369.0, 1018.0 368.4 Q 1017.5 367.8, 1016.5 367.8 Q 1015.8 367.8, 1015.1 368.1 Q 1014.4 368.4, 1014.0 368.9 Q 1014.0 370.8, 1014.6 371.6 Q 1015.2 372.4, 1016.4 372.4 " fill="#000000"/>
<path class="legend" d="M 1028.4 369.7 L 1029.8 369.7 L 1029.8 371.0 L 1028.4 371.0 L 1028.4 373.6 L 1026.9 373.6 L 1026.9 371.0 L 1021.1 371.0 L 1021.1 370.0 L 1026.0 362.3 L 1028.4 362.3 L 1028.4 369.7 M 1022.9 369.7 L 1026.9 369.7 L 1026.9 363.3 L 1022.9 369.7 " fill="#000000"/>
<path class="legend" d="M 935.9 383.8 Q 935.9 381.8, 936.9 380.7 Q 937.9 379.5, 939.9 379.5 Q 941.7 379.5, 942.7 380.9 L 941.7 381.6 Q 941.3 381.2, 940.9 380.9 Q 940.4 380.7, 939.9 380.7 Q 938.7 380.7, 938.1 381.5 Q 937.5 382.3, 937.5 383.8 Q 937.5 385.3, 938.1 386.1 Q 938.8 386.8, 940.0 386.8 Q 940.6 386.8, 941.1 386.7 Q 941.6 386.5, 942.1 386.3 L 942.6 387.3 Q 941.4 388.0, 939.9 388.0 Q 937.9 388.0, 936.9 386.9 Q 935.9 385.7, 935.9 383.8 " fill="#000000"/>
<path class="legend" d="M 943.1 383.8 Q 943.1 381.7, 944.1 380.6 Q 945.1 379.5, 947.0 379.5 Q 948.8 379.5, 949.6 380.6 Q 950.4 381.7, 950.4 383.7 L 950.4 384.0 L 944.6 384.0 Q 944.7 385.4, 945.3 386.1 Q 945.9 386.8, 947.1 386.8 Q 947.7 386.8, 948.3 386.7 Q 948.9 386.5, 949.6 386.2 L 950.1 387.2 Q 949.2 387.6, 948.5 387.8 Q 947.8 388.0, 947.0 388.0 Q 945.1 388.0, 944.1 386.9 Q 943.1 385.8, 943.1 383.8 M 947.0 380.7 Q 946.0 380.7, 945.4 381.2 Q 944.9 381.8, 944.7 382.8 L 948.8 382.8 Q 948.7 381.7, 948.2 381.2 Q 947.8 380.7, 947.0 380.7 " fill="#000000"/>
<path class="legend" d="M 955.3 379.5 Q 956.6 379.5, 957.3 380.3 Q 958.0 381.0, 958.0 382.4 L 958.0 387.9 L 956.5 387.9 L 956.5 382.6 Q 956.5 381.6, 956.1 381.2 Q 955.7 380.7, 954.9 380.7 Q 954.1 380.7, 953.5 381.1 Q 952.9 381.4, 952.5 382.0 L 952.5 387.9 L 951.0 387.9 L 951.0 379.7 L 952.2 379.7 L 952.4 380.8 Q 953.5 379.5, 955.3 379.5 " fill="#000000"/>
<path class="legend" d="M 959.2 380.8 L 959.2 379.7 L 960.8 379.7 L 961.0 377.3 L 962.2 377.3 L 962.2 379.7 L 964.7 379.7 L 964.7 380.8 L 962.2 380.8 L 962.2 385.4 Q 962.2 386.8, 963.4 386.8 Q 963.8 386.8, 964.5 386.6 L 964.8 387.6 Q 963.9 388.0, 963.1 388.0 Q 962.0 388.0, 961.3 387.3 Q 960.7 386.7, 960.7 385.4 L 960.7 380.8 L 959.2 380.8 " fill="#000000"/>
<path class="legend" d="M 973.4 388.7 L 973.4 390.0 L 965.2 390.0 L 965.2 388.7 L 973.4 388.7 " fill="#000000"/>
<path class="legend" d="M 980.8 375.7 L 980.8 387.9 L 979.6 387.9 L 979.4 386.9 Q 978.5 388.0, 977.0 388.0 Q 975.3 388.0, 974.3 387.0 Q 973.4 385.9, 973.4 383.9 Q 973.4 381.8, 974.5 380.7 Q 975.6 379.5, 977.6 379.5 Q 978.4 379.5, 979.3 379.7 L 979.3 375.7 L 980.8 375.7 M 977.1 386.8 Q 977.9 386.8, 978.5 386.4 Q 979.1 385.9, 979.3 385.1 L 979.3 380.9 Q 978.5 380.7, 977.6 380.7 Q 976.3 380.7, 975.6 381.6 Q 974.9 382.4, 974.9 383.9 Q 974.9 385.3, 975.5 386.1 Q 976.0 386.8, 977.1 386.8 " fill="#000000"/>
<path class="legend" d="M 982.1 376.6 L 983.6 376.6 L 983.6 378.0 L 982.1 378.0 L 982.1 376.6 M 982.1 379.7 L 983.6 379.7 L 983.6 387.9 L 982.1 387.9 L 982.1 379.7 " fill="#000000"/>
<path class="legend" d="M 985.4 386.2 Q 986.1 386.5, 986.7 386.6 Q 987.2 386.8, 987.7 386.8 Q 988.5 386.8, 988.9 386.5 Q 989.3 386.2, 989.3 385.6 Q 989.3 385.2, 989.1 385.0 Q 988.8 384.8, 988.6 384.6 Q 988.3 384.5, 987.6 384.3 Q 987.5 384.3, 986.7 384.0 Q 986.0 383.7, 985.6 383.2 Q 985.2 382.7, 985.2 381.9 Q 985.2 380.9, 986.0 380.2 Q 986.8 379.5, 988.3 379.5 Q 988.9 379.5, 989.4 379.7 Q 990.0 379.8, 990.6 380.0 L 990.2 381.2 Q 989.7 381.0, 989.2 380.9 Q 988.7 380.8, 988.3 380.8 Q 987.5 380.8, 987.1 381.1 Q 986.7 381.4, 986.7 381.8 Q 986.7 382.3, 987.0 382.5 Q 987.3 382.7, 988.0 383.0 Q 988.2 383.0, 988.3 383.1 L 988.7 383.2 Q 989.4 383.4, 989.8 383.7 Q 990.2 383.9, 990.5 384.4 Q 990.8 384.8, 990.8 385.6 Q 990.8 386.7, 989.9 387.4 Q 989.1 388.0, 987.8 388.0 Q 987.0 388.0, 986.3 387.9 Q 985.6 387.7, 985.0 387.4 L 985.4 386.2 " fill="#000000"/>
<path class="legend" d="M 991.6 380.8 L 991.6 379.7 L 993.2 379.7 L 993.5 377.3 L 994.6 377.3 L 994.6 379.7 L 997.1 379.7 L 997.1 380.8 L 994.6 380.8 L 994.6 385.4 Q 994.6 386.8, 995.8 386.8 Q 996.3 386.8, 997.0 386.6 L 997.2 387.6 Q 996.3 388.0, 995.5 388.0 Q 994.4 388.0, 993.7 387.3 Q 993.1 386.7, 993.1 385.4 L 993.1 380.8 L 991.6 380.8 " fill="#000000"/>
<path class="legend" d="" fill="#000000"/>
<path class="legend" d="M 1002.9 380.9 L 1010.3 380.9 L 1010.3 382.1 L 1002.9 382.1 L 1002.9 380.9 M 1002.9 384.4 L 1010.3 384.4 L 1010.3 385.5 L 1002.9 385.5 L 1002.9 384.4 " fill="#000000"/>
<path class="legend" d="" fill="#000000"/>
<path class="legend" d="M 1021.2 388.0 Q 1019.1 388.0, 1018.1 386.5 Q 1017.1 384.9, 1017.1 382.2 Q 1017.1 379.5, 1018.1 378.0 Q 1019.1 376.4, 1021.2 376.4 Q 1023.3 376.4, 1024.3 378.0 Q 1025.3 379.5, 1025.3 382.2 Q 1025.3 384.9, 1024.3 386.5 Q 1023.3 388.0, 1021.2 388.0 M 1021.2 386.7 Q 1022.4 386.7, 1023.1 385.6 Q 1023.7 384.4, 1023.7 382.2 Q 1023.7 380.0, 1023.1 378.8 Q 1022.4 377.7, 1021.2 377.7 Q 1020.0 377.7, 1019.3 378.8 Q 1018.7 380.0, 1018.7 382.2 Q 1018.7 384.4, 1019.3 385.6 Q 1020.0 386.7, 1021.2 386.7 " fill="#000000"/>
<path class="legend" d="M 1026.4 386.3 L 1028.0 386.3 L 1028.0 387.9 L 1026.4 387.9 L 1026.4 386.3 " fill="#000000"/>
<path class="legend" d="M 1033.5 380.8 Q 1034.5 380.8, 1035.2 381.2 Q 1036.0 381.7, 1036.5 382.5 Q 1036.9 383.2, 1036.9 384.2 Q 1036.9 385.3, 1036.4 386.2 Q 1035.9 387.1, 1035.0 387.5 Q 1034.2 388.0, 1033.1 388.0 Q 1031.1 388.0, 1030.0 386.7 Q 1029.0 385.3, 1029.0 382.6 Q 1029.0 379.6, 1030.3 378.0 Q 1031.5 376.4, 1034.0 376.4 Q 1034.7 376.4, 1035.3 376.6 Q 1035.9 376.8, 1036.4 377.1 L 1035.8 378.2 Q 1035.0 377.7, 1034.0 377.7 Q 1032.4 377.7, 1031.6 378.8 Q 1030.7 379.8, 1030.6 381.9 Q 1031.2 381.4, 1031.9 381.1 Q 1032.7 380.8, 1033.5 380.8 M 1033.1 386.7 Q 1033.7 386.7, 1034.2 386.4 Q 1034.7 386.1, 1035.0 385.5 Q 1035.3 384.9, 1035.3 384.3 Q 1035.3 383.2, 1034.7 382.7 Q 1034.2 382.1, 1033.2 382.1 Q 1032.5 382.1, 1031.8 382.4 Q 1031.1 382.7, 1030.6 383.1 Q 1030.7 385.0, 1031.3 385.9 Q 1031.9 386.7, 1033.1 386.7 " fill="#000000"/>
<path class="legend" d="M 1041.6 376.4 Q 1043.6 376.4, 1044.6 377.8 Q 1045.6 379.2, 1045.6 381.9 Q 1045.6 384.9, 1044.4 386.5 Q 1043.1 388.0, 1040.7 388.0 Q 1040.0 388.0, 1039.4 387.9 Q 1038.8 387.7, 1038.2 387.4 L 1038.8 386.3 Q 1039.7 386.7, 1040.7 386.7 Q 1042.3 386.7, 1043.1 385.7 Q 1043.9 384.7, 1044.0 382.5 Q 1043.4 383.1, 1042.7 383.4 Q 1042.0 383.6, 1041.2 383.6 Q 1040.2 383.6, 1039.4 383.2 Q 1038.6 382.8, 1038.2 382.0 Q 1037.8 381.2, 1037.8 380.2 Q 1037.8 379.1, 1038.2 378.3 Q 1038.7 377.4, 1039.6 376.9 Q 1040.5 376.4, 1041.6 376.4 M 1039.4 380.2 Q 1039.4 381.2, 1039.9 381.8 Q 1040.5 382.4, 1041.5 382.4 Q 1042.2 382.4, 1042.8 382.1 Q 1043.5 381.8, 1044.0 381.3 Q 1043.9 379.4, 1043.3 378.6 Q 1042.8 377.7, 1041.6 377.7 Q 1040.9 377.7, 1040.4 378.1 Q 1039.9 378.4, 1039.7 378.9 Q 1039.4 379.5, 1039.4 380.2 " fill="#000000"/>
<path class="legend" d="M 1054.1 384.0 L 1055.4 384.0 L 1055.4 385.3 L 1054.1 385.3 L 1054.1 387.9 L 1052.6 387.9 L 1052.6 385.3 L 1046.7 385.3 L 1046.7 384.3 L 1051.7 376.6 L 1054.1 376.6 L 1054.1 384.0 M 1048.6 384.0 L 1052.6 384.0 L 1052.6 377.6 L 1048.6 384.0 " fill="#000000"/>
<path class="legend" d="M 1060.0 376.4 Q 1062.0 376.4, 1063.0 377.8 Q 1064.1 379.2, 1064.1 381.9 Q 1064.1 384.9, 1062.8 386.5 Q 1061.6 388.0, 1059.1 388.0 Q 1058.4 388.0, 1057.8 387.9 Q 1057.2 387.7, 1056.7 387.4 L 1057.3 386.3 Q 1058.1 386.7, 1059.1 386.7 Q 1060.7 386.7, 1061.5 385.7 Q 1062.4 384.7, 1062.5 382.5 Q 1061.9 383.1, 1061.1 383.4 Q 1060.4 383.6, 1059.6 383.6 Q 1058.6 383.6, 1057.9 383.2 Q 1057.1 382.8, 1056.6 382.0 Q 1056.2 381.2, 1056.2 380.2 Q 1056.2 379.1, 1056.7 378.3 Q 1057.2 377.4, 1058.1 376.9 Q 1058.9 376.4, 1060.0 376.4 M 1057.8 380.2 Q 1057.8 381.2, 1058.4 381.8 Q 1058.9 382.4, 1059.9 382.4 Q 1060.6 382.4, 1061.3 382.1 Q 1062.0 381.8, 1062.5 381.3 Q 1062.4 379.4, 1061.8 378.6 Q 1061.2 377.7, 1060.0 377.7 Q 1059.4 377.7, 1058.9 378.1 Q 1058.4 378.4, 1058.1 378.9 Q 1057.8 379.5, 1057.8 380.2 " fill="#000000"/>
</svg>