<svg xmlns="http://www.w3.org/2000/svg" xmlns:rdkit="http://www.rdkit.org/xml" xmlns:xlink="http://www.w3.org/1999/xlink" version="1.1" baseProfile="full" xml:space="preserve" width="2000px" height="400px" viewBox="0 0 2000 400">
<!-- END OF HEADER -->
<rect style="opacity:1.0;fill:#FFFFFF;stroke:none" width="2000.0" height="400.0" x="0.0" y="0.0"> </rect>
<path class="bond-0 atom-0 atom-1" d="M 58.2,185.1 L 67.8,148.5" style="fill:none;fill-rule:evenodd;stroke:#000000;stroke-width:2.0px;stroke-linecap:butt;stroke-linejoin:miter;stroke-opacity:1"/>
<path class="bond-1 atom-1 atom-2" d="M 67.8,148.5 L 112.2,136.3" style="fill:none;fill-rule:evenodd;stroke:#000000;stroke-width:2.0px;stroke-linecap:butt;stroke-linejoin:miter;stroke-opacity:1"/>
<path class="bond-1 atom-1 atom-2" d="M 76.9,155.6 L 108.0,147.0" style="fill:none;fill-rule:evenodd;stroke:#000000;stroke-width:2.0px;stroke-linecap:butt;stroke-linejoin:miter;stroke-opacity:1"/>
<path class="bond-2 atom-2 atom-3" d="M 112.2,136.3 L 145.0,168.7" style="fill:none;fill-rule:evenodd;stroke:#000000;stroke-width:2.0px;stroke-linecap:butt;stroke-linejoin:miter;stroke-opacity:1"/>
<path class="bond-3 atom-3 atom-4" d="M 145.0,168.7 L 163.4,163.6" style="fill:none;fill-rule:evenodd;stroke:#000000;stroke-width:2.0px;stroke-linecap:butt;stroke-linejoin:miter;stroke-opacity:1"/>
<path class="bond-3 atom-3 atom-4" d="M 163.4,163.6 L 181.9,158.5" style="fill:none;fill-rule:evenodd;stroke:#FF0000;stroke-width:2.0px;stroke-linecap:butt;stroke-linejoin:miter;stroke-opacity:1"/>
<path class="bond-4 atom-4 atom-5" d="M 196.9,163.9 L 209.6,176.3" style="fill:none;fill-rule:evenodd;stroke:#FF0000;stroke-width:2.0px;stroke-linecap:butt;stroke-linejoin:miter;stroke-opacity:1"/>
<path class="bond-4 atom-4 atom-5" d="M 209.6,176.3 L 222.2,188.8" style="fill:none;fill-rule:evenodd;stroke:#000000;stroke-width:2.0px;stroke-linecap:butt;stroke-linejoin:miter;stroke-opacity:1"/>
<path class="bond-5 atom-5 atom-6" d="M 226.7,190.0 L 221.9,208.2" style="fill:none;fill-rule:evenodd;stroke:#000000;stroke-width:2.0px;stroke-linecap:butt;stroke-linejoin:miter;stroke-opacity:1"/>
<path class="bond-5 atom-5 atom-6" d="M 221.9,208.2 L 217.2,226.5" style="fill:none;fill-rule:evenodd;stroke:#FF0000;stroke-width:2.0px;stroke-linecap:butt;stroke-linejoin:miter;stroke-opacity:1"/>
<path class="bond-5 atom-5 atom-6" d="M 217.8,187.7 L 213.0,205.9" style="fill:none;fill-rule:evenodd;stroke:#000000;stroke-width:2.0px;stroke-linecap:butt;stroke-linejoin:miter;stroke-opacity:1"/>
<path class="bond-5 atom-5 atom-6" d="M 213.0,205.9 L 208.2,224.1" style="fill:none;fill-rule:evenodd;stroke:#FF0000;stroke-width:2.0px;stroke-linecap:butt;stroke-linejoin:miter;stroke-opacity:1"/>
<path class="bond-6 atom-5 atom-7" d="M 222.2,188.8 L 266.6,176.6" style="fill:none;fill-rule:evenodd;stroke:#000000;stroke-width:2.0px;stroke-linecap:butt;stroke-linejoin:miter;stroke-opacity:1"/>
<path class="bond-7 atom-7 atom-8" d="M 266.6,176.6 L 278.3,132.0" style="fill:none;fill-rule:evenodd;stroke:#000000;stroke-width:2.0px;stroke-linecap:butt;stroke-linejoin:miter;stroke-opacity:1"/>
<path class="bond-7 atom-7 atom-8" d="M 277.3,172.2 L 285.5,141.0" style="fill:none;fill-rule:evenodd;stroke:#000000;stroke-width:2.0px;stroke-linecap:butt;stroke-linejoin:miter;stroke-opacity:1"/>
<path class="bond-8 atom-8 atom-9" d="M 278.3,132.0 L 322.7,119.8" style="fill:none;fill-rule:evenodd;stroke:#000000;stroke-width:2.0px;stroke-linecap:butt;stroke-linejoin:miter;stroke-opacity:1"/>
<path class="bond-9 atom-9 atom-10" d="M 322.7,119.8 L 355.5,152.2" style="fill:none;fill-rule:evenodd;stroke:#000000;stroke-width:2.0px;stroke-linecap:butt;stroke-linejoin:miter;stroke-opacity:1"/>
<path class="bond-9 atom-9 atom-10" d="M 321.2,131.2 L 344.1,153.9" style="fill:none;fill-rule:evenodd;stroke:#000000;stroke-width:2.0px;stroke-linecap:butt;stroke-linejoin:miter;stroke-opacity:1"/>
<path class="bond-10 atom-10 atom-11" d="M 355.5,152.2 L 343.9,196.7" style="fill:none;fill-rule:evenodd;stroke:#000000;stroke-width:2.0px;stroke-linecap:butt;stroke-linejoin:miter;stroke-opacity:1"/>
<path class="bond-11 atom-11 atom-12" d="M 343.9,196.7 L 299.4,209.0" style="fill:none;fill-rule:evenodd;stroke:#000000;stroke-width:2.0px;stroke-linecap:butt;stroke-linejoin:miter;stroke-opacity:1"/>
<path class="bond-11 atom-11 atom-12" d="M 334.8,189.7 L 303.7,198.2" style="fill:none;fill-rule:evenodd;stroke:#000000;stroke-width:2.0px;stroke-linecap:butt;stroke-linejoin:miter;stroke-opacity:1"/>
<path class="bond-12 atom-12 atom-7" d="M 299.4,209.0 L 266.6,176.6" style="fill:none;fill-rule:evenodd;stroke:#000000;stroke-width:2.0px;stroke-linecap:butt;stroke-linejoin:miter;stroke-opacity:1"/>
<path class="atom-0" d="M 44.5 186.1 Q 44.8 185.3, 45.6 184.9 Q 46.3 184.4, 47.4 184.4 Q 48.7 184.4, 49.4 185.1 Q 50.1 185.8, 50.1 187.1 Q 50.1 188.3, 49.2 189.5 Q 48.3 190.7, 46.3 192.1 L 50.3 192.1 L 50.3 193.1 L 44.5 193.1 L 44.5 192.3 Q 46.1 191.2, 47.0 190.3 Q 48.0 189.5, 48.5 188.7 Q 48.9 187.9, 48.9 187.1 Q 48.9 186.3, 48.5 185.8 Q 48.1 185.4, 47.4 185.4 Q 46.7 185.4, 46.2 185.7 Q 45.8 185.9, 45.4 186.6 L 44.5 186.1 " fill="#000000"/>
<path class="atom-0" d="M 51.0 186.6 L 52.8 186.6 L 52.8 192.1 L 59.5 192.1 L 59.5 186.6 L 61.2 186.6 L 61.2 199.6 L 59.5 199.6 L 59.5 193.6 L 52.8 193.6 L 52.8 199.6 L 51.0 199.6 L 51.0 186.6 " fill="#000000"/>
<path class="atom-4" d="M 183.4 156.5 Q 183.4 153.4, 185.0 151.6 Q 186.5 149.9, 189.4 149.9 Q 192.3 149.9, 193.9 151.6 Q 195.4 153.4, 195.4 156.5 Q 195.4 159.7, 193.8 161.5 Q 192.3 163.3, 189.4 163.3 Q 186.5 163.3, 185.0 161.5 Q 183.4 159.7, 183.4 156.5 M 189.4 161.8 Q 191.4 161.8, 192.5 160.5 Q 193.6 159.1, 193.6 156.5 Q 193.6 153.9, 192.5 152.6 Q 191.4 151.3, 189.4 151.3 Q 187.4 151.3, 186.3 152.6 Q 185.3 153.9, 185.3 156.5 Q 185.3 159.1, 186.3 160.5 Q 187.4 161.8, 189.4 161.8 " fill="#FF0000"/>
<path class="atom-6" d="M 204.6 233.4 Q 204.6 230.3, 206.1 228.6 Q 207.7 226.8, 210.6 226.8 Q 213.5 226.8, 215.0 228.6 Q 216.6 230.3, 216.6 233.4 Q 216.6 236.6, 215.0 238.4 Q 213.4 240.2, 210.6 240.2 Q 207.7 240.2, 206.1 238.4 Q 204.6 236.6, 204.6 233.4 M 210.6 238.7 Q 212.6 238.7, 213.6 237.4 Q 214.7 236.1, 214.7 233.4 Q 214.7 230.9, 213.6 229.6 Q 212.6 228.3, 210.6 228.3 Q 208.6 228.3, 207.5 229.6 Q 206.4 230.9, 206.4 233.4 Q 206.4 236.1, 207.5 237.4 Q 208.6 238.7, 210.6 238.7 " fill="#FF0000"/>
<path class="legend" d="M 171.8 365.4 L 172.0 366.5 Q 172.9 365.3, 174.3 365.3 Q 174.7 365.3, 175.3 365.4 L 175.1 366.8 Q 174.4 366.6, 174.0 366.6 Q 173.4 366.6, 172.9 366.9 Q 172.5 367.1, 172.1 367.8 L 172.1 373.6 L 170.6 373.6 L 170.6 365.4 L 171.8 365.4 " fill="#000000"/>
<path class="legend" d="M 175.6 369.5 Q 175.6 367.5, 176.6 366.4 Q 177.6 365.3, 179.4 365.3 Q 181.2 365.3, 182.0 366.4 Q 182.9 367.4, 182.9 369.5 L 182.9 369.7 L 177.1 369.7 Q 177.2 371.1, 177.8 371.8 Q 178.4 372.6, 179.6 372.6 Q 180.2 372.6, 180.8 372.4 Q 181.4 372.3, 182.1 372.0 L 182.5 373.0 Q 181.7 373.4, 181.0 373.6 Q 180.3 373.8, 179.5 373.8 Q 177.6 373.8, 176.6 372.6 Q 175.6 371.5, 175.6 369.5 M 179.4 366.4 Q 178.5 366.4, 177.9 367.0 Q 177.4 367.5, 177.2 368.6 L 181.3 368.6 Q 181.2 367.5, 180.7 367.0 Q 180.3 366.4, 179.4 366.4 " fill="#000000"/>
<path class="legend" d="M 183.5 371.4 Q 183.5 370.1, 184.5 369.4 Q 185.6 368.7, 187.5 368.7 L 188.7 368.7 L 188.7 368.3 Q 188.7 367.3, 188.3 366.9 Q 187.9 366.4, 186.9 366.4 Q 186.2 366.4, 185.7 366.6 Q 185.2 366.7, 184.4 367.0 L 183.9 366.0 Q 185.4 365.3, 186.9 365.3 Q 188.6 365.3, 189.4 366.0 Q 190.2 366.8, 190.2 368.4 L 190.2 373.6 L 189.1 373.6 Q 189.1 373.6, 189.0 373.3 Q 189.0 373.1, 188.9 372.7 Q 187.7 373.8, 186.2 373.8 Q 184.9 373.8, 184.2 373.2 Q 183.5 372.5, 183.5 371.4 M 185.0 371.4 Q 185.0 372.0, 185.4 372.3 Q 185.7 372.6, 186.5 372.6 Q 187.1 372.6, 187.7 372.4 Q 188.3 372.0, 188.7 371.5 L 188.7 369.8 L 187.6 369.8 Q 186.3 369.8, 185.6 370.2 Q 185.0 370.6, 185.0 371.4 " fill="#000000"/>
<path class="legend" d="M 191.5 369.5 Q 191.5 367.5, 192.5 366.4 Q 193.5 365.3, 195.4 365.3 Q 197.3 365.3, 198.3 366.6 L 197.2 367.4 Q 196.9 366.9, 196.4 366.7 Q 196.0 366.4, 195.4 366.4 Q 194.3 366.4, 193.6 367.2 Q 193.0 368.0, 193.0 369.5 Q 193.0 371.0, 193.6 371.8 Q 194.3 372.6, 195.5 372.6 Q 196.2 372.6, 196.6 372.4 Q 197.1 372.3, 197.7 372.0 L 198.1 373.0 Q 196.9 373.7, 195.4 373.7 Q 193.5 373.7, 192.5 372.6 Q 191.5 371.5, 191.5 369.5 " fill="#000000"/>
<path class="legend" d="M 198.6 366.6 L 198.6 365.4 L 200.2 365.4 L 200.5 363.0 L 201.6 363.0 L 201.6 365.4 L 204.1 365.4 L 204.1 366.6 L 201.6 366.6 L 201.6 371.1 Q 201.6 372.5, 202.8 372.5 Q 203.3 372.5, 204.0 372.3 L 204.2 373.4 Q 203.3 373.7, 202.5 373.7 Q 201.4 373.7, 200.8 373.1 Q 200.1 372.4, 200.1 371.2 L 200.1 366.6 L 198.6 366.6 " fill="#000000"/>
<path class="legend" d="M 212.8 374.4 L 212.8 375.7 L 204.6 375.7 L 204.6 374.4 L 212.8 374.4 " fill="#000000"/>
<path class="legend" d="M 217.2 366.6 Q 218.2 366.6, 219.0 367.0 Q 219.8 367.4, 220.2 368.2 Q 220.6 369.0, 220.6 370.0 Q 220.6 371.1, 220.1 372.0 Q 219.7 372.8, 218.8 373.3 Q 217.9 373.8, 216.8 373.8 Q 214.8 373.8, 213.8 372.4 Q 212.8 371.0, 212.8 368.3 Q 212.8 365.3, 214.0 363.7 Q 215.3 362.2, 217.7 362.2 Q 218.4 362.2, 219.0 362.3 Q 219.6 362.5, 220.2 362.8 L 219.6 363.9 Q 218.7 363.5, 217.7 363.5 Q 216.1 363.5, 215.3 364.5 Q 214.5 365.5, 214.4 367.6 Q 215.0 367.1, 215.7 366.8 Q 216.4 366.6, 217.2 366.6 M 216.8 372.4 Q 217.5 372.4, 218.0 372.1 Q 218.5 371.8, 218.8 371.2 Q 219.0 370.7, 219.0 370.0 Q 219.0 369.0, 218.5 368.4 Q 217.9 367.8, 216.9 367.8 Q 216.2 367.8, 215.6 368.1 Q 214.9 368.4, 214.4 368.9 Q 214.5 370.8, 215.1 371.6 Q 215.6 372.4, 216.8 372.4 " fill="#000000"/>
<path class="legend" d="M 225.3 362.2 Q 227.3 362.2, 228.4 363.6 Q 229.4 364.9, 229.4 367.6 Q 229.4 370.6, 228.1 372.2 Q 226.9 373.8, 224.4 373.8 Q 223.7 373.8, 223.1 373.6 Q 222.5 373.4, 222.0 373.1 L 222.6 372.0 Q 223.4 372.5, 224.4 372.5 Q 226.0 372.5, 226.8 371.5 Q 227.7 370.4, 227.8 368.3 Q 227.2 368.8, 226.4 369.1 Q 225.7 369.4, 224.9 369.4 Q 224.0 369.4, 223.2 368.9 Q 222.4 368.5, 222.0 367.7 Q 221.5 366.9, 221.5 366.0 Q 221.5 364.8, 222.0 364.0 Q 222.5 363.1, 223.4 362.7 Q 224.2 362.2, 225.3 362.2 M 223.1 365.9 Q 223.1 366.9, 223.7 367.5 Q 224.2 368.1, 225.2 368.1 Q 225.9 368.1, 226.6 367.8 Q 227.3 367.5, 227.8 367.1 Q 227.7 365.2, 227.1 364.3 Q 226.5 363.5, 225.3 363.5 Q 224.7 363.5, 224.2 363.8 Q 223.7 364.1, 223.4 364.7 Q 223.1 365.2, 223.1 365.9 " fill="#000000"/>
<path class="legend" d="M 137.5 383.8 Q 137.5 381.8, 138.5 380.7 Q 139.5 379.5, 141.5 379.5 Q 143.3 379.5, 144.3 380.9 L 143.3 381.6 Q 142.9 381.2, 142.5 380.9 Q 142.0 380.7, 141.5 380.7 Q 140.3 380.7, 139.7 381.5 Q 139.1 382.3, 139.1 383.8 Q 139.1 385.3, 139.7 386.1 Q 140.4 386.8, 141.6 386.8 Q 142.2 386.8, 142.7 386.7 Q 143.2 386.5, 143.7 386.3 L 144.1 387.3 Q 143.0 388.0, 141.4 388.0 Q 139.5 388.0, 138.5 386.9 Q 137.5 385.7, 137.5 383.8 " fill="#000000"/>
<path class="legend" d="M 144.7 383.8 Q 144.7 381.7, 145.7 380.6 Q 146.7 379.5, 148.5 379.5 Q 150.4 379.5, 151.2 380.6 Q 152.0 381.7, 152.0 383.7 L 152.0 384.0 L 146.2 384.0 Q 146.3 385.4, 146.9 386.1 Q 147.5 386.8, 148.7 386.8 Q 149.3 386.8, 149.9 386.7 Q 150.5 386.5, 151.2 386.2 L 151.7 387.2 Q 150.8 387.6, 150.1 387.8 Q 149.4 388.0, 148.6 388.0 Q 146.7 388.0, 145.7 386.9 Q 144.7 385.8, 144.7 383.8 M 148.5 380.7 Q 147.6 380.7, 147.0 381.2 Q 146.5 381.8, 146.3 382.8 L 150.4 382.8 Q 150.3 381.7, 149.8 381.2 Q 149.4 380.7, 148.5 380.7 " fill="#000000"/>
<path class="legend" d="M 156.9 379.5 Q 158.2 379.5, 158.9 380.3 Q 159.6 381.0, 159.6 382.4 L 159.6 387.9 L 158.1 387.9 L 158.1 382.6 Q 158.1 381.6, 157.7 381.2 Q 157.3 380.7, 156.5 380.7 Q 155.7 380.7, 155.1 381.1 Q 154.5 381.4, 154.1 382.0 L 154.1 387.9 L 152.6 387.9 L 152.6 379.7 L 153.8 379.7 L 154.0 380.8 Q 155.1 379.5, 156.9 379.5 " fill="#000000"/>
<path class="legend" d="M 160.8 380.8 L 160.8 379.7 L 162.4 379.7 L 162.6 377.3 L 163.7 377.3 L 163.7 379.7 L 166.3 379.7 L 166.3 380.8 L 163.7 380.8 L 163.7 385.4 Q 163.7 386.8, 164.9 386.8 Q 165.4 386.8, 166.1 386.6 L 166.4 387.6 Q 165.5 388.0, 164.7 388.0 Q 163.6 388.0, 162.9 387.3 Q 162.2 386.7, 162.2 385.4 L 162.2 380.8 L 160.8 380.8 " fill="#000000"/>
<path class="legend" d="M 174.9 388.7 L 174.9 390.0 L 166.8 390.0 L 166.8 388.7 L 174.9 388.7 " fill="#000000"/>
<path class="legend" d="M 182.4 375.7 L 182.4 387.9 L 181.2 387.9 L 181.0 386.9 Q 180.1 388.0, 178.6 388.0 Q 176.9 388.0, 175.9 387.0 Q 174.9 385.9, 174.9 383.9 Q 174.9 381.8, 176.1 380.7 Q 177.2 379.5, 179.2 379.5 Q 180.0 379.5, 180.9 379.7 L 180.9 375.7 L 182.4 375.7 M 178.7 386.8 Q 179.5 386.8, 180.1 386.4 Q 180.7 385.9, 180.9 385.1 L 180.9 380.9 Q 180.1 380.7, 179.2 380.7 Q 177.9 380.7, 177.2 381.6 Q 176.5 382.4, 176.5 383.9 Q 176.5 385.3, 177.0 386.1 Q 177.6 386.8, 178.7 386.8 " fill="#000000"/>
<path class="legend" d="M 183.7 376.6 L 185.2 376.6 L 185.2 378.0 L 183.7 378.0 L 183.7 376.6 M 183.7 379.7 L 185.2 379.7 L 185.2 387.9 L 183.7 387.9 L 183.7 379.7 " fill="#000000"/>
<path class="legend" d="M 187.0 386.2 Q 187.7 386.5, 188.2 386.6 Q 188.8 386.8, 189.3 386.8 Q 190.1 386.8, 190.5 386.5 Q 190.9 386.2, 190.9 385.6 Q 190.9 385.2, 190.6 385.0 Q 190.4 384.8, 190.2 384.6 Q 189.9 384.5, 189.2 384.3 Q 189.1 384.3, 188.3 384.0 Q 187.6 383.7, 187.2 383.2 Q 186.8 382.7, 186.8 381.9 Q 186.8 380.9, 187.6 380.2 Q 188.4 379.5, 189.8 379.5 Q 190.5 379.5, 191.0 379.7 Q 191.6 379.8, 192.2 380.0 L 191.8 381.2 Q 191.3 381.0, 190.8 380.9 Q 190.3 380.8, 189.8 380.8 Q 189.1 380.8, 188.7 381.1 Q 188.3 381.4, 188.3 381.8 Q 188.3 382.3, 188.6 382.5 Q 188.9 382.7, 189.6 383.0 Q 189.8 383.0, 189.9 383.1 L 190.3 383.2 Q 191.0 383.4, 191.4 383.7 Q 191.8 383.9, 192.1 384.4 Q 192.4 384.8, 192.4 385.6 Q 192.4 386.7, 191.5 387.4 Q 190.7 388.0, 189.3 388.0 Q 188.6 388.0, 187.9 387.9 Q 187.2 387.7, 186.5 387.4 L 187.0 386.2 " fill="#000000"/>
<path class="legend" d="M 193.2 380.8 L 193.2 379.7 L 194.8 379.7 L 195.0 377.3 L 196.2 377.3 L 196.2 379.7 L 198.7 379.7 L 198.7 380.8 L 196.2 380.8 L 196.2 385.4 Q 196.2 386.8, 197.4 386.8 Q 197.8 386.8, 198.5 386.6 L 198.8 387.6 Q 197.9 388.0, 197.1 388.0 Q 196.0 388.0, 195.3 387.3 Q 194.7 386.7, 194.7 385.4 L 194.7 380.8 L 193.2 380.8 " fill="#000000"/>
<path class="legend" d="" fill="#000000"/>
<path class="legend" d="M 204.5 380.9 L 211.9 380.9 L 211.9 382.1 L 204.5 382.1 L 204.5 380.9 M 204.5 384.4 L 211.9 384.4 L 211.9 385.5 L 204.5 385.5 L 204.5 384.4 " fill="#000000"/>
<path class="legend" d="" fill="#000000"/>
<path class="legend" d="M 222.8 388.0 Q 220.7 388.0, 219.7 386.5 Q 218.7 384.9, 218.7 382.2 Q 218.7 379.5, 219.7 378.0 Q 220.7 376.4, 222.8 376.4 Q 224.9 376.4, 225.9 378.0 Q 226.9 379.5, 226.9 382.2 Q 226.9 384.9, 225.9 386.5 Q 224.9 388.0, 222.8 388.0 M 222.8 386.7 Q 224.0 386.7, 224.7 385.6 Q 225.3 384.4, 225.3 382.2 Q 225.3 380.0, 224.7 378.8 Q 224.0 377.7, 222.8 377.7 Q 221.6 377.7, 220.9 378.8 Q 220.3 380.0, 220.3 382.2 Q 220.3 384.4, 220.9 385.6 Q 221.6 386.7, 222.8 386.7 " fill="#000000"/>
<path class="legend" d="M 228.0 386.3 L 229.6 386.3 L 229.6 387.9 L 228.0 387.9 L 228.0 386.3 " fill="#000000"/>
<path class="legend" d="M 235.1 380.8 Q 236.0 380.8, 236.8 381.2 Q 237.6 381.7, 238.0 382.5 Q 238.5 383.2, 238.5 384.2 Q 238.5 385.3, 238.0 386.2 Q 237.5 387.1, 236.6 387.5 Q 235.8 388.0, 234.7 388.0 Q 232.7 388.0, 231.6 386.7 Q 230.6 385.3, 230.6 382.6 Q 230.6 379.6, 231.9 378.0 Q 233.1 376.4, 235.5 376.4 Q 236.3 376.4, 236.8 376.6 Q 237.5 376.8, 238.0 377.1 L 237.4 378.2 Q 236.6 377.7, 235.6 377.7 Q 234.0 377.7, 233.1 378.8 Q 232.3 379.8, 232.2 381.9 Q 232.8 381.4, 233.5 381.1 Q 234.3 380.8, 235.1 380.8 M 234.7 386.7 Q 235.3 386.7, 235.8 386.4 Q 236.3 386.1, 236.6 385.5 Q 236.9 384.9, 236.9 384.3 Q 236.9 383.2, 236.3 382.7 Q 235.8 382.1, 234.8 382.1 Q 234.1 382.1, 233.4 382.4 Q 232.7 382.7, 232.2 383.1 Q 232.3 385.0, 232.9 385.9 Q 233.5 386.7, 234.7 386.7 " fill="#000000"/>
<path class="legend" d="M 245.3 377.8 L 239.4 377.8 L 239.4 376.6 L 246.9 376.6 L 246.9 377.7 L 242.3 387.9 L 240.8 387.9 L 245.3 377.8 " fill="#000000"/>
<path class="legend" d="M 248.0 386.6 L 250.4 386.6 L 250.4 378.1 L 247.7 379.0 L 247.3 378.0 L 250.8 376.5 L 251.9 376.7 L 251.9 386.6 L 254.2 386.6 L 254.2 387.9 L 248.0 387.9 L 248.0 386.6 " fill="#000000"/>
<path class="legend" d="M 254.9 378.7 Q 255.3 377.6, 256.3 377.0 Q 257.3 376.4, 258.7 376.4 Q 260.4 376.4, 261.3 377.4 Q 262.3 378.3, 262.3 379.9 Q 262.3 381.6, 261.0 383.2 Q 259.8 384.8, 257.2 386.6 L 262.5 386.6 L 262.5 387.9 L 254.8 387.9 L 254.8 386.8 Q 257.0 385.3, 258.2 384.2 Q 259.5 383.1, 260.1 382.1 Q 260.7 381.1, 260.7 380.0 Q 260.7 378.9, 260.1 378.3 Q 259.6 377.7, 258.7 377.7 Q 257.7 377.7, 257.1 378.1 Q 256.5 378.4, 256.1 379.3 L 254.9 378.7 " fill="#000000"/>
<path class="bond-0 atom-0 atom-1" d="M 458.3,202.2 L 467.6,165.6" style="fill:none;fill-rule:evenodd;stroke:#000000;stroke-width:2.0px;stroke-linecap:butt;stroke-linejoin:miter;stroke-opacity:1"/>
<path class="bond-1 atom-1 atom-2" d="M 467.6,165.6 L 512.0,153.1" style="fill:none;fill-rule:evenodd;stroke:#000000;stroke-width:2.0px;stroke-linecap:butt;stroke-linejoin:miter;stroke-opacity:1"/>
<path class="bond-1 atom-1 atom-2" d="M 476.8,172.6 L 507.8,163.9" style="fill:none;fill-rule:evenodd;stroke:#000000;stroke-width:2.0px;stroke-linecap:butt;stroke-linejoin:miter;stroke-opacity:1"/>
<path class="bond-2 atom-2 atom-3" d="M 512.0,153.1 L 545.0,185.3" style="fill:none;fill-rule:evenodd;stroke:#000000;stroke-width:2.0px;stroke-linecap:butt;stroke-linejoin:miter;stroke-opacity:1"/>
<path class="bond-3 atom-3 atom-4" d="M 545.0,185.3 L 563.4,180.1" style="fill:none;fill-rule:evenodd;stroke:#000000;stroke-width:2.0px;stroke-linecap:butt;stroke-linejoin:miter;stroke-opacity:1"/>
<path class="bond-3 atom-3 atom-4" d="M 563.4,180.1 L 581.8,174.9" style="fill:none;fill-rule:evenodd;stroke:#FF0000;stroke-width:2.0px;stroke-linecap:butt;stroke-linejoin:miter;stroke-opacity:1"/>
<path class="bond-4 atom-4 atom-5" d="M 596.8,180.1 L 609.6,192.6" style="fill:none;fill-rule:evenodd;stroke:#FF0000;stroke-width:2.0px;stroke-linecap:butt;stroke-linejoin:miter;stroke-opacity:1"/>
<path class="bond-4 atom-4 atom-5" d="M 609.6,192.6 L 622.3,205.0" style="fill:none;fill-rule:evenodd;stroke:#000000;stroke-width:2.0px;stroke-linecap:butt;stroke-linejoin:miter;stroke-opacity:1"/>
<path class="bond-5 atom-5 atom-6" d="M 622.3,205.0 L 666.7,192.5" style="fill:none;fill-rule:evenodd;stroke:#000000;stroke-width:2.0px;stroke-linecap:butt;stroke-linejoin:miter;stroke-opacity:1"/>
<path class="bond-6 atom-6 atom-7" d="M 666.7,192.5 L 678.0,147.8" style="fill:none;fill-rule:evenodd;stroke:#000000;stroke-width:2.0px;stroke-linecap:butt;stroke-linejoin:miter;stroke-opacity:1"/>
<path class="bond-6 atom-6 atom-7" d="M 677.3,188.1 L 685.3,156.8" style="fill:none;fill-rule:evenodd;stroke:#000000;stroke-width:2.0px;stroke-linecap:butt;stroke-linejoin:miter;stroke-opacity:1"/>
<path class="bond-7 atom-7 atom-8" d="M 678.0,147.8 L 722.4,135.3" style="fill:none;fill-rule:evenodd;stroke:#000000;stroke-width:2.0px;stroke-linecap:butt;stroke-linejoin:miter;stroke-opacity:1"/>
<path class="bond-8 atom-8 atom-9" d="M 722.4,135.3 L 755.4,167.5" style="fill:none;fill-rule:evenodd;stroke:#000000;stroke-width:2.0px;stroke-linecap:butt;stroke-linejoin:miter;stroke-opacity:1"/>
<path class="bond-8 atom-8 atom-9" d="M 720.9,146.8 L 744.0,169.3" style="fill:none;fill-rule:evenodd;stroke:#000000;stroke-width:2.0px;stroke-linecap:butt;stroke-linejoin:miter;stroke-opacity:1"/>
<path class="bond-9 atom-9 atom-10" d="M 755.4,167.5 L 744.0,212.2" style="fill:none;fill-rule:evenodd;stroke:#000000;stroke-width:2.0px;stroke-linecap:butt;stroke-linejoin:miter;stroke-opacity:1"/>
<path class="bond-10 atom-10 atom-11" d="M 744.0,212.2 L 699.7,224.7" style="fill:none;fill-rule:evenodd;stroke:#000000;stroke-width:2.0px;stroke-linecap:butt;stroke-linejoin:miter;stroke-opacity:1"/>
<path class="bond-10 atom-10 atom-11" d="M 734.9,205.2 L 703.8,213.9" style="fill:none;fill-rule:evenodd;stroke:#000000;stroke-width:2.0px;stroke-linecap:butt;stroke-linejoin:miter;stroke-opacity:1"/>
<path class="bond-11 atom-11 atom-6" d="M 699.7,224.7 L 666.7,192.5" style="fill:none;fill-rule:evenodd;stroke:#000000;stroke-width:2.0px;stroke-linecap:butt;stroke-linejoin:miter;stroke-opacity:1"/>
<path class="atom-0" d="M 444.6 203.3 Q 445.0 202.5, 445.7 202.0 Q 446.5 201.6, 447.5 201.6 Q 448.8 201.6, 449.5 202.3 Q 450.3 203.0, 450.3 204.2 Q 450.3 205.5, 449.3 206.7 Q 448.4 207.9, 446.4 209.3 L 450.4 209.3 L 450.4 210.3 L 444.6 210.3 L 444.6 209.5 Q 446.2 208.3, 447.2 207.5 Q 448.1 206.6, 448.6 205.8 Q 449.1 205.1, 449.1 204.3 Q 449.1 203.5, 448.6 203.0 Q 448.2 202.5, 447.5 202.5 Q 446.8 202.5, 446.4 202.8 Q 445.9 203.1, 445.6 203.7 L 444.6 203.3 " fill="#000000"/>
<path class="atom-0" d="M 451.1 203.7 L 452.9 203.7 L 452.9 209.3 L 459.6 209.3 L 459.6 203.7 L 461.4 203.7 L 461.4 216.8 L 459.6 216.8 L 459.6 210.8 L 452.9 210.8 L 452.9 216.8 L 451.1 216.8 L 451.1 203.7 " fill="#000000"/>
<path class="atom-4" d="M 583.3 172.8 Q 583.3 169.7, 584.9 168.0 Q 586.4 166.2, 589.3 166.2 Q 592.2 166.2, 593.8 168.0 Q 595.3 169.7, 595.3 172.8 Q 595.3 176.0, 593.7 177.8 Q 592.2 179.6, 589.3 179.6 Q 586.4 179.6, 584.9 177.8 Q 583.3 176.0, 583.3 172.8 M 589.3 178.1 Q 591.3 178.1, 592.4 176.8 Q 593.5 175.5, 593.5 172.8 Q 593.5 170.3, 592.4 169.0 Q 591.3 167.7, 589.3 167.7 Q 587.3 167.7, 586.2 169.0 Q 585.2 170.3, 585.2 172.8 Q 585.2 175.5, 586.2 176.8 Q 587.3 178.1, 589.3 178.1 " fill="#FF0000"/>
<path class="legend" d="M 572.2 365.4 L 572.3 366.5 Q 573.2 365.3, 574.6 365.3 Q 575.1 365.3, 575.7 365.4 L 575.4 366.8 Q 574.7 366.6, 574.4 366.6 Q 573.7 366.6, 573.2 366.9 Q 572.8 367.1, 572.4 367.8 L 572.4 373.6 L 570.9 373.6 L 570.9 365.4 L 572.2 365.4 " fill="#000000"/>
<path class="legend" d="M 575.9 369.5 Q 575.9 367.5, 576.9 366.4 Q 577.9 365.3, 579.8 365.3 Q 581.6 365.3, 582.4 366.4 Q 583.2 367.4, 583.2 369.5 L 583.2 369.7 L 577.4 369.7 Q 577.5 371.1, 578.1 371.8 Q 578.7 372.6, 579.9 372.6 Q 580.5 372.6, 581.1 372.4 Q 581.7 372.3, 582.4 372.0 L 582.9 373.0 Q 582.0 373.4, 581.3 373.6 Q 580.6 373.8, 579.8 373.8 Q 578.0 373.8, 576.9 372.6 Q 575.9 371.5, 575.9 369.5 M 579.8 366.4 Q 578.8 366.4, 578.2 367.0 Q 577.7 367.5, 577.5 368.6 L 581.6 368.6 Q 581.5 367.5, 581.0 367.0 Q 580.6 366.4, 579.8 366.4 " fill="#000000"/>
<path class="legend" d="M 583.8 371.4 Q 583.8 370.1, 584.8 369.4 Q 585.9 368.7, 587.8 368.7 L 589.1 368.7 L 589.1 368.3 Q 589.1 367.3, 588.6 366.9 Q 588.2 366.4, 587.2 366.4 Q 586.5 366.4, 586.0 366.6 Q 585.5 366.7, 584.7 367.0 L 584.3 366.0 Q 585.8 365.3, 587.2 365.3 Q 589.0 365.3, 589.8 366.0 Q 590.6 366.8, 590.6 368.4 L 590.6 373.6 L 589.4 373.6 Q 589.4 373.6, 589.3 373.3 Q 589.3 373.1, 589.2 372.7 Q 588.0 373.8, 586.5 373.8 Q 585.3 373.8, 584.5 373.2 Q 583.8 372.5, 583.8 371.4 M 585.3 371.4 Q 585.3 372.0, 585.7 372.3 Q 586.1 372.6, 586.8 372.6 Q 587.4 372.6, 588.0 372.4 Q 588.6 372.0, 589.1 371.5 L 589.1 369.8 L 587.9 369.8 Q 586.6 369.8, 586.0 370.2 Q 585.3 370.6, 585.3 371.4 " fill="#000000"/>
<path class="legend" d="M 591.8 369.5 Q 591.8 367.5, 592.8 366.4 Q 593.8 365.3, 595.7 365.3 Q 597.6 365.3, 598.6 366.6 L 597.6 367.4 Q 597.2 366.9, 596.7 366.7 Q 596.3 366.4, 595.7 366.4 Q 594.6 366.4, 594.0 367.2 Q 593.3 368.0, 593.3 369.5 Q 593.3 371.0, 594.0 371.8 Q 594.6 372.6, 595.8 372.6 Q 596.5 372.6, 597.0 372.4 Q 597.4 372.3, 598.0 372.0 L 598.4 373.0 Q 597.2 373.7, 595.7 373.7 Q 593.8 373.7, 592.8 372.6 Q 591.8 371.5, 591.8 369.5 " fill="#000000"/>
<path class="legend" d="M 599.0 366.6 L 599.0 365.4 L 600.5 365.4 L 600.8 363.0 L 601.9 363.0 L 601.9 365.4 L 604.4 365.4 L 604.4 366.6 L 601.9 366.6 L 601.9 371.1 Q 601.9 372.5, 603.1 372.5 Q 603.6 372.5, 604.3 372.3 L 604.5 373.4 Q 603.7 373.7, 602.8 373.7 Q 601.8 373.7, 601.1 373.1 Q 600.4 372.4, 600.4 371.2 L 600.4 366.6 L 599.0 366.6 " fill="#000000"/>
<path class="legend" d="M 613.1 374.4 L 613.1 375.7 L 604.9 375.7 L 604.9 374.4 L 613.1 374.4 " fill="#000000"/>
<path class="legend" d="M 617.2 366.5 Q 618.2 366.5, 619.0 367.0 Q 619.8 367.4, 620.3 368.2 Q 620.8 369.0, 620.8 370.0 Q 620.8 371.2, 620.2 372.1 Q 619.6 372.9, 618.7 373.3 Q 617.8 373.8, 616.7 373.8 Q 615.7 373.8, 614.7 373.4 Q 613.8 373.0, 613.1 372.3 L 614.1 371.3 Q 614.6 371.8, 615.3 372.2 Q 616.0 372.5, 616.8 372.5 Q 617.8 372.5, 618.5 371.8 Q 619.2 371.2, 619.2 370.1 Q 619.2 368.9, 618.5 368.3 Q 617.8 367.7, 616.7 367.7 Q 615.7 367.7, 614.6 368.2 L 613.7 367.8 L 614.2 362.3 L 620.1 362.3 L 619.9 363.6 L 615.6 363.6 L 615.2 366.9 Q 616.2 366.5, 617.2 366.5 " fill="#000000"/>
<path class="legend" d="M 627.5 363.6 L 621.5 363.6 L 621.5 362.3 L 629.1 362.3 L 629.1 363.4 L 624.5 373.6 L 622.9 373.6 L 627.5 363.6 " fill="#000000"/>
<path class="legend" d="M 536.4 383.8 Q 536.4 381.8, 537.4 380.7 Q 538.4 379.5, 540.3 379.5 Q 542.2 379.5, 543.2 380.9 L 542.2 381.6 Q 541.8 381.2, 541.3 380.9 Q 540.9 380.7, 540.3 380.7 Q 539.2 380.7, 538.6 381.5 Q 537.9 382.3, 537.9 383.8 Q 537.9 385.3, 538.6 386.1 Q 539.2 386.8, 540.4 386.8 Q 541.1 386.8, 541.6 386.7 Q 542.0 386.5, 542.6 386.3 L 543.0 387.3 Q 541.8 388.0, 540.3 388.0 Q 538.4 388.0, 537.4 386.9 Q 536.4 385.7, 536.4 383.8 " fill="#000000"/>
<path class="legend" d="M 543.6 383.8 Q 543.6 381.7, 544.6 380.6 Q 545.6 379.5, 547.4 379.5 Q 549.2 379.5, 550.0 380.6 Q 550.8 381.7, 550.8 383.7 L 550.8 384.0 L 545.1 384.0 Q 545.1 385.4, 545.8 386.1 Q 546.4 386.8, 547.5 386.8 Q 548.2 386.8, 548.8 386.7 Q 549.4 386.5, 550.1 386.2 L 550.5 387.2 Q 549.7 387.6, 549.0 387.8 Q 548.2 388.0, 547.5 388.0 Q 545.6 388.0, 544.6 386.9 Q 543.6 385.8, 543.6 383.8 M 547.4 380.7 Q 546.5 380.7, 545.9 381.2 Q 545.3 381.8, 545.2 382.8 L 549.3 382.8 Q 549.1 381.7, 548.7 381.2 Q 548.3 380.7, 547.4 380.7 " fill="#000000"/>
<path class="legend" d="M 555.7 379.5 Q 557.1 379.5, 557.7 380.3 Q 558.4 381.0, 558.4 382.4 L 558.4 387.9 L 556.9 387.9 L 556.9 382.6 Q 556.9 381.6, 556.6 381.2 Q 556.2 380.7, 555.4 380.7 Q 554.6 380.7, 554.0 381.1 Q 553.4 381.4, 553.0 382.0 L 553.0 387.9 L 551.5 387.9 L 551.5 379.7 L 552.7 379.7 L 552.9 380.8 Q 554.0 379.5, 555.7 379.5 " fill="#000000"/>
<path class="legend" d="M 559.7 380.8 L 559.7 379.7 L 561.2 379.7 L 561.5 377.3 L 562.6 377.3 L 562.6 379.7 L 565.1 379.7 L 565.1 380.8 L 562.6 380.8 L 562.6 385.4 Q 562.6 386.8, 563.8 386.8 Q 564.3 386.8, 565.0 386.6 L 565.3 387.6 Q 564.4 388.0, 563.5 388.0 Q 562.5 388.0, 561.8 387.3 Q 561.1 386.7, 561.1 385.4 L 561.1 380.8 L 559.7 380.8 " fill="#000000"/>
<path class="legend" d="M 573.8 388.7 L 573.8 390.0 L 565.7 390.0 L 565.7 388.7 L 573.8 388.7 " fill="#000000"/>
<path class="legend" d="M 581.3 375.7 L 581.3 387.9 L 580.1 387.9 L 579.9 386.9 Q 579.0 388.0, 577.4 388.0 Q 575.7 388.0, 574.8 387.0 Q 573.8 385.9, 573.8 383.9 Q 573.8 381.8, 574.9 380.7 Q 576.1 379.5, 578.0 379.5 Q 578.9 379.5, 579.8 379.7 L 579.8 375.7 L 581.3 375.7 M 577.5 386.8 Q 578.4 386.8, 579.0 386.4 Q 579.6 385.9, 579.8 385.1 L 579.8 380.9 Q 579.0 380.7, 578.1 380.7 Q 576.8 380.7, 576.1 381.6 Q 575.4 382.4, 575.4 383.9 Q 575.4 385.3, 575.9 386.1 Q 576.5 386.8, 577.5 386.8 " fill="#000000"/>
<path class="legend" d="M 582.6 376.6 L 584.0 376.6 L 584.0 378.0 L 582.6 378.0 L 582.6 376.6 M 582.6 379.7 L 584.0 379.7 L 584.0 387.9 L 582.6 387.9 L 582.6 379.7 " fill="#000000"/>
<path class="legend" d="M 585.9 386.2 Q 586.6 386.5, 587.1 386.6 Q 587.6 386.8, 588.2 386.8 Q 588.9 386.8, 589.3 386.5 Q 589.7 386.2, 589.7 385.6 Q 589.7 385.2, 589.5 385.0 Q 589.3 384.8, 589.0 384.6 Q 588.8 384.5, 588.1 384.3 Q 587.9 384.3, 587.2 384.0 Q 586.5 383.7, 586.1 383.2 Q 585.7 382.7, 585.7 381.9 Q 585.7 380.9, 586.5 380.2 Q 587.2 379.5, 588.7 379.5 Q 589.3 379.5, 589.9 379.7 Q 590.4 379.8, 591.1 380.0 L 590.7 381.2 Q 590.1 381.0, 589.7 380.9 Q 589.2 380.8, 588.7 380.8 Q 588.0 380.8, 587.6 381.1 Q 587.2 381.4, 587.2 381.8 Q 587.2 382.3, 587.5 382.5 Q 587.8 382.7, 588.5 383.0 Q 588.7 383.0, 588.8 383.1 L 589.2 383.2 Q 589.9 383.4, 590.3 383.7 Q 590.7 383.9, 591.0 384.4 Q 591.2 384.8, 591.2 385.6 Q 591.2 386.7, 590.4 387.4 Q 589.6 388.0, 588.2 388.0 Q 587.4 388.0, 586.8 387.9 Q 586.1 387.7, 585.4 387.4 L 585.9 386.2 " fill="#000000"/>
<path class="legend" d="M 592.1 380.8 L 592.1 379.7 L 593.7 379.7 L 593.9 377.3 L 595.0 377.3 L 595.0 379.7 L 597.5 379.7 L 597.5 380.8 L 595.0 380.8 L 595.0 385.4 Q 595.0 386.8, 596.2 386.8 Q 596.7 386.8, 597.4 386.6 L 597.7 387.6 Q 596.8 388.0, 596.0 388.0 Q 594.9 388.0, 594.2 387.3 Q 593.5 386.7, 593.5 385.4 L 593.5 380.8 L 592.1 380.8 " fill="#000000"/>
<path class="legend" d="" fill="#000000"/>
<path class="legend" d="M 603.4 380.9 L 610.7 380.9 L 610.7 382.1 L 603.4 382.1 L 603.4 380.9 M 603.4 384.4 L 610.7 384.4 L 610.7 385.5 L 603.4 385.5 L 603.4 384.4 " fill="#000000"/>
<path class="legend" d="" fill="#000000"/>
<path class="legend" d="M 621.7 388.0 Q 619.6 388.0, 618.5 386.5 Q 617.5 384.9, 617.5 382.2 Q 617.5 379.5, 618.5 378.0 Q 619.6 376.4, 621.7 376.4 Q 623.8 376.4, 624.8 378.0 Q 625.8 379.5, 625.8 382.2 Q 625.8 384.9, 624.8 386.5 Q 623.7 388.0, 621.7 388.0 M 621.7 386.7 Q 622.9 386.7, 623.6 385.6 Q 624.2 384.4, 624.2 382.2 Q 624.2 380.0, 623.6 378.8 Q 622.9 377.7, 621.7 377.7 Q 620.5 377.7, 619.8 378.8 Q 619.1 380.0, 619.1 382.2 Q 619.1 384.4, 619.8 385.6 Q 620.5 386.7, 621.7 386.7 " fill="#000000"/>
<path class="legend" d="M 626.9 386.3 L 628.5 386.3 L 628.5 387.9 L 626.9 387.9 L 626.9 386.3 " fill="#000000"/>
<path class="legend" d="M 635.4 377.8 L 629.5 377.8 L 629.5 376.6 L 637.0 376.6 L 637.0 377.7 L 632.4 387.9 L 630.9 387.9 L 635.4 377.8 " fill="#000000"/>
<path class="legend" d="M 641.3 376.4 Q 643.3 376.4, 644.3 377.8 Q 645.3 379.2, 645.3 381.9 Q 645.3 384.9, 644.1 386.5 Q 642.8 388.0, 640.4 388.0 Q 639.7 388.0, 639.1 387.9 Q 638.5 387.7, 637.9 387.4 L 638.5 386.3 Q 639.4 386.7, 640.4 386.7 Q 642.0 386.7, 642.8 385.7 Q 643.6 384.7, 643.7 382.5 Q 643.1 383.1, 642.4 383.4 Q 641.7 383.6, 640.9 383.6 Q 639.9 383.6, 639.1 383.2 Q 638.3 382.8, 637.9 382.0 Q 637.5 381.2, 637.5 380.2 Q 637.5 379.1, 638.0 378.3 Q 638.5 377.4, 639.3 376.9 Q 640.2 376.4, 641.3 376.4 M 639.1 380.2 Q 639.1 381.2, 639.6 381.8 Q 640.2 382.4, 641.2 382.4 Q 641.9 382.4, 642.5 382.1 Q 643.2 381.8, 643.7 381.3 Q 643.7 379.4, 643.1 378.6 Q 642.5 377.7, 641.3 377.7 Q 640.7 377.7, 640.1 378.1 Q 639.7 378.4, 639.4 378.9 Q 639.1 379.5, 639.1 380.2 " fill="#000000"/>
<path class="legend" d="M 650.6 388.0 Q 648.5 388.0, 647.4 386.5 Q 646.4 384.9, 646.4 382.2 Q 646.4 379.5, 647.4 378.0 Q 648.5 376.4, 650.6 376.4 Q 652.7 376.4, 653.7 378.0 Q 654.7 379.5, 654.7 382.2 Q 654.7 384.9, 653.7 386.5 Q 652.6 388.0, 650.6 388.0 M 650.6 386.7 Q 651.8 386.7, 652.5 385.6 Q 653.1 384.4, 653.1 382.2 Q 653.1 380.0, 652.5 378.8 Q 651.8 377.7, 650.6 377.7 Q 649.3 377.7, 648.7 378.8 Q 648.0 380.0, 648.0 382.2 Q 648.0 384.4, 648.7 385.6 Q 649.3 386.7, 650.6 386.7 " fill="#000000"/>
<path class="legend" d="M 659.6 376.4 Q 661.6 376.4, 662.6 377.8 Q 663.6 379.2, 663.6 381.9 Q 663.6 384.9, 662.3 386.5 Q 661.1 388.0, 658.7 388.0 Q 658.0 388.0, 657.4 387.9 Q 656.8 387.7, 656.2 387.4 L 656.8 386.3 Q 657.7 386.7, 658.7 386.7 Q 660.3 386.7, 661.1 385.7 Q 661.9 384.7, 662.0 382.5 Q 661.4 383.1, 660.7 383.4 Q 660.0 383.6, 659.2 383.6 Q 658.2 383.6, 657.4 383.2 Q 656.6 382.8, 656.2 382.0 Q 655.7 381.2, 655.7 380.2 Q 655.7 379.1, 656.2 378.3 Q 656.7 377.4, 657.6 376.9 Q 658.5 376.4, 659.6 376.4 M 657.3 380.2 Q 657.3 381.2, 657.9 381.8 Q 658.5 382.4, 659.5 382.4 Q 660.1 382.4, 660.8 382.1 Q 661.5 381.8, 662.0 381.3 Q 661.9 379.4, 661.3 378.6 Q 660.7 377.7, 659.5 377.7 Q 658.9 377.7, 658.4 378.1 Q 657.9 378.4, 657.6 378.9 Q 657.3 379.5, 657.3 380.2 " fill="#000000"/>
<path class="bond-0 atom-0 atom-1" d="M 1031.5,221.3 L 1037.0,203.4" style="fill:none;fill-rule:evenodd;stroke:#FF0000;stroke-width:2.0px;stroke-linecap:butt;stroke-linejoin:miter;stroke-opacity:1"/>
<path class="bond-0 atom-0 atom-1" d="M 1037.0,203.4 L 1042.6,185.4" style="fill:none;fill-rule:evenodd;stroke:#000000;stroke-width:2.0px;stroke-linecap:butt;stroke-linejoin:miter;stroke-opacity:1"/>
<path class="bond-0 atom-0 atom-1" d="M 1040.3,224.1 L 1045.8,206.1" style="fill:none;fill-rule:evenodd;stroke:#FF0000;stroke-width:2.0px;stroke-linecap:butt;stroke-linejoin:miter;stroke-opacity:1"/>
<path class="bond-0 atom-0 atom-1" d="M 1045.8,206.1 L 1051.4,188.2" style="fill:none;fill-rule:evenodd;stroke:#000000;stroke-width:2.0px;stroke-linecap:butt;stroke-linejoin:miter;stroke-opacity:1"/>
<path class="bond-1 atom-1 atom-2" d="M 1047.0,186.8 L 1035.1,173.9" style="fill:none;fill-rule:evenodd;stroke:#000000;stroke-width:2.0px;stroke-linecap:butt;stroke-linejoin:miter;stroke-opacity:1"/>
<path class="bond-1 atom-1 atom-2" d="M 1035.1,173.9 L 1023.2,161.1" style="fill:none;fill-rule:evenodd;stroke:#FF0000;stroke-width:2.0px;stroke-linecap:butt;stroke-linejoin:miter;stroke-opacity:1"/>
<path class="bond-2 atom-2 atom-3" d="M 1008.2,154.7 L 989.5,158.9" style="fill:none;fill-rule:evenodd;stroke:#FF0000;stroke-width:2.0px;stroke-linecap:butt;stroke-linejoin:miter;stroke-opacity:1"/>
<path class="bond-2 atom-2 atom-3" d="M 989.5,158.9 L 970.8,163.2" style="fill:none;fill-rule:evenodd;stroke:#000000;stroke-width:2.0px;stroke-linecap:butt;stroke-linejoin:miter;stroke-opacity:1"/>
<path class="bond-3 atom-3 atom-4" d="M 970.8,163.2 L 939.5,129.4" style="fill:none;fill-rule:evenodd;stroke:#000000;stroke-width:2.0px;stroke-linecap:butt;stroke-linejoin:miter;stroke-opacity:1"/>
<path class="bond-4 atom-4 atom-5" d="M 939.5,129.4 L 894.5,139.6" style="fill:none;fill-rule:evenodd;stroke:#000000;stroke-width:2.0px;stroke-linecap:butt;stroke-linejoin:miter;stroke-opacity:1"/>
<path class="bond-4 atom-4 atom-5" d="M 934.8,139.9 L 903.3,147.0" style="fill:none;fill-rule:evenodd;stroke:#000000;stroke-width:2.0px;stroke-linecap:butt;stroke-linejoin:miter;stroke-opacity:1"/>
<path class="bond-5 atom-5 atom-6" d="M 894.5,139.6 L 880.9,183.6" style="fill:none;fill-rule:evenodd;stroke:#000000;stroke-width:2.0px;stroke-linecap:butt;stroke-linejoin:miter;stroke-opacity:1"/>
<path class="bond-6 atom-6 atom-7" d="M 880.9,183.6 L 862.2,187.8" style="fill:none;fill-rule:evenodd;stroke:#000000;stroke-width:2.0px;stroke-linecap:butt;stroke-linejoin:miter;stroke-opacity:1"/>
<path class="bond-6 atom-6 atom-7" d="M 862.2,187.8 L 843.5,192.1" style="fill:none;fill-rule:evenodd;stroke:#FF0000;stroke-width:2.0px;stroke-linecap:butt;stroke-linejoin:miter;stroke-opacity:1"/>
<path class="bond-7 atom-1 atom-8" d="M 1047.0,186.8 L 1091.9,176.6" style="fill:none;fill-rule:evenodd;stroke:#000000;stroke-width:2.0px;stroke-linecap:butt;stroke-linejoin:miter;stroke-opacity:1"/>
<path class="bond-8 atom-8 atom-9" d="M 1091.9,176.6 L 1105.6,132.6" style="fill:none;fill-rule:evenodd;stroke:#000000;stroke-width:2.0px;stroke-linecap:butt;stroke-linejoin:miter;stroke-opacity:1"/>
<path class="bond-8 atom-8 atom-9" d="M 1102.8,172.7 L 1112.3,141.9" style="fill:none;fill-rule:evenodd;stroke:#000000;stroke-width:2.0px;stroke-linecap:butt;stroke-linejoin:miter;stroke-opacity:1"/>
<path class="bond-9 atom-9 atom-10" d="M 1105.6,132.6 L 1150.5,122.4" style="fill:none;fill-rule:evenodd;stroke:#000000;stroke-width:2.0px;stroke-linecap:butt;stroke-linejoin:miter;stroke-opacity:1"/>
<path class="bond-10 atom-10 atom-11" d="M 1150.5,122.4 L 1181.8,156.2" style="fill:none;fill-rule:evenodd;stroke:#000000;stroke-width:2.0px;stroke-linecap:butt;stroke-linejoin:miter;stroke-opacity:1"/>
<path class="bond-10 atom-10 atom-11" d="M 1148.4,133.7 L 1170.4,157.4" style="fill:none;fill-rule:evenodd;stroke:#000000;stroke-width:2.0px;stroke-linecap:butt;stroke-linejoin:miter;stroke-opacity:1"/>
<path class="bond-11 atom-11 atom-12" d="M 1181.8,156.2 L 1168.2,200.2" style="fill:none;fill-rule:evenodd;stroke:#000000;stroke-width:2.0px;stroke-linecap:butt;stroke-linejoin:miter;stroke-opacity:1"/>
<path class="bond-12 atom-12 atom-13" d="M 1168.2,200.2 L 1123.2,210.4" style="fill:none;fill-rule:evenodd;stroke:#000000;stroke-width:2.0px;stroke-linecap:butt;stroke-linejoin:miter;stroke-opacity:1"/>
<path class="bond-12 atom-12 atom-13" d="M 1159.4,192.8 L 1127.9,199.9" style="fill:none;fill-rule:evenodd;stroke:#000000;stroke-width:2.0px;stroke-linecap:butt;stroke-linejoin:miter;stroke-opacity:1"/>
<path class="bond-13 atom-13 atom-8" d="M 1123.2,210.4 L 1091.9,176.6" style="fill:none;fill-rule:evenodd;stroke:#000000;stroke-width:2.0px;stroke-linecap:butt;stroke-linejoin:miter;stroke-opacity:1"/>
<path class="atom-0" d="M 1027.4 230.9 Q 1027.4 227.7, 1028.9 226.0 Q 1030.5 224.2, 1033.4 224.2 Q 1036.3 224.2, 1037.8 226.0 Q 1039.4 227.7, 1039.4 230.9 Q 1039.4 234.0, 1037.8 235.8 Q 1036.2 237.6, 1033.4 237.6 Q 1030.5 237.6, 1028.9 235.8 Q 1027.4 234.0, 1027.4 230.9 M 1033.4 236.1 Q 1035.4 236.1, 1036.4 234.8 Q 1037.5 233.5, 1037.5 230.9 Q 1037.5 228.3, 1036.4 227.0 Q 1035.4 225.7, 1033.4 225.7 Q 1031.4 225.7, 1030.3 227.0 Q 1029.2 228.3, 1029.2 230.9 Q 1029.2 233.5, 1030.3 234.8 Q 1031.4 236.1, 1033.4 236.1 " fill="#FF0000"/>
<path class="atom-2" d="M 1009.7 153.0 Q 1009.7 149.9, 1011.3 148.1 Q 1012.8 146.4, 1015.7 146.4 Q 1018.6 146.4, 1020.1 148.1 Q 1021.7 149.9, 1021.7 153.0 Q 1021.7 156.2, 1020.1 158.0 Q 1018.6 159.8, 1015.7 159.8 Q 1012.8 159.8, 1011.3 158.0 Q 1009.7 156.2, 1009.7 153.0 M 1015.7 158.3 Q 1017.7 158.3, 1018.8 157.0 Q 1019.9 155.6, 1019.9 153.0 Q 1019.9 150.5, 1018.8 149.2 Q 1017.7 147.9, 1015.7 147.9 Q 1013.7 147.9, 1012.6 149.1 Q 1011.6 150.4, 1011.6 153.0 Q 1011.6 155.7, 1012.6 157.0 Q 1013.7 158.3, 1015.7 158.3 " fill="#FF0000"/>
<path class="atom-7" d="M 818.2 187.3 L 820.0 187.3 L 820.0 192.9 L 826.6 192.9 L 826.6 187.3 L 828.4 187.3 L 828.4 200.4 L 826.6 200.4 L 826.6 194.3 L 820.0 194.3 L 820.0 200.4 L 818.2 200.4 L 818.2 187.3 " fill="#FF0000"/>
<path class="atom-7" d="M 830.0 193.8 Q 830.0 190.7, 831.5 188.9 Q 833.1 187.2, 836.0 187.2 Q 838.8 187.2, 840.4 188.9 Q 841.9 190.7, 841.9 193.8 Q 841.9 197.0, 840.4 198.8 Q 838.8 200.6, 836.0 200.6 Q 833.1 200.6, 831.5 198.8 Q 830.0 197.0, 830.0 193.8 M 836.0 199.1 Q 837.9 199.1, 839.0 197.8 Q 840.1 196.4, 840.1 193.8 Q 840.1 191.2, 839.0 190.0 Q 837.9 188.6, 836.0 188.6 Q 834.0 188.6, 832.9 189.9 Q 831.8 191.2, 831.8 193.8 Q 831.8 196.4, 832.9 197.8 Q 834.0 199.1, 836.0 199.1 " fill="#FF0000"/>
<path class="legend" d="M 972.3 365.4 L 972.5 366.5 Q 973.4 365.3, 974.8 365.3 Q 975.2 365.3, 975.8 365.4 L 975.6 366.8 Q 974.9 366.6, 974.5 366.6 Q 973.9 366.6, 973.4 366.9 Q 973.0 367.1, 972.6 367.8 L 972.6 373.6 L 971.1 373.6 L 971.1 365.4 L 972.3 365.4 " fill="#000000"/>
<path class="legend" d="M 976.1 369.5 Q 976.1 367.5, 977.1 366.4 Q 978.1 365.3, 979.9 365.3 Q 981.7 365.3, 982.5 366.4 Q 983.4 367.4, 983.4 369.5 L 983.4 369.7 L 977.6 369.7 Q 977.6 371.1, 978.3 371.8 Q 978.9 372.6, 980.1 372.6 Q 980.7 372.6, 981.3 372.4 Q 981.9 372.3, 982.6 372.0 L 983.0 373.0 Q 982.2 373.4, 981.5 373.6 Q 980.8 373.8, 980.0 373.8 Q 978.1 373.8, 977.1 372.6 Q 976.1 371.5, 976.1 369.5 M 979.9 366.4 Q 979.0 366.4, 978.4 367.0 Q 977.9 367.5, 977.7 368.6 L 981.8 368.6 Q 981.7 367.5, 981.2 367.0 Q 980.8 366.4, 979.9 366.4 " fill="#000000"/>
<path class="legend" d="M 984.0 371.4 Q 984.0 370.1, 985.0 369.4 Q 986.1 368.7, 988.0 368.7 L 989.2 368.7 L 989.2 368.3 Q 989.2 367.3, 988.8 366.9 Q 988.4 366.4, 987.4 366.4 Q 986.7 366.4, 986.2 366.6 Q 985.7 366.7, 984.9 367.0 L 984.4 366.0 Q 985.9 365.3, 987.4 365.3 Q 989.1 365.3, 989.9 366.0 Q 990.7 366.8, 990.7 368.4 L 990.7 373.6 L 989.6 373.6 Q 989.6 373.6, 989.5 373.3 Q 989.5 373.1, 989.4 372.7 Q 988.2 373.8, 986.7 373.8 Q 985.4 373.8, 984.7 373.2 Q 984.0 372.5, 984.0 371.4 M 985.5 371.4 Q 985.5 372.0, 985.9 372.3 Q 986.2 372.6, 987.0 372.6 Q 987.6 372.6, 988.2 372.4 Q 988.8 372.0, 989.2 371.5 L 989.2 369.8 L 988.1 369.8 Q 986.8 369.8, 986.1 370.2 Q 985.5 370.6, 985.5 371.4 " fill="#000000"/>
<path class="legend" d="M 992.0 369.5 Q 992.0 367.5, 993.0 366.4 Q 994.0 365.3, 995.9 365.3 Q 997.8 365.3, 998.8 366.6 L 997.7 367.4 Q 997.4 366.9, 996.9 366.7 Q 996.5 366.4, 995.9 366.4 Q 994.8 366.4, 994.1 367.2 Q 993.5 368.0, 993.5 369.5 Q 993.5 371.0, 994.1 371.8 Q 994.8 372.6, 996.0 372.6 Q 996.7 372.6, 997.1 372.4 Q 997.6 372.3, 998.2 372.0 L 998.6 373.0 Q 997.4 373.7, 995.9 373.7 Q 994.0 373.7, 993.0 372.6 Q 992.0 371.5, 992.0 369.5 " fill="#000000"/>
<path class="legend" d="M 999.1 366.6 L 999.1 365.4 L 1000.7 365.4 L 1001.0 363.0 L 1002.1 363.0 L 1002.1 365.4 L 1004.6 365.4 L 1004.6 366.6 L 1002.1 366.6 L 1002.1 371.1 Q 1002.1 372.5, 1003.3 372.5 Q 1003.8 372.5, 1004.5 372.3 L 1004.7 373.4 Q 1003.8 373.7, 1003.0 373.7 Q 1001.9 373.7, 1001.2 373.1 Q 1000.6 372.4, 1000.6 371.2 L 1000.6 366.6 L 999.1 366.6 " fill="#000000"/>
<path class="legend" d="M 1013.3 374.4 L 1013.3 375.7 L 1005.1 375.7 L 1005.1 374.4 L 1013.3 374.4 " fill="#000000"/>
<path class="legend" d="M 1019.2 363.6 L 1013.3 363.6 L 1013.3 362.3 L 1020.8 362.3 L 1020.8 363.4 L 1016.2 373.6 L 1014.7 373.6 L 1019.2 363.6 " fill="#000000"/>
<path class="legend" d="M 1026.7 367.7 Q 1027.8 368.0, 1028.3 368.7 Q 1028.9 369.4, 1028.9 370.5 Q 1028.9 371.5, 1028.4 372.2 Q 1027.9 373.0, 1027.0 373.4 Q 1026.2 373.8, 1025.0 373.8 Q 1023.8 373.8, 1022.9 373.4 Q 1022.0 372.9, 1021.3 372.1 L 1022.2 371.2 Q 1022.9 371.9, 1023.5 372.2 Q 1024.1 372.5, 1025.0 372.5 Q 1026.0 372.5, 1026.7 372.0 Q 1027.3 371.4, 1027.3 370.5 Q 1027.3 369.4, 1026.6 368.8 Q 1026.0 368.3, 1024.6 368.3 L 1023.8 368.3 L 1023.8 367.2 L 1024.5 367.2 Q 1025.7 367.2, 1026.4 366.6 Q 1027.0 366.1, 1027.0 365.1 Q 1027.0 364.3, 1026.5 363.9 Q 1026.0 363.5, 1025.0 363.5 Q 1024.1 363.5, 1023.5 363.8 Q 1022.9 364.1, 1022.5 365.0 L 1021.4 364.4 Q 1021.8 363.4, 1022.7 362.8 Q 1023.7 362.2, 1025.0 362.2 Q 1026.7 362.2, 1027.7 363.0 Q 1028.6 363.7, 1028.6 365.1 Q 1028.6 366.0, 1028.1 366.6 Q 1027.6 367.3, 1026.7 367.7 " fill="#000000"/>
<path class="legend" d="M 936.4 383.8 Q 936.4 381.8, 937.4 380.7 Q 938.4 379.5, 940.4 379.5 Q 942.2 379.5, 943.2 380.9 L 942.2 381.6 Q 941.8 381.2, 941.4 380.9 Q 940.9 380.7, 940.4 380.7 Q 939.2 380.7, 938.6 381.5 Q 938.0 382.3, 938.0 383.8 Q 938.0 385.3, 938.6 386.1 Q 939.3 386.8, 940.5 386.8 Q 941.1 386.8, 941.6 386.7 Q 942.1 386.5, 942.6 386.3 L 943.1 387.3 Q 941.9 388.0, 940.4 388.0 Q 938.4 388.0, 937.4 386.9 Q 936.4 385.7, 936.4 383.8 " fill="#000000"/>
<path class="legend" d="M 943.6 383.8 Q 943.6 381.7, 944.6 380.6 Q 945.6 379.5, 947.5 379.5 Q 949.3 379.5, 950.1 380.6 Q 950.9 381.7, 950.9 383.7 L 950.9 384.0 L 945.1 384.0 Q 945.2 385.4, 945.8 386.1 Q 946.4 386.8, 947.6 386.8 Q 948.2 386.8, 948.8 386.7 Q 949.4 386.5, 950.1 386.2 L 950.6 387.2 Q 949.7 387.6, 949.0 387.8 Q 948.3 388.0, 947.5 388.0 Q 945.7 388.0, 944.6 386.9 Q 943.6 385.8, 943.6 383.8 M 947.5 380.7 Q 946.5 380.7, 945.9 381.2 Q 945.4 381.8, 945.2 382.8 L 949.3 382.8 Q 949.2 381.7, 948.7 381.2 Q 948.3 380.7, 947.5 380.7 " fill="#000000"/>
<path class="legend" d="M 955.8 379.5 Q 957.1 379.5, 957.8 380.3 Q 958.5 381.0, 958.5 382.4 L 958.5 387.9 L 957.0 387.9 L 957.0 382.6 Q 957.0 381.6, 956.6 381.2 Q 956.2 380.7, 955.4 380.7 Q 954.6 380.7, 954.0 381.1 Q 953.4 381.4, 953.0 382.0 L 953.0 387.9 L 951.5 387.9 L 951.5 379.7 L 952.7 379.7 L 952.9 380.8 Q 954.0 379.5, 955.8 379.5 " fill="#000000"/>
<path class="legend" d="M 959.7 380.8 L 959.7 379.7 L 961.3 379.7 L 961.5 377.3 L 962.7 377.3 L 962.7 379.7 L 965.2 379.7 L 965.2 380.8 L 962.7 380.8 L 962.7 385.4 Q 962.7 386.8, 963.9 386.8 Q 964.3 386.8, 965.0 386.6 L 965.3 387.6 Q 964.4 388.0, 963.6 388.0 Q 962.5 388.0, 961.8 387.3 Q 961.2 386.7, 961.2 385.4 L 961.2 380.8 L 959.7 380.8 " fill="#000000"/>
<path class="legend" d="M 973.9 388.7 L 973.9 390.0 L 965.7 390.0 L 965.7 388.7 L 973.9 388.7 " fill="#000000"/>
<path class="legend" d="M 981.3 375.7 L 981.3 387.9 L 980.1 387.9 L 979.9 386.9 Q 979.0 388.0, 977.5 388.0 Q 975.8 388.0, 974.8 387.0 Q 973.9 385.9, 973.9 383.9 Q 973.9 381.8, 975.0 380.7 Q 976.1 379.5, 978.1 379.5 Q 978.9 379.5, 979.8 379.7 L 979.8 375.7 L 981.3 375.7 M 977.6 386.8 Q 978.4 386.8, 979.0 386.4 Q 979.6 385.9, 979.8 385.1 L 979.8 380.9 Q 979.0 380.7, 978.1 380.7 Q 976.8 380.7, 976.1 381.6 Q 975.4 382.4, 975.4 383.9 Q 975.4 385.3, 976.0 386.1 Q 976.5 386.8, 977.6 386.8 " fill="#000000"/>
<path class="legend" d="M 982.6 376.6 L 984.1 376.6 L 984.1 378.0 L 982.6 378.0 L 982.6 376.6 M 982.6 379.7 L 984.1 379.7 L 984.1 387.9 L 982.6 387.9 L 982.6 379.7 " fill="#000000"/>
<path class="legend" d="M 985.9 386.2 Q 986.6 386.5, 987.2 386.6 Q 987.7 386.8, 988.2 386.8 Q 989.0 386.8, 989.4 386.5 Q 989.8 386.2, 989.8 385.6 Q 989.8 385.2, 989.6 385.0 Q 989.3 384.8, 989.1 384.6 Q 988.8 384.5, 988.1 384.3 Q 988.0 384.3, 987.3 384.0 Q 986.5 383.7, 986.1 383.2 Q 985.7 382.7, 985.7 381.9 Q 985.7 380.9, 986.5 380.2 Q 987.3 379.5, 988.8 379.5 Q 989.4 379.5, 989.9 379.7 Q 990.5 379.8, 991.1 380.0 L 990.7 381.2 Q 990.2 381.0, 989.7 380.9 Q 989.3 380.8, 988.8 380.8 Q 988.0 380.8, 987.6 381.1 Q 987.2 381.4, 987.2 381.8 Q 987.2 382.3, 987.5 382.5 Q 987.8 382.7, 988.5 383.0 Q 988.7 383.0, 988.8 383.1 L 989.2 383.2 Q 989.9 383.4, 990.3 383.7 Q 990.7 383.9, 991.0 384.4 Q 991.3 384.8, 991.3 385.6 Q 991.3 386.7, 990.4 387.4 Q 989.6 388.0, 988.3 388.0 Q 987.5 388.0, 986.8 387.9 Q 986.1 387.7, 985.5 387.4 L 985.9 386.2 " fill="#000000"/>
<path class="legend" d="M 992.1 380.8 L 992.1 379.7 L 993.7 379.7 L 994.0 377.3 L 995.1 377.3 L 995.1 379.7 L 997.6 379.7 L 997.6 380.8 L 995.1 380.8 L 995.1 385.4 Q 995.1 386.8, 996.3 386.8 Q 996.8 386.8, 997.5 386.6 L 997.7 387.6 Q 996.8 388.0, 996.0 388.0 Q 994.9 388.0, 994.2 387.3 Q 993.6 386.7, 993.6 385.4 L 993.6 380.8 L 992.1 380.8 " fill="#000000"/>
<path class="legend" d="" fill="#000000"/>
<path class="legend" d="M 1003.4 380.9 L 1010.8 380.9 L 1010.8 382.1 L 1003.4 382.1 L 1003.4 380.9 M 1003.4 384.4 L 1010.8 384.4 L 1010.8 385.5 L 1003.4 385.5 L 1003.4 384.4 " fill="#000000"/>
<path class="legend" d="" fill="#000000"/>
<path class="legend" d="M 1021.7 388.0 Q 1019.6 388.0, 1018.6 386.5 Q 1017.6 384.9, 1017.6 382.2 Q 1017.6 379.5, 1018.6 378.0 Q 1019.6 376.4, 1021.7 376.4 Q 1023.8 376.4, 1024.8 378.0 Q 1025.9 379.5, 1025.9 382.2 Q 1025.9 384.9, 1024.8 386.5 Q 1023.8 388.0, 1021.7 388.0 M 1021.7 386.7 Q 1022.9 386.7, 1023.6 385.6 Q 1024.3 384.4, 1024.3 382.2 Q 1024.3 380.0, 1023.6 378.8 Q 1022.9 377.7, 1021.7 377.7 Q 1020.5 377.7, 1019.8 378.8 Q 1019.2 380.0, 1019.2 382.2 Q 1019.2 384.4, 1019.8 385.6 Q 1020.5 386.7, 1021.7 386.7 " fill="#000000"/>
<path class="legend" d="M 1026.9 386.3 L 1028.5 386.3 L 1028.5 387.9 L 1026.9 387.9 L 1026.9 386.3 " fill="#000000"/>
<path class="legend" d="M 1033.3 376.4 Q 1035.4 376.4, 1036.4 377.8 Q 1037.4 379.2, 1037.4 381.9 Q 1037.4 384.9, 1036.1 386.5 Q 1034.9 388.0, 1032.5 388.0 Q 1031.8 388.0, 1031.1 387.9 Q 1030.6 387.7, 1030.0 387.4 L 1030.6 386.3 Q 1031.4 386.7, 1032.4 386.7 Q 1034.0 386.7, 1034.9 385.7 Q 1035.7 384.7, 1035.8 382.5 Q 1035.2 383.1, 1034.5 383.4 Q 1033.7 383.6, 1033.0 383.6 Q 1032.0 383.6, 1031.2 383.2 Q 1030.4 382.8, 1030.0 382.0 Q 1029.5 381.2, 1029.5 380.2 Q 1029.5 379.1, 1030.0 378.3 Q 1030.5 377.4, 1031.4 376.9 Q 1032.2 376.4, 1033.3 376.4 M 1031.1 380.2 Q 1031.1 381.2, 1031.7 381.8 Q 1032.3 382.4, 1033.2 382.4 Q 1033.9 382.4, 1034.6 382.1 Q 1035.3 381.8, 1035.8 381.3 Q 1035.7 379.4, 1035.1 378.6 Q 1034.5 377.7, 1033.3 377.7 Q 1032.7 377.7, 1032.2 378.1 Q 1031.7 378.4, 1031.4 378.9 Q 1031.1 379.5, 1031.1 380.2 " fill="#000000"/>
<path class="legend" d="M 1042.9 380.8 Q 1043.9 380.8, 1044.7 381.2 Q 1045.5 381.7, 1045.9 382.5 Q 1046.3 383.2, 1046.3 384.2 Q 1046.3 385.3, 1045.8 386.2 Q 1045.4 387.1, 1044.5 387.5 Q 1043.6 388.0, 1042.5 388.0 Q 1040.5 388.0, 1039.5 386.7 Q 1038.5 385.3, 1038.5 382.6 Q 1038.5 379.6, 1039.7 378.0 Q 1041.0 376.4, 1043.4 376.4 Q 1044.1 376.4, 1044.7 376.6 Q 1045.3 376.8, 1045.9 377.1 L 1045.3 378.2 Q 1044.4 377.7, 1043.4 377.7 Q 1041.8 377.7, 1041.0 378.8 Q 1040.2 379.8, 1040.1 381.9 Q 1040.7 381.4, 1041.4 381.1 Q 1042.1 380.8, 1042.9 380.8 M 1042.5 386.7 Q 1043.1 386.7, 1043.6 386.4 Q 1044.2 386.1, 1044.4 385.5 Q 1044.7 384.9, 1044.7 384.3 Q 1044.7 383.2, 1044.2 382.7 Q 1043.6 382.1, 1042.6 382.1 Q 1041.9 382.1, 1041.2 382.4 Q 1040.6 382.7, 1040.1 383.1 Q 1040.2 385.0, 1040.7 385.9 Q 1041.3 386.7, 1042.5 386.7 " fill="#000000"/>
<path class="legend" d="M 1051.6 380.8 Q 1052.6 380.8, 1053.4 381.2 Q 1054.2 381.7, 1054.6 382.5 Q 1055.1 383.2, 1055.1 384.2 Q 1055.1 385.3, 1054.6 386.2 Q 1054.1 387.1, 1053.2 387.5 Q 1052.4 388.0, 1051.3 388.0 Q 1049.2 388.0, 1048.2 386.7 Q 1047.2 385.3, 1047.2 382.6 Q 1047.2 379.6, 1048.5 378.0 Q 1049.7 376.4, 1052.1 376.4 Q 1052.8 376.4, 1053.4 376.6 Q 1054.0 376.8, 1054.6 377.1 L 1054.0 378.2 Q 1053.2 377.7, 1052.2 377.7 Q 1050.6 377.7, 1049.7 378.8 Q 1048.9 379.8, 1048.8 381.9 Q 1049.4 381.4, 1050.1 381.1 Q 1050.9 380.8, 1051.6 380.8 M 1051.3 386.7 Q 1051.9 386.7, 1052.4 386.4 Q 1052.9 386.1, 1053.2 385.5 Q 1053.5 384.9, 1053.5 384.3 Q 1053.5 383.2, 1052.9 382.7 Q 1052.3 382.1, 1051.4 382.1 Q 1050.7 382.1, 1050.0 382.4 Q 1049.3 382.7, 1048.8 383.1 Q 1048.9 385.0, 1049.5 385.9 Q 1050.1 386.7, 1051.3 386.7 " fill="#000000"/>
<path class="legend" d="M 1061.4 381.9 Q 1062.5 382.2, 1063.0 383.0 Q 1063.6 383.7, 1063.6 384.8 Q 1063.6 385.7, 1063.1 386.5 Q 1062.6 387.2, 1061.7 387.6 Q 1060.8 388.0, 1059.7 388.0 Q 1058.5 388.0, 1057.6 387.6 Q 1056.7 387.2, 1055.9 386.3 L 1056.9 385.4 Q 1057.6 386.2, 1058.2 386.5 Q 1058.7 386.8, 1059.7 386.8 Q 1060.7 386.8, 1061.3 386.2 Q 1062.0 385.7, 1062.0 384.8 Q 1062.0 383.6, 1061.3 383.1 Q 1060.7 382.6, 1059.3 382.6 L 1058.5 382.6 L 1058.5 381.4 L 1059.2 381.4 Q 1060.4 381.4, 1061.1 380.9 Q 1061.7 380.3, 1061.7 379.3 Q 1061.7 378.6, 1061.2 378.2 Q 1060.6 377.7, 1059.7 377.7 Q 1058.8 377.7, 1058.2 378.0 Q 1057.6 378.4, 1057.1 379.2 L 1056.0 378.6 Q 1056.4 377.7, 1057.4 377.1 Q 1058.4 376.4, 1059.7 376.4 Q 1061.4 376.4, 1062.3 377.2 Q 1063.3 378.0, 1063.3 379.3 Q 1063.3 380.2, 1062.8 380.9 Q 1062.3 381.6, 1061.4 381.9 " fill="#000000"/>
</svg>