<svg xmlns="http://www.w3.org/2000/svg" xmlns:rdkit="http://www.rdkit.org/xml" xmlns:xlink="http://www.w3.org/1999/xlink" version="1.1" baseProfile="full" xml:space="preserve" width="2000px" height="800px" viewBox="0 0 2000 800">
<!-- END OF HEADER -->
<rect style="opacity:1.0;fill:#FFFFFF;stroke:none" width="2000.0" height="800.0" x="0.0" y="0.0"> </rect>
<path class="bond-0 atom-0 atom-1" d="M 18.2,229.6 L 25.0,212.4" style="fill:none;fill-rule:evenodd;stroke:#000000;stroke-width:2.0px;stroke-linecap:butt;stroke-linejoin:miter;stroke-opacity:1"/>
<path class="bond-0 atom-0 atom-1" d="M 25.0,212.4 L 31.7,195.1" style="fill:none;fill-rule:evenodd;stroke:#FF0000;stroke-width:2.0px;stroke-linecap:butt;stroke-linejoin:miter;stroke-opacity:1"/>
<path class="bond-1 atom-1 atom-2" d="M 42.5,185.7 L 61.5,182.9" style="fill:none;fill-rule:evenodd;stroke:#FF0000;stroke-width:2.0px;stroke-linecap:butt;stroke-linejoin:miter;stroke-opacity:1"/>
<path class="bond-1 atom-1 atom-2" d="M 61.5,182.9 L 80.4,180.0" style="fill:none;fill-rule:evenodd;stroke:#000000;stroke-width:2.0px;stroke-linecap:butt;stroke-linejoin:miter;stroke-opacity:1"/>
<path class="bond-2 atom-2 atom-3" d="M 80.4,180.0 L 97.3,137.2" style="fill:none;fill-rule:evenodd;stroke:#000000;stroke-width:2.0px;stroke-linecap:butt;stroke-linejoin:miter;stroke-opacity:1"/>
<path class="bond-3 atom-3 atom-4" d="M 97.3,137.2 L 142.7,130.4" style="fill:none;fill-rule:evenodd;stroke:#000000;stroke-width:2.0px;stroke-linecap:butt;stroke-linejoin:miter;stroke-opacity:1"/>
<path class="bond-3 atom-3 atom-4" d="M 105.4,145.3 L 137.3,140.5" style="fill:none;fill-rule:evenodd;stroke:#000000;stroke-width:2.0px;stroke-linecap:butt;stroke-linejoin:miter;stroke-opacity:1"/>
<path class="bond-4 atom-4 atom-5" d="M 142.7,130.4 L 171.4,166.3" style="fill:none;fill-rule:evenodd;stroke:#000000;stroke-width:2.0px;stroke-linecap:butt;stroke-linejoin:miter;stroke-opacity:1"/>
<path class="bond-5 atom-5 atom-6" d="M 171.4,166.3 L 190.3,163.5" style="fill:none;fill-rule:evenodd;stroke:#000000;stroke-width:2.0px;stroke-linecap:butt;stroke-linejoin:miter;stroke-opacity:1"/>
<path class="bond-5 atom-5 atom-6" d="M 190.3,163.5 L 209.3,160.6" style="fill:none;fill-rule:evenodd;stroke:#FF0000;stroke-width:2.0px;stroke-linecap:butt;stroke-linejoin:miter;stroke-opacity:1"/>
<path class="bond-6 atom-6 atom-7" d="M 223.4,167.8 L 234.4,181.6" style="fill:none;fill-rule:evenodd;stroke:#FF0000;stroke-width:2.0px;stroke-linecap:butt;stroke-linejoin:miter;stroke-opacity:1"/>
<path class="bond-6 atom-6 atom-7" d="M 234.4,181.6 L 245.5,195.4" style="fill:none;fill-rule:evenodd;stroke:#000000;stroke-width:2.0px;stroke-linecap:butt;stroke-linejoin:miter;stroke-opacity:1"/>
<path class="bond-7 atom-7 atom-8" d="M 245.5,195.4 L 290.9,188.6" style="fill:none;fill-rule:evenodd;stroke:#000000;stroke-width:2.0px;stroke-linecap:butt;stroke-linejoin:miter;stroke-opacity:1"/>
<path class="bond-8 atom-8 atom-9" d="M 290.9,188.6 L 307.7,145.8" style="fill:none;fill-rule:evenodd;stroke:#000000;stroke-width:2.0px;stroke-linecap:butt;stroke-linejoin:miter;stroke-opacity:1"/>
<path class="bond-8 atom-8 atom-9" d="M 302.0,185.6 L 313.8,155.6" style="fill:none;fill-rule:evenodd;stroke:#000000;stroke-width:2.0px;stroke-linecap:butt;stroke-linejoin:miter;stroke-opacity:1"/>
<path class="bond-9 atom-9 atom-10" d="M 307.7,145.8 L 353.2,139.0" style="fill:none;fill-rule:evenodd;stroke:#000000;stroke-width:2.0px;stroke-linecap:butt;stroke-linejoin:miter;stroke-opacity:1"/>
<path class="bond-10 atom-10 atom-11" d="M 353.2,139.0 L 381.8,174.9" style="fill:none;fill-rule:evenodd;stroke:#000000;stroke-width:2.0px;stroke-linecap:butt;stroke-linejoin:miter;stroke-opacity:1"/>
<path class="bond-10 atom-10 atom-11" d="M 350.3,150.1 L 370.3,175.3" style="fill:none;fill-rule:evenodd;stroke:#000000;stroke-width:2.0px;stroke-linecap:butt;stroke-linejoin:miter;stroke-opacity:1"/>
<path class="bond-11 atom-11 atom-12" d="M 381.8,174.9 L 365.0,217.7" style="fill:none;fill-rule:evenodd;stroke:#000000;stroke-width:2.0px;stroke-linecap:butt;stroke-linejoin:miter;stroke-opacity:1"/>
<path class="bond-12 atom-12 atom-13" d="M 365.0,217.7 L 319.6,224.6" style="fill:none;fill-rule:evenodd;stroke:#000000;stroke-width:2.0px;stroke-linecap:butt;stroke-linejoin:miter;stroke-opacity:1"/>
<path class="bond-12 atom-12 atom-13" d="M 356.8,209.7 L 325.0,214.4" style="fill:none;fill-rule:evenodd;stroke:#000000;stroke-width:2.0px;stroke-linecap:butt;stroke-linejoin:miter;stroke-opacity:1"/>
<path class="bond-13 atom-13 atom-8" d="M 319.6,224.6 L 290.9,188.6" style="fill:none;fill-rule:evenodd;stroke:#000000;stroke-width:2.0px;stroke-linecap:butt;stroke-linejoin:miter;stroke-opacity:1"/>
<path class="atom-1" d="M 29.0 186.9 Q 29.0 183.7, 30.6 182.0 Q 32.1 180.3, 35.0 180.3 Q 37.9 180.3, 39.4 182.0 Q 41.0 183.7, 41.0 186.9 Q 41.0 190.0, 39.4 191.8 Q 37.8 193.6, 35.0 193.6 Q 32.1 193.6, 30.6 191.8 Q 29.0 190.1, 29.0 186.9 M 35.0 192.1 Q 37.0 192.1, 38.0 190.8 Q 39.1 189.5, 39.1 186.9 Q 39.1 184.3, 38.0 183.0 Q 37.0 181.7, 35.0 181.7 Q 33.0 181.7, 31.9 183.0 Q 30.9 184.3, 30.9 186.9 Q 30.9 189.5, 31.9 190.8 Q 33.0 192.1, 35.0 192.1 " fill="#FF0000"/>
<path class="atom-6" d="M 210.8 159.5 Q 210.8 156.4, 212.4 154.7 Q 213.9 152.9, 216.8 152.9 Q 219.7 152.9, 221.2 154.7 Q 222.8 156.4, 222.8 159.5 Q 222.8 162.7, 221.2 164.5 Q 219.7 166.3, 216.8 166.3 Q 213.9 166.3, 212.4 164.5 Q 210.8 162.7, 210.8 159.5 M 216.8 164.8 Q 218.8 164.8, 219.9 163.5 Q 220.9 162.1, 220.9 159.5 Q 220.9 157.0, 219.9 155.7 Q 218.8 154.4, 216.8 154.4 Q 214.8 154.4, 213.7 155.7 Q 212.7 157.0, 212.7 159.5 Q 212.7 162.2, 213.7 163.5 Q 214.8 164.8, 216.8 164.8 " fill="#FF0000"/>
<path class="legend" d="M 167.9 365.4 L 168.1 366.5 Q 169.0 365.3, 170.4 365.3 Q 170.8 365.3, 171.4 365.4 L 171.2 366.8 Q 170.5 366.6, 170.1 366.6 Q 169.4 366.6, 169.0 366.9 Q 168.6 367.1, 168.2 367.8 L 168.2 373.6 L 166.7 373.6 L 166.7 365.4 L 167.9 365.4 " fill="#000000"/>
<path class="legend" d="M 171.7 369.5 Q 171.7 367.5, 172.7 366.4 Q 173.7 365.3, 175.5 365.3 Q 177.3 365.3, 178.1 366.4 Q 179.0 367.4, 179.0 369.5 L 179.0 369.7 L 173.2 369.7 Q 173.2 371.1, 173.9 371.8 Q 174.5 372.6, 175.7 372.6 Q 176.3 372.6, 176.9 372.4 Q 177.5 372.3, 178.2 372.0 L 178.6 373.0 Q 177.8 373.4, 177.1 373.6 Q 176.3 373.8, 175.6 373.8 Q 173.7 373.8, 172.7 372.6 Q 171.7 371.5, 171.7 369.5 M 175.5 366.4 Q 174.6 366.4, 174.0 367.0 Q 173.4 367.5, 173.3 368.6 L 177.4 368.6 Q 177.3 367.5, 176.8 367.0 Q 176.4 366.4, 175.5 366.4 " fill="#000000"/>
<path class="legend" d="M 179.6 371.4 Q 179.6 370.1, 180.6 369.4 Q 181.7 368.7, 183.6 368.7 L 184.8 368.7 L 184.8 368.3 Q 184.8 367.3, 184.4 366.9 Q 184.0 366.4, 183.0 366.4 Q 182.3 366.4, 181.8 366.6 Q 181.3 366.7, 180.5 367.0 L 180.0 366.0 Q 181.5 365.3, 183.0 365.3 Q 184.7 365.3, 185.5 366.0 Q 186.3 366.8, 186.3 368.4 L 186.3 373.6 L 185.2 373.6 Q 185.1 373.6, 185.1 373.3 Q 185.0 373.1, 185.0 372.7 Q 183.8 373.8, 182.3 373.8 Q 181.0 373.8, 180.3 373.2 Q 179.6 372.5, 179.6 371.4 M 181.1 371.4 Q 181.1 372.0, 181.4 372.3 Q 181.8 372.6, 182.6 372.6 Q 183.2 372.6, 183.8 372.4 Q 184.4 372.0, 184.8 371.5 L 184.8 369.8 L 183.7 369.8 Q 182.4 369.8, 181.7 370.2 Q 181.1 370.6, 181.1 371.4 " fill="#000000"/>
<path class="legend" d="M 187.6 369.5 Q 187.6 367.5, 188.6 366.4 Q 189.5 365.3, 191.5 365.3 Q 193.4 365.3, 194.3 366.6 L 193.3 367.4 Q 193.0 366.9, 192.5 366.7 Q 192.1 366.4, 191.5 366.4 Q 190.4 366.4, 189.7 367.2 Q 189.1 368.0, 189.1 369.5 Q 189.1 371.0, 189.7 371.8 Q 190.4 372.6, 191.6 372.6 Q 192.3 372.6, 192.7 372.4 Q 193.2 372.3, 193.8 372.0 L 194.2 373.0 Q 193.0 373.7, 191.5 373.7 Q 189.5 373.7, 188.6 372.6 Q 187.6 371.5, 187.6 369.5 " fill="#000000"/>
<path class="legend" d="M 194.7 366.6 L 194.7 365.4 L 196.3 365.4 L 196.6 363.0 L 197.7 363.0 L 197.7 365.4 L 200.2 365.4 L 200.2 366.6 L 197.7 366.6 L 197.7 371.1 Q 197.7 372.5, 198.9 372.5 Q 199.4 372.5, 200.1 372.3 L 200.3 373.4 Q 199.4 373.7, 198.6 373.7 Q 197.5 373.7, 196.8 373.1 Q 196.2 372.4, 196.2 371.2 L 196.2 366.6 L 194.7 366.6 " fill="#000000"/>
<path class="legend" d="M 208.9 374.4 L 208.9 375.7 L 200.7 375.7 L 200.7 374.4 L 208.9 374.4 " fill="#000000"/>
<path class="legend" d="M 213.0 366.5 Q 214.0 366.5, 214.8 367.0 Q 215.6 367.4, 216.1 368.2 Q 216.5 369.0, 216.5 370.0 Q 216.5 371.2, 216.0 372.1 Q 215.4 372.9, 214.5 373.3 Q 213.5 373.8, 212.5 373.8 Q 211.4 373.8, 210.5 373.4 Q 209.5 373.0, 208.9 372.3 L 209.8 371.3 Q 210.4 371.8, 211.1 372.2 Q 211.8 372.5, 212.5 372.5 Q 213.5 372.5, 214.2 371.8 Q 214.9 371.2, 214.9 370.1 Q 214.9 368.9, 214.2 368.3 Q 213.5 367.7, 212.4 367.7 Q 211.4 367.7, 210.3 368.2 L 209.5 367.8 L 210.0 362.3 L 215.8 362.3 L 215.7 363.6 L 211.3 363.6 L 211.0 366.9 Q 212.0 366.5, 213.0 366.5 " fill="#000000"/>
<path class="legend" d="M 223.2 363.6 L 217.3 363.6 L 217.3 362.3 L 224.8 362.3 L 224.8 363.4 L 220.2 373.6 L 218.7 373.6 L 223.2 363.6 " fill="#000000"/>
<path class="legend" d="M 231.1 367.6 Q 232.1 368.1, 232.7 368.8 Q 233.3 369.4, 233.3 370.5 Q 233.3 371.5, 232.8 372.2 Q 232.3 373.0, 231.4 373.4 Q 230.5 373.8, 229.4 373.8 Q 227.5 373.8, 226.4 372.9 Q 225.3 372.0, 225.3 370.5 Q 225.3 369.6, 225.8 368.9 Q 226.2 368.2, 227.2 367.7 Q 226.5 367.3, 226.1 366.7 Q 225.7 366.0, 225.7 365.1 Q 225.7 363.7, 226.7 363.0 Q 227.6 362.2, 229.3 362.2 Q 230.9 362.2, 231.9 363.0 Q 232.9 363.7, 232.9 365.1 Q 232.9 365.9, 232.4 366.5 Q 232.0 367.1, 231.1 367.6 M 229.3 363.4 Q 228.3 363.4, 227.8 363.8 Q 227.3 364.3, 227.3 365.1 Q 227.3 365.7, 227.7 366.1 Q 228.0 366.4, 228.5 366.7 Q 229.0 366.9, 230.0 367.2 Q 230.7 366.8, 231.0 366.2 Q 231.3 365.7, 231.3 365.1 Q 231.3 364.3, 230.7 363.8 Q 230.2 363.4, 229.3 363.4 M 229.4 372.6 Q 230.4 372.6, 231.0 372.0 Q 231.7 371.5, 231.7 370.5 Q 231.7 369.9, 231.4 369.5 Q 231.0 369.1, 230.5 368.9 Q 230.0 368.7, 229.1 368.4 L 228.4 368.2 Q 227.6 368.6, 227.2 369.2 Q 226.9 369.8, 226.9 370.5 Q 226.9 371.5, 227.6 372.0 Q 228.2 372.6, 229.4 372.6 " fill="#000000"/>
<path class="legend" d="M 136.7 383.8 Q 136.7 381.8, 137.7 380.7 Q 138.6 379.5, 140.6 379.5 Q 142.5 379.5, 143.4 380.9 L 142.4 381.6 Q 142.1 381.2, 141.6 380.9 Q 141.2 380.7, 140.6 380.7 Q 139.5 380.7, 138.8 381.5 Q 138.2 382.3, 138.2 383.8 Q 138.2 385.3, 138.8 386.1 Q 139.5 386.8, 140.7 386.8 Q 141.4 386.8, 141.8 386.7 Q 142.3 386.5, 142.9 386.3 L 143.3 387.3 Q 142.1 388.0, 140.6 388.0 Q 138.6 388.0, 137.7 386.9 Q 136.7 385.7, 136.7 383.8 " fill="#000000"/>
<path class="legend" d="M 143.8 383.8 Q 143.8 381.7, 144.8 380.6 Q 145.8 379.5, 147.7 379.5 Q 149.5 379.5, 150.3 380.6 Q 151.1 381.7, 151.1 383.7 L 151.1 384.0 L 145.4 384.0 Q 145.4 385.4, 146.0 386.1 Q 146.6 386.8, 147.8 386.8 Q 148.5 386.8, 149.0 386.7 Q 149.6 386.5, 150.4 386.2 L 150.8 387.2 Q 150.0 387.6, 149.2 387.8 Q 148.5 388.0, 147.7 388.0 Q 145.9 388.0, 144.9 386.9 Q 143.8 385.8, 143.8 383.8 M 147.7 380.7 Q 146.7 380.7, 146.2 381.2 Q 145.6 381.8, 145.4 382.8 L 149.5 382.8 Q 149.4 381.7, 149.0 381.2 Q 148.5 380.7, 147.7 380.7 " fill="#000000"/>
<path class="legend" d="M 156.0 379.5 Q 157.3 379.5, 158.0 380.3 Q 158.7 381.0, 158.7 382.4 L 158.7 387.9 L 157.2 387.9 L 157.2 382.6 Q 157.2 381.6, 156.8 381.2 Q 156.5 380.7, 155.6 380.7 Q 154.9 380.7, 154.2 381.1 Q 153.6 381.4, 153.2 382.0 L 153.2 387.9 L 151.7 387.9 L 151.7 379.7 L 152.9 379.7 L 153.1 380.8 Q 154.2 379.5, 156.0 379.5 " fill="#000000"/>
<path class="legend" d="M 159.9 380.8 L 159.9 379.7 L 161.5 379.7 L 161.8 377.3 L 162.9 377.3 L 162.9 379.7 L 165.4 379.7 L 165.4 380.8 L 162.9 380.8 L 162.9 385.4 Q 162.9 386.8, 164.1 386.8 Q 164.6 386.8, 165.3 386.6 L 165.5 387.6 Q 164.6 388.0, 163.8 388.0 Q 162.7 388.0, 162.1 387.3 Q 161.4 386.7, 161.4 385.4 L 161.4 380.8 L 159.9 380.8 " fill="#000000"/>
<path class="legend" d="M 174.1 388.7 L 174.1 390.0 L 165.9 390.0 L 165.9 388.7 L 174.1 388.7 " fill="#000000"/>
<path class="legend" d="M 181.6 375.7 L 181.6 387.9 L 180.3 387.9 L 180.1 386.9 Q 179.2 388.0, 177.7 388.0 Q 176.0 388.0, 175.0 387.0 Q 174.1 385.9, 174.1 383.9 Q 174.1 381.8, 175.2 380.7 Q 176.3 379.5, 178.3 379.5 Q 179.2 379.5, 180.1 379.7 L 180.1 375.7 L 181.6 375.7 M 177.8 386.8 Q 178.6 386.8, 179.2 386.4 Q 179.8 385.9, 180.1 385.1 L 180.1 380.9 Q 179.2 380.7, 178.3 380.7 Q 177.1 380.7, 176.3 381.6 Q 175.6 382.4, 175.6 383.9 Q 175.6 385.3, 176.2 386.1 Q 176.8 386.8, 177.8 386.8 " fill="#000000"/>
<path class="legend" d="M 182.8 376.6 L 184.3 376.6 L 184.3 378.0 L 182.8 378.0 L 182.8 376.6 M 182.8 379.7 L 184.3 379.7 L 184.3 387.9 L 182.8 387.9 L 182.8 379.7 " fill="#000000"/>
<path class="legend" d="M 186.1 386.2 Q 186.9 386.5, 187.4 386.6 Q 187.9 386.8, 188.5 386.8 Q 189.2 386.8, 189.6 386.5 Q 190.0 386.2, 190.0 385.6 Q 190.0 385.2, 189.8 385.0 Q 189.6 384.8, 189.3 384.6 Q 189.0 384.5, 188.3 384.3 Q 188.2 384.3, 187.5 384.0 Q 186.7 383.7, 186.3 383.2 Q 186.0 382.7, 186.0 381.9 Q 186.0 380.9, 186.7 380.2 Q 187.5 379.5, 189.0 379.5 Q 189.6 379.5, 190.1 379.7 Q 190.7 379.8, 191.3 380.0 L 190.9 381.2 Q 190.4 381.0, 189.9 380.9 Q 189.5 380.8, 189.0 380.8 Q 188.2 380.8, 187.8 381.1 Q 187.5 381.4, 187.5 381.8 Q 187.5 382.3, 187.8 382.5 Q 188.1 382.7, 188.7 383.0 Q 188.9 383.0, 189.1 383.1 L 189.4 383.2 Q 190.1 383.4, 190.5 383.7 Q 190.9 383.9, 191.2 384.4 Q 191.5 384.8, 191.5 385.6 Q 191.5 386.7, 190.7 387.4 Q 189.8 388.0, 188.5 388.0 Q 187.7 388.0, 187.0 387.9 Q 186.4 387.7, 185.7 387.4 L 186.1 386.2 " fill="#000000"/>
<path class="legend" d="M 192.4 380.8 L 192.4 379.7 L 193.9 379.7 L 194.2 377.3 L 195.3 377.3 L 195.3 379.7 L 197.8 379.7 L 197.8 380.8 L 195.3 380.8 L 195.3 385.4 Q 195.3 386.8, 196.5 386.8 Q 197.0 386.8, 197.7 386.6 L 197.9 387.6 Q 197.1 388.0, 196.2 388.0 Q 195.2 388.0, 194.5 387.3 Q 193.8 386.7, 193.8 385.4 L 193.8 380.8 L 192.4 380.8 " fill="#000000"/>
<path class="legend" d="" fill="#000000"/>
<path class="legend" d="M 203.7 380.9 L 211.0 380.9 L 211.0 382.1 L 203.7 382.1 L 203.7 380.9 M 203.7 384.4 L 211.0 384.4 L 211.0 385.5 L 203.7 385.5 L 203.7 384.4 " fill="#000000"/>
<path class="legend" d="" fill="#000000"/>
<path class="legend" d="M 221.9 388.0 Q 219.9 388.0, 218.8 386.5 Q 217.8 384.9, 217.8 382.2 Q 217.8 379.5, 218.8 378.0 Q 219.8 376.4, 221.9 376.4 Q 224.0 376.4, 225.1 378.0 Q 226.1 379.5, 226.1 382.2 Q 226.1 384.9, 225.0 386.5 Q 224.0 388.0, 221.9 388.0 M 221.9 386.7 Q 223.2 386.7, 223.8 385.6 Q 224.5 384.4, 224.5 382.2 Q 224.5 380.0, 223.8 378.8 Q 223.2 377.7, 221.9 377.7 Q 220.7 377.7, 220.0 378.8 Q 219.4 380.0, 219.4 382.2 Q 219.4 384.4, 220.0 385.6 Q 220.7 386.7, 221.9 386.7 " fill="#000000"/>
<path class="legend" d="M 227.1 386.3 L 228.7 386.3 L 228.7 387.9 L 227.1 387.9 L 227.1 386.3 " fill="#000000"/>
<path class="legend" d="M 234.2 380.8 Q 235.2 380.8, 236.0 381.2 Q 236.7 381.7, 237.2 382.5 Q 237.6 383.2, 237.6 384.2 Q 237.6 385.3, 237.1 386.2 Q 236.6 387.1, 235.8 387.5 Q 234.9 388.0, 233.8 388.0 Q 231.8 388.0, 230.8 386.7 Q 229.8 385.3, 229.8 382.6 Q 229.8 379.6, 231.0 378.0 Q 232.3 376.4, 234.7 376.4 Q 235.4 376.4, 236.0 376.6 Q 236.6 376.8, 237.2 377.1 L 236.5 378.2 Q 235.7 377.7, 234.7 377.7 Q 233.1 377.7, 232.3 378.8 Q 231.5 379.8, 231.4 381.9 Q 231.9 381.4, 232.7 381.1 Q 233.4 380.8, 234.2 380.8 M 233.8 386.7 Q 234.4 386.7, 234.9 386.4 Q 235.4 386.1, 235.7 385.5 Q 236.0 384.9, 236.0 384.3 Q 236.0 383.2, 235.5 382.7 Q 234.9 382.1, 233.9 382.1 Q 233.2 382.1, 232.5 382.4 Q 231.9 382.7, 231.4 383.1 Q 231.4 385.0, 232.0 385.9 Q 232.6 386.7, 233.8 386.7 " fill="#000000"/>
<path class="legend" d="M 244.3 381.9 Q 245.3 382.3, 245.9 383.0 Q 246.5 383.7, 246.5 384.8 Q 246.5 385.7, 246.0 386.5 Q 245.5 387.2, 244.6 387.6 Q 243.7 388.0, 242.6 388.0 Q 240.7 388.0, 239.6 387.2 Q 238.5 386.3, 238.5 384.8 Q 238.5 383.9, 239.0 383.2 Q 239.5 382.5, 240.4 381.9 Q 239.7 381.5, 239.3 380.9 Q 238.9 380.3, 238.9 379.3 Q 238.9 378.0, 239.9 377.2 Q 240.8 376.4, 242.5 376.4 Q 244.1 376.4, 245.1 377.2 Q 246.1 378.0, 246.1 379.3 Q 246.1 380.2, 245.6 380.8 Q 245.2 381.4, 244.3 381.9 M 242.5 377.6 Q 241.5 377.6, 241.0 378.1 Q 240.5 378.5, 240.5 379.3 Q 240.5 379.9, 240.9 380.3 Q 241.2 380.7, 241.7 380.9 Q 242.2 381.2, 243.2 381.5 Q 243.9 381.0, 244.2 380.5 Q 244.5 380.0, 244.5 379.3 Q 244.5 378.5, 243.9 378.1 Q 243.4 377.6, 242.5 377.6 M 242.6 386.8 Q 243.6 386.8, 244.3 386.3 Q 244.9 385.7, 244.9 384.8 Q 244.9 384.2, 244.6 383.8 Q 244.2 383.4, 243.7 383.2 Q 243.2 382.9, 242.3 382.7 L 241.6 382.4 Q 240.8 382.9, 240.4 383.5 Q 240.1 384.0, 240.1 384.8 Q 240.1 385.7, 240.8 386.3 Q 241.4 386.8, 242.6 386.8 " fill="#000000"/>
<path class="legend" d="M 253.4 377.8 L 247.5 377.8 L 247.5 376.6 L 255.0 376.6 L 255.0 377.7 L 250.4 387.9 L 248.9 387.9 L 253.4 377.8 " fill="#000000"/>
<path class="legend" d="M 259.9 380.8 Q 260.9 380.8, 261.7 381.2 Q 262.5 381.7, 262.9 382.5 Q 263.3 383.2, 263.3 384.2 Q 263.3 385.3, 262.8 386.2 Q 262.4 387.1, 261.5 387.5 Q 260.6 388.0, 259.5 388.0 Q 257.5 388.0, 256.5 386.7 Q 255.5 385.3, 255.5 382.6 Q 255.5 379.6, 256.7 378.0 Q 258.0 376.4, 260.4 376.4 Q 261.1 376.4, 261.7 376.6 Q 262.3 376.8, 262.9 377.1 L 262.3 378.2 Q 261.4 377.7, 260.4 377.7 Q 258.8 377.7, 258.0 378.8 Q 257.2 379.8, 257.1 381.9 Q 257.7 381.4, 258.4 381.1 Q 259.1 380.8, 259.9 380.8 M 259.5 386.7 Q 260.2 386.7, 260.7 386.4 Q 261.2 386.1, 261.5 385.5 Q 261.7 384.9, 261.7 384.3 Q 261.7 383.2, 261.2 382.7 Q 260.6 382.1, 259.6 382.1 Q 258.9 382.1, 258.3 382.4 Q 257.6 382.7, 257.1 383.1 Q 257.2 385.0, 257.8 385.9 Q 258.3 386.7, 259.5 386.7 " fill="#000000"/>
<path class="bond-0 atom-0 atom-1" d="M 453.4,118.1 L 456.4,136.7" style="fill:none;fill-rule:evenodd;stroke:#000000;stroke-width:2.0px;stroke-linecap:butt;stroke-linejoin:miter;stroke-opacity:1"/>
<path class="bond-0 atom-0 atom-1" d="M 456.4,136.7 L 459.3,155.4" style="fill:none;fill-rule:evenodd;stroke:#FF0000;stroke-width:2.0px;stroke-linecap:butt;stroke-linejoin:miter;stroke-opacity:1"/>
<path class="bond-1 atom-1 atom-2" d="M 468.1,166.4 L 485.8,173.2" style="fill:none;fill-rule:evenodd;stroke:#FF0000;stroke-width:2.0px;stroke-linecap:butt;stroke-linejoin:miter;stroke-opacity:1"/>
<path class="bond-1 atom-1 atom-2" d="M 485.8,173.2 L 503.5,180.0" style="fill:none;fill-rule:evenodd;stroke:#000000;stroke-width:2.0px;stroke-linecap:butt;stroke-linejoin:miter;stroke-opacity:1"/>
<path class="bond-2 atom-2 atom-3" d="M 503.5,180.0 L 510.6,225.4" style="fill:none;fill-rule:evenodd;stroke:#000000;stroke-width:2.0px;stroke-linecap:butt;stroke-linejoin:miter;stroke-opacity:1"/>
<path class="bond-3 atom-3 atom-4" d="M 510.6,225.4 L 553.5,241.9" style="fill:none;fill-rule:evenodd;stroke:#000000;stroke-width:2.0px;stroke-linecap:butt;stroke-linejoin:miter;stroke-opacity:1"/>
<path class="bond-3 atom-3 atom-4" d="M 520.3,219.3 L 550.4,230.9" style="fill:none;fill-rule:evenodd;stroke:#000000;stroke-width:2.0px;stroke-linecap:butt;stroke-linejoin:miter;stroke-opacity:1"/>
<path class="bond-4 atom-4 atom-5" d="M 553.5,241.9 L 567.6,230.5" style="fill:none;fill-rule:evenodd;stroke:#000000;stroke-width:2.0px;stroke-linecap:butt;stroke-linejoin:miter;stroke-opacity:1"/>
<path class="bond-4 atom-4 atom-5" d="M 567.6,230.5 L 581.8,219.1" style="fill:none;fill-rule:evenodd;stroke:#FF0000;stroke-width:2.0px;stroke-linecap:butt;stroke-linejoin:miter;stroke-opacity:1"/>
<path class="bond-5 atom-5 atom-6" d="M 596.7,215.9 L 614.4,222.8" style="fill:none;fill-rule:evenodd;stroke:#FF0000;stroke-width:2.0px;stroke-linecap:butt;stroke-linejoin:miter;stroke-opacity:1"/>
<path class="bond-5 atom-5 atom-6" d="M 614.4,222.8 L 632.1,229.6" style="fill:none;fill-rule:evenodd;stroke:#000000;stroke-width:2.0px;stroke-linecap:butt;stroke-linejoin:miter;stroke-opacity:1"/>
<path class="bond-6 atom-6 atom-7" d="M 632.1,229.6 L 667.9,200.7" style="fill:none;fill-rule:evenodd;stroke:#000000;stroke-width:2.0px;stroke-linecap:butt;stroke-linejoin:miter;stroke-opacity:1"/>
<path class="bond-7 atom-7 atom-8" d="M 667.9,200.7 L 660.8,155.3" style="fill:none;fill-rule:evenodd;stroke:#000000;stroke-width:2.0px;stroke-linecap:butt;stroke-linejoin:miter;stroke-opacity:1"/>
<path class="bond-7 atom-7 atom-8" d="M 675.9,192.5 L 670.9,160.7" style="fill:none;fill-rule:evenodd;stroke:#000000;stroke-width:2.0px;stroke-linecap:butt;stroke-linejoin:miter;stroke-opacity:1"/>
<path class="bond-8 atom-8 atom-9" d="M 660.8,155.3 L 696.5,126.4" style="fill:none;fill-rule:evenodd;stroke:#000000;stroke-width:2.0px;stroke-linecap:butt;stroke-linejoin:miter;stroke-opacity:1"/>
<path class="bond-9 atom-9 atom-10" d="M 696.5,126.4 L 739.4,143.0" style="fill:none;fill-rule:evenodd;stroke:#000000;stroke-width:2.0px;stroke-linecap:butt;stroke-linejoin:miter;stroke-opacity:1"/>
<path class="bond-9 atom-9 atom-10" d="M 699.7,137.5 L 729.7,149.1" style="fill:none;fill-rule:evenodd;stroke:#000000;stroke-width:2.0px;stroke-linecap:butt;stroke-linejoin:miter;stroke-opacity:1"/>
<path class="bond-10 atom-10 atom-11" d="M 739.4,143.0 L 746.6,188.4" style="fill:none;fill-rule:evenodd;stroke:#000000;stroke-width:2.0px;stroke-linecap:butt;stroke-linejoin:miter;stroke-opacity:1"/>
<path class="bond-11 atom-11 atom-12" d="M 746.6,188.4 L 710.8,217.2" style="fill:none;fill-rule:evenodd;stroke:#000000;stroke-width:2.0px;stroke-linecap:butt;stroke-linejoin:miter;stroke-opacity:1"/>
<path class="bond-11 atom-11 atom-12" d="M 735.4,185.5 L 710.4,205.8" style="fill:none;fill-rule:evenodd;stroke:#000000;stroke-width:2.0px;stroke-linecap:butt;stroke-linejoin:miter;stroke-opacity:1"/>
<path class="bond-12 atom-12 atom-7" d="M 710.8,217.2 L 667.9,200.7" style="fill:none;fill-rule:evenodd;stroke:#000000;stroke-width:2.0px;stroke-linecap:butt;stroke-linejoin:miter;stroke-opacity:1"/>
<path class="atom-1" d="M 454.6 163.5 Q 454.6 160.4, 456.1 158.6 Q 457.7 156.9, 460.6 156.9 Q 463.5 156.9, 465.0 158.6 Q 466.6 160.4, 466.6 163.5 Q 466.6 166.7, 465.0 168.5 Q 463.4 170.3, 460.6 170.3 Q 457.7 170.3, 456.1 168.5 Q 454.6 166.7, 454.6 163.5 M 460.6 168.8 Q 462.6 168.8, 463.6 167.5 Q 464.7 166.1, 464.7 163.5 Q 464.7 161.0, 463.6 159.7 Q 462.6 158.4, 460.6 158.4 Q 458.6 158.4, 457.5 159.6 Q 456.4 160.9, 456.4 163.5 Q 456.4 166.1, 457.5 167.5 Q 458.6 168.8, 460.6 168.8 " fill="#FF0000"/>
<path class="atom-5" d="M 583.3 213.1 Q 583.3 210.0, 584.8 208.2 Q 586.4 206.5, 589.2 206.5 Q 592.1 206.5, 593.7 208.2 Q 595.2 210.0, 595.2 213.1 Q 595.2 216.3, 593.7 218.1 Q 592.1 219.8, 589.2 219.8 Q 586.4 219.8, 584.8 218.1 Q 583.3 216.3, 583.3 213.1 M 589.2 218.4 Q 591.2 218.4, 592.3 217.1 Q 593.4 215.7, 593.4 213.1 Q 593.4 210.5, 592.3 209.3 Q 591.2 207.9, 589.2 207.9 Q 587.3 207.9, 586.2 209.2 Q 585.1 210.5, 585.1 213.1 Q 585.1 215.7, 586.2 217.1 Q 587.3 218.4, 589.2 218.4 " fill="#FF0000"/>
<path class="legend" d="M 571.8 365.4 L 572.0 366.5 Q 572.9 365.3, 574.3 365.3 Q 574.7 365.3, 575.3 365.4 L 575.1 366.8 Q 574.4 366.6, 574.0 366.6 Q 573.4 366.6, 572.9 366.9 Q 572.5 367.1, 572.1 367.8 L 572.1 373.6 L 570.6 373.6 L 570.6 365.4 L 571.8 365.4 " fill="#000000"/>
<path class="legend" d="M 575.6 369.5 Q 575.6 367.5, 576.6 366.4 Q 577.6 365.3, 579.4 365.3 Q 581.2 365.3, 582.0 366.4 Q 582.9 367.4, 582.9 369.5 L 582.9 369.7 L 577.1 369.7 Q 577.2 371.1, 577.8 371.8 Q 578.4 372.6, 579.6 372.6 Q 580.2 372.6, 580.8 372.4 Q 581.4 372.3, 582.1 372.0 L 582.5 373.0 Q 581.7 373.4, 581.0 373.6 Q 580.3 373.8, 579.5 373.8 Q 577.6 373.8, 576.6 372.6 Q 575.6 371.5, 575.6 369.5 M 579.4 366.4 Q 578.5 366.4, 577.9 367.0 Q 577.4 367.5, 577.2 368.6 L 581.3 368.6 Q 581.2 367.5, 580.7 367.0 Q 580.3 366.4, 579.4 366.4 " fill="#000000"/>
<path class="legend" d="M 583.5 371.4 Q 583.5 370.1, 584.5 369.4 Q 585.6 368.7, 587.5 368.7 L 588.7 368.7 L 588.7 368.3 Q 588.7 367.3, 588.3 366.9 Q 587.9 366.4, 586.9 366.4 Q 586.2 366.4, 585.7 366.6 Q 585.2 366.7, 584.4 367.0 L 583.9 366.0 Q 585.4 365.3, 586.9 365.3 Q 588.6 365.3, 589.4 366.0 Q 590.2 366.8, 590.2 368.4 L 590.2 373.6 L 589.1 373.6 Q 589.1 373.6, 589.0 373.3 Q 589.0 373.1, 588.9 372.7 Q 587.7 373.8, 586.2 373.8 Q 584.9 373.8, 584.2 373.2 Q 583.5 372.5, 583.5 371.4 M 585.0 371.4 Q 585.0 372.0, 585.4 372.3 Q 585.7 372.6, 586.5 372.6 Q 587.1 372.6, 587.7 372.4 Q 588.3 372.0, 588.7 371.5 L 588.7 369.8 L 587.6 369.8 Q 586.3 369.8, 585.6 370.2 Q 585.0 370.6, 585.0 371.4 " fill="#000000"/>
<path class="legend" d="M 591.5 369.5 Q 591.5 367.5, 592.5 366.4 Q 593.5 365.3, 595.4 365.3 Q 597.3 365.3, 598.3 366.6 L 597.2 367.4 Q 596.9 366.9, 596.4 366.7 Q 596.0 366.4, 595.4 366.4 Q 594.3 366.4, 593.6 367.2 Q 593.0 368.0, 593.0 369.5 Q 593.0 371.0, 593.6 371.8 Q 594.3 372.6, 595.5 372.6 Q 596.2 372.6, 596.6 372.4 Q 597.1 372.3, 597.7 372.0 L 598.1 373.0 Q 596.9 373.7, 595.4 373.7 Q 593.5 373.7, 592.5 372.6 Q 591.5 371.5, 591.5 369.5 " fill="#000000"/>
<path class="legend" d="M 598.6 366.6 L 598.6 365.4 L 600.2 365.4 L 600.5 363.0 L 601.6 363.0 L 601.6 365.4 L 604.1 365.4 L 604.1 366.6 L 601.6 366.6 L 601.6 371.1 Q 601.6 372.5, 602.8 372.5 Q 603.3 372.5, 604.0 372.3 L 604.2 373.4 Q 603.3 373.7, 602.5 373.7 Q 601.4 373.7, 600.8 373.1 Q 600.1 372.4, 600.1 371.2 L 600.1 366.6 L 598.6 366.6 " fill="#000000"/>
<path class="legend" d="M 612.8 374.4 L 612.8 375.7 L 604.6 375.7 L 604.6 374.4 L 612.8 374.4 " fill="#000000"/>
<path class="legend" d="M 617.2 366.6 Q 618.2 366.6, 619.0 367.0 Q 619.8 367.4, 620.2 368.2 Q 620.6 369.0, 620.6 370.0 Q 620.6 371.1, 620.1 372.0 Q 619.7 372.8, 618.8 373.3 Q 617.9 373.8, 616.8 373.8 Q 614.8 373.8, 613.8 372.4 Q 612.8 371.0, 612.8 368.3 Q 612.8 365.3, 614.0 363.7 Q 615.3 362.2, 617.7 362.2 Q 618.4 362.2, 619.0 362.3 Q 619.6 362.5, 620.2 362.8 L 619.6 363.9 Q 618.7 363.5, 617.7 363.5 Q 616.1 363.5, 615.3 364.5 Q 614.5 365.5, 614.4 367.6 Q 615.0 367.1, 615.7 366.8 Q 616.4 366.6, 617.2 366.6 M 616.8 372.4 Q 617.5 372.4, 618.0 372.1 Q 618.5 371.8, 618.8 371.2 Q 619.0 370.7, 619.0 370.0 Q 619.0 369.0, 618.5 368.4 Q 617.9 367.8, 616.9 367.8 Q 616.2 367.8, 615.6 368.1 Q 614.9 368.4, 614.4 368.9 Q 614.5 370.8, 615.1 371.6 Q 615.6 372.4, 616.8 372.4 " fill="#000000"/>
<path class="legend" d="M 626.0 366.6 Q 626.9 366.6, 627.7 367.0 Q 628.5 367.4, 628.9 368.2 Q 629.4 369.0, 629.4 370.0 Q 629.4 371.1, 628.9 372.0 Q 628.4 372.8, 627.5 373.3 Q 626.7 373.8, 625.6 373.8 Q 623.6 373.8, 622.5 372.4 Q 621.5 371.0, 621.5 368.3 Q 621.5 365.3, 622.8 363.7 Q 624.0 362.2, 626.4 362.2 Q 627.2 362.2, 627.7 362.3 Q 628.4 362.5, 628.9 362.8 L 628.3 363.9 Q 627.5 363.5, 626.5 363.5 Q 624.9 363.5, 624.0 364.5 Q 623.2 365.5, 623.1 367.6 Q 623.7 367.1, 624.4 366.8 Q 625.2 366.6, 626.0 366.6 M 625.6 372.4 Q 626.2 372.4, 626.7 372.1 Q 627.2 371.8, 627.5 371.2 Q 627.8 370.7, 627.8 370.0 Q 627.8 369.0, 627.2 368.4 Q 626.7 367.8, 625.7 367.8 Q 625.0 367.8, 624.3 368.1 Q 623.6 368.4, 623.1 368.9 Q 623.2 370.8, 623.8 371.6 Q 624.4 372.4, 625.6 372.4 " fill="#000000"/>
<path class="legend" d="M 537.6 383.8 Q 537.6 381.8, 538.6 380.7 Q 539.6 379.5, 541.6 379.5 Q 543.4 379.5, 544.4 380.9 L 543.4 381.6 Q 543.0 381.2, 542.6 380.9 Q 542.1 380.7, 541.6 380.7 Q 540.4 380.7, 539.8 381.5 Q 539.2 382.3, 539.2 383.8 Q 539.2 385.3, 539.8 386.1 Q 540.5 386.8, 541.7 386.8 Q 542.3 386.8, 542.8 386.7 Q 543.3 386.5, 543.8 386.3 L 544.3 387.3 Q 543.1 388.0, 541.5 388.0 Q 539.6 388.0, 538.6 386.9 Q 537.6 385.7, 537.6 383.8 " fill="#000000"/>
<path class="legend" d="M 544.8 383.8 Q 544.8 381.7, 545.8 380.6 Q 546.8 379.5, 548.7 379.5 Q 550.5 379.5, 551.3 380.6 Q 552.1 381.7, 552.1 383.7 L 552.1 384.0 L 546.3 384.0 Q 546.4 385.4, 547.0 386.1 Q 547.6 386.8, 548.8 386.8 Q 549.4 386.8, 550.0 386.7 Q 550.6 386.5, 551.3 386.2 L 551.8 387.2 Q 550.9 387.6, 550.2 387.8 Q 549.5 388.0, 548.7 388.0 Q 546.8 388.0, 545.8 386.9 Q 544.8 385.8, 544.8 383.8 M 548.7 380.7 Q 547.7 380.7, 547.1 381.2 Q 546.6 381.8, 546.4 382.8 L 550.5 382.8 Q 550.4 381.7, 549.9 381.2 Q 549.5 380.7, 548.7 380.7 " fill="#000000"/>
<path class="legend" d="M 557.0 379.5 Q 558.3 379.5, 559.0 380.3 Q 559.7 381.0, 559.7 382.4 L 559.7 387.9 L 558.2 387.9 L 558.2 382.6 Q 558.2 381.6, 557.8 381.2 Q 557.4 380.7, 556.6 380.7 Q 555.8 380.7, 555.2 381.1 Q 554.6 381.4, 554.2 382.0 L 554.2 387.9 L 552.7 387.9 L 552.7 379.7 L 553.9 379.7 L 554.1 380.8 Q 555.2 379.5, 557.0 379.5 " fill="#000000"/>
<path class="legend" d="M 560.9 380.8 L 560.9 379.7 L 562.5 379.7 L 562.7 377.3 L 563.9 377.3 L 563.9 379.7 L 566.4 379.7 L 566.4 380.8 L 563.9 380.8 L 563.9 385.4 Q 563.9 386.8, 565.1 386.8 Q 565.5 386.8, 566.2 386.6 L 566.5 387.6 Q 565.6 388.0, 564.8 388.0 Q 563.7 388.0, 563.0 387.3 Q 562.3 386.7, 562.3 385.4 L 562.3 380.8 L 560.9 380.8 " fill="#000000"/>
<path class="legend" d="M 575.1 388.7 L 575.1 390.0 L 566.9 390.0 L 566.9 388.7 L 575.1 388.7 " fill="#000000"/>
<path class="legend" d="M 582.5 375.7 L 582.5 387.9 L 581.3 387.9 L 581.1 386.9 Q 580.2 388.0, 578.7 388.0 Q 577.0 388.0, 576.0 387.0 Q 575.1 385.9, 575.1 383.9 Q 575.1 381.8, 576.2 380.7 Q 577.3 379.5, 579.3 379.5 Q 580.1 379.5, 581.0 379.7 L 581.0 375.7 L 582.5 375.7 M 578.8 386.8 Q 579.6 386.8, 580.2 386.4 Q 580.8 385.9, 581.0 385.1 L 581.0 380.9 Q 580.2 380.7, 579.3 380.7 Q 578.0 380.7, 577.3 381.6 Q 576.6 382.4, 576.6 383.9 Q 576.6 385.3, 577.1 386.1 Q 577.7 386.8, 578.8 386.8 " fill="#000000"/>
<path class="legend" d="M 583.8 376.6 L 585.3 376.6 L 585.3 378.0 L 583.8 378.0 L 583.8 376.6 M 583.8 379.7 L 585.3 379.7 L 585.3 387.9 L 583.8 387.9 L 583.8 379.7 " fill="#000000"/>
<path class="legend" d="M 587.1 386.2 Q 587.8 386.5, 588.3 386.6 Q 588.9 386.8, 589.4 386.8 Q 590.2 386.8, 590.6 386.5 Q 591.0 386.2, 591.0 385.6 Q 591.0 385.2, 590.7 385.0 Q 590.5 384.8, 590.3 384.6 Q 590.0 384.5, 589.3 384.3 Q 589.2 384.3, 588.4 384.0 Q 587.7 383.7, 587.3 383.2 Q 586.9 382.7, 586.9 381.9 Q 586.9 380.9, 587.7 380.2 Q 588.5 379.5, 589.9 379.5 Q 590.6 379.5, 591.1 379.7 Q 591.7 379.8, 592.3 380.0 L 591.9 381.2 Q 591.4 381.0, 590.9 380.9 Q 590.4 380.8, 589.9 380.8 Q 589.2 380.8, 588.8 381.1 Q 588.4 381.4, 588.4 381.8 Q 588.4 382.3, 588.7 382.5 Q 589.0 382.7, 589.7 383.0 Q 589.9 383.0, 590.0 383.1 L 590.4 383.2 Q 591.1 383.4, 591.5 383.7 Q 591.9 383.9, 592.2 384.4 Q 592.5 384.8, 592.5 385.6 Q 592.5 386.7, 591.6 387.4 Q 590.8 388.0, 589.5 388.0 Q 588.7 388.0, 588.0 387.9 Q 587.3 387.7, 586.7 387.4 L 587.1 386.2 " fill="#000000"/>
<path class="legend" d="M 593.3 380.8 L 593.3 379.7 L 594.9 379.7 L 595.1 377.3 L 596.3 377.3 L 596.3 379.7 L 598.8 379.7 L 598.8 380.8 L 596.3 380.8 L 596.3 385.4 Q 596.3 386.8, 597.5 386.8 Q 597.9 386.8, 598.7 386.6 L 598.9 387.6 Q 598.0 388.0, 597.2 388.0 Q 596.1 388.0, 595.4 387.3 Q 594.8 386.7, 594.8 385.4 L 594.8 380.8 L 593.3 380.8 " fill="#000000"/>
<path class="legend" d="" fill="#000000"/>
<path class="legend" d="M 604.6 380.9 L 612.0 380.9 L 612.0 382.1 L 604.6 382.1 L 604.6 380.9 M 604.6 384.4 L 612.0 384.4 L 612.0 385.5 L 604.6 385.5 L 604.6 384.4 " fill="#000000"/>
<path class="legend" d="" fill="#000000"/>
<path class="legend" d="M 622.9 388.0 Q 620.8 388.0, 619.8 386.5 Q 618.8 384.9, 618.8 382.2 Q 618.8 379.5, 619.8 378.0 Q 620.8 376.4, 622.9 376.4 Q 625.0 376.4, 626.0 378.0 Q 627.0 379.5, 627.0 382.2 Q 627.0 384.9, 626.0 386.5 Q 625.0 388.0, 622.9 388.0 M 622.9 386.7 Q 624.1 386.7, 624.8 385.6 Q 625.4 384.4, 625.4 382.2 Q 625.4 380.0, 624.8 378.8 Q 624.1 377.7, 622.9 377.7 Q 621.7 377.7, 621.0 378.8 Q 620.4 380.0, 620.4 382.2 Q 620.4 384.4, 621.0 385.6 Q 621.7 386.7, 622.9 386.7 " fill="#000000"/>
<path class="legend" d="M 628.1 386.3 L 629.7 386.3 L 629.7 387.9 L 628.1 387.9 L 628.1 386.3 " fill="#000000"/>
<path class="legend" d="M 636.7 377.8 L 630.7 377.8 L 630.7 376.6 L 638.2 376.6 L 638.2 377.7 L 633.7 387.9 L 632.1 387.9 L 636.7 377.8 " fill="#000000"/>
<path class="legend" d="M 642.9 388.0 Q 640.8 388.0, 639.7 386.5 Q 638.7 384.9, 638.7 382.2 Q 638.7 379.5, 639.7 378.0 Q 640.8 376.4, 642.9 376.4 Q 644.9 376.4, 646.0 378.0 Q 647.0 379.5, 647.0 382.2 Q 647.0 384.9, 646.0 386.5 Q 644.9 388.0, 642.9 388.0 M 642.9 386.7 Q 644.1 386.7, 644.7 385.6 Q 645.4 384.4, 645.4 382.2 Q 645.4 380.0, 644.7 378.8 Q 644.1 377.7, 642.9 377.7 Q 641.6 377.7, 641.0 378.8 Q 640.3 380.0, 640.3 382.2 Q 640.3 384.4, 641.0 385.6 Q 641.6 386.7, 642.9 386.7 " fill="#000000"/>
<path class="legend" d="M 648.7 386.6 L 651.1 386.6 L 651.1 378.1 L 648.4 379.0 L 648.0 378.0 L 651.5 376.5 L 652.6 376.7 L 652.6 386.6 L 654.9 386.6 L 654.9 387.9 L 648.7 387.9 L 648.7 386.6 " fill="#000000"/>
<path class="legend" d="M 656.2 386.6 L 658.6 386.6 L 658.6 378.1 L 655.9 379.0 L 655.5 378.0 L 659.0 376.5 L 660.1 376.7 L 660.1 386.6 L 662.4 386.6 L 662.4 387.9 L 656.2 387.9 L 656.2 386.6 " fill="#000000"/>
<path class="bond-0 atom-0 atom-1" d="M 843.8,205.4 L 862.5,201.1" style="fill:none;fill-rule:evenodd;stroke:#FF0000;stroke-width:2.0px;stroke-linecap:butt;stroke-linejoin:miter;stroke-opacity:1"/>
<path class="bond-0 atom-0 atom-1" d="M 862.5,201.1 L 881.2,196.9" style="fill:none;fill-rule:evenodd;stroke:#000000;stroke-width:2.0px;stroke-linecap:butt;stroke-linejoin:miter;stroke-opacity:1"/>
<path class="bond-1 atom-1 atom-2" d="M 881.2,196.9 L 894.8,153.0" style="fill:none;fill-rule:evenodd;stroke:#000000;stroke-width:2.0px;stroke-linecap:butt;stroke-linejoin:miter;stroke-opacity:1"/>
<path class="bond-2 atom-2 atom-3" d="M 894.8,153.0 L 939.7,142.9" style="fill:none;fill-rule:evenodd;stroke:#000000;stroke-width:2.0px;stroke-linecap:butt;stroke-linejoin:miter;stroke-opacity:1"/>
<path class="bond-2 atom-2 atom-3" d="M 903.6,160.5 L 935.0,153.4" style="fill:none;fill-rule:evenodd;stroke:#000000;stroke-width:2.0px;stroke-linecap:butt;stroke-linejoin:miter;stroke-opacity:1"/>
<path class="bond-3 atom-3 atom-4" d="M 939.7,142.9 L 970.8,176.6" style="fill:none;fill-rule:evenodd;stroke:#000000;stroke-width:2.0px;stroke-linecap:butt;stroke-linejoin:miter;stroke-opacity:1"/>
<path class="bond-4 atom-4 atom-5" d="M 970.8,176.6 L 989.5,172.4" style="fill:none;fill-rule:evenodd;stroke:#000000;stroke-width:2.0px;stroke-linecap:butt;stroke-linejoin:miter;stroke-opacity:1"/>
<path class="bond-4 atom-4 atom-5" d="M 989.5,172.4 L 1008.2,168.2" style="fill:none;fill-rule:evenodd;stroke:#FF0000;stroke-width:2.0px;stroke-linecap:butt;stroke-linejoin:miter;stroke-opacity:1"/>
<path class="bond-5 atom-5 atom-6" d="M 1023.2,174.6 L 1035.0,187.4" style="fill:none;fill-rule:evenodd;stroke:#FF0000;stroke-width:2.0px;stroke-linecap:butt;stroke-linejoin:miter;stroke-opacity:1"/>
<path class="bond-5 atom-5 atom-6" d="M 1035.0,187.4 L 1046.9,200.3" style="fill:none;fill-rule:evenodd;stroke:#000000;stroke-width:2.0px;stroke-linecap:butt;stroke-linejoin:miter;stroke-opacity:1"/>
<path class="bond-6 atom-6 atom-7" d="M 1046.9,200.3 L 1091.7,190.1" style="fill:none;fill-rule:evenodd;stroke:#000000;stroke-width:2.0px;stroke-linecap:butt;stroke-linejoin:miter;stroke-opacity:1"/>
<path class="bond-7 atom-7 atom-8" d="M 1091.7,190.1 L 1105.4,146.2" style="fill:none;fill-rule:evenodd;stroke:#000000;stroke-width:2.0px;stroke-linecap:butt;stroke-linejoin:miter;stroke-opacity:1"/>
<path class="bond-7 atom-7 atom-8" d="M 1102.5,186.3 L 1112.1,155.6" style="fill:none;fill-rule:evenodd;stroke:#000000;stroke-width:2.0px;stroke-linecap:butt;stroke-linejoin:miter;stroke-opacity:1"/>
<path class="bond-8 atom-8 atom-9" d="M 1105.4,146.2 L 1150.2,136.1" style="fill:none;fill-rule:evenodd;stroke:#000000;stroke-width:2.0px;stroke-linecap:butt;stroke-linejoin:miter;stroke-opacity:1"/>
<path class="bond-9 atom-9 atom-10" d="M 1150.2,136.1 L 1181.4,169.9" style="fill:none;fill-rule:evenodd;stroke:#000000;stroke-width:2.0px;stroke-linecap:butt;stroke-linejoin:miter;stroke-opacity:1"/>
<path class="bond-9 atom-9 atom-10" d="M 1148.1,147.4 L 1169.9,171.0" style="fill:none;fill-rule:evenodd;stroke:#000000;stroke-width:2.0px;stroke-linecap:butt;stroke-linejoin:miter;stroke-opacity:1"/>
<path class="bond-10 atom-10 atom-11" d="M 1181.4,169.9 L 1167.7,213.8" style="fill:none;fill-rule:evenodd;stroke:#000000;stroke-width:2.0px;stroke-linecap:butt;stroke-linejoin:miter;stroke-opacity:1"/>
<path class="bond-11 atom-11 atom-12" d="M 1167.7,213.8 L 1122.9,223.9" style="fill:none;fill-rule:evenodd;stroke:#000000;stroke-width:2.0px;stroke-linecap:butt;stroke-linejoin:miter;stroke-opacity:1"/>
<path class="bond-11 atom-11 atom-12" d="M 1159.0,206.3 L 1127.6,213.4" style="fill:none;fill-rule:evenodd;stroke:#000000;stroke-width:2.0px;stroke-linecap:butt;stroke-linejoin:miter;stroke-opacity:1"/>
<path class="bond-12 atom-12 atom-7" d="M 1122.9,223.9 L 1091.7,190.1" style="fill:none;fill-rule:evenodd;stroke:#000000;stroke-width:2.0px;stroke-linecap:butt;stroke-linejoin:miter;stroke-opacity:1"/>
<path class="atom-0" d="M 818.6 200.6 L 820.4 200.6 L 820.4 206.1 L 827.0 206.1 L 827.0 200.6 L 828.8 200.6 L 828.8 213.6 L 827.0 213.6 L 827.0 207.6 L 820.4 207.6 L 820.4 213.6 L 818.6 213.6 L 818.6 200.6 " fill="#FF0000"/>
<path class="atom-0" d="M 830.4 207.1 Q 830.4 204.0, 831.9 202.2 Q 833.5 200.5, 836.3 200.5 Q 839.2 200.5, 840.8 202.2 Q 842.3 204.0, 842.3 207.1 Q 842.3 210.2, 840.8 212.0 Q 839.2 213.8, 836.3 213.8 Q 833.5 213.8, 831.9 212.0 Q 830.4 210.3, 830.4 207.1 M 836.3 212.4 Q 838.3 212.4, 839.4 211.0 Q 840.5 209.7, 840.5 207.1 Q 840.5 204.5, 839.4 203.2 Q 838.3 201.9, 836.3 201.9 Q 834.4 201.9, 833.3 203.2 Q 832.2 204.5, 832.2 207.1 Q 832.2 209.7, 833.3 211.0 Q 834.4 212.4, 836.3 212.4 " fill="#FF0000"/>
<path class="atom-5" d="M 1009.7 166.5 Q 1009.7 163.4, 1011.3 161.7 Q 1012.8 159.9, 1015.7 159.9 Q 1018.6 159.9, 1020.1 161.7 Q 1021.7 163.4, 1021.7 166.5 Q 1021.7 169.7, 1020.1 171.5 Q 1018.5 173.3, 1015.7 173.3 Q 1012.8 173.3, 1011.3 171.5 Q 1009.7 169.7, 1009.7 166.5 M 1015.7 171.8 Q 1017.7 171.8, 1018.7 170.5 Q 1019.8 169.2, 1019.8 166.5 Q 1019.8 164.0, 1018.7 162.7 Q 1017.7 161.4, 1015.7 161.4 Q 1013.7 161.4, 1012.6 162.7 Q 1011.5 164.0, 1011.5 166.5 Q 1011.5 169.2, 1012.6 170.5 Q 1013.7 171.8, 1015.7 171.8 " fill="#FF0000"/>
<path class="legend" d="M 968.0 365.4 L 968.2 366.5 Q 969.0 365.3, 970.4 365.3 Q 970.9 365.3, 971.5 365.4 L 971.3 366.8 Q 970.6 366.6, 970.2 366.6 Q 969.5 366.6, 969.1 366.9 Q 968.6 367.1, 968.3 367.8 L 968.3 373.6 L 966.8 373.6 L 966.8 365.4 L 968.0 365.4 " fill="#000000"/>
<path class="legend" d="M 971.7 369.5 Q 971.7 367.5, 972.8 366.4 Q 973.8 365.3, 975.6 365.3 Q 977.4 365.3, 978.2 366.4 Q 979.0 367.4, 979.0 369.5 L 979.0 369.7 L 973.3 369.7 Q 973.3 371.1, 973.9 371.8 Q 974.6 372.6, 975.7 372.6 Q 976.4 372.6, 977.0 372.4 Q 977.6 372.3, 978.3 372.0 L 978.7 373.0 Q 977.9 373.4, 977.2 373.6 Q 976.4 373.8, 975.6 373.8 Q 973.8 373.8, 972.8 372.6 Q 971.7 371.5, 971.7 369.5 M 975.6 366.4 Q 974.7 366.4, 974.1 367.0 Q 973.5 367.5, 973.3 368.6 L 977.4 368.6 Q 977.3 367.5, 976.9 367.0 Q 976.4 366.4, 975.6 366.4 " fill="#000000"/>
<path class="legend" d="M 979.6 371.4 Q 979.6 370.1, 980.7 369.4 Q 981.7 368.7, 983.7 368.7 L 984.9 368.7 L 984.9 368.3 Q 984.9 367.3, 984.5 366.9 Q 984.0 366.4, 983.0 366.4 Q 982.4 366.4, 981.9 366.6 Q 981.3 366.7, 980.5 367.0 L 980.1 366.0 Q 981.6 365.3, 983.1 365.3 Q 984.8 365.3, 985.6 366.0 Q 986.4 366.8, 986.4 368.4 L 986.4 373.6 L 985.2 373.6 Q 985.2 373.6, 985.2 373.3 Q 985.1 373.1, 985.0 372.7 Q 983.9 373.8, 982.3 373.8 Q 981.1 373.8, 980.4 373.2 Q 979.6 372.5, 979.6 371.4 M 981.1 371.4 Q 981.1 372.0, 981.5 372.3 Q 981.9 372.6, 982.6 372.6 Q 983.3 372.6, 983.9 372.4 Q 984.5 372.0, 984.9 371.5 L 984.9 369.8 L 983.8 369.8 Q 982.5 369.8, 981.8 370.2 Q 981.1 370.6, 981.1 371.4 " fill="#000000"/>
<path class="legend" d="M 987.6 369.5 Q 987.6 367.5, 988.6 366.4 Q 989.6 365.3, 991.6 365.3 Q 993.4 365.3, 994.4 366.6 L 993.4 367.4 Q 993.0 366.9, 992.6 366.7 Q 992.1 366.4, 991.6 366.4 Q 990.4 366.4, 989.8 367.2 Q 989.2 368.0, 989.2 369.5 Q 989.2 371.0, 989.8 371.8 Q 990.5 372.6, 991.7 372.6 Q 992.3 372.6, 992.8 372.4 Q 993.3 372.3, 993.8 372.0 L 994.3 373.0 Q 993.1 373.7, 991.6 373.7 Q 989.6 373.7, 988.6 372.6 Q 987.6 371.5, 987.6 369.5 " fill="#000000"/>
<path class="legend" d="M 994.8 366.6 L 994.8 365.4 L 996.4 365.4 L 996.6 363.0 L 997.7 363.0 L 997.7 365.4 L 1000.3 365.4 L 1000.3 366.6 L 997.7 366.6 L 997.7 371.1 Q 997.7 372.5, 998.9 372.5 Q 999.4 372.5, 1000.1 372.3 L 1000.4 373.4 Q 999.5 373.7, 998.7 373.7 Q 997.6 373.7, 996.9 373.1 Q 996.2 372.4, 996.2 371.2 L 996.2 366.6 L 994.8 366.6 " fill="#000000"/>
<path class="legend" d="M 1008.9 374.4 L 1008.9 375.7 L 1000.8 375.7 L 1000.8 374.4 L 1008.9 374.4 " fill="#000000"/>
<path class="legend" d="M 1013.1 366.5 Q 1014.0 366.5, 1014.9 367.0 Q 1015.7 367.4, 1016.1 368.2 Q 1016.6 369.0, 1016.6 370.0 Q 1016.6 371.2, 1016.0 372.1 Q 1015.5 372.9, 1014.5 373.3 Q 1013.6 373.8, 1012.6 373.8 Q 1011.5 373.8, 1010.6 373.4 Q 1009.6 373.0, 1008.9 372.3 L 1009.9 371.3 Q 1010.4 371.8, 1011.2 372.2 Q 1011.9 372.5, 1012.6 372.5 Q 1013.6 372.5, 1014.3 371.8 Q 1015.0 371.2, 1015.0 370.1 Q 1015.0 368.9, 1014.3 368.3 Q 1013.6 367.7, 1012.5 367.7 Q 1011.5 367.7, 1010.4 368.2 L 1009.5 367.8 L 1010.1 362.3 L 1015.9 362.3 L 1015.7 363.6 L 1011.4 363.6 L 1011.1 366.9 Q 1012.1 366.5, 1013.1 366.5 " fill="#000000"/>
<path class="legend" d="M 1023.3 363.6 L 1017.4 363.6 L 1017.4 362.3 L 1024.9 362.3 L 1024.9 363.4 L 1020.3 373.6 L 1018.8 373.6 L 1023.3 363.6 " fill="#000000"/>
<path class="legend" d="M 1029.8 366.6 Q 1030.8 366.6, 1031.6 367.0 Q 1032.4 367.4, 1032.8 368.2 Q 1033.2 369.0, 1033.2 370.0 Q 1033.2 371.1, 1032.7 372.0 Q 1032.2 372.8, 1031.4 373.3 Q 1030.5 373.8, 1029.4 373.8 Q 1027.4 373.8, 1026.4 372.4 Q 1025.4 371.0, 1025.4 368.3 Q 1025.4 365.3, 1026.6 363.7 Q 1027.9 362.2, 1030.3 362.2 Q 1031.0 362.2, 1031.6 362.3 Q 1032.2 362.5, 1032.8 362.8 L 1032.1 363.9 Q 1031.3 363.5, 1030.3 363.5 Q 1028.7 363.5, 1027.9 364.5 Q 1027.1 365.5, 1027.0 367.6 Q 1027.6 367.1, 1028.3 366.8 Q 1029.0 366.6, 1029.8 366.6 M 1029.4 372.4 Q 1030.0 372.4, 1030.5 372.1 Q 1031.0 371.8, 1031.3 371.2 Q 1031.6 370.7, 1031.6 370.0 Q 1031.6 369.0, 1031.1 368.4 Q 1030.5 367.8, 1029.5 367.8 Q 1028.8 367.8, 1028.1 368.1 Q 1027.5 368.4, 1027.0 368.9 Q 1027.0 370.8, 1027.6 371.6 Q 1028.2 372.4, 1029.4 372.4 " fill="#000000"/>
<path class="legend" d="M 935.6 383.8 Q 935.6 381.8, 936.5 380.7 Q 937.5 379.5, 939.5 379.5 Q 941.4 379.5, 942.3 380.9 L 941.3 381.6 Q 940.9 381.2, 940.5 380.9 Q 940.1 380.7, 939.5 380.7 Q 938.4 380.7, 937.7 381.5 Q 937.1 382.3, 937.1 383.8 Q 937.1 385.3, 937.7 386.1 Q 938.4 386.8, 939.6 386.8 Q 940.3 386.8, 940.7 386.7 Q 941.2 386.5, 941.8 386.3 L 942.2 387.3 Q 941.0 388.0, 939.5 388.0 Q 937.5 388.0, 936.5 386.9 Q 935.6 385.7, 935.6 383.8 " fill="#000000"/>
<path class="legend" d="M 942.7 383.8 Q 942.7 381.7, 943.7 380.6 Q 944.7 379.5, 946.6 379.5 Q 948.4 379.5, 949.2 380.6 Q 950.0 381.7, 950.0 383.7 L 950.0 384.0 L 944.3 384.0 Q 944.3 385.4, 944.9 386.1 Q 945.5 386.8, 946.7 386.8 Q 947.3 386.8, 947.9 386.7 Q 948.5 386.5, 949.3 386.2 L 949.7 387.2 Q 948.9 387.6, 948.1 387.8 Q 947.4 388.0, 946.6 388.0 Q 944.8 388.0, 943.7 386.9 Q 942.7 385.8, 942.7 383.8 M 946.6 380.7 Q 945.6 380.7, 945.1 381.2 Q 944.5 381.8, 944.3 382.8 L 948.4 382.8 Q 948.3 381.7, 947.9 381.2 Q 947.4 380.7, 946.6 380.7 " fill="#000000"/>
<path class="legend" d="M 954.9 379.5 Q 956.2 379.5, 956.9 380.3 Q 957.6 381.0, 957.6 382.4 L 957.6 387.9 L 956.1 387.9 L 956.1 382.6 Q 956.1 381.6, 955.7 381.2 Q 955.3 380.7, 954.5 380.7 Q 953.8 380.7, 953.1 381.1 Q 952.5 381.4, 952.1 382.0 L 952.1 387.9 L 950.6 387.9 L 950.6 379.7 L 951.8 379.7 L 952.0 380.8 Q 953.1 379.5, 954.9 379.5 " fill="#000000"/>
<path class="legend" d="M 958.8 380.8 L 958.8 379.7 L 960.4 379.7 L 960.7 377.3 L 961.8 377.3 L 961.8 379.7 L 964.3 379.7 L 964.3 380.8 L 961.8 380.8 L 961.8 385.4 Q 961.8 386.8, 963.0 386.8 Q 963.5 386.8, 964.2 386.6 L 964.4 387.6 Q 963.5 388.0, 962.7 388.0 Q 961.6 388.0, 960.9 387.3 Q 960.3 386.7, 960.3 385.4 L 960.3 380.8 L 958.8 380.8 " fill="#000000"/>
<path class="legend" d="M 973.0 388.7 L 973.0 390.0 L 964.8 390.0 L 964.8 388.7 L 973.0 388.7 " fill="#000000"/>
<path class="legend" d="M 980.5 375.7 L 980.5 387.9 L 979.2 387.9 L 979.0 386.9 Q 978.1 388.0, 976.6 388.0 Q 974.9 388.0, 973.9 387.0 Q 973.0 385.9, 973.0 383.9 Q 973.0 381.8, 974.1 380.7 Q 975.2 379.5, 977.2 379.5 Q 978.1 379.5, 978.9 379.7 L 978.9 375.7 L 980.5 375.7 M 976.7 386.8 Q 977.5 386.8, 978.1 386.4 Q 978.7 385.9, 978.9 385.1 L 978.9 380.9 Q 978.1 380.7, 977.2 380.7 Q 976.0 380.7, 975.2 381.6 Q 974.5 382.4, 974.5 383.9 Q 974.5 385.3, 975.1 386.1 Q 975.7 386.8, 976.7 386.8 " fill="#000000"/>
<path class="legend" d="M 981.7 376.6 L 983.2 376.6 L 983.2 378.0 L 981.7 378.0 L 981.7 376.6 M 981.7 379.7 L 983.2 379.7 L 983.2 387.9 L 981.7 387.9 L 981.7 379.7 " fill="#000000"/>
<path class="legend" d="M 985.0 386.2 Q 985.8 386.5, 986.3 386.6 Q 986.8 386.8, 987.4 386.8 Q 988.1 386.8, 988.5 386.5 Q 988.9 386.2, 988.9 385.6 Q 988.9 385.2, 988.7 385.0 Q 988.5 384.8, 988.2 384.6 Q 987.9 384.5, 987.2 384.3 Q 987.1 384.3, 986.4 384.0 Q 985.6 383.7, 985.2 383.2 Q 984.9 382.7, 984.9 381.9 Q 984.9 380.9, 985.6 380.2 Q 986.4 379.5, 987.9 379.5 Q 988.5 379.5, 989.0 379.7 Q 989.6 379.8, 990.2 380.0 L 989.8 381.2 Q 989.3 381.0, 988.8 380.9 Q 988.4 380.8, 987.9 380.8 Q 987.1 380.8, 986.7 381.1 Q 986.4 381.4, 986.4 381.8 Q 986.4 382.3, 986.7 382.5 Q 987.0 382.7, 987.6 383.0 Q 987.8 383.0, 988.0 383.1 L 988.3 383.2 Q 989.0 383.4, 989.4 383.7 Q 989.8 383.9, 990.1 384.4 Q 990.4 384.8, 990.4 385.6 Q 990.4 386.7, 989.6 387.4 Q 988.7 388.0, 987.4 388.0 Q 986.6 388.0, 985.9 387.9 Q 985.3 387.7, 984.6 387.4 L 985.0 386.2 " fill="#000000"/>
<path class="legend" d="M 991.3 380.8 L 991.3 379.7 L 992.8 379.7 L 993.1 377.3 L 994.2 377.3 L 994.2 379.7 L 996.7 379.7 L 996.7 380.8 L 994.2 380.8 L 994.2 385.4 Q 994.2 386.8, 995.4 386.8 Q 995.9 386.8, 996.6 386.6 L 996.8 387.6 Q 996.0 388.0, 995.1 388.0 Q 994.1 388.0, 993.4 387.3 Q 992.7 386.7, 992.7 385.4 L 992.7 380.8 L 991.3 380.8 " fill="#000000"/>
<path class="legend" d="" fill="#000000"/>
<path class="legend" d="M 1002.6 380.9 L 1009.9 380.9 L 1009.9 382.1 L 1002.6 382.1 L 1002.6 380.9 M 1002.6 384.4 L 1009.9 384.4 L 1009.9 385.5 L 1002.6 385.5 L 1002.6 384.4 " fill="#000000"/>
<path class="legend" d="" fill="#000000"/>
<path class="legend" d="M 1020.8 388.0 Q 1018.7 388.0, 1017.7 386.5 Q 1016.7 384.9, 1016.7 382.2 Q 1016.7 379.5, 1017.7 378.0 Q 1018.7 376.4, 1020.8 376.4 Q 1022.9 376.4, 1023.9 378.0 Q 1025.0 379.5, 1025.0 382.2 Q 1025.0 384.9, 1023.9 386.5 Q 1022.9 388.0, 1020.8 388.0 M 1020.8 386.7 Q 1022.1 386.7, 1022.7 385.6 Q 1023.4 384.4, 1023.4 382.2 Q 1023.4 380.0, 1022.7 378.8 Q 1022.1 377.7, 1020.8 377.7 Q 1019.6 377.7, 1018.9 378.8 Q 1018.3 380.0, 1018.3 382.2 Q 1018.3 384.4, 1018.9 385.6 Q 1019.6 386.7, 1020.8 386.7 " fill="#000000"/>
<path class="legend" d="M 1026.0 386.3 L 1027.6 386.3 L 1027.6 387.9 L 1026.0 387.9 L 1026.0 386.3 " fill="#000000"/>
<path class="legend" d="M 1034.4 381.9 Q 1035.5 382.3, 1036.1 383.0 Q 1036.7 383.7, 1036.7 384.8 Q 1036.7 385.7, 1036.2 386.5 Q 1035.7 387.2, 1034.8 387.6 Q 1033.9 388.0, 1032.7 388.0 Q 1030.8 388.0, 1029.7 387.2 Q 1028.7 386.3, 1028.7 384.8 Q 1028.7 383.9, 1029.1 383.2 Q 1029.6 382.5, 1030.6 381.9 Q 1029.9 381.5, 1029.5 380.9 Q 1029.1 380.3, 1029.1 379.3 Q 1029.1 378.0, 1030.0 377.2 Q 1031.0 376.4, 1032.7 376.4 Q 1034.3 376.4, 1035.3 377.2 Q 1036.2 378.0, 1036.2 379.3 Q 1036.2 380.2, 1035.8 380.8 Q 1035.3 381.4, 1034.4 381.9 M 1032.7 377.6 Q 1031.7 377.6, 1031.2 378.1 Q 1030.7 378.5, 1030.7 379.3 Q 1030.7 379.9, 1031.0 380.3 Q 1031.4 380.7, 1031.9 380.9 Q 1032.4 381.2, 1033.4 381.5 Q 1034.0 381.0, 1034.3 380.5 Q 1034.6 380.0, 1034.6 379.3 Q 1034.6 378.5, 1034.1 378.1 Q 1033.6 377.6, 1032.7 377.6 M 1032.7 386.8 Q 1033.8 386.8, 1034.4 386.3 Q 1035.1 385.7, 1035.1 384.8 Q 1035.1 384.2, 1034.7 383.8 Q 1034.4 383.4, 1033.9 383.2 Q 1033.4 382.9, 1032.5 382.7 L 1031.8 382.4 Q 1031.0 382.9, 1030.6 383.5 Q 1030.3 384.0, 1030.3 384.8 Q 1030.3 385.7, 1030.9 386.3 Q 1031.6 386.8, 1032.7 386.8 " fill="#000000"/>
<path class="legend" d="M 1041.8 388.0 Q 1039.7 388.0, 1038.7 386.5 Q 1037.7 384.9, 1037.7 382.2 Q 1037.7 379.5, 1038.7 378.0 Q 1039.7 376.4, 1041.8 376.4 Q 1043.9 376.4, 1044.9 378.0 Q 1045.9 379.5, 1045.9 382.2 Q 1045.9 384.9, 1044.9 386.5 Q 1043.9 388.0, 1041.8 388.0 M 1041.8 386.7 Q 1043.0 386.7, 1043.7 385.6 Q 1044.3 384.4, 1044.3 382.2 Q 1044.3 380.0, 1043.7 378.8 Q 1043.0 377.7, 1041.8 377.7 Q 1040.6 377.7, 1039.9 378.8 Q 1039.3 380.0, 1039.3 382.2 Q 1039.3 384.4, 1039.9 385.6 Q 1040.6 386.7, 1041.8 386.7 " fill="#000000"/>
<path class="legend" d="M 1051.4 380.8 Q 1052.4 380.8, 1053.2 381.2 Q 1054.0 381.7, 1054.4 382.5 Q 1054.8 383.2, 1054.8 384.2 Q 1054.8 385.3, 1054.3 386.2 Q 1053.9 387.1, 1053.0 387.5 Q 1052.1 388.0, 1051.0 388.0 Q 1049.0 388.0, 1048.0 386.7 Q 1047.0 385.3, 1047.0 382.6 Q 1047.0 379.6, 1048.2 378.0 Q 1049.5 376.4, 1051.9 376.4 Q 1052.6 376.4, 1053.2 376.6 Q 1053.8 376.8, 1054.4 377.1 L 1053.8 378.2 Q 1052.9 377.7, 1051.9 377.7 Q 1050.3 377.7, 1049.5 378.8 Q 1048.7 379.8, 1048.6 381.9 Q 1049.2 381.4, 1049.9 381.1 Q 1050.6 380.8, 1051.4 380.8 M 1051.1 386.7 Q 1051.7 386.7, 1052.2 386.4 Q 1052.7 386.1, 1053.0 385.5 Q 1053.2 384.9, 1053.2 384.3 Q 1053.2 383.2, 1052.7 382.7 Q 1052.1 382.1, 1051.1 382.1 Q 1050.4 382.1, 1049.8 382.4 Q 1049.1 382.7, 1048.6 383.1 Q 1048.7 385.0, 1049.3 385.9 Q 1049.9 386.7, 1051.1 386.7 " fill="#000000"/>
<path class="legend" d="M 1063.1 384.0 L 1064.4 384.0 L 1064.4 385.3 L 1063.1 385.3 L 1063.1 387.9 L 1061.6 387.9 L 1061.6 385.3 L 1055.7 385.3 L 1055.7 384.3 L 1060.7 376.6 L 1063.1 376.6 L 1063.1 384.0 M 1057.6 384.0 L 1061.6 384.0 L 1061.6 377.6 L 1057.6 384.0 " fill="#000000"/>
<path class="bond-0 atom-0 atom-1" d="M 1276.0,143.2 L 1292.5,152.0" style="fill:none;fill-rule:evenodd;stroke:#FF0000;stroke-width:2.0px;stroke-linecap:butt;stroke-linejoin:miter;stroke-opacity:1"/>
<path class="bond-0 atom-0 atom-1" d="M 1292.5,152.0 L 1309.0,160.9" style="fill:none;fill-rule:evenodd;stroke:#000000;stroke-width:2.0px;stroke-linecap:butt;stroke-linejoin:miter;stroke-opacity:1"/>
<path class="bond-1 atom-1 atom-2" d="M 1309.0,160.9 L 1310.5,206.8" style="fill:none;fill-rule:evenodd;stroke:#000000;stroke-width:2.0px;stroke-linecap:butt;stroke-linejoin:miter;stroke-opacity:1"/>
<path class="bond-2 atom-2 atom-3" d="M 1310.5,206.8 L 1351.0,228.5" style="fill:none;fill-rule:evenodd;stroke:#000000;stroke-width:2.0px;stroke-linecap:butt;stroke-linejoin:miter;stroke-opacity:1"/>
<path class="bond-2 atom-2 atom-3" d="M 1320.9,202.0 L 1349.3,217.1" style="fill:none;fill-rule:evenodd;stroke:#000000;stroke-width:2.0px;stroke-linecap:butt;stroke-linejoin:miter;stroke-opacity:1"/>
<path class="bond-3 atom-3 atom-4" d="M 1351.0,228.5 L 1366.8,218.7" style="fill:none;fill-rule:evenodd;stroke:#000000;stroke-width:2.0px;stroke-linecap:butt;stroke-linejoin:miter;stroke-opacity:1"/>
<path class="bond-3 atom-3 atom-4" d="M 1366.8,218.7 L 1382.6,208.9" style="fill:none;fill-rule:evenodd;stroke:#FF0000;stroke-width:2.0px;stroke-linecap:butt;stroke-linejoin:miter;stroke-opacity:1"/>
<path class="bond-4 atom-4 atom-5" d="M 1397.6,208.3 L 1414.1,217.1" style="fill:none;fill-rule:evenodd;stroke:#FF0000;stroke-width:2.0px;stroke-linecap:butt;stroke-linejoin:miter;stroke-opacity:1"/>
<path class="bond-4 atom-4 atom-5" d="M 1414.1,217.1 L 1430.6,225.9" style="fill:none;fill-rule:evenodd;stroke:#000000;stroke-width:2.0px;stroke-linecap:butt;stroke-linejoin:miter;stroke-opacity:1"/>
<path class="bond-5 atom-5 atom-6" d="M 1430.6,225.9 L 1469.7,201.7" style="fill:none;fill-rule:evenodd;stroke:#000000;stroke-width:2.0px;stroke-linecap:butt;stroke-linejoin:miter;stroke-opacity:1"/>
<path class="bond-6 atom-6 atom-7" d="M 1469.7,201.7 L 1468.2,155.7" style="fill:none;fill-rule:evenodd;stroke:#000000;stroke-width:2.0px;stroke-linecap:butt;stroke-linejoin:miter;stroke-opacity:1"/>
<path class="bond-6 atom-6 atom-7" d="M 1478.6,194.5 L 1477.6,162.3" style="fill:none;fill-rule:evenodd;stroke:#000000;stroke-width:2.0px;stroke-linecap:butt;stroke-linejoin:miter;stroke-opacity:1"/>
<path class="bond-7 atom-7 atom-8" d="M 1468.2,155.7 L 1507.2,131.5" style="fill:none;fill-rule:evenodd;stroke:#000000;stroke-width:2.0px;stroke-linecap:butt;stroke-linejoin:miter;stroke-opacity:1"/>
<path class="bond-8 atom-8 atom-9" d="M 1507.2,131.5 L 1547.7,153.2" style="fill:none;fill-rule:evenodd;stroke:#000000;stroke-width:2.0px;stroke-linecap:butt;stroke-linejoin:miter;stroke-opacity:1"/>
<path class="bond-8 atom-8 atom-9" d="M 1509.0,142.9 L 1537.3,158.0" style="fill:none;fill-rule:evenodd;stroke:#000000;stroke-width:2.0px;stroke-linecap:butt;stroke-linejoin:miter;stroke-opacity:1"/>
<path class="bond-9 atom-9 atom-10" d="M 1547.7,153.2 L 1549.2,199.1" style="fill:none;fill-rule:evenodd;stroke:#000000;stroke-width:2.0px;stroke-linecap:butt;stroke-linejoin:miter;stroke-opacity:1"/>
<path class="bond-10 atom-10 atom-11" d="M 1549.2,199.1 L 1510.2,223.4" style="fill:none;fill-rule:evenodd;stroke:#000000;stroke-width:2.0px;stroke-linecap:butt;stroke-linejoin:miter;stroke-opacity:1"/>
<path class="bond-10 atom-10 atom-11" d="M 1538.5,195.0 L 1511.2,211.9" style="fill:none;fill-rule:evenodd;stroke:#000000;stroke-width:2.0px;stroke-linecap:butt;stroke-linejoin:miter;stroke-opacity:1"/>
<path class="bond-11 atom-11 atom-6" d="M 1510.2,223.4 L 1469.7,201.7" style="fill:none;fill-rule:evenodd;stroke:#000000;stroke-width:2.0px;stroke-linecap:butt;stroke-linejoin:miter;stroke-opacity:1"/>
<path class="atom-0" d="M 1250.8 132.8 L 1252.5 132.8 L 1252.5 138.3 L 1259.2 138.3 L 1259.2 132.8 L 1261.0 132.8 L 1261.0 145.8 L 1259.2 145.8 L 1259.2 139.8 L 1252.5 139.8 L 1252.5 145.8 L 1250.8 145.8 L 1250.8 132.8 " fill="#FF0000"/>
<path class="atom-0" d="M 1262.5 139.2 Q 1262.5 136.1, 1264.1 134.4 Q 1265.6 132.6, 1268.5 132.6 Q 1271.4 132.6, 1272.9 134.4 Q 1274.5 136.1, 1274.5 139.2 Q 1274.5 142.4, 1272.9 144.2 Q 1271.3 146.0, 1268.5 146.0 Q 1265.6 146.0, 1264.1 144.2 Q 1262.5 142.4, 1262.5 139.2 M 1268.5 144.5 Q 1270.5 144.5, 1271.6 143.2 Q 1272.6 141.8, 1272.6 139.2 Q 1272.6 136.7, 1271.6 135.4 Q 1270.5 134.1, 1268.5 134.1 Q 1266.5 134.1, 1265.4 135.4 Q 1264.4 136.6, 1264.4 139.2 Q 1264.4 141.9, 1265.4 143.2 Q 1266.5 144.5, 1268.5 144.5 " fill="#FF0000"/>
<path class="atom-4" d="M 1384.1 204.3 Q 1384.1 201.2, 1385.6 199.4 Q 1387.2 197.7, 1390.1 197.7 Q 1393.0 197.7, 1394.5 199.4 Q 1396.1 201.2, 1396.1 204.3 Q 1396.1 207.5, 1394.5 209.3 Q 1392.9 211.0, 1390.1 211.0 Q 1387.2 211.0, 1385.6 209.3 Q 1384.1 207.5, 1384.1 204.3 M 1390.1 209.6 Q 1392.1 209.6, 1393.1 208.2 Q 1394.2 206.9, 1394.2 204.3 Q 1394.2 201.7, 1393.1 200.4 Q 1392.1 199.1, 1390.1 199.1 Q 1388.1 199.1, 1387.0 200.4 Q 1385.9 201.7, 1385.9 204.3 Q 1385.9 206.9, 1387.0 208.2 Q 1388.1 209.6, 1390.1 209.6 " fill="#FF0000"/>
<path class="legend" d="M 1371.9 365.4 L 1372.1 366.5 Q 1373.0 365.3, 1374.4 365.3 Q 1374.8 365.3, 1375.4 365.4 L 1375.2 366.8 Q 1374.5 366.6, 1374.1 366.6 Q 1373.5 366.6, 1373.0 366.9 Q 1372.6 367.1, 1372.2 367.8 L 1372.2 373.6 L 1370.7 373.6 L 1370.7 365.4 L 1371.9 365.4 " fill="#000000"/>
<path class="legend" d="M 1375.7 369.5 Q 1375.7 367.5, 1376.7 366.4 Q 1377.7 365.3, 1379.5 365.3 Q 1381.3 365.3, 1382.1 366.4 Q 1383.0 367.4, 1383.0 369.5 L 1383.0 369.7 L 1377.2 369.7 Q 1377.2 371.1, 1377.9 371.8 Q 1378.5 372.6, 1379.7 372.6 Q 1380.3 372.6, 1380.9 372.4 Q 1381.5 372.3, 1382.2 372.0 L 1382.6 373.0 Q 1381.8 373.4, 1381.1 373.6 Q 1380.4 373.8, 1379.6 373.8 Q 1377.7 373.8, 1376.7 372.6 Q 1375.7 371.5, 1375.7 369.5 M 1379.5 366.4 Q 1378.6 366.4, 1378.0 367.0 Q 1377.5 367.5, 1377.3 368.6 L 1381.4 368.6 Q 1381.3 367.5, 1380.8 367.0 Q 1380.4 366.4, 1379.5 366.4 " fill="#000000"/>
<path class="legend" d="M 1383.6 371.4 Q 1383.6 370.1, 1384.6 369.4 Q 1385.7 368.7, 1387.6 368.7 L 1388.8 368.7 L 1388.8 368.3 Q 1388.8 367.3, 1388.4 366.9 Q 1388.0 366.4, 1387.0 366.4 Q 1386.3 366.4, 1385.8 366.6 Q 1385.3 366.7, 1384.5 367.0 L 1384.0 366.0 Q 1385.5 365.3, 1387.0 365.3 Q 1388.7 365.3, 1389.5 366.0 Q 1390.3 366.8, 1390.3 368.4 L 1390.3 373.6 L 1389.2 373.6 Q 1389.2 373.6, 1389.1 373.3 Q 1389.1 373.1, 1389.0 372.7 Q 1387.8 373.8, 1386.3 373.8 Q 1385.0 373.8, 1384.3 373.2 Q 1383.6 372.5, 1383.6 371.4 M 1385.1 371.4 Q 1385.1 372.0, 1385.5 372.3 Q 1385.8 372.6, 1386.6 372.6 Q 1387.2 372.6, 1387.8 372.4 Q 1388.4 372.0, 1388.8 371.5 L 1388.8 369.8 L 1387.7 369.8 Q 1386.4 369.8, 1385.7 370.2 Q 1385.1 370.6, 1385.1 371.4 " fill="#000000"/>
<path class="legend" d="M 1391.6 369.5 Q 1391.6 367.5, 1392.6 366.4 Q 1393.6 365.3, 1395.5 365.3 Q 1397.4 365.3, 1398.4 366.6 L 1397.3 367.4 Q 1397.0 366.9, 1396.5 366.7 Q 1396.1 366.4, 1395.5 366.4 Q 1394.4 366.4, 1393.7 367.2 Q 1393.1 368.0, 1393.1 369.5 Q 1393.1 371.0, 1393.7 371.8 Q 1394.4 372.6, 1395.6 372.6 Q 1396.3 372.6, 1396.7 372.4 Q 1397.2 372.3, 1397.8 372.0 L 1398.2 373.0 Q 1397.0 373.7, 1395.5 373.7 Q 1393.6 373.7, 1392.6 372.6 Q 1391.6 371.5, 1391.6 369.5 " fill="#000000"/>
<path class="legend" d="M 1398.7 366.6 L 1398.7 365.4 L 1400.3 365.4 L 1400.6 363.0 L 1401.7 363.0 L 1401.7 365.4 L 1404.2 365.4 L 1404.2 366.6 L 1401.7 366.6 L 1401.7 371.1 Q 1401.7 372.5, 1402.9 372.5 Q 1403.4 372.5, 1404.1 372.3 L 1404.3 373.4 Q 1403.4 373.7, 1402.6 373.7 Q 1401.5 373.7, 1400.8 373.1 Q 1400.2 372.4, 1400.2 371.2 L 1400.2 366.6 L 1398.7 366.6 " fill="#000000"/>
<path class="legend" d="M 1412.9 374.4 L 1412.9 375.7 L 1404.7 375.7 L 1404.7 374.4 L 1412.9 374.4 " fill="#000000"/>
<path class="legend" d="M 1417.3 366.6 Q 1418.3 366.6, 1419.1 367.0 Q 1419.9 367.4, 1420.3 368.2 Q 1420.7 369.0, 1420.7 370.0 Q 1420.7 371.1, 1420.2 372.0 Q 1419.8 372.8, 1418.9 373.3 Q 1418.0 373.8, 1416.9 373.8 Q 1414.9 373.8, 1413.9 372.4 Q 1412.9 371.0, 1412.9 368.3 Q 1412.9 365.3, 1414.1 363.7 Q 1415.4 362.2, 1417.8 362.2 Q 1418.5 362.2, 1419.1 362.3 Q 1419.7 362.5, 1420.3 362.8 L 1419.7 363.9 Q 1418.8 363.5, 1417.8 363.5 Q 1416.2 363.5, 1415.4 364.5 Q 1414.6 365.5, 1414.5 367.6 Q 1415.1 367.1, 1415.8 366.8 Q 1416.5 366.6, 1417.3 366.6 M 1416.9 372.4 Q 1417.6 372.4, 1418.0 372.1 Q 1418.6 371.8, 1418.8 371.2 Q 1419.1 370.7, 1419.1 370.0 Q 1419.1 369.0, 1418.6 368.4 Q 1418.0 367.8, 1417.0 367.8 Q 1416.3 367.8, 1415.6 368.1 Q 1415.0 368.4, 1414.5 368.9 Q 1414.6 370.8, 1415.2 371.6 Q 1415.7 372.4, 1416.9 372.4 " fill="#000000"/>
<path class="legend" d="M 1425.7 366.5 Q 1426.7 366.5, 1427.5 367.0 Q 1428.4 367.4, 1428.8 368.2 Q 1429.3 369.0, 1429.3 370.0 Q 1429.3 371.2, 1428.7 372.1 Q 1428.1 372.9, 1427.2 373.3 Q 1426.3 373.8, 1425.2 373.8 Q 1424.2 373.8, 1423.2 373.4 Q 1422.3 373.0, 1421.6 372.3 L 1422.6 371.3 Q 1423.1 371.8, 1423.8 372.2 Q 1424.5 372.5, 1425.3 372.5 Q 1426.3 372.5, 1427.0 371.8 Q 1427.7 371.2, 1427.7 370.1 Q 1427.7 368.9, 1427.0 368.3 Q 1426.3 367.7, 1425.2 367.7 Q 1424.2 367.7, 1423.1 368.2 L 1422.2 367.8 L 1422.8 362.3 L 1428.6 362.3 L 1428.4 363.6 L 1424.1 363.6 L 1423.7 366.9 Q 1424.7 366.5, 1425.7 366.5 " fill="#000000"/>
<path class="legend" d="M 1337.2 383.8 Q 1337.2 381.8, 1338.2 380.7 Q 1339.2 379.5, 1341.1 379.5 Q 1343.0 379.5, 1344.0 380.9 L 1343.0 381.6 Q 1342.6 381.2, 1342.1 380.9 Q 1341.7 380.7, 1341.1 380.7 Q 1340.0 380.7, 1339.4 381.5 Q 1338.7 382.3, 1338.7 383.8 Q 1338.7 385.3, 1339.4 386.1 Q 1340.0 386.8, 1341.2 386.8 Q 1341.9 386.8, 1342.4 386.7 Q 1342.8 386.5, 1343.4 386.3 L 1343.8 387.3 Q 1342.6 388.0, 1341.1 388.0 Q 1339.2 388.0, 1338.2 386.9 Q 1337.2 385.7, 1337.2 383.8 " fill="#000000"/>
<path class="legend" d="M 1344.4 383.8 Q 1344.4 381.7, 1345.4 380.6 Q 1346.4 379.5, 1348.2 379.5 Q 1350.0 379.5, 1350.8 380.6 Q 1351.7 381.7, 1351.7 383.7 L 1351.7 384.0 L 1345.9 384.0 Q 1345.9 385.4, 1346.6 386.1 Q 1347.2 386.8, 1348.4 386.8 Q 1349.0 386.8, 1349.6 386.7 Q 1350.2 386.5, 1350.9 386.2 L 1351.3 387.2 Q 1350.5 387.6, 1349.8 387.8 Q 1349.0 388.0, 1348.3 388.0 Q 1346.4 388.0, 1345.4 386.9 Q 1344.4 385.8, 1344.4 383.8 M 1348.2 380.7 Q 1347.3 380.7, 1346.7 381.2 Q 1346.1 381.8, 1346.0 382.8 L 1350.1 382.8 Q 1350.0 381.7, 1349.5 381.2 Q 1349.1 380.7, 1348.2 380.7 " fill="#000000"/>
<path class="legend" d="M 1356.5 379.5 Q 1357.9 379.5, 1358.5 380.3 Q 1359.3 381.0, 1359.3 382.4 L 1359.3 387.9 L 1357.7 387.9 L 1357.7 382.6 Q 1357.7 381.6, 1357.4 381.2 Q 1357.0 380.7, 1356.2 380.7 Q 1355.4 380.7, 1354.8 381.1 Q 1354.2 381.4, 1353.8 382.0 L 1353.8 387.9 L 1352.3 387.9 L 1352.3 379.7 L 1353.5 379.7 L 1353.7 380.8 Q 1354.8 379.5, 1356.5 379.5 " fill="#000000"/>
<path class="legend" d="M 1360.5 380.8 L 1360.5 379.7 L 1362.1 379.7 L 1362.3 377.3 L 1363.4 377.3 L 1363.4 379.7 L 1365.9 379.7 L 1365.9 380.8 L 1363.4 380.8 L 1363.4 385.4 Q 1363.4 386.8, 1364.6 386.8 Q 1365.1 386.8, 1365.8 386.6 L 1366.1 387.6 Q 1365.2 388.0, 1364.4 388.0 Q 1363.3 388.0, 1362.6 387.3 Q 1361.9 386.7, 1361.9 385.4 L 1361.9 380.8 L 1360.5 380.8 " fill="#000000"/>
<path class="legend" d="M 1374.6 388.7 L 1374.6 390.0 L 1366.5 390.0 L 1366.5 388.7 L 1374.6 388.7 " fill="#000000"/>
<path class="legend" d="M 1382.1 375.7 L 1382.1 387.9 L 1380.9 387.9 L 1380.7 386.9 Q 1379.8 388.0, 1378.2 388.0 Q 1376.5 388.0, 1375.6 387.0 Q 1374.6 385.9, 1374.6 383.9 Q 1374.6 381.8, 1375.7 380.7 Q 1376.9 379.5, 1378.9 379.5 Q 1379.7 379.5, 1380.6 379.7 L 1380.6 375.7 L 1382.1 375.7 M 1378.3 386.8 Q 1379.2 386.8, 1379.8 386.4 Q 1380.4 385.9, 1380.6 385.1 L 1380.6 380.9 Q 1379.8 380.7, 1378.9 380.7 Q 1377.6 380.7, 1376.9 381.6 Q 1376.2 382.4, 1376.2 383.9 Q 1376.2 385.3, 1376.7 386.1 Q 1377.3 386.8, 1378.3 386.8 " fill="#000000"/>
<path class="legend" d="M 1383.4 376.6 L 1384.9 376.6 L 1384.9 378.0 L 1383.4 378.0 L 1383.4 376.6 M 1383.4 379.7 L 1384.9 379.7 L 1384.9 387.9 L 1383.4 387.9 L 1383.4 379.7 " fill="#000000"/>
<path class="legend" d="M 1386.7 386.2 Q 1387.4 386.5, 1387.9 386.6 Q 1388.5 386.8, 1389.0 386.8 Q 1389.7 386.8, 1390.1 386.5 Q 1390.5 386.2, 1390.5 385.6 Q 1390.5 385.2, 1390.3 385.0 Q 1390.1 384.8, 1389.8 384.6 Q 1389.6 384.5, 1388.9 384.3 Q 1388.8 384.3, 1388.0 384.0 Q 1387.3 383.7, 1386.9 383.2 Q 1386.5 382.7, 1386.5 381.9 Q 1386.5 380.9, 1387.3 380.2 Q 1388.0 379.5, 1389.5 379.5 Q 1390.1 379.5, 1390.7 379.7 Q 1391.3 379.8, 1391.9 380.0 L 1391.5 381.2 Q 1390.9 381.0, 1390.5 380.9 Q 1390.0 380.8, 1389.5 380.8 Q 1388.8 380.8, 1388.4 381.1 Q 1388.0 381.4, 1388.0 381.8 Q 1388.0 382.3, 1388.3 382.5 Q 1388.6 382.7, 1389.3 383.0 Q 1389.5 383.0, 1389.6 383.1 L 1390.0 383.2 Q 1390.7 383.4, 1391.1 383.7 Q 1391.5 383.9, 1391.8 384.4 Q 1392.1 384.8, 1392.1 385.6 Q 1392.1 386.7, 1391.2 387.4 Q 1390.4 388.0, 1389.0 388.0 Q 1388.2 388.0, 1387.6 387.9 Q 1386.9 387.7, 1386.2 387.4 L 1386.7 386.2 " fill="#000000"/>
<path class="legend" d="M 1392.9 380.8 L 1392.9 379.7 L 1394.5 379.7 L 1394.7 377.3 L 1395.8 377.3 L 1395.8 379.7 L 1398.4 379.7 L 1398.4 380.8 L 1395.8 380.8 L 1395.8 385.4 Q 1395.8 386.8, 1397.0 386.8 Q 1397.5 386.8, 1398.2 386.6 L 1398.5 387.6 Q 1397.6 388.0, 1396.8 388.0 Q 1395.7 388.0, 1395.0 387.3 Q 1394.3 386.7, 1394.3 385.4 L 1394.3 380.8 L 1392.9 380.8 " fill="#000000"/>
<path class="legend" d="" fill="#000000"/>
<path class="legend" d="M 1404.2 380.9 L 1411.5 380.9 L 1411.5 382.1 L 1404.2 382.1 L 1404.2 380.9 M 1404.2 384.4 L 1411.5 384.4 L 1411.5 385.5 L 1404.2 385.5 L 1404.2 384.4 " fill="#000000"/>
<path class="legend" d="" fill="#000000"/>
<path class="legend" d="M 1422.5 388.0 Q 1420.4 388.0, 1419.4 386.5 Q 1418.3 384.9, 1418.3 382.2 Q 1418.3 379.5, 1419.4 378.0 Q 1420.4 376.4, 1422.5 376.4 Q 1424.6 376.4, 1425.6 378.0 Q 1426.6 379.5, 1426.6 382.2 Q 1426.6 384.9, 1425.6 386.5 Q 1424.6 388.0, 1422.5 388.0 M 1422.5 386.7 Q 1423.7 386.7, 1424.4 385.6 Q 1425.0 384.4, 1425.0 382.2 Q 1425.0 380.0, 1424.4 378.8 Q 1423.7 377.7, 1422.5 377.7 Q 1421.3 377.7, 1420.6 378.8 Q 1419.9 380.0, 1419.9 382.2 Q 1419.9 384.4, 1420.6 385.6 Q 1421.3 386.7, 1422.5 386.7 " fill="#000000"/>
<path class="legend" d="M 1427.7 386.3 L 1429.3 386.3 L 1429.3 387.9 L 1427.7 387.9 L 1427.7 386.3 " fill="#000000"/>
<path class="legend" d="M 1436.1 381.9 Q 1437.1 382.3, 1437.7 383.0 Q 1438.3 383.7, 1438.3 384.8 Q 1438.3 385.7, 1437.8 386.5 Q 1437.3 387.2, 1436.4 387.6 Q 1435.5 388.0, 1434.4 388.0 Q 1432.5 388.0, 1431.4 387.2 Q 1430.3 386.3, 1430.3 384.8 Q 1430.3 383.9, 1430.8 383.2 Q 1431.3 382.5, 1432.3 381.9 Q 1431.5 381.5, 1431.1 380.9 Q 1430.7 380.3, 1430.7 379.3 Q 1430.7 378.0, 1431.7 377.2 Q 1432.7 376.4, 1434.3 376.4 Q 1435.9 376.4, 1436.9 377.2 Q 1437.9 378.0, 1437.9 379.3 Q 1437.9 380.2, 1437.4 380.8 Q 1437.0 381.4, 1436.1 381.9 M 1434.3 377.6 Q 1433.4 377.6, 1432.8 378.1 Q 1432.3 378.5, 1432.3 379.3 Q 1432.3 379.9, 1432.7 380.3 Q 1433.0 380.7, 1433.5 380.9 Q 1434.0 381.2, 1435.0 381.5 Q 1435.7 381.0, 1436.0 380.5 Q 1436.3 380.0, 1436.3 379.3 Q 1436.3 378.5, 1435.8 378.1 Q 1435.2 377.6, 1434.3 377.6 M 1434.4 386.8 Q 1435.4 386.8, 1436.1 386.3 Q 1436.7 385.7, 1436.7 384.8 Q 1436.7 384.2, 1436.4 383.8 Q 1436.0 383.4, 1435.5 383.2 Q 1435.0 382.9, 1434.1 382.7 L 1433.4 382.4 Q 1432.6 382.9, 1432.3 383.5 Q 1431.9 384.0, 1431.9 384.8 Q 1431.9 385.7, 1432.6 386.3 Q 1433.2 386.8, 1434.4 386.8 " fill="#000000"/>
<path class="legend" d="M 1439.9 386.6 L 1442.4 386.6 L 1442.4 378.1 L 1439.7 379.0 L 1439.3 378.0 L 1442.8 376.5 L 1443.9 376.7 L 1443.9 386.6 L 1446.1 386.6 L 1446.1 387.9 L 1439.9 387.9 L 1439.9 386.6 " fill="#000000"/>
<path class="legend" d="M 1452.7 377.8 L 1446.8 377.8 L 1446.8 376.6 L 1454.3 376.6 L 1454.3 377.7 L 1449.8 387.9 L 1448.2 387.9 L 1452.7 377.8 " fill="#000000"/>
<path class="legend" d="M 1460.6 381.9 Q 1461.6 382.3, 1462.2 383.0 Q 1462.8 383.7, 1462.8 384.8 Q 1462.8 385.7, 1462.3 386.5 Q 1461.8 387.2, 1460.9 387.6 Q 1460.0 388.0, 1458.9 388.0 Q 1457.0 388.0, 1455.9 387.2 Q 1454.8 386.3, 1454.8 384.8 Q 1454.8 383.9, 1455.3 383.2 Q 1455.8 382.5, 1456.7 381.9 Q 1456.0 381.5, 1455.6 380.9 Q 1455.2 380.3, 1455.2 379.3 Q 1455.2 378.0, 1456.2 377.2 Q 1457.1 376.4, 1458.8 376.4 Q 1460.4 376.4, 1461.4 377.2 Q 1462.4 378.0, 1462.4 379.3 Q 1462.4 380.2, 1461.9 380.8 Q 1461.5 381.4, 1460.6 381.9 M 1458.8 377.6 Q 1457.9 377.6, 1457.3 378.1 Q 1456.8 378.5, 1456.8 379.3 Q 1456.8 379.9, 1457.2 380.3 Q 1457.5 380.7, 1458.0 380.9 Q 1458.5 381.2, 1459.5 381.5 Q 1460.2 381.0, 1460.5 380.5 Q 1460.8 380.0, 1460.8 379.3 Q 1460.8 378.5, 1460.3 378.1 Q 1459.7 377.6, 1458.8 377.6 M 1458.9 386.8 Q 1459.9 386.8, 1460.6 386.3 Q 1461.2 385.7, 1461.2 384.8 Q 1461.2 384.2, 1460.9 383.8 Q 1460.5 383.4, 1460.0 383.2 Q 1459.5 382.9, 1458.6 382.7 L 1457.9 382.4 Q 1457.1 382.9, 1456.7 383.5 Q 1456.4 384.0, 1456.4 384.8 Q 1456.4 385.7, 1457.1 386.3 Q 1457.7 386.8, 1458.9 386.8 " fill="#000000"/>
<path class="bond-0 atom-0 atom-1" d="M 1634.4,210.3 L 1665.0,176.0" style="fill:none;fill-rule:evenodd;stroke:#000000;stroke-width:2.0px;stroke-linecap:butt;stroke-linejoin:miter;stroke-opacity:1"/>
<path class="bond-1 atom-1 atom-2" d="M 1665.0,176.0 L 1710.0,185.4" style="fill:none;fill-rule:evenodd;stroke:#000000;stroke-width:2.0px;stroke-linecap:butt;stroke-linejoin:miter;stroke-opacity:1"/>
<path class="bond-2 atom-2 atom-3" d="M 1710.0,185.4 L 1740.7,151.1" style="fill:none;fill-rule:evenodd;stroke:#000000;stroke-width:2.0px;stroke-linecap:butt;stroke-linejoin:miter;stroke-opacity:1"/>
<path class="bond-3 atom-3 atom-4" d="M 1740.7,151.1 L 1785.6,160.5" style="fill:none;fill-rule:evenodd;stroke:#000000;stroke-width:2.0px;stroke-linecap:butt;stroke-linejoin:miter;stroke-opacity:1"/>
<path class="bond-4 atom-4 atom-5" d="M 1785.6,160.5 L 1816.3,126.3" style="fill:none;fill-rule:evenodd;stroke:#000000;stroke-width:2.0px;stroke-linecap:butt;stroke-linejoin:miter;stroke-opacity:1"/>
<path class="bond-5 atom-5 atom-6" d="M 1816.3,126.3 L 1861.3,135.7" style="fill:none;fill-rule:evenodd;stroke:#000000;stroke-width:2.0px;stroke-linecap:butt;stroke-linejoin:miter;stroke-opacity:1"/>
<path class="bond-5 atom-5 atom-6" d="M 1821.2,136.7 L 1852.7,143.3" style="fill:none;fill-rule:evenodd;stroke:#000000;stroke-width:2.0px;stroke-linecap:butt;stroke-linejoin:miter;stroke-opacity:1"/>
<path class="bond-6 atom-6 atom-7" d="M 1861.3,135.7 L 1875.6,179.3" style="fill:none;fill-rule:evenodd;stroke:#000000;stroke-width:2.0px;stroke-linecap:butt;stroke-linejoin:miter;stroke-opacity:1"/>
<path class="bond-7 atom-7 atom-8" d="M 1875.6,179.3 L 1913.7,187.3" style="fill:none;fill-rule:evenodd;stroke:#000000;stroke-width:2.0px;stroke-linecap:butt;stroke-linejoin:miter;stroke-opacity:1"/>
<path class="bond-8 atom-8 atom-9" d="M 1918.9,197.1 L 1911.2,233.7" style="fill:none;fill-rule:evenodd;stroke:#000000;stroke-width:2.0px;stroke-linecap:butt;stroke-linejoin:miter;stroke-opacity:1"/>
<path class="bond-9 atom-8 atom-10" d="M 1922.3,180.8 L 1930.0,143.7" style="fill:none;fill-rule:evenodd;stroke:#000000;stroke-width:2.0px;stroke-linecap:butt;stroke-linejoin:miter;stroke-opacity:1"/>
<path class="bond-10 atom-8 atom-11" d="M 1927.6,190.2 L 1965.6,198.1" style="fill:none;fill-rule:evenodd;stroke:#000000;stroke-width:2.0px;stroke-linecap:butt;stroke-linejoin:miter;stroke-opacity:1"/>
<path class="atom-8" d="M 1915.7 193.2 Q 1915.8 193.3, 1916.4 193.5 Q 1917.0 193.8, 1917.7 194.0 Q 1918.4 194.1, 1919.0 194.1 Q 1920.3 194.1, 1921.0 193.5 Q 1921.7 192.9, 1921.7 191.9 Q 1921.7 191.1, 1921.3 190.7 Q 1921.0 190.3, 1920.4 190.0 Q 1919.9 189.8, 1919.0 189.5 Q 1917.8 189.2, 1917.1 188.8 Q 1916.4 188.5, 1915.9 187.8 Q 1915.5 187.1, 1915.5 185.9 Q 1915.5 184.3, 1916.6 183.3 Q 1917.7 182.3, 1919.9 182.3 Q 1921.4 182.3, 1923.1 183.0 L 1922.7 184.4 Q 1921.1 183.8, 1919.9 183.8 Q 1918.7 183.8, 1918.0 184.3 Q 1917.3 184.8, 1917.3 185.7 Q 1917.3 186.4, 1917.6 186.8 Q 1918.0 187.3, 1918.5 187.5 Q 1919.1 187.7, 1919.9 188.0 Q 1921.1 188.4, 1921.8 188.7 Q 1922.5 189.1, 1923.0 189.9 Q 1923.5 190.6, 1923.5 191.9 Q 1923.5 193.7, 1922.3 194.6 Q 1921.1 195.6, 1919.1 195.6 Q 1918.0 195.6, 1917.1 195.3 Q 1916.2 195.1, 1915.2 194.7 L 1915.7 193.2 " fill="#000000"/>
<path class="atom-8" d="M 1924.4 182.2 L 1926.1 182.2 L 1926.1 183.8 L 1924.4 183.8 L 1924.4 182.2 M 1924.4 185.8 L 1926.1 185.8 L 1926.1 195.2 L 1924.4 195.2 L 1924.4 185.8 " fill="#000000"/>
<path class="legend" d="M 1772.7 365.4 L 1772.9 366.5 Q 1773.8 365.3, 1775.2 365.3 Q 1775.6 365.3, 1776.2 365.4 L 1776.0 366.8 Q 1775.3 366.6, 1774.9 366.6 Q 1774.2 366.6, 1773.8 366.9 Q 1773.4 367.1, 1773.0 367.8 L 1773.0 373.6 L 1771.5 373.6 L 1771.5 365.4 L 1772.7 365.4 " fill="#000000"/>
<path class="legend" d="M 1776.5 369.5 Q 1776.5 367.5, 1777.5 366.4 Q 1778.5 365.3, 1780.3 365.3 Q 1782.1 365.3, 1782.9 366.4 Q 1783.8 367.4, 1783.8 369.5 L 1783.8 369.7 L 1778.0 369.7 Q 1778.0 371.1, 1778.7 371.8 Q 1779.3 372.6, 1780.5 372.6 Q 1781.1 372.6, 1781.7 372.4 Q 1782.3 372.3, 1783.0 372.0 L 1783.4 373.0 Q 1782.6 373.4, 1781.9 373.6 Q 1781.1 373.8, 1780.4 373.8 Q 1778.5 373.8, 1777.5 372.6 Q 1776.5 371.5, 1776.5 369.5 M 1780.3 366.4 Q 1779.4 366.4, 1778.8 367.0 Q 1778.2 367.5, 1778.1 368.6 L 1782.2 368.6 Q 1782.1 367.5, 1781.6 367.0 Q 1781.2 366.4, 1780.3 366.4 " fill="#000000"/>
<path class="legend" d="M 1784.4 371.4 Q 1784.4 370.1, 1785.4 369.4 Q 1786.5 368.7, 1788.4 368.7 L 1789.6 368.7 L 1789.6 368.3 Q 1789.6 367.3, 1789.2 366.9 Q 1788.8 366.4, 1787.8 366.4 Q 1787.1 366.4, 1786.6 366.6 Q 1786.1 366.7, 1785.3 367.0 L 1784.8 366.0 Q 1786.3 365.3, 1787.8 365.3 Q 1789.5 365.3, 1790.3 366.0 Q 1791.1 366.8, 1791.1 368.4 L 1791.1 373.6 L 1790.0 373.6 Q 1789.9 373.6, 1789.9 373.3 Q 1789.8 373.1, 1789.8 372.7 Q 1788.6 373.8, 1787.1 373.8 Q 1785.8 373.8, 1785.1 373.2 Q 1784.4 372.5, 1784.4 371.4 M 1785.9 371.4 Q 1785.9 372.0, 1786.2 372.3 Q 1786.6 372.6, 1787.4 372.6 Q 1788.0 372.6, 1788.6 372.4 Q 1789.2 372.0, 1789.6 371.5 L 1789.6 369.8 L 1788.5 369.8 Q 1787.2 369.8, 1786.5 370.2 Q 1785.9 370.6, 1785.9 371.4 " fill="#000000"/>
<path class="legend" d="M 1792.4 369.5 Q 1792.4 367.5, 1793.4 366.4 Q 1794.3 365.3, 1796.3 365.3 Q 1798.2 365.3, 1799.1 366.6 L 1798.1 367.4 Q 1797.8 366.9, 1797.3 366.7 Q 1796.9 366.4, 1796.3 366.4 Q 1795.2 366.4, 1794.5 367.2 Q 1793.9 368.0, 1793.9 369.5 Q 1793.9 371.0, 1794.5 371.8 Q 1795.2 372.6, 1796.4 372.6 Q 1797.1 372.6, 1797.5 372.4 Q 1798.0 372.3, 1798.6 372.0 L 1799.0 373.0 Q 1797.8 373.7, 1796.3 373.7 Q 1794.3 373.7, 1793.4 372.6 Q 1792.4 371.5, 1792.4 369.5 " fill="#000000"/>
<path class="legend" d="M 1799.5 366.6 L 1799.5 365.4 L 1801.1 365.4 L 1801.4 363.0 L 1802.5 363.0 L 1802.5 365.4 L 1805.0 365.4 L 1805.0 366.6 L 1802.5 366.6 L 1802.5 371.1 Q 1802.5 372.5, 1803.7 372.5 Q 1804.2 372.5, 1804.9 372.3 L 1805.1 373.4 Q 1804.2 373.7, 1803.4 373.7 Q 1802.3 373.7, 1801.6 373.1 Q 1801.0 372.4, 1801.0 371.2 L 1801.0 366.6 L 1799.5 366.6 " fill="#000000"/>
<path class="legend" d="M 1813.7 374.4 L 1813.7 375.7 L 1805.5 375.7 L 1805.5 374.4 L 1813.7 374.4 " fill="#000000"/>
<path class="legend" d="M 1819.6 363.6 L 1813.7 363.6 L 1813.7 362.3 L 1821.2 362.3 L 1821.2 363.4 L 1816.6 373.6 L 1815.1 373.6 L 1819.6 363.6 " fill="#000000"/>
<path class="legend" d="M 1822.3 372.4 L 1824.8 372.4 L 1824.8 363.9 L 1822.0 364.7 L 1821.7 363.8 L 1825.1 362.2 L 1826.3 362.4 L 1826.3 372.4 L 1828.5 372.4 L 1828.5 373.6 L 1822.3 373.6 L 1822.3 372.4 " fill="#000000"/>
<path class="legend" d="M 1737.9 383.8 Q 1737.9 381.8, 1738.9 380.7 Q 1739.9 379.5, 1741.9 379.5 Q 1743.7 379.5, 1744.7 380.9 L 1743.7 381.6 Q 1743.3 381.2, 1742.9 380.9 Q 1742.4 380.7, 1741.9 380.7 Q 1740.7 380.7, 1740.1 381.5 Q 1739.5 382.3, 1739.5 383.8 Q 1739.5 385.3, 1740.1 386.1 Q 1740.8 386.8, 1742.0 386.8 Q 1742.6 386.8, 1743.1 386.7 Q 1743.6 386.5, 1744.1 386.3 L 1744.6 387.3 Q 1743.4 388.0, 1741.9 388.0 Q 1739.9 388.0, 1738.9 386.9 Q 1737.9 385.7, 1737.9 383.8 " fill="#000000"/>
<path class="legend" d="M 1745.1 383.8 Q 1745.1 381.7, 1746.1 380.6 Q 1747.1 379.5, 1749.0 379.5 Q 1750.8 379.5, 1751.6 380.6 Q 1752.4 381.7, 1752.4 383.7 L 1752.4 384.0 L 1746.6 384.0 Q 1746.7 385.4, 1747.3 386.1 Q 1747.9 386.8, 1749.1 386.8 Q 1749.7 386.8, 1750.3 386.7 Q 1750.9 386.5, 1751.6 386.2 L 1752.1 387.2 Q 1751.2 387.6, 1750.5 387.8 Q 1749.8 388.0, 1749.0 388.0 Q 1747.1 388.0, 1746.1 386.9 Q 1745.1 385.8, 1745.1 383.8 M 1749.0 380.7 Q 1748.0 380.7, 1747.4 381.2 Q 1746.9 381.8, 1746.7 382.8 L 1750.8 382.8 Q 1750.7 381.7, 1750.2 381.2 Q 1749.8 380.7, 1749.0 380.7 " fill="#000000"/>
<path class="legend" d="M 1757.3 379.5 Q 1758.6 379.5, 1759.3 380.3 Q 1760.0 381.0, 1760.0 382.4 L 1760.0 387.9 L 1758.5 387.9 L 1758.5 382.6 Q 1758.5 381.6, 1758.1 381.2 Q 1757.7 380.7, 1756.9 380.7 Q 1756.1 380.7, 1755.5 381.1 Q 1754.9 381.4, 1754.5 382.0 L 1754.5 387.9 L 1753.0 387.9 L 1753.0 379.7 L 1754.2 379.7 L 1754.4 380.8 Q 1755.5 379.5, 1757.3 379.5 " fill="#000000"/>
<path class="legend" d="M 1761.2 380.8 L 1761.2 379.7 L 1762.8 379.7 L 1763.0 377.3 L 1764.2 377.3 L 1764.2 379.7 L 1766.7 379.7 L 1766.7 380.8 L 1764.2 380.8 L 1764.2 385.4 Q 1764.2 386.8, 1765.4 386.8 Q 1765.8 386.8, 1766.5 386.6 L 1766.8 387.6 Q 1765.9 388.0, 1765.1 388.0 Q 1764.0 388.0, 1763.3 387.3 Q 1762.7 386.7, 1762.7 385.4 L 1762.7 380.8 L 1761.2 380.8 " fill="#000000"/>
<path class="legend" d="M 1775.4 388.7 L 1775.4 390.0 L 1767.2 390.0 L 1767.2 388.7 L 1775.4 388.7 " fill="#000000"/>
<path class="legend" d="M 1782.8 375.7 L 1782.8 387.9 L 1781.6 387.9 L 1781.4 386.9 Q 1780.5 388.0, 1779.0 388.0 Q 1777.3 388.0, 1776.3 387.0 Q 1775.4 385.9, 1775.4 383.9 Q 1775.4 381.8, 1776.5 380.7 Q 1777.6 379.5, 1779.6 379.5 Q 1780.4 379.5, 1781.3 379.7 L 1781.3 375.7 L 1782.8 375.7 M 1779.1 386.8 Q 1779.9 386.8, 1780.5 386.4 Q 1781.1 385.9, 1781.3 385.1 L 1781.3 380.9 Q 1780.5 380.7, 1779.6 380.7 Q 1778.3 380.7, 1777.6 381.6 Q 1776.9 382.4, 1776.9 383.9 Q 1776.9 385.3, 1777.5 386.1 Q 1778.0 386.8, 1779.1 386.8 " fill="#000000"/>
<path class="legend" d="M 1784.1 376.6 L 1785.6 376.6 L 1785.6 378.0 L 1784.1 378.0 L 1784.1 376.6 M 1784.1 379.7 L 1785.6 379.7 L 1785.6 387.9 L 1784.1 387.9 L 1784.1 379.7 " fill="#000000"/>
<path class="legend" d="M 1787.4 386.2 Q 1788.1 386.5, 1788.7 386.6 Q 1789.2 386.8, 1789.7 386.8 Q 1790.5 386.8, 1790.9 386.5 Q 1791.3 386.2, 1791.3 385.6 Q 1791.3 385.2, 1791.1 385.0 Q 1790.8 384.8, 1790.6 384.6 Q 1790.3 384.5, 1789.6 384.3 Q 1789.5 384.3, 1788.7 384.0 Q 1788.0 383.7, 1787.6 383.2 Q 1787.2 382.7, 1787.2 381.9 Q 1787.2 380.9, 1788.0 380.2 Q 1788.8 379.5, 1790.3 379.5 Q 1790.9 379.5, 1791.4 379.7 Q 1792.0 379.8, 1792.6 380.0 L 1792.2 381.2 Q 1791.7 381.0, 1791.2 380.9 Q 1790.7 380.8, 1790.3 380.8 Q 1789.5 380.8, 1789.1 381.1 Q 1788.7 381.4, 1788.7 381.8 Q 1788.7 382.3, 1789.0 382.5 Q 1789.3 382.7, 1790.0 383.0 Q 1790.2 383.0, 1790.3 383.1 L 1790.7 383.2 Q 1791.4 383.4, 1791.8 383.7 Q 1792.2 383.9, 1792.5 384.4 Q 1792.8 384.8, 1792.8 385.6 Q 1792.8 386.7, 1791.9 387.4 Q 1791.1 388.0, 1789.8 388.0 Q 1789.0 388.0, 1788.3 387.9 Q 1787.6 387.7, 1787.0 387.4 L 1787.4 386.2 " fill="#000000"/>
<path class="legend" d="M 1793.6 380.8 L 1793.6 379.7 L 1795.2 379.7 L 1795.5 377.3 L 1796.6 377.3 L 1796.6 379.7 L 1799.1 379.7 L 1799.1 380.8 L 1796.6 380.8 L 1796.6 385.4 Q 1796.6 386.8, 1797.8 386.8 Q 1798.3 386.8, 1799.0 386.6 L 1799.2 387.6 Q 1798.3 388.0, 1797.5 388.0 Q 1796.4 388.0, 1795.7 387.3 Q 1795.1 386.7, 1795.1 385.4 L 1795.1 380.8 L 1793.6 380.8 " fill="#000000"/>
<path class="legend" d="" fill="#000000"/>
<path class="legend" d="M 1804.9 380.9 L 1812.3 380.9 L 1812.3 382.1 L 1804.9 382.1 L 1804.9 380.9 M 1804.9 384.4 L 1812.3 384.4 L 1812.3 385.5 L 1804.9 385.5 L 1804.9 384.4 " fill="#000000"/>
<path class="legend" d="" fill="#000000"/>
<path class="legend" d="M 1819.7 386.6 L 1822.2 386.6 L 1822.2 378.1 L 1819.4 379.0 L 1819.1 378.0 L 1822.5 376.5 L 1823.7 376.7 L 1823.7 386.6 L 1825.9 386.6 L 1825.9 387.9 L 1819.7 387.9 L 1819.7 386.6 " fill="#000000"/>
<path class="legend" d="M 1826.6 386.3 L 1828.2 386.3 L 1828.2 387.9 L 1826.6 387.9 L 1826.6 386.3 " fill="#000000"/>
<path class="legend" d="M 1829.8 386.6 L 1832.3 386.6 L 1832.3 378.1 L 1829.6 379.0 L 1829.2 378.0 L 1832.7 376.5 L 1833.8 376.7 L 1833.8 386.6 L 1836.0 386.6 L 1836.0 387.9 L 1829.8 387.9 L 1829.8 386.6 " fill="#000000"/>
<path class="legend" d="M 1842.5 381.9 Q 1843.5 382.3, 1844.1 383.0 Q 1844.7 383.7, 1844.7 384.8 Q 1844.7 385.7, 1844.2 386.5 Q 1843.7 387.2, 1842.8 387.6 Q 1841.9 388.0, 1840.8 388.0 Q 1838.9 388.0, 1837.8 387.2 Q 1836.7 386.3, 1836.7 384.8 Q 1836.7 383.9, 1837.2 383.2 Q 1837.7 382.5, 1838.7 381.9 Q 1837.9 381.5, 1837.5 380.9 Q 1837.1 380.3, 1837.1 379.3 Q 1837.1 378.0, 1838.1 377.2 Q 1839.1 376.4, 1840.7 376.4 Q 1842.4 376.4, 1843.3 377.2 Q 1844.3 378.0, 1844.3 379.3 Q 1844.3 380.2, 1843.8 380.8 Q 1843.4 381.4, 1842.5 381.9 M 1840.7 377.6 Q 1839.8 377.6, 1839.2 378.1 Q 1838.7 378.5, 1838.7 379.3 Q 1838.7 379.9, 1839.1 380.3 Q 1839.4 380.7, 1839.9 380.9 Q 1840.4 381.2, 1841.4 381.5 Q 1842.1 381.0, 1842.4 380.5 Q 1842.7 380.0, 1842.7 379.3 Q 1842.7 378.5, 1842.2 378.1 Q 1841.7 377.6, 1840.7 377.6 M 1840.8 386.8 Q 1841.8 386.8, 1842.5 386.3 Q 1843.1 385.7, 1843.1 384.8 Q 1843.1 384.2, 1842.8 383.8 Q 1842.4 383.4, 1841.9 383.2 Q 1841.4 382.9, 1840.5 382.7 L 1839.8 382.4 Q 1839.0 382.9, 1838.7 383.5 Q 1838.3 384.0, 1838.3 384.8 Q 1838.3 385.7, 1839.0 386.3 Q 1839.7 386.8, 1840.8 386.8 " fill="#000000"/>
<path class="legend" d="M 1850.1 380.8 Q 1851.1 380.8, 1851.9 381.2 Q 1852.7 381.7, 1853.1 382.5 Q 1853.6 383.2, 1853.6 384.2 Q 1853.6 385.3, 1853.1 386.2 Q 1852.6 387.1, 1851.7 387.5 Q 1850.9 388.0, 1849.8 388.0 Q 1847.7 388.0, 1846.7 386.7 Q 1845.7 385.3, 1845.7 382.6 Q 1845.7 379.6, 1847.0 378.0 Q 1848.2 376.4, 1850.6 376.4 Q 1851.3 376.4, 1851.9 376.6 Q 1852.5 376.8, 1853.1 377.1 L 1852.5 378.2 Q 1851.7 377.7, 1850.7 377.7 Q 1849.1 377.7, 1848.2 378.8 Q 1847.4 379.8, 1847.3 381.9 Q 1847.9 381.4, 1848.6 381.1 Q 1849.4 380.8, 1850.1 380.8 M 1849.8 386.7 Q 1850.4 386.7, 1850.9 386.4 Q 1851.4 386.1, 1851.7 385.5 Q 1852.0 384.9, 1852.0 384.3 Q 1852.0 383.2, 1851.4 382.7 Q 1850.9 382.1, 1849.9 382.1 Q 1849.2 382.1, 1848.5 382.4 Q 1847.8 382.7, 1847.3 383.1 Q 1847.4 385.0, 1848.0 385.9 Q 1848.6 386.7, 1849.8 386.7 " fill="#000000"/>
<path class="legend" d="M 1859.9 381.9 Q 1861.0 382.2, 1861.5 383.0 Q 1862.1 383.7, 1862.1 384.8 Q 1862.1 385.7, 1861.6 386.5 Q 1861.1 387.2, 1860.2 387.6 Q 1859.3 388.0, 1858.2 388.0 Q 1857.0 388.0, 1856.1 387.6 Q 1855.2 387.2, 1854.5 386.3 L 1855.4 385.4 Q 1856.1 386.2, 1856.7 386.5 Q 1857.3 386.8, 1858.2 386.8 Q 1859.2 386.8, 1859.8 386.2 Q 1860.5 385.7, 1860.5 384.8 Q 1860.5 383.6, 1859.8 383.1 Q 1859.2 382.6, 1857.8 382.6 L 1857.0 382.6 L 1857.0 381.4 L 1857.7 381.4 Q 1858.9 381.4, 1859.6 380.9 Q 1860.2 380.3, 1860.2 379.3 Q 1860.2 378.6, 1859.7 378.2 Q 1859.1 377.7, 1858.2 377.7 Q 1857.3 377.7, 1856.7 378.0 Q 1856.1 378.4, 1855.7 379.2 L 1854.5 378.6 Q 1854.9 377.7, 1855.9 377.1 Q 1856.9 376.4, 1858.2 376.4 Q 1859.9 376.4, 1860.9 377.2 Q 1861.8 378.0, 1861.8 379.3 Q 1861.8 380.2, 1861.3 380.9 Q 1860.8 381.6, 1859.9 381.9 " fill="#000000"/>
<path class="bond-0 atom-0 atom-1" d="M 34.1,584.8 L 78.2,597.8" style="fill:none;fill-rule:evenodd;stroke:#000000;stroke-width:2.0px;stroke-linecap:butt;stroke-linejoin:miter;stroke-opacity:1"/>
<path class="bond-1 atom-1 atom-2" d="M 78.2,597.8 L 111.5,566.1" style="fill:none;fill-rule:evenodd;stroke:#000000;stroke-width:2.0px;stroke-linecap:butt;stroke-linejoin:miter;stroke-opacity:1"/>
<path class="bond-2 atom-2 atom-3" d="M 111.5,566.1 L 155.6,579.1" style="fill:none;fill-rule:evenodd;stroke:#000000;stroke-width:2.0px;stroke-linecap:butt;stroke-linejoin:miter;stroke-opacity:1"/>
<path class="bond-3 atom-3 atom-4" d="M 155.6,579.1 L 188.9,547.5" style="fill:none;fill-rule:evenodd;stroke:#000000;stroke-width:2.0px;stroke-linecap:butt;stroke-linejoin:miter;stroke-opacity:1"/>
<path class="bond-4 atom-4 atom-5" d="M 188.9,547.5 L 233.0,560.5" style="fill:none;fill-rule:evenodd;stroke:#000000;stroke-width:2.0px;stroke-linecap:butt;stroke-linejoin:miter;stroke-opacity:1"/>
<path class="bond-5 atom-5 atom-6" d="M 233.0,560.5 L 266.3,528.8" style="fill:none;fill-rule:evenodd;stroke:#000000;stroke-width:2.0px;stroke-linecap:butt;stroke-linejoin:miter;stroke-opacity:1"/>
<path class="bond-6 atom-6 atom-7" d="M 266.3,528.8 L 310.4,541.8" style="fill:none;fill-rule:evenodd;stroke:#000000;stroke-width:2.0px;stroke-linecap:butt;stroke-linejoin:miter;stroke-opacity:1"/>
<path class="bond-6 atom-6 atom-7" d="M 270.3,539.6 L 301.2,548.7" style="fill:none;fill-rule:evenodd;stroke:#000000;stroke-width:2.0px;stroke-linecap:butt;stroke-linejoin:miter;stroke-opacity:1"/>
<path class="bond-7 atom-7 atom-8" d="M 310.4,541.8 L 319.3,578.5" style="fill:none;fill-rule:evenodd;stroke:#000000;stroke-width:2.0px;stroke-linecap:butt;stroke-linejoin:miter;stroke-opacity:1"/>
<path class="bond-8 atom-8 atom-9" d="M 328.2,584.8 L 365.9,575.7" style="fill:none;fill-rule:evenodd;stroke:#000000;stroke-width:2.0px;stroke-linecap:butt;stroke-linejoin:miter;stroke-opacity:1"/>
<path class="bond-9 atom-8 atom-10" d="M 314.2,588.2 L 276.5,597.3" style="fill:none;fill-rule:evenodd;stroke:#000000;stroke-width:2.0px;stroke-linecap:butt;stroke-linejoin:miter;stroke-opacity:1"/>
<path class="bond-10 atom-8 atom-11" d="M 323.2,594.9 L 332.0,631.2" style="fill:none;fill-rule:evenodd;stroke:#000000;stroke-width:2.0px;stroke-linecap:butt;stroke-linejoin:miter;stroke-opacity:1"/>
<path class="atom-8" d="M 316.2 591.0 Q 316.4 591.0, 317.0 591.3 Q 317.6 591.6, 318.2 591.7 Q 318.9 591.9, 319.6 591.9 Q 320.8 591.9, 321.5 591.3 Q 322.3 590.7, 322.3 589.6 Q 322.3 588.9, 321.9 588.5 Q 321.5 588.0, 321.0 587.8 Q 320.4 587.6, 319.5 587.3 Q 318.4 586.9, 317.7 586.6 Q 317.0 586.3, 316.5 585.6 Q 316.0 584.9, 316.0 583.7 Q 316.0 582.1, 317.1 581.0 Q 318.2 580.0, 320.4 580.0 Q 321.9 580.0, 323.7 580.8 L 323.2 582.2 Q 321.7 581.5, 320.5 581.5 Q 319.2 581.5, 318.5 582.1 Q 317.8 582.6, 317.8 583.5 Q 317.8 584.2, 318.2 584.6 Q 318.6 585.0, 319.1 585.3 Q 319.6 585.5, 320.5 585.8 Q 321.7 586.1, 322.4 586.5 Q 323.1 586.9, 323.6 587.6 Q 324.1 588.4, 324.1 589.6 Q 324.1 591.4, 322.9 592.4 Q 321.7 593.4, 319.7 593.4 Q 318.5 593.4, 317.6 593.1 Q 316.8 592.9, 315.7 592.4 L 316.2 591.0 " fill="#000000"/>
<path class="atom-8" d="M 324.9 580.0 L 326.6 580.0 L 326.6 581.6 L 324.9 581.6 L 324.9 580.0 M 324.9 583.6 L 326.6 583.6 L 326.6 593.0 L 324.9 593.0 L 324.9 583.6 " fill="#000000"/>
<path class="legend" d="M 172.3 765.4 L 172.5 766.5 Q 173.4 765.3, 174.8 765.3 Q 175.2 765.3, 175.8 765.4 L 175.6 766.8 Q 174.9 766.6, 174.5 766.6 Q 173.8 766.6, 173.4 766.9 Q 173.0 767.1, 172.6 767.8 L 172.6 773.6 L 171.1 773.6 L 171.1 765.4 L 172.3 765.4 " fill="#000000"/>
<path class="legend" d="M 176.1 769.5 Q 176.1 767.5, 177.1 766.4 Q 178.1 765.3, 179.9 765.3 Q 181.7 765.3, 182.5 766.4 Q 183.4 767.4, 183.4 769.5 L 183.4 769.7 L 177.6 769.7 Q 177.6 771.1, 178.3 771.8 Q 178.9 772.6, 180.1 772.6 Q 180.7 772.6, 181.3 772.4 Q 181.9 772.3, 182.6 772.0 L 183.0 773.0 Q 182.2 773.4, 181.5 773.6 Q 180.7 773.8, 180.0 773.8 Q 178.1 773.8, 177.1 772.6 Q 176.1 771.5, 176.1 769.5 M 179.9 766.4 Q 179.0 766.4, 178.4 767.0 Q 177.8 767.5, 177.7 768.6 L 181.8 768.6 Q 181.7 767.5, 181.2 767.0 Q 180.8 766.4, 179.9 766.4 " fill="#000000"/>
<path class="legend" d="M 184.0 771.4 Q 184.0 770.1, 185.0 769.4 Q 186.1 768.7, 188.0 768.7 L 189.2 768.7 L 189.2 768.3 Q 189.2 767.3, 188.8 766.9 Q 188.4 766.4, 187.4 766.4 Q 186.7 766.4, 186.2 766.6 Q 185.7 766.7, 184.9 767.0 L 184.4 766.0 Q 185.9 765.3, 187.4 765.3 Q 189.1 765.3, 189.9 766.0 Q 190.7 766.8, 190.7 768.4 L 190.7 773.6 L 189.6 773.6 Q 189.5 773.6, 189.5 773.3 Q 189.4 773.1, 189.4 772.7 Q 188.2 773.8, 186.7 773.8 Q 185.4 773.8, 184.7 773.2 Q 184.0 772.5, 184.0 771.4 M 185.5 771.4 Q 185.5 772.0, 185.8 772.3 Q 186.2 772.6, 187.0 772.6 Q 187.6 772.6, 188.2 772.4 Q 188.8 772.0, 189.2 771.5 L 189.2 769.8 L 188.1 769.8 Q 186.8 769.8, 186.1 770.2 Q 185.5 770.6, 185.5 771.4 " fill="#000000"/>
<path class="legend" d="M 192.0 769.5 Q 192.0 767.5, 193.0 766.4 Q 193.9 765.3, 195.9 765.3 Q 197.8 765.3, 198.7 766.6 L 197.7 767.4 Q 197.4 766.9, 196.9 766.7 Q 196.5 766.4, 195.9 766.4 Q 194.8 766.4, 194.1 767.2 Q 193.5 768.0, 193.5 769.5 Q 193.5 771.0, 194.1 771.8 Q 194.8 772.6, 196.0 772.6 Q 196.7 772.6, 197.1 772.4 Q 197.6 772.3, 198.2 772.0 L 198.6 773.0 Q 197.4 773.7, 195.9 773.7 Q 193.9 773.7, 193.0 772.6 Q 192.0 771.5, 192.0 769.5 " fill="#000000"/>
<path class="legend" d="M 199.1 766.6 L 199.1 765.4 L 200.7 765.4 L 201.0 763.0 L 202.1 763.0 L 202.1 765.4 L 204.6 765.4 L 204.6 766.6 L 202.1 766.6 L 202.1 771.1 Q 202.1 772.5, 203.3 772.5 Q 203.8 772.5, 204.5 772.3 L 204.7 773.4 Q 203.8 773.7, 203.0 773.7 Q 201.9 773.7, 201.2 773.1 Q 200.6 772.4, 200.6 771.2 L 200.6 766.6 L 199.1 766.6 " fill="#000000"/>
<path class="legend" d="M 213.3 774.4 L 213.3 775.7 L 205.1 775.7 L 205.1 774.4 L 213.3 774.4 " fill="#000000"/>
<path class="legend" d="M 219.2 763.6 L 213.3 763.6 L 213.3 762.3 L 220.8 762.3 L 220.8 763.4 L 216.2 773.6 L 214.7 773.6 L 219.2 763.6 " fill="#000000"/>
<path class="legend" d="M 221.3 764.4 Q 221.7 763.4, 222.7 762.8 Q 223.7 762.2, 225.1 762.2 Q 226.8 762.2, 227.7 763.1 Q 228.7 764.0, 228.7 765.7 Q 228.7 767.4, 227.4 768.9 Q 226.2 770.5, 223.7 772.4 L 228.9 772.4 L 228.9 773.6 L 221.3 773.6 L 221.3 772.6 Q 223.4 771.1, 224.6 769.9 Q 225.9 768.8, 226.5 767.8 Q 227.1 766.8, 227.1 765.8 Q 227.1 764.7, 226.6 764.1 Q 226.0 763.5, 225.1 763.5 Q 224.2 763.5, 223.5 763.8 Q 222.9 764.2, 222.5 765.0 L 221.3 764.4 " fill="#000000"/>
<path class="legend" d="M 136.9 783.8 Q 136.9 781.8, 137.9 780.7 Q 138.8 779.5, 140.8 779.5 Q 142.7 779.5, 143.6 780.9 L 142.6 781.6 Q 142.3 781.2, 141.8 780.9 Q 141.4 780.7, 140.8 780.7 Q 139.7 780.7, 139.0 781.5 Q 138.4 782.3, 138.4 783.8 Q 138.4 785.3, 139.0 786.1 Q 139.7 786.8, 140.9 786.8 Q 141.6 786.8, 142.0 786.7 Q 142.5 786.5, 143.1 786.3 L 143.5 787.3 Q 142.3 788.0, 140.8 788.0 Q 138.8 788.0, 137.9 786.9 Q 136.9 785.7, 136.9 783.8 " fill="#000000"/>
<path class="legend" d="M 144.0 783.8 Q 144.0 781.7, 145.0 780.6 Q 146.0 779.5, 147.9 779.5 Q 149.7 779.5, 150.5 780.6 Q 151.3 781.7, 151.3 783.7 L 151.3 784.0 L 145.6 784.0 Q 145.6 785.4, 146.2 786.1 Q 146.8 786.8, 148.0 786.8 Q 148.7 786.8, 149.2 786.7 Q 149.8 786.5, 150.6 786.2 L 151.0 787.2 Q 150.2 787.6, 149.4 787.8 Q 148.7 788.0, 147.9 788.0 Q 146.1 788.0, 145.1 786.9 Q 144.0 785.8, 144.0 783.8 M 147.9 780.7 Q 146.9 780.7, 146.4 781.2 Q 145.8 781.8, 145.6 782.8 L 149.7 782.8 Q 149.6 781.7, 149.2 781.2 Q 148.7 780.7, 147.9 780.7 " fill="#000000"/>
<path class="legend" d="M 156.2 779.5 Q 157.5 779.5, 158.2 780.3 Q 158.9 781.0, 158.9 782.4 L 158.9 787.9 L 157.4 787.9 L 157.4 782.6 Q 157.4 781.6, 157.0 781.2 Q 156.7 780.7, 155.8 780.7 Q 155.1 780.7, 154.4 781.1 Q 153.8 781.4, 153.4 782.0 L 153.4 787.9 L 151.9 787.9 L 151.9 779.7 L 153.1 779.7 L 153.3 780.8 Q 154.4 779.5, 156.2 779.5 " fill="#000000"/>
<path class="legend" d="M 160.1 780.8 L 160.1 779.7 L 161.7 779.7 L 162.0 777.3 L 163.1 777.3 L 163.1 779.7 L 165.6 779.7 L 165.6 780.8 L 163.1 780.8 L 163.1 785.4 Q 163.1 786.8, 164.3 786.8 Q 164.8 786.8, 165.5 786.6 L 165.7 787.6 Q 164.8 788.0, 164.0 788.0 Q 162.9 788.0, 162.3 787.3 Q 161.6 786.7, 161.6 785.4 L 161.6 780.8 L 160.1 780.8 " fill="#000000"/>
<path class="legend" d="M 174.3 788.7 L 174.3 790.0 L 166.1 790.0 L 166.1 788.7 L 174.3 788.7 " fill="#000000"/>
<path class="legend" d="M 181.8 775.7 L 181.8 787.9 L 180.5 787.9 L 180.3 786.9 Q 179.4 788.0, 177.9 788.0 Q 176.2 788.0, 175.2 787.0 Q 174.3 785.9, 174.3 783.9 Q 174.3 781.8, 175.4 780.7 Q 176.5 779.5, 178.5 779.5 Q 179.4 779.5, 180.3 779.7 L 180.3 775.7 L 181.8 775.7 M 178.0 786.8 Q 178.8 786.8, 179.4 786.4 Q 180.0 785.9, 180.3 785.1 L 180.3 780.9 Q 179.4 780.7, 178.5 780.7 Q 177.3 780.7, 176.5 781.6 Q 175.8 782.4, 175.8 783.9 Q 175.8 785.3, 176.4 786.1 Q 177.0 786.8, 178.0 786.8 " fill="#000000"/>
<path class="legend" d="M 183.0 776.6 L 184.5 776.6 L 184.5 778.0 L 183.0 778.0 L 183.0 776.6 M 183.0 779.7 L 184.5 779.7 L 184.5 787.9 L 183.0 787.9 L 183.0 779.7 " fill="#000000"/>
<path class="legend" d="M 186.3 786.2 Q 187.1 786.5, 187.6 786.6 Q 188.1 786.8, 188.7 786.8 Q 189.4 786.8, 189.8 786.5 Q 190.2 786.2, 190.2 785.6 Q 190.2 785.2, 190.0 785.0 Q 189.8 784.8, 189.5 784.6 Q 189.2 784.5, 188.5 784.3 Q 188.4 784.3, 187.7 784.0 Q 186.9 783.7, 186.5 783.2 Q 186.2 782.7, 186.2 781.9 Q 186.2 780.9, 186.9 780.2 Q 187.7 779.5, 189.2 779.5 Q 189.8 779.5, 190.3 779.7 Q 190.9 779.8, 191.5 780.0 L 191.1 781.2 Q 190.6 781.0, 190.1 780.9 Q 189.7 780.8, 189.2 780.8 Q 188.4 780.8, 188.0 781.1 Q 187.7 781.4, 187.7 781.8 Q 187.7 782.3, 188.0 782.5 Q 188.3 782.7, 188.9 783.0 Q 189.1 783.0, 189.3 783.1 L 189.6 783.2 Q 190.3 783.4, 190.7 783.7 Q 191.1 783.9, 191.4 784.4 Q 191.7 784.8, 191.7 785.6 Q 191.7 786.7, 190.9 787.4 Q 190.0 788.0, 188.7 788.0 Q 187.9 788.0, 187.2 787.9 Q 186.6 787.7, 185.9 787.4 L 186.3 786.2 " fill="#000000"/>
<path class="legend" d="M 192.6 780.8 L 192.6 779.7 L 194.1 779.7 L 194.4 777.3 L 195.5 777.3 L 195.5 779.7 L 198.0 779.7 L 198.0 780.8 L 195.5 780.8 L 195.5 785.4 Q 195.5 786.8, 196.7 786.8 Q 197.2 786.8, 197.9 786.6 L 198.1 787.6 Q 197.3 788.0, 196.4 788.0 Q 195.4 788.0, 194.7 787.3 Q 194.0 786.7, 194.0 785.4 L 194.0 780.8 L 192.6 780.8 " fill="#000000"/>
<path class="legend" d="" fill="#000000"/>
<path class="legend" d="M 203.9 780.9 L 211.2 780.9 L 211.2 782.1 L 203.9 782.1 L 203.9 780.9 M 203.9 784.4 L 211.2 784.4 L 211.2 785.5 L 203.9 785.5 L 203.9 784.4 " fill="#000000"/>
<path class="legend" d="" fill="#000000"/>
<path class="legend" d="M 218.6 786.6 L 221.1 786.6 L 221.1 778.1 L 218.4 779.0 L 218.0 778.0 L 221.5 776.5 L 222.6 776.7 L 222.6 786.6 L 224.8 786.6 L 224.8 787.9 L 218.6 787.9 L 218.6 786.6 " fill="#000000"/>
<path class="legend" d="M 225.5 786.3 L 227.1 786.3 L 227.1 787.9 L 225.5 787.9 L 225.5 786.3 " fill="#000000"/>
<path class="legend" d="M 233.6 781.9 Q 234.7 782.2, 235.2 783.0 Q 235.7 783.7, 235.7 784.8 Q 235.7 785.7, 235.3 786.5 Q 234.8 787.2, 233.9 787.6 Q 233.0 788.0, 231.9 788.0 Q 230.7 788.0, 229.7 787.6 Q 228.9 787.2, 228.1 786.3 L 229.0 785.4 Q 229.7 786.2, 230.3 786.5 Q 230.9 786.8, 231.9 786.8 Q 232.9 786.8, 233.5 786.2 Q 234.1 785.7, 234.1 784.8 Q 234.1 783.6, 233.5 783.1 Q 232.9 782.6, 231.5 782.6 L 230.6 782.6 L 230.6 781.4 L 231.4 781.4 Q 232.6 781.4, 233.3 780.9 Q 233.9 780.3, 233.9 779.3 Q 233.9 778.6, 233.4 778.2 Q 232.8 777.7, 231.9 777.7 Q 230.9 777.7, 230.4 778.0 Q 229.8 778.4, 229.3 779.2 L 228.2 778.6 Q 228.6 777.7, 229.6 777.1 Q 230.5 776.4, 231.9 776.4 Q 233.6 776.4, 234.5 777.2 Q 235.5 778.0, 235.5 779.3 Q 235.5 780.2, 235.0 780.9 Q 234.5 781.6, 233.6 781.9 " fill="#000000"/>
<path class="legend" d="M 244.1 784.0 L 245.4 784.0 L 245.4 785.3 L 244.1 785.3 L 244.1 787.9 L 242.5 787.9 L 242.5 785.3 L 236.7 785.3 L 236.7 784.3 L 241.7 776.6 L 244.1 776.6 L 244.1 784.0 M 238.5 784.0 L 242.5 784.0 L 242.5 777.6 L 238.5 784.0 " fill="#000000"/>
<path class="legend" d="M 250.3 788.0 Q 248.3 788.0, 247.2 786.5 Q 246.2 784.9, 246.2 782.2 Q 246.2 779.5, 247.2 778.0 Q 248.2 776.4, 250.3 776.4 Q 252.4 776.4, 253.5 778.0 Q 254.5 779.5, 254.5 782.2 Q 254.5 784.9, 253.4 786.5 Q 252.4 788.0, 250.3 788.0 M 250.3 786.7 Q 251.6 786.7, 252.2 785.6 Q 252.9 784.4, 252.9 782.2 Q 252.9 780.0, 252.2 778.8 Q 251.6 777.7, 250.3 777.7 Q 249.1 777.7, 248.5 778.8 Q 247.8 780.0, 247.8 782.2 Q 247.8 784.4, 248.5 785.6 Q 249.1 786.7, 250.3 786.7 " fill="#000000"/>
<path class="legend" d="M 261.0 781.9 Q 262.1 782.2, 262.6 783.0 Q 263.1 783.7, 263.1 784.8 Q 263.1 785.7, 262.7 786.5 Q 262.2 787.2, 261.3 787.6 Q 260.4 788.0, 259.3 788.0 Q 258.1 788.0, 257.1 787.6 Q 256.2 787.2, 255.5 786.3 L 256.4 785.4 Q 257.1 786.2, 257.7 786.5 Q 258.3 786.8, 259.3 786.8 Q 260.3 786.8, 260.9 786.2 Q 261.5 785.7, 261.5 784.8 Q 261.5 783.6, 260.9 783.1 Q 260.2 782.6, 258.9 782.6 L 258.0 782.6 L 258.0 781.4 L 258.8 781.4 Q 260.0 781.4, 260.6 780.9 Q 261.3 780.3, 261.3 779.3 Q 261.3 778.6, 260.8 778.2 Q 260.2 777.7, 259.3 777.7 Q 258.3 777.7, 257.7 778.0 Q 257.2 778.4, 256.7 779.2 L 255.6 778.6 Q 256.0 777.7, 257.0 777.1 Q 257.9 776.4, 259.3 776.4 Q 260.9 776.4, 261.9 777.2 Q 262.9 778.0, 262.9 779.3 Q 262.9 780.2, 262.4 780.9 Q 261.9 781.6, 261.0 781.9 " fill="#000000"/>
</svg>