<svg xmlns="http://www.w3.org/2000/svg" xmlns:rdkit="http://www.rdkit.org/xml" xmlns:xlink="http://www.w3.org/1999/xlink" version="1.1" baseProfile="full" xml:space="preserve" width="2000px" height="400px" viewBox="0 0 2000 400">
<!-- END OF HEADER -->
<rect style="opacity:1.0;fill:#FFFFFF;stroke:none" width="2000.0" height="400.0" x="0.0" y="0.0"> </rect>
<path class="bond-0 atom-0 atom-1" d="M 82.3,230.9 L 52.9,180.0" style="fill:none;fill-rule:evenodd;stroke:#000000;stroke-width:2.0px;stroke-linecap:butt;stroke-linejoin:miter;stroke-opacity:1"/>
<path class="bond-0 atom-0 atom-1" d="M 88.1,217.4 L 67.5,181.8" style="fill:none;fill-rule:evenodd;stroke:#000000;stroke-width:2.0px;stroke-linecap:butt;stroke-linejoin:miter;stroke-opacity:1"/>
<path class="bond-1 atom-1 atom-2" d="M 52.9,180.0 L 82.3,129.1" style="fill:none;fill-rule:evenodd;stroke:#000000;stroke-width:2.0px;stroke-linecap:butt;stroke-linejoin:miter;stroke-opacity:1"/>
<path class="bond-2 atom-2 atom-3" d="M 82.3,129.1 L 141.2,129.1" style="fill:none;fill-rule:evenodd;stroke:#000000;stroke-width:2.0px;stroke-linecap:butt;stroke-linejoin:miter;stroke-opacity:1"/>
<path class="bond-3 atom-3 atom-4" d="M 141.2,129.1 L 170.6,180.0" style="fill:none;fill-rule:evenodd;stroke:#000000;stroke-width:2.0px;stroke-linecap:butt;stroke-linejoin:miter;stroke-opacity:1"/>
<path class="bond-4 atom-4 atom-5" d="M 170.6,180.0 L 229.4,180.0" style="fill:none;fill-rule:evenodd;stroke:#000000;stroke-width:2.0px;stroke-linecap:butt;stroke-linejoin:miter;stroke-opacity:1"/>
<path class="bond-5 atom-5 atom-6" d="M 229.4,180.0 L 258.8,230.9" style="fill:none;fill-rule:evenodd;stroke:#000000;stroke-width:2.0px;stroke-linecap:butt;stroke-linejoin:miter;stroke-opacity:1"/>
<path class="bond-5 atom-5 atom-6" d="M 244.0,181.8 L 264.6,217.4" style="fill:none;fill-rule:evenodd;stroke:#000000;stroke-width:2.0px;stroke-linecap:butt;stroke-linejoin:miter;stroke-opacity:1"/>
<path class="bond-6 atom-6 atom-7" d="M 258.8,230.9 L 317.7,230.9" style="fill:none;fill-rule:evenodd;stroke:#000000;stroke-width:2.0px;stroke-linecap:butt;stroke-linejoin:miter;stroke-opacity:1"/>
<path class="bond-7 atom-7 atom-8" d="M 317.7,230.9 L 347.1,180.0" style="fill:none;fill-rule:evenodd;stroke:#000000;stroke-width:2.0px;stroke-linecap:butt;stroke-linejoin:miter;stroke-opacity:1"/>
<path class="bond-7 atom-7 atom-8" d="M 311.9,217.4 L 332.5,181.8" style="fill:none;fill-rule:evenodd;stroke:#000000;stroke-width:2.0px;stroke-linecap:butt;stroke-linejoin:miter;stroke-opacity:1"/>
<path class="bond-8 atom-8 atom-9" d="M 347.1,180.0 L 317.7,129.1" style="fill:none;fill-rule:evenodd;stroke:#000000;stroke-width:2.0px;stroke-linecap:butt;stroke-linejoin:miter;stroke-opacity:1"/>
<path class="bond-9 atom-9 atom-10" d="M 317.7,129.1 L 258.8,129.1" style="fill:none;fill-rule:evenodd;stroke:#000000;stroke-width:2.0px;stroke-linecap:butt;stroke-linejoin:miter;stroke-opacity:1"/>
<path class="bond-9 atom-9 atom-10" d="M 308.8,140.8 L 267.6,140.8" style="fill:none;fill-rule:evenodd;stroke:#000000;stroke-width:2.0px;stroke-linecap:butt;stroke-linejoin:miter;stroke-opacity:1"/>
<path class="bond-10 atom-4 atom-11" d="M 170.6,180.0 L 141.2,230.9" style="fill:none;fill-rule:evenodd;stroke:#000000;stroke-width:2.0px;stroke-linecap:butt;stroke-linejoin:miter;stroke-opacity:1"/>
<path class="bond-10 atom-4 atom-11" d="M 156.0,181.8 L 135.4,217.4" style="fill:none;fill-rule:evenodd;stroke:#000000;stroke-width:2.0px;stroke-linecap:butt;stroke-linejoin:miter;stroke-opacity:1"/>
<path class="bond-11 atom-11 atom-0" d="M 141.2,230.9 L 82.3,230.9" style="fill:none;fill-rule:evenodd;stroke:#000000;stroke-width:2.0px;stroke-linecap:butt;stroke-linejoin:miter;stroke-opacity:1"/>
<path class="bond-12 atom-10 atom-5" d="M 258.8,129.1 L 229.4,180.0" style="fill:none;fill-rule:evenodd;stroke:#000000;stroke-width:2.0px;stroke-linecap:butt;stroke-linejoin:miter;stroke-opacity:1"/>
<path class="legend" d="M 167.7 365.4 L 167.9 366.5 Q 168.8 365.3, 170.2 365.3 Q 170.6 365.3, 171.2 365.4 L 171.0 366.8 Q 170.3 366.6, 169.9 366.6 Q 169.3 366.6, 168.8 366.9 Q 168.4 367.1, 168.0 367.8 L 168.0 373.6 L 166.5 373.6 L 166.5 365.4 L 167.7 365.4 " fill="#000000"/>
<path class="legend" d="M 171.5 369.5 Q 171.5 367.5, 172.5 366.4 Q 173.5 365.3, 175.3 365.3 Q 177.2 365.3, 178.0 366.4 Q 178.8 367.4, 178.8 369.5 L 178.8 369.7 L 173.0 369.7 Q 173.1 371.1, 173.7 371.8 Q 174.3 372.6, 175.5 372.6 Q 176.1 372.6, 176.7 372.4 Q 177.3 372.3, 178.0 372.0 L 178.4 373.0 Q 177.6 373.4, 176.9 373.6 Q 176.2 373.8, 175.4 373.8 Q 173.5 373.8, 172.5 372.6 Q 171.5 371.5, 171.5 369.5 M 175.3 366.4 Q 174.4 366.4, 173.8 367.0 Q 173.3 367.5, 173.1 368.6 L 177.2 368.6 Q 177.1 367.5, 176.6 367.0 Q 176.2 366.4, 175.3 366.4 " fill="#000000"/>
<path class="legend" d="M 179.4 371.4 Q 179.4 370.1, 180.4 369.4 Q 181.5 368.7, 183.4 368.7 L 184.6 368.7 L 184.6 368.3 Q 184.6 367.3, 184.2 366.9 Q 183.8 366.4, 182.8 366.4 Q 182.1 366.4, 181.6 366.6 Q 181.1 366.7, 180.3 367.0 L 179.8 366.0 Q 181.3 365.3, 182.8 365.3 Q 184.5 365.3, 185.3 366.0 Q 186.1 366.8, 186.1 368.4 L 186.1 373.6 L 185.0 373.6 Q 185.0 373.6, 184.9 373.3 Q 184.9 373.1, 184.8 372.7 Q 183.6 373.8, 182.1 373.8 Q 180.8 373.8, 180.1 373.2 Q 179.4 372.5, 179.4 371.4 M 180.9 371.4 Q 180.9 372.0, 181.3 372.3 Q 181.6 372.6, 182.4 372.6 Q 183.0 372.6, 183.6 372.4 Q 184.2 372.0, 184.6 371.5 L 184.6 369.8 L 183.5 369.8 Q 182.2 369.8, 181.5 370.2 Q 180.9 370.6, 180.9 371.4 " fill="#000000"/>
<path class="legend" d="M 187.4 369.5 Q 187.4 367.5, 188.4 366.4 Q 189.4 365.3, 191.3 365.3 Q 193.2 365.3, 194.2 366.6 L 193.2 367.4 Q 192.8 366.9, 192.3 366.7 Q 191.9 366.4, 191.3 366.4 Q 190.2 366.4, 189.5 367.2 Q 188.9 368.0, 188.9 369.5 Q 188.9 371.0, 189.6 371.8 Q 190.2 372.6, 191.4 372.6 Q 192.1 372.6, 192.5 372.4 Q 193.0 372.3, 193.6 372.0 L 194.0 373.0 Q 192.8 373.7, 191.3 373.7 Q 189.4 373.7, 188.4 372.6 Q 187.4 371.5, 187.4 369.5 " fill="#000000"/>
<path class="legend" d="M 194.5 366.6 L 194.5 365.4 L 196.1 365.4 L 196.4 363.0 L 197.5 363.0 L 197.5 365.4 L 200.0 365.4 L 200.0 366.6 L 197.5 366.6 L 197.5 371.1 Q 197.5 372.5, 198.7 372.5 Q 199.2 372.5, 199.9 372.3 L 200.1 373.4 Q 199.2 373.7, 198.4 373.7 Q 197.3 373.7, 196.7 373.1 Q 196.0 372.4, 196.0 371.2 L 196.0 366.6 L 194.5 366.6 " fill="#000000"/>
<path class="legend" d="M 208.7 374.4 L 208.7 375.7 L 200.5 375.7 L 200.5 374.4 L 208.7 374.4 " fill="#000000"/>
<path class="legend" d="M 212.8 366.5 Q 213.8 366.5, 214.6 367.0 Q 215.4 367.4, 215.9 368.2 Q 216.4 369.0, 216.4 370.0 Q 216.4 371.2, 215.8 372.1 Q 215.2 372.9, 214.3 373.3 Q 213.4 373.8, 212.3 373.8 Q 211.3 373.8, 210.3 373.4 Q 209.3 373.0, 208.7 372.3 L 209.6 371.3 Q 210.2 371.8, 210.9 372.2 Q 211.6 372.5, 212.4 372.5 Q 213.4 372.5, 214.0 371.8 Q 214.8 371.2, 214.8 370.1 Q 214.8 368.9, 214.0 368.3 Q 213.4 367.7, 212.3 367.7 Q 211.3 367.7, 210.2 368.2 L 209.3 367.8 L 209.8 362.3 L 215.6 362.3 L 215.5 363.6 L 211.1 363.6 L 210.8 366.9 Q 211.8 366.5, 212.8 366.5 " fill="#000000"/>
<path class="legend" d="M 221.6 366.6 Q 222.5 366.6, 223.3 367.0 Q 224.1 367.4, 224.5 368.2 Q 225.0 369.0, 225.0 370.0 Q 225.0 371.1, 224.5 372.0 Q 224.0 372.8, 223.1 373.3 Q 222.3 373.8, 221.2 373.8 Q 219.2 373.8, 218.1 372.4 Q 217.1 371.0, 217.1 368.3 Q 217.1 365.3, 218.4 363.7 Q 219.6 362.2, 222.0 362.2 Q 222.8 362.2, 223.3 362.3 Q 224.0 362.5, 224.5 362.8 L 223.9 363.9 Q 223.1 363.5, 222.1 363.5 Q 220.5 363.5, 219.6 364.5 Q 218.8 365.5, 218.7 367.6 Q 219.3 367.1, 220.0 366.8 Q 220.8 366.6, 221.6 366.6 M 221.2 372.4 Q 221.8 372.4, 222.3 372.1 Q 222.8 371.8, 223.1 371.2 Q 223.4 370.7, 223.4 370.0 Q 223.4 369.0, 222.8 368.4 Q 222.3 367.8, 221.3 367.8 Q 220.6 367.8, 219.9 368.1 Q 219.2 368.4, 218.7 368.9 Q 218.8 370.8, 219.4 371.6 Q 220.0 372.4, 221.2 372.4 " fill="#000000"/>
<path class="legend" d="M 231.3 367.7 Q 232.4 368.0, 232.9 368.7 Q 233.5 369.4, 233.5 370.5 Q 233.5 371.5, 233.0 372.2 Q 232.5 373.0, 231.6 373.4 Q 230.8 373.8, 229.6 373.8 Q 228.4 373.8, 227.5 373.4 Q 226.6 372.9, 225.9 372.1 L 226.8 371.2 Q 227.5 371.9, 228.1 372.2 Q 228.7 372.5, 229.6 372.5 Q 230.6 372.5, 231.2 372.0 Q 231.9 371.4, 231.9 370.5 Q 231.9 369.4, 231.2 368.8 Q 230.6 368.3, 229.2 368.3 L 228.4 368.3 L 228.4 367.2 L 229.1 367.2 Q 230.3 367.2, 231.0 366.6 Q 231.6 366.1, 231.6 365.1 Q 231.6 364.3, 231.1 363.9 Q 230.5 363.5, 229.6 363.5 Q 228.7 363.5, 228.1 363.8 Q 227.5 364.1, 227.1 365.0 L 226.0 364.4 Q 226.4 363.4, 227.3 362.8 Q 228.3 362.2, 229.6 362.2 Q 231.3 362.2, 232.3 363.0 Q 233.2 363.7, 233.2 365.1 Q 233.2 366.0, 232.7 366.6 Q 232.2 367.3, 231.3 367.7 " fill="#000000"/>
<path class="legend" d="M 135.9 383.8 Q 135.9 381.8, 136.8 380.7 Q 137.8 379.5, 139.8 379.5 Q 141.7 379.5, 142.6 380.9 L 141.6 381.6 Q 141.2 381.2, 140.8 380.9 Q 140.4 380.7, 139.8 380.7 Q 138.7 380.7, 138.0 381.5 Q 137.4 382.3, 137.4 383.8 Q 137.4 385.3, 138.0 386.1 Q 138.7 386.8, 139.9 386.8 Q 140.6 386.8, 141.0 386.7 Q 141.5 386.5, 142.1 386.3 L 142.5 387.3 Q 141.3 388.0, 139.8 388.0 Q 137.8 388.0, 136.8 386.9 Q 135.9 385.7, 135.9 383.8 " fill="#000000"/>
<path class="legend" d="M 143.0 383.8 Q 143.0 381.7, 144.0 380.6 Q 145.0 379.5, 146.9 379.5 Q 148.7 379.5, 149.5 380.6 Q 150.3 381.7, 150.3 383.7 L 150.3 384.0 L 144.6 384.0 Q 144.6 385.4, 145.2 386.1 Q 145.8 386.8, 147.0 386.8 Q 147.6 386.8, 148.2 386.7 Q 148.8 386.5, 149.5 386.2 L 150.0 387.2 Q 149.2 387.6, 148.4 387.8 Q 147.7 388.0, 146.9 388.0 Q 145.1 388.0, 144.0 386.9 Q 143.0 385.8, 143.0 383.8 M 146.9 380.7 Q 145.9 380.7, 145.4 381.2 Q 144.8 381.8, 144.6 382.8 L 148.7 382.8 Q 148.6 381.7, 148.2 381.2 Q 147.7 380.7, 146.9 380.7 " fill="#000000"/>
<path class="legend" d="M 155.2 379.5 Q 156.5 379.5, 157.2 380.3 Q 157.9 381.0, 157.9 382.4 L 157.9 387.9 L 156.4 387.9 L 156.4 382.6 Q 156.4 381.6, 156.0 381.2 Q 155.6 380.7, 154.8 380.7 Q 154.1 380.7, 153.4 381.1 Q 152.8 381.4, 152.4 382.0 L 152.4 387.9 L 150.9 387.9 L 150.9 379.7 L 152.1 379.7 L 152.3 380.8 Q 153.4 379.5, 155.2 379.5 " fill="#000000"/>
<path class="legend" d="M 159.1 380.8 L 159.1 379.7 L 160.7 379.7 L 161.0 377.3 L 162.1 377.3 L 162.1 379.7 L 164.6 379.7 L 164.6 380.8 L 162.1 380.8 L 162.1 385.4 Q 162.1 386.8, 163.3 386.8 Q 163.8 386.8, 164.5 386.6 L 164.7 387.6 Q 163.8 388.0, 163.0 388.0 Q 161.9 388.0, 161.2 387.3 Q 160.6 386.7, 160.6 385.4 L 160.6 380.8 L 159.1 380.8 " fill="#000000"/>
<path class="legend" d="M 173.3 388.7 L 173.3 390.0 L 165.1 390.0 L 165.1 388.7 L 173.3 388.7 " fill="#000000"/>
<path class="legend" d="M 180.7 375.7 L 180.7 387.9 L 179.5 387.9 L 179.3 386.9 Q 178.4 388.0, 176.9 388.0 Q 175.2 388.0, 174.2 387.0 Q 173.3 385.9, 173.3 383.9 Q 173.3 381.8, 174.4 380.7 Q 175.5 379.5, 177.5 379.5 Q 178.3 379.5, 179.2 379.7 L 179.2 375.7 L 180.7 375.7 M 177.0 386.8 Q 177.8 386.8, 178.4 386.4 Q 179.0 385.9, 179.2 385.1 L 179.2 380.9 Q 178.4 380.7, 177.5 380.7 Q 176.3 380.7, 175.5 381.6 Q 174.8 382.4, 174.8 383.9 Q 174.8 385.3, 175.4 386.1 Q 175.9 386.8, 177.0 386.8 " fill="#000000"/>
<path class="legend" d="M 182.0 376.6 L 183.5 376.6 L 183.5 378.0 L 182.0 378.0 L 182.0 376.6 M 182.0 379.7 L 183.5 379.7 L 183.5 387.9 L 182.0 387.9 L 182.0 379.7 " fill="#000000"/>
<path class="legend" d="M 185.3 386.2 Q 186.1 386.5, 186.6 386.6 Q 187.1 386.8, 187.7 386.8 Q 188.4 386.8, 188.8 386.5 Q 189.2 386.2, 189.2 385.6 Q 189.2 385.2, 189.0 385.0 Q 188.8 384.8, 188.5 384.6 Q 188.2 384.5, 187.5 384.3 Q 187.4 384.3, 186.7 384.0 Q 185.9 383.7, 185.5 383.2 Q 185.1 382.7, 185.1 381.9 Q 185.1 380.9, 185.9 380.2 Q 186.7 379.5, 188.2 379.5 Q 188.8 379.5, 189.3 379.7 Q 189.9 379.8, 190.5 380.0 L 190.1 381.2 Q 189.6 381.0, 189.1 380.9 Q 188.7 380.8, 188.2 380.8 Q 187.4 380.8, 187.0 381.1 Q 186.7 381.4, 186.7 381.8 Q 186.7 382.3, 187.0 382.5 Q 187.3 382.7, 187.9 383.0 Q 188.1 383.0, 188.3 383.1 L 188.6 383.2 Q 189.3 383.4, 189.7 383.7 Q 190.1 383.9, 190.4 384.4 Q 190.7 384.8, 190.7 385.6 Q 190.7 386.7, 189.9 387.4 Q 189.0 388.0, 187.7 388.0 Q 186.9 388.0, 186.2 387.9 Q 185.5 387.7, 184.9 387.4 L 185.3 386.2 " fill="#000000"/>
<path class="legend" d="M 191.5 380.8 L 191.5 379.7 L 193.1 379.7 L 193.4 377.3 L 194.5 377.3 L 194.5 379.7 L 197.0 379.7 L 197.0 380.8 L 194.5 380.8 L 194.5 385.4 Q 194.5 386.8, 195.7 386.8 Q 196.2 386.8, 196.9 386.6 L 197.1 387.6 Q 196.3 388.0, 195.4 388.0 Q 194.3 388.0, 193.7 387.3 Q 193.0 386.7, 193.0 385.4 L 193.0 380.8 L 191.5 380.8 " fill="#000000"/>
<path class="legend" d="" fill="#000000"/>
<path class="legend" d="M 202.9 380.9 L 210.2 380.9 L 210.2 382.1 L 202.9 382.1 L 202.9 380.9 M 202.9 384.4 L 210.2 384.4 L 210.2 385.5 L 202.9 385.5 L 202.9 384.4 " fill="#000000"/>
<path class="legend" d="" fill="#000000"/>
<path class="legend" d="M 221.1 388.0 Q 219.0 388.0, 218.0 386.5 Q 217.0 384.9, 217.0 382.2 Q 217.0 379.5, 218.0 378.0 Q 219.0 376.4, 221.1 376.4 Q 223.2 376.4, 224.2 378.0 Q 225.3 379.5, 225.3 382.2 Q 225.3 384.9, 224.2 386.5 Q 223.2 388.0, 221.1 388.0 M 221.1 386.7 Q 222.4 386.7, 223.0 385.6 Q 223.7 384.4, 223.7 382.2 Q 223.7 380.0, 223.0 378.8 Q 222.4 377.7, 221.1 377.7 Q 219.9 377.7, 219.2 378.8 Q 218.6 380.0, 218.6 382.2 Q 218.6 384.4, 219.2 385.6 Q 219.9 386.7, 221.1 386.7 " fill="#000000"/>
<path class="legend" d="M 226.3 386.3 L 227.9 386.3 L 227.9 387.9 L 226.3 387.9 L 226.3 386.3 " fill="#000000"/>
<path class="legend" d="M 233.4 380.8 Q 234.4 380.8, 235.2 381.2 Q 235.9 381.7, 236.4 382.5 Q 236.8 383.2, 236.8 384.2 Q 236.8 385.3, 236.3 386.2 Q 235.8 387.1, 235.0 387.5 Q 234.1 388.0, 233.0 388.0 Q 231.0 388.0, 230.0 386.7 Q 228.9 385.3, 228.9 382.6 Q 228.9 379.6, 230.2 378.0 Q 231.5 376.4, 233.9 376.4 Q 234.6 376.4, 235.2 376.6 Q 235.8 376.8, 236.4 377.1 L 235.7 378.2 Q 234.9 377.7, 233.9 377.7 Q 232.3 377.7, 231.5 378.8 Q 230.7 379.8, 230.6 381.9 Q 231.1 381.4, 231.9 381.1 Q 232.6 380.8, 233.4 380.8 M 233.0 386.7 Q 233.6 386.7, 234.1 386.4 Q 234.6 386.1, 234.9 385.5 Q 235.2 384.9, 235.2 384.3 Q 235.2 383.2, 234.6 382.7 Q 234.1 382.1, 233.1 382.1 Q 232.4 382.1, 231.7 382.4 Q 231.0 382.7, 230.6 383.1 Q 230.6 385.0, 231.2 385.9 Q 231.8 386.7, 233.0 386.7 " fill="#000000"/>
<path class="legend" d="M 242.1 380.8 Q 243.1 380.8, 243.9 381.2 Q 244.7 381.7, 245.1 382.5 Q 245.5 383.2, 245.5 384.2 Q 245.5 385.3, 245.0 386.2 Q 244.6 387.1, 243.7 387.5 Q 242.8 388.0, 241.7 388.0 Q 239.7 388.0, 238.7 386.7 Q 237.7 385.3, 237.7 382.6 Q 237.7 379.6, 238.9 378.0 Q 240.2 376.4, 242.6 376.4 Q 243.3 376.4, 243.9 376.6 Q 244.5 376.8, 245.1 377.1 L 244.5 378.2 Q 243.6 377.7, 242.6 377.7 Q 241.0 377.7, 240.2 378.8 Q 239.4 379.8, 239.3 381.9 Q 239.9 381.4, 240.6 381.1 Q 241.3 380.8, 242.1 380.8 M 241.7 386.7 Q 242.4 386.7, 242.9 386.4 Q 243.4 386.1, 243.7 385.5 Q 243.9 384.9, 243.9 384.3 Q 243.9 383.2, 243.4 382.7 Q 242.8 382.1, 241.8 382.1 Q 241.1 382.1, 240.5 382.4 Q 239.8 382.7, 239.3 383.1 Q 239.4 385.0, 240.0 385.9 Q 240.5 386.7, 241.7 386.7 " fill="#000000"/>
<path class="legend" d="M 252.2 381.9 Q 253.2 382.3, 253.8 383.0 Q 254.4 383.7, 254.4 384.8 Q 254.4 385.7, 253.9 386.5 Q 253.4 387.2, 252.5 387.6 Q 251.7 388.0, 250.5 388.0 Q 248.6 388.0, 247.5 387.2 Q 246.4 386.3, 246.4 384.8 Q 246.4 383.9, 246.9 383.2 Q 247.4 382.5, 248.4 381.9 Q 247.6 381.5, 247.2 380.9 Q 246.8 380.3, 246.8 379.3 Q 246.8 378.0, 247.8 377.2 Q 248.8 376.4, 250.4 376.4 Q 252.1 376.4, 253.0 377.2 Q 254.0 378.0, 254.0 379.3 Q 254.0 380.2, 253.5 380.8 Q 253.1 381.4, 252.2 381.9 M 250.4 377.6 Q 249.5 377.6, 248.9 378.1 Q 248.4 378.5, 248.4 379.3 Q 248.4 379.9, 248.8 380.3 Q 249.1 380.7, 249.6 380.9 Q 250.1 381.2, 251.1 381.5 Q 251.8 381.0, 252.1 380.5 Q 252.4 380.0, 252.4 379.3 Q 252.4 378.5, 251.9 378.1 Q 251.4 377.6, 250.4 377.6 M 250.5 386.8 Q 251.5 386.8, 252.2 386.3 Q 252.8 385.7, 252.8 384.8 Q 252.8 384.2, 252.5 383.8 Q 252.1 383.4, 251.6 383.2 Q 251.1 382.9, 250.2 382.7 L 249.5 382.4 Q 248.7 382.9, 248.4 383.5 Q 248.0 384.0, 248.0 384.8 Q 248.0 385.7, 248.7 386.3 Q 249.4 386.8, 250.5 386.8 " fill="#000000"/>
<path class="legend" d="M 262.8 384.0 L 264.1 384.0 L 264.1 385.3 L 262.8 385.3 L 262.8 387.9 L 261.3 387.9 L 261.3 385.3 L 255.4 385.3 L 255.4 384.3 L 260.4 376.6 L 262.8 376.6 L 262.8 384.0 M 257.3 384.0 L 261.3 384.0 L 261.3 377.6 L 257.3 384.0 " fill="#000000"/>
<path class="bond-0 atom-0 atom-1" d="M 466.5,150.6 L 466.5,209.4" style="fill:none;fill-rule:evenodd;stroke:#000000;stroke-width:2.0px;stroke-linecap:butt;stroke-linejoin:miter;stroke-opacity:1"/>
<path class="bond-0 atom-0 atom-1" d="M 478.3,159.4 L 478.3,200.6" style="fill:none;fill-rule:evenodd;stroke:#000000;stroke-width:2.0px;stroke-linecap:butt;stroke-linejoin:miter;stroke-opacity:1"/>
<path class="bond-1 atom-1 atom-2" d="M 466.5,209.4 L 522.4,227.6" style="fill:none;fill-rule:evenodd;stroke:#000000;stroke-width:2.0px;stroke-linecap:butt;stroke-linejoin:miter;stroke-opacity:1"/>
<path class="bond-2 atom-2 atom-3" d="M 522.4,227.6 L 557.0,180.0" style="fill:none;fill-rule:evenodd;stroke:#000000;stroke-width:2.0px;stroke-linecap:butt;stroke-linejoin:miter;stroke-opacity:1"/>
<path class="bond-3 atom-3 atom-4" d="M 557.0,180.0 L 615.8,180.0" style="fill:none;fill-rule:evenodd;stroke:#000000;stroke-width:2.0px;stroke-linecap:butt;stroke-linejoin:miter;stroke-opacity:1"/>
<path class="bond-4 atom-4 atom-5" d="M 615.8,180.0 L 645.3,230.9" style="fill:none;fill-rule:evenodd;stroke:#000000;stroke-width:2.0px;stroke-linecap:butt;stroke-linejoin:miter;stroke-opacity:1"/>
<path class="bond-4 atom-4 atom-5" d="M 630.4,181.8 L 651.0,217.4" style="fill:none;fill-rule:evenodd;stroke:#000000;stroke-width:2.0px;stroke-linecap:butt;stroke-linejoin:miter;stroke-opacity:1"/>
<path class="bond-5 atom-5 atom-6" d="M 645.3,230.9 L 704.1,230.9" style="fill:none;fill-rule:evenodd;stroke:#000000;stroke-width:2.0px;stroke-linecap:butt;stroke-linejoin:miter;stroke-opacity:1"/>
<path class="bond-6 atom-6 atom-7" d="M 704.1,230.9 L 733.5,180.0" style="fill:none;fill-rule:evenodd;stroke:#000000;stroke-width:2.0px;stroke-linecap:butt;stroke-linejoin:miter;stroke-opacity:1"/>
<path class="bond-6 atom-6 atom-7" d="M 698.3,217.4 L 718.9,181.8" style="fill:none;fill-rule:evenodd;stroke:#000000;stroke-width:2.0px;stroke-linecap:butt;stroke-linejoin:miter;stroke-opacity:1"/>
<path class="bond-7 atom-7 atom-8" d="M 733.5,180.0 L 704.1,129.1" style="fill:none;fill-rule:evenodd;stroke:#000000;stroke-width:2.0px;stroke-linecap:butt;stroke-linejoin:miter;stroke-opacity:1"/>
<path class="bond-8 atom-8 atom-9" d="M 704.1,129.1 L 645.3,129.1" style="fill:none;fill-rule:evenodd;stroke:#000000;stroke-width:2.0px;stroke-linecap:butt;stroke-linejoin:miter;stroke-opacity:1"/>
<path class="bond-8 atom-8 atom-9" d="M 695.3,140.8 L 654.1,140.8" style="fill:none;fill-rule:evenodd;stroke:#000000;stroke-width:2.0px;stroke-linecap:butt;stroke-linejoin:miter;stroke-opacity:1"/>
<path class="bond-9 atom-3 atom-10" d="M 557.0,180.0 L 522.4,132.4" style="fill:none;fill-rule:evenodd;stroke:#000000;stroke-width:2.0px;stroke-linecap:butt;stroke-linejoin:miter;stroke-opacity:1"/>
<path class="bond-9 atom-3 atom-10" d="M 542.3,179.8 L 518.1,146.5" style="fill:none;fill-rule:evenodd;stroke:#000000;stroke-width:2.0px;stroke-linecap:butt;stroke-linejoin:miter;stroke-opacity:1"/>
<path class="bond-10 atom-10 atom-0" d="M 522.4,132.4 L 466.5,150.6" style="fill:none;fill-rule:evenodd;stroke:#000000;stroke-width:2.0px;stroke-linecap:butt;stroke-linejoin:miter;stroke-opacity:1"/>
<path class="bond-11 atom-9 atom-4" d="M 645.3,129.1 L 615.8,180.0" style="fill:none;fill-rule:evenodd;stroke:#000000;stroke-width:2.0px;stroke-linecap:butt;stroke-linejoin:miter;stroke-opacity:1"/>
<path class="legend" d="M 567.9 365.4 L 568.0 366.5 Q 568.9 365.3, 570.3 365.3 Q 570.8 365.3, 571.4 365.4 L 571.1 366.8 Q 570.4 366.6, 570.1 366.6 Q 569.4 366.6, 568.9 366.9 Q 568.5 367.1, 568.2 367.8 L 568.2 373.6 L 566.7 373.6 L 566.7 365.4 L 567.9 365.4 " fill="#000000"/>
<path class="legend" d="M 571.6 369.5 Q 571.6 367.5, 572.6 366.4 Q 573.6 365.3, 575.5 365.3 Q 577.3 365.3, 578.1 366.4 Q 578.9 367.4, 578.9 369.5 L 578.9 369.7 L 573.2 369.7 Q 573.2 371.1, 573.8 371.8 Q 574.4 372.6, 575.6 372.6 Q 576.2 372.6, 576.8 372.4 Q 577.4 372.3, 578.1 372.0 L 578.6 373.0 Q 577.8 373.4, 577.0 373.6 Q 576.3 373.8, 575.5 373.8 Q 573.7 373.8, 572.6 372.6 Q 571.6 371.5, 571.6 369.5 M 575.5 366.4 Q 574.5 366.4, 574.0 367.0 Q 573.4 367.5, 573.2 368.6 L 577.3 368.6 Q 577.2 367.5, 576.8 367.0 Q 576.3 366.4, 575.5 366.4 " fill="#000000"/>
<path class="legend" d="M 579.5 371.4 Q 579.5 370.1, 580.6 369.4 Q 581.6 368.7, 583.6 368.7 L 584.8 368.7 L 584.8 368.3 Q 584.8 367.3, 584.3 366.9 Q 583.9 366.4, 582.9 366.4 Q 582.2 366.4, 581.7 366.6 Q 581.2 366.7, 580.4 367.0 L 580.0 366.0 Q 581.5 365.3, 582.9 365.3 Q 584.7 365.3, 585.5 366.0 Q 586.3 366.8, 586.3 368.4 L 586.3 373.6 L 585.1 373.6 Q 585.1 373.6, 585.0 373.3 Q 585.0 373.1, 584.9 372.7 Q 583.7 373.8, 582.2 373.8 Q 581.0 373.8, 580.2 373.2 Q 579.5 372.5, 579.5 371.4 M 581.0 371.4 Q 581.0 372.0, 581.4 372.3 Q 581.8 372.6, 582.5 372.6 Q 583.1 372.6, 583.7 372.4 Q 584.4 372.0, 584.8 371.5 L 584.8 369.8 L 583.6 369.8 Q 582.3 369.8, 581.7 370.2 Q 581.0 370.6, 581.0 371.4 " fill="#000000"/>
<path class="legend" d="M 587.5 369.5 Q 587.5 367.5, 588.5 366.4 Q 589.5 365.3, 591.4 365.3 Q 593.3 365.3, 594.3 366.6 L 593.3 367.4 Q 592.9 366.9, 592.4 366.7 Q 592.0 366.4, 591.4 366.4 Q 590.3 366.4, 589.7 367.2 Q 589.0 368.0, 589.0 369.5 Q 589.0 371.0, 589.7 371.8 Q 590.3 372.6, 591.5 372.6 Q 592.2 372.6, 592.7 372.4 Q 593.1 372.3, 593.7 372.0 L 594.1 373.0 Q 592.9 373.7, 591.4 373.7 Q 589.5 373.7, 588.5 372.6 Q 587.5 371.5, 587.5 369.5 " fill="#000000"/>
<path class="legend" d="M 594.7 366.6 L 594.7 365.4 L 596.2 365.4 L 596.5 363.0 L 597.6 363.0 L 597.6 365.4 L 600.1 365.4 L 600.1 366.6 L 597.6 366.6 L 597.6 371.1 Q 597.6 372.5, 598.8 372.5 Q 599.3 372.5, 600.0 372.3 L 600.3 373.4 Q 599.4 373.7, 598.5 373.7 Q 597.5 373.7, 596.8 373.1 Q 596.1 372.4, 596.1 371.2 L 596.1 366.6 L 594.7 366.6 " fill="#000000"/>
<path class="legend" d="M 608.8 374.4 L 608.8 375.7 L 600.7 375.7 L 600.7 374.4 L 608.8 374.4 " fill="#000000"/>
<path class="legend" d="M 612.9 366.5 Q 613.9 366.5, 614.7 367.0 Q 615.6 367.4, 616.0 368.2 Q 616.5 369.0, 616.5 370.0 Q 616.5 371.2, 615.9 372.1 Q 615.3 372.9, 614.4 373.3 Q 613.5 373.8, 612.4 373.8 Q 611.4 373.8, 610.4 373.4 Q 609.5 373.0, 608.8 372.3 L 609.8 371.3 Q 610.3 371.8, 611.0 372.2 Q 611.7 372.5, 612.5 372.5 Q 613.5 372.5, 614.2 371.8 Q 614.9 371.2, 614.9 370.1 Q 614.9 368.9, 614.2 368.3 Q 613.5 367.7, 612.4 367.7 Q 611.4 367.7, 610.3 368.2 L 609.4 367.8 L 610.0 362.3 L 615.8 362.3 L 615.6 363.6 L 611.3 363.6 L 610.9 366.9 Q 611.9 366.5, 612.9 366.5 " fill="#000000"/>
<path class="legend" d="M 621.4 366.5 Q 622.4 366.5, 623.2 367.0 Q 624.0 367.4, 624.4 368.2 Q 624.9 369.0, 624.9 370.0 Q 624.9 371.2, 624.3 372.1 Q 623.8 372.9, 622.8 373.3 Q 621.9 373.8, 620.9 373.8 Q 619.8 373.8, 618.9 373.4 Q 617.9 373.0, 617.2 372.3 L 618.2 371.3 Q 618.7 371.8, 619.5 372.2 Q 620.2 372.5, 620.9 372.5 Q 621.9 372.5, 622.6 371.8 Q 623.3 371.2, 623.3 370.1 Q 623.3 368.9, 622.6 368.3 Q 621.9 367.7, 620.8 367.7 Q 619.8 367.7, 618.7 368.2 L 617.8 367.8 L 618.4 362.3 L 624.2 362.3 L 624.0 363.6 L 619.7 363.6 L 619.4 366.9 Q 620.4 366.5, 621.4 366.5 " fill="#000000"/>
<path class="legend" d="M 629.8 366.5 Q 630.8 366.5, 631.6 367.0 Q 632.4 367.4, 632.9 368.2 Q 633.3 369.0, 633.3 370.0 Q 633.3 371.2, 632.8 372.1 Q 632.2 372.9, 631.3 373.3 Q 630.4 373.8, 629.3 373.8 Q 628.3 373.8, 627.3 373.4 Q 626.3 373.0, 625.7 372.3 L 626.6 371.3 Q 627.2 371.8, 627.9 372.2 Q 628.6 372.5, 629.3 372.5 Q 630.4 372.5, 631.0 371.8 Q 631.7 371.2, 631.7 370.1 Q 631.7 368.9, 631.0 368.3 Q 630.4 367.7, 629.2 367.7 Q 628.3 367.7, 627.2 368.2 L 626.3 367.8 L 626.8 362.3 L 632.6 362.3 L 632.5 363.6 L 628.1 363.6 L 627.8 366.9 Q 628.8 366.5, 629.8 366.5 " fill="#000000"/>
<path class="legend" d="M 537.1 383.8 Q 537.1 381.8, 538.1 380.7 Q 539.1 379.5, 541.1 379.5 Q 543.0 379.5, 543.9 380.9 L 542.9 381.6 Q 542.5 381.2, 542.1 380.9 Q 541.7 380.7, 541.1 380.7 Q 539.9 380.7, 539.3 381.5 Q 538.7 382.3, 538.7 383.8 Q 538.7 385.3, 539.3 386.1 Q 540.0 386.8, 541.2 386.8 Q 541.9 386.8, 542.3 386.7 Q 542.8 386.5, 543.4 386.3 L 543.8 387.3 Q 542.6 388.0, 541.1 388.0 Q 539.1 388.0, 538.1 386.9 Q 537.1 385.7, 537.1 383.8 " fill="#000000"/>
<path class="legend" d="M 544.3 383.8 Q 544.3 381.7, 545.3 380.6 Q 546.3 379.5, 548.2 379.5 Q 550.0 379.5, 550.8 380.6 Q 551.6 381.7, 551.6 383.7 L 551.6 384.0 L 545.9 384.0 Q 545.9 385.4, 546.5 386.1 Q 547.1 386.8, 548.3 386.8 Q 548.9 386.8, 549.5 386.7 Q 550.1 386.5, 550.8 386.2 L 551.3 387.2 Q 550.5 387.6, 549.7 387.8 Q 549.0 388.0, 548.2 388.0 Q 546.4 388.0, 545.3 386.9 Q 544.3 385.8, 544.3 383.8 M 548.2 380.7 Q 547.2 380.7, 546.7 381.2 Q 546.1 381.8, 545.9 382.8 L 550.0 382.8 Q 549.9 381.7, 549.5 381.2 Q 549.0 380.7, 548.2 380.7 " fill="#000000"/>
<path class="legend" d="M 556.5 379.5 Q 557.8 379.5, 558.5 380.3 Q 559.2 381.0, 559.2 382.4 L 559.2 387.9 L 557.7 387.9 L 557.7 382.6 Q 557.7 381.6, 557.3 381.2 Q 556.9 380.7, 556.1 380.7 Q 555.4 380.7, 554.7 381.1 Q 554.1 381.4, 553.7 382.0 L 553.7 387.9 L 552.2 387.9 L 552.2 379.7 L 553.4 379.7 L 553.6 380.8 Q 554.7 379.5, 556.5 379.5 " fill="#000000"/>
<path class="legend" d="M 560.4 380.8 L 560.4 379.7 L 562.0 379.7 L 562.3 377.3 L 563.4 377.3 L 563.4 379.7 L 565.9 379.7 L 565.9 380.8 L 563.4 380.8 L 563.4 385.4 Q 563.4 386.8, 564.6 386.8 Q 565.1 386.8, 565.8 386.6 L 566.0 387.6 Q 565.1 388.0, 564.3 388.0 Q 563.2 388.0, 562.5 387.3 Q 561.9 386.7, 561.9 385.4 L 561.9 380.8 L 560.4 380.8 " fill="#000000"/>
<path class="legend" d="M 574.6 388.7 L 574.6 390.0 L 566.4 390.0 L 566.4 388.7 L 574.6 388.7 " fill="#000000"/>
<path class="legend" d="M 582.0 375.7 L 582.0 387.9 L 580.8 387.9 L 580.6 386.9 Q 579.7 388.0, 578.2 388.0 Q 576.5 388.0, 575.5 387.0 Q 574.6 385.9, 574.6 383.9 Q 574.6 381.8, 575.7 380.7 Q 576.8 379.5, 578.8 379.5 Q 579.6 379.5, 580.5 379.7 L 580.5 375.7 L 582.0 375.7 M 578.3 386.8 Q 579.1 386.8, 579.7 386.4 Q 580.3 385.9, 580.5 385.1 L 580.5 380.9 Q 579.7 380.7, 578.8 380.7 Q 577.5 380.7, 576.8 381.6 Q 576.1 382.4, 576.1 383.9 Q 576.1 385.3, 576.7 386.1 Q 577.2 386.8, 578.3 386.8 " fill="#000000"/>
<path class="legend" d="M 583.3 376.6 L 584.8 376.6 L 584.8 378.0 L 583.3 378.0 L 583.3 376.6 M 583.3 379.7 L 584.8 379.7 L 584.8 387.9 L 583.3 387.9 L 583.3 379.7 " fill="#000000"/>
<path class="legend" d="M 586.6 386.2 Q 587.4 386.5, 587.9 386.6 Q 588.4 386.8, 589.0 386.8 Q 589.7 386.8, 590.1 386.5 Q 590.5 386.2, 590.5 385.6 Q 590.5 385.2, 590.3 385.0 Q 590.1 384.8, 589.8 384.6 Q 589.5 384.5, 588.8 384.3 Q 588.7 384.3, 588.0 384.0 Q 587.2 383.7, 586.8 383.2 Q 586.4 382.7, 586.4 381.9 Q 586.4 380.9, 587.2 380.2 Q 588.0 379.5, 589.5 379.5 Q 590.1 379.5, 590.6 379.7 Q 591.2 379.8, 591.8 380.0 L 591.4 381.2 Q 590.9 381.0, 590.4 380.9 Q 590.0 380.8, 589.5 380.8 Q 588.7 380.8, 588.3 381.1 Q 587.9 381.4, 587.9 381.8 Q 587.9 382.3, 588.3 382.5 Q 588.6 382.7, 589.2 383.0 Q 589.4 383.0, 589.5 383.1 L 589.9 383.2 Q 590.6 383.4, 591.0 383.7 Q 591.4 383.9, 591.7 384.4 Q 592.0 384.8, 592.0 385.6 Q 592.0 386.7, 591.1 387.4 Q 590.3 388.0, 589.0 388.0 Q 588.2 388.0, 587.5 387.9 Q 586.8 387.7, 586.2 387.4 L 586.6 386.2 " fill="#000000"/>
<path class="legend" d="M 592.8 380.8 L 592.8 379.7 L 594.4 379.7 L 594.7 377.3 L 595.8 377.3 L 595.8 379.7 L 598.3 379.7 L 598.3 380.8 L 595.8 380.8 L 595.8 385.4 Q 595.8 386.8, 597.0 386.8 Q 597.5 386.8, 598.2 386.6 L 598.4 387.6 Q 597.5 388.0, 596.7 388.0 Q 595.6 388.0, 595.0 387.3 Q 594.3 386.7, 594.3 385.4 L 594.3 380.8 L 592.8 380.8 " fill="#000000"/>
<path class="legend" d="" fill="#000000"/>
<path class="legend" d="M 604.2 380.9 L 611.5 380.9 L 611.5 382.1 L 604.2 382.1 L 604.2 380.9 M 604.2 384.4 L 611.5 384.4 L 611.5 385.5 L 604.2 385.5 L 604.2 384.4 " fill="#000000"/>
<path class="legend" d="" fill="#000000"/>
<path class="legend" d="M 622.4 388.0 Q 620.3 388.0, 619.3 386.5 Q 618.3 384.9, 618.3 382.2 Q 618.3 379.5, 619.3 378.0 Q 620.3 376.4, 622.4 376.4 Q 624.5 376.4, 625.5 378.0 Q 626.6 379.5, 626.6 382.2 Q 626.6 384.9, 625.5 386.5 Q 624.5 388.0, 622.4 388.0 M 622.4 386.7 Q 623.7 386.7, 624.3 385.6 Q 625.0 384.4, 625.0 382.2 Q 625.0 380.0, 624.3 378.8 Q 623.7 377.7, 622.4 377.7 Q 621.2 377.7, 620.5 378.8 Q 619.9 380.0, 619.9 382.2 Q 619.9 384.4, 620.5 385.6 Q 621.2 386.7, 622.4 386.7 " fill="#000000"/>
<path class="legend" d="M 627.6 386.3 L 629.2 386.3 L 629.2 387.9 L 627.6 387.9 L 627.6 386.3 " fill="#000000"/>
<path class="legend" d="M 636.2 377.8 L 630.2 377.8 L 630.2 376.6 L 637.8 376.6 L 637.8 377.7 L 633.2 387.9 L 631.7 387.9 L 636.2 377.8 " fill="#000000"/>
<path class="legend" d="M 642.3 380.8 Q 643.3 380.8, 644.1 381.2 Q 645.0 381.6, 645.4 382.4 Q 645.9 383.2, 645.9 384.3 Q 645.9 385.5, 645.3 386.3 Q 644.8 387.2, 643.8 387.6 Q 642.9 388.0, 641.8 388.0 Q 640.8 388.0, 639.8 387.6 Q 638.9 387.2, 638.2 386.5 L 639.2 385.5 Q 639.7 386.1, 640.4 386.4 Q 641.2 386.7, 641.9 386.7 Q 642.9 386.7, 643.6 386.1 Q 644.3 385.5, 644.3 384.3 Q 644.3 383.1, 643.6 382.6 Q 642.9 382.0, 641.8 382.0 Q 640.8 382.0, 639.7 382.4 L 638.8 382.0 L 639.4 376.6 L 645.2 376.6 L 645.0 377.8 L 640.7 377.8 L 640.3 381.2 Q 641.3 380.8, 642.3 380.8 " fill="#000000"/>
<path class="legend" d="M 652.1 381.9 Q 653.2 382.2, 653.7 383.0 Q 654.3 383.7, 654.3 384.8 Q 654.3 385.7, 653.8 386.5 Q 653.3 387.2, 652.4 387.6 Q 651.6 388.0, 650.4 388.0 Q 649.2 388.0, 648.3 387.6 Q 647.4 387.2, 646.7 386.3 L 647.6 385.4 Q 648.3 386.2, 648.9 386.5 Q 649.5 386.8, 650.4 386.8 Q 651.4 386.8, 652.1 386.2 Q 652.7 385.7, 652.7 384.8 Q 652.7 383.6, 652.0 383.1 Q 651.4 382.6, 650.0 382.6 L 649.2 382.6 L 649.2 381.4 L 649.9 381.4 Q 651.1 381.4, 651.8 380.9 Q 652.4 380.3, 652.4 379.3 Q 652.4 378.6, 651.9 378.2 Q 651.3 377.7, 650.4 377.7 Q 649.5 377.7, 648.9 378.0 Q 648.3 378.4, 647.9 379.2 L 646.8 378.6 Q 647.2 377.7, 648.1 377.1 Q 649.1 376.4, 650.4 376.4 Q 652.1 376.4, 653.1 377.2 Q 654.0 378.0, 654.0 379.3 Q 654.0 380.2, 653.5 380.9 Q 653.0 381.6, 652.1 381.9 " fill="#000000"/>
<path class="legend" d="M 655.3 378.7 Q 655.7 377.6, 656.7 377.0 Q 657.7 376.4, 659.0 376.4 Q 660.7 376.4, 661.7 377.4 Q 662.7 378.3, 662.7 379.9 Q 662.7 381.6, 661.4 383.2 Q 660.2 384.8, 657.6 386.6 L 662.9 386.6 L 662.9 387.9 L 655.2 387.9 L 655.2 386.8 Q 657.3 385.3, 658.6 384.2 Q 659.8 383.1, 660.5 382.1 Q 661.1 381.1, 661.1 380.0 Q 661.1 378.9, 660.5 378.3 Q 660.0 377.7, 659.0 377.7 Q 658.1 377.7, 657.5 378.1 Q 656.9 378.4, 656.5 379.3 L 655.3 378.7 " fill="#000000"/>
<path class="bond-0 atom-0 atom-1" d="M 1106.7,246.1 L 1152.7,209.4" style="fill:none;fill-rule:evenodd;stroke:#000000;stroke-width:2.0px;stroke-linecap:butt;stroke-linejoin:miter;stroke-opacity:1"/>
<path class="bond-0 atom-0 atom-1" d="M 1106.2,231.4 L 1138.4,205.7" style="fill:none;fill-rule:evenodd;stroke:#000000;stroke-width:2.0px;stroke-linecap:butt;stroke-linejoin:miter;stroke-opacity:1"/>
<path class="bond-1 atom-1 atom-2" d="M 1152.7,209.4 L 1152.7,150.6" style="fill:none;fill-rule:evenodd;stroke:#000000;stroke-width:2.0px;stroke-linecap:butt;stroke-linejoin:miter;stroke-opacity:1"/>
<path class="bond-2 atom-2 atom-3" d="M 1152.7,150.6 L 1106.7,113.9" style="fill:none;fill-rule:evenodd;stroke:#000000;stroke-width:2.0px;stroke-linecap:butt;stroke-linejoin:miter;stroke-opacity:1"/>
<path class="bond-3 atom-3 atom-4" d="M 1106.7,113.9 L 1049.3,127.0" style="fill:none;fill-rule:evenodd;stroke:#000000;stroke-width:2.0px;stroke-linecap:butt;stroke-linejoin:miter;stroke-opacity:1"/>
<path class="bond-4 atom-4 atom-5" d="M 1049.3,127.0 L 1023.8,180.0" style="fill:none;fill-rule:evenodd;stroke:#000000;stroke-width:2.0px;stroke-linecap:butt;stroke-linejoin:miter;stroke-opacity:1"/>
<path class="bond-5 atom-5 atom-6" d="M 1023.8,180.0 L 965.0,180.0" style="fill:none;fill-rule:evenodd;stroke:#000000;stroke-width:2.0px;stroke-linecap:butt;stroke-linejoin:miter;stroke-opacity:1"/>
<path class="bond-6 atom-6 atom-7" d="M 965.0,180.0 L 935.6,129.1" style="fill:none;fill-rule:evenodd;stroke:#000000;stroke-width:2.0px;stroke-linecap:butt;stroke-linejoin:miter;stroke-opacity:1"/>
<path class="bond-6 atom-6 atom-7" d="M 950.4,178.2 L 929.8,142.6" style="fill:none;fill-rule:evenodd;stroke:#000000;stroke-width:2.0px;stroke-linecap:butt;stroke-linejoin:miter;stroke-opacity:1"/>
<path class="bond-7 atom-7 atom-8" d="M 935.6,129.1 L 876.7,129.1" style="fill:none;fill-rule:evenodd;stroke:#000000;stroke-width:2.0px;stroke-linecap:butt;stroke-linejoin:miter;stroke-opacity:1"/>
<path class="bond-8 atom-8 atom-9" d="M 876.7,129.1 L 847.3,180.0" style="fill:none;fill-rule:evenodd;stroke:#000000;stroke-width:2.0px;stroke-linecap:butt;stroke-linejoin:miter;stroke-opacity:1"/>
<path class="bond-8 atom-8 atom-9" d="M 882.5,142.6 L 861.9,178.2" style="fill:none;fill-rule:evenodd;stroke:#000000;stroke-width:2.0px;stroke-linecap:butt;stroke-linejoin:miter;stroke-opacity:1"/>
<path class="bond-9 atom-9 atom-10" d="M 847.3,180.0 L 876.7,230.9" style="fill:none;fill-rule:evenodd;stroke:#000000;stroke-width:2.0px;stroke-linecap:butt;stroke-linejoin:miter;stroke-opacity:1"/>
<path class="bond-10 atom-10 atom-11" d="M 876.7,230.9 L 935.6,230.9" style="fill:none;fill-rule:evenodd;stroke:#000000;stroke-width:2.0px;stroke-linecap:butt;stroke-linejoin:miter;stroke-opacity:1"/>
<path class="bond-10 atom-10 atom-11" d="M 885.6,219.2 L 926.7,219.2" style="fill:none;fill-rule:evenodd;stroke:#000000;stroke-width:2.0px;stroke-linecap:butt;stroke-linejoin:miter;stroke-opacity:1"/>
<path class="bond-11 atom-5 atom-12" d="M 1023.8,180.0 L 1049.3,233.0" style="fill:none;fill-rule:evenodd;stroke:#000000;stroke-width:2.0px;stroke-linecap:butt;stroke-linejoin:miter;stroke-opacity:1"/>
<path class="bond-11 atom-5 atom-12" d="M 1038.2,182.8 L 1056.1,219.9" style="fill:none;fill-rule:evenodd;stroke:#000000;stroke-width:2.0px;stroke-linecap:butt;stroke-linejoin:miter;stroke-opacity:1"/>
<path class="bond-12 atom-12 atom-0" d="M 1049.3,233.0 L 1106.7,246.1" style="fill:none;fill-rule:evenodd;stroke:#000000;stroke-width:2.0px;stroke-linecap:butt;stroke-linejoin:miter;stroke-opacity:1"/>
<path class="bond-13 atom-11 atom-6" d="M 935.6,230.9 L 965.0,180.0" style="fill:none;fill-rule:evenodd;stroke:#000000;stroke-width:2.0px;stroke-linecap:butt;stroke-linejoin:miter;stroke-opacity:1"/>
<path class="legend" d="M 967.6 365.4 L 967.8 366.5 Q 968.7 365.3, 970.1 365.3 Q 970.5 365.3, 971.1 365.4 L 970.9 366.8 Q 970.2 366.6, 969.8 366.6 Q 969.1 366.6, 968.7 366.9 Q 968.3 367.1, 967.9 367.8 L 967.9 373.6 L 966.4 373.6 L 966.4 365.4 L 967.6 365.4 " fill="#000000"/>
<path class="legend" d="M 971.4 369.5 Q 971.4 367.5, 972.4 366.4 Q 973.4 365.3, 975.2 365.3 Q 977.0 365.3, 977.8 366.4 Q 978.6 367.4, 978.6 369.5 L 978.6 369.7 L 972.9 369.7 Q 972.9 371.1, 973.6 371.8 Q 974.2 372.6, 975.4 372.6 Q 976.0 372.6, 976.6 372.4 Q 977.2 372.3, 977.9 372.0 L 978.3 373.0 Q 977.5 373.4, 976.8 373.6 Q 976.0 373.8, 975.3 373.8 Q 973.4 373.8, 972.4 372.6 Q 971.4 371.5, 971.4 369.5 M 975.2 366.4 Q 974.3 366.4, 973.7 367.0 Q 973.1 367.5, 973.0 368.6 L 977.1 368.6 Q 977.0 367.5, 976.5 367.0 Q 976.1 366.4, 975.2 366.4 " fill="#000000"/>
<path class="legend" d="M 979.3 371.4 Q 979.3 370.1, 980.3 369.4 Q 981.4 368.7, 983.3 368.7 L 984.5 368.7 L 984.5 368.3 Q 984.5 367.3, 984.1 366.9 Q 983.7 366.4, 982.6 366.4 Q 982.0 366.4, 981.5 366.6 Q 981.0 366.7, 980.2 367.0 L 979.7 366.0 Q 981.2 365.3, 982.7 365.3 Q 984.4 365.3, 985.2 366.0 Q 986.0 366.8, 986.0 368.4 L 986.0 373.6 L 984.9 373.6 Q 984.8 373.6, 984.8 373.3 Q 984.7 373.1, 984.6 372.7 Q 983.5 373.8, 982.0 373.8 Q 980.7 373.8, 980.0 373.2 Q 979.3 372.5, 979.3 371.4 M 980.8 371.4 Q 980.8 372.0, 981.1 372.3 Q 981.5 372.6, 982.2 372.6 Q 982.9 372.6, 983.5 372.4 Q 984.1 372.0, 984.5 371.5 L 984.5 369.8 L 983.4 369.8 Q 982.1 369.8, 981.4 370.2 Q 980.8 370.6, 980.8 371.4 " fill="#000000"/>
<path class="legend" d="M 987.3 369.5 Q 987.3 367.5, 988.2 366.4 Q 989.2 365.3, 991.2 365.3 Q 993.1 365.3, 994.0 366.6 L 993.0 367.4 Q 992.6 366.9, 992.2 366.7 Q 991.8 366.4, 991.2 366.4 Q 990.1 366.4, 989.4 367.2 Q 988.8 368.0, 988.8 369.5 Q 988.8 371.0, 989.4 371.8 Q 990.1 372.6, 991.3 372.6 Q 992.0 372.6, 992.4 372.4 Q 992.9 372.3, 993.5 372.0 L 993.9 373.0 Q 992.7 373.7, 991.2 373.7 Q 989.2 373.7, 988.2 372.6 Q 987.3 371.5, 987.3 369.5 " fill="#000000"/>
<path class="legend" d="M 994.4 366.6 L 994.4 365.4 L 996.0 365.4 L 996.2 363.0 L 997.4 363.0 L 997.4 365.4 L 999.9 365.4 L 999.9 366.6 L 997.4 366.6 L 997.4 371.1 Q 997.4 372.5, 998.6 372.5 Q 999.0 372.5, 999.8 372.3 L 1000.0 373.4 Q 999.1 373.7, 998.3 373.7 Q 997.2 373.7, 996.5 373.1 Q 995.9 372.4, 995.9 371.2 L 995.9 366.6 L 994.4 366.6 " fill="#000000"/>
<path class="legend" d="M 1008.6 374.4 L 1008.6 375.7 L 1000.4 375.7 L 1000.4 374.4 L 1008.6 374.4 " fill="#000000"/>
<path class="legend" d="M 1012.7 366.5 Q 1013.7 366.5, 1014.5 367.0 Q 1015.3 367.4, 1015.8 368.2 Q 1016.2 369.0, 1016.2 370.0 Q 1016.2 371.2, 1015.7 372.1 Q 1015.1 372.9, 1014.2 373.3 Q 1013.2 373.8, 1012.2 373.8 Q 1011.1 373.8, 1010.2 373.4 Q 1009.2 373.0, 1008.6 372.3 L 1009.5 371.3 Q 1010.1 371.8, 1010.8 372.2 Q 1011.5 372.5, 1012.2 372.5 Q 1013.2 372.5, 1013.9 371.8 Q 1014.6 371.2, 1014.6 370.1 Q 1014.6 368.9, 1013.9 368.3 Q 1013.2 367.7, 1012.1 367.7 Q 1011.1 367.7, 1010.0 368.2 L 1009.2 367.8 L 1009.7 362.3 L 1015.5 362.3 L 1015.4 363.6 L 1011.0 363.6 L 1010.7 366.9 Q 1011.7 366.5, 1012.7 366.5 " fill="#000000"/>
<path class="legend" d="M 1021.4 366.6 Q 1022.4 366.6, 1023.2 367.0 Q 1024.0 367.4, 1024.4 368.2 Q 1024.9 369.0, 1024.9 370.0 Q 1024.9 371.1, 1024.4 372.0 Q 1023.9 372.8, 1023.0 373.3 Q 1022.2 373.8, 1021.0 373.8 Q 1019.0 373.8, 1018.0 372.4 Q 1017.0 371.0, 1017.0 368.3 Q 1017.0 365.3, 1018.2 363.7 Q 1019.5 362.2, 1021.9 362.2 Q 1022.6 362.2, 1023.2 362.3 Q 1023.8 362.5, 1024.4 362.8 L 1023.8 363.9 Q 1023.0 363.5, 1021.9 363.5 Q 1020.3 363.5, 1019.5 364.5 Q 1018.7 365.5, 1018.6 367.6 Q 1019.2 367.1, 1019.9 366.8 Q 1020.6 366.6, 1021.4 366.6 M 1021.1 372.4 Q 1021.7 372.4, 1022.2 372.1 Q 1022.7 371.8, 1023.0 371.2 Q 1023.3 370.7, 1023.3 370.0 Q 1023.3 369.0, 1022.7 368.4 Q 1022.1 367.8, 1021.1 367.8 Q 1020.5 367.8, 1019.8 368.1 Q 1019.1 368.4, 1018.6 368.9 Q 1018.7 370.8, 1019.3 371.6 Q 1019.9 372.4, 1021.1 372.4 " fill="#000000"/>
<path class="legend" d="M 1030.2 366.6 Q 1031.2 366.6, 1031.9 367.0 Q 1032.7 367.4, 1033.2 368.2 Q 1033.6 369.0, 1033.6 370.0 Q 1033.6 371.1, 1033.1 372.0 Q 1032.6 372.8, 1031.8 373.3 Q 1030.9 373.8, 1029.8 373.8 Q 1027.8 373.8, 1026.7 372.4 Q 1025.7 371.0, 1025.7 368.3 Q 1025.7 365.3, 1027.0 363.7 Q 1028.2 362.2, 1030.7 362.2 Q 1031.4 362.2, 1032.0 362.3 Q 1032.6 362.5, 1033.1 362.8 L 1032.5 363.9 Q 1031.7 363.5, 1030.7 363.5 Q 1029.1 363.5, 1028.3 364.5 Q 1027.4 365.5, 1027.4 367.6 Q 1027.9 367.1, 1028.6 366.8 Q 1029.4 366.6, 1030.2 366.6 M 1029.8 372.4 Q 1030.4 372.4, 1030.9 372.1 Q 1031.4 371.8, 1031.7 371.2 Q 1032.0 370.7, 1032.0 370.0 Q 1032.0 369.0, 1031.4 368.4 Q 1030.9 367.8, 1029.9 367.8 Q 1029.2 367.8, 1028.5 368.1 Q 1027.8 368.4, 1027.4 368.9 Q 1027.4 370.8, 1028.0 371.6 Q 1028.6 372.4, 1029.8 372.4 " fill="#000000"/>
<path class="legend" d="M 937.2 383.8 Q 937.2 381.8, 938.2 380.7 Q 939.2 379.5, 941.1 379.5 Q 943.0 379.5, 944.0 380.9 L 942.9 381.6 Q 942.6 381.2, 942.1 380.9 Q 941.7 380.7, 941.1 380.7 Q 940.0 380.7, 939.3 381.5 Q 938.7 382.3, 938.7 383.8 Q 938.7 385.3, 939.3 386.1 Q 940.0 386.8, 941.2 386.8 Q 941.9 386.8, 942.3 386.7 Q 942.8 386.5, 943.4 386.3 L 943.8 387.3 Q 942.6 388.0, 941.1 388.0 Q 939.2 388.0, 938.2 386.9 Q 937.2 385.7, 937.2 383.8 " fill="#000000"/>
<path class="legend" d="M 944.3 383.8 Q 944.3 381.7, 945.3 380.6 Q 946.4 379.5, 948.2 379.5 Q 950.0 379.5, 950.8 380.6 Q 951.6 381.7, 951.6 383.7 L 951.6 384.0 L 945.9 384.0 Q 945.9 385.4, 946.5 386.1 Q 947.2 386.8, 948.3 386.8 Q 949.0 386.8, 949.6 386.7 Q 950.1 386.5, 950.9 386.2 L 951.3 387.2 Q 950.5 387.6, 949.7 387.8 Q 949.0 388.0, 948.2 388.0 Q 946.4 388.0, 945.4 386.9 Q 944.3 385.8, 944.3 383.8 M 948.2 380.7 Q 947.3 380.7, 946.7 381.2 Q 946.1 381.8, 945.9 382.8 L 950.0 382.8 Q 949.9 381.7, 949.5 381.2 Q 949.0 380.7, 948.2 380.7 " fill="#000000"/>
<path class="legend" d="M 956.5 379.5 Q 957.8 379.5, 958.5 380.3 Q 959.2 381.0, 959.2 382.4 L 959.2 387.9 L 957.7 387.9 L 957.7 382.6 Q 957.7 381.6, 957.3 381.2 Q 957.0 380.7, 956.1 380.7 Q 955.4 380.7, 954.8 381.1 Q 954.1 381.4, 953.7 382.0 L 953.7 387.9 L 952.2 387.9 L 952.2 379.7 L 953.5 379.7 L 953.6 380.8 Q 954.7 379.5, 956.5 379.5 " fill="#000000"/>
<path class="legend" d="M 960.5 380.8 L 960.5 379.7 L 962.0 379.7 L 962.3 377.3 L 963.4 377.3 L 963.4 379.7 L 965.9 379.7 L 965.9 380.8 L 963.4 380.8 L 963.4 385.4 Q 963.4 386.8, 964.6 386.8 Q 965.1 386.8, 965.8 386.6 L 966.0 387.6 Q 965.2 388.0, 964.3 388.0 Q 963.3 388.0, 962.6 387.3 Q 961.9 386.7, 961.9 385.4 L 961.9 380.8 L 960.5 380.8 " fill="#000000"/>
<path class="legend" d="M 974.6 388.7 L 974.6 390.0 L 966.4 390.0 L 966.4 388.7 L 974.6 388.7 " fill="#000000"/>
<path class="legend" d="M 982.1 375.7 L 982.1 387.9 L 980.9 387.9 L 980.6 386.9 Q 979.7 388.0, 978.2 388.0 Q 976.5 388.0, 975.5 387.0 Q 974.6 385.9, 974.6 383.9 Q 974.6 381.8, 975.7 380.7 Q 976.9 379.5, 978.8 379.5 Q 979.7 379.5, 980.6 379.7 L 980.6 375.7 L 982.1 375.7 M 978.3 386.8 Q 979.1 386.8, 979.7 386.4 Q 980.3 385.9, 980.6 385.1 L 980.6 380.9 Q 979.7 380.7, 978.8 380.7 Q 977.6 380.7, 976.9 381.6 Q 976.1 382.4, 976.1 383.9 Q 976.1 385.3, 976.7 386.1 Q 977.3 386.8, 978.3 386.8 " fill="#000000"/>
<path class="legend" d="M 983.3 376.6 L 984.8 376.6 L 984.8 378.0 L 983.3 378.0 L 983.3 376.6 M 983.3 379.7 L 984.8 379.7 L 984.8 387.9 L 983.3 387.9 L 983.3 379.7 " fill="#000000"/>
<path class="legend" d="M 986.7 386.2 Q 987.4 386.5, 987.9 386.6 Q 988.4 386.8, 989.0 386.8 Q 989.7 386.8, 990.1 386.5 Q 990.5 386.2, 990.5 385.6 Q 990.5 385.2, 990.3 385.0 Q 990.1 384.8, 989.8 384.6 Q 989.6 384.5, 988.8 384.3 Q 988.7 384.3, 988.0 384.0 Q 987.3 383.7, 986.9 383.2 Q 986.5 382.7, 986.5 381.9 Q 986.5 380.9, 987.2 380.2 Q 988.0 379.5, 989.5 379.5 Q 990.1 379.5, 990.7 379.7 Q 991.2 379.8, 991.8 380.0 L 991.4 381.2 Q 990.9 381.0, 990.4 380.9 Q 990.0 380.8, 989.5 380.8 Q 988.7 380.8, 988.4 381.1 Q 988.0 381.4, 988.0 381.8 Q 988.0 382.3, 988.3 382.5 Q 988.6 382.7, 989.3 383.0 Q 989.4 383.0, 989.6 383.1 L 990.0 383.2 Q 990.6 383.4, 991.0 383.7 Q 991.4 383.9, 991.7 384.4 Q 992.0 384.8, 992.0 385.6 Q 992.0 386.7, 991.2 387.4 Q 990.3 388.0, 989.0 388.0 Q 988.2 388.0, 987.5 387.9 Q 986.9 387.7, 986.2 387.4 L 986.7 386.2 " fill="#000000"/>
<path class="legend" d="M 992.9 380.8 L 992.9 379.7 L 994.4 379.7 L 994.7 377.3 L 995.8 377.3 L 995.8 379.7 L 998.3 379.7 L 998.3 380.8 L 995.8 380.8 L 995.8 385.4 Q 995.8 386.8, 997.0 386.8 Q 997.5 386.8, 998.2 386.6 L 998.5 387.6 Q 997.6 388.0, 996.7 388.0 Q 995.7 388.0, 995.0 387.3 Q 994.3 386.7, 994.3 385.4 L 994.3 380.8 L 992.9 380.8 " fill="#000000"/>
<path class="legend" d="" fill="#000000"/>
<path class="legend" d="M 1004.2 380.9 L 1011.5 380.9 L 1011.5 382.1 L 1004.2 382.1 L 1004.2 380.9 M 1004.2 384.4 L 1011.5 384.4 L 1011.5 385.5 L 1004.2 385.5 L 1004.2 384.4 " fill="#000000"/>
<path class="legend" d="" fill="#000000"/>
<path class="legend" d="M 1022.4 388.0 Q 1020.4 388.0, 1019.3 386.5 Q 1018.3 384.9, 1018.3 382.2 Q 1018.3 379.5, 1019.3 378.0 Q 1020.3 376.4, 1022.4 376.4 Q 1024.5 376.4, 1025.6 378.0 Q 1026.6 379.5, 1026.6 382.2 Q 1026.6 384.9, 1025.5 386.5 Q 1024.5 388.0, 1022.4 388.0 M 1022.4 386.7 Q 1023.7 386.7, 1024.3 385.6 Q 1025.0 384.4, 1025.0 382.2 Q 1025.0 380.0, 1024.3 378.8 Q 1023.7 377.7, 1022.4 377.7 Q 1021.2 377.7, 1020.6 378.8 Q 1019.9 380.0, 1019.9 382.2 Q 1019.9 384.4, 1020.6 385.6 Q 1021.2 386.7, 1022.4 386.7 " fill="#000000"/>
<path class="legend" d="M 1027.6 386.3 L 1029.2 386.3 L 1029.2 387.9 L 1027.6 387.9 L 1027.6 386.3 " fill="#000000"/>
<path class="legend" d="M 1036.2 377.8 L 1030.3 377.8 L 1030.3 376.6 L 1037.8 376.6 L 1037.8 377.7 L 1033.2 387.9 L 1031.7 387.9 L 1036.2 377.8 " fill="#000000"/>
<path class="legend" d="M 1042.7 380.8 Q 1043.7 380.8, 1044.5 381.2 Q 1045.2 381.7, 1045.7 382.5 Q 1046.1 383.2, 1046.1 384.2 Q 1046.1 385.3, 1045.6 386.2 Q 1045.1 387.1, 1044.3 387.5 Q 1043.4 388.0, 1042.3 388.0 Q 1040.3 388.0, 1039.3 386.7 Q 1038.3 385.3, 1038.3 382.6 Q 1038.3 379.6, 1039.5 378.0 Q 1040.8 376.4, 1043.2 376.4 Q 1043.9 376.4, 1044.5 376.6 Q 1045.1 376.8, 1045.7 377.1 L 1045.0 378.2 Q 1044.2 377.7, 1043.2 377.7 Q 1041.6 377.7, 1040.8 378.8 Q 1040.0 379.8, 1039.9 381.9 Q 1040.4 381.4, 1041.2 381.1 Q 1041.9 380.8, 1042.7 380.8 M 1042.3 386.7 Q 1042.9 386.7, 1043.4 386.4 Q 1043.9 386.1, 1044.2 385.5 Q 1044.5 384.9, 1044.5 384.3 Q 1044.5 383.2, 1043.9 382.7 Q 1043.4 382.1, 1042.4 382.1 Q 1041.7 382.1, 1041.0 382.4 Q 1040.3 382.7, 1039.9 383.1 Q 1039.9 385.0, 1040.5 385.9 Q 1041.1 386.7, 1042.3 386.7 " fill="#000000"/>
<path class="legend" d="M 1052.9 377.8 L 1047.0 377.8 L 1047.0 376.6 L 1054.5 376.6 L 1054.5 377.7 L 1049.9 387.9 L 1048.4 387.9 L 1052.9 377.8 " fill="#000000"/>
<path class="legend" d="M 1059.4 380.8 Q 1060.4 380.8, 1061.2 381.2 Q 1062.0 381.7, 1062.4 382.5 Q 1062.8 383.2, 1062.8 384.2 Q 1062.8 385.3, 1062.3 386.2 Q 1061.9 387.1, 1061.0 387.5 Q 1060.1 388.0, 1059.0 388.0 Q 1057.0 388.0, 1056.0 386.7 Q 1055.0 385.3, 1055.0 382.6 Q 1055.0 379.6, 1056.2 378.0 Q 1057.5 376.4, 1059.9 376.4 Q 1060.6 376.4, 1061.2 376.6 Q 1061.8 376.8, 1062.4 377.1 L 1061.8 378.2 Q 1060.9 377.7, 1059.9 377.7 Q 1058.3 377.7, 1057.5 378.8 Q 1056.7 379.8, 1056.6 381.9 Q 1057.2 381.4, 1057.9 381.1 Q 1058.6 380.8, 1059.4 380.8 M 1059.0 386.7 Q 1059.6 386.7, 1060.1 386.4 Q 1060.7 386.1, 1060.9 385.5 Q 1061.2 384.9, 1061.2 384.3 Q 1061.2 383.2, 1060.7 382.7 Q 1060.1 382.1, 1059.1 382.1 Q 1058.4 382.1, 1057.7 382.4 Q 1057.1 382.7, 1056.6 383.1 Q 1056.7 385.0, 1057.2 385.9 Q 1057.8 386.7, 1059.0 386.7 " fill="#000000"/>
<path class="bond-0 atom-0 atom-1" d="M 1218.2,195.4 L 1238.8,207.5" style="fill:none;fill-rule:evenodd;stroke:#000000;stroke-width:2.0px;stroke-linecap:butt;stroke-linejoin:miter;stroke-opacity:1"/>
<path class="bond-0 atom-0 atom-1" d="M 1238.8,207.5 L 1259.4,219.5" style="fill:none;fill-rule:evenodd;stroke:#FF0000;stroke-width:2.0px;stroke-linecap:butt;stroke-linejoin:miter;stroke-opacity:1"/>
<path class="bond-1 atom-1 atom-2" d="M 1278.6,219.6 L 1299.3,207.7" style="fill:none;fill-rule:evenodd;stroke:#FF0000;stroke-width:2.0px;stroke-linecap:butt;stroke-linejoin:miter;stroke-opacity:1"/>
<path class="bond-1 atom-1 atom-2" d="M 1299.3,207.7 L 1320.1,195.9" style="fill:none;fill-rule:evenodd;stroke:#000000;stroke-width:2.0px;stroke-linecap:butt;stroke-linejoin:miter;stroke-opacity:1"/>
<path class="bond-2 atom-2 atom-3" d="M 1320.1,195.9 L 1320.3,137.1" style="fill:none;fill-rule:evenodd;stroke:#000000;stroke-width:2.0px;stroke-linecap:butt;stroke-linejoin:miter;stroke-opacity:1"/>
<path class="bond-2 atom-2 atom-3" d="M 1331.9,187.1 L 1332.1,145.9" style="fill:none;fill-rule:evenodd;stroke:#000000;stroke-width:2.0px;stroke-linecap:butt;stroke-linejoin:miter;stroke-opacity:1"/>
<path class="bond-3 atom-3 atom-4" d="M 1320.3,137.1 L 1371.4,107.9" style="fill:none;fill-rule:evenodd;stroke:#000000;stroke-width:2.0px;stroke-linecap:butt;stroke-linejoin:miter;stroke-opacity:1"/>
<path class="bond-4 atom-4 atom-5" d="M 1371.4,107.9 L 1422.2,137.5" style="fill:none;fill-rule:evenodd;stroke:#000000;stroke-width:2.0px;stroke-linecap:butt;stroke-linejoin:miter;stroke-opacity:1"/>
<path class="bond-4 atom-4 atom-5" d="M 1373.1,122.5 L 1408.7,143.2" style="fill:none;fill-rule:evenodd;stroke:#000000;stroke-width:2.0px;stroke-linecap:butt;stroke-linejoin:miter;stroke-opacity:1"/>
<path class="bond-5 atom-5 atom-6" d="M 1422.2,137.5 L 1422.0,196.3" style="fill:none;fill-rule:evenodd;stroke:#000000;stroke-width:2.0px;stroke-linecap:butt;stroke-linejoin:miter;stroke-opacity:1"/>
<path class="bond-6 atom-6 atom-7" d="M 1422.0,196.3 L 1370.9,225.5" style="fill:none;fill-rule:evenodd;stroke:#000000;stroke-width:2.0px;stroke-linecap:butt;stroke-linejoin:miter;stroke-opacity:1"/>
<path class="bond-6 atom-6 atom-7" d="M 1408.5,190.5 L 1372.7,210.9" style="fill:none;fill-rule:evenodd;stroke:#000000;stroke-width:2.0px;stroke-linecap:butt;stroke-linejoin:miter;stroke-opacity:1"/>
<path class="bond-7 atom-6 atom-8" d="M 1422.0,196.3 L 1442.6,208.3" style="fill:none;fill-rule:evenodd;stroke:#000000;stroke-width:2.0px;stroke-linecap:butt;stroke-linejoin:miter;stroke-opacity:1"/>
<path class="bond-7 atom-6 atom-8" d="M 1442.6,208.3 L 1463.2,220.4" style="fill:none;fill-rule:evenodd;stroke:#FF0000;stroke-width:2.0px;stroke-linecap:butt;stroke-linejoin:miter;stroke-opacity:1"/>
<path class="bond-8 atom-8 atom-9" d="M 1482.4,220.5 L 1503.1,208.6" style="fill:none;fill-rule:evenodd;stroke:#FF0000;stroke-width:2.0px;stroke-linecap:butt;stroke-linejoin:miter;stroke-opacity:1"/>
<path class="bond-8 atom-8 atom-9" d="M 1503.1,208.6 L 1523.8,196.8" style="fill:none;fill-rule:evenodd;stroke:#000000;stroke-width:2.0px;stroke-linecap:butt;stroke-linejoin:miter;stroke-opacity:1"/>
<path class="bond-9 atom-9 atom-10" d="M 1523.8,196.8 L 1581.8,186.8" style="fill:none;fill-rule:evenodd;stroke:#000000;stroke-width:2.0px;stroke-linecap:butt;stroke-linejoin:miter;stroke-opacity:1"/>
<path class="bond-10 atom-9 atom-11" d="M 1523.8,196.8 L 1543.7,252.1" style="fill:none;fill-rule:evenodd;stroke:#000000;stroke-width:2.0px;stroke-linecap:butt;stroke-linejoin:miter;stroke-opacity:1"/>
<path class="bond-11 atom-9 atom-12" d="M 1523.8,196.8 L 1524.1,137.9" style="fill:none;fill-rule:evenodd;stroke:#000000;stroke-width:2.0px;stroke-linecap:butt;stroke-linejoin:miter;stroke-opacity:1"/>
<path class="bond-12 atom-12 atom-13" d="M 1524.1,137.9 L 1473.3,108.3" style="fill:none;fill-rule:evenodd;stroke:#000000;stroke-width:2.0px;stroke-linecap:butt;stroke-linejoin:miter;stroke-opacity:1"/>
<path class="bond-12 atom-12 atom-13" d="M 1510.5,143.7 L 1475.0,122.9" style="fill:none;fill-rule:evenodd;stroke:#000000;stroke-width:2.0px;stroke-linecap:butt;stroke-linejoin:miter;stroke-opacity:1"/>
<path class="bond-13 atom-7 atom-2" d="M 1370.9,225.5 L 1320.1,195.9" style="fill:none;fill-rule:evenodd;stroke:#000000;stroke-width:2.0px;stroke-linecap:butt;stroke-linejoin:miter;stroke-opacity:1"/>
<path class="bond-14 atom-13 atom-5" d="M 1473.3,108.3 L 1422.2,137.5" style="fill:none;fill-rule:evenodd;stroke:#000000;stroke-width:2.0px;stroke-linecap:butt;stroke-linejoin:miter;stroke-opacity:1"/>
<path class="atom-1" d="M 1261.4 225.1 Q 1261.4 221.1, 1263.3 218.9 Q 1265.3 216.7, 1269.0 216.7 Q 1272.7 216.7, 1274.7 218.9 Q 1276.6 221.1, 1276.6 225.1 Q 1276.6 229.2, 1274.6 231.5 Q 1272.6 233.8, 1269.0 233.8 Q 1265.3 233.8, 1263.3 231.5 Q 1261.4 229.2, 1261.4 225.1 M 1269.0 231.9 Q 1271.5 231.9, 1272.9 230.2 Q 1274.3 228.5, 1274.3 225.1 Q 1274.3 221.9, 1272.9 220.2 Q 1271.5 218.5, 1269.0 218.5 Q 1266.5 218.5, 1265.1 220.2 Q 1263.7 221.8, 1263.7 225.1 Q 1263.7 228.5, 1265.1 230.2 Q 1266.5 231.9, 1269.0 231.9 " fill="#FF0000"/>
<path class="atom-8" d="M 1465.1 226.0 Q 1465.1 222.0, 1467.1 219.8 Q 1469.1 217.5, 1472.8 217.5 Q 1476.5 217.5, 1478.4 219.8 Q 1480.4 222.0, 1480.4 226.0 Q 1480.4 230.1, 1478.4 232.4 Q 1476.4 234.6, 1472.8 234.6 Q 1469.1 234.6, 1467.1 232.4 Q 1465.1 230.1, 1465.1 226.0 M 1472.8 232.8 Q 1475.3 232.8, 1476.7 231.1 Q 1478.1 229.3, 1478.1 226.0 Q 1478.1 222.7, 1476.7 221.1 Q 1475.3 219.4, 1472.8 219.4 Q 1470.2 219.4, 1468.8 221.1 Q 1467.5 222.7, 1467.5 226.0 Q 1467.5 229.4, 1468.8 231.1 Q 1470.2 232.8, 1472.8 232.8 " fill="#FF0000"/>
<path class="legend" d="M 1372.3 365.4 L 1372.5 366.5 Q 1373.4 365.3, 1374.8 365.3 Q 1375.2 365.3, 1375.8 365.4 L 1375.6 366.8 Q 1374.9 366.6, 1374.5 366.6 Q 1373.8 366.6, 1373.4 366.9 Q 1373.0 367.1, 1372.6 367.8 L 1372.6 373.6 L 1371.1 373.6 L 1371.1 365.4 L 1372.3 365.4 " fill="#000000"/>
<path class="legend" d="M 1376.1 369.5 Q 1376.1 367.5, 1377.1 366.4 Q 1378.1 365.3, 1379.9 365.3 Q 1381.7 365.3, 1382.5 366.4 Q 1383.3 367.4, 1383.3 369.5 L 1383.3 369.7 L 1377.6 369.7 Q 1377.6 371.1, 1378.2 371.8 Q 1378.9 372.6, 1380.0 372.6 Q 1380.7 372.6, 1381.3 372.4 Q 1381.9 372.3, 1382.6 372.0 L 1383.0 373.0 Q 1382.2 373.4, 1381.5 373.6 Q 1380.7 373.8, 1380.0 373.8 Q 1378.1 373.8, 1377.1 372.6 Q 1376.1 371.5, 1376.1 369.5 M 1379.9 366.4 Q 1379.0 366.4, 1378.4 367.0 Q 1377.8 367.5, 1377.7 368.6 L 1381.8 368.6 Q 1381.6 367.5, 1381.2 367.0 Q 1380.7 366.4, 1379.9 366.4 " fill="#000000"/>
<path class="legend" d="M 1383.9 371.4 Q 1383.9 370.1, 1385.0 369.4 Q 1386.1 368.7, 1388.0 368.7 L 1389.2 368.7 L 1389.2 368.3 Q 1389.2 367.3, 1388.8 366.9 Q 1388.4 366.4, 1387.3 366.4 Q 1386.7 366.4, 1386.2 366.6 Q 1385.7 366.7, 1384.9 367.0 L 1384.4 366.0 Q 1385.9 365.3, 1387.4 365.3 Q 1389.1 365.3, 1389.9 366.0 Q 1390.7 366.8, 1390.7 368.4 L 1390.7 373.6 L 1389.5 373.6 Q 1389.5 373.6, 1389.5 373.3 Q 1389.4 373.1, 1389.3 372.7 Q 1388.2 373.8, 1386.6 373.8 Q 1385.4 373.8, 1384.7 373.2 Q 1383.9 372.5, 1383.9 371.4 M 1385.4 371.4 Q 1385.4 372.0, 1385.8 372.3 Q 1386.2 372.6, 1386.9 372.6 Q 1387.6 372.6, 1388.2 372.4 Q 1388.8 372.0, 1389.2 371.5 L 1389.2 369.8 L 1388.1 369.8 Q 1386.8 369.8, 1386.1 370.2 Q 1385.4 370.6, 1385.4 371.4 " fill="#000000"/>
<path class="legend" d="M 1391.9 369.5 Q 1391.9 367.5, 1392.9 366.4 Q 1393.9 365.3, 1395.9 365.3 Q 1397.8 365.3, 1398.7 366.6 L 1397.7 367.4 Q 1397.3 366.9, 1396.9 366.7 Q 1396.5 366.4, 1395.9 366.4 Q 1394.7 366.4, 1394.1 367.2 Q 1393.5 368.0, 1393.5 369.5 Q 1393.5 371.0, 1394.1 371.8 Q 1394.8 372.6, 1396.0 372.6 Q 1396.6 372.6, 1397.1 372.4 Q 1397.6 372.3, 1398.2 372.0 L 1398.6 373.0 Q 1397.4 373.7, 1395.9 373.7 Q 1393.9 373.7, 1392.9 372.6 Q 1391.9 371.5, 1391.9 369.5 " fill="#000000"/>
<path class="legend" d="M 1399.1 366.6 L 1399.1 365.4 L 1400.7 365.4 L 1400.9 363.0 L 1402.1 363.0 L 1402.1 365.4 L 1404.6 365.4 L 1404.6 366.6 L 1402.1 366.6 L 1402.1 371.1 Q 1402.1 372.5, 1403.3 372.5 Q 1403.7 372.5, 1404.4 372.3 L 1404.7 373.4 Q 1403.8 373.7, 1403.0 373.7 Q 1401.9 373.7, 1401.2 373.1 Q 1400.6 372.4, 1400.6 371.2 L 1400.6 366.6 L 1399.1 366.6 " fill="#000000"/>
<path class="legend" d="M 1413.3 374.4 L 1413.3 375.7 L 1405.1 375.7 L 1405.1 374.4 L 1413.3 374.4 " fill="#000000"/>
<path class="legend" d="M 1419.2 363.6 L 1413.3 363.6 L 1413.3 362.3 L 1420.8 362.3 L 1420.8 363.4 L 1416.2 373.6 L 1414.7 373.6 L 1419.2 363.6 " fill="#000000"/>
<path class="legend" d="M 1425.4 366.5 Q 1426.3 366.5, 1427.2 367.0 Q 1428.0 367.4, 1428.4 368.2 Q 1428.9 369.0, 1428.9 370.0 Q 1428.9 371.2, 1428.3 372.1 Q 1427.8 372.9, 1426.8 373.3 Q 1425.9 373.8, 1424.9 373.8 Q 1423.8 373.8, 1422.9 373.4 Q 1421.9 373.0, 1421.2 372.3 L 1422.2 371.3 Q 1422.7 371.8, 1423.4 372.2 Q 1424.2 372.5, 1424.9 372.5 Q 1425.9 372.5, 1426.6 371.8 Q 1427.3 371.2, 1427.3 370.1 Q 1427.3 368.9, 1426.6 368.3 Q 1425.9 367.7, 1424.8 367.7 Q 1423.8 367.7, 1422.7 368.2 L 1421.8 367.8 L 1422.4 362.3 L 1428.2 362.3 L 1428.0 363.6 L 1423.7 363.6 L 1423.4 366.9 Q 1424.4 366.5, 1425.4 366.5 " fill="#000000"/>
<path class="legend" d="M 1335.4 383.8 Q 1335.4 381.8, 1336.4 380.7 Q 1337.4 379.5, 1339.4 379.5 Q 1341.2 379.5, 1342.2 380.9 L 1341.2 381.6 Q 1340.8 381.2, 1340.4 380.9 Q 1339.9 380.7, 1339.4 380.7 Q 1338.2 380.7, 1337.6 381.5 Q 1337.0 382.3, 1337.0 383.8 Q 1337.0 385.3, 1337.6 386.1 Q 1338.3 386.8, 1339.5 386.8 Q 1340.1 386.8, 1340.6 386.7 Q 1341.1 386.5, 1341.6 386.3 L 1342.0 387.3 Q 1340.9 388.0, 1339.3 388.0 Q 1337.4 388.0, 1336.4 386.9 Q 1335.4 385.7, 1335.4 383.8 " fill="#000000"/>
<path class="legend" d="M 1342.6 383.8 Q 1342.6 381.7, 1343.6 380.6 Q 1344.6 379.5, 1346.4 379.5 Q 1348.3 379.5, 1349.1 380.6 Q 1349.9 381.7, 1349.9 383.7 L 1349.9 384.0 L 1344.1 384.0 Q 1344.2 385.4, 1344.8 386.1 Q 1345.4 386.8, 1346.6 386.8 Q 1347.2 386.8, 1347.8 386.7 Q 1348.4 386.5, 1349.1 386.2 L 1349.5 387.2 Q 1348.7 387.6, 1348.0 387.8 Q 1347.3 388.0, 1346.5 388.0 Q 1344.6 388.0, 1343.6 386.9 Q 1342.6 385.8, 1342.6 383.8 M 1346.4 380.7 Q 1345.5 380.7, 1344.9 381.2 Q 1344.4 381.8, 1344.2 382.8 L 1348.3 382.8 Q 1348.2 381.7, 1347.7 381.2 Q 1347.3 380.7, 1346.4 380.7 " fill="#000000"/>
<path class="legend" d="M 1354.8 379.5 Q 1356.1 379.5, 1356.8 380.3 Q 1357.5 381.0, 1357.5 382.4 L 1357.5 387.9 L 1356.0 387.9 L 1356.0 382.6 Q 1356.0 381.6, 1355.6 381.2 Q 1355.2 380.7, 1354.4 380.7 Q 1353.6 380.7, 1353.0 381.1 Q 1352.4 381.4, 1352.0 382.0 L 1352.0 387.9 L 1350.5 387.9 L 1350.5 379.7 L 1351.7 379.7 L 1351.9 380.8 Q 1353.0 379.5, 1354.8 379.5 " fill="#000000"/>
<path class="legend" d="M 1358.7 380.8 L 1358.7 379.7 L 1360.3 379.7 L 1360.5 377.3 L 1361.6 377.3 L 1361.6 379.7 L 1364.2 379.7 L 1364.2 380.8 L 1361.6 380.8 L 1361.6 385.4 Q 1361.6 386.8, 1362.8 386.8 Q 1363.3 386.8, 1364.0 386.6 L 1364.3 387.6 Q 1363.4 388.0, 1362.6 388.0 Q 1361.5 388.0, 1360.8 387.3 Q 1360.1 386.7, 1360.1 385.4 L 1360.1 380.8 L 1358.7 380.8 " fill="#000000"/>
<path class="legend" d="M 1372.8 388.7 L 1372.8 390.0 L 1364.7 390.0 L 1364.7 388.7 L 1372.8 388.7 " fill="#000000"/>
<path class="legend" d="M 1380.3 375.7 L 1380.3 387.9 L 1379.1 387.9 L 1378.9 386.9 Q 1378.0 388.0, 1376.5 388.0 Q 1374.7 388.0, 1373.8 387.0 Q 1372.8 385.9, 1372.8 383.9 Q 1372.8 381.8, 1374.0 380.7 Q 1375.1 379.5, 1377.1 379.5 Q 1377.9 379.5, 1378.8 379.7 L 1378.8 375.7 L 1380.3 375.7 M 1376.6 386.8 Q 1377.4 386.8, 1378.0 386.4 Q 1378.6 385.9, 1378.8 385.1 L 1378.8 380.9 Q 1378.0 380.7, 1377.1 380.7 Q 1375.8 380.7, 1375.1 381.6 Q 1374.4 382.4, 1374.4 383.9 Q 1374.4 385.3, 1374.9 386.1 Q 1375.5 386.8, 1376.6 386.8 " fill="#000000"/>
<path class="legend" d="M 1381.6 376.6 L 1383.1 376.6 L 1383.1 378.0 L 1381.6 378.0 L 1381.6 376.6 M 1381.6 379.7 L 1383.1 379.7 L 1383.1 387.9 L 1381.6 387.9 L 1381.6 379.7 " fill="#000000"/>
<path class="legend" d="M 1384.9 386.2 Q 1385.6 386.5, 1386.1 386.6 Q 1386.7 386.8, 1387.2 386.8 Q 1387.9 386.8, 1388.3 386.5 Q 1388.8 386.2, 1388.8 385.6 Q 1388.8 385.2, 1388.5 385.0 Q 1388.3 384.8, 1388.1 384.6 Q 1387.8 384.5, 1387.1 384.3 Q 1387.0 384.3, 1386.2 384.0 Q 1385.5 383.7, 1385.1 383.2 Q 1384.7 382.7, 1384.7 381.9 Q 1384.7 380.9, 1385.5 380.2 Q 1386.3 379.5, 1387.7 379.5 Q 1388.4 379.5, 1388.9 379.7 Q 1389.5 379.8, 1390.1 380.0 L 1389.7 381.2 Q 1389.1 381.0, 1388.7 380.9 Q 1388.2 380.8, 1387.7 380.8 Q 1387.0 380.8, 1386.6 381.1 Q 1386.2 381.4, 1386.2 381.8 Q 1386.2 382.3, 1386.5 382.5 Q 1386.8 382.7, 1387.5 383.0 Q 1387.7 383.0, 1387.8 383.1 L 1388.2 383.2 Q 1388.9 383.4, 1389.3 383.7 Q 1389.7 383.9, 1390.0 384.4 Q 1390.3 384.8, 1390.3 385.6 Q 1390.3 386.7, 1389.4 387.4 Q 1388.6 388.0, 1387.2 388.0 Q 1386.5 388.0, 1385.8 387.9 Q 1385.1 387.7, 1384.4 387.4 L 1384.9 386.2 " fill="#000000"/>
<path class="legend" d="M 1391.1 380.8 L 1391.1 379.7 L 1392.7 379.7 L 1392.9 377.3 L 1394.1 377.3 L 1394.1 379.7 L 1396.6 379.7 L 1396.6 380.8 L 1394.1 380.8 L 1394.1 385.4 Q 1394.1 386.8, 1395.3 386.8 Q 1395.7 386.8, 1396.4 386.6 L 1396.7 387.6 Q 1395.8 388.0, 1395.0 388.0 Q 1393.9 388.0, 1393.2 387.3 Q 1392.6 386.7, 1392.6 385.4 L 1392.6 380.8 L 1391.1 380.8 " fill="#000000"/>
<path class="legend" d="" fill="#000000"/>
<path class="legend" d="M 1402.4 380.9 L 1409.8 380.9 L 1409.8 382.1 L 1402.4 382.1 L 1402.4 380.9 M 1402.4 384.4 L 1409.8 384.4 L 1409.8 385.5 L 1402.4 385.5 L 1402.4 384.4 " fill="#000000"/>
<path class="legend" d="" fill="#000000"/>
<path class="legend" d="M 1420.7 388.0 Q 1418.6 388.0, 1417.6 386.5 Q 1416.5 384.9, 1416.5 382.2 Q 1416.5 379.5, 1417.6 378.0 Q 1418.6 376.4, 1420.7 376.4 Q 1422.8 376.4, 1423.8 378.0 Q 1424.8 379.5, 1424.8 382.2 Q 1424.8 384.9, 1423.8 386.5 Q 1422.8 388.0, 1420.7 388.0 M 1420.7 386.7 Q 1421.9 386.7, 1422.6 385.6 Q 1423.2 384.4, 1423.2 382.2 Q 1423.2 380.0, 1422.6 378.8 Q 1421.9 377.7, 1420.7 377.7 Q 1419.5 377.7, 1418.8 378.8 Q 1418.1 380.0, 1418.1 382.2 Q 1418.1 384.4, 1418.8 385.6 Q 1419.5 386.7, 1420.7 386.7 " fill="#000000"/>
<path class="legend" d="M 1425.9 386.3 L 1427.5 386.3 L 1427.5 387.9 L 1425.9 387.9 L 1425.9 386.3 " fill="#000000"/>
<path class="legend" d="M 1432.3 376.4 Q 1434.3 376.4, 1435.3 377.8 Q 1436.4 379.2, 1436.4 381.9 Q 1436.4 384.9, 1435.1 386.5 Q 1433.9 388.0, 1431.4 388.0 Q 1430.7 388.0, 1430.1 387.9 Q 1429.5 387.7, 1429.0 387.4 L 1429.6 386.3 Q 1430.4 386.7, 1431.4 386.7 Q 1433.0 386.7, 1433.8 385.7 Q 1434.7 384.7, 1434.8 382.5 Q 1434.2 383.1, 1433.4 383.4 Q 1432.7 383.6, 1431.9 383.6 Q 1430.9 383.6, 1430.2 383.2 Q 1429.4 382.8, 1428.9 382.0 Q 1428.5 381.2, 1428.5 380.2 Q 1428.5 379.1, 1429.0 378.3 Q 1429.5 377.4, 1430.4 376.9 Q 1431.2 376.4, 1432.3 376.4 M 1430.1 380.2 Q 1430.1 381.2, 1430.7 381.8 Q 1431.2 382.4, 1432.2 382.4 Q 1432.9 382.4, 1433.6 382.1 Q 1434.3 381.8, 1434.8 381.3 Q 1434.7 379.4, 1434.1 378.6 Q 1433.5 377.7, 1432.3 377.7 Q 1431.7 377.7, 1431.2 378.1 Q 1430.7 378.4, 1430.4 378.9 Q 1430.1 379.5, 1430.1 380.2 " fill="#000000"/>
<path class="legend" d="M 1441.6 388.0 Q 1439.5 388.0, 1438.5 386.5 Q 1437.5 384.9, 1437.5 382.2 Q 1437.5 379.5, 1438.5 378.0 Q 1439.5 376.4, 1441.6 376.4 Q 1443.7 376.4, 1444.7 378.0 Q 1445.7 379.5, 1445.7 382.2 Q 1445.7 384.9, 1444.7 386.5 Q 1443.7 388.0, 1441.6 388.0 M 1441.6 386.7 Q 1442.8 386.7, 1443.5 385.6 Q 1444.1 384.4, 1444.1 382.2 Q 1444.1 380.0, 1443.5 378.8 Q 1442.8 377.7, 1441.6 377.7 Q 1440.4 377.7, 1439.7 378.8 Q 1439.1 380.0, 1439.1 382.2 Q 1439.1 384.4, 1439.7 385.6 Q 1440.4 386.7, 1441.6 386.7 " fill="#000000"/>
<path class="legend" d="M 1454.1 384.0 L 1455.5 384.0 L 1455.5 385.3 L 1454.1 385.3 L 1454.1 387.9 L 1452.6 387.9 L 1452.6 385.3 L 1446.8 385.3 L 1446.8 384.3 L 1451.7 376.6 L 1454.1 376.6 L 1454.1 384.0 M 1448.6 384.0 L 1452.6 384.0 L 1452.6 377.6 L 1448.6 384.0 " fill="#000000"/>
<path class="legend" d="M 1460.4 388.0 Q 1458.4 388.0, 1457.3 386.5 Q 1456.3 384.9, 1456.3 382.2 Q 1456.3 379.5, 1457.3 378.0 Q 1458.3 376.4, 1460.4 376.4 Q 1462.5 376.4, 1463.6 378.0 Q 1464.6 379.5, 1464.6 382.2 Q 1464.6 384.9, 1463.5 386.5 Q 1462.5 388.0, 1460.4 388.0 M 1460.4 386.7 Q 1461.7 386.7, 1462.3 385.6 Q 1463.0 384.4, 1463.0 382.2 Q 1463.0 380.0, 1462.3 378.8 Q 1461.7 377.7, 1460.4 377.7 Q 1459.2 377.7, 1458.5 378.8 Q 1457.9 380.0, 1457.9 382.2 Q 1457.9 384.4, 1458.5 385.6 Q 1459.2 386.7, 1460.4 386.7 " fill="#000000"/>
</svg>