<svg xmlns="http://www.w3.org/2000/svg" xmlns:rdkit="http://www.rdkit.org/xml" xmlns:xlink="http://www.w3.org/1999/xlink" version="1.1" baseProfile="full" xml:space="preserve" width="2000px" height="400px" viewBox="0 0 2000 400">
<!-- END OF HEADER -->
<rect style="opacity:1.0;fill:#FFFFFF;stroke:none" width="2000.0" height="400.0" x="0.0" y="0.0"> </rect>
<path class="bond-0 atom-0 atom-1" d="M 185.4,307.7 L 199.5,226.5" style="fill:none;fill-rule:evenodd;stroke:#000000;stroke-width:2.0px;stroke-linecap:butt;stroke-linejoin:miter;stroke-opacity:1"/>
<path class="bond-1 atom-1 atom-2" d="M 199.5,226.5 L 276.9,198.1" style="fill:none;fill-rule:evenodd;stroke:#000000;stroke-width:2.0px;stroke-linecap:butt;stroke-linejoin:miter;stroke-opacity:1"/>
<path class="bond-1 atom-1 atom-2" d="M 205.4,206.7 L 259.6,186.8" style="fill:none;fill-rule:evenodd;stroke:#000000;stroke-width:2.0px;stroke-linecap:butt;stroke-linejoin:miter;stroke-opacity:1"/>
<path class="bond-2 atom-2 atom-3" d="M 276.9,198.1 L 291.0,116.8" style="fill:none;fill-rule:evenodd;stroke:#000000;stroke-width:2.0px;stroke-linecap:butt;stroke-linejoin:miter;stroke-opacity:1"/>
<path class="bond-3 atom-3 atom-4" d="M 291.0,116.8 L 323.9,104.8" style="fill:none;fill-rule:evenodd;stroke:#000000;stroke-width:2.0px;stroke-linecap:butt;stroke-linejoin:miter;stroke-opacity:1"/>
<path class="bond-3 atom-3 atom-4" d="M 323.9,104.8 L 356.7,92.7" style="fill:none;fill-rule:evenodd;stroke:#00CC00;stroke-width:2.0px;stroke-linecap:butt;stroke-linejoin:miter;stroke-opacity:1"/>
<path class="bond-4 atom-3 atom-5" d="M 291.0,116.8 L 265.2,95.2" style="fill:none;fill-rule:evenodd;stroke:#000000;stroke-width:2.0px;stroke-linecap:butt;stroke-linejoin:miter;stroke-opacity:1"/>
<path class="bond-4 atom-3 atom-5" d="M 265.2,95.2 L 239.3,73.6" style="fill:none;fill-rule:evenodd;stroke:#0000FF;stroke-width:2.0px;stroke-linecap:butt;stroke-linejoin:miter;stroke-opacity:1"/>
<path class="bond-4 atom-3 atom-5" d="M 272.7,123.0 L 254.6,107.9" style="fill:none;fill-rule:evenodd;stroke:#000000;stroke-width:2.0px;stroke-linecap:butt;stroke-linejoin:miter;stroke-opacity:1"/>
<path class="bond-4 atom-3 atom-5" d="M 254.6,107.9 L 236.5,92.8" style="fill:none;fill-rule:evenodd;stroke:#0000FF;stroke-width:2.0px;stroke-linecap:butt;stroke-linejoin:miter;stroke-opacity:1"/>
<path class="bond-5 atom-5 atom-6" d="M 216.1,68.2 L 183.2,80.3" style="fill:none;fill-rule:evenodd;stroke:#0000FF;stroke-width:2.0px;stroke-linecap:butt;stroke-linejoin:miter;stroke-opacity:1"/>
<path class="bond-5 atom-5 atom-6" d="M 183.2,80.3 L 150.3,92.4" style="fill:none;fill-rule:evenodd;stroke:#000000;stroke-width:2.0px;stroke-linecap:butt;stroke-linejoin:miter;stroke-opacity:1"/>
<path class="bond-6 atom-6 atom-7" d="M 150.3,92.4 L 136.2,173.6" style="fill:none;fill-rule:evenodd;stroke:#000000;stroke-width:2.0px;stroke-linecap:butt;stroke-linejoin:miter;stroke-opacity:1"/>
<path class="bond-6 atom-6 atom-7" d="M 164.4,107.4 L 154.5,164.2" style="fill:none;fill-rule:evenodd;stroke:#000000;stroke-width:2.0px;stroke-linecap:butt;stroke-linejoin:miter;stroke-opacity:1"/>
<path class="bond-7 atom-7 atom-8" d="M 136.2,173.6 L 54.5,185.3" style="fill:none;fill-rule:evenodd;stroke:#000000;stroke-width:2.0px;stroke-linecap:butt;stroke-linejoin:miter;stroke-opacity:1"/>
<path class="bond-8 atom-8 atom-9" d="M 54.5,185.3 L 18.2,111.3" style="fill:none;fill-rule:evenodd;stroke:#000000;stroke-width:2.0px;stroke-linecap:butt;stroke-linejoin:miter;stroke-opacity:1"/>
<path class="bond-9 atom-9 atom-10" d="M 18.2,111.3 L 77.4,53.8" style="fill:none;fill-rule:evenodd;stroke:#000000;stroke-width:2.0px;stroke-linecap:butt;stroke-linejoin:miter;stroke-opacity:1"/>
<path class="bond-9 atom-9 atom-10" d="M 38.5,114.5 L 80.0,74.3" style="fill:none;fill-rule:evenodd;stroke:#000000;stroke-width:2.0px;stroke-linecap:butt;stroke-linejoin:miter;stroke-opacity:1"/>
<path class="bond-10 atom-7 atom-1" d="M 136.2,173.6 L 199.5,226.5" style="fill:none;fill-rule:evenodd;stroke:#000000;stroke-width:2.0px;stroke-linecap:butt;stroke-linejoin:miter;stroke-opacity:1"/>
<path class="bond-11 atom-10 atom-6" d="M 77.4,53.8 L 150.3,92.4" style="fill:none;fill-rule:evenodd;stroke:#000000;stroke-width:2.0px;stroke-linecap:butt;stroke-linejoin:miter;stroke-opacity:1"/>
<path class="atom-4" d="M 359.5 89.2 Q 359.5 83.4, 362.2 80.4 Q 364.9 77.3, 370.1 77.3 Q 374.9 77.3, 377.5 80.7 L 375.3 82.5 Q 373.4 80.0, 370.1 80.0 Q 366.5 80.0, 364.7 82.4 Q 362.8 84.7, 362.8 89.2 Q 362.8 93.8, 364.7 96.2 Q 366.7 98.6, 370.4 98.6 Q 373.0 98.6, 376.0 97.0 L 376.9 99.5 Q 375.7 100.3, 373.9 100.8 Q 372.0 101.2, 370.0 101.2 Q 364.9 101.2, 362.2 98.1 Q 359.5 95.0, 359.5 89.2 " fill="#00CC00"/>
<path class="atom-4" d="M 378.8 75.9 L 381.8 75.9 L 381.8 100.9 L 378.8 100.9 L 378.8 75.9 " fill="#00CC00"/>
<path class="atom-5" d="M 222.6 52.3 L 230.2 64.6 Q 231.0 65.9, 232.2 68.1 Q 233.4 70.3, 233.5 70.4 L 233.5 52.3 L 236.6 52.3 L 236.6 75.6 L 233.4 75.6 L 225.2 62.1 Q 224.2 60.5, 223.2 58.7 Q 222.2 56.9, 221.9 56.3 L 221.9 75.6 L 218.9 75.6 L 218.9 52.3 L 222.6 52.3 " fill="#0000FF"/>
<path class="legend" d="M 168.6 365.4 L 168.8 366.5 Q 169.7 365.3, 171.1 365.3 Q 171.5 365.3, 172.1 365.4 L 171.9 366.8 Q 171.2 366.6, 170.8 366.6 Q 170.2 366.6, 169.7 366.9 Q 169.3 367.1, 168.9 367.8 L 168.9 373.6 L 167.4 373.6 L 167.4 365.4 L 168.6 365.4 " fill="#000000"/>
<path class="legend" d="M 172.4 369.5 Q 172.4 367.5, 173.4 366.4 Q 174.4 365.3, 176.2 365.3 Q 178.0 365.3, 178.8 366.4 Q 179.7 367.4, 179.7 369.5 L 179.7 369.7 L 173.9 369.7 Q 173.9 371.1, 174.6 371.8 Q 175.2 372.6, 176.4 372.6 Q 177.0 372.6, 177.6 372.4 Q 178.2 372.3, 178.9 372.0 L 179.3 373.0 Q 178.5 373.4, 177.8 373.6 Q 177.0 373.8, 176.3 373.8 Q 174.4 373.8, 173.4 372.6 Q 172.4 371.5, 172.4 369.5 M 176.2 366.4 Q 175.3 366.4, 174.7 367.0 Q 174.2 367.5, 174.0 368.6 L 178.1 368.6 Q 178.0 367.5, 177.5 367.0 Q 177.1 366.4, 176.2 366.4 " fill="#000000"/>
<path class="legend" d="M 180.3 371.4 Q 180.3 370.1, 181.3 369.4 Q 182.4 368.7, 184.3 368.7 L 185.5 368.7 L 185.5 368.3 Q 185.5 367.3, 185.1 366.9 Q 184.7 366.4, 183.7 366.4 Q 183.0 366.4, 182.5 366.6 Q 182.0 366.7, 181.2 367.0 L 180.7 366.0 Q 182.2 365.3, 183.7 365.3 Q 185.4 365.3, 186.2 366.0 Q 187.0 366.8, 187.0 368.4 L 187.0 373.6 L 185.9 373.6 Q 185.8 373.6, 185.8 373.3 Q 185.8 373.1, 185.7 372.7 Q 184.5 373.8, 183.0 373.8 Q 181.7 373.8, 181.0 373.2 Q 180.3 372.5, 180.3 371.4 M 181.8 371.4 Q 181.8 372.0, 182.2 372.3 Q 182.5 372.6, 183.3 372.6 Q 183.9 372.6, 184.5 372.4 Q 185.1 372.0, 185.5 371.5 L 185.5 369.8 L 184.4 369.8 Q 183.1 369.8, 182.4 370.2 Q 181.8 370.6, 181.8 371.4 " fill="#000000"/>
<path class="legend" d="M 188.3 369.5 Q 188.3 367.5, 189.3 366.4 Q 190.2 365.3, 192.2 365.3 Q 194.1 365.3, 195.0 366.6 L 194.0 367.4 Q 193.7 366.9, 193.2 366.7 Q 192.8 366.4, 192.2 366.4 Q 191.1 366.4, 190.4 367.2 Q 189.8 368.0, 189.8 369.5 Q 189.8 371.0, 190.4 371.8 Q 191.1 372.6, 192.3 372.6 Q 193.0 372.6, 193.4 372.4 Q 193.9 372.3, 194.5 372.0 L 194.9 373.0 Q 193.7 373.7, 192.2 373.7 Q 190.2 373.7, 189.3 372.6 Q 188.3 371.5, 188.3 369.5 " fill="#000000"/>
<path class="legend" d="M 195.4 366.6 L 195.4 365.4 L 197.0 365.4 L 197.3 363.0 L 198.4 363.0 L 198.4 365.4 L 200.9 365.4 L 200.9 366.6 L 198.4 366.6 L 198.4 371.1 Q 198.4 372.5, 199.6 372.5 Q 200.1 372.5, 200.8 372.3 L 201.0 373.4 Q 200.1 373.7, 199.3 373.7 Q 198.2 373.7, 197.5 373.1 Q 196.9 372.4, 196.9 371.2 L 196.9 366.6 L 195.4 366.6 " fill="#000000"/>
<path class="legend" d="M 209.6 374.4 L 209.6 375.7 L 201.4 375.7 L 201.4 374.4 L 209.6 374.4 " fill="#000000"/>
<path class="legend" d="M 210.2 372.4 L 212.7 372.4 L 212.7 363.9 L 209.9 364.7 L 209.6 363.8 L 213.0 362.2 L 214.2 362.4 L 214.2 372.4 L 216.4 372.4 L 216.4 373.6 L 210.2 373.6 L 210.2 372.4 " fill="#000000"/>
<path class="legend" d="M 223.0 363.6 L 217.1 363.6 L 217.1 362.3 L 224.6 362.3 L 224.6 363.4 L 220.0 373.6 L 218.5 373.6 L 223.0 363.6 " fill="#000000"/>
<path class="legend" d="M 231.0 363.6 L 225.1 363.6 L 225.1 362.3 L 232.6 362.3 L 232.6 363.4 L 228.0 373.6 L 226.5 373.6 L 231.0 363.6 " fill="#000000"/>
<path class="legend" d="M 135.3 383.8 Q 135.3 381.8, 136.3 380.7 Q 137.3 379.5, 139.3 379.5 Q 141.1 379.5, 142.1 380.9 L 141.1 381.6 Q 140.7 381.2, 140.3 380.9 Q 139.8 380.7, 139.3 380.7 Q 138.1 380.7, 137.5 381.5 Q 136.9 382.3, 136.9 383.8 Q 136.9 385.3, 137.5 386.1 Q 138.1 386.8, 139.3 386.8 Q 140.0 386.8, 140.5 386.7 Q 140.9 386.5, 141.5 386.3 L 141.9 387.3 Q 140.8 388.0, 139.2 388.0 Q 137.3 388.0, 136.3 386.9 Q 135.3 385.7, 135.3 383.8 " fill="#000000"/>
<path class="legend" d="M 142.5 383.8 Q 142.5 381.7, 143.5 380.6 Q 144.5 379.5, 146.3 379.5 Q 148.1 379.5, 148.9 380.6 Q 149.8 381.7, 149.8 383.7 L 149.8 384.0 L 144.0 384.0 Q 144.1 385.4, 144.7 386.1 Q 145.3 386.8, 146.5 386.8 Q 147.1 386.8, 147.7 386.7 Q 148.3 386.5, 149.0 386.2 L 149.4 387.2 Q 148.6 387.6, 147.9 387.8 Q 147.2 388.0, 146.4 388.0 Q 144.5 388.0, 143.5 386.9 Q 142.5 385.8, 142.5 383.8 M 146.3 380.7 Q 145.4 380.7, 144.8 381.2 Q 144.3 381.8, 144.1 382.8 L 148.2 382.8 Q 148.1 381.7, 147.6 381.2 Q 147.2 380.7, 146.3 380.7 " fill="#000000"/>
<path class="legend" d="M 154.7 379.5 Q 156.0 379.5, 156.7 380.3 Q 157.4 381.0, 157.4 382.4 L 157.4 387.9 L 155.9 387.9 L 155.9 382.6 Q 155.9 381.6, 155.5 381.2 Q 155.1 380.7, 154.3 380.7 Q 153.5 380.7, 152.9 381.1 Q 152.3 381.4, 151.9 382.0 L 151.9 387.9 L 150.4 387.9 L 150.4 379.7 L 151.6 379.7 L 151.8 380.8 Q 152.9 379.5, 154.7 379.5 " fill="#000000"/>
<path class="legend" d="M 158.6 380.8 L 158.6 379.7 L 160.2 379.7 L 160.4 377.3 L 161.5 377.3 L 161.5 379.7 L 164.1 379.7 L 164.1 380.8 L 161.5 380.8 L 161.5 385.4 Q 161.5 386.8, 162.7 386.8 Q 163.2 386.8, 163.9 386.6 L 164.2 387.6 Q 163.3 388.0, 162.5 388.0 Q 161.4 388.0, 160.7 387.3 Q 160.0 386.7, 160.0 385.4 L 160.0 380.8 L 158.6 380.8 " fill="#000000"/>
<path class="legend" d="M 172.7 388.7 L 172.7 390.0 L 164.6 390.0 L 164.6 388.7 L 172.7 388.7 " fill="#000000"/>
<path class="legend" d="M 180.2 375.7 L 180.2 387.9 L 179.0 387.9 L 178.8 386.9 Q 177.9 388.0, 176.4 388.0 Q 174.6 388.0, 173.7 387.0 Q 172.7 385.9, 172.7 383.9 Q 172.7 381.8, 173.9 380.7 Q 175.0 379.5, 177.0 379.5 Q 177.8 379.5, 178.7 379.7 L 178.7 375.7 L 180.2 375.7 M 176.5 386.8 Q 177.3 386.8, 177.9 386.4 Q 178.5 385.9, 178.7 385.1 L 178.7 380.9 Q 177.9 380.7, 177.0 380.7 Q 175.7 380.7, 175.0 381.6 Q 174.3 382.4, 174.3 383.9 Q 174.3 385.3, 174.8 386.1 Q 175.4 386.8, 176.5 386.8 " fill="#000000"/>
<path class="legend" d="M 181.5 376.6 L 183.0 376.6 L 183.0 378.0 L 181.5 378.0 L 181.5 376.6 M 181.5 379.7 L 183.0 379.7 L 183.0 387.9 L 181.5 387.9 L 181.5 379.7 " fill="#000000"/>
<path class="legend" d="M 184.8 386.2 Q 185.5 386.5, 186.0 386.6 Q 186.6 386.8, 187.1 386.8 Q 187.8 386.8, 188.2 386.5 Q 188.7 386.2, 188.7 385.6 Q 188.7 385.2, 188.4 385.0 Q 188.2 384.8, 188.0 384.6 Q 187.7 384.5, 187.0 384.3 Q 186.9 384.3, 186.1 384.0 Q 185.4 383.7, 185.0 383.2 Q 184.6 382.7, 184.6 381.9 Q 184.6 380.9, 185.4 380.2 Q 186.1 379.5, 187.6 379.5 Q 188.3 379.5, 188.8 379.7 Q 189.4 379.8, 190.0 380.0 L 189.6 381.2 Q 189.0 381.0, 188.6 380.9 Q 188.1 380.8, 187.6 380.8 Q 186.9 380.8, 186.5 381.1 Q 186.1 381.4, 186.1 381.8 Q 186.1 382.3, 186.4 382.5 Q 186.7 382.7, 187.4 383.0 Q 187.6 383.0, 187.7 383.1 L 188.1 383.2 Q 188.8 383.4, 189.2 383.7 Q 189.6 383.9, 189.9 384.4 Q 190.2 384.8, 190.2 385.6 Q 190.2 386.7, 189.3 387.4 Q 188.5 388.0, 187.1 388.0 Q 186.4 388.0, 185.7 387.9 Q 185.0 387.7, 184.3 387.4 L 184.8 386.2 " fill="#000000"/>
<path class="legend" d="M 191.0 380.8 L 191.0 379.7 L 192.6 379.7 L 192.8 377.3 L 194.0 377.3 L 194.0 379.7 L 196.5 379.7 L 196.5 380.8 L 194.0 380.8 L 194.0 385.4 Q 194.0 386.8, 195.2 386.8 Q 195.6 386.8, 196.3 386.6 L 196.6 387.6 Q 195.7 388.0, 194.9 388.0 Q 193.8 388.0, 193.1 387.3 Q 192.5 386.7, 192.5 385.4 L 192.5 380.8 L 191.0 380.8 " fill="#000000"/>
<path class="legend" d="" fill="#000000"/>
<path class="legend" d="M 202.3 380.9 L 209.7 380.9 L 209.7 382.1 L 202.3 382.1 L 202.3 380.9 M 202.3 384.4 L 209.7 384.4 L 209.7 385.5 L 202.3 385.5 L 202.3 384.4 " fill="#000000"/>
<path class="legend" d="" fill="#000000"/>
<path class="legend" d="M 220.6 388.0 Q 218.5 388.0, 217.5 386.5 Q 216.4 384.9, 216.4 382.2 Q 216.4 379.5, 217.5 378.0 Q 218.5 376.4, 220.6 376.4 Q 222.7 376.4, 223.7 378.0 Q 224.7 379.5, 224.7 382.2 Q 224.7 384.9, 223.7 386.5 Q 222.7 388.0, 220.6 388.0 M 220.6 386.7 Q 221.8 386.7, 222.5 385.6 Q 223.1 384.4, 223.1 382.2 Q 223.1 380.0, 222.5 378.8 Q 221.8 377.7, 220.6 377.7 Q 219.4 377.7, 218.7 378.8 Q 218.0 380.0, 218.0 382.2 Q 218.0 384.4, 218.7 385.6 Q 219.4 386.7, 220.6 386.7 " fill="#000000"/>
<path class="legend" d="M 225.8 386.3 L 227.4 386.3 L 227.4 387.9 L 225.8 387.9 L 225.8 386.3 " fill="#000000"/>
<path class="legend" d="M 232.6 388.0 Q 230.5 388.0, 229.4 386.5 Q 228.4 384.9, 228.4 382.2 Q 228.4 379.5, 229.4 378.0 Q 230.5 376.4, 232.6 376.4 Q 234.7 376.4, 235.7 378.0 Q 236.7 379.5, 236.7 382.2 Q 236.7 384.9, 235.7 386.5 Q 234.6 388.0, 232.6 388.0 M 232.6 386.7 Q 233.8 386.7, 234.4 385.6 Q 235.1 384.4, 235.1 382.2 Q 235.1 380.0, 234.4 378.8 Q 233.8 377.7, 232.6 377.7 Q 231.3 377.7, 230.7 378.8 Q 230.0 380.0, 230.0 382.2 Q 230.0 384.4, 230.7 385.6 Q 231.3 386.7, 232.6 386.7 " fill="#000000"/>
<path class="legend" d="M 241.9 388.0 Q 239.8 388.0, 238.8 386.5 Q 237.7 384.9, 237.7 382.2 Q 237.7 379.5, 238.8 378.0 Q 239.8 376.4, 241.9 376.4 Q 244.0 376.4, 245.0 378.0 Q 246.0 379.5, 246.0 382.2 Q 246.0 384.9, 245.0 386.5 Q 244.0 388.0, 241.9 388.0 M 241.9 386.7 Q 243.1 386.7, 243.8 385.6 Q 244.4 384.4, 244.4 382.2 Q 244.4 380.0, 243.8 378.8 Q 243.1 377.7, 241.9 377.7 Q 240.7 377.7, 240.0 378.8 Q 239.3 380.0, 239.3 382.2 Q 239.3 384.4, 240.0 385.6 Q 240.7 386.7, 241.9 386.7 " fill="#000000"/>
<path class="legend" d="M 251.2 388.0 Q 249.1 388.0, 248.1 386.5 Q 247.1 384.9, 247.1 382.2 Q 247.1 379.5, 248.1 378.0 Q 249.1 376.4, 251.2 376.4 Q 253.3 376.4, 254.3 378.0 Q 255.4 379.5, 255.4 382.2 Q 255.4 384.9, 254.3 386.5 Q 253.3 388.0, 251.2 388.0 M 251.2 386.7 Q 252.4 386.7, 253.1 385.6 Q 253.8 384.4, 253.8 382.2 Q 253.8 380.0, 253.1 378.8 Q 252.4 377.7, 251.2 377.7 Q 250.0 377.7, 249.3 378.8 Q 248.7 380.0, 248.7 382.2 Q 248.7 384.4, 249.3 385.6 Q 250.0 386.7, 251.2 386.7 " fill="#000000"/>
<path class="legend" d="M 260.5 388.0 Q 258.5 388.0, 257.4 386.5 Q 256.4 384.9, 256.4 382.2 Q 256.4 379.5, 257.4 378.0 Q 258.4 376.4, 260.5 376.4 Q 262.6 376.4, 263.7 378.0 Q 264.7 379.5, 264.7 382.2 Q 264.7 384.9, 263.6 386.5 Q 262.6 388.0, 260.5 388.0 M 260.5 386.7 Q 261.8 386.7, 262.4 385.6 Q 263.1 384.4, 263.1 382.2 Q 263.1 380.0, 262.4 378.8 Q 261.8 377.7, 260.5 377.7 Q 259.3 377.7, 258.7 378.8 Q 258.0 380.0, 258.0 382.2 Q 258.0 384.4, 258.7 385.6 Q 259.3 386.7, 260.5 386.7 " fill="#000000"/>
</svg>